<?xml version="1.0" encoding="UTF-8" standalone="no"?><svg xmlns="http://www.w3.org/2000/svg" xmlns:xlink="http://www.w3.org/1999/xlink" contentScriptType="application/ecmascript" contentStyleType="text/css" height="718px" preserveAspectRatio="none" style="width:1386px;height:718px;" version="1.1" viewBox="0 0 1386 718" width="1386px" zoomAndPan="magnify"><defs><filter height="300%" id="f1lsetnm0ql3ua" width="300%" x="-1" y="-1"><feGaussianBlur result="blurOut" stdDeviation="2.0"/><feColorMatrix in="blurOut" result="blurOut2" type="matrix" values="0 0 0 0 0 0 0 0 0 0 0 0 0 0 0 0 0 0 .4 0"/><feOffset dx="4.0" dy="4.0" in="blurOut2" result="blurOut3"/><feBlend in="SourceGraphic" in2="blurOut3" mode="normal"/></filter></defs><g><!--cluster ##8696--><!--cluster ##8705--><!--cluster ##8714--><!--class AccountService--><a target="_top" xlink:actuate="onRequest" xlink:href="../AccountService.html" xlink:show="new" xlink:title="Services linked to an account which are available to the account owner or to the holder of a mandate." xlink:type="simple"><rect fill="#FEFEEE" filter="url(#f1lsetnm0ql3ua)" height="23.9688" id="AccountService" style="stroke: #A80036; stroke-width: 1.5;" width="102" x="297.5" y="40"/><rect fill="#FEFEEE" height="23.9688" style="stroke: #A80036; stroke-width: 1.5;" width="102" x="297.5" y="40"/><text fill="#000000" font-family="sans-serif" font-size="12" lengthAdjust="spacingAndGlyphs" textLength="96" x="300.5" y="56.1387">AccountService</text></a><!--class CashAccountService--><a target="_top" xlink:actuate="onRequest" xlink:href="../CashAccountService.html" xlink:show="new" xlink:title="Services linked to an account which are available to the account owner or to the holder of a mandate. The exercise of these services may be submitted to a limit." xlink:type="simple"><rect fill="#FEFEEE" filter="url(#f1lsetnm0ql3ua)" height="83.1875" id="CashAccountService" style="stroke: #A80036; stroke-width: 1.5;" width="312" x="87" y="142.5"/><rect fill="#FEFEEE" height="23.9688" style="stroke: #A80036; stroke-width: 1.5;" width="312" x="87" y="142.5"/><text fill="#000000" font-family="sans-serif" font-size="12" lengthAdjust="spacingAndGlyphs" textLength="127" x="179.5" y="158.6387">CashAccountService</text><line style="stroke: #A80036; stroke-width: 1.5;" x1="88" x2="398" y1="166.4688" y2="166.4688"/><ellipse cx="98" cy="178.3711" fill="#84BE84" rx="3" ry="3" style="stroke: #038048; stroke-width: 1.0;"/><text fill="#000000" font-family="sans-serif" font-size="11" lengthAdjust="spacingAndGlyphs" textLength="123" x="107" y="180.6792">CompensationMethod</text><text fill="#000000" font-family="sans-serif" font-size="11" font-style="italic" lengthAdjust="spacingAndGlyphs" textLength="159" x="234" y="180.6792">(CompensationMethodCode)</text><ellipse cx="98" cy="191.1758" fill="#84BE84" rx="3" ry="3" style="stroke: #038048; stroke-width: 1.0;"/><text fill="#000000" font-family="sans-serif" font-size="11" lengthAdjust="spacingAndGlyphs" textLength="85" x="107" y="193.4839">BillingCurrency</text><text fill="#000000" font-family="sans-serif" font-size="11" font-style="italic" lengthAdjust="spacingAndGlyphs" textLength="151" x="196" y="193.4839">(BillingCurrencyTypeCode)</text><ellipse cx="98" cy="203.9805" fill="#84BE84" rx="3" ry="3" style="stroke: #038048; stroke-width: 1.0;"/><text fill="#000000" font-family="sans-serif" font-size="11" lengthAdjust="spacingAndGlyphs" textLength="116" x="107" y="206.2886">BillingChargeMethod</text><text fill="#000000" font-family="sans-serif" font-size="11" font-style="italic" lengthAdjust="spacingAndGlyphs" textLength="153" x="227" y="206.2886">(BillingChargeMethodCode)</text><ellipse cx="98" cy="216.7852" fill="#84BE84" rx="3" ry="3" style="stroke: #038048; stroke-width: 1.0;"/><text fill="#000000" font-family="sans-serif" font-size="11" lengthAdjust="spacingAndGlyphs" textLength="90" x="107" y="219.0933">PaymentMethod</text><text fill="#000000" font-family="sans-serif" font-size="11" font-style="italic" lengthAdjust="spacingAndGlyphs" textLength="170" x="201" y="219.0933">(ServicePaymentMethodCode)</text></a><!--class AccountSwitching--><a target="_top" xlink:actuate="onRequest" xlink:href="../AccountSwitching.html" xlink:show="new" xlink:title="The Account Switch Service support the guaranteed switch of a customer’s account and the transfer of payments arrangements associated with the account from one payment institution to another payment institution." xlink:type="simple"><rect fill="#FEFECE" filter="url(#f1lsetnm0ql3ua)" height="108.7969" id="AccountSwitching" style="stroke: #A80036; stroke-width: 1.5;" width="340" x="59" y="304.5"/><rect fill="#FEFECE" height="23.9688" style="stroke: #A80036; stroke-width: 1.5;" width="340" x="59" y="304.5"/><text fill="#000000" font-family="sans-serif" font-size="12" lengthAdjust="spacingAndGlyphs" textLength="110" x="174" y="320.6387">AccountSwitching</text><line style="stroke: #A80036; stroke-width: 1.5;" x1="60" x2="398" y1="328.4688" y2="328.4688"/><ellipse cx="70" cy="340.3711" fill="#84BE84" rx="3" ry="3" style="stroke: #038048; stroke-width: 1.0;"/><text fill="#000000" font-family="sans-serif" font-size="11" lengthAdjust="spacingAndGlyphs" textLength="141" x="79" y="342.6792">SwitchReceivedDateTime</text><text fill="#000000" font-family="sans-serif" font-size="11" font-style="italic" lengthAdjust="spacingAndGlyphs" textLength="81" x="224" y="342.6792">(ISODateTime)</text><ellipse cx="70" cy="353.1758" fill="#84BE84" rx="3" ry="3" style="stroke: #038048; stroke-width: 1.0;"/><text fill="#000000" font-family="sans-serif" font-size="11" lengthAdjust="spacingAndGlyphs" textLength="63" x="79" y="355.4839">SwitchDate</text><text fill="#000000" font-family="sans-serif" font-size="11" font-style="italic" lengthAdjust="spacingAndGlyphs" textLength="53" x="146" y="355.4839">(ISODate)</text><ellipse cx="70" cy="365.9805" fill="#84BE84" rx="3" ry="3" style="stroke: #038048; stroke-width: 1.0;"/><text fill="#000000" font-family="sans-serif" font-size="11" lengthAdjust="spacingAndGlyphs" textLength="74" x="79" y="368.2886">SwitchStatus</text><text fill="#000000" font-family="sans-serif" font-size="11" font-style="italic" lengthAdjust="spacingAndGlyphs" textLength="108" x="157" y="368.2886">(SwitchStatusCode)</text><ellipse cx="70" cy="378.7852" fill="#84BE84" rx="3" ry="3" style="stroke: #038048; stroke-width: 1.0;"/><text fill="#000000" font-family="sans-serif" font-size="11" lengthAdjust="spacingAndGlyphs" textLength="141" x="79" y="381.0933">UniqueReferenceNumber</text><text fill="#000000" font-family="sans-serif" font-size="11" font-style="italic" lengthAdjust="spacingAndGlyphs" textLength="70" x="224" y="381.0933">(Max35Text)</text><ellipse cx="70" cy="391.5898" fill="#84BE84" rx="3" ry="3" style="stroke: #038048; stroke-width: 1.0;"/><text fill="#000000" font-family="sans-serif" font-size="11" lengthAdjust="spacingAndGlyphs" textLength="64" x="79" y="393.8979">SwitchType</text><text fill="#000000" font-family="sans-serif" font-size="11" font-style="italic" lengthAdjust="spacingAndGlyphs" textLength="101" x="147" y="393.8979">(SwitchTypeCode)</text><ellipse cx="70" cy="404.3945" fill="#84BE84" rx="3" ry="3" style="stroke: #038048; stroke-width: 1.0;"/><text fill="#000000" font-family="sans-serif" font-size="11" lengthAdjust="spacingAndGlyphs" textLength="136" x="79" y="406.7026">BalanceTransferWindow</text><text fill="#000000" font-family="sans-serif" font-size="11" font-style="italic" lengthAdjust="spacingAndGlyphs" textLength="174" x="219" y="406.7026">(BalanceTransferWindowCode)</text></a><!--class AccountContract--><a target="_top" xlink:actuate="onRequest" xlink:href="../AccountContract.html" xlink:show="new" xlink:title="Agreement between an account servicer and an account owner about the services linked to an account." xlink:type="simple"><rect fill="#EEEEEE" filter="url(#f1lsetnm0ql3ua)" height="23.9688" id="AccountContract" style="stroke: #A80036; stroke-width: 1.5;" width="111" x="1153.75" y="172"/><rect fill="#EEEEEE" height="23.9688" style="stroke: #A80036; stroke-width: 1.5;" width="111" x="1153.75" y="172"/><text fill="#000000" font-family="sans-serif" font-size="12" lengthAdjust="spacingAndGlyphs" textLength="105" x="1156.75" y="188.1387">AccountContract</text></a><!--class Reservation--><a target="_top" xlink:actuate="onRequest" xlink:href="../Reservation.html" xlink:show="new" xlink:title="Liquidity set aside by the payer for specific purposes." xlink:type="simple"><rect fill="#EEEEEE" filter="url(#f1lsetnm0ql3ua)" height="23.9688" id="Reservation" style="stroke: #A80036; stroke-width: 1.5;" width="80" x="1061" y="494"/><rect fill="#EEEEEE" height="23.9688" style="stroke: #A80036; stroke-width: 1.5;" width="80" x="1061" y="494"/><text fill="#000000" font-family="sans-serif" font-size="12" lengthAdjust="spacingAndGlyphs" textLength="74" x="1064" y="510.1387">Reservation</text></a><!--class Account--><a target="_top" xlink:actuate="onRequest" xlink:href="../Account.html" xlink:show="new" xlink:title="Record of transactions in specific types of assets, maintained by a servicing party on behalf of one or more owning parties. Business relationship between an account servicer and one or more account owners." xlink:type="simple"><rect fill="#EEEEEE" filter="url(#f1lsetnm0ql3ua)" height="23.9688" id="Account" style="stroke: #A80036; stroke-width: 1.5;" width="57" x="1098.75" y="347"/><rect fill="#EEEEEE" height="23.9688" style="stroke: #A80036; stroke-width: 1.5;" width="57" x="1098.75" y="347"/><text fill="#000000" font-family="sans-serif" font-size="12" lengthAdjust="spacingAndGlyphs" textLength="51" x="1101.75" y="363.1387">Account</text></a><!--class Charges--><a target="_top" xlink:actuate="onRequest" xlink:href="../Charges.html" xlink:show="new" xlink:title="Amount of money associated with a service." xlink:type="simple"><rect fill="#EEEEEE" filter="url(#f1lsetnm0ql3ua)" height="23.9688" id="Charges" style="stroke: #A80036; stroke-width: 1.5;" width="58" x="1061.5" y="172"/><rect fill="#EEEEEE" height="23.9688" style="stroke: #A80036; stroke-width: 1.5;" width="58" x="1061.5" y="172"/><text fill="#000000" font-family="sans-serif" font-size="12" lengthAdjust="spacingAndGlyphs" textLength="52" x="1064.5" y="188.1387">Charges</text></a><!--class CashAccountMandate--><a target="_top" xlink:actuate="onRequest" xlink:href="../CashAccountMandate.html" xlink:show="new" xlink:title="Authorisation given to a mandate holder to perform some operation on an account." xlink:type="simple"><rect fill="#EEEEEE" filter="url(#f1lsetnm0ql3ua)" height="23.9688" id="CashAccountMandate" style="stroke: #A80036; stroke-width: 1.5;" width="143" x="505.75" y="347"/><rect fill="#EEEEEE" height="23.9688" style="stroke: #A80036; stroke-width: 1.5;" width="143" x="505.75" y="347"/><text fill="#000000" font-family="sans-serif" font-size="12" lengthAdjust="spacingAndGlyphs" textLength="137" x="508.75" y="363.1387">CashAccountMandate</text></a><!--class CashAccountContract--><a target="_top" xlink:actuate="onRequest" xlink:href="../CashAccountContract.html" xlink:show="new" xlink:title="Account contract established between the organisation or the group to which the organisation belongs, and the account servicer." xlink:type="simple"><rect fill="#EEEEEE" filter="url(#f1lsetnm0ql3ua)" height="23.9688" id="CashAccountContract" style="stroke: #A80036; stroke-width: 1.5;" width="142" x="617" y="494"/><rect fill="#EEEEEE" height="23.9688" style="stroke: #A80036; stroke-width: 1.5;" width="142" x="617" y="494"/><text fill="#000000" font-family="sans-serif" font-size="12" lengthAdjust="spacingAndGlyphs" textLength="136" x="620" y="510.1387">CashAccountContract</text></a><!--class GenericIdentification--><a target="_top" xlink:actuate="onRequest" xlink:href="../GenericIdentification.html" xlink:show="new" xlink:title="Information related to a non-standardised identification, such as a proprietary party identification or account identification." xlink:type="simple"><rect fill="#EEEEEE" filter="url(#f1lsetnm0ql3ua)" height="23.9688" id="GenericIdentification" style="stroke: #A80036; stroke-width: 1.5;" width="135" x="657.75" y="684"/><rect fill="#EEEEEE" height="23.9688" style="stroke: #A80036; stroke-width: 1.5;" width="135" x="657.75" y="684"/><text fill="#000000" font-family="sans-serif" font-size="12" lengthAdjust="spacingAndGlyphs" textLength="129" x="660.75" y="700.1387">GenericIdentification</text></a><!--class CashAccount--><a target="_top" xlink:actuate="onRequest" xlink:href="../CashAccount.html" xlink:show="new" xlink:title="Account to or from which a cash entry is made." xlink:type="simple"><rect fill="#EEEEEE" filter="url(#f1lsetnm0ql3ua)" height="23.9688" id="CashAccount" style="stroke: #A80036; stroke-width: 1.5;" width="88" x="623.5" y="598"/><rect fill="#EEEEEE" height="23.9688" style="stroke: #A80036; stroke-width: 1.5;" width="88" x="623.5" y="598"/><text fill="#000000" font-family="sans-serif" font-size="12" lengthAdjust="spacingAndGlyphs" textLength="82" x="626.5" y="614.1387">CashAccount</text></a><!--entity ##8723--><!--link AccountService to CashAccountService--><path d="M326.391,79.754 C311.789,97.833 292.238,122.039 275.737,142.469 " fill="none" id="AccountService-CashAccountService" style="stroke: #A80036; stroke-width: 1.0;"/><polygon fill="none" points="321.035,75.244,339.048,64.084,331.927,84.041,321.035,75.244" style="stroke: #A80036; stroke-width: 1.0;"/><!--link CashAccountService to AccountSwitching--><path d="M238.087,245.712 C236.543,264.787 234.851,285.703 233.349,304.259 " fill="none" id="CashAccountService-AccountSwitching" style="stroke: #A80036; stroke-width: 1.0;"/><polygon fill="none" points="231.127,244.931,239.718,225.561,245.081,246.06,231.127,244.931" style="stroke: #A80036; stroke-width: 1.0;"/><!--link Reservation to AccountContract--><!--link Account to Reservation--><!--link Charges to Account--><!--link CashAccountContract to CashAccountMandate--><!--link CashAccountMandate to CashAccountContract--><path d="M569.417,371.224 C556.616,391.706 534.066,435.64 555,464 C568.474,482.254 589.957,492.633 611.761,498.458 " fill="none" id="CashAccountMandate-CashAccountContract" style="stroke: #A80036; stroke-width: 1.0;"/><polygon fill="#A80036" points="616.711,499.703,608.9591,493.6278,611.8621,498.4829,607.007,501.386,616.711,499.703" style="stroke: #A80036; stroke-width: 1.0;"/><text fill="#000000" font-family="sans-serif" font-size="13" lengthAdjust="spacingAndGlyphs" textLength="139" x="556" y="459.0669">CashAccountContract</text><text fill="#000000" font-family="sans-serif" font-size="13" lengthAdjust="spacingAndGlyphs" textLength="7" x="601.961" y="494.4593">*</text><!--link GenericIdentification to CashAccountContract--><!--link CashAccount to GenericIdentification--><!--link AccountService to AccountContract--><path d="M398.787,52.747 C566.339,52.297 1094.59,54.088 1159,94 C1185.39,110.35 1199.07,145.991 1205.08,166.87 " fill="none" id="AccountService-AccountContract" style="stroke: #A80036; stroke-width: 1.0;"/><polygon fill="#A80036" points="1206.45,171.84,1207.9171,162.101,1205.1226,167.0194,1200.2041,164.2249,1206.45,171.84" style="stroke: #A80036; stroke-width: 1.0;"/><text fill="#000000" font-family="sans-serif" font-size="13" lengthAdjust="spacingAndGlyphs" textLength="107" x="1178" y="107.0669">AccountContract</text><text fill="#000000" font-family="sans-serif" font-size="13" lengthAdjust="spacingAndGlyphs" textLength="7" x="1195.9406" y="160.8332">*</text><!--link AccountService to Reservation--><path d="M382.078,64.085 C465.991,92.692 686.136,175.85 829,304 C892.682,361.122 866.002,414.821 936,464 C971.335,488.826 1020.17,498.667 1055.54,502.542 " fill="none" id="AccountService-Reservation" style="stroke: #A80036; stroke-width: 1.0;"/><polygon fill="#A80036" points="1060.66,503.072,1052.1191,498.1676,1055.6865,502.5578,1051.2964,506.1252,1060.66,503.072" style="stroke: #A80036; stroke-width: 1.0;"/><text fill="#000000" font-family="sans-serif" font-size="13" lengthAdjust="spacingAndGlyphs" textLength="75" x="792" y="269.0669">Reservation</text><text fill="#000000" font-family="sans-serif" font-size="13" lengthAdjust="spacingAndGlyphs" textLength="8" x="1045.0007" y="497.4725">1</text><!--link AccountService to Account--><path d="M398.687,53.276 C590.654,54.567 1263.79,61.408 1295,94 C1312.35,112.119 1374.37,23.399 1282,226 C1256.04,282.941 1191.85,324.259 1154.73,344.327 " fill="none" id="AccountService-Account" style="stroke: #A80036; stroke-width: 1.0;"/><polygon fill="#A80036" points="1149.9,346.901,1159.7231,346.1888,1154.3103,344.5452,1155.9539,339.1324,1149.9,346.901" style="stroke: #A80036; stroke-width: 1.0;"/><text fill="#000000" font-family="sans-serif" font-size="13" lengthAdjust="spacingAndGlyphs" textLength="52" x="1318" y="188.0669">Account</text><text fill="#000000" font-family="sans-serif" font-size="13" lengthAdjust="spacingAndGlyphs" textLength="8" x="1146.9672" y="335.9152">1</text><!--link AccountService to Charges--><path d="M398.714,54.032 C519.45,56.91 821.072,66.688 918,94 C948.398,102.565 1026.81,146.488 1066.39,169.262 " fill="none" id="AccountService-Charges" style="stroke: #A80036; stroke-width: 1.0;"/><polygon fill="#A80036" points="1071.02,171.931,1065.2039,163.9829,1066.683,169.4429,1061.223,170.922,1071.02,171.931" style="stroke: #A80036; stroke-width: 1.0;"/><text fill="#000000" font-family="sans-serif" font-size="13" lengthAdjust="spacingAndGlyphs" textLength="191" x="962" y="107.0669">AccountAdministrationCharge</text><text fill="#000000" font-family="sans-serif" font-size="13" lengthAdjust="spacingAndGlyphs" textLength="24" x="1034.855" y="160.9555">0..1</text><!--link CashAccountService to CashAccountMandate--><path d="M399.18,219.996 C426.509,229.479 453.882,241.317 478,256 C515.942,279.099 549.472,320.142 566.037,342.476 " fill="none" id="CashAccountService-CashAccountMandate" style="stroke: #A80036; stroke-width: 1.0;"/><polygon fill="#A80036" points="569.12,346.682,567.026,337.0583,566.1643,342.6492,560.5735,341.7874,569.12,346.682" style="stroke: #A80036; stroke-width: 1.0;"/><text fill="#000000" font-family="sans-serif" font-size="13" lengthAdjust="spacingAndGlyphs" textLength="140" x="502" y="269.0669">CashAccountMandate</text><text fill="#000000" font-family="sans-serif" font-size="13" lengthAdjust="spacingAndGlyphs" textLength="7" x="556.9363" y="335.8801">*</text><!--link CashAccountService to CashAccountContract--><path d="M399.184,195.434 C498.216,205.13 614.494,223.211 652,256 C718.669,314.285 698.509,358.479 712,446 C713.219,453.907 714.094,456.279 712,464 C709.533,473.097 704.486,482.243 699.654,489.581 " fill="none" id="CashAccountService-CashAccountContract" style="stroke: #A80036; stroke-width: 1.0;"/><polygon fill="#A80036" points="696.698,493.899,705.0826,488.7319,699.5224,489.7731,698.4812,484.2129,696.698,493.899" style="stroke: #A80036; stroke-width: 1.0;"/><text fill="#000000" font-family="sans-serif" font-size="13" lengthAdjust="spacingAndGlyphs" textLength="139" x="712" y="363.0669">CashAccountContract</text><text fill="#000000" font-family="sans-serif" font-size="13" lengthAdjust="spacingAndGlyphs" textLength="8" x="688.9692" y="482.9125">1</text><!--link CashAccountService to GenericIdentification--><path d="M117.907,225.664 C60.9341,252.785 6,295.214 6,358 C6,358 6,358 6,611 C6,675.6282 470.208,690.6304 652.631,694.0307 " fill="none" id="CashAccountService-GenericIdentification" style="stroke: #A80036; stroke-width: 1.0;"/><polygon fill="#A80036" points="657.681,694.1232,648.7556,689.9593,652.6818,694.0318,648.6094,697.958,657.681,694.1232" style="stroke: #A80036; stroke-width: 1.0;"/><text fill="#000000" font-family="sans-serif" font-size="13" lengthAdjust="spacingAndGlyphs" textLength="81" x="7" y="510.0669">Identification</text><text fill="#000000" font-family="sans-serif" font-size="13" lengthAdjust="spacingAndGlyphs" textLength="8" x="641.7643" y="689.2089">1</text><!--link CashAccountService to CashAccount--><path d="M327.392,225.701 C359.59,245.192 393.843,271.456 416,304 C457.077,364.332 423.697,397.153 453,464 C475.47,515.258 478.63,535.231 524,568 C551.61,587.941 588.72,598.217 618.216,603.495 " fill="none" id="CashAccountService-CashAccount" style="stroke: #A80036; stroke-width: 1.0;"/><polygon fill="#A80036" points="623.256,604.361,615.0655,598.8915,618.3285,603.5124,613.7077,606.7754,623.256,604.361" style="stroke: #A80036; stroke-width: 1.0;"/><text fill="#000000" font-family="sans-serif" font-size="13" lengthAdjust="spacingAndGlyphs" textLength="84" x="454" y="459.0669">CashAccount</text><text fill="#000000" font-family="sans-serif" font-size="13" lengthAdjust="spacingAndGlyphs" textLength="8" x="607.6388" y="598.539">1</text><!--link AccountContract to Account--><path d="M1203.75,196.085 C1189.66,225.797 1151.03,307.308 1134.58,342.014 " fill="none" id="AccountContract-Account" style="stroke: #A80036; stroke-width: 1.0;"/><polygon fill="#A80036" points="1132.32,346.783,1139.7913,340.3659,1134.463,342.2655,1132.5633,336.9371,1132.32,346.783" style="stroke: #A80036; stroke-width: 1.0;"/><text fill="#000000" font-family="sans-serif" font-size="13" lengthAdjust="spacingAndGlyphs" textLength="52" x="1176" y="269.0669">Account</text><text fill="#000000" font-family="sans-serif" font-size="13" lengthAdjust="spacingAndGlyphs" textLength="7" x="1124.5088" y="336.0146">*</text><!--link Account to Account--><path d="M1143.14,346.952 C1164.37,336.625 1190,340.641 1190,359 C1190,375.997 1168.03,380.7 1147.92,373.111 " fill="none" id="Account-Account" style="stroke: #A80036; stroke-width: 1.0;"/><polygon fill="#A80036" points="1143.14,371.048,1149.8326,378.2736,1147.7346,373.0202,1152.9881,370.9222,1143.14,371.048" style="stroke: #A80036; stroke-width: 1.0;"/><text fill="#000000" font-family="sans-serif" font-size="13" lengthAdjust="spacingAndGlyphs" textLength="94" x="1196" y="363.0669">ParentAccount</text><text fill="#000000" font-family="sans-serif" font-size="13" lengthAdjust="spacingAndGlyphs" textLength="8" x="1138.6321" y="391.2123">1</text><!--link Account to GenericIdentification--><path d="M1134.02,371.051 C1152.33,401.426 1197.55,487.532 1159,542 C1076.62,658.3928 898.142,686.8586 797.613,693.4259 " fill="none" id="Account-GenericIdentification" style="stroke: #A80036; stroke-width: 1.0;"/><polygon fill="#A80036" points="792.59,693.7401,801.8217,697.1717,797.5803,693.4287,801.3234,689.1873,792.59,693.7401" style="stroke: #A80036; stroke-width: 1.0;"/><text fill="#000000" font-family="sans-serif" font-size="13" lengthAdjust="spacingAndGlyphs" textLength="30" x="1151" y="563.0669">Type</text><text fill="#000000" font-family="sans-serif" font-size="13" lengthAdjust="spacingAndGlyphs" textLength="8" x="800.8387" y="688.5724">1</text><!--link Charges to CashAccount--><path d="M1085.25,196.169 C1062.83,247.444 962.45,462.306 811,568 C782.79,587.688 745.262,597.977 715.59,603.324 " fill="none" id="Charges-CashAccount" style="stroke: #A80036; stroke-width: 1.0;"/><polygon fill="#A80036" points="710.523,604.203,720.0742,606.6062,715.4495,603.3486,718.7071,598.7239,710.523,604.203" style="stroke: #A80036; stroke-width: 1.0;"/><text fill="#000000" font-family="sans-serif" font-size="13" lengthAdjust="spacingAndGlyphs" textLength="139" x="937" y="459.0669">ChargesDebitAccount</text><text fill="#000000" font-family="sans-serif" font-size="13" lengthAdjust="spacingAndGlyphs" textLength="7" x="719.3914" y="597.5602">*</text><!--link CashAccountContract to CashAccount--><path d="M620.383,518.058 C585.261,525.328 547.511,536.078 537,550 C512.649,582.254 572.06,597.356 618.408,604.071 " fill="none" id="CashAccountContract-CashAccount" style="stroke: #A80036; stroke-width: 1.0;"/><polygon fill="#A80036" points="623.418,604.772,615.0592,599.5634,618.4662,604.0791,613.9505,607.4862,623.418,604.772" style="stroke: #A80036; stroke-width: 1.0;"/><text fill="#000000" font-family="sans-serif" font-size="13" lengthAdjust="spacingAndGlyphs" textLength="84" x="538" y="563.0669">CashAccount</text><text fill="#000000" font-family="sans-serif" font-size="13" lengthAdjust="spacingAndGlyphs" textLength="7" x="608.5862" y="617.1699">*</text><!--link CashAccountContract to CashAccount--><path d="M679.539,518.35 C673.909,526.642 667.014,538.417 664,550 C660.327,564.116 661.661,580.757 663.572,592.761 " fill="none" id="CashAccountContract-CashAccount" style="stroke: #A80036; stroke-width: 1.0;"/><polygon fill="#A80036" points="664.475,597.924,666.8675,588.3701,663.615,592.9985,658.9867,589.7461,664.475,597.924" style="stroke: #A80036; stroke-width: 1.0;"/><text fill="#000000" font-family="sans-serif" font-size="13" lengthAdjust="spacingAndGlyphs" textLength="136" x="665" y="563.0669">TransferCashAccount</text><text fill="#000000" font-family="sans-serif" font-size="13" lengthAdjust="spacingAndGlyphs" textLength="7" x="653.8883" y="586.9461">*</text></g></svg>