<?xml version="1.0" encoding="UTF-8" standalone="no"?><svg xmlns="http://www.w3.org/2000/svg" xmlns:xlink="http://www.w3.org/1999/xlink" contentScriptType="application/ecmascript" contentStyleType="text/css" height="370px" preserveAspectRatio="none" style="width:786px;height:370px;" version="1.1" viewBox="0 0 786 370" width="786px" zoomAndPan="magnify"><defs><filter height="300%" id="fxvyxfphl1ri" width="300%" x="-1" y="-1"><feGaussianBlur result="blurOut" stdDeviation="2.0"/><feColorMatrix in="blurOut" result="blurOut2" type="matrix" values="0 0 0 0 0 0 0 0 0 0 0 0 0 0 0 0 0 0 .4 0"/><feOffset dx="4.0" dy="4.0" in="blurOut2" result="blurOut3"/><feBlend in="SourceGraphic" in2="blurOut3" mode="normal"/></filter></defs><g><!--cluster ##10540--><!--cluster ##10552--><!--class AccountService--><a target="_top" xlink:actuate="onRequest" xlink:href="../AccountService.html" xlink:show="new" xlink:title="Services linked to an account which are available to the account owner or to the holder of a mandate." xlink:type="simple"><rect fill="#FEFECE" filter="url(#fxvyxfphl1ri)" height="23.9688" id="AccountService" style="stroke: #A80036; stroke-width: 1.5;" width="102" x="254.5" y="40"/><rect fill="#FEFECE" height="23.9688" style="stroke: #A80036; stroke-width: 1.5;" width="102" x="254.5" y="40"/><text fill="#000000" font-family="sans-serif" font-size="12" lengthAdjust="spacingAndGlyphs" textLength="96" x="257.5" y="56.1387">AccountService</text></a><!--class ReportingService--><a target="_top" xlink:actuate="onRequest" xlink:href="../ReportingService.html" xlink:show="new" xlink:title="Specifies the reporting parameters that are included in the account contract which specifies the services linked to the account.." xlink:type="simple"><rect fill="#FEFEEE" filter="url(#fxvyxfphl1ri)" height="23.9688" id="ReportingService" style="stroke: #A80036; stroke-width: 1.5;" width="112" x="75.5" y="144"/><rect fill="#FEFEEE" height="23.9688" style="stroke: #A80036; stroke-width: 1.5;" width="112" x="75.5" y="144"/><text fill="#000000" font-family="sans-serif" font-size="12" lengthAdjust="spacingAndGlyphs" textLength="106" x="78.5" y="160.1387">ReportingService</text></a><!--class CashAccountService--><a target="_top" xlink:actuate="onRequest" xlink:href="../CashAccountService.html" xlink:show="new" xlink:title="Services linked to an account which are available to the account owner or to the holder of a mandate. The exercise of these services may be submitted to a limit." xlink:type="simple"><rect fill="#FEFEEE" filter="url(#fxvyxfphl1ri)" height="23.9688" id="CashAccountService" style="stroke: #A80036; stroke-width: 1.5;" width="133" x="222.75" y="144"/><rect fill="#FEFEEE" height="23.9688" style="stroke: #A80036; stroke-width: 1.5;" width="133" x="222.75" y="144"/><text fill="#000000" font-family="sans-serif" font-size="12" lengthAdjust="spacingAndGlyphs" textLength="127" x="225.75" y="160.1387">CashAccountService</text></a><!--class InvestmentAccountService--><a target="_top" xlink:actuate="onRequest" xlink:href="../InvestmentAccountService.html" xlink:show="new" xlink:title="Services linked to an account which are available to the account owner or to the holder of a mandate. The exercise of these services may be submitted to a limit." xlink:type="simple"><rect fill="#FEFEEE" filter="url(#fxvyxfphl1ri)" height="23.9688" id="InvestmentAccountService" style="stroke: #A80036; stroke-width: 1.5;" width="171" x="40.75" y="248"/><rect fill="#FEFEEE" height="23.9688" style="stroke: #A80036; stroke-width: 1.5;" width="171" x="40.75" y="248"/><text fill="#000000" font-family="sans-serif" font-size="12" lengthAdjust="spacingAndGlyphs" textLength="165" x="43.75" y="264.1387">InvestmentAccountService</text></a><!--class AccountContract--><a target="_top" xlink:actuate="onRequest" xlink:href="../AccountContract.html" xlink:show="new" xlink:title="Agreement between an account servicer and an account owner about the services linked to an account." xlink:type="simple"><rect fill="#EEEEEE" filter="url(#fxvyxfphl1ri)" height="23.9688" id="AccountContract" style="stroke: #A80036; stroke-width: 1.5;" width="111" x="564.75" y="144"/><rect fill="#EEEEEE" height="23.9688" style="stroke: #A80036; stroke-width: 1.5;" width="111" x="564.75" y="144"/><text fill="#000000" font-family="sans-serif" font-size="12" lengthAdjust="spacingAndGlyphs" textLength="105" x="567.75" y="160.1387">AccountContract</text></a><!--class Reservation--><a target="_top" xlink:actuate="onRequest" xlink:href="../Reservation.html" xlink:show="new" xlink:title="Liquidity set aside by the payer for specific purposes." xlink:type="simple"><rect fill="#EEEEEE" filter="url(#fxvyxfphl1ri)" height="23.9688" id="Reservation" style="stroke: #A80036; stroke-width: 1.5;" width="80" x="464" y="336"/><rect fill="#EEEEEE" height="23.9688" style="stroke: #A80036; stroke-width: 1.5;" width="80" x="464" y="336"/><text fill="#000000" font-family="sans-serif" font-size="12" lengthAdjust="spacingAndGlyphs" textLength="74" x="467" y="352.1387">Reservation</text></a><!--class Account--><a target="_top" xlink:actuate="onRequest" xlink:href="../Account.html" xlink:show="new" xlink:title="Record of transactions in specific types of assets, maintained by a servicing party on behalf of one or more owning parties. Business relationship between an account servicer and one or more account owners." xlink:type="simple"><rect fill="#EEEEEE" filter="url(#fxvyxfphl1ri)" height="23.9688" id="Account" style="stroke: #A80036; stroke-width: 1.5;" width="57" x="464.75" y="248"/><rect fill="#EEEEEE" height="23.9688" style="stroke: #A80036; stroke-width: 1.5;" width="57" x="464.75" y="248"/><text fill="#000000" font-family="sans-serif" font-size="12" lengthAdjust="spacingAndGlyphs" textLength="51" x="467.75" y="264.1387">Account</text></a><!--class Charges--><a target="_top" xlink:actuate="onRequest" xlink:href="../Charges.html" xlink:show="new" xlink:title="Amount of money associated with a service." xlink:type="simple"><rect fill="#EEEEEE" filter="url(#fxvyxfphl1ri)" height="23.9688" id="Charges" style="stroke: #A80036; stroke-width: 1.5;" width="58" x="464.5" y="144"/><rect fill="#EEEEEE" height="23.9688" style="stroke: #A80036; stroke-width: 1.5;" width="58" x="464.5" y="144"/><text fill="#000000" font-family="sans-serif" font-size="12" lengthAdjust="spacingAndGlyphs" textLength="52" x="467.5" y="160.1387">Charges</text></a><!--link AccountService to ReportingService--><path d="M268.516,74.387 C232.324,95.603 178.286,127.28 149.929,143.904 " fill="none" id="AccountService-ReportingService" style="stroke: #A80036; stroke-width: 1.0;"/><polygon fill="none" points="265.254,68.186,286.048,64.11,272.334,80.263,265.254,68.186" style="stroke: #A80036; stroke-width: 1.0;"/><!--link AccountService to CashAccountService--><path d="M300.095,84.267 C296.913,104.554 292.958,129.766 290.733,143.954 " fill="none" id="AccountService-CashAccountService" style="stroke: #A80036; stroke-width: 1.0;"/><polygon fill="none" points="293.212,82.979,303.227,64.306,307.043,85.149,293.212,82.979" style="stroke: #A80036; stroke-width: 1.0;"/><!--link AccountService to InvestmentAccountService--><path d="M234.643,62.412 C169.181,72.783 78.5766,91.821 57,120 C24.4059,162.568 84.1796,222.949 112.413,247.727 " fill="none" id="AccountService-InvestmentAccountService" style="stroke: #A80036; stroke-width: 1.0;"/><polygon fill="none" points="233.648,55.483,254.471,59.41,235.744,69.325,233.648,55.483" style="stroke: #A80036; stroke-width: 1.0;"/><!--link Reservation to AccountContract--><!--link Account to Reservation--><!--link Charges to Account--><!--link AccountService to AccountContract--><path d="M355.592,55.536 C424.843,59.837 544.711,70.498 581,94 C597.35,104.589 608.196,124.711 614.211,138.944 " fill="none" id="AccountService-AccountContract" style="stroke: #A80036; stroke-width: 1.0;"/><polygon fill="#A80036" points="616.21,143.893,616.5501,134.05,614.3383,139.2566,609.1317,137.0448,616.21,143.893" style="stroke: #A80036; stroke-width: 1.0;"/><text fill="#000000" font-family="sans-serif" font-size="13" lengthAdjust="spacingAndGlyphs" textLength="107" x="600" y="107.0669">AccountContract</text><text fill="#000000" font-family="sans-serif" font-size="13" lengthAdjust="spacingAndGlyphs" textLength="7" x="605.2744" y="132.9044">*</text><!--link AccountService to Reservation--><path d="M310.85,64.109 C318.301,77.266 332.356,99.027 350,112 C358.382,118.163 364.64,112.646 372,120 C404.126,152.099 389.038,174.289 407,216 C422.723,252.511 422.871,264.409 447,296 C457.624,309.9097 472.419,323.0163 484.273,332.459 " fill="none" id="AccountService-Reservation" style="stroke: #A80036; stroke-width: 1.0;"/><polygon fill="#A80036" points="488.495,335.7669,483.8766,327.068,484.5589,332.6836,478.9433,333.3659,488.495,335.7669" style="stroke: #A80036; stroke-width: 1.0;"/><text fill="#000000" font-family="sans-serif" font-size="13" lengthAdjust="spacingAndGlyphs" textLength="75" x="408" y="211.0669">Reservation</text><text fill="#000000" font-family="sans-serif" font-size="13" lengthAdjust="spacingAndGlyphs" textLength="8" x="472.7027" y="324.9931">1</text><!--link AccountService to Account--><path d="M355.581,54.311 C460.307,57.547 693.149,67.657 717,94 C733.8,112.555 714.712,139.934 693,168 C651.645,221.457 571.737,244.508 526.448,253.635 " fill="none" id="AccountService-Account" style="stroke: #A80036; stroke-width: 1.0;"/><polygon fill="#A80036" points="521.37,254.629,530.9705,256.8266,526.277,253.669,529.4346,248.9755,521.37,254.629" style="stroke: #A80036; stroke-width: 1.0;"/><text fill="#000000" font-family="sans-serif" font-size="13" lengthAdjust="spacingAndGlyphs" textLength="52" x="722" y="160.0669">Account</text><text fill="#000000" font-family="sans-serif" font-size="13" lengthAdjust="spacingAndGlyphs" textLength="8" x="529.6008" y="247.1625">1</text><!--link AccountService to Charges--><path d="M315.995,64.214 C330.138,77.901 356.102,100.624 383,112 C404.536,121.108 413.017,112.03 435,120 C448.86,125.025 463.054,133.521 473.931,140.884 " fill="none" id="AccountService-Charges" style="stroke: #A80036; stroke-width: 1.0;"/><polygon fill="#A80036" points="478.079,143.746,472.9412,135.3434,473.963,140.9072,468.3992,141.929,478.079,143.746" style="stroke: #A80036; stroke-width: 1.0;"/><text fill="#000000" font-family="sans-serif" font-size="13" lengthAdjust="spacingAndGlyphs" textLength="191" x="384" y="107.0669">AccountAdministrationCharge</text><text fill="#000000" font-family="sans-serif" font-size="13" lengthAdjust="spacingAndGlyphs" textLength="24" x="443.6645" y="132.9653">0..1</text><!--link ReportingService to InvestmentAccountService--><path d="M130.446,168.306 C129.559,186.399 127.817,221.936 126.797,242.75 " fill="none" id="ReportingService-InvestmentAccountService" style="stroke: #A80036; stroke-width: 1.0;"/><polygon fill="#A80036" points="126.541,247.954,130.9784,239.1614,126.7867,242.96,122.9881,238.7683,126.541,247.954" style="stroke: #A80036; stroke-width: 1.0;"/><text fill="#000000" font-family="sans-serif" font-size="13" lengthAdjust="spacingAndGlyphs" textLength="219" x="130" y="211.0669">RelatedInvestmentAccountService</text><text fill="#000000" font-family="sans-serif" font-size="13" lengthAdjust="spacingAndGlyphs" textLength="8" x="115.9223" y="236.9864">1</text><!--link AccountContract to Account--><path d="M605.924,168.306 C582.724,186.938 536.493,224.069 510.967,244.57 " fill="none" id="AccountContract-Account" style="stroke: #A80036; stroke-width: 1.0;"/><polygon fill="#A80036" points="506.753,247.954,516.2747,245.4365,510.6512,244.8229,511.2649,239.1994,506.753,247.954" style="stroke: #A80036; stroke-width: 1.0;"/><text fill="#000000" font-family="sans-serif" font-size="13" lengthAdjust="spacingAndGlyphs" textLength="52" x="569" y="211.0669">Account</text><text fill="#000000" font-family="sans-serif" font-size="13" lengthAdjust="spacingAndGlyphs" textLength="7" x="501.8478" y="236.9864">*</text><!--link Account to Account--><path d="M521.508,252.332 C539.181,250.483 556,253.039 556,260 C556,266.254 542.424,268.952 526.85,268.095 " fill="none" id="Account-Account" style="stroke: #A80036; stroke-width: 1.0;"/><polygon fill="#A80036" points="521.508,267.668,530.1605,272.3727,526.4921,268.0666,530.7982,264.3981,521.508,267.668" style="stroke: #A80036; stroke-width: 1.0;"/><text fill="#000000" font-family="sans-serif" font-size="13" lengthAdjust="spacingAndGlyphs" textLength="94" x="562" y="264.0669">ParentAccount</text><text fill="#000000" font-family="sans-serif" font-size="13" lengthAdjust="spacingAndGlyphs" textLength="8" x="529.7741" y="283.6427">1</text></g></svg>