<?xml version="1.0" encoding="UTF-8" standalone="no"?><svg xmlns="http://www.w3.org/2000/svg" xmlns:xlink="http://www.w3.org/1999/xlink" contentScriptType="application/ecmascript" contentStyleType="text/css" height="308px" preserveAspectRatio="none" style="width:342px;height:308px;" version="1.1" viewBox="0 0 342 308" width="342px" zoomAndPan="magnify"><defs><filter height="300%" id="f128693eltwqd2" width="300%" x="-1" y="-1"><feGaussianBlur result="blurOut" stdDeviation="2.0"/><feColorMatrix in="blurOut" result="blurOut2" type="matrix" values="0 0 0 0 0 0 0 0 0 0 0 0 0 0 0 0 0 0 .4 0"/><feOffset dx="4.0" dy="4.0" in="blurOut2" result="blurOut3"/><feBlend in="SourceGraphic" in2="blurOut3" mode="normal"/></filter></defs><g><!--cluster ##6345--><!--cluster ##6348--><!--class AccountRestriction--><a target="_top" xlink:actuate="onRequest" xlink:href="../AccountRestriction.html" xlink:show="new" xlink:title="Restriction on capability or operations allowed." xlink:type="simple"><rect fill="#FEFECE" filter="url(#f128693eltwqd2)" height="44.7734" id="AccountRestriction" style="stroke: #A80036; stroke-width: 1.5;" width="187" x="98.75" y="40.5"/><rect fill="#FEFECE" height="23.9688" style="stroke: #A80036; stroke-width: 1.5;" width="187" x="98.75" y="40.5"/><text fill="#000000" font-family="sans-serif" font-size="12" lengthAdjust="spacingAndGlyphs" textLength="118" x="133.25" y="56.6387">AccountRestriction</text><line style="stroke: #A80036; stroke-width: 1.5;" x1="99.75" x2="284.75" y1="64.4688" y2="64.4688"/><ellipse cx="109.75" cy="76.3711" fill="#84BE84" rx="3" ry="3" style="stroke: #038048; stroke-width: 1.0;"/><text fill="#000000" font-family="sans-serif" font-size="11" lengthAdjust="spacingAndGlyphs" textLength="87" x="118.75" y="78.6792">RestrictionType</text><text fill="#000000" font-family="sans-serif" font-size="11" font-style="italic" lengthAdjust="spacingAndGlyphs" textLength="70" x="209.75" y="78.6792">(Max35Text)</text></a><!--class Account--><a target="_top" xlink:actuate="onRequest" xlink:href="../Account.html" xlink:show="new" xlink:title="Record of transactions in specific types of assets, maintained by a servicing party on behalf of one or more owning parties. Business relationship between an account servicer and one or more account owners." xlink:type="simple"><rect fill="#EEEEEE" filter="url(#f128693eltwqd2)" height="23.9688" id="Account" style="stroke: #A80036; stroke-width: 1.5;" width="57" x="38.75" y="170"/><rect fill="#EEEEEE" height="23.9688" style="stroke: #A80036; stroke-width: 1.5;" width="57" x="38.75" y="170"/><text fill="#000000" font-family="sans-serif" font-size="12" lengthAdjust="spacingAndGlyphs" textLength="51" x="41.75" y="186.1387">Account</text></a><!--class DateTimePeriod--><a target="_top" xlink:actuate="onRequest" xlink:href="../DateTimePeriod.html" xlink:show="new" xlink:title="Time span defined by a start date and time, and an end date and time." xlink:type="simple"><rect fill="#EEEEEE" filter="url(#f128693eltwqd2)" height="23.9688" id="DateTimePeriod" style="stroke: #A80036; stroke-width: 1.5;" width="105" x="115.75" y="274"/><rect fill="#EEEEEE" height="23.9688" style="stroke: #A80036; stroke-width: 1.5;" width="105" x="115.75" y="274"/><text fill="#000000" font-family="sans-serif" font-size="12" lengthAdjust="spacingAndGlyphs" textLength="99" x="118.75" y="290.1387">DateTimePeriod</text></a><!--link DateTimePeriod to Account--><!--link Account to DateTimePeriod--><path d="M63.1948,194.442 C59.5808,207.594 56.0366,229.257 66,244 C76.3542,259.3213 93.4818,268.9182 110.772,274.929 " fill="none" id="Account-DateTimePeriod" style="stroke: #A80036; stroke-width: 1.0;"/><polygon fill="#A80036" points="115.648,276.531,108.3454,269.9225,110.8976,274.9709,105.8492,277.5232,115.648,276.531" style="stroke: #A80036; stroke-width: 1.0;"/><text fill="#000000" font-family="sans-serif" font-size="13" lengthAdjust="spacingAndGlyphs" textLength="98" x="67" y="239.0669">ReportedPeriod</text><text fill="#000000" font-family="sans-serif" font-size="13" lengthAdjust="spacingAndGlyphs" textLength="8" x="99.6278" y="270.4179">1</text><!--link AccountRestriction to Account--><path d="M168.781,85.733 C143.657,109.249 104.2905,146.096 82.6156,166.384 " fill="none" id="AccountRestriction-Account" style="stroke: #A80036; stroke-width: 1.0;"/><polygon fill="#A80036" points="78.7817,169.972,88.0857,166.7415,82.4319,166.555,82.6184,160.9012,78.7817,169.972" style="stroke: #A80036; stroke-width: 1.0;"/><text fill="#000000" font-family="sans-serif" font-size="13" lengthAdjust="spacingAndGlyphs" textLength="52" x="135" y="131.0669">Account</text><text fill="#000000" font-family="sans-serif" font-size="13" lengthAdjust="spacingAndGlyphs" textLength="24" x="53.277" y="159.0106">0..1</text><!--link AccountRestriction to DateTimePeriod--><path d="M208.317,85.763 C218.786,101.142 231.427,122.727 237,144 C242.856,166.357 244.483,174.134 237,196 C226.641,226.267 201.336,254.2019 184.423,270.421 " fill="none" id="AccountRestriction-DateTimePeriod" style="stroke: #A80036; stroke-width: 1.0;"/><polygon fill="#A80036" points="180.739,273.8958,190.0303,270.629,184.3758,270.4645,184.5403,264.8101,180.739,273.8958" style="stroke: #A80036; stroke-width: 1.0;"/><text fill="#000000" font-family="sans-serif" font-size="13" lengthAdjust="spacingAndGlyphs" textLength="86" x="244" y="186.0669">ValidityPeriod</text><text fill="#000000" font-family="sans-serif" font-size="13" lengthAdjust="spacingAndGlyphs" textLength="7" x="175.4852" y="262.9082">*</text><!--link Account to Account--><path d="M95.508,172.938 C113.181,170.753 130,173.773 130,182 C130,189.391 116.424,192.58 100.8496,191.567 " fill="none" id="Account-Account" style="stroke: #A80036; stroke-width: 1.0;"/><polygon fill="#A80036" points="95.508,191.062,104.0919,195.8907,100.4858,191.5322,104.8443,187.9261,95.508,191.062" style="stroke: #A80036; stroke-width: 1.0;"/><text fill="#000000" font-family="sans-serif" font-size="13" lengthAdjust="spacingAndGlyphs" textLength="94" x="136" y="186.0669">ParentAccount</text><text fill="#000000" font-family="sans-serif" font-size="13" lengthAdjust="spacingAndGlyphs" textLength="8" x="103.7741" y="187.2939">1</text></g></svg>