<?xml version="1.0" encoding="UTF-8" standalone="no"?><svg xmlns="http://www.w3.org/2000/svg" xmlns:xlink="http://www.w3.org/1999/xlink" contentScriptType="application/ecmascript" contentStyleType="text/css" height="482px" preserveAspectRatio="none" style="width:1336px;height:482px;" version="1.1" viewBox="0 0 1336 482" width="1336px" zoomAndPan="magnify"><defs><filter height="300%" id="f1kxia3x1o8fu4" width="300%" x="-1" y="-1"><feGaussianBlur result="blurOut" stdDeviation="2.0"/><feColorMatrix in="blurOut" result="blurOut2" type="matrix" values="0 0 0 0 0 0 0 0 0 0 0 0 0 0 0 0 0 0 .4 0"/><feOffset dx="4.0" dy="4.0" in="blurOut2" result="blurOut3"/><feBlend in="SourceGraphic" in2="blurOut3" mode="normal"/></filter></defs><g><!--cluster ##2013--><!--cluster ##2028--><!--cluster ##2037--><!--class Role--><a target="_top" xlink:actuate="onRequest" xlink:href="../Role.html" xlink:show="new" xlink:title="Role of a party in an activity." xlink:type="simple"><rect fill="#FEFEEE" filter="url(#f1kxia3x1o8fu4)" height="44.7734" id="Role" style="stroke: #A80036; stroke-width: 1.5;" width="175" x="393.75" y="40.5"/><rect fill="#FEFEEE" height="23.9688" style="stroke: #A80036; stroke-width: 1.5;" width="175" x="393.75" y="40.5"/><text fill="#000000" font-family="sans-serif" font-size="12" lengthAdjust="spacingAndGlyphs" textLength="27" x="467.75" y="56.6387">Role</text><line style="stroke: #A80036; stroke-width: 1.5;" x1="394.75" x2="567.75" y1="64.4688" y2="64.4688"/><ellipse cx="404.75" cy="76.3711" fill="#84BE84" rx="3" ry="3" style="stroke: #038048; stroke-width: 1.0;"/><text fill="#000000" font-family="sans-serif" font-size="11" lengthAdjust="spacingAndGlyphs" textLength="53" x="413.75" y="78.6792">PartyRole</text><text fill="#000000" font-family="sans-serif" font-size="11" font-style="italic" lengthAdjust="spacingAndGlyphs" textLength="92" x="470.75" y="78.6792">(PartyRoleCode)</text></a><!--class AccountPartyRole--><a target="_top" xlink:actuate="onRequest" xlink:href="../AccountPartyRole.html" xlink:show="new" xlink:title="Role played by a party in the context of account operations." xlink:type="simple"><rect fill="#FEFECE" filter="url(#f1kxia3x1o8fu4)" height="23.9688" id="AccountPartyRole" style="stroke: #A80036; stroke-width: 1.5;" width="116" x="423.5" y="166"/><rect fill="#FEFECE" height="23.9688" style="stroke: #A80036; stroke-width: 1.5;" width="116" x="423.5" y="166"/><text fill="#000000" font-family="sans-serif" font-size="12" lengthAdjust="spacingAndGlyphs" textLength="110" x="426.5" y="182.1387">AccountPartyRole</text></a><!--class InvestmentAccountPartyRole--><a target="_top" xlink:actuate="onRequest" xlink:href="../InvestmentAccountPartyRole.html" xlink:show="new" xlink:title="Specifies roles played by a party that are related to an investment account." xlink:type="simple"><rect fill="#FEFEEE" filter="url(#f1kxia3x1o8fu4)" height="23.9688" id="InvestmentAccountPartyRole" style="stroke: #A80036; stroke-width: 1.5;" width="185" x="37.75" y="272"/><rect fill="#FEFEEE" height="23.9688" style="stroke: #A80036; stroke-width: 1.5;" width="185" x="37.75" y="272"/><text fill="#000000" font-family="sans-serif" font-size="12" lengthAdjust="spacingAndGlyphs" textLength="179" x="40.75" y="288.1387">InvestmentAccountPartyRole</text></a><!--class AccountServicerRole--><a target="_top" xlink:actuate="onRequest" xlink:href="../AccountServicerRole.html" xlink:show="new" xlink:title="Party that manages the account on behalf of the account owner, that is manages the registration and booking of entries on the account, calculates balances on the account and provides information about the account." xlink:type="simple"><rect fill="#FEFEEE" filter="url(#f1kxia3x1o8fu4)" height="23.9688" id="AccountServicerRole" style="stroke: #A80036; stroke-width: 1.5;" width="134" x="258" y="272"/><rect fill="#FEFEEE" height="23.9688" style="stroke: #A80036; stroke-width: 1.5;" width="134" x="258" y="272"/><text fill="#000000" font-family="sans-serif" font-size="12" lengthAdjust="spacingAndGlyphs" textLength="128" x="261" y="288.1387">AccountServicerRole</text></a><!--class RepresentativeOfficer--><a target="_top" xlink:actuate="onRequest" xlink:href="../RepresentativeOfficer.html" xlink:show="new" xlink:title="Officer who has some rights to represent a given organisation. In account management, it is the person to be contacted by the account servicer." xlink:type="simple"><rect fill="#FEFEEE" filter="url(#f1kxia3x1o8fu4)" height="23.9688" id="RepresentativeOfficer" style="stroke: #A80036; stroke-width: 1.5;" width="141" x="427.75" y="272"/><rect fill="#FEFEEE" height="23.9688" style="stroke: #A80036; stroke-width: 1.5;" width="141" x="427.75" y="272"/><text fill="#000000" font-family="sans-serif" font-size="12" lengthAdjust="spacingAndGlyphs" textLength="135" x="430.75" y="288.1387">RepresentativeOfficer</text></a><!--class RolePlayer--><a target="_top" xlink:actuate="onRequest" xlink:href="../RolePlayer.html" xlink:show="new" xlink:title="Type of entity that plays a specific role in a specific context." xlink:type="simple"><rect fill="#EEEEEE" filter="url(#f1kxia3x1o8fu4)" height="23.9688" id="RolePlayer" style="stroke: #A80036; stroke-width: 1.5;" width="71" x="911.75" y="448"/><rect fill="#EEEEEE" height="23.9688" style="stroke: #A80036; stroke-width: 1.5;" width="71" x="911.75" y="448"/><text fill="#000000" font-family="sans-serif" font-size="12" lengthAdjust="spacingAndGlyphs" textLength="65" x="914.75" y="464.1387">RolePlayer</text></a><!--class ContactPersonRole--><a target="_top" xlink:actuate="onRequest" xlink:href="../ContactPersonRole.html" xlink:show="new" xlink:title="Person to be contacted in a given organisation. In the corporate action domain (including meeting notifications) , it is the contact person at the party organising the meeting, at the issuer or at an intermediary." xlink:type="simple"><rect fill="#EEEEEE" filter="url(#f1kxia3x1o8fu4)" height="23.9688" id="ContactPersonRole" style="stroke: #A80036; stroke-width: 1.5;" width="126" x="864" y="362"/><rect fill="#EEEEEE" height="23.9688" style="stroke: #A80036; stroke-width: 1.5;" width="126" x="864" y="362"/><text fill="#000000" font-family="sans-serif" font-size="12" lengthAdjust="spacingAndGlyphs" textLength="120" x="867" y="378.1387">ContactPersonRole</text></a><!--class CounterpartyRisk--><a target="_top" xlink:actuate="onRequest" xlink:href="../CounterpartyRisk.html" xlink:show="new" xlink:title="Calculation of the exposure amount that one party has vis-a-vis one counterparty or a central system, based on its credit risk." xlink:type="simple"><rect fill="#EEEEEE" filter="url(#f1kxia3x1o8fu4)" height="23.9688" id="CounterpartyRisk" style="stroke: #A80036; stroke-width: 1.5;" width="113" x="870.75" y="272"/><rect fill="#EEEEEE" height="23.9688" style="stroke: #A80036; stroke-width: 1.5;" width="113" x="870.75" y="272"/><text fill="#000000" font-family="sans-serif" font-size="12" lengthAdjust="spacingAndGlyphs" textLength="107" x="873.75" y="288.1387">CounterpartyRisk</text></a><!--class Entry--><a target="_top" xlink:actuate="onRequest" xlink:href="../Entry.html" xlink:show="new" xlink:title="Posting to an account that results in an increase or decrease to a balance." xlink:type="simple"><rect fill="#EEEEEE" filter="url(#f1kxia3x1o8fu4)" height="23.9688" id="Entry" style="stroke: #A80036; stroke-width: 1.5;" width="38" x="864" y="166"/><rect fill="#EEEEEE" height="23.9688" style="stroke: #A80036; stroke-width: 1.5;" width="38" x="864" y="166"/><text fill="#000000" font-family="sans-serif" font-size="12" lengthAdjust="spacingAndGlyphs" textLength="32" x="867" y="182.1387">Entry</text></a><!--class Account--><a target="_top" xlink:actuate="onRequest" xlink:href="../Account.html" xlink:show="new" xlink:title="Record of transactions in specific types of assets, maintained by a servicing party on behalf of one or more owning parties. Business relationship between an account servicer and one or more account owners." xlink:type="simple"><rect fill="#EEEEEE" filter="url(#f1kxia3x1o8fu4)" height="23.9688" id="Account" style="stroke: #A80036; stroke-width: 1.5;" width="57" x="625.75" y="272"/><rect fill="#EEEEEE" height="23.9688" style="stroke: #A80036; stroke-width: 1.5;" width="57" x="625.75" y="272"/><text fill="#000000" font-family="sans-serif" font-size="12" lengthAdjust="spacingAndGlyphs" textLength="51" x="628.75" y="288.1387">Account</text></a><!--link Role to AccountPartyRole--><path d="M481,105.559 C481,127.159 481,151.898 481,165.865 " fill="none" id="Role-AccountPartyRole" style="stroke: #A80036; stroke-width: 1.0;"/><polygon fill="none" points="474,105.52,481,85.52,488,105.52,474,105.52" style="stroke: #A80036; stroke-width: 1.0;"/><!--link AccountPartyRole to InvestmentAccountPartyRole--><path d="M419.009,195.259 C370.177,208.301 300.483,227.435 240,246 C213.419,254.159 183.531,264.273 161.625,271.864 " fill="none" id="AccountPartyRole-InvestmentAccountPartyRole" style="stroke: #A80036; stroke-width: 1.0;"/><polygon fill="none" points="417.446,188.432,438.573,190.062,421.041,201.962,417.446,188.432" style="stroke: #A80036; stroke-width: 1.0;"/><!--link AccountPartyRole to AccountServicerRole--><path d="M447.629,201.247 C415.017,222.989 366.718,255.188 341.575,271.95 " fill="none" id="AccountPartyRole-AccountServicerRole" style="stroke: #A80036; stroke-width: 1.0;"/><polygon fill="none" points="443.781,195.4,464.305,190.13,451.547,207.048,443.781,195.4" style="stroke: #A80036; stroke-width: 1.0;"/><!--link AccountPartyRole to RepresentativeOfficer--><path d="M486.048,209.882 C489.473,230.833 493.798,257.293 496.194,271.95 " fill="none" id="AccountPartyRole-RepresentativeOfficer" style="stroke: #A80036; stroke-width: 1.0;"/><polygon fill="none" points="479.137,210.997,482.819,190.13,492.954,208.739,479.137,210.997" style="stroke: #A80036; stroke-width: 1.0;"/><!--link ContactPersonRole to RolePlayer--><!--link CounterpartyRisk to ContactPersonRole--><!--link Entry to CounterpartyRisk--><!--link Role to RolePlayer--><path d="M568.464,67.271 C776.584,76.218 1284,105.376 1284,177 C1284,177 1284,177 1284,375 C1284,435.4496 1077.27,452.737 987.642,457.3913 " fill="none" id="Role-RolePlayer" style="stroke: #A80036; stroke-width: 1.0;"/><polygon fill="#A80036" points="982.428,457.6547,991.6188,461.1944,987.4216,457.4018,991.2142,453.2047,982.428,457.6547" style="stroke: #A80036; stroke-width: 1.0;"/><text fill="#000000" font-family="sans-serif" font-size="13" lengthAdjust="spacingAndGlyphs" textLength="39" x="1285" y="288.0669">Player</text><text fill="#000000" font-family="sans-serif" font-size="13" lengthAdjust="spacingAndGlyphs" textLength="7" x="990.8888" y="451.3671">*</text><!--link Role to ContactPersonRole--><path d="M568.506,69.37 C722.395,79.736 1028.2,104.809 1059,142 C1099.73,191.183 1035.31,279.28 1000,322 C987.237,337.444 968.688,350.321 953.483,359.272 " fill="none" id="Role-ContactPersonRole" style="stroke: #A80036; stroke-width: 1.0;"/><polygon fill="#A80036" points="948.881,361.923,958.6763,360.897,953.2137,359.4274,954.6833,353.9648,948.881,361.923" style="stroke: #A80036; stroke-width: 1.0;"/><text fill="#000000" font-family="sans-serif" font-size="13" lengthAdjust="spacingAndGlyphs" textLength="121" x="1065" y="233.0669">ContactPersonRole</text><text fill="#000000" font-family="sans-serif" font-size="13" lengthAdjust="spacingAndGlyphs" textLength="8" x="945.6838" y="350.9447">1</text><!--link Role to CounterpartyRisk--><path d="M568.408,67.134 C682.724,73.236 873.798,90.981 919,142 C949.92,176.898 939.318,237.753 931.82,266.745 " fill="none" id="Role-CounterpartyRisk" style="stroke: #A80036; stroke-width: 1.0;"/><polygon fill="#A80036" points="930.466,271.774,936.6661,264.1216,931.7645,266.9456,928.9406,262.044,930.466,271.774" style="stroke: #A80036; stroke-width: 1.0;"/><text fill="#000000" font-family="sans-serif" font-size="13" lengthAdjust="spacingAndGlyphs" textLength="109" x="940" y="182.0669">CounterpartyRisk</text><text fill="#000000" font-family="sans-serif" font-size="13" lengthAdjust="spacingAndGlyphs" textLength="24" x="902.2251" y="261.0026">0..1</text><!--link Role to Entry--><path d="M557.559,85.52 C649.992,111.503 800.31,153.756 858.715,170.174 " fill="none" id="Role-Entry" style="stroke: #A80036; stroke-width: 1.0;"/><polygon fill="#A80036" points="863.748,171.588,856.1662,165.3018,858.9345,170.235,854.0014,173.0033,863.748,171.588" style="stroke: #A80036; stroke-width: 1.0;"/><text fill="#000000" font-family="sans-serif" font-size="13" lengthAdjust="spacingAndGlyphs" textLength="33" x="731" y="129.0669">Entry</text><text fill="#000000" font-family="sans-serif" font-size="13" lengthAdjust="spacingAndGlyphs" textLength="8" x="847.9271" y="163.484">1</text><!--link AccountPartyRole to Account--><path d="M499.514,190.13 C531.381,209.287 596.504,248.436 631.143,269.26 " fill="none" id="AccountPartyRole-Account" style="stroke: #A80036; stroke-width: 1.0;"/><polygon fill="#A80036" points="635.619,271.95,629.9655,263.8854,631.3334,269.3744,625.8445,270.7423,635.619,271.95" style="stroke: #A80036; stroke-width: 1.0;"/><text fill="#000000" font-family="sans-serif" font-size="13" lengthAdjust="spacingAndGlyphs" textLength="52" x="579" y="233.0669">Account</text><text fill="#000000" font-family="sans-serif" font-size="13" lengthAdjust="spacingAndGlyphs" textLength="7" x="619.6677" y="260.981">*</text><!--link Entry to Account--><path d="M863.869,187.688 C823.754,205.907 730.622,248.202 683.07,269.798 " fill="none" id="Entry-Account" style="stroke: #A80036; stroke-width: 1.0;"/><polygon fill="#A80036" points="678.336,271.948,688.1845,271.8694,682.8887,269.8809,684.8772,264.5851,678.336,271.948" style="stroke: #A80036; stroke-width: 1.0;"/><text fill="#000000" font-family="sans-serif" font-size="13" lengthAdjust="spacingAndGlyphs" textLength="52" x="791" y="233.0669">Account</text><text fill="#000000" font-family="sans-serif" font-size="13" lengthAdjust="spacingAndGlyphs" textLength="7" x="677.0687" y="260.9783">*</text><!--link Account to Account--><path d="M682.508,275.984 C700.181,274.051 717,276.723 717,284 C717,290.538 703.424,293.359 687.85,292.463 " fill="none" id="Account-Account" style="stroke: #A80036; stroke-width: 1.0;"/><polygon fill="#A80036" points="682.508,292.016,691.1443,296.7504,687.4907,292.4317,691.8094,288.7781,682.508,292.016" style="stroke: #A80036; stroke-width: 1.0;"/><text fill="#000000" font-family="sans-serif" font-size="13" lengthAdjust="spacingAndGlyphs" textLength="94" x="723" y="288.0669">ParentAccount</text><text fill="#000000" font-family="sans-serif" font-size="13" lengthAdjust="spacingAndGlyphs" textLength="8" x="690.7741" y="287.9799">1</text></g></svg>