<?xml version="1.0" encoding="UTF-8" standalone="no"?><svg xmlns="http://www.w3.org/2000/svg" xmlns:xlink="http://www.w3.org/1999/xlink" contentScriptType="application/ecmascript" contentStyleType="text/css" height="868px" preserveAspectRatio="none" style="width:1932px;height:868px;" version="1.1" viewBox="0 0 1932 868" width="1932px" zoomAndPan="magnify"><defs><filter height="300%" id="fxdrqh5m975lq" width="300%" x="-1" y="-1"><feGaussianBlur result="blurOut" stdDeviation="2.0"/><feColorMatrix in="blurOut" result="blurOut2" type="matrix" values="0 0 0 0 0 0 0 0 0 0 0 0 0 0 0 0 0 0 .4 0"/><feOffset dx="4.0" dy="4.0" in="blurOut2" result="blurOut3"/><feBlend in="SourceGraphic" in2="blurOut3" mode="normal"/></filter></defs><g><!--cluster ##3293--><!--cluster ##3305--><!--class Adjustment--><a target="_top" xlink:actuate="onRequest" xlink:href="../Adjustment.html" xlink:show="new" xlink:title="Modification on the value of goods and / or services. For example: rebate, discount." xlink:type="simple"><rect fill="#FEFECE" filter="url(#fxdrqh5m975lq)" height="134.4063" id="Adjustment" style="stroke: #A80036; stroke-width: 1.5;" width="268" x="425" y="40"/><rect fill="#FEFECE" height="23.9688" style="stroke: #A80036; stroke-width: 1.5;" width="268" x="425" y="40"/><text fill="#000000" font-family="sans-serif" font-size="12" lengthAdjust="spacingAndGlyphs" textLength="71" x="523.5" y="56.1387">Adjustment</text><line style="stroke: #A80036; stroke-width: 1.5;" x1="426" x2="692" y1="63.9688" y2="63.9688"/><ellipse cx="436" cy="75.8711" fill="#84BE84" rx="3" ry="3" style="stroke: #038048; stroke-width: 1.0;"/><text fill="#000000" font-family="sans-serif" font-size="11" lengthAdjust="spacingAndGlyphs" textLength="43" x="445" y="78.1792">Amount</text><text fill="#000000" font-family="sans-serif" font-size="11" font-style="italic" lengthAdjust="spacingAndGlyphs" textLength="126" x="492" y="78.1792">(CurrencyAndAmount)</text><ellipse cx="436" cy="88.6758" fill="#84BE84" rx="3" ry="3" style="stroke: #038048; stroke-width: 1.0;"/><text fill="#000000" font-family="sans-serif" font-size="11" lengthAdjust="spacingAndGlyphs" textLength="66" x="445" y="90.9839">ChargeRate</text><text fill="#000000" font-family="sans-serif" font-size="11" font-style="italic" lengthAdjust="spacingAndGlyphs" textLength="98" x="515" y="90.9839">(PercentageRate)</text><ellipse cx="436" cy="101.4805" fill="#84BE84" rx="3" ry="3" style="stroke: #038048; stroke-width: 1.0;"/><text fill="#000000" font-family="sans-serif" font-size="11" lengthAdjust="spacingAndGlyphs" textLength="103" x="445" y="103.7886">CalculationMethod</text><text fill="#000000" font-family="sans-serif" font-size="11" font-style="italic" lengthAdjust="spacingAndGlyphs" textLength="116" x="552" y="103.7886">(TaxationBasisCode)</text><ellipse cx="436" cy="114.2852" fill="#84BE84" rx="3" ry="3" style="stroke: #038048; stroke-width: 1.0;"/><text fill="#000000" font-family="sans-serif" font-size="11" lengthAdjust="spacingAndGlyphs" textLength="50" x="445" y="116.5933">Direction</text><text fill="#000000" font-family="sans-serif" font-size="11" font-style="italic" lengthAdjust="spacingAndGlyphs" textLength="151" x="499" y="116.5933">(AdjustmentDirectionCode)</text><ellipse cx="436" cy="127.0898" fill="#84BE84" rx="3" ry="3" style="stroke: #038048; stroke-width: 1.0;"/><text fill="#000000" font-family="sans-serif" font-size="11" lengthAdjust="spacingAndGlyphs" textLength="42" x="445" y="129.3979">Reason</text><text fill="#000000" font-family="sans-serif" font-size="11" font-style="italic" lengthAdjust="spacingAndGlyphs" textLength="142" x="491" y="129.3979">(Max4AlphaNumericText)</text><ellipse cx="436" cy="139.8945" fill="#84BE84" rx="3" ry="3" style="stroke: #038048; stroke-width: 1.0;"/><text fill="#000000" font-family="sans-serif" font-size="11" lengthAdjust="spacingAndGlyphs" textLength="146" x="445" y="142.2026">AllowanceChargeIndicator</text><text fill="#000000" font-family="sans-serif" font-size="11" font-style="italic" lengthAdjust="spacingAndGlyphs" textLength="92" x="595" y="142.2026">(YesNoIndicator)</text><ellipse cx="436" cy="152.6992" fill="#84BE84" rx="3" ry="3" style="stroke: #038048; stroke-width: 1.0;"/><text fill="#000000" font-family="sans-serif" font-size="11" lengthAdjust="spacingAndGlyphs" textLength="90" x="445" y="155.0073">ChargeIndicator</text><text fill="#000000" font-family="sans-serif" font-size="11" font-style="italic" lengthAdjust="spacingAndGlyphs" textLength="92" x="539" y="155.0073">(YesNoIndicator)</text><ellipse cx="436" cy="165.5039" fill="#84BE84" rx="3" ry="3" style="stroke: #038048; stroke-width: 1.0;"/><text fill="#000000" font-family="sans-serif" font-size="11" lengthAdjust="spacingAndGlyphs" textLength="27" x="445" y="167.812">Type</text><text fill="#000000" font-family="sans-serif" font-size="11" font-style="italic" lengthAdjust="spacingAndGlyphs" textLength="129" x="476" y="167.812">(AdjustmentTypeCode)</text></a><!--class Commission--><a target="_top" xlink:actuate="onRequest" xlink:href="../Commission.html" xlink:show="new" xlink:title="Amount of money due to a party as compensation for a service." xlink:type="simple"><rect fill="#FEFEEE" filter="url(#fxdrqh5m975lq)" height="23.9688" id="Commission" style="stroke: #A80036; stroke-width: 1.5;" width="80" x="423" y="252"/><rect fill="#FEFEEE" height="23.9688" style="stroke: #A80036; stroke-width: 1.5;" width="80" x="423" y="252"/><text fill="#000000" font-family="sans-serif" font-size="12" lengthAdjust="spacingAndGlyphs" textLength="74" x="426" y="268.1387">Commission</text></a><!--class Charges--><a target="_top" xlink:actuate="onRequest" xlink:href="../Charges.html" xlink:show="new" xlink:title="Amount of money associated with a service." xlink:type="simple"><rect fill="#FEFEEE" filter="url(#fxdrqh5m975lq)" height="23.9688" id="Charges" style="stroke: #A80036; stroke-width: 1.5;" width="58" x="538.5" y="252"/><rect fill="#FEFEEE" height="23.9688" style="stroke: #A80036; stroke-width: 1.5;" width="58" x="538.5" y="252"/><text fill="#000000" font-family="sans-serif" font-size="12" lengthAdjust="spacingAndGlyphs" textLength="52" x="541.5" y="268.1387">Charges</text></a><!--class Discount--><a target="_top" xlink:actuate="onRequest" xlink:href="../Discount.html" xlink:show="new" xlink:title="Decrease of the value of goods and / or services by applying a discount rate to the original amount." xlink:type="simple"><rect fill="#FEFEEE" filter="url(#fxdrqh5m975lq)" height="23.9688" id="Discount" style="stroke: #A80036; stroke-width: 1.5;" width="61" x="631.75" y="252"/><rect fill="#FEFEEE" height="23.9688" style="stroke: #A80036; stroke-width: 1.5;" width="61" x="631.75" y="252"/><text fill="#000000" font-family="sans-serif" font-size="12" lengthAdjust="spacingAndGlyphs" textLength="55" x="634.75" y="268.1387">Discount</text></a><!--class Payment--><a target="_top" xlink:actuate="onRequest" xlink:href="../Payment.html" xlink:show="new" xlink:title="Payment information and processes required to transfer cash end to end from the debtor to the creditor." xlink:type="simple"><rect fill="#EEEEEE" filter="url(#fxdrqh5m975lq)" height="23.9688" id="Payment" style="stroke: #A80036; stroke-width: 1.5;" width="60" x="106.5" y="95"/><rect fill="#EEEEEE" height="23.9688" style="stroke: #A80036; stroke-width: 1.5;" width="60" x="106.5" y="95"/><text fill="#000000" font-family="sans-serif" font-size="12" lengthAdjust="spacingAndGlyphs" textLength="54" x="109.5" y="111.1387">Payment</text></a><!--class LineItem--><a target="_top" xlink:actuate="onRequest" xlink:href="../LineItem.html" xlink:show="new" xlink:title="Unit of information  showing the related  provision of products and/or services and monetary summations reported as a discrete line item." xlink:type="simple"><rect fill="#EEEEEE" filter="url(#fxdrqh5m975lq)" height="23.9688" id="LineItem" style="stroke: #A80036; stroke-width: 1.5;" width="58" x="309.5" y="818"/><rect fill="#EEEEEE" height="23.9688" style="stroke: #A80036; stroke-width: 1.5;" width="58" x="309.5" y="818"/><text fill="#000000" font-family="sans-serif" font-size="12" lengthAdjust="spacingAndGlyphs" textLength="52" x="312.5" y="834.1387">LineItem</text></a><!--class Price--><a target="_top" xlink:actuate="onRequest" xlink:href="../Price.html" xlink:show="new" xlink:title="Amount of money for which goods, services or assets are offered, sold, or bought." xlink:type="simple"><rect fill="#EEEEEE" filter="url(#fxdrqh5m975lq)" height="23.9688" id="Price" style="stroke: #A80036; stroke-width: 1.5;" width="37" x="319.75" y="732"/><rect fill="#EEEEEE" height="23.9688" style="stroke: #A80036; stroke-width: 1.5;" width="37" x="319.75" y="732"/><text fill="#000000" font-family="sans-serif" font-size="12" lengthAdjust="spacingAndGlyphs" textLength="31" x="322.75" y="748.1387">Price</text></a><!--class CollateralManagement--><a target="_top" xlink:actuate="onRequest" xlink:href="../CollateralManagement.html" xlink:show="new" xlink:title="Set of operations relative to the management of collateral, variation margins, default fund participation and independent amount." xlink:type="simple"><rect fill="#EEEEEE" filter="url(#fxdrqh5m975lq)" height="23.9688" id="CollateralManagement" style="stroke: #A80036; stroke-width: 1.5;" width="147" x="219.75" y="646"/><rect fill="#EEEEEE" height="23.9688" style="stroke: #A80036; stroke-width: 1.5;" width="147" x="219.75" y="646"/><text fill="#000000" font-family="sans-serif" font-size="12" lengthAdjust="spacingAndGlyphs" textLength="141" x="222.75" y="662.1387">CollateralManagement</text></a><!--class Balance--><a target="_top" xlink:actuate="onRequest" xlink:href="../Balance.html" xlink:show="new" xlink:title="Numerical representation of the net increases and decreases in an account at a specific point in time." xlink:type="simple"><rect fill="#EEEEEE" filter="url(#fxdrqh5m975lq)" height="23.9688" id="Balance" style="stroke: #A80036; stroke-width: 1.5;" width="56" x="265.5" y="560"/><rect fill="#EEEEEE" height="23.9688" style="stroke: #A80036; stroke-width: 1.5;" width="56" x="265.5" y="560"/><text fill="#000000" font-family="sans-serif" font-size="12" lengthAdjust="spacingAndGlyphs" textLength="50" x="268.5" y="576.1387">Balance</text></a><!--class ChargePartyRole--><a target="_top" xlink:actuate="onRequest" xlink:href="../ChargePartyRole.html" xlink:show="new" xlink:title="Role played by a party in the context of a paymentof charges." xlink:type="simple"><rect fill="#EEEEEE" filter="url(#fxdrqh5m975lq)" height="23.9688" id="ChargePartyRole" style="stroke: #A80036; stroke-width: 1.5;" width="110" x="96" y="458"/><rect fill="#EEEEEE" height="23.9688" style="stroke: #A80036; stroke-width: 1.5;" width="110" x="96" y="458"/><text fill="#000000" font-family="sans-serif" font-size="12" lengthAdjust="spacingAndGlyphs" textLength="104" x="99" y="474.1387">ChargePartyRole</text></a><!--class DateTimePeriod--><a target="_top" xlink:actuate="onRequest" xlink:href="../DateTimePeriod.html" xlink:show="new" xlink:title="Time span defined by a start date and time, and an end date and time." xlink:type="simple"><rect fill="#EEEEEE" filter="url(#fxdrqh5m975lq)" height="23.9688" id="DateTimePeriod" style="stroke: #A80036; stroke-width: 1.5;" width="105" x="76.75" y="356"/><rect fill="#EEEEEE" height="23.9688" style="stroke: #A80036; stroke-width: 1.5;" width="105" x="76.75" y="356"/><text fill="#000000" font-family="sans-serif" font-size="12" lengthAdjust="spacingAndGlyphs" textLength="99" x="79.75" y="372.1387">DateTimePeriod</text></a><!--class CurrencyExchange--><a target="_top" xlink:actuate="onRequest" xlink:href="../CurrencyExchange.html" xlink:show="new" xlink:title="Information needed to process a currency exchange or conversion." xlink:type="simple"><rect fill="#EEEEEE" filter="url(#fxdrqh5m975lq)" height="23.9688" id="CurrencyExchange" style="stroke: #A80036; stroke-width: 1.5;" width="122" x="75" y="252"/><rect fill="#EEEEEE" height="23.9688" style="stroke: #A80036; stroke-width: 1.5;" width="122" x="75" y="252"/><text fill="#000000" font-family="sans-serif" font-size="12" lengthAdjust="spacingAndGlyphs" textLength="116" x="78" y="268.1387">CurrencyExchange</text></a><!--class SecuritiesOrder--><a target="_top" xlink:actuate="onRequest" xlink:href="../SecuritiesOrder.html" xlink:show="new" xlink:title="Intention to transfer an ownership of a financial instrument." xlink:type="simple"><rect fill="#EEEEEE" filter="url(#fxdrqh5m975lq)" height="23.9688" id="SecuritiesOrder" style="stroke: #A80036; stroke-width: 1.5;" width="103" x="241.75" y="458"/><rect fill="#EEEEEE" height="23.9688" style="stroke: #A80036; stroke-width: 1.5;" width="103" x="241.75" y="458"/><text fill="#000000" font-family="sans-serif" font-size="12" lengthAdjust="spacingAndGlyphs" textLength="97" x="244.75" y="474.1387">SecuritiesOrder</text></a><!--class Tax--><a target="_top" xlink:actuate="onRequest" xlink:href="../Tax.html" xlink:show="new" xlink:title="Amount of money due to the government or tax authority, according to various pre-defined parameters such as thresholds or income." xlink:type="simple"><rect fill="#EEEEEE" filter="url(#fxdrqh5m975lq)" height="23.9688" id="Tax" style="stroke: #A80036; stroke-width: 1.5;" width="27" x="256.75" y="356"/><rect fill="#EEEEEE" height="23.9688" style="stroke: #A80036; stroke-width: 1.5;" width="27" x="256.75" y="356"/><text fill="#000000" font-family="sans-serif" font-size="12" lengthAdjust="spacingAndGlyphs" textLength="21" x="259.75" y="372.1387">Tax</text></a><!--link Adjustment to Commission--><path d="M507.398,191.316 C492.458,215.438 477.986,238.804 469.815,251.996 " fill="none" id="Adjustment-Commission" style="stroke: #A80036; stroke-width: 1.0;"/><polygon fill="none" points="501.527,187.501,518.009,174.184,513.429,194.872,501.527,187.501" style="stroke: #A80036; stroke-width: 1.0;"/><!--link Adjustment to Charges--><path d="M563.462,194.457 C564.649,217.45 565.781,239.377 566.432,251.996 " fill="none" id="Adjustment-Charges" style="stroke: #A80036; stroke-width: 1.0;"/><polygon fill="none" points="556.456,194.518,562.416,174.184,570.438,193.796,556.456,194.518" style="stroke: #A80036; stroke-width: 1.0;"/><!--link Adjustment to Discount--><path d="M614.132,190.966 C630.244,215.212 645.879,238.74 654.688,251.996 " fill="none" id="Adjustment-Discount" style="stroke: #A80036; stroke-width: 1.0;"/><polygon fill="none" points="608.219,194.715,602.98,174.184,619.879,186.967,608.219,194.715" style="stroke: #A80036; stroke-width: 1.0;"/><!--link LineItem to Payment--><!--link Price to LineItem--><!--link CollateralManagement to Price--><!--link Balance to CollateralManagement--><!--link ChargePartyRole to Balance--><!--link DateTimePeriod to ChargePartyRole--><!--link CurrencyExchange to DateTimePeriod--><!--link SecuritiesOrder to CurrencyExchange--><!--link Tax to SecuritiesOrder--><!--link Adjustment to Payment--><path d="M424.816,107 C335.958,107 225.987,107 170.901,107 " fill="none" id="Adjustment-Payment" style="stroke: #A80036; stroke-width: 1.0;"/><polygon fill="#A80036" points="165.745,107,174.745,111,170.745,107,174.745,103,165.745,107" style="stroke: #A80036; stroke-width: 1.0;"/><text fill="#000000" font-family="sans-serif" font-size="13" lengthAdjust="spacingAndGlyphs" textLength="57" x="266" y="99.0669">Payment</text><text fill="#000000" font-family="sans-serif" font-size="13" lengthAdjust="spacingAndGlyphs" textLength="7" x="174.5452" y="100.8046">*</text><!--link Adjustment to LineItem--><path d="M693.162,109.163 C830.738,114.487 1048.65,134.541 1223,204 C1279.79,226.623 1299.76,248.325 1313,308 C1332.64,396.514 1313.37,421.343 1312,512 C1311.88,519.999 1311.32,522.029 1312,530 C1313.56,548.42 1319,552.514 1319,571 C1319,571 1319,571 1319,745 C1319,793.6137 544.146,822.1657 371.728,827.9173 " fill="none" id="Adjustment-LineItem" style="stroke: #A80036; stroke-width: 1.0;"/><polygon fill="#A80036" points="366.564,828.0887,375.6927,831.7856,371.5612,827.9216,375.4253,823.7901,366.564,828.0887" style="stroke: #A80036; stroke-width: 1.0;"/><text fill="#000000" font-family="sans-serif" font-size="13" lengthAdjust="spacingAndGlyphs" textLength="103" x="1313" y="525.0669">RelatedLineItem</text><text fill="#000000" font-family="sans-serif" font-size="13" lengthAdjust="spacingAndGlyphs" textLength="24" x="375.328" y="821.8961">0..1</text><!--link Adjustment to Price--><path d="M693.002,119.28 C849.647,134.086 1098.16,163.085 1182,204 C1277.42,250.562 1326.83,341.69 1265,428 C1151.26,586.778 494.673,714.337 361.542,738.771 " fill="none" id="Adjustment-Price" style="stroke: #A80036; stroke-width: 1.0;"/><polygon fill="#A80036" points="356.311,739.727,365.8833,742.0444,361.2296,738.8284,364.4456,734.1747,356.311,739.727" style="stroke: #A80036; stroke-width: 1.0;"/><text fill="#000000" font-family="sans-serif" font-size="13" lengthAdjust="spacingAndGlyphs" textLength="31" x="1236" y="474.0669">Price</text><text fill="#000000" font-family="sans-serif" font-size="13" lengthAdjust="spacingAndGlyphs" textLength="24" x="364.7657" y="732.2246">0..1</text><!--link Adjustment to CollateralManagement--><path d="M693.069,115.928 C843.318,127.202 1075.06,152.496 1145,204 C1210.88,252.519 1247.67,314.227 1199,380 C1192.2,389.195 512.571,591.728 335.035,644.513 " fill="none" id="Adjustment-CollateralManagement" style="stroke: #A80036; stroke-width: 1.0;"/><polygon fill="#A80036" points="330.181,645.956,339.9477,647.2258,334.9737,644.5313,337.6682,639.5574,330.181,645.956" style="stroke: #A80036; stroke-width: 1.0;"/><text fill="#000000" font-family="sans-serif" font-size="13" lengthAdjust="spacingAndGlyphs" textLength="145" x="1110" y="423.0669">CollateralManagement</text><text fill="#000000" font-family="sans-serif" font-size="13" lengthAdjust="spacingAndGlyphs" textLength="8" x="332.1573" y="634.9891">1</text><!--link Adjustment to Balance--><path d="M693.314,110.481 C891.379,119.648 1228.14,159.399 1128,326 C1115.55,346.704 958.662,419.635 936,428 C710.446,511.251 421.696,554.208 325.672,566.906 " fill="none" id="Adjustment-Balance" style="stroke: #A80036; stroke-width: 1.0;"/><polygon fill="#A80036" points="320.704,567.559,330.1484,570.3523,325.6614,566.9075,329.1061,562.4205,320.704,567.559" style="stroke: #A80036; stroke-width: 1.0;"/><text fill="#000000" font-family="sans-serif" font-size="13" lengthAdjust="spacingAndGlyphs" textLength="107" x="1085" y="372.0669">AdjustedBalance</text><text fill="#000000" font-family="sans-serif" font-size="13" lengthAdjust="spacingAndGlyphs" textLength="8" x="329.4801" y="560.0093">1</text><!--link Adjustment to ChargePartyRole--><path d="M693.244,130.029 C822.516,157.032 988.553,210.582 916,300 C905.125,313.402 894.572,303.178 878,308 C856.123,314.365 851.877,319.634 830,326 C605.468,391.337 331.047,439.808 211.491,459.425 " fill="none" id="Adjustment-ChargePartyRole" style="stroke: #A80036; stroke-width: 1.0;"/><polygon fill="#A80036" points="206.262,460.28,215.7897,462.7746,211.1964,459.4728,214.4982,454.8796,206.262,460.28" style="stroke: #A80036; stroke-width: 1.0;"/><text fill="#000000" font-family="sans-serif" font-size="13" lengthAdjust="spacingAndGlyphs" textLength="113" x="879" y="321.0669">ChargesPartyRole</text><text fill="#000000" font-family="sans-serif" font-size="13" lengthAdjust="spacingAndGlyphs" textLength="7" x="214.1581" y="453.9096">*</text><!--link Adjustment to DateTimePeriod--><path d="M661.561,174.128 C707.814,211.952 744.881,259.735 709,300 C704.66,304.87 331.984,345.261 186.378,360.873 " fill="none" id="Adjustment-DateTimePeriod" style="stroke: #A80036; stroke-width: 1.0;"/><polygon fill="#A80036" points="181.295,361.418,190.67,364.4361,186.2665,360.8851,189.8174,356.4816,181.295,361.418" style="stroke: #A80036; stroke-width: 1.0;"/><text fill="#000000" font-family="sans-serif" font-size="13" lengthAdjust="spacingAndGlyphs" textLength="94" x="725" y="268.0669">EffectivePeriod</text><text fill="#000000" font-family="sans-serif" font-size="13" lengthAdjust="spacingAndGlyphs" textLength="8" x="189.8769" y="355.188">1</text><!--link Adjustment to CurrencyExchange--><path d="M424.761,162.358 C375.141,181.887 318.262,203.614 266,222 C236.909,232.234 203.75,242.673 178.202,250.456 " fill="none" id="Adjustment-CurrencyExchange" style="stroke: #A80036; stroke-width: 1.0;"/><polygon fill="#A80036" points="173.197,251.977,182.9713,253.1866,177.9809,250.5228,180.6446,245.5324,173.197,251.977" style="stroke: #A80036; stroke-width: 1.0;"/><text fill="#000000" font-family="sans-serif" font-size="13" lengthAdjust="spacingAndGlyphs" textLength="119" x="316" y="217.0669">CurrencyExchange</text><text fill="#000000" font-family="sans-serif" font-size="13" lengthAdjust="spacingAndGlyphs" textLength="8" x="175.2647" y="241.0173">1</text><!--link Adjustment to SecuritiesOrder--><path d="M693.077,116.554 C818.126,127.66 991.581,152.15 1034,204 C1061.02,237.023 1054.13,262.382 1034,300 C1030.98,305.651 1027.01,304.007 1022,308 C961.254,356.377 966.141,396.865 895,428 C845.849,449.511 489.837,462.85 349.577,467.321 " fill="none" id="Adjustment-SecuritiesOrder" style="stroke: #A80036; stroke-width: 1.0;"/><polygon fill="#A80036" points="344.274,467.489,353.3963,471.2015,349.2715,467.3304,353.1426,463.2056,344.274,467.489" style="stroke: #A80036; stroke-width: 1.0;"/><text fill="#000000" font-family="sans-serif" font-size="13" lengthAdjust="spacingAndGlyphs" textLength="99" x="1023" y="321.0669">SecuritiesOrder</text><text fill="#000000" font-family="sans-serif" font-size="13" lengthAdjust="spacingAndGlyphs" textLength="8" x="352.6996" y="461.8824">1</text><!--link Adjustment to Tax--><path d="M693.046,138.107 C802.264,168.951 929.173,223.267 868,300 C858.053,312.477 848.213,303.185 833,308 C812.856,314.375 809.555,321.11 789,326 C691.109,349.29 370.893,363.082 289.138,366.28 " fill="none" id="Adjustment-Tax" style="stroke: #A80036; stroke-width: 1.0;"/><polygon fill="#A80036" points="283.671,366.492,292.8196,370.1393,288.6672,366.2977,292.5088,362.1454,283.671,366.492" style="stroke: #A80036; stroke-width: 1.0;"/><text fill="#000000" font-family="sans-serif" font-size="13" lengthAdjust="spacingAndGlyphs" textLength="22" x="884" y="268.0669">Tax</text><text fill="#000000" font-family="sans-serif" font-size="13" lengthAdjust="spacingAndGlyphs" textLength="24" x="291.7739" y="359.395">0..1</text><!--link Charges to LineItem--><path d="M577.786,276.184 C586.628,284.507 599.937,295.218 614,300 C668.498,318.531 1075.58,296.602 1132,308 C1250.84,332.008 1299.32,324.227 1385,410 C1419.53,444.566 1416.72,464.031 1426,512 C1431.66,541.276 1407,575.911 1407,614 C1407,614 1407,614 1407,745 C1407,778.5342 1376.79,777.3387 1345,788 C1251.15,819.4701 536.371,827.3404 371.743,828.7431 " fill="none" id="Charges-LineItem" style="stroke: #A80036; stroke-width: 1.0;"/><polygon fill="#A80036" points="366.576,828.7866,375.6088,832.7119,371.5758,828.7452,375.5425,824.7122,366.576,828.7866" style="stroke: #A80036; stroke-width: 1.0;"/><text fill="#000000" font-family="sans-serif" font-size="13" lengthAdjust="spacingAndGlyphs" textLength="156" x="1419" y="576.0669">LogisticsChargeLineItem</text><text fill="#000000" font-family="sans-serif" font-size="13" lengthAdjust="spacingAndGlyphs" textLength="24" x="375.3426" y="842.2466">0..1</text><!--link Charges to LineItem--><path d="M577.784,276.192 C586.624,284.518 599.933,295.232 614,300 C645.151,310.559 1173.2,305.538 1206,308 C1302.18,315.221 1636,270.549 1636,367 C1636,367 1636,367 1636,745 C1636,810.2965 576.171,826.1748 371.855,828.6291 " fill="none" id="Charges-LineItem" style="stroke: #A80036; stroke-width: 1.0;"/><polygon fill="#A80036" points="366.623,828.6913,375.6704,832.583,371.6226,828.6313,375.5744,824.5836,366.623,828.6913" style="stroke: #A80036; stroke-width: 1.0;"/><text fill="#000000" font-family="sans-serif" font-size="13" lengthAdjust="spacingAndGlyphs" textLength="55" x="1637" y="576.0669">LineItem</text><text fill="#000000" font-family="sans-serif" font-size="13" lengthAdjust="spacingAndGlyphs" textLength="8" x="375.2543" y="817.3416">1</text><!--link Charges to LineItem--><path d="M577.779,276.206 C586.616,284.541 599.924,295.258 614,300 C656.91,314.456 1383.91,303.837 1429,308 C1504.27,314.95 1764,291.41 1764,367 C1764,367 1764,367 1764,745 C1764,817.0527 588.501,827.5121 372.04,828.8273 " fill="none" id="Charges-LineItem" style="stroke: #A80036; stroke-width: 1.0;"/><polygon fill="#A80036" points="366.807,828.8584,375.8297,832.8069,371.8069,828.8298,375.784,824.807,366.807,828.8584" style="stroke: #A80036; stroke-width: 1.0;"/><text fill="#000000" font-family="sans-serif" font-size="13" lengthAdjust="spacingAndGlyphs" textLength="155" x="1765" y="576.0669">NetPriceChargeLineItem</text><text fill="#000000" font-family="sans-serif" font-size="13" lengthAdjust="spacingAndGlyphs" textLength="24" x="376.2478" y="855.4163">0..1</text><!--link Payment to Tax--><path d="M161.47,119.087 C191.525,133.699 240.166,162.505 262,204 C287.443,252.352 279.093,320.353 273.425,350.962 " fill="none" id="Payment-Tax" style="stroke: #A80036; stroke-width: 1.0;"/><polygon fill="#A80036" points="272.475,355.887,278.1054,347.8063,273.4209,350.9773,270.2499,346.2928,272.475,355.887" style="stroke: #A80036; stroke-width: 1.0;"/><text fill="#000000" font-family="sans-serif" font-size="13" lengthAdjust="spacingAndGlyphs" textLength="97" x="281" y="268.0669">TaxOnPayment</text><text fill="#000000" font-family="sans-serif" font-size="13" lengthAdjust="spacingAndGlyphs" textLength="7" x="263.693" y="344.8964">*</text><!--link Payment to CurrencyExchange--><path d="M136,119.147 C136,146.182 136,215.325 136,246.872 " fill="none" id="Payment-CurrencyExchange" style="stroke: #A80036; stroke-width: 1.0;"/><polygon fill="#A80036" points="136,251.954,140,242.954,136,246.954,132,242.954,136,251.954" style="stroke: #A80036; stroke-width: 1.0;"/><text fill="#000000" font-family="sans-serif" font-size="13" lengthAdjust="spacingAndGlyphs" textLength="119" x="137" y="217.0669">CurrencyExchange</text><text fill="#000000" font-family="sans-serif" font-size="13" lengthAdjust="spacingAndGlyphs" textLength="7" x="126.4531" y="240.9864">*</text><!--link Payment to Payment--><path d="M149.828,94.889 C171.833,81.432 200,85.469 200,107 C200,127.101 175.45,131.955 154.283,121.561 " fill="none" id="Payment-Payment" style="stroke: #A80036; stroke-width: 1.0;"/><polygon fill="#A80036" points="149.828,119.111,155.786,126.9534,154.209,121.5208,159.6416,119.9438,149.828,119.111" style="stroke: #A80036; stroke-width: 1.0;"/><text fill="#000000" font-family="sans-serif" font-size="13" lengthAdjust="spacingAndGlyphs" textLength="105" x="206" y="111.0669">OriginalPayment</text><text fill="#000000" font-family="sans-serif" font-size="13" lengthAdjust="spacingAndGlyphs" textLength="8" x="144.1072" y="138.932">1</text><!--link CurrencyExchange to Tax--><path d="M152.262,276.033 C164.672,284.555 182.111,296.755 197,308 C216.493,322.723 238.188,340.434 252.822,352.585 " fill="none" id="CurrencyExchange-Tax" style="stroke: #A80036; stroke-width: 1.0;"/><polygon fill="#A80036" points="256.755,355.858,252.395,347.0268,252.9114,352.66,247.2782,353.1765,256.755,355.858" style="stroke: #A80036; stroke-width: 1.0;"/><text fill="#000000" font-family="sans-serif" font-size="13" lengthAdjust="spacingAndGlyphs" textLength="22" x="221" y="321.0669">Tax</text><text fill="#000000" font-family="sans-serif" font-size="13" lengthAdjust="spacingAndGlyphs" textLength="8" x="241.3973" y="344.8574">1</text></g></svg>