<?xml version="1.0" encoding="UTF-8" standalone="no"?><svg xmlns="http://www.w3.org/2000/svg" xmlns:xlink="http://www.w3.org/1999/xlink" contentScriptType="application/ecmascript" contentStyleType="text/css" height="326px" preserveAspectRatio="none" style="width:1210px;height:326px;" version="1.1" viewBox="0 0 1210 326" width="1210px" zoomAndPan="magnify"><defs><filter height="300%" id="f1t7cwhwrn3tvn" width="300%" x="-1" y="-1"><feGaussianBlur result="blurOut" stdDeviation="2.0"/><feColorMatrix in="blurOut" result="blurOut2" type="matrix" values="0 0 0 0 0 0 0 0 0 0 0 0 0 0 0 0 0 0 .4 0"/><feOffset dx="4.0" dy="4.0" in="blurOut2" result="blurOut3"/><feBlend in="SourceGraphic" in2="blurOut3" mode="normal"/></filter></defs><g><!--cluster ##11768--><!--cluster ##11786--><!--class Agreement--><a target="_top" xlink:actuate="onRequest" xlink:href="../Agreement.html" xlink:show="new" xlink:title="Contractual details related to an agreement between parties." xlink:type="simple"><rect fill="#FEFECE" filter="url(#f1t7cwhwrn3tvn)" height="70.3828" id="Agreement" style="stroke: #A80036; stroke-width: 1.5;" width="171" x="565.75" y="40"/><rect fill="#FEFECE" height="23.9688" style="stroke: #A80036; stroke-width: 1.5;" width="171" x="565.75" y="40"/><text fill="#000000" font-family="sans-serif" font-size="12" lengthAdjust="spacingAndGlyphs" textLength="69" x="616.75" y="56.1387">Agreement</text><line style="stroke: #A80036; stroke-width: 1.5;" x1="566.75" x2="735.75" y1="63.9688" y2="63.9688"/><ellipse cx="576.75" cy="75.8711" fill="#84BE84" rx="3" ry="3" style="stroke: #038048; stroke-width: 1.0;"/><text fill="#000000" font-family="sans-serif" font-size="11" lengthAdjust="spacingAndGlyphs" textLength="65" x="585.75" y="78.1792">DateSigned</text><text fill="#000000" font-family="sans-serif" font-size="11" font-style="italic" lengthAdjust="spacingAndGlyphs" textLength="53" x="654.75" y="78.1792">(ISODate)</text><ellipse cx="576.75" cy="88.6758" fill="#84BE84" rx="3" ry="3" style="stroke: #038048; stroke-width: 1.0;"/><text fill="#000000" font-family="sans-serif" font-size="11" lengthAdjust="spacingAndGlyphs" textLength="64" x="585.75" y="90.9839">Description</text><text fill="#000000" font-family="sans-serif" font-size="11" font-style="italic" lengthAdjust="spacingAndGlyphs" textLength="77" x="653.75" y="90.9839">(Max350Text)</text><ellipse cx="576.75" cy="101.4805" fill="#84BE84" rx="3" ry="3" style="stroke: #038048; stroke-width: 1.0;"/><text fill="#000000" font-family="sans-serif" font-size="11" lengthAdjust="spacingAndGlyphs" textLength="43" x="585.75" y="103.7886">Version</text><text fill="#000000" font-family="sans-serif" font-size="11" font-style="italic" lengthAdjust="spacingAndGlyphs" textLength="70" x="632.75" y="103.7886">(Max35Text)</text></a><!--class Contract--><a target="_top" xlink:actuate="onRequest" xlink:href="../Contract.html" xlink:show="new" xlink:title="Document that contains the information of the contract agreed between both parties." xlink:type="simple"><rect fill="#FEFEEE" filter="url(#f1t7cwhwrn3tvn)" height="23.9688" id="Contract" style="stroke: #A80036; stroke-width: 1.5;" width="60" x="457.5" y="190"/><rect fill="#FEFEEE" height="23.9688" style="stroke: #A80036; stroke-width: 1.5;" width="60" x="457.5" y="190"/><text fill="#000000" font-family="sans-serif" font-size="12" lengthAdjust="spacingAndGlyphs" textLength="54" x="460.5" y="206.1387">Contract</text></a><!--class SecuritiesFinancingAgreement--><a target="_top" xlink:actuate="onRequest" xlink:href="../SecuritiesFinancingAgreement.html" xlink:show="new" xlink:title="Contractual details related to the agreement between parties." xlink:type="simple"><rect fill="#FEFEEE" filter="url(#f1t7cwhwrn3tvn)" height="23.9688" id="SecuritiesFinancingAgreement" style="stroke: #A80036; stroke-width: 1.5;" width="197" x="552.75" y="190"/><rect fill="#FEFEEE" height="23.9688" style="stroke: #A80036; stroke-width: 1.5;" width="197" x="552.75" y="190"/><text fill="#000000" font-family="sans-serif" font-size="12" lengthAdjust="spacingAndGlyphs" textLength="191" x="555.75" y="206.1387">SecuritiesFinancingAgreement</text></a><!--class CollateralAgreement--><a target="_top" xlink:actuate="onRequest" xlink:href="../CollateralAgreement.html" xlink:show="new" xlink:title="Agreement between two trading parties that contains information about their relative duties and rights regarding collateral processes." xlink:type="simple"><rect fill="#FEFEEE" filter="url(#f1t7cwhwrn3tvn)" height="23.9688" id="CollateralAgreement" style="stroke: #A80036; stroke-width: 1.5;" width="134" x="38" y="190"/><rect fill="#FEFEEE" height="23.9688" style="stroke: #A80036; stroke-width: 1.5;" width="134" x="38" y="190"/><text fill="#000000" font-family="sans-serif" font-size="12" lengthAdjust="spacingAndGlyphs" textLength="128" x="41" y="206.1387">CollateralAgreement</text></a><!--class MasterAgreement--><a target="_top" xlink:actuate="onRequest" xlink:href="../MasterAgreement.html" xlink:show="new" xlink:title="Agreement which defines the framework of a contract between two trading parties in different domains such as collateral, derivatives, trade.." xlink:type="simple"><rect fill="#FEFEEE" filter="url(#f1t7cwhwrn3tvn)" height="23.9688" id="MasterAgreement" style="stroke: #A80036; stroke-width: 1.5;" width="118" x="209" y="292"/><rect fill="#FEFEEE" height="23.9688" style="stroke: #A80036; stroke-width: 1.5;" width="118" x="209" y="292"/><text fill="#000000" font-family="sans-serif" font-size="12" lengthAdjust="spacingAndGlyphs" textLength="112" x="212" y="308.1387">MasterAgreement</text></a><!--class InvoiceFinancingAgreement--><a target="_top" xlink:actuate="onRequest" xlink:href="../InvoiceFinancingAgreement.html" xlink:show="new" xlink:title="Set of characteristics that unambiguously identify an invoice financing agreement. An invoice financing agreement between a factor and its client allows to transfer a payment obligation that exists between the client and a third party from the client to the factor." xlink:type="simple"><rect fill="#FEFEEE" filter="url(#f1t7cwhwrn3tvn)" height="23.9688" id="InvoiceFinancingAgreement" style="stroke: #A80036; stroke-width: 1.5;" width="178" x="244.5" y="190"/><rect fill="#FEFEEE" height="23.9688" style="stroke: #A80036; stroke-width: 1.5;" width="178" x="244.5" y="190"/><text fill="#000000" font-family="sans-serif" font-size="12" lengthAdjust="spacingAndGlyphs" textLength="172" x="247.5" y="206.1387">InvoiceFinancingAgreement</text></a><!--class DateTimePeriod--><a target="_top" xlink:actuate="onRequest" xlink:href="../DateTimePeriod.html" xlink:show="new" xlink:title="Time span defined by a start date and time, and an end date and time." xlink:type="simple"><rect fill="#EEEEEE" filter="url(#f1t7cwhwrn3tvn)" height="23.9688" id="DateTimePeriod" style="stroke: #A80036; stroke-width: 1.5;" width="105" x="955.75" y="292"/><rect fill="#EEEEEE" height="23.9688" style="stroke: #A80036; stroke-width: 1.5;" width="105" x="955.75" y="292"/><text fill="#000000" font-family="sans-serif" font-size="12" lengthAdjust="spacingAndGlyphs" textLength="99" x="958.75" y="308.1387">DateTimePeriod</text></a><!--class Document--><a target="_top" xlink:actuate="onRequest" xlink:href="../Document.html" xlink:show="new" xlink:title="General information that unambiguously identifies a document, such as identification number and issue date time." xlink:type="simple"><rect fill="#EEEEEE" filter="url(#f1t7cwhwrn3tvn)" height="23.9688" id="Document" style="stroke: #A80036; stroke-width: 1.5;" width="70" x="915" y="190"/><rect fill="#EEEEEE" height="23.9688" style="stroke: #A80036; stroke-width: 1.5;" width="70" x="915" y="190"/><text fill="#000000" font-family="sans-serif" font-size="12" lengthAdjust="spacingAndGlyphs" textLength="64" x="918" y="206.1387">Document</text></a><!--class CommercialTrade--><a target="_top" xlink:actuate="onRequest" xlink:href="../CommercialTrade.html" xlink:show="new" xlink:title="Commercial details of a trade transaction between a buyer and a seller." xlink:type="simple"><rect fill="#EEEEEE" filter="url(#f1t7cwhwrn3tvn)" height="23.9688" id="CommercialTrade" style="stroke: #A80036; stroke-width: 1.5;" width="114" x="806" y="292"/><rect fill="#EEEEEE" height="23.9688" style="stroke: #A80036; stroke-width: 1.5;" width="114" x="806" y="292"/><text fill="#000000" font-family="sans-serif" font-size="12" lengthAdjust="spacingAndGlyphs" textLength="108" x="809" y="308.1387">CommercialTrade</text></a><!--class Jurisdiction--><a target="_top" xlink:actuate="onRequest" xlink:href="../Jurisdiction.html" xlink:show="new" xlink:title="Specifies the jurisdiction (country, county, state, province, city)." xlink:type="simple"><rect fill="#EEEEEE" filter="url(#f1t7cwhwrn3tvn)" height="23.9688" id="Jurisdiction" style="stroke: #A80036; stroke-width: 1.5;" width="74" x="806" y="190"/><rect fill="#EEEEEE" height="23.9688" style="stroke: #A80036; stroke-width: 1.5;" width="74" x="806" y="190"/><text fill="#000000" font-family="sans-serif" font-size="12" lengthAdjust="spacingAndGlyphs" textLength="68" x="809" y="206.1387">Jurisdiction</text></a><!--link Agreement to Contract--><path d="M590.003,122.491 C558.047,146.849 521.527,174.684 501.698,189.797 " fill="none" id="Agreement-Contract" style="stroke: #A80036; stroke-width: 1.0;"/><polygon fill="none" points="586.037,116.713,606.186,110.157,594.523,127.848,586.037,116.713" style="stroke: #A80036; stroke-width: 1.0;"/><!--link Agreement to SecuritiesFinancingAgreement--><path d="M651,130.298 C651,152.58 651,176.279 651,189.797 " fill="none" id="Agreement-SecuritiesFinancingAgreement" style="stroke: #A80036; stroke-width: 1.0;"/><polygon fill="none" points="644,130.157,651,110.157,658,130.157,644,130.157" style="stroke: #A80036; stroke-width: 1.0;"/><!--link Agreement to CollateralAgreement--><path d="M545.267,78.115 C451.584,82.962 312.463,97.533 199,140 C167.297,151.866 135.265,175.782 117.997,189.886 " fill="none" id="Agreement-CollateralAgreement" style="stroke: #A80036; stroke-width: 1.0;"/><polygon fill="none" points="545.118,71.114,565.419,77.186,545.763,85.099,545.118,71.114" style="stroke: #A80036; stroke-width: 1.0;"/><!--link Agreement to MasterAgreement--><path d="M545.635,83.454 C433.079,93.869 265.492,117.269 226,166 C212.568,182.574 216.822,194.742 226,214 C235.108,233.111 253.092,225.291 263,244 C270.986,259.0804 270.718,279.4112 269.542,291.8424 " fill="none" id="Agreement-MasterAgreement" style="stroke: #A80036; stroke-width: 1.0;"/><polygon fill="none" points="545.082,76.476,565.621,81.687,546.315,90.422,545.082,76.476" style="stroke: #A80036; stroke-width: 1.0;"/><!--link Agreement to InvoiceFinancingAgreement--><path d="M546.512,117.073 C481.31,142.702 402.195,173.801 360.999,189.994 " fill="none" id="Agreement-InvoiceFinancingAgreement" style="stroke: #A80036; stroke-width: 1.0;"/><polygon fill="none" points="544.189,110.464,565.364,109.662,549.311,123.494,544.189,110.464" style="stroke: #A80036; stroke-width: 1.0;"/><!--link Document to DateTimePeriod--><!--link CommercialTrade to Document--><!--link Document to CommercialTrade--><path d="M928.813,214.031 C916.538,221.253 901.487,231.632 891,244 C880.254,256.6729 872.636,274.1708 868.085,286.8167 " fill="none" id="Document-CommercialTrade" style="stroke: #A80036; stroke-width: 1.0;"/><polygon fill="#A80036" points="866.435,291.5735,873.164,284.3818,868.0739,286.8497,865.606,281.7596,866.435,291.5735" style="stroke: #A80036; stroke-width: 1.0;"/><text fill="#000000" font-family="sans-serif" font-size="13" lengthAdjust="spacingAndGlyphs" textLength="113" x="892" y="257.0669">CommercialTrade</text><text fill="#000000" font-family="sans-serif" font-size="13" lengthAdjust="spacingAndGlyphs" textLength="7" x="858.0955" y="280.9962">*</text><!--link Jurisdiction to CommercialTrade--><!--link Agreement to DateTimePeriod--><path d="M736.402,86.184 C829.29,99.189 968.981,125.045 1002,166 C1029.67,200.324 1036.49,218.944 1027,262 C1025.08,270.7147 1021.11,279.7797 1017.3,287.1631 " fill="none" id="Agreement-DateTimePeriod" style="stroke: #A80036; stroke-width: 1.0;"/><polygon fill="#A80036" points="1014.71,291.9811,1022.4961,285.9498,1017.0785,287.5777,1015.4507,282.1601,1014.71,291.9811" style="stroke: #A80036; stroke-width: 1.0;"/><text fill="#000000" font-family="sans-serif" font-size="13" lengthAdjust="spacingAndGlyphs" textLength="86" x="1031" y="206.0669">ValidityPeriod</text><text fill="#000000" font-family="sans-serif" font-size="13" lengthAdjust="spacingAndGlyphs" textLength="7" x="1007.3838" y="281.0228">*</text><!--link Agreement to Document--><path d="M736.531,100.368 C785.118,115.889 846.197,138.289 897,166 C908.417,172.227 920.563,180.145 930.343,186.874 " fill="none" id="Agreement-Document" style="stroke: #A80036; stroke-width: 1.0;"/><polygon fill="#A80036" points="934.659,189.872,929.5506,181.4516,930.5529,187.0189,924.9856,188.0213,934.659,189.872" style="stroke: #A80036; stroke-width: 1.0;"/><text fill="#000000" font-family="sans-serif" font-size="13" lengthAdjust="spacingAndGlyphs" textLength="67" x="880" y="153.0669">Document</text><text fill="#000000" font-family="sans-serif" font-size="13" lengthAdjust="spacingAndGlyphs" textLength="8" x="918.6668" y="178.8762">1</text><!--link Agreement to CommercialTrade--><path d="M736.282,77.529 C866.664,81.995 1105.4,99.31 1152,166 C1164.22,183.487 1164.34,196.599 1152,214 C1125.62,251.1882 1002.009,278.8825 925.241,292.8473 " fill="none" id="Agreement-CommercialTrade" style="stroke: #A80036; stroke-width: 1.0;"/><polygon fill="#A80036" points="920.254,293.7472,929.8209,296.0868,925.1747,292.86,928.4014,288.2137,920.254,293.7472" style="stroke: #A80036; stroke-width: 1.0;"/><text fill="#000000" font-family="sans-serif" font-size="13" lengthAdjust="spacingAndGlyphs" textLength="36" x="1162" y="206.0669">Trade</text><text fill="#000000" font-family="sans-serif" font-size="13" lengthAdjust="spacingAndGlyphs" textLength="8" x="928.1022" y="287.4219">1</text><!--link Agreement to Jurisdiction--><path d="M694.701,110.174 C715.01,125.483 739.761,143.347 763,158 C780.043,168.747 800.004,179.478 815.724,187.533 " fill="none" id="Agreement-Jurisdiction" style="stroke: #A80036; stroke-width: 1.0;"/><polygon fill="#A80036" points="820.458,189.943,814.2525,182.295,816.0023,187.6744,810.6228,189.4241,820.458,189.943" style="stroke: #A80036; stroke-width: 1.0;"/><text fill="#000000" font-family="sans-serif" font-size="13" lengthAdjust="spacingAndGlyphs" textLength="68" x="764" y="153.0669">Jurisdiction</text><text fill="#000000" font-family="sans-serif" font-size="13" lengthAdjust="spacingAndGlyphs" textLength="24" x="783.2404" y="178.9716">0..1</text><!--link Contract to MasterAgreement--><path d="M462.726,214.084 C422.11,232.63 340.552,269.8712 296.989,289.763 " fill="none" id="Contract-MasterAgreement" style="stroke: #A80036; stroke-width: 1.0;"/><polygon fill="#A80036" points="292.382,291.8665,302.2304,291.7688,296.9307,289.7906,298.9089,284.4909,292.382,291.8665" style="stroke: #A80036; stroke-width: 1.0;"/><text fill="#000000" font-family="sans-serif" font-size="13" lengthAdjust="spacingAndGlyphs" textLength="116" x="399" y="257.0669">MasterAgreement</text><text fill="#000000" font-family="sans-serif" font-size="13" lengthAdjust="spacingAndGlyphs" textLength="7" x="291.2164" y="280.8688">*</text><!--link CollateralAgreement to MasterAgreement--><path d="M90.4358,214.064 C75.94,226.412 57.5179,246.668 70,262 C86.7135,282.5289 152.457,293.0995 203.659,298.3202 " fill="none" id="CollateralAgreement-MasterAgreement" style="stroke: #A80036; stroke-width: 1.0;"/><polygon fill="#A80036" points="208.88,298.8394,200.3209,293.9668,203.9046,298.3437,199.5278,301.9274,208.88,298.8394" style="stroke: #A80036; stroke-width: 1.0;"/><text fill="#000000" font-family="sans-serif" font-size="13" lengthAdjust="spacingAndGlyphs" textLength="186" x="71" y="257.0669">AssociatedMasterAgreement</text><text fill="#000000" font-family="sans-serif" font-size="13" lengthAdjust="spacingAndGlyphs" textLength="7" x="193.9216" y="293.4211">*</text></g></svg>