<?xml version="1.0" encoding="UTF-8" standalone="no"?><svg xmlns="http://www.w3.org/2000/svg" xmlns:xlink="http://www.w3.org/1999/xlink" contentScriptType="application/ecmascript" contentStyleType="text/css" height="1348px" preserveAspectRatio="none" style="width:2496px;height:1348px;" version="1.1" viewBox="0 0 2496 1348" width="2496px" zoomAndPan="magnify"><defs><filter height="300%" id="f1in4e7bk3avem" width="300%" x="-1" y="-1"><feGaussianBlur result="blurOut" stdDeviation="2.0"/><feColorMatrix in="blurOut" result="blurOut2" type="matrix" values="0 0 0 0 0 0 0 0 0 0 0 0 0 0 0 0 0 0 .4 0"/><feOffset dx="4.0" dy="4.0" in="blurOut2" result="blurOut3"/><feBlend in="SourceGraphic" in2="blurOut3" mode="normal"/></filter></defs><g><!--cluster ##6513--><!--cluster ##6519--><!--cluster ##6548--><!--class Document--><a target="_top" xlink:actuate="onRequest" xlink:href="../Document.html" xlink:show="new" xlink:title="General information that unambiguously identifies a document, such as identification number and issue date time." xlink:type="simple"><rect fill="#FEFEEE" filter="url(#f1in4e7bk3avem)" height="172.8203" id="Document" style="stroke: #A80036; stroke-width: 1.5;" width="249" x="1212.75" y="40.5"/><rect fill="#FEFEEE" height="23.9688" style="stroke: #A80036; stroke-width: 1.5;" width="249" x="1212.75" y="40.5"/><text fill="#000000" font-family="sans-serif" font-size="12" lengthAdjust="spacingAndGlyphs" textLength="64" x="1305.25" y="56.6387">Document</text><line style="stroke: #A80036; stroke-width: 1.5;" x1="1213.75" x2="1460.75" y1="64.4688" y2="64.4688"/><ellipse cx="1223.75" cy="76.3711" fill="#84BE84" rx="3" ry="3" style="stroke: #038048; stroke-width: 1.0;"/><text fill="#000000" font-family="sans-serif" font-size="11" lengthAdjust="spacingAndGlyphs" textLength="57" x="1232.75" y="78.6792">IssueDate</text><text fill="#000000" font-family="sans-serif" font-size="11" font-style="italic" lengthAdjust="spacingAndGlyphs" textLength="81" x="1293.75" y="78.6792">(ISODateTime)</text><ellipse cx="1223.75" cy="89.1758" fill="#84BE84" rx="3" ry="3" style="stroke: #038048; stroke-width: 1.0;"/><text fill="#000000" font-family="sans-serif" font-size="11" lengthAdjust="spacingAndGlyphs" textLength="80" x="1232.75" y="91.4839">CopyDuplicate</text><text fill="#000000" font-family="sans-serif" font-size="11" font-style="italic" lengthAdjust="spacingAndGlyphs" textLength="118" x="1316.75" y="91.4839">(CopyDuplicateCode)</text><ellipse cx="1223.75" cy="101.9805" fill="#84BE84" rx="3" ry="3" style="stroke: #038048; stroke-width: 1.0;"/><text fill="#000000" font-family="sans-serif" font-size="11" lengthAdjust="spacingAndGlyphs" textLength="27" x="1232.75" y="104.2886">Type</text><text fill="#000000" font-family="sans-serif" font-size="11" font-style="italic" lengthAdjust="spacingAndGlyphs" textLength="122" x="1263.75" y="104.2886">(DocumentTypeCode)</text><ellipse cx="1223.75" cy="114.7852" fill="#84BE84" rx="3" ry="3" style="stroke: #038048; stroke-width: 1.0;"/><text fill="#000000" font-family="sans-serif" font-size="11" lengthAdjust="spacingAndGlyphs" textLength="43" x="1232.75" y="117.0933">Amount</text><text fill="#000000" font-family="sans-serif" font-size="11" font-style="italic" lengthAdjust="spacingAndGlyphs" textLength="161" x="1279.75" y="117.0933">(ActiveCurrencyAndAmount)</text><ellipse cx="1223.75" cy="127.5898" fill="#84BE84" rx="3" ry="3" style="stroke: #038048; stroke-width: 1.0;"/><text fill="#000000" font-family="sans-serif" font-size="11" lengthAdjust="spacingAndGlyphs" textLength="100" x="1232.75" y="129.8979">DocumentVersion</text><text fill="#000000" font-family="sans-serif" font-size="11" font-style="italic" lengthAdjust="spacingAndGlyphs" textLength="53" x="1336.75" y="129.8979">(Number)</text><ellipse cx="1223.75" cy="140.3945" fill="#84BE84" rx="3" ry="3" style="stroke: #038048; stroke-width: 1.0;"/><text fill="#000000" font-family="sans-serif" font-size="11" lengthAdjust="spacingAndGlyphs" textLength="37" x="1232.75" y="142.7026">Status</text><text fill="#000000" font-family="sans-serif" font-size="11" font-style="italic" lengthAdjust="spacingAndGlyphs" textLength="77" x="1273.75" y="142.7026">(Max140Text)</text><ellipse cx="1223.75" cy="153.1992" fill="#84BE84" rx="3" ry="3" style="stroke: #038048; stroke-width: 1.0;"/><text fill="#000000" font-family="sans-serif" font-size="11" lengthAdjust="spacingAndGlyphs" textLength="72" x="1232.75" y="155.5073">DataSetType</text><text fill="#000000" font-family="sans-serif" font-size="11" font-style="italic" lengthAdjust="spacingAndGlyphs" textLength="109" x="1308.75" y="155.5073">(DataSetTypeCode)</text><ellipse cx="1223.75" cy="166.0039" fill="#84BE84" rx="3" ry="3" style="stroke: #038048; stroke-width: 1.0;"/><text fill="#000000" font-family="sans-serif" font-size="11" lengthAdjust="spacingAndGlyphs" textLength="88" x="1232.75" y="168.312">SignedIndicator</text><text fill="#000000" font-family="sans-serif" font-size="11" font-style="italic" lengthAdjust="spacingAndGlyphs" textLength="92" x="1324.75" y="168.312">(YesNoIndicator)</text><ellipse cx="1223.75" cy="178.8086" fill="#84BE84" rx="3" ry="3" style="stroke: #038048; stroke-width: 1.0;"/><text fill="#000000" font-family="sans-serif" font-size="11" lengthAdjust="spacingAndGlyphs" textLength="93" x="1232.75" y="181.1167">RemittedAmount</text><text fill="#000000" font-family="sans-serif" font-size="11" font-style="italic" lengthAdjust="spacingAndGlyphs" textLength="126" x="1329.75" y="181.1167">(CurrencyAndAmount)</text><ellipse cx="1223.75" cy="191.6133" fill="#84BE84" rx="3" ry="3" style="stroke: #038048; stroke-width: 1.0;"/><text fill="#000000" font-family="sans-serif" font-size="11" lengthAdjust="spacingAndGlyphs" textLength="55" x="1232.75" y="193.9214">Language</text><text fill="#000000" font-family="sans-serif" font-size="11" font-style="italic" lengthAdjust="spacingAndGlyphs" textLength="92" x="1291.75" y="193.9214">(LanguageCode)</text><ellipse cx="1223.75" cy="204.418" fill="#84BE84" rx="3" ry="3" style="stroke: #038048; stroke-width: 1.0;"/><text fill="#000000" font-family="sans-serif" font-size="11" lengthAdjust="spacingAndGlyphs" textLength="47" x="1232.75" y="206.7261">Purpose</text><text fill="#000000" font-family="sans-serif" font-size="11" font-style="italic" lengthAdjust="spacingAndGlyphs" textLength="70" x="1283.75" y="206.7261">(Max35Text)</text></a><!--class Assessment--><a target="_top" xlink:actuate="onRequest" xlink:href="../Assessment.html" xlink:show="new" xlink:title="Assessment for the components of a system." xlink:type="simple"><rect fill="#FEFECE" filter="url(#f1in4e7bk3avem)" height="70.3828" id="Assessment" style="stroke: #A80036; stroke-width: 1.5;" width="317" x="1144.75" y="292"/><rect fill="#FEFECE" height="23.9688" style="stroke: #A80036; stroke-width: 1.5;" width="317" x="1144.75" y="292"/><text fill="#000000" font-family="sans-serif" font-size="12" lengthAdjust="spacingAndGlyphs" textLength="76" x="1265.25" y="308.1387">Assessment</text><line style="stroke: #A80036; stroke-width: 1.5;" x1="1145.75" x2="1460.75" y1="315.9688" y2="315.9688"/><ellipse cx="1155.75" cy="327.8711" fill="#84BE84" rx="3" ry="3" style="stroke: #038048; stroke-width: 1.0;"/><text fill="#000000" font-family="sans-serif" font-size="11" lengthAdjust="spacingAndGlyphs" textLength="98" x="1164.75" y="330.1792">AssessmentType</text><text fill="#000000" font-family="sans-serif" font-size="11" font-style="italic" lengthAdjust="spacingAndGlyphs" textLength="189" x="1266.75" y="330.1792">(POIComponentAssessmentCode)</text><ellipse cx="1155.75" cy="340.6758" fill="#84BE84" rx="3" ry="3" style="stroke: #038048; stroke-width: 1.0;"/><text fill="#000000" font-family="sans-serif" font-size="11" lengthAdjust="spacingAndGlyphs" textLength="60" x="1164.75" y="342.9839">ExpiryDate</text><text fill="#000000" font-family="sans-serif" font-size="11" font-style="italic" lengthAdjust="spacingAndGlyphs" textLength="81" x="1228.75" y="342.9839">(ISODateTime)</text><ellipse cx="1155.75" cy="353.4805" fill="#84BE84" rx="3" ry="3" style="stroke: #038048; stroke-width: 1.0;"/><text fill="#000000" font-family="sans-serif" font-size="11" lengthAdjust="spacingAndGlyphs" textLength="71" x="1164.75" y="355.7886">DeliveryDate</text><text fill="#000000" font-family="sans-serif" font-size="11" font-style="italic" lengthAdjust="spacingAndGlyphs" textLength="81" x="1239.75" y="355.7886">(ISODateTime)</text></a><!--class ContactPoint--><a target="_top" xlink:actuate="onRequest" xlink:href="../ContactPoint.html" xlink:show="new" xlink:title="Number, physical or virtual address, used for communication." xlink:type="simple"><rect fill="#EEEEEE" filter="url(#f1in4e7bk3avem)" height="23.9688" id="ContactPoint" style="stroke: #A80036; stroke-width: 1.5;" width="87" x="146.75" y="115"/><rect fill="#EEEEEE" height="23.9688" style="stroke: #A80036; stroke-width: 1.5;" width="87" x="146.75" y="115"/><text fill="#000000" font-family="sans-serif" font-size="12" lengthAdjust="spacingAndGlyphs" textLength="81" x="149.75" y="131.1387">ContactPoint</text></a><!--class PaymentObligation--><a target="_top" xlink:actuate="onRequest" xlink:href="../PaymentObligation.html" xlink:show="new" xlink:title="Obligation for the debtor to pay the creditor an amount of cash." xlink:type="simple"><rect fill="#EEEEEE" filter="url(#f1in4e7bk3avem)" height="23.9688" id="PaymentObligation" style="stroke: #A80036; stroke-width: 1.5;" width="123" x="146.75" y="315"/><rect fill="#EEEEEE" height="23.9688" style="stroke: #A80036; stroke-width: 1.5;" width="123" x="146.75" y="315"/><text fill="#000000" font-family="sans-serif" font-size="12" lengthAdjust="spacingAndGlyphs" textLength="117" x="149.75" y="331.1387">PaymentObligation</text></a><!--class Agreement--><a target="_top" xlink:actuate="onRequest" xlink:href="../Agreement.html" xlink:show="new" xlink:title="Contractual details related to an agreement between parties." xlink:type="simple"><rect fill="#EEEEEE" filter="url(#f1in4e7bk3avem)" height="23.9688" id="Agreement" style="stroke: #A80036; stroke-width: 1.5;" width="75" x="254.75" y="1314"/><rect fill="#EEEEEE" height="23.9688" style="stroke: #A80036; stroke-width: 1.5;" width="75" x="254.75" y="1314"/><text fill="#000000" font-family="sans-serif" font-size="12" lengthAdjust="spacingAndGlyphs" textLength="69" x="257.75" y="1330.1387">Agreement</text></a><!--class Location--><a target="_top" xlink:actuate="onRequest" xlink:href="../Location.html" xlink:show="new" xlink:title="Specifies a place." xlink:type="simple"><rect fill="#EEEEEE" filter="url(#f1in4e7bk3avem)" height="23.9688" id="Location" style="stroke: #A80036; stroke-width: 1.5;" width="59" x="413.75" y="1210"/><rect fill="#EEEEEE" height="23.9688" style="stroke: #A80036; stroke-width: 1.5;" width="59" x="413.75" y="1210"/><text fill="#000000" font-family="sans-serif" font-size="12" lengthAdjust="spacingAndGlyphs" textLength="53" x="416.75" y="1226.1387">Location</text></a><!--class Reconciliation--><a target="_top" xlink:actuate="onRequest" xlink:href="../Reconciliation.html" xlink:show="new" xlink:title="Process of matching different documents submitted by parties to a trade." xlink:type="simple"><rect fill="#EEEEEE" filter="url(#f1in4e7bk3avem)" height="23.9688" id="Reconciliation" style="stroke: #A80036; stroke-width: 1.5;" width="93" x="995.75" y="1124"/><rect fill="#EEEEEE" height="23.9688" style="stroke: #A80036; stroke-width: 1.5;" width="93" x="995.75" y="1124"/><text fill="#000000" font-family="sans-serif" font-size="12" lengthAdjust="spacingAndGlyphs" textLength="87" x="998.75" y="1140.1387">Reconciliation</text></a><!--class LetterOfCredit--><a target="_top" xlink:actuate="onRequest" xlink:href="../LetterOfCredit.html" xlink:show="new" xlink:title="Instrument issued by a bank substituting its name and credit standing for that of its customer. A letter of credit is a written undertaking of the bank, issued for the account of a customer (the applicant), to honour a demand for payment, upon the beneficiary's compliance with the terms and conditions set forth in the undertaking." xlink:type="simple"><rect fill="#EEEEEE" filter="url(#f1in4e7bk3avem)" height="23.9688" id="LetterOfCredit" style="stroke: #A80036; stroke-width: 1.5;" width="93" x="995.75" y="1038"/><rect fill="#EEEEEE" height="23.9688" style="stroke: #A80036; stroke-width: 1.5;" width="93" x="995.75" y="1038"/><text fill="#000000" font-family="sans-serif" font-size="12" lengthAdjust="spacingAndGlyphs" textLength="87" x="998.75" y="1054.1387">LetterOfCredit</text></a><!--class DocumentPartyRole--><a target="_top" xlink:actuate="onRequest" xlink:href="../DocumentPartyRole.html" xlink:show="new" xlink:title="Role played by a party in the context of a document." xlink:type="simple"><rect fill="#EEEEEE" filter="url(#f1in4e7bk3avem)" height="23.9688" id="DocumentPartyRole" style="stroke: #A80036; stroke-width: 1.5;" width="129" x="958.75" y="952"/><rect fill="#EEEEEE" height="23.9688" style="stroke: #A80036; stroke-width: 1.5;" width="129" x="958.75" y="952"/><text fill="#000000" font-family="sans-serif" font-size="12" lengthAdjust="spacingAndGlyphs" textLength="123" x="961.75" y="968.1387">DocumentPartyRole</text></a><!--class Transport--><a target="_top" xlink:actuate="onRequest" xlink:href="../Transport.html" xlink:show="new" xlink:title="Moving of goods or people from one place to another by vehicle." xlink:type="simple"><rect fill="#EEEEEE" filter="url(#f1in4e7bk3avem)" height="23.9688" id="Transport" style="stroke: #A80036; stroke-width: 1.5;" width="67" x="860.75" y="850"/><rect fill="#EEEEEE" height="23.9688" style="stroke: #A80036; stroke-width: 1.5;" width="67" x="860.75" y="850"/><text fill="#000000" font-family="sans-serif" font-size="12" lengthAdjust="spacingAndGlyphs" textLength="61" x="863.75" y="866.1387">Transport</text></a><!--class Guarantee--><a target="_top" xlink:actuate="onRequest" xlink:href="../Guarantee.html" xlink:show="new" xlink:title="Partial or full coverage of amounts by a party other than the debtor." xlink:type="simple"><rect fill="#EEEEEE" filter="url(#f1in4e7bk3avem)" height="23.9688" id="Guarantee" style="stroke: #A80036; stroke-width: 1.5;" width="73" x="869.75" y="748"/><rect fill="#EEEEEE" height="23.9688" style="stroke: #A80036; stroke-width: 1.5;" width="73" x="869.75" y="748"/><text fill="#000000" font-family="sans-serif" font-size="12" lengthAdjust="spacingAndGlyphs" textLength="67" x="872.75" y="764.1387">Guarantee</text></a><!--class GenericIdentification--><a target="_top" xlink:actuate="onRequest" xlink:href="../GenericIdentification.html" xlink:show="new" xlink:title="Information related to a non-standardised identification, such as a proprietary party identification or account identification." xlink:type="simple"><rect fill="#EEEEEE" filter="url(#f1in4e7bk3avem)" height="23.9688" id="GenericIdentification" style="stroke: #A80036; stroke-width: 1.5;" width="135" x="702.75" y="646"/><rect fill="#EEEEEE" height="23.9688" style="stroke: #A80036; stroke-width: 1.5;" width="135" x="702.75" y="646"/><text fill="#000000" font-family="sans-serif" font-size="12" lengthAdjust="spacingAndGlyphs" textLength="129" x="705.75" y="662.1387">GenericIdentification</text></a><!--class Evidence--><a target="_top" xlink:actuate="onRequest" xlink:href="../Evidence.html" xlink:show="new" xlink:title="Element such as signature that can be used to prove a fact." xlink:type="simple"><rect fill="#EEEEEE" filter="url(#f1in4e7bk3avem)" height="23.9688" id="Evidence" style="stroke: #A80036; stroke-width: 1.5;" width="62" x="739.5" y="544"/><rect fill="#EEEEEE" height="23.9688" style="stroke: #A80036; stroke-width: 1.5;" width="62" x="739.5" y="544"/><text fill="#000000" font-family="sans-serif" font-size="12" lengthAdjust="spacingAndGlyphs" textLength="56" x="742.5" y="560.1387">Evidence</text></a><!--class CommercialTrade--><a target="_top" xlink:actuate="onRequest" xlink:href="../CommercialTrade.html" xlink:show="new" xlink:title="Commercial details of a trade transaction between a buyer and a seller." xlink:type="simple"><rect fill="#EEEEEE" filter="url(#f1in4e7bk3avem)" height="23.9688" id="CommercialTrade" style="stroke: #A80036; stroke-width: 1.5;" width="114" x="450" y="442"/><rect fill="#EEEEEE" height="23.9688" style="stroke: #A80036; stroke-width: 1.5;" width="114" x="450" y="442"/><text fill="#000000" font-family="sans-serif" font-size="12" lengthAdjust="spacingAndGlyphs" textLength="108" x="453" y="458.1387">CommercialTrade</text></a><!--class Presentation--><a target="_top" xlink:actuate="onRequest" xlink:href="../Presentation.html" xlink:show="new" xlink:title="Presentation of documents." xlink:type="simple"><rect fill="#EEEEEE" filter="url(#f1in4e7bk3avem)" height="23.9688" id="Presentation" style="stroke: #A80036; stroke-width: 1.5;" width="87" x="726.75" y="850"/><rect fill="#EEEEEE" height="23.9688" style="stroke: #A80036; stroke-width: 1.5;" width="87" x="726.75" y="850"/><text fill="#000000" font-family="sans-serif" font-size="12" lengthAdjust="spacingAndGlyphs" textLength="81" x="729.75" y="866.1387">Presentation</text></a><!--class RegisteredContract--><a target="_top" xlink:actuate="onRequest" xlink:href="../RegisteredContract.html" xlink:show="new" xlink:title="Contract registered for regulatory purpose by a registration agent for the journaling of payments made against the contract." xlink:type="simple"><rect fill="#EEEEEE" filter="url(#f1in4e7bk3avem)" height="23.9688" id="RegisteredContract" style="stroke: #A80036; stroke-width: 1.5;" width="128" x="706" y="748"/><rect fill="#EEEEEE" height="23.9688" style="stroke: #A80036; stroke-width: 1.5;" width="128" x="706" y="748"/><text fill="#000000" font-family="sans-serif" font-size="12" lengthAdjust="spacingAndGlyphs" textLength="122" x="709" y="764.1387">RegisteredContract</text></a><!--class System--><a target="_top" xlink:actuate="onRequest" xlink:href="../System.html" xlink:show="new" xlink:title="Set of integrated applications that provides centralised services such as clearing, netting, reconciliation, trading and/or settlement." xlink:type="simple"><rect fill="#EEEEEE" filter="url(#f1in4e7bk3avem)" height="23.9688" id="System" style="stroke: #A80036; stroke-width: 1.5;" width="51" x="38.75" y="1314"/><rect fill="#EEEEEE" height="23.9688" style="stroke: #A80036; stroke-width: 1.5;" width="51" x="38.75" y="1314"/><text fill="#000000" font-family="sans-serif" font-size="12" lengthAdjust="spacingAndGlyphs" textLength="45" x="41.75" y="1330.1387">System</text></a><!--link Document to Assessment--><path d="M1318.88,233.54 C1315.25,254.69 1311.68,275.43 1308.86,291.9 " fill="none" id="Document-Assessment" style="stroke: #A80036; stroke-width: 1.0;"/><polygon fill="none" points="1312,232.22,1322.28,213.69,1325.8,234.59,1312,232.22" style="stroke: #A80036; stroke-width: 1.0;"/><!--link PaymentObligation to ContactPoint--><!--link ContactPoint to PaymentObligation--><path d="M188.014,139.22 C184.26,162.38 177.168,217.05 185,262 C187.97,279.05 195.077,297.55 200.611,310.25 " fill="none" id="ContactPoint-PaymentObligation" style="stroke: #A80036; stroke-width: 1.0;"/><polygon fill="#A80036" points="202.718,314.99,202.7203,305.1411,200.6884,310.4205,195.409,308.3886,202.718,314.99" style="stroke: #A80036; stroke-width: 1.0;"/><text fill="#000000" font-family="sans-serif" font-size="13" lengthAdjust="spacingAndGlyphs" textLength="178" x="186" y="257.0669">RemittanceRelatedPayment</text><text fill="#000000" font-family="sans-serif" font-size="13" lengthAdjust="spacingAndGlyphs" textLength="24" x="171.3476" y="304.0348">0..1</text><!--link Agreement to PaymentObligation--><!--link Location to Agreement--><!--link Reconciliation to Location--><!--link LetterOfCredit to Reconciliation--><!--link DocumentPartyRole to LetterOfCredit--><!--link Transport to DocumentPartyRole--><!--link Guarantee to Transport--><!--link GenericIdentification to Guarantee--><!--link Evidence to GenericIdentification--><!--link CommercialTrade to Evidence--><!--link Presentation to CommercialTrade--><!--link RegisteredContract to Presentation--><!--link Document to ContactPoint--><path d="M1212.43,127 C961.876,127 406.579,127 238.888,127 " fill="none" id="Document-ContactPoint" style="stroke: #A80036; stroke-width: 1.0;"/><polygon fill="#A80036" points="233.563,127,242.563,131,238.563,127,242.563,123,233.563,127" style="stroke: #A80036; stroke-width: 1.0;"/><text fill="#000000" font-family="sans-serif" font-size="13" lengthAdjust="spacingAndGlyphs" textLength="99" x="672.75" y="119.0669">PlaceOfStorage</text><text fill="#000000" font-family="sans-serif" font-size="13" lengthAdjust="spacingAndGlyphs" textLength="7" x="241.609" y="121.6201">*</text><!--link Document to PaymentObligation--><path d="M1212.58,179.9 C1177.92,192.71 1139.92,205.25 1104,214 C799.749,288.12 424.768,314.76 274.685,322.89 " fill="none" id="Document-PaymentObligation" style="stroke: #A80036; stroke-width: 1.0;"/><polygon fill="#A80036" points="269.442,323.17,278.6431,326.6827,274.4348,322.9025,278.2151,318.6942,269.442,323.17" style="stroke: #A80036; stroke-width: 1.0;"/><text fill="#000000" font-family="sans-serif" font-size="13" lengthAdjust="spacingAndGlyphs" textLength="121" x="961" y="257.0669">PaymentObligation</text><text fill="#000000" font-family="sans-serif" font-size="13" lengthAdjust="spacingAndGlyphs" textLength="24" x="277.9048" y="317.8207">0..1</text><!--link Document to Agreement--><path d="M1461.47,135.31 C1685.55,149.75 2147.44,185.66 2297,244 C2355.15,266.68 2411,263.59 2411,326 C2411,326 2411,326 2411,1223 C2411,1330.8998 634.971,1326.7253 334.831,1325.2494 " fill="none" id="Document-Agreement" style="stroke: #A80036; stroke-width: 1.0;"/><polygon fill="#A80036" points="329.679,1325.2237,338.6595,1329.2674,334.6789,1325.248,338.6983,1321.2675,329.679,1325.2237" style="stroke: #A80036; stroke-width: 1.0;"/><text fill="#000000" font-family="sans-serif" font-size="13" lengthAdjust="spacingAndGlyphs" textLength="72" x="2412" y="815.0669">Agreement</text><text fill="#000000" font-family="sans-serif" font-size="13" lengthAdjust="spacingAndGlyphs" textLength="7" x="337.7369" y="1319.4805">*</text><!--link Document to Location--><path d="M1461.31,134.43 C1677.64,147.14 2113.4,180 2251,244 C2299.77,266.68 2340,272.21 2340,326 C2340,326 2340,326 2340,608 C2340,687.903 2139.17,1050.651 2070,1094 C1724.64,1310.4311 1563.52,1150.722 1157,1180 C890.247,1199.212 822.722,1190.372 556,1210 C529.794,1211.929 500.238,1214.831 477.928,1217.171 " fill="none" id="Document-Location" style="stroke: #A80036; stroke-width: 1.0;"/><polygon fill="#A80036" points="472.707,1217.722,482.0769,1220.756,477.6794,1217.1976,481.2379,1212.8002,472.707,1217.722" style="stroke: #A80036; stroke-width: 1.0;"/><text fill="#000000" font-family="sans-serif" font-size="13" lengthAdjust="spacingAndGlyphs" textLength="81" x="2291" y="764.0669">PlaceOfIssue</text><text fill="#000000" font-family="sans-serif" font-size="13" lengthAdjust="spacingAndGlyphs" textLength="24" x="480.8688" y="1211.2894">0..1</text><!--link Document to Reconciliation--><path d="M1461.73,128.72 C1715.69,133.57 2269,162.86 2269,326 C2269,326 2269,326 2269,608 C2269,637.239 2264.73,646.747 2247,670 C2232.87,688.532 2221.09,684.155 2204,700 C2130.81,767.874 2138.65,810.06 2062,874 C1909.21,1001.458 1278.59,1100.892 1093.37,1127.785 " fill="none" id="Document-Reconciliation" style="stroke: #A80036; stroke-width: 1.0;"/><polygon fill="#A80036" points="1088.29,1128.521,1097.7766,1131.1674,1093.2367,1127.7927,1096.6114,1123.2527,1088.29,1128.521" style="stroke: #A80036; stroke-width: 1.0;"/><text fill="#000000" font-family="sans-serif" font-size="13" lengthAdjust="spacingAndGlyphs" textLength="87" x="2205" y="713.0669">Reconciliation</text><text fill="#000000" font-family="sans-serif" font-size="13" lengthAdjust="spacingAndGlyphs" textLength="7" x="1096.8047" y="1121.8556">*</text><!--link Document to LetterOfCredit--><path d="M1461.28,130.93 C1699.71,139.94 2198,176.65 2198,326 C2198,326 2198,326 2198,506 C2198,551.088 2063.58,847.637 2027,874 C1874.31,984.054 1274.13,1033.195 1093.63,1045.68 " fill="none" id="Document-LetterOfCredit" style="stroke: #A80036; stroke-width: 1.0;"/><polygon fill="#A80036" points="1088.41,1046.038,1097.6631,1049.4115,1093.3982,1045.6952,1097.1146,1041.4303,1088.41,1046.038" style="stroke: #A80036; stroke-width: 1.0;"/><text fill="#000000" font-family="sans-serif" font-size="13" lengthAdjust="spacingAndGlyphs" textLength="90" x="2149" y="662.0669">LetterOfCredit</text><text fill="#000000" font-family="sans-serif" font-size="13" lengthAdjust="spacingAndGlyphs" textLength="8" x="1096.7178" y="1040.0545">1</text><!--link Document to DocumentPartyRole--><path d="M1461.31,133.54 C1683.78,146.87 2127,190.44 2127,326 C2127,326 2127,326 2127,506 C2127,553.868 2090.35,554.217 2071,598 C2019.32,714.931 2088.71,792.767 1990,874 C1920.97,930.804 1302.54,954.575 1092.47,961.057 " fill="none" id="Document-DocumentPartyRole" style="stroke: #A80036; stroke-width: 1.0;"/><polygon fill="#A80036" points="1087.28,961.216,1096.4013,964.9311,1092.2775,961.0588,1096.1498,956.9351,1087.28,961.216" style="stroke: #A80036; stroke-width: 1.0;"/><text fill="#000000" font-family="sans-serif" font-size="13" lengthAdjust="spacingAndGlyphs" textLength="60" x="2072" y="611.0669">PartyRole</text><text fill="#000000" font-family="sans-serif" font-size="13" lengthAdjust="spacingAndGlyphs" textLength="7" x="1095.9323" y="955.8476">*</text><!--link Document to Transport--><path d="M1461.37,130.98 C1636.48,138.1 1942.1,162.22 2011,244 C2088.4,335.86 2037.48,400.213 1999,514 C1951.55,654.307 1989.01,736.023 1867,820 C1827.89,846.92 1108.08,858.167 932.42,860.517 " fill="none" id="Document-Transport" style="stroke: #A80036; stroke-width: 1.0;"/><polygon fill="#A80036" points="927.383,860.584,936.4359,864.4628,932.3825,860.5169,936.3285,856.4635,927.383,860.584" style="stroke: #A80036; stroke-width: 1.0;"/><text fill="#000000" font-family="sans-serif" font-size="13" lengthAdjust="spacingAndGlyphs" textLength="61" x="1990" y="560.0669">Transport</text><text fill="#000000" font-family="sans-serif" font-size="13" lengthAdjust="spacingAndGlyphs" textLength="8" x="935.97" y="854.3768">1</text><!--link Document to Guarantee--><path d="M1461.27,137.44 C1602.14,151.03 1818.78,181.65 1869,244 C1930.89,320.84 1899.22,372.077 1869,466 C1855.93,506.624 1835.39,507.668 1813,544 C1767.22,618.297 1795.49,670.938 1722,718 C1656.55,759.909 1105.16,760.111 947.785,759.301 " fill="none" id="Document-Guarantee" style="stroke: #A80036; stroke-width: 1.0;"/><polygon fill="#A80036" points="942.354,759.272,951.3322,763.3208,947.3539,759.2991,951.3756,755.3209,942.354,759.272" style="stroke: #A80036; stroke-width: 1.0;"/><text fill="#000000" font-family="sans-serif" font-size="13" lengthAdjust="spacingAndGlyphs" textLength="68" x="1854" y="509.0669">Guarantee</text><text fill="#000000" font-family="sans-serif" font-size="13" lengthAdjust="spacingAndGlyphs" textLength="7" x="950.5223" y="753.4525">*</text><!--link Document to GenericIdentification--><path d="M1461.27,166.68 C1511.55,185.59 1568.56,211.4 1615,244 C1680.79,290.19 1728.36,346.33 1682,412 C1583.47,551.561 1040.97,626.261 842.641,649.214 " fill="none" id="Document-GenericIdentification" style="stroke: #A80036; stroke-width: 1.0;"/><polygon fill="#A80036" points="837.447,649.813,846.8452,652.7582,842.4142,649.2416,845.9309,644.8106,837.447,649.813" style="stroke: #A80036; stroke-width: 1.0;"/><text fill="#000000" font-family="sans-serif" font-size="13" lengthAdjust="spacingAndGlyphs" textLength="148" x="1652" y="458.0669">DocumentIdentification</text><text fill="#000000" font-family="sans-serif" font-size="13" lengthAdjust="spacingAndGlyphs" textLength="8" x="845.6792" y="643.9599">1</text><!--link Document to Evidence--><path d="M1461.38,177.16 C1566.38,225.84 1689.79,304.68 1623,386 C1516.7,515.421 953.945,547.45 805.776,553.69 " fill="none" id="Document-Evidence" style="stroke: #A80036; stroke-width: 1.0;"/><polygon fill="#A80036" points="800.681,553.902,809.839,557.5257,805.6767,553.6949,809.5076,549.5326,800.681,553.902" style="stroke: #A80036; stroke-width: 1.0;"/><text fill="#000000" font-family="sans-serif" font-size="13" lengthAdjust="spacingAndGlyphs" textLength="57" x="1615" y="407.0669">Evidence</text><text fill="#000000" font-family="sans-serif" font-size="13" lengthAdjust="spacingAndGlyphs" textLength="7" x="809.3118" y="547.2742">*</text><!--link Document to CommercialTrade--><path d="M1434.07,213.57 C1483.7,267.4 1524.76,335.9 1478,386 C1416.04,452.382 773.561,454.524 569.112,453.505 " fill="none" id="Document-CommercialTrade" style="stroke: #A80036; stroke-width: 1.0;"/><polygon fill="#A80036" points="564.071,453.479,573.0503,457.5252,569.0709,453.5047,573.0915,449.5253,564.071,453.479" style="stroke: #A80036; stroke-width: 1.0;"/><text fill="#000000" font-family="sans-serif" font-size="13" lengthAdjust="spacingAndGlyphs" textLength="113" x="1500" y="331.0669">CommercialTrade</text><text fill="#000000" font-family="sans-serif" font-size="13" lengthAdjust="spacingAndGlyphs" textLength="7" x="571.8317" y="448.4006">*</text><!--link Document to Presentation--><path d="M1461.27,141.03 C1605.73,158.29 1833.04,192.68 1901,244 C1997.4,316.78 1986.02,405.964 1932,514 C1922.06,533.876 1907.73,528.306 1892,544 C1823.08,612.741 1843.37,669.454 1759,718 C1402.49,923.138 1249.92,790.023 843,850 C835.125,851.161 826.774,852.406 818.642,853.626 " fill="none" id="Document-Presentation" style="stroke: #A80036; stroke-width: 1.0;"/><polygon fill="#A80036" points="813.613,854.381,823.1074,856.9994,818.5575,853.6381,821.9188,849.0882,813.613,854.381" style="stroke: #A80036; stroke-width: 1.0;"/><text fill="#000000" font-family="sans-serif" font-size="13" lengthAdjust="spacingAndGlyphs" textLength="81" x="1893" y="560.0669">Presentation</text><text fill="#000000" font-family="sans-serif" font-size="13" lengthAdjust="spacingAndGlyphs" textLength="24" x="821.7444" y="848.0925">0..1</text><!--link Document to RegisteredContract--><path d="M1461.6,160 C1636.21,210.95 1920.66,319.86 1810,466 C1802.09,476.451 1014.39,692.227 815.304,746.631 " fill="none" id="Document-RegisteredContract" style="stroke: #A80036; stroke-width: 1.0;"/><polygon fill="#A80036" points="810.429,747.963,820.1653,749.4479,815.252,746.6444,818.0555,741.7311,810.429,747.963" style="stroke: #A80036; stroke-width: 1.0;"/><text fill="#000000" font-family="sans-serif" font-size="13" lengthAdjust="spacingAndGlyphs" textLength="103" x="1714" y="509.0669">RelatedContract</text><text fill="#000000" font-family="sans-serif" font-size="13" lengthAdjust="spacingAndGlyphs" textLength="8" x="813.6077" y="736.9985">1</text><!--link Assessment to System--><path d="M1307.22,362.39 C1320.81,490.36 1349.2,942.249 1104,1148 C937.86,1287.4112 314.137,1095.407 130,1210 C93.7213,1232.577 75.3532,1282.8762 67.996,1308.8247 " fill="none" id="Assessment-System" style="stroke: #A80036; stroke-width: 1.0;"/><polygon fill="#A80036" points="66.6693,1313.6742,72.9025,1306.0487,67.9887,1308.8514,65.186,1303.9377,66.6693,1313.6742" style="stroke: #A80036; stroke-width: 1.0;"/><text fill="#000000" font-family="sans-serif" font-size="13" lengthAdjust="spacingAndGlyphs" textLength="49" x="1279" y="866.0669">System</text><text fill="#000000" font-family="sans-serif" font-size="13" lengthAdjust="spacingAndGlyphs" textLength="7" x="57.9801" y="1302.8697">*</text><!--link ContactPoint to GenericIdentification--><path d="M225.159,139 C268.246,154.6 339.301,187.69 370,244 C417.463,331.05 294.255,382.68 348,466 C425.484,586.121 598.814,631.515 697.537,648.042 " fill="none" id="ContactPoint-GenericIdentification" style="stroke: #A80036; stroke-width: 1.0;"/><polygon fill="#A80036" points="702.473,648.855,694.2416,643.4472,697.5393,648.0434,692.9431,651.3411,702.473,648.855" style="stroke: #A80036; stroke-width: 1.0;"/><text fill="#000000" font-family="sans-serif" font-size="13" lengthAdjust="spacingAndGlyphs" textLength="81" x="349" y="458.0669">Identification</text><text fill="#000000" font-family="sans-serif" font-size="13" lengthAdjust="spacingAndGlyphs" textLength="8" x="686.7639" y="643.3028">1</text><!--link ContactPoint to ContactPoint--><path d="M203.417,114.8 C230.637,96.23 268,100.3 268,127 C268,152.24 234.612,157.26 207.966,142.05 " fill="none" id="ContactPoint-ContactPoint" style="stroke: #A80036; stroke-width: 1.0;"/><polygon fill="#A80036" points="203.417,139.2,208.9315,147.3603,207.6578,141.8487,213.1694,140.575,203.417,139.2" style="stroke: #A80036; stroke-width: 1.0;"/><text fill="#000000" font-family="sans-serif" font-size="13" lengthAdjust="spacingAndGlyphs" textLength="80" x="274" y="131.0669">MainContact</text><text fill="#000000" font-family="sans-serif" font-size="13" lengthAdjust="spacingAndGlyphs" textLength="8" x="197.6328" y="159.0561">1</text><!--link PaymentObligation to CommercialTrade--><path d="M234.534,339.09 C289.723,362.17 416.645,415.226 475.708,439.918 " fill="none" id="PaymentObligation-CommercialTrade" style="stroke: #A80036; stroke-width: 1.0;"/><polygon fill="#A80036" points="480.525,441.932,473.7644,434.77,475.9119,440.0033,470.6786,442.1509,480.525,441.932" style="stroke: #A80036; stroke-width: 1.0;"/><text fill="#000000" font-family="sans-serif" font-size="13" lengthAdjust="spacingAndGlyphs" textLength="113" x="403" y="407.0669">CommercialTrade</text><text fill="#000000" font-family="sans-serif" font-size="13" lengthAdjust="spacingAndGlyphs" textLength="8" x="460.7055" y="430.9568">1</text><!--link Agreement to CommercialTrade--><path d="M287.83,1313.7082 C270.182,1264.27 204.473,1062.307 247,904 C297.677,715.355 449.058,524.13 494.174,470.055 " fill="none" id="Agreement-CommercialTrade" style="stroke: #A80036; stroke-width: 1.0;"/><polygon fill="#A80036" points="497.48,466.11,488.6321,470.4361,494.2673,469.9413,494.7621,475.5764,497.48,466.11" style="stroke: #A80036; stroke-width: 1.0;"/><text fill="#000000" font-family="sans-serif" font-size="13" lengthAdjust="spacingAndGlyphs" textLength="36" x="248" y="917.0669">Trade</text><text fill="#000000" font-family="sans-serif" font-size="13" lengthAdjust="spacingAndGlyphs" textLength="8" x="482.7628" y="485.9306">1</text><!--link Location to System--><path d="M413.705,1224.731 C346.594,1229.041 183.686,1241.551 134,1264 C110.636,1274.5561 89.2842,1295.5407 76.4623,1309.9214 " fill="none" id="Location-System" style="stroke: #A80036; stroke-width: 1.0;"/><polygon fill="#A80036" points="73.0775,1313.7882,82.0151,1309.6508,76.3708,1310.026,75.9956,1304.3816,73.0775,1313.7882" style="stroke: #A80036; stroke-width: 1.0;"/><text fill="#000000" font-family="sans-serif" font-size="13" lengthAdjust="spacingAndGlyphs" textLength="49" x="135" y="1277.0669">System</text><text fill="#000000" font-family="sans-serif" font-size="13" lengthAdjust="spacingAndGlyphs" textLength="8" x="77.3266" y="1303.0215">1</text><!--link Location to Transport--><path d="M425.155,1209.988 C382.192,1182.038 279.392,1105.754 319,1038 C439.375,832.082 593.807,907.244 830,874 C838.228,872.842 847.023,871.439 855.377,870.028 " fill="none" id="Location-Transport" style="stroke: #A80036; stroke-width: 1.0;"/><polygon fill="#A80036" points="860.512,869.151,850.9665,866.7253,855.5835,869.9938,852.3151,874.6109,860.512,869.151" style="stroke: #A80036; stroke-width: 1.0;"/><text fill="#000000" font-family="sans-serif" font-size="13" lengthAdjust="spacingAndGlyphs" textLength="201" x="320" y="1054.0669">DepartureTransportParameters</text><text fill="#000000" font-family="sans-serif" font-size="13" lengthAdjust="spacingAndGlyphs" textLength="24" x="828.6474" y="883.3818">0..1</text><!--link Location to Transport--><path d="M472.462,1214.6 C508.85,1204.76 566,1182.123 566,1137 C566,963 566,963 566,963 C566,933.013 769.182,888.283 855.715,870.593 " fill="none" id="Location-Transport" style="stroke: #A80036; stroke-width: 1.0;"/><polygon fill="#A80036" points="860.745,869.568,851.1274,867.4463,855.8458,870.5667,852.7253,875.2851,860.745,869.568" style="stroke: #A80036; stroke-width: 1.0;"/><text fill="#000000" font-family="sans-serif" font-size="13" lengthAdjust="spacingAndGlyphs" textLength="209" x="567" y="1054.0669">DestinationTransportParameters</text><text fill="#000000" font-family="sans-serif" font-size="13" lengthAdjust="spacingAndGlyphs" textLength="24" x="828.6239" y="865.5047">0..1</text><!--link Location to Transport--><path d="M472.453,1218.027 C565.65,1208.227 848,1175.373 848,1137 C848,963 848,963 848,963 C848,930.761 867.977,897.585 881.601,878.708 " fill="none" id="Location-Transport" style="stroke: #A80036; stroke-width: 1.0;"/><polygon fill="#A80036" points="884.912,874.226,876.3484,879.0907,881.9423,878.2485,882.7845,883.8423,884.912,874.226" style="stroke: #A80036; stroke-width: 1.0;"/><text fill="#000000" font-family="sans-serif" font-size="13" lengthAdjust="spacingAndGlyphs" textLength="109" x="849" y="1054.0669">RelatedTransport</text><text fill="#000000" font-family="sans-serif" font-size="13" lengthAdjust="spacingAndGlyphs" textLength="8" x="870.2664" y="894.0923">1</text><!--link Location to GenericIdentification--><path d="M413.601,1210.24 C386.337,1198.811 346.536,1178.196 323,1148 C267.8,1077.179 229.492,1029.985 274,952 C371.477,781.203 611.828,699.923 718.069,671.409 " fill="none" id="Location-GenericIdentification" style="stroke: #A80036; stroke-width: 1.0;"/><polygon fill="#A80036" points="723.026,670.091,713.3001,668.5393,718.1941,671.3765,715.3569,676.2704,723.026,670.091" style="stroke: #A80036; stroke-width: 1.0;"/><text fill="#000000" font-family="sans-serif" font-size="13" lengthAdjust="spacingAndGlyphs" textLength="81" x="275" y="968.0669">Identification</text><text fill="#000000" font-family="sans-serif" font-size="13" lengthAdjust="spacingAndGlyphs" textLength="7" x="693.6899" y="690.273">*</text><!--link Reconciliation to System--><path d="M1003.089,1148.015 C968.794,1157.441 917.369,1170.893 872,1180 C571.512,1240.319 493.462,1239.079 190,1282 C163.362,1285.7675 155.62,1281.7912 130,1290 C114.269,1295.0402 97.8555,1303.7281 85.3315,1311.1867 " fill="none" id="Reconciliation-System" style="stroke: #A80036; stroke-width: 1.0;"/><polygon fill="#A80036" points="80.9018,1313.87,90.6721,1312.6282,85.1784,1311.2794,86.5272,1305.7857,80.9018,1313.87" style="stroke: #A80036; stroke-width: 1.0;"/><text fill="#000000" font-family="sans-serif" font-size="13" lengthAdjust="spacingAndGlyphs" textLength="49" x="709" y="1226.0669">System</text><text fill="#000000" font-family="sans-serif" font-size="13" lengthAdjust="spacingAndGlyphs" textLength="7" x="87.829" y="1302.8735">*</text><!--link GenericIdentification to RegisteredContract--><path d="M770,670.084 C770,687.729 770,722.297 770,742.745 " fill="none" id="GenericIdentification-RegisteredContract" style="stroke: #A80036; stroke-width: 1.0;"/><polygon fill="#A80036" points="770,747.867,774,738.867,770,742.867,766,738.867,770,747.867" style="stroke: #A80036; stroke-width: 1.0;"/><text fill="#000000" font-family="sans-serif" font-size="13" lengthAdjust="spacingAndGlyphs" textLength="113" x="771" y="713.0669">RelatedCertificate</text><text fill="#000000" font-family="sans-serif" font-size="13" lengthAdjust="spacingAndGlyphs" textLength="8" x="759.2813" y="736.8695">1</text></g></svg>