<?xml version="1.0" encoding="UTF-8" standalone="no"?><svg xmlns="http://www.w3.org/2000/svg" xmlns:xlink="http://www.w3.org/1999/xlink" contentScriptType="application/ecmascript" contentStyleType="text/css" height="756px" preserveAspectRatio="none" style="width:916px;height:756px;" version="1.1" viewBox="0 0 916 756" width="916px" zoomAndPan="magnify"><defs><filter height="300%" id="fbrcwfcs8ejuy" width="300%" x="-1" y="-1"><feGaussianBlur result="blurOut" stdDeviation="2.0"/><feColorMatrix in="blurOut" result="blurOut2" type="matrix" values="0 0 0 0 0 0 0 0 0 0 0 0 0 0 0 0 0 0 .4 0"/><feOffset dx="4.0" dy="4.0" in="blurOut2" result="blurOut3"/><feBlend in="SourceGraphic" in2="blurOut3" mode="normal"/></filter></defs><g><!--cluster ##5287--><!--cluster ##5290--><!--class AssetHolding--><a target="_top" xlink:actuate="onRequest" xlink:href="../AssetHolding.html" xlink:show="new" xlink:title="Specifies in terms of value and quantity the assets." xlink:type="simple"><rect fill="#FEFECE" filter="url(#fbrcwfcs8ejuy)" height="224.0391" id="AssetHolding" style="stroke: #A80036; stroke-width: 1.5;" width="328" x="175" y="40"/><rect fill="#FEFECE" height="23.9688" style="stroke: #A80036; stroke-width: 1.5;" width="328" x="175" y="40"/><text fill="#000000" font-family="sans-serif" font-size="12" lengthAdjust="spacingAndGlyphs" textLength="82" x="298" y="56.1387">AssetHolding</text><line style="stroke: #A80036; stroke-width: 1.5;" x1="176" x2="502" y1="63.9688" y2="63.9688"/><ellipse cx="186" cy="75.8711" fill="#84BE84" rx="3" ry="3" style="stroke: #038048; stroke-width: 1.0;"/><text fill="#000000" font-family="sans-serif" font-size="11" lengthAdjust="spacingAndGlyphs" textLength="73" x="195" y="78.1792">HoldingValue</text><text fill="#000000" font-family="sans-serif" font-size="11" font-style="italic" lengthAdjust="spacingAndGlyphs" textLength="217" x="272" y="78.1792">(ActiveOrHistoricCurrencyAndAmount)</text><ellipse cx="186" cy="88.6758" fill="#84BE84" rx="3" ry="3" style="stroke: #038048; stroke-width: 1.0;"/><text fill="#000000" font-family="sans-serif" font-size="11" lengthAdjust="spacingAndGlyphs" textLength="59" x="195" y="90.9839">BookValue</text><text fill="#000000" font-family="sans-serif" font-size="11" font-style="italic" lengthAdjust="spacingAndGlyphs" textLength="126" x="258" y="90.9839">(CurrencyAndAmount)</text><ellipse cx="186" cy="101.4805" fill="#84BE84" rx="3" ry="3" style="stroke: #038048; stroke-width: 1.0;"/><text fill="#000000" font-family="sans-serif" font-size="11" lengthAdjust="spacingAndGlyphs" textLength="69" x="195" y="103.7886">FaceAmount</text><text fill="#000000" font-family="sans-serif" font-size="11" font-style="italic" lengthAdjust="spacingAndGlyphs" textLength="126" x="268" y="103.7886">(CurrencyAndAmount)</text><ellipse cx="186" cy="114.2852" fill="#84BE84" rx="3" ry="3" style="stroke: #038048; stroke-width: 1.0;"/><text fill="#000000" font-family="sans-serif" font-size="11" lengthAdjust="spacingAndGlyphs" textLength="115" x="195" y="116.5933">AmortisedFaceValue</text><text fill="#000000" font-family="sans-serif" font-size="11" font-style="italic" lengthAdjust="spacingAndGlyphs" textLength="126" x="314" y="116.5933">(CurrencyAndAmount)</text><ellipse cx="186" cy="127.0898" fill="#84BE84" rx="3" ry="3" style="stroke: #038048; stroke-width: 1.0;"/><text fill="#000000" font-family="sans-serif" font-size="11" lengthAdjust="spacingAndGlyphs" textLength="69" x="195" y="129.3979">MarketValue</text><text fill="#000000" font-family="sans-serif" font-size="11" font-style="italic" lengthAdjust="spacingAndGlyphs" textLength="161" x="268" y="129.3979">(ActiveCurrencyAndAmount)</text><ellipse cx="186" cy="139.8945" fill="#84BE84" rx="3" ry="3" style="stroke: #038048; stroke-width: 1.0;"/><text fill="#000000" font-family="sans-serif" font-size="11" lengthAdjust="spacingAndGlyphs" textLength="128" x="195" y="142.2026">UnrealisedGainOrLoss</text><text fill="#000000" font-family="sans-serif" font-size="11" font-style="italic" lengthAdjust="spacingAndGlyphs" textLength="126" x="327" y="142.2026">(CurrencyAndAmount)</text><ellipse cx="186" cy="152.6992" fill="#84BE84" rx="3" ry="3" style="stroke: #038048; stroke-width: 1.0;"/><text fill="#000000" font-family="sans-serif" font-size="11" lengthAdjust="spacingAndGlyphs" textLength="125" x="195" y="155.0073">EligibleCollateralValue</text><text fill="#000000" font-family="sans-serif" font-size="11" font-style="italic" lengthAdjust="spacingAndGlyphs" textLength="161" x="324" y="155.0073">(ActiveCurrencyAndAmount)</text><ellipse cx="186" cy="165.5039" fill="#84BE84" rx="3" ry="3" style="stroke: #038048; stroke-width: 1.0;"/><text fill="#000000" font-family="sans-serif" font-size="11" lengthAdjust="spacingAndGlyphs" textLength="53" x="195" y="167.812">CapValue</text><text fill="#000000" font-family="sans-serif" font-size="11" font-style="italic" lengthAdjust="spacingAndGlyphs" textLength="126" x="252" y="167.812">(CurrencyAndAmount)</text><ellipse cx="186" cy="178.3086" fill="#84BE84" rx="3" ry="3" style="stroke: #038048; stroke-width: 1.0;"/><text fill="#000000" font-family="sans-serif" font-size="11" lengthAdjust="spacingAndGlyphs" textLength="103" x="195" y="180.6167">RiskAdjustedValue</text><text fill="#000000" font-family="sans-serif" font-size="11" font-style="italic" lengthAdjust="spacingAndGlyphs" textLength="161" x="302" y="180.6167">(ActiveCurrencyAndAmount)</text><ellipse cx="186" cy="191.1133" fill="#84BE84" rx="3" ry="3" style="stroke: #038048; stroke-width: 1.0;"/><text fill="#000000" font-family="sans-serif" font-size="11" lengthAdjust="spacingAndGlyphs" textLength="115" x="195" y="193.4214">RealisedGainOrLoss</text><text fill="#000000" font-family="sans-serif" font-size="11" font-style="italic" lengthAdjust="spacingAndGlyphs" textLength="126" x="314" y="193.4214">(CurrencyAndAmount)</text><ellipse cx="186" cy="203.918" fill="#84BE84" rx="3" ry="3" style="stroke: #038048; stroke-width: 1.0;"/><text fill="#000000" font-family="sans-serif" font-size="11" lengthAdjust="spacingAndGlyphs" textLength="88" x="195" y="206.2261">UnrealisedType</text><text fill="#000000" font-family="sans-serif" font-size="11" font-style="italic" lengthAdjust="spacingAndGlyphs" textLength="97" x="287" y="206.2261">(UnrealisedCode)</text><ellipse cx="186" cy="216.7227" fill="#84BE84" rx="3" ry="3" style="stroke: #038048; stroke-width: 1.0;"/><text fill="#000000" font-family="sans-serif" font-size="11" lengthAdjust="spacingAndGlyphs" textLength="96" x="195" y="219.0308">PostHaircutValue</text><text fill="#000000" font-family="sans-serif" font-size="11" font-style="italic" lengthAdjust="spacingAndGlyphs" textLength="126" x="295" y="219.0308">(CurrencyAndAmount)</text><ellipse cx="186" cy="229.5273" fill="#84BE84" rx="3" ry="3" style="stroke: #038048; stroke-width: 1.0;"/><text fill="#000000" font-family="sans-serif" font-size="11" lengthAdjust="spacingAndGlyphs" textLength="108" x="195" y="231.8354">FinancialAssetType</text><text fill="#000000" font-family="sans-serif" font-size="11" font-style="italic" lengthAdjust="spacingAndGlyphs" textLength="190" x="307" y="231.8354">(FinancialAssetBalanceTypeCode)</text><ellipse cx="186" cy="242.332" fill="#84BE84" rx="3" ry="3" style="stroke: #038048; stroke-width: 1.0;"/><text fill="#000000" font-family="sans-serif" font-size="11" lengthAdjust="spacingAndGlyphs" textLength="69" x="195" y="244.6401">HoldingType</text><text fill="#000000" font-family="sans-serif" font-size="11" font-style="italic" lengthAdjust="spacingAndGlyphs" textLength="123" x="268" y="244.6401">(BlockedReasonCode)</text><ellipse cx="186" cy="255.1367" fill="#84BE84" rx="3" ry="3" style="stroke: #038048; stroke-width: 1.0;"/><text fill="#000000" font-family="sans-serif" font-size="11" lengthAdjust="spacingAndGlyphs" textLength="103" x="195" y="257.4448">GuaranteeAmount</text><text fill="#000000" font-family="sans-serif" font-size="11" font-style="italic" lengthAdjust="spacingAndGlyphs" textLength="126" x="302" y="257.4448">(CurrencyAndAmount)</text></a><!--class Balance--><a target="_top" xlink:actuate="onRequest" xlink:href="../Balance.html" xlink:show="new" xlink:title="Numerical representation of the net increases and decreases in an account at a specific point in time." xlink:type="simple"><rect fill="#EEEEEE" filter="url(#fbrcwfcs8ejuy)" height="23.9688" id="Balance" style="stroke: #A80036; stroke-width: 1.5;" width="56" x="272.5" y="346"/><rect fill="#EEEEEE" height="23.9688" style="stroke: #A80036; stroke-width: 1.5;" width="56" x="272.5" y="346"/><text fill="#000000" font-family="sans-serif" font-size="12" lengthAdjust="spacingAndGlyphs" textLength="50" x="275.5" y="362.1387">Balance</text></a><!--class Asset--><a target="_top" xlink:actuate="onRequest" xlink:href="../Asset.html" xlink:show="new" xlink:title="Tangible items of value to a business." xlink:type="simple"><rect fill="#EEEEEE" filter="url(#fbrcwfcs8ejuy)" height="23.9688" id="Asset" style="stroke: #A80036; stroke-width: 1.5;" width="41" x="313.75" y="722"/><rect fill="#EEEEEE" height="23.9688" style="stroke: #A80036; stroke-width: 1.5;" width="41" x="313.75" y="722"/><text fill="#000000" font-family="sans-serif" font-size="12" lengthAdjust="spacingAndGlyphs" textLength="35" x="316.75" y="738.1387">Asset</text></a><!--class HaircutValuation--><a target="_top" xlink:actuate="onRequest" xlink:href="../HaircutValuation.html" xlink:show="new" xlink:title="Basic valuation details of an asset's market value." xlink:type="simple"><rect fill="#EEEEEE" filter="url(#fbrcwfcs8ejuy)" height="23.9688" id="HaircutValuation" style="stroke: #A80036; stroke-width: 1.5;" width="110" x="279" y="636"/><rect fill="#EEEEEE" height="23.9688" style="stroke: #A80036; stroke-width: 1.5;" width="110" x="279" y="636"/><text fill="#000000" font-family="sans-serif" font-size="12" lengthAdjust="spacingAndGlyphs" textLength="104" x="282" y="652.1387">HaircutValuation</text></a><!--class CurrencyExchange--><a target="_top" xlink:actuate="onRequest" xlink:href="../CurrencyExchange.html" xlink:show="new" xlink:title="Information needed to process a currency exchange or conversion." xlink:type="simple"><rect fill="#EEEEEE" filter="url(#fbrcwfcs8ejuy)" height="23.9688" id="CurrencyExchange" style="stroke: #A80036; stroke-width: 1.5;" width="122" x="270" y="550"/><rect fill="#EEEEEE" height="23.9688" style="stroke: #A80036; stroke-width: 1.5;" width="122" x="270" y="550"/><text fill="#000000" font-family="sans-serif" font-size="12" lengthAdjust="spacingAndGlyphs" textLength="116" x="273" y="566.1387">CurrencyExchange</text></a><!--class Interest--><a target="_top" xlink:actuate="onRequest" xlink:href="../Interest.html" xlink:show="new" xlink:title="Consideration, such as amount of money,  paid or received in exchange for an asset that has been invested, loaned or borrowed for a certain period. The interest is expressed as a fixed amount or percentage of the amount upon which the interest is applied." xlink:type="simple"><rect fill="#EEEEEE" filter="url(#fbrcwfcs8ejuy)" height="23.9688" id="Interest" style="stroke: #A80036; stroke-width: 1.5;" width="55" x="371.75" y="448"/><rect fill="#EEEEEE" height="23.9688" style="stroke: #A80036; stroke-width: 1.5;" width="55" x="371.75" y="448"/><text fill="#000000" font-family="sans-serif" font-size="12" lengthAdjust="spacingAndGlyphs" textLength="49" x="374.75" y="464.1387">Interest</text></a><!--class Collateral--><a target="_top" xlink:actuate="onRequest" xlink:href="../Collateral.html" xlink:show="new" xlink:title="Assets pledged by a debtor to secure a loan or an exposure and subject to seizure in the event of default." xlink:type="simple"><rect fill="#EEEEEE" filter="url(#fbrcwfcs8ejuy)" height="23.9688" id="Collateral" style="stroke: #A80036; stroke-width: 1.5;" width="65" x="363.75" y="346"/><rect fill="#EEEEEE" height="23.9688" style="stroke: #A80036; stroke-width: 1.5;" width="65" x="363.75" y="346"/><text fill="#000000" font-family="sans-serif" font-size="12" lengthAdjust="spacingAndGlyphs" textLength="59" x="366.75" y="362.1387">Collateral</text></a><!--link Asset to Balance--><!--link HaircutValuation to Asset--><!--link CurrencyExchange to HaircutValuation--><!--link Interest to CurrencyExchange--><!--link Collateral to Interest--><!--link AssetHolding to Balance--><path d="M174.741,241.929 C157.642,257.701 142.653,275.693 132,296 C104.5598,348.308 210.82,356.553 267.116,357.342 " fill="none" id="AssetHolding-Balance" style="stroke: #A80036; stroke-width: 1.0;"/><polygon fill="#A80036" points="272.402,357.397,263.4436,353.3046,267.4023,357.3456,263.3613,361.3042,272.402,357.397" style="stroke: #A80036; stroke-width: 1.0;"/><text fill="#000000" font-family="sans-serif" font-size="13" lengthAdjust="spacingAndGlyphs" textLength="51" x="133" y="309.0669">Balance</text><text fill="#000000" font-family="sans-serif" font-size="13" lengthAdjust="spacingAndGlyphs" textLength="7" x="257.6787" y="351.6033">*</text><!--link AssetHolding to Asset--><path d="M174.939,189.061 C90.8839,218.225 6,269.371 6,357 C6,357 6,357 6,649 C6,711.2838 230.757,728.0116 308.168,731.9259 " fill="none" id="AssetHolding-Asset" style="stroke: #A80036; stroke-width: 1.0;"/><polygon fill="#A80036" points="313.482,732.1861,304.6882,727.7512,308.488,731.9418,304.2973,735.7416,313.482,732.1861" style="stroke: #A80036; stroke-width: 1.0;"/><text fill="#000000" font-family="sans-serif" font-size="13" lengthAdjust="spacingAndGlyphs" textLength="36" x="7" y="515.0669">Asset</text><text fill="#000000" font-family="sans-serif" font-size="13" lengthAdjust="spacingAndGlyphs" textLength="8" x="297.879" y="725.6311">1</text><!--link AssetHolding to HaircutValuation--><path d="M503.254,185.007 C654.972,219.415 857,279.738 857,357 C857,357 857,357 857,563 C857,609.362 532.475,634.806 394.696,643.519 " fill="none" id="AssetHolding-HaircutValuation" style="stroke: #A80036; stroke-width: 1.0;"/><polygon fill="#A80036" points="389.475,643.847,398.7077,647.276,394.4652,643.5341,398.2071,639.2917,389.475,643.847" style="stroke: #A80036; stroke-width: 1.0;"/><text fill="#000000" font-family="sans-serif" font-size="13" lengthAdjust="spacingAndGlyphs" textLength="46" x="858" y="464.0669">Haircut</text><text fill="#000000" font-family="sans-serif" font-size="13" lengthAdjust="spacingAndGlyphs" textLength="7" x="397.0312" y="638.3032">*</text><!--link AssetHolding to CurrencyExchange--><path d="M174.867,232.678 C152.841,250.429 133.295,271.441 120,296 C62.038,403.072 235.824,510.278 304.43,547.374 " fill="none" id="AssetHolding-CurrencyExchange" style="stroke: #A80036; stroke-width: 1.0;"/><polygon fill="#A80036" points="309.183,549.923,303.1412,542.1451,304.7764,547.5604,299.361,549.1957,309.183,549.923" style="stroke: #A80036; stroke-width: 1.0;"/><text fill="#000000" font-family="sans-serif" font-size="13" lengthAdjust="spacingAndGlyphs" textLength="91" x="139" y="413.0669">ExchangeRate</text><text fill="#000000" font-family="sans-serif" font-size="13" lengthAdjust="spacingAndGlyphs" textLength="8" x="290.9647" y="538.9447">1</text><!--link AssetHolding to Interest--><path d="M503.011,175.63 C576.422,194.838 656.346,230.349 701,296 C771.377,399.47 522.999,442.876 431.526,455.129 " fill="none" id="AssetHolding-Interest" style="stroke: #A80036; stroke-width: 1.0;"/><polygon fill="#A80036" points="426.509,455.791,435.9542,458.5816,431.4662,455.1381,434.9097,450.6501,426.509,455.791" style="stroke: #A80036; stroke-width: 1.0;"/><text fill="#000000" font-family="sans-serif" font-size="13" lengthAdjust="spacingAndGlyphs" textLength="49" x="714" y="362.0669">Interest</text><text fill="#000000" font-family="sans-serif" font-size="13" lengthAdjust="spacingAndGlyphs" textLength="7" x="434.7755" y="448.4644">*</text><!--link AssetHolding to Collateral--><path d="M503.162,197.546 C551.45,219.119 598.836,250.57 627,296 C631.215,302.799 632.113,307.847 627,314 C602.83,343.084 492.506,352.595 433.497,355.629 " fill="none" id="AssetHolding-Collateral" style="stroke: #A80036; stroke-width: 1.0;"/><polygon fill="#A80036" points="428.299,355.886,437.4857,359.4363,433.2929,355.6389,437.0903,351.4461,428.299,355.886" style="stroke: #A80036; stroke-width: 1.0;"/><text fill="#000000" font-family="sans-serif" font-size="13" lengthAdjust="spacingAndGlyphs" textLength="60" x="631" y="309.0669">Collateral</text><text fill="#000000" font-family="sans-serif" font-size="13" lengthAdjust="spacingAndGlyphs" textLength="7" x="436.9641" y="349.3857">*</text><!--link AssetHolding to Collateral--><path d="M217.599,264.017 C210.732,281.392 211.661,298.656 226,314 C234.972,323.601 331.568,317.741 344,322 C356.972,326.444 369.771,334.992 379.426,342.528 " fill="none" id="AssetHolding-Collateral" style="stroke: #A80036; stroke-width: 1.0;"/><polygon fill="#A80036" points="383.362,345.68,378.8357,336.9329,379.4586,342.5553,373.8362,343.1782,383.362,345.68" style="stroke: #A80036; stroke-width: 1.0;"/><text fill="#000000" font-family="sans-serif" font-size="13" lengthAdjust="spacingAndGlyphs" textLength="160" x="227" y="309.0669">VariationMarginCollateral</text><text fill="#000000" font-family="sans-serif" font-size="13" lengthAdjust="spacingAndGlyphs" textLength="8" x="368.4366" y="334.8774">1</text><!--link AssetHolding to Collateral--><path d="M384.72,264.026 C387.963,274.705 390.811,285.478 393,296 C396.071,310.763 396.656,327.95 396.569,340.31 " fill="none" id="AssetHolding-Collateral" style="stroke: #A80036; stroke-width: 1.0;"/><polygon fill="#A80036" points="396.488,345.624,400.6239,336.6856,396.5637,340.6246,392.6248,336.5645,396.488,345.624" style="stroke: #A80036; stroke-width: 1.0;"/><text fill="#000000" font-family="sans-serif" font-size="13" lengthAdjust="spacingAndGlyphs" textLength="191" x="397" y="309.0669">IndependentAmountCollateral</text><text fill="#000000" font-family="sans-serif" font-size="13" lengthAdjust="spacingAndGlyphs" textLength="8" x="385.9701" y="335.0628">1</text><!--link Balance to Interest--><path d="M310.973,370.084 C328.813,388.105 364.128,423.775 384.18,444.031 " fill="none" id="Balance-Interest" style="stroke: #A80036; stroke-width: 1.0;"/><polygon fill="#A80036" points="387.978,447.867,384.4908,438.6562,384.4611,444.3129,378.8043,444.2832,387.978,447.867" style="stroke: #A80036; stroke-width: 1.0;"/><text fill="#000000" font-family="sans-serif" font-size="13" lengthAdjust="spacingAndGlyphs" textLength="49" x="360" y="413.0669">Interest</text><text fill="#000000" font-family="sans-serif" font-size="13" lengthAdjust="spacingAndGlyphs" textLength="7" x="374.5564" y="436.8695">*</text></g></svg>