<?xml version="1.0" encoding="UTF-8" standalone="no"?><svg xmlns="http://www.w3.org/2000/svg" xmlns:xlink="http://www.w3.org/1999/xlink" contentScriptType="application/ecmascript" contentStyleType="text/css" height="562px" preserveAspectRatio="none" style="width:1012px;height:562px;" version="1.1" viewBox="0 0 1012 562" width="1012px" zoomAndPan="magnify"><defs><filter height="300%" id="f85dbdha9qhol" width="300%" x="-1" y="-1"><feGaussianBlur result="blurOut" stdDeviation="2.0"/><feColorMatrix in="blurOut" result="blurOut2" type="matrix" values="0 0 0 0 0 0 0 0 0 0 0 0 0 0 0 0 0 0 .4 0"/><feOffset dx="4.0" dy="4.0" in="blurOut2" result="blurOut3"/><feBlend in="SourceGraphic" in2="blurOut3" mode="normal"/></filter></defs><g><!--cluster ##7385--><!--cluster ##7394--><!--class Balance--><a target="_top" xlink:actuate="onRequest" xlink:href="../Balance.html" xlink:show="new" xlink:title="Numerical representation of the net increases and decreases in an account at a specific point in time." xlink:type="simple"><rect fill="#FEFECE" filter="url(#f85dbdha9qhol)" height="108.7969" id="Balance" style="stroke: #A80036; stroke-width: 1.5;" width="279" x="174.75" y="40.5"/><rect fill="#FEFECE" height="23.9688" style="stroke: #A80036; stroke-width: 1.5;" width="279" x="174.75" y="40.5"/><text fill="#000000" font-family="sans-serif" font-size="12" lengthAdjust="spacingAndGlyphs" textLength="50" x="289.25" y="56.6387">Balance</text><line style="stroke: #A80036; stroke-width: 1.5;" x1="175.75" x2="452.75" y1="64.4688" y2="64.4688"/><ellipse cx="185.75" cy="76.3711" fill="#84BE84" rx="3" ry="3" style="stroke: #038048; stroke-width: 1.0;"/><text fill="#000000" font-family="sans-serif" font-size="11" lengthAdjust="spacingAndGlyphs" textLength="27" x="194.75" y="78.6792">Type</text><text fill="#000000" font-family="sans-serif" font-size="11" font-style="italic" lengthAdjust="spacingAndGlyphs" textLength="110" x="225.75" y="78.6792">(BalanceTypeCode)</text><ellipse cx="185.75" cy="89.1758" fill="#84BE84" rx="3" ry="3" style="stroke: #038048; stroke-width: 1.0;"/><text fill="#000000" font-family="sans-serif" font-size="11" lengthAdjust="spacingAndGlyphs" textLength="57" x="194.75" y="91.4839">ValueDate</text><text fill="#000000" font-family="sans-serif" font-size="11" font-style="italic" lengthAdjust="spacingAndGlyphs" textLength="81" x="255.75" y="91.4839">(ISODateTime)</text><ellipse cx="185.75" cy="101.9805" fill="#84BE84" rx="3" ry="3" style="stroke: #038048; stroke-width: 1.0;"/><text fill="#000000" font-family="sans-serif" font-size="11" lengthAdjust="spacingAndGlyphs" textLength="112" x="194.75" y="104.2886">CreditDebitIndicator</text><text fill="#000000" font-family="sans-serif" font-size="11" font-style="italic" lengthAdjust="spacingAndGlyphs" textLength="100" x="310.75" y="104.2886">(DebitCreditCode)</text><ellipse cx="185.75" cy="114.7852" fill="#84BE84" rx="3" ry="3" style="stroke: #038048; stroke-width: 1.0;"/><text fill="#000000" font-family="sans-serif" font-size="11" lengthAdjust="spacingAndGlyphs" textLength="88" x="194.75" y="117.0933">CalculationDate</text><text fill="#000000" font-family="sans-serif" font-size="11" font-style="italic" lengthAdjust="spacingAndGlyphs" textLength="81" x="286.75" y="117.0933">(ISODateTime)</text><ellipse cx="185.75" cy="127.5898" fill="#84BE84" rx="3" ry="3" style="stroke: #038048; stroke-width: 1.0;"/><text fill="#000000" font-family="sans-serif" font-size="11" lengthAdjust="spacingAndGlyphs" textLength="123" x="194.75" y="129.8979">ProcessingRestriction</text><text fill="#000000" font-family="sans-serif" font-size="11" font-style="italic" lengthAdjust="spacingAndGlyphs" textLength="126" x="321.75" y="129.8979">(ProcessingTypeCode)</text><ellipse cx="185.75" cy="140.3945" fill="#84BE84" rx="3" ry="3" style="stroke: #038048; stroke-width: 1.0;"/><text fill="#000000" font-family="sans-serif" font-size="11" lengthAdjust="spacingAndGlyphs" textLength="118" x="194.75" y="142.7026">OpeningClosingCode</text><text fill="#000000" font-family="sans-serif" font-size="11" font-style="italic" lengthAdjust="spacingAndGlyphs" textLength="125" x="316.75" y="142.7026">(OpeningClosingCode)</text></a><!--class CashBalance--><a target="_top" xlink:actuate="onRequest" xlink:href="../CashBalance.html" xlink:show="new" xlink:title="Numerical representation of the net increases and decreases in an account at a specific point in time. A cash balance is calculated from a sum of cash credits minus a sum of cash debits." xlink:type="simple"><rect fill="#FEFEEE" filter="url(#f85dbdha9qhol)" height="23.9688" id="CashBalance" style="stroke: #A80036; stroke-width: 1.5;" width="87" x="38.75" y="230"/><rect fill="#FEFEEE" height="23.9688" style="stroke: #A80036; stroke-width: 1.5;" width="87" x="38.75" y="230"/><text fill="#000000" font-family="sans-serif" font-size="12" lengthAdjust="spacingAndGlyphs" textLength="81" x="41.75" y="246.1387">CashBalance</text></a><!--class SecuritiesBalance--><a target="_top" xlink:actuate="onRequest" xlink:href="../SecuritiesBalance.html" xlink:show="new" xlink:title="Net position of a segregated holding, in a single security, within the overall position held in a securities account. A securities balance is calculated from the sum of securities' receipts minus the sum of securities' deliveries." xlink:type="simple"><rect fill="#FEFEEE" filter="url(#f85dbdha9qhol)" height="23.9688" id="SecuritiesBalance" style="stroke: #A80036; stroke-width: 1.5;" width="118" x="161" y="230"/><rect fill="#FEFEEE" height="23.9688" style="stroke: #A80036; stroke-width: 1.5;" width="118" x="161" y="230"/><text fill="#000000" font-family="sans-serif" font-size="12" lengthAdjust="spacingAndGlyphs" textLength="112" x="164" y="246.1387">SecuritiesBalance</text></a><!--class AssetHolding--><a target="_top" xlink:actuate="onRequest" xlink:href="../AssetHolding.html" xlink:show="new" xlink:title="Specifies in terms of value and quantity the assets." xlink:type="simple"><rect fill="#EEEEEE" filter="url(#f85dbdha9qhol)" height="23.9688" id="AssetHolding" style="stroke: #A80036; stroke-width: 1.5;" width="88" x="564.5" y="230"/><rect fill="#EEEEEE" height="23.9688" style="stroke: #A80036; stroke-width: 1.5;" width="88" x="564.5" y="230"/><text fill="#000000" font-family="sans-serif" font-size="12" lengthAdjust="spacingAndGlyphs" textLength="82" x="567.5" y="246.1387">AssetHolding</text></a><!--class Adjustment--><a target="_top" xlink:actuate="onRequest" xlink:href="../Adjustment.html" xlink:show="new" xlink:title="Modification on the value of goods and / or services. For example: rebate, discount." xlink:type="simple"><rect fill="#EEEEEE" filter="url(#f85dbdha9qhol)" height="23.9688" id="Adjustment" style="stroke: #A80036; stroke-width: 1.5;" width="77" x="564.75" y="528"/><rect fill="#EEEEEE" height="23.9688" style="stroke: #A80036; stroke-width: 1.5;" width="77" x="564.75" y="528"/><text fill="#000000" font-family="sans-serif" font-size="12" lengthAdjust="spacingAndGlyphs" textLength="71" x="567.75" y="544.1387">Adjustment</text></a><!--class Account--><a target="_top" xlink:actuate="onRequest" xlink:href="../Account.html" xlink:show="new" xlink:title="Record of transactions in specific types of assets, maintained by a servicing party on behalf of one or more owning parties. Business relationship between an account servicer and one or more account owners." xlink:type="simple"><rect fill="#EEEEEE" filter="url(#f85dbdha9qhol)" height="23.9688" id="Account" style="stroke: #A80036; stroke-width: 1.5;" width="57" x="601.75" y="424"/><rect fill="#EEEEEE" height="23.9688" style="stroke: #A80036; stroke-width: 1.5;" width="57" x="601.75" y="424"/><text fill="#000000" font-family="sans-serif" font-size="12" lengthAdjust="spacingAndGlyphs" textLength="51" x="604.75" y="440.1387">Account</text></a><!--class Interest--><a target="_top" xlink:actuate="onRequest" xlink:href="../Interest.html" xlink:show="new" xlink:title="Consideration, such as amount of money,  paid or received in exchange for an asset that has been invested, loaned or borrowed for a certain period. The interest is expressed as a fixed amount or percentage of the amount upon which the interest is applied." xlink:type="simple"><rect fill="#EEEEEE" filter="url(#f85dbdha9qhol)" height="23.9688" id="Interest" style="stroke: #A80036; stroke-width: 1.5;" width="55" x="668.75" y="336"/><rect fill="#EEEEEE" height="23.9688" style="stroke: #A80036; stroke-width: 1.5;" width="55" x="668.75" y="336"/><text fill="#000000" font-family="sans-serif" font-size="12" lengthAdjust="spacingAndGlyphs" textLength="49" x="671.75" y="352.1387">Interest</text></a><!--class Entry--><a target="_top" xlink:actuate="onRequest" xlink:href="../Entry.html" xlink:show="new" xlink:title="Posting to an account that results in an increase or decrease to a balance." xlink:type="simple"><rect fill="#EEEEEE" filter="url(#f85dbdha9qhol)" height="23.9688" id="Entry" style="stroke: #A80036; stroke-width: 1.5;" width="38" x="783" y="528"/><rect fill="#EEEEEE" height="23.9688" style="stroke: #A80036; stroke-width: 1.5;" width="38" x="783" y="528"/><text fill="#000000" font-family="sans-serif" font-size="12" lengthAdjust="spacingAndGlyphs" textLength="32" x="786" y="544.1387">Entry</text></a><!--link Balance to CashBalance--><path d="M211.232,160.23 C168.773,186.767 123.919,214.801 99.8224,229.861 " fill="none" id="Balance-CashBalance" style="stroke: #A80036; stroke-width: 1.0;"/><polygon fill="none" points="207.601,154.245,228.271,149.581,215.021,166.117,207.601,154.245" style="stroke: #A80036; stroke-width: 1.0;"/><!--link Balance to SecuritiesBalance--><path d="M268.343,166.429 C252.388,191.04 236.227,215.97 227.221,229.861 " fill="none" id="Balance-SecuritiesBalance" style="stroke: #A80036; stroke-width: 1.0;"/><polygon fill="none" points="262.512,162.555,279.265,149.581,274.259,170.171,262.512,162.555" style="stroke: #A80036; stroke-width: 1.0;"/><!--link Adjustment to AssetHolding--><!--link Account to Adjustment--><!--link Interest to Account--><!--link Entry to Interest--><!--link Balance to AssetHolding--><path d="M453.469,141.867 C480.576,152.884 508.239,165.673 533,180 C555.574,193.061 578.377,212.741 592.813,226.193 " fill="none" id="Balance-AssetHolding" style="stroke: #A80036; stroke-width: 1.0;"/><polygon fill="#A80036" points="596.656,229.811,592.8453,220.7292,593.0156,226.3835,587.3613,226.5538,596.656,229.811" style="stroke: #A80036; stroke-width: 1.0;"/><text fill="#000000" font-family="sans-serif" font-size="13" lengthAdjust="spacingAndGlyphs" textLength="84" x="561" y="193.0669">AssetHolding</text><text fill="#000000" font-family="sans-serif" font-size="13" lengthAdjust="spacingAndGlyphs" textLength="7" x="583.2421" y="219.0518">*</text><!--link Balance to Adjustment--><path d="M415.242,149.714 C436.504,165.274 456.77,184.09 471,206 C508.982,264.479 476.751,294.621 501,360 C525.066,424.886 571.019,493.9407 592.028,523.7981 " fill="none" id="Balance-Adjustment" style="stroke: #A80036; stroke-width: 1.0;"/><polygon fill="#A80036" points="594.941,527.9136,593.0066,518.2566,592.0524,523.8324,586.4766,522.8783,594.941,527.9136" style="stroke: #A80036; stroke-width: 1.0;"/><text fill="#000000" font-family="sans-serif" font-size="13" lengthAdjust="spacingAndGlyphs" textLength="74" x="502" y="352.0669">Adjustment</text><text fill="#000000" font-family="sans-serif" font-size="13" lengthAdjust="spacingAndGlyphs" textLength="7" x="582.5379" y="516.9321">*</text><!--link Balance to Account--><path d="M453.494,110.626 C570.495,126.262 723.958,155.851 759,206 C798.5,262.53 779.098,303.19 740,360 C720.386,388.5 686.102,409.313 661.009,421.684 " fill="none" id="Balance-Account" style="stroke: #A80036; stroke-width: 1.0;"/><polygon fill="#A80036" points="656.436,423.896,666.2797,423.5783,660.9372,421.719,662.7965,416.3764,656.436,423.896" style="stroke: #A80036; stroke-width: 1.0;"/><text fill="#000000" font-family="sans-serif" font-size="13" lengthAdjust="spacingAndGlyphs" textLength="52" x="779" y="301.0669">Account</text><text fill="#000000" font-family="sans-serif" font-size="13" lengthAdjust="spacingAndGlyphs" textLength="8" x="654.7187" y="412.9085">1</text><!--link Balance to Interest--><path d="M453.338,103.438 C520.331,113.272 598.206,134.603 655,180 C671.033,192.816 690.448,237.247 700,288 C702.668,302.174 701.203,318.559 699.338,330.46 " fill="none" id="Balance-Interest" style="stroke: #A80036; stroke-width: 1.0;"/><polygon fill="#A80036" points="698.466,335.589,703.9189,327.3874,699.3047,330.6598,696.0323,326.0456,698.466,335.589" style="stroke: #A80036; stroke-width: 1.0;"/><text fill="#000000" font-family="sans-serif" font-size="13" lengthAdjust="spacingAndGlyphs" textLength="49" x="700" y="246.0669">Interest</text><text fill="#000000" font-family="sans-serif" font-size="13" lengthAdjust="spacingAndGlyphs" textLength="7" x="689.738" y="325.0167">*</text><!--link Balance to Entry--><path d="M453.392,101.958 C630.934,113.431 915,146.546 915,241 C915,241 915,241 915,437 C915,484.608 859.047,515.721 825.887,529.9798 " fill="none" id="Balance-Entry" style="stroke: #A80036; stroke-width: 1.0;"/><polygon fill="#A80036" points="821.169,531.9612,831.0158,532.1623,825.7786,530.0242,827.9167,524.787,821.169,531.9612" style="stroke: #A80036; stroke-width: 1.0;"/><text fill="#000000" font-family="sans-serif" font-size="13" lengthAdjust="spacingAndGlyphs" textLength="84" x="916" y="352.0669">BalanceEntry</text><text fill="#000000" font-family="sans-serif" font-size="13" lengthAdjust="spacingAndGlyphs" textLength="7" x="828.9615" y="522.3711">*</text><!--link SecuritiesBalance to SecuritiesBalance--><path d="M279.208,232.251 C298.577,232.301 314,235.551 314,242 C314,247.845 301.333,251.062 284.542,251.651 " fill="none" id="SecuritiesBalance-SecuritiesBalance" style="stroke: #A80036; stroke-width: 1.0;"/><polygon fill="#A80036" points="279.208,251.749,288.2807,255.5812,284.2071,251.6562,288.1322,247.5826,279.208,251.749" style="stroke: #A80036; stroke-width: 1.0;"/><text fill="#000000" font-family="sans-serif" font-size="13" lengthAdjust="spacingAndGlyphs" textLength="144" x="320" y="246.0669">MainSecuritiesBalance</text><text fill="#000000" font-family="sans-serif" font-size="13" lengthAdjust="spacingAndGlyphs" textLength="24" x="286.9964" y="247.9615">0..1</text><!--link AssetHolding to Interest--><path d="M612.726,254.059 C618.733,267.317 630.022,289.775 644,306 C652.798,316.212 664.445,325.671 674.486,332.923 " fill="none" id="AssetHolding-Interest" style="stroke: #A80036; stroke-width: 1.0;"/><polygon fill="#A80036" points="678.678,335.892,673.6458,327.4257,674.5979,333.0019,669.0217,333.9539,678.678,335.892" style="stroke: #A80036; stroke-width: 1.0;"/><text fill="#000000" font-family="sans-serif" font-size="13" lengthAdjust="spacingAndGlyphs" textLength="49" x="645" y="301.0669">Interest</text><text fill="#000000" font-family="sans-serif" font-size="13" lengthAdjust="spacingAndGlyphs" textLength="7" x="663.0908" y="324.9031">*</text><!--link Account to Account--><path d="M658.508,428.332 C676.181,426.483 693,429.039 693,436 C693,442.254 679.424,444.952 663.85,444.095 " fill="none" id="Account-Account" style="stroke: #A80036; stroke-width: 1.0;"/><polygon fill="#A80036" points="658.508,443.668,667.1605,448.3727,663.4921,444.0666,667.7982,440.3981,658.508,443.668" style="stroke: #A80036; stroke-width: 1.0;"/><text fill="#000000" font-family="sans-serif" font-size="13" lengthAdjust="spacingAndGlyphs" textLength="94" x="699" y="440.0669">ParentAccount</text><text fill="#000000" font-family="sans-serif" font-size="13" lengthAdjust="spacingAndGlyphs" textLength="8" x="666.7741" y="439.5427">1</text><!--link Account to Entry--><path d="M648.734,448.11 C680.398,466.887 744.407,504.8457 778.836,525.2631 " fill="none" id="Account-Entry" style="stroke: #A80036; stroke-width: 1.0;"/><polygon fill="#A80036" points="783.289,527.9037,777.5897,519.8714,778.9888,525.3525,773.5077,526.7517,783.289,527.9037" style="stroke: #A80036; stroke-width: 1.0;"/><text fill="#000000" font-family="sans-serif" font-size="13" lengthAdjust="spacingAndGlyphs" textLength="33" x="733" y="493.0669">Entry</text><text fill="#000000" font-family="sans-serif" font-size="13" lengthAdjust="spacingAndGlyphs" textLength="7" x="767.8905" y="517.4317">*</text></g></svg>