<?xml version="1.0" encoding="UTF-8" standalone="no"?><svg xmlns="http://www.w3.org/2000/svg" xmlns:xlink="http://www.w3.org/1999/xlink" contentScriptType="application/ecmascript" contentStyleType="text/css" height="842px" preserveAspectRatio="none" style="width:1304px;height:842px;" version="1.1" viewBox="0 0 1304 842" width="1304px" zoomAndPan="magnify"><defs><filter height="300%" id="f10qlsen38isun" width="300%" x="-1" y="-1"><feGaussianBlur result="blurOut" stdDeviation="2.0"/><feColorMatrix in="blurOut" result="blurOut2" type="matrix" values="0 0 0 0 0 0 0 0 0 0 0 0 0 0 0 0 0 0 .4 0"/><feOffset dx="4.0" dy="4.0" in="blurOut2" result="blurOut3"/><feBlend in="SourceGraphic" in2="blurOut3" mode="normal"/></filter></defs><g><!--cluster ##6205--><!--cluster ##6214--><!--cluster ##6223--><!--cluster ##6232--><!--class AccountService--><a target="_top" xlink:actuate="onRequest" xlink:href="../AccountService.html" xlink:show="new" xlink:title="Services linked to an account which are available to the account owner or to the holder of a mandate." xlink:type="simple"><rect fill="#FEFEEE" filter="url(#f10qlsen38isun)" height="23.9688" id="AccountService" style="stroke: #A80036; stroke-width: 1.5;" width="102" x="645.067" y="40"/><rect fill="#FEFEEE" height="23.9688" style="stroke: #A80036; stroke-width: 1.5;" width="102" x="645.067" y="40"/><text fill="#000000" font-family="sans-serif" font-size="12" lengthAdjust="spacingAndGlyphs" textLength="96" x="648.067" y="56.1387">AccountService</text></a><!--class CashAccountService--><a target="_top" xlink:actuate="onRequest" xlink:href="../CashAccountService.html" xlink:show="new" xlink:title="Services linked to an account which are available to the account owner or to the holder of a mandate. The exercise of these services may be submitted to a limit." xlink:type="simple"><rect fill="#FEFEEE" filter="url(#f10qlsen38isun)" height="83.1875" id="CashAccountService" style="stroke: #A80036; stroke-width: 1.5;" width="312" x="434.567" y="142.5"/><rect fill="#FEFEEE" height="23.9688" style="stroke: #A80036; stroke-width: 1.5;" width="312" x="434.567" y="142.5"/><text fill="#000000" font-family="sans-serif" font-size="12" lengthAdjust="spacingAndGlyphs" textLength="127" x="527.067" y="158.6387">CashAccountService</text><line style="stroke: #A80036; stroke-width: 1.5;" x1="435.567" x2="745.567" y1="166.4688" y2="166.4688"/><ellipse cx="445.567" cy="178.3711" fill="#84BE84" rx="3" ry="3" style="stroke: #038048; stroke-width: 1.0;"/><text fill="#000000" font-family="sans-serif" font-size="11" lengthAdjust="spacingAndGlyphs" textLength="123" x="454.567" y="180.6792">CompensationMethod</text><text fill="#000000" font-family="sans-serif" font-size="11" font-style="italic" lengthAdjust="spacingAndGlyphs" textLength="159" x="581.567" y="180.6792">(CompensationMethodCode)</text><ellipse cx="445.567" cy="191.1758" fill="#84BE84" rx="3" ry="3" style="stroke: #038048; stroke-width: 1.0;"/><text fill="#000000" font-family="sans-serif" font-size="11" lengthAdjust="spacingAndGlyphs" textLength="85" x="454.567" y="193.4839">BillingCurrency</text><text fill="#000000" font-family="sans-serif" font-size="11" font-style="italic" lengthAdjust="spacingAndGlyphs" textLength="151" x="543.567" y="193.4839">(BillingCurrencyTypeCode)</text><ellipse cx="445.567" cy="203.9805" fill="#84BE84" rx="3" ry="3" style="stroke: #038048; stroke-width: 1.0;"/><text fill="#000000" font-family="sans-serif" font-size="11" lengthAdjust="spacingAndGlyphs" textLength="116" x="454.567" y="206.2886">BillingChargeMethod</text><text fill="#000000" font-family="sans-serif" font-size="11" font-style="italic" lengthAdjust="spacingAndGlyphs" textLength="153" x="574.567" y="206.2886">(BillingChargeMethodCode)</text><ellipse cx="445.567" cy="216.7852" fill="#84BE84" rx="3" ry="3" style="stroke: #038048; stroke-width: 1.0;"/><text fill="#000000" font-family="sans-serif" font-size="11" lengthAdjust="spacingAndGlyphs" textLength="90" x="454.567" y="219.0933">PaymentMethod</text><text fill="#000000" font-family="sans-serif" font-size="11" font-style="italic" lengthAdjust="spacingAndGlyphs" textLength="170" x="548.567" y="219.0933">(ServicePaymentMethodCode)</text></a><!--class BankOperation--><a target="_top" xlink:actuate="onRequest" xlink:href="../BankOperation.html" xlink:show="new" xlink:title="Operation on a bank account. It may be limited in time, amount or type of operation." xlink:type="simple"><rect fill="#FEFECE" filter="url(#f10qlsen38isun)" height="23.9688" id="BankOperation" style="stroke: #A80036; stroke-width: 1.5;" width="99" x="582.317" y="306"/><rect fill="#FEFECE" height="23.9688" style="stroke: #A80036; stroke-width: 1.5;" width="99" x="582.317" y="306"/><text fill="#000000" font-family="sans-serif" font-size="12" lengthAdjust="spacingAndGlyphs" textLength="93" x="585.317" y="322.1387">BankOperation</text></a><!--class AccountContract--><a target="_top" xlink:actuate="onRequest" xlink:href="../AccountContract.html" xlink:show="new" xlink:title="Agreement between an account servicer and an account owner about the services linked to an account." xlink:type="simple"><rect fill="#EEEEEE" filter="url(#f10qlsen38isun)" height="23.9688" id="AccountContract" style="stroke: #A80036; stroke-width: 1.5;" width="111" x="1008.32" y="172"/><rect fill="#EEEEEE" height="23.9688" style="stroke: #A80036; stroke-width: 1.5;" width="111" x="1008.32" y="172"/><text fill="#000000" font-family="sans-serif" font-size="12" lengthAdjust="spacingAndGlyphs" textLength="105" x="1011.32" y="188.1387">AccountContract</text></a><!--class Reservation--><a target="_top" xlink:actuate="onRequest" xlink:href="../Reservation.html" xlink:show="new" xlink:title="Liquidity set aside by the payer for specific purposes." xlink:type="simple"><rect fill="#EEEEEE" filter="url(#f10qlsen38isun)" height="23.9688" id="Reservation" style="stroke: #A80036; stroke-width: 1.5;" width="80" x="1055.57" y="410"/><rect fill="#EEEEEE" height="23.9688" style="stroke: #A80036; stroke-width: 1.5;" width="80" x="1055.57" y="410"/><text fill="#000000" font-family="sans-serif" font-size="12" lengthAdjust="spacingAndGlyphs" textLength="74" x="1058.57" y="426.1387">Reservation</text></a><!--class Account--><a target="_top" xlink:actuate="onRequest" xlink:href="../Account.html" xlink:show="new" xlink:title="Record of transactions in specific types of assets, maintained by a servicing party on behalf of one or more owning parties. Business relationship between an account servicer and one or more account owners." xlink:type="simple"><rect fill="#EEEEEE" filter="url(#f10qlsen38isun)" height="23.9688" id="Account" style="stroke: #A80036; stroke-width: 1.5;" width="57" x="916.317" y="306"/><rect fill="#EEEEEE" height="23.9688" style="stroke: #A80036; stroke-width: 1.5;" width="57" x="916.317" y="306"/><text fill="#000000" font-family="sans-serif" font-size="12" lengthAdjust="spacingAndGlyphs" textLength="51" x="919.317" y="322.1387">Account</text></a><!--class Charges--><a target="_top" xlink:actuate="onRequest" xlink:href="../Charges.html" xlink:show="new" xlink:title="Amount of money associated with a service." xlink:type="simple"><rect fill="#EEEEEE" filter="url(#f10qlsen38isun)" height="23.9688" id="Charges" style="stroke: #A80036; stroke-width: 1.5;" width="58" x="916.067" y="172"/><rect fill="#EEEEEE" height="23.9688" style="stroke: #A80036; stroke-width: 1.5;" width="58" x="916.067" y="172"/><text fill="#000000" font-family="sans-serif" font-size="12" lengthAdjust="spacingAndGlyphs" textLength="52" x="919.067" y="188.1387">Charges</text></a><!--class CashAccountMandate--><a target="_top" xlink:actuate="onRequest" xlink:href="../CashAccountMandate.html" xlink:show="new" xlink:title="Authorisation given to a mandate holder to perform some operation on an account." xlink:type="simple"><rect fill="#EEEEEE" filter="url(#f10qlsen38isun)" height="23.9688" id="CashAccountMandate" style="stroke: #A80036; stroke-width: 1.5;" width="143" x="179.317" y="306"/><rect fill="#EEEEEE" height="23.9688" style="stroke: #A80036; stroke-width: 1.5;" width="143" x="179.317" y="306"/><text fill="#000000" font-family="sans-serif" font-size="12" lengthAdjust="spacingAndGlyphs" textLength="137" x="182.317" y="322.1387">CashAccountMandate</text></a><!--class CashAccountContract--><a target="_top" xlink:actuate="onRequest" xlink:href="../CashAccountContract.html" xlink:show="new" xlink:title="Account contract established between the organisation or the group to which the organisation belongs, and the account servicer." xlink:type="simple"><rect fill="#EEEEEE" filter="url(#f10qlsen38isun)" height="23.9688" id="CashAccountContract" style="stroke: #A80036; stroke-width: 1.5;" width="142" x="40.5675" y="410"/><rect fill="#EEEEEE" height="23.9688" style="stroke: #A80036; stroke-width: 1.5;" width="142" x="40.5675" y="410"/><text fill="#000000" font-family="sans-serif" font-size="12" lengthAdjust="spacingAndGlyphs" textLength="136" x="43.5675" y="426.1387">CashAccountContract</text></a><!--class GenericIdentification--><a target="_top" xlink:actuate="onRequest" xlink:href="../GenericIdentification.html" xlink:show="new" xlink:title="Information related to a non-standardised identification, such as a proprietary party identification or account identification." xlink:type="simple"><rect fill="#EEEEEE" filter="url(#f10qlsen38isun)" height="23.9688" id="GenericIdentification" style="stroke: #A80036; stroke-width: 1.5;" width="135" x="213.317" y="618"/><rect fill="#EEEEEE" height="23.9688" style="stroke: #A80036; stroke-width: 1.5;" width="135" x="213.317" y="618"/><text fill="#000000" font-family="sans-serif" font-size="12" lengthAdjust="spacingAndGlyphs" textLength="129" x="216.317" y="634.1387">GenericIdentification</text></a><!--class CashAccount--><a target="_top" xlink:actuate="onRequest" xlink:href="../CashAccount.html" xlink:show="new" xlink:title="Account to or from which a cash entry is made." xlink:type="simple"><rect fill="#EEEEEE" filter="url(#f10qlsen38isun)" height="23.9688" id="CashAccount" style="stroke: #A80036; stroke-width: 1.5;" width="88" x="237.067" y="514"/><rect fill="#EEEEEE" height="23.9688" style="stroke: #A80036; stroke-width: 1.5;" width="88" x="237.067" y="514"/><text fill="#000000" font-family="sans-serif" font-size="12" lengthAdjust="spacingAndGlyphs" textLength="82" x="240.067" y="530.1387">CashAccount</text></a><!--class OperationThreshold--><a target="_top" xlink:actuate="onRequest" xlink:href="../OperationThreshold.html" xlink:show="new" xlink:title="Threshold related to a bank account operation." xlink:type="simple"><rect fill="#EEEEEE" filter="url(#f10qlsen38isun)" height="23.9688" id="OperationThreshold" style="stroke: #A80036; stroke-width: 1.5;" width="130" x="739.567" y="808"/><rect fill="#EEEEEE" height="23.9688" style="stroke: #A80036; stroke-width: 1.5;" width="130" x="739.567" y="808"/><text fill="#000000" font-family="sans-serif" font-size="12" lengthAdjust="spacingAndGlyphs" textLength="124" x="742.567" y="824.1387">OperationThreshold</text></a><!--class BankTransaction--><a target="_top" xlink:actuate="onRequest" xlink:href="../BankTransaction.html" xlink:show="new" xlink:title="Code of the underlying bank transaction." xlink:type="simple"><rect fill="#EEEEEE" filter="url(#f10qlsen38isun)" height="23.9688" id="BankTransaction" style="stroke: #A80036; stroke-width: 1.5;" width="111" x="744.317" y="722"/><rect fill="#EEEEEE" height="23.9688" style="stroke: #A80036; stroke-width: 1.5;" width="111" x="744.317" y="722"/><text fill="#000000" font-family="sans-serif" font-size="12" lengthAdjust="spacingAndGlyphs" textLength="105" x="747.317" y="738.1387">BankTransaction</text></a><!--class DateTimePeriod--><a target="_top" xlink:actuate="onRequest" xlink:href="../DateTimePeriod.html" xlink:show="new" xlink:title="Time span defined by a start date and time, and an end date and time." xlink:type="simple"><rect fill="#EEEEEE" filter="url(#f10qlsen38isun)" height="23.9688" id="DateTimePeriod" style="stroke: #A80036; stroke-width: 1.5;" width="105" x="764.317" y="618"/><rect fill="#EEEEEE" height="23.9688" style="stroke: #A80036; stroke-width: 1.5;" width="105" x="764.317" y="618"/><text fill="#000000" font-family="sans-serif" font-size="12" lengthAdjust="spacingAndGlyphs" textLength="99" x="767.317" y="634.1387">DateTimePeriod</text></a><!--link AccountService to CashAccountService--><path d="M673.959,79.754 C659.356,97.833 639.805,122.039 623.304,142.469 " fill="none" id="AccountService-CashAccountService" style="stroke: #A80036; stroke-width: 1.0;"/><polygon fill="none" points="668.603,75.244,686.615,64.084,679.494,84.041,668.603,75.244" style="stroke: #A80036; stroke-width: 1.0;"/><!--link CashAccountService to BankOperation--><path d="M609.197,244.979 C616.357,268.029 623.823,292.068 628.064,305.722 " fill="none" id="CashAccountService-BankOperation" style="stroke: #A80036; stroke-width: 1.0;"/><polygon fill="none" points="602.451,246.858,603.203,225.681,615.821,242.705,602.451,246.858" style="stroke: #A80036; stroke-width: 1.0;"/><!--link Reservation to AccountContract--><!--link Account to Reservation--><!--link Charges to Account--><!--link CashAccountContract to CashAccountMandate--><!--link CashAccountMandate to CashAccountContract--><path d="M223.68,330.071 C204.005,337.785 176.505,347.77 151.567,354 C140.011,356.887 106.336,352.971 98.5675,362 C88.3319,373.897 94.502,392.042 101.3971,405.067 " fill="none" id="CashAccountMandate-CashAccountContract" style="stroke: #A80036; stroke-width: 1.0;"/><polygon fill="#A80036" points="103.9411,409.613,103.0371,399.8057,101.4996,405.2496,96.0557,403.7121,103.9411,409.613" style="stroke: #A80036; stroke-width: 1.0;"/><text fill="#000000" font-family="sans-serif" font-size="13" lengthAdjust="spacingAndGlyphs" textLength="139" x="99.5675" y="375.0669">CashAccountContract</text><text fill="#000000" font-family="sans-serif" font-size="13" lengthAdjust="spacingAndGlyphs" textLength="7" x="92.0758" y="399.0483">*</text><!--link GenericIdentification to CashAccountContract--><!--link CashAccount to GenericIdentification--><!--link BankTransaction to OperationThreshold--><!--link DateTimePeriod to BankTransaction--><!--link AccountService to AccountContract--><path d="M746.46,53.298 C800.356,55.351 886.837,63.683 954.567,94 C994.078,111.685 1031.11,147.525 1050.17,167.916 " fill="none" id="AccountService-AccountContract" style="stroke: #A80036; stroke-width: 1.0;"/><polygon fill="#A80036" points="1053.74,171.779,1050.5694,162.4544,1050.3465,168.1069,1044.6941,167.884,1053.74,171.779" style="stroke: #A80036; stroke-width: 1.0;"/><text fill="#000000" font-family="sans-serif" font-size="13" lengthAdjust="spacingAndGlyphs" textLength="107" x="986.567" y="107.0669">AccountContract</text><text fill="#000000" font-family="sans-serif" font-size="13" lengthAdjust="spacingAndGlyphs" textLength="7" x="1040.9104" y="161.0092">*</text><!--link AccountService to Reservation--><path d="M746.113,52.38 C867.886,52.21 1170.77,60.148 1215.57,142 C1268.52,238.758 1154.81,363.678 1111.45,406.13 " fill="none" id="AccountService-Reservation" style="stroke: #A80036; stroke-width: 1.0;"/><polygon fill="#A80036" points="1107.72,409.745,1116.9628,406.3435,1111.3066,406.2612,1111.3888,400.605,1107.72,409.745" style="stroke: #A80036; stroke-width: 1.0;"/><text fill="#000000" font-family="sans-serif" font-size="13" lengthAdjust="spacingAndGlyphs" textLength="75" x="1217.57" y="269.0669">Reservation</text><text fill="#000000" font-family="sans-serif" font-size="13" lengthAdjust="spacingAndGlyphs" textLength="8" x="1101.0884" y="398.964">1</text><!--link AccountService to Account--><path d="M746.42,52.868 C842.048,53.463 1044.37,58.969 1103.57,94 C1155.61,124.796 1165.76,173.039 1136.57,226 C1104.85,283.548 1024.31,305.069 978.247,312.837 " fill="none" id="AccountService-Account" style="stroke: #A80036; stroke-width: 1.0;"/><polygon fill="#A80036" points="973.08,313.675,982.6047,316.1808,978.0154,312.8736,981.3226,308.2842,973.08,313.675" style="stroke: #A80036; stroke-width: 1.0;"/><text fill="#000000" font-family="sans-serif" font-size="13" lengthAdjust="spacingAndGlyphs" textLength="52" x="1153.57" y="188.0669">Account</text><text fill="#000000" font-family="sans-serif" font-size="13" lengthAdjust="spacingAndGlyphs" textLength="8" x="981.3474" y="306.4765">1</text><!--link AccountService to Charges--><path d="M704.825,64.425 C715.924,77.481 735.661,98.749 756.567,112 C806.062,143.371 871.536,164.14 910.717,174.715 " fill="none" id="AccountService-Charges" style="stroke: #A80036; stroke-width: 1.0;"/><polygon fill="#A80036" points="915.831,176.077,908.1641,169.8949,910.9995,174.7898,906.1046,177.6253,915.831,176.077" style="stroke: #A80036; stroke-width: 1.0;"/><text fill="#000000" font-family="sans-serif" font-size="13" lengthAdjust="spacingAndGlyphs" textLength="191" x="757.567" y="107.0669">AccountAdministrationCharge</text><text fill="#000000" font-family="sans-serif" font-size="13" lengthAdjust="spacingAndGlyphs" textLength="24" x="884.0996" y="169.5396">0..1</text><!--link CashAccountService to CashAccountMandate--><path d="M434.435,193.964 C341.414,202.935 235.892,220.757 206.567,256 C193.787,271.361 212.009,290.154 228.735,302.788 " fill="none" id="CashAccountService-CashAccountMandate" style="stroke: #A80036; stroke-width: 1.0;"/><polygon fill="#A80036" points="232.936,305.861,228.0346,297.3184,228.9008,302.9085,223.3107,303.7747,232.936,305.861" style="stroke: #A80036; stroke-width: 1.0;"/><text fill="#000000" font-family="sans-serif" font-size="13" lengthAdjust="spacingAndGlyphs" textLength="140" x="207.567" y="269.0669">CashAccountMandate</text><text fill="#000000" font-family="sans-serif" font-size="13" lengthAdjust="spacingAndGlyphs" textLength="7" x="217.2425" y="294.8614">*</text><!--link CashAccountService to CashAccountContract--><path d="M434.254,189.629 C283.841,197.769 71.7509,220.204 19.5675,282 C-1.0784,306.449 5.0558,325.48 19.5675,354 C32.1993,378.826 58.8173,396.627 80.1874,407.612 " fill="none" id="CashAccountService-CashAccountContract" style="stroke: #A80036; stroke-width: 1.0;"/><polygon fill="#A80036" points="84.661,409.852,78.4056,402.2447,80.1905,407.6126,74.8226,409.3975,84.661,409.852" style="stroke: #A80036; stroke-width: 1.0;"/><text fill="#000000" font-family="sans-serif" font-size="13" lengthAdjust="spacingAndGlyphs" textLength="139" x="20.5675" y="322.0669">CashAccountContract</text><text fill="#000000" font-family="sans-serif" font-size="13" lengthAdjust="spacingAndGlyphs" textLength="8" x="64.6931" y="398.8493">1</text><!--link CashAccountService to GenericIdentification--><path d="M563.842,225.588 C537.626,265.209 496.346,327.087 459.567,380 C397.664,469.059 320.93,574.058 292.17,613.23 " fill="none" id="CashAccountService-GenericIdentification" style="stroke: #A80036; stroke-width: 1.0;"/><polygon fill="#A80036" points="288.904,617.675,297.4556,612.7892,291.8639,613.6452,291.0079,608.0535,288.904,617.675" style="stroke: #A80036; stroke-width: 1.0;"/><text fill="#000000" font-family="sans-serif" font-size="13" lengthAdjust="spacingAndGlyphs" textLength="81" x="439.567" y="426.0669">Identification</text><text fill="#000000" font-family="sans-serif" font-size="13" lengthAdjust="spacingAndGlyphs" textLength="8" x="280.9266" y="606.8708">1</text><!--link CashAccountService to CashAccount--><path d="M500.957,225.627 C485.122,234.585 469.32,244.791 455.567,256 C408.324,294.505 395.642,307.397 368.567,362 C343.809,411.932 370.965,437.952 339.567,484 C331.813,495.373 319.781,504.559 308.6,511.331 " fill="none" id="CashAccountService-CashAccount" style="stroke: #A80036; stroke-width: 1.0;"/><polygon fill="#A80036" points="304.204,513.899,313.9926,512.8116,308.5209,511.3763,309.9563,505.9045,304.204,513.899" style="stroke: #A80036; stroke-width: 1.0;"/><text fill="#000000" font-family="sans-serif" font-size="13" lengthAdjust="spacingAndGlyphs" textLength="84" x="369.567" y="375.0669">CashAccount</text><text fill="#000000" font-family="sans-serif" font-size="13" lengthAdjust="spacingAndGlyphs" textLength="8" x="301.4386" y="502.9125">1</text><!--link BankOperation to OperationThreshold--><path d="M622.379,330.018 C584.144,377.258 443.365,566.005 524.567,692 C570.574,763.386 667.549,795.0942 734.367,808.8708 " fill="none" id="BankOperation-OperationThreshold" style="stroke: #A80036; stroke-width: 1.0;"/><polygon fill="#A80036" points="739.527,809.9114,731.4955,804.2109,734.6257,808.9228,729.9138,812.053,739.527,809.9114" style="stroke: #A80036; stroke-width: 1.0;"/><text fill="#000000" font-family="sans-serif" font-size="13" lengthAdjust="spacingAndGlyphs" textLength="125" x="503.567" y="581.0669">OperationThreshold</text><text fill="#000000" font-family="sans-serif" font-size="13" lengthAdjust="spacingAndGlyphs" textLength="8" x="723.6324" y="804.1566">1</text><!--link BankOperation to BankTransaction--><path d="M631.366,330.32 C631.165,379.468 637.418,575.909 746.567,666 C755.565,673.426 762.787,666.319 771.567,674 C784.375,685.203 791.789,703.548 795.731,716.811 " fill="none" id="BankOperation-BankTransaction" style="stroke: #A80036; stroke-width: 1.0;"/><polygon fill="#A80036" points="797.122,721.795,798.5576,712.0513,795.779,716.9787,790.8516,714.2001,797.122,721.795" style="stroke: #A80036; stroke-width: 1.0;"/><text fill="#000000" font-family="sans-serif" font-size="13" lengthAdjust="spacingAndGlyphs" textLength="93" x="664.567" y="530.0669">OperationType</text><text fill="#000000" font-family="sans-serif" font-size="13" lengthAdjust="spacingAndGlyphs" textLength="8" x="785.573" y="711.0305">1</text><!--link BankOperation to DateTimePeriod--><path d="M652.803,330.164 C665.803,337.799 682.089,348.894 693.567,362 C763.521,441.876 801.009,568.261 812.6,612.81 " fill="none" id="BankOperation-DateTimePeriod" style="stroke: #A80036; stroke-width: 1.0;"/><polygon fill="#A80036" points="813.885,617.829,815.5283,608.1182,812.6451,612.9852,807.7781,610.102,813.885,617.829" style="stroke: #A80036; stroke-width: 1.0;"/><text fill="#000000" font-family="sans-serif" font-size="13" lengthAdjust="spacingAndGlyphs" textLength="105" x="768.567" y="479.0669">ApplicablePeriod</text><text fill="#000000" font-family="sans-serif" font-size="13" lengthAdjust="spacingAndGlyphs" textLength="7" x="803.3303" y="606.8184">*</text><!--link AccountContract to Account--><path d="M1053.42,196.254 C1031.99,220.024 982.121,275.345 958.046,302.049 " fill="none" id="AccountContract-Account" style="stroke: #A80036; stroke-width: 1.0;"/><polygon fill="#A80036" points="954.688,305.774,963.6852,301.7677,958.0359,302.0603,957.7433,296.411,954.688,305.774" style="stroke: #A80036; stroke-width: 1.0;"/><text fill="#000000" font-family="sans-serif" font-size="13" lengthAdjust="spacingAndGlyphs" textLength="52" x="998.567" y="269.0669">Account</text><text fill="#000000" font-family="sans-serif" font-size="13" lengthAdjust="spacingAndGlyphs" textLength="7" x="948.4671" y="295.0026">*</text><!--link Account to Account--><path d="M973.075,308.938 C990.748,306.753 1007.57,309.773 1007.57,318 C1007.57,325.391 993.991,328.58 978.417,327.567 " fill="none" id="Account-Account" style="stroke: #A80036; stroke-width: 1.0;"/><polygon fill="#A80036" points="973.075,327.062,981.6592,331.8902,978.0529,327.5319,982.4111,323.9256,973.075,327.062" style="stroke: #A80036; stroke-width: 1.0;"/><text fill="#000000" font-family="sans-serif" font-size="13" lengthAdjust="spacingAndGlyphs" textLength="94" x="1013.57" y="322.0669">ParentAccount</text><text fill="#000000" font-family="sans-serif" font-size="13" lengthAdjust="spacingAndGlyphs" textLength="8" x="981.3411" y="343.3939">1</text><!--link Account to DateTimePeriod--><path d="M957.901,330.283 C966.168,338.197 976.046,349.555 980.567,362 C990.723,389.95 999.065,379.491 963.567,484 C954.806,509.795 952.187,517.223 934.567,538 C906.887,570.641 865.706,599.096 840.032,615.145 " fill="none" id="Account-DateTimePeriod" style="stroke: #A80036; stroke-width: 1.0;"/><polygon fill="#A80036" points="835.737,617.805,845.4946,616.4672,839.9879,615.1725,841.2826,609.6658,835.737,617.805" style="stroke: #A80036; stroke-width: 1.0;"/><text fill="#000000" font-family="sans-serif" font-size="13" lengthAdjust="spacingAndGlyphs" textLength="98" x="970.567" y="479.0669">ReportedPeriod</text><text fill="#000000" font-family="sans-serif" font-size="13" lengthAdjust="spacingAndGlyphs" textLength="8" x="831.348" y="607.0438">1</text><!--link Account to GenericIdentification--><path d="M945.005,330.046 C945.191,342.459 944.575,363.087 939.567,380 C924.663,430.337 921.509,447.717 883.567,484 C843.629,522.193 821.671,514.689 771.567,538 C724.311,559.987 714.848,572.268 664.567,586 C558.66,614.924 431.227,624.44 353.074,627.542 " fill="none" id="Account-GenericIdentification" style="stroke: #A80036; stroke-width: 1.0;"/><polygon fill="#A80036" points="347.998,627.737,357.1456,631.3868,352.9943,627.5441,356.837,623.3928,347.998,627.737" style="stroke: #A80036; stroke-width: 1.0;"/><text fill="#000000" font-family="sans-serif" font-size="13" lengthAdjust="spacingAndGlyphs" textLength="30" x="902.567" y="479.0669">Type</text><text fill="#000000" font-family="sans-serif" font-size="13" lengthAdjust="spacingAndGlyphs" textLength="8" x="356.2283" y="622.5689">1</text><!--link Charges to CashAccount--><path d="M934.823,196.056 C908.991,224.887 835.719,303.614 762.567,354 C676.465,413.306 649.773,422.134 551.567,458 C475.933,485.622 384.329,505.611 329.34,516.24 " fill="none" id="Charges-CashAccount" style="stroke: #A80036; stroke-width: 1.0;"/><polygon fill="#A80036" points="324.135,517.239,333.7278,519.47,329.0453,516.2961,332.2192,511.6135,324.135,517.239" style="stroke: #A80036; stroke-width: 1.0;"/><text fill="#000000" font-family="sans-serif" font-size="13" lengthAdjust="spacingAndGlyphs" textLength="139" x="750.567" y="375.0669">ChargesDebitAccount</text><text fill="#000000" font-family="sans-serif" font-size="13" lengthAdjust="spacingAndGlyphs" textLength="7" x="333.012" y="510.0312">*</text><!--link CashAccountContract to CashAccount--><path d="M151.8,434.019 C173.798,441.136 200.898,451.748 222.567,466 C240.681,477.913 257.598,496.288 268.432,509.364 " fill="none" id="CashAccountContract-CashAccount" style="stroke: #A80036; stroke-width: 1.0;"/><polygon fill="#A80036" points="271.866,513.579,269.281,504.0754,268.7073,509.7031,263.0796,509.1294,271.866,513.579" style="stroke: #A80036; stroke-width: 1.0;"/><text fill="#000000" font-family="sans-serif" font-size="13" lengthAdjust="spacingAndGlyphs" textLength="84" x="245.567" y="479.0669">CashAccount</text><text fill="#000000" font-family="sans-serif" font-size="13" lengthAdjust="spacingAndGlyphs" textLength="7" x="259.4988" y="503.0035">*</text><!--link CashAccountContract to CashAccount--><path d="M97.0873,434.005 C82.0668,446.746 62.4699,468.024 75.5675,484 C94.9054,507.589 177.219,517.876 231.478,522.161 " fill="none" id="CashAccountContract-CashAccount" style="stroke: #A80036; stroke-width: 1.0;"/><polygon fill="#A80036" points="236.638,522.557,227.9707,517.8797,231.6527,522.1742,227.3582,525.8562,236.638,522.557" style="stroke: #A80036; stroke-width: 1.0;"/><text fill="#000000" font-family="sans-serif" font-size="13" lengthAdjust="spacingAndGlyphs" textLength="136" x="76.5675" y="479.0669">TransferCashAccount</text><text fill="#000000" font-family="sans-serif" font-size="13" lengthAdjust="spacingAndGlyphs" textLength="7" x="222.0632" y="517.0301">*</text><!--link GenericIdentification to BankTransaction--><path d="M327.473,642.064 C382.447,654.86 476.365,676.19 557.567,692 C619.236,704.007 690.14,715.783 739.188,723.611 " fill="none" id="GenericIdentification-BankTransaction" style="stroke: #A80036; stroke-width: 1.0;"/><polygon fill="#A80036" points="744.162,724.404,735.904,719.0369,739.2244,723.6168,734.6445,726.9371,744.162,724.404" style="stroke: #A80036; stroke-width: 1.0;"/><text fill="#000000" font-family="sans-serif" font-size="13" lengthAdjust="spacingAndGlyphs" textLength="207" x="558.567" y="687.0669">IdentificationForBankTransaction</text><text fill="#000000" font-family="sans-serif" font-size="13" lengthAdjust="spacingAndGlyphs" textLength="7" x="729.2066" y="718.388">*</text></g></svg>