<?xml version="1.0" encoding="UTF-8" standalone="no"?><svg xmlns="http://www.w3.org/2000/svg" xmlns:xlink="http://www.w3.org/1999/xlink" contentScriptType="application/ecmascript" contentStyleType="text/css" height="688px" preserveAspectRatio="none" style="width:1014px;height:688px;" version="1.1" viewBox="0 0 1014 688" width="1014px" zoomAndPan="magnify"><defs><filter height="300%" id="f1qicy4xn5h2cz" width="300%" x="-1" y="-1"><feGaussianBlur result="blurOut" stdDeviation="2.0"/><feColorMatrix in="blurOut" result="blurOut2" type="matrix" values="0 0 0 0 0 0 0 0 0 0 0 0 0 0 0 0 0 0 .4 0"/><feOffset dx="4.0" dy="4.0" in="blurOut2" result="blurOut3"/><feBlend in="SourceGraphic" in2="blurOut3" mode="normal"/></filter></defs><g><!--cluster ##8361--><!--cluster ##8373--><!--cluster ##8382--><!--cluster ##8385--><!--cluster ##8392--><!--class Role--><a target="_top" xlink:actuate="onRequest" xlink:href="../Role.html" xlink:show="new" xlink:title="Role of a party in an activity." xlink:type="simple"><rect fill="#FEFEEE" filter="url(#f1qicy4xn5h2cz)" height="44.7734" id="Role" style="stroke: #A80036; stroke-width: 1.5;" width="175" x="184.75" y="40.5"/><rect fill="#FEFEEE" height="23.9688" style="stroke: #A80036; stroke-width: 1.5;" width="175" x="184.75" y="40.5"/><text fill="#000000" font-family="sans-serif" font-size="12" lengthAdjust="spacingAndGlyphs" textLength="27" x="258.75" y="56.6387">Role</text><line style="stroke: #A80036; stroke-width: 1.5;" x1="185.75" x2="358.75" y1="64.4688" y2="64.4688"/><ellipse cx="195.75" cy="76.3711" fill="#84BE84" rx="3" ry="3" style="stroke: #038048; stroke-width: 1.0;"/><text fill="#000000" font-family="sans-serif" font-size="11" lengthAdjust="spacingAndGlyphs" textLength="53" x="204.75" y="78.6792">PartyRole</text><text fill="#000000" font-family="sans-serif" font-size="11" font-style="italic" lengthAdjust="spacingAndGlyphs" textLength="92" x="261.75" y="78.6792">(PartyRoleCode)</text></a><!--class AssetPartyRole--><a target="_top" xlink:actuate="onRequest" xlink:href="../AssetPartyRole.html" xlink:show="new" xlink:title="Specifies roles played by a party that are linked to the handling of assets but not related to a specific process." xlink:type="simple"><rect fill="#FEFEEE" filter="url(#f1qicy4xn5h2cz)" height="23.9688" id="AssetPartyRole" style="stroke: #A80036; stroke-width: 1.5;" width="100" x="246" y="166"/><rect fill="#FEFEEE" height="23.9688" style="stroke: #A80036; stroke-width: 1.5;" width="100" x="246" y="166"/><text fill="#000000" font-family="sans-serif" font-size="12" lengthAdjust="spacingAndGlyphs" textLength="94" x="249" y="182.1387">AssetPartyRole</text></a><!--class SecuritiesPartyRole--><a target="_top" xlink:actuate="onRequest" xlink:href="../SecuritiesPartyRole.html" xlink:show="new" xlink:title="Specifies roles played by a party that are linked to the handling of securities but not related to a specific process." xlink:type="simple"><rect fill="#FEFEEE" filter="url(#f1qicy4xn5h2cz)" height="23.9688" id="SecuritiesPartyRole" style="stroke: #A80036; stroke-width: 1.5;" width="127" x="232.75" y="270"/><rect fill="#FEFEEE" height="23.9688" style="stroke: #A80036; stroke-width: 1.5;" width="127" x="232.75" y="270"/><text fill="#000000" font-family="sans-serif" font-size="12" lengthAdjust="spacingAndGlyphs" textLength="121" x="235.75" y="286.1387">SecuritiesPartyRole</text></a><!--class BeneficialOwner--><a target="_top" xlink:actuate="onRequest" xlink:href="../BeneficialOwner.html" xlink:show="new" xlink:title="Characteristics of an individual or entity that is ultimately entitled to the benefit of income and rights in a security, as opposed to a nominal or legal owner." xlink:type="simple"><rect fill="#FEFECE" filter="url(#f1qicy4xn5h2cz)" height="108.7969" id="BeneficialOwner" style="stroke: #A80036; stroke-width: 1.5;" width="322" x="38" y="374.5"/><rect fill="#FEFECE" height="23.9688" style="stroke: #A80036; stroke-width: 1.5;" width="322" x="38" y="374.5"/><text fill="#000000" font-family="sans-serif" font-size="12" lengthAdjust="spacingAndGlyphs" textLength="99" x="149.5" y="390.6387">BeneficialOwner</text><line style="stroke: #A80036; stroke-width: 1.5;" x1="39" x2="359" y1="398.4688" y2="398.4688"/><ellipse cx="49" cy="410.3711" fill="#84BE84" rx="3" ry="3" style="stroke: #038048; stroke-width: 1.0;"/><text fill="#000000" font-family="sans-serif" font-size="11" lengthAdjust="spacingAndGlyphs" textLength="95" x="58" y="412.6792">CertificationType</text><text fill="#000000" font-family="sans-serif" font-size="11" font-style="italic" lengthAdjust="spacingAndGlyphs" textLength="197" x="157" y="412.6792">(BeneficiaryCertificationTypeCode)</text><ellipse cx="49" cy="423.1758" fill="#84BE84" rx="3" ry="3" style="stroke: #038048; stroke-width: 1.0;"/><text fill="#000000" font-family="sans-serif" font-size="11" lengthAdjust="spacingAndGlyphs" textLength="117" x="58" y="425.4839">CertificationIndicator</text><text fill="#000000" font-family="sans-serif" font-size="11" font-style="italic" lengthAdjust="spacingAndGlyphs" textLength="92" x="179" y="425.4839">(YesNoIndicator)</text><ellipse cx="49" cy="435.9805" fill="#84BE84" rx="3" ry="3" style="stroke: #038048; stroke-width: 1.0;"/><text fill="#000000" font-family="sans-serif" font-size="11" lengthAdjust="spacingAndGlyphs" textLength="108" x="58" y="438.2886">CertificationFormat</text><text fill="#000000" font-family="sans-serif" font-size="11" font-style="italic" lengthAdjust="spacingAndGlyphs" textLength="173" x="170" y="438.2886">(CertificationFormatTypeCode)</text><ellipse cx="49" cy="448.7852" fill="#84BE84" rx="3" ry="3" style="stroke: #038048; stroke-width: 1.0;"/><text fill="#000000" font-family="sans-serif" font-size="11" lengthAdjust="spacingAndGlyphs" textLength="81" x="58" y="451.0933">ERISAEligibility</text><text fill="#000000" font-family="sans-serif" font-size="11" font-style="italic" lengthAdjust="spacingAndGlyphs" textLength="120" x="143" y="451.0933">(ERISAEligibilityCode)</text><ellipse cx="49" cy="461.5898" fill="#84BE84" rx="3" ry="3" style="stroke: #038048; stroke-width: 1.0;"/><text fill="#000000" font-family="sans-serif" font-size="11" lengthAdjust="spacingAndGlyphs" textLength="57" x="58" y="463.8979">ERISARate</text><text fill="#000000" font-family="sans-serif" font-size="11" font-style="italic" lengthAdjust="spacingAndGlyphs" textLength="98" x="119" y="463.8979">(PercentageRate)</text><ellipse cx="49" cy="474.3945" fill="#84BE84" rx="3" ry="3" style="stroke: #038048; stroke-width: 1.0;"/><text fill="#000000" font-family="sans-serif" font-size="11" lengthAdjust="spacingAndGlyphs" textLength="177" x="58" y="476.7026">BenefitPlanDeclarationIndicator</text><text fill="#000000" font-family="sans-serif" font-size="11" font-style="italic" lengthAdjust="spacingAndGlyphs" textLength="92" x="239" y="476.7026">(YesNoIndicator)</text></a><!--class RolePlayer--><a target="_top" xlink:actuate="onRequest" xlink:href="../RolePlayer.html" xlink:show="new" xlink:title="Type of entity that plays a specific role in a specific context." xlink:type="simple"><rect fill="#EEEEEE" filter="url(#f1qicy4xn5h2cz)" height="23.9688" id="RolePlayer" style="stroke: #A80036; stroke-width: 1.5;" width="71" x="824.75" y="566"/><rect fill="#EEEEEE" height="23.9688" style="stroke: #A80036; stroke-width: 1.5;" width="71" x="824.75" y="566"/><text fill="#000000" font-family="sans-serif" font-size="12" lengthAdjust="spacingAndGlyphs" textLength="65" x="827.75" y="582.1387">RolePlayer</text></a><!--class ContactPersonRole--><a target="_top" xlink:actuate="onRequest" xlink:href="../ContactPersonRole.html" xlink:show="new" xlink:title="Person to be contacted in a given organisation. In the corporate action domain (including meeting notifications) , it is the contact person at the party organising the meeting, at the issuer or at an intermediary." xlink:type="simple"><rect fill="#EEEEEE" filter="url(#f1qicy4xn5h2cz)" height="23.9688" id="ContactPersonRole" style="stroke: #A80036; stroke-width: 1.5;" width="126" x="817" y="417"/><rect fill="#EEEEEE" height="23.9688" style="stroke: #A80036; stroke-width: 1.5;" width="126" x="817" y="417"/><text fill="#000000" font-family="sans-serif" font-size="12" lengthAdjust="spacingAndGlyphs" textLength="120" x="820" y="433.1387">ContactPersonRole</text></a><!--class CounterpartyRisk--><a target="_top" xlink:actuate="onRequest" xlink:href="../CounterpartyRisk.html" xlink:show="new" xlink:title="Calculation of the exposure amount that one party has vis-a-vis one counterparty or a central system, based on its credit risk." xlink:type="simple"><rect fill="#EEEEEE" filter="url(#f1qicy4xn5h2cz)" height="23.9688" id="CounterpartyRisk" style="stroke: #A80036; stroke-width: 1.5;" width="113" x="829.75" y="270"/><rect fill="#EEEEEE" height="23.9688" style="stroke: #A80036; stroke-width: 1.5;" width="113" x="829.75" y="270"/><text fill="#000000" font-family="sans-serif" font-size="12" lengthAdjust="spacingAndGlyphs" textLength="107" x="832.75" y="286.1387">CounterpartyRisk</text></a><!--class Entry--><a target="_top" xlink:actuate="onRequest" xlink:href="../Entry.html" xlink:show="new" xlink:title="Posting to an account that results in an increase or decrease to a balance." xlink:type="simple"><rect fill="#EEEEEE" filter="url(#f1qicy4xn5h2cz)" height="23.9688" id="Entry" style="stroke: #A80036; stroke-width: 1.5;" width="38" x="817" y="166"/><rect fill="#EEEEEE" height="23.9688" style="stroke: #A80036; stroke-width: 1.5;" width="38" x="817" y="166"/><text fill="#000000" font-family="sans-serif" font-size="12" lengthAdjust="spacingAndGlyphs" textLength="32" x="820" y="182.1387">Entry</text></a><!--class Asset--><a target="_top" xlink:actuate="onRequest" xlink:href="../Asset.html" xlink:show="new" xlink:title="Tangible items of value to a business." xlink:type="simple"><rect fill="#EEEEEE" filter="url(#f1qicy4xn5h2cz)" height="23.9688" id="Asset" style="stroke: #A80036; stroke-width: 1.5;" width="41" x="416.75" y="270"/><rect fill="#EEEEEE" height="23.9688" style="stroke: #A80036; stroke-width: 1.5;" width="41" x="416.75" y="270"/><text fill="#000000" font-family="sans-serif" font-size="12" lengthAdjust="spacingAndGlyphs" textLength="35" x="419.75" y="286.1387">Asset</text></a><!--class SecuritiesAccount--><a target="_top" xlink:actuate="onRequest" xlink:href="../SecuritiesAccount.html" xlink:show="new" xlink:title="Account to or from which a securities entry is made." xlink:type="simple"><rect fill="#EEEEEE" filter="url(#f1qicy4xn5h2cz)" height="23.9688" id="SecuritiesAccount" style="stroke: #A80036; stroke-width: 1.5;" width="119" x="520.75" y="417"/><rect fill="#EEEEEE" height="23.9688" style="stroke: #A80036; stroke-width: 1.5;" width="119" x="520.75" y="417"/><text fill="#000000" font-family="sans-serif" font-size="12" lengthAdjust="spacingAndGlyphs" textLength="113" x="523.75" y="433.1387">SecuritiesAccount</text></a><!--class CashAccount--><a target="_top" xlink:actuate="onRequest" xlink:href="../CashAccount.html" xlink:show="new" xlink:title="Account to or from which a cash entry is made." xlink:type="simple"><rect fill="#EEEEEE" filter="url(#f1qicy4xn5h2cz)" height="23.9688" id="CashAccount" style="stroke: #A80036; stroke-width: 1.5;" width="88" x="552.5" y="654"/><rect fill="#EEEEEE" height="23.9688" style="stroke: #A80036; stroke-width: 1.5;" width="88" x="552.5" y="654"/><text fill="#000000" font-family="sans-serif" font-size="12" lengthAdjust="spacingAndGlyphs" textLength="82" x="555.5" y="670.1387">CashAccount</text></a><!--class Security--><a target="_top" xlink:actuate="onRequest" xlink:href="../Security.html" xlink:show="new" xlink:title="Financial instruments representing a sum of rights of the investor vis-a-vis the issuer." xlink:type="simple"><rect fill="#EEEEEE" filter="url(#f1qicy4xn5h2cz)" height="23.9688" id="Security" style="stroke: #A80036; stroke-width: 1.5;" width="56" x="524.5" y="566"/><rect fill="#EEEEEE" height="23.9688" style="stroke: #A80036; stroke-width: 1.5;" width="56" x="524.5" y="566"/><text fill="#000000" font-family="sans-serif" font-size="12" lengthAdjust="spacingAndGlyphs" textLength="50" x="527.5" y="582.1387">Security</text></a><!--class Country--><a target="_top" xlink:actuate="onRequest" xlink:href="../Country.html" xlink:show="new" xlink:title="Nation with its own government." xlink:type="simple"><rect fill="#EEEEEE" filter="url(#f1qicy4xn5h2cz)" height="23.9688" id="Country" style="stroke: #A80036; stroke-width: 1.5;" width="54" x="172" y="566"/><rect fill="#EEEEEE" height="23.9688" style="stroke: #A80036; stroke-width: 1.5;" width="54" x="172" y="566"/><text fill="#000000" font-family="sans-serif" font-size="12" lengthAdjust="spacingAndGlyphs" textLength="48" x="175" y="582.1387">Country</text></a><!--link Role to AssetPartyRole--><path d="M280.755,105.222 C285.36,126.901 290.653,151.825 293.635,165.865 " fill="none" id="Role-AssetPartyRole" style="stroke: #A80036; stroke-width: 1.0;"/><polygon fill="none" points="273.879,106.538,276.571,85.52,287.573,103.63,273.879,106.538" style="stroke: #A80036; stroke-width: 1.0;"/><!--link AssetPartyRole to SecuritiesPartyRole--><path d="M296,210.595 C296,230.825 296,255.843 296,269.954 " fill="none" id="AssetPartyRole-SecuritiesPartyRole" style="stroke: #A80036; stroke-width: 1.0;"/><polygon fill="none" points="289,210.306,296,190.306,303,210.305,289,210.306" style="stroke: #A80036; stroke-width: 1.0;"/><!--link SecuritiesPartyRole to BeneficialOwner--><path d="M277.175,311.141 C265.177,329.076 249.242,352.895 234.891,374.349 " fill="none" id="SecuritiesPartyRole-BeneficialOwner" style="stroke: #A80036; stroke-width: 1.0;"/><polygon fill="none" points="271.45,307.109,288.389,294.378,283.086,314.893,271.45,307.109" style="stroke: #A80036; stroke-width: 1.0;"/><!--link ContactPersonRole to RolePlayer--><!--link CounterpartyRisk to ContactPersonRole--><!--link Entry to CounterpartyRisk--><!--link CashAccount to SecuritiesAccount--><!--link Security to CashAccount--><!--link Role to RolePlayer--><path d="M310.888,85.626 C382.958,126.765 540.193,221.563 653,326 C729.3,396.639 733.208,428.311 800,508 C815.71,526.744 834.242,547.917 846.509,561.807 " fill="none" id="Role-RolePlayer" style="stroke: #A80036; stroke-width: 1.0;"/><polygon fill="#A80036" points="850.105,565.873,847.139,556.4814,846.7926,562.1276,841.1464,561.7812,850.105,565.873" style="stroke: #A80036; stroke-width: 1.0;"/><text fill="#000000" font-family="sans-serif" font-size="13" lengthAdjust="spacingAndGlyphs" textLength="39" x="644" y="286.0669">Player</text><text fill="#000000" font-family="sans-serif" font-size="13" lengthAdjust="spacingAndGlyphs" textLength="7" x="837.0708" y="554.8776">*</text><!--link Role to ContactPersonRole--><path d="M359.415,64.31 C470.19,66.398 653.097,76.029 706,116 C752.89,151.428 729.589,186.015 757,238 C792.811,305.915 845.61,380.842 868.603,412.513 " fill="none" id="Role-ContactPersonRole" style="stroke: #A80036; stroke-width: 1.0;"/><polygon fill="#A80036" points="871.774,416.866,869.7075,407.2364,868.8298,412.8247,863.2415,411.9471,871.774,416.866" style="stroke: #A80036; stroke-width: 1.0;"/><text fill="#000000" font-family="sans-serif" font-size="13" lengthAdjust="spacingAndGlyphs" textLength="121" x="758" y="233.0669">ContactPersonRole</text><text fill="#000000" font-family="sans-serif" font-size="13" lengthAdjust="spacingAndGlyphs" textLength="8" x="858.2276" y="405.8682">1</text><!--link Role to CounterpartyRisk--><path d="M359.47,63.125 C500.76,63.138 771.701,69.487 854,116 C884.948,133.491 899.593,217.581 900,220 C902.586,235.376 897.874,252.681 893.233,264.921 " fill="none" id="Role-CounterpartyRisk" style="stroke: #A80036; stroke-width: 1.0;"/><polygon fill="#A80036" points="891.27,269.837,898.322,262.9618,893.124,265.1934,890.8923,259.9954,891.27,269.837" style="stroke: #A80036; stroke-width: 1.0;"/><text fill="#000000" font-family="sans-serif" font-size="13" lengthAdjust="spacingAndGlyphs" textLength="109" x="893" y="182.0669">CounterpartyRisk</text><text fill="#000000" font-family="sans-serif" font-size="13" lengthAdjust="spacingAndGlyphs" textLength="24" x="863.5269" y="258.8292">0..1</text><!--link Role to Entry--><path d="M359.383,64.424 C487.378,66.432 718.412,75.734 790,116 C808.073,126.165 821.226,146.663 828.729,161.083 " fill="none" id="Role-Entry" style="stroke: #A80036; stroke-width: 1.0;"/><polygon fill="#A80036" points="831.056,165.716,830.5924,155.8781,828.8125,161.2476,823.443,159.4677,831.056,165.716" style="stroke: #A80036; stroke-width: 1.0;"/><text fill="#000000" font-family="sans-serif" font-size="13" lengthAdjust="spacingAndGlyphs" textLength="33" x="811" y="129.0669">Entry</text><text fill="#000000" font-family="sans-serif" font-size="13" lengthAdjust="spacingAndGlyphs" textLength="8" x="818.7621" y="154.9254">1</text><!--link AssetPartyRole to Asset--><path d="M311.358,190.11 C337.103,208.734 388.932,246.227 417.315,266.76 " fill="none" id="AssetPartyRole-Asset" style="stroke: #A80036; stroke-width: 1.0;"/><polygon fill="#A80036" points="421.661,269.904,416.7143,261.3875,417.6102,266.973,412.0247,267.8689,421.661,269.904" style="stroke: #A80036; stroke-width: 1.0;"/><text fill="#000000" font-family="sans-serif" font-size="13" lengthAdjust="spacingAndGlyphs" textLength="36" x="376" y="233.0669">Asset</text><text fill="#000000" font-family="sans-serif" font-size="13" lengthAdjust="spacingAndGlyphs" textLength="7" x="406.7554" y="258.9192">*</text><!--link SecuritiesPartyRole to SecuritiesAccount--><path d="M324.284,294.084 C344.971,301.804 373.866,311.791 400,318 C424.461,323.812 432.994,315.86 456,326 C502.779,346.617 546.171,390.04 567.022,413.014 " fill="none" id="SecuritiesPartyRole-SecuritiesAccount" style="stroke: #A80036; stroke-width: 1.0;"/><polygon fill="#A80036" points="570.411,416.787,567.3726,407.4185,567.0698,413.0673,561.4211,412.7644,570.411,416.787" style="stroke: #A80036; stroke-width: 1.0;"/><text fill="#000000" font-family="sans-serif" font-size="13" lengthAdjust="spacingAndGlyphs" textLength="115" x="488" y="339.0669">SecuritiesAccount</text><text fill="#000000" font-family="sans-serif" font-size="13" lengthAdjust="spacingAndGlyphs" textLength="7" x="557.6612" y="406.0199">*</text><!--link SecuritiesPartyRole to CashAccount--><path d="M321.95,294.058 C342.662,302.311 372.641,312.991 400,318 C423.296,322.265 591.562,315.936 613,326 C638.927,338.171 645.77,347.248 656,374 C694.488,474.644 630.217,604.793 605.258,649.2872 " fill="none" id="SecuritiesPartyRole-CashAccount" style="stroke: #A80036; stroke-width: 1.0;"/><polygon fill="#A80036" points="602.694,653.8041,610.6168,647.9535,605.1632,649.4563,603.6604,644.0028,602.694,653.8041" style="stroke: #A80036; stroke-width: 1.0;"/><text fill="#000000" font-family="sans-serif" font-size="13" lengthAdjust="spacingAndGlyphs" textLength="84" x="660" y="529.0669">CashAccount</text><text fill="#000000" font-family="sans-serif" font-size="13" lengthAdjust="spacingAndGlyphs" textLength="7" x="595.2551" y="643.0427">*</text><!--link SecuritiesPartyRole to Security--><path d="M307.434,294.032 C324.056,310.448 355.275,342.736 377,374 C415.46,429.348 402.747,458.052 448,508 C469.596,531.836 501.114,551.229 523.787,563.317 " fill="none" id="SecuritiesPartyRole-Security" style="stroke: #A80036; stroke-width: 1.0;"/><polygon fill="#A80036" points="528.484,565.785,522.3768,558.0583,524.0576,563.4597,518.6563,565.1405,528.484,565.785" style="stroke: #A80036; stroke-width: 1.0;"/><text fill="#000000" font-family="sans-serif" font-size="13" lengthAdjust="spacingAndGlyphs" textLength="52" x="449" y="433.0669">Security</text><text fill="#000000" font-family="sans-serif" font-size="13" lengthAdjust="spacingAndGlyphs" textLength="7" x="511.0381" y="555.0172">*</text><!--link BeneficialOwner to Country--><path d="M199,483.903 C199,511.081 199,542.117 199,560.606 " fill="none" id="BeneficialOwner-Country" style="stroke: #A80036; stroke-width: 1.0;"/><polygon fill="#A80036" points="199,565.923,203,556.923,199,560.923,195,556.923,199,565.923" style="stroke: #A80036; stroke-width: 1.0;"/><text fill="#000000" font-family="sans-serif" font-size="13" lengthAdjust="spacingAndGlyphs" textLength="131" x="200" y="529.0669">NonDomicileCountry</text><text fill="#000000" font-family="sans-serif" font-size="13" lengthAdjust="spacingAndGlyphs" textLength="8" x="188.2813" y="554.9447">1</text><!--link SecuritiesAccount to Security--><path d="M575.12,441.127 C568.339,457.255 556.405,488.241 552,516 C549.639,530.875 549.902,548.049 550.601,560.377 " fill="none" id="SecuritiesAccount-Security" style="stroke: #A80036; stroke-width: 1.0;"/><polygon fill="#A80036" points="550.945,565.674,554.3528,556.4335,550.6207,560.6845,546.3696,556.9524,550.945,565.674" style="stroke: #A80036; stroke-width: 1.0;"/><text fill="#000000" font-family="sans-serif" font-size="13" lengthAdjust="spacingAndGlyphs" textLength="52" x="553" y="529.0669">Security</text><text fill="#000000" font-family="sans-serif" font-size="13" lengthAdjust="spacingAndGlyphs" textLength="7" x="540.9393" y="554.8695">*</text></g></svg>