<?xml version="1.0" encoding="UTF-8" standalone="no"?><svg xmlns="http://www.w3.org/2000/svg" xmlns:xlink="http://www.w3.org/1999/xlink" contentScriptType="application/ecmascript" contentStyleType="text/css" height="620px" preserveAspectRatio="none" style="width:1544px;height:620px;" version="1.1" viewBox="0 0 1544 620" width="1544px" zoomAndPan="magnify"><defs><filter height="300%" id="f9e3l2e4ggcgq" width="300%" x="-1" y="-1"><feGaussianBlur result="blurOut" stdDeviation="2.0"/><feColorMatrix in="blurOut" result="blurOut2" type="matrix" values="0 0 0 0 0 0 0 0 0 0 0 0 0 0 0 0 0 0 .4 0"/><feOffset dx="4.0" dy="4.0" in="blurOut2" result="blurOut3"/><feBlend in="SourceGraphic" in2="blurOut3" mode="normal"/></filter></defs><g><!--cluster ##8506--><!--cluster ##8509--><!--class BiddingConditions--><a target="_top" xlink:actuate="onRequest" xlink:href="../BiddingConditions.html" xlink:show="new" xlink:title="Specifies the conditions under which securities can be acquired as part of a corporate action." xlink:type="simple"><rect fill="#FEFECE" filter="url(#f9e3l2e4ggcgq)" height="172.8203" id="BiddingConditions" style="stroke: #A80036; stroke-width: 1.5;" width="365" x="412.75" y="40.5"/><rect fill="#FEFECE" height="23.9688" style="stroke: #A80036; stroke-width: 1.5;" width="365" x="412.75" y="40.5"/><text fill="#000000" font-family="sans-serif" font-size="12" lengthAdjust="spacingAndGlyphs" textLength="112" x="539.25" y="56.6387">BiddingConditions</text><line style="stroke: #A80036; stroke-width: 1.5;" x1="413.75" x2="776.75" y1="64.4688" y2="64.4688"/><ellipse cx="423.75" cy="76.3711" fill="#84BE84" rx="3" ry="3" style="stroke: #038048; stroke-width: 1.0;"/><text fill="#000000" font-family="sans-serif" font-size="11" lengthAdjust="spacingAndGlyphs" textLength="79" x="432.75" y="78.6792">ProposedRate</text><text fill="#000000" font-family="sans-serif" font-size="11" font-style="italic" lengthAdjust="spacingAndGlyphs" textLength="98" x="515.75" y="78.6792">(PercentageRate)</text><ellipse cx="423.75" cy="89.1758" fill="#84BE84" rx="3" ry="3" style="stroke: #038048; stroke-width: 1.0;"/><text fill="#000000" font-family="sans-serif" font-size="11" lengthAdjust="spacingAndGlyphs" textLength="122" x="432.75" y="91.4839">OversubscriptionRate</text><text fill="#000000" font-family="sans-serif" font-size="11" font-style="italic" lengthAdjust="spacingAndGlyphs" textLength="98" x="558.75" y="91.4839">(PercentageRate)</text><ellipse cx="423.75" cy="101.9805" fill="#84BE84" rx="3" ry="3" style="stroke: #038048; stroke-width: 1.0;"/><text fill="#000000" font-family="sans-serif" font-size="11" lengthAdjust="spacingAndGlyphs" textLength="144" x="432.75" y="104.2886">InformationToComplyWith</text><text fill="#000000" font-family="sans-serif" font-size="11" font-style="italic" lengthAdjust="spacingAndGlyphs" textLength="77" x="580.75" y="104.2886">(Max350Text)</text><ellipse cx="423.75" cy="114.7852" fill="#84BE84" rx="3" ry="3" style="stroke: #038048; stroke-width: 1.0;"/><text fill="#000000" font-family="sans-serif" font-size="11" lengthAdjust="spacingAndGlyphs" textLength="152" x="432.75" y="117.0933">SubscriptionCostDebitDate</text><text fill="#000000" font-family="sans-serif" font-size="11" font-style="italic" lengthAdjust="spacingAndGlyphs" textLength="81" x="588.75" y="117.0933">(ISODateTime)</text><ellipse cx="423.75" cy="127.5898" fill="#84BE84" rx="3" ry="3" style="stroke: #038048; stroke-width: 1.0;"/><text fill="#000000" font-family="sans-serif" font-size="11" lengthAdjust="spacingAndGlyphs" textLength="77" x="432.75" y="129.8979">ProrationRate</text><text fill="#000000" font-family="sans-serif" font-size="11" font-style="italic" lengthAdjust="spacingAndGlyphs" textLength="98" x="513.75" y="129.8979">(PercentageRate)</text><ellipse cx="423.75" cy="140.3945" fill="#84BE84" rx="3" ry="3" style="stroke: #038048; stroke-width: 1.0;"/><text fill="#000000" font-family="sans-serif" font-size="11" lengthAdjust="spacingAndGlyphs" textLength="113" x="432.75" y="142.7026">TransformationRate</text><text fill="#000000" font-family="sans-serif" font-size="11" font-style="italic" lengthAdjust="spacingAndGlyphs" textLength="98" x="549.75" y="142.7026">(PercentageRate)</text><ellipse cx="423.75" cy="153.1992" fill="#84BE84" rx="3" ry="3" style="stroke: #038048; stroke-width: 1.0;"/><text fill="#000000" font-family="sans-serif" font-size="11" lengthAdjust="spacingAndGlyphs" textLength="78" x="432.75" y="155.5073">ProrationDate</text><text fill="#000000" font-family="sans-serif" font-size="11" font-style="italic" lengthAdjust="spacingAndGlyphs" textLength="81" x="514.75" y="155.5073">(ISODateTime)</text><ellipse cx="423.75" cy="166.0039" fill="#84BE84" rx="3" ry="3" style="stroke: #038048; stroke-width: 1.0;"/><text fill="#000000" font-family="sans-serif" font-size="11" lengthAdjust="spacingAndGlyphs" textLength="104" x="432.75" y="168.312">PercentageSought</text><text fill="#000000" font-family="sans-serif" font-size="11" font-style="italic" lengthAdjust="spacingAndGlyphs" textLength="98" x="540.75" y="168.312">(PercentageRate)</text><ellipse cx="423.75" cy="178.8086" fill="#84BE84" rx="3" ry="3" style="stroke: #038048; stroke-width: 1.0;"/><text fill="#000000" font-family="sans-serif" font-size="11" lengthAdjust="spacingAndGlyphs" textLength="60" x="432.75" y="181.1167">BidInterval</text><text fill="#000000" font-family="sans-serif" font-size="11" font-style="italic" lengthAdjust="spacingAndGlyphs" textLength="126" x="496.75" y="181.1167">(CurrencyAndAmount)</text><ellipse cx="423.75" cy="191.6133" fill="#84BE84" rx="3" ry="3" style="stroke: #038048; stroke-width: 1.0;"/><text fill="#000000" font-family="sans-serif" font-size="11" lengthAdjust="spacingAndGlyphs" textLength="103" x="432.75" y="193.9214">CalculationMethod</text><text fill="#000000" font-family="sans-serif" font-size="11" font-style="italic" lengthAdjust="spacingAndGlyphs" textLength="232" x="539.75" y="193.9214">(CorporateActionCalculationMethodCode)</text><ellipse cx="423.75" cy="204.418" fill="#84BE84" rx="3" ry="3" style="stroke: #038048; stroke-width: 1.0;"/><text fill="#000000" font-family="sans-serif" font-size="11" lengthAdjust="spacingAndGlyphs" textLength="152" x="432.75" y="206.7261">AdditionalSubscriptionCost</text><text fill="#000000" font-family="sans-serif" font-size="11" font-style="italic" lengthAdjust="spacingAndGlyphs" textLength="126" x="588.75" y="206.7261">(CurrencyAndAmount)</text></a><!--class RateAndAmount--><a target="_top" xlink:actuate="onRequest" xlink:href="../RateAndAmount.html" xlink:show="new" xlink:title="Specifies the value expressed as a rate or an amount. For example, the value of a tax or a commission." xlink:type="simple"><rect fill="#EEEEEE" filter="url(#f9e3l2e4ggcgq)" height="23.9688" id="RateAndAmount" style="stroke: #A80036; stroke-width: 1.5;" width="107" x="1115.75" y="398"/><rect fill="#EEEEEE" height="23.9688" style="stroke: #A80036; stroke-width: 1.5;" width="107" x="1115.75" y="398"/><text fill="#000000" font-family="sans-serif" font-size="12" lengthAdjust="spacingAndGlyphs" textLength="101" x="1118.75" y="414.1387">RateAndAmount</text></a><!--class SecuritiesQuantity--><a target="_top" xlink:actuate="onRequest" xlink:href="../SecuritiesQuantity.html" xlink:show="new" xlink:title="Quantity of a security." xlink:type="simple"><rect fill="#EEEEEE" filter="url(#f9e3l2e4ggcgq)" height="23.9688" id="SecuritiesQuantity" style="stroke: #A80036; stroke-width: 1.5;" width="120" x="948.5" y="296"/><rect fill="#EEEEEE" height="23.9688" style="stroke: #A80036; stroke-width: 1.5;" width="120" x="948.5" y="296"/><text fill="#000000" font-family="sans-serif" font-size="12" lengthAdjust="spacingAndGlyphs" textLength="114" x="951.5" y="312.1387">SecuritiesQuantity</text></a><!--class DateTimePeriod--><a target="_top" xlink:actuate="onRequest" xlink:href="../DateTimePeriod.html" xlink:show="new" xlink:title="Time span defined by a start date and time, and an end date and time." xlink:type="simple"><rect fill="#EEEEEE" filter="url(#f9e3l2e4ggcgq)" height="23.9688" id="DateTimePeriod" style="stroke: #A80036; stroke-width: 1.5;" width="105" x="754.75" y="586"/><rect fill="#EEEEEE" height="23.9688" style="stroke: #A80036; stroke-width: 1.5;" width="105" x="754.75" y="586"/><text fill="#000000" font-family="sans-serif" font-size="12" lengthAdjust="spacingAndGlyphs" textLength="99" x="757.75" y="602.1387">DateTimePeriod</text></a><!--class SecuritiesPricing--><a target="_top" xlink:actuate="onRequest" xlink:href="../SecuritiesPricing.html" xlink:show="new" xlink:title="Characteristics related to the price of the security." xlink:type="simple"><rect fill="#EEEEEE" filter="url(#f9e3l2e4ggcgq)" height="23.9688" id="SecuritiesPricing" style="stroke: #A80036; stroke-width: 1.5;" width="110" x="603" y="484"/><rect fill="#EEEEEE" height="23.9688" style="stroke: #A80036; stroke-width: 1.5;" width="110" x="603" y="484"/><text fill="#000000" font-family="sans-serif" font-size="12" lengthAdjust="spacingAndGlyphs" textLength="104" x="606" y="500.1387">SecuritiesPricing</text></a><!--class CorporateActionEvent--><a target="_top" xlink:actuate="onRequest" xlink:href="../CorporateActionEvent.html" xlink:show="new" xlink:title="An event determined by a corporation's board of directors, that changes the existing corporate capital structure or financial condition." xlink:type="simple"><rect fill="#EEEEEE" filter="url(#f9e3l2e4ggcgq)" height="23.9688" id="CorporateActionEvent" style="stroke: #A80036; stroke-width: 1.5;" width="143" x="739.75" y="398"/><rect fill="#EEEEEE" height="23.9688" style="stroke: #A80036; stroke-width: 1.5;" width="143" x="739.75" y="398"/><text fill="#000000" font-family="sans-serif" font-size="12" lengthAdjust="spacingAndGlyphs" textLength="137" x="742.75" y="414.1387">CorporateActionEvent</text></a><!--link SecuritiesQuantity to RateAndAmount--><!--link DateTimePeriod to SecuritiesQuantity--><!--link SecuritiesPricing to DateTimePeriod--><!--link DateTimePeriod to SecuritiesPricing--><path d="M802.285,585.8966 C796.176,572.7459 784.339,550.9908 768,538 C751.676,525.021 730.827,515.867 711.678,509.554 " fill="none" id="DateTimePeriod-SecuritiesPricing" style="stroke: #A80036; stroke-width: 1.0;"/><polygon fill="#A80036" points="706.85,508.009,714.2025,514.5619,711.6121,509.533,716.641,506.9426,706.85,508.009" style="stroke: #A80036; stroke-width: 1.0;"/><text fill="#000000" font-family="sans-serif" font-size="13" lengthAdjust="spacingAndGlyphs" textLength="191" x="785" y="551.0669">PriceCalculationRelatedPricing</text><text fill="#000000" font-family="sans-serif" font-size="13" lengthAdjust="spacingAndGlyphs" textLength="8" x="715.9381" y="528.1572">1</text><!--link DateTimePeriod to SecuritiesPricing--><path d="M754.408,593.8788 C700.175,589.4323 620.926,579.0864 602,556 C588.599,539.653 610.012,522.252 630.111,510.618 " fill="none" id="DateTimePeriod-SecuritiesPricing" style="stroke: #A80036; stroke-width: 1.0;"/><polygon fill="#A80036" points="634.633,508.08,624.8269,508.9969,630.2728,510.5272,628.7425,515.9732,634.633,508.08" style="stroke: #A80036; stroke-width: 1.0;"/><text fill="#000000" font-family="sans-serif" font-size="13" lengthAdjust="spacingAndGlyphs" textLength="148" x="603" y="551.0669">PriceFactRelatedPricing</text><text fill="#000000" font-family="sans-serif" font-size="13" lengthAdjust="spacingAndGlyphs" textLength="8" x="613.9316" y="528.2575">1</text><!--link CorporateActionEvent to SecuritiesPricing--><!--link BiddingConditions to RateAndAmount--><path d="M564.222,213.788 C551.49,266.178 547.921,330.161 589,368 C607.986,385.489 967.01,401.209 1110.49,406.818 " fill="none" id="BiddingConditions-RateAndAmount" style="stroke: #A80036; stroke-width: 1.0;"/><polygon fill="#A80036" points="1115.5,407.014,1106.6672,402.6573,1110.504,406.814,1106.3472,410.6509,1115.5,407.014" style="stroke: #A80036; stroke-width: 1.0;"/><text fill="#000000" font-family="sans-serif" font-size="13" lengthAdjust="spacingAndGlyphs" textLength="220" x="562" y="312.0669">MaximumAllowedOverSubscription</text><text fill="#000000" font-family="sans-serif" font-size="13" lengthAdjust="spacingAndGlyphs" textLength="8" x="1099.707" y="401.7623">1</text><!--link BiddingConditions to RateAndAmount--><path d="M777.732,141.472 C1008.67,160.387 1381.31,197.947 1423,246 C1487.94,320.847 1318.32,374.064 1225.25,396.762 " fill="none" id="BiddingConditions-RateAndAmount" style="stroke: #A80036; stroke-width: 1.0;"/><polygon fill="#A80036" points="1220.33,397.951,1230.0167,399.7307,1225.1908,396.7794,1228.1421,391.9535,1220.33,397.951" style="stroke: #A80036; stroke-width: 1.0;"/><text fill="#000000" font-family="sans-serif" font-size="13" lengthAdjust="spacingAndGlyphs" textLength="94" x="1438" y="312.0669">ApplicableRate</text><text fill="#000000" font-family="sans-serif" font-size="13" lengthAdjust="spacingAndGlyphs" textLength="8" x="1227.17" y="386.9824">1</text><!--link BiddingConditions to SecuritiesQuantity--><path d="M777.583,183.578 C826.01,201.02 877.466,222.068 923,246 C948.198,259.244 974.399,279.133 990.933,292.568 " fill="none" id="BiddingConditions-SecuritiesQuantity" style="stroke: #A80036; stroke-width: 1.0;"/><polygon fill="#A80036" points="994.921,295.837,990.4945,287.0389,991.0534,292.6681,985.4243,293.227,994.921,295.837" style="stroke: #A80036; stroke-width: 1.0;"/><text fill="#000000" font-family="sans-serif" font-size="13" lengthAdjust="spacingAndGlyphs" textLength="157" x="954" y="259.0669">FrontEndOddLotQuantity</text><text fill="#000000" font-family="sans-serif" font-size="13" lengthAdjust="spacingAndGlyphs" textLength="8" x="979.5345" y="284.8292">1</text><!--link BiddingConditions to SecuritiesQuantity--><path d="M777.521,144.881 C911.808,161.521 1078.12,192.436 1121,246 C1139.72,269.39 1107.65,285.033 1072.95,294.617 " fill="none" id="BiddingConditions-SecuritiesQuantity" style="stroke: #A80036; stroke-width: 1.0;"/><polygon fill="#A80036" points="1067.81,295.987,1077.5402,297.5111,1072.6383,294.6878,1075.4616,289.7859,1067.81,295.987" style="stroke: #A80036; stroke-width: 1.0;"/><text fill="#000000" font-family="sans-serif" font-size="13" lengthAdjust="spacingAndGlyphs" textLength="155" x="1127" y="259.0669">BackEndOddLotQuantity</text><text fill="#000000" font-family="sans-serif" font-size="13" lengthAdjust="spacingAndGlyphs" textLength="8" x="1076.8002" y="285.2861">1</text><!--link BiddingConditions to SecuritiesQuantity--><path d="M777.296,133.089 C961.305,142.526 1227.3,169.421 1292,246 C1297.16,252.111 1297.22,257.934 1292,264 C1264.33,296.169 1147.97,304.571 1073.04,306.589 " fill="none" id="BiddingConditions-SecuritiesQuantity" style="stroke: #A80036; stroke-width: 1.0;"/><polygon fill="#A80036" points="1067.72,306.723,1076.8199,310.4903,1072.7183,306.5944,1076.6142,302.4929,1067.72,306.723" style="stroke: #A80036; stroke-width: 1.0;"/><text fill="#000000" font-family="sans-serif" font-size="13" lengthAdjust="spacingAndGlyphs" textLength="117" x="1296" y="259.0669">MaximumQuantity</text><text fill="#000000" font-family="sans-serif" font-size="13" lengthAdjust="spacingAndGlyphs" textLength="8" x="1076.6103" y="301.4265">1</text><!--link BiddingConditions to SecuritiesQuantity--><path d="M574.12,213.509 C574.334,232.232 578.979,250.473 592,264 C600.097,272.411 790.387,270.797 802,272 C852.104,277.188 908.46,287.046 949.546,294.98 " fill="none" id="BiddingConditions-SecuritiesQuantity" style="stroke: #A80036; stroke-width: 1.0;"/><polygon fill="#A80036" points="954.479,295.938,946.4062,290.2962,949.5706,294.9852,944.8817,298.1496,954.479,295.938" style="stroke: #A80036; stroke-width: 1.0;"/><text fill="#000000" font-family="sans-serif" font-size="13" lengthAdjust="spacingAndGlyphs" textLength="159" x="593" y="259.0669">MinimumQuantitySought</text><text fill="#000000" font-family="sans-serif" font-size="13" lengthAdjust="spacingAndGlyphs" textLength="8" x="932.5682" y="287.5249">1</text><!--link BiddingConditions to SecuritiesQuantity--><path d="M713.667,213.647 C748.83,238.437 780.527,259.974 790,264 C839.056,284.849 898.666,295.719 943.145,301.308 " fill="none" id="BiddingConditions-SecuritiesQuantity" style="stroke: #A80036; stroke-width: 1.0;"/><polygon fill="#A80036" points="948.218,301.931,939.7732,296.8629,943.2553,301.321,938.7972,304.8032,948.218,301.931" style="stroke: #A80036; stroke-width: 1.0;"/><text fill="#000000" font-family="sans-serif" font-size="13" lengthAdjust="spacingAndGlyphs" textLength="122" x="791" y="259.0669">BaseDenomination</text><text fill="#000000" font-family="sans-serif" font-size="13" lengthAdjust="spacingAndGlyphs" textLength="8" x="932.4858" y="314.1539">1</text><!--link BiddingConditions to DateTimePeriod--><path d="M412.67,147.999 C239.687,172.197 6,220.832 6,307 C6,307 6,307 6,497 C6,571.9746 565.712,591.4799 749.384,595.8623 " fill="none" id="BiddingConditions-DateTimePeriod" style="stroke: #A80036; stroke-width: 1.0;"/><polygon fill="#A80036" points="754.444,595.9814,745.5414,591.7691,749.4454,595.8628,745.3517,599.7668,754.444,595.9814" style="stroke: #A80036; stroke-width: 1.0;"/><text fill="#000000" font-family="sans-serif" font-size="13" lengthAdjust="spacingAndGlyphs" textLength="175" x="7" y="414.0669">CompulsoryPurchasePeriod</text><text fill="#000000" font-family="sans-serif" font-size="13" lengthAdjust="spacingAndGlyphs" textLength="8" x="738.7602" y="590.8416">1</text><!--link BiddingConditions to SecuritiesPricing--><path d="M412.657,172.481 C300.59,210.084 186.76,273.188 234,368 C262.304,424.806 289.272,429.935 348,454 C391.994,472.027 520.905,484.579 597.939,490.709 " fill="none" id="BiddingConditions-SecuritiesPricing" style="stroke: #A80036; stroke-width: 1.0;"/><polygon fill="#A80036" points="602.937,491.104,594.2791,486.4092,597.9525,490.7111,593.6505,494.3845,602.937,491.104" style="stroke: #A80036; stroke-width: 1.0;"/><text fill="#000000" font-family="sans-serif" font-size="13" lengthAdjust="spacingAndGlyphs" textLength="94" x="235" y="363.0669">MaximumPrice</text><text fill="#000000" font-family="sans-serif" font-size="13" lengthAdjust="spacingAndGlyphs" textLength="8" x="586.9922" y="503.4815">1</text><!--link BiddingConditions to SecuritiesPricing--><path d="M460.179,213.623 C408.142,257.799 368.324,313.701 402,368 C444.539,436.589 536.388,469.29 597.702,484.018 " fill="none" id="BiddingConditions-SecuritiesPricing" style="stroke: #A80036; stroke-width: 1.0;"/><polygon fill="#A80036" points="602.799,485.218,594.955,479.2622,597.932,484.0723,593.1219,487.0494,602.799,485.218" style="stroke: #A80036; stroke-width: 1.0;"/><text fill="#000000" font-family="sans-serif" font-size="13" lengthAdjust="spacingAndGlyphs" textLength="90" x="403" y="363.0669">MinimumPrice</text><text fill="#000000" font-family="sans-serif" font-size="13" lengthAdjust="spacingAndGlyphs" textLength="8" x="586.8383" y="479.0649">1</text><!--link BiddingConditions to CorporateActionEvent--><path d="M512.105,213.801 C490.773,245.935 476.839,283.517 489,320 C497.433,345.298 502.057,354.408 525,368 C559.4,388.38 661.87,399.277 734.289,404.599 " fill="none" id="BiddingConditions-CorporateActionEvent" style="stroke: #A80036; stroke-width: 1.0;"/><polygon fill="#A80036" points="739.45,404.972,730.7627,400.3319,734.4631,404.6106,730.1844,408.311,739.45,404.972" style="stroke: #A80036; stroke-width: 1.0;"/><text fill="#000000" font-family="sans-serif" font-size="13" lengthAdjust="spacingAndGlyphs" textLength="36" x="490" y="312.0669">Event</text><text fill="#000000" font-family="sans-serif" font-size="13" lengthAdjust="spacingAndGlyphs" textLength="24" x="707.6925" y="399.9674">0..1</text><!--link SecuritiesQuantity to CorporateActionEvent--><path d="M948.157,313.004 C838.917,320.602 617.315,337.473 606,350 C565.395,394.957 660.376,406.55 734.252,409.062 " fill="none" id="SecuritiesQuantity-CorporateActionEvent" style="stroke: #A80036; stroke-width: 1.0;"/><polygon fill="#A80036" points="739.533,409.227,730.6631,404.9462,734.5355,409.0699,730.4118,412.9422,739.533,409.227" style="stroke: #A80036; stroke-width: 1.0;"/><text fill="#000000" font-family="sans-serif" font-size="13" lengthAdjust="spacingAndGlyphs" textLength="220" x="607" y="363.0669">RelatedEventForFractionalQuantity</text><text fill="#000000" font-family="sans-serif" font-size="13" lengthAdjust="spacingAndGlyphs" textLength="8" x="723.7004" y="421.9003">1</text><!--link SecuritiesQuantity to CorporateActionEvent--><path d="M948.473,319.563 C922.79,325.843 893.164,335.503 869,350 C850.024,361.385 832.882,380.435 822.239,393.801 " fill="none" id="SecuritiesQuantity-CorporateActionEvent" style="stroke: #A80036; stroke-width: 1.0;"/><polygon fill="#A80036" points="819.15,397.752,827.8451,393.1265,822.2301,393.8133,821.5432,388.1983,819.15,397.752" style="stroke: #A80036; stroke-width: 1.0;"/><text fill="#000000" font-family="sans-serif" font-size="13" lengthAdjust="spacingAndGlyphs" textLength="140" x="870" y="363.0669">CorporateActionEvent</text><text fill="#000000" font-family="sans-serif" font-size="13" lengthAdjust="spacingAndGlyphs" textLength="8" x="811.1106" y="386.9733">1</text><!--link SecuritiesQuantity to CorporateActionEvent--><path d="M1014.09,320.361 C1020.12,333.358 1027.01,354.57 1016,368 C999.732,387.844 938.898,398.275 887.689,403.637 " fill="none" id="SecuritiesQuantity-CorporateActionEvent" style="stroke: #A80036; stroke-width: 1.0;"/><polygon fill="#A80036" points="882.449,404.172,891.8083,407.2385,887.4232,403.6649,890.9969,399.2798,882.449,404.172" style="stroke: #A80036; stroke-width: 1.0;"/><text fill="#000000" font-family="sans-serif" font-size="13" lengthAdjust="spacingAndGlyphs" textLength="188" x="1022" y="363.0669">RelatedCorporateActionEvent</text><text fill="#000000" font-family="sans-serif" font-size="13" lengthAdjust="spacingAndGlyphs" textLength="8" x="890.6739" y="398.6807">1</text><!--link DateTimePeriod to CorporateActionEvent--><path d="M859.351,594.1285 C914.657,589.8714 996.528,579.6626 1016,556 C1067.63,493.252 935.381,445.004 859.66,423.41 " fill="none" id="DateTimePeriod-CorporateActionEvent" style="stroke: #A80036; stroke-width: 1.0;"/><polygon fill="#A80036" points="854.756,422.026,862.3304,428.3211,859.5679,423.3847,864.5043,420.6222,854.756,422.026" style="stroke: #A80036; stroke-width: 1.0;"/><text fill="#000000" font-family="sans-serif" font-size="13" lengthAdjust="spacingAndGlyphs" textLength="184" x="1022" y="500.0669">BookClosureCorporateAction</text><text fill="#000000" font-family="sans-serif" font-size="13" lengthAdjust="spacingAndGlyphs" textLength="8" x="861.6397" y="442.1812">1</text><!--link DateTimePeriod to CorporateActionEvent--><path d="M859.607,592.1289 C906.613,586.5589 970.404,575.5727 986,556 C1029.36,501.588 887.726,555.6171 837,508 C814.618,486.989 810.725,448.993 810.476,427.316 " fill="none" id="DateTimePeriod-CorporateActionEvent" style="stroke: #A80036; stroke-width: 1.0;"/><polygon fill="#A80036" points="810.482,422.177,806.4717,431.1724,810.4763,427.177,814.4717,431.1816,810.482,422.177" style="stroke: #A80036; stroke-width: 1.0;"/><text fill="#000000" font-family="sans-serif" font-size="13" lengthAdjust="spacingAndGlyphs" textLength="152" x="838" y="500.0669">RelatedCorporateAction</text><text fill="#000000" font-family="sans-serif" font-size="13" lengthAdjust="spacingAndGlyphs" textLength="8" x="799.2108" y="442.024">1</text></g></svg>