<?xml version="1.0" encoding="UTF-8" standalone="no"?><svg xmlns="http://www.w3.org/2000/svg" xmlns:xlink="http://www.w3.org/1999/xlink" contentScriptType="application/ecmascript" contentStyleType="text/css" height="552px" preserveAspectRatio="none" style="width:1195px;height:552px;" version="1.1" viewBox="0 0 1195 552" width="1195px" zoomAndPan="magnify"><defs><filter height="300%" id="f1k1bfti6igibb" width="300%" x="-1" y="-1"><feGaussianBlur result="blurOut" stdDeviation="2.0"/><feColorMatrix in="blurOut" result="blurOut2" type="matrix" values="0 0 0 0 0 0 0 0 0 0 0 0 0 0 0 0 0 0 .4 0"/><feOffset dx="4.0" dy="4.0" in="blurOut2" result="blurOut3"/><feBlend in="SourceGraphic" in2="blurOut3" mode="normal"/></filter></defs><g><!--cluster ##11479--><!--cluster ##11488--><!--cluster ##11497--><!--cluster ##11502--><!--class Role--><a target="_top" xlink:actuate="onRequest" xlink:href="../Role.html" xlink:show="new" xlink:title="Role of a party in an activity." xlink:type="simple"><rect fill="#FEFEEE" filter="url(#f1k1bfti6igibb)" height="44.7734" id="Role" style="stroke: #A80036; stroke-width: 1.5;" width="175" x="176.75" y="40.5"/><rect fill="#FEFEEE" height="23.9688" style="stroke: #A80036; stroke-width: 1.5;" width="175" x="176.75" y="40.5"/><text fill="#000000" font-family="sans-serif" font-size="12" lengthAdjust="spacingAndGlyphs" textLength="27" x="250.75" y="56.6387">Role</text><line style="stroke: #A80036; stroke-width: 1.5;" x1="177.75" x2="350.75" y1="64.4688" y2="64.4688"/><ellipse cx="187.75" cy="76.3711" fill="#84BE84" rx="3" ry="3" style="stroke: #038048; stroke-width: 1.0;"/><text fill="#000000" font-family="sans-serif" font-size="11" lengthAdjust="spacingAndGlyphs" textLength="53" x="196.75" y="78.6792">PartyRole</text><text fill="#000000" font-family="sans-serif" font-size="11" font-style="italic" lengthAdjust="spacingAndGlyphs" textLength="92" x="253.75" y="78.6792">(PartyRoleCode)</text></a><!--class TradePartyRole--><a target="_top" xlink:actuate="onRequest" xlink:href="../TradePartyRole.html" xlink:show="new" xlink:title="Trading party in a commercial, securities, treasury trade. This role may also represent parties which play different intermediary roles in a trade." xlink:type="simple"><rect fill="#FEFEEE" filter="url(#f1k1bfti6igibb)" height="57.5781" id="TradePartyRole" style="stroke: #A80036; stroke-width: 1.5;" width="279" x="72.75" y="164"/><rect fill="#FEFEEE" height="23.9688" style="stroke: #A80036; stroke-width: 1.5;" width="279" x="72.75" y="164"/><text fill="#000000" font-family="sans-serif" font-size="12" lengthAdjust="spacingAndGlyphs" textLength="95" x="164.75" y="180.1387">TradePartyRole</text><line style="stroke: #A80036; stroke-width: 1.5;" x1="73.75" x2="350.75" y1="187.9688" y2="187.9688"/><ellipse cx="83.75" cy="199.8711" fill="#84BE84" rx="3" ry="3" style="stroke: #038048; stroke-width: 1.0;"/><text fill="#000000" font-family="sans-serif" font-size="11" lengthAdjust="spacingAndGlyphs" textLength="120" x="92.75" y="202.1792">TradingPartyCapacity</text><text fill="#000000" font-family="sans-serif" font-size="11" font-style="italic" lengthAdjust="spacingAndGlyphs" textLength="129" x="216.75" y="202.1792">(TradingCapacityCode)</text><ellipse cx="83.75" cy="212.6758" fill="#84BE84" rx="3" ry="3" style="stroke: #038048; stroke-width: 1.0;"/><text fill="#000000" font-family="sans-serif" font-size="11" lengthAdjust="spacingAndGlyphs" textLength="80" x="92.75" y="214.9839">BuyerOrSeller</text><text fill="#000000" font-family="sans-serif" font-size="11" font-style="italic" lengthAdjust="spacingAndGlyphs" textLength="104" x="176.75" y="214.9839">(OptionPartyCode)</text></a><!--class Broker--><a target="_top" xlink:actuate="onRequest" xlink:href="../Broker.html" xlink:show="new" xlink:title="Party that identifies a broker when required (for example, authorised broker, prime broker, etc)." xlink:type="simple"><rect fill="#FEFECE" filter="url(#f1k1bfti6igibb)" height="44.7734" id="Broker" style="stroke: #A80036; stroke-width: 1.5;" width="313" x="38.75" y="300.5"/><rect fill="#FEFECE" height="23.9688" style="stroke: #A80036; stroke-width: 1.5;" width="313" x="38.75" y="300.5"/><text fill="#000000" font-family="sans-serif" font-size="12" lengthAdjust="spacingAndGlyphs" textLength="41" x="174.75" y="316.6387">Broker</text><line style="stroke: #A80036; stroke-width: 1.5;" x1="39.75" x2="350.75" y1="324.4688" y2="324.4688"/><ellipse cx="49.75" cy="336.3711" fill="#84BE84" rx="3" ry="3" style="stroke: #038048; stroke-width: 1.0;"/><text fill="#000000" font-family="sans-serif" font-size="11" lengthAdjust="spacingAndGlyphs" textLength="122" x="58.75" y="338.6792">RemunerationAmount</text><text fill="#000000" font-family="sans-serif" font-size="11" font-style="italic" lengthAdjust="spacingAndGlyphs" textLength="161" x="184.75" y="338.6792">(ActiveCurrencyAndAmount)</text></a><!--class RolePlayer--><a target="_top" xlink:actuate="onRequest" xlink:href="../RolePlayer.html" xlink:show="new" xlink:title="Type of entity that plays a specific role in a specific context." xlink:type="simple"><rect fill="#EEEEEE" filter="url(#f1k1bfti6igibb)" height="23.9688" id="RolePlayer" style="stroke: #A80036; stroke-width: 1.5;" width="71" x="770.75" y="518"/><rect fill="#EEEEEE" height="23.9688" style="stroke: #A80036; stroke-width: 1.5;" width="71" x="770.75" y="518"/><text fill="#000000" font-family="sans-serif" font-size="12" lengthAdjust="spacingAndGlyphs" textLength="65" x="773.75" y="534.1387">RolePlayer</text></a><!--class ContactPersonRole--><a target="_top" xlink:actuate="onRequest" xlink:href="../ContactPersonRole.html" xlink:show="new" xlink:title="Person to be contacted in a given organisation. In the corporate action domain (including meeting notifications) , it is the contact person at the party organising the meeting, at the issuer or at an intermediary." xlink:type="simple"><rect fill="#EEEEEE" filter="url(#f1k1bfti6igibb)" height="23.9688" id="ContactPersonRole" style="stroke: #A80036; stroke-width: 1.5;" width="126" x="723" y="428"/><rect fill="#EEEEEE" height="23.9688" style="stroke: #A80036; stroke-width: 1.5;" width="126" x="723" y="428"/><text fill="#000000" font-family="sans-serif" font-size="12" lengthAdjust="spacingAndGlyphs" textLength="120" x="726" y="444.1387">ContactPersonRole</text></a><!--class CounterpartyRisk--><a target="_top" xlink:actuate="onRequest" xlink:href="../CounterpartyRisk.html" xlink:show="new" xlink:title="Calculation of the exposure amount that one party has vis-a-vis one counterparty or a central system, based on its credit risk." xlink:type="simple"><rect fill="#EEEEEE" filter="url(#f1k1bfti6igibb)" height="23.9688" id="CounterpartyRisk" style="stroke: #A80036; stroke-width: 1.5;" width="113" x="735.75" y="311"/><rect fill="#EEEEEE" height="23.9688" style="stroke: #A80036; stroke-width: 1.5;" width="113" x="735.75" y="311"/><text fill="#000000" font-family="sans-serif" font-size="12" lengthAdjust="spacingAndGlyphs" textLength="107" x="738.75" y="327.1387">CounterpartyRisk</text></a><!--class Entry--><a target="_top" xlink:actuate="onRequest" xlink:href="../Entry.html" xlink:show="new" xlink:title="Posting to an account that results in an increase or decrease to a balance." xlink:type="simple"><rect fill="#EEEEEE" filter="url(#f1k1bfti6igibb)" height="23.9688" id="Entry" style="stroke: #A80036; stroke-width: 1.5;" width="38" x="723" y="181"/><rect fill="#EEEEEE" height="23.9688" style="stroke: #A80036; stroke-width: 1.5;" width="38" x="723" y="181"/><text fill="#000000" font-family="sans-serif" font-size="12" lengthAdjust="spacingAndGlyphs" textLength="32" x="726" y="197.1387">Entry</text></a><!--class Account--><a target="_top" xlink:actuate="onRequest" xlink:href="../Account.html" xlink:show="new" xlink:title="Record of transactions in specific types of assets, maintained by a servicing party on behalf of one or more owning parties. Business relationship between an account servicer and one or more account owners." xlink:type="simple"><rect fill="#EEEEEE" filter="url(#f1k1bfti6igibb)" height="23.9688" id="Account" style="stroke: #A80036; stroke-width: 1.5;" width="57" x="408.75" y="428"/><rect fill="#EEEEEE" height="23.9688" style="stroke: #A80036; stroke-width: 1.5;" width="57" x="408.75" y="428"/><text fill="#000000" font-family="sans-serif" font-size="12" lengthAdjust="spacingAndGlyphs" textLength="51" x="411.75" y="444.1387">Account</text></a><!--class Trade--><a target="_top" xlink:actuate="onRequest" xlink:href="../Trade.html" xlink:show="new" xlink:title="Result of an order between at least two parties. A trade relates to the delivery of goods and services, cash or securities." xlink:type="simple"><rect fill="#EEEEEE" filter="url(#f1k1bfti6igibb)" height="23.9688" id="Trade" style="stroke: #A80036; stroke-width: 1.5;" width="42" x="408.5" y="311"/><rect fill="#EEEEEE" height="23.9688" style="stroke: #A80036; stroke-width: 1.5;" width="42" x="408.5" y="311"/><text fill="#000000" font-family="sans-serif" font-size="12" lengthAdjust="spacingAndGlyphs" textLength="36" x="411.5" y="327.1387">Trade</text></a><!--class Commission--><a target="_top" xlink:actuate="onRequest" xlink:href="../Commission.html" xlink:show="new" xlink:title="Amount of money due to a party as compensation for a service." xlink:type="simple"><rect fill="#EEEEEE" filter="url(#f1k1bfti6igibb)" height="23.9688" id="Commission" style="stroke: #A80036; stroke-width: 1.5;" width="80" x="212" y="428"/><rect fill="#EEEEEE" height="23.9688" style="stroke: #A80036; stroke-width: 1.5;" width="80" x="212" y="428"/><text fill="#000000" font-family="sans-serif" font-size="12" lengthAdjust="spacingAndGlyphs" textLength="74" x="215" y="444.1387">Commission</text></a><!--link Role to TradePartyRole--><path d="M247.621,104.318 C239.751,123.689 230.513,146.43 223.417,163.897 " fill="none" id="Role-TradePartyRole" style="stroke: #A80036; stroke-width: 1.0;"/><polygon fill="none" points="241.166,101.608,255.179,85.713,254.137,106.877,241.166,101.608" style="stroke: #A80036; stroke-width: 1.0;"/><!--link TradePartyRole to Broker--><path d="M205.602,242.171 C202.943,262.192 199.991,284.418 197.879,300.323 " fill="none" id="TradePartyRole-Broker" style="stroke: #A80036; stroke-width: 1.0;"/><polygon fill="none" points="198.697,240.994,208.269,222.09,212.575,242.838,198.697,240.994" style="stroke: #A80036; stroke-width: 1.0;"/><!--link ContactPersonRole to RolePlayer--><!--link CounterpartyRisk to ContactPersonRole--><!--link Entry to CounterpartyRisk--><!--link Trade to Account--><!--link Role to RolePlayer--><path d="M351.495,67.652 C573.828,78.094 1143,112.58 1143,192 C1143,192 1143,192 1143,441 C1143,501.6217 936.27,521.2654 846.642,526.9332 " fill="none" id="Role-RolePlayer" style="stroke: #A80036; stroke-width: 1.0;"/><polygon fill="#A80036" points="841.428,527.2555,850.6577,530.6924,846.4185,526.9469,850.164,522.7077,841.428,527.2555" style="stroke: #A80036; stroke-width: 1.0;"/><text fill="#000000" font-family="sans-serif" font-size="13" lengthAdjust="spacingAndGlyphs" textLength="39" x="1144" y="327.0669">Player</text><text fill="#000000" font-family="sans-serif" font-size="13" lengthAdjust="spacingAndGlyphs" textLength="7" x="849.8888" y="520.8806">*</text><!--link Role to ContactPersonRole--><path d="M351.275,69.702 C522.485,81.816 888.865,112.682 924,157 C967.952,212.44 883.371,344.054 865,370 C849.188,392.332 824.72,412.221 807.205,424.84 " fill="none" id="Role-ContactPersonRole" style="stroke: #A80036; stroke-width: 1.0;"/><polygon fill="#A80036" points="802.912,427.889,812.5658,425.9388,806.9885,424.9938,807.9335,419.4164,802.912,427.889" style="stroke: #A80036; stroke-width: 1.0;"/><text fill="#000000" font-family="sans-serif" font-size="13" lengthAdjust="spacingAndGlyphs" textLength="121" x="927" y="265.0669">ContactPersonRole</text><text fill="#000000" font-family="sans-serif" font-size="13" lengthAdjust="spacingAndGlyphs" textLength="8" x="798.0068" y="416.8991">1</text><!--link Role to CounterpartyRisk--><path d="M351.453,67.315 C482.996,74.28 722.347,95.302 778,157 C815.652,198.742 803.953,272.983 796.327,305.722 " fill="none" id="Role-CounterpartyRisk" style="stroke: #A80036; stroke-width: 1.0;"/><polygon fill="#A80036" points="795.146,310.609,801.1479,302.8002,796.3203,305.7489,793.3717,300.9213,795.146,310.609" style="stroke: #A80036; stroke-width: 1.0;"/><text fill="#000000" font-family="sans-serif" font-size="13" lengthAdjust="spacingAndGlyphs" textLength="109" x="805" y="197.0669">CounterpartyRisk</text><text fill="#000000" font-family="sans-serif" font-size="13" lengthAdjust="spacingAndGlyphs" textLength="24" x="766.9254" y="300.043">0..1</text><!--link Role to Entry--><path d="M344.546,85.569 C455.531,115.289 649.487,167.227 717.552,185.453 " fill="none" id="Role-Entry" style="stroke: #A80036; stroke-width: 1.0;"/><polygon fill="#A80036" points="722.612,186.808,714.9523,180.6169,717.782,185.5152,712.8838,188.3448,722.612,186.808" style="stroke: #A80036; stroke-width: 1.0;"/><text fill="#000000" font-family="sans-serif" font-size="13" lengthAdjust="spacingAndGlyphs" textLength="33" x="519" y="129.0669">Entry</text><text fill="#000000" font-family="sans-serif" font-size="13" lengthAdjust="spacingAndGlyphs" textLength="8" x="707.0577" y="178.9485">1</text><!--link TradePartyRole to Account--><path d="M351.475,211.666 C396.028,224.839 440.388,247.639 466,287 C494.095,330.175 463.835,393.945 446.874,423.238 " fill="none" id="TradePartyRole-Account" style="stroke: #A80036; stroke-width: 1.0;"/><polygon fill="#A80036" points="444.277,427.635,452.2979,421.9196,446.8196,423.3297,445.4095,417.8515,444.277,427.635" style="stroke: #A80036; stroke-width: 1.0;"/><text fill="#000000" font-family="sans-serif" font-size="13" lengthAdjust="spacingAndGlyphs" textLength="52" x="479" y="327.0669">Account</text><text fill="#000000" font-family="sans-serif" font-size="13" lengthAdjust="spacingAndGlyphs" textLength="7" x="437.1141" y="416.8175">*</text><!--link TradePartyRole to Trade--><path d="M259.622,222.09 C304.874,248.783 371.016,287.798 405.74,308.28 " fill="none" id="TradePartyRole-Trade" style="stroke: #A80036; stroke-width: 1.0;"/><polygon fill="#A80036" points="410.222,310.923,404.5027,302.9049,405.9155,308.3825,400.4379,309.7954,410.222,310.923" style="stroke: #A80036; stroke-width: 1.0;"/><text fill="#000000" font-family="sans-serif" font-size="13" lengthAdjust="spacingAndGlyphs" textLength="36" x="341" y="265.0669">Trade</text><text fill="#000000" font-family="sans-serif" font-size="13" lengthAdjust="spacingAndGlyphs" textLength="7" x="394.0483" y="299.9447">*</text><!--link Broker to Commission--><path d="M187.76,345.701 C184.091,360.669 181.923,380.569 190,396 C196.709,408.817 209.168,418.578 221.167,425.534 " fill="none" id="Broker-Commission" style="stroke: #A80036; stroke-width: 1.0;"/><polygon fill="#A80036" points="225.555,427.971,219.6282,420.1051,221.1836,425.5439,215.7448,427.0993,225.555,427.971" style="stroke: #A80036; stroke-width: 1.0;"/><text fill="#000000" font-family="sans-serif" font-size="13" lengthAdjust="spacingAndGlyphs" textLength="79" x="191" y="391.0669">Commission</text><text fill="#000000" font-family="sans-serif" font-size="13" lengthAdjust="spacingAndGlyphs" textLength="7" x="206.9177" y="417.0092">*</text><!--link Entry to Account--><path d="M730.242,205.298 C699.994,234.137 616.552,312.268 541,370 C513.996,390.634 481.043,411.885 459.567,425.251 " fill="none" id="Entry-Account" style="stroke: #A80036; stroke-width: 1.0;"/><polygon fill="#A80036" points="455.165,427.98,464.9217,426.636,459.4142,425.3448,460.7054,419.8373,455.165,427.98" style="stroke: #A80036; stroke-width: 1.0;"/><text fill="#000000" font-family="sans-serif" font-size="13" lengthAdjust="spacingAndGlyphs" textLength="52" x="642" y="327.0669">Account</text><text fill="#000000" font-family="sans-serif" font-size="13" lengthAdjust="spacingAndGlyphs" textLength="7" x="451.7764" y="417.0213">*</text><!--link Account to Account--><path d="M465.508,431.984 C483.181,430.051 500,432.723 500,440 C500,446.538 486.424,449.359 470.85,448.463 " fill="none" id="Account-Account" style="stroke: #A80036; stroke-width: 1.0;"/><polygon fill="#A80036" points="465.508,448.016,474.1443,452.7504,470.4907,448.4317,474.8094,444.7781,465.508,448.016" style="stroke: #A80036; stroke-width: 1.0;"/><text fill="#000000" font-family="sans-serif" font-size="13" lengthAdjust="spacingAndGlyphs" textLength="94" x="506" y="444.0669">ParentAccount</text><text fill="#000000" font-family="sans-serif" font-size="13" lengthAdjust="spacingAndGlyphs" textLength="8" x="473.7741" y="443.9799">1</text><!--link Trade to Commission--><path d="M417.982,335.156 C406.554,345.99 387.634,361.945 368,370 C343.111,380.212 331.858,365.569 308,378 C287.896,388.475 271.311,409.19 261.538,423.555 " fill="none" id="Trade-Commission" style="stroke: #A80036; stroke-width: 1.0;"/><polygon fill="#A80036" points="258.728,427.791,267.0385,422.5055,261.4936,423.6255,260.3736,418.0806,258.728,427.791" style="stroke: #A80036; stroke-width: 1.0;"/><text fill="#000000" font-family="sans-serif" font-size="13" lengthAdjust="spacingAndGlyphs" textLength="115" x="309" y="391.0669">TradeCommission</text><text fill="#000000" font-family="sans-serif" font-size="13" lengthAdjust="spacingAndGlyphs" textLength="7" x="251.466" y="417.0252">*</text></g></svg>