<?xml version="1.0" encoding="UTF-8" standalone="no"?><svg xmlns="http://www.w3.org/2000/svg" xmlns:xlink="http://www.w3.org/1999/xlink" contentScriptType="application/ecmascript" contentStyleType="text/css" height="612px" preserveAspectRatio="none" style="width:643px;height:612px;" version="1.1" viewBox="0 0 643 612" width="643px" zoomAndPan="magnify"><defs><filter height="300%" id="fb4hm8o58bdgl" width="300%" x="-1" y="-1"><feGaussianBlur result="blurOut" stdDeviation="2.0"/><feColorMatrix in="blurOut" result="blurOut2" type="matrix" values="0 0 0 0 0 0 0 0 0 0 0 0 0 0 0 0 0 0 .4 0"/><feOffset dx="4.0" dy="4.0" in="blurOut2" result="blurOut3"/><feBlend in="SourceGraphic" in2="blurOut3" mode="normal"/></filter></defs><g><!--cluster ##13927--><!--cluster ##13933--><!--cluster ##13936--><!--class ObligationFulfilment--><a target="_top" xlink:actuate="onRequest" xlink:href="../ObligationFulfilment.html" xlink:show="new" xlink:title="Processes by which an obligation is extinguished fully or partially." xlink:type="simple"><rect fill="#FEFEEE" filter="url(#fb4hm8o58bdgl)" height="44.7734" id="ObligationFulfilment" style="stroke: #A80036; stroke-width: 1.5;" width="129" x="223.75" y="40.5"/><rect fill="#FEFEEE" height="23.9688" style="stroke: #A80036; stroke-width: 1.5;" width="129" x="223.75" y="40.5"/><text fill="#000000" font-family="sans-serif" font-size="12" lengthAdjust="spacingAndGlyphs" textLength="123" x="226.75" y="56.6387">ObligationFulfilment</text><line style="stroke: #A80036; stroke-width: 1.5;" x1="224.75" x2="351.75" y1="64.4688" y2="64.4688"/><ellipse cx="234.75" cy="76.3711" fill="#84BE84" rx="3" ry="3" style="stroke: #038048; stroke-width: 1.0;"/><text fill="#000000" font-family="sans-serif" font-size="11" lengthAdjust="spacingAndGlyphs" textLength="26" x="243.75" y="78.6792">Date</text><text fill="#000000" font-family="sans-serif" font-size="11" font-style="italic" lengthAdjust="spacingAndGlyphs" textLength="53" x="273.75" y="78.6792">(ISODate)</text></a><!--class BuyIn--><a target="_top" xlink:actuate="onRequest" xlink:href="../BuyIn.html" xlink:show="new" xlink:title="Process in which the buyer/CCP repurchases shares of stock because the seller either failed to deliver the shares or did not deliver them in a timely fashion. The seller has to make up the price difference if the new shares are more expensive than originally agreed to." xlink:type="simple"><rect fill="#FEFECE" filter="url(#fb4hm8o58bdgl)" height="57.5781" id="BuyIn" style="stroke: #A80036; stroke-width: 1.5;" width="218" x="138" y="164"/><rect fill="#FEFECE" height="23.9688" style="stroke: #A80036; stroke-width: 1.5;" width="218" x="138" y="164"/><text fill="#000000" font-family="sans-serif" font-size="12" lengthAdjust="spacingAndGlyphs" textLength="33" x="230.5" y="180.1387">BuyIn</text><line style="stroke: #A80036; stroke-width: 1.5;" x1="139" x2="355" y1="187.9688" y2="187.9688"/><ellipse cx="149" cy="199.8711" fill="#84BE84" rx="3" ry="3" style="stroke: #038048; stroke-width: 1.0;"/><text fill="#000000" font-family="sans-serif" font-size="11" lengthAdjust="spacingAndGlyphs" textLength="57" x="158" y="202.1792">BuyinDate</text><text fill="#000000" font-family="sans-serif" font-size="11" font-style="italic" lengthAdjust="spacingAndGlyphs" textLength="53" x="219" y="202.1792">(ISODate)</text><ellipse cx="149" cy="212.6758" fill="#84BE84" rx="3" ry="3" style="stroke: #038048; stroke-width: 1.0;"/><text fill="#000000" font-family="sans-serif" font-size="11" lengthAdjust="spacingAndGlyphs" textLength="27" x="158" y="214.9839">Fees</text><text fill="#000000" font-family="sans-serif" font-size="11" font-style="italic" lengthAdjust="spacingAndGlyphs" textLength="161" x="189" y="214.9839">(ActiveCurrencyAndAmount)</text></a><!--class Obligation--><a target="_top" xlink:actuate="onRequest" xlink:href="../Obligation.html" xlink:show="new" xlink:title="Specifies the assets (quantity of securities, goods, services, and cash amounts) that have to be delivered." xlink:type="simple"><rect fill="#EEEEEE" filter="url(#fb4hm8o58bdgl)" height="23.9688" id="Obligation" style="stroke: #A80036; stroke-width: 1.5;" width="69" x="415.75" y="181"/><rect fill="#EEEEEE" height="23.9688" style="stroke: #A80036; stroke-width: 1.5;" width="69" x="415.75" y="181"/><text fill="#000000" font-family="sans-serif" font-size="12" lengthAdjust="spacingAndGlyphs" textLength="63" x="418.75" y="197.1387">Obligation</text></a><!--class SecuritiesQuantity--><a target="_top" xlink:actuate="onRequest" xlink:href="../SecuritiesQuantity.html" xlink:show="new" xlink:title="Quantity of a security." xlink:type="simple"><rect fill="#EEEEEE" filter="url(#fb4hm8o58bdgl)" height="23.9688" id="SecuritiesQuantity" style="stroke: #A80036; stroke-width: 1.5;" width="120" x="271.5" y="578"/><rect fill="#EEEEEE" height="23.9688" style="stroke: #A80036; stroke-width: 1.5;" width="120" x="271.5" y="578"/><text fill="#000000" font-family="sans-serif" font-size="12" lengthAdjust="spacingAndGlyphs" textLength="114" x="274.5" y="594.1387">SecuritiesQuantity</text></a><!--class SecuritiesPricing--><a target="_top" xlink:actuate="onRequest" xlink:href="../SecuritiesPricing.html" xlink:show="new" xlink:title="Characteristics related to the price of the security." xlink:type="simple"><rect fill="#EEEEEE" filter="url(#fb4hm8o58bdgl)" height="23.9688" id="SecuritiesPricing" style="stroke: #A80036; stroke-width: 1.5;" width="110" x="276" y="492"/><rect fill="#EEEEEE" height="23.9688" style="stroke: #A80036; stroke-width: 1.5;" width="110" x="276" y="492"/><text fill="#000000" font-family="sans-serif" font-size="12" lengthAdjust="spacingAndGlyphs" textLength="104" x="279" y="508.1387">SecuritiesPricing</text></a><!--class PaymentObligation--><a target="_top" xlink:actuate="onRequest" xlink:href="../PaymentObligation.html" xlink:show="new" xlink:title="Obligation for the debtor to pay the creditor an amount of cash." xlink:type="simple"><rect fill="#EEEEEE" filter="url(#fb4hm8o58bdgl)" height="23.9688" id="PaymentObligation" style="stroke: #A80036; stroke-width: 1.5;" width="123" x="271.75" y="406"/><rect fill="#EEEEEE" height="23.9688" style="stroke: #A80036; stroke-width: 1.5;" width="123" x="271.75" y="406"/><text fill="#000000" font-family="sans-serif" font-size="12" lengthAdjust="spacingAndGlyphs" textLength="117" x="274.75" y="422.1387">PaymentObligation</text></a><!--class SecuritiesClearing--><a target="_top" xlink:actuate="onRequest" xlink:href="../SecuritiesClearing.html" xlink:show="new" xlink:title="Process of settling securities through a central system." xlink:type="simple"><rect fill="#EEEEEE" filter="url(#fb4hm8o58bdgl)" height="23.9688" id="SecuritiesClearing" style="stroke: #A80036; stroke-width: 1.5;" width="119" x="272.75" y="304"/><rect fill="#EEEEEE" height="23.9688" style="stroke: #A80036; stroke-width: 1.5;" width="119" x="272.75" y="304"/><text fill="#000000" font-family="sans-serif" font-size="12" lengthAdjust="spacingAndGlyphs" textLength="113" x="275.75" y="320.1387">SecuritiesClearing</text></a><!--link ObligationFulfilment to BuyIn--><path d="M258.147,102.446 C255.727,106.847 253.602,111.408 252,116 C246.687,131.232 245.302,149.206 245.308,163.85 " fill="none" id="ObligationFulfilment-BuyIn" style="stroke: #A80036; stroke-width: 1.0;"/><polygon fill="none" points="252.369,98.491,269.164,85.57,264.093,106.144,252.369,98.491" style="stroke: #A80036; stroke-width: 1.0;"/><!--link SecuritiesPricing to SecuritiesQuantity--><!--link PaymentObligation to SecuritiesPricing--><!--link SecuritiesClearing to PaymentObligation--><!--link ObligationFulfilment to Obligation--><path d="M352.557,80.355 C374.097,88.313 396.931,99.78 414,116 C431.36,132.497 441.253,159.056 446.121,176.009 " fill="none" id="ObligationFulfilment-Obligation" style="stroke: #A80036; stroke-width: 1.0;"/><polygon fill="#A80036" points="447.473,180.94,448.9499,171.2025,446.1504,176.1181,441.2348,173.3187,447.473,180.94" style="stroke: #A80036; stroke-width: 1.0;"/><text fill="#000000" font-family="sans-serif" font-size="13" lengthAdjust="spacingAndGlyphs" textLength="102" x="430" y="129.0669">ObligationOffset</text><text fill="#000000" font-family="sans-serif" font-size="13" lengthAdjust="spacingAndGlyphs" textLength="7" x="436.9715" y="169.9676">*</text><!--link ObligationFulfilment to Obligation--><path d="M278.541,85.528 C273.491,100.657 270.279,120.523 281,134 C306.84,166.483 332.798,141.359 372,155 C390.345,161.383 410.105,170.786 425.146,178.515 " fill="none" id="ObligationFulfilment-Obligation" style="stroke: #A80036; stroke-width: 1.0;"/><polygon fill="#A80036" points="429.656,180.854,423.5094,173.1586,425.2178,178.5513,419.8251,180.2598,429.656,180.854" style="stroke: #A80036; stroke-width: 1.0;"/><text fill="#000000" font-family="sans-serif" font-size="13" lengthAdjust="spacingAndGlyphs" textLength="122" x="282" y="129.0669">ResultingObligation</text><text fill="#000000" font-family="sans-serif" font-size="13" lengthAdjust="spacingAndGlyphs" textLength="7" x="413.0299" y="169.852">*</text><!--link BuyIn to SecuritiesQuantity--><path d="M137.782,206.864 C74.0166,221.158 6,251.328 6,315 C6,315 6,315 6,505 C6,558.2456 171.587,578.2765 266.371,585.381 " fill="none" id="BuyIn-SecuritiesQuantity" style="stroke: #A80036; stroke-width: 1.0;"/><polygon fill="#A80036" points="271.39,585.75,262.708,581.0999,266.4035,585.3829,262.1206,589.0784,271.39,585.75" style="stroke: #A80036; stroke-width: 1.0;"/><text fill="#000000" font-family="sans-serif" font-size="13" lengthAdjust="spacingAndGlyphs" textLength="156" x="7" y="422.0669">SecuritiesCompensation</text><text fill="#000000" font-family="sans-serif" font-size="13" lengthAdjust="spacingAndGlyphs" textLength="7" x="256.3233" y="580.4313">*</text><!--link BuyIn to SecuritiesPricing--><path d="M241.233,222.046 C233.215,267.861 222.936,360.598 254,430 C265.308,455.265 289.871,476.021 308.232,488.857 " fill="none" id="BuyIn-SecuritiesPricing" style="stroke: #A80036; stroke-width: 1.0;"/><polygon fill="#A80036" points="312.754,491.948,307.5783,483.5687,308.6252,489.1279,303.0661,490.1748,312.754,491.948" style="stroke: #A80036; stroke-width: 1.0;"/><text fill="#000000" font-family="sans-serif" font-size="13" lengthAdjust="spacingAndGlyphs" textLength="66" x="239" y="371.0669">BuyInPrice</text><text fill="#000000" font-family="sans-serif" font-size="13" lengthAdjust="spacingAndGlyphs" textLength="7" x="296.9351" y="480.9783">*</text><!--link BuyIn to PaymentObligation--><path d="M317.134,222.001 C342.543,231.071 371.707,240.261 399,246 C409.258,248.157 485.909,246.28 493,254 C545.573,311.237 423.868,376.372 363.92,403.764 " fill="none" id="BuyIn-PaymentObligation" style="stroke: #A80036; stroke-width: 1.0;"/><polygon fill="#A80036" points="359.016,405.984,368.8646,405.918,363.5713,403.9227,365.5666,398.6294,359.016,405.984" style="stroke: #A80036; stroke-width: 1.0;"/><text fill="#000000" font-family="sans-serif" font-size="13" lengthAdjust="spacingAndGlyphs" textLength="125" x="506" y="320.0669">CashCompensation</text><text fill="#000000" font-family="sans-serif" font-size="13" lengthAdjust="spacingAndGlyphs" textLength="7" x="358.3262" y="395.0267">*</text><!--link BuyIn to SecuritiesClearing--><path d="M252.001,222.31 C255.817,238.056 262.3,257.367 273,272 C281.652,283.832 294.528,293.75 306.045,301.067 " fill="none" id="BuyIn-SecuritiesClearing" style="stroke: #A80036; stroke-width: 1.0;"/><polygon fill="#A80036" points="310.547,303.842,304.9859,295.7134,306.2911,301.2176,300.7869,302.5228,310.547,303.842" style="stroke: #A80036; stroke-width: 1.0;"/><text fill="#000000" font-family="sans-serif" font-size="13" lengthAdjust="spacingAndGlyphs" textLength="213" x="274" y="267.0669">RelatedSecuritiesClearingProcess</text><text fill="#000000" font-family="sans-serif" font-size="13" lengthAdjust="spacingAndGlyphs" textLength="24" x="273.6178" y="292.8359">0..1</text><!--link Obligation to Obligation--><path d="M482.297,180.998 C501.255,178.441 519,182.441 519,193 C519,202.569 504.426,206.752 487.584,205.548 " fill="none" id="Obligation-Obligation" style="stroke: #A80036; stroke-width: 1.0;"/><polygon fill="#A80036" points="482.297,205.002,490.8379,209.9064,487.2705,205.5162,491.6606,201.9488,482.297,205.002" style="stroke: #A80036; stroke-width: 1.0;"/><text fill="#000000" font-family="sans-serif" font-size="13" lengthAdjust="spacingAndGlyphs" textLength="106" x="525" y="197.0669">ParentObligation</text><text fill="#000000" font-family="sans-serif" font-size="13" lengthAdjust="spacingAndGlyphs" textLength="8" x="484.4539" y="225.1473">1</text></g></svg>