<?xml version="1.0" encoding="UTF-8" standalone="no"?><svg xmlns="http://www.w3.org/2000/svg" xmlns:xlink="http://www.w3.org/1999/xlink" contentScriptType="application/ecmascript" contentStyleType="text/css" height="482px" preserveAspectRatio="none" style="width:581px;height:482px;" version="1.1" viewBox="0 0 581 482" width="581px" zoomAndPan="magnify"><defs><filter height="300%" id="fd5pufaibzyq4" width="300%" x="-1" y="-1"><feGaussianBlur result="blurOut" stdDeviation="2.0"/><feColorMatrix in="blurOut" result="blurOut2" type="matrix" values="0 0 0 0 0 0 0 0 0 0 0 0 0 0 0 0 0 0 .4 0"/><feOffset dx="4.0" dy="4.0" in="blurOut2" result="blurOut3"/><feBlend in="SourceGraphic" in2="blurOut3" mode="normal"/></filter></defs><g><!--cluster ##13086--><!--cluster ##13089--><!--class BuyOrSellIndicationOfInterest--><a target="_top" xlink:actuate="onRequest" xlink:href="../BuyOrSellIndicationOfInterest.html" xlink:show="new" xlink:title="Intention to buy or sell a financial Instrument." xlink:type="simple"><rect fill="#FEFECE" filter="url(#fd5pufaibzyq4)" height="134.4063" id="BuyOrSellIndicationOfInterest" style="stroke: #A80036; stroke-width: 1.5;" width="254" x="148.16" y="40"/><rect fill="#FEFECE" height="23.9688" style="stroke: #A80036; stroke-width: 1.5;" width="254" x="148.16" y="40"/><text fill="#000000" font-family="sans-serif" font-size="12" lengthAdjust="spacingAndGlyphs" textLength="181" x="184.66" y="56.1387">BuyOrSellIndicationOfInterest</text><line style="stroke: #A80036; stroke-width: 1.5;" x1="149.16" x2="401.16" y1="63.9688" y2="63.9688"/><ellipse cx="159.16" cy="75.8711" fill="#84BE84" rx="3" ry="3" style="stroke: #038048; stroke-width: 1.0;"/><text fill="#000000" font-family="sans-serif" font-size="11" lengthAdjust="spacingAndGlyphs" textLength="67" x="168.16" y="78.1792">RelativeSize</text><text fill="#000000" font-family="sans-serif" font-size="11" font-style="italic" lengthAdjust="spacingAndGlyphs" textLength="106" x="239.16" y="78.1792">(RelativeSizeCode)</text><ellipse cx="159.16" cy="88.6758" fill="#84BE84" rx="3" ry="3" style="stroke: #038048; stroke-width: 1.0;"/><text fill="#000000" font-family="sans-serif" font-size="11" lengthAdjust="spacingAndGlyphs" textLength="28" x="168.16" y="90.9839">Price</text><text fill="#000000" font-family="sans-serif" font-size="11" font-style="italic" lengthAdjust="spacingAndGlyphs" textLength="101" x="200.16" y="90.9839">(SecuritiesPricing)</text><ellipse cx="159.16" cy="101.4805" fill="#84BE84" rx="3" ry="3" style="stroke: #038048; stroke-width: 1.0;"/><text fill="#000000" font-family="sans-serif" font-size="11" lengthAdjust="spacingAndGlyphs" textLength="93" x="168.16" y="103.7886">QualityIndication</text><text fill="#000000" font-family="sans-serif" font-size="11" font-style="italic" lengthAdjust="spacingAndGlyphs" textLength="131" x="265.16" y="103.7886">(QualityIndicationCode)</text><ellipse cx="159.16" cy="114.2852" fill="#84BE84" rx="3" ry="3" style="stroke: #038048; stroke-width: 1.0;"/><text fill="#000000" font-family="sans-serif" font-size="11" lengthAdjust="spacingAndGlyphs" textLength="90" x="168.16" y="116.5933">NaturalIndicator</text><text fill="#000000" font-family="sans-serif" font-size="11" font-style="italic" lengthAdjust="spacingAndGlyphs" textLength="112" x="262.16" y="116.5933">(TrueFalseIndicator)</text><ellipse cx="159.16" cy="127.0898" fill="#84BE84" rx="3" ry="3" style="stroke: #038048; stroke-width: 1.0;"/><text fill="#000000" font-family="sans-serif" font-size="11" lengthAdjust="spacingAndGlyphs" textLength="48" x="168.16" y="129.3979">Qualifier</text><text fill="#000000" font-family="sans-serif" font-size="11" font-style="italic" lengthAdjust="spacingAndGlyphs" textLength="85" x="220.16" y="129.3979">(QualifierCode)</text><ellipse cx="159.16" cy="139.8945" fill="#84BE84" rx="3" ry="3" style="stroke: #038048; stroke-width: 1.0;"/><text fill="#000000" font-family="sans-serif" font-size="11" lengthAdjust="spacingAndGlyphs" textLength="85" x="168.16" y="142.2026">NumberOfLegs</text><text fill="#000000" font-family="sans-serif" font-size="11" font-style="italic" lengthAdjust="spacingAndGlyphs" textLength="53" x="257.16" y="142.2026">(Number)</text><ellipse cx="159.16" cy="152.6992" fill="#84BE84" rx="3" ry="3" style="stroke: #038048; stroke-width: 1.0;"/><text fill="#000000" font-family="sans-serif" font-size="11" lengthAdjust="spacingAndGlyphs" textLength="69" x="168.16" y="155.0073">RoutingType</text><text fill="#000000" font-family="sans-serif" font-size="11" font-style="italic" lengthAdjust="spacingAndGlyphs" textLength="108" x="241.16" y="155.0073">(RoutingTypeCode)</text><ellipse cx="159.16" cy="165.5039" fill="#84BE84" rx="3" ry="3" style="stroke: #038048; stroke-width: 1.0;"/><text fill="#000000" font-family="sans-serif" font-size="11" lengthAdjust="spacingAndGlyphs" textLength="126" x="168.16" y="167.812">OrganisationListName</text><text fill="#000000" font-family="sans-serif" font-size="11" font-style="italic" lengthAdjust="spacingAndGlyphs" textLength="70" x="298.16" y="167.812">(Max35Text)</text></a><!--class Negotiation--><a target="_top" xlink:actuate="onRequest" xlink:href="../Negotiation.html" xlink:show="new" xlink:title="Decision making on the transfer of a financial instrument." xlink:type="simple"><rect fill="#EEEEEE" filter="url(#fd5pufaibzyq4)" height="23.9688" id="Negotiation" style="stroke: #A80036; stroke-width: 1.5;" width="79" x="83.9103" y="448"/><rect fill="#EEEEEE" height="23.9688" style="stroke: #A80036; stroke-width: 1.5;" width="79" x="83.9103" y="448"/><text fill="#000000" font-family="sans-serif" font-size="12" lengthAdjust="spacingAndGlyphs" textLength="73" x="86.9103" y="464.1387">Negotiation</text></a><!--class Organisation--><a target="_top" xlink:actuate="onRequest" xlink:href="../Organisation.html" xlink:show="new" xlink:title="Organised structure that is set up for a particular purpose. For example, a business, government body, department, charity, or financial institution." xlink:type="simple"><rect fill="#EEEEEE" filter="url(#fd5pufaibzyq4)" height="23.9688" id="Organisation" style="stroke: #A80036; stroke-width: 1.5;" width="86" x="83.1603" y="360"/><rect fill="#EEEEEE" height="23.9688" style="stroke: #A80036; stroke-width: 1.5;" width="86" x="83.1603" y="360"/><text fill="#000000" font-family="sans-serif" font-size="12" lengthAdjust="spacingAndGlyphs" textLength="80" x="86.1603" y="376.1387">Organisation</text></a><!--class Spread--><a target="_top" xlink:actuate="onRequest" xlink:href="../Spread.html" xlink:show="new" xlink:title="Margin over or under an index which determines a rate." xlink:type="simple"><rect fill="#EEEEEE" filter="url(#fd5pufaibzyq4)" height="23.9688" id="Spread" style="stroke: #A80036; stroke-width: 1.5;" width="51" x="434.91" y="256"/><rect fill="#EEEEEE" height="23.9688" style="stroke: #A80036; stroke-width: 1.5;" width="51" x="434.91" y="256"/><text fill="#000000" font-family="sans-serif" font-size="12" lengthAdjust="spacingAndGlyphs" textLength="45" x="437.91" y="272.1387">Spread</text></a><!--class SecuritiesFinancing--><a target="_top" xlink:actuate="onRequest" xlink:href="../SecuritiesFinancing.html" xlink:show="new" xlink:title="Process of lending or borrowing cash or securities against securities or cash collateral. It aims at optimising liquidity, support a trading strategy, or increase settlement efficiency." xlink:type="simple"><rect fill="#EEEEEE" filter="url(#fd5pufaibzyq4)" height="23.9688" id="SecuritiesFinancing" style="stroke: #A80036; stroke-width: 1.5;" width="128" x="358.16" y="360"/><rect fill="#EEEEEE" height="23.9688" style="stroke: #A80036; stroke-width: 1.5;" width="128" x="358.16" y="360"/><text fill="#000000" font-family="sans-serif" font-size="12" lengthAdjust="spacingAndGlyphs" textLength="122" x="361.16" y="376.1387">SecuritiesFinancing</text></a><!--link Organisation to Negotiation--><!--link Spread to Organisation--><!--link SecuritiesFinancing to Spread--><!--link Spread to SecuritiesFinancing--><path d="M434.691,274.253 C403.388,281.286 353.064,294.668 342.16,310 C327.58,330.501 354.732,347.243 381.271,357.966 " fill="none" id="Spread-SecuritiesFinancing" style="stroke: #A80036; stroke-width: 1.0;"/><polygon fill="#A80036" points="386.209,359.898,379.2842,352.8946,381.5525,358.0768,376.3703,360.3451,386.209,359.898" style="stroke: #A80036; stroke-width: 1.0;"/><text fill="#000000" font-family="sans-serif" font-size="13" lengthAdjust="spacingAndGlyphs" textLength="123" x="343.16" y="323.0669">SecuritiesFinancing</text><text fill="#000000" font-family="sans-serif" font-size="13" lengthAdjust="spacingAndGlyphs" textLength="24" x="344.3821" y="348.9112">0..1</text><!--link BuyOrSellIndicationOfInterest to Negotiation--><path d="M147.919,171.826 C95.7761,205.244 40.9847,251.516 12.1603,310 C-14.8351,364.773 58.7909,420.0158 98.9866,445.0827 " fill="none" id="BuyOrSellIndicationOfInterest-Negotiation" style="stroke: #A80036; stroke-width: 1.0;"/><polygon fill="#A80036" points="103.7138,447.9879,98.1405,439.8677,99.454,445.3699,93.9517,446.6834,103.7138,447.9879" style="stroke: #A80036; stroke-width: 1.0;"/><text fill="#000000" font-family="sans-serif" font-size="13" lengthAdjust="spacingAndGlyphs" textLength="118" x="13.1603" y="323.0669">NegotiationDetails</text><text fill="#000000" font-family="sans-serif" font-size="13" lengthAdjust="spacingAndGlyphs" textLength="8" x="86.2244" y="437.032">1</text><!--link BuyOrSellIndicationOfInterest to Organisation--><path d="M219.71,174.255 C206.073,192.318 192.225,212.344 181.16,232 C157.529,273.98 139.25,328.162 130.987,354.78 " fill="none" id="BuyOrSellIndicationOfInterest-Organisation" style="stroke: #A80036; stroke-width: 1.0;"/><polygon fill="#A80036" points="129.469,359.724,135.9337,352.2938,130.9361,354.9441,128.2859,349.9465,129.469,359.724" style="stroke: #A80036; stroke-width: 1.0;"/><text fill="#000000" font-family="sans-serif" font-size="13" lengthAdjust="spacingAndGlyphs" textLength="88" x="182.16" y="272.0669">Organisations</text><text fill="#000000" font-family="sans-serif" font-size="13" lengthAdjust="spacingAndGlyphs" textLength="23" x="102.4242" y="348.936">1..*</text><!--link BuyOrSellIndicationOfInterest to Spread--><path d="M383.509,174.081 C396.497,184.027 409.066,194.75 420.16,206 C433.465,219.492 444.882,238.051 452.072,251.144 " fill="none" id="BuyOrSellIndicationOfInterest-Spread" style="stroke: #A80036; stroke-width: 1.0;"/><polygon fill="#A80036" points="454.526,255.702,453.7785,245.8815,452.1544,251.3002,446.7357,249.6761,454.526,255.702" style="stroke: #A80036; stroke-width: 1.0;"/><text fill="#000000" font-family="sans-serif" font-size="13" lengthAdjust="spacingAndGlyphs" textLength="134" x="435.16" y="219.0669">SpreadToBenchmark</text><text fill="#000000" font-family="sans-serif" font-size="13" lengthAdjust="spacingAndGlyphs" textLength="8" x="441.9207" y="244.9067">1</text><!--link BuyOrSellIndicationOfInterest to Spread--><path d="M292.229,174.018 C300.35,193.033 312.149,211.89 329.16,224 C343.355,234.105 390.751,226.141 407.16,232 C420.245,236.672 433.289,245.223 443.162,252.704 " fill="none" id="BuyOrSellIndicationOfInterest-Spread" style="stroke: #A80036; stroke-width: 1.0;"/><polygon fill="#A80036" points="447.19,255.83,442.5327,247.1519,443.2401,252.7644,437.6276,253.4718,447.19,255.83" style="stroke: #A80036; stroke-width: 1.0;"/><text fill="#000000" font-family="sans-serif" font-size="13" lengthAdjust="spacingAndGlyphs" textLength="80" x="330.16" y="219.0669">SwapSpread</text><text fill="#000000" font-family="sans-serif" font-size="13" lengthAdjust="spacingAndGlyphs" textLength="8" x="431.9269" y="244.8198">1</text><!--link BuyOrSellIndicationOfInterest to SecuritiesFinancing--><path d="M273.691,174.141 C275.029,206.996 279.836,246.687 293.16,280 C303.163,305.009 309.142,311.154 330.16,328 C346.13,340.8 366.535,350.834 384.067,357.977 " fill="none" id="BuyOrSellIndicationOfInterest-SecuritiesFinancing" style="stroke: #A80036; stroke-width: 1.0;"/><polygon fill="#A80036" points="388.93,359.915,382.051,352.8666,384.2855,358.0635,379.0886,360.2979,388.93,359.915" style="stroke: #A80036; stroke-width: 1.0;"/><text fill="#000000" font-family="sans-serif" font-size="13" lengthAdjust="spacingAndGlyphs" textLength="121" x="294.16" y="272.0669">TwoLegTransaction</text><text fill="#000000" font-family="sans-serif" font-size="13" lengthAdjust="spacingAndGlyphs" textLength="7" x="378.7103" y="348.934">*</text><!--link Organisation to Organisation--><path d="M169.474,363.849 C188.161,363.181 204.16,365.898 204.16,372 C204.16,377.53 191.02,380.279 174.648,380.25 " fill="none" id="Organisation-Organisation" style="stroke: #A80036; stroke-width: 1.0;"/><polygon fill="#A80036" points="169.474,380.151,178.3958,384.3226,174.4731,380.2467,178.5489,376.324,169.474,380.151" style="stroke: #A80036; stroke-width: 1.0;"/><text fill="#000000" font-family="sans-serif" font-size="13" lengthAdjust="spacingAndGlyphs" textLength="123" x="210.16" y="376.0669">ParentOrganisation</text><text fill="#000000" font-family="sans-serif" font-size="13" lengthAdjust="spacingAndGlyphs" textLength="8" x="177.0146" y="376.1753">1</text></g></svg>