<?xml version="1.0" encoding="UTF-8" standalone="no"?><svg xmlns="http://www.w3.org/2000/svg" xmlns:xlink="http://www.w3.org/1999/xlink" contentScriptType="application/ecmascript" contentStyleType="text/css" height="518px" preserveAspectRatio="none" style="width:791px;height:518px;" version="1.1" viewBox="0 0 791 518" width="791px" zoomAndPan="magnify"><defs><filter height="300%" id="f1g40hqz4ip193" width="300%" x="-1" y="-1"><feGaussianBlur result="blurOut" stdDeviation="2.0"/><feColorMatrix in="blurOut" result="blurOut2" type="matrix" values="0 0 0 0 0 0 0 0 0 0 0 0 0 0 0 0 0 0 .4 0"/><feOffset dx="4.0" dy="4.0" in="blurOut2" result="blurOut3"/><feBlend in="SourceGraphic" in2="blurOut3" mode="normal"/></filter></defs><g><!--cluster ##4175--><!--cluster ##4184--><!--cluster ##4193--><!--cluster ##4196--><!--class Role--><a target="_top" xlink:actuate="onRequest" xlink:href="../Role.html" xlink:show="new" xlink:title="Role of a party in an activity." xlink:type="simple"><rect fill="#FEFEEE" filter="url(#f1g40hqz4ip193)" height="44.7734" id="Role" style="stroke: #A80036; stroke-width: 1.5;" width="175" x="44.75" y="40.5"/><rect fill="#FEFEEE" height="23.9688" style="stroke: #A80036; stroke-width: 1.5;" width="175" x="44.75" y="40.5"/><text fill="#000000" font-family="sans-serif" font-size="12" lengthAdjust="spacingAndGlyphs" textLength="27" x="118.75" y="56.6387">Role</text><line style="stroke: #A80036; stroke-width: 1.5;" x1="45.75" x2="218.75" y1="64.4688" y2="64.4688"/><ellipse cx="55.75" cy="76.3711" fill="#84BE84" rx="3" ry="3" style="stroke: #038048; stroke-width: 1.0;"/><text fill="#000000" font-family="sans-serif" font-size="11" lengthAdjust="spacingAndGlyphs" textLength="53" x="64.75" y="78.6792">PartyRole</text><text fill="#000000" font-family="sans-serif" font-size="11" font-style="italic" lengthAdjust="spacingAndGlyphs" textLength="92" x="121.75" y="78.6792">(PartyRoleCode)</text></a><!--class CardPaymentPartyRole--><a target="_top" xlink:actuate="onRequest" xlink:href="../CardPaymentPartyRole.html" xlink:show="new" xlink:title="Role played by a party in the context of a payment by card." xlink:type="simple"><rect fill="#FEFEEE" filter="url(#f1g40hqz4ip193)" height="44.7734" id="CardPaymentPartyRole" style="stroke: #A80036; stroke-width: 1.5;" width="181" x="38.75" y="164.5"/><rect fill="#FEFEEE" height="23.9688" style="stroke: #A80036; stroke-width: 1.5;" width="181" x="38.75" y="164.5"/><text fill="#000000" font-family="sans-serif" font-size="12" lengthAdjust="spacingAndGlyphs" textLength="142" x="58.25" y="180.6387">CardPaymentPartyRole</text><line style="stroke: #A80036; stroke-width: 1.5;" x1="39.75" x2="218.75" y1="188.4688" y2="188.4688"/><ellipse cx="49.75" cy="200.3711" fill="#84BE84" rx="3" ry="3" style="stroke: #038048; stroke-width: 1.0;"/><text fill="#000000" font-family="sans-serif" font-size="11" lengthAdjust="spacingAndGlyphs" textLength="56" x="58.75" y="202.6792">PartyType</text><text fill="#000000" font-family="sans-serif" font-size="11" font-style="italic" lengthAdjust="spacingAndGlyphs" textLength="95" x="118.75" y="202.6792">(PartyTypeCode)</text></a><!--class CardholderRole--><a target="_top" xlink:actuate="onRequest" xlink:href="../CardholderRole.html" xlink:show="new" xlink:title="Party entitled by a card issuer to use a card." xlink:type="simple"><rect fill="#FEFECE" filter="url(#f1g40hqz4ip193)" height="23.9688" id="CardholderRole" style="stroke: #A80036; stroke-width: 1.5;" width="102" x="78.5" y="290"/><rect fill="#FEFECE" height="23.9688" style="stroke: #A80036; stroke-width: 1.5;" width="102" x="78.5" y="290"/><text fill="#000000" font-family="sans-serif" font-size="12" lengthAdjust="spacingAndGlyphs" textLength="96" x="81.5" y="306.1387">CardholderRole</text></a><!--class RolePlayer--><a target="_top" xlink:actuate="onRequest" xlink:href="../RolePlayer.html" xlink:show="new" xlink:title="Type of entity that plays a specific role in a specific context." xlink:type="simple"><rect fill="#EEEEEE" filter="url(#f1g40hqz4ip193)" height="23.9688" id="RolePlayer" style="stroke: #A80036; stroke-width: 1.5;" width="71" x="513.75" y="484"/><rect fill="#EEEEEE" height="23.9688" style="stroke: #A80036; stroke-width: 1.5;" width="71" x="513.75" y="484"/><text fill="#000000" font-family="sans-serif" font-size="12" lengthAdjust="spacingAndGlyphs" textLength="65" x="516.75" y="500.1387">RolePlayer</text></a><!--class ContactPersonRole--><a target="_top" xlink:actuate="onRequest" xlink:href="../ContactPersonRole.html" xlink:show="new" xlink:title="Person to be contacted in a given organisation. In the corporate action domain (including meeting notifications) , it is the contact person at the party organising the meeting, at the issuer or at an intermediary." xlink:type="simple"><rect fill="#EEEEEE" filter="url(#f1g40hqz4ip193)" height="23.9688" id="ContactPersonRole" style="stroke: #A80036; stroke-width: 1.5;" width="126" x="506" y="396"/><rect fill="#EEEEEE" height="23.9688" style="stroke: #A80036; stroke-width: 1.5;" width="126" x="506" y="396"/><text fill="#000000" font-family="sans-serif" font-size="12" lengthAdjust="spacingAndGlyphs" textLength="120" x="509" y="412.1387">ContactPersonRole</text></a><!--class CounterpartyRisk--><a target="_top" xlink:actuate="onRequest" xlink:href="../CounterpartyRisk.html" xlink:show="new" xlink:title="Calculation of the exposure amount that one party has vis-a-vis one counterparty or a central system, based on its credit risk." xlink:type="simple"><rect fill="#EEEEEE" filter="url(#f1g40hqz4ip193)" height="23.9688" id="CounterpartyRisk" style="stroke: #A80036; stroke-width: 1.5;" width="113" x="512.75" y="290"/><rect fill="#EEEEEE" height="23.9688" style="stroke: #A80036; stroke-width: 1.5;" width="113" x="512.75" y="290"/><text fill="#000000" font-family="sans-serif" font-size="12" lengthAdjust="spacingAndGlyphs" textLength="107" x="515.75" y="306.1387">CounterpartyRisk</text></a><!--class Entry--><a target="_top" xlink:actuate="onRequest" xlink:href="../Entry.html" xlink:show="new" xlink:title="Posting to an account that results in an increase or decrease to a balance." xlink:type="simple"><rect fill="#EEEEEE" filter="url(#f1g40hqz4ip193)" height="23.9688" id="Entry" style="stroke: #A80036; stroke-width: 1.5;" width="38" x="588" y="175"/><rect fill="#EEEEEE" height="23.9688" style="stroke: #A80036; stroke-width: 1.5;" width="38" x="588" y="175"/><text fill="#000000" font-family="sans-serif" font-size="12" lengthAdjust="spacingAndGlyphs" textLength="32" x="591" y="191.1387">Entry</text></a><!--class CardPayment--><a target="_top" xlink:actuate="onRequest" xlink:href="../CardPayment.html" xlink:show="new" xlink:title="Payment through an electronic money product." xlink:type="simple"><rect fill="#EEEEEE" filter="url(#f1g40hqz4ip193)" height="23.9688" id="CardPayment" style="stroke: #A80036; stroke-width: 1.5;" width="89" x="275.75" y="290"/><rect fill="#EEEEEE" height="23.9688" style="stroke: #A80036; stroke-width: 1.5;" width="89" x="275.75" y="290"/><text fill="#000000" font-family="sans-serif" font-size="12" lengthAdjust="spacingAndGlyphs" textLength="83" x="278.75" y="306.1387">CardPayment</text></a><!--class Authentication--><a target="_top" xlink:actuate="onRequest" xlink:href="../Authentication.html" xlink:show="new" xlink:title="Data related to the authentication of the cardholder." xlink:type="simple"><rect fill="#EEEEEE" filter="url(#f1g40hqz4ip193)" height="23.9688" id="Authentication" style="stroke: #A80036; stroke-width: 1.5;" width="98" x="80.5" y="396"/><rect fill="#EEEEEE" height="23.9688" style="stroke: #A80036; stroke-width: 1.5;" width="98" x="80.5" y="396"/><text fill="#000000" font-family="sans-serif" font-size="12" lengthAdjust="spacingAndGlyphs" textLength="92" x="83.5" y="412.1387">Authentication</text></a><!--link Role to CardPaymentPartyRole--><path d="M130.976,105.631 C130.492,125.329 129.934,148.033 129.534,164.275 " fill="none" id="Role-CardPaymentPartyRole" style="stroke: #A80036; stroke-width: 1.0;"/><polygon fill="none" points="123.981,105.352,131.471,85.53,137.977,105.696,123.981,105.352" style="stroke: #A80036; stroke-width: 1.0;"/><!--link CardPaymentPartyRole to CardholderRole--><path d="M129,229.559 C129,251.159 129,275.898 129,289.865 " fill="none" id="CardPaymentPartyRole-CardholderRole" style="stroke: #A80036; stroke-width: 1.0;"/><polygon fill="none" points="122,229.52,129,209.52,136,229.52,122,229.52" style="stroke: #A80036; stroke-width: 1.0;"/><!--link ContactPersonRole to RolePlayer--><!--link CounterpartyRisk to ContactPersonRole--><!--link Entry to CounterpartyRisk--><!--link Role to RolePlayer--><path d="M165.096,85.524 C215.663,119.528 313.301,189.7 380,266 C441.054,335.842 428.682,373.522 489,444 C500.9,457.9043 516.761,471.2126 529.187,480.7462 " fill="none" id="Role-RolePlayer" style="stroke: #A80036; stroke-width: 1.0;"/><polygon fill="#A80036" points="533.258,483.83,528.4984,475.2076,529.2721,480.8113,523.6684,481.585,533.258,483.83" style="stroke: #A80036; stroke-width: 1.0;"/><text fill="#000000" font-family="sans-serif" font-size="13" lengthAdjust="spacingAndGlyphs" textLength="39" x="428" y="306.0669">Player</text><text fill="#000000" font-family="sans-serif" font-size="13" lengthAdjust="spacingAndGlyphs" textLength="7" x="518.2139" y="472.8198">*</text><!--link Role to ContactPersonRole--><path d="M219.368,64.129 C353.538,66.577 599.532,80.776 644,151 C656.043,170.018 667.59,282.05 643,338 C632.641,361.571 609.884,380.771 592.323,392.878 " fill="none" id="Role-ContactPersonRole" style="stroke: #A80036; stroke-width: 1.0;"/><polygon fill="#A80036" points="587.981,395.801,597.6804,394.0915,592.1282,393.0081,593.2117,387.456,587.981,395.801" style="stroke: #A80036; stroke-width: 1.0;"/><text fill="#000000" font-family="sans-serif" font-size="13" lengthAdjust="spacingAndGlyphs" textLength="121" x="658" y="253.0669">ContactPersonRole</text><text fill="#000000" font-family="sans-serif" font-size="13" lengthAdjust="spacingAndGlyphs" textLength="8" x="583.6122" y="385.0385">1</text><!--link Role to CounterpartyRisk--><path d="M219.343,68.494 C269.041,74.325 330.791,87.325 379,116 C426.149,144.045 419.939,171.48 459,210 C488.904,239.49 527.416,269.811 550.037,286.942 " fill="none" id="Role-CounterpartyRisk" style="stroke: #A80036; stroke-width: 1.0;"/><polygon fill="#A80036" points="554.071,289.984,549.2956,281.3703,550.0796,286.9726,544.4773,287.7566,554.071,289.984" style="stroke: #A80036; stroke-width: 1.0;"/><text fill="#000000" font-family="sans-serif" font-size="13" lengthAdjust="spacingAndGlyphs" textLength="109" x="460" y="191.0669">CounterpartyRisk</text><text fill="#000000" font-family="sans-serif" font-size="13" lengthAdjust="spacingAndGlyphs" textLength="24" x="519.3845" y="279.0267">0..1</text><!--link Role to Entry--><path d="M219.4,72.658 C287.584,80.587 384.28,94.418 467,116 C510.136,127.254 521.951,129.493 561,151 C571.424,156.741 582.062,164.674 590.479,171.537 " fill="none" id="Role-Entry" style="stroke: #A80036; stroke-width: 1.0;"/><polygon fill="#A80036" points="594.421,174.805,590.0464,165.981,590.5722,171.6134,584.9398,172.1391,594.421,174.805" style="stroke: #A80036; stroke-width: 1.0;"/><text fill="#000000" font-family="sans-serif" font-size="13" lengthAdjust="spacingAndGlyphs" textLength="33" x="527" y="129.0669">Entry</text><text fill="#000000" font-family="sans-serif" font-size="13" lengthAdjust="spacingAndGlyphs" textLength="8" x="579.598" y="164.0438">1</text><!--link CardPaymentPartyRole to CardPayment--><path d="M165.375,209.52 C203.958,232.347 263.768,267.732 296.545,287.123 " fill="none" id="CardPaymentPartyRole-CardPayment" style="stroke: #A80036; stroke-width: 1.0;"/><polygon fill="#A80036" points="301.179,289.865,295.4699,281.8397,296.8757,287.319,291.3964,288.7249,301.179,289.865" style="stroke: #A80036; stroke-width: 1.0;"/><text fill="#000000" font-family="sans-serif" font-size="13" lengthAdjust="spacingAndGlyphs" textLength="87" x="249" y="253.0669">CardPayment</text><text fill="#000000" font-family="sans-serif" font-size="13" lengthAdjust="spacingAndGlyphs" textLength="7" x="285.0765" y="278.8668">*</text><!--link CardholderRole to Authentication--><path d="M129,314.13 C129,332.583 129,369.586 129,390.892 " fill="none" id="CardholderRole-Authentication" style="stroke: #A80036; stroke-width: 1.0;"/><polygon fill="#A80036" points="129,395.95,133,386.95,129,390.95,125,386.95,129,395.95" style="stroke: #A80036; stroke-width: 1.0;"/><text fill="#000000" font-family="sans-serif" font-size="13" lengthAdjust="spacingAndGlyphs" textLength="93" x="130" y="359.0669">Authentication</text><text fill="#000000" font-family="sans-serif" font-size="13" lengthAdjust="spacingAndGlyphs" textLength="7" x="119.2813" y="384.981">*</text></g></svg>