<?xml version="1.0" encoding="UTF-8" standalone="no"?><svg xmlns="http://www.w3.org/2000/svg" xmlns:xlink="http://www.w3.org/1999/xlink" contentScriptType="application/ecmascript" contentStyleType="text/css" height="498px" preserveAspectRatio="none" style="width:769px;height:498px;" version="1.1" viewBox="0 0 769 498" width="769px" zoomAndPan="magnify"><defs><filter height="300%" id="f1q5bqy9551hqm" width="300%" x="-1" y="-1"><feGaussianBlur result="blurOut" stdDeviation="2.0"/><feColorMatrix in="blurOut" result="blurOut2" type="matrix" values="0 0 0 0 0 0 0 0 0 0 0 0 0 0 0 0 0 0 .4 0"/><feOffset dx="4.0" dy="4.0" in="blurOut2" result="blurOut3"/><feBlend in="SourceGraphic" in2="blurOut3" mode="normal"/></filter></defs><g><!--cluster ##4149--><!--cluster ##4158--><!--cluster ##4167--><!--class Role--><a target="_top" xlink:actuate="onRequest" xlink:href="../Role.html" xlink:show="new" xlink:title="Role of a party in an activity." xlink:type="simple"><rect fill="#FEFEEE" filter="url(#f1q5bqy9551hqm)" height="44.7734" id="Role" style="stroke: #A80036; stroke-width: 1.5;" width="175" x="44.75" y="40.5"/><rect fill="#FEFEEE" height="23.9688" style="stroke: #A80036; stroke-width: 1.5;" width="175" x="44.75" y="40.5"/><text fill="#000000" font-family="sans-serif" font-size="12" lengthAdjust="spacingAndGlyphs" textLength="27" x="118.75" y="56.6387">Role</text><line style="stroke: #A80036; stroke-width: 1.5;" x1="45.75" x2="218.75" y1="64.4688" y2="64.4688"/><ellipse cx="55.75" cy="76.3711" fill="#84BE84" rx="3" ry="3" style="stroke: #038048; stroke-width: 1.0;"/><text fill="#000000" font-family="sans-serif" font-size="11" lengthAdjust="spacingAndGlyphs" textLength="53" x="64.75" y="78.6792">PartyRole</text><text fill="#000000" font-family="sans-serif" font-size="11" font-style="italic" lengthAdjust="spacingAndGlyphs" textLength="92" x="121.75" y="78.6792">(PartyRoleCode)</text></a><!--class CardPaymentPartyRole--><a target="_top" xlink:actuate="onRequest" xlink:href="../CardPaymentPartyRole.html" xlink:show="new" xlink:title="Role played by a party in the context of a payment by card." xlink:type="simple"><rect fill="#FEFECE" filter="url(#f1q5bqy9551hqm)" height="44.7734" id="CardPaymentPartyRole" style="stroke: #A80036; stroke-width: 1.5;" width="181" x="38.75" y="164.5"/><rect fill="#FEFECE" height="23.9688" style="stroke: #A80036; stroke-width: 1.5;" width="181" x="38.75" y="164.5"/><text fill="#000000" font-family="sans-serif" font-size="12" lengthAdjust="spacingAndGlyphs" textLength="142" x="58.25" y="180.6387">CardPaymentPartyRole</text><line style="stroke: #A80036; stroke-width: 1.5;" x1="39.75" x2="218.75" y1="188.4688" y2="188.4688"/><ellipse cx="49.75" cy="200.3711" fill="#84BE84" rx="3" ry="3" style="stroke: #038048; stroke-width: 1.0;"/><text fill="#000000" font-family="sans-serif" font-size="11" lengthAdjust="spacingAndGlyphs" textLength="56" x="58.75" y="202.6792">PartyType</text><text fill="#000000" font-family="sans-serif" font-size="11" font-style="italic" lengthAdjust="spacingAndGlyphs" textLength="95" x="118.75" y="202.6792">(PartyTypeCode)</text></a><!--class CardholderRole--><a target="_top" xlink:actuate="onRequest" xlink:href="../CardholderRole.html" xlink:show="new" xlink:title="Party entitled by a card issuer to use a card." xlink:type="simple"><rect fill="#FEFEEE" filter="url(#f1q5bqy9551hqm)" height="23.9688" id="CardholderRole" style="stroke: #A80036; stroke-width: 1.5;" width="102" x="78.5" y="290"/><rect fill="#FEFEEE" height="23.9688" style="stroke: #A80036; stroke-width: 1.5;" width="102" x="78.5" y="290"/><text fill="#000000" font-family="sans-serif" font-size="12" lengthAdjust="spacingAndGlyphs" textLength="96" x="81.5" y="306.1387">CardholderRole</text></a><!--class RolePlayer--><a target="_top" xlink:actuate="onRequest" xlink:href="../RolePlayer.html" xlink:show="new" xlink:title="Type of entity that plays a specific role in a specific context." xlink:type="simple"><rect fill="#EEEEEE" filter="url(#f1q5bqy9551hqm)" height="23.9688" id="RolePlayer" style="stroke: #A80036; stroke-width: 1.5;" width="71" x="578.75" y="464"/><rect fill="#EEEEEE" height="23.9688" style="stroke: #A80036; stroke-width: 1.5;" width="71" x="578.75" y="464"/><text fill="#000000" font-family="sans-serif" font-size="12" lengthAdjust="spacingAndGlyphs" textLength="65" x="581.75" y="480.1387">RolePlayer</text></a><!--class ContactPersonRole--><a target="_top" xlink:actuate="onRequest" xlink:href="../ContactPersonRole.html" xlink:show="new" xlink:title="Person to be contacted in a given organisation. In the corporate action domain (including meeting notifications) , it is the contact person at the party organising the meeting, at the issuer or at an intermediary." xlink:type="simple"><rect fill="#EEEEEE" filter="url(#f1q5bqy9551hqm)" height="23.9688" id="ContactPersonRole" style="stroke: #A80036; stroke-width: 1.5;" width="126" x="571" y="378"/><rect fill="#EEEEEE" height="23.9688" style="stroke: #A80036; stroke-width: 1.5;" width="126" x="571" y="378"/><text fill="#000000" font-family="sans-serif" font-size="12" lengthAdjust="spacingAndGlyphs" textLength="120" x="574" y="394.1387">ContactPersonRole</text></a><!--class CounterpartyRisk--><a target="_top" xlink:actuate="onRequest" xlink:href="../CounterpartyRisk.html" xlink:show="new" xlink:title="Calculation of the exposure amount that one party has vis-a-vis one counterparty or a central system, based on its credit risk." xlink:type="simple"><rect fill="#EEEEEE" filter="url(#f1q5bqy9551hqm)" height="23.9688" id="CounterpartyRisk" style="stroke: #A80036; stroke-width: 1.5;" width="113" x="583.75" y="290"/><rect fill="#EEEEEE" height="23.9688" style="stroke: #A80036; stroke-width: 1.5;" width="113" x="583.75" y="290"/><text fill="#000000" font-family="sans-serif" font-size="12" lengthAdjust="spacingAndGlyphs" textLength="107" x="586.75" y="306.1387">CounterpartyRisk</text></a><!--class Entry--><a target="_top" xlink:actuate="onRequest" xlink:href="../Entry.html" xlink:show="new" xlink:title="Posting to an account that results in an increase or decrease to a balance." xlink:type="simple"><rect fill="#EEEEEE" filter="url(#f1q5bqy9551hqm)" height="23.9688" id="Entry" style="stroke: #A80036; stroke-width: 1.5;" width="38" x="571" y="175"/><rect fill="#EEEEEE" height="23.9688" style="stroke: #A80036; stroke-width: 1.5;" width="38" x="571" y="175"/><text fill="#000000" font-family="sans-serif" font-size="12" lengthAdjust="spacingAndGlyphs" textLength="32" x="574" y="191.1387">Entry</text></a><!--class CardPayment--><a target="_top" xlink:actuate="onRequest" xlink:href="../CardPayment.html" xlink:show="new" xlink:title="Payment through an electronic money product." xlink:type="simple"><rect fill="#EEEEEE" filter="url(#f1q5bqy9551hqm)" height="23.9688" id="CardPayment" style="stroke: #A80036; stroke-width: 1.5;" width="89" x="275.75" y="290"/><rect fill="#EEEEEE" height="23.9688" style="stroke: #A80036; stroke-width: 1.5;" width="89" x="275.75" y="290"/><text fill="#000000" font-family="sans-serif" font-size="12" lengthAdjust="spacingAndGlyphs" textLength="83" x="278.75" y="306.1387">CardPayment</text></a><!--link Role to CardPaymentPartyRole--><path d="M130.976,105.631 C130.492,125.329 129.934,148.033 129.534,164.275 " fill="none" id="Role-CardPaymentPartyRole" style="stroke: #A80036; stroke-width: 1.0;"/><polygon fill="none" points="123.981,105.352,131.471,85.53,137.977,105.696,123.981,105.352" style="stroke: #A80036; stroke-width: 1.0;"/><!--link CardPaymentPartyRole to CardholderRole--><path d="M129,229.559 C129,251.159 129,275.898 129,289.865 " fill="none" id="CardPaymentPartyRole-CardholderRole" style="stroke: #A80036; stroke-width: 1.0;"/><polygon fill="none" points="122,229.52,129,209.52,136,229.52,122,229.52" style="stroke: #A80036; stroke-width: 1.0;"/><!--link ContactPersonRole to RolePlayer--><!--link CounterpartyRisk to ContactPersonRole--><!--link Entry to CounterpartyRisk--><!--link Role to RolePlayer--><path d="M219.64,81.553 C309.128,102.058 435,139.216 435,186 C435,186 435,186 435,391 C435,451.8572 520.842,468.7099 573.634,473.3199 " fill="none" id="Role-RolePlayer" style="stroke: #A80036; stroke-width: 1.0;"/><polygon fill="#A80036" points="578.635,473.7288,569.9919,469.0068,573.6517,473.3202,569.3382,476.98,578.635,473.7288" style="stroke: #A80036; stroke-width: 1.0;"/><text fill="#000000" font-family="sans-serif" font-size="13" lengthAdjust="spacingAndGlyphs" textLength="39" x="436" y="306.0669">Player</text><text fill="#000000" font-family="sans-serif" font-size="13" lengthAdjust="spacingAndGlyphs" textLength="7" x="563.7402" y="467.9585">*</text><!--link Role to ContactPersonRole--><path d="M219.517,67.86 C304.326,73.321 425.232,86.207 461,116 C512.411,158.822 480.673,198.359 511,258 C530.557,296.461 536.125,306.868 566,338 C579.704,352.281 597.714,365.597 611.757,375.039 " fill="none" id="Role-ContactPersonRole" style="stroke: #A80036; stroke-width: 1.0;"/><polygon fill="#A80036" points="615.978,377.842,610.6906,369.5328,611.8118,375.0774,606.2672,376.1987,615.978,377.842" style="stroke: #A80036; stroke-width: 1.0;"/><text fill="#000000" font-family="sans-serif" font-size="13" lengthAdjust="spacingAndGlyphs" textLength="121" x="512" y="253.0669">ContactPersonRole</text><text fill="#000000" font-family="sans-serif" font-size="13" lengthAdjust="spacingAndGlyphs" textLength="8" x="599.0642" y="366.8359">1</text><!--link Role to CounterpartyRisk--><path d="M219.417,64.461 C338.46,66.611 543.875,76.196 606,116 C637.42,136.131 652.361,235.531 653,240 C655.201,255.382 650.85,272.686 646.6,284.924 " fill="none" id="Role-CounterpartyRisk" style="stroke: #A80036; stroke-width: 1.0;"/><polygon fill="#A80036" points="644.805,289.839,651.6508,282.7584,646.5209,285.1427,644.1366,280.0128,644.805,289.839" style="stroke: #A80036; stroke-width: 1.0;"/><text fill="#000000" font-family="sans-serif" font-size="13" lengthAdjust="spacingAndGlyphs" textLength="109" x="648" y="191.0669">CounterpartyRisk</text><text fill="#000000" font-family="sans-serif" font-size="13" lengthAdjust="spacingAndGlyphs" textLength="24" x="616.902" y="278.8319">0..1</text><!--link Role to Entry--><path d="M219.427,66.546 C323.976,71.035 491.462,83.245 544,116 C564.13,128.55 577.283,153.528 584.178,170.001 " fill="none" id="Role-Entry" style="stroke: #A80036; stroke-width: 1.0;"/><polygon fill="#A80036" points="586.118,174.816,586.468,164.9734,584.251,170.1777,579.0466,167.9606,586.118,174.816" style="stroke: #A80036; stroke-width: 1.0;"/><text fill="#000000" font-family="sans-serif" font-size="13" lengthAdjust="spacingAndGlyphs" textLength="33" x="563" y="129.0669">Entry</text><text fill="#000000" font-family="sans-serif" font-size="13" lengthAdjust="spacingAndGlyphs" textLength="8" x="574.1758" y="164.0585">1</text><!--link CardPaymentPartyRole to CardPayment--><path d="M165.375,209.52 C203.958,232.347 263.768,267.732 296.545,287.123 " fill="none" id="CardPaymentPartyRole-CardPayment" style="stroke: #A80036; stroke-width: 1.0;"/><polygon fill="#A80036" points="301.179,289.865,295.4699,281.8397,296.8757,287.319,291.3964,288.7249,301.179,289.865" style="stroke: #A80036; stroke-width: 1.0;"/><text fill="#000000" font-family="sans-serif" font-size="13" lengthAdjust="spacingAndGlyphs" textLength="87" x="249" y="253.0669">CardPayment</text><text fill="#000000" font-family="sans-serif" font-size="13" lengthAdjust="spacingAndGlyphs" textLength="7" x="285.0765" y="278.8668">*</text></g></svg>