<?xml version="1.0" encoding="UTF-8" standalone="no"?><svg xmlns="http://www.w3.org/2000/svg" xmlns:xlink="http://www.w3.org/1999/xlink" contentScriptType="application/ecmascript" contentStyleType="text/css" height="634px" preserveAspectRatio="none" style="width:1508px;height:634px;" version="1.1" viewBox="0 0 1508 634" width="1508px" zoomAndPan="magnify"><defs><filter height="300%" id="fnq2413kmaumd" width="300%" x="-1" y="-1"><feGaussianBlur result="blurOut" stdDeviation="2.0"/><feColorMatrix in="blurOut" result="blurOut2" type="matrix" values="0 0 0 0 0 0 0 0 0 0 0 0 0 0 0 0 0 0 .4 0"/><feOffset dx="4.0" dy="4.0" in="blurOut2" result="blurOut3"/><feBlend in="SourceGraphic" in2="blurOut3" mode="normal"/></filter></defs><g><!--cluster ##6705--><!--cluster ##6720--><!--cluster ##6729--><!--class AccountService--><a target="_top" xlink:actuate="onRequest" xlink:href="../AccountService.html" xlink:show="new" xlink:title="Services linked to an account which are available to the account owner or to the holder of a mandate." xlink:type="simple"><rect fill="#FEFEEE" filter="url(#fnq2413kmaumd)" height="23.9688" id="AccountService" style="stroke: #A80036; stroke-width: 1.5;" width="102" x="409.5" y="40"/><rect fill="#FEFEEE" height="23.9688" style="stroke: #A80036; stroke-width: 1.5;" width="102" x="409.5" y="40"/><text fill="#000000" font-family="sans-serif" font-size="12" lengthAdjust="spacingAndGlyphs" textLength="96" x="412.5" y="56.1387">AccountService</text></a><!--class CashAccountService--><a target="_top" xlink:actuate="onRequest" xlink:href="../CashAccountService.html" xlink:show="new" xlink:title="Services linked to an account which are available to the account owner or to the holder of a mandate. The exercise of these services may be submitted to a limit." xlink:type="simple"><rect fill="#FEFECE" filter="url(#fnq2413kmaumd)" height="83.1875" id="CashAccountService" style="stroke: #A80036; stroke-width: 1.5;" width="312" x="199" y="142.5"/><rect fill="#FEFECE" height="23.9688" style="stroke: #A80036; stroke-width: 1.5;" width="312" x="199" y="142.5"/><text fill="#000000" font-family="sans-serif" font-size="12" lengthAdjust="spacingAndGlyphs" textLength="127" x="291.5" y="158.6387">CashAccountService</text><line style="stroke: #A80036; stroke-width: 1.5;" x1="200" x2="510" y1="166.4688" y2="166.4688"/><ellipse cx="210" cy="178.3711" fill="#84BE84" rx="3" ry="3" style="stroke: #038048; stroke-width: 1.0;"/><text fill="#000000" font-family="sans-serif" font-size="11" lengthAdjust="spacingAndGlyphs" textLength="123" x="219" y="180.6792">CompensationMethod</text><text fill="#000000" font-family="sans-serif" font-size="11" font-style="italic" lengthAdjust="spacingAndGlyphs" textLength="159" x="346" y="180.6792">(CompensationMethodCode)</text><ellipse cx="210" cy="191.1758" fill="#84BE84" rx="3" ry="3" style="stroke: #038048; stroke-width: 1.0;"/><text fill="#000000" font-family="sans-serif" font-size="11" lengthAdjust="spacingAndGlyphs" textLength="85" x="219" y="193.4839">BillingCurrency</text><text fill="#000000" font-family="sans-serif" font-size="11" font-style="italic" lengthAdjust="spacingAndGlyphs" textLength="151" x="308" y="193.4839">(BillingCurrencyTypeCode)</text><ellipse cx="210" cy="203.9805" fill="#84BE84" rx="3" ry="3" style="stroke: #038048; stroke-width: 1.0;"/><text fill="#000000" font-family="sans-serif" font-size="11" lengthAdjust="spacingAndGlyphs" textLength="116" x="219" y="206.2886">BillingChargeMethod</text><text fill="#000000" font-family="sans-serif" font-size="11" font-style="italic" lengthAdjust="spacingAndGlyphs" textLength="153" x="339" y="206.2886">(BillingChargeMethodCode)</text><ellipse cx="210" cy="216.7852" fill="#84BE84" rx="3" ry="3" style="stroke: #038048; stroke-width: 1.0;"/><text fill="#000000" font-family="sans-serif" font-size="11" lengthAdjust="spacingAndGlyphs" textLength="90" x="219" y="219.0933">PaymentMethod</text><text fill="#000000" font-family="sans-serif" font-size="11" font-style="italic" lengthAdjust="spacingAndGlyphs" textLength="170" x="313" y="219.0933">(ServicePaymentMethodCode)</text></a><!--class CashManagementService--><a target="_top" xlink:actuate="onRequest" xlink:href="../CashManagementService.html" xlink:show="new" xlink:title="Set of applications that provides services which facilitate the management of cash positions on an account." xlink:type="simple"><rect fill="#FEFEEE" filter="url(#fnq2413kmaumd)" height="23.9688" id="CashManagementService" style="stroke: #A80036; stroke-width: 1.5;" width="164" x="212" y="306"/><rect fill="#FEFEEE" height="23.9688" style="stroke: #A80036; stroke-width: 1.5;" width="164" x="212" y="306"/><text fill="#000000" font-family="sans-serif" font-size="12" lengthAdjust="spacingAndGlyphs" textLength="158" x="215" y="322.1387">CashManagementService</text></a><!--class BankOperation--><a target="_top" xlink:actuate="onRequest" xlink:href="../BankOperation.html" xlink:show="new" xlink:title="Operation on a bank account. It may be limited in time, amount or type of operation." xlink:type="simple"><rect fill="#FEFEEE" filter="url(#fnq2413kmaumd)" height="23.9688" id="BankOperation" style="stroke: #A80036; stroke-width: 1.5;" width="99" x="411.75" y="306"/><rect fill="#FEFEEE" height="23.9688" style="stroke: #A80036; stroke-width: 1.5;" width="99" x="411.75" y="306"/><text fill="#000000" font-family="sans-serif" font-size="12" lengthAdjust="spacingAndGlyphs" textLength="93" x="414.75" y="322.1387">BankOperation</text></a><!--class DebitCreditFacility--><a target="_top" xlink:actuate="onRequest" xlink:href="../DebitCreditFacility.html" xlink:show="new" xlink:title="Specifies the conditions for overdraft on the account or for positive amounts." xlink:type="simple"><rect fill="#FEFEEE" filter="url(#fnq2413kmaumd)" height="23.9688" id="DebitCreditFacility" style="stroke: #A80036; stroke-width: 1.5;" width="118" x="59" y="306"/><rect fill="#FEFEEE" height="23.9688" style="stroke: #A80036; stroke-width: 1.5;" width="118" x="59" y="306"/><text fill="#000000" font-family="sans-serif" font-size="12" lengthAdjust="spacingAndGlyphs" textLength="112" x="62" y="322.1387">DebitCreditFacility</text></a><!--class AccountContract--><a target="_top" xlink:actuate="onRequest" xlink:href="../AccountContract.html" xlink:show="new" xlink:title="Agreement between an account servicer and an account owner about the services linked to an account." xlink:type="simple"><rect fill="#EEEEEE" filter="url(#fnq2413kmaumd)" height="23.9688" id="AccountContract" style="stroke: #A80036; stroke-width: 1.5;" width="111" x="1265.75" y="172"/><rect fill="#EEEEEE" height="23.9688" style="stroke: #A80036; stroke-width: 1.5;" width="111" x="1265.75" y="172"/><text fill="#000000" font-family="sans-serif" font-size="12" lengthAdjust="spacingAndGlyphs" textLength="105" x="1268.75" y="188.1387">AccountContract</text></a><!--class Reservation--><a target="_top" xlink:actuate="onRequest" xlink:href="../Reservation.html" xlink:show="new" xlink:title="Liquidity set aside by the payer for specific purposes." xlink:type="simple"><rect fill="#EEEEEE" filter="url(#fnq2413kmaumd)" height="23.9688" id="Reservation" style="stroke: #A80036; stroke-width: 1.5;" width="80" x="1173" y="410"/><rect fill="#EEEEEE" height="23.9688" style="stroke: #A80036; stroke-width: 1.5;" width="80" x="1173" y="410"/><text fill="#000000" font-family="sans-serif" font-size="12" lengthAdjust="spacingAndGlyphs" textLength="74" x="1176" y="426.1387">Reservation</text></a><!--class Account--><a target="_top" xlink:actuate="onRequest" xlink:href="../Account.html" xlink:show="new" xlink:title="Record of transactions in specific types of assets, maintained by a servicing party on behalf of one or more owning parties. Business relationship between an account servicer and one or more account owners." xlink:type="simple"><rect fill="#EEEEEE" filter="url(#fnq2413kmaumd)" height="23.9688" id="Account" style="stroke: #A80036; stroke-width: 1.5;" width="57" x="1210.75" y="306"/><rect fill="#EEEEEE" height="23.9688" style="stroke: #A80036; stroke-width: 1.5;" width="57" x="1210.75" y="306"/><text fill="#000000" font-family="sans-serif" font-size="12" lengthAdjust="spacingAndGlyphs" textLength="51" x="1213.75" y="322.1387">Account</text></a><!--class Charges--><a target="_top" xlink:actuate="onRequest" xlink:href="../Charges.html" xlink:show="new" xlink:title="Amount of money associated with a service." xlink:type="simple"><rect fill="#EEEEEE" filter="url(#fnq2413kmaumd)" height="23.9688" id="Charges" style="stroke: #A80036; stroke-width: 1.5;" width="58" x="1173.5" y="172"/><rect fill="#EEEEEE" height="23.9688" style="stroke: #A80036; stroke-width: 1.5;" width="58" x="1173.5" y="172"/><text fill="#000000" font-family="sans-serif" font-size="12" lengthAdjust="spacingAndGlyphs" textLength="52" x="1176.5" y="188.1387">Charges</text></a><!--class CashAccountMandate--><a target="_top" xlink:actuate="onRequest" xlink:href="../CashAccountMandate.html" xlink:show="new" xlink:title="Authorisation given to a mandate holder to perform some operation on an account." xlink:type="simple"><rect fill="#EEEEEE" filter="url(#fnq2413kmaumd)" height="23.9688" id="CashAccountMandate" style="stroke: #A80036; stroke-width: 1.5;" width="143" x="617.75" y="306"/><rect fill="#EEEEEE" height="23.9688" style="stroke: #A80036; stroke-width: 1.5;" width="143" x="617.75" y="306"/><text fill="#000000" font-family="sans-serif" font-size="12" lengthAdjust="spacingAndGlyphs" textLength="137" x="620.75" y="322.1387">CashAccountMandate</text></a><!--class CashAccountContract--><a target="_top" xlink:actuate="onRequest" xlink:href="../CashAccountContract.html" xlink:show="new" xlink:title="Account contract established between the organisation or the group to which the organisation belongs, and the account servicer." xlink:type="simple"><rect fill="#EEEEEE" filter="url(#fnq2413kmaumd)" height="23.9688" id="CashAccountContract" style="stroke: #A80036; stroke-width: 1.5;" width="142" x="729" y="410"/><rect fill="#EEEEEE" height="23.9688" style="stroke: #A80036; stroke-width: 1.5;" width="142" x="729" y="410"/><text fill="#000000" font-family="sans-serif" font-size="12" lengthAdjust="spacingAndGlyphs" textLength="136" x="732" y="426.1387">CashAccountContract</text></a><!--class GenericIdentification--><a target="_top" xlink:actuate="onRequest" xlink:href="../GenericIdentification.html" xlink:show="new" xlink:title="Information related to a non-standardised identification, such as a proprietary party identification or account identification." xlink:type="simple"><rect fill="#EEEEEE" filter="url(#fnq2413kmaumd)" height="23.9688" id="GenericIdentification" style="stroke: #A80036; stroke-width: 1.5;" width="135" x="769.75" y="600"/><rect fill="#EEEEEE" height="23.9688" style="stroke: #A80036; stroke-width: 1.5;" width="135" x="769.75" y="600"/><text fill="#000000" font-family="sans-serif" font-size="12" lengthAdjust="spacingAndGlyphs" textLength="129" x="772.75" y="616.1387">GenericIdentification</text></a><!--class CashAccount--><a target="_top" xlink:actuate="onRequest" xlink:href="../CashAccount.html" xlink:show="new" xlink:title="Account to or from which a cash entry is made." xlink:type="simple"><rect fill="#EEEEEE" filter="url(#fnq2413kmaumd)" height="23.9688" id="CashAccount" style="stroke: #A80036; stroke-width: 1.5;" width="88" x="735.5" y="514"/><rect fill="#EEEEEE" height="23.9688" style="stroke: #A80036; stroke-width: 1.5;" width="88" x="735.5" y="514"/><text fill="#000000" font-family="sans-serif" font-size="12" lengthAdjust="spacingAndGlyphs" textLength="82" x="738.5" y="530.1387">CashAccount</text></a><!--link AccountService to CashAccountService--><path d="M438.391,79.754 C423.789,97.833 404.238,122.039 387.737,142.469 " fill="none" id="AccountService-CashAccountService" style="stroke: #A80036; stroke-width: 1.0;"/><polygon fill="none" points="433.035,75.244,451.048,64.084,443.927,84.041,433.035,75.244" style="stroke: #A80036; stroke-width: 1.0;"/><!--link CashAccountService to CashManagementService--><path d="M327.764,243.937 C316.966,267.302 305.617,291.862 299.212,305.722 " fill="none" id="CashAccountService-CashManagementService" style="stroke: #A80036; stroke-width: 1.0;"/><polygon fill="none" points="321.456,240.9,336.2,225.681,334.165,246.773,321.456,240.9" style="stroke: #A80036; stroke-width: 1.0;"/><!--link CashAccountService to BankOperation--><path d="M400.381,241.512 C419.714,265.587 440.428,291.382 451.943,305.722 " fill="none" id="CashAccountService-BankOperation" style="stroke: #A80036; stroke-width: 1.0;"/><polygon fill="none" points="394.733,245.659,387.668,225.681,405.649,236.893,394.733,245.659" style="stroke: #A80036; stroke-width: 1.0;"/><!--link CashAccountService to DebitCreditFacility--><path d="M264.526,235.391 C218.116,261.239 165.623,290.476 137.793,305.976 " fill="none" id="CashAccountService-DebitCreditFacility" style="stroke: #A80036; stroke-width: 1.0;"/><polygon fill="none" points="261.403,229.118,282.282,225.501,268.215,241.349,261.403,229.118" style="stroke: #A80036; stroke-width: 1.0;"/><!--link Reservation to AccountContract--><!--link Account to Reservation--><!--link Charges to Account--><!--link CashAccountContract to CashAccountMandate--><!--link CashAccountMandate to CashAccountContract--><path d="M679.007,330.274 C668.752,343.268 655.768,364.783 667,380 C680.474,398.254 701.957,408.633 723.761,414.458 " fill="none" id="CashAccountMandate-CashAccountContract" style="stroke: #A80036; stroke-width: 1.0;"/><polygon fill="#A80036" points="728.711,415.703,720.9591,409.6278,723.8621,414.4829,719.007,417.386,728.711,415.703" style="stroke: #A80036; stroke-width: 1.0;"/><text fill="#000000" font-family="sans-serif" font-size="13" lengthAdjust="spacingAndGlyphs" textLength="139" x="668" y="375.0669">CashAccountContract</text><text fill="#000000" font-family="sans-serif" font-size="13" lengthAdjust="spacingAndGlyphs" textLength="7" x="713.961" y="410.4593">*</text><!--link GenericIdentification to CashAccountContract--><!--link CashAccount to GenericIdentification--><!--link AccountService to AccountContract--><path d="M510.646,52.698 C678.372,52.087 1208.74,53.415 1273,94 C1299,110.419 1311.89,146.034 1317.44,166.891 " fill="none" id="AccountService-AccountContract" style="stroke: #A80036; stroke-width: 1.0;"/><polygon fill="#A80036" points="1318.7,171.855,1320.3736,162.1494,1317.4752,167.0073,1312.6173,164.109,1318.7,171.855" style="stroke: #A80036; stroke-width: 1.0;"/><text fill="#000000" font-family="sans-serif" font-size="13" lengthAdjust="spacingAndGlyphs" textLength="107" x="1291" y="107.0669">AccountContract</text><text fill="#000000" font-family="sans-serif" font-size="13" lengthAdjust="spacingAndGlyphs" textLength="7" x="1308.2766" y="160.8534">*</text><!--link AccountService to Reservation--><path d="M490.942,64.03 C569.909,92.94 783.763,176.052 941,282 C994.48,318.035 991.178,349.506 1048,380 C1085.56,400.154 1133.24,410.617 1167.68,415.909 " fill="none" id="AccountService-Reservation" style="stroke: #A80036; stroke-width: 1.0;"/><polygon fill="#A80036" points="1172.66,416.653,1164.3391,411.384,1167.7134,415.9243,1163.1731,419.2986,1172.66,416.653" style="stroke: #A80036; stroke-width: 1.0;"/><text fill="#000000" font-family="sans-serif" font-size="13" lengthAdjust="spacingAndGlyphs" textLength="75" x="929" y="269.0669">Reservation</text><text fill="#000000" font-family="sans-serif" font-size="13" lengthAdjust="spacingAndGlyphs" textLength="8" x="1157.0007" y="410.6982">1</text><!--link AccountService to Account--><path d="M510.74,53.274 C702.91,54.557 1376.75,61.374 1408,94 C1427.15,114 1496.58,34.691 1394,226 C1369.16,272.322 1309.91,297.083 1272.28,308.602 " fill="none" id="AccountService-Account" style="stroke: #A80036; stroke-width: 1.0;"/><polygon fill="#A80036" points="1267.35,310.074,1277.1177,311.3357,1272.1416,308.6454,1274.8319,303.6692,1267.35,310.074" style="stroke: #A80036; stroke-width: 1.0;"/><text fill="#000000" font-family="sans-serif" font-size="13" lengthAdjust="spacingAndGlyphs" textLength="52" x="1436" y="188.0669">Account</text><text fill="#000000" font-family="sans-serif" font-size="13" lengthAdjust="spacingAndGlyphs" textLength="8" x="1275.5756" y="301.9528">1</text><!--link AccountService to Charges--><path d="M510.731,53.92 C632.272,56.556 937.266,65.852 1035,94 C1050.04,98.332 1135.22,145.527 1177.79,169.374 " fill="none" id="AccountService-Charges" style="stroke: #A80036; stroke-width: 1.0;"/><polygon fill="#A80036" points="1182.27,171.885,1176.3725,163.9971,1177.9077,169.4416,1172.4631,170.9768,1182.27,171.885" style="stroke: #A80036; stroke-width: 1.0;"/><text fill="#000000" font-family="sans-serif" font-size="13" lengthAdjust="spacingAndGlyphs" textLength="191" x="1073" y="107.0669">AccountAdministrationCharge</text><text fill="#000000" font-family="sans-serif" font-size="13" lengthAdjust="spacingAndGlyphs" textLength="24" x="1145.8472" y="160.8937">0..1</text><!--link CashAccountService to CashAccountMandate--><path d="M509.741,225.508 C536.94,234.382 564.639,244.589 590,256 C619.268,269.169 650.364,289.507 669.73,303.03 " fill="none" id="CashAccountService-CashAccountMandate" style="stroke: #A80036; stroke-width: 1.0;"/><polygon fill="#A80036" points="673.917,305.976,668.8587,297.5253,669.828,303.0985,664.2548,304.0678,673.917,305.976" style="stroke: #A80036; stroke-width: 1.0;"/><text fill="#000000" font-family="sans-serif" font-size="13" lengthAdjust="spacingAndGlyphs" textLength="140" x="625" y="269.0669">CashAccountMandate</text><text fill="#000000" font-family="sans-serif" font-size="13" lengthAdjust="spacingAndGlyphs" textLength="7" x="659.0994" y="295.016">*</text><!--link CashAccountService to CashAccountContract--><path d="M511.041,196.24 C612.77,206.375 733.983,224.648 775,256 C816.235,287.518 812.851,311.311 824,362 C825.719,369.813 826.094,372.279 824,380 C821.533,389.097 816.486,398.243 811.654,405.581 " fill="none" id="CashAccountService-CashAccountContract" style="stroke: #A80036; stroke-width: 1.0;"/><polygon fill="#A80036" points="808.698,409.899,817.0826,404.7319,811.5224,405.7731,810.4812,400.2129,808.698,409.899" style="stroke: #A80036; stroke-width: 1.0;"/><text fill="#000000" font-family="sans-serif" font-size="13" lengthAdjust="spacingAndGlyphs" textLength="139" x="824" y="322.0669">CashAccountContract</text><text fill="#000000" font-family="sans-serif" font-size="13" lengthAdjust="spacingAndGlyphs" textLength="8" x="800.9692" y="398.9125">1</text><!--link CashAccountService to GenericIdentification--><path d="M198.874,215.286 C105.9509,237.942 6,272.626 6,317 C6,317 6,317 6,527 C6,602.9456 562.512,610.8456 764.698,611.2097 " fill="none" id="CashAccountService-GenericIdentification" style="stroke: #A80036; stroke-width: 1.0;"/><polygon fill="#A80036" points="769.7,611.2173,760.7057,607.2044,764.7,611.2102,760.6943,615.2044,769.7,611.2173" style="stroke: #A80036; stroke-width: 1.0;"/><text fill="#000000" font-family="sans-serif" font-size="13" lengthAdjust="spacingAndGlyphs" textLength="81" x="7" y="426.0669">Identification</text><text fill="#000000" font-family="sans-serif" font-size="13" lengthAdjust="spacingAndGlyphs" textLength="8" x="753.7851" y="606.4073">1</text><!--link CashAccountService to CashAccount--><path d="M452.759,225.623 C479.457,240.317 506.613,259.07 527,282 C558.372,317.284 545.878,338.29 568,380 C593.876,428.788 591.555,451.22 636,484 C663.508,504.288 700.792,514.557 730.393,519.744 " fill="none" id="CashAccountService-CashAccount" style="stroke: #A80036; stroke-width: 1.0;"/><polygon fill="#A80036" points="735.449,520.594,727.2377,515.1557,730.5183,519.7641,725.9099,523.0448,735.449,520.594" style="stroke: #A80036; stroke-width: 1.0;"/><text fill="#000000" font-family="sans-serif" font-size="13" lengthAdjust="spacingAndGlyphs" textLength="84" x="569" y="375.0669">CashAccount</text><text fill="#000000" font-family="sans-serif" font-size="13" lengthAdjust="spacingAndGlyphs" textLength="8" x="719.5512" y="514.7169">1</text><!--link AccountContract to Account--><path d="M1314.01,196.254 C1299.36,219.829 1265.44,274.44 1248.7,301.387 " fill="none" id="AccountContract-Account" style="stroke: #A80036; stroke-width: 1.0;"/><polygon fill="#A80036" points="1245.97,305.774,1254.1183,300.2417,1248.6094,301.5274,1247.3238,296.0186,1245.97,305.774" style="stroke: #A80036; stroke-width: 1.0;"/><text fill="#000000" font-family="sans-serif" font-size="13" lengthAdjust="spacingAndGlyphs" textLength="52" x="1276" y="269.0669">Account</text><text fill="#000000" font-family="sans-serif" font-size="13" lengthAdjust="spacingAndGlyphs" textLength="7" x="1238.7054" y="295.0026">*</text><!--link Account to Account--><path d="M1267.51,308.938 C1285.18,306.753 1302,309.773 1302,318 C1302,325.391 1288.42,328.58 1272.85,327.567 " fill="none" id="Account-Account" style="stroke: #A80036; stroke-width: 1.0;"/><polygon fill="#A80036" points="1267.51,327.062,1276.0928,331.8926,1272.4877,327.5333,1276.847,323.9282,1267.51,327.062" style="stroke: #A80036; stroke-width: 1.0;"/><text fill="#000000" font-family="sans-serif" font-size="13" lengthAdjust="spacingAndGlyphs" textLength="94" x="1308" y="322.0669">ParentAccount</text><text fill="#000000" font-family="sans-serif" font-size="13" lengthAdjust="spacingAndGlyphs" textLength="8" x="1275.7766" y="323.2939">1</text><!--link Account to GenericIdentification--><path d="M1247.03,330.241 C1263.99,355.475 1299.61,417.575 1271,458 C1188.62,574.3928 1010.14,602.8586 909.613,609.4259 " fill="none" id="Account-GenericIdentification" style="stroke: #A80036; stroke-width: 1.0;"/><polygon fill="#A80036" points="904.59,609.7401,913.8217,613.1717,909.5803,609.4287,913.3234,605.1873,904.59,609.7401" style="stroke: #A80036; stroke-width: 1.0;"/><text fill="#000000" font-family="sans-serif" font-size="13" lengthAdjust="spacingAndGlyphs" textLength="30" x="1263" y="479.0669">Type</text><text fill="#000000" font-family="sans-serif" font-size="13" lengthAdjust="spacingAndGlyphs" textLength="8" x="912.8387" y="604.5724">1</text><!--link Charges to CashAccount--><path d="M1194.91,196.242 C1166.53,240.268 1056.27,402.533 923,484 C893.963,501.75 856.962,512.068 827.738,517.914 " fill="none" id="Charges-CashAccount" style="stroke: #A80036; stroke-width: 1.0;"/><polygon fill="#A80036" points="822.748,518.884,832.3459,521.0929,827.6561,517.9298,830.8192,513.24,822.748,518.884" style="stroke: #A80036; stroke-width: 1.0;"/><text fill="#000000" font-family="sans-serif" font-size="13" lengthAdjust="spacingAndGlyphs" textLength="139" x="1068" y="375.0669">ChargesDebitAccount</text><text fill="#000000" font-family="sans-serif" font-size="13" lengthAdjust="spacingAndGlyphs" textLength="7" x="831.3672" y="512.0868">*</text><!--link CashAccountContract to CashAccount--><path d="M732.383,434.058 C697.261,441.328 659.511,452.078 649,466 C624.649,498.254 684.06,513.356 730.408,520.071 " fill="none" id="CashAccountContract-CashAccount" style="stroke: #A80036; stroke-width: 1.0;"/><polygon fill="#A80036" points="735.418,520.772,727.0592,515.5634,730.4662,520.0791,725.9505,523.4862,735.418,520.772" style="stroke: #A80036; stroke-width: 1.0;"/><text fill="#000000" font-family="sans-serif" font-size="13" lengthAdjust="spacingAndGlyphs" textLength="84" x="650" y="479.0669">CashAccount</text><text fill="#000000" font-family="sans-serif" font-size="13" lengthAdjust="spacingAndGlyphs" textLength="7" x="720.5862" y="533.1699">*</text><!--link CashAccountContract to CashAccount--><path d="M791.539,434.35 C785.909,442.642 779.014,454.417 776,466 C772.327,480.116 773.661,496.757 775.572,508.761 " fill="none" id="CashAccountContract-CashAccount" style="stroke: #A80036; stroke-width: 1.0;"/><polygon fill="#A80036" points="776.475,513.924,778.8675,504.3701,775.615,508.9985,770.9867,505.7461,776.475,513.924" style="stroke: #A80036; stroke-width: 1.0;"/><text fill="#000000" font-family="sans-serif" font-size="13" lengthAdjust="spacingAndGlyphs" textLength="136" x="777" y="479.0669">TransferCashAccount</text><text fill="#000000" font-family="sans-serif" font-size="13" lengthAdjust="spacingAndGlyphs" textLength="7" x="765.8883" y="502.9461">*</text></g></svg>