<?xml version="1.0" encoding="UTF-8" standalone="no"?><svg xmlns="http://www.w3.org/2000/svg" xmlns:xlink="http://www.w3.org/1999/xlink" contentScriptType="application/ecmascript" contentStyleType="text/css" height="634px" preserveAspectRatio="none" style="width:1659px;height:634px;" version="1.1" viewBox="0 0 1659 634" width="1659px" zoomAndPan="magnify"><defs><filter height="300%" id="f16mnxjfyo09ec" width="300%" x="-1" y="-1"><feGaussianBlur result="blurOut" stdDeviation="2.0"/><feColorMatrix in="blurOut" result="blurOut2" type="matrix" values="0 0 0 0 0 0 0 0 0 0 0 0 0 0 0 0 0 0 .4 0"/><feOffset dx="4.0" dy="4.0" in="blurOut2" result="blurOut3"/><feBlend in="SourceGraphic" in2="blurOut3" mode="normal"/></filter></defs><g><!--cluster ##3134--><!--cluster ##3152--><!--cluster ##3161--><!--class AccountService--><a target="_top" xlink:actuate="onRequest" xlink:href="../AccountService.html" xlink:show="new" xlink:title="Services linked to an account which are available to the account owner or to the holder of a mandate." xlink:type="simple"><rect fill="#FEFEEE" filter="url(#f16mnxjfyo09ec)" height="23.9688" id="AccountService" style="stroke: #A80036; stroke-width: 1.5;" width="102" x="560.5" y="40"/><rect fill="#FEFEEE" height="23.9688" style="stroke: #A80036; stroke-width: 1.5;" width="102" x="560.5" y="40"/><text fill="#000000" font-family="sans-serif" font-size="12" lengthAdjust="spacingAndGlyphs" textLength="96" x="563.5" y="56.1387">AccountService</text></a><!--class CashAccountService--><a target="_top" xlink:actuate="onRequest" xlink:href="../CashAccountService.html" xlink:show="new" xlink:title="Services linked to an account which are available to the account owner or to the holder of a mandate. The exercise of these services may be submitted to a limit." xlink:type="simple"><rect fill="#FEFECE" filter="url(#f16mnxjfyo09ec)" height="83.1875" id="CashAccountService" style="stroke: #A80036; stroke-width: 1.5;" width="312" x="350" y="142.5"/><rect fill="#FEFECE" height="23.9688" style="stroke: #A80036; stroke-width: 1.5;" width="312" x="350" y="142.5"/><text fill="#000000" font-family="sans-serif" font-size="12" lengthAdjust="spacingAndGlyphs" textLength="127" x="442.5" y="158.6387">CashAccountService</text><line style="stroke: #A80036; stroke-width: 1.5;" x1="351" x2="661" y1="166.4688" y2="166.4688"/><ellipse cx="361" cy="178.3711" fill="#84BE84" rx="3" ry="3" style="stroke: #038048; stroke-width: 1.0;"/><text fill="#000000" font-family="sans-serif" font-size="11" lengthAdjust="spacingAndGlyphs" textLength="123" x="370" y="180.6792">CompensationMethod</text><text fill="#000000" font-family="sans-serif" font-size="11" font-style="italic" lengthAdjust="spacingAndGlyphs" textLength="159" x="497" y="180.6792">(CompensationMethodCode)</text><ellipse cx="361" cy="191.1758" fill="#84BE84" rx="3" ry="3" style="stroke: #038048; stroke-width: 1.0;"/><text fill="#000000" font-family="sans-serif" font-size="11" lengthAdjust="spacingAndGlyphs" textLength="85" x="370" y="193.4839">BillingCurrency</text><text fill="#000000" font-family="sans-serif" font-size="11" font-style="italic" lengthAdjust="spacingAndGlyphs" textLength="151" x="459" y="193.4839">(BillingCurrencyTypeCode)</text><ellipse cx="361" cy="203.9805" fill="#84BE84" rx="3" ry="3" style="stroke: #038048; stroke-width: 1.0;"/><text fill="#000000" font-family="sans-serif" font-size="11" lengthAdjust="spacingAndGlyphs" textLength="116" x="370" y="206.2886">BillingChargeMethod</text><text fill="#000000" font-family="sans-serif" font-size="11" font-style="italic" lengthAdjust="spacingAndGlyphs" textLength="153" x="490" y="206.2886">(BillingChargeMethodCode)</text><ellipse cx="361" cy="216.7852" fill="#84BE84" rx="3" ry="3" style="stroke: #038048; stroke-width: 1.0;"/><text fill="#000000" font-family="sans-serif" font-size="11" lengthAdjust="spacingAndGlyphs" textLength="90" x="370" y="219.0933">PaymentMethod</text><text fill="#000000" font-family="sans-serif" font-size="11" font-style="italic" lengthAdjust="spacingAndGlyphs" textLength="170" x="464" y="219.0933">(ServicePaymentMethodCode)</text></a><!--class CashManagementService--><a target="_top" xlink:actuate="onRequest" xlink:href="../CashManagementService.html" xlink:show="new" xlink:title="Set of applications that provides services which facilitate the management of cash positions on an account." xlink:type="simple"><rect fill="#FEFEEE" filter="url(#f16mnxjfyo09ec)" height="23.9688" id="CashManagementService" style="stroke: #A80036; stroke-width: 1.5;" width="164" x="59" y="306"/><rect fill="#FEFEEE" height="23.9688" style="stroke: #A80036; stroke-width: 1.5;" width="164" x="59" y="306"/><text fill="#000000" font-family="sans-serif" font-size="12" lengthAdjust="spacingAndGlyphs" textLength="158" x="62" y="322.1387">CashManagementService</text></a><!--class BankOperation--><a target="_top" xlink:actuate="onRequest" xlink:href="../BankOperation.html" xlink:show="new" xlink:title="Operation on a bank account. It may be limited in time, amount or type of operation." xlink:type="simple"><rect fill="#FEFEEE" filter="url(#f16mnxjfyo09ec)" height="23.9688" id="BankOperation" style="stroke: #A80036; stroke-width: 1.5;" width="99" x="258.75" y="306"/><rect fill="#FEFEEE" height="23.9688" style="stroke: #A80036; stroke-width: 1.5;" width="99" x="258.75" y="306"/><text fill="#000000" font-family="sans-serif" font-size="12" lengthAdjust="spacingAndGlyphs" textLength="93" x="261.75" y="322.1387">BankOperation</text></a><!--class DebitCreditFacility--><a target="_top" xlink:actuate="onRequest" xlink:href="../DebitCreditFacility.html" xlink:show="new" xlink:title="Specifies the conditions for overdraft on the account or for positive amounts." xlink:type="simple"><rect fill="#FEFEEE" filter="url(#f16mnxjfyo09ec)" height="23.9688" id="DebitCreditFacility" style="stroke: #A80036; stroke-width: 1.5;" width="118" x="393" y="306"/><rect fill="#FEFEEE" height="23.9688" style="stroke: #A80036; stroke-width: 1.5;" width="118" x="393" y="306"/><text fill="#000000" font-family="sans-serif" font-size="12" lengthAdjust="spacingAndGlyphs" textLength="112" x="396" y="322.1387">DebitCreditFacility</text></a><!--class AccountSwitching--><a target="_top" xlink:actuate="onRequest" xlink:href="../AccountSwitching.html" xlink:show="new" xlink:title="The Account Switch Service support the guaranteed switch of a customer’s account and the transfer of payments arrangements associated with the account from one payment institution to another payment institution." xlink:type="simple"><rect fill="#FEFEEE" filter="url(#f16mnxjfyo09ec)" height="23.9688" id="AccountSwitching" style="stroke: #A80036; stroke-width: 1.5;" width="116" x="546.5" y="306"/><rect fill="#FEFEEE" height="23.9688" style="stroke: #A80036; stroke-width: 1.5;" width="116" x="546.5" y="306"/><text fill="#000000" font-family="sans-serif" font-size="12" lengthAdjust="spacingAndGlyphs" textLength="110" x="549.5" y="322.1387">AccountSwitching</text></a><!--class AccountContract--><a target="_top" xlink:actuate="onRequest" xlink:href="../AccountContract.html" xlink:show="new" xlink:title="Agreement between an account servicer and an account owner about the services linked to an account." xlink:type="simple"><rect fill="#EEEEEE" filter="url(#f16mnxjfyo09ec)" height="23.9688" id="AccountContract" style="stroke: #A80036; stroke-width: 1.5;" width="111" x="1416.75" y="172"/><rect fill="#EEEEEE" height="23.9688" style="stroke: #A80036; stroke-width: 1.5;" width="111" x="1416.75" y="172"/><text fill="#000000" font-family="sans-serif" font-size="12" lengthAdjust="spacingAndGlyphs" textLength="105" x="1419.75" y="188.1387">AccountContract</text></a><!--class Reservation--><a target="_top" xlink:actuate="onRequest" xlink:href="../Reservation.html" xlink:show="new" xlink:title="Liquidity set aside by the payer for specific purposes." xlink:type="simple"><rect fill="#EEEEEE" filter="url(#f16mnxjfyo09ec)" height="23.9688" id="Reservation" style="stroke: #A80036; stroke-width: 1.5;" width="80" x="1324" y="410"/><rect fill="#EEEEEE" height="23.9688" style="stroke: #A80036; stroke-width: 1.5;" width="80" x="1324" y="410"/><text fill="#000000" font-family="sans-serif" font-size="12" lengthAdjust="spacingAndGlyphs" textLength="74" x="1327" y="426.1387">Reservation</text></a><!--class Account--><a target="_top" xlink:actuate="onRequest" xlink:href="../Account.html" xlink:show="new" xlink:title="Record of transactions in specific types of assets, maintained by a servicing party on behalf of one or more owning parties. Business relationship between an account servicer and one or more account owners." xlink:type="simple"><rect fill="#EEEEEE" filter="url(#f16mnxjfyo09ec)" height="23.9688" id="Account" style="stroke: #A80036; stroke-width: 1.5;" width="57" x="1361.75" y="306"/><rect fill="#EEEEEE" height="23.9688" style="stroke: #A80036; stroke-width: 1.5;" width="57" x="1361.75" y="306"/><text fill="#000000" font-family="sans-serif" font-size="12" lengthAdjust="spacingAndGlyphs" textLength="51" x="1364.75" y="322.1387">Account</text></a><!--class Charges--><a target="_top" xlink:actuate="onRequest" xlink:href="../Charges.html" xlink:show="new" xlink:title="Amount of money associated with a service." xlink:type="simple"><rect fill="#EEEEEE" filter="url(#f16mnxjfyo09ec)" height="23.9688" id="Charges" style="stroke: #A80036; stroke-width: 1.5;" width="58" x="1324.5" y="172"/><rect fill="#EEEEEE" height="23.9688" style="stroke: #A80036; stroke-width: 1.5;" width="58" x="1324.5" y="172"/><text fill="#000000" font-family="sans-serif" font-size="12" lengthAdjust="spacingAndGlyphs" textLength="52" x="1327.5" y="188.1387">Charges</text></a><!--class CashAccountMandate--><a target="_top" xlink:actuate="onRequest" xlink:href="../CashAccountMandate.html" xlink:show="new" xlink:title="Authorisation given to a mandate holder to perform some operation on an account." xlink:type="simple"><rect fill="#EEEEEE" filter="url(#f16mnxjfyo09ec)" height="23.9688" id="CashAccountMandate" style="stroke: #A80036; stroke-width: 1.5;" width="143" x="768.75" y="306"/><rect fill="#EEEEEE" height="23.9688" style="stroke: #A80036; stroke-width: 1.5;" width="143" x="768.75" y="306"/><text fill="#000000" font-family="sans-serif" font-size="12" lengthAdjust="spacingAndGlyphs" textLength="137" x="771.75" y="322.1387">CashAccountMandate</text></a><!--class CashAccountContract--><a target="_top" xlink:actuate="onRequest" xlink:href="../CashAccountContract.html" xlink:show="new" xlink:title="Account contract established between the organisation or the group to which the organisation belongs, and the account servicer." xlink:type="simple"><rect fill="#EEEEEE" filter="url(#f16mnxjfyo09ec)" height="23.9688" id="CashAccountContract" style="stroke: #A80036; stroke-width: 1.5;" width="142" x="880" y="410"/><rect fill="#EEEEEE" height="23.9688" style="stroke: #A80036; stroke-width: 1.5;" width="142" x="880" y="410"/><text fill="#000000" font-family="sans-serif" font-size="12" lengthAdjust="spacingAndGlyphs" textLength="136" x="883" y="426.1387">CashAccountContract</text></a><!--class GenericIdentification--><a target="_top" xlink:actuate="onRequest" xlink:href="../GenericIdentification.html" xlink:show="new" xlink:title="Information related to a non-standardised identification, such as a proprietary party identification or account identification." xlink:type="simple"><rect fill="#EEEEEE" filter="url(#f16mnxjfyo09ec)" height="23.9688" id="GenericIdentification" style="stroke: #A80036; stroke-width: 1.5;" width="135" x="920.75" y="600"/><rect fill="#EEEEEE" height="23.9688" style="stroke: #A80036; stroke-width: 1.5;" width="135" x="920.75" y="600"/><text fill="#000000" font-family="sans-serif" font-size="12" lengthAdjust="spacingAndGlyphs" textLength="129" x="923.75" y="616.1387">GenericIdentification</text></a><!--class CashAccount--><a target="_top" xlink:actuate="onRequest" xlink:href="../CashAccount.html" xlink:show="new" xlink:title="Account to or from which a cash entry is made." xlink:type="simple"><rect fill="#EEEEEE" filter="url(#f16mnxjfyo09ec)" height="23.9688" id="CashAccount" style="stroke: #A80036; stroke-width: 1.5;" width="88" x="886.5" y="514"/><rect fill="#EEEEEE" height="23.9688" style="stroke: #A80036; stroke-width: 1.5;" width="88" x="886.5" y="514"/><text fill="#000000" font-family="sans-serif" font-size="12" lengthAdjust="spacingAndGlyphs" textLength="82" x="889.5" y="530.1387">CashAccount</text></a><!--link AccountService to CashAccountService--><path d="M589.391,79.754 C574.789,97.833 555.238,122.039 538.737,142.469 " fill="none" id="AccountService-CashAccountService" style="stroke: #A80036; stroke-width: 1.0;"/><polygon fill="none" points="584.035,75.244,602.048,64.084,594.927,84.041,584.035,75.244" style="stroke: #A80036; stroke-width: 1.0;"/><!--link CashAccountService to CashManagementService--><path d="M375.135,232.327 C301.672,258.894 216.046,289.86 171.482,305.976 " fill="none" id="CashAccountService-CashManagementService" style="stroke: #A80036; stroke-width: 1.0;"/><polygon fill="none" points="372.819,225.72,394.007,225.501,377.58,238.886,372.819,225.72" style="stroke: #A80036; stroke-width: 1.0;"/><!--link CashAccountService to BankOperation--><path d="M428.355,236.763 C390.099,262.268 347.375,290.75 324.536,305.976 " fill="none" id="CashAccountService-BankOperation" style="stroke: #A80036; stroke-width: 1.0;"/><polygon fill="none" points="424.724,230.771,445.248,225.501,432.49,242.42,424.724,230.771" style="stroke: #A80036; stroke-width: 1.0;"/><!--link CashAccountService to DebitCreditFacility--><path d="M481.748,244.284 C472.232,267.545 462.256,291.931 456.614,305.722 " fill="none" id="CashAccountService-DebitCreditFacility" style="stroke: #A80036; stroke-width: 1.0;"/><polygon fill="none" points="475.306,241.542,489.358,225.681,488.264,246.843,475.306,241.542" style="stroke: #A80036; stroke-width: 1.0;"/><!--link CashAccountService to AccountSwitching--><path d="M548.213,241.858 C566.013,265.834 585.032,291.451 595.627,305.722 " fill="none" id="CashAccountService-AccountSwitching" style="stroke: #A80036; stroke-width: 1.0;"/><polygon fill="none" points="542.505,245.912,536.203,225.681,553.745,237.567,542.505,245.912" style="stroke: #A80036; stroke-width: 1.0;"/><!--link Reservation to AccountContract--><!--link Account to Reservation--><!--link Charges to Account--><!--link CashAccountContract to CashAccountMandate--><!--link CashAccountMandate to CashAccountContract--><path d="M830.007,330.274 C819.752,343.268 806.768,364.783 818,380 C831.474,398.254 852.957,408.633 874.761,414.458 " fill="none" id="CashAccountMandate-CashAccountContract" style="stroke: #A80036; stroke-width: 1.0;"/><polygon fill="#A80036" points="879.711,415.703,871.9591,409.6278,874.8621,414.4829,870.007,417.386,879.711,415.703" style="stroke: #A80036; stroke-width: 1.0;"/><text fill="#000000" font-family="sans-serif" font-size="13" lengthAdjust="spacingAndGlyphs" textLength="139" x="819" y="375.0669">CashAccountContract</text><text fill="#000000" font-family="sans-serif" font-size="13" lengthAdjust="spacingAndGlyphs" textLength="7" x="864.961" y="410.4593">*</text><!--link GenericIdentification to CashAccountContract--><!--link CashAccount to GenericIdentification--><!--link AccountService to AccountContract--><path d="M661.646,52.698 C829.372,52.087 1359.74,53.415 1424,94 C1450,110.419 1462.89,146.034 1468.44,166.891 " fill="none" id="AccountService-AccountContract" style="stroke: #A80036; stroke-width: 1.0;"/><polygon fill="#A80036" points="1469.7,171.855,1471.3736,162.1494,1468.4752,167.0073,1463.6173,164.109,1469.7,171.855" style="stroke: #A80036; stroke-width: 1.0;"/><text fill="#000000" font-family="sans-serif" font-size="13" lengthAdjust="spacingAndGlyphs" textLength="107" x="1442" y="107.0669">AccountContract</text><text fill="#000000" font-family="sans-serif" font-size="13" lengthAdjust="spacingAndGlyphs" textLength="7" x="1459.2766" y="160.8534">*</text><!--link AccountService to Reservation--><path d="M641.942,64.03 C720.909,92.94 934.763,176.052 1092,282 C1145.48,318.035 1142.18,349.506 1199,380 C1236.56,400.154 1284.24,410.617 1318.68,415.909 " fill="none" id="AccountService-Reservation" style="stroke: #A80036; stroke-width: 1.0;"/><polygon fill="#A80036" points="1323.66,416.653,1315.3391,411.384,1318.7134,415.9243,1314.1731,419.2986,1323.66,416.653" style="stroke: #A80036; stroke-width: 1.0;"/><text fill="#000000" font-family="sans-serif" font-size="13" lengthAdjust="spacingAndGlyphs" textLength="75" x="1080" y="269.0669">Reservation</text><text fill="#000000" font-family="sans-serif" font-size="13" lengthAdjust="spacingAndGlyphs" textLength="8" x="1308.0007" y="410.6982">1</text><!--link AccountService to Account--><path d="M661.74,53.274 C853.91,54.557 1527.75,61.374 1559,94 C1578.15,114 1647.58,34.691 1545,226 C1520.16,272.322 1460.91,297.083 1423.28,308.602 " fill="none" id="AccountService-Account" style="stroke: #A80036; stroke-width: 1.0;"/><polygon fill="#A80036" points="1418.35,310.074,1428.1177,311.3357,1423.1416,308.6454,1425.8319,303.6692,1418.35,310.074" style="stroke: #A80036; stroke-width: 1.0;"/><text fill="#000000" font-family="sans-serif" font-size="13" lengthAdjust="spacingAndGlyphs" textLength="52" x="1587" y="188.0669">Account</text><text fill="#000000" font-family="sans-serif" font-size="13" lengthAdjust="spacingAndGlyphs" textLength="8" x="1426.5756" y="301.9528">1</text><!--link AccountService to Charges--><path d="M661.731,53.92 C783.272,56.556 1088.27,65.852 1186,94 C1201.04,98.332 1286.22,145.527 1328.79,169.374 " fill="none" id="AccountService-Charges" style="stroke: #A80036; stroke-width: 1.0;"/><polygon fill="#A80036" points="1333.27,171.885,1327.3725,163.9971,1328.9077,169.4416,1323.4631,170.9768,1333.27,171.885" style="stroke: #A80036; stroke-width: 1.0;"/><text fill="#000000" font-family="sans-serif" font-size="13" lengthAdjust="spacingAndGlyphs" textLength="191" x="1224" y="107.0669">AccountAdministrationCharge</text><text fill="#000000" font-family="sans-serif" font-size="13" lengthAdjust="spacingAndGlyphs" textLength="24" x="1296.8472" y="160.8937">0..1</text><!--link CashAccountService to CashAccountMandate--><path d="M660.741,225.508 C687.94,234.382 715.639,244.589 741,256 C770.268,269.169 801.364,289.507 820.73,303.03 " fill="none" id="CashAccountService-CashAccountMandate" style="stroke: #A80036; stroke-width: 1.0;"/><polygon fill="#A80036" points="824.917,305.976,819.8587,297.5253,820.828,303.0985,815.2548,304.0678,824.917,305.976" style="stroke: #A80036; stroke-width: 1.0;"/><text fill="#000000" font-family="sans-serif" font-size="13" lengthAdjust="spacingAndGlyphs" textLength="140" x="776" y="269.0669">CashAccountMandate</text><text fill="#000000" font-family="sans-serif" font-size="13" lengthAdjust="spacingAndGlyphs" textLength="7" x="810.0994" y="295.016">*</text><!--link CashAccountService to CashAccountContract--><path d="M662.041,196.24 C763.77,206.375 884.983,224.648 926,256 C967.235,287.518 963.851,311.311 975,362 C976.719,369.813 977.094,372.279 975,380 C972.533,389.097 967.486,398.243 962.654,405.581 " fill="none" id="CashAccountService-CashAccountContract" style="stroke: #A80036; stroke-width: 1.0;"/><polygon fill="#A80036" points="959.698,409.899,968.0826,404.7319,962.5224,405.7731,961.4812,400.2129,959.698,409.899" style="stroke: #A80036; stroke-width: 1.0;"/><text fill="#000000" font-family="sans-serif" font-size="13" lengthAdjust="spacingAndGlyphs" textLength="139" x="975" y="322.0669">CashAccountContract</text><text fill="#000000" font-family="sans-serif" font-size="13" lengthAdjust="spacingAndGlyphs" textLength="8" x="951.9692" y="398.9125">1</text><!--link CashAccountService to GenericIdentification--><path d="M349.854,196.254 C203.148,211.256 6,244.84 6,317 C6,317 6,317 6,527 C6,572.6262 687.861,600.5396 915.218,608.5787 " fill="none" id="CashAccountService-GenericIdentification" style="stroke: #A80036; stroke-width: 1.0;"/><polygon fill="#A80036" points="920.503,608.7649,911.6491,604.4511,915.5061,608.5892,911.368,612.4461,920.503,608.7649" style="stroke: #A80036; stroke-width: 1.0;"/><text fill="#000000" font-family="sans-serif" font-size="13" lengthAdjust="spacingAndGlyphs" textLength="81" x="7" y="426.0669">Identification</text><text fill="#000000" font-family="sans-serif" font-size="13" lengthAdjust="spacingAndGlyphs" textLength="8" x="904.7966" y="603.7575">1</text><!--link CashAccountService to CashAccount--><path d="M603.759,225.623 C630.457,240.317 657.613,259.07 678,282 C709.372,317.284 696.878,338.29 719,380 C744.876,428.788 742.555,451.22 787,484 C814.508,504.288 851.792,514.557 881.393,519.744 " fill="none" id="CashAccountService-CashAccount" style="stroke: #A80036; stroke-width: 1.0;"/><polygon fill="#A80036" points="886.449,520.594,878.2377,515.1557,881.5183,519.7641,876.9099,523.0448,886.449,520.594" style="stroke: #A80036; stroke-width: 1.0;"/><text fill="#000000" font-family="sans-serif" font-size="13" lengthAdjust="spacingAndGlyphs" textLength="84" x="720" y="375.0669">CashAccount</text><text fill="#000000" font-family="sans-serif" font-size="13" lengthAdjust="spacingAndGlyphs" textLength="8" x="870.5512" y="514.7169">1</text><!--link AccountContract to Account--><path d="M1465.01,196.254 C1450.36,219.829 1416.44,274.44 1399.7,301.387 " fill="none" id="AccountContract-Account" style="stroke: #A80036; stroke-width: 1.0;"/><polygon fill="#A80036" points="1396.97,305.774,1405.1183,300.2417,1399.6094,301.5274,1398.3238,296.0186,1396.97,305.774" style="stroke: #A80036; stroke-width: 1.0;"/><text fill="#000000" font-family="sans-serif" font-size="13" lengthAdjust="spacingAndGlyphs" textLength="52" x="1427" y="269.0669">Account</text><text fill="#000000" font-family="sans-serif" font-size="13" lengthAdjust="spacingAndGlyphs" textLength="7" x="1389.7054" y="295.0026">*</text><!--link Account to Account--><path d="M1418.51,308.938 C1436.18,306.753 1453,309.773 1453,318 C1453,325.391 1439.42,328.58 1423.85,327.567 " fill="none" id="Account-Account" style="stroke: #A80036; stroke-width: 1.0;"/><polygon fill="#A80036" points="1418.51,327.062,1427.0928,331.8926,1423.4877,327.5333,1427.847,323.9282,1418.51,327.062" style="stroke: #A80036; stroke-width: 1.0;"/><text fill="#000000" font-family="sans-serif" font-size="13" lengthAdjust="spacingAndGlyphs" textLength="94" x="1459" y="322.0669">ParentAccount</text><text fill="#000000" font-family="sans-serif" font-size="13" lengthAdjust="spacingAndGlyphs" textLength="8" x="1426.7766" y="323.2939">1</text><!--link Account to GenericIdentification--><path d="M1398.03,330.241 C1414.99,355.475 1450.61,417.575 1422,458 C1339.62,574.3928 1161.14,602.8586 1060.61,609.4259 " fill="none" id="Account-GenericIdentification" style="stroke: #A80036; stroke-width: 1.0;"/><polygon fill="#A80036" points="1055.59,609.7401,1064.8236,613.1665,1060.5801,609.4258,1064.3208,605.1823,1055.59,609.7401" style="stroke: #A80036; stroke-width: 1.0;"/><text fill="#000000" font-family="sans-serif" font-size="13" lengthAdjust="spacingAndGlyphs" textLength="30" x="1414" y="479.0669">Type</text><text fill="#000000" font-family="sans-serif" font-size="13" lengthAdjust="spacingAndGlyphs" textLength="8" x="1063.8387" y="604.5724">1</text><!--link Charges to CashAccount--><path d="M1345.91,196.242 C1317.53,240.268 1207.27,402.533 1074,484 C1044.96,501.75 1007.96,512.068 978.738,517.914 " fill="none" id="Charges-CashAccount" style="stroke: #A80036; stroke-width: 1.0;"/><polygon fill="#A80036" points="973.748,518.884,983.3459,521.0929,978.6561,517.9298,981.8192,513.24,973.748,518.884" style="stroke: #A80036; stroke-width: 1.0;"/><text fill="#000000" font-family="sans-serif" font-size="13" lengthAdjust="spacingAndGlyphs" textLength="139" x="1219" y="375.0669">ChargesDebitAccount</text><text fill="#000000" font-family="sans-serif" font-size="13" lengthAdjust="spacingAndGlyphs" textLength="7" x="982.3672" y="512.0868">*</text><!--link CashAccountContract to CashAccount--><path d="M883.383,434.058 C848.261,441.328 810.511,452.078 800,466 C775.649,498.254 835.06,513.356 881.408,520.071 " fill="none" id="CashAccountContract-CashAccount" style="stroke: #A80036; stroke-width: 1.0;"/><polygon fill="#A80036" points="886.418,520.772,878.0592,515.5634,881.4662,520.0791,876.9505,523.4862,886.418,520.772" style="stroke: #A80036; stroke-width: 1.0;"/><text fill="#000000" font-family="sans-serif" font-size="13" lengthAdjust="spacingAndGlyphs" textLength="84" x="801" y="479.0669">CashAccount</text><text fill="#000000" font-family="sans-serif" font-size="13" lengthAdjust="spacingAndGlyphs" textLength="7" x="871.5862" y="533.1699">*</text><!--link CashAccountContract to CashAccount--><path d="M942.539,434.35 C936.909,442.642 930.014,454.417 927,466 C923.327,480.116 924.661,496.757 926.572,508.761 " fill="none" id="CashAccountContract-CashAccount" style="stroke: #A80036; stroke-width: 1.0;"/><polygon fill="#A80036" points="927.475,513.924,929.8675,504.3701,926.615,508.9985,921.9867,505.7461,927.475,513.924" style="stroke: #A80036; stroke-width: 1.0;"/><text fill="#000000" font-family="sans-serif" font-size="13" lengthAdjust="spacingAndGlyphs" textLength="136" x="928" y="479.0669">TransferCashAccount</text><text fill="#000000" font-family="sans-serif" font-size="13" lengthAdjust="spacingAndGlyphs" textLength="7" x="916.8883" y="502.9461">*</text></g></svg>