<?xml version="1.0" encoding="UTF-8" standalone="no"?><svg xmlns="http://www.w3.org/2000/svg" xmlns:xlink="http://www.w3.org/1999/xlink" contentScriptType="application/ecmascript" contentStyleType="text/css" height="826px" preserveAspectRatio="none" style="width:1484px;height:826px;" version="1.1" viewBox="0 0 1484 826" width="1484px" zoomAndPan="magnify"><defs><filter height="300%" id="f17q1fom8eky60" width="300%" x="-1" y="-1"><feGaussianBlur result="blurOut" stdDeviation="2.0"/><feColorMatrix in="blurOut" result="blurOut2" type="matrix" values="0 0 0 0 0 0 0 0 0 0 0 0 0 0 0 0 0 0 .4 0"/><feOffset dx="4.0" dy="4.0" in="blurOut2" result="blurOut3"/><feBlend in="SourceGraphic" in2="blurOut3" mode="normal"/></filter></defs><g><!--cluster ##6012--><!--cluster ##6018--><!--cluster ##6029--><!--class Balance--><a target="_top" xlink:actuate="onRequest" xlink:href="../Balance.html" xlink:show="new" xlink:title="Numerical representation of the net increases and decreases in an account at a specific point in time." xlink:type="simple"><rect fill="#FEFEEE" filter="url(#f17q1fom8eky60)" height="108.7969" id="Balance" style="stroke: #A80036; stroke-width: 1.5;" width="279" x="535.75" y="40.5"/><rect fill="#FEFEEE" height="23.9688" style="stroke: #A80036; stroke-width: 1.5;" width="279" x="535.75" y="40.5"/><text fill="#000000" font-family="sans-serif" font-size="12" lengthAdjust="spacingAndGlyphs" textLength="50" x="650.25" y="56.6387">Balance</text><line style="stroke: #A80036; stroke-width: 1.5;" x1="536.75" x2="813.75" y1="64.4688" y2="64.4688"/><ellipse cx="546.75" cy="76.3711" fill="#84BE84" rx="3" ry="3" style="stroke: #038048; stroke-width: 1.0;"/><text fill="#000000" font-family="sans-serif" font-size="11" lengthAdjust="spacingAndGlyphs" textLength="27" x="555.75" y="78.6792">Type</text><text fill="#000000" font-family="sans-serif" font-size="11" font-style="italic" lengthAdjust="spacingAndGlyphs" textLength="110" x="586.75" y="78.6792">(BalanceTypeCode)</text><ellipse cx="546.75" cy="89.1758" fill="#84BE84" rx="3" ry="3" style="stroke: #038048; stroke-width: 1.0;"/><text fill="#000000" font-family="sans-serif" font-size="11" lengthAdjust="spacingAndGlyphs" textLength="57" x="555.75" y="91.4839">ValueDate</text><text fill="#000000" font-family="sans-serif" font-size="11" font-style="italic" lengthAdjust="spacingAndGlyphs" textLength="81" x="616.75" y="91.4839">(ISODateTime)</text><ellipse cx="546.75" cy="101.9805" fill="#84BE84" rx="3" ry="3" style="stroke: #038048; stroke-width: 1.0;"/><text fill="#000000" font-family="sans-serif" font-size="11" lengthAdjust="spacingAndGlyphs" textLength="112" x="555.75" y="104.2886">CreditDebitIndicator</text><text fill="#000000" font-family="sans-serif" font-size="11" font-style="italic" lengthAdjust="spacingAndGlyphs" textLength="100" x="671.75" y="104.2886">(DebitCreditCode)</text><ellipse cx="546.75" cy="114.7852" fill="#84BE84" rx="3" ry="3" style="stroke: #038048; stroke-width: 1.0;"/><text fill="#000000" font-family="sans-serif" font-size="11" lengthAdjust="spacingAndGlyphs" textLength="88" x="555.75" y="117.0933">CalculationDate</text><text fill="#000000" font-family="sans-serif" font-size="11" font-style="italic" lengthAdjust="spacingAndGlyphs" textLength="81" x="647.75" y="117.0933">(ISODateTime)</text><ellipse cx="546.75" cy="127.5898" fill="#84BE84" rx="3" ry="3" style="stroke: #038048; stroke-width: 1.0;"/><text fill="#000000" font-family="sans-serif" font-size="11" lengthAdjust="spacingAndGlyphs" textLength="123" x="555.75" y="129.8979">ProcessingRestriction</text><text fill="#000000" font-family="sans-serif" font-size="11" font-style="italic" lengthAdjust="spacingAndGlyphs" textLength="126" x="682.75" y="129.8979">(ProcessingTypeCode)</text><ellipse cx="546.75" cy="140.3945" fill="#84BE84" rx="3" ry="3" style="stroke: #038048; stroke-width: 1.0;"/><text fill="#000000" font-family="sans-serif" font-size="11" lengthAdjust="spacingAndGlyphs" textLength="118" x="555.75" y="142.7026">OpeningClosingCode</text><text fill="#000000" font-family="sans-serif" font-size="11" font-style="italic" lengthAdjust="spacingAndGlyphs" textLength="125" x="677.75" y="142.7026">(OpeningClosingCode)</text></a><!--class CashBalance--><a target="_top" xlink:actuate="onRequest" xlink:href="../CashBalance.html" xlink:show="new" xlink:title="Numerical representation of the net increases and decreases in an account at a specific point in time. A cash balance is calculated from a sum of cash credits minus a sum of cash debits." xlink:type="simple"><rect fill="#FEFECE" filter="url(#f17q1fom8eky60)" height="83.1875" id="CashBalance" style="stroke: #A80036; stroke-width: 1.5;" width="342" x="473" y="228.5"/><rect fill="#FEFECE" height="23.9688" style="stroke: #A80036; stroke-width: 1.5;" width="342" x="473" y="228.5"/><text fill="#000000" font-family="sans-serif" font-size="12" lengthAdjust="spacingAndGlyphs" textLength="81" x="603.5" y="244.6387">CashBalance</text><line style="stroke: #A80036; stroke-width: 1.5;" x1="474" x2="814" y1="252.4688" y2="252.4688"/><ellipse cx="484" cy="264.3711" fill="#84BE84" rx="3" ry="3" style="stroke: #038048; stroke-width: 1.0;"/><text fill="#000000" font-family="sans-serif" font-size="11" lengthAdjust="spacingAndGlyphs" textLength="89" x="493" y="266.6792">CalculationType</text><text fill="#000000" font-family="sans-serif" font-size="11" font-style="italic" lengthAdjust="spacingAndGlyphs" textLength="157" x="586" y="266.6792">(BalanceCounterpartyCode)</text><ellipse cx="484" cy="277.1758" fill="#84BE84" rx="3" ry="3" style="stroke: #038048; stroke-width: 1.0;"/><text fill="#000000" font-family="sans-serif" font-size="11" lengthAdjust="spacingAndGlyphs" textLength="43" x="493" y="279.4839">Amount</text><text fill="#000000" font-family="sans-serif" font-size="11" font-style="italic" lengthAdjust="spacingAndGlyphs" textLength="126" x="540" y="279.4839">(CurrencyAndAmount)</text><ellipse cx="484" cy="289.9805" fill="#84BE84" rx="3" ry="3" style="stroke: #038048; stroke-width: 1.0;"/><text fill="#000000" font-family="sans-serif" font-size="11" lengthAdjust="spacingAndGlyphs" textLength="138" x="493" y="292.2886">BalanceAdjustmentCode</text><text fill="#000000" font-family="sans-serif" font-size="11" font-style="italic" lengthAdjust="spacingAndGlyphs" textLength="174" x="635" y="292.2886">(BalanceAdjustmentTypeCode)</text><ellipse cx="484" cy="302.7852" fill="#84BE84" rx="3" ry="3" style="stroke: #038048; stroke-width: 1.0;"/><text fill="#000000" font-family="sans-serif" font-size="11" lengthAdjust="spacingAndGlyphs" textLength="62" x="493" y="305.0933">CutOffDate</text><text fill="#000000" font-family="sans-serif" font-size="11" font-style="italic" lengthAdjust="spacingAndGlyphs" textLength="53" x="559" y="305.0933">(ISODate)</text></a><!--class AssetHolding--><a target="_top" xlink:actuate="onRequest" xlink:href="../AssetHolding.html" xlink:show="new" xlink:title="Specifies in terms of value and quantity the assets." xlink:type="simple"><rect fill="#EEEEEE" filter="url(#f17q1fom8eky60)" height="23.9688" id="AssetHolding" style="stroke: #A80036; stroke-width: 1.5;" width="88" x="972.5" y="258"/><rect fill="#EEEEEE" height="23.9688" style="stroke: #A80036; stroke-width: 1.5;" width="88" x="972.5" y="258"/><text fill="#000000" font-family="sans-serif" font-size="12" lengthAdjust="spacingAndGlyphs" textLength="82" x="975.5" y="274.1387">AssetHolding</text></a><!--class Adjustment--><a target="_top" xlink:actuate="onRequest" xlink:href="../Adjustment.html" xlink:show="new" xlink:title="Modification on the value of goods and / or services. For example: rebate, discount." xlink:type="simple"><rect fill="#EEEEEE" filter="url(#f17q1fom8eky60)" height="23.9688" id="Adjustment" style="stroke: #A80036; stroke-width: 1.5;" width="77" x="1109.75" y="602"/><rect fill="#EEEEEE" height="23.9688" style="stroke: #A80036; stroke-width: 1.5;" width="77" x="1109.75" y="602"/><text fill="#000000" font-family="sans-serif" font-size="12" lengthAdjust="spacingAndGlyphs" textLength="71" x="1112.75" y="618.1387">Adjustment</text></a><!--class Account--><a target="_top" xlink:actuate="onRequest" xlink:href="../Account.html" xlink:show="new" xlink:title="Record of transactions in specific types of assets, maintained by a servicing party on behalf of one or more owning parties. Business relationship between an account servicer and one or more account owners." xlink:type="simple"><rect fill="#EEEEEE" filter="url(#f17q1fom8eky60)" height="23.9688" id="Account" style="stroke: #A80036; stroke-width: 1.5;" width="57" x="967.75" y="498"/><rect fill="#EEEEEE" height="23.9688" style="stroke: #A80036; stroke-width: 1.5;" width="57" x="967.75" y="498"/><text fill="#000000" font-family="sans-serif" font-size="12" lengthAdjust="spacingAndGlyphs" textLength="51" x="970.75" y="514.1387">Account</text></a><!--class Interest--><a target="_top" xlink:actuate="onRequest" xlink:href="../Interest.html" xlink:show="new" xlink:title="Consideration, such as amount of money,  paid or received in exchange for an asset that has been invested, loaned or borrowed for a certain period. The interest is expressed as a fixed amount or percentage of the amount upon which the interest is applied." xlink:type="simple"><rect fill="#EEEEEE" filter="url(#f17q1fom8eky60)" height="23.9688" id="Interest" style="stroke: #A80036; stroke-width: 1.5;" width="55" x="933.75" y="394"/><rect fill="#EEEEEE" height="23.9688" style="stroke: #A80036; stroke-width: 1.5;" width="55" x="933.75" y="394"/><text fill="#000000" font-family="sans-serif" font-size="12" lengthAdjust="spacingAndGlyphs" textLength="49" x="936.75" y="410.1387">Interest</text></a><!--class Entry--><a target="_top" xlink:actuate="onRequest" xlink:href="../Entry.html" xlink:show="new" xlink:title="Posting to an account that results in an increase or decrease to a balance." xlink:type="simple"><rect fill="#EEEEEE" filter="url(#f17q1fom8eky60)" height="23.9688" id="Entry" style="stroke: #A80036; stroke-width: 1.5;" width="38" x="977" y="602"/><rect fill="#EEEEEE" height="23.9688" style="stroke: #A80036; stroke-width: 1.5;" width="38" x="977" y="602"/><text fill="#000000" font-family="sans-serif" font-size="12" lengthAdjust="spacingAndGlyphs" textLength="32" x="980" y="618.1387">Entry</text></a><!--class CashAccount--><a target="_top" xlink:actuate="onRequest" xlink:href="../CashAccount.html" xlink:show="new" xlink:title="Account to or from which a cash entry is made." xlink:type="simple"><rect fill="#EEEEEE" filter="url(#f17q1fom8eky60)" height="23.9688" id="CashAccount" style="stroke: #A80036; stroke-width: 1.5;" width="88" x="479.5" y="498"/><rect fill="#EEEEEE" height="23.9688" style="stroke: #A80036; stroke-width: 1.5;" width="88" x="479.5" y="498"/><text fill="#000000" font-family="sans-serif" font-size="12" lengthAdjust="spacingAndGlyphs" textLength="82" x="482.5" y="514.1387">CashAccount</text></a><!--class SystemMemberRole--><a target="_top" xlink:actuate="onRequest" xlink:href="../SystemMemberRole.html" xlink:show="new" xlink:title="Information about the members of a system." xlink:type="simple"><rect fill="#EEEEEE" filter="url(#f17q1fom8eky60)" height="23.9688" id="SystemMemberRole" style="stroke: #A80036; stroke-width: 1.5;" width="128" x="365" y="792"/><rect fill="#EEEEEE" height="23.9688" style="stroke: #A80036; stroke-width: 1.5;" width="128" x="365" y="792"/><text fill="#000000" font-family="sans-serif" font-size="12" lengthAdjust="spacingAndGlyphs" textLength="122" x="368" y="808.1387">SystemMemberRole</text></a><!--class CashAvailability--><a target="_top" xlink:actuate="onRequest" xlink:href="../CashAvailability.html" xlink:show="new" xlink:title="Indicates when the amount of money will become available, ie can be accessed and start generating interest." xlink:type="simple"><rect fill="#EEEEEE" filter="url(#f17q1fom8eky60)" height="23.9688" id="CashAvailability" style="stroke: #A80036; stroke-width: 1.5;" width="101" x="298.75" y="706"/><rect fill="#EEEEEE" height="23.9688" style="stroke: #A80036; stroke-width: 1.5;" width="101" x="298.75" y="706"/><text fill="#000000" font-family="sans-serif" font-size="12" lengthAdjust="spacingAndGlyphs" textLength="95" x="301.75" y="722.1387">CashAvailability</text></a><!--class CashEntry--><a target="_top" xlink:actuate="onRequest" xlink:href="../CashEntry.html" xlink:show="new" xlink:title="Posting of an item to a cash account, in the context of a cash transaction, that results in an increase or decrease to the balance of the account." xlink:type="simple"><rect fill="#EEEEEE" filter="url(#f17q1fom8eky60)" height="23.9688" id="CashEntry" style="stroke: #A80036; stroke-width: 1.5;" width="69" x="356.75" y="602"/><rect fill="#EEEEEE" height="23.9688" style="stroke: #A80036; stroke-width: 1.5;" width="69" x="356.75" y="602"/><text fill="#000000" font-family="sans-serif" font-size="12" lengthAdjust="spacingAndGlyphs" textLength="63" x="359.75" y="618.1387">CashEntry</text></a><!--class CardPaymentValidation--><a target="_top" xlink:actuate="onRequest" xlink:href="../CardPaymentValidation.html" xlink:show="new" xlink:title="Results and parameters of the card payment verification." xlink:type="simple"><rect fill="#EEEEEE" filter="url(#f17q1fom8eky60)" height="23.9688" id="CardPaymentValidation" style="stroke: #A80036; stroke-width: 1.5;" width="151" x="292.75" y="498"/><rect fill="#EEEEEE" height="23.9688" style="stroke: #A80036; stroke-width: 1.5;" width="151" x="292.75" y="498"/><text fill="#000000" font-family="sans-serif" font-size="12" lengthAdjust="spacingAndGlyphs" textLength="145" x="295.75" y="514.1387">CardPaymentValidation</text></a><!--class RegisteredContract--><a target="_top" xlink:actuate="onRequest" xlink:href="../RegisteredContract.html" xlink:show="new" xlink:title="Contract registered for regulatory purpose by a registration agent for the journaling of payments made against the contract." xlink:type="simple"><rect fill="#EEEEEE" filter="url(#f17q1fom8eky60)" height="23.9688" id="RegisteredContract" style="stroke: #A80036; stroke-width: 1.5;" width="128" x="292" y="394"/><rect fill="#EEEEEE" height="23.9688" style="stroke: #A80036; stroke-width: 1.5;" width="128" x="292" y="394"/><text fill="#000000" font-family="sans-serif" font-size="12" lengthAdjust="spacingAndGlyphs" textLength="122" x="295" y="410.1387">RegisteredContract</text></a><!--link Balance to CashBalance--><path d="M661.831,169.493 C658.212,189.687 654.42,210.848 651.268,228.439 " fill="none" id="Balance-CashBalance" style="stroke: #A80036; stroke-width: 1.0;"/><polygon fill="none" points="654.943,168.242,665.361,149.79,668.724,170.711,654.943,168.242" style="stroke: #A80036; stroke-width: 1.0;"/><!--link Adjustment to AssetHolding--><!--link Account to Adjustment--><!--link Interest to Account--><!--link Entry to Interest--><!--link SystemMemberRole to CashAccount--><!--link CashAvailability to SystemMemberRole--><!--link CashEntry to CashAvailability--><!--link CashAvailability to CashEntry--><path d="M341.586,705.628 C334.6,693.364 326.27,673.514 334,658 C340.198,645.561 351.9,635.769 363.096,628.693 " fill="none" id="CashAvailability-CashEntry" style="stroke: #A80036; stroke-width: 1.0;"/><polygon fill="#A80036" points="367.514,626.018,357.7432,627.2558,363.2364,628.6068,361.8854,634.1,367.514,626.018" style="stroke: #A80036; stroke-width: 1.0;"/><text fill="#000000" font-family="sans-serif" font-size="13" lengthAdjust="spacingAndGlyphs" textLength="65" x="335" y="671.0669">CashEntry</text><text fill="#000000" font-family="sans-serif" font-size="13" lengthAdjust="spacingAndGlyphs" textLength="8" x="346.6604" y="646.1699">1</text><!--link CardPaymentValidation to CashEntry--><!--link RegisteredContract to CardPaymentValidation--><!--link Balance to AssetHolding--><path d="M814.441,136.235 C847.141,148.198 881.133,162.799 911,180 C947.303,200.908 983.127,234.918 1002.102,254.28 " fill="none" id="Balance-AssetHolding" style="stroke: #A80036; stroke-width: 1.0;"/><polygon fill="#A80036" points="1005.668,257.949,1002.2647,248.7068,1002.1835,254.3631,996.5273,254.282,1005.668,257.949" style="stroke: #A80036; stroke-width: 1.0;"/><text fill="#000000" font-family="sans-serif" font-size="13" lengthAdjust="spacingAndGlyphs" textLength="84" x="938" y="193.0669">AssetHolding</text><text fill="#000000" font-family="sans-serif" font-size="13" lengthAdjust="spacingAndGlyphs" textLength="7" x="992.3976" y="246.9797">*</text><!--link Balance to Adjustment--><path d="M814.637,101.24 C1024.52,112.976 1397,150.497 1397,269 C1397,269 1397,269 1397,511 C1397,598.82 1262.73,612.665 1191.39,613.823 " fill="none" id="Balance-Adjustment" style="stroke: #A80036; stroke-width: 1.0;"/><polygon fill="#A80036" points="1186.36,613.885,1195.4051,617.7819,1191.3597,613.8279,1195.3137,609.7824,1186.36,613.885" style="stroke: #A80036; stroke-width: 1.0;"/><text fill="#000000" font-family="sans-serif" font-size="13" lengthAdjust="spacingAndGlyphs" textLength="74" x="1398" y="410.0669">Adjustment</text><text fill="#000000" font-family="sans-serif" font-size="13" lengthAdjust="spacingAndGlyphs" textLength="7" x="1194.9421" y="608.192">*</text><!--link Balance to Account--><path d="M814.395,109.23 C883.512,120.505 966.075,141.376 1032,180 C1056.97,194.629 1063.14,202.075 1076,228 C1102.79,282.002 1114.87,304.428 1097,362 C1080.01,416.737 1034.79,469.169 1011.04,494.014 " fill="none" id="Balance-Account" style="stroke: #A80036; stroke-width: 1.0;"/><polygon fill="#A80036" points="1007.42,497.761,1016.5547,494.079,1010.8986,494.1694,1010.8081,488.5133,1007.42,497.761" style="stroke: #A80036; stroke-width: 1.0;"/><text fill="#000000" font-family="sans-serif" font-size="13" lengthAdjust="spacingAndGlyphs" textLength="52" x="1103" y="357.0669">Account</text><text fill="#000000" font-family="sans-serif" font-size="13" lengthAdjust="spacingAndGlyphs" textLength="8" x="1000.4665" y="486.9853">1</text><!--link Balance to Interest--><path d="M747.804,149.706 C775.803,172.212 807.014,199.706 832,228 C869.862,270.876 867.783,290.162 902,336 C916.355,355.23 934.504,375.992 946.856,389.662 " fill="none" id="Balance-Interest" style="stroke: #A80036; stroke-width: 1.0;"/><polygon fill="#A80036" points="950.493,393.667,947.4036,384.3152,947.1316,389.9656,941.4812,389.6936,950.493,393.667" style="stroke: #A80036; stroke-width: 1.0;"/><text fill="#000000" font-family="sans-serif" font-size="13" lengthAdjust="spacingAndGlyphs" textLength="49" x="903" y="274.0669">Interest</text><text fill="#000000" font-family="sans-serif" font-size="13" lengthAdjust="spacingAndGlyphs" textLength="7" x="937.4391" y="382.8601">*</text><!--link Balance to Entry--><path d="M814.3,110.734 C981.603,132.385 1240,180.199 1240,269 C1240,269 1240,269 1240,511 C1240,558.338 1081.69,595.594 1020.11,608.297 " fill="none" id="Balance-Entry" style="stroke: #A80036; stroke-width: 1.0;"/><polygon fill="#A80036" points="1015.15,609.309,1024.7741,611.4011,1020.0461,608.2952,1023.152,603.5673,1015.15,609.309" style="stroke: #A80036; stroke-width: 1.0;"/><text fill="#000000" font-family="sans-serif" font-size="13" lengthAdjust="spacingAndGlyphs" textLength="84" x="1241" y="410.0669">BalanceEntry</text><text fill="#000000" font-family="sans-serif" font-size="13" lengthAdjust="spacingAndGlyphs" textLength="7" x="1022.9359" y="600.8697">*</text><!--link CashBalance to CashAccount--><path d="M704.276,311.781 C739.868,341.061 773.574,381.613 749,418 C709.555,476.406 625.714,497.333 571.981,504.826 " fill="none" id="CashBalance-CashAccount" style="stroke: #A80036; stroke-width: 1.0;"/><polygon fill="#A80036" points="566.878,505.51,576.3297,508.2785,571.8337,504.8455,575.2666,500.3494,566.878,505.51" style="stroke: #A80036; stroke-width: 1.0;"/><text fill="#000000" font-family="sans-serif" font-size="13" lengthAdjust="spacingAndGlyphs" textLength="84" x="759" y="410.0669">CashAccount</text><text fill="#000000" font-family="sans-serif" font-size="13" lengthAdjust="spacingAndGlyphs" textLength="7" x="575.5211" y="499.197">*</text><!--link CashBalance to SystemMemberRole--><path d="M472.608,273.79 C283.633,281.639 6,309.433 6,405 C6,405 6,405 6,719 C6,790.1926 239.43,801.9675 359.478,803.3158 " fill="none" id="CashBalance-SystemMemberRole" style="stroke: #A80036; stroke-width: 1.0;"/><polygon fill="#A80036" points="364.755,803.3692,355.7955,799.2794,359.7553,803.3192,355.7154,807.279,364.755,803.3692" style="stroke: #A80036; stroke-width: 1.0;"/><text fill="#000000" font-family="sans-serif" font-size="13" lengthAdjust="spacingAndGlyphs" textLength="84" x="7" y="567.0669">Counterparty</text><text fill="#000000" font-family="sans-serif" font-size="13" lengthAdjust="spacingAndGlyphs" textLength="23" x="333.9199" y="798.6302">1..*</text><!--link CashBalance to CashAvailability--><path d="M472.938,281.856 C318.72,296.49 116,329.992 116,405 C116,405 116,405 116,615 C116,692.143 224.506,711.499 293.426,716.013 " fill="none" id="CashBalance-CashAvailability" style="stroke: #A80036; stroke-width: 1.0;"/><polygon fill="#A80036" points="298.729,716.336,289.9891,711.7958,293.7383,716.0318,289.5023,719.7809,298.729,716.336" style="stroke: #A80036; stroke-width: 1.0;"/><text fill="#000000" font-family="sans-serif" font-size="13" lengthAdjust="spacingAndGlyphs" textLength="67" x="117" y="514.0669">Availability</text><text fill="#000000" font-family="sans-serif" font-size="13" lengthAdjust="spacingAndGlyphs" textLength="8" x="282.6154" y="711.1111">1</text><!--link CashBalance to CashEntry--><path d="M472.583,290.577 C394.29,302.475 312.309,320.052 282,344 C236.281,380.124 216.354,410.468 234,466 C254.537,530.631 324.954,577.544 364.14,599.35 " fill="none" id="CashBalance-CashEntry" style="stroke: #A80036; stroke-width: 1.0;"/><polygon fill="#A80036" points="368.759,601.884,362.7941,594.0469,364.3759,599.4781,358.9447,601.0599,368.759,601.884" style="stroke: #A80036; stroke-width: 1.0;"/><text fill="#000000" font-family="sans-serif" font-size="13" lengthAdjust="spacingAndGlyphs" textLength="116" x="235" y="461.0669">CashBalanceEntry</text><text fill="#000000" font-family="sans-serif" font-size="13" lengthAdjust="spacingAndGlyphs" textLength="7" x="351.4808" y="590.8923">*</text><!--link CashBalance to CardPaymentValidation--><path d="M571.701,311.687 C544.872,328.244 514.928,348.535 490,370 C443.808,409.774 399.034,466.998 378.977,493.918 " fill="none" id="CashBalance-CardPaymentValidation" style="stroke: #A80036; stroke-width: 1.0;"/><polygon fill="#A80036" points="375.974,497.971,384.5464,493.1219,378.9511,493.9539,378.1191,488.3586,375.974,497.971" style="stroke: #A80036; stroke-width: 1.0;"/><text fill="#000000" font-family="sans-serif" font-size="13" lengthAdjust="spacingAndGlyphs" textLength="248" x="491" y="410.0669">RelatedCardPaymentValidationProcess</text><text fill="#000000" font-family="sans-serif" font-size="13" lengthAdjust="spacingAndGlyphs" textLength="24" x="349.1604" y="487.0092">0..1</text><!--link CashBalance to RegisteredContract--><path d="M472.985,286.382 C396.192,297.181 317.542,315.041 294,344 C279.683,361.611 303.552,379.571 325.701,391.399 " fill="none" id="CashBalance-RegisteredContract" style="stroke: #A80036; stroke-width: 1.0;"/><polygon fill="#A80036" points="330.387,393.827,324.2365,386.1347,325.9476,391.5266,320.5558,393.2378,330.387,393.827" style="stroke: #A80036; stroke-width: 1.0;"/><text fill="#000000" font-family="sans-serif" font-size="13" lengthAdjust="spacingAndGlyphs" textLength="171" x="295" y="357.0669">RelatedRegisteredContract</text><text fill="#000000" font-family="sans-serif" font-size="13" lengthAdjust="spacingAndGlyphs" textLength="8" x="310.8638" y="382.8157">1</text><!--link AssetHolding to Interest--><path d="M1011.31,282.425 C1001.48,306.377 978.695,361.889 967.477,389.22 " fill="none" id="AssetHolding-Interest" style="stroke: #A80036; stroke-width: 1.0;"/><polygon fill="#A80036" points="965.523,393.981,972.6407,387.1738,967.4215,389.3555,965.2399,384.1362,965.523,393.981" style="stroke: #A80036; stroke-width: 1.0;"/><text fill="#000000" font-family="sans-serif" font-size="13" lengthAdjust="spacingAndGlyphs" textLength="49" x="987" y="357.0669">Interest</text><text fill="#000000" font-family="sans-serif" font-size="13" lengthAdjust="spacingAndGlyphs" textLength="7" x="957.445" y="383.0227">*</text><!--link Account to Account--><path d="M1024.51,500.938 C1042.18,498.753 1059,501.773 1059,510 C1059,517.391 1045.42,520.58 1029.85,519.567 " fill="none" id="Account-Account" style="stroke: #A80036; stroke-width: 1.0;"/><polygon fill="#A80036" points="1024.51,519.062,1033.0928,523.8926,1029.4877,519.5333,1033.847,515.9282,1024.51,519.062" style="stroke: #A80036; stroke-width: 1.0;"/><text fill="#000000" font-family="sans-serif" font-size="13" lengthAdjust="spacingAndGlyphs" textLength="94" x="1065" y="514.0669">ParentAccount</text><text fill="#000000" font-family="sans-serif" font-size="13" lengthAdjust="spacingAndGlyphs" textLength="8" x="1032.7766" y="515.2939">1</text><!--link Account to Entry--><path d="M996,522.306 C996,540.399 996,575.936 996,596.75 " fill="none" id="Account-Entry" style="stroke: #A80036; stroke-width: 1.0;"/><polygon fill="#A80036" points="996,601.954,1000,592.954,996,596.954,992,592.954,996,601.954" style="stroke: #A80036; stroke-width: 1.0;"/><text fill="#000000" font-family="sans-serif" font-size="13" lengthAdjust="spacingAndGlyphs" textLength="33" x="997" y="567.0669">Entry</text><text fill="#000000" font-family="sans-serif" font-size="13" lengthAdjust="spacingAndGlyphs" textLength="7" x="986.4531" y="590.9864">*</text><!--link Account to SystemMemberRole--><path d="M974.465,522.09 C886.142,567.576 551.771,739.774 455.239,789.487 " fill="none" id="Account-SystemMemberRole" style="stroke: #A80036; stroke-width: 1.0;"/><polygon fill="#A80036" points="450.556,791.8988,460.3886,791.333,455.0008,789.609,456.7248,784.2212,450.556,791.8988" style="stroke: #A80036; stroke-width: 1.0;"/><text fill="#000000" font-family="sans-serif" font-size="13" lengthAdjust="spacingAndGlyphs" textLength="102" x="707" y="671.0669">SystemMember</text><text fill="#000000" font-family="sans-serif" font-size="13" lengthAdjust="spacingAndGlyphs" textLength="8" x="447.2471" y="780.9122">1</text><!--link Interest to CashEntry--><path d="M933.508,416.936 C839.596,450.876 531.537,562.209 426.475,600.179 " fill="none" id="Interest-CashEntry" style="stroke: #A80036; stroke-width: 1.0;"/><polygon fill="#A80036" points="421.627,601.931,431.4508,602.6332,426.3292,600.2312,428.7312,595.1097,421.627,601.931" style="stroke: #A80036; stroke-width: 1.0;"/><text fill="#000000" font-family="sans-serif" font-size="13" lengthAdjust="spacingAndGlyphs" textLength="65" x="715" y="514.0669">CashEntry</text><text fill="#000000" font-family="sans-serif" font-size="13" lengthAdjust="spacingAndGlyphs" textLength="8" x="421.3503" y="590.9555">1</text><!--link CashAccount to CashEntry--><path d="M483.951,522.083 C464.873,528.954 442.526,539.32 426,554 C412.794,565.731 403.142,583.672 397.359,596.69 " fill="none" id="CashAccount-CashEntry" style="stroke: #A80036; stroke-width: 1.0;"/><polygon fill="#A80036" points="395.261,601.589,402.4816,594.891,397.2297,596.9929,395.1278,591.741,395.261,601.589" style="stroke: #A80036; stroke-width: 1.0;"/><text fill="#000000" font-family="sans-serif" font-size="13" lengthAdjust="spacingAndGlyphs" textLength="65" x="427" y="567.0669">CashEntry</text><text fill="#000000" font-family="sans-serif" font-size="13" lengthAdjust="spacingAndGlyphs" textLength="7" x="387.1051" y="591.0167">*</text></g></svg>