<?xml version="1.0" encoding="UTF-8" standalone="no"?><svg xmlns="http://www.w3.org/2000/svg" xmlns:xlink="http://www.w3.org/1999/xlink" contentScriptType="application/ecmascript" contentStyleType="text/css" height="918px" preserveAspectRatio="none" style="width:2020px;height:918px;" version="1.1" viewBox="0 0 2020 918" width="2020px" zoomAndPan="magnify"><defs><filter height="300%" id="f1p8sp92zacpwl" width="300%" x="-1" y="-1"><feGaussianBlur result="blurOut" stdDeviation="2.0"/><feColorMatrix in="blurOut" result="blurOut2" type="matrix" values="0 0 0 0 0 0 0 0 0 0 0 0 0 0 0 0 0 0 .4 0"/><feOffset dx="4.0" dy="4.0" in="blurOut2" result="blurOut3"/><feBlend in="SourceGraphic" in2="blurOut3" mode="normal"/></filter></defs><g><!--cluster ##4345--><!--cluster ##4351--><!--cluster ##4360--><!--class Entry--><a target="_top" xlink:actuate="onRequest" xlink:href="../Entry.html" xlink:show="new" xlink:title="Posting to an account that results in an increase or decrease to a balance." xlink:type="simple"><rect fill="#FEFEEE" filter="url(#f1p8sp92zacpwl)" height="147.2109" id="Entry" style="stroke: #A80036; stroke-width: 1.5;" width="330" x="431" y="40.5"/><rect fill="#FEFEEE" height="23.9688" style="stroke: #A80036; stroke-width: 1.5;" width="330" x="431" y="40.5"/><text fill="#000000" font-family="sans-serif" font-size="12" lengthAdjust="spacingAndGlyphs" textLength="32" x="580" y="56.6387">Entry</text><line style="stroke: #A80036; stroke-width: 1.5;" x1="432" x2="760" y1="64.4688" y2="64.4688"/><ellipse cx="442" cy="76.3711" fill="#84BE84" rx="3" ry="3" style="stroke: #038048; stroke-width: 1.0;"/><text fill="#000000" font-family="sans-serif" font-size="11" lengthAdjust="spacingAndGlyphs" textLength="112" x="451" y="78.6792">CreditDebitIndicator</text><text fill="#000000" font-family="sans-serif" font-size="11" font-style="italic" lengthAdjust="spacingAndGlyphs" textLength="100" x="567" y="78.6792">(DebitCreditCode)</text><ellipse cx="442" cy="89.1758" fill="#84BE84" rx="3" ry="3" style="stroke: #038048; stroke-width: 1.0;"/><text fill="#000000" font-family="sans-serif" font-size="11" lengthAdjust="spacingAndGlyphs" textLength="55" x="451" y="91.4839">EntryDate</text><text fill="#000000" font-family="sans-serif" font-size="11" font-style="italic" lengthAdjust="spacingAndGlyphs" textLength="81" x="510" y="91.4839">(ISODateTime)</text><ellipse cx="442" cy="101.9805" fill="#84BE84" rx="3" ry="3" style="stroke: #038048; stroke-width: 1.0;"/><text fill="#000000" font-family="sans-serif" font-size="11" lengthAdjust="spacingAndGlyphs" textLength="72" x="451" y="104.2886">Identification</text><text fill="#000000" font-family="sans-serif" font-size="11" font-style="italic" lengthAdjust="spacingAndGlyphs" textLength="70" x="527" y="104.2886">(Max35Text)</text><ellipse cx="442" cy="114.7852" fill="#84BE84" rx="3" ry="3" style="stroke: #038048; stroke-width: 1.0;"/><text fill="#000000" font-family="sans-serif" font-size="11" lengthAdjust="spacingAndGlyphs" textLength="220" x="451" y="117.0933">AccountOwnerTransactionIdentification</text><text fill="#000000" font-family="sans-serif" font-size="11" font-style="italic" lengthAdjust="spacingAndGlyphs" textLength="70" x="675" y="117.0933">(Max35Text)</text><ellipse cx="442" cy="127.5898" fill="#84BE84" rx="3" ry="3" style="stroke: #038048; stroke-width: 1.0;"/><text fill="#000000" font-family="sans-serif" font-size="11" lengthAdjust="spacingAndGlyphs" textLength="230" x="451" y="129.8979">AccountServicerTransactionIdentification</text><text fill="#000000" font-family="sans-serif" font-size="11" font-style="italic" lengthAdjust="spacingAndGlyphs" textLength="70" x="685" y="129.8979">(Max35Text)</text><ellipse cx="442" cy="140.3945" fill="#84BE84" rx="3" ry="3" style="stroke: #038048; stroke-width: 1.0;"/><text fill="#000000" font-family="sans-serif" font-size="11" lengthAdjust="spacingAndGlyphs" textLength="98" x="451" y="142.7026">ReversalIndicator</text><text fill="#000000" font-family="sans-serif" font-size="11" font-style="italic" lengthAdjust="spacingAndGlyphs" textLength="112" x="553" y="142.7026">(TrueFalseIndicator)</text><ellipse cx="442" cy="153.1992" fill="#84BE84" rx="3" ry="3" style="stroke: #038048; stroke-width: 1.0;"/><text fill="#000000" font-family="sans-serif" font-size="11" lengthAdjust="spacingAndGlyphs" textLength="57" x="451" y="155.5073">ValueDate</text><text fill="#000000" font-family="sans-serif" font-size="11" font-style="italic" lengthAdjust="spacingAndGlyphs" textLength="81" x="512" y="155.5073">(ISODateTime)</text><ellipse cx="442" cy="166.0039" fill="#84BE84" rx="3" ry="3" style="stroke: #038048; stroke-width: 1.0;"/><text fill="#000000" font-family="sans-serif" font-size="11" lengthAdjust="spacingAndGlyphs" textLength="157" x="451" y="168.312">CommissionWaiverIndicator</text><text fill="#000000" font-family="sans-serif" font-size="11" font-style="italic" lengthAdjust="spacingAndGlyphs" textLength="92" x="612" y="168.312">(YesNoIndicator)</text><ellipse cx="442" cy="178.8086" fill="#84BE84" rx="3" ry="3" style="stroke: #038048; stroke-width: 1.0;"/><text fill="#000000" font-family="sans-serif" font-size="11" lengthAdjust="spacingAndGlyphs" textLength="56" x="451" y="181.1167">EntryType</text><text fill="#000000" font-family="sans-serif" font-size="11" font-style="italic" lengthAdjust="spacingAndGlyphs" textLength="67" x="511" y="181.1167">(EntryCode)</text></a><!--class CashEntry--><a target="_top" xlink:actuate="onRequest" xlink:href="../CashEntry.html" xlink:show="new" xlink:title="Posting of an item to a cash account, in the context of a cash transaction, that results in an increase or decrease to the balance of the account." xlink:type="simple"><rect fill="#FEFECE" filter="url(#f1p8sp92zacpwl)" height="57.5781" id="CashEntry" style="stroke: #A80036; stroke-width: 1.5;" width="270" x="431" y="266"/><rect fill="#FEFECE" height="23.9688" style="stroke: #A80036; stroke-width: 1.5;" width="270" x="431" y="266"/><text fill="#000000" font-family="sans-serif" font-size="12" lengthAdjust="spacingAndGlyphs" textLength="63" x="534.5" y="282.1387">CashEntry</text><line style="stroke: #A80036; stroke-width: 1.5;" x1="432" x2="700" y1="289.9688" y2="289.9688"/><ellipse cx="442" cy="301.8711" fill="#84BE84" rx="3" ry="3" style="stroke: #038048; stroke-width: 1.0;"/><text fill="#000000" font-family="sans-serif" font-size="11" lengthAdjust="spacingAndGlyphs" textLength="43" x="451" y="304.1792">Amount</text><text fill="#000000" font-family="sans-serif" font-size="11" font-style="italic" lengthAdjust="spacingAndGlyphs" textLength="126" x="498" y="304.1792">(CurrencyAndAmount)</text><ellipse cx="442" cy="314.6758" fill="#84BE84" rx="3" ry="3" style="stroke: #038048; stroke-width: 1.0;"/><text fill="#000000" font-family="sans-serif" font-size="11" lengthAdjust="spacingAndGlyphs" textLength="95" x="451" y="316.9839">ChargesIncluded</text><text fill="#000000" font-family="sans-serif" font-size="11" font-style="italic" lengthAdjust="spacingAndGlyphs" textLength="145" x="550" y="316.9839">(ChargeIncludedIndicator)</text></a><!--class BankTransaction--><a target="_top" xlink:actuate="onRequest" xlink:href="../BankTransaction.html" xlink:show="new" xlink:title="Code of the underlying bank transaction." xlink:type="simple"><rect fill="#EEEEEE" filter="url(#f1p8sp92zacpwl)" height="23.9688" id="BankTransaction" style="stroke: #A80036; stroke-width: 1.5;" width="111" x="1701.75" y="506"/><rect fill="#EEEEEE" height="23.9688" style="stroke: #A80036; stroke-width: 1.5;" width="111" x="1701.75" y="506"/><text fill="#000000" font-family="sans-serif" font-size="12" lengthAdjust="spacingAndGlyphs" textLength="105" x="1704.75" y="522.1387">BankTransaction</text></a><!--class Role--><a target="_top" xlink:actuate="onRequest" xlink:href="../Role.html" xlink:show="new" xlink:title="Role of a party in an activity." xlink:type="simple"><rect fill="#EEEEEE" filter="url(#f1p8sp92zacpwl)" height="23.9688" id="Role" style="stroke: #A80036; stroke-width: 1.5;" width="33" x="1730.75" y="404"/><rect fill="#EEEEEE" height="23.9688" style="stroke: #A80036; stroke-width: 1.5;" width="33" x="1730.75" y="404"/><text fill="#000000" font-family="sans-serif" font-size="12" lengthAdjust="spacingAndGlyphs" textLength="27" x="1733.75" y="420.1387">Role</text></a><!--class Account--><a target="_top" xlink:actuate="onRequest" xlink:href="../Account.html" xlink:show="new" xlink:title="Record of transactions in specific types of assets, maintained by a servicing party on behalf of one or more owning parties. Business relationship between an account servicer and one or more account owners." xlink:type="simple"><rect fill="#EEEEEE" filter="url(#f1p8sp92zacpwl)" height="23.9688" id="Account" style="stroke: #A80036; stroke-width: 1.5;" width="57" x="1639.75" y="283"/><rect fill="#EEEEEE" height="23.9688" style="stroke: #A80036; stroke-width: 1.5;" width="57" x="1639.75" y="283"/><text fill="#000000" font-family="sans-serif" font-size="12" lengthAdjust="spacingAndGlyphs" textLength="51" x="1642.75" y="299.1387">Account</text></a><!--class Balance--><a target="_top" xlink:actuate="onRequest" xlink:href="../Balance.html" xlink:show="new" xlink:title="Numerical representation of the net increases and decreases in an account at a specific point in time." xlink:type="simple"><rect fill="#EEEEEE" filter="url(#f1p8sp92zacpwl)" height="23.9688" id="Balance" style="stroke: #A80036; stroke-width: 1.5;" width="56" x="1639.5" y="404"/><rect fill="#EEEEEE" height="23.9688" style="stroke: #A80036; stroke-width: 1.5;" width="56" x="1639.5" y="404"/><text fill="#000000" font-family="sans-serif" font-size="12" lengthAdjust="spacingAndGlyphs" textLength="50" x="1642.5" y="420.1387">Balance</text></a><!--class CashAccount--><a target="_top" xlink:actuate="onRequest" xlink:href="../CashAccount.html" xlink:show="new" xlink:title="Account to or from which a cash entry is made." xlink:type="simple"><rect fill="#EEEEEE" filter="url(#f1p8sp92zacpwl)" height="23.9688" id="CashAccount" style="stroke: #A80036; stroke-width: 1.5;" width="88" x="902.5" y="506"/><rect fill="#EEEEEE" height="23.9688" style="stroke: #A80036; stroke-width: 1.5;" width="88" x="902.5" y="506"/><text fill="#000000" font-family="sans-serif" font-size="12" lengthAdjust="spacingAndGlyphs" textLength="82" x="905.5" y="522.1387">CashAccount</text></a><!--class BookEntry--><a target="_top" xlink:actuate="onRequest" xlink:href="../BookEntry.html" xlink:show="new" xlink:title="Movement of cash between two accounts. One account is debited and the other account is credited." xlink:type="simple"><rect fill="#EEEEEE" filter="url(#f1p8sp92zacpwl)" height="23.9688" id="BookEntry" style="stroke: #A80036; stroke-width: 1.5;" width="69" x="902.75" y="712"/><rect fill="#EEEEEE" height="23.9688" style="stroke: #A80036; stroke-width: 1.5;" width="69" x="902.75" y="712"/><text fill="#000000" font-family="sans-serif" font-size="12" lengthAdjust="spacingAndGlyphs" textLength="63" x="905.75" y="728.1387">BookEntry</text></a><!--class CashBalance--><a target="_top" xlink:actuate="onRequest" xlink:href="../CashBalance.html" xlink:show="new" xlink:title="Numerical representation of the net increases and decreases in an account at a specific point in time. A cash balance is calculated from a sum of cash credits minus a sum of cash debits." xlink:type="simple"><rect fill="#EEEEEE" filter="url(#f1p8sp92zacpwl)" height="23.9688" id="CashBalance" style="stroke: #A80036; stroke-width: 1.5;" width="87" x="1025.75" y="610"/><rect fill="#EEEEEE" height="23.9688" style="stroke: #A80036; stroke-width: 1.5;" width="87" x="1025.75" y="610"/><text fill="#000000" font-family="sans-serif" font-size="12" lengthAdjust="spacingAndGlyphs" textLength="81" x="1028.75" y="626.1387">CashBalance</text></a><!--class CurrencyExchange--><a target="_top" xlink:actuate="onRequest" xlink:href="../CurrencyExchange.html" xlink:show="new" xlink:title="Information needed to process a currency exchange or conversion." xlink:type="simple"><rect fill="#EEEEEE" filter="url(#f1p8sp92zacpwl)" height="23.9688" id="CurrencyExchange" style="stroke: #A80036; stroke-width: 1.5;" width="122" x="984" y="884"/><rect fill="#EEEEEE" height="23.9688" style="stroke: #A80036; stroke-width: 1.5;" width="122" x="984" y="884"/><text fill="#000000" font-family="sans-serif" font-size="12" lengthAdjust="spacingAndGlyphs" textLength="116" x="987" y="900.1387">CurrencyExchange</text></a><!--class Charges--><a target="_top" xlink:actuate="onRequest" xlink:href="../Charges.html" xlink:show="new" xlink:title="Amount of money associated with a service." xlink:type="simple"><rect fill="#EEEEEE" filter="url(#f1p8sp92zacpwl)" height="23.9688" id="Charges" style="stroke: #A80036; stroke-width: 1.5;" width="58" x="968.5" y="798"/><rect fill="#EEEEEE" height="23.9688" style="stroke: #A80036; stroke-width: 1.5;" width="58" x="968.5" y="798"/><text fill="#000000" font-family="sans-serif" font-size="12" lengthAdjust="spacingAndGlyphs" textLength="52" x="971.5" y="814.1387">Charges</text></a><!--class CashAvailability--><a target="_top" xlink:actuate="onRequest" xlink:href="../CashAvailability.html" xlink:show="new" xlink:title="Indicates when the amount of money will become available, ie can be accessed and start generating interest." xlink:type="simple"><rect fill="#EEEEEE" filter="url(#f1p8sp92zacpwl)" height="23.9688" id="CashAvailability" style="stroke: #A80036; stroke-width: 1.5;" width="101" x="1098.75" y="712"/><rect fill="#EEEEEE" height="23.9688" style="stroke: #A80036; stroke-width: 1.5;" width="101" x="1098.75" y="712"/><text fill="#000000" font-family="sans-serif" font-size="12" lengthAdjust="spacingAndGlyphs" textLength="95" x="1101.75" y="728.1387">CashAvailability</text></a><!--class Interest--><a target="_top" xlink:actuate="onRequest" xlink:href="../Interest.html" xlink:show="new" xlink:title="Consideration, such as amount of money,  paid or received in exchange for an asset that has been invested, loaned or borrowed for a certain period. The interest is expressed as a fixed amount or percentage of the amount upon which the interest is applied." xlink:type="simple"><rect fill="#EEEEEE" filter="url(#f1p8sp92zacpwl)" height="23.9688" id="Interest" style="stroke: #A80036; stroke-width: 1.5;" width="55" x="1147.75" y="610"/><rect fill="#EEEEEE" height="23.9688" style="stroke: #A80036; stroke-width: 1.5;" width="55" x="1147.75" y="610"/><text fill="#000000" font-family="sans-serif" font-size="12" lengthAdjust="spacingAndGlyphs" textLength="49" x="1150.75" y="626.1387">Interest</text></a><!--class InvoiceFinancingAgreement--><a target="_top" xlink:actuate="onRequest" xlink:href="../InvoiceFinancingAgreement.html" xlink:show="new" xlink:title="Set of characteristics that unambiguously identify an invoice financing agreement. An invoice financing agreement between a factor and its client allows to transfer a payment obligation that exists between the client and a third party from the client to the factor." xlink:type="simple"><rect fill="#EEEEEE" filter="url(#f1p8sp92zacpwl)" height="23.9688" id="InvoiceFinancingAgreement" style="stroke: #A80036; stroke-width: 1.5;" width="178" x="1025.5" y="506"/><rect fill="#EEEEEE" height="23.9688" style="stroke: #A80036; stroke-width: 1.5;" width="178" x="1025.5" y="506"/><text fill="#000000" font-family="sans-serif" font-size="12" lengthAdjust="spacingAndGlyphs" textLength="172" x="1028.5" y="522.1387">InvoiceFinancingAgreement</text></a><!--class PaymentInvestigationCase--><a target="_top" xlink:actuate="onRequest" xlink:href="../PaymentInvestigationCase.html" xlink:show="new" xlink:title="Set of activities performed to handle an exception to a normal payment transaction flow, such as: - a payment has not been received. - a payment has been received but is incorrect. - a payment must be corrected or cancelled (requested by the party which ordered the payment)." xlink:type="simple"><rect fill="#EEEEEE" filter="url(#f1p8sp92zacpwl)" height="23.9688" id="PaymentInvestigationCase" style="stroke: #A80036; stroke-width: 1.5;" width="171" x="1031.75" y="404"/><rect fill="#EEEEEE" height="23.9688" style="stroke: #A80036; stroke-width: 1.5;" width="171" x="1031.75" y="404"/><text fill="#000000" font-family="sans-serif" font-size="12" lengthAdjust="spacingAndGlyphs" textLength="165" x="1034.75" y="420.1387">PaymentInvestigationCase</text></a><!--class PaymentInvestigationCaseResolution--><a target="_top" xlink:actuate="onRequest" xlink:href="../PaymentInvestigationCaseResolution.html" xlink:show="new" xlink:title="Specifies the status of an investigation case and the actions taken as a result of this status." xlink:type="simple"><rect fill="#EEEEEE" filter="url(#f1p8sp92zacpwl)" height="23.9688" id="PaymentInvestigationCaseResolution" style="stroke: #A80036; stroke-width: 1.5;" width="237" x="965.75" y="283"/><rect fill="#EEEEEE" height="23.9688" style="stroke: #A80036; stroke-width: 1.5;" width="237" x="965.75" y="283"/><text fill="#000000" font-family="sans-serif" font-size="12" lengthAdjust="spacingAndGlyphs" textLength="231" x="968.75" y="299.1387">PaymentInvestigationCaseResolution</text></a><!--link Entry to CashEntry--><path d="M580.505,207.453 C576.936,228.75 573.404,249.825 570.719,265.845 " fill="none" id="Entry-CashEntry" style="stroke: #A80036; stroke-width: 1.0;"/><polygon fill="none" points="573.631,206.116,583.841,187.548,587.439,208.43,573.631,206.116" style="stroke: #A80036; stroke-width: 1.0;"/><!--link Role to BankTransaction--><!--link Account to Role--><!--link Balance to Account--><!--link Account to Balance--><path d="M1667.9,307.41 C1667.73,328.611 1667.34,374.141 1667.14,398.624 " fill="none" id="Account-Balance" style="stroke: #A80036; stroke-width: 1.0;"/><polygon fill="#A80036" points="1667.09,403.798,1671.1644,394.8315,1667.1314,398.7982,1663.1647,394.7652,1667.09,403.798" style="stroke: #A80036; stroke-width: 1.0;"/><text fill="#000000" font-family="sans-serif" font-size="13" lengthAdjust="spacingAndGlyphs" textLength="51" x="1669" y="369.0669">Balance</text><text fill="#000000" font-family="sans-serif" font-size="13" lengthAdjust="spacingAndGlyphs" textLength="23" x="1638.8136" y="393.0345">1..*</text><!--link BookEntry to CashAccount--><!--link CashBalance to BookEntry--><!--link CurrencyExchange to CashBalance--><!--link Charges to CurrencyExchange--><!--link CashAvailability to Charges--><!--link Interest to CashAvailability--><!--link InvoiceFinancingAgreement to Interest--><!--link PaymentInvestigationCase to InvoiceFinancingAgreement--><!--link PaymentInvestigationCaseResolution to PaymentInvestigationCase--><!--link Entry to BankTransaction--><path d="M761.27,121.464 C1083.63,135.824 1770.92,175.725 1839,257 C1902.74,333.098 1807,459.021 1770.31,502.05 " fill="none" id="Entry-BankTransaction" style="stroke: #A80036; stroke-width: 1.0;"/><polygon fill="#A80036" points="1766.95,505.951,1775.8557,501.7451,1770.2143,502.1636,1769.7958,496.5223,1766.95,505.951" style="stroke: #A80036; stroke-width: 1.0;"/><text fill="#000000" font-family="sans-serif" font-size="13" lengthAdjust="spacingAndGlyphs" textLength="139" x="1855" y="369.0669">BankTransactionCode</text><text fill="#000000" font-family="sans-serif" font-size="13" lengthAdjust="spacingAndGlyphs" textLength="24" x="1740.8156" y="494.9824">0..1</text><!--link Entry to Role--><path d="M761.363,123.321 C936.591,136.513 1218.93,170.397 1447,257 C1518.13,284.009 1524.66,312.581 1592,348 C1638.11,372.254 1694.9,395.123 1725.32,406.841 " fill="none" id="Entry-Role" style="stroke: #A80036; stroke-width: 1.0;"/><polygon fill="#A80036" points="1730.33,408.76,1723.353,401.8087,1725.66,406.9737,1720.4949,409.2807,1730.33,408.76" style="stroke: #A80036; stroke-width: 1.0;"/><text fill="#000000" font-family="sans-serif" font-size="13" lengthAdjust="spacingAndGlyphs" textLength="27" x="1593" y="299.0669">Role</text><text fill="#000000" font-family="sans-serif" font-size="13" lengthAdjust="spacingAndGlyphs" textLength="7" x="1715.7701" y="400.0316">*</text><!--link Entry to Account--><path d="M761.027,116.755 C947.009,122.564 1256.7,143.852 1512,218 C1562.26,232.596 1616.14,262.376 1645.58,280.014 " fill="none" id="Entry-Account" style="stroke: #A80036; stroke-width: 1.0;"/><polygon fill="#A80036" points="1650.09,282.736,1644.4539,274.6592,1645.81,280.1511,1640.3181,281.5073,1650.09,282.736" style="stroke: #A80036; stroke-width: 1.0;"/><text fill="#000000" font-family="sans-serif" font-size="13" lengthAdjust="spacingAndGlyphs" textLength="52" x="1558" y="231.0669">Account</text><text fill="#000000" font-family="sans-serif" font-size="13" lengthAdjust="spacingAndGlyphs" textLength="7" x="1634.5839" y="271.952">*</text><!--link Entry to Balance--><path d="M761.16,140.225 C888.785,162.659 1068.46,200.716 1219,257 C1299.27,287.013 1310.79,312.957 1389,348 C1419.67,361.741 1427.64,364.93 1460,374 C1520.55,390.973 1592.97,403.619 1634.12,410.108 " fill="none" id="Entry-Balance" style="stroke: #A80036; stroke-width: 1.0;"/><polygon fill="#A80036" points="1639.22,410.907,1630.9449,405.5663,1634.2799,410.1356,1629.7106,413.4705,1639.22,410.907" style="stroke: #A80036; stroke-width: 1.0;"/><text fill="#000000" font-family="sans-serif" font-size="13" lengthAdjust="spacingAndGlyphs" textLength="51" x="1390" y="299.0669">Balance</text><text fill="#000000" font-family="sans-serif" font-size="13" lengthAdjust="spacingAndGlyphs" textLength="7" x="1624.4591" y="404.1873">*</text><!--link CashEntry to CashAccount--><path d="M575.071,324.098 C585.77,353.37 606.106,398.938 637,428 C674.08,462.881 692.595,460.233 741,476 C793.231,493.014 855.355,504.241 897.419,510.576 " fill="none" id="CashEntry-CashAccount" style="stroke: #A80036; stroke-width: 1.0;"/><polygon fill="#A80036" points="902.448,511.325,894.136,506.0419,897.5026,510.5879,892.9567,513.9545,902.448,511.325" style="stroke: #A80036; stroke-width: 1.0;"/><text fill="#000000" font-family="sans-serif" font-size="13" lengthAdjust="spacingAndGlyphs" textLength="84" x="638" y="420.0669">CashAccount</text><text fill="#000000" font-family="sans-serif" font-size="13" lengthAdjust="spacingAndGlyphs" textLength="7" x="887.6204" y="505.2694">*</text><!--link CashEntry to BookEntry--><path d="M569.435,324.309 C571.757,339.345 575.437,357.977 581,374 C589.867,399.539 592.46,406.615 609,428 C706.27,553.763 861.469,669.545 916.685,708.835 " fill="none" id="CashEntry-BookEntry" style="stroke: #A80036; stroke-width: 1.0;"/><polygon fill="#A80036" points="920.794,711.749,915.7672,703.2796,916.7157,708.8563,911.1389,709.8048,920.794,711.749" style="stroke: #A80036; stroke-width: 1.0;"/><text fill="#000000" font-family="sans-serif" font-size="13" lengthAdjust="spacingAndGlyphs" textLength="113" x="727" y="522.0669">RelatedBookEntry</text><text fill="#000000" font-family="sans-serif" font-size="13" lengthAdjust="spacingAndGlyphs" textLength="24" x="886.0367" y="700.9693">0..1</text><!--link CashEntry to BookEntry--><path d="M434.867,324.112 C355.305,345.087 269,376.672 269,415 C269,415 269,415 269,623 C269,686.894 753.173,714.476 897.11,721.264 " fill="none" id="CashEntry-BookEntry" style="stroke: #A80036; stroke-width: 1.0;"/><polygon fill="#A80036" points="902.492,721.515,893.6881,717.1002,897.4974,721.2821,893.3155,725.0915,902.492,721.515" style="stroke: #A80036; stroke-width: 1.0;"/><text fill="#000000" font-family="sans-serif" font-size="13" lengthAdjust="spacingAndGlyphs" textLength="147" x="270" y="522.0669">DebitRelatedBookEntry</text><text fill="#000000" font-family="sans-serif" font-size="13" lengthAdjust="spacingAndGlyphs" textLength="24" x="870.776" y="734.2987">0..1</text><!--link CashEntry to BookEntry--><path d="M548.417,324.296 C519.47,374.886 469.573,482.249 518,554 C605.553,683.72 811.154,713.894 897.606,720.894 " fill="none" id="CashEntry-BookEntry" style="stroke: #A80036; stroke-width: 1.0;"/><polygon fill="#A80036" points="902.629,721.285,893.967,716.5978,897.6441,720.8965,893.3454,724.5736,902.629,721.285" style="stroke: #A80036; stroke-width: 1.0;"/><text fill="#000000" font-family="sans-serif" font-size="13" lengthAdjust="spacingAndGlyphs" textLength="151" x="519" y="522.0669">CreditRelatedBookEntry</text><text fill="#000000" font-family="sans-serif" font-size="13" lengthAdjust="spacingAndGlyphs" textLength="24" x="870.6347" y="715.7167">0..1</text><!--link CashEntry to CashBalance--><path d="M701.383,321.646 C758.203,331.46 825.108,341.779 886,348 C927.599,352.25 1033.15,347.061 1074,356 C1094.64,360.516 1098.07,366.983 1118,374 C1162.17,389.551 1191,366.469 1219,404 C1225.38,412.549 1222.21,417.827 1219,428 C1214.11,443.522 1202.89,442.478 1198,458 C1195.59,465.63 1195.59,468.37 1198,476 C1202.89,491.522 1214.11,490.478 1219,506 C1225.41,526.346 1230.61,536.101 1219,554 C1206.44,573.373 1149.76,595.043 1109.8,608.353 " fill="none" id="CashEntry-CashBalance" style="stroke: #A80036; stroke-width: 1.0;"/><polygon fill="#A80036" points="1105.01,609.935,1114.8111,610.9041,1109.7567,608.3637,1112.297,603.3093,1105.01,609.935" style="stroke: #A80036; stroke-width: 1.0;"/><text fill="#000000" font-family="sans-serif" font-size="13" lengthAdjust="spacingAndGlyphs" textLength="83" x="1199" y="471.0669">CashBalance</text><text fill="#000000" font-family="sans-serif" font-size="13" lengthAdjust="spacingAndGlyphs" textLength="7" x="1107.7556" y="598.9609">*</text><!--link CashEntry to CurrencyExchange--><path d="M430.797,298.177 C265.078,304.595 6,328.466 6,415 C6,415 6,415 6,811 C6,859.9853 749.416,886.2023 978.568,893.1199 " fill="none" id="CashEntry-CurrencyExchange" style="stroke: #A80036; stroke-width: 1.0;"/><polygon fill="#A80036" points="983.885,893.2797,975.0103,889.009,978.8873,893.1283,974.768,897.0053,983.885,893.2797" style="stroke: #A80036; stroke-width: 1.0;"/><text fill="#000000" font-family="sans-serif" font-size="13" lengthAdjust="spacingAndGlyphs" textLength="119" x="7" y="626.0669">CurrencyExchange</text><text fill="#000000" font-family="sans-serif" font-size="13" lengthAdjust="spacingAndGlyphs" textLength="8" x="968.0669" y="888.198">1</text><!--link CashEntry to Charges--><path d="M430.805,312.048 C319.871,329.114 181,361.218 181,415 C181,415 181,415 181,725 C181,804.962 809.028,809.274 963.156,809.128 " fill="none" id="CashEntry-Charges" style="stroke: #A80036; stroke-width: 1.0;"/><polygon fill="#A80036" points="968.437,809.121,959.4313,805.1339,963.437,809.1281,959.4427,813.1339,968.437,809.121" style="stroke: #A80036; stroke-width: 1.0;"/><text fill="#000000" font-family="sans-serif" font-size="13" lengthAdjust="spacingAndGlyphs" textLength="53" x="182" y="575.0669">Charges</text><text fill="#000000" font-family="sans-serif" font-size="13" lengthAdjust="spacingAndGlyphs" textLength="7" x="953.5146" y="803.2704">*</text><!--link CashEntry to CashAvailability--><path d="M701.345,322.037 C758.159,331.912 825.069,342.172 886,348 C945.754,353.715 1097.04,344.711 1156,356 C1319.02,387.215 1409.93,365.315 1498,506 C1573.26,626.222 1321.18,690.584 1204.77,713.345 " fill="none" id="CashEntry-CashAvailability" style="stroke: #A80036; stroke-width: 1.0;"/><polygon fill="#A80036" points="1199.67,714.333,1209.2692,716.5366,1204.5776,713.3761,1207.7381,708.6844,1199.67,714.333" style="stroke: #A80036; stroke-width: 1.0;"/><text fill="#000000" font-family="sans-serif" font-size="13" lengthAdjust="spacingAndGlyphs" textLength="67" x="1513" y="522.0669">Availability</text><text fill="#000000" font-family="sans-serif" font-size="13" lengthAdjust="spacingAndGlyphs" textLength="8" x="1207.6629" y="707.7437">1</text><!--link CashEntry to Interest--><path d="M701.36,321.876 C758.177,331.726 825.085,342.011 886,348 C936.676,352.982 1065.22,345.305 1115,356 C1135.66,360.438 1139.21,366.588 1159,374 C1197.7,388.496 1213.49,379.824 1247,404 C1276.86,425.545 1296.46,440.161 1288,476 C1275.48,529.049 1263.03,542.999 1223,580 C1213.23,589.032 1201.93,598.719 1192.75,606.407 " fill="none" id="CashEntry-Interest" style="stroke: #A80036; stroke-width: 1.0;"/><polygon fill="#A80036" points="1188.69,609.79,1198.1588,607.0805,1192.5241,606.5807,1193.0239,600.9459,1188.69,609.79" style="stroke: #A80036; stroke-width: 1.0;"/><text fill="#000000" font-family="sans-serif" font-size="13" lengthAdjust="spacingAndGlyphs" textLength="49" x="1291" y="471.0669">Interest</text><text fill="#000000" font-family="sans-serif" font-size="13" lengthAdjust="spacingAndGlyphs" textLength="24" x="1163.8358" y="599.0239">0..1</text><!--link CashEntry to InvoiceFinancingAgreement--><path d="M604.966,324.09 C647.425,353.571 718.241,399.514 785,428 C872.917,465.514 980.883,491.123 1048.59,504.913 " fill="none" id="CashEntry-InvoiceFinancingAgreement" style="stroke: #A80036; stroke-width: 1.0;"/><polygon fill="#A80036" points="1053.8,505.967,1045.7653,500.2711,1048.8981,504.9812,1044.188,508.114,1053.8,505.967" style="stroke: #A80036; stroke-width: 1.0;"/><text fill="#000000" font-family="sans-serif" font-size="13" lengthAdjust="spacingAndGlyphs" textLength="226" x="786" y="420.0669">RelatedInvoiceFinancingTransaction</text><text fill="#000000" font-family="sans-serif" font-size="13" lengthAdjust="spacingAndGlyphs" textLength="24" x="1003.4656" y="495.0039">0..1</text><!--link CashEntry to PaymentInvestigationCase--><path d="M683.797,324.049 C749.143,339.35 831.941,358.314 906,374 C954.938,384.365 1010.48,395.117 1052.29,403.009 " fill="none" id="CashEntry-PaymentInvestigationCase" style="stroke: #A80036; stroke-width: 1.0;"/><polygon fill="#A80036" points="1057.32,403.957,1049.2195,398.3551,1052.407,403.0284,1047.7337,406.2159,1057.32,403.957" style="stroke: #A80036; stroke-width: 1.0;"/><text fill="#000000" font-family="sans-serif" font-size="13" lengthAdjust="spacingAndGlyphs" textLength="161" x="907" y="369.0669">RelatedInvestigationCase</text><text fill="#000000" font-family="sans-serif" font-size="13" lengthAdjust="spacingAndGlyphs" textLength="24" x="1007.2503" y="392.9904">0..1</text><!--link CashEntry to PaymentInvestigationCaseResolution--><path d="M701.084,295 C781.308,295 882.286,295 960.401,295 " fill="none" id="CashEntry-PaymentInvestigationCaseResolution" style="stroke: #A80036; stroke-width: 1.0;"/><polygon fill="#A80036" points="965.513,295,956.513,291,960.513,295,956.513,299,965.513,295" style="stroke: #A80036; stroke-width: 1.0;"/><text fill="#000000" font-family="sans-serif" font-size="13" lengthAdjust="spacingAndGlyphs" textLength="227" x="719.25" y="287.0669">RelatedInvestigationCaseResolution</text><text fill="#000000" font-family="sans-serif" font-size="13" lengthAdjust="spacingAndGlyphs" textLength="24" x="933.7203" y="307.4578">0..1</text><!--link Account to Account--><path d="M1696.51,283.15 C1714.18,280.292 1731,284.242 1731,295 C1731,304.665 1717.42,308.835 1701.85,307.51 " fill="none" id="Account-Account" style="stroke: #A80036; stroke-width: 1.0;"/><polygon fill="#A80036" points="1696.51,306.85,1704.9647,311.9016,1701.4738,307.4503,1705.9251,303.9595,1696.51,306.85" style="stroke: #A80036; stroke-width: 1.0;"/><text fill="#000000" font-family="sans-serif" font-size="13" lengthAdjust="spacingAndGlyphs" textLength="94" x="1737" y="299.0669">ParentAccount</text><text fill="#000000" font-family="sans-serif" font-size="13" lengthAdjust="spacingAndGlyphs" textLength="8" x="1697.1048" y="326.9326">1</text><!--link Account to CurrencyExchange--><path d="M1696.31,303.375 C1755.73,320.749 1888,370.186 1888,466 C1888,466 1888,466 1888,811 C1888,888.9045 1310.58,895.3945 1111.51,895.3171 " fill="none" id="Account-CurrencyExchange" style="stroke: #A80036; stroke-width: 1.0;"/><polygon fill="#A80036" points="1106.31,895.3136,1115.2985,899.3393,1111.31,895.3279,1115.3214,891.3393,1106.31,895.3136" style="stroke: #A80036; stroke-width: 1.0;"/><text fill="#000000" font-family="sans-serif" font-size="13" lengthAdjust="spacingAndGlyphs" textLength="119" x="1889" y="626.0669">CurrencyExchange</text><text fill="#000000" font-family="sans-serif" font-size="13" lengthAdjust="spacingAndGlyphs" textLength="7" x="1113.8037" y="890.3278">*</text><!--link Balance to Interest--><path d="M1639.4,424.806 C1595.63,437.85 1508.49,466.582 1442,506 C1397.75,532.234 1399.09,557.162 1353,580 C1305.74,603.416 1244.76,613.712 1207.83,618.051 " fill="none" id="Balance-Interest" style="stroke: #A80036; stroke-width: 1.0;"/><polygon fill="#A80036" points="1202.56,618.649,1211.9498,621.6209,1207.5288,618.0917,1211.058,613.6707,1202.56,618.649" style="stroke: #A80036; stroke-width: 1.0;"/><text fill="#000000" font-family="sans-serif" font-size="13" lengthAdjust="spacingAndGlyphs" textLength="49" x="1443" y="522.0669">Interest</text><text fill="#000000" font-family="sans-serif" font-size="13" lengthAdjust="spacingAndGlyphs" textLength="7" x="1210.8402" y="611.553">*</text><!--link CashAccount to CashBalance--><path d="M959.693,530.308 C970.183,538.975 985.013,551.234 998,562 C1016.38,577.239 1037.42,594.725 1051.79,606.68 " fill="none" id="CashAccount-CashBalance" style="stroke: #A80036; stroke-width: 1.0;"/><polygon fill="#A80036" points="1055.66,609.899,1051.3019,601.0668,1051.8171,606.7002,1046.1838,607.2154,1055.66,609.899" style="stroke: #A80036; stroke-width: 1.0;"/><text fill="#000000" font-family="sans-serif" font-size="13" lengthAdjust="spacingAndGlyphs" textLength="83" x="1021" y="575.0669">CashBalance</text><text fill="#000000" font-family="sans-serif" font-size="13" lengthAdjust="spacingAndGlyphs" textLength="7" x="1041.4416" y="598.9125">*</text><!--link CashAccount to Charges--><path d="M948.945,530.222 C956.588,559.759 977.206,642.19 988,712 C992.37,740.264 994.894,773.512 996.104,792.828 " fill="none" id="CashAccount-Charges" style="stroke: #A80036; stroke-width: 1.0;"/><polygon fill="#A80036" points="996.41,797.89,999.8602,788.6652,996.1086,792.8991,991.8748,789.1475,996.41,797.89" style="stroke: #A80036; stroke-width: 1.0;"/><text fill="#000000" font-family="sans-serif" font-size="13" lengthAdjust="spacingAndGlyphs" textLength="53" x="984" y="677.0669">Charges</text><text fill="#000000" font-family="sans-serif" font-size="13" lengthAdjust="spacingAndGlyphs" textLength="7" x="986.4884" y="786.9004">*</text><!--link CashBalance to CashAvailability--><path d="M1072.36,634.318 C1076.47,646.893 1084.38,667.352 1096,682 C1104.35,692.525 1115.96,701.899 1126.18,709.018 " fill="none" id="CashBalance-CashAvailability" style="stroke: #A80036; stroke-width: 1.0;"/><polygon fill="#A80036" points="1130.46,711.927,1125.2697,703.5568,1126.3263,709.1141,1120.769,710.1707,1130.46,711.927" style="stroke: #A80036; stroke-width: 1.0;"/><text fill="#000000" font-family="sans-serif" font-size="13" lengthAdjust="spacingAndGlyphs" textLength="67" x="1097" y="677.0669">Availability</text><text fill="#000000" font-family="sans-serif" font-size="13" lengthAdjust="spacingAndGlyphs" textLength="8" x="1113.2822" y="700.9501">1</text></g></svg>