<?xml version="1.0" encoding="UTF-8" standalone="no"?><svg xmlns="http://www.w3.org/2000/svg" xmlns:xlink="http://www.w3.org/1999/xlink" contentScriptType="application/ecmascript" contentStyleType="text/css" height="912px" preserveAspectRatio="none" style="width:1454px;height:912px;" version="1.1" viewBox="0 0 1454 912" width="1454px" zoomAndPan="magnify"><defs><filter height="300%" id="fsvnu75tlxk4c" width="300%" x="-1" y="-1"><feGaussianBlur result="blurOut" stdDeviation="2.0"/><feColorMatrix in="blurOut" result="blurOut2" type="matrix" values="0 0 0 0 0 0 0 0 0 0 0 0 0 0 0 0 0 0 .4 0"/><feOffset dx="4.0" dy="4.0" in="blurOut2" result="blurOut3"/><feBlend in="SourceGraphic" in2="blurOut3" mode="normal"/></filter></defs><g><!--cluster ##12623--><!--cluster ##12629--><!--cluster ##12640--><!--class Distribution--><a target="_top" xlink:actuate="onRequest" xlink:href="../Distribution.html" xlink:show="new" xlink:title="Distributions in cash and/or securities following a corporate event." xlink:type="simple"><rect fill="#FEFEEE" filter="url(#fsvnu75tlxk4c)" height="211.2344" id="Distribution" style="stroke: #A80036; stroke-width: 1.5;" width="324" x="206" y="40.5"/><rect fill="#FEFEEE" height="23.9688" style="stroke: #A80036; stroke-width: 1.5;" width="324" x="206" y="40.5"/><text fill="#000000" font-family="sans-serif" font-size="12" lengthAdjust="spacingAndGlyphs" textLength="72" x="332" y="56.6387">Distribution</text><line style="stroke: #A80036; stroke-width: 1.5;" x1="207" x2="529" y1="64.4688" y2="64.4688"/><ellipse cx="217" cy="76.3711" fill="#84BE84" rx="3" ry="3" style="stroke: #038048; stroke-width: 1.0;"/><text fill="#000000" font-family="sans-serif" font-size="11" lengthAdjust="spacingAndGlyphs" textLength="74" x="226" y="78.6792">EffectiveDate</text><text fill="#000000" font-family="sans-serif" font-size="11" font-style="italic" lengthAdjust="spacingAndGlyphs" textLength="81" x="304" y="78.6792">(ISODateTime)</text><ellipse cx="217" cy="89.1758" fill="#84BE84" rx="3" ry="3" style="stroke: #038048; stroke-width: 1.0;"/><text fill="#000000" font-family="sans-serif" font-size="11" lengthAdjust="spacingAndGlyphs" textLength="91" x="226" y="91.4839">EventConditions</text><text fill="#000000" font-family="sans-serif" font-size="11" font-style="italic" lengthAdjust="spacingAndGlyphs" textLength="77" x="321" y="91.4839">(Max350Text)</text><ellipse cx="217" cy="101.9805" fill="#84BE84" rx="3" ry="3" style="stroke: #038048; stroke-width: 1.0;"/><text fill="#000000" font-family="sans-serif" font-size="11" lengthAdjust="spacingAndGlyphs" textLength="39" x="226" y="104.2886">ExDate</text><text fill="#000000" font-family="sans-serif" font-size="11" font-style="italic" lengthAdjust="spacingAndGlyphs" textLength="81" x="269" y="104.2886">(ISODateTime)</text><ellipse cx="217" cy="114.7852" fill="#84BE84" rx="3" ry="3" style="stroke: #038048; stroke-width: 1.0;"/><text fill="#000000" font-family="sans-serif" font-size="11" lengthAdjust="spacingAndGlyphs" textLength="60" x="226" y="117.0933">GrossRate</text><text fill="#000000" font-family="sans-serif" font-size="11" font-style="italic" lengthAdjust="spacingAndGlyphs" textLength="98" x="290" y="117.0933">(PercentageRate)</text><ellipse cx="217" cy="127.5898" fill="#84BE84" rx="3" ry="3" style="stroke: #038048; stroke-width: 1.0;"/><text fill="#000000" font-family="sans-serif" font-size="11" lengthAdjust="spacingAndGlyphs" textLength="70" x="226" y="129.8979">MeetingDate</text><text fill="#000000" font-family="sans-serif" font-size="11" font-style="italic" lengthAdjust="spacingAndGlyphs" textLength="81" x="300" y="129.8979">(ISODateTime)</text><ellipse cx="217" cy="140.3945" fill="#84BE84" rx="3" ry="3" style="stroke: #038048; stroke-width: 1.0;"/><text fill="#000000" font-family="sans-serif" font-size="11" lengthAdjust="spacingAndGlyphs" textLength="44" x="226" y="142.7026">NetRate</text><text fill="#000000" font-family="sans-serif" font-size="11" font-style="italic" lengthAdjust="spacingAndGlyphs" textLength="98" x="274" y="142.7026">(PercentageRate)</text><ellipse cx="217" cy="153.1992" fill="#84BE84" rx="3" ry="3" style="stroke: #038048; stroke-width: 1.0;"/><text fill="#000000" font-family="sans-serif" font-size="11" lengthAdjust="spacingAndGlyphs" textLength="81" x="226" y="155.5073">NewFaceValue</text><text fill="#000000" font-family="sans-serif" font-size="11" font-style="italic" lengthAdjust="spacingAndGlyphs" textLength="126" x="311" y="155.5073">(CurrencyAndAmount)</text><ellipse cx="217" cy="166.0039" fill="#84BE84" rx="3" ry="3" style="stroke: #038048; stroke-width: 1.0;"/><text fill="#000000" font-family="sans-serif" font-size="11" lengthAdjust="spacingAndGlyphs" textLength="74" x="226" y="168.312">NewParValue</text><text fill="#000000" font-family="sans-serif" font-size="11" font-style="italic" lengthAdjust="spacingAndGlyphs" textLength="126" x="304" y="168.312">(CurrencyAndAmount)</text><ellipse cx="217" cy="178.8086" fill="#84BE84" rx="3" ry="3" style="stroke: #038048; stroke-width: 1.0;"/><text fill="#000000" font-family="sans-serif" font-size="11" lengthAdjust="spacingAndGlyphs" textLength="75" x="226" y="181.1167">PaymentDate</text><text fill="#000000" font-family="sans-serif" font-size="11" font-style="italic" lengthAdjust="spacingAndGlyphs" textLength="81" x="305" y="181.1167">(ISODateTime)</text><ellipse cx="217" cy="191.6133" fill="#84BE84" rx="3" ry="3" style="stroke: #038048; stroke-width: 1.0;"/><text fill="#000000" font-family="sans-serif" font-size="11" lengthAdjust="spacingAndGlyphs" textLength="128" x="226" y="193.9214">CorporateActionOption</text><text fill="#000000" font-family="sans-serif" font-size="11" font-style="italic" lengthAdjust="spacingAndGlyphs" textLength="166" x="358" y="193.9214">(CorporateActionOptionCode)</text><ellipse cx="217" cy="204.418" fill="#84BE84" rx="3" ry="3" style="stroke: #038048; stroke-width: 1.0;"/><text fill="#000000" font-family="sans-serif" font-size="11" lengthAdjust="spacingAndGlyphs" textLength="88" x="226" y="206.7261">CurrencyOption</text><text fill="#000000" font-family="sans-serif" font-size="11" font-style="italic" lengthAdjust="spacingAndGlyphs" textLength="89" x="318" y="206.7261">(CurrencyCode)</text><ellipse cx="217" cy="217.2227" fill="#84BE84" rx="3" ry="3" style="stroke: #038048; stroke-width: 1.0;"/><text fill="#000000" font-family="sans-serif" font-size="11" lengthAdjust="spacingAndGlyphs" textLength="97" x="226" y="219.5308">DecreaseAmount</text><text fill="#000000" font-family="sans-serif" font-size="11" font-style="italic" lengthAdjust="spacingAndGlyphs" textLength="126" x="327" y="219.5308">(CurrencyAndAmount)</text><ellipse cx="217" cy="230.0273" fill="#84BE84" rx="3" ry="3" style="stroke: #038048; stroke-width: 1.0;"/><text fill="#000000" font-family="sans-serif" font-size="11" lengthAdjust="spacingAndGlyphs" textLength="79" x="226" y="232.3354">DecreaseRate</text><text fill="#000000" font-family="sans-serif" font-size="11" font-style="italic" lengthAdjust="spacingAndGlyphs" textLength="98" x="309" y="232.3354">(PercentageRate)</text><ellipse cx="217" cy="242.832" fill="#84BE84" rx="3" ry="3" style="stroke: #038048; stroke-width: 1.0;"/><text fill="#000000" font-family="sans-serif" font-size="11" lengthAdjust="spacingAndGlyphs" textLength="115" x="226" y="245.1401">OfferPriceFixingDate</text><text fill="#000000" font-family="sans-serif" font-size="11" font-style="italic" lengthAdjust="spacingAndGlyphs" textLength="81" x="345" y="245.1401">(ISODateTime)</text></a><!--class CashDistribution--><a target="_top" xlink:actuate="onRequest" xlink:href="../CashDistribution.html" xlink:show="new" xlink:title="Distribution of cash pay-out." xlink:type="simple"><rect fill="#FEFECE" filter="url(#fsvnu75tlxk4c)" height="172.8203" id="CashDistribution" style="stroke: #A80036; stroke-width: 1.5;" width="296" x="206" y="330.5"/><rect fill="#FEFECE" height="23.9688" style="stroke: #A80036; stroke-width: 1.5;" width="296" x="206" y="330.5"/><text fill="#000000" font-family="sans-serif" font-size="12" lengthAdjust="spacingAndGlyphs" textLength="103" x="302.5" y="346.6387">CashDistribution</text><line style="stroke: #A80036; stroke-width: 1.5;" x1="207" x2="501" y1="354.4688" y2="354.4688"/><ellipse cx="217" cy="366.3711" fill="#84BE84" rx="3" ry="3" style="stroke: #038048; stroke-width: 1.0;"/><text fill="#000000" font-family="sans-serif" font-size="11" lengthAdjust="spacingAndGlyphs" textLength="83" x="226" y="368.6792">AmortisedRate</text><text fill="#000000" font-family="sans-serif" font-size="11" font-style="italic" lengthAdjust="spacingAndGlyphs" textLength="85" x="313" y="368.6792">(BaseOneRate)</text><ellipse cx="217" cy="379.1758" fill="#84BE84" rx="3" ry="3" style="stroke: #038048; stroke-width: 1.0;"/><text fill="#000000" font-family="sans-serif" font-size="11" lengthAdjust="spacingAndGlyphs" textLength="25" x="226" y="381.4839">Rate</text><text fill="#000000" font-family="sans-serif" font-size="11" font-style="italic" lengthAdjust="spacingAndGlyphs" textLength="98" x="255" y="381.4839">(PercentageRate)</text><ellipse cx="217" cy="391.9805" fill="#84BE84" rx="3" ry="3" style="stroke: #038048; stroke-width: 1.0;"/><text fill="#000000" font-family="sans-serif" font-size="11" lengthAdjust="spacingAndGlyphs" textLength="109" x="226" y="394.2886">CashIndemnityRate</text><text fill="#000000" font-family="sans-serif" font-size="11" font-style="italic" lengthAdjust="spacingAndGlyphs" textLength="98" x="339" y="394.2886">(PercentageRate)</text><ellipse cx="217" cy="404.7852" fill="#84BE84" rx="3" ry="3" style="stroke: #038048; stroke-width: 1.0;"/><text fill="#000000" font-family="sans-serif" font-size="11" lengthAdjust="spacingAndGlyphs" textLength="174" x="226" y="407.0933">DividendReinvestmentIndicator</text><text fill="#000000" font-family="sans-serif" font-size="11" font-style="italic" lengthAdjust="spacingAndGlyphs" textLength="92" x="404" y="407.0933">(YesNoIndicator)</text><ellipse cx="217" cy="417.5898" fill="#84BE84" rx="3" ry="3" style="stroke: #038048; stroke-width: 1.0;"/><text fill="#000000" font-family="sans-serif" font-size="11" lengthAdjust="spacingAndGlyphs" textLength="87" x="226" y="419.8979">InterestAmount</text><text fill="#000000" font-family="sans-serif" font-size="11" font-style="italic" lengthAdjust="spacingAndGlyphs" textLength="126" x="317" y="419.8979">(CurrencyAndAmount)</text><ellipse cx="217" cy="430.3945" fill="#84BE84" rx="3" ry="3" style="stroke: #038048; stroke-width: 1.0;"/><text fill="#000000" font-family="sans-serif" font-size="11" lengthAdjust="spacingAndGlyphs" textLength="69" x="226" y="432.7026">InterestRate</text><text fill="#000000" font-family="sans-serif" font-size="11" font-style="italic" lengthAdjust="spacingAndGlyphs" textLength="98" x="299" y="432.7026">(PercentageRate)</text><ellipse cx="217" cy="443.1992" fill="#84BE84" rx="3" ry="3" style="stroke: #038048; stroke-width: 1.0;"/><text fill="#000000" font-family="sans-serif" font-size="11" lengthAdjust="spacingAndGlyphs" textLength="139" x="226" y="445.5073">LoyaltyPremiumIndicator</text><text fill="#000000" font-family="sans-serif" font-size="11" font-style="italic" lengthAdjust="spacingAndGlyphs" textLength="92" x="369" y="445.5073">(YesNoIndicator)</text><ellipse cx="217" cy="456.0039" fill="#84BE84" rx="3" ry="3" style="stroke: #038048; stroke-width: 1.0;"/><text fill="#000000" font-family="sans-serif" font-size="11" lengthAdjust="spacingAndGlyphs" textLength="76" x="226" y="458.312">PaymentType</text><text fill="#000000" font-family="sans-serif" font-size="11" font-style="italic" lengthAdjust="spacingAndGlyphs" textLength="115" x="306" y="458.312">(PaymentTypeCode)</text><ellipse cx="217" cy="468.8086" fill="#84BE84" rx="3" ry="3" style="stroke: #038048; stroke-width: 1.0;"/><text fill="#000000" font-family="sans-serif" font-size="11" lengthAdjust="spacingAndGlyphs" textLength="78" x="226" y="471.1167">SelectionDate</text><text fill="#000000" font-family="sans-serif" font-size="11" font-style="italic" lengthAdjust="spacingAndGlyphs" textLength="81" x="308" y="471.1167">(ISODateTime)</text><ellipse cx="217" cy="481.6133" fill="#84BE84" rx="3" ry="3" style="stroke: #038048; stroke-width: 1.0;"/><text fill="#000000" font-family="sans-serif" font-size="11" lengthAdjust="spacingAndGlyphs" textLength="119" x="226" y="483.9214">CashDistributionRate</text><text fill="#000000" font-family="sans-serif" font-size="11" font-style="italic" lengthAdjust="spacingAndGlyphs" textLength="98" x="349" y="483.9214">(PercentageRate)</text><ellipse cx="217" cy="494.418" fill="#84BE84" rx="3" ry="3" style="stroke: #038048; stroke-width: 1.0;"/><text fill="#000000" font-family="sans-serif" font-size="11" lengthAdjust="spacingAndGlyphs" textLength="137" x="226" y="496.7261">CashDistributionAmount</text><text fill="#000000" font-family="sans-serif" font-size="11" font-style="italic" lengthAdjust="spacingAndGlyphs" textLength="126" x="367" y="496.7261">(CurrencyAndAmount)</text></a><!--class DateTimePeriod--><a target="_top" xlink:actuate="onRequest" xlink:href="../DateTimePeriod.html" xlink:show="new" xlink:title="Time span defined by a start date and time, and an end date and time." xlink:type="simple"><rect fill="#EEEEEE" filter="url(#fsvnu75tlxk4c)" height="23.9688" id="DateTimePeriod" style="stroke: #A80036; stroke-width: 1.5;" width="105" x="586.75" y="405"/><rect fill="#EEEEEE" height="23.9688" style="stroke: #A80036; stroke-width: 1.5;" width="105" x="586.75" y="405"/><text fill="#000000" font-family="sans-serif" font-size="12" lengthAdjust="spacingAndGlyphs" textLength="99" x="589.75" y="421.1387">DateTimePeriod</text></a><!--class Tax--><a target="_top" xlink:actuate="onRequest" xlink:href="../Tax.html" xlink:show="new" xlink:title="Amount of money due to the government or tax authority, according to various pre-defined parameters such as thresholds or income." xlink:type="simple"><rect fill="#EEEEEE" filter="url(#fsvnu75tlxk4c)" height="23.9688" id="Tax" style="stroke: #A80036; stroke-width: 1.5;" width="27" x="825.75" y="688"/><rect fill="#EEEEEE" height="23.9688" style="stroke: #A80036; stroke-width: 1.5;" width="27" x="825.75" y="688"/><text fill="#000000" font-family="sans-serif" font-size="12" lengthAdjust="spacingAndGlyphs" textLength="21" x="828.75" y="704.1387">Tax</text></a><!--class SecuritiesPricing--><a target="_top" xlink:actuate="onRequest" xlink:href="../SecuritiesPricing.html" xlink:show="new" xlink:title="Characteristics related to the price of the security." xlink:type="simple"><rect fill="#EEEEEE" filter="url(#fsvnu75tlxk4c)" height="23.9688" id="SecuritiesPricing" style="stroke: #A80036; stroke-width: 1.5;" width="110" x="807" y="584"/><rect fill="#EEEEEE" height="23.9688" style="stroke: #A80036; stroke-width: 1.5;" width="110" x="807" y="584"/><text fill="#000000" font-family="sans-serif" font-size="12" lengthAdjust="spacingAndGlyphs" textLength="104" x="810" y="600.1387">SecuritiesPricing</text></a><!--class IncentivePremium--><a target="_top" xlink:actuate="onRequest" xlink:href="../IncentivePremium.html" xlink:show="new" xlink:title="Cash premium made available if the securities holder consents or participates to an event." xlink:type="simple"><rect fill="#EEEEEE" filter="url(#fsvnu75tlxk4c)" height="23.9688" id="IncentivePremium" style="stroke: #A80036; stroke-width: 1.5;" width="116" x="897.5" y="878"/><rect fill="#EEEEEE" height="23.9688" style="stroke: #A80036; stroke-width: 1.5;" width="116" x="897.5" y="878"/><text fill="#000000" font-family="sans-serif" font-size="12" lengthAdjust="spacingAndGlyphs" textLength="110" x="900.5" y="894.1387">IncentivePremium</text></a><!--class Dividend--><a target="_top" xlink:actuate="onRequest" xlink:href="../Dividend.html" xlink:show="new" xlink:title="Distribution of earnings to shareholders, paid for in cash, stock, scrip issue or, rarely, in kind, for example, in company products or property. The dividend amount is decided by the board of directors." xlink:type="simple"><rect fill="#EEEEEE" filter="url(#fsvnu75tlxk4c)" height="23.9688" id="Dividend" style="stroke: #A80036; stroke-width: 1.5;" width="59" x="939.75" y="790"/><rect fill="#EEEEEE" height="23.9688" style="stroke: #A80036; stroke-width: 1.5;" width="59" x="939.75" y="790"/><text fill="#000000" font-family="sans-serif" font-size="12" lengthAdjust="spacingAndGlyphs" textLength="53" x="942.75" y="806.1387">Dividend</text></a><!--class CurrencyExchange--><a target="_top" xlink:actuate="onRequest" xlink:href="../CurrencyExchange.html" xlink:show="new" xlink:title="Information needed to process a currency exchange or conversion." xlink:type="simple"><rect fill="#EEEEEE" filter="url(#fsvnu75tlxk4c)" height="23.9688" id="CurrencyExchange" style="stroke: #A80036; stroke-width: 1.5;" width="122" x="110" y="790"/><rect fill="#EEEEEE" height="23.9688" style="stroke: #A80036; stroke-width: 1.5;" width="122" x="110" y="790"/><text fill="#000000" font-family="sans-serif" font-size="12" lengthAdjust="spacingAndGlyphs" textLength="116" x="113" y="806.1387">CurrencyExchange</text></a><!--class SecuritiesAndCashDistribution--><a target="_top" xlink:actuate="onRequest" xlink:href="../SecuritiesAndCashDistribution.html" xlink:show="new" xlink:title="Characteristics for a mixed cash and securities distribution event." xlink:type="simple"><rect fill="#EEEEEE" filter="url(#fsvnu75tlxk4c)" height="23.9688" id="SecuritiesAndCashDistribution" style="stroke: #A80036; stroke-width: 1.5;" width="195" x="37.75" y="688"/><rect fill="#EEEEEE" height="23.9688" style="stroke: #A80036; stroke-width: 1.5;" width="195" x="37.75" y="688"/><text fill="#000000" font-family="sans-serif" font-size="12" lengthAdjust="spacingAndGlyphs" textLength="189" x="40.75" y="704.1387">SecuritiesAndCashDistribution</text></a><!--link Distribution to CashDistribution--><path d="M265.71,270.018 C263.98,273.976 262.402,277.973 261,282 C255.226,298.58 257.704,314.989 264.775,330.338 " fill="none" id="Distribution-CashDistribution" style="stroke: #A80036; stroke-width: 1.0;"/><polygon fill="none" points="259.611,266.565,274.823,251.814,272.13,272.831,259.611,266.565" style="stroke: #A80036; stroke-width: 1.0;"/><!--link Tax to DateTimePeriod--><!--link SecuritiesPricing to Tax--><!--link IncentivePremium to SecuritiesPricing--><!--link Dividend to IncentivePremium--><!--link SecuritiesAndCashDistribution to CurrencyExchange--><!--link Distribution to DateTimePeriod--><path d="M530.036,186.228 C578.958,206.466 627.265,236.796 656,282 C679.567,319.075 659.538,373.648 647.098,400.254 " fill="none" id="Distribution-DateTimePeriod" style="stroke: #A80036; stroke-width: 1.0;"/><polygon fill="#A80036" points="644.876,404.886,652.3752,398.5015,647.0386,400.3779,645.1623,395.0413,644.876,404.886" style="stroke: #A80036; stroke-width: 1.0;"/><text fill="#000000" font-family="sans-serif" font-size="13" lengthAdjust="spacingAndGlyphs" textLength="93" x="665" y="295.0669">ExercisePeriod</text><text fill="#000000" font-family="sans-serif" font-size="13" lengthAdjust="spacingAndGlyphs" textLength="8" x="636.0912" y="393.895">1</text><!--link Distribution to DateTimePeriod--><path d="M530.006,157.868 C615.626,172.838 713.929,206.684 768,282 C803.211,331.046 718.18,379.927 669.762,402.723 " fill="none" id="Distribution-DateTimePeriod" style="stroke: #A80036; stroke-width: 1.0;"/><polygon fill="#A80036" points="665.196,404.847,675.0434,404.679,669.7298,402.7387,671.6701,397.425,665.196,404.847" style="stroke: #A80036; stroke-width: 1.0;"/><text fill="#000000" font-family="sans-serif" font-size="13" lengthAdjust="spacingAndGlyphs" textLength="71" x="777" y="295.0669">OfferPeriod</text><text fill="#000000" font-family="sans-serif" font-size="13" lengthAdjust="spacingAndGlyphs" textLength="8" x="663.3962" y="393.8426">1</text><!--link Distribution to DateTimePeriod--><path d="M284.512,251.868 C279.792,268.997 281.363,285.769 294,300 C331.446,342.169 494.795,306.367 546,330 C581.232,346.261 612.078,380.962 627.846,400.958 " fill="none" id="Distribution-DateTimePeriod" style="stroke: #A80036; stroke-width: 1.0;"/><polygon fill="#A80036" points="630.979,404.99,628.6169,395.4286,627.9118,401.0413,622.299,400.3362,630.979,404.99" style="stroke: #A80036; stroke-width: 1.0;"/><text fill="#000000" font-family="sans-serif" font-size="13" lengthAdjust="spacingAndGlyphs" textLength="87" x="295" y="295.0669">TradingPeriod</text><text fill="#000000" font-family="sans-serif" font-size="13" lengthAdjust="spacingAndGlyphs" textLength="8" x="617.4171" y="394.0348">1</text><!--link Distribution to DateTimePeriod--><path d="M390.718,251.8 C398.694,269.859 409.463,286.977 424,300 C465.589,337.258 496.831,303.539 546,330 C579.666,348.118 610.497,381.29 626.817,400.714 " fill="none" id="Distribution-DateTimePeriod" style="stroke: #A80036; stroke-width: 1.0;"/><polygon fill="#A80036" points="630.266,404.872,627.598,395.3914,627.0735,401.0239,621.441,400.4994,630.266,404.872" style="stroke: #A80036; stroke-width: 1.0;"/><text fill="#000000" font-family="sans-serif" font-size="13" lengthAdjust="spacingAndGlyphs" textLength="93" x="425" y="295.0669">BlockingPeriod</text><text fill="#000000" font-family="sans-serif" font-size="13" lengthAdjust="spacingAndGlyphs" textLength="8" x="628.5528" y="393.8762">1</text><!--link Distribution to DateTimePeriod--><path d="M492.584,251.841 C503.4,261.831 514.017,271.976 524,282 C564.286,322.452 606.816,374.961 627.006,400.578 " fill="none" id="Distribution-DateTimePeriod" style="stroke: #A80036; stroke-width: 1.0;"/><polygon fill="#A80036" points="630.281,404.747,627.8665,395.1987,627.1921,400.8152,621.5756,400.1409,630.281,404.747" style="stroke: #A80036; stroke-width: 1.0;"/><text fill="#000000" font-family="sans-serif" font-size="13" lengthAdjust="spacingAndGlyphs" textLength="89" x="542" y="295.0669">InterestPeriod</text><text fill="#000000" font-family="sans-serif" font-size="13" lengthAdjust="spacingAndGlyphs" textLength="8" x="616.6538" y="393.9666">1</text><!--link Distribution to Tax--><path d="M530.188,166.331 C716.231,192.247 1004.044,245.082 1069,330 C1122.47,399.896 1108.52,449.373 1069,528 C1023.08,619.366 902.662,674.24 856.951,692.331 " fill="none" id="Distribution-Tax" style="stroke: #A80036; stroke-width: 1.0;"/><polygon fill="#A80036" points="852.259,694.162,862.0973,694.618,856.9172,692.345,859.1901,687.1649,852.259,694.162" style="stroke: #A80036; stroke-width: 1.0;"/><text fill="#000000" font-family="sans-serif" font-size="13" lengthAdjust="spacingAndGlyphs" textLength="95" x="1064" y="549.0669">DistributionTax</text><text fill="#000000" font-family="sans-serif" font-size="13" lengthAdjust="spacingAndGlyphs" textLength="8" x="860.5509" y="683.2791">1</text><!--link Distribution to SecuritiesPricing--><path d="M530.031,159.382 C633.19,174.516 764.502,208.009 858,282 C884.614,303.062 1017.21,526.736 997,554 C979.765,577.247 949.684,587.769 922.286,592.361 " fill="none" id="Distribution-SecuritiesPricing" style="stroke: #A80036; stroke-width: 1.0;"/><polygon fill="#A80036" points="917.205,593.151,926.7128,595.7203,922.1456,592.3826,925.4833,587.8153,917.205,593.151" style="stroke: #A80036; stroke-width: 1.0;"/><text fill="#000000" font-family="sans-serif" font-size="13" lengthAdjust="spacingAndGlyphs" textLength="62" x="997" y="421.0669">OfferPrice</text><text fill="#000000" font-family="sans-serif" font-size="13" lengthAdjust="spacingAndGlyphs" textLength="8" x="925.1607" y="587.7039">1</text><!--link Distribution to IncentivePremium--><path d="M530.241,159.061 C803.488,183.882 1326,252.696 1326,416 C1326,416 1326,416 1326,803 C1326,865.5004 1123.66,882.5906 1017.84,887.2548 " fill="none" id="Distribution-IncentivePremium" style="stroke: #A80036; stroke-width: 1.0;"/><polygon fill="#A80036" points="1012.56,887.4806,1021.7232,891.0912,1017.5554,887.2663,1021.3803,883.0986,1012.56,887.4806" style="stroke: #A80036; stroke-width: 1.0;"/><text fill="#000000" font-family="sans-serif" font-size="13" lengthAdjust="spacingAndGlyphs" textLength="115" x="1327" y="651.0669">IncentivePremium</text><text fill="#000000" font-family="sans-serif" font-size="13" lengthAdjust="spacingAndGlyphs" textLength="24" x="1021.4083" y="882.1461">0..1</text><!--link Distribution to Dividend--><path d="M530.058,165.019 C775.951,196.93 1215,273.815 1215,416 C1215,416 1215,416 1215,701 C1215,791.088 1071.67,801.91 1003.819,801.986 " fill="none" id="Distribution-Dividend" style="stroke: #A80036; stroke-width: 1.0;"/><polygon fill="#A80036" points="998.673,801.971,1007.6615,805.9967,1003.673,801.9853,1007.6844,797.9967,998.673,801.971" style="stroke: #A80036; stroke-width: 1.0;"/><text fill="#000000" font-family="sans-serif" font-size="13" lengthAdjust="spacingAndGlyphs" textLength="55" x="1216" y="600.0669">Dividend</text><text fill="#000000" font-family="sans-serif" font-size="13" lengthAdjust="spacingAndGlyphs" textLength="8" x="1006.8199" y="795.9789">1</text><!--link CashDistribution to CurrencyExchange--><path d="M332.635,503.768 C315.344,564.496 287.515,646.465 249,712 C231.87,741.148 204.534,769.597 187.19,786.202 " fill="none" id="CashDistribution-CurrencyExchange" style="stroke: #A80036; stroke-width: 1.0;"/><polygon fill="#A80036" points="183.435,789.762,192.7184,786.4729,187.0636,786.322,187.2144,780.6672,183.435,789.762" style="stroke: #A80036; stroke-width: 1.0;"/><text fill="#000000" font-family="sans-serif" font-size="13" lengthAdjust="spacingAndGlyphs" textLength="265" x="287" y="651.0669">DistributionCurrencyExchangeInformation</text><text fill="#000000" font-family="sans-serif" font-size="13" lengthAdjust="spacingAndGlyphs" textLength="7" x="178.0635" y="778.9866">*</text><!--link CashDistribution to SecuritiesAndCashDistribution--><path d="M205.661,466.488 C151.168,492.314 95.2089,530.175 64,584 C42.7733,620.609 86.6935,662.712 114.504,684.399 " fill="none" id="CashDistribution-SecuritiesAndCashDistribution" style="stroke: #A80036; stroke-width: 1.0;"/><polygon fill="#A80036" points="118.817,687.7,114.1013,679.0535,114.8465,684.6611,109.239,685.4063,118.817,687.7" style="stroke: #A80036; stroke-width: 1.0;"/><text fill="#000000" font-family="sans-serif" font-size="13" lengthAdjust="spacingAndGlyphs" textLength="193" x="65" y="600.0669">SecuritiesAndCashDistribution</text><text fill="#000000" font-family="sans-serif" font-size="13" lengthAdjust="spacingAndGlyphs" textLength="8" x="102.7173" y="676.9041">1</text><!--link DateTimePeriod to SecuritiesPricing--><path d="M633.084,429.081 C620.428,454.477 594.274,517.502 625,554 C647.168,580.333 739.077,589.753 801.707,593.123 " fill="none" id="DateTimePeriod-SecuritiesPricing" style="stroke: #A80036; stroke-width: 1.0;"/><polygon fill="#A80036" points="806.917,593.393,798.1359,588.933,801.9237,593.1345,797.7222,596.9223,806.917,593.393" style="stroke: #A80036; stroke-width: 1.0;"/><text fill="#000000" font-family="sans-serif" font-size="13" lengthAdjust="spacingAndGlyphs" textLength="191" x="626" y="549.0669">PriceCalculationRelatedPricing</text><text fill="#000000" font-family="sans-serif" font-size="13" lengthAdjust="spacingAndGlyphs" textLength="8" x="790.9699" y="588.1851">1</text><!--link DateTimePeriod to SecuritiesPricing--><path d="M662.679,429.116 C699.981,447.461 773.285,486.968 823,536 C835.925,548.747 846.928,566.449 853.919,579.131 " fill="none" id="DateTimePeriod-SecuritiesPricing" style="stroke: #A80036; stroke-width: 1.0;"/><polygon fill="#A80036" points="856.309,583.558,855.5552,573.738,853.9346,579.1578,848.5149,577.5371,856.309,583.558" style="stroke: #A80036; stroke-width: 1.0;"/><text fill="#000000" font-family="sans-serif" font-size="13" lengthAdjust="spacingAndGlyphs" textLength="148" x="839" y="549.0669">PriceFactRelatedPricing</text><text fill="#000000" font-family="sans-serif" font-size="13" lengthAdjust="spacingAndGlyphs" textLength="8" x="843.9012" y="572.9758">1</text><!--link Tax to CurrencyExchange--><path d="M825.656,702.998 C751.557,714.09 388.568,768.43 237.335,791.07 " fill="none" id="Tax-CurrencyExchange" style="stroke: #A80036; stroke-width: 1.0;"/><polygon fill="#A80036" points="232.045,791.862,241.5378,794.4862,236.99,791.1221,240.354,786.5742,232.045,791.862" style="stroke: #A80036; stroke-width: 1.0;"/><text fill="#000000" font-family="sans-serif" font-size="13" lengthAdjust="spacingAndGlyphs" textLength="119" x="566" y="755.0669">CurrencyExchange</text><text fill="#000000" font-family="sans-serif" font-size="13" lengthAdjust="spacingAndGlyphs" textLength="7" x="239.9114" y="785.6674">*</text><!--link Tax to Dividend--><path d="M852.423,711.325 C875.822,729.325 924.111,766.47 950.607,786.852 " fill="none" id="Tax-Dividend" style="stroke: #A80036; stroke-width: 1.0;"/><polygon fill="#A80036" points="954.665,789.973,949.9705,781.3149,950.702,786.9243,945.0926,787.6558,954.665,789.973" style="stroke: #A80036; stroke-width: 1.0;"/><text fill="#000000" font-family="sans-serif" font-size="13" lengthAdjust="spacingAndGlyphs" textLength="55" x="917" y="755.0669">Dividend</text><text fill="#000000" font-family="sans-serif" font-size="13" lengthAdjust="spacingAndGlyphs" textLength="7" x="940.1045" y="779.0119">*</text></g></svg>