<?xml version="1.0" encoding="UTF-8" standalone="no"?><svg xmlns="http://www.w3.org/2000/svg" xmlns:xlink="http://www.w3.org/1999/xlink" contentScriptType="application/ecmascript" contentStyleType="text/css" height="924px" preserveAspectRatio="none" style="width:1639px;height:924px;" version="1.1" viewBox="0 0 1639 924" width="1639px" zoomAndPan="magnify"><defs><filter height="300%" id="f1kzel0l0slo4r" width="300%" x="-1" y="-1"><feGaussianBlur result="blurOut" stdDeviation="2.0"/><feColorMatrix in="blurOut" result="blurOut2" type="matrix" values="0 0 0 0 0 0 0 0 0 0 0 0 0 0 0 0 0 0 .4 0"/><feOffset dx="4.0" dy="4.0" in="blurOut2" result="blurOut3"/><feBlend in="SourceGraphic" in2="blurOut3" mode="normal"/></filter></defs><g><!--cluster ##1029--><!--cluster ##1041--><!--cluster ##1050--><!--cluster ##1053--><!--cluster ##1062--><!--class Agreement--><a target="_top" xlink:actuate="onRequest" xlink:href="../Agreement.html" xlink:show="new" xlink:title="Contractual details related to an agreement between parties." xlink:type="simple"><rect fill="#FEFEEE" filter="url(#f1kzel0l0slo4r)" height="70.3828" id="Agreement" style="stroke: #A80036; stroke-width: 1.5;" width="171" x="431.75" y="40"/><rect fill="#FEFEEE" height="23.9688" style="stroke: #A80036; stroke-width: 1.5;" width="171" x="431.75" y="40"/><text fill="#000000" font-family="sans-serif" font-size="12" lengthAdjust="spacingAndGlyphs" textLength="69" x="482.75" y="56.1387">Agreement</text><line style="stroke: #A80036; stroke-width: 1.5;" x1="432.75" x2="601.75" y1="63.9688" y2="63.9688"/><ellipse cx="442.75" cy="75.8711" fill="#84BE84" rx="3" ry="3" style="stroke: #038048; stroke-width: 1.0;"/><text fill="#000000" font-family="sans-serif" font-size="11" lengthAdjust="spacingAndGlyphs" textLength="65" x="451.75" y="78.1792">DateSigned</text><text fill="#000000" font-family="sans-serif" font-size="11" font-style="italic" lengthAdjust="spacingAndGlyphs" textLength="53" x="520.75" y="78.1792">(ISODate)</text><ellipse cx="442.75" cy="88.6758" fill="#84BE84" rx="3" ry="3" style="stroke: #038048; stroke-width: 1.0;"/><text fill="#000000" font-family="sans-serif" font-size="11" lengthAdjust="spacingAndGlyphs" textLength="64" x="451.75" y="90.9839">Description</text><text fill="#000000" font-family="sans-serif" font-size="11" font-style="italic" lengthAdjust="spacingAndGlyphs" textLength="77" x="519.75" y="90.9839">(Max350Text)</text><ellipse cx="442.75" cy="101.4805" fill="#84BE84" rx="3" ry="3" style="stroke: #038048; stroke-width: 1.0;"/><text fill="#000000" font-family="sans-serif" font-size="11" lengthAdjust="spacingAndGlyphs" textLength="43" x="451.75" y="103.7886">Version</text><text fill="#000000" font-family="sans-serif" font-size="11" font-style="italic" lengthAdjust="spacingAndGlyphs" textLength="70" x="498.75" y="103.7886">(Max35Text)</text></a><!--class Contract--><a target="_top" xlink:actuate="onRequest" xlink:href="../Contract.html" xlink:show="new" xlink:title="Document that contains the information of the contract agreed between both parties." xlink:type="simple"><rect fill="#FEFEEE" filter="url(#f1kzel0l0slo4r)" height="23.9688" id="Contract" style="stroke: #A80036; stroke-width: 1.5;" width="60" x="487.5" y="190"/><rect fill="#FEFEEE" height="23.9688" style="stroke: #A80036; stroke-width: 1.5;" width="60" x="487.5" y="190"/><text fill="#000000" font-family="sans-serif" font-size="12" lengthAdjust="spacingAndGlyphs" textLength="54" x="490.5" y="206.1387">Contract</text></a><!--class AccountContract--><a target="_top" xlink:actuate="onRequest" xlink:href="../AccountContract.html" xlink:show="new" xlink:title="Agreement between an account servicer and an account owner about the services linked to an account." xlink:type="simple"><rect fill="#FEFEEE" filter="url(#f1kzel0l0slo4r)" height="108.7969" id="AccountContract" style="stroke: #A80036; stroke-width: 1.5;" width="292" x="311" y="292.5"/><rect fill="#FEFEEE" height="23.9688" style="stroke: #A80036; stroke-width: 1.5;" width="292" x="311" y="292.5"/><text fill="#000000" font-family="sans-serif" font-size="12" lengthAdjust="spacingAndGlyphs" textLength="105" x="404.5" y="308.6387">AccountContract</text><line style="stroke: #A80036; stroke-width: 1.5;" x1="312" x2="602" y1="316.4688" y2="316.4688"/><ellipse cx="322" cy="328.3711" fill="#84BE84" rx="3" ry="3" style="stroke: #038048; stroke-width: 1.0;"/><text fill="#000000" font-family="sans-serif" font-size="11" lengthAdjust="spacingAndGlyphs" textLength="105" x="331" y="330.6792">TargetClosingDate</text><text fill="#000000" font-family="sans-serif" font-size="11" font-style="italic" lengthAdjust="spacingAndGlyphs" textLength="81" x="440" y="330.6792">(ISODateTime)</text><ellipse cx="322" cy="341.1758" fill="#84BE84" rx="3" ry="3" style="stroke: #038048; stroke-width: 1.0;"/><text fill="#000000" font-family="sans-serif" font-size="11" lengthAdjust="spacingAndGlyphs" textLength="69" x="331" y="343.4839">UrgencyFlag</text><text fill="#000000" font-family="sans-serif" font-size="11" font-style="italic" lengthAdjust="spacingAndGlyphs" textLength="112" x="404" y="343.4839">(TrueFalseIndicator)</text><ellipse cx="322" cy="353.9805" fill="#84BE84" rx="3" ry="3" style="stroke: #038048; stroke-width: 1.0;"/><text fill="#000000" font-family="sans-serif" font-size="11" lengthAdjust="spacingAndGlyphs" textLength="97" x="331" y="356.2886">RemovalIndicator</text><text fill="#000000" font-family="sans-serif" font-size="11" font-style="italic" lengthAdjust="spacingAndGlyphs" textLength="92" x="432" y="356.2886">(YesNoIndicator)</text><ellipse cx="322" cy="366.7852" fill="#84BE84" rx="3" ry="3" style="stroke: #038048; stroke-width: 1.0;"/><text fill="#000000" font-family="sans-serif" font-size="11" lengthAdjust="spacingAndGlyphs" textLength="101" x="331" y="369.0933">TargetGoLiveDate</text><text fill="#000000" font-family="sans-serif" font-size="11" font-style="italic" lengthAdjust="spacingAndGlyphs" textLength="81" x="436" y="369.0933">(ISODateTime)</text><ellipse cx="322" cy="379.5898" fill="#84BE84" rx="3" ry="3" style="stroke: #038048; stroke-width: 1.0;"/><text fill="#000000" font-family="sans-serif" font-size="11" lengthAdjust="spacingAndGlyphs" textLength="72" x="331" y="381.8979">RequestDate</text><text fill="#000000" font-family="sans-serif" font-size="11" font-style="italic" lengthAdjust="spacingAndGlyphs" textLength="81" x="407" y="381.8979">(ISODateTime)</text><ellipse cx="322" cy="392.3945" fill="#84BE84" rx="3" ry="3" style="stroke: #038048; stroke-width: 1.0;"/><text fill="#000000" font-family="sans-serif" font-size="11" lengthAdjust="spacingAndGlyphs" textLength="113" x="331" y="394.7026">TransactionChannel</text><text fill="#000000" font-family="sans-serif" font-size="11" font-style="italic" lengthAdjust="spacingAndGlyphs" textLength="149" x="448" y="394.7026">(TransactionChannelCode)</text></a><!--class CashAccountContract--><a target="_top" xlink:actuate="onRequest" xlink:href="../CashAccountContract.html" xlink:show="new" xlink:title="Account contract established between the organisation or the group to which the organisation belongs, and the account servicer." xlink:type="simple"><rect fill="#FEFECE" filter="url(#f1kzel0l0slo4r)" height="23.9688" id="CashAccountContract" style="stroke: #A80036; stroke-width: 1.5;" width="142" x="311" y="484"/><rect fill="#FEFECE" height="23.9688" style="stroke: #A80036; stroke-width: 1.5;" width="142" x="311" y="484"/><text fill="#000000" font-family="sans-serif" font-size="12" lengthAdjust="spacingAndGlyphs" textLength="136" x="314" y="500.1387">CashAccountContract</text></a><!--class DateTimePeriod--><a target="_top" xlink:actuate="onRequest" xlink:href="../DateTimePeriod.html" xlink:show="new" xlink:title="Time span defined by a start date and time, and an end date and time." xlink:type="simple"><rect fill="#EEEEEE" filter="url(#f1kzel0l0slo4r)" height="23.9688" id="DateTimePeriod" style="stroke: #A80036; stroke-width: 1.5;" width="105" x="1062.75" y="335"/><rect fill="#EEEEEE" height="23.9688" style="stroke: #A80036; stroke-width: 1.5;" width="105" x="1062.75" y="335"/><text fill="#000000" font-family="sans-serif" font-size="12" lengthAdjust="spacingAndGlyphs" textLength="99" x="1065.75" y="351.1387">DateTimePeriod</text></a><!--class Document--><a target="_top" xlink:actuate="onRequest" xlink:href="../Document.html" xlink:show="new" xlink:title="General information that unambiguously identifies a document, such as identification number and issue date time." xlink:type="simple"><rect fill="#EEEEEE" filter="url(#f1kzel0l0slo4r)" height="23.9688" id="Document" style="stroke: #A80036; stroke-width: 1.5;" width="70" x="1103" y="190"/><rect fill="#EEEEEE" height="23.9688" style="stroke: #A80036; stroke-width: 1.5;" width="70" x="1103" y="190"/><text fill="#000000" font-family="sans-serif" font-size="12" lengthAdjust="spacingAndGlyphs" textLength="64" x="1106" y="206.1387">Document</text></a><!--class CommercialTrade--><a target="_top" xlink:actuate="onRequest" xlink:href="../CommercialTrade.html" xlink:show="new" xlink:title="Commercial details of a trade transaction between a buyer and a seller." xlink:type="simple"><rect fill="#EEEEEE" filter="url(#f1kzel0l0slo4r)" height="23.9688" id="CommercialTrade" style="stroke: #A80036; stroke-width: 1.5;" width="114" x="1203" y="335"/><rect fill="#EEEEEE" height="23.9688" style="stroke: #A80036; stroke-width: 1.5;" width="114" x="1203" y="335"/><text fill="#000000" font-family="sans-serif" font-size="12" lengthAdjust="spacingAndGlyphs" textLength="108" x="1206" y="351.1387">CommercialTrade</text></a><!--class Jurisdiction--><a target="_top" xlink:actuate="onRequest" xlink:href="../Jurisdiction.html" xlink:show="new" xlink:title="Specifies the jurisdiction (country, county, state, province, city)." xlink:type="simple"><rect fill="#EEEEEE" filter="url(#f1kzel0l0slo4r)" height="23.9688" id="Jurisdiction" style="stroke: #A80036; stroke-width: 1.5;" width="74" x="1219" y="190"/><rect fill="#EEEEEE" height="23.9688" style="stroke: #A80036; stroke-width: 1.5;" width="74" x="1219" y="190"/><text fill="#000000" font-family="sans-serif" font-size="12" lengthAdjust="spacingAndGlyphs" textLength="68" x="1222" y="206.1387">Jurisdiction</text></a><!--class MasterAgreement--><a target="_top" xlink:actuate="onRequest" xlink:href="../MasterAgreement.html" xlink:show="new" xlink:title="Agreement which defines the framework of a contract between two trading parties in different domains such as collateral, derivatives, trade.." xlink:type="simple"><rect fill="#EEEEEE" filter="url(#f1kzel0l0slo4r)" height="23.9688" id="MasterAgreement" style="stroke: #A80036; stroke-width: 1.5;" width="118" x="659" y="335"/><rect fill="#EEEEEE" height="23.9688" style="stroke: #A80036; stroke-width: 1.5;" width="118" x="659" y="335"/><text fill="#000000" font-family="sans-serif" font-size="12" lengthAdjust="spacingAndGlyphs" textLength="112" x="662" y="351.1387">MasterAgreement</text></a><!--class AccountService--><a target="_top" xlink:actuate="onRequest" xlink:href="../AccountService.html" xlink:show="new" xlink:title="Services linked to an account which are available to the account owner or to the holder of a mandate." xlink:type="simple"><rect fill="#EEEEEE" filter="url(#f1kzel0l0slo4r)" height="23.9688" id="AccountService" style="stroke: #A80036; stroke-width: 1.5;" width="102" x="915.5" y="590"/><rect fill="#EEEEEE" height="23.9688" style="stroke: #A80036; stroke-width: 1.5;" width="102" x="915.5" y="590"/><text fill="#000000" font-family="sans-serif" font-size="12" lengthAdjust="spacingAndGlyphs" textLength="96" x="918.5" y="606.1387">AccountService</text></a><!--class Account--><a target="_top" xlink:actuate="onRequest" xlink:href="../Account.html" xlink:show="new" xlink:title="Record of transactions in specific types of assets, maintained by a servicing party on behalf of one or more owning parties. Business relationship between an account servicer and one or more account owners." xlink:type="simple"><rect fill="#EEEEEE" filter="url(#f1kzel0l0slo4r)" height="23.9688" id="Account" style="stroke: #A80036; stroke-width: 1.5;" width="57" x="929.75" y="694"/><rect fill="#EEEEEE" height="23.9688" style="stroke: #A80036; stroke-width: 1.5;" width="57" x="929.75" y="694"/><text fill="#000000" font-family="sans-serif" font-size="12" lengthAdjust="spacingAndGlyphs" textLength="51" x="932.75" y="710.1387">Account</text></a><!--class Interest--><a target="_top" xlink:actuate="onRequest" xlink:href="../Interest.html" xlink:show="new" xlink:title="Consideration, such as amount of money,  paid or received in exchange for an asset that has been invested, loaned or borrowed for a certain period. The interest is expressed as a fixed amount or percentage of the amount upon which the interest is applied." xlink:type="simple"><rect fill="#EEEEEE" filter="url(#f1kzel0l0slo4r)" height="23.9688" id="Interest" style="stroke: #A80036; stroke-width: 1.5;" width="55" x="1052.75" y="590"/><rect fill="#EEEEEE" height="23.9688" style="stroke: #A80036; stroke-width: 1.5;" width="55" x="1052.75" y="590"/><text fill="#000000" font-family="sans-serif" font-size="12" lengthAdjust="spacingAndGlyphs" textLength="49" x="1055.75" y="606.1387">Interest</text></a><!--class Mandate--><a target="_top" xlink:actuate="onRequest" xlink:href="../Mandate.html" xlink:show="new" xlink:title="Authorisation given by an issuing party to a holder party to act on the issuer's behalf." xlink:type="simple"><rect fill="#EEEEEE" filter="url(#f1kzel0l0slo4r)" height="23.9688" id="Mandate" style="stroke: #A80036; stroke-width: 1.5;" width="61" x="915.75" y="484"/><rect fill="#EEEEEE" height="23.9688" style="stroke: #A80036; stroke-width: 1.5;" width="61" x="915.75" y="484"/><text fill="#000000" font-family="sans-serif" font-size="12" lengthAdjust="spacingAndGlyphs" textLength="55" x="918.75" y="500.1387">Mandate</text></a><!--class CashAccount--><a target="_top" xlink:actuate="onRequest" xlink:href="../CashAccount.html" xlink:show="new" xlink:title="Account to or from which a cash entry is made." xlink:type="simple"><rect fill="#EEEEEE" filter="url(#f1kzel0l0slo4r)" height="23.9688" id="CashAccount" style="stroke: #A80036; stroke-width: 1.5;" width="88" x="390.5" y="590"/><rect fill="#EEEEEE" height="23.9688" style="stroke: #A80036; stroke-width: 1.5;" width="88" x="390.5" y="590"/><text fill="#000000" font-family="sans-serif" font-size="12" lengthAdjust="spacingAndGlyphs" textLength="82" x="393.5" y="606.1387">CashAccount</text></a><!--class CashAccountService--><a target="_top" xlink:actuate="onRequest" xlink:href="../CashAccountService.html" xlink:show="new" xlink:title="Services linked to an account which are available to the account owner or to the holder of a mandate. The exercise of these services may be submitted to a limit." xlink:type="simple"><rect fill="#EEEEEE" filter="url(#f1kzel0l0slo4r)" height="23.9688" id="CashAccountService" style="stroke: #A80036; stroke-width: 1.5;" width="133" x="345.75" y="694"/><rect fill="#EEEEEE" height="23.9688" style="stroke: #A80036; stroke-width: 1.5;" width="133" x="345.75" y="694"/><text fill="#000000" font-family="sans-serif" font-size="12" lengthAdjust="spacingAndGlyphs" textLength="127" x="348.75" y="710.1387">CashAccountService</text></a><!--class PaymentObligation--><a target="_top" xlink:actuate="onRequest" xlink:href="../PaymentObligation.html" xlink:show="new" xlink:title="Obligation for the debtor to pay the creditor an amount of cash." xlink:type="simple"><rect fill="#EEEEEE" filter="url(#f1kzel0l0slo4r)" height="23.9688" id="PaymentObligation" style="stroke: #A80036; stroke-width: 1.5;" width="123" x="406.75" y="886"/><rect fill="#EEEEEE" height="23.9688" style="stroke: #A80036; stroke-width: 1.5;" width="123" x="406.75" y="886"/><text fill="#000000" font-family="sans-serif" font-size="12" lengthAdjust="spacingAndGlyphs" textLength="117" x="409.75" y="902.1387">PaymentObligation</text></a><!--class CashAccountMandate--><a target="_top" xlink:actuate="onRequest" xlink:href="../CashAccountMandate.html" xlink:show="new" xlink:title="Authorisation given to a mandate holder to perform some operation on an account." xlink:type="simple"><rect fill="#EEEEEE" filter="url(#f1kzel0l0slo4r)" height="23.9688" id="CashAccountMandate" style="stroke: #A80036; stroke-width: 1.5;" width="143" x="345.75" y="800"/><rect fill="#EEEEEE" height="23.9688" style="stroke: #A80036; stroke-width: 1.5;" width="143" x="345.75" y="800"/><text fill="#000000" font-family="sans-serif" font-size="12" lengthAdjust="spacingAndGlyphs" textLength="137" x="348.75" y="816.1387">CashAccountMandate</text></a><!--link Agreement to Contract--><path d="M517,130.298 C517,152.58 517,176.279 517,189.797 " fill="none" id="Agreement-Contract" style="stroke: #A80036; stroke-width: 1.0;"/><polygon fill="none" points="510,130.157,517,110.157,524,130.157,510,130.157" style="stroke: #A80036; stroke-width: 1.0;"/><!--link Contract to AccountContract--><path d="M504.467,232.87 C497.239,250.096 487.936,272.27 479.483,292.415 " fill="none" id="Contract-AccountContract" style="stroke: #A80036; stroke-width: 1.0;"/><polygon fill="none" points="498.099,229.955,512.292,214.221,511.009,235.372,498.099,229.955" style="stroke: #A80036; stroke-width: 1.0;"/><!--link AccountContract to CashAccountContract--><path d="M420.343,419.848 C407.622,444.781 394.772,469.967 387.652,483.923 " fill="none" id="AccountContract-CashAccountContract" style="stroke: #A80036; stroke-width: 1.0;"/><polygon fill="none" points="414.174,416.537,429.499,401.903,426.645,422.899,414.174,416.537" style="stroke: #A80036; stroke-width: 1.0;"/><!--link Document to DateTimePeriod--><!--link CommercialTrade to Document--><!--link Document to CommercialTrade--><path d="M1132.81,214.264 C1127.88,226.792 1122.38,247.208 1131,262 C1144.63,285.383 1161.16,277.475 1184,292 C1204.1,304.782 1226.21,320.713 1241.37,331.949 " fill="none" id="Document-CommercialTrade" style="stroke: #A80036; stroke-width: 1.0;"/><polygon fill="#A80036" points="1245.45,334.987,1240.6171,326.4054,1241.4385,332.0023,1235.8417,332.8238,1245.45,334.987" style="stroke: #A80036; stroke-width: 1.0;"/><text fill="#000000" font-family="sans-serif" font-size="13" lengthAdjust="spacingAndGlyphs" textLength="113" x="1132" y="257.0669">CommercialTrade</text><text fill="#000000" font-family="sans-serif" font-size="13" lengthAdjust="spacingAndGlyphs" textLength="7" x="1241.6516" y="324.0307">*</text><!--link Jurisdiction to CommercialTrade--><!--link Account to AccountService--><!--link AccountService to Account--><path d="M959.288,614.019 C954.825,622.018 949.364,633.274 947,644 C943.676,659.08 947.535,676.421 951.568,688.75 " fill="none" id="AccountService-Account" style="stroke: #A80036; stroke-width: 1.0;"/><polygon fill="#A80036" points="953.287,693.705,954.1169,683.8912,951.6486,688.9811,946.5587,686.5127,953.287,693.705" style="stroke: #A80036; stroke-width: 1.0;"/><text fill="#000000" font-family="sans-serif" font-size="13" lengthAdjust="spacingAndGlyphs" textLength="52" x="948" y="657.0669">Account</text><text fill="#000000" font-family="sans-serif" font-size="13" lengthAdjust="spacingAndGlyphs" textLength="8" x="940.9868" y="682.9107">1</text><!--link Interest to Account--><!--link Mandate to Interest--><!--link CashAccountService to CashAccount--><!--link CashAccount to CashAccountService--><path d="M412.012,614.063 C400.816,620.992 388.271,631.07 382,644 C374.412,659.646 385.497,677.489 396.273,689.817 " fill="none" id="CashAccount-CashAccountService" style="stroke: #A80036; stroke-width: 1.0;"/><polygon fill="#A80036" points="399.889,693.775,396.7712,684.4327,396.5163,690.0838,390.8652,689.8289,399.889,693.775" style="stroke: #A80036; stroke-width: 1.0;"/><text fill="#000000" font-family="sans-serif" font-size="13" lengthAdjust="spacingAndGlyphs" textLength="131" x="383" y="657.0669">CashAccountService</text><text fill="#000000" font-family="sans-serif" font-size="13" lengthAdjust="spacingAndGlyphs" textLength="8" x="397.1194" y="683.0039">1</text><!--link PaymentObligation to CashAccountService--><!--link CashAccountMandate to PaymentObligation--><!--link Agreement to DateTimePeriod--><path d="M568.904,110.217 C614.039,139.354 681.642,181.532 743,214 C852.578,271.984 993.056,313.936 1066.04,333.558 " fill="none" id="Agreement-DateTimePeriod" style="stroke: #A80036; stroke-width: 1.0;"/><polygon fill="#A80036" points="1071.18,334.932,1063.5289,328.7303,1066.3518,333.6325,1061.4497,336.4554,1071.18,334.932" style="stroke: #A80036; stroke-width: 1.0;"/><text fill="#000000" font-family="sans-serif" font-size="13" lengthAdjust="spacingAndGlyphs" textLength="86" x="744" y="206.0669">ValidityPeriod</text><text fill="#000000" font-family="sans-serif" font-size="13" lengthAdjust="spacingAndGlyphs" textLength="7" x="1047.6983" y="324.469">*</text><!--link Agreement to Document--><path d="M602.428,88.066 C680.511,99.608 799.007,118.417 901,140 C970.783,154.767 1050.96,176.399 1097.9,189.542 " fill="none" id="Agreement-Document" style="stroke: #A80036; stroke-width: 1.0;"/><polygon fill="#A80036" points="1102.89,190.944,1095.3129,184.6521,1098.0776,189.5874,1093.1423,192.352,1102.89,190.944" style="stroke: #A80036; stroke-width: 1.0;"/><text fill="#000000" font-family="sans-serif" font-size="13" lengthAdjust="spacingAndGlyphs" textLength="67" x="975" y="153.0669">Document</text><text fill="#000000" font-family="sans-serif" font-size="13" lengthAdjust="spacingAndGlyphs" textLength="8" x="1086.9961" y="183.6638">1</text><!--link Agreement to CommercialTrade--><path d="M602.465,98.308 C666.992,115.587 757.527,140.76 836,166 C914.296,191.183 1111.15,253.833 1184,292 C1205.49,303.26 1227.87,319.849 1242.73,331.665 " fill="none" id="Agreement-CommercialTrade" style="stroke: #A80036; stroke-width: 1.0;"/><polygon fill="#A80036" points="1246.72,334.863,1242.2042,326.1104,1242.8204,331.7336,1237.1972,332.3498,1246.72,334.863" style="stroke: #A80036; stroke-width: 1.0;"/><text fill="#000000" font-family="sans-serif" font-size="13" lengthAdjust="spacingAndGlyphs" textLength="36" x="982" y="206.0669">Trade</text><text fill="#000000" font-family="sans-serif" font-size="13" lengthAdjust="spacingAndGlyphs" textLength="8" x="1231.4363" y="323.8641">1</text><!--link Agreement to Jurisdiction--><path d="M602.486,84.437 C708.304,95.293 893.899,115.678 1052,140 C1113.69,149.49 1131.1,145.368 1190,166 C1205.48,171.422 1221.77,180.029 1234.3,187.351 " fill="none" id="Agreement-Jurisdiction" style="stroke: #A80036; stroke-width: 1.0;"/><polygon fill="#A80036" points="1238.73,189.982,1233.0378,181.9446,1234.4321,187.427,1228.9498,188.8212,1238.73,189.982" style="stroke: #A80036; stroke-width: 1.0;"/><text fill="#000000" font-family="sans-serif" font-size="13" lengthAdjust="spacingAndGlyphs" textLength="68" x="1166" y="153.0669">Jurisdiction</text><text fill="#000000" font-family="sans-serif" font-size="13" lengthAdjust="spacingAndGlyphs" textLength="24" x="1203.3247" y="179.024">0..1</text><!--link Contract to MasterAgreement--><path d="M521.921,214.346 C528.041,227.328 539.591,248.527 555,262 C578.649,282.678 590.975,277.805 619,292 C644.871,305.104 673.948,321.122 693.859,332.296 " fill="none" id="Contract-MasterAgreement" style="stroke: #A80036; stroke-width: 1.0;"/><polygon fill="#A80036" points="698.465,334.885,692.5795,326.9881,694.1064,332.435,688.6595,333.9619,698.465,334.885" style="stroke: #A80036; stroke-width: 1.0;"/><text fill="#000000" font-family="sans-serif" font-size="13" lengthAdjust="spacingAndGlyphs" textLength="116" x="556" y="257.0669">MasterAgreement</text><text fill="#000000" font-family="sans-serif" font-size="13" lengthAdjust="spacingAndGlyphs" textLength="7" x="682.203" y="323.8937">*</text><!--link AccountContract to AccountService--><path d="M505.025,401.762 C513.993,411.809 523.284,422.222 532,432 C571.591,476.413 568.91,503.249 621,532 C639.935,542.451 647.737,536.046 669,540 C753.44,555.702 850.891,576.168 910.467,588.947 " fill="none" id="AccountContract-AccountService" style="stroke: #A80036; stroke-width: 1.0;"/><polygon fill="#A80036" points="915.4,590.006,907.4407,584.2052,910.5115,588.956,905.7607,592.0268,915.4,590.006" style="stroke: #A80036; stroke-width: 1.0;"/><text fill="#000000" font-family="sans-serif" font-size="13" lengthAdjust="spacingAndGlyphs" textLength="99" x="622" y="500.0669">AccountService</text><text fill="#000000" font-family="sans-serif" font-size="13" lengthAdjust="spacingAndGlyphs" textLength="8" x="899.5628" y="583.5852">1</text><!--link AccountContract to Account--><path d="M471.744,401.691 C485.247,442.082 508.868,496.382 546,532 C560.747,546.146 830.385,654.227 925.288,692.01 " fill="none" id="AccountContract-Account" style="stroke: #A80036; stroke-width: 1.0;"/><polygon fill="#A80036" points="930.212,693.97,923.3286,686.926,925.5663,692.1214,920.3708,694.3591,930.212,693.97" style="stroke: #A80036; stroke-width: 1.0;"/><text fill="#000000" font-family="sans-serif" font-size="13" lengthAdjust="spacingAndGlyphs" textLength="52" x="597" y="553.0669">Account</text><text fill="#000000" font-family="sans-serif" font-size="13" lengthAdjust="spacingAndGlyphs" textLength="7" x="914.6876" y="685.3083">*</text><!--link AccountContract to Interest--><path d="M603.053,393.389 C616.477,396.654 629.937,399.6 643,402 C749.707,421.608 1060.27,373.246 1128,458 C1159.32,497.192 1116.88,557.81 1093.54,585.836 " fill="none" id="AccountContract-Interest" style="stroke: #A80036; stroke-width: 1.0;"/><polygon fill="#A80036" points="1090.25,589.728,1099.1196,585.4466,1093.482,585.913,1093.0156,580.2754,1090.25,589.728" style="stroke: #A80036; stroke-width: 1.0;"/><text fill="#000000" font-family="sans-serif" font-size="13" lengthAdjust="spacingAndGlyphs" textLength="49" x="1141" y="500.0669">Interest</text><text fill="#000000" font-family="sans-serif" font-size="13" lengthAdjust="spacingAndGlyphs" textLength="7" x="1084.0719" y="578.9413">*</text><!--link AccountContract to Mandate--><path d="M603.242,391.319 C616.657,395.032 630.062,398.646 643,402 C751.124,430.027 784.959,414.886 888,458 C902.007,463.861 916.405,473.025 927.352,480.766 " fill="none" id="AccountContract-Mandate" style="stroke: #A80036; stroke-width: 1.0;"/><polygon fill="#A80036" points="931.52,483.763,926.547,475.2619,927.4601,480.8445,921.8775,481.7576,931.52,483.763" style="stroke: #A80036; stroke-width: 1.0;"/><text fill="#000000" font-family="sans-serif" font-size="13" lengthAdjust="spacingAndGlyphs" textLength="137" x="866" y="445.0669">AccountAuthorisation</text><text fill="#000000" font-family="sans-serif" font-size="13" lengthAdjust="spacingAndGlyphs" textLength="7" x="917.1501" y="472.9879">*</text><!--link CashAccountContract to CashAccount--><path d="M347.884,508.098 C319.808,519.043 287.159,537.129 304,558 C314.565,571.094 324.861,561.246 341,566 C362.026,572.193 385.089,580.86 402.988,588.02 " fill="none" id="CashAccountContract-CashAccount" style="stroke: #A80036; stroke-width: 1.0;"/><polygon fill="#A80036" points="407.893,589.996,401.0395,582.9228,403.2552,588.1277,398.0503,590.3434,407.893,589.996" style="stroke: #A80036; stroke-width: 1.0;"/><text fill="#000000" font-family="sans-serif" font-size="13" lengthAdjust="spacingAndGlyphs" textLength="84" x="305" y="553.0669">CashAccount</text><text fill="#000000" font-family="sans-serif" font-size="13" lengthAdjust="spacingAndGlyphs" textLength="7" x="389.2" y="579.0428">*</text><!--link CashAccountContract to CashAccount--><path d="M387.565,508.13 C396.87,526.739 415.607,564.215 426.215,585.431 " fill="none" id="CashAccountContract-CashAccount" style="stroke: #A80036; stroke-width: 1.0;"/><polygon fill="#A80036" points="428.475,589.95,428.0253,580.1114,426.2378,585.4784,420.8708,583.691,428.475,589.95" style="stroke: #A80036; stroke-width: 1.0;"/><text fill="#000000" font-family="sans-serif" font-size="13" lengthAdjust="spacingAndGlyphs" textLength="136" x="413" y="553.0669">TransferCashAccount</text><text fill="#000000" font-family="sans-serif" font-size="13" lengthAdjust="spacingAndGlyphs" textLength="7" x="416.857" y="578.981">*</text><!--link CashAccountContract to CashAccountService--><path d="M335.123,508.179 C318.581,514.622 301.697,524.619 292,540 C287.733,546.767 290.451,550.151 292,558 C297.21,584.397 299.73,591.847 315,614 C336.746,645.548 371.056,674.432 392.505,690.85 " fill="none" id="CashAccountContract-CashAccountService" style="stroke: #A80036; stroke-width: 1.0;"/><polygon fill="#A80036" points="396.616,693.964,391.8564,685.3416,392.6301,690.9453,387.0264,691.719,396.616,693.964" style="stroke: #A80036; stroke-width: 1.0;"/><text fill="#000000" font-family="sans-serif" font-size="13" lengthAdjust="spacingAndGlyphs" textLength="54" x="316" y="606.0669">Services</text><text fill="#000000" font-family="sans-serif" font-size="13" lengthAdjust="spacingAndGlyphs" textLength="7" x="381.6949" y="682.9998">*</text><!--link CashAccountContract to PaymentObligation--><path d="M310.835,502.145 C201.829,512.009 6,538.436 6,601 C6,601 6,601 6,813 C6,852.7018 273.509,880.6206 401.413,891.7003 " fill="none" id="CashAccountContract-PaymentObligation" style="stroke: #A80036; stroke-width: 1.0;"/><polygon fill="#A80036" points="406.65,892.1513,398.0273,887.3921,401.6685,891.7213,397.3393,895.3625,406.65,892.1513" style="stroke: #A80036; stroke-width: 1.0;"/><text fill="#000000" font-family="sans-serif" font-size="13" lengthAdjust="spacingAndGlyphs" textLength="103" x="7" y="710.0669">BalanceTransfer</text><text fill="#000000" font-family="sans-serif" font-size="13" lengthAdjust="spacingAndGlyphs" textLength="7" x="391.8334" y="886.7469">*</text><!--link CashAccountContract to CashAccountMandate--><path d="M346.797,508.056 C280.982,530.756 149.446,586.872 190,662 C229.669,735.489 323.139,778.62 376.953,798.217 " fill="none" id="CashAccountContract-CashAccountMandate" style="stroke: #A80036; stroke-width: 1.0;"/><polygon fill="#A80036" points="381.715,799.928,374.5985,793.1195,377.0097,798.2367,371.8925,800.6479,381.715,799.928" style="stroke: #A80036; stroke-width: 1.0;"/><text fill="#000000" font-family="sans-serif" font-size="13" lengthAdjust="spacingAndGlyphs" textLength="140" x="191" y="657.0669">CashAccountMandate</text><text fill="#000000" font-family="sans-serif" font-size="13" lengthAdjust="spacingAndGlyphs" textLength="8" x="358.7811" y="788.9515">1</text><!--link DateTimePeriod to Account--><path d="M1127.98,359.236 C1148.02,377.534 1185.65,415.974 1200,458 C1210.62,489.126 1212.01,501.381 1200,532 C1164.31,623.01 1049.09,674.016 991.467,694.419 " fill="none" id="DateTimePeriod-Account" style="stroke: #A80036; stroke-width: 1.0;"/><polygon fill="#A80036" points="986.41,696.183,996.2251,696.9979,991.1314,694.5373,993.592,689.4436,986.41,696.183" style="stroke: #A80036; stroke-width: 1.0;"/><text fill="#000000" font-family="sans-serif" font-size="13" lengthAdjust="spacingAndGlyphs" textLength="52" x="1198" y="553.0669">Account</text><text fill="#000000" font-family="sans-serif" font-size="13" lengthAdjust="spacingAndGlyphs" textLength="24" x="994.693" y="688.4889">0..1</text><!--link Document to PaymentObligation--><path d="M1173.19,208.933 C1265.05,225.41 1505,275.225 1505,346 C1505,346 1505,346 1505,813 C1505,899.1466 1401.35,844.3194 1316,856 C1026.82,895.5759 677.608,898.4576 534.277,897.7332 " fill="none" id="Document-PaymentObligation" style="stroke: #A80036; stroke-width: 1.0;"/><polygon fill="#A80036" points="529.265,897.706,538.2432,901.7548,534.2649,897.7331,538.2866,893.7549,529.265,897.706" style="stroke: #A80036; stroke-width: 1.0;"/><text fill="#000000" font-family="sans-serif" font-size="13" lengthAdjust="spacingAndGlyphs" textLength="121" x="1506" y="606.0669">PaymentObligation</text><text fill="#000000" font-family="sans-serif" font-size="13" lengthAdjust="spacingAndGlyphs" textLength="24" x="537.7074" y="910.6156">0..1</text><!--link CommercialTrade to CashAccount--><path d="M1247.41,359.035 C1233,371.15 1208.24,390.417 1184,402 C1112.77,436.03 1091,437.863 1013,450 C987.952,453.897 807.594,446.507 785,458 C747.754,476.945 759.262,505.441 727,532 C707.357,548.17 700.121,549.908 676,558 C611.072,579.78 532.443,591.152 482.808,596.605 " fill="none" id="CommercialTrade-CashAccount" style="stroke: #A80036; stroke-width: 1.0;"/><polygon fill="#A80036" points="477.799,597.146,487.1766,600.1561,482.7701,596.6089,486.3172,592.2024,477.799,597.146" style="stroke: #A80036; stroke-width: 1.0;"/><text fill="#000000" font-family="sans-serif" font-size="13" lengthAdjust="spacingAndGlyphs" textLength="111" x="786" y="500.0669">PurchaseAccount</text><text fill="#000000" font-family="sans-serif" font-size="13" lengthAdjust="spacingAndGlyphs" textLength="7" x="486.4276" y="590.7659">*</text><!--link CommercialTrade to PaymentObligation--><path d="M1274.46,359.22 C1301.72,381.759 1358,435.496 1358,495 C1358,495 1358,495 1358,813 C1358,895.6798 741.346,898.9173 534.629,897.6798 " fill="none" id="CommercialTrade-PaymentObligation" style="stroke: #A80036; stroke-width: 1.0;"/><polygon fill="#A80036" points="529.524,897.6478,538.4987,901.7043,534.5239,897.6792,538.549,893.7045,529.524,897.6478" style="stroke: #A80036; stroke-width: 1.0;"/><text fill="#000000" font-family="sans-serif" font-size="13" lengthAdjust="spacingAndGlyphs" textLength="121" x="1359" y="657.0669">PaymentObligation</text><text fill="#000000" font-family="sans-serif" font-size="13" lengthAdjust="spacingAndGlyphs" textLength="7" x="537.8232" y="892.591">*</text><!--link Account to Account--><path d="M986.508,696.938 C1004.181,694.753 1021,697.773 1021,706 C1021,713.391 1007.42,716.58 991.85,715.567 " fill="none" id="Account-Account" style="stroke: #A80036; stroke-width: 1.0;"/><polygon fill="#A80036" points="986.508,715.062,995.0922,719.8902,991.4859,715.5319,995.8441,711.9256,986.508,715.062" style="stroke: #A80036; stroke-width: 1.0;"/><text fill="#000000" font-family="sans-serif" font-size="13" lengthAdjust="spacingAndGlyphs" textLength="94" x="1027" y="710.0669">ParentAccount</text><text fill="#000000" font-family="sans-serif" font-size="13" lengthAdjust="spacingAndGlyphs" textLength="8" x="994.7741" y="711.2939">1</text><!--link Mandate to Mandate--><path d="M976.425,486.822 C994.284,484.866 1011,487.926 1011,496 C1011,503.254 997.507,506.46 981.815,505.619 " fill="none" id="Mandate-Mandate" style="stroke: #A80036; stroke-width: 1.0;"/><polygon fill="#A80036" points="976.425,505.178,985.0695,509.8974,981.4084,505.5851,985.7208,501.924,976.425,505.178" style="stroke: #A80036; stroke-width: 1.0;"/><text fill="#000000" font-family="sans-serif" font-size="13" lengthAdjust="spacingAndGlyphs" textLength="104" x="1017" y="500.0669">OriginalMandate</text><text fill="#000000" font-family="sans-serif" font-size="13" lengthAdjust="spacingAndGlyphs" textLength="8" x="984.7552" y="501.4302">1</text><!--link CashAccountService to CashAccountMandate--><path d="M398.691,718.197 C385.804,730.484 369.265,750.994 377,770 C381.188,780.29 389.339,789.407 397.196,796.416 " fill="none" id="CashAccountService-CashAccountMandate" style="stroke: #A80036; stroke-width: 1.0;"/><polygon fill="#A80036" points="401.01,799.682,396.7774,790.789,397.2128,796.4291,391.5727,796.8645,401.01,799.682" style="stroke: #A80036; stroke-width: 1.0;"/><text fill="#000000" font-family="sans-serif" font-size="13" lengthAdjust="spacingAndGlyphs" textLength="140" x="378" y="765.0669">CashAccountMandate</text><text fill="#000000" font-family="sans-serif" font-size="13" lengthAdjust="spacingAndGlyphs" textLength="7" x="386.1399" y="788.8801">*</text></g></svg>