<?xml version="1.0" encoding="UTF-8" standalone="no"?><svg xmlns="http://www.w3.org/2000/svg" xmlns:xlink="http://www.w3.org/1999/xlink" contentScriptType="application/ecmascript" contentStyleType="text/css" height="784px" preserveAspectRatio="none" style="width:1414px;height:784px;" version="1.1" viewBox="0 0 1414 784" width="1414px" zoomAndPan="magnify"><defs><filter height="300%" id="f1cdcc14suufaa" width="300%" x="-1" y="-1"><feGaussianBlur result="blurOut" stdDeviation="2.0"/><feColorMatrix in="blurOut" result="blurOut2" type="matrix" values="0 0 0 0 0 0 0 0 0 0 0 0 0 0 0 0 0 0 .4 0"/><feOffset dx="4.0" dy="4.0" in="blurOut2" result="blurOut3"/><feBlend in="SourceGraphic" in2="blurOut3" mode="normal"/></filter></defs><g><!--cluster ##146--><!--cluster ##152--><!--cluster ##159--><!--class Settlement--><a target="_top" xlink:actuate="onRequest" xlink:href="../Settlement.html" xlink:show="new" xlink:title="Process which consists in transferring the proceeds related to a trade from one party to the next one." xlink:type="simple"><rect fill="#FEFEEE" filter="url(#f1cdcc14suufaa)" height="44.7734" id="Settlement" style="stroke: #A80036; stroke-width: 1.5;" width="335" x="532.75" y="40.5"/><rect fill="#FEFEEE" height="23.9688" style="stroke: #A80036; stroke-width: 1.5;" width="335" x="532.75" y="40.5"/><text fill="#000000" font-family="sans-serif" font-size="12" lengthAdjust="spacingAndGlyphs" textLength="69" x="665.75" y="56.6387">Settlement</text><line style="stroke: #A80036; stroke-width: 1.5;" x1="533.75" x2="866.75" y1="64.4688" y2="64.4688"/><ellipse cx="543.75" cy="76.3711" fill="#84BE84" rx="3" ry="3" style="stroke: #038048; stroke-width: 1.0;"/><text fill="#000000" font-family="sans-serif" font-size="11" lengthAdjust="spacingAndGlyphs" textLength="213" x="552.75" y="78.6792">CentralCounterpartyEligibilityIndicator</text><text fill="#000000" font-family="sans-serif" font-size="11" font-style="italic" lengthAdjust="spacingAndGlyphs" textLength="92" x="769.75" y="78.6792">(YesNoIndicator)</text></a><!--class CashSettlement--><a target="_top" xlink:actuate="onRequest" xlink:href="../CashSettlement.html" xlink:show="new" xlink:title="Instruction between two financial institutions stipulating the cash transfer characteristics between the two parties." xlink:type="simple"><rect fill="#FEFECE" filter="url(#f1cdcc14suufaa)" height="108.7969" id="CashSettlement" style="stroke: #A80036; stroke-width: 1.5;" width="314" x="532" y="164.5"/><rect fill="#FEFECE" height="23.9688" style="stroke: #A80036; stroke-width: 1.5;" width="314" x="532" y="164.5"/><text fill="#000000" font-family="sans-serif" font-size="12" lengthAdjust="spacingAndGlyphs" textLength="100" x="639" y="180.6387">CashSettlement</text><line style="stroke: #A80036; stroke-width: 1.5;" x1="533" x2="845" y1="188.4688" y2="188.4688"/><ellipse cx="543" cy="200.3711" fill="#84BE84" rx="3" ry="3" style="stroke: #038048; stroke-width: 1.0;"/><text fill="#000000" font-family="sans-serif" font-size="11" lengthAdjust="spacingAndGlyphs" textLength="158" x="552" y="202.6792">InterbankSettlementAmount</text><text fill="#000000" font-family="sans-serif" font-size="11" font-style="italic" lengthAdjust="spacingAndGlyphs" textLength="126" x="714" y="202.6792">(CurrencyAndAmount)</text><ellipse cx="543" cy="213.1758" fill="#84BE84" rx="3" ry="3" style="stroke: #038048; stroke-width: 1.0;"/><text fill="#000000" font-family="sans-serif" font-size="11" lengthAdjust="spacingAndGlyphs" textLength="141" x="552" y="215.4839">InterbankSettlementDate</text><text fill="#000000" font-family="sans-serif" font-size="11" font-style="italic" lengthAdjust="spacingAndGlyphs" textLength="81" x="697" y="215.4839">(ISODateTime)</text><ellipse cx="543" cy="225.9805" fill="#84BE84" rx="3" ry="3" style="stroke: #038048; stroke-width: 1.0;"/><text fill="#000000" font-family="sans-serif" font-size="11" lengthAdjust="spacingAndGlyphs" textLength="31" x="552" y="228.2886">RTGS</text><text fill="#000000" font-family="sans-serif" font-size="11" font-style="italic" lengthAdjust="spacingAndGlyphs" textLength="142" x="587" y="228.2886">(Max4AlphaNumericText)</text><ellipse cx="543" cy="238.7852" fill="#84BE84" rx="3" ry="3" style="stroke: #038048; stroke-width: 1.0;"/><text fill="#000000" font-family="sans-serif" font-size="11" lengthAdjust="spacingAndGlyphs" textLength="88" x="552" y="241.0933">CreditDateTime</text><text fill="#000000" font-family="sans-serif" font-size="11" font-style="italic" lengthAdjust="spacingAndGlyphs" textLength="81" x="644" y="241.0933">(ISODateTime)</text><ellipse cx="543" cy="251.5898" fill="#84BE84" rx="3" ry="3" style="stroke: #038048; stroke-width: 1.0;"/><text fill="#000000" font-family="sans-serif" font-size="11" lengthAdjust="spacingAndGlyphs" textLength="103" x="552" y="253.8979">SettlementMethod</text><text fill="#000000" font-family="sans-serif" font-size="11" font-style="italic" lengthAdjust="spacingAndGlyphs" textLength="139" x="659" y="253.8979">(SettlementMethodCode)</text><ellipse cx="543" cy="264.3945" fill="#84BE84" rx="3" ry="3" style="stroke: #038048; stroke-width: 1.0;"/><text fill="#000000" font-family="sans-serif" font-size="11" lengthAdjust="spacingAndGlyphs" textLength="83" x="552" y="266.7026">DebitDateTime</text><text fill="#000000" font-family="sans-serif" font-size="11" font-style="italic" lengthAdjust="spacingAndGlyphs" textLength="81" x="639" y="266.7026">(ISODateTime)</text></a><!--class StandingSettlementInstruction--><a target="_top" xlink:actuate="onRequest" xlink:href="../StandingSettlementInstruction.html" xlink:show="new" xlink:title="Settlement instruction database information." xlink:type="simple"><rect fill="#EEEEEE" filter="url(#f1cdcc14suufaa)" height="23.9688" id="StandingSettlementInstruction" style="stroke: #A80036; stroke-width: 1.5;" width="198" x="1014" y="458"/><rect fill="#EEEEEE" height="23.9688" style="stroke: #A80036; stroke-width: 1.5;" width="198" x="1014" y="458"/><text fill="#000000" font-family="sans-serif" font-size="12" lengthAdjust="spacingAndGlyphs" textLength="192" x="1017" y="474.1387">StandingSettlementInstruction</text></a><!--class SettlementPartyRole--><a target="_top" xlink:actuate="onRequest" xlink:href="../SettlementPartyRole.html" xlink:show="new" xlink:title="Role played by a party in a settlement process." xlink:type="simple"><rect fill="#EEEEEE" filter="url(#f1cdcc14suufaa)" height="23.9688" id="SettlementPartyRole" style="stroke: #A80036; stroke-width: 1.5;" width="134" x="1030" y="356"/><rect fill="#EEEEEE" height="23.9688" style="stroke: #A80036; stroke-width: 1.5;" width="134" x="1030" y="356"/><text fill="#000000" font-family="sans-serif" font-size="12" lengthAdjust="spacingAndGlyphs" textLength="128" x="1033" y="372.1387">SettlementPartyRole</text></a><!--class Trade--><a target="_top" xlink:actuate="onRequest" xlink:href="../Trade.html" xlink:show="new" xlink:title="Result of an order between at least two parties. A trade relates to the delivery of goods and services, cash or securities." xlink:type="simple"><rect fill="#EEEEEE" filter="url(#f1cdcc14suufaa)" height="23.9688" id="Trade" style="stroke: #A80036; stroke-width: 1.5;" width="42" x="1122.5" y="207"/><rect fill="#EEEEEE" height="23.9688" style="stroke: #A80036; stroke-width: 1.5;" width="42" x="1122.5" y="207"/><text fill="#000000" font-family="sans-serif" font-size="12" lengthAdjust="spacingAndGlyphs" textLength="36" x="1125.5" y="223.1387">Trade</text></a><!--class PaymentInstruction--><a target="_top" xlink:actuate="onRequest" xlink:href="../PaymentInstruction.html" xlink:show="new" xlink:title="Instruction to pay an amount of money to an ultimate beneficiary, on behalf of an originator. This instruction may have to be forwarded several times to complete the settlement chain." xlink:type="simple"><rect fill="#EEEEEE" filter="url(#f1cdcc14suufaa)" height="23.9688" id="PaymentInstruction" style="stroke: #A80036; stroke-width: 1.5;" width="127" x="750.75" y="750"/><rect fill="#EEEEEE" height="23.9688" style="stroke: #A80036; stroke-width: 1.5;" width="127" x="750.75" y="750"/><text fill="#000000" font-family="sans-serif" font-size="12" lengthAdjust="spacingAndGlyphs" textLength="121" x="753.75" y="766.1387">PaymentInstruction</text></a><!--class CashAccount--><a target="_top" xlink:actuate="onRequest" xlink:href="../CashAccount.html" xlink:show="new" xlink:title="Account to or from which a cash entry is made." xlink:type="simple"><rect fill="#EEEEEE" filter="url(#f1cdcc14suufaa)" height="23.9688" id="CashAccount" style="stroke: #A80036; stroke-width: 1.5;" width="88" x="692.5" y="648"/><rect fill="#EEEEEE" height="23.9688" style="stroke: #A80036; stroke-width: 1.5;" width="88" x="692.5" y="648"/><text fill="#000000" font-family="sans-serif" font-size="12" lengthAdjust="spacingAndGlyphs" textLength="82" x="695.5" y="664.1387">CashAccount</text></a><!--class CashSettlementInstructionPartyRole--><a target="_top" xlink:actuate="onRequest" xlink:href="../CashSettlementInstructionPartyRole.html" xlink:show="new" xlink:title="Role played by a party in cash settlement." xlink:type="simple"><rect fill="#EEEEEE" filter="url(#f1cdcc14suufaa)" height="23.9688" id="CashSettlementInstructionPartyRole" style="stroke: #A80036; stroke-width: 1.5;" width="232" x="483.5" y="750"/><rect fill="#EEEEEE" height="23.9688" style="stroke: #A80036; stroke-width: 1.5;" width="232" x="483.5" y="750"/><text fill="#000000" font-family="sans-serif" font-size="12" lengthAdjust="spacingAndGlyphs" textLength="226" x="486.5" y="766.1387">CashSettlementInstructionPartyRole</text></a><!--class TransactionAdministrator--><a target="_top" xlink:actuate="onRequest" xlink:href="../TransactionAdministrator.html" xlink:show="new" xlink:title="Set of integrated applications that provides centralised services such as clearing and settlement." xlink:type="simple"><rect fill="#EEEEEE" filter="url(#f1cdcc14suufaa)" height="23.9688" id="TransactionAdministrator" style="stroke: #A80036; stroke-width: 1.5;" width="164" x="483" y="648"/><rect fill="#EEEEEE" height="23.9688" style="stroke: #A80036; stroke-width: 1.5;" width="164" x="483" y="648"/><text fill="#000000" font-family="sans-serif" font-size="12" lengthAdjust="spacingAndGlyphs" textLength="158" x="486" y="664.1387">TransactionAdministrator</text></a><!--class BookEntry--><a target="_top" xlink:actuate="onRequest" xlink:href="../BookEntry.html" xlink:show="new" xlink:title="Movement of cash between two accounts. One account is debited and the other account is credited." xlink:type="simple"><rect fill="#EEEEEE" filter="url(#f1cdcc14suufaa)" height="23.9688" id="BookEntry" style="stroke: #A80036; stroke-width: 1.5;" width="69" x="530.75" y="562"/><rect fill="#EEEEEE" height="23.9688" style="stroke: #A80036; stroke-width: 1.5;" width="69" x="530.75" y="562"/><text fill="#000000" font-family="sans-serif" font-size="12" lengthAdjust="spacingAndGlyphs" textLength="63" x="533.75" y="578.1387">BookEntry</text></a><!--class PaymentInvestigationCaseResolution--><a target="_top" xlink:actuate="onRequest" xlink:href="../PaymentInvestigationCaseResolution.html" xlink:show="new" xlink:title="Specifies the status of an investigation case and the actions taken as a result of this status." xlink:type="simple"><rect fill="#EEEEEE" filter="url(#f1cdcc14suufaa)" height="23.9688" id="PaymentInvestigationCaseResolution" style="stroke: #A80036; stroke-width: 1.5;" width="237" x="521.75" y="458"/><rect fill="#EEEEEE" height="23.9688" style="stroke: #A80036; stroke-width: 1.5;" width="237" x="521.75" y="458"/><text fill="#000000" font-family="sans-serif" font-size="12" lengthAdjust="spacingAndGlyphs" textLength="231" x="524.75" y="474.1387">PaymentInvestigationCaseResolution</text></a><!--class Reservation--><a target="_top" xlink:actuate="onRequest" xlink:href="../Reservation.html" xlink:show="new" xlink:title="Liquidity set aside by the payer for specific purposes." xlink:type="simple"><rect fill="#EEEEEE" filter="url(#f1cdcc14suufaa)" height="23.9688" id="Reservation" style="stroke: #A80036; stroke-width: 1.5;" width="80" x="505" y="356"/><rect fill="#EEEEEE" height="23.9688" style="stroke: #A80036; stroke-width: 1.5;" width="80" x="505" y="356"/><text fill="#000000" font-family="sans-serif" font-size="12" lengthAdjust="spacingAndGlyphs" textLength="74" x="508" y="372.1387">Reservation</text></a><!--link Settlement to CashSettlement--><path d="M697.021,105.709 C695.735,123.714 694.214,145.006 692.844,164.181 " fill="none" id="Settlement-CashSettlement" style="stroke: #A80036; stroke-width: 1.0;"/><polygon fill="none" points="690.04,105.188,698.447,85.738,704.004,106.186,690.04,105.188" style="stroke: #A80036; stroke-width: 1.0;"/><!--link SettlementPartyRole to StandingSettlementInstruction--><!--link Trade to SettlementPartyRole--><!--link CashAccount to PaymentInstruction--><!--link CashSettlementInstructionPartyRole to CashAccount--><!--link CashAccount to CashSettlementInstructionPartyRole--><path d="M692.297,667.863 C655.415,674.653 606.784,686.301 595,702 C585.859,714.1776 588.652,732.0479 592.62,744.9276 " fill="none" id="CashAccount-CashSettlementInstructionPartyRole" style="stroke: #A80036; stroke-width: 1.0;"/><polygon fill="#A80036" points="594.236,749.7679,595.1787,739.9643,592.652,745.0254,587.5908,742.4987,594.236,749.7679" style="stroke: #A80036; stroke-width: 1.0;"/><text fill="#000000" font-family="sans-serif" font-size="13" lengthAdjust="spacingAndGlyphs" textLength="164" x="596" y="715.0669">CashSettlementPartyRole</text><text fill="#000000" font-family="sans-serif" font-size="13" lengthAdjust="spacingAndGlyphs" textLength="8" x="581.8361" y="738.9945">1</text><!--link TransactionAdministrator to CashSettlementInstructionPartyRole--><!--link BookEntry to TransactionAdministrator--><!--link PaymentInvestigationCaseResolution to BookEntry--><!--link Reservation to PaymentInvestigationCaseResolution--><!--link Settlement to StandingSettlementInstruction--><path d="M867.485,73.784 C992.724,85.385 1147.83,110.43 1181,164 C1231.54,245.619 1213.09,289.171 1182,380 C1171.64,410.267 1146.34,438.202 1129.42,454.421 " fill="none" id="Settlement-StandingSettlementInstruction" style="stroke: #A80036; stroke-width: 1.0;"/><polygon fill="#A80036" points="1125.74,457.896,1135.0327,454.6332,1129.3783,454.4663,1129.5452,448.8119,1125.74,457.896" style="stroke: #A80036; stroke-width: 1.0;"/><text fill="#000000" font-family="sans-serif" font-size="13" lengthAdjust="spacingAndGlyphs" textLength="196" x="1206" y="319.0669">StandingSettlementInstruction</text><text fill="#000000" font-family="sans-serif" font-size="13" lengthAdjust="spacingAndGlyphs" textLength="24" x="1100.6506" y="446.9085">0..1</text><!--link Settlement to SettlementPartyRole--><path d="M743.948,85.56 C778.438,103.702 826.551,131.797 863,164 C920.115,214.461 911.578,249.058 970,298 C998.882,322.196 1037.58,341.746 1064.63,353.776 " fill="none" id="Settlement-SettlementPartyRole" style="stroke: #A80036; stroke-width: 1.0;"/><polygon fill="#A80036" points="1069.55,355.934,1062.9236,348.6477,1064.9736,353.92,1059.7012,355.97,1069.55,355.934" style="stroke: #A80036; stroke-width: 1.0;"/><text fill="#000000" font-family="sans-serif" font-size="13" lengthAdjust="spacingAndGlyphs" textLength="132" x="971" y="223.0669">SettlementPartyRole</text><text fill="#000000" font-family="sans-serif" font-size="13" lengthAdjust="spacingAndGlyphs" textLength="7" x="1050.5672" y="344.9595">*</text><!--link Settlement to Trade--><path d="M867.578,78.857 C942.562,92.099 1028.78,117.051 1095,164 C1109.95,174.596 1123.46,190.68 1132.32,202.54 " fill="none" id="Settlement-Trade" style="stroke: #A80036; stroke-width: 1.0;"/><polygon fill="#A80036" points="1135.36,206.7,1133.2818,197.0729,1132.4109,202.6623,1126.8215,201.7914,1135.36,206.7" style="stroke: #A80036; stroke-width: 1.0;"/><text fill="#000000" font-family="sans-serif" font-size="13" lengthAdjust="spacingAndGlyphs" textLength="36" x="1040" y="129.0669">Trade</text><text fill="#000000" font-family="sans-serif" font-size="13" lengthAdjust="spacingAndGlyphs" textLength="8" x="1122.0074" y="195.9041">1</text><!--link CashSettlement to PaymentInstruction--><path d="M805.127,273.519 C822.461,283.372 839.646,294.287 855,306 C888.052,331.214 943,410.578 943,418 C943,418 943,418 943,661 C943,705.882 893.619,733.5065 855.962,748.0471 " fill="none" id="CashSettlement-PaymentInstruction" style="stroke: #A80036; stroke-width: 1.0;"/><polygon fill="#A80036" points="850.966,749.9269,860.798,750.5027,855.646,748.1668,857.9819,743.0148,850.966,749.9269" style="stroke: #A80036; stroke-width: 1.0;"/><text fill="#000000" font-family="sans-serif" font-size="13" lengthAdjust="spacingAndGlyphs" textLength="172" x="944" y="527.0669">RelatedPaymentInstruction</text><text fill="#000000" font-family="sans-serif" font-size="13" lengthAdjust="spacingAndGlyphs" textLength="8" x="852.8684" y="738.95">1</text><!--link CashSettlement to CashAccount--><path d="M531.953,247.802 C419.547,272.327 288,312.64 288,367 C288,367 288,367 288,575 C288,585.064 571.022,632.196 687.161,651.114 " fill="none" id="CashSettlement-CashAccount" style="stroke: #A80036; stroke-width: 1.0;"/><polygon fill="#A80036" points="692.228,651.938,683.9872,646.5445,687.2929,651.135,682.7024,654.4407,692.228,651.938" style="stroke: #A80036; stroke-width: 1.0;"/><text fill="#000000" font-family="sans-serif" font-size="13" lengthAdjust="spacingAndGlyphs" textLength="124" x="289" y="474.0669">SettlementAccount</text><text fill="#000000" font-family="sans-serif" font-size="13" lengthAdjust="spacingAndGlyphs" textLength="24" x="660.6059" y="646.0994">0..1</text><!--link CashSettlement to CashSettlementInstructionPartyRole--><path d="M788.461,273.669 C808.804,289.596 827.493,309.048 839,332 C865.383,384.625 897.786,205.896 796,672 C791.259,693.711 798.204,704.792 782,720 C768.311,732.8476 729.819,742.4402 691.648,749.1033 " fill="none" id="CashSettlement-CashSettlementInstructionPartyRole" style="stroke: #A80036; stroke-width: 1.0;"/><polygon fill="#A80036" points="686.511,749.9831,696.0572,752.4059,691.4392,749.1388,694.7063,744.5208,686.511,749.9831" style="stroke: #A80036; stroke-width: 1.0;"/><text fill="#000000" font-family="sans-serif" font-size="13" lengthAdjust="spacingAndGlyphs" textLength="60" x="832" y="527.0669">PartyRole</text><text fill="#000000" font-family="sans-serif" font-size="13" lengthAdjust="spacingAndGlyphs" textLength="7" x="706.8742" y="739.0255">*</text><!--link CashSettlement to TransactionAdministrator--><path d="M531.877,222.773 C330.201,230.684 6,260.036 6,367 C6,367 6,367 6,575 C6,622.116 320.567,645.813 477.754,654.713 " fill="none" id="CashSettlement-TransactionAdministrator" style="stroke: #A80036; stroke-width: 1.0;"/><polygon fill="#A80036" points="482.818,654.998,474.0562,650.5002,477.8258,654.718,473.6081,658.4876,482.818,654.998" style="stroke: #A80036; stroke-width: 1.0;"/><text fill="#000000" font-family="sans-serif" font-size="13" lengthAdjust="spacingAndGlyphs" textLength="209" x="7" y="474.0669">RelatedTransactionAdministrator</text><text fill="#000000" font-family="sans-serif" font-size="13" lengthAdjust="spacingAndGlyphs" textLength="7" x="467.9105" y="649.9955">*</text><!--link CashSettlement to BookEntry--><path d="M545.845,273.648 C522.342,288.895 501.092,308.073 487,332 C468.844,362.826 481.429,457.596 504,506 C513.844,527.111 532.71,546.217 546.866,558.573 " fill="none" id="CashSettlement-BookEntry" style="stroke: #A80036; stroke-width: 1.0;"/><polygon fill="#A80036" points="550.723,561.876,546.4868,552.9847,546.9245,558.6246,541.2846,559.0623,550.723,561.876" style="stroke: #A80036; stroke-width: 1.0;"/><text fill="#000000" font-family="sans-serif" font-size="13" lengthAdjust="spacingAndGlyphs" textLength="65" x="484" y="423.0669">BookEntry</text><text fill="#000000" font-family="sans-serif" font-size="13" lengthAdjust="spacingAndGlyphs" textLength="24" x="516.2606" y="550.8816">0..1</text><!--link CashSettlement to PaymentInvestigationCaseResolution--><path d="M678.428,273.723 C667.265,330.448 650.326,416.528 643.267,452.399 " fill="none" id="CashSettlement-PaymentInvestigationCaseResolution" style="stroke: #A80036; stroke-width: 1.0;"/><polygon fill="#A80036" points="642.221,457.713,647.8813,449.6532,643.1851,452.8068,640.0314,448.1106,642.221,457.713" style="stroke: #A80036; stroke-width: 1.0;"/><text fill="#000000" font-family="sans-serif" font-size="13" lengthAdjust="spacingAndGlyphs" textLength="161" x="668" y="372.0669">RelatedInvestigationCase</text><text fill="#000000" font-family="sans-serif" font-size="13" lengthAdjust="spacingAndGlyphs" textLength="24" x="613.5676" y="446.9214">0..1</text><!--link CashSettlement to Reservation--><path d="M579.861,273.592 C568.642,282.999 558.596,293.77 551,306 C542.747,319.288 541.994,337.429 542.848,350.468 " fill="none" id="CashSettlement-Reservation" style="stroke: #A80036; stroke-width: 1.0;"/><polygon fill="#A80036" points="543.296,355.715,546.5151,346.4071,542.8703,350.7332,538.5442,347.0883,543.296,355.715" style="stroke: #A80036; stroke-width: 1.0;"/><text fill="#000000" font-family="sans-serif" font-size="13" lengthAdjust="spacingAndGlyphs" textLength="75" x="552" y="319.0669">Reservation</text><text fill="#000000" font-family="sans-serif" font-size="13" lengthAdjust="spacingAndGlyphs" textLength="24" x="513.4253" y="344.924">0..1</text></g></svg>