<?xml version="1.0" encoding="UTF-8" standalone="no"?><svg xmlns="http://www.w3.org/2000/svg" xmlns:xlink="http://www.w3.org/1999/xlink" contentScriptType="application/ecmascript" contentStyleType="text/css" height="1018px" preserveAspectRatio="none" style="width:2581px;height:1018px;" version="1.1" viewBox="0 0 2581 1018" width="2581px" zoomAndPan="magnify"><defs><filter height="300%" id="f1nj28ntwho5gm" width="300%" x="-1" y="-1"><feGaussianBlur result="blurOut" stdDeviation="2.0"/><feColorMatrix in="blurOut" result="blurOut2" type="matrix" values="0 0 0 0 0 0 0 0 0 0 0 0 0 0 0 0 0 0 .4 0"/><feOffset dx="4.0" dy="4.0" in="blurOut2" result="blurOut3"/><feBlend in="SourceGraphic" in2="blurOut3" mode="normal"/></filter></defs><g><!--cluster ##5544--><!--cluster ##5556--><!--cluster ##5561--><!--cluster ##5588--><!--cluster ##5597--><!--class RolePlayer--><a target="_top" xlink:actuate="onRequest" xlink:href="../RolePlayer.html" xlink:show="new" xlink:title="Type of entity that plays a specific role in a specific context." xlink:type="simple"><rect fill="#FEFEEE" filter="url(#f1nj28ntwho5gm)" height="23.9688" id="RolePlayer" style="stroke: #A80036; stroke-width: 1.5;" width="71" x="934.75" y="40"/><rect fill="#FEFEEE" height="23.9688" style="stroke: #A80036; stroke-width: 1.5;" width="71" x="934.75" y="40"/><text fill="#000000" font-family="sans-serif" font-size="12" lengthAdjust="spacingAndGlyphs" textLength="65" x="937.75" y="56.1387">RolePlayer</text></a><!--class System--><a target="_top" xlink:actuate="onRequest" xlink:href="../System.html" xlink:show="new" xlink:title="Set of integrated applications that provides centralised services such as clearing, netting, reconciliation, trading and/or settlement." xlink:type="simple"><rect fill="#FEFEEE" filter="url(#f1nj28ntwho5gm)" height="57.5781" id="System" style="stroke: #A80036; stroke-width: 1.5;" width="254" x="752" y="126"/><rect fill="#FEFEEE" height="23.9688" style="stroke: #A80036; stroke-width: 1.5;" width="254" x="752" y="126"/><text fill="#000000" font-family="sans-serif" font-size="12" lengthAdjust="spacingAndGlyphs" textLength="45" x="856.5" y="142.1387">System</text><line style="stroke: #A80036; stroke-width: 1.5;" x1="753" x2="1005" y1="149.9688" y2="149.9688"/><ellipse cx="763" cy="161.8711" fill="#84BE84" rx="3" ry="3" style="stroke: #038048; stroke-width: 1.0;"/><text fill="#000000" font-family="sans-serif" font-size="11" lengthAdjust="spacingAndGlyphs" textLength="97" x="772" y="164.1792">SystemDateTime</text><text fill="#000000" font-family="sans-serif" font-size="11" font-style="italic" lengthAdjust="spacingAndGlyphs" textLength="81" x="873" y="164.1792">(ISODateTime)</text><ellipse cx="763" cy="174.6758" fill="#84BE84" rx="3" ry="3" style="stroke: #038048; stroke-width: 1.0;"/><text fill="#000000" font-family="sans-serif" font-size="11" lengthAdjust="spacingAndGlyphs" textLength="98" x="772" y="176.9839">SystemLanguage</text><text fill="#000000" font-family="sans-serif" font-size="11" font-style="italic" lengthAdjust="spacingAndGlyphs" textLength="126" x="874" y="176.9839">(ISO2ALanguageCode)</text></a><!--class ClearingSystem--><a target="_top" xlink:actuate="onRequest" xlink:href="../ClearingSystem.html" xlink:show="new" xlink:title="Specifies the system which plays a role in the clearing process." xlink:type="simple"><rect fill="#FEFEEE" filter="url(#f1nj28ntwho5gm)" height="23.9688" id="ClearingSystem" style="stroke: #A80036; stroke-width: 1.5;" width="102" x="674.5" y="264"/><rect fill="#FEFEEE" height="23.9688" style="stroke: #A80036; stroke-width: 1.5;" width="102" x="674.5" y="264"/><text fill="#000000" font-family="sans-serif" font-size="12" lengthAdjust="spacingAndGlyphs" textLength="96" x="677.5" y="280.1387">ClearingSystem</text></a><!--class CashClearingSystem--><a target="_top" xlink:actuate="onRequest" xlink:href="../CashClearingSystem.html" xlink:show="new" xlink:title="Clearing system that processes only cash transfers." xlink:type="simple"><rect fill="#FEFECE" filter="url(#f1nj28ntwho5gm)" height="70.3828" id="CashClearingSystem" style="stroke: #A80036; stroke-width: 1.5;" width="332" x="674" y="366"/><rect fill="#FEFECE" height="23.9688" style="stroke: #A80036; stroke-width: 1.5;" width="332" x="674" y="366"/><text fill="#000000" font-family="sans-serif" font-size="12" lengthAdjust="spacingAndGlyphs" textLength="127" x="776.5" y="382.1387">CashClearingSystem</text><line style="stroke: #A80036; stroke-width: 1.5;" x1="675" x2="1005" y1="389.9688" y2="389.9688"/><ellipse cx="685" cy="401.8711" fill="#84BE84" rx="3" ry="3" style="stroke: #038048; stroke-width: 1.0;"/><text fill="#000000" font-family="sans-serif" font-size="11" lengthAdjust="spacingAndGlyphs" textLength="72" x="694" y="404.1792">Identification</text><text fill="#000000" font-family="sans-serif" font-size="11" font-style="italic" lengthAdjust="spacingAndGlyphs" textLength="154" x="770" y="404.1792">(CashClearingSystemCode)</text><ellipse cx="685" cy="414.6758" fill="#84BE84" rx="3" ry="3" style="stroke: #038048; stroke-width: 1.0;"/><text fill="#000000" font-family="sans-serif" font-size="11" lengthAdjust="spacingAndGlyphs" textLength="27" x="694" y="416.9839">Type</text><text fill="#000000" font-family="sans-serif" font-size="11" font-style="italic" lengthAdjust="spacingAndGlyphs" textLength="135" x="725" y="416.9839">(CashSystemTypeCode)</text><ellipse cx="685" cy="427.4805" fill="#84BE84" rx="3" ry="3" style="stroke: #038048; stroke-width: 1.0;"/><text fill="#000000" font-family="sans-serif" font-size="11" lengthAdjust="spacingAndGlyphs" textLength="134" x="694" y="429.7886">CashSettlementSystem</text><text fill="#000000" font-family="sans-serif" font-size="11" font-style="italic" lengthAdjust="spacingAndGlyphs" textLength="168" x="832" y="429.7886">(CashSettlementSystemCode)</text></a><!--class Role--><a target="_top" xlink:actuate="onRequest" xlink:href="../Role.html" xlink:show="new" xlink:title="Role of a party in an activity." xlink:type="simple"><rect fill="#EEEEEE" filter="url(#f1nj28ntwho5gm)" height="23.9688" id="Role" style="stroke: #A80036; stroke-width: 1.5;" width="33" x="2317.75" y="389"/><rect fill="#EEEEEE" height="23.9688" style="stroke: #A80036; stroke-width: 1.5;" width="33" x="2317.75" y="389"/><text fill="#000000" font-family="sans-serif" font-size="12" lengthAdjust="spacingAndGlyphs" textLength="27" x="2320.75" y="405.1387">Role</text></a><!--class DateTimePeriod--><a target="_top" xlink:actuate="onRequest" xlink:href="../DateTimePeriod.html" xlink:show="new" xlink:title="Time span defined by a start date and time, and an end date and time." xlink:type="simple"><rect fill="#EEEEEE" filter="url(#f1nj28ntwho5gm)" height="23.9688" id="DateTimePeriod" style="stroke: #A80036; stroke-width: 1.5;" width="105" x="2317.75" y="264"/><rect fill="#EEEEEE" height="23.9688" style="stroke: #A80036; stroke-width: 1.5;" width="105" x="2317.75" y="264"/><text fill="#000000" font-family="sans-serif" font-size="12" lengthAdjust="spacingAndGlyphs" textLength="99" x="2320.75" y="280.1387">DateTimePeriod</text></a><!--class SystemIdentification--><a target="_top" xlink:actuate="onRequest" xlink:href="../SystemIdentification.html" xlink:show="new" xlink:title="Parameters that identify a system." xlink:type="simple"><rect fill="#EEEEEE" filter="url(#f1nj28ntwho5gm)" height="23.9688" id="SystemIdentification" style="stroke: #A80036; stroke-width: 1.5;" width="132" x="1602" y="518"/><rect fill="#EEEEEE" height="23.9688" style="stroke: #A80036; stroke-width: 1.5;" width="132" x="1602" y="518"/><text fill="#000000" font-family="sans-serif" font-size="12" lengthAdjust="spacingAndGlyphs" textLength="126" x="1605" y="534.1387">SystemIdentification</text></a><!--class Location--><a target="_top" xlink:actuate="onRequest" xlink:href="../Location.html" xlink:show="new" xlink:title="Specifies a place." xlink:type="simple"><rect fill="#EEEEEE" filter="url(#f1nj28ntwho5gm)" height="23.9688" id="Location" style="stroke: #A80036; stroke-width: 1.5;" width="59" x="1608.75" y="389"/><rect fill="#EEEEEE" height="23.9688" style="stroke: #A80036; stroke-width: 1.5;" width="59" x="1608.75" y="389"/><text fill="#000000" font-family="sans-serif" font-size="12" lengthAdjust="spacingAndGlyphs" textLength="53" x="1611.75" y="405.1387">Location</text></a><!--class Reconciliation--><a target="_top" xlink:actuate="onRequest" xlink:href="../Reconciliation.html" xlink:show="new" xlink:title="Process of matching different documents submitted by parties to a trade." xlink:type="simple"><rect fill="#EEEEEE" filter="url(#f1nj28ntwho5gm)" height="23.9688" id="Reconciliation" style="stroke: #A80036; stroke-width: 1.5;" width="93" x="1652.75" y="264"/><rect fill="#EEEEEE" height="23.9688" style="stroke: #A80036; stroke-width: 1.5;" width="93" x="1652.75" y="264"/><text fill="#000000" font-family="sans-serif" font-size="12" lengthAdjust="spacingAndGlyphs" textLength="87" x="1655.75" y="280.1387">Reconciliation</text></a><!--class SystemAvailability--><a target="_top" xlink:actuate="onRequest" xlink:href="../SystemAvailability.html" xlink:show="new" xlink:title="information about the periods of activity and non-activity of a system." xlink:type="simple"><rect fill="#EEEEEE" filter="url(#f1nj28ntwho5gm)" height="23.9688" id="SystemAvailability" style="stroke: #A80036; stroke-width: 1.5;" width="115" x="1683.75" y="984"/><rect fill="#EEEEEE" height="23.9688" style="stroke: #A80036; stroke-width: 1.5;" width="115" x="1683.75" y="984"/><text fill="#000000" font-family="sans-serif" font-size="12" lengthAdjust="spacingAndGlyphs" textLength="109" x="1686.75" y="1000.1387">SystemAvailability</text></a><!--class SystemEventInformation--><a target="_top" xlink:actuate="onRequest" xlink:href="../SystemEventInformation.html" xlink:show="new" xlink:title="Detailed information about an event occurring on a system, whether planned, for example, cut-off time for a specific type of eligible transfer, or unplanned, for example, an unsolicited failure, as stipulated in the specifications of the system." xlink:type="simple"><rect fill="#EEEEEE" filter="url(#f1nj28ntwho5gm)" height="23.9688" id="SystemEventInformation" style="stroke: #A80036; stroke-width: 1.5;" width="157" x="1576.75" y="898"/><rect fill="#EEEEEE" height="23.9688" style="stroke: #A80036; stroke-width: 1.5;" width="157" x="1576.75" y="898"/><text fill="#000000" font-family="sans-serif" font-size="12" lengthAdjust="spacingAndGlyphs" textLength="151" x="1579.75" y="914.1387">SystemEventInformation</text></a><!--class SystemPartyRole--><a target="_top" xlink:actuate="onRequest" xlink:href="../SystemPartyRole.html" xlink:show="new" xlink:title="Role played by a party in a system." xlink:type="simple"><rect fill="#EEEEEE" filter="url(#f1nj28ntwho5gm)" height="23.9688" id="SystemPartyRole" style="stroke: #A80036; stroke-width: 1.5;" width="110" x="1616" y="812"/><rect fill="#EEEEEE" height="23.9688" style="stroke: #A80036; stroke-width: 1.5;" width="110" x="1616" y="812"/><text fill="#000000" font-family="sans-serif" font-size="12" lengthAdjust="spacingAndGlyphs" textLength="104" x="1619" y="828.1387">SystemPartyRole</text></a><!--class SystemStatus--><a target="_top" xlink:actuate="onRequest" xlink:href="../SystemStatus.html" xlink:show="new" xlink:title="Status of a system and the period of time during which the status is valid." xlink:type="simple"><rect fill="#EEEEEE" filter="url(#f1nj28ntwho5gm)" height="23.9688" id="SystemStatus" style="stroke: #A80036; stroke-width: 1.5;" width="92" x="1625" y="724"/><rect fill="#EEEEEE" height="23.9688" style="stroke: #A80036; stroke-width: 1.5;" width="92" x="1625" y="724"/><text fill="#000000" font-family="sans-serif" font-size="12" lengthAdjust="spacingAndGlyphs" textLength="86" x="1628" y="740.1387">SystemStatus</text></a><!--class SystemBusinessInformation--><a target="_top" xlink:actuate="onRequest" xlink:href="../SystemBusinessInformation.html" xlink:show="new" xlink:title="Details about business information related to a system." xlink:type="simple"><rect fill="#EEEEEE" filter="url(#f1nj28ntwho5gm)" height="23.9688" id="SystemBusinessInformation" style="stroke: #A80036; stroke-width: 1.5;" width="178" x="1556.5" y="620"/><rect fill="#EEEEEE" height="23.9688" style="stroke: #A80036; stroke-width: 1.5;" width="178" x="1556.5" y="620"/><text fill="#000000" font-family="sans-serif" font-size="12" lengthAdjust="spacingAndGlyphs" textLength="172" x="1559.5" y="636.1387">SystemBusinessInformation</text></a><!--class Negotiation--><a target="_top" xlink:actuate="onRequest" xlink:href="../Negotiation.html" xlink:show="new" xlink:title="Decision making on the transfer of a financial instrument." xlink:type="simple"><rect fill="#EEEEEE" filter="url(#f1nj28ntwho5gm)" height="23.9688" id="Negotiation" style="stroke: #A80036; stroke-width: 1.5;" width="79" x="1806.75" y="518"/><rect fill="#EEEEEE" height="23.9688" style="stroke: #A80036; stroke-width: 1.5;" width="79" x="1806.75" y="518"/><text fill="#000000" font-family="sans-serif" font-size="12" lengthAdjust="spacingAndGlyphs" textLength="73" x="1809.75" y="534.1387">Negotiation</text></a><!--class Account--><a target="_top" xlink:actuate="onRequest" xlink:href="../Account.html" xlink:show="new" xlink:title="Record of transactions in specific types of assets, maintained by a servicing party on behalf of one or more owning parties. Business relationship between an account servicer and one or more account owners." xlink:type="simple"><rect fill="#EEEEEE" filter="url(#f1nj28ntwho5gm)" height="23.9688" id="Account" style="stroke: #A80036; stroke-width: 1.5;" width="57" x="1777.75" y="389"/><rect fill="#EEEEEE" height="23.9688" style="stroke: #A80036; stroke-width: 1.5;" width="57" x="1777.75" y="389"/><text fill="#000000" font-family="sans-serif" font-size="12" lengthAdjust="spacingAndGlyphs" textLength="51" x="1780.75" y="405.1387">Account</text></a><!--class Trade--><a target="_top" xlink:actuate="onRequest" xlink:href="../Trade.html" xlink:show="new" xlink:title="Result of an order between at least two parties. A trade relates to the delivery of goods and services, cash or securities." xlink:type="simple"><rect fill="#EEEEEE" filter="url(#f1nj28ntwho5gm)" height="23.9688" id="Trade" style="stroke: #A80036; stroke-width: 1.5;" width="42" x="1904.5" y="620"/><rect fill="#EEEEEE" height="23.9688" style="stroke: #A80036; stroke-width: 1.5;" width="42" x="1904.5" y="620"/><text fill="#000000" font-family="sans-serif" font-size="12" lengthAdjust="spacingAndGlyphs" textLength="36" x="1907.5" y="636.1387">Trade</text></a><!--class Assessment--><a target="_top" xlink:actuate="onRequest" xlink:href="../Assessment.html" xlink:show="new" xlink:title="Assessment for the components of a system." xlink:type="simple"><rect fill="#EEEEEE" filter="url(#f1nj28ntwho5gm)" height="23.9688" id="Assessment" style="stroke: #A80036; stroke-width: 1.5;" width="82" x="1485" y="518"/><rect fill="#EEEEEE" height="23.9688" style="stroke: #A80036; stroke-width: 1.5;" width="82" x="1485" y="518"/><text fill="#000000" font-family="sans-serif" font-size="12" lengthAdjust="spacingAndGlyphs" textLength="76" x="1488" y="534.1387">Assessment</text></a><!--class Position--><a target="_top" xlink:actuate="onRequest" xlink:href="../Position.html" xlink:show="new" xlink:title="Specifies the status of trades and their value inside a system." xlink:type="simple"><rect fill="#EEEEEE" filter="url(#f1nj28ntwho5gm)" height="23.9688" id="Position" style="stroke: #A80036; stroke-width: 1.5;" width="56" x="1517.5" y="389"/><rect fill="#EEEEEE" height="23.9688" style="stroke: #A80036; stroke-width: 1.5;" width="56" x="1517.5" y="389"/><text fill="#000000" font-family="sans-serif" font-size="12" lengthAdjust="spacingAndGlyphs" textLength="50" x="1520.5" y="405.1387">Position</text></a><!--class Clearing--><a target="_top" xlink:actuate="onRequest" xlink:href="../Clearing.html" xlink:show="new" xlink:title="Mechanism allowing financial institutions that are members of a clearing house to pay and to receive the amounts linked to the transactions that they have executed on the market. The addition of all the positions per product results in one net position (due or to receive) with the clearing house or the central clearing counterparty." xlink:type="simple"><rect fill="#EEEEEE" filter="url(#f1nj28ntwho5gm)" height="23.9688" id="Clearing" style="stroke: #A80036; stroke-width: 1.5;" width="57" x="289.75" y="724"/><rect fill="#EEEEEE" height="23.9688" style="stroke: #A80036; stroke-width: 1.5;" width="57" x="289.75" y="724"/><text fill="#000000" font-family="sans-serif" font-size="12" lengthAdjust="spacingAndGlyphs" textLength="51" x="292.75" y="740.1387">Clearing</text></a><!--class CentralClearingCounterpartyRole--><a target="_top" xlink:actuate="onRequest" xlink:href="../CentralClearingCounterpartyRole.html" xlink:show="new" xlink:title="Infrastructure that may be a component of a clearing house and which facilitates clearing and settlement for its members by standing between the buyer and the seller. It may net transactions and it substitutes itself as settlement counterparty for each position." xlink:type="simple"><rect fill="#EEEEEE" filter="url(#f1nj28ntwho5gm)" height="23.9688" id="CentralClearingCounterpartyRole" style="stroke: #A80036; stroke-width: 1.5;" width="211" x="270.75" y="620"/><rect fill="#EEEEEE" height="23.9688" style="stroke: #A80036; stroke-width: 1.5;" width="211" x="270.75" y="620"/><text fill="#000000" font-family="sans-serif" font-size="12" lengthAdjust="spacingAndGlyphs" textLength="205" x="273.75" y="636.1387">CentralClearingCounterpartyRole</text></a><!--class DefaultFund--><a target="_top" xlink:actuate="onRequest" xlink:href="../DefaultFund.html" xlink:show="new" xlink:title="Assets posted by participants in a clearing fund that can be used in the event of a default by a participant to compensate non-defaulting participants for losses they suffer due to this default." xlink:type="simple"><rect fill="#EEEEEE" filter="url(#f1nj28ntwho5gm)" height="23.9688" id="DefaultFund" style="stroke: #A80036; stroke-width: 1.5;" width="82" x="335" y="518"/><rect fill="#EEEEEE" height="23.9688" style="stroke: #A80036; stroke-width: 1.5;" width="82" x="335" y="518"/><text fill="#000000" font-family="sans-serif" font-size="12" lengthAdjust="spacingAndGlyphs" textLength="76" x="338" y="534.1387">DefaultFund</text></a><!--class CollateralManagement--><a target="_top" xlink:actuate="onRequest" xlink:href="../CollateralManagement.html" xlink:show="new" xlink:title="Set of operations relative to the management of collateral, variation margins, default fund participation and independent amount." xlink:type="simple"><rect fill="#EEEEEE" filter="url(#f1nj28ntwho5gm)" height="23.9688" id="CollateralManagement" style="stroke: #A80036; stroke-width: 1.5;" width="147" x="270.75" y="389"/><rect fill="#EEEEEE" height="23.9688" style="stroke: #A80036; stroke-width: 1.5;" width="147" x="270.75" y="389"/><text fill="#000000" font-family="sans-serif" font-size="12" lengthAdjust="spacingAndGlyphs" textLength="141" x="273.75" y="405.1387">CollateralManagement</text></a><!--class TransactionAdministrator--><a target="_top" xlink:actuate="onRequest" xlink:href="../TransactionAdministrator.html" xlink:show="new" xlink:title="Set of integrated applications that provides centralised services such as clearing and settlement." xlink:type="simple"><rect fill="#EEEEEE" filter="url(#f1nj28ntwho5gm)" height="23.9688" id="TransactionAdministrator" style="stroke: #A80036; stroke-width: 1.5;" width="164" x="672" y="620"/><rect fill="#EEEEEE" height="23.9688" style="stroke: #A80036; stroke-width: 1.5;" width="164" x="672" y="620"/><text fill="#000000" font-family="sans-serif" font-size="12" lengthAdjust="spacingAndGlyphs" textLength="158" x="675" y="636.1387">TransactionAdministrator</text></a><!--class SettlementInstructionSystemRole--><a target="_top" xlink:actuate="onRequest" xlink:href="../SettlementInstructionSystemRole.html" xlink:show="new" xlink:title="Identification of a specific system or set of rules and/or processes to be applied at the settlement place." xlink:type="simple"><rect fill="#EEEEEE" filter="url(#f1nj28ntwho5gm)" height="23.9688" id="SettlementInstructionSystemRole" style="stroke: #A80036; stroke-width: 1.5;" width="214" x="629.5" y="518"/><rect fill="#EEEEEE" height="23.9688" style="stroke: #A80036; stroke-width: 1.5;" width="214" x="629.5" y="518"/><text fill="#000000" font-family="sans-serif" font-size="12" lengthAdjust="spacingAndGlyphs" textLength="208" x="632.5" y="534.1387">SettlementInstructionSystemRole</text></a><!--link RolePlayer to System--><path d="M946.511,79.071 C933.561,93.443 917.478,111.294 904.258,125.966 " fill="none" id="RolePlayer-System" style="stroke: #A80036; stroke-width: 1.0;"/><polygon fill="none" points="941.326,74.368,959.914,64.195,951.727,83.739,941.326,74.368" style="stroke: #A80036; stroke-width: 1.0;"/><!--link System to ClearingSystem--><path d="M826.634,196.465 C795.904,220.21 759.324,248.477 739.507,263.79 " fill="none" id="System-ClearingSystem" style="stroke: #A80036; stroke-width: 1.0;"/><polygon fill="none" points="822.398,190.891,842.504,184.201,830.959,201.969,822.398,190.891" style="stroke: #A80036; stroke-width: 1.0;"/><!--link ClearingSystem to CashClearingSystem--><path d="M749.331,303.024 C766.409,321.29 789.419,345.9 807.985,365.758 " fill="none" id="ClearingSystem-CashClearingSystem" style="stroke: #A80036; stroke-width: 1.0;"/><polygon fill="none" points="744.159,307.741,735.613,288.351,754.385,298.18,744.159,307.741" style="stroke: #A80036; stroke-width: 1.0;"/><!--link DateTimePeriod to Role--><!--link Location to SystemIdentification--><!--link Reconciliation to Location--><!--link SystemAvailability to Reconciliation--><!--link SystemEventInformation to SystemAvailability--><!--link SystemPartyRole to SystemEventInformation--><!--link SystemStatus to SystemPartyRole--><!--link SystemBusinessInformation to SystemStatus--><!--link Negotiation to SystemBusinessInformation--><!--link Account to Negotiation--><!--link Trade to Account--><!--link Assessment to Trade--><!--link Position to Assessment--><!--link CentralClearingCounterpartyRole to Clearing--><!--link DefaultFund to CentralClearingCounterpartyRole--><!--link CollateralManagement to DefaultFund--><!--link SettlementInstructionSystemRole to TransactionAdministrator--><!--link RolePlayer to Role--><path d="M1005.52,53.537 C1186.98,56.873 2010.09,79.321 2219,214 C2283.17,255.37 2317.49,346.529 2329.26,383.719 " fill="none" id="RolePlayer-Role" style="stroke: #A80036; stroke-width: 1.0;"/><polygon fill="#A80036" points="2330.83,388.802,2331.9868,379.0213,2329.35,384.0261,2324.3453,381.3893,2330.83,388.802" style="stroke: #A80036; stroke-width: 1.0;"/><text fill="#000000" font-family="sans-serif" font-size="13" lengthAdjust="spacingAndGlyphs" textLength="27" x="2242" y="227.0669">Role</text><text fill="#000000" font-family="sans-serif" font-size="13" lengthAdjust="spacingAndGlyphs" textLength="23" x="2301.5565" y="378.0399">1..*</text><!--link RolePlayer to DateTimePeriod--><path d="M1005.477,52.939 C1203.2,52.753 2164.7,53.93 2290,94 C2381.58,123.287 2424.63,129.229 2470,214 C2482.56,237.475 2456.12,252.893 2427.28,262.356 " fill="none" id="RolePlayer-DateTimePeriod" style="stroke: #A80036; stroke-width: 1.0;"/><polygon fill="#A80036" points="2422.26,263.939,2432.0485,265.0274,2427.0255,262.4257,2429.6272,257.4027,2422.26,263.939" style="stroke: #A80036; stroke-width: 1.0;"/><text fill="#000000" font-family="sans-serif" font-size="13" lengthAdjust="spacingAndGlyphs" textLength="86" x="2451" y="159.0669">ValidityPeriod</text><text fill="#000000" font-family="sans-serif" font-size="13" lengthAdjust="spacingAndGlyphs" textLength="24" x="2410.6697" y="252.9662">0..1</text><!--link System to SystemIdentification--><path d="M1006.23,172.629 C1049.19,181.327 1096.49,194.416 1137,214 C1214.68,251.555 1217.59,286.136 1288,336 C1308.03,350.186 1316.37,349.015 1335,365 C1388.59,410.992 1374.72,454.637 1438,486 C1467.11,500.43 1552.32,486.758 1584,494 C1604.24,498.627 1625.83,507.726 1642.06,515.486 " fill="none" id="System-SystemIdentification" style="stroke: #A80036; stroke-width: 1.0;"/><polygon fill="#A80036" points="1646.91,517.845,1640.563,510.314,1642.4127,515.6599,1637.0669,517.5097,1646.91,517.845" style="stroke: #A80036; stroke-width: 1.0;"/><text fill="#000000" font-family="sans-serif" font-size="13" lengthAdjust="spacingAndGlyphs" textLength="130" x="1289" y="331.0669">SystemIdentification</text><text fill="#000000" font-family="sans-serif" font-size="13" lengthAdjust="spacingAndGlyphs" textLength="8" x="1628.9416" y="506.8399">1</text><!--link System to Location--><path d="M1006.32,159.832 C1203.38,166.633 1572.88,183.097 1701,214 C1729.65,220.91 1739.85,220.558 1762,240 C1797.56,271.212 1834.92,297.096 1808,336 C1792.19,358.847 1717.6,380.564 1672.64,391.882 " fill="none" id="System-Location" style="stroke: #A80036; stroke-width: 1.0;"/><polygon fill="#A80036" points="1667.58,393.144,1677.2819,394.8391,1672.4304,391.93,1675.3395,387.0785,1667.58,393.144" style="stroke: #A80036; stroke-width: 1.0;"/><text fill="#000000" font-family="sans-serif" font-size="13" lengthAdjust="spacingAndGlyphs" textLength="54" x="1811" y="280.0669">Location</text><text fill="#000000" font-family="sans-serif" font-size="13" lengthAdjust="spacingAndGlyphs" textLength="8" x="1675.7042" y="385.2441">1</text><!--link System to Reconciliation--><path d="M1006.17,158.179 C1141.52,162.553 1361.34,175.556 1547,214 C1593.52,223.632 1644.05,246.671 1673.55,261.516 " fill="none" id="System-Reconciliation" style="stroke: #A80036; stroke-width: 1.0;"/><polygon fill="#A80036" points="1678.1,263.825,1671.8965,256.1754,1673.6448,261.5553,1668.2649,263.3037,1678.1,263.825" style="stroke: #A80036; stroke-width: 1.0;"/><text fill="#000000" font-family="sans-serif" font-size="13" lengthAdjust="spacingAndGlyphs" textLength="87" x="1604" y="227.0669">Reconciliation</text><text fill="#000000" font-family="sans-serif" font-size="13" lengthAdjust="spacingAndGlyphs" textLength="8" x="1660.1109" y="252.8131">1</text><!--link System to SystemAvailability--><path d="M751.591,160.445 C509.286,170.61 6,200.669 6,275 C6,275 6,275 6,911 C6,996.4433 1366.14,996.4338 1677.87,995.3097 " fill="none" id="System-SystemAvailability" style="stroke: #A80036; stroke-width: 1.0;"/><polygon fill="#A80036" points="1683.27,995.2897,1674.2586,991.3154,1678.27,995.304,1674.2815,999.3154,1683.27,995.2897" style="stroke: #A80036; stroke-width: 1.0;"/><text fill="#000000" font-family="sans-serif" font-size="13" lengthAdjust="spacingAndGlyphs" textLength="67" x="7" y="636.0669">Availability</text><text fill="#000000" font-family="sans-serif" font-size="13" lengthAdjust="spacingAndGlyphs" textLength="8" x="1667.7752" y="990.4152">1</text><!--link System to SystemEventInformation--><path d="M751.773,163.386 C537.794,177.531 129,212.707 129,275 C129,275 129,275 129,825 C129,897.863 1252.8,907.531 1571.61,908.807 " fill="none" id="System-SystemEventInformation" style="stroke: #A80036; stroke-width: 1.0;"/><polygon fill="#A80036" points="1576.7,908.827,1567.723,904.7756,1571.7001,908.7984,1567.6773,912.7755,1576.7,908.827" style="stroke: #A80036; stroke-width: 1.0;"/><text fill="#000000" font-family="sans-serif" font-size="13" lengthAdjust="spacingAndGlyphs" textLength="36" x="130" y="585.0669">Event</text><text fill="#000000" font-family="sans-serif" font-size="13" lengthAdjust="spacingAndGlyphs" textLength="8" x="1560.781" y="904.0996">1</text><!--link System to SystemPartyRole--><path d="M1006.09,158.692 C1256.95,164.65 1807.65,181.108 1994,214 C2085.1,230.079 2193,182.494 2193,275 C2193,275 2193,275 2193,737 C2193,783.304 1869.1,810.022 1731.58,819.279 " fill="none" id="System-SystemPartyRole" style="stroke: #A80036; stroke-width: 1.0;"/><polygon fill="#A80036" points="1726.37,819.627,1735.6134,823.0268,1731.3592,819.2984,1735.0877,815.0441,1726.37,819.627" style="stroke: #A80036; stroke-width: 1.0;"/><text fill="#000000" font-family="sans-serif" font-size="13" lengthAdjust="spacingAndGlyphs" textLength="60" x="2194" y="534.0669">PartyRole</text><text fill="#000000" font-family="sans-serif" font-size="13" lengthAdjust="spacingAndGlyphs" textLength="7" x="1733.9127" y="814.0551">*</text><!--link System to SystemStatus--><path d="M1006.26,157.428 C1285.68,161.695 1934.17,178.212 2011,240 C2160.2,359.987 2114.02,551.604 1962,668 C1891.43,722.029 1784.88,733.742 1722.19,735.584 " fill="none" id="System-SystemStatus" style="stroke: #A80036; stroke-width: 1.0;"/><polygon fill="#A80036" points="1717,735.717,1726.0999,739.4843,1721.9983,735.5884,1725.8942,731.4869,1717,735.717" style="stroke: #A80036; stroke-width: 1.0;"/><text fill="#000000" font-family="sans-serif" font-size="13" lengthAdjust="spacingAndGlyphs" textLength="42" x="2099" y="481.0669">Status</text><text fill="#000000" font-family="sans-serif" font-size="13" lengthAdjust="spacingAndGlyphs" textLength="8" x="1724.9688" y="730.3972">1</text><!--link System to SystemBusinessInformation--><path d="M899.67,184.165 C928.452,223.785 981.714,298.572 1023,365 C1048.52,406.064 1038.31,429.714 1076,460 C1216.27,572.721 1429.61,611.223 1551.28,624.314 " fill="none" id="System-SystemBusinessInformation" style="stroke: #A80036; stroke-width: 1.0;"/><polygon fill="#A80036" points="1556.29,624.844,1547.7632,619.9151,1551.318,624.3155,1546.9176,627.8703,1556.29,624.844" style="stroke: #A80036; stroke-width: 1.0;"/><text fill="#000000" font-family="sans-serif" font-size="13" lengthAdjust="spacingAndGlyphs" textLength="190" x="1077" y="405.0669">SystemGeneratedInformation</text><text fill="#000000" font-family="sans-serif" font-size="13" lengthAdjust="spacingAndGlyphs" textLength="8" x="1540.3715" y="619.7672">1</text><!--link System to DateTimePeriod--><path d="M1006.09,156.637 C1331.31,158.914 2176.46,169.127 2295,214 C2320.25,223.559 2343.38,245.193 2357.09,259.951 " fill="none" id="System-DateTimePeriod" style="stroke: #A80036; stroke-width: 1.0;"/><polygon fill="#A80036" points="2360.7,263.916,2357.6009,254.5675,2357.3347,260.218,2351.6841,259.9519,2360.7,263.916" style="stroke: #A80036; stroke-width: 1.0;"/><text fill="#000000" font-family="sans-serif" font-size="13" lengthAdjust="spacingAndGlyphs" textLength="134" x="2326" y="227.0669">VersionValidityPeriod</text><text fill="#000000" font-family="sans-serif" font-size="13" lengthAdjust="spacingAndGlyphs" textLength="8" x="2346.6984" y="252.9353">1</text><!--link System to Negotiation--><path d="M1006.33,174.561 C1060.22,183.969 1123.3,197.047 1179,214 C1292.56,248.566 1337.76,237.507 1425,318 C1477.3,366.259 1440.76,419.1 1499,460 C1591.49,524.951 1641.32,466.746 1751,494 C1773.14,499.502 1797.25,508.422 1815.64,515.88 " fill="none" id="System-Negotiation" style="stroke: #A80036; stroke-width: 1.0;"/><polygon fill="#A80036" points="1820.67,517.94,1813.8639,510.8212,1816.0447,516.0408,1810.8252,518.2216,1820.67,517.94" style="stroke: #A80036; stroke-width: 1.0;"/><text fill="#000000" font-family="sans-serif" font-size="13" lengthAdjust="spacingAndGlyphs" textLength="74" x="1442" y="331.0669">Negotiation</text><text fill="#000000" font-family="sans-serif" font-size="13" lengthAdjust="spacingAndGlyphs" textLength="24" x="1782.4081" y="506.9676">0..1</text><!--link System to Account--><path d="M1006.22,156.759 C1262.54,159.689 1821.34,173.694 1875,240 C1912.16,285.908 1852.51,354.852 1822.1,384.995 " fill="none" id="System-Account" style="stroke: #A80036; stroke-width: 1.0;"/><polygon fill="#A80036" points="1818.19,388.815,1827.4197,385.378,1821.7632,385.3175,1821.8237,379.661,1818.19,388.815" style="stroke: #A80036; stroke-width: 1.0;"/><text fill="#000000" font-family="sans-serif" font-size="13" lengthAdjust="spacingAndGlyphs" textLength="52" x="1888" y="280.0669">Account</text><text fill="#000000" font-family="sans-serif" font-size="13" lengthAdjust="spacingAndGlyphs" textLength="8" x="1811.4889" y="378.0572">1</text><!--link System to Trade--><path d="M1006.04,159.395 C1234.99,166.184 1708.05,183.467 1870,214 C1906.74,220.927 1918.06,220.566 1950,240 C1997.2,268.723 2036.06,281.197 2029,336 C2014.06,451.906 2017.25,487.564 1961,590 C1955.77,599.528 1947.99,608.752 1941.01,616.03 " fill="none" id="System-Trade" style="stroke: #A80036; stroke-width: 1.0;"/><polygon fill="#A80036" points="1937.23,619.863,1946.3986,616.2662,1940.7419,616.304,1940.7041,610.6472,1937.23,619.863" style="stroke: #A80036; stroke-width: 1.0;"/><text fill="#000000" font-family="sans-serif" font-size="13" lengthAdjust="spacingAndGlyphs" textLength="36" x="2027" y="405.0669">Trade</text><text fill="#000000" font-family="sans-serif" font-size="13" lengthAdjust="spacingAndGlyphs" textLength="8" x="1930.5434" y="608.8641">1</text><!--link System to Assessment--><path d="M1006.02,170.016 C1039.86,178.572 1074.59,192.235 1102,214 C1149.95,252.074 1118.07,297.9 1166,336 C1205.92,367.728 1234.73,336.487 1277,365 C1332.56,402.479 1311.6,448.284 1367,486 C1400.54,508.836 1445.76,519.568 1479.39,524.598 " fill="none" id="System-Assessment" style="stroke: #A80036; stroke-width: 1.0;"/><polygon fill="#A80036" points="1484.69,525.357,1476.3538,520.1123,1479.7413,524.6427,1475.2109,528.0302,1484.69,525.357" style="stroke: #A80036; stroke-width: 1.0;"/><text fill="#000000" font-family="sans-serif" font-size="13" lengthAdjust="spacingAndGlyphs" textLength="79" x="1167" y="331.0669">Assessment</text><text fill="#000000" font-family="sans-serif" font-size="13" lengthAdjust="spacingAndGlyphs" textLength="24" x="1453.071" y="519.8321">0..1</text><!--link System to Position--><path d="M1006.13,157.324 C1152.81,160.812 1383.5,172.909 1459,214 C1510.94,242.272 1521.44,262.551 1542,318 C1550.01,339.601 1549.1,366.634 1547.34,383.616 " fill="none" id="System-Position" style="stroke: #A80036; stroke-width: 1.0;"/><polygon fill="#A80036" points="1546.72,388.967,1551.7267,380.4857,1547.294,384.0001,1543.7796,379.5673,1546.72,388.967" style="stroke: #A80036; stroke-width: 1.0;"/><text fill="#000000" font-family="sans-serif" font-size="13" lengthAdjust="spacingAndGlyphs" textLength="93" x="1531" y="280.0669">TradesPosition</text><text fill="#000000" font-family="sans-serif" font-size="13" lengthAdjust="spacingAndGlyphs" textLength="8" x="1536.4206" y="378.0039">1</text><!--link ClearingSystem to Clearing--><path d="M674.128,277.679 C576.156,279.67 365.207,287.48 300,318 C253.034,339.982 217,348.145 217,400 C217,400 217,400 217,633 C217,674.397 259.526,705.017 289.389,721.416 " fill="none" id="ClearingSystem-Clearing" style="stroke: #A80036; stroke-width: 1.0;"/><polygon fill="#A80036" points="294.064,723.926,288.0252,716.1457,289.6583,721.5617,284.2423,723.1949,294.064,723.926" style="stroke: #A80036; stroke-width: 1.0;"/><text fill="#000000" font-family="sans-serif" font-size="13" lengthAdjust="spacingAndGlyphs" textLength="52" x="218" y="534.0669">Clearing</text><text fill="#000000" font-family="sans-serif" font-size="13" lengthAdjust="spacingAndGlyphs" textLength="7" x="276.2032" y="712.9488">*</text><!--link ClearingSystem to CentralClearingCounterpartyRole--><path d="M715.605,288.051 C701.874,304.401 675.809,336.211 656,365 C628.088,405.564 636.198,427.738 599,460 C592.078,466.003 587.876,463.318 580,468 C503.235,513.633 423.817,585.554 391.283,616.285 " fill="none" id="ClearingSystem-CentralClearingCounterpartyRole" style="stroke: #A80036; stroke-width: 1.0;"/><polygon fill="#A80036" points="387.552,619.824,396.8348,616.533,391.1799,616.3833,391.3296,610.7284,387.552,619.824" style="stroke: #A80036; stroke-width: 1.0;"/><text fill="#000000" font-family="sans-serif" font-size="13" lengthAdjust="spacingAndGlyphs" textLength="182" x="581" y="481.0669">CentralClearingCounterparty</text><text fill="#000000" font-family="sans-serif" font-size="13" lengthAdjust="spacingAndGlyphs" textLength="24" x="361.9683" y="608.8117">0..1</text><!--link ClearingSystem to DefaultFund--><path d="M681.656,288.02 C655.942,295.204 623.004,305.55 595,318 C557.319,334.753 546.555,338.451 515,365 C511.297,368.115 422.326,473.867 388.706,513.873 " fill="none" id="ClearingSystem-DefaultFund" style="stroke: #A80036; stroke-width: 1.0;"/><polygon fill="#A80036" points="385.259,517.976,394.1113,513.659,388.4756,514.148,387.9866,508.5124,385.259,517.976" style="stroke: #A80036; stroke-width: 1.0;"/><text fill="#000000" font-family="sans-serif" font-size="13" lengthAdjust="spacingAndGlyphs" textLength="77" x="516" y="405.0669">DefaultFund</text><text fill="#000000" font-family="sans-serif" font-size="13" lengthAdjust="spacingAndGlyphs" textLength="7" x="378.8949" y="507.016">*</text><!--link ClearingSystem to CollateralManagement--><path d="M674.145,278.332 C569.482,281.601 337.761,291.751 314,318 C296.692,337.12 315.639,367.043 330.297,384.966 " fill="none" id="ClearingSystem-CollateralManagement" style="stroke: #A80036; stroke-width: 1.0;"/><polygon fill="#A80036" points="333.532,388.816,330.8065,379.3518,330.3162,384.9873,324.6806,384.497,333.532,388.816" style="stroke: #A80036; stroke-width: 1.0;"/><text fill="#000000" font-family="sans-serif" font-size="13" lengthAdjust="spacingAndGlyphs" textLength="145" x="315" y="331.0669">CollateralManagement</text><text fill="#000000" font-family="sans-serif" font-size="13" lengthAdjust="spacingAndGlyphs" textLength="8" x="319.3254" y="378.0585">1</text><!--link CashClearingSystem to TransactionAdministrator--><path d="M860.183,436.196 C865.03,446.121 869.52,457.202 872,468 C879.474,500.545 876.394,513.495 859,542 C838.845,575.03 802.179,601.882 777.953,617.158 " fill="none" id="CashClearingSystem-TransactionAdministrator" style="stroke: #A80036; stroke-width: 1.0;"/><polygon fill="#A80036" points="773.581,619.874,783.3367,618.5223,777.8281,617.2354,779.115,611.7269,773.581,619.874" style="stroke: #A80036; stroke-width: 1.0;"/><text fill="#000000" font-family="sans-serif" font-size="13" lengthAdjust="spacingAndGlyphs" textLength="161" x="877" y="534.0669">TransactionAdministrator</text><text fill="#000000" font-family="sans-serif" font-size="13" lengthAdjust="spacingAndGlyphs" textLength="7" x="770.7651" y="608.8789">*</text><!--link CashClearingSystem to SettlementInstructionSystemRole--><path d="M812.13,436.034 C791.433,461.308 764.183,494.584 748.528,513.702 " fill="none" id="CashClearingSystem-SettlementInstructionSystemRole" style="stroke: #A80036; stroke-width: 1.0;"/><polygon fill="#A80036" points="745.182,517.787,753.9783,513.357,748.3494,513.9182,747.7882,508.2892,745.182,517.787" style="stroke: #A80036; stroke-width: 1.0;"/><text fill="#000000" font-family="sans-serif" font-size="13" lengthAdjust="spacingAndGlyphs" textLength="76" x="786" y="481.0669">SystemRole</text><text fill="#000000" font-family="sans-serif" font-size="13" lengthAdjust="spacingAndGlyphs" textLength="24" x="718.7517" y="507.0199">0..1</text><!--link DateTimePeriod to Account--><path d="M2319.45,288.024 C2206.16,312.731 1934.43,371.992 1839.45,392.705 " fill="none" id="DateTimePeriod-Account" style="stroke: #A80036; stroke-width: 1.0;"/><polygon fill="#A80036" points="1834.53,393.779,1844.1725,395.7846,1839.4168,392.7213,1842.4802,387.9657,1834.53,393.779" style="stroke: #A80036; stroke-width: 1.0;"/><text fill="#000000" font-family="sans-serif" font-size="13" lengthAdjust="spacingAndGlyphs" textLength="52" x="2173" y="331.0669">Account</text><text fill="#000000" font-family="sans-serif" font-size="13" lengthAdjust="spacingAndGlyphs" textLength="24" x="1842.8378" y="386.6204">0..1</text><!--link DateTimePeriod to SystemAvailability--><path d="M2375.31,288.243 C2384.88,309.544 2404,357.462 2404,400 C2404,400 2404,400 2404,911 C2404,971.1508 1968.95,988.9705 1803.68,993.5699 " fill="none" id="DateTimePeriod-SystemAvailability" style="stroke: #A80036; stroke-width: 1.0;"/><polygon fill="#A80036" points="1798.39,993.7151,1807.4899,997.4823,1803.3883,993.5865,1807.2842,989.485,1798.39,993.7151" style="stroke: #A80036; stroke-width: 1.0;"/><text fill="#000000" font-family="sans-serif" font-size="13" lengthAdjust="spacingAndGlyphs" textLength="164" x="2405" y="689.0669">RelatedSystemAvailability</text><text fill="#000000" font-family="sans-serif" font-size="13" lengthAdjust="spacingAndGlyphs" textLength="8" x="1806.6057" y="988.3438">1</text><!--link Reconciliation to Trade--><path d="M1701.37,288.09 C1709.16,323.705 1734.98,434.35 1760,460 C1783.76,484.354 1798.87,478.238 1832,486 C1847.24,489.572 1890.32,483.572 1902,494 C1936.21,524.547 1932.29,585.307 1928.01,614.539 " fill="none" id="Reconciliation-Trade" style="stroke: #A80036; stroke-width: 1.0;"/><polygon fill="#A80036" points="1927.21,619.616,1932.556,611.3443,1927.9846,614.6764,1924.6526,610.105,1927.21,619.616" style="stroke: #A80036; stroke-width: 1.0;"/><text fill="#000000" font-family="sans-serif" font-size="13" lengthAdjust="spacingAndGlyphs" textLength="111" x="1833" y="481.0669">ReconciledTrades</text><text fill="#000000" font-family="sans-serif" font-size="13" lengthAdjust="spacingAndGlyphs" textLength="8" x="1917.1613" y="609.0523">1</text><!--link Reconciliation to Account--><path d="M1708.87,288.351 C1728.22,310.593 1771.13,359.913 1792.85,384.885 " fill="none" id="Reconciliation-Account" style="stroke: #A80036; stroke-width: 1.0;"/><polygon fill="#A80036" points="1796.15,388.676,1793.258,379.2613,1792.8672,384.9046,1787.2239,384.5138,1796.15,388.676" style="stroke: #A80036; stroke-width: 1.0;"/><text fill="#000000" font-family="sans-serif" font-size="13" lengthAdjust="spacingAndGlyphs" textLength="52" x="1751" y="331.0669">Account</text><text fill="#000000" font-family="sans-serif" font-size="13" lengthAdjust="spacingAndGlyphs" textLength="8" x="1782.1481" y="377.8721">1</text><!--link Negotiation to Trade--><path d="M1832.67,542.344 C1819.94,554.584 1804.18,574.414 1815,590 C1833.85,617.15 1872.97,626.355 1899.11,629.456 " fill="none" id="Negotiation-Trade" style="stroke: #A80036; stroke-width: 1.0;"/><polygon fill="#A80036" points="1904.15,629.998,1895.6374,625.0447,1899.1795,629.4552,1894.769,632.9974,1904.15,629.998" style="stroke: #A80036; stroke-width: 1.0;"/><text fill="#000000" font-family="sans-serif" font-size="13" lengthAdjust="spacingAndGlyphs" textLength="98" x="1816" y="585.0669">TradeExecution</text><text fill="#000000" font-family="sans-serif" font-size="13" lengthAdjust="spacingAndGlyphs" textLength="8" x="1888.3978" y="623.3948">1</text><!--link Account to Account--><path d="M1830.25,388.996 C1849.37,384.352 1869,388.354 1869,401 C1869,412.56 1852.6,416.896 1835.17,414.01 " fill="none" id="Account-Account" style="stroke: #A80036; stroke-width: 1.0;"/><polygon fill="#A80036" points="1830.25,413.004,1838.2681,418.7233,1835.149,414.0041,1839.8682,410.885,1830.25,413.004" style="stroke: #A80036; stroke-width: 1.0;"/><text fill="#000000" font-family="sans-serif" font-size="13" lengthAdjust="spacingAndGlyphs" textLength="94" x="1875" y="405.0669">ParentAccount</text><text fill="#000000" font-family="sans-serif" font-size="13" lengthAdjust="spacingAndGlyphs" textLength="8" x="1829.0875" y="433.1501">1</text></g></svg>