<?xml version="1.0" encoding="UTF-8" standalone="no"?><svg xmlns="http://www.w3.org/2000/svg" xmlns:xlink="http://www.w3.org/1999/xlink" contentScriptType="application/ecmascript" contentStyleType="text/css" height="872px" preserveAspectRatio="none" style="width:1003px;height:872px;" version="1.1" viewBox="0 0 1003 872" width="1003px" zoomAndPan="magnify"><defs><filter height="300%" id="fspfy22xqy980" width="300%" x="-1" y="-1"><feGaussianBlur result="blurOut" stdDeviation="2.0"/><feColorMatrix in="blurOut" result="blurOut2" type="matrix" values="0 0 0 0 0 0 0 0 0 0 0 0 0 0 0 0 0 0 .4 0"/><feOffset dx="4.0" dy="4.0" in="blurOut2" result="blurOut3"/><feBlend in="SourceGraphic" in2="blurOut3" mode="normal"/></filter></defs><g><!--cluster ##10032--><!--cluster ##10044--><!--cluster ##10053--><!--cluster ##10056--><!--cluster ##10067--><!--class Agreement--><a target="_top" xlink:actuate="onRequest" xlink:href="../Agreement.html" xlink:show="new" xlink:title="Contractual details related to an agreement between parties." xlink:type="simple"><rect fill="#FEFEEE" filter="url(#fspfy22xqy980)" height="70.3828" id="Agreement" style="stroke: #A80036; stroke-width: 1.5;" width="171" x="414.75" y="40"/><rect fill="#FEFEEE" height="23.9688" style="stroke: #A80036; stroke-width: 1.5;" width="171" x="414.75" y="40"/><text fill="#000000" font-family="sans-serif" font-size="12" lengthAdjust="spacingAndGlyphs" textLength="69" x="465.75" y="56.1387">Agreement</text><line style="stroke: #A80036; stroke-width: 1.5;" x1="415.75" x2="584.75" y1="63.9688" y2="63.9688"/><ellipse cx="425.75" cy="75.8711" fill="#84BE84" rx="3" ry="3" style="stroke: #038048; stroke-width: 1.0;"/><text fill="#000000" font-family="sans-serif" font-size="11" lengthAdjust="spacingAndGlyphs" textLength="65" x="434.75" y="78.1792">DateSigned</text><text fill="#000000" font-family="sans-serif" font-size="11" font-style="italic" lengthAdjust="spacingAndGlyphs" textLength="53" x="503.75" y="78.1792">(ISODate)</text><ellipse cx="425.75" cy="88.6758" fill="#84BE84" rx="3" ry="3" style="stroke: #038048; stroke-width: 1.0;"/><text fill="#000000" font-family="sans-serif" font-size="11" lengthAdjust="spacingAndGlyphs" textLength="64" x="434.75" y="90.9839">Description</text><text fill="#000000" font-family="sans-serif" font-size="11" font-style="italic" lengthAdjust="spacingAndGlyphs" textLength="77" x="502.75" y="90.9839">(Max350Text)</text><ellipse cx="425.75" cy="101.4805" fill="#84BE84" rx="3" ry="3" style="stroke: #038048; stroke-width: 1.0;"/><text fill="#000000" font-family="sans-serif" font-size="11" lengthAdjust="spacingAndGlyphs" textLength="43" x="434.75" y="103.7886">Version</text><text fill="#000000" font-family="sans-serif" font-size="11" font-style="italic" lengthAdjust="spacingAndGlyphs" textLength="70" x="481.75" y="103.7886">(Max35Text)</text></a><!--class Contract--><a target="_top" xlink:actuate="onRequest" xlink:href="../Contract.html" xlink:show="new" xlink:title="Document that contains the information of the contract agreed between both parties." xlink:type="simple"><rect fill="#FEFEEE" filter="url(#fspfy22xqy980)" height="23.9688" id="Contract" style="stroke: #A80036; stroke-width: 1.5;" width="60" x="301.5" y="190"/><rect fill="#FEFEEE" height="23.9688" style="stroke: #A80036; stroke-width: 1.5;" width="60" x="301.5" y="190"/><text fill="#000000" font-family="sans-serif" font-size="12" lengthAdjust="spacingAndGlyphs" textLength="54" x="304.5" y="206.1387">Contract</text></a><!--class Mandate--><a target="_top" xlink:actuate="onRequest" xlink:href="../Mandate.html" xlink:show="new" xlink:title="Authorisation given by an issuing party to a holder party to act on the issuer's behalf." xlink:type="simple"><rect fill="#FEFEEE" filter="url(#fspfy22xqy980)" height="83.1875" id="Mandate" style="stroke: #A80036; stroke-width: 1.5;" width="239" x="211.75" y="292.5"/><rect fill="#FEFEEE" height="23.9688" style="stroke: #A80036; stroke-width: 1.5;" width="239" x="211.75" y="292.5"/><text fill="#000000" font-family="sans-serif" font-size="12" lengthAdjust="spacingAndGlyphs" textLength="55" x="303.75" y="308.6387">Mandate</text><line style="stroke: #A80036; stroke-width: 1.5;" x1="212.75" x2="449.75" y1="316.4688" y2="316.4688"/><ellipse cx="222.75" cy="328.3711" fill="#84BE84" rx="3" ry="3" style="stroke: #038048; stroke-width: 1.0;"/><text fill="#000000" font-family="sans-serif" font-size="11" lengthAdjust="spacingAndGlyphs" textLength="120" x="231.75" y="330.6792">MandateIdentification</text><text fill="#000000" font-family="sans-serif" font-size="11" font-style="italic" lengthAdjust="spacingAndGlyphs" textLength="70" x="355.75" y="330.6792">(Max35Text)</text><ellipse cx="222.75" cy="341.1758" fill="#84BE84" rx="3" ry="3" style="stroke: #038048; stroke-width: 1.0;"/><text fill="#000000" font-family="sans-serif" font-size="11" lengthAdjust="spacingAndGlyphs" textLength="76" x="231.75" y="343.4839">TrackingDays</text><text fill="#000000" font-family="sans-serif" font-size="11" font-style="italic" lengthAdjust="spacingAndGlyphs" textLength="117" x="311.75" y="343.4839">(Max35NumericText)</text><ellipse cx="222.75" cy="353.9805" fill="#84BE84" rx="3" ry="3" style="stroke: #038048; stroke-width: 1.0;"/><text fill="#000000" font-family="sans-serif" font-size="11" lengthAdjust="spacingAndGlyphs" textLength="97" x="231.75" y="356.2886">TrackingIndicator</text><text fill="#000000" font-family="sans-serif" font-size="11" font-style="italic" lengthAdjust="spacingAndGlyphs" textLength="112" x="332.75" y="356.2886">(TrueFalseIndicator)</text><ellipse cx="222.75" cy="366.7852" fill="#84BE84" rx="3" ry="3" style="stroke: #038048; stroke-width: 1.0;"/><text fill="#000000" font-family="sans-serif" font-size="11" lengthAdjust="spacingAndGlyphs" textLength="25" x="231.75" y="369.0933">Rate</text><text fill="#000000" font-family="sans-serif" font-size="11" font-style="italic" lengthAdjust="spacingAndGlyphs" textLength="98" x="260.75" y="369.0933">(PercentageRate)</text></a><!--class CashAccountMandate--><a target="_top" xlink:actuate="onRequest" xlink:href="../CashAccountMandate.html" xlink:show="new" xlink:title="Authorisation given to a mandate holder to perform some operation on an account." xlink:type="simple"><rect fill="#FEFECE" filter="url(#fspfy22xqy980)" height="23.9688" id="CashAccountMandate" style="stroke: #A80036; stroke-width: 1.5;" width="143" x="212.75" y="456"/><rect fill="#FEFECE" height="23.9688" style="stroke: #A80036; stroke-width: 1.5;" width="143" x="212.75" y="456"/><text fill="#000000" font-family="sans-serif" font-size="12" lengthAdjust="spacingAndGlyphs" textLength="137" x="215.75" y="472.1387">CashAccountMandate</text></a><!--class DateTimePeriod--><a target="_top" xlink:actuate="onRequest" xlink:href="../DateTimePeriod.html" xlink:show="new" xlink:title="Time span defined by a start date and time, and an end date and time." xlink:type="simple"><rect fill="#EEEEEE" filter="url(#fspfy22xqy980)" height="23.9688" id="DateTimePeriod" style="stroke: #A80036; stroke-width: 1.5;" width="105" x="791.75" y="322"/><rect fill="#EEEEEE" height="23.9688" style="stroke: #A80036; stroke-width: 1.5;" width="105" x="791.75" y="322"/><text fill="#000000" font-family="sans-serif" font-size="12" lengthAdjust="spacingAndGlyphs" textLength="99" x="794.75" y="338.1387">DateTimePeriod</text></a><!--class Document--><a target="_top" xlink:actuate="onRequest" xlink:href="../Document.html" xlink:show="new" xlink:title="General information that unambiguously identifies a document, such as identification number and issue date time." xlink:type="simple"><rect fill="#EEEEEE" filter="url(#fspfy22xqy980)" height="23.9688" id="Document" style="stroke: #A80036; stroke-width: 1.5;" width="70" x="751" y="190"/><rect fill="#EEEEEE" height="23.9688" style="stroke: #A80036; stroke-width: 1.5;" width="70" x="751" y="190"/><text fill="#000000" font-family="sans-serif" font-size="12" lengthAdjust="spacingAndGlyphs" textLength="64" x="754" y="206.1387">Document</text></a><!--class CommercialTrade--><a target="_top" xlink:actuate="onRequest" xlink:href="../CommercialTrade.html" xlink:show="new" xlink:title="Commercial details of a trade transaction between a buyer and a seller." xlink:type="simple"><rect fill="#EEEEEE" filter="url(#fspfy22xqy980)" height="23.9688" id="CommercialTrade" style="stroke: #A80036; stroke-width: 1.5;" width="114" x="642" y="322"/><rect fill="#EEEEEE" height="23.9688" style="stroke: #A80036; stroke-width: 1.5;" width="114" x="642" y="322"/><text fill="#000000" font-family="sans-serif" font-size="12" lengthAdjust="spacingAndGlyphs" textLength="108" x="645" y="338.1387">CommercialTrade</text></a><!--class Jurisdiction--><a target="_top" xlink:actuate="onRequest" xlink:href="../Jurisdiction.html" xlink:show="new" xlink:title="Specifies the jurisdiction (country, county, state, province, city)." xlink:type="simple"><rect fill="#EEEEEE" filter="url(#fspfy22xqy980)" height="23.9688" id="Jurisdiction" style="stroke: #A80036; stroke-width: 1.5;" width="74" x="642" y="190"/><rect fill="#EEEEEE" height="23.9688" style="stroke: #A80036; stroke-width: 1.5;" width="74" x="642" y="190"/><text fill="#000000" font-family="sans-serif" font-size="12" lengthAdjust="spacingAndGlyphs" textLength="68" x="645" y="206.1387">Jurisdiction</text></a><!--class MasterAgreement--><a target="_top" xlink:actuate="onRequest" xlink:href="../MasterAgreement.html" xlink:show="new" xlink:title="Agreement which defines the framework of a contract between two trading parties in different domains such as collateral, derivatives, trade.." xlink:type="simple"><rect fill="#EEEEEE" filter="url(#fspfy22xqy980)" height="23.9688" id="MasterAgreement" style="stroke: #A80036; stroke-width: 1.5;" width="118" x="38" y="322"/><rect fill="#EEEEEE" height="23.9688" style="stroke: #A80036; stroke-width: 1.5;" width="118" x="38" y="322"/><text fill="#000000" font-family="sans-serif" font-size="12" lengthAdjust="spacingAndGlyphs" textLength="112" x="41" y="338.1387">MasterAgreement</text></a><!--class SignatureCondition--><a target="_top" xlink:actuate="onRequest" xlink:href="../SignatureCondition.html" xlink:show="new" xlink:title="Specifies the signature requirements for managing an account." xlink:type="simple"><rect fill="#EEEEEE" filter="url(#fspfy22xqy980)" height="23.9688" id="SignatureCondition" style="stroke: #A80036; stroke-width: 1.5;" width="126" x="642" y="838"/><rect fill="#EEEEEE" height="23.9688" style="stroke: #A80036; stroke-width: 1.5;" width="126" x="642" y="838"/><text fill="#000000" font-family="sans-serif" font-size="12" lengthAdjust="spacingAndGlyphs" textLength="120" x="645" y="854.1387">SignatureCondition</text></a><!--class MandatePartyRole--><a target="_top" xlink:actuate="onRequest" xlink:href="../MandatePartyRole.html" xlink:show="new" xlink:title="Role played by a party in the context of a mandate." xlink:type="simple"><rect fill="#EEEEEE" filter="url(#fspfy22xqy980)" height="23.9688" id="MandatePartyRole" style="stroke: #A80036; stroke-width: 1.5;" width="120" x="645.5" y="752"/><rect fill="#EEEEEE" height="23.9688" style="stroke: #A80036; stroke-width: 1.5;" width="120" x="645.5" y="752"/><text fill="#000000" font-family="sans-serif" font-size="12" lengthAdjust="spacingAndGlyphs" textLength="114" x="648.5" y="768.1387">MandatePartyRole</text></a><!--class MandateStatus--><a target="_top" xlink:actuate="onRequest" xlink:href="../MandateStatus.html" xlink:show="new" xlink:title="Specifies whether a mandate is accepted or rejected." xlink:type="simple"><rect fill="#EEEEEE" filter="url(#fspfy22xqy980)" height="23.9688" id="MandateStatus" style="stroke: #A80036; stroke-width: 1.5;" width="102" x="662.5" y="664"/><rect fill="#EEEEEE" height="23.9688" style="stroke: #A80036; stroke-width: 1.5;" width="102" x="662.5" y="664"/><text fill="#000000" font-family="sans-serif" font-size="12" lengthAdjust="spacingAndGlyphs" textLength="96" x="665.5" y="680.1387">MandateStatus</text></a><!--class AccountContract--><a target="_top" xlink:actuate="onRequest" xlink:href="../AccountContract.html" xlink:show="new" xlink:title="Agreement between an account servicer and an account owner about the services linked to an account." xlink:type="simple"><rect fill="#EEEEEE" filter="url(#fspfy22xqy980)" height="23.9688" id="AccountContract" style="stroke: #A80036; stroke-width: 1.5;" width="111" x="657.75" y="562"/><rect fill="#EEEEEE" height="23.9688" style="stroke: #A80036; stroke-width: 1.5;" width="111" x="657.75" y="562"/><text fill="#000000" font-family="sans-serif" font-size="12" lengthAdjust="spacingAndGlyphs" textLength="105" x="660.75" y="578.1387">AccountContract</text></a><!--class Authentication--><a target="_top" xlink:actuate="onRequest" xlink:href="../Authentication.html" xlink:show="new" xlink:title="Data related to the authentication of the cardholder." xlink:type="simple"><rect fill="#EEEEEE" filter="url(#fspfy22xqy980)" height="23.9688" id="Authentication" style="stroke: #A80036; stroke-width: 1.5;" width="98" x="642.5" y="456"/><rect fill="#EEEEEE" height="23.9688" style="stroke: #A80036; stroke-width: 1.5;" width="98" x="642.5" y="456"/><text fill="#000000" font-family="sans-serif" font-size="12" lengthAdjust="spacingAndGlyphs" textLength="92" x="645.5" y="472.1387">Authentication</text></a><!--class CashAccountService--><a target="_top" xlink:actuate="onRequest" xlink:href="../CashAccountService.html" xlink:show="new" xlink:title="Services linked to an account which are available to the account owner or to the holder of a mandate. The exercise of these services may be submitted to a limit." xlink:type="simple"><rect fill="#EEEEEE" filter="url(#fspfy22xqy980)" height="23.9688" id="CashAccountService" style="stroke: #A80036; stroke-width: 1.5;" width="133" x="208.75" y="562"/><rect fill="#EEEEEE" height="23.9688" style="stroke: #A80036; stroke-width: 1.5;" width="133" x="208.75" y="562"/><text fill="#000000" font-family="sans-serif" font-size="12" lengthAdjust="spacingAndGlyphs" textLength="127" x="211.75" y="578.1387">CashAccountService</text></a><!--class CashAccountContract--><a target="_top" xlink:actuate="onRequest" xlink:href="../CashAccountContract.html" xlink:show="new" xlink:title="Account contract established between the organisation or the group to which the organisation belongs, and the account servicer." xlink:type="simple"><rect fill="#EEEEEE" filter="url(#fspfy22xqy980)" height="23.9688" id="CashAccountContract" style="stroke: #A80036; stroke-width: 1.5;" width="142" x="158" y="664"/><rect fill="#EEEEEE" height="23.9688" style="stroke: #A80036; stroke-width: 1.5;" width="142" x="158" y="664"/><text fill="#000000" font-family="sans-serif" font-size="12" lengthAdjust="spacingAndGlyphs" textLength="136" x="161" y="680.1387">CashAccountContract</text></a><!--link Agreement to Contract--><path d="M437.597,122.156 C404.558,146.593 366.673,174.615 346.146,189.797 " fill="none" id="Agreement-Contract" style="stroke: #A80036; stroke-width: 1.0;"/><polygon fill="none" points="433.578,116.422,453.82,110.157,441.903,127.678,433.578,116.422" style="stroke: #A80036; stroke-width: 1.0;"/><!--link Contract to Mandate--><path d="M331,234.099 C331,251.592 331,273.635 331,292.469 " fill="none" id="Contract-Mandate" style="stroke: #A80036; stroke-width: 1.0;"/><polygon fill="none" points="324,234.084,331,214.084,338,234.084,324,234.084" style="stroke: #A80036; stroke-width: 1.0;"/><!--link Mandate to CashAccountMandate--><path d="M309.768,394.631 C301.523,417.788 292.902,442 288.016,455.722 " fill="none" id="Mandate-CashAccountMandate" style="stroke: #A80036; stroke-width: 1.0;"/><polygon fill="none" points="303.212,392.175,316.515,375.681,316.401,396.871,303.212,392.175" style="stroke: #A80036; stroke-width: 1.0;"/><!--link Document to DateTimePeriod--><!--link CommercialTrade to Document--><!--link Document to CommercialTrade--><path d="M750.831,209.377 C731.096,214.949 708.076,225.228 696,244 C681.856,265.987 687.706,297.76 693.308,316.797 " fill="none" id="Document-CommercialTrade" style="stroke: #A80036; stroke-width: 1.0;"/><polygon fill="#A80036" points="694.865,321.81,696.0155,312.0286,693.3819,317.035,688.3755,314.4015,694.865,321.81" style="stroke: #A80036; stroke-width: 1.0;"/><text fill="#000000" font-family="sans-serif" font-size="13" lengthAdjust="spacingAndGlyphs" textLength="113" x="697" y="257.0669">CommercialTrade</text><text fill="#000000" font-family="sans-serif" font-size="13" lengthAdjust="spacingAndGlyphs" textLength="7" x="684.0047" y="311.0505">*</text><!--link Jurisdiction to CommercialTrade--><!--link MandatePartyRole to SignatureCondition--><!--link MandateStatus to MandatePartyRole--><!--link AccountContract to MandateStatus--><!--link Authentication to AccountContract--><!--link CashAccountContract to CashAccountService--><!--link CashAccountService to CashAccountContract--><path d="M226.351,586.159 C210.761,592.283 195.174,601.673 186,616 C175.879,631.806 191.854,649.067 207.121,660.811 " fill="none" id="CashAccountService-CashAccountContract" style="stroke: #A80036; stroke-width: 1.0;"/><polygon fill="#A80036" points="211.386,663.972,206.5369,655.3996,207.3689,660.9949,201.7736,661.8269,211.386,663.972" style="stroke: #A80036; stroke-width: 1.0;"/><text fill="#000000" font-family="sans-serif" font-size="13" lengthAdjust="spacingAndGlyphs" textLength="139" x="187" y="629.0669">CashAccountContract</text><text fill="#000000" font-family="sans-serif" font-size="13" lengthAdjust="spacingAndGlyphs" textLength="8" x="194.6124" y="653.0106">1</text><!--link Agreement to DateTimePeriod--><path d="M585.535,85.21 C677.297,97.258 813.369,122.176 839,166 C867.378,214.521 855.658,285.279 848.285,316.803 " fill="none" id="Agreement-DateTimePeriod" style="stroke: #A80036; stroke-width: 1.0;"/><polygon fill="#A80036" points="847.058,321.868,853.0647,314.0629,848.2353,317.0086,845.2897,312.1792,847.058,321.868" style="stroke: #A80036; stroke-width: 1.0;"/><text fill="#000000" font-family="sans-serif" font-size="13" lengthAdjust="spacingAndGlyphs" textLength="86" x="855" y="206.0669">ValidityPeriod</text><text fill="#000000" font-family="sans-serif" font-size="13" lengthAdjust="spacingAndGlyphs" textLength="7" x="838.4764" y="310.8708">*</text><!--link Agreement to Document--><path d="M585.66,100.854 C618.561,111.469 656.096,124.905 689,140 C709.646,149.471 713.739,153.96 733,166 C743.703,172.69 755.431,180.396 765.128,186.87 " fill="none" id="Agreement-Document" style="stroke: #A80036; stroke-width: 1.0;"/><polygon fill="#A80036" points="769.429,189.75,764.1758,181.4191,765.2743,186.9683,759.7251,188.0667,769.429,189.75" style="stroke: #A80036; stroke-width: 1.0;"/><text fill="#000000" font-family="sans-serif" font-size="13" lengthAdjust="spacingAndGlyphs" textLength="67" x="722" y="153.0669">Document</text><text fill="#000000" font-family="sans-serif" font-size="13" lengthAdjust="spacingAndGlyphs" textLength="8" x="753.2836" y="178.9706">1</text><!--link Agreement to CommercialTrade--><path d="M518.375,110.209 C534.442,138.966 559.189,180.605 585,214 C616.425,254.658 659.87,296.841 683,318.396 " fill="none" id="Agreement-CommercialTrade" style="stroke: #A80036; stroke-width: 1.0;"/><polygon fill="#A80036" points="686.804,321.926,682.9274,312.8722,683.1388,318.5251,677.4859,318.7365,686.804,321.926" style="stroke: #A80036; stroke-width: 1.0;"/><text fill="#000000" font-family="sans-serif" font-size="13" lengthAdjust="spacingAndGlyphs" textLength="36" x="586" y="206.0669">Trade</text><text fill="#000000" font-family="sans-serif" font-size="13" lengthAdjust="spacingAndGlyphs" textLength="8" x="671.8929" y="310.9488">1</text><!--link Agreement to Jurisdiction--><path d="M546.575,110.127 C567.116,125.016 591.626,142.561 614,158 C628.283,167.855 644.568,178.628 657.265,186.926 " fill="none" id="Agreement-Jurisdiction" style="stroke: #A80036; stroke-width: 1.0;"/><polygon fill="#A80036" points="661.771,189.864,656.4185,181.5965,657.5833,187.1322,652.0476,188.2969,661.771,189.864" style="stroke: #A80036; stroke-width: 1.0;"/><text fill="#000000" font-family="sans-serif" font-size="13" lengthAdjust="spacingAndGlyphs" textLength="68" x="615" y="153.0669">Jurisdiction</text><text fill="#000000" font-family="sans-serif" font-size="13" lengthAdjust="spacingAndGlyphs" textLength="24" x="626.3798" y="178.8655">0..1</text><!--link Contract to MasterAgreement--><path d="M301.47,209.148 C274.869,215.456 235.26,226.799 204,244 C166.888,264.422 130.426,298.612 111.128,318.135 " fill="none" id="Contract-MasterAgreement" style="stroke: #A80036; stroke-width: 1.0;"/><polygon fill="#A80036" points="107.502,321.836,116.6575,318.2059,111.0009,318.2642,110.9426,312.6077,107.502,321.836" style="stroke: #A80036; stroke-width: 1.0;"/><text fill="#000000" font-family="sans-serif" font-size="13" lengthAdjust="spacingAndGlyphs" textLength="116" x="205" y="257.0669">MasterAgreement</text><text fill="#000000" font-family="sans-serif" font-size="13" lengthAdjust="spacingAndGlyphs" textLength="7" x="101.5651" y="310.8278">*</text><!--link Mandate to SignatureCondition--><path d="M370.229,375.733 C389.652,400.186 409,433.061 409,467 C409,467 409,467 409,765 C409,812.0718 549.287,834.143 636.704,843.3269 " fill="none" id="Mandate-SignatureCondition" style="stroke: #A80036; stroke-width: 1.0;"/><polygon fill="#A80036" points="641.864,843.8605,633.3232,838.956,636.8905,843.3462,632.5003,846.9136,641.864,843.8605" style="stroke: #A80036; stroke-width: 1.0;"/><text fill="#000000" font-family="sans-serif" font-size="13" lengthAdjust="spacingAndGlyphs" textLength="129" x="410" y="629.0669">SignatureConditions</text><text fill="#000000" font-family="sans-serif" font-size="13" lengthAdjust="spacingAndGlyphs" textLength="7" x="626.889" y="838.4262">*</text><!--link Mandate to Mandate--><path d="M450.455,319.997 C470.862,321.91 485,326.578 485,334 C485,340.784 473.187,345.267 455.572,347.449 " fill="none" id="Mandate-Mandate" style="stroke: #A80036; stroke-width: 1.0;"/><polygon fill="#A80036" points="450.455,348.003,459.8336,351.0101,455.4259,347.4643,458.9717,343.0567,450.455,348.003" style="stroke: #A80036; stroke-width: 1.0;"/><text fill="#000000" font-family="sans-serif" font-size="13" lengthAdjust="spacingAndGlyphs" textLength="104" x="491" y="338.0669">OriginalMandate</text><text fill="#000000" font-family="sans-serif" font-size="13" lengthAdjust="spacingAndGlyphs" textLength="8" x="458.7328" y="344.4378">1</text><!--link Mandate to MandatePartyRole--><path d="M401.499,375.573 C413.625,384.566 425.395,394.797 435,406 C492.709,473.31 470.243,513.305 521,586 C565.802,650.166 586.574,658.834 644,712 C657.833,724.807 674.266,738.463 686.589,748.418 " fill="none" id="Mandate-MandatePartyRole" style="stroke: #A80036; stroke-width: 1.0;"/><polygon fill="#A80036" points="690.601,751.645,686.0962,742.8868,686.7053,748.5107,681.0813,749.1199,690.601,751.645" style="stroke: #A80036; stroke-width: 1.0;"/><text fill="#000000" font-family="sans-serif" font-size="13" lengthAdjust="spacingAndGlyphs" textLength="116" x="522" y="578.0669">MandatePartyRole</text><text fill="#000000" font-family="sans-serif" font-size="13" lengthAdjust="spacingAndGlyphs" textLength="7" x="676.1751" y="740.8308">*</text><!--link Mandate to MandateStatus--><path d="M450.554,351.965 C608.974,375.021 870.221,415.291 884,432 C952.131,514.621 797.322,623.035 736.339,661.082 " fill="none" id="Mandate-MandateStatus" style="stroke: #A80036; stroke-width: 1.0;"/><polygon fill="#A80036" points="731.77,663.911,741.5279,662.5755,736.0215,661.2795,737.3175,655.7731,731.77,663.911" style="stroke: #A80036; stroke-width: 1.0;"/><text fill="#000000" font-family="sans-serif" font-size="13" lengthAdjust="spacingAndGlyphs" textLength="98" x="893" y="525.0669">MandateStatus</text><text fill="#000000" font-family="sans-serif" font-size="13" lengthAdjust="spacingAndGlyphs" textLength="7" x="728.5034" y="652.9286">*</text><!--link Mandate to AccountContract--><path d="M450.423,353.909 C569.837,374.108 738.281,406.642 756,432 C783.828,471.826 746.736,530.125 725.706,557.597 " fill="none" id="Mandate-AccountContract" style="stroke: #A80036; stroke-width: 1.0;"/><polygon fill="#A80036" points="722.481,561.734,731.1695,557.096,725.5554,557.7909,724.8606,552.1769,722.481,561.734" style="stroke: #A80036; stroke-width: 1.0;"/><text fill="#000000" font-family="sans-serif" font-size="13" lengthAdjust="spacingAndGlyphs" textLength="107" x="767" y="472.0669">AccountContract</text><text fill="#000000" font-family="sans-serif" font-size="13" lengthAdjust="spacingAndGlyphs" textLength="24" x="696.2325" y="550.9493">0..1</text><!--link Mandate to Authentication--><path d="M446.672,375.515 C494.829,392.613 551.241,412.94 602,432 C620.735,439.035 641.557,447.204 658.348,453.88 " fill="none" id="Mandate-Authentication" style="stroke: #A80036; stroke-width: 1.0;"/><polygon fill="#A80036" points="663.423,455.901,656.5414,448.8552,658.7778,454.0512,653.5817,456.2875,663.423,455.901" style="stroke: #A80036; stroke-width: 1.0;"/><text fill="#000000" font-family="sans-serif" font-size="13" lengthAdjust="spacingAndGlyphs" textLength="93" x="582" y="419.0669">Authentication</text><text fill="#000000" font-family="sans-serif" font-size="13" lengthAdjust="spacingAndGlyphs" textLength="8" x="643.0528" y="444.9152">1</text><!--link CashAccountMandate to CashAccountService--><path d="M283.037,480.13 C281.44,498.583 278.238,535.586 276.394,556.892 " fill="none" id="CashAccountMandate-CashAccountService" style="stroke: #A80036; stroke-width: 1.0;"/><polygon fill="#A80036" points="275.956,561.95,280.7176,553.3287,276.3874,556.9686,272.7475,552.6384,275.956,561.95" style="stroke: #A80036; stroke-width: 1.0;"/><text fill="#000000" font-family="sans-serif" font-size="13" lengthAdjust="spacingAndGlyphs" textLength="54" x="282" y="525.0669">Services</text><text fill="#000000" font-family="sans-serif" font-size="13" lengthAdjust="spacingAndGlyphs" textLength="7" x="266.6518" y="550.981">*</text><!--link CashAccountMandate to CashAccountContract--><path d="M214.427,480.042 C152.591,491.444 68.9715,511.321 49,538 C5.6485,595.91 117.875,641.413 184.236,662.381 " fill="none" id="CashAccountMandate-CashAccountContract" style="stroke: #A80036; stroke-width: 1.0;"/><polygon fill="#A80036" points="189.325,663.97,181.9259,657.4697,184.5522,662.48,179.5419,665.1063,189.325,663.97" style="stroke: #A80036; stroke-width: 1.0;"/><text fill="#000000" font-family="sans-serif" font-size="13" lengthAdjust="spacingAndGlyphs" textLength="139" x="50" y="578.0669">CashAccountContract</text><text fill="#000000" font-family="sans-serif" font-size="13" lengthAdjust="spacingAndGlyphs" textLength="7" x="166.1398" y="653.0079">*</text></g></svg>