<?xml version="1.0" encoding="UTF-8" standalone="no"?><svg xmlns="http://www.w3.org/2000/svg" xmlns:xlink="http://www.w3.org/1999/xlink" contentScriptType="application/ecmascript" contentStyleType="text/css" height="760px" preserveAspectRatio="none" style="width:1809px;height:760px;" version="1.1" viewBox="0 0 1809 760" width="1809px" zoomAndPan="magnify"><defs><filter height="300%" id="funo526wrfe5t" width="300%" x="-1" y="-1"><feGaussianBlur result="blurOut" stdDeviation="2.0"/><feColorMatrix in="blurOut" result="blurOut2" type="matrix" values="0 0 0 0 0 0 0 0 0 0 0 0 0 0 0 0 0 0 .4 0"/><feOffset dx="4.0" dy="4.0" in="blurOut2" result="blurOut3"/><feBlend in="SourceGraphic" in2="blurOut3" mode="normal"/></filter></defs><g><!--cluster ##6753--><!--cluster ##6762--><!--cluster ##6771--><!--cluster ##6780--><!--class AccountService--><a target="_top" xlink:actuate="onRequest" xlink:href="../AccountService.html" xlink:show="new" xlink:title="Services linked to an account which are available to the account owner or to the holder of a mandate." xlink:type="simple"><rect fill="#FEFEEE" filter="url(#funo526wrfe5t)" height="23.9688" id="AccountService" style="stroke: #A80036; stroke-width: 1.5;" width="102" x="578.5" y="40"/><rect fill="#FEFEEE" height="23.9688" style="stroke: #A80036; stroke-width: 1.5;" width="102" x="578.5" y="40"/><text fill="#000000" font-family="sans-serif" font-size="12" lengthAdjust="spacingAndGlyphs" textLength="96" x="581.5" y="56.1387">AccountService</text></a><!--class CashAccountService--><a target="_top" xlink:actuate="onRequest" xlink:href="../CashAccountService.html" xlink:show="new" xlink:title="Services linked to an account which are available to the account owner or to the holder of a mandate. The exercise of these services may be submitted to a limit." xlink:type="simple"><rect fill="#FEFEEE" filter="url(#funo526wrfe5t)" height="83.1875" id="CashAccountService" style="stroke: #A80036; stroke-width: 1.5;" width="312" x="368" y="142.5"/><rect fill="#FEFEEE" height="23.9688" style="stroke: #A80036; stroke-width: 1.5;" width="312" x="368" y="142.5"/><text fill="#000000" font-family="sans-serif" font-size="12" lengthAdjust="spacingAndGlyphs" textLength="127" x="460.5" y="158.6387">CashAccountService</text><line style="stroke: #A80036; stroke-width: 1.5;" x1="369" x2="679" y1="166.4688" y2="166.4688"/><ellipse cx="379" cy="178.3711" fill="#84BE84" rx="3" ry="3" style="stroke: #038048; stroke-width: 1.0;"/><text fill="#000000" font-family="sans-serif" font-size="11" lengthAdjust="spacingAndGlyphs" textLength="123" x="388" y="180.6792">CompensationMethod</text><text fill="#000000" font-family="sans-serif" font-size="11" font-style="italic" lengthAdjust="spacingAndGlyphs" textLength="159" x="515" y="180.6792">(CompensationMethodCode)</text><ellipse cx="379" cy="191.1758" fill="#84BE84" rx="3" ry="3" style="stroke: #038048; stroke-width: 1.0;"/><text fill="#000000" font-family="sans-serif" font-size="11" lengthAdjust="spacingAndGlyphs" textLength="85" x="388" y="193.4839">BillingCurrency</text><text fill="#000000" font-family="sans-serif" font-size="11" font-style="italic" lengthAdjust="spacingAndGlyphs" textLength="151" x="477" y="193.4839">(BillingCurrencyTypeCode)</text><ellipse cx="379" cy="203.9805" fill="#84BE84" rx="3" ry="3" style="stroke: #038048; stroke-width: 1.0;"/><text fill="#000000" font-family="sans-serif" font-size="11" lengthAdjust="spacingAndGlyphs" textLength="116" x="388" y="206.2886">BillingChargeMethod</text><text fill="#000000" font-family="sans-serif" font-size="11" font-style="italic" lengthAdjust="spacingAndGlyphs" textLength="153" x="508" y="206.2886">(BillingChargeMethodCode)</text><ellipse cx="379" cy="216.7852" fill="#84BE84" rx="3" ry="3" style="stroke: #038048; stroke-width: 1.0;"/><text fill="#000000" font-family="sans-serif" font-size="11" lengthAdjust="spacingAndGlyphs" textLength="90" x="388" y="219.0933">PaymentMethod</text><text fill="#000000" font-family="sans-serif" font-size="11" font-style="italic" lengthAdjust="spacingAndGlyphs" textLength="170" x="482" y="219.0933">(ServicePaymentMethodCode)</text></a><!--class CashManagementService--><a target="_top" xlink:actuate="onRequest" xlink:href="../CashManagementService.html" xlink:show="new" xlink:title="Set of applications that provides services which facilitate the management of cash positions on an account." xlink:type="simple"><rect fill="#FEFECE" filter="url(#funo526wrfe5t)" height="44.7734" id="CashManagementService" style="stroke: #A80036; stroke-width: 1.5;" width="164" x="368" y="304.5"/><rect fill="#FEFECE" height="23.9688" style="stroke: #A80036; stroke-width: 1.5;" width="164" x="368" y="304.5"/><text fill="#000000" font-family="sans-serif" font-size="12" lengthAdjust="spacingAndGlyphs" textLength="158" x="371" y="320.6387">CashManagementService</text><line style="stroke: #A80036; stroke-width: 1.5;" x1="369" x2="531" y1="328.4688" y2="328.4688"/><ellipse cx="379" cy="340.3711" fill="#84BE84" rx="3" ry="3" style="stroke: #038048; stroke-width: 1.0;"/><text fill="#000000" font-family="sans-serif" font-size="11" lengthAdjust="spacingAndGlyphs" textLength="58" x="388" y="342.6792">CallInType</text><text fill="#000000" font-family="sans-serif" font-size="11" font-style="italic" lengthAdjust="spacingAndGlyphs" textLength="68" x="450" y="342.6792">(CallInCode)</text></a><!--class AccountContract--><a target="_top" xlink:actuate="onRequest" xlink:href="../AccountContract.html" xlink:show="new" xlink:title="Agreement between an account servicer and an account owner about the services linked to an account." xlink:type="simple"><rect fill="#EEEEEE" filter="url(#funo526wrfe5t)" height="23.9688" id="AccountContract" style="stroke: #A80036; stroke-width: 1.5;" width="111" x="1502.75" y="172"/><rect fill="#EEEEEE" height="23.9688" style="stroke: #A80036; stroke-width: 1.5;" width="111" x="1502.75" y="172"/><text fill="#000000" font-family="sans-serif" font-size="12" lengthAdjust="spacingAndGlyphs" textLength="105" x="1505.75" y="188.1387">AccountContract</text></a><!--class Reservation--><a target="_top" xlink:actuate="onRequest" xlink:href="../Reservation.html" xlink:show="new" xlink:title="Liquidity set aside by the payer for specific purposes." xlink:type="simple"><rect fill="#EEEEEE" filter="url(#funo526wrfe5t)" height="23.9688" id="Reservation" style="stroke: #A80036; stroke-width: 1.5;" width="80" x="1550" y="432"/><rect fill="#EEEEEE" height="23.9688" style="stroke: #A80036; stroke-width: 1.5;" width="80" x="1550" y="432"/><text fill="#000000" font-family="sans-serif" font-size="12" lengthAdjust="spacingAndGlyphs" textLength="74" x="1553" y="448.1387">Reservation</text></a><!--class Account--><a target="_top" xlink:actuate="onRequest" xlink:href="../Account.html" xlink:show="new" xlink:title="Record of transactions in specific types of assets, maintained by a servicing party on behalf of one or more owning parties. Business relationship between an account servicer and one or more account owners." xlink:type="simple"><rect fill="#EEEEEE" filter="url(#funo526wrfe5t)" height="23.9688" id="Account" style="stroke: #A80036; stroke-width: 1.5;" width="57" x="1410.75" y="315"/><rect fill="#EEEEEE" height="23.9688" style="stroke: #A80036; stroke-width: 1.5;" width="57" x="1410.75" y="315"/><text fill="#000000" font-family="sans-serif" font-size="12" lengthAdjust="spacingAndGlyphs" textLength="51" x="1413.75" y="331.1387">Account</text></a><!--class Charges--><a target="_top" xlink:actuate="onRequest" xlink:href="../Charges.html" xlink:show="new" xlink:title="Amount of money associated with a service." xlink:type="simple"><rect fill="#EEEEEE" filter="url(#funo526wrfe5t)" height="23.9688" id="Charges" style="stroke: #A80036; stroke-width: 1.5;" width="58" x="1410.5" y="172"/><rect fill="#EEEEEE" height="23.9688" style="stroke: #A80036; stroke-width: 1.5;" width="58" x="1410.5" y="172"/><text fill="#000000" font-family="sans-serif" font-size="12" lengthAdjust="spacingAndGlyphs" textLength="52" x="1413.5" y="188.1387">Charges</text></a><!--class CashAccountMandate--><a target="_top" xlink:actuate="onRequest" xlink:href="../CashAccountMandate.html" xlink:show="new" xlink:title="Authorisation given to a mandate holder to perform some operation on an account." xlink:type="simple"><rect fill="#EEEEEE" filter="url(#funo526wrfe5t)" height="23.9688" id="CashAccountMandate" style="stroke: #A80036; stroke-width: 1.5;" width="143" x="736.75" y="315"/><rect fill="#EEEEEE" height="23.9688" style="stroke: #A80036; stroke-width: 1.5;" width="143" x="736.75" y="315"/><text fill="#000000" font-family="sans-serif" font-size="12" lengthAdjust="spacingAndGlyphs" textLength="137" x="739.75" y="331.1387">CashAccountMandate</text></a><!--class CashAccountContract--><a target="_top" xlink:actuate="onRequest" xlink:href="../CashAccountContract.html" xlink:show="new" xlink:title="Account contract established between the organisation or the group to which the organisation belongs, and the account servicer." xlink:type="simple"><rect fill="#EEEEEE" filter="url(#funo526wrfe5t)" height="23.9688" id="CashAccountContract" style="stroke: #A80036; stroke-width: 1.5;" width="142" x="839" y="432"/><rect fill="#EEEEEE" height="23.9688" style="stroke: #A80036; stroke-width: 1.5;" width="142" x="839" y="432"/><text fill="#000000" font-family="sans-serif" font-size="12" lengthAdjust="spacingAndGlyphs" textLength="136" x="842" y="448.1387">CashAccountContract</text></a><!--class GenericIdentification--><a target="_top" xlink:actuate="onRequest" xlink:href="../GenericIdentification.html" xlink:show="new" xlink:title="Information related to a non-standardised identification, such as a proprietary party identification or account identification." xlink:type="simple"><rect fill="#EEEEEE" filter="url(#funo526wrfe5t)" height="23.9688" id="GenericIdentification" style="stroke: #A80036; stroke-width: 1.5;" width="135" x="908.75" y="638"/><rect fill="#EEEEEE" height="23.9688" style="stroke: #A80036; stroke-width: 1.5;" width="135" x="908.75" y="638"/><text fill="#000000" font-family="sans-serif" font-size="12" lengthAdjust="spacingAndGlyphs" textLength="129" x="911.75" y="654.1387">GenericIdentification</text></a><!--class CashAccount--><a target="_top" xlink:actuate="onRequest" xlink:href="../CashAccount.html" xlink:show="new" xlink:title="Account to or from which a cash entry is made." xlink:type="simple"><rect fill="#EEEEEE" filter="url(#funo526wrfe5t)" height="23.9688" id="CashAccount" style="stroke: #A80036; stroke-width: 1.5;" width="88" x="887.5" y="536"/><rect fill="#EEEEEE" height="23.9688" style="stroke: #A80036; stroke-width: 1.5;" width="88" x="887.5" y="536"/><text fill="#000000" font-family="sans-serif" font-size="12" lengthAdjust="spacingAndGlyphs" textLength="82" x="890.5" y="552.1387">CashAccount</text></a><!--class RiskManagementLimit--><a target="_top" xlink:actuate="onRequest" xlink:href="../RiskManagementLimit.html" xlink:show="new" xlink:title="Cash management feature limiting the maximum risk that a party accepts to take with respect to a counterparty or a set of counterparties. A risk management limit is either bilateral, for a counterparty, or multilateral, for a set of counterparties or all other members in a system.The limit may also apply to sponsored or indirect members. In principle, a risk management limit is calculated on the net position between two members and is expressed as a credit or debit limit, from the point of view of the party setting the limit." xlink:type="simple"><rect fill="#EEEEEE" filter="url(#funo526wrfe5t)" height="23.9688" id="RiskManagementLimit" style="stroke: #A80036; stroke-width: 1.5;" width="141" x="257.75" y="726"/><rect fill="#EEEEEE" height="23.9688" style="stroke: #A80036; stroke-width: 1.5;" width="141" x="257.75" y="726"/><text fill="#000000" font-family="sans-serif" font-size="12" lengthAdjust="spacingAndGlyphs" textLength="135" x="260.75" y="742.1387">RiskManagementLimit</text></a><!--class CashStandingOrder--><a target="_top" xlink:actuate="onRequest" xlink:href="../CashStandingOrder.html" xlink:show="new" xlink:title="Instruction given by a party that has explicit authority to instruct a debit on the account, ie, either the debit account owner or originating party, to a first agent, to process cash transfers at specified intervals during an implicit or explicit period of time. A standing order is given once and is valid for an open or closed period of time." xlink:type="simple"><rect fill="#EEEEEE" filter="url(#funo526wrfe5t)" height="23.9688" id="CashStandingOrder" style="stroke: #A80036; stroke-width: 1.5;" width="128" x="268" y="638"/><rect fill="#EEEEEE" height="23.9688" style="stroke: #A80036; stroke-width: 1.5;" width="128" x="268" y="638"/><text fill="#000000" font-family="sans-serif" font-size="12" lengthAdjust="spacingAndGlyphs" textLength="122" x="271" y="654.1387">CashStandingOrder</text></a><!--class TransactionAdministrator--><a target="_top" xlink:actuate="onRequest" xlink:href="../TransactionAdministrator.html" xlink:show="new" xlink:title="Set of integrated applications that provides centralised services such as clearing and settlement." xlink:type="simple"><rect fill="#EEEEEE" filter="url(#funo526wrfe5t)" height="23.9688" id="TransactionAdministrator" style="stroke: #A80036; stroke-width: 1.5;" width="164" x="257" y="536"/><rect fill="#EEEEEE" height="23.9688" style="stroke: #A80036; stroke-width: 1.5;" width="164" x="257" y="536"/><text fill="#000000" font-family="sans-serif" font-size="12" lengthAdjust="spacingAndGlyphs" textLength="158" x="260" y="552.1387">TransactionAdministrator</text></a><!--class LiquidityManagementLimit--><a target="_top" xlink:actuate="onRequest" xlink:href="../LiquidityManagementLimit.html" xlink:show="new" xlink:title="Cash management feature limiting the amount of liquidity needed to perform clearing and settlement operations. At any point in time during the process, the limit imposes the maximum amount of liquidity available for operations concerning the system or other managed elements, for example, transaction amount or counterparty." xlink:type="simple"><rect fill="#EEEEEE" filter="url(#funo526wrfe5t)" height="23.9688" id="LiquidityManagementLimit" style="stroke: #A80036; stroke-width: 1.5;" width="166" x="256" y="432"/><rect fill="#EEEEEE" height="23.9688" style="stroke: #A80036; stroke-width: 1.5;" width="166" x="256" y="432"/><text fill="#000000" font-family="sans-serif" font-size="12" lengthAdjust="spacingAndGlyphs" textLength="160" x="259" y="448.1387">LiquidityManagementLimit</text></a><!--link AccountService to CashAccountService--><path d="M607.391,79.754 C592.789,97.833 573.238,122.039 556.737,142.469 " fill="none" id="AccountService-CashAccountService" style="stroke: #A80036; stroke-width: 1.0;"/><polygon fill="none" points="602.035,75.244,620.048,64.084,612.927,84.041,602.035,75.244" style="stroke: #A80036; stroke-width: 1.0;"/><!--link CashAccountService to CashManagementService--><path d="M493.186,243.714 C481.888,265.241 469.798,288.278 461.292,304.484 " fill="none" id="CashAccountService-CashManagementService" style="stroke: #A80036; stroke-width: 1.0;"/><polygon fill="none" points="487.104,240.239,502.596,225.783,499.5,246.745,487.104,240.239" style="stroke: #A80036; stroke-width: 1.0;"/><!--link Reservation to AccountContract--><!--link Account to Reservation--><!--link Charges to Account--><!--link CashAccountContract to CashAccountMandate--><!--link CashAccountMandate to CashAccountContract--><path d="M793.478,339.247 C776.374,353.87 752.066,379.914 767,400 C782.662,421.064 808.304,432.192 833.582,437.949 " fill="none" id="CashAccountMandate-CashAccountContract" style="stroke: #A80036; stroke-width: 1.0;"/><polygon fill="#A80036" points="838.629,439.031,830.6661,433.2351,833.7398,437.984,828.9909,441.0578,838.629,439.031" style="stroke: #A80036; stroke-width: 1.0;"/><text fill="#000000" font-family="sans-serif" font-size="13" lengthAdjust="spacingAndGlyphs" textLength="139" x="768" y="395.0669">CashAccountContract</text><text fill="#000000" font-family="sans-serif" font-size="13" lengthAdjust="spacingAndGlyphs" textLength="7" x="824.1088" y="433.9475">*</text><!--link GenericIdentification to CashAccountContract--><!--link CashAccount to GenericIdentification--><!--link CashStandingOrder to RiskManagementLimit--><!--link TransactionAdministrator to CashStandingOrder--><!--link LiquidityManagementLimit to TransactionAdministrator--><!--link AccountService to AccountContract--><path d="M679.682,55.31 C839.829,63.072 1333.29,90.655 1484,142 C1503.28,148.567 1523.38,160.048 1537.76,169.194 " fill="none" id="AccountService-AccountContract" style="stroke: #A80036; stroke-width: 1.0;"/><polygon fill="#A80036" points="1542.03,171.949,1536.6409,163.7053,1537.8302,169.2358,1532.2998,170.425,1542.03,171.949" style="stroke: #A80036; stroke-width: 1.0;"/><text fill="#000000" font-family="sans-serif" font-size="13" lengthAdjust="spacingAndGlyphs" textLength="107" x="1327" y="107.0669">AccountContract</text><text fill="#000000" font-family="sans-serif" font-size="13" lengthAdjust="spacingAndGlyphs" textLength="7" x="1526.9075" y="160.9797">*</text><!--link AccountService to Reservation--><path d="M679.504,52.868 C884.521,52.893 1646.64,58.622 1709,142 C1780.53,237.632 1651.28,381.928 1605.32,428.18 " fill="none" id="AccountService-Reservation" style="stroke: #A80036; stroke-width: 1.0;"/><polygon fill="#A80036" points="1601.65,431.845,1610.8481,428.3243,1605.1912,428.3152,1605.2004,422.6583,1601.65,431.845" style="stroke: #A80036; stroke-width: 1.0;"/><text fill="#000000" font-family="sans-serif" font-size="13" lengthAdjust="spacingAndGlyphs" textLength="75" x="1722" y="269.0669">Reservation</text><text fill="#000000" font-family="sans-serif" font-size="13" lengthAdjust="spacingAndGlyphs" textLength="8" x="1594.9359" y="420.8399">1</text><!--link AccountService to Account--><path d="M679.712,53.285 C875.232,54.938 1572.16,66.148 1631,142 C1653.88,171.498 1648.72,193.14 1631,226 C1599.22,284.927 1518.7,310.266 1472.66,320.228 " fill="none" id="AccountService-Account" style="stroke: #A80036; stroke-width: 1.0;"/><polygon fill="#A80036" points="1467.5,321.313,1477.1304,323.3759,1472.3931,320.2844,1475.4846,315.5471,1467.5,321.313" style="stroke: #A80036; stroke-width: 1.0;"/><text fill="#000000" font-family="sans-serif" font-size="13" lengthAdjust="spacingAndGlyphs" textLength="52" x="1647" y="188.0669">Account</text><text fill="#000000" font-family="sans-serif" font-size="13" lengthAdjust="spacingAndGlyphs" textLength="8" x="1475.7641" y="313.7655">1</text><!--link AccountService to Charges--><path d="M679.784,62.131 C746.359,74.022 866.807,95.264 970,112 C1132.74,138.393 1327.76,166.927 1405.06,178.112 " fill="none" id="AccountService-Charges" style="stroke: #A80036; stroke-width: 1.0;"/><polygon fill="#A80036" points="1410.42,178.887,1402.0838,173.6423,1405.4713,178.1727,1400.9409,181.5602,1410.42,178.887" style="stroke: #A80036; stroke-width: 1.0;"/><text fill="#000000" font-family="sans-serif" font-size="13" lengthAdjust="spacingAndGlyphs" textLength="191" x="971" y="107.0669">AccountAdministrationCharge</text><text fill="#000000" font-family="sans-serif" font-size="13" lengthAdjust="spacingAndGlyphs" textLength="24" x="1378.4505" y="172.7128">0..1</text><!--link CashAccountService to CashAccountMandate--><path d="M605.764,225.594 C664.97,254.989 741.327,292.898 781.144,312.666 " fill="none" id="CashAccountService-CashAccountMandate" style="stroke: #A80036; stroke-width: 1.0;"/><polygon fill="#A80036" points="785.815,314.986,779.5346,307.3994,781.3372,312.7614,775.9752,314.5639,785.815,314.986" style="stroke: #A80036; stroke-width: 1.0;"/><text fill="#000000" font-family="sans-serif" font-size="13" lengthAdjust="spacingAndGlyphs" textLength="140" x="701" y="269.0669">CashAccountMandate</text><text fill="#000000" font-family="sans-serif" font-size="13" lengthAdjust="spacingAndGlyphs" textLength="7" x="768.5561" y="304.0294">*</text><!--link CashAccountService to CashAccountContract--><path d="M680.012,204.231 C735.739,214.851 797.85,231.145 851,256 C910.45,283.801 916.957,317.307 928,382 C929.346,389.886 929.575,392.157 928,400 C926.126,409.33 922.175,419.162 918.452,427.066 " fill="none" id="CashAccountService-CashAccountContract" style="stroke: #A80036; stroke-width: 1.0;"/><polygon fill="#A80036" points="916.183,431.716,923.7253,425.3824,918.3761,427.2226,916.5359,421.8735,916.183,431.716" style="stroke: #A80036; stroke-width: 1.0;"/><text fill="#000000" font-family="sans-serif" font-size="13" lengthAdjust="spacingAndGlyphs" textLength="139" x="928" y="331.0669">CashAccountContract</text><text fill="#000000" font-family="sans-serif" font-size="13" lengthAdjust="spacingAndGlyphs" textLength="8" x="907.5749" y="420.9254">1</text><!--link CashAccountService to GenericIdentification--><path d="M680.198,192.605 C790.376,201.043 940.452,218.782 1068,256 C1194.74,292.981 1266.16,270.594 1337,382 C1341.29,388.751 1341.79,393.59 1337,400 C1329.51,410.029 1321.23,402.482 1310,408 C1241.21,441.786 1053.45,587.961 994.179,634.625 " fill="none" id="CashAccountService-GenericIdentification" style="stroke: #A80036; stroke-width: 1.0;"/><polygon fill="#A80036" points="990.137,637.809,999.6813,635.3787,994.0637,634.7137,994.7287,629.096,990.137,637.809" style="stroke: #A80036; stroke-width: 1.0;"/><text fill="#000000" font-family="sans-serif" font-size="13" lengthAdjust="spacingAndGlyphs" textLength="81" x="1311" y="448.0669">Identification</text><text fill="#000000" font-family="sans-serif" font-size="13" lengthAdjust="spacingAndGlyphs" textLength="8" x="984.0808" y="627.0492">1</text><!--link CashAccountService to CashAccount--><path d="M680.006,193.268 C825.523,204.632 1027.41,231.003 1077,291 C1100.5,319.434 1094.99,341.798 1077,374 C1073.69,379.922 1067.82,376.391 1064,382 C1032.52,428.279 1077.9,463.057 1042,506 C1026.5,524.536 1001.82,534.695 979.66,540.26 " fill="none" id="CashAccountService-CashAccount" style="stroke: #A80036; stroke-width: 1.0;"/><polygon fill="#A80036" points="974.68,541.446,984.3619,543.2519,979.5439,540.2875,982.5083,535.4696,974.68,541.446" style="stroke: #A80036; stroke-width: 1.0;"/><text fill="#000000" font-family="sans-serif" font-size="13" lengthAdjust="spacingAndGlyphs" textLength="84" x="1065" y="395.0669">CashAccount</text><text fill="#000000" font-family="sans-serif" font-size="13" lengthAdjust="spacingAndGlyphs" textLength="8" x="983.3788" y="553.7024">1</text><!--link CashManagementService to RiskManagementLimit--><path d="M367.787,332.539 C239.44,341.904 6,369.096 6,443 C6,443 6,443 6,651 C6,701.8054 157.518,723.3765 252.681,731.9143 " fill="none" id="CashManagementService-RiskManagementLimit" style="stroke: #A80036; stroke-width: 1.0;"/><polygon fill="#A80036" points="257.734,732.3602,249.1209,727.5837,252.7534,731.9202,248.4169,735.5527,257.734,732.3602" style="stroke: #A80036; stroke-width: 1.0;"/><text fill="#000000" font-family="sans-serif" font-size="13" lengthAdjust="spacingAndGlyphs" textLength="141" x="7" y="552.0669">RiskManagementLimit</text><text fill="#000000" font-family="sans-serif" font-size="13" lengthAdjust="spacingAndGlyphs" textLength="7" x="242.8185" y="727.1311">*</text><!--link CashManagementService to CashStandingOrder--><path d="M367.975,334.907 C320.525,343.764 265.005,363.647 238,408 C202.867,465.703 210.185,498.897 239,560 C254.371,592.594 287.276,619.438 309.528,634.844 " fill="none" id="CashManagementService-CashStandingOrder" style="stroke: #A80036; stroke-width: 1.0;"/><polygon fill="#A80036" points="313.828,637.771,308.6384,629.4003,309.6945,634.9577,304.1372,636.0139,313.828,637.771" style="stroke: #A80036; stroke-width: 1.0;"/><text fill="#000000" font-family="sans-serif" font-size="13" lengthAdjust="spacingAndGlyphs" textLength="93" x="219" y="501.0669">StandingOrder</text><text fill="#000000" font-family="sans-serif" font-size="13" lengthAdjust="spacingAndGlyphs" textLength="7" x="298.3179" y="626.9986">*</text><!--link CashManagementService to TransactionAdministrator--><path d="M459.99,349.574 C463.95,359.265 468.025,370.979 470,382 C478.06,426.966 467.55,444.338 439,480 C419.979,503.759 390.235,522.17 368.125,533.628 " fill="none" id="CashManagementService-TransactionAdministrator" style="stroke: #A80036; stroke-width: 1.0;"/><polygon fill="#A80036" points="363.529,535.967,373.3642,535.4481,367.9847,533.6984,369.7345,528.319,363.529,535.967" style="stroke: #A80036; stroke-width: 1.0;"/><text fill="#000000" font-family="sans-serif" font-size="13" lengthAdjust="spacingAndGlyphs" textLength="209" x="474" y="448.0669">RelatedTransactionAdministrator</text><text fill="#000000" font-family="sans-serif" font-size="13" lengthAdjust="spacingAndGlyphs" textLength="24" x="342.4921" y="525.0039">0..1</text><!--link CashManagementService to LiquidityManagementLimit--><path d="M367.895,337.281 C340.137,344.79 311.918,358.19 295,382 C283.565,398.093 300.983,416.453 317.162,428.79 " fill="none" id="CashManagementService-LiquidityManagementLimit" style="stroke: #A80036; stroke-width: 1.0;"/><polygon fill="#A80036" points="321.231,431.792,316.3643,423.2296,317.2078,428.8232,311.6142,429.6667,321.231,431.792" style="stroke: #A80036; stroke-width: 1.0;"/><text fill="#000000" font-family="sans-serif" font-size="13" lengthAdjust="spacingAndGlyphs" textLength="168" x="296" y="395.0669">LiquidityManagementLimit</text><text fill="#000000" font-family="sans-serif" font-size="13" lengthAdjust="spacingAndGlyphs" textLength="24" x="286.0388" y="421.0265">0..1</text><!--link AccountContract to Account--><path d="M1548.66,196.064 C1527.46,221.186 1475.66,282.557 1451.63,311.033 " fill="none" id="AccountContract-Account" style="stroke: #A80036; stroke-width: 1.0;"/><polygon fill="#A80036" points="1448.29,314.987,1457.147,310.6796,1451.5108,311.1626,1451.0279,305.5264,1448.29,314.987" style="stroke: #A80036; stroke-width: 1.0;"/><text fill="#000000" font-family="sans-serif" font-size="13" lengthAdjust="spacingAndGlyphs" textLength="52" x="1496" y="269.0669">Account</text><text fill="#000000" font-family="sans-serif" font-size="13" lengthAdjust="spacingAndGlyphs" textLength="7" x="1441.8506" y="304.0307">*</text><!--link Account to Account--><path d="M1467.51,316.195 C1485.18,313.59 1502,317.191 1502,327 C1502,335.812 1488.42,339.615 1472.85,338.407 " fill="none" id="Account-Account" style="stroke: #A80036; stroke-width: 1.0;"/><polygon fill="#A80036" points="1467.51,337.805,1476.0082,342.783,1472.4789,338.3622,1476.8997,334.8328,1467.51,337.805" style="stroke: #A80036; stroke-width: 1.0;"/><text fill="#000000" font-family="sans-serif" font-size="13" lengthAdjust="spacingAndGlyphs" textLength="94" x="1508" y="331.0669">ParentAccount</text><text fill="#000000" font-family="sans-serif" font-size="13" lengthAdjust="spacingAndGlyphs" textLength="8" x="1475.7766" y="334.4836">1</text><!--link Account to GenericIdentification--><path d="M1438.27,339.124 C1434.73,382.58 1415.47,541.748 1320,608 C1277.43,637.545 1136.31,645.892 1048.59,648.192 " fill="none" id="Account-GenericIdentification" style="stroke: #A80036; stroke-width: 1.0;"/><polygon fill="#A80036" points="1043.42,648.322,1052.5199,652.0893,1048.4183,648.1934,1052.3142,644.0919,1043.42,648.322" style="stroke: #A80036; stroke-width: 1.0;"/><text fill="#000000" font-family="sans-serif" font-size="13" lengthAdjust="spacingAndGlyphs" textLength="30" x="1406" y="501.0669">Type</text><text fill="#000000" font-family="sans-serif" font-size="13" lengthAdjust="spacingAndGlyphs" textLength="8" x="1051.649" y="643.2215">1</text><!--link Charges to CashAccount--><path d="M1423.57,196.051 C1383.64,224.902 1274.23,305.569 1191,382 C1135.19,433.251 1138.72,466.601 1074,506 C1045.22,523.519 1008.64,533.83 979.68,539.73 " fill="none" id="Charges-CashAccount" style="stroke: #A80036; stroke-width: 1.0;"/><polygon fill="#A80036" points="974.734,540.71,984.3402,542.8829,979.6385,539.7374,982.784,535.0357,974.734,540.71" style="stroke: #A80036; stroke-width: 1.0;"/><text fill="#000000" font-family="sans-serif" font-size="13" lengthAdjust="spacingAndGlyphs" textLength="139" x="1192" y="395.0669">ChargesDebitAccount</text><text fill="#000000" font-family="sans-serif" font-size="13" lengthAdjust="spacingAndGlyphs" textLength="7" x="983.6427" y="533.7826">*</text><!--link CashAccountContract to CashAccount--><path d="M838.602,452.314 C792.143,460.037 744.244,475.529 768,506 C782.008,523.968 839.573,535.27 882.347,541.354 " fill="none" id="CashAccountContract-CashAccount" style="stroke: #A80036; stroke-width: 1.0;"/><polygon fill="#A80036" points="887.486,542.07,879.1242,536.8661,882.5339,541.3799,878.0201,544.7895,887.486,542.07" style="stroke: #A80036; stroke-width: 1.0;"/><text fill="#000000" font-family="sans-serif" font-size="13" lengthAdjust="spacingAndGlyphs" textLength="84" x="769" y="501.0669">CashAccount</text><text fill="#000000" font-family="sans-serif" font-size="13" lengthAdjust="spacingAndGlyphs" textLength="7" x="872.3605" y="536.0295">*</text><!--link CashAccountContract to CashAccount--><path d="M903.375,456.035 C896.82,468.439 888.618,489.059 895,506 C898.719,515.873 906.016,524.915 913.074,531.981 " fill="none" id="CashAccountContract-CashAccount" style="stroke: #A80036; stroke-width: 1.0;"/><polygon fill="#A80036" points="916.946,535.696,913.22,526.5792,913.3377,532.2348,907.682,532.3525,916.946,535.696" style="stroke: #A80036; stroke-width: 1.0;"/><text fill="#000000" font-family="sans-serif" font-size="13" lengthAdjust="spacingAndGlyphs" textLength="136" x="896" y="501.0669">TransferCashAccount</text><text fill="#000000" font-family="sans-serif" font-size="13" lengthAdjust="spacingAndGlyphs" textLength="7" x="902.6344" y="524.8987">*</text><!--link CashAccount to CashStandingOrder--><path d="M887.439,556.272 C784.543,573.45 525.753,616.654 401.153,637.455 " fill="none" id="CashAccount-CashStandingOrder" style="stroke: #A80036; stroke-width: 1.0;"/><polygon fill="#A80036" points="396.05,638.307,405.5863,640.7685,400.9816,637.4827,404.2674,632.878,396.05,638.307" style="stroke: #A80036; stroke-width: 1.0;"/><text fill="#000000" font-family="sans-serif" font-size="13" lengthAdjust="spacingAndGlyphs" textLength="125" x="687" y="603.0669">CashStandingOrder</text><text fill="#000000" font-family="sans-serif" font-size="13" lengthAdjust="spacingAndGlyphs" textLength="8" x="403.9183" y="632.0486">1</text></g></svg>