<?xml version="1.0" encoding="UTF-8" standalone="no"?><svg xmlns="http://www.w3.org/2000/svg" xmlns:xlink="http://www.w3.org/1999/xlink" contentScriptType="application/ecmascript" contentStyleType="text/css" height="500px" preserveAspectRatio="none" style="width:1198px;height:500px;" version="1.1" viewBox="0 0 1198 500" width="1198px" zoomAndPan="magnify"><defs><filter height="300%" id="f1tovvasqe7ju7" width="300%" x="-1" y="-1"><feGaussianBlur result="blurOut" stdDeviation="2.0"/><feColorMatrix in="blurOut" result="blurOut2" type="matrix" values="0 0 0 0 0 0 0 0 0 0 0 0 0 0 0 0 0 0 .4 0"/><feOffset dx="4.0" dy="4.0" in="blurOut2" result="blurOut3"/><feBlend in="SourceGraphic" in2="blurOut3" mode="normal"/></filter></defs><g><!--cluster ##14400--><!--cluster ##14409--><!--cluster ##14418--><!--cluster ##14423--><!--class Role--><a target="_top" xlink:actuate="onRequest" xlink:href="../Role.html" xlink:show="new" xlink:title="Role of a party in an activity." xlink:type="simple"><rect fill="#FEFEEE" filter="url(#f1tovvasqe7ju7)" height="44.7734" id="Role" style="stroke: #A80036; stroke-width: 1.5;" width="175" x="74.75" y="40.5"/><rect fill="#FEFEEE" height="23.9688" style="stroke: #A80036; stroke-width: 1.5;" width="175" x="74.75" y="40.5"/><text fill="#000000" font-family="sans-serif" font-size="12" lengthAdjust="spacingAndGlyphs" textLength="27" x="148.75" y="56.6387">Role</text><line style="stroke: #A80036; stroke-width: 1.5;" x1="75.75" x2="248.75" y1="64.4688" y2="64.4688"/><ellipse cx="85.75" cy="76.3711" fill="#84BE84" rx="3" ry="3" style="stroke: #038048; stroke-width: 1.0;"/><text fill="#000000" font-family="sans-serif" font-size="11" lengthAdjust="spacingAndGlyphs" textLength="53" x="94.75" y="78.6792">PartyRole</text><text fill="#000000" font-family="sans-serif" font-size="11" font-style="italic" lengthAdjust="spacingAndGlyphs" textLength="92" x="151.75" y="78.6792">(PartyRoleCode)</text></a><!--class SettlementPartyRole--><a target="_top" xlink:actuate="onRequest" xlink:href="../SettlementPartyRole.html" xlink:show="new" xlink:title="Role played by a party in a settlement process." xlink:type="simple"><rect fill="#FEFEEE" filter="url(#f1tovvasqe7ju7)" height="23.9688" id="SettlementPartyRole" style="stroke: #A80036; stroke-width: 1.5;" width="134" x="106" y="166"/><rect fill="#FEFEEE" height="23.9688" style="stroke: #A80036; stroke-width: 1.5;" width="134" x="106" y="166"/><text fill="#000000" font-family="sans-serif" font-size="12" lengthAdjust="spacingAndGlyphs" textLength="128" x="109" y="182.1387">SettlementPartyRole</text></a><!--class CentralClearingCounterpartyRole--><a target="_top" xlink:actuate="onRequest" xlink:href="../CentralClearingCounterpartyRole.html" xlink:show="new" xlink:title="Infrastructure that may be a component of a clearing house and which facilitates clearing and settlement for its members by standing between the buyer and the seller. It may net transactions and it substitutes itself as settlement counterparty for each position." xlink:type="simple"><rect fill="#FEFECE" filter="url(#f1tovvasqe7ju7)" height="23.9688" id="CentralClearingCounterpartyRole" style="stroke: #A80036; stroke-width: 1.5;" width="211" x="38.75" y="270"/><rect fill="#FEFECE" height="23.9688" style="stroke: #A80036; stroke-width: 1.5;" width="211" x="38.75" y="270"/><text fill="#000000" font-family="sans-serif" font-size="12" lengthAdjust="spacingAndGlyphs" textLength="205" x="41.75" y="286.1387">CentralClearingCounterpartyRole</text></a><!--class RolePlayer--><a target="_top" xlink:actuate="onRequest" xlink:href="../RolePlayer.html" xlink:show="new" xlink:title="Type of entity that plays a specific role in a specific context." xlink:type="simple"><rect fill="#EEEEEE" filter="url(#f1tovvasqe7ju7)" height="23.9688" id="RolePlayer" style="stroke: #A80036; stroke-width: 1.5;" width="71" x="773.75" y="466"/><rect fill="#EEEEEE" height="23.9688" style="stroke: #A80036; stroke-width: 1.5;" width="71" x="773.75" y="466"/><text fill="#000000" font-family="sans-serif" font-size="12" lengthAdjust="spacingAndGlyphs" textLength="65" x="776.75" y="482.1387">RolePlayer</text></a><!--class ContactPersonRole--><a target="_top" xlink:actuate="onRequest" xlink:href="../ContactPersonRole.html" xlink:show="new" xlink:title="Person to be contacted in a given organisation. In the corporate action domain (including meeting notifications) , it is the contact person at the party organising the meeting, at the issuer or at an intermediary." xlink:type="simple"><rect fill="#EEEEEE" filter="url(#f1tovvasqe7ju7)" height="23.9688" id="ContactPersonRole" style="stroke: #A80036; stroke-width: 1.5;" width="126" x="726" y="376"/><rect fill="#EEEEEE" height="23.9688" style="stroke: #A80036; stroke-width: 1.5;" width="126" x="726" y="376"/><text fill="#000000" font-family="sans-serif" font-size="12" lengthAdjust="spacingAndGlyphs" textLength="120" x="729" y="392.1387">ContactPersonRole</text></a><!--class CounterpartyRisk--><a target="_top" xlink:actuate="onRequest" xlink:href="../CounterpartyRisk.html" xlink:show="new" xlink:title="Calculation of the exposure amount that one party has vis-a-vis one counterparty or a central system, based on its credit risk." xlink:type="simple"><rect fill="#EEEEEE" filter="url(#f1tovvasqe7ju7)" height="23.9688" id="CounterpartyRisk" style="stroke: #A80036; stroke-width: 1.5;" width="113" x="738.75" y="270"/><rect fill="#EEEEEE" height="23.9688" style="stroke: #A80036; stroke-width: 1.5;" width="113" x="738.75" y="270"/><text fill="#000000" font-family="sans-serif" font-size="12" lengthAdjust="spacingAndGlyphs" textLength="107" x="741.75" y="286.1387">CounterpartyRisk</text></a><!--class Entry--><a target="_top" xlink:actuate="onRequest" xlink:href="../Entry.html" xlink:show="new" xlink:title="Posting to an account that results in an increase or decrease to a balance." xlink:type="simple"><rect fill="#EEEEEE" filter="url(#f1tovvasqe7ju7)" height="23.9688" id="Entry" style="stroke: #A80036; stroke-width: 1.5;" width="38" x="726" y="166"/><rect fill="#EEEEEE" height="23.9688" style="stroke: #A80036; stroke-width: 1.5;" width="38" x="726" y="166"/><text fill="#000000" font-family="sans-serif" font-size="12" lengthAdjust="spacingAndGlyphs" textLength="32" x="729" y="182.1387">Entry</text></a><!--class Account--><a target="_top" xlink:actuate="onRequest" xlink:href="../Account.html" xlink:show="new" xlink:title="Record of transactions in specific types of assets, maintained by a servicing party on behalf of one or more owning parties. Business relationship between an account servicer and one or more account owners." xlink:type="simple"><rect fill="#EEEEEE" filter="url(#f1tovvasqe7ju7)" height="23.9688" id="Account" style="stroke: #A80036; stroke-width: 1.5;" width="57" x="306.75" y="376"/><rect fill="#EEEEEE" height="23.9688" style="stroke: #A80036; stroke-width: 1.5;" width="57" x="306.75" y="376"/><text fill="#000000" font-family="sans-serif" font-size="12" lengthAdjust="spacingAndGlyphs" textLength="51" x="309.75" y="392.1387">Account</text></a><!--class Settlement--><a target="_top" xlink:actuate="onRequest" xlink:href="../Settlement.html" xlink:show="new" xlink:title="Process which consists in transferring the proceeds related to a trade from one party to the next one." xlink:type="simple"><rect fill="#EEEEEE" filter="url(#f1tovvasqe7ju7)" height="23.9688" id="Settlement" style="stroke: #A80036; stroke-width: 1.5;" width="75" x="305.75" y="270"/><rect fill="#EEEEEE" height="23.9688" style="stroke: #A80036; stroke-width: 1.5;" width="75" x="305.75" y="270"/><text fill="#000000" font-family="sans-serif" font-size="12" lengthAdjust="spacingAndGlyphs" textLength="69" x="308.75" y="286.1387">Settlement</text></a><!--class ClearingSystem--><a target="_top" xlink:actuate="onRequest" xlink:href="../ClearingSystem.html" xlink:show="new" xlink:title="Specifies the system which plays a role in the clearing process." xlink:type="simple"><rect fill="#EEEEEE" filter="url(#f1tovvasqe7ju7)" height="23.9688" id="ClearingSystem" style="stroke: #A80036; stroke-width: 1.5;" width="102" x="93.5" y="376"/><rect fill="#EEEEEE" height="23.9688" style="stroke: #A80036; stroke-width: 1.5;" width="102" x="93.5" y="376"/><text fill="#000000" font-family="sans-serif" font-size="12" lengthAdjust="spacingAndGlyphs" textLength="96" x="96.5" y="392.1387">ClearingSystem</text></a><!--link Role to SettlementPartyRole--><path d="M166.046,105.559 C168.148,127.159 170.556,151.898 171.916,165.865 " fill="none" id="Role-SettlementPartyRole" style="stroke: #A80036; stroke-width: 1.0;"/><polygon fill="none" points="159.066,106.105,164.095,85.52,173,104.748,159.066,106.105" style="stroke: #A80036; stroke-width: 1.0;"/><!--link SettlementPartyRole to CentralClearingCounterpartyRole--><path d="M164.296,209.615 C158.497,230.011 151.218,255.614 147.141,269.954 " fill="none" id="SettlementPartyRole-CentralClearingCounterpartyRole" style="stroke: #A80036; stroke-width: 1.0;"/><polygon fill="none" points="157.583,207.629,169.786,190.306,171.049,211.457,157.583,207.629" style="stroke: #A80036; stroke-width: 1.0;"/><!--link ContactPersonRole to RolePlayer--><!--link CounterpartyRisk to ContactPersonRole--><!--link Entry to CounterpartyRisk--><!--link Settlement to Account--><!--link Role to RolePlayer--><path d="M249.323,64.943 C490.145,68.693 1146,87.153 1146,177 C1146,177 1146,177 1146,389 C1146,449.6217 939.27,469.2654 849.642,474.9332 " fill="none" id="Role-RolePlayer" style="stroke: #A80036; stroke-width: 1.0;"/><polygon fill="#A80036" points="844.428,475.2555,853.6577,478.6924,849.4185,474.9469,853.164,470.7077,844.428,475.2555" style="stroke: #A80036; stroke-width: 1.0;"/><text fill="#000000" font-family="sans-serif" font-size="13" lengthAdjust="spacingAndGlyphs" textLength="39" x="1147" y="286.0669">Player</text><text fill="#000000" font-family="sans-serif" font-size="13" lengthAdjust="spacingAndGlyphs" textLength="7" x="852.8888" y="468.8806">*</text><!--link Role to ContactPersonRole--><path d="M249.495,66.314 C440.249,72.287 880.002,91.45 923,142 C988.383,218.866 858.856,332.705 808.149,372.577 " fill="none" id="Role-ContactPersonRole" style="stroke: #A80036; stroke-width: 1.0;"/><polygon fill="#A80036" points="804.065,375.762,813.6211,373.3786,808.0068,372.686,808.6995,367.0717,804.065,375.762" style="stroke: #A80036; stroke-width: 1.0;"/><text fill="#000000" font-family="sans-serif" font-size="13" lengthAdjust="spacingAndGlyphs" textLength="121" x="936" y="233.0669">ContactPersonRole</text><text fill="#000000" font-family="sans-serif" font-size="13" lengthAdjust="spacingAndGlyphs" textLength="8" x="798.399" y="364.9866">1</text><!--link Role to CounterpartyRisk--><path d="M249.383,69.049 C411.216,79.252 744.509,104.587 781,142 C813.204,175.018 805.289,235.682 799.088,264.7 " fill="none" id="Role-CounterpartyRisk" style="stroke: #A80036; stroke-width: 1.0;"/><polygon fill="#A80036" points="797.96,269.737,803.8301,261.8287,799.0527,264.8579,796.0235,260.0804,797.96,269.737" style="stroke: #A80036; stroke-width: 1.0;"/><text fill="#000000" font-family="sans-serif" font-size="13" lengthAdjust="spacingAndGlyphs" textLength="109" x="804" y="182.0669">CounterpartyRisk</text><text fill="#000000" font-family="sans-serif" font-size="13" lengthAdjust="spacingAndGlyphs" textLength="24" x="769.5514" y="258.9533">0..1</text><!--link Role to Entry--><path d="M249.281,80.917 C385.423,107.305 640.999,156.842 720.657,172.282 " fill="none" id="Role-Entry" style="stroke: #A80036; stroke-width: 1.0;"/><polygon fill="#A80036" points="725.647,173.249,717.5726,167.6095,720.7384,172.2976,716.0503,175.4633,725.647,173.249" style="stroke: #A80036; stroke-width: 1.0;"/><text fill="#000000" font-family="sans-serif" font-size="13" lengthAdjust="spacingAndGlyphs" textLength="33" x="524" y="129.0669">Entry</text><text fill="#000000" font-family="sans-serif" font-size="13" lengthAdjust="spacingAndGlyphs" textLength="8" x="710.1021" y="165.7767">1</text><!--link SettlementPartyRole to Account--><path d="M240.156,188.878 C300.174,199.395 381.047,218.358 397,246 C412.996,273.715 408.452,288.12 397,318 C388.465,340.268 369.06,359.861 354.215,372.423 " fill="none" id="SettlementPartyRole-Account" style="stroke: #A80036; stroke-width: 1.0;"/><polygon fill="#A80036" points="350.162,375.777,359.6464,373.1226,354.0147,372.59,354.5472,366.9583,350.162,375.777" style="stroke: #A80036; stroke-width: 1.0;"/><text fill="#000000" font-family="sans-serif" font-size="13" lengthAdjust="spacingAndGlyphs" textLength="124" x="409" y="286.0669">SettlementAccount</text><text fill="#000000" font-family="sans-serif" font-size="13" lengthAdjust="spacingAndGlyphs" textLength="8" x="344.4453" y="365.0066">1</text><!--link SettlementPartyRole to Settlement--><path d="M191.517,190.11 C222.812,208.887 286.076,246.846 320.105,267.263 " fill="none" id="SettlementPartyRole-Settlement" style="stroke: #A80036; stroke-width: 1.0;"/><polygon fill="#A80036" points="324.506,269.904,318.8473,261.843,320.2188,267.3311,314.7307,268.7026,324.506,269.904" style="stroke: #A80036; stroke-width: 1.0;"/><text fill="#000000" font-family="sans-serif" font-size="13" lengthAdjust="spacingAndGlyphs" textLength="72" x="270" y="233.0669">Settlement</text><text fill="#000000" font-family="sans-serif" font-size="13" lengthAdjust="spacingAndGlyphs" textLength="8" x="307.344" y="258.9192">1</text><!--link CentralClearingCounterpartyRole to ClearingSystem--><path d="M144,294.13 C144,312.583 144,349.586 144,370.892 " fill="none" id="CentralClearingCounterpartyRole-ClearingSystem" style="stroke: #A80036; stroke-width: 1.0;"/><polygon fill="#A80036" points="144,375.95,148,366.95,144,370.95,140,366.95,144,375.95" style="stroke: #A80036; stroke-width: 1.0;"/><text fill="#000000" font-family="sans-serif" font-size="13" lengthAdjust="spacingAndGlyphs" textLength="49" x="145" y="339.0669">System</text><text fill="#000000" font-family="sans-serif" font-size="13" lengthAdjust="spacingAndGlyphs" textLength="7" x="134.2813" y="364.981">*</text><!--link Entry to Account--><path d="M731.644,190.215 C700.447,215.939 619.614,279.898 543,318 C484.404,347.141 410.647,368.273 368.556,379.002 " fill="none" id="Entry-Account" style="stroke: #A80036; stroke-width: 1.0;"/><polygon fill="#A80036" points="363.583,380.259,373.2885,381.9332,368.4308,379.0346,371.3294,374.1768,363.583,380.259" style="stroke: #A80036; stroke-width: 1.0;"/><text fill="#000000" font-family="sans-serif" font-size="13" lengthAdjust="spacingAndGlyphs" textLength="52" x="661" y="286.0669">Account</text><text fill="#000000" font-family="sans-serif" font-size="13" lengthAdjust="spacingAndGlyphs" textLength="7" x="371.7402" y="372.1852">*</text><!--link Account to Account--><path d="M363.508,379.984 C381.181,378.051 398,380.723 398,388 C398,394.538 384.424,397.359 368.85,396.463 " fill="none" id="Account-Account" style="stroke: #A80036; stroke-width: 1.0;"/><polygon fill="#A80036" points="363.508,396.016,372.1443,400.7504,368.4907,396.4317,372.8094,392.7781,363.508,396.016" style="stroke: #A80036; stroke-width: 1.0;"/><text fill="#000000" font-family="sans-serif" font-size="13" lengthAdjust="spacingAndGlyphs" textLength="94" x="404" y="392.0669">ParentAccount</text><text fill="#000000" font-family="sans-serif" font-size="13" lengthAdjust="spacingAndGlyphs" textLength="8" x="371.7741" y="412.0799">1</text></g></svg>