<?xml version="1.0" encoding="UTF-8" standalone="no"?><svg xmlns="http://www.w3.org/2000/svg" xmlns:xlink="http://www.w3.org/1999/xlink" contentScriptType="application/ecmascript" contentStyleType="text/css" height="1009px" preserveAspectRatio="none" style="width:2714px;height:1009px;" version="1.1" viewBox="0 0 2714 1009" width="2714px" zoomAndPan="magnify"><defs><filter height="300%" id="fi1h1c03dp5kv" width="300%" x="-1" y="-1"><feGaussianBlur result="blurOut" stdDeviation="2.0"/><feColorMatrix in="blurOut" result="blurOut2" type="matrix" values="0 0 0 0 0 0 0 0 0 0 0 0 0 0 0 0 0 0 .4 0"/><feOffset dx="4.0" dy="4.0" in="blurOut2" result="blurOut3"/><feBlend in="SourceGraphic" in2="blurOut3" mode="normal"/></filter></defs><g><!--cluster ##12905--><!--cluster ##12917--><!--cluster ##12938--><!--class Adjustment--><a target="_top" xlink:actuate="onRequest" xlink:href="../Adjustment.html" xlink:show="new" xlink:title="Modification on the value of goods and / or services. For example: rebate, discount." xlink:type="simple"><rect fill="#FEFEEE" filter="url(#fi1h1c03dp5kv)" height="134.4063" id="Adjustment" style="stroke: #A80036; stroke-width: 1.5;" width="268" x="186" y="40"/><rect fill="#FEFEEE" height="23.9688" style="stroke: #A80036; stroke-width: 1.5;" width="268" x="186" y="40"/><text fill="#000000" font-family="sans-serif" font-size="12" lengthAdjust="spacingAndGlyphs" textLength="71" x="284.5" y="56.1387">Adjustment</text><line style="stroke: #A80036; stroke-width: 1.5;" x1="187" x2="453" y1="63.9688" y2="63.9688"/><ellipse cx="197" cy="75.8711" fill="#84BE84" rx="3" ry="3" style="stroke: #038048; stroke-width: 1.0;"/><text fill="#000000" font-family="sans-serif" font-size="11" lengthAdjust="spacingAndGlyphs" textLength="43" x="206" y="78.1792">Amount</text><text fill="#000000" font-family="sans-serif" font-size="11" font-style="italic" lengthAdjust="spacingAndGlyphs" textLength="126" x="253" y="78.1792">(CurrencyAndAmount)</text><ellipse cx="197" cy="88.6758" fill="#84BE84" rx="3" ry="3" style="stroke: #038048; stroke-width: 1.0;"/><text fill="#000000" font-family="sans-serif" font-size="11" lengthAdjust="spacingAndGlyphs" textLength="66" x="206" y="90.9839">ChargeRate</text><text fill="#000000" font-family="sans-serif" font-size="11" font-style="italic" lengthAdjust="spacingAndGlyphs" textLength="98" x="276" y="90.9839">(PercentageRate)</text><ellipse cx="197" cy="101.4805" fill="#84BE84" rx="3" ry="3" style="stroke: #038048; stroke-width: 1.0;"/><text fill="#000000" font-family="sans-serif" font-size="11" lengthAdjust="spacingAndGlyphs" textLength="103" x="206" y="103.7886">CalculationMethod</text><text fill="#000000" font-family="sans-serif" font-size="11" font-style="italic" lengthAdjust="spacingAndGlyphs" textLength="116" x="313" y="103.7886">(TaxationBasisCode)</text><ellipse cx="197" cy="114.2852" fill="#84BE84" rx="3" ry="3" style="stroke: #038048; stroke-width: 1.0;"/><text fill="#000000" font-family="sans-serif" font-size="11" lengthAdjust="spacingAndGlyphs" textLength="50" x="206" y="116.5933">Direction</text><text fill="#000000" font-family="sans-serif" font-size="11" font-style="italic" lengthAdjust="spacingAndGlyphs" textLength="151" x="260" y="116.5933">(AdjustmentDirectionCode)</text><ellipse cx="197" cy="127.0898" fill="#84BE84" rx="3" ry="3" style="stroke: #038048; stroke-width: 1.0;"/><text fill="#000000" font-family="sans-serif" font-size="11" lengthAdjust="spacingAndGlyphs" textLength="42" x="206" y="129.3979">Reason</text><text fill="#000000" font-family="sans-serif" font-size="11" font-style="italic" lengthAdjust="spacingAndGlyphs" textLength="142" x="252" y="129.3979">(Max4AlphaNumericText)</text><ellipse cx="197" cy="139.8945" fill="#84BE84" rx="3" ry="3" style="stroke: #038048; stroke-width: 1.0;"/><text fill="#000000" font-family="sans-serif" font-size="11" lengthAdjust="spacingAndGlyphs" textLength="146" x="206" y="142.2026">AllowanceChargeIndicator</text><text fill="#000000" font-family="sans-serif" font-size="11" font-style="italic" lengthAdjust="spacingAndGlyphs" textLength="92" x="356" y="142.2026">(YesNoIndicator)</text><ellipse cx="197" cy="152.6992" fill="#84BE84" rx="3" ry="3" style="stroke: #038048; stroke-width: 1.0;"/><text fill="#000000" font-family="sans-serif" font-size="11" lengthAdjust="spacingAndGlyphs" textLength="90" x="206" y="155.0073">ChargeIndicator</text><text fill="#000000" font-family="sans-serif" font-size="11" font-style="italic" lengthAdjust="spacingAndGlyphs" textLength="92" x="300" y="155.0073">(YesNoIndicator)</text><ellipse cx="197" cy="165.5039" fill="#84BE84" rx="3" ry="3" style="stroke: #038048; stroke-width: 1.0;"/><text fill="#000000" font-family="sans-serif" font-size="11" lengthAdjust="spacingAndGlyphs" textLength="27" x="206" y="167.812">Type</text><text fill="#000000" font-family="sans-serif" font-size="11" font-style="italic" lengthAdjust="spacingAndGlyphs" textLength="129" x="237" y="167.812">(AdjustmentTypeCode)</text></a><!--class Charges--><a target="_top" xlink:actuate="onRequest" xlink:href="../Charges.html" xlink:show="new" xlink:title="Amount of money associated with a service." xlink:type="simple"><rect fill="#FEFECE" filter="url(#fi1h1c03dp5kv)" height="160.0156" id="Charges" style="stroke: #A80036; stroke-width: 1.5;" width="330" x="124" y="252"/><rect fill="#FEFECE" height="23.9688" style="stroke: #A80036; stroke-width: 1.5;" width="330" x="124" y="252"/><text fill="#000000" font-family="sans-serif" font-size="12" lengthAdjust="spacingAndGlyphs" textLength="52" x="263" y="268.1387">Charges</text><line style="stroke: #A80036; stroke-width: 1.5;" x1="125" x2="453" y1="275.9688" y2="275.9688"/><ellipse cx="135" cy="287.8711" fill="#84BE84" rx="3" ry="3" style="stroke: #038048; stroke-width: 1.0;"/><text fill="#000000" font-family="sans-serif" font-size="11" lengthAdjust="spacingAndGlyphs" textLength="68" x="144" y="290.1792">ChargeType</text><text fill="#000000" font-family="sans-serif" font-size="11" font-style="italic" lengthAdjust="spacingAndGlyphs" textLength="106" x="216" y="290.1792">(ChargeTypeCode)</text><ellipse cx="135" cy="300.6758" fill="#84BE84" rx="3" ry="3" style="stroke: #038048; stroke-width: 1.0;"/><text fill="#000000" font-family="sans-serif" font-size="11" lengthAdjust="spacingAndGlyphs" textLength="94" x="144" y="302.9839">CalculationBasis</text><text fill="#000000" font-family="sans-serif" font-size="11" font-style="italic" lengthAdjust="spacingAndGlyphs" textLength="129" x="242" y="302.9839">(CalculationBasisCode)</text><ellipse cx="135" cy="313.4805" fill="#84BE84" rx="3" ry="3" style="stroke: #038048; stroke-width: 1.0;"/><text fill="#000000" font-family="sans-serif" font-size="11" lengthAdjust="spacingAndGlyphs" textLength="66" x="144" y="315.7886">BearerType</text><text fill="#000000" font-family="sans-serif" font-size="11" font-style="italic" lengthAdjust="spacingAndGlyphs" textLength="145" x="214" y="315.7886">(ChargeBearerTypeCode)</text><ellipse cx="135" cy="326.2852" fill="#84BE84" rx="3" ry="3" style="stroke: #038048; stroke-width: 1.0;"/><text fill="#000000" font-family="sans-serif" font-size="11" lengthAdjust="spacingAndGlyphs" textLength="112" x="144" y="328.5933">CreditDebitIndicator</text><text fill="#000000" font-family="sans-serif" font-size="11" font-style="italic" lengthAdjust="spacingAndGlyphs" textLength="100" x="260" y="328.5933">(DebitCreditCode)</text><ellipse cx="135" cy="339.0898" fill="#84BE84" rx="3" ry="3" style="stroke: #038048; stroke-width: 1.0;"/><text fill="#000000" font-family="sans-serif" font-size="11" lengthAdjust="spacingAndGlyphs" textLength="97" x="144" y="341.3979">MaximumAmount</text><text fill="#000000" font-family="sans-serif" font-size="11" font-style="italic" lengthAdjust="spacingAndGlyphs" textLength="126" x="245" y="341.3979">(CurrencyAndAmount)</text><ellipse cx="135" cy="351.8945" fill="#84BE84" rx="3" ry="3" style="stroke: #038048; stroke-width: 1.0;"/><text fill="#000000" font-family="sans-serif" font-size="11" lengthAdjust="spacingAndGlyphs" textLength="72" x="144" y="354.2026">BaseAmount</text><text fill="#000000" font-family="sans-serif" font-size="11" font-style="italic" lengthAdjust="spacingAndGlyphs" textLength="126" x="220" y="354.2026">(CurrencyAndAmount)</text><ellipse cx="135" cy="364.6992" fill="#84BE84" rx="3" ry="3" style="stroke: #038048; stroke-width: 1.0;"/><text fill="#000000" font-family="sans-serif" font-size="11" lengthAdjust="spacingAndGlyphs" textLength="79" x="144" y="367.0073">MaximumRate</text><text fill="#000000" font-family="sans-serif" font-size="11" font-style="italic" lengthAdjust="spacingAndGlyphs" textLength="98" x="227" y="367.0073">(PercentageRate)</text><ellipse cx="135" cy="377.5039" fill="#84BE84" rx="3" ry="3" style="stroke: #038048; stroke-width: 1.0;"/><text fill="#000000" font-family="sans-serif" font-size="11" lengthAdjust="spacingAndGlyphs" textLength="76" x="144" y="379.812">MinimumRate</text><text fill="#000000" font-family="sans-serif" font-size="11" font-style="italic" lengthAdjust="spacingAndGlyphs" textLength="98" x="224" y="379.812">(PercentageRate)</text><ellipse cx="135" cy="390.3086" fill="#84BE84" rx="3" ry="3" style="stroke: #038048; stroke-width: 1.0;"/><text fill="#000000" font-family="sans-serif" font-size="11" lengthAdjust="spacingAndGlyphs" textLength="94" x="144" y="392.6167">MinimumAmount</text><text fill="#000000" font-family="sans-serif" font-size="11" font-style="italic" lengthAdjust="spacingAndGlyphs" textLength="126" x="242" y="392.6167">(CurrencyAndAmount)</text><ellipse cx="135" cy="403.1133" fill="#84BE84" rx="3" ry="3" style="stroke: #038048; stroke-width: 1.0;"/><text fill="#000000" font-family="sans-serif" font-size="11" lengthAdjust="spacingAndGlyphs" textLength="131" x="144" y="405.4214">ChargePaymentMethod</text><text fill="#000000" font-family="sans-serif" font-size="11" font-style="italic" lengthAdjust="spacingAndGlyphs" textLength="169" x="279" y="405.4214">(ChargePaymentMethodCode)</text></a><!--class SecuritiesRelatedFees--><a target="_top" xlink:actuate="onRequest" xlink:href="../SecuritiesRelatedFees.html" xlink:show="new" xlink:title="Fees related to securities trades." xlink:type="simple"><rect fill="#FEFEEE" filter="url(#fi1h1c03dp5kv)" height="23.9688" id="SecuritiesRelatedFees" style="stroke: #A80036; stroke-width: 1.5;" width="146" x="308" y="492"/><rect fill="#FEFEEE" height="23.9688" style="stroke: #A80036; stroke-width: 1.5;" width="146" x="308" y="492"/><text fill="#000000" font-family="sans-serif" font-size="12" lengthAdjust="spacingAndGlyphs" textLength="140" x="311" y="508.1387">SecuritiesRelatedFees</text></a><!--class CorporateActionFeesAndCharges--><a target="_top" xlink:actuate="onRequest" xlink:href="../CorporateActionFeesAndCharges.html" xlink:show="new" xlink:title="The definition of all the charges related to a corporate action event." xlink:type="simple"><rect fill="#FEFEEE" filter="url(#fi1h1c03dp5kv)" height="23.9688" id="CorporateActionFeesAndCharges" style="stroke: #A80036; stroke-width: 1.5;" width="214" x="59.5" y="492"/><rect fill="#FEFEEE" height="23.9688" style="stroke: #A80036; stroke-width: 1.5;" width="214" x="59.5" y="492"/><text fill="#000000" font-family="sans-serif" font-size="12" lengthAdjust="spacingAndGlyphs" textLength="208" x="62.5" y="508.1387">CorporateActionFeesAndCharges</text></a><!--class Payment--><a target="_top" xlink:actuate="onRequest" xlink:href="../Payment.html" xlink:show="new" xlink:title="Payment information and processes required to transfer cash end to end from the debtor to the creditor." xlink:type="simple"><rect fill="#EEEEEE" filter="url(#fi1h1c03dp5kv)" height="23.9688" id="Payment" style="stroke: #A80036; stroke-width: 1.5;" width="60" x="1972.5" y="95"/><rect fill="#EEEEEE" height="23.9688" style="stroke: #A80036; stroke-width: 1.5;" width="60" x="1972.5" y="95"/><text fill="#000000" font-family="sans-serif" font-size="12" lengthAdjust="spacingAndGlyphs" textLength="54" x="1975.5" y="111.1387">Payment</text></a><!--class LineItem--><a target="_top" xlink:actuate="onRequest" xlink:href="../LineItem.html" xlink:show="new" xlink:title="Unit of information  showing the related  provision of products and/or services and monetary summations reported as a discrete line item." xlink:type="simple"><rect fill="#EEEEEE" filter="url(#fi1h1c03dp5kv)" height="23.9688" id="LineItem" style="stroke: #A80036; stroke-width: 1.5;" width="58" x="1886.5" y="972"/><rect fill="#EEEEEE" height="23.9688" style="stroke: #A80036; stroke-width: 1.5;" width="58" x="1886.5" y="972"/><text fill="#000000" font-family="sans-serif" font-size="12" lengthAdjust="spacingAndGlyphs" textLength="52" x="1889.5" y="988.1387">LineItem</text></a><!--class Price--><a target="_top" xlink:actuate="onRequest" xlink:href="../Price.html" xlink:show="new" xlink:title="Amount of money for which goods, services or assets are offered, sold, or bought." xlink:type="simple"><rect fill="#EEEEEE" filter="url(#fi1h1c03dp5kv)" height="23.9688" id="Price" style="stroke: #A80036; stroke-width: 1.5;" width="37" x="2038.75" y="870"/><rect fill="#EEEEEE" height="23.9688" style="stroke: #A80036; stroke-width: 1.5;" width="37" x="2038.75" y="870"/><text fill="#000000" font-family="sans-serif" font-size="12" lengthAdjust="spacingAndGlyphs" textLength="31" x="2041.75" y="886.1387">Price</text></a><!--class CollateralManagement--><a target="_top" xlink:actuate="onRequest" xlink:href="../CollateralManagement.html" xlink:show="new" xlink:title="Set of operations relative to the management of collateral, variation margins, default fund participation and independent amount." xlink:type="simple"><rect fill="#EEEEEE" filter="url(#fi1h1c03dp5kv)" height="23.9688" id="CollateralManagement" style="stroke: #A80036; stroke-width: 1.5;" width="147" x="1983.75" y="784"/><rect fill="#EEEEEE" height="23.9688" style="stroke: #A80036; stroke-width: 1.5;" width="147" x="1983.75" y="784"/><text fill="#000000" font-family="sans-serif" font-size="12" lengthAdjust="spacingAndGlyphs" textLength="141" x="1986.75" y="800.1387">CollateralManagement</text></a><!--class Balance--><a target="_top" xlink:actuate="onRequest" xlink:href="../Balance.html" xlink:show="new" xlink:title="Numerical representation of the net increases and decreases in an account at a specific point in time." xlink:type="simple"><rect fill="#EEEEEE" filter="url(#fi1h1c03dp5kv)" height="23.9688" id="Balance" style="stroke: #A80036; stroke-width: 1.5;" width="56" x="2075.5" y="698"/><rect fill="#EEEEEE" height="23.9688" style="stroke: #A80036; stroke-width: 1.5;" width="56" x="2075.5" y="698"/><text fill="#000000" font-family="sans-serif" font-size="12" lengthAdjust="spacingAndGlyphs" textLength="50" x="2078.5" y="714.1387">Balance</text></a><!--class ChargePartyRole--><a target="_top" xlink:actuate="onRequest" xlink:href="../ChargePartyRole.html" xlink:show="new" xlink:title="Role played by a party in the context of a paymentof charges." xlink:type="simple"><rect fill="#EEEEEE" filter="url(#fi1h1c03dp5kv)" height="23.9688" id="ChargePartyRole" style="stroke: #A80036; stroke-width: 1.5;" width="110" x="1882" y="596"/><rect fill="#EEEEEE" height="23.9688" style="stroke: #A80036; stroke-width: 1.5;" width="110" x="1882" y="596"/><text fill="#000000" font-family="sans-serif" font-size="12" lengthAdjust="spacingAndGlyphs" textLength="104" x="1885" y="612.1387">ChargePartyRole</text></a><!--class DateTimePeriod--><a target="_top" xlink:actuate="onRequest" xlink:href="../DateTimePeriod.html" xlink:show="new" xlink:title="Time span defined by a start date and time, and an end date and time." xlink:type="simple"><rect fill="#EEEEEE" filter="url(#fi1h1c03dp5kv)" height="23.9688" id="DateTimePeriod" style="stroke: #A80036; stroke-width: 1.5;" width="105" x="1839.75" y="492"/><rect fill="#EEEEEE" height="23.9688" style="stroke: #A80036; stroke-width: 1.5;" width="105" x="1839.75" y="492"/><text fill="#000000" font-family="sans-serif" font-size="12" lengthAdjust="spacingAndGlyphs" textLength="99" x="1842.75" y="508.1387">DateTimePeriod</text></a><!--class CurrencyExchange--><a target="_top" xlink:actuate="onRequest" xlink:href="../CurrencyExchange.html" xlink:show="new" xlink:title="Information needed to process a currency exchange or conversion." xlink:type="simple"><rect fill="#EEEEEE" filter="url(#fi1h1c03dp5kv)" height="23.9688" id="CurrencyExchange" style="stroke: #A80036; stroke-width: 1.5;" width="122" x="1839" y="320"/><rect fill="#EEEEEE" height="23.9688" style="stroke: #A80036; stroke-width: 1.5;" width="122" x="1839" y="320"/><text fill="#000000" font-family="sans-serif" font-size="12" lengthAdjust="spacingAndGlyphs" textLength="116" x="1842" y="336.1387">CurrencyExchange</text></a><!--class SecuritiesOrder--><a target="_top" xlink:actuate="onRequest" xlink:href="../SecuritiesOrder.html" xlink:show="new" xlink:title="Intention to transfer an ownership of a financial instrument." xlink:type="simple"><rect fill="#EEEEEE" filter="url(#fi1h1c03dp5kv)" height="23.9688" id="SecuritiesOrder" style="stroke: #A80036; stroke-width: 1.5;" width="103" x="2027.75" y="596"/><rect fill="#EEEEEE" height="23.9688" style="stroke: #A80036; stroke-width: 1.5;" width="103" x="2027.75" y="596"/><text fill="#000000" font-family="sans-serif" font-size="12" lengthAdjust="spacingAndGlyphs" textLength="97" x="2030.75" y="612.1387">SecuritiesOrder</text></a><!--class Tax--><a target="_top" xlink:actuate="onRequest" xlink:href="../Tax.html" xlink:show="new" xlink:title="Amount of money due to the government or tax authority, according to various pre-defined parameters such as thresholds or income." xlink:type="simple"><rect fill="#EEEEEE" filter="url(#fi1h1c03dp5kv)" height="23.9688" id="Tax" style="stroke: #A80036; stroke-width: 1.5;" width="27" x="1979.75" y="492"/><rect fill="#EEEEEE" height="23.9688" style="stroke: #A80036; stroke-width: 1.5;" width="27" x="1979.75" y="492"/><text fill="#000000" font-family="sans-serif" font-size="12" lengthAdjust="spacingAndGlyphs" textLength="21" x="1982.75" y="508.1387">Tax</text></a><!--class CashAccount--><a target="_top" xlink:actuate="onRequest" xlink:href="../CashAccount.html" xlink:show="new" xlink:title="Account to or from which a cash entry is made." xlink:type="simple"><rect fill="#EEEEEE" filter="url(#fi1h1c03dp5kv)" height="23.9688" id="CashAccount" style="stroke: #A80036; stroke-width: 1.5;" width="88" x="860.5" y="870"/><rect fill="#EEEEEE" height="23.9688" style="stroke: #A80036; stroke-width: 1.5;" width="88" x="860.5" y="870"/><text fill="#000000" font-family="sans-serif" font-size="12" lengthAdjust="spacingAndGlyphs" textLength="82" x="863.5" y="886.1387">CashAccount</text></a><!--class CashEntry--><a target="_top" xlink:actuate="onRequest" xlink:href="../CashEntry.html" xlink:show="new" xlink:title="Posting of an item to a cash account, in the context of a cash transaction, that results in an increase or decrease to the balance of the account." xlink:type="simple"><rect fill="#EEEEEE" filter="url(#fi1h1c03dp5kv)" height="23.9688" id="CashEntry" style="stroke: #A80036; stroke-width: 1.5;" width="69" x="795.75" y="972"/><rect fill="#EEEEEE" height="23.9688" style="stroke: #A80036; stroke-width: 1.5;" width="69" x="795.75" y="972"/><text fill="#000000" font-family="sans-serif" font-size="12" lengthAdjust="spacingAndGlyphs" textLength="63" x="798.75" y="988.1387">CashEntry</text></a><!--class InvestmentFundTransaction--><a target="_top" xlink:actuate="onRequest" xlink:href="../InvestmentFundTransaction.html" xlink:show="new" xlink:title="Process of buying, selling, switching or transferring fund units." xlink:type="simple"><rect fill="#EEEEEE" filter="url(#fi1h1c03dp5kv)" height="23.9688" id="InvestmentFundTransaction" style="stroke: #A80036; stroke-width: 1.5;" width="180" x="645" y="870"/><rect fill="#EEEEEE" height="23.9688" style="stroke: #A80036; stroke-width: 1.5;" width="180" x="645" y="870"/><text fill="#000000" font-family="sans-serif" font-size="12" lengthAdjust="spacingAndGlyphs" textLength="174" x="648" y="886.1387">InvestmentFundTransaction</text></a><!--class Transport--><a target="_top" xlink:actuate="onRequest" xlink:href="../Transport.html" xlink:show="new" xlink:title="Moving of goods or people from one place to another by vehicle." xlink:type="simple"><rect fill="#EEEEEE" filter="url(#fi1h1c03dp5kv)" height="23.9688" id="Transport" style="stroke: #A80036; stroke-width: 1.5;" width="67" x="701.75" y="784"/><rect fill="#EEEEEE" height="23.9688" style="stroke: #A80036; stroke-width: 1.5;" width="67" x="701.75" y="784"/><text fill="#000000" font-family="sans-serif" font-size="12" lengthAdjust="spacingAndGlyphs" textLength="61" x="704.75" y="800.1387">Transport</text></a><!--class AccountService--><a target="_top" xlink:actuate="onRequest" xlink:href="../AccountService.html" xlink:show="new" xlink:title="Services linked to an account which are available to the account owner or to the holder of a mandate." xlink:type="simple"><rect fill="#EEEEEE" filter="url(#fi1h1c03dp5kv)" height="23.9688" id="AccountService" style="stroke: #A80036; stroke-width: 1.5;" width="102" x="645.5" y="698"/><rect fill="#EEEEEE" height="23.9688" style="stroke: #A80036; stroke-width: 1.5;" width="102" x="645.5" y="698"/><text fill="#000000" font-family="sans-serif" font-size="12" lengthAdjust="spacingAndGlyphs" textLength="96" x="648.5" y="714.1387">AccountService</text></a><!--class Undertaking--><a target="_top" xlink:actuate="onRequest" xlink:href="../Undertaking.html" xlink:show="new" xlink:title="Independent undertaking, such as a demand guarantee or standby letter of credit, that provides financial assurance, to be collected on the presentation of documents that comply with its terms and conditions." xlink:type="simple"><rect fill="#EEEEEE" filter="url(#fi1h1c03dp5kv)" height="23.9688" id="Undertaking" style="stroke: #A80036; stroke-width: 1.5;" width="83" x="654.75" y="596"/><rect fill="#EEEEEE" height="23.9688" style="stroke: #A80036; stroke-width: 1.5;" width="83" x="654.75" y="596"/><text fill="#000000" font-family="sans-serif" font-size="12" lengthAdjust="spacingAndGlyphs" textLength="77" x="657.75" y="612.1387">Undertaking</text></a><!--class InterestCalculation--><a target="_top" xlink:actuate="onRequest" xlink:href="../InterestCalculation.html" xlink:show="new" xlink:title="Set of parameters used to calculate an interest amount." xlink:type="simple"><rect fill="#EEEEEE" filter="url(#fi1h1c03dp5kv)" height="23.9688" id="InterestCalculation" style="stroke: #A80036; stroke-width: 1.5;" width="124" x="688.5" y="492"/><rect fill="#EEEEEE" height="23.9688" style="stroke: #A80036; stroke-width: 1.5;" width="124" x="688.5" y="492"/><text fill="#000000" font-family="sans-serif" font-size="12" lengthAdjust="spacingAndGlyphs" textLength="118" x="691.5" y="508.1387">InterestCalculation</text></a><!--link Adjustment to Charges--><path d="M308.034,194.079 C305.395,213.059 302.613,233.077 300.014,251.772 " fill="none" id="Adjustment-Charges" style="stroke: #A80036; stroke-width: 1.0;"/><polygon fill="none" points="301.138,192.848,310.825,174.002,315.004,194.776,301.138,192.848" style="stroke: #A80036; stroke-width: 1.0;"/><!--link Charges to SecuritiesRelatedFees--><path d="M341.468,429.952 C355.036,455.024 367.839,478.68 375.026,491.96 " fill="none" id="Charges-SecuritiesRelatedFees" style="stroke: #A80036; stroke-width: 1.0;"/><polygon fill="none" points="335.131,432.949,331.768,412.028,347.443,426.286,335.131,432.949" style="stroke: #A80036; stroke-width: 1.0;"/><!--link Charges to CorporateActionFeesAndCharges--><path d="M219.905,428.497 C201.376,454.106 183.782,478.424 173.987,491.96 " fill="none" id="Charges-CorporateActionFeesAndCharges" style="stroke: #A80036; stroke-width: 1.0;"/><polygon fill="none" points="214.426,424.128,231.821,412.028,225.769,432.335,214.426,424.128" style="stroke: #A80036; stroke-width: 1.0;"/><!--link LineItem to Payment--><!--link Price to LineItem--><!--link CollateralManagement to Price--><!--link Balance to CollateralManagement--><!--link ChargePartyRole to Balance--><!--link DateTimePeriod to ChargePartyRole--><!--link CurrencyExchange to DateTimePeriod--><!--link SecuritiesOrder to CurrencyExchange--><!--link Tax to SecuritiesOrder--><!--link CashEntry to CashAccount--><!--link CashAccount to CashEntry--><path d="M862.172,894.073 C847.139,900.291 831.748,909.767 823,924 C815.085,936.8781 818.525,954.3463 822.915,966.9292 " fill="none" id="CashAccount-CashEntry" style="stroke: #A80036; stroke-width: 1.0;"/><polygon fill="#A80036" points="824.688,971.6597,825.2734,961.8283,822.9325,966.978,817.7827,964.6371,824.688,971.6597" style="stroke: #A80036; stroke-width: 1.0;"/><text fill="#000000" font-family="sans-serif" font-size="13" lengthAdjust="spacingAndGlyphs" textLength="65" x="824" y="937.0669">CashEntry</text><text fill="#000000" font-family="sans-serif" font-size="13" lengthAdjust="spacingAndGlyphs" textLength="7" x="813.355" y="960.8504">*</text><!--link InvestmentFundTransaction to CashEntry--><!--link Transport to InvestmentFundTransaction--><!--link AccountService to Transport--><!--link Undertaking to AccountService--><!--link InterestCalculation to Undertaking--><!--link Adjustment to Payment--><path d="M454.095,107 C811.29,107 1771.88,107 1967.1,107 " fill="none" id="Adjustment-Payment" style="stroke: #A80036; stroke-width: 1.0;"/><polygon fill="#A80036" points="1972.38,107,1963.38,103,1967.38,107,1963.38,111,1972.38,107" style="stroke: #A80036; stroke-width: 1.0;"/><text fill="#000000" font-family="sans-serif" font-size="13" lengthAdjust="spacingAndGlyphs" textLength="57" x="1184" y="99.0669">Payment</text><text fill="#000000" font-family="sans-serif" font-size="13" lengthAdjust="spacingAndGlyphs" textLength="7" x="1957.5642" y="101.4096">*</text><!--link Adjustment to LineItem--><path d="M454.112,110.222 C791.382,116.717 1668.15,139.47 1952,204 C1972.6,208.684 1975.39,217.328 1996,222 C2052.44,234.798 2471.09,215.498 2516,252 C2624.6,340.263 2598,416.06 2598,556 C2598,556 2598,556 2598,883 C2598,949.3327 2087.13,975.7265 1949.05,981.649 " fill="none" id="Adjustment-LineItem" style="stroke: #A80036; stroke-width: 1.0;"/><polygon fill="#A80036" points="1943.91,981.8673,1953.0732,985.4779,1948.9054,981.653,1952.7303,977.4853,1943.91,981.8673" style="stroke: #A80036; stroke-width: 1.0;"/><text fill="#000000" font-family="sans-serif" font-size="13" lengthAdjust="spacingAndGlyphs" textLength="103" x="2599" y="663.0669">RelatedLineItem</text><text fill="#000000" font-family="sans-serif" font-size="13" lengthAdjust="spacingAndGlyphs" textLength="24" x="1952.7497" y="975.6262">0..1</text><!--link Adjustment to Price--><path d="M454.07,110.458 C785.272,117.434 1635.23,141.088 1911,204 C1931.6,208.699 1934.4,217.297 1955,222 C2008.61,234.241 2406.92,216.598 2449,252 C2588.68,369.516 2511,475.464 2511,658 C2511,658 2511,658 2511,797 C2511,841.252 2173.19,871.663 2080.36,879.185 " fill="none" id="Adjustment-Price" style="stroke: #A80036; stroke-width: 1.0;"/><polygon fill="#A80036" points="2075.36,879.587,2084.6511,882.8542,2080.344,879.187,2084.0112,874.8799,2075.36,879.587" style="stroke: #A80036; stroke-width: 1.0;"/><text fill="#000000" font-family="sans-serif" font-size="13" lengthAdjust="spacingAndGlyphs" textLength="31" x="2514" y="612.0669">Price</text><text fill="#000000" font-family="sans-serif" font-size="13" lengthAdjust="spacingAndGlyphs" textLength="24" x="2083.8284" y="872.6077">0..1</text><!--link Adjustment to CollateralManagement--><path d="M454.257,110.983 C779.082,119.061 1600.31,144.852 1868,204 C1889.44,208.737 1892.57,217.222 1914,222 C1963.45,233.028 2329.36,220.452 2369,252 C2471.68,333.708 2522.11,442.761 2434,540 C2421.85,553.404 2369.65,540.938 2353,548 C2242.98,594.661 2240.17,645.936 2148,722 C2122.87,742.734 2093.4,766.229 2074.96,780.832 " fill="none" id="Adjustment-CollateralManagement" style="stroke: #A80036; stroke-width: 1.0;"/><polygon fill="#A80036" points="2070.97,783.988,2080.5109,781.5445,2074.8924,780.8872,2075.5497,775.2687,2070.97,783.988" style="stroke: #A80036; stroke-width: 1.0;"/><text fill="#000000" font-family="sans-serif" font-size="13" lengthAdjust="spacingAndGlyphs" textLength="145" x="2354" y="561.0669">CollateralManagement</text><text fill="#000000" font-family="sans-serif" font-size="13" lengthAdjust="spacingAndGlyphs" textLength="8" x="2064.9675" y="773.0321">1</text><!--link Adjustment to Balance--><path d="M454.054,112.799 C769.807,124.722 1553.15,158.074 1812,204 C1839.83,208.938 1845.19,216.961 1873,222 C1964.85,238.64 2216.5,197.108 2292,252 C2371.73,309.965 2432.84,384.89 2369,460 C2354.71,476.813 2339.37,457.425 2320,468 C2216.78,524.363 2137.53,649.205 2111.85,693.245 " fill="none" id="Adjustment-Balance" style="stroke: #A80036; stroke-width: 1.0;"/><polygon fill="#A80036" points="2109.26,697.73,2117.2264,691.939,2111.7617,693.4009,2110.2998,687.9362,2109.26,697.73" style="stroke: #A80036; stroke-width: 1.0;"/><text fill="#000000" font-family="sans-serif" font-size="13" lengthAdjust="spacingAndGlyphs" textLength="107" x="2321" y="508.0669">AdjustedBalance</text><text fill="#000000" font-family="sans-serif" font-size="13" lengthAdjust="spacingAndGlyphs" textLength="8" x="2100.5118" y="686.944">1</text><!--link Adjustment to ChargePartyRole--><path d="M454.048,109.898 C707.774,115.064 1275.09,134.132 1747,204 C1782.19,209.211 1789.82,216.723 1825,222 C1871.49,228.973 2214.96,217.603 2247,252 C2310.19,319.846 2291.75,389.956 2231,460 C2165.86,535.104 2053.23,576.065 1987.91,594.572 " fill="none" id="Adjustment-ChargePartyRole" style="stroke: #A80036; stroke-width: 1.0;"/><polygon fill="#A80036" points="1982.9,595.973,1992.6476,597.3818,1987.7125,594.6168,1990.4776,589.6817,1982.9,595.973" style="stroke: #A80036; stroke-width: 1.0;"/><text fill="#000000" font-family="sans-serif" font-size="13" lengthAdjust="spacingAndGlyphs" textLength="113" x="2246" y="455.0669">ChargesPartyRole</text><text fill="#000000" font-family="sans-serif" font-size="13" lengthAdjust="spacingAndGlyphs" textLength="7" x="1989.1313" y="585.0119">*</text><!--link Adjustment to DateTimePeriod--><path d="M454.02,150.754 C685.433,223.252 1175.85,371.072 1599,460 C1679.95,477.013 1774.88,489.626 1834.25,496.649 " fill="none" id="Adjustment-DateTimePeriod" style="stroke: #A80036; stroke-width: 1.0;"/><polygon fill="#A80036" points="1839.52,497.27,1831.0505,492.2433,1834.5544,496.6843,1830.1134,500.1882,1839.52,497.27" style="stroke: #A80036; stroke-width: 1.0;"/><text fill="#000000" font-family="sans-serif" font-size="13" lengthAdjust="spacingAndGlyphs" textLength="94" x="1385" y="336.0669">EffectivePeriod</text><text fill="#000000" font-family="sans-serif" font-size="13" lengthAdjust="spacingAndGlyphs" textLength="8" x="1823.845" y="491.5854">1</text><!--link Adjustment to CurrencyExchange--><path d="M454.141,112.037 C727.881,121.332 1342.03,147.893 1544,204 C1561.24,208.788 1563.5,215.1 1580,222 C1632.15,243.803 1787,294.508 1860.47,318.276 " fill="none" id="Adjustment-CurrencyExchange" style="stroke: #A80036; stroke-width: 1.0;"/><polygon fill="#A80036" points="1865.61,319.94,1858.2651,313.3785,1860.8497,318.4104,1855.8178,320.995,1865.61,319.94" style="stroke: #A80036; stroke-width: 1.0;"/><text fill="#000000" font-family="sans-serif" font-size="13" lengthAdjust="spacingAndGlyphs" textLength="119" x="1581" y="217.0669">CurrencyExchange</text><text fill="#000000" font-family="sans-serif" font-size="13" lengthAdjust="spacingAndGlyphs" textLength="8" x="1843.0697" y="308.9676">1</text><!--link Adjustment to SecuritiesOrder--><path d="M454.257,111.858 C754.15,121.357 1470.57,149.189 1706,204 C1726.58,208.791 1729.43,217.18 1750,222 C1795.12,232.572 2134.43,218.073 2166,252 C2214.44,304.06 2199.55,349.303 2166,412 C2154.66,433.193 2134.89,422.381 2121,442 C2087.9,488.753 2080.85,559.273 2079.37,590.787 " fill="none" id="Adjustment-SecuritiesOrder" style="stroke: #A80036; stroke-width: 1.0;"/><polygon fill="#A80036" points="2079.17,595.852,2083.529,587.0203,2079.3713,590.8561,2075.5355,586.6983,2079.17,595.852" style="stroke: #A80036; stroke-width: 1.0;"/><text fill="#000000" font-family="sans-serif" font-size="13" lengthAdjust="spacingAndGlyphs" textLength="99" x="2122" y="455.0669">SecuritiesOrder</text><text fill="#000000" font-family="sans-serif" font-size="13" lengthAdjust="spacingAndGlyphs" textLength="8" x="2068.4238" y="584.8493">1</text><!--link Adjustment to Tax--><path d="M454.267,109.164 C675.059,114.45 1126.47,139.524 1489,252 C1636.33,297.71 1655.11,351.482 1797,412 C1868.23,442.382 1897.5,425.136 1962,468 C1969.84,473.209 1976.93,480.878 1982.35,487.711 " fill="none" id="Adjustment-Tax" style="stroke: #A80036; stroke-width: 1.0;"/><polygon fill="#A80036" points="1985.5,491.828,1983.2101,482.249,1982.4626,487.8563,1976.8554,487.1088,1985.5,491.828" style="stroke: #A80036; stroke-width: 1.0;"/><text fill="#000000" font-family="sans-serif" font-size="13" lengthAdjust="spacingAndGlyphs" textLength="22" x="1798" y="336.0669">Tax</text><text fill="#000000" font-family="sans-serif" font-size="13" lengthAdjust="spacingAndGlyphs" textLength="24" x="1953.3672" y="480.8171">0..1</text><!--link Charges to CashAccount--><path d="M454.047,358.406 C625.343,385.291 874.213,426 917,442 C937.918,449.822 945.303,451.184 960,468 C1022.89,539.962 1086.8,585.24 1039,668 C1025.66,691.105 1004.925,678.237 987,698 C940.727,749.019 916.46,830.193 907.779,864.661 " fill="none" id="Charges-CashAccount" style="stroke: #A80036; stroke-width: 1.0;"/><polygon fill="#A80036" points="906.518,869.781,912.5539,861.9985,907.7135,864.926,904.786,860.0856,906.518,869.781" style="stroke: #A80036; stroke-width: 1.0;"/><text fill="#000000" font-family="sans-serif" font-size="13" lengthAdjust="spacingAndGlyphs" textLength="139" x="1049" y="663.0669">ChargesDebitAccount</text><text fill="#000000" font-family="sans-serif" font-size="13" lengthAdjust="spacingAndGlyphs" textLength="7" x="897.6958" y="859.0119">*</text><!--link Charges to CashEntry--><path d="M123.968,371.746 C61.8739,396.982 6,437.804 6,503 C6,503 6,503 6,883 C6,963.0102 626.153,979.4588 790.453,982.4126 " fill="none" id="Charges-CashEntry" style="stroke: #A80036; stroke-width: 1.0;"/><polygon fill="#A80036" points="795.643,982.5041,786.7141,978.3479,790.6438,982.417,786.5747,986.3466,795.643,982.5041" style="stroke: #A80036; stroke-width: 1.0;"/><text fill="#000000" font-family="sans-serif" font-size="13" lengthAdjust="spacingAndGlyphs" textLength="65" x="7" y="714.0669">CashEntry</text><text fill="#000000" font-family="sans-serif" font-size="13" lengthAdjust="spacingAndGlyphs" textLength="8" x="779.8355" y="976.867">1</text><!--link Charges to InvestmentFundTransaction--><path d="M454.16,355.158 C600.452,376.328 801.952,409.706 876,442 C893.762,449.747 900.068,452 911,468 C950.108,525.239 986.627,563.829 946,620 C921.043,654.506 886.56,621.408 855,650 C798.08,701.567 822.414,740.923 785,808 C773.472,828.668 757.71,850.899 746.986,865.325 " fill="none" id="Charges-InvestmentFundTransaction" style="stroke: #A80036; stroke-width: 1.0;"/><polygon fill="#A80036" points="743.83,869.542,752.4251,864.7332,746.8259,865.5389,746.0201,859.9397,743.83,869.542" style="stroke: #A80036; stroke-width: 1.0;"/><text fill="#000000" font-family="sans-serif" font-size="13" lengthAdjust="spacingAndGlyphs" textLength="177" x="856" y="663.0669">InvestmentFundTransaction</text><text fill="#000000" font-family="sans-serif" font-size="13" lengthAdjust="spacingAndGlyphs" textLength="24" x="717.5008" y="858.9547">0..1</text><!--link Charges to LineItem--><path d="M454.151,363.136 C550.618,379.764 674.868,399.514 786,412 C836.128,417.632 1197.96,412.668 1239,442 C1348.73,520.427 1275.3,613.936 1356,722 C1379.16,753.006 1590.55,926.492 1626,942 C1712.13,979.6738 1825.2,984.2765 1880.93,983.9551 " fill="none" id="Charges-LineItem" style="stroke: #A80036; stroke-width: 1.0;"/><polygon fill="#A80036" points="1886.14,983.9095,1877.0949,980.0126,1881.1403,983.9666,1877.1863,988.0121,1886.14,983.9095" style="stroke: #A80036; stroke-width: 1.0;"/><text fill="#000000" font-family="sans-serif" font-size="13" lengthAdjust="spacingAndGlyphs" textLength="156" x="1357" y="714.0669">LogisticsChargeLineItem</text><text fill="#000000" font-family="sans-serif" font-size="13" lengthAdjust="spacingAndGlyphs" textLength="24" x="1854.3889" y="978.6204">0..1</text><!--link Charges to LineItem--><path d="M454.128,363.343 C550.587,380.041 674.837,399.791 786,412 C894.441,423.91 1173.04,405.944 1276,442 C1294.97,448.643 1297.73,454.93 1313,468 C1432.15,569.998 1439.81,618.89 1558,722 C1677.26,826.04 1835.92,931.7513 1893.21,968.9895 " fill="none" id="Charges-LineItem" style="stroke: #A80036; stroke-width: 1.0;"/><polygon fill="#A80036" points="1897.48,971.7592,1892.117,963.4986,1893.2888,969.0327,1887.7546,970.2045,1897.48,971.7592" style="stroke: #A80036; stroke-width: 1.0;"/><text fill="#000000" font-family="sans-serif" font-size="13" lengthAdjust="spacingAndGlyphs" textLength="55" x="1559" y="714.0669">LineItem</text><text fill="#000000" font-family="sans-serif" font-size="13" lengthAdjust="spacingAndGlyphs" textLength="8" x="1880.8546" y="960.9829">1</text><!--link Charges to LineItem--><path d="M454.218,359.26 C649.226,390.333 948.82,438.351 961,442 C1095.25,482.224 1144.91,520.3 1198,650 C1201.03,657.404 1200.57,660.424 1198,668 C1192.6,683.91 1180.4,682.09 1175,698 C1171.57,708.101 1169.5,712.86 1175,722 C1282.63,900.875 1390.97,879.018 1590,942 C1692.63,974.4774 1821.17,981.3424 1881.2,982.7149 " fill="none" id="Charges-LineItem" style="stroke: #A80036; stroke-width: 1.0;"/><polygon fill="#A80036" points="1886.44,982.8247,1877.5218,978.6455,1881.441,982.7247,1877.3618,986.6439,1886.44,982.8247" style="stroke: #A80036; stroke-width: 1.0;"/><text fill="#000000" font-family="sans-serif" font-size="13" lengthAdjust="spacingAndGlyphs" textLength="155" x="1176" y="714.0669">NetPriceChargeLineItem</text><text fill="#000000" font-family="sans-serif" font-size="13" lengthAdjust="spacingAndGlyphs" textLength="24" x="1854.4738" y="995.9527">0..1</text><!--link Charges to Transport--><path d="M454.071,339.27 C567.696,349.741 718.705,376.231 836,442 C888.277,471.313 908.798,509.43 889,566 C873.226,611.074 849.234,610.772 822,650 C790.636,695.178 758.585,751.885 743.649,779.053 " fill="none" id="Charges-Transport" style="stroke: #A80036; stroke-width: 1.0;"/><polygon fill="#A80036" points="741.064,783.773,748.8964,777.802,743.4665,779.388,741.8804,773.958,741.064,783.773" style="stroke: #A80036; stroke-width: 1.0;"/><text fill="#000000" font-family="sans-serif" font-size="13" lengthAdjust="spacingAndGlyphs" textLength="61" x="875" y="612.0669">Transport</text><text fill="#000000" font-family="sans-serif" font-size="13" lengthAdjust="spacingAndGlyphs" textLength="24" x="713.6836" y="773.0012">0..1</text><!--link Charges to AccountService--><path d="M454.237,351.622 C595.628,371.428 783.228,408.277 828,468 C847.194,493.604 838.416,509.743 828,540 C805.037,606.705 743.745,667.255 713.449,694.214 " fill="none" id="Charges-AccountService" style="stroke: #A80036; stroke-width: 1.0;"/><polygon fill="#A80036" points="709.562,697.639,718.9584,694.6881,713.3127,694.3326,713.6682,688.687,709.562,697.639" style="stroke: #A80036; stroke-width: 1.0;"/><text fill="#000000" font-family="sans-serif" font-size="13" lengthAdjust="spacingAndGlyphs" textLength="54" x="826" y="561.0669">Services</text><text fill="#000000" font-family="sans-serif" font-size="13" lengthAdjust="spacingAndGlyphs" textLength="24" x="684.5825" y="686.8229">0..1</text><!--link Charges to Undertaking--><path d="M401.91,412.337 C425.301,429.985 449.387,449.088 471,468 C504.588,497.39 504.259,514.662 541,540 C576.507,564.487 622.398,582.958 655.009,594.24 " fill="none" id="Charges-Undertaking" style="stroke: #A80036; stroke-width: 1.0;"/><polygon fill="#A80036" points="660.126,595.989,652.9034,589.2932,655.3947,594.3719,650.316,596.8633,660.126,595.989" style="stroke: #A80036; stroke-width: 1.0;"/><text fill="#000000" font-family="sans-serif" font-size="13" lengthAdjust="spacingAndGlyphs" textLength="126" x="542" y="508.0669">RelatedUndertaking</text><text fill="#000000" font-family="sans-serif" font-size="13" lengthAdjust="spacingAndGlyphs" textLength="8" x="638.5318" y="585.7995">1</text><!--link Charges to InterestCalculation--><path d="M454.161,391.874 C518.814,415.198 593.52,442.492 661,468 C679.719,475.076 700.541,483.248 717.335,489.914 " fill="none" id="Charges-InterestCalculation" style="stroke: #A80036; stroke-width: 1.0;"/><polygon fill="#A80036" points="722.411,491.932,715.5257,484.8898,717.7648,490.0847,712.5699,492.3238,722.411,491.932" style="stroke: #A80036; stroke-width: 1.0;"/><text fill="#000000" font-family="sans-serif" font-size="13" lengthAdjust="spacingAndGlyphs" textLength="97" x="632" y="455.0669">RelatedInterest</text><text fill="#000000" font-family="sans-serif" font-size="13" lengthAdjust="spacingAndGlyphs" textLength="7" x="703.2085" y="480.9568">*</text><!--link Payment to Tax--><path d="M2020.97,119.053 C2050.97,138.1 2104.3,179.2 2087,222 C2080.05,239.192 2067.07,235.824 2058,252 C2034.69,293.579 2005.46,438.145 1996.06,486.844 " fill="none" id="Payment-Tax" style="stroke: #A80036; stroke-width: 1.0;"/><polygon fill="#A80036" points="1995.11,491.776,2000.7364,483.6925,1996.0535,486.8658,1992.8802,482.1829,1995.11,491.776" style="stroke: #A80036; stroke-width: 1.0;"/><text fill="#000000" font-family="sans-serif" font-size="13" lengthAdjust="spacingAndGlyphs" textLength="97" x="2059" y="336.0669">TaxOnPayment</text><text fill="#000000" font-family="sans-serif" font-size="13" lengthAdjust="spacingAndGlyphs" textLength="7" x="1986.2355" y="481.0052">*</text><!--link Payment to CurrencyExchange--><path d="M1996.94,119.059 C1980.22,155.616 1926.68,272.665 1907.19,315.287 " fill="none" id="Payment-CurrencyExchange" style="stroke: #A80036; stroke-width: 1.0;"/><polygon fill="#A80036" points="1905.09,319.875,1912.4736,313.3572,1907.1715,315.3289,1905.1998,310.0268,1905.09,319.875" style="stroke: #A80036; stroke-width: 1.0;"/><text fill="#000000" font-family="sans-serif" font-size="13" lengthAdjust="spacingAndGlyphs" textLength="119" x="1958" y="217.0669">CurrencyExchange</text><text fill="#000000" font-family="sans-serif" font-size="13" lengthAdjust="spacingAndGlyphs" textLength="7" x="1897.2928" y="308.8802">*</text><!--link Payment to Payment--><path d="M2015.83,94.889 C2037.83,81.432 2066,85.469 2066,107 C2066,127.101 2041.45,131.955 2020.28,121.561 " fill="none" id="Payment-Payment" style="stroke: #A80036; stroke-width: 1.0;"/><polygon fill="#A80036" points="2015.83,119.111,2021.8017,126.9429,2020.2152,121.5131,2025.645,119.9266,2015.83,119.111" style="stroke: #A80036; stroke-width: 1.0;"/><text fill="#000000" font-family="sans-serif" font-size="13" lengthAdjust="spacingAndGlyphs" textLength="105" x="2072" y="111.0669">OriginalPayment</text><text fill="#000000" font-family="sans-serif" font-size="13" lengthAdjust="spacingAndGlyphs" textLength="8" x="2010.1099" y="138.932">1</text><!--link Payment to CashAccount--><path d="M1985.07,119.129 C1951.55,141.653 1875.37,195.339 1822,252 C1762.31,315.373 1763.62,344.212 1709,412 C1591.76,557.495 1583.05,622.322 1425,722 C1269.4,820.131 1049.46,860.934 952.792,874.873 " fill="none" id="Payment-CashAccount" style="stroke: #A80036; stroke-width: 1.0;"/><polygon fill="#A80036" points="947.722,875.595,957.1965,878.2847,952.6719,874.8893,956.0673,870.3648,947.722,875.595" style="stroke: #A80036; stroke-width: 1.0;"/><text fill="#000000" font-family="sans-serif" font-size="13" lengthAdjust="spacingAndGlyphs" textLength="52" x="1574" y="612.0669">Account</text><text fill="#000000" font-family="sans-serif" font-size="13" lengthAdjust="spacingAndGlyphs" textLength="8" x="956.4286" y="868.9289">1</text><!--link DateTimePeriod to InterestCalculation--><path d="M1839.44,504 C1653.11,504 1024.25,504 816.921,504 " fill="none" id="DateTimePeriod-InterestCalculation" style="stroke: #A80036; stroke-width: 1.0;"/><polygon fill="#A80036" points="811.804,504,820.804,508,816.804,504,820.804,500,811.804,504" style="stroke: #A80036; stroke-width: 1.0;"/><text fill="#000000" font-family="sans-serif" font-size="13" lengthAdjust="spacingAndGlyphs" textLength="167" x="1241.25" y="496.0669">RelatedInterestCalculation</text><text fill="#000000" font-family="sans-serif" font-size="13" lengthAdjust="spacingAndGlyphs" textLength="8" x="820.5792" y="498.9357">1</text><!--link CurrencyExchange to CashEntry--><path d="M1892.27,344.036 C1876.88,366.432 1842.2,419.236 1822,468 C1777.27,575.966 1834.4,637.19 1754,722 C1627.14,855.808 1029.53,953.259 869.5,977.2668 " fill="none" id="CurrencyExchange-CashEntry" style="stroke: #A80036; stroke-width: 1.0;"/><polygon fill="#A80036" points="864.443,978.0228,873.9359,980.6468,869.3879,977.2828,872.7519,972.7349,864.443,978.0228" style="stroke: #A80036; stroke-width: 1.0;"/><text fill="#000000" font-family="sans-serif" font-size="13" lengthAdjust="spacingAndGlyphs" textLength="204" x="1775" y="714.0669">CurrencyExchangeForCashEntry</text><text fill="#000000" font-family="sans-serif" font-size="13" lengthAdjust="spacingAndGlyphs" textLength="7" x="872.6883" y="970.9408">*</text><!--link CurrencyExchange to Tax--><path d="M1906.1,344.154 C1922.12,373.443 1965.45,452.631 1984.17,486.868 " fill="none" id="CurrencyExchange-Tax" style="stroke: #A80036; stroke-width: 1.0;"/><polygon fill="#A80036" points="1986.75,491.582,1985.9385,481.7666,1984.3497,487.1958,1978.9206,485.6071,1986.75,491.582" style="stroke: #A80036; stroke-width: 1.0;"/><text fill="#000000" font-family="sans-serif" font-size="13" lengthAdjust="spacingAndGlyphs" textLength="22" x="1969" y="455.0669">Tax</text><text fill="#000000" font-family="sans-serif" font-size="13" lengthAdjust="spacingAndGlyphs" textLength="8" x="1963.6625" y="497.7248">1</text><!--link Tax to CashAccount--><path d="M1984.91,516.02 C1979.1,523.417 1970.78,533.045 1962,540 C1945.28,553.243 1643.35,713.036 1624,722 C1493.62,782.393 1462.72,806.462 1323,840 C1191.73,871.508 1031.78,878.893 952.86,880.563 " fill="none" id="Tax-CashAccount" style="stroke: #A80036; stroke-width: 1.0;"/><polygon fill="#A80036" points="947.78,880.665,956.8593,884.4816,952.779,880.5636,956.697,876.4832,947.78,880.665" style="stroke: #A80036; stroke-width: 1.0;"/><text fill="#000000" font-family="sans-serif" font-size="13" lengthAdjust="spacingAndGlyphs" textLength="74" x="1670" y="714.0669">TaxAccount</text><text fill="#000000" font-family="sans-serif" font-size="13" lengthAdjust="spacingAndGlyphs" textLength="7" x="956.4051" y="893.8837">*</text></g></svg>