<?xml version="1.0" encoding="UTF-8" standalone="no"?><svg xmlns="http://www.w3.org/2000/svg" xmlns:xlink="http://www.w3.org/1999/xlink" contentScriptType="application/ecmascript" contentStyleType="text/css" height="480px" preserveAspectRatio="none" style="width:560px;height:480px;" version="1.1" viewBox="0 0 560 480" width="560px" zoomAndPan="magnify"><defs><filter height="300%" id="fxg8spsgrfxp7" width="300%" x="-1" y="-1"><feGaussianBlur result="blurOut" stdDeviation="2.0"/><feColorMatrix in="blurOut" result="blurOut2" type="matrix" values="0 0 0 0 0 0 0 0 0 0 0 0 0 0 0 0 0 0 .4 0"/><feOffset dx="4.0" dy="4.0" in="blurOut2" result="blurOut3"/><feBlend in="SourceGraphic" in2="blurOut3" mode="normal"/></filter></defs><g><!--cluster ##10687--><!--cluster ##10693--><!--cluster ##10702--><!--class Role--><a target="_top" xlink:actuate="onRequest" xlink:href="../Role.html" xlink:show="new" xlink:title="Role of a party in an activity." xlink:type="simple"><rect fill="#FEFEEE" filter="url(#fxg8spsgrfxp7)" height="44.7734" id="Role" style="stroke: #A80036; stroke-width: 1.5;" width="175" x="38.75" y="40.5"/><rect fill="#FEFEEE" height="23.9688" style="stroke: #A80036; stroke-width: 1.5;" width="175" x="38.75" y="40.5"/><text fill="#000000" font-family="sans-serif" font-size="12" lengthAdjust="spacingAndGlyphs" textLength="27" x="112.75" y="56.6387">Role</text><line style="stroke: #A80036; stroke-width: 1.5;" x1="39.75" x2="212.75" y1="64.4688" y2="64.4688"/><ellipse cx="49.75" cy="76.3711" fill="#84BE84" rx="3" ry="3" style="stroke: #038048; stroke-width: 1.0;"/><text fill="#000000" font-family="sans-serif" font-size="11" lengthAdjust="spacingAndGlyphs" textLength="53" x="58.75" y="78.6792">PartyRole</text><text fill="#000000" font-family="sans-serif" font-size="11" font-style="italic" lengthAdjust="spacingAndGlyphs" textLength="92" x="115.75" y="78.6792">(PartyRoleCode)</text></a><!--class ChequePartyRole--><a target="_top" xlink:actuate="onRequest" xlink:href="../ChequePartyRole.html" xlink:show="new" xlink:title="Role played by a party in the context of a payment by cheque." xlink:type="simple"><rect fill="#FEFECE" filter="url(#fxg8spsgrfxp7)" height="23.9688" id="ChequePartyRole" style="stroke: #A80036; stroke-width: 1.5;" width="113" x="38.75" y="166"/><rect fill="#FEFECE" height="23.9688" style="stroke: #A80036; stroke-width: 1.5;" width="113" x="38.75" y="166"/><text fill="#000000" font-family="sans-serif" font-size="12" lengthAdjust="spacingAndGlyphs" textLength="107" x="41.75" y="182.1387">ChequePartyRole</text></a><!--class RolePlayer--><a target="_top" xlink:actuate="onRequest" xlink:href="../RolePlayer.html" xlink:show="new" xlink:title="Type of entity that plays a specific role in a specific context." xlink:type="simple"><rect fill="#EEEEEE" filter="url(#fxg8spsgrfxp7)" height="23.9688" id="RolePlayer" style="stroke: #A80036; stroke-width: 1.5;" width="71" x="430.75" y="446"/><rect fill="#EEEEEE" height="23.9688" style="stroke: #A80036; stroke-width: 1.5;" width="71" x="430.75" y="446"/><text fill="#000000" font-family="sans-serif" font-size="12" lengthAdjust="spacingAndGlyphs" textLength="65" x="433.75" y="462.1387">RolePlayer</text></a><!--class ContactPersonRole--><a target="_top" xlink:actuate="onRequest" xlink:href="../ContactPersonRole.html" xlink:show="new" xlink:title="Person to be contacted in a given organisation. In the corporate action domain (including meeting notifications) , it is the contact person at the party organising the meeting, at the issuer or at an intermediary." xlink:type="simple"><rect fill="#EEEEEE" filter="url(#fxg8spsgrfxp7)" height="23.9688" id="ContactPersonRole" style="stroke: #A80036; stroke-width: 1.5;" width="126" x="423" y="360"/><rect fill="#EEEEEE" height="23.9688" style="stroke: #A80036; stroke-width: 1.5;" width="126" x="423" y="360"/><text fill="#000000" font-family="sans-serif" font-size="12" lengthAdjust="spacingAndGlyphs" textLength="120" x="426" y="376.1387">ContactPersonRole</text></a><!--class CounterpartyRisk--><a target="_top" xlink:actuate="onRequest" xlink:href="../CounterpartyRisk.html" xlink:show="new" xlink:title="Calculation of the exposure amount that one party has vis-a-vis one counterparty or a central system, based on its credit risk." xlink:type="simple"><rect fill="#EEEEEE" filter="url(#fxg8spsgrfxp7)" height="23.9688" id="CounterpartyRisk" style="stroke: #A80036; stroke-width: 1.5;" width="113" x="429.75" y="272"/><rect fill="#EEEEEE" height="23.9688" style="stroke: #A80036; stroke-width: 1.5;" width="113" x="429.75" y="272"/><text fill="#000000" font-family="sans-serif" font-size="12" lengthAdjust="spacingAndGlyphs" textLength="107" x="432.75" y="288.1387">CounterpartyRisk</text></a><!--class Entry--><a target="_top" xlink:actuate="onRequest" xlink:href="../Entry.html" xlink:show="new" xlink:title="Posting to an account that results in an increase or decrease to a balance." xlink:type="simple"><rect fill="#EEEEEE" filter="url(#fxg8spsgrfxp7)" height="23.9688" id="Entry" style="stroke: #A80036; stroke-width: 1.5;" width="38" x="511" y="166"/><rect fill="#EEEEEE" height="23.9688" style="stroke: #A80036; stroke-width: 1.5;" width="38" x="511" y="166"/><text fill="#000000" font-family="sans-serif" font-size="12" lengthAdjust="spacingAndGlyphs" textLength="32" x="514" y="182.1387">Entry</text></a><!--class Cheque--><a target="_top" xlink:actuate="onRequest" xlink:href="../Cheque.html" xlink:show="new" xlink:title="Negotiable instrument instructing a financial institution to pay a specific amount of a specific currency from the account of the drawer with that institution." xlink:type="simple"><rect fill="#EEEEEE" filter="url(#fxg8spsgrfxp7)" height="23.9688" id="Cheque" style="stroke: #A80036; stroke-width: 1.5;" width="54" x="68" y="272"/><rect fill="#EEEEEE" height="23.9688" style="stroke: #A80036; stroke-width: 1.5;" width="54" x="68" y="272"/><text fill="#000000" font-family="sans-serif" font-size="12" lengthAdjust="spacingAndGlyphs" textLength="48" x="71" y="288.1387">Cheque</text></a><!--link Role to ChequePartyRole--><path d="M114.784,104.885 C108.815,126.643 101.9263,151.753 98.0548,165.865 " fill="none" id="Role-ChequePartyRole" style="stroke: #A80036; stroke-width: 1.0;"/><polygon fill="none" points="108.054,102.956,120.096,85.52,121.555,106.66,108.054,102.956" style="stroke: #A80036; stroke-width: 1.0;"/><!--link ContactPersonRole to RolePlayer--><!--link CounterpartyRisk to ContactPersonRole--><!--link Entry to CounterpartyRisk--><!--link Role to RolePlayer--><path d="M153.187,85.563 C176.039,106.299 205,139.898 205,177 C205,177 205,177 205,373 C205,418.7304 352.025,443.1339 425.378,452.4635 " fill="none" id="Role-RolePlayer" style="stroke: #A80036; stroke-width: 1.0;"/><polygon fill="#A80036" points="430.529,453.1092,422.0959,448.0216,425.5678,452.4878,421.1016,455.9596,430.529,453.1092" style="stroke: #A80036; stroke-width: 1.0;"/><text fill="#000000" font-family="sans-serif" font-size="13" lengthAdjust="spacingAndGlyphs" textLength="39" x="206" y="288.0669">Player</text><text fill="#000000" font-family="sans-serif" font-size="13" lengthAdjust="spacingAndGlyphs" textLength="7" x="415.8674" y="446.9718">*</text><!--link Role to ContactPersonRole--><path d="M190.069,85.516 C205.189,93.142 220.069,103.132 231,116 C268.317,159.931 233.545,194.553 269,240 C316.236,300.548 399.907,339.421 448.391,358.034 " fill="none" id="Role-ContactPersonRole" style="stroke: #A80036; stroke-width: 1.0;"/><polygon fill="#A80036" points="453.259,359.88,446.2624,352.9483,448.584,358.1069,443.4254,360.4284,453.259,359.88" style="stroke: #A80036; stroke-width: 1.0;"/><text fill="#000000" font-family="sans-serif" font-size="13" lengthAdjust="spacingAndGlyphs" textLength="121" x="270" y="235.0669">ContactPersonRole</text><text fill="#000000" font-family="sans-serif" font-size="13" lengthAdjust="spacingAndGlyphs" textLength="8" x="431.2855" y="348.887">1</text><!--link Role to CounterpartyRisk--><path d="M213.306,78.862 C243.134,86.685 275.6,98.448 302,116 C348.822,147.129 336.981,180.317 382,214 C389.336,219.489 393.006,217.523 401,222 C425.691,235.827 451.81,255.417 468.475,268.634 " fill="none" id="Role-CounterpartyRisk" style="stroke: #A80036; stroke-width: 1.0;"/><polygon fill="#A80036" points="472.501,271.85,467.9642,263.1083,468.5939,268.73,462.9722,269.3597,472.501,271.85" style="stroke: #A80036; stroke-width: 1.0;"/><text fill="#000000" font-family="sans-serif" font-size="13" lengthAdjust="spacingAndGlyphs" textLength="109" x="383" y="182.0669">CounterpartyRisk</text><text fill="#000000" font-family="sans-serif" font-size="13" lengthAdjust="spacingAndGlyphs" textLength="24" x="438.306" y="260.8467">0..1</text><!--link Role to Entry--><path d="M213.467,71.031 C288.487,79.809 397.795,99.275 484,142 C494.818,147.361 505.627,155.414 514.047,162.444 " fill="none" id="Role-Entry" style="stroke: #A80036; stroke-width: 1.0;"/><polygon fill="#A80036" points="517.979,165.797,513.7265,156.9135,514.1746,162.5526,508.5355,163.0006,517.979,165.797" style="stroke: #A80036; stroke-width: 1.0;"/><text fill="#000000" font-family="sans-serif" font-size="13" lengthAdjust="spacingAndGlyphs" textLength="33" x="467" y="129.0669">Entry</text><text fill="#000000" font-family="sans-serif" font-size="13" lengthAdjust="spacingAndGlyphs" textLength="8" x="503.3408" y="155.0332">1</text><!--link ChequePartyRole to Cheque--><path d="M95,190.13 C95,208.583 95,245.586 95,266.892 " fill="none" id="ChequePartyRole-Cheque" style="stroke: #A80036; stroke-width: 1.0;"/><polygon fill="#A80036" points="95,271.95,99,262.95,95,266.95,91,262.95,95,271.95" style="stroke: #A80036; stroke-width: 1.0;"/><text fill="#000000" font-family="sans-serif" font-size="13" lengthAdjust="spacingAndGlyphs" textLength="49" x="96" y="235.0669">Cheque</text><text fill="#000000" font-family="sans-serif" font-size="13" lengthAdjust="spacingAndGlyphs" textLength="7" x="85.4531" y="260.981">*</text></g></svg>