<?xml version="1.0" encoding="UTF-8" standalone="no"?><svg xmlns="http://www.w3.org/2000/svg" xmlns:xlink="http://www.w3.org/1999/xlink" contentScriptType="application/ecmascript" contentStyleType="text/css" height="970px" preserveAspectRatio="none" style="width:2555px;height:970px;" version="1.1" viewBox="0 0 2555 970" width="2555px" zoomAndPan="magnify"><defs><filter height="300%" id="f1bgmaj04b4411" width="300%" x="-1" y="-1"><feGaussianBlur result="blurOut" stdDeviation="2.0"/><feColorMatrix in="blurOut" result="blurOut2" type="matrix" values="0 0 0 0 0 0 0 0 0 0 0 0 0 0 0 0 0 0 .4 0"/><feOffset dx="4.0" dy="4.0" in="blurOut2" result="blurOut3"/><feBlend in="SourceGraphic" in2="blurOut3" mode="normal"/></filter></defs><g><!--cluster ##3227--><!--cluster ##3239--><!--cluster ##3244--><!--cluster ##3271--><!--class RolePlayer--><a target="_top" xlink:actuate="onRequest" xlink:href="../RolePlayer.html" xlink:show="new" xlink:title="Type of entity that plays a specific role in a specific context." xlink:type="simple"><rect fill="#FEFEEE" filter="url(#f1bgmaj04b4411)" height="23.9688" id="RolePlayer" style="stroke: #A80036; stroke-width: 1.5;" width="71" x="856.75" y="40"/><rect fill="#FEFEEE" height="23.9688" style="stroke: #A80036; stroke-width: 1.5;" width="71" x="856.75" y="40"/><text fill="#000000" font-family="sans-serif" font-size="12" lengthAdjust="spacingAndGlyphs" textLength="65" x="859.75" y="56.1387">RolePlayer</text></a><!--class System--><a target="_top" xlink:actuate="onRequest" xlink:href="../System.html" xlink:show="new" xlink:title="Set of integrated applications that provides centralised services such as clearing, netting, reconciliation, trading and/or settlement." xlink:type="simple"><rect fill="#FEFEEE" filter="url(#f1bgmaj04b4411)" height="57.5781" id="System" style="stroke: #A80036; stroke-width: 1.5;" width="254" x="674" y="126"/><rect fill="#FEFEEE" height="23.9688" style="stroke: #A80036; stroke-width: 1.5;" width="254" x="674" y="126"/><text fill="#000000" font-family="sans-serif" font-size="12" lengthAdjust="spacingAndGlyphs" textLength="45" x="778.5" y="142.1387">System</text><line style="stroke: #A80036; stroke-width: 1.5;" x1="675" x2="927" y1="149.9688" y2="149.9688"/><ellipse cx="685" cy="161.8711" fill="#84BE84" rx="3" ry="3" style="stroke: #038048; stroke-width: 1.0;"/><text fill="#000000" font-family="sans-serif" font-size="11" lengthAdjust="spacingAndGlyphs" textLength="97" x="694" y="164.1792">SystemDateTime</text><text fill="#000000" font-family="sans-serif" font-size="11" font-style="italic" lengthAdjust="spacingAndGlyphs" textLength="81" x="795" y="164.1792">(ISODateTime)</text><ellipse cx="685" cy="174.6758" fill="#84BE84" rx="3" ry="3" style="stroke: #038048; stroke-width: 1.0;"/><text fill="#000000" font-family="sans-serif" font-size="11" lengthAdjust="spacingAndGlyphs" textLength="98" x="694" y="176.9839">SystemLanguage</text><text fill="#000000" font-family="sans-serif" font-size="11" font-style="italic" lengthAdjust="spacingAndGlyphs" textLength="126" x="796" y="176.9839">(ISO2ALanguageCode)</text></a><!--class ClearingSystem--><a target="_top" xlink:actuate="onRequest" xlink:href="../ClearingSystem.html" xlink:show="new" xlink:title="Specifies the system which plays a role in the clearing process." xlink:type="simple"><rect fill="#FEFECE" filter="url(#f1bgmaj04b4411)" height="23.9688" id="ClearingSystem" style="stroke: #A80036; stroke-width: 1.5;" width="102" x="674.5" y="264"/><rect fill="#FEFECE" height="23.9688" style="stroke: #A80036; stroke-width: 1.5;" width="102" x="674.5" y="264"/><text fill="#000000" font-family="sans-serif" font-size="12" lengthAdjust="spacingAndGlyphs" textLength="96" x="677.5" y="280.1387">ClearingSystem</text></a><!--class CashClearingSystem--><a target="_top" xlink:actuate="onRequest" xlink:href="../CashClearingSystem.html" xlink:show="new" xlink:title="Clearing system that processes only cash transfers." xlink:type="simple"><rect fill="#FEFEEE" filter="url(#f1bgmaj04b4411)" height="23.9688" id="CashClearingSystem" style="stroke: #A80036; stroke-width: 1.5;" width="133" x="674.75" y="368"/><rect fill="#FEFEEE" height="23.9688" style="stroke: #A80036; stroke-width: 1.5;" width="133" x="674.75" y="368"/><text fill="#000000" font-family="sans-serif" font-size="12" lengthAdjust="spacingAndGlyphs" textLength="127" x="677.75" y="384.1387">CashClearingSystem</text></a><!--class Role--><a target="_top" xlink:actuate="onRequest" xlink:href="../Role.html" xlink:show="new" xlink:title="Role of a party in an activity." xlink:type="simple"><rect fill="#EEEEEE" filter="url(#f1bgmaj04b4411)" height="23.9688" id="Role" style="stroke: #A80036; stroke-width: 1.5;" width="33" x="2290.75" y="368"/><rect fill="#EEEEEE" height="23.9688" style="stroke: #A80036; stroke-width: 1.5;" width="33" x="2290.75" y="368"/><text fill="#000000" font-family="sans-serif" font-size="12" lengthAdjust="spacingAndGlyphs" textLength="27" x="2293.75" y="384.1387">Role</text></a><!--class DateTimePeriod--><a target="_top" xlink:actuate="onRequest" xlink:href="../DateTimePeriod.html" xlink:show="new" xlink:title="Time span defined by a start date and time, and an end date and time." xlink:type="simple"><rect fill="#EEEEEE" filter="url(#f1bgmaj04b4411)" height="23.9688" id="DateTimePeriod" style="stroke: #A80036; stroke-width: 1.5;" width="105" x="2288.75" y="264"/><rect fill="#EEEEEE" height="23.9688" style="stroke: #A80036; stroke-width: 1.5;" width="105" x="2288.75" y="264"/><text fill="#000000" font-family="sans-serif" font-size="12" lengthAdjust="spacingAndGlyphs" textLength="99" x="2291.75" y="280.1387">DateTimePeriod</text></a><!--class SystemIdentification--><a target="_top" xlink:actuate="onRequest" xlink:href="../SystemIdentification.html" xlink:show="new" xlink:title="Parameters that identify a system." xlink:type="simple"><rect fill="#EEEEEE" filter="url(#f1bgmaj04b4411)" height="23.9688" id="SystemIdentification" style="stroke: #A80036; stroke-width: 1.5;" width="132" x="1700" y="472"/><rect fill="#EEEEEE" height="23.9688" style="stroke: #A80036; stroke-width: 1.5;" width="132" x="1700" y="472"/><text fill="#000000" font-family="sans-serif" font-size="12" lengthAdjust="spacingAndGlyphs" textLength="126" x="1703" y="488.1387">SystemIdentification</text></a><!--class Location--><a target="_top" xlink:actuate="onRequest" xlink:href="../Location.html" xlink:show="new" xlink:title="Specifies a place." xlink:type="simple"><rect fill="#EEEEEE" filter="url(#f1bgmaj04b4411)" height="23.9688" id="Location" style="stroke: #A80036; stroke-width: 1.5;" width="59" x="1703.75" y="368"/><rect fill="#EEEEEE" height="23.9688" style="stroke: #A80036; stroke-width: 1.5;" width="59" x="1703.75" y="368"/><text fill="#000000" font-family="sans-serif" font-size="12" lengthAdjust="spacingAndGlyphs" textLength="53" x="1706.75" y="384.1387">Location</text></a><!--class Reconciliation--><a target="_top" xlink:actuate="onRequest" xlink:href="../Reconciliation.html" xlink:show="new" xlink:title="Process of matching different documents submitted by parties to a trade." xlink:type="simple"><rect fill="#EEEEEE" filter="url(#f1bgmaj04b4411)" height="23.9688" id="Reconciliation" style="stroke: #A80036; stroke-width: 1.5;" width="93" x="1691.75" y="264"/><rect fill="#EEEEEE" height="23.9688" style="stroke: #A80036; stroke-width: 1.5;" width="93" x="1691.75" y="264"/><text fill="#000000" font-family="sans-serif" font-size="12" lengthAdjust="spacingAndGlyphs" textLength="87" x="1694.75" y="280.1387">Reconciliation</text></a><!--class SystemAvailability--><a target="_top" xlink:actuate="onRequest" xlink:href="../SystemAvailability.html" xlink:show="new" xlink:title="information about the periods of activity and non-activity of a system." xlink:type="simple"><rect fill="#EEEEEE" filter="url(#f1bgmaj04b4411)" height="23.9688" id="SystemAvailability" style="stroke: #A80036; stroke-width: 1.5;" width="115" x="1577.75" y="936"/><rect fill="#EEEEEE" height="23.9688" style="stroke: #A80036; stroke-width: 1.5;" width="115" x="1577.75" y="936"/><text fill="#000000" font-family="sans-serif" font-size="12" lengthAdjust="spacingAndGlyphs" textLength="109" x="1580.75" y="952.1387">SystemAvailability</text></a><!--class SystemEventInformation--><a target="_top" xlink:actuate="onRequest" xlink:href="../SystemEventInformation.html" xlink:show="new" xlink:title="Detailed information about an event occurring on a system, whether planned, for example, cut-off time for a specific type of eligible transfer, or unplanned, for example, an unsolicited failure, as stipulated in the specifications of the system." xlink:type="simple"><rect fill="#EEEEEE" filter="url(#f1bgmaj04b4411)" height="23.9688" id="SystemEventInformation" style="stroke: #A80036; stroke-width: 1.5;" width="157" x="1470.75" y="850"/><rect fill="#EEEEEE" height="23.9688" style="stroke: #A80036; stroke-width: 1.5;" width="157" x="1470.75" y="850"/><text fill="#000000" font-family="sans-serif" font-size="12" lengthAdjust="spacingAndGlyphs" textLength="151" x="1473.75" y="866.1387">SystemEventInformation</text></a><!--class SystemPartyRole--><a target="_top" xlink:actuate="onRequest" xlink:href="../SystemPartyRole.html" xlink:show="new" xlink:title="Role played by a party in a system." xlink:type="simple"><rect fill="#EEEEEE" filter="url(#f1bgmaj04b4411)" height="23.9688" id="SystemPartyRole" style="stroke: #A80036; stroke-width: 1.5;" width="110" x="1506" y="764"/><rect fill="#EEEEEE" height="23.9688" style="stroke: #A80036; stroke-width: 1.5;" width="110" x="1506" y="764"/><text fill="#000000" font-family="sans-serif" font-size="12" lengthAdjust="spacingAndGlyphs" textLength="104" x="1509" y="780.1387">SystemPartyRole</text></a><!--class SystemStatus--><a target="_top" xlink:actuate="onRequest" xlink:href="../SystemStatus.html" xlink:show="new" xlink:title="Status of a system and the period of time during which the status is valid." xlink:type="simple"><rect fill="#EEEEEE" filter="url(#f1bgmaj04b4411)" height="23.9688" id="SystemStatus" style="stroke: #A80036; stroke-width: 1.5;" width="92" x="1515" y="676"/><rect fill="#EEEEEE" height="23.9688" style="stroke: #A80036; stroke-width: 1.5;" width="92" x="1515" y="676"/><text fill="#000000" font-family="sans-serif" font-size="12" lengthAdjust="spacingAndGlyphs" textLength="86" x="1518" y="692.1387">SystemStatus</text></a><!--class SystemBusinessInformation--><a target="_top" xlink:actuate="onRequest" xlink:href="../SystemBusinessInformation.html" xlink:show="new" xlink:title="Details about business information related to a system." xlink:type="simple"><rect fill="#EEEEEE" filter="url(#f1bgmaj04b4411)" height="23.9688" id="SystemBusinessInformation" style="stroke: #A80036; stroke-width: 1.5;" width="178" x="1357.5" y="574"/><rect fill="#EEEEEE" height="23.9688" style="stroke: #A80036; stroke-width: 1.5;" width="178" x="1357.5" y="574"/><text fill="#000000" font-family="sans-serif" font-size="12" lengthAdjust="spacingAndGlyphs" textLength="172" x="1360.5" y="590.1387">SystemBusinessInformation</text></a><!--class Negotiation--><a target="_top" xlink:actuate="onRequest" xlink:href="../Negotiation.html" xlink:show="new" xlink:title="Decision making on the transfer of a financial instrument." xlink:type="simple"><rect fill="#EEEEEE" filter="url(#f1bgmaj04b4411)" height="23.9688" id="Negotiation" style="stroke: #A80036; stroke-width: 1.5;" width="79" x="1474.75" y="472"/><rect fill="#EEEEEE" height="23.9688" style="stroke: #A80036; stroke-width: 1.5;" width="79" x="1474.75" y="472"/><text fill="#000000" font-family="sans-serif" font-size="12" lengthAdjust="spacingAndGlyphs" textLength="73" x="1477.75" y="488.1387">Negotiation</text></a><!--class Account--><a target="_top" xlink:actuate="onRequest" xlink:href="../Account.html" xlink:show="new" xlink:title="Record of transactions in specific types of assets, maintained by a servicing party on behalf of one or more owning parties. Business relationship between an account servicer and one or more account owners." xlink:type="simple"><rect fill="#EEEEEE" filter="url(#f1bgmaj04b4411)" height="23.9688" id="Account" style="stroke: #A80036; stroke-width: 1.5;" width="57" x="1448.75" y="368"/><rect fill="#EEEEEE" height="23.9688" style="stroke: #A80036; stroke-width: 1.5;" width="57" x="1448.75" y="368"/><text fill="#000000" font-family="sans-serif" font-size="12" lengthAdjust="spacingAndGlyphs" textLength="51" x="1451.75" y="384.1387">Account</text></a><!--class Trade--><a target="_top" xlink:actuate="onRequest" xlink:href="../Trade.html" xlink:show="new" xlink:title="Result of an order between at least two parties. A trade relates to the delivery of goods and services, cash or securities." xlink:type="simple"><rect fill="#EEEEEE" filter="url(#f1bgmaj04b4411)" height="23.9688" id="Trade" style="stroke: #A80036; stroke-width: 1.5;" width="42" x="1570.5" y="574"/><rect fill="#EEEEEE" height="23.9688" style="stroke: #A80036; stroke-width: 1.5;" width="42" x="1570.5" y="574"/><text fill="#000000" font-family="sans-serif" font-size="12" lengthAdjust="spacingAndGlyphs" textLength="36" x="1573.5" y="590.1387">Trade</text></a><!--class Assessment--><a target="_top" xlink:actuate="onRequest" xlink:href="../Assessment.html" xlink:show="new" xlink:title="Assessment for the components of a system." xlink:type="simple"><rect fill="#EEEEEE" filter="url(#f1bgmaj04b4411)" height="23.9688" id="Assessment" style="stroke: #A80036; stroke-width: 1.5;" width="82" x="1357" y="472"/><rect fill="#EEEEEE" height="23.9688" style="stroke: #A80036; stroke-width: 1.5;" width="82" x="1357" y="472"/><text fill="#000000" font-family="sans-serif" font-size="12" lengthAdjust="spacingAndGlyphs" textLength="76" x="1360" y="488.1387">Assessment</text></a><!--class Position--><a target="_top" xlink:actuate="onRequest" xlink:href="../Position.html" xlink:show="new" xlink:title="Specifies the status of trades and their value inside a system." xlink:type="simple"><rect fill="#EEEEEE" filter="url(#f1bgmaj04b4411)" height="23.9688" id="Position" style="stroke: #A80036; stroke-width: 1.5;" width="56" x="1357.5" y="368"/><rect fill="#EEEEEE" height="23.9688" style="stroke: #A80036; stroke-width: 1.5;" width="56" x="1357.5" y="368"/><text fill="#000000" font-family="sans-serif" font-size="12" lengthAdjust="spacingAndGlyphs" textLength="50" x="1360.5" y="384.1387">Position</text></a><!--class Clearing--><a target="_top" xlink:actuate="onRequest" xlink:href="../Clearing.html" xlink:show="new" xlink:title="Mechanism allowing financial institutions that are members of a clearing house to pay and to receive the amounts linked to the transactions that they have executed on the market. The addition of all the positions per product results in one net position (due or to receive) with the clearing house or the central clearing counterparty." xlink:type="simple"><rect fill="#EEEEEE" filter="url(#f1bgmaj04b4411)" height="23.9688" id="Clearing" style="stroke: #A80036; stroke-width: 1.5;" width="57" x="289.75" y="676"/><rect fill="#EEEEEE" height="23.9688" style="stroke: #A80036; stroke-width: 1.5;" width="57" x="289.75" y="676"/><text fill="#000000" font-family="sans-serif" font-size="12" lengthAdjust="spacingAndGlyphs" textLength="51" x="292.75" y="692.1387">Clearing</text></a><!--class CentralClearingCounterpartyRole--><a target="_top" xlink:actuate="onRequest" xlink:href="../CentralClearingCounterpartyRole.html" xlink:show="new" xlink:title="Infrastructure that may be a component of a clearing house and which facilitates clearing and settlement for its members by standing between the buyer and the seller. It may net transactions and it substitutes itself as settlement counterparty for each position." xlink:type="simple"><rect fill="#EEEEEE" filter="url(#f1bgmaj04b4411)" height="23.9688" id="CentralClearingCounterpartyRole" style="stroke: #A80036; stroke-width: 1.5;" width="211" x="270.75" y="574"/><rect fill="#EEEEEE" height="23.9688" style="stroke: #A80036; stroke-width: 1.5;" width="211" x="270.75" y="574"/><text fill="#000000" font-family="sans-serif" font-size="12" lengthAdjust="spacingAndGlyphs" textLength="205" x="273.75" y="590.1387">CentralClearingCounterpartyRole</text></a><!--class DefaultFund--><a target="_top" xlink:actuate="onRequest" xlink:href="../DefaultFund.html" xlink:show="new" xlink:title="Assets posted by participants in a clearing fund that can be used in the event of a default by a participant to compensate non-defaulting participants for losses they suffer due to this default." xlink:type="simple"><rect fill="#EEEEEE" filter="url(#f1bgmaj04b4411)" height="23.9688" id="DefaultFund" style="stroke: #A80036; stroke-width: 1.5;" width="82" x="335" y="472"/><rect fill="#EEEEEE" height="23.9688" style="stroke: #A80036; stroke-width: 1.5;" width="82" x="335" y="472"/><text fill="#000000" font-family="sans-serif" font-size="12" lengthAdjust="spacingAndGlyphs" textLength="76" x="338" y="488.1387">DefaultFund</text></a><!--class CollateralManagement--><a target="_top" xlink:actuate="onRequest" xlink:href="../CollateralManagement.html" xlink:show="new" xlink:title="Set of operations relative to the management of collateral, variation margins, default fund participation and independent amount." xlink:type="simple"><rect fill="#EEEEEE" filter="url(#f1bgmaj04b4411)" height="23.9688" id="CollateralManagement" style="stroke: #A80036; stroke-width: 1.5;" width="147" x="270.75" y="368"/><rect fill="#EEEEEE" height="23.9688" style="stroke: #A80036; stroke-width: 1.5;" width="147" x="270.75" y="368"/><text fill="#000000" font-family="sans-serif" font-size="12" lengthAdjust="spacingAndGlyphs" textLength="141" x="273.75" y="384.1387">CollateralManagement</text></a><!--link RolePlayer to System--><path d="M868.511,79.071 C855.561,93.443 839.478,111.294 826.258,125.966 " fill="none" id="RolePlayer-System" style="stroke: #A80036; stroke-width: 1.0;"/><polygon fill="none" points="863.326,74.368,881.914,64.195,873.727,83.739,863.326,74.368" style="stroke: #A80036; stroke-width: 1.0;"/><!--link System to ClearingSystem--><path d="M772.189,201.112 C757.697,223.804 741.308,249.465 732.16,263.79 " fill="none" id="System-ClearingSystem" style="stroke: #A80036; stroke-width: 1.0;"/><polygon fill="none" points="766.325,197.289,782.989,184.201,778.124,204.825,766.325,197.289" style="stroke: #A80036; stroke-width: 1.0;"/><!--link ClearingSystem to CashClearingSystem--><path d="M729.905,308.267 C733.087,328.554 737.042,353.766 739.267,367.954 " fill="none" id="ClearingSystem-CashClearingSystem" style="stroke: #A80036; stroke-width: 1.0;"/><polygon fill="none" points="722.957,309.149,726.773,288.306,736.788,306.979,722.957,309.149" style="stroke: #A80036; stroke-width: 1.0;"/><!--link DateTimePeriod to Role--><!--link Location to SystemIdentification--><!--link Reconciliation to Location--><!--link SystemAvailability to Reconciliation--><!--link SystemEventInformation to SystemAvailability--><!--link SystemPartyRole to SystemEventInformation--><!--link SystemStatus to SystemPartyRole--><!--link SystemBusinessInformation to SystemStatus--><!--link Negotiation to SystemBusinessInformation--><!--link Account to Negotiation--><!--link Trade to Account--><!--link Assessment to Trade--><!--link Position to Assessment--><!--link CentralClearingCounterpartyRole to Clearing--><!--link DefaultFund to CentralClearingCounterpartyRole--><!--link CollateralManagement to DefaultFund--><!--link RolePlayer to Role--><path d="M927.373,52.828 C1114.68,52.571 1990.07,59.749 2201,214 C2249.16,249.218 2221.11,288.34 2257,336 C2265.2,346.884 2276.58,356.941 2286.41,364.587 " fill="none" id="RolePlayer-Role" style="stroke: #A80036; stroke-width: 1.0;"/><polygon fill="#A80036" points="2290.51,367.712,2285.7701,359.0788,2286.531,364.6842,2280.9256,365.4451,2290.51,367.712" style="stroke: #A80036; stroke-width: 1.0;"/><text fill="#000000" font-family="sans-serif" font-size="13" lengthAdjust="spacingAndGlyphs" textLength="27" x="2220" y="227.0669">Role</text><text fill="#000000" font-family="sans-serif" font-size="13" lengthAdjust="spacingAndGlyphs" textLength="23" x="2259.7483" y="358.9906">1..*</text><!--link RolePlayer to DateTimePeriod--><path d="M927.468,52.977 C1137.34,52.976 2209.31,54.89 2266,94 C2322.31,132.845 2336.43,222.361 2339.9,258.962 " fill="none" id="RolePlayer-DateTimePeriod" style="stroke: #A80036; stroke-width: 1.0;"/><polygon fill="#A80036" points="2340.34,263.966,2343.5386,254.651,2339.9033,258.9851,2335.5692,255.3498,2340.34,263.966" style="stroke: #A80036; stroke-width: 1.0;"/><text fill="#000000" font-family="sans-serif" font-size="13" lengthAdjust="spacingAndGlyphs" textLength="86" x="2325" y="159.0669">ValidityPeriod</text><text fill="#000000" font-family="sans-serif" font-size="13" lengthAdjust="spacingAndGlyphs" textLength="24" x="2310.5584" y="253.0025">0..1</text><!--link System to SystemIdentification--><path d="M928.043,159.596 C1172.12,167.094 1689.32,186.056 1766,214 C1852.16,245.398 1832.97,327.768 1808,416 C1802.49,435.463 1789.41,454.717 1779.3,467.555 " fill="none" id="System-SystemIdentification" style="stroke: #A80036; stroke-width: 1.0;"/><polygon fill="#A80036" points="1776,471.654,1784.7568,467.1464,1779.133,467.7573,1778.5221,462.1336,1776,471.654" style="stroke: #A80036; stroke-width: 1.0;"/><text fill="#000000" font-family="sans-serif" font-size="13" lengthAdjust="spacingAndGlyphs" textLength="130" x="1830" y="331.0669">SystemIdentification</text><text fill="#000000" font-family="sans-serif" font-size="13" lengthAdjust="spacingAndGlyphs" textLength="8" x="1768.6563" y="460.8428">1</text><!--link System to Location--><path d="M928.047,158.351 C1108.86,163.749 1429.46,181.523 1528,240 C1579.09,270.315 1570.35,304.956 1621,336 C1631.31,342.318 1635.61,339.94 1647,344 C1665.71,350.672 1686.34,359.033 1702.7,365.909 " fill="none" id="System-Location" style="stroke: #A80036; stroke-width: 1.0;"/><polygon fill="#A80036" points="1707.64,367.992,1700.9023,360.8085,1703.0331,366.0486,1697.7929,368.1795,1707.64,367.992" style="stroke: #A80036; stroke-width: 1.0;"/><text fill="#000000" font-family="sans-serif" font-size="13" lengthAdjust="spacingAndGlyphs" textLength="54" x="1576" y="280.0669">Location</text><text fill="#000000" font-family="sans-serif" font-size="13" lengthAdjust="spacingAndGlyphs" textLength="8" x="1688.1178" y="357.0375">1</text><!--link System to Reconciliation--><path d="M928.196,158.412 C1126.04,163.265 1497.95,177.105 1625,214 C1660.12,224.201 1696.64,246.38 1718.34,260.995 " fill="none" id="System-Reconciliation" style="stroke: #A80036; stroke-width: 1.0;"/><polygon fill="#A80036" points="1722.47,263.812,1717.2612,255.4532,1718.3301,261.0082,1712.7752,262.0771,1722.47,263.812" style="stroke: #A80036; stroke-width: 1.0;"/><text fill="#000000" font-family="sans-serif" font-size="13" lengthAdjust="spacingAndGlyphs" textLength="87" x="1669" y="227.0669">Reconciliation</text><text fill="#000000" font-family="sans-serif" font-size="13" lengthAdjust="spacingAndGlyphs" textLength="8" x="1706.5866" y="253.0532">1</text><!--link System to SystemAvailability--><path d="M673.71,162.206 C449.121,174.874 6,208.317 6,275 C6,275 6,275 6,863 C6,942.9278 1273.26,947.2085 1572.32,947.1059 " fill="none" id="System-SystemAvailability" style="stroke: #A80036; stroke-width: 1.0;"/><polygon fill="#A80036" points="1577.5,947.1036,1568.5,943.1036,1572.5,947.1036,1568.5,951.1036,1577.5,947.1036" style="stroke: #A80036; stroke-width: 1.0;"/><text fill="#000000" font-family="sans-serif" font-size="13" lengthAdjust="spacingAndGlyphs" textLength="67" x="7" y="590.0669">Availability</text><text fill="#000000" font-family="sans-serif" font-size="13" lengthAdjust="spacingAndGlyphs" textLength="8" x="1561.6367" y="942.1517">1</text><!--link System to SystemEventInformation--><path d="M673.812,165.806 C478.992,182.561 129,220.276 129,275 C129,275 129,275 129,777 C129,844.362 1160.75,857.919 1465.32,860.453 " fill="none" id="System-SystemEventInformation" style="stroke: #A80036; stroke-width: 1.0;"/><polygon fill="#A80036" points="1470.63,860.496,1461.6646,856.419,1465.6302,860.4531,1461.596,864.4187,1470.63,860.496" style="stroke: #A80036; stroke-width: 1.0;"/><text fill="#000000" font-family="sans-serif" font-size="13" lengthAdjust="spacingAndGlyphs" textLength="36" x="130" y="539.0669">Event</text><text fill="#000000" font-family="sans-serif" font-size="13" lengthAdjust="spacingAndGlyphs" textLength="8" x="1454.7052" y="855.7412">1</text><!--link System to SystemPartyRole--><path d="M928.219,158.922 C1170.12,165.143 1687.98,181.829 1864,214 C1953.37,230.334 2035,235.149 2035,326 C2035,326 2035,326 2035,689 C2035,730.555 1749.31,759.421 1621.52,770.255 " fill="none" id="System-SystemPartyRole" style="stroke: #A80036; stroke-width: 1.0;"/><polygon fill="#A80036" points="1616.3,770.695,1625.6005,773.9355,1621.2828,770.2807,1624.9376,765.963,1616.3,770.695" style="stroke: #A80036; stroke-width: 1.0;"/><text fill="#000000" font-family="sans-serif" font-size="13" lengthAdjust="spacingAndGlyphs" textLength="60" x="2036" y="488.0669">PartyRole</text><text fill="#000000" font-family="sans-serif" font-size="13" lengthAdjust="spacingAndGlyphs" textLength="7" x="1623.8338" y="765.0036">*</text><!--link System to SystemStatus--><path d="M928.05,155.272 C1161.38,155.259 1648.92,161.75 1809,214 C1889.98,240.433 1929.26,243.186 1970,318 C2020.49,410.714 1679.71,617.95 1584.97,673.228 " fill="none" id="System-SystemStatus" style="stroke: #A80036; stroke-width: 1.0;"/><polygon fill="#A80036" points="1580.39,675.897,1590.1807,674.8284,1584.7117,673.3825,1586.1576,667.9136,1580.39,675.897" style="stroke: #A80036; stroke-width: 1.0;"/><text fill="#000000" font-family="sans-serif" font-size="13" lengthAdjust="spacingAndGlyphs" textLength="42" x="1929" y="437.0669">Status</text><text fill="#000000" font-family="sans-serif" font-size="13" lengthAdjust="spacingAndGlyphs" textLength="8" x="1576.3366" y="664.9098">1</text><!--link System to SystemBusinessInformation--><path d="M832.319,184.055 C853.637,206.342 878,239.565 878,275 C878,275 878,275 878,485 C878,532.545 1190.67,564.587 1352.05,577.958 " fill="none" id="System-SystemBusinessInformation" style="stroke: #A80036; stroke-width: 1.0;"/><polygon fill="#A80036" points="1357.25,578.386,1348.6123,573.6543,1352.2672,577.9718,1347.9496,581.6268,1357.25,578.386" style="stroke: #A80036; stroke-width: 1.0;"/><text fill="#000000" font-family="sans-serif" font-size="13" lengthAdjust="spacingAndGlyphs" textLength="190" x="879" y="384.0669">SystemGeneratedInformation</text><text fill="#000000" font-family="sans-serif" font-size="13" lengthAdjust="spacingAndGlyphs" textLength="8" x="1341.623" y="573.3256">1</text><!--link System to DateTimePeriod--><path d="M928.253,155.393 C1198.18,155.186 1820.07,160.728 2024,214 C2041.31,218.521 2042.95,226.581 2060,232 C2135.1,255.871 2225.84,266.693 2283.49,271.457 " fill="none" id="System-DateTimePeriod" style="stroke: #A80036; stroke-width: 1.0;"/><polygon fill="#A80036" points="2288.62,271.872,2279.9688,267.1649,2283.636,271.472,2279.3289,275.1392,2288.62,271.872" style="stroke: #A80036; stroke-width: 1.0;"/><text fill="#000000" font-family="sans-serif" font-size="13" lengthAdjust="spacingAndGlyphs" textLength="134" x="2061" y="227.0669">VersionValidityPeriod</text><text fill="#000000" font-family="sans-serif" font-size="13" lengthAdjust="spacingAndGlyphs" textLength="8" x="2272.5963" y="266.4099">1</text><!--link System to Negotiation--><path d="M928.107,159.552 C993.853,165.81 1073.6,180.54 1138,214 C1250.39,272.39 1232.84,346.936 1339,416 C1379.84,442.571 1432.8,460.984 1469.71,471.691 " fill="none" id="System-Negotiation" style="stroke: #A80036; stroke-width: 1.0;"/><polygon fill="#A80036" points="1474.58,473.086,1467.0401,466.7497,1469.7756,471.7011,1464.8242,474.4367,1474.58,473.086" style="stroke: #A80036; stroke-width: 1.0;"/><text fill="#000000" font-family="sans-serif" font-size="13" lengthAdjust="spacingAndGlyphs" textLength="74" x="1258" y="331.0669">Negotiation</text><text fill="#000000" font-family="sans-serif" font-size="13" lengthAdjust="spacingAndGlyphs" textLength="24" x="1447.0052" y="465.0744">0..1</text><!--link System to Account--><path d="M928.013,156.527 C1091.17,159.886 1362.08,175.386 1435,240 C1471.06,271.95 1476.69,333.659 1477.22,362.892 " fill="none" id="System-Account" style="stroke: #A80036; stroke-width: 1.0;"/><polygon fill="#A80036" points="1477.27,367.957,1481.185,358.9197,1477.2229,362.9572,1473.1853,358.9951,1477.27,367.957" style="stroke: #A80036; stroke-width: 1.0;"/><text fill="#000000" font-family="sans-serif" font-size="13" lengthAdjust="spacingAndGlyphs" textLength="52" x="1466" y="280.0669">Account</text><text fill="#000000" font-family="sans-serif" font-size="13" lengthAdjust="spacingAndGlyphs" textLength="8" x="1466.5581" y="356.9904">1</text><!--link System to Trade--><path d="M844.067,184.172 C858.397,193.602 874.418,204.207 889,214 C973.941,271.045 1002.753,275.769 1079,344 C1110.47,372.16 1106.98,390.984 1141,416 C1256.47,500.906 1301.53,497.184 1437,544 C1486.52,561.113 1500.41,560.387 1551,574 C1555.6,575.237 1560.49,576.568 1565.21,577.863 " fill="none" id="System-Trade" style="stroke: #A80036; stroke-width: 1.0;"/><polygon fill="#A80036" points="1570.25,579.247,1562.6183,573.0214,1565.4259,577.9324,1560.515,580.74,1570.25,579.247" style="stroke: #A80036; stroke-width: 1.0;"/><text fill="#000000" font-family="sans-serif" font-size="13" lengthAdjust="spacingAndGlyphs" textLength="36" x="1142" y="384.0669">Trade</text><text fill="#000000" font-family="sans-serif" font-size="13" lengthAdjust="spacingAndGlyphs" textLength="8" x="1554.5234" y="571.4263">1</text><!--link System to Assessment--><path d="M928.215,167.545 C998.771,176.373 1077.49,191.022 1104,214 C1147.33,251.561 1102.65,298.458 1146,336 C1160.36,348.44 1171.4,334.755 1188,344 C1239.67,372.769 1228.49,409.662 1278,442 C1300.37,456.611 1328.5,466.584 1351.9,473.032 " fill="none" id="System-Assessment" style="stroke: #A80036; stroke-width: 1.0;"/><polygon fill="#A80036" points="1356.82,474.354,1349.1694,468.1518,1351.9919,473.0541,1347.0896,475.8767,1356.82,474.354" style="stroke: #A80036; stroke-width: 1.0;"/><text fill="#000000" font-family="sans-serif" font-size="13" lengthAdjust="spacingAndGlyphs" textLength="79" x="1147" y="331.0669">Assessment</text><text fill="#000000" font-family="sans-serif" font-size="13" lengthAdjust="spacingAndGlyphs" textLength="24" x="1324.8782" y="468.1064">0..1</text><!--link System to Position--><path d="M928.071,163.386 C1039.44,171.514 1191.76,187.134 1246,214 C1312.86,247.119 1359.83,328.603 1377.38,363.129 " fill="none" id="System-Position" style="stroke: #A80036; stroke-width: 1.0;"/><polygon fill="#A80036" points="1379.76,367.871,1379.3078,358.0325,1377.5216,363.4,1372.1542,361.6139,1379.76,367.871" style="stroke: #A80036; stroke-width: 1.0;"/><text fill="#000000" font-family="sans-serif" font-size="13" lengthAdjust="spacingAndGlyphs" textLength="93" x="1332" y="280.0669">TradesPosition</text><text fill="#000000" font-family="sans-serif" font-size="13" lengthAdjust="spacingAndGlyphs" textLength="8" x="1367.0681" y="356.8749">1</text><!--link ClearingSystem to Clearing--><path d="M674.434,276.55 C545.941,276.76 217,286.347 217,379 C217,379 217,379 217,587 C217,627.638 258.8,657.375 288.618,673.419 " fill="none" id="ClearingSystem-Clearing" style="stroke: #A80036; stroke-width: 1.0;"/><polygon fill="#A80036" points="293.293,675.876,287.1868,668.1485,288.8669,673.5501,283.4653,675.2302,293.293,675.876" style="stroke: #A80036; stroke-width: 1.0;"/><text fill="#000000" font-family="sans-serif" font-size="13" lengthAdjust="spacingAndGlyphs" textLength="52" x="218" y="488.0669">Clearing</text><text fill="#000000" font-family="sans-serif" font-size="13" lengthAdjust="spacingAndGlyphs" textLength="7" x="275.1672" y="664.8816">*</text><!--link ClearingSystem to CentralClearingCounterpartyRole--><path d="M712.791,288.222 C698.849,301.218 675.57,323.477 657,344 C629.431,374.47 628.483,387.377 599,416 C531.743,481.294 439.174,544.177 397.667,571.184 " fill="none" id="ClearingSystem-CentralClearingCounterpartyRole" style="stroke: #A80036; stroke-width: 1.0;"/><polygon fill="#A80036" points="393.337,573.992,403.0644,572.4503,397.5319,571.2711,398.711,565.7385,393.337,573.992" style="stroke: #A80036; stroke-width: 1.0;"/><text fill="#000000" font-family="sans-serif" font-size="13" lengthAdjust="spacingAndGlyphs" textLength="182" x="590" y="437.0669">CentralClearingCounterparty</text><text fill="#000000" font-family="sans-serif" font-size="13" lengthAdjust="spacingAndGlyphs" textLength="24" x="369.7419" y="563.0375">0..1</text><!--link ClearingSystem to DefaultFund--><path d="M674.179,286.046 C629.756,295.566 564.759,313.505 515,344 C486.178,361.664 418.724,435.229 389.689,467.599 " fill="none" id="ClearingSystem-DefaultFund" style="stroke: #A80036; stroke-width: 1.0;"/><polygon fill="#A80036" points="386.018,471.701,395.0006,467.662,389.3524,467.9752,389.0392,462.327,386.018,471.701" style="stroke: #A80036; stroke-width: 1.0;"/><text fill="#000000" font-family="sans-serif" font-size="13" lengthAdjust="spacingAndGlyphs" textLength="77" x="516" y="384.0669">DefaultFund</text><text fill="#000000" font-family="sans-serif" font-size="13" lengthAdjust="spacingAndGlyphs" textLength="7" x="379.8458" y="460.9054">*</text><!--link ClearingSystem to CollateralManagement--><path d="M674.145,278.332 C569.482,281.601 337.761,291.751 314,318 C301.942,331.321 314.837,350.373 327.27,363.628 " fill="none" id="ClearingSystem-CollateralManagement" style="stroke: #A80036; stroke-width: 1.0;"/><polygon fill="#A80036" points="331.086,367.542,327.6696,358.3047,327.5965,363.9611,321.9401,363.8879,331.086,367.542" style="stroke: #A80036; stroke-width: 1.0;"/><text fill="#000000" font-family="sans-serif" font-size="13" lengthAdjust="spacingAndGlyphs" textLength="145" x="315" y="331.0669">CollateralManagement</text><text fill="#000000" font-family="sans-serif" font-size="13" lengthAdjust="spacingAndGlyphs" textLength="8" x="316.2962" y="356.9547">1</text><!--link DateTimePeriod to Account--><path d="M2288.53,287.827 C2218.37,301.78 2089.94,325.493 1979,336 C1849.31,348.283 1815.66,331.434 1686,344 C1623.67,350.041 1551.82,363.522 1510.68,371.879 " fill="none" id="DateTimePeriod-Account" style="stroke: #A80036; stroke-width: 1.0;"/><polygon fill="#A80036" points="1505.57,372.922,1515.1882,375.041,1510.469,371.9219,1513.5881,367.2027,1505.57,372.922" style="stroke: #A80036; stroke-width: 1.0;"/><text fill="#000000" font-family="sans-serif" font-size="13" lengthAdjust="spacingAndGlyphs" textLength="52" x="2120" y="331.0669">Account</text><text fill="#000000" font-family="sans-serif" font-size="13" lengthAdjust="spacingAndGlyphs" textLength="24" x="1513.886" y="365.7929">0..1</text><!--link DateTimePeriod to SystemAvailability--><path d="M2347.96,288.144 C2358.68,306.402 2378,344.151 2378,379 C2378,379 2378,379 2378,863 C2378,931.2505 1876.59,944.0538 1697.58,946.45 " fill="none" id="DateTimePeriod-SystemAvailability" style="stroke: #A80036; stroke-width: 1.0;"/><polygon fill="#A80036" points="1692.38,946.5179,1701.4362,950.3889,1697.3795,946.4465,1701.3219,942.3897,1692.38,946.5179" style="stroke: #A80036; stroke-width: 1.0;"/><text fill="#000000" font-family="sans-serif" font-size="13" lengthAdjust="spacingAndGlyphs" textLength="164" x="2379" y="641.0669">RelatedSystemAvailability</text><text fill="#000000" font-family="sans-serif" font-size="13" lengthAdjust="spacingAndGlyphs" textLength="8" x="1700.5943" y="941.2545">1</text><!--link Reconciliation to Trade--><path d="M1730.35,288.242 C1721.91,300.394 1707.71,320.15 1694,336 C1690.71,339.803 1689.01,339.97 1686,344 C1664.24,373.171 1672.82,390.35 1647,416 C1641.64,421.325 1636.66,418.055 1632,424 C1622.97,435.519 1602.48,530.02 1594.38,568.645 " fill="none" id="Reconciliation-Trade" style="stroke: #A80036; stroke-width: 1.0;"/><polygon fill="#A80036" points="1593.28,573.922,1599.0371,565.931,1594.3032,569.0278,1591.2064,564.2939,1593.28,573.922" style="stroke: #A80036; stroke-width: 1.0;"/><text fill="#000000" font-family="sans-serif" font-size="13" lengthAdjust="spacingAndGlyphs" textLength="111" x="1633" y="437.0669">ReconciledTrades</text><text fill="#000000" font-family="sans-serif" font-size="13" lengthAdjust="spacingAndGlyphs" textLength="8" x="1583.1731" y="562.9434">1</text><!--link Reconciliation to Account--><path d="M1709.82,288.013 C1661.3,306.976 1562.19,345.706 1510.33,365.976 " fill="none" id="Reconciliation-Account" style="stroke: #A80036; stroke-width: 1.0;"/><polygon fill="#A80036" points="1505.46,367.879,1515.2981,368.3392,1510.1189,366.064,1512.3941,360.8849,1505.46,367.879" style="stroke: #A80036; stroke-width: 1.0;"/><text fill="#000000" font-family="sans-serif" font-size="13" lengthAdjust="spacingAndGlyphs" textLength="52" x="1632" y="331.0669">Account</text><text fill="#000000" font-family="sans-serif" font-size="13" lengthAdjust="spacingAndGlyphs" textLength="8" x="1504.4384" y="356.8856">1</text><!--link Negotiation to Trade--><path d="M1500.02,496.258 C1486.65,508.423 1470.02,528.191 1481,544 C1486.02,551.23 1534.36,567.373 1565.26,577.107 " fill="none" id="Negotiation-Trade" style="stroke: #A80036; stroke-width: 1.0;"/><polygon fill="#A80036" points="1570.07,578.612,1562.6839,572.097,1565.3001,577.1125,1560.2847,579.7288,1570.07,578.612" style="stroke: #A80036; stroke-width: 1.0;"/><text fill="#000000" font-family="sans-serif" font-size="13" lengthAdjust="spacingAndGlyphs" textLength="98" x="1482" y="539.0669">TradeExecution</text><text fill="#000000" font-family="sans-serif" font-size="13" lengthAdjust="spacingAndGlyphs" textLength="8" x="1554.6277" y="590.7262">1</text><!--link Account to Account--><path d="M1505.51,370.938 C1523.18,368.753 1540,371.773 1540,380 C1540,387.391 1526.42,390.58 1510.85,389.567 " fill="none" id="Account-Account" style="stroke: #A80036; stroke-width: 1.0;"/><polygon fill="#A80036" points="1505.51,389.062,1514.0928,393.8926,1510.4877,389.5333,1514.847,385.9282,1505.51,389.062" style="stroke: #A80036; stroke-width: 1.0;"/><text fill="#000000" font-family="sans-serif" font-size="13" lengthAdjust="spacingAndGlyphs" textLength="94" x="1546" y="384.0669">ParentAccount</text><text fill="#000000" font-family="sans-serif" font-size="13" lengthAdjust="spacingAndGlyphs" textLength="8" x="1513.7766" y="385.2939">1</text></g></svg>