<?xml version="1.0" encoding="UTF-8" standalone="no"?><svg xmlns="http://www.w3.org/2000/svg" xmlns:xlink="http://www.w3.org/1999/xlink" contentScriptType="application/ecmascript" contentStyleType="text/css" height="370px" preserveAspectRatio="none" style="width:962px;height:370px;" version="1.1" viewBox="0 0 962 370" width="962px" zoomAndPan="magnify"><defs><filter height="300%" id="f1hcx2ol60cjul" width="300%" x="-1" y="-1"><feGaussianBlur result="blurOut" stdDeviation="2.0"/><feColorMatrix in="blurOut" result="blurOut2" type="matrix" values="0 0 0 0 0 0 0 0 0 0 0 0 0 0 0 0 0 0 .4 0"/><feOffset dx="4.0" dy="4.0" in="blurOut2" result="blurOut3"/><feBlend in="SourceGraphic" in2="blurOut3" mode="normal"/></filter></defs><g><!--cluster ##6747--><!--cluster ##6753--><!--cluster ##6762--><!--class InterestManagement--><a target="_top" xlink:actuate="onRequest" xlink:href="../InterestManagement.html" xlink:show="new" xlink:title="Management of interest which consists into calculating the interest, requesting its payment or distributing the interest proceeds." xlink:type="simple"><rect fill="#FEFEEE" filter="url(#f1hcx2ol60cjul)" height="23.9688" id="InterestManagement" style="stroke: #A80036; stroke-width: 1.5;" width="137" x="221.732" y="40"/><rect fill="#FEFEEE" height="23.9688" style="stroke: #A80036; stroke-width: 1.5;" width="137" x="221.732" y="40"/><text fill="#000000" font-family="sans-serif" font-size="12" lengthAdjust="spacingAndGlyphs" textLength="131" x="224.732" y="56.1387">InterestManagement</text></a><!--class CollateralInterestAdministration--><a target="_top" xlink:actuate="onRequest" xlink:href="../CollateralInterestAdministration.html" xlink:show="new" xlink:title="Calculation and request of interest linked to collateral." xlink:type="simple"><rect fill="#FEFECE" filter="url(#f1hcx2ol60cjul)" height="23.9688" id="CollateralInterestAdministration" style="stroke: #A80036; stroke-width: 1.5;" width="204" x="155.482" y="144"/><rect fill="#FEFECE" height="23.9688" style="stroke: #A80036; stroke-width: 1.5;" width="204" x="155.482" y="144"/><text fill="#000000" font-family="sans-serif" font-size="12" lengthAdjust="spacingAndGlyphs" textLength="198" x="158.482" y="160.1387">CollateralInterestAdministration</text></a><!--class InterestCalculation--><a target="_top" xlink:actuate="onRequest" xlink:href="../InterestCalculation.html" xlink:show="new" xlink:title="Set of parameters used to calculate an interest amount." xlink:type="simple"><rect fill="#EEEEEE" filter="url(#f1hcx2ol60cjul)" height="23.9688" id="InterestCalculation" style="stroke: #A80036; stroke-width: 1.5;" width="124" x="675.482" y="144"/><rect fill="#EEEEEE" height="23.9688" style="stroke: #A80036; stroke-width: 1.5;" width="124" x="675.482" y="144"/><text fill="#000000" font-family="sans-serif" font-size="12" lengthAdjust="spacingAndGlyphs" textLength="118" x="678.482" y="160.1387">InterestCalculation</text></a><!--class FinancialTransaction--><a target="_top" xlink:actuate="onRequest" xlink:href="../FinancialTransaction.html" xlink:show="new" xlink:title="Process which includes the order, the execution, the settlement of trades in the financial domain." xlink:type="simple"><rect fill="#EEEEEE" filter="url(#f1hcx2ol60cjul)" height="23.9688" id="FinancialTransaction" style="stroke: #A80036; stroke-width: 1.5;" width="135" x="663.732" y="336"/><rect fill="#EEEEEE" height="23.9688" style="stroke: #A80036; stroke-width: 1.5;" width="135" x="663.732" y="336"/><text fill="#000000" font-family="sans-serif" font-size="12" lengthAdjust="spacingAndGlyphs" textLength="129" x="666.732" y="352.1387">FinancialTransaction</text></a><!--class Interest--><a target="_top" xlink:actuate="onRequest" xlink:href="../Interest.html" xlink:show="new" xlink:title="Consideration, such as amount of money,  paid or received in exchange for an asset that has been invested, loaned or borrowed for a certain period. The interest is expressed as a fixed amount or percentage of the amount upon which the interest is applied." xlink:type="simple"><rect fill="#EEEEEE" filter="url(#f1hcx2ol60cjul)" height="23.9688" id="Interest" style="stroke: #A80036; stroke-width: 1.5;" width="55" x="598.732" y="250"/><rect fill="#EEEEEE" height="23.9688" style="stroke: #A80036; stroke-width: 1.5;" width="55" x="598.732" y="250"/><text fill="#000000" font-family="sans-serif" font-size="12" lengthAdjust="spacingAndGlyphs" textLength="49" x="601.732" y="266.1387">Interest</text></a><!--class PaymentObligation--><a target="_top" xlink:actuate="onRequest" xlink:href="../PaymentObligation.html" xlink:show="new" xlink:title="Obligation for the debtor to pay the creditor an amount of cash." xlink:type="simple"><rect fill="#EEEEEE" filter="url(#f1hcx2ol60cjul)" height="23.9688" id="PaymentObligation" style="stroke: #A80036; stroke-width: 1.5;" width="123" x="516.732" y="144"/><rect fill="#EEEEEE" height="23.9688" style="stroke: #A80036; stroke-width: 1.5;" width="123" x="516.732" y="144"/><text fill="#000000" font-family="sans-serif" font-size="12" lengthAdjust="spacingAndGlyphs" textLength="117" x="519.732" y="160.1387">PaymentObligation</text></a><!--class CollateralManagement--><a target="_top" xlink:actuate="onRequest" xlink:href="../CollateralManagement.html" xlink:show="new" xlink:title="Set of operations relative to the management of collateral, variation margins, default fund participation and independent amount." xlink:type="simple"><rect fill="#EEEEEE" filter="url(#f1hcx2ol60cjul)" height="23.9688" id="CollateralManagement" style="stroke: #A80036; stroke-width: 1.5;" width="147" x="154.732" y="336"/><rect fill="#EEEEEE" height="23.9688" style="stroke: #A80036; stroke-width: 1.5;" width="147" x="154.732" y="336"/><text fill="#000000" font-family="sans-serif" font-size="12" lengthAdjust="spacingAndGlyphs" textLength="141" x="157.732" y="352.1387">CollateralManagement</text></a><!--class CollateralBalance--><a target="_top" xlink:actuate="onRequest" xlink:href="../CollateralBalance.html" xlink:show="new" xlink:title="Specifies the different values taken into account to calculate the current collateral." xlink:type="simple"><rect fill="#EEEEEE" filter="url(#f1hcx2ol60cjul)" height="23.9688" id="CollateralBalance" style="stroke: #A80036; stroke-width: 1.5;" width="115" x="179.732" y="250"/><rect fill="#EEEEEE" height="23.9688" style="stroke: #A80036; stroke-width: 1.5;" width="115" x="179.732" y="250"/><text fill="#000000" font-family="sans-serif" font-size="12" lengthAdjust="spacingAndGlyphs" textLength="109" x="182.732" y="266.1387">CollateralBalance</text></a><!--link InterestManagement to CollateralInterestAdministration--><path d="M280.077,83.615 C273.479,104.011 265.195,129.614 260.556,143.954 " fill="none" id="InterestManagement-CollateralInterestAdministration" style="stroke: #A80036; stroke-width: 1.0;"/><polygon fill="none" points="273.508,81.18,286.324,64.306,286.828,85.489,273.508,81.18" style="stroke: #A80036; stroke-width: 1.0;"/><!--link FinancialTransaction to InterestCalculation--><!--link Interest to FinancialTransaction--><!--link PaymentObligation to Interest--><!--link CollateralBalance to CollateralManagement--><!--link InterestManagement to InterestCalculation--><path d="M358.246,53.457 C427.94,55.711 538.44,64.271 628.982,94 C662.217,104.913 696.761,126.538 717.569,140.887 " fill="none" id="InterestManagement-InterestCalculation" style="stroke: #A80036; stroke-width: 1.0;"/><polygon fill="#A80036" points="721.796,143.831,716.6982,135.4041,717.6935,140.9727,712.1249,141.968,721.796,143.831" style="stroke: #A80036; stroke-width: 1.0;"/><text fill="#000000" font-family="sans-serif" font-size="13" lengthAdjust="spacingAndGlyphs" textLength="119" x="670.982" y="107.0669">InterestCalculation</text><text fill="#000000" font-family="sans-serif" font-size="13" lengthAdjust="spacingAndGlyphs" textLength="8" x="705.6852" y="132.8211">1</text><!--link InterestManagement to FinancialTransaction--><path d="M358.266,55.072 C488.599,59.522 763.2,71.465 799.982,94 C882.51,144.562 780.394,285.612 743.384,332.0006 " fill="none" id="InterestManagement-FinancialTransaction" style="stroke: #A80036; stroke-width: 1.0;"/><polygon fill="#A80036" points="740.217,335.937,748.9749,331.4316,743.351,332.0411,742.7415,326.4172,740.217,335.937" style="stroke: #A80036; stroke-width: 1.0;"/><text fill="#000000" font-family="sans-serif" font-size="13" lengthAdjust="spacingAndGlyphs" textLength="129" x="821.982" y="213.0669">FinancialTransaction</text><text fill="#000000" font-family="sans-serif" font-size="13" lengthAdjust="spacingAndGlyphs" textLength="8" x="732.5868" y="324.9636">1</text><!--link InterestManagement to Interest--><path d="M305.154,64.106 C322.5,76.995 351.525,99.157 374.982,120 C408.811,150.06 409.045,167.326 446.982,192 C493.875,222.5 556.287,242.68 593.669,252.952 " fill="none" id="InterestManagement-Interest" style="stroke: #A80036; stroke-width: 1.0;"/><polygon fill="#A80036" points="598.55,254.276,590.9106,248.06,593.7243,252.9674,588.8168,255.7811,598.55,254.276" style="stroke: #A80036; stroke-width: 1.0;"/><text fill="#000000" font-family="sans-serif" font-size="13" lengthAdjust="spacingAndGlyphs" textLength="49" x="447.982" y="160.0669">Interest</text><text fill="#000000" font-family="sans-serif" font-size="13" lengthAdjust="spacingAndGlyphs" textLength="7" x="583.9125" y="247.0136">*</text><!--link InterestManagement to PaymentObligation--><path d="M347.407,64.061 C379.554,71.046 420.071,81.178 454.982,94 C490.851,107.174 530.031,127.769 554.309,141.325 " fill="none" id="InterestManagement-PaymentObligation" style="stroke: #A80036; stroke-width: 1.0;"/><polygon fill="#A80036" points="558.961,143.938,553.0736,136.0426,554.6018,141.4891,549.1553,143.0173,558.961,143.938" style="stroke: #A80036; stroke-width: 1.0;"/><text fill="#000000" font-family="sans-serif" font-size="13" lengthAdjust="spacingAndGlyphs" textLength="121" x="497.982" y="107.0669">PaymentObligation</text><text fill="#000000" font-family="sans-serif" font-size="13" lengthAdjust="spacingAndGlyphs" textLength="8" x="541.6178" y="132.9649">1</text><!--link CollateralInterestAdministration to CollateralManagement--><path d="M155.313,164.619 C117.431,170.611 75.1302,181.229 39.982,200 C25.5668,207.698 20.2358,210.902 13.982,226 C5.8181,245.709 1.5688,256.65 13.982,274 C44.6152,316.8161 101.8845,334.8061 149.474,342.2308 " fill="none" id="CollateralInterestAdministration-CollateralManagement" style="stroke: #A80036; stroke-width: 1.0;"/><polygon fill="#A80036" points="154.636,343.0011,146.3241,337.7179,149.6906,342.2639,145.1446,345.6305,154.636,343.0011" style="stroke: #A80036; stroke-width: 1.0;"/><text fill="#000000" font-family="sans-serif" font-size="13" lengthAdjust="spacingAndGlyphs" textLength="145" x="14.982" y="266.0669">CollateralManagement</text><text fill="#000000" font-family="sans-serif" font-size="13" lengthAdjust="spacingAndGlyphs" textLength="8" x="138.636" y="337.8731">1</text><!--link CollateralInterestAdministration to CollateralBalance--><path d="M155.481,166.19 C110.552,172.566 64.7508,183.06 50.982,200 C45.9361,206.208 45.5531,212.124 50.982,218 C58.6214,226.268 141.034,223.381 151.982,226 C172.237,230.846 193.93,239.846 210.331,247.506 " fill="none" id="CollateralInterestAdministration-CollateralBalance" style="stroke: #A80036; stroke-width: 1.0;"/><polygon fill="#A80036" points="215.243,249.835,208.8231,242.3661,210.7247,247.6937,205.3971,249.5953,215.243,249.835" style="stroke: #A80036; stroke-width: 1.0;"/><text fill="#000000" font-family="sans-serif" font-size="13" lengthAdjust="spacingAndGlyphs" textLength="157" x="51.982" y="213.0669">ClosingCollateralBalance</text><text fill="#000000" font-family="sans-serif" font-size="13" lengthAdjust="spacingAndGlyphs" textLength="8" x="196.9655" y="238.8265">1</text><!--link CollateralInterestAdministration to CollateralBalance--><path d="M254.842,168.13 C251.293,186.583 244.177,223.586 240.08,244.892 " fill="none" id="CollateralInterestAdministration-CollateralBalance" style="stroke: #A80036; stroke-width: 1.0;"/><polygon fill="#A80036" points="239.107,249.95,244.7347,241.8674,240.0513,245.04,236.8787,240.3565,239.107,249.95" style="stroke: #A80036; stroke-width: 1.0;"/><text fill="#000000" font-family="sans-serif" font-size="13" lengthAdjust="spacingAndGlyphs" textLength="164" x="249.982" y="213.0669">OpeningCollateralBalance</text><text fill="#000000" font-family="sans-serif" font-size="13" lengthAdjust="spacingAndGlyphs" textLength="8" x="229.0328" y="238.981">1</text><!--link InterestCalculation to Interest--><path d="M717.026,168.107 C703.752,176.027 686.363,187.46 672.982,200 C658.258,213.798 644.558,232.531 635.793,245.583 " fill="none" id="InterestCalculation-Interest" style="stroke: #A80036; stroke-width: 1.0;"/><polygon fill="#A80036" points="633.015,249.776,641.32,244.482,635.7763,245.6076,634.6506,240.0639,633.015,249.776" style="stroke: #A80036; stroke-width: 1.0;"/><text fill="#000000" font-family="sans-serif" font-size="13" lengthAdjust="spacingAndGlyphs" textLength="49" x="673.982" y="213.0669">Interest</text><text fill="#000000" font-family="sans-serif" font-size="13" lengthAdjust="spacingAndGlyphs" textLength="7" x="625.7712" y="239.0052">*</text></g></svg>