<?xml version="1.0" encoding="UTF-8" standalone="no"?><svg xmlns="http://www.w3.org/2000/svg" xmlns:xlink="http://www.w3.org/1999/xlink" contentScriptType="application/ecmascript" contentStyleType="text/css" height="742px" preserveAspectRatio="none" style="width:1390px;height:742px;" version="1.1" viewBox="0 0 1390 742" width="1390px" zoomAndPan="magnify"><defs><filter height="300%" id="f1kohffuqsdpk7" width="300%" x="-1" y="-1"><feGaussianBlur result="blurOut" stdDeviation="2.0"/><feColorMatrix in="blurOut" result="blurOut2" type="matrix" values="0 0 0 0 0 0 0 0 0 0 0 0 0 0 0 0 0 0 .4 0"/><feOffset dx="4.0" dy="4.0" in="blurOut2" result="blurOut3"/><feBlend in="SourceGraphic" in2="blurOut3" mode="normal"/></filter></defs><g><!--cluster ##5002--><!--cluster ##5005--><!--class CollateralManagement--><a target="_top" xlink:actuate="onRequest" xlink:href="../CollateralManagement.html" xlink:show="new" xlink:title="Set of operations relative to the management of collateral, variation margins, default fund participation and independent amount." xlink:type="simple"><rect fill="#FEFECE" filter="url(#f1kohffuqsdpk7)" height="23.9688" id="CollateralManagement" style="stroke: #A80036; stroke-width: 1.5;" width="147" x="658.75" y="40"/><rect fill="#FEFECE" height="23.9688" style="stroke: #A80036; stroke-width: 1.5;" width="147" x="658.75" y="40"/><text fill="#000000" font-family="sans-serif" font-size="12" lengthAdjust="spacingAndGlyphs" textLength="141" x="661.75" y="56.1387">CollateralManagement</text></a><!--class CollateralProposal--><a target="_top" xlink:actuate="onRequest" xlink:href="../CollateralProposal.html" xlink:show="new" xlink:title="Specifies collateral proposed to the counterparty." xlink:type="simple"><rect fill="#EEEEEE" filter="url(#f1kohffuqsdpk7)" height="23.9688" id="CollateralProposal" style="stroke: #A80036; stroke-width: 1.5;" width="120" x="75.5" y="144"/><rect fill="#EEEEEE" height="23.9688" style="stroke: #A80036; stroke-width: 1.5;" width="120" x="75.5" y="144"/><text fill="#000000" font-family="sans-serif" font-size="12" lengthAdjust="spacingAndGlyphs" textLength="114" x="78.5" y="160.1387">CollateralProposal</text></a><!--class CollateralValuation--><a target="_top" xlink:actuate="onRequest" xlink:href="../CollateralValuation.html" xlink:show="new" xlink:title="Provides details about the valuation of each piece of collateral that is posted." xlink:type="simple"><rect fill="#EEEEEE" filter="url(#f1kohffuqsdpk7)" height="23.9688" id="CollateralValuation" style="stroke: #A80036; stroke-width: 1.5;" width="124" x="38.5" y="40"/><rect fill="#EEEEEE" height="23.9688" style="stroke: #A80036; stroke-width: 1.5;" width="124" x="38.5" y="40"/><text fill="#000000" font-family="sans-serif" font-size="12" lengthAdjust="spacingAndGlyphs" textLength="118" x="41.5" y="56.1387">CollateralValuation</text></a><!--class Adjustment--><a target="_top" xlink:actuate="onRequest" xlink:href="../Adjustment.html" xlink:show="new" xlink:title="Modification on the value of goods and / or services. For example: rebate, discount." xlink:type="simple"><rect fill="#EEEEEE" filter="url(#f1kohffuqsdpk7)" height="23.9688" id="Adjustment" style="stroke: #A80036; stroke-width: 1.5;" width="77" x="397.75" y="708"/><rect fill="#EEEEEE" height="23.9688" style="stroke: #A80036; stroke-width: 1.5;" width="77" x="397.75" y="708"/><text fill="#000000" font-family="sans-serif" font-size="12" lengthAdjust="spacingAndGlyphs" textLength="71" x="400.75" y="724.1387">Adjustment</text></a><!--class CollateralInterestAdministration--><a target="_top" xlink:actuate="onRequest" xlink:href="../CollateralInterestAdministration.html" xlink:show="new" xlink:title="Calculation and request of interest linked to collateral." xlink:type="simple"><rect fill="#EEEEEE" filter="url(#f1kohffuqsdpk7)" height="23.9688" id="CollateralInterestAdministration" style="stroke: #A80036; stroke-width: 1.5;" width="204" x="334.5" y="622"/><rect fill="#EEEEEE" height="23.9688" style="stroke: #A80036; stroke-width: 1.5;" width="204" x="334.5" y="622"/><text fill="#000000" font-family="sans-serif" font-size="12" lengthAdjust="spacingAndGlyphs" textLength="198" x="337.5" y="638.1387">CollateralInterestAdministration</text></a><!--class DisputeManagement--><a target="_top" xlink:actuate="onRequest" xlink:href="../DisputeManagement.html" xlink:show="new" xlink:title="Provides the dispute details on the variation margin and/or the segregated independent amount." xlink:type="simple"><rect fill="#EEEEEE" filter="url(#f1kohffuqsdpk7)" height="23.9688" id="DisputeManagement" style="stroke: #A80036; stroke-width: 1.5;" width="136" x="401" y="536"/><rect fill="#EEEEEE" height="23.9688" style="stroke: #A80036; stroke-width: 1.5;" width="136" x="401" y="536"/><text fill="#000000" font-family="sans-serif" font-size="12" lengthAdjust="spacingAndGlyphs" textLength="130" x="404" y="552.1387">DisputeManagement</text></a><!--class MarginCall--><a target="_top" xlink:actuate="onRequest" xlink:href="../MarginCall.html" xlink:show="new" xlink:title="Specifies the calculation and the resulting margin and independent amount needed to cover the risk exposure of one party versus another." xlink:type="simple"><rect fill="#EEEEEE" filter="url(#f1kohffuqsdpk7)" height="23.9688" id="MarginCall" style="stroke: #A80036; stroke-width: 1.5;" width="70" x="434" y="450"/><rect fill="#EEEEEE" height="23.9688" style="stroke: #A80036; stroke-width: 1.5;" width="70" x="434" y="450"/><text fill="#000000" font-family="sans-serif" font-size="12" lengthAdjust="spacingAndGlyphs" textLength="64" x="437" y="466.1387">MarginCall</text></a><!--class CollateralSubstitution--><a target="_top" xlink:actuate="onRequest" xlink:href="../CollateralSubstitution.html" xlink:show="new" xlink:title="Substitution of collateral by specifying the collateral to be returned and proposing the new type(s) of collateral to be delivered." xlink:type="simple"><rect fill="#EEEEEE" filter="url(#f1kohffuqsdpk7)" height="23.9688" id="CollateralSubstitution" style="stroke: #A80036; stroke-width: 1.5;" width="141" x="396.75" y="348"/><rect fill="#EEEEEE" height="23.9688" style="stroke: #A80036; stroke-width: 1.5;" width="141" x="396.75" y="348"/><text fill="#000000" font-family="sans-serif" font-size="12" lengthAdjust="spacingAndGlyphs" textLength="135" x="399.75" y="364.1387">CollateralSubstitution</text></a><!--class ExposureCalculation--><a target="_top" xlink:actuate="onRequest" xlink:href="../ExposureCalculation.html" xlink:show="new" xlink:title="Description of the calculation of the amounts representing the risk that needs to be covered, together with the calculation of the existing coverage." xlink:type="simple"><rect fill="#EEEEEE" filter="url(#f1kohffuqsdpk7)" height="23.9688" id="ExposureCalculation" style="stroke: #A80036; stroke-width: 1.5;" width="133" x="404.75" y="246"/><rect fill="#EEEEEE" height="23.9688" style="stroke: #A80036; stroke-width: 1.5;" width="133" x="404.75" y="246"/><text fill="#000000" font-family="sans-serif" font-size="12" lengthAdjust="spacingAndGlyphs" textLength="127" x="407.75" y="262.1387">ExposureCalculation</text></a><!--class Collateral--><a target="_top" xlink:actuate="onRequest" xlink:href="../Collateral.html" xlink:show="new" xlink:title="Assets pledged by a debtor to secure a loan or an exposure and subject to seizure in the event of default." xlink:type="simple"><rect fill="#EEEEEE" filter="url(#f1kohffuqsdpk7)" height="23.9688" id="Collateral" style="stroke: #A80036; stroke-width: 1.5;" width="65" x="230.75" y="144"/><rect fill="#EEEEEE" height="23.9688" style="stroke: #A80036; stroke-width: 1.5;" width="65" x="230.75" y="144"/><text fill="#000000" font-family="sans-serif" font-size="12" lengthAdjust="spacingAndGlyphs" textLength="59" x="233.75" y="160.1387">Collateral</text></a><!--class CollateralAgreement--><a target="_top" xlink:actuate="onRequest" xlink:href="../CollateralAgreement.html" xlink:show="new" xlink:title="Agreement between two trading parties that contains information about their relative duties and rights regarding collateral processes." xlink:type="simple"><rect fill="#EEEEEE" filter="url(#f1kohffuqsdpk7)" height="23.9688" id="CollateralAgreement" style="stroke: #A80036; stroke-width: 1.5;" width="134" x="235" y="246"/><rect fill="#EEEEEE" height="23.9688" style="stroke: #A80036; stroke-width: 1.5;" width="134" x="235" y="246"/><text fill="#000000" font-family="sans-serif" font-size="12" lengthAdjust="spacingAndGlyphs" textLength="128" x="238" y="262.1387">CollateralAgreement</text></a><!--class ClearingSystem--><a target="_top" xlink:actuate="onRequest" xlink:href="../ClearingSystem.html" xlink:show="new" xlink:title="Specifies the system which plays a role in the clearing process." xlink:type="simple"><rect fill="#EEEEEE" filter="url(#f1kohffuqsdpk7)" height="23.9688" id="ClearingSystem" style="stroke: #A80036; stroke-width: 1.5;" width="102" x="331.5" y="144"/><rect fill="#EEEEEE" height="23.9688" style="stroke: #A80036; stroke-width: 1.5;" width="102" x="331.5" y="144"/><text fill="#000000" font-family="sans-serif" font-size="12" lengthAdjust="spacingAndGlyphs" textLength="96" x="334.5" y="160.1387">ClearingSystem</text></a><!--link CollateralValuation to CollateralProposal--><!--link Adjustment to CollateralValuation--><!--link CollateralInterestAdministration to Adjustment--><!--link DisputeManagement to CollateralInterestAdministration--><!--link MarginCall to DisputeManagement--><!--link CollateralSubstitution to MarginCall--><!--link ExposureCalculation to CollateralSubstitution--><!--link Collateral to ExposureCalculation--><!--link CollateralAgreement to Collateral--><!--link Collateral to CollateralAgreement--><path d="M230.612,164.321 C197.533,173.365 153.464,190.718 172,216 C185.594,234.542 207.593,244.915 229.66,250.65 " fill="none" id="Collateral-CollateralAgreement" style="stroke: #A80036; stroke-width: 1.0;"/><polygon fill="#A80036" points="234.664,251.873,226.871,245.8506,229.807,250.6859,224.9717,253.6218,234.664,251.873" style="stroke: #A80036; stroke-width: 1.0;"/><text fill="#000000" font-family="sans-serif" font-size="13" lengthAdjust="spacingAndGlyphs" textLength="132" x="173" y="211.0669">CollateralAgreement</text><text fill="#000000" font-family="sans-serif" font-size="13" lengthAdjust="spacingAndGlyphs" textLength="8" x="218.9955" y="246.599">1</text><!--link ClearingSystem to CollateralAgreement--><!--link CollateralManagement to CollateralProposal--><path d="M686.969,64.078 C651.18,72.342 599.712,83.027 554,88 C514.887,92.255 236.539,81.413 200,96 C177.681,104.91 158.195,125.229 146.521,139.521 " fill="none" id="CollateralManagement-CollateralProposal" style="stroke: #A80036; stroke-width: 1.0;"/><polygon fill="#A80036" points="143.154,143.744,151.892,139.2001,146.2709,139.8344,145.6366,134.2132,143.154,143.744" style="stroke: #A80036; stroke-width: 1.0;"/><text fill="#000000" font-family="sans-serif" font-size="13" lengthAdjust="spacingAndGlyphs" textLength="115" x="201" y="109.0669">CollateralProposal</text><text fill="#000000" font-family="sans-serif" font-size="13" lengthAdjust="spacingAndGlyphs" textLength="7" x="136.1988" y="132.9626">*</text><!--link CollateralManagement to CollateralValuation--><path d="M658.393,52 C534.519,52 286.255,52 166.983,52 " fill="none" id="CollateralManagement-CollateralValuation" style="stroke: #A80036; stroke-width: 1.0;"/><polygon fill="#A80036" points="161.75,52,170.75,56,166.75,52,170.75,48,161.75,52" style="stroke: #A80036; stroke-width: 1.0;"/><text fill="#000000" font-family="sans-serif" font-size="13" lengthAdjust="spacingAndGlyphs" textLength="120" x="349.25" y="44.0669">CollateralValuation</text><text fill="#000000" font-family="sans-serif" font-size="13" lengthAdjust="spacingAndGlyphs" textLength="7" x="170.4508" y="46.9357">*</text><!--link CollateralManagement to Adjustment--><path d="M805.286,52.8 C945.069,54.407 1236,68.181 1236,155 C1236,155 1236,155 1236,635 C1236,711.7177 646.581,718.6223 479.605,719.0391 " fill="none" id="CollateralManagement-Adjustment" style="stroke: #A80036; stroke-width: 1.0;"/><polygon fill="#A80036" points="474.316,719.0505,483.3251,723.0299,479.316,719.0391,483.3068,715.0299,474.316,719.0505" style="stroke: #A80036; stroke-width: 1.0;"/><text fill="#000000" font-family="sans-serif" font-size="13" lengthAdjust="spacingAndGlyphs" textLength="141" x="1237" y="415.0669">FeesAndCommissions</text><text fill="#000000" font-family="sans-serif" font-size="13" lengthAdjust="spacingAndGlyphs" textLength="7" x="482.889" y="713.1854">*</text><!--link CollateralManagement to CollateralInterestAdministration--><path d="M805.619,61.994 C898.428,75.431 1046,104.703 1046,155 C1046,155 1046,155 1046,549 C1046,599.183 717.816,620.941 542.887,628.974 " fill="none" id="CollateralManagement-CollateralInterestAdministration" style="stroke: #A80036; stroke-width: 1.0;"/><polygon fill="#A80036" points="537.757,629.208,546.9294,632.7951,542.7518,628.9809,546.566,624.8033,537.757,629.208" style="stroke: #A80036; stroke-width: 1.0;"/><text fill="#000000" font-family="sans-serif" font-size="13" lengthAdjust="spacingAndGlyphs" textLength="134" x="1047" y="364.0669">InterestManagement</text><text fill="#000000" font-family="sans-serif" font-size="13" lengthAdjust="spacingAndGlyphs" textLength="7" x="546.4322" y="624.1809">*</text><!--link CollateralManagement to DisputeManagement--><path d="M766.845,64.014 C786.311,71.211 810.329,81.904 829,96 C895.795,146.427 941.147,196.566 901,270 C816.501,424.559 604.847,505.604 512.846,534.497 " fill="none" id="CollateralManagement-DisputeManagement" style="stroke: #A80036; stroke-width: 1.0;"/><polygon fill="#A80036" points="508.024,535.998,517.8061,537.1431,512.7982,534.5123,515.429,529.5044,508.024,535.998" style="stroke: #A80036; stroke-width: 1.0;"/><text fill="#000000" font-family="sans-serif" font-size="13" lengthAdjust="spacingAndGlyphs" textLength="134" x="884" y="313.0669">DisputeManagement</text><text fill="#000000" font-family="sans-serif" font-size="13" lengthAdjust="spacingAndGlyphs" textLength="7" x="511.8916" y="525.0455">*</text><!--link CollateralManagement to MarginCall--><path d="M750.13,64.125 C789.505,89.763 876.765,155.455 844,216 C771.474,350.017 590.273,422.413 509.252,449.004 " fill="none" id="CollateralManagement-MarginCall" style="stroke: #A80036; stroke-width: 1.0;"/><polygon fill="#A80036" points="504.062,450.689,513.8574,451.7138,508.8176,449.1448,511.3866,444.1049,504.062,450.689" style="stroke: #A80036; stroke-width: 1.0;"/><text fill="#000000" font-family="sans-serif" font-size="13" lengthAdjust="spacingAndGlyphs" textLength="66" x="825" y="262.0669">MarginCall</text><text fill="#000000" font-family="sans-serif" font-size="13" lengthAdjust="spacingAndGlyphs" textLength="7" x="512.0154" y="442.6868">*</text><!--link CollateralManagement to CollateralSubstitution--><path d="M733.35,64.013 C735.443,85.563 737.412,134.153 718,168 C666.036,258.604 552.163,320.227 497.484,345.756 " fill="none" id="CollateralManagement-CollateralSubstitution" style="stroke: #A80036; stroke-width: 1.0;"/><polygon fill="#A80036" points="492.699,347.969,502.5468,347.8224,497.2373,345.8705,499.1892,340.5611,492.699,347.969" style="stroke: #A80036; stroke-width: 1.0;"/><text fill="#000000" font-family="sans-serif" font-size="13" lengthAdjust="spacingAndGlyphs" textLength="137" x="698" y="211.0669">CollateralSubstitution</text><text fill="#000000" font-family="sans-serif" font-size="13" lengthAdjust="spacingAndGlyphs" textLength="7" x="491.9002" y="337.0066">*</text><!--link CollateralManagement to ExposureCalculation--><path d="M720.017,64.258 C697.295,85.416 646.09,132.207 600,168 C563.637,196.239 518.985,226.031 492.889,242.985 " fill="none" id="CollateralManagement-ExposureCalculation" style="stroke: #A80036; stroke-width: 1.0;"/><polygon fill="#A80036" points="488.551,245.796,498.2791,244.2582,492.7469,243.0768,493.9283,237.5447,488.551,245.796" style="stroke: #A80036; stroke-width: 1.0;"/><text fill="#000000" font-family="sans-serif" font-size="13" lengthAdjust="spacingAndGlyphs" textLength="77" x="631" y="160.0669">RiskToCover</text><text fill="#000000" font-family="sans-serif" font-size="13" lengthAdjust="spacingAndGlyphs" textLength="24" x="464.9757" y="235.0319">0..1</text><!--link CollateralManagement to Collateral--><path d="M686.205,64.01 C650.433,72.122 599.351,82.638 554,88 C511.151,93.066 401.298,83.503 360,96 C344.016,100.837 306.692,125.121 283.283,140.988 " fill="none" id="CollateralManagement-Collateral" style="stroke: #A80036; stroke-width: 1.0;"/><polygon fill="#A80036" points="279.082,143.846,288.7728,142.0889,283.2155,141.0327,284.2716,135.4753,279.082,143.846" style="stroke: #A80036; stroke-width: 1.0;"/><text fill="#000000" font-family="sans-serif" font-size="13" lengthAdjust="spacingAndGlyphs" textLength="60" x="361" y="109.0669">Collateral</text><text fill="#000000" font-family="sans-serif" font-size="13" lengthAdjust="spacingAndGlyphs" textLength="7" x="274.9774" y="132.8413">*</text><!--link CollateralManagement to CollateralAgreement--><path d="M700.318,64.063 C655.593,80.022 571.727,111.207 503,144 C436.265,175.842 361.194,220.561 324.557,242.999 " fill="none" id="CollateralManagement-CollateralAgreement" style="stroke: #A80036; stroke-width: 1.0;"/><polygon fill="#A80036" points="319.858,245.883,329.6208,244.5839,324.1193,243.2674,325.4358,237.7659,319.858,245.883" style="stroke: #A80036; stroke-width: 1.0;"/><text fill="#000000" font-family="sans-serif" font-size="13" lengthAdjust="spacingAndGlyphs" textLength="86" x="504" y="160.0669">AgreedTerms</text><text fill="#000000" font-family="sans-serif" font-size="13" lengthAdjust="spacingAndGlyphs" textLength="8" x="315.2779" y="234.891">1</text><!--link CollateralManagement to ClearingSystem--><path d="M683.511,64.01 C647.856,71.745 598.129,81.782 554,88 C512.92,93.788 499.773,81.244 461,96 C435.555,105.684 411.234,126.108 396.462,140.189 " fill="none" id="CollateralManagement-ClearingSystem" style="stroke: #A80036; stroke-width: 1.0;"/><polygon fill="#A80036" points="392.555,143.979,401.7999,140.5832,396.1437,140.4974,396.2294,134.8412,392.555,143.979" style="stroke: #A80036; stroke-width: 1.0;"/><text fill="#000000" font-family="sans-serif" font-size="13" lengthAdjust="spacingAndGlyphs" textLength="101" x="462" y="109.0669">ClearingSystem</text><text fill="#000000" font-family="sans-serif" font-size="13" lengthAdjust="spacingAndGlyphs" textLength="8" x="385.2927" y="133.02">1</text><!--link CollateralValuation to Collateral--><path d="M95.4493,64.222 C90.8563,77.565 85.8869,99.808 97,114 C101.0173,119.13 177.629,136.514 225.354,146.926 " fill="none" id="CollateralValuation-Collateral" style="stroke: #A80036; stroke-width: 1.0;"/><polygon fill="#A80036" points="230.451,148.036,222.5086,142.2121,225.5656,146.9718,220.8058,150.0287,230.451,148.036" style="stroke: #A80036; stroke-width: 1.0;"/><text fill="#000000" font-family="sans-serif" font-size="13" lengthAdjust="spacingAndGlyphs" textLength="60" x="98" y="109.0669">Collateral</text><text fill="#000000" font-family="sans-serif" font-size="13" lengthAdjust="spacingAndGlyphs" textLength="7" x="215.8071" y="141.1849">*</text><!--link CollateralSubstitution to Collateral--><path d="M396.607,350.654 C306.947,338.409 159.67,312.323 127,270 C105.4904,242.135 132.489,219.96 160,198 C179.078,182.771 204.534,172.568 225.366,166.15 " fill="none" id="CollateralSubstitution-Collateral" style="stroke: #A80036; stroke-width: 1.0;"/><polygon fill="#A80036" points="230.281,164.678,220.5118,163.4277,225.4911,166.1122,222.8066,171.0916,230.281,164.678" style="stroke: #A80036; stroke-width: 1.0;"/><text fill="#000000" font-family="sans-serif" font-size="13" lengthAdjust="spacingAndGlyphs" textLength="87" x="128" y="262.0669">NewCollateral</text><text fill="#000000" font-family="sans-serif" font-size="13" lengthAdjust="spacingAndGlyphs" textLength="7" x="215.841" y="160.7896">*</text></g></svg>