<?xml version="1.0" encoding="UTF-8" standalone="no"?><svg xmlns="http://www.w3.org/2000/svg" xmlns:xlink="http://www.w3.org/1999/xlink" contentScriptType="application/ecmascript" contentStyleType="text/css" height="650px" preserveAspectRatio="none" style="width:984px;height:650px;" version="1.1" viewBox="0 0 984 650" width="984px" zoomAndPan="magnify"><defs><filter height="300%" id="fd3mo6xecgr7z" width="300%" x="-1" y="-1"><feGaussianBlur result="blurOut" stdDeviation="2.0"/><feColorMatrix in="blurOut" result="blurOut2" type="matrix" values="0 0 0 0 0 0 0 0 0 0 0 0 0 0 0 0 0 0 .4 0"/><feOffset dx="4.0" dy="4.0" in="blurOut2" result="blurOut3"/><feBlend in="SourceGraphic" in2="blurOut3" mode="normal"/></filter></defs><g><!--cluster ##13537--><!--cluster ##13543--><!--cluster ##13552--><!--class Agreement--><a target="_top" xlink:actuate="onRequest" xlink:href="../Agreement.html" xlink:show="new" xlink:title="Contractual details related to an agreement between parties." xlink:type="simple"><rect fill="#FEFEEE" filter="url(#fd3mo6xecgr7z)" height="70.3828" id="Agreement" style="stroke: #A80036; stroke-width: 1.5;" width="171" x="360.75" y="40"/><rect fill="#FEFEEE" height="23.9688" style="stroke: #A80036; stroke-width: 1.5;" width="171" x="360.75" y="40"/><text fill="#000000" font-family="sans-serif" font-size="12" lengthAdjust="spacingAndGlyphs" textLength="69" x="411.75" y="56.1387">Agreement</text><line style="stroke: #A80036; stroke-width: 1.5;" x1="361.75" x2="530.75" y1="63.9688" y2="63.9688"/><ellipse cx="371.75" cy="75.8711" fill="#84BE84" rx="3" ry="3" style="stroke: #038048; stroke-width: 1.0;"/><text fill="#000000" font-family="sans-serif" font-size="11" lengthAdjust="spacingAndGlyphs" textLength="65" x="380.75" y="78.1792">DateSigned</text><text fill="#000000" font-family="sans-serif" font-size="11" font-style="italic" lengthAdjust="spacingAndGlyphs" textLength="53" x="449.75" y="78.1792">(ISODate)</text><ellipse cx="371.75" cy="88.6758" fill="#84BE84" rx="3" ry="3" style="stroke: #038048; stroke-width: 1.0;"/><text fill="#000000" font-family="sans-serif" font-size="11" lengthAdjust="spacingAndGlyphs" textLength="64" x="380.75" y="90.9839">Description</text><text fill="#000000" font-family="sans-serif" font-size="11" font-style="italic" lengthAdjust="spacingAndGlyphs" textLength="77" x="448.75" y="90.9839">(Max350Text)</text><ellipse cx="371.75" cy="101.4805" fill="#84BE84" rx="3" ry="3" style="stroke: #038048; stroke-width: 1.0;"/><text fill="#000000" font-family="sans-serif" font-size="11" lengthAdjust="spacingAndGlyphs" textLength="43" x="380.75" y="103.7886">Version</text><text fill="#000000" font-family="sans-serif" font-size="11" font-style="italic" lengthAdjust="spacingAndGlyphs" textLength="70" x="427.75" y="103.7886">(Max35Text)</text></a><!--class CollateralAgreement--><a target="_top" xlink:actuate="onRequest" xlink:href="../CollateralAgreement.html" xlink:show="new" xlink:title="Agreement between two trading parties that contains information about their relative duties and rights regarding collateral processes." xlink:type="simple"><rect fill="#FEFECE" filter="url(#fd3mo6xecgr7z)" height="70.3828" id="CollateralAgreement" style="stroke: #A80036; stroke-width: 1.5;" width="313" x="218.75" y="188"/><rect fill="#FEFECE" height="23.9688" style="stroke: #A80036; stroke-width: 1.5;" width="313" x="218.75" y="188"/><text fill="#000000" font-family="sans-serif" font-size="12" lengthAdjust="spacingAndGlyphs" textLength="128" x="311.25" y="204.1387">CollateralAgreement</text><line style="stroke: #A80036; stroke-width: 1.5;" x1="219.75" x2="530.75" y1="211.9688" y2="211.9688"/><ellipse cx="229.75" cy="223.8711" fill="#84BE84" rx="3" ry="3" style="stroke: #038048; stroke-width: 1.0;"/><text fill="#000000" font-family="sans-serif" font-size="11" lengthAdjust="spacingAndGlyphs" textLength="80" x="238.75" y="226.1792">BaseCurrency</text><text fill="#000000" font-family="sans-serif" font-size="11" font-style="italic" lengthAdjust="spacingAndGlyphs" textLength="89" x="322.75" y="226.1792">(CurrencyCode)</text><ellipse cx="229.75" cy="236.6758" fill="#84BE84" rx="3" ry="3" style="stroke: #038048; stroke-width: 1.0;"/><text fill="#000000" font-family="sans-serif" font-size="11" lengthAdjust="spacingAndGlyphs" textLength="101" x="238.75" y="238.9839">MarginConvention</text><text fill="#000000" font-family="sans-serif" font-size="11" font-style="italic" lengthAdjust="spacingAndGlyphs" textLength="182" x="343.75" y="238.9839">(ExposureConventionTypeCode)</text><ellipse cx="229.75" cy="249.4805" fill="#84BE84" rx="3" ry="3" style="stroke: #038048; stroke-width: 1.0;"/><text fill="#000000" font-family="sans-serif" font-size="11" lengthAdjust="spacingAndGlyphs" textLength="79" x="238.75" y="251.7886">CallFrequency</text><text fill="#000000" font-family="sans-serif" font-size="11" font-style="italic" lengthAdjust="spacingAndGlyphs" textLength="96" x="321.75" y="251.7886">(FrequencyCode)</text></a><!--class DateTimePeriod--><a target="_top" xlink:actuate="onRequest" xlink:href="../DateTimePeriod.html" xlink:show="new" xlink:title="Time span defined by a start date and time, and an end date and time." xlink:type="simple"><rect fill="#EEEEEE" filter="url(#fd3mo6xecgr7z)" height="23.9688" id="DateTimePeriod" style="stroke: #A80036; stroke-width: 1.5;" width="105" x="774.75" y="340"/><rect fill="#EEEEEE" height="23.9688" style="stroke: #A80036; stroke-width: 1.5;" width="105" x="774.75" y="340"/><text fill="#000000" font-family="sans-serif" font-size="12" lengthAdjust="spacingAndGlyphs" textLength="99" x="777.75" y="356.1387">DateTimePeriod</text></a><!--class Document--><a target="_top" xlink:actuate="onRequest" xlink:href="../Document.html" xlink:show="new" xlink:title="General information that unambiguously identifies a document, such as identification number and issue date time." xlink:type="simple"><rect fill="#EEEEEE" filter="url(#fd3mo6xecgr7z)" height="23.9688" id="Document" style="stroke: #A80036; stroke-width: 1.5;" width="70" x="785" y="211"/><rect fill="#EEEEEE" height="23.9688" style="stroke: #A80036; stroke-width: 1.5;" width="70" x="785" y="211"/><text fill="#000000" font-family="sans-serif" font-size="12" lengthAdjust="spacingAndGlyphs" textLength="64" x="788" y="227.1387">Document</text></a><!--class CommercialTrade--><a target="_top" xlink:actuate="onRequest" xlink:href="../CommercialTrade.html" xlink:show="new" xlink:title="Commercial details of a trade transaction between a buyer and a seller." xlink:type="simple"><rect fill="#EEEEEE" filter="url(#fd3mo6xecgr7z)" height="23.9688" id="CommercialTrade" style="stroke: #A80036; stroke-width: 1.5;" width="114" x="625" y="340"/><rect fill="#EEEEEE" height="23.9688" style="stroke: #A80036; stroke-width: 1.5;" width="114" x="625" y="340"/><text fill="#000000" font-family="sans-serif" font-size="12" lengthAdjust="spacingAndGlyphs" textLength="108" x="628" y="356.1387">CommercialTrade</text></a><!--class Jurisdiction--><a target="_top" xlink:actuate="onRequest" xlink:href="../Jurisdiction.html" xlink:show="new" xlink:title="Specifies the jurisdiction (country, county, state, province, city)." xlink:type="simple"><rect fill="#EEEEEE" filter="url(#fd3mo6xecgr7z)" height="23.9688" id="Jurisdiction" style="stroke: #A80036; stroke-width: 1.5;" width="74" x="676" y="211"/><rect fill="#EEEEEE" height="23.9688" style="stroke: #A80036; stroke-width: 1.5;" width="74" x="676" y="211"/><text fill="#000000" font-family="sans-serif" font-size="12" lengthAdjust="spacingAndGlyphs" textLength="68" x="679" y="227.1387">Jurisdiction</text></a><!--class MasterAgreement--><a target="_top" xlink:actuate="onRequest" xlink:href="../MasterAgreement.html" xlink:show="new" xlink:title="Agreement which defines the framework of a contract between two trading parties in different domains such as collateral, derivatives, trade.." xlink:type="simple"><rect fill="#EEEEEE" filter="url(#fd3mo6xecgr7z)" height="23.9688" id="MasterAgreement" style="stroke: #A80036; stroke-width: 1.5;" width="118" x="250" y="616"/><rect fill="#EEEEEE" height="23.9688" style="stroke: #A80036; stroke-width: 1.5;" width="118" x="250" y="616"/><text fill="#000000" font-family="sans-serif" font-size="12" lengthAdjust="spacingAndGlyphs" textLength="112" x="253" y="632.1387">MasterAgreement</text></a><!--class StandingSettlementInstruction--><a target="_top" xlink:actuate="onRequest" xlink:href="../StandingSettlementInstruction.html" xlink:show="new" xlink:title="Settlement instruction database information." xlink:type="simple"><rect fill="#EEEEEE" filter="url(#fd3mo6xecgr7z)" height="23.9688" id="StandingSettlementInstruction" style="stroke: #A80036; stroke-width: 1.5;" width="198" x="270" y="530"/><rect fill="#EEEEEE" height="23.9688" style="stroke: #A80036; stroke-width: 1.5;" width="198" x="270" y="530"/><text fill="#000000" font-family="sans-serif" font-size="12" lengthAdjust="spacingAndGlyphs" textLength="192" x="273" y="546.1387">StandingSettlementInstruction</text></a><!--class ExposureTerm--><a target="_top" xlink:actuate="onRequest" xlink:href="../ExposureTerm.html" xlink:show="new" xlink:title="Specifies the terms used to calculate a risk exposure and its coverage." xlink:type="simple"><rect fill="#EEEEEE" filter="url(#fd3mo6xecgr7z)" height="23.9688" id="ExposureTerm" style="stroke: #A80036; stroke-width: 1.5;" width="95" x="230.75" y="444"/><rect fill="#EEEEEE" height="23.9688" style="stroke: #A80036; stroke-width: 1.5;" width="95" x="230.75" y="444"/><text fill="#000000" font-family="sans-serif" font-size="12" lengthAdjust="spacingAndGlyphs" textLength="89" x="233.75" y="460.1387">ExposureTerm</text></a><!--class Collateral--><a target="_top" xlink:actuate="onRequest" xlink:href="../Collateral.html" xlink:show="new" xlink:title="Assets pledged by a debtor to secure a loan or an exposure and subject to seizure in the event of default." xlink:type="simple"><rect fill="#EEEEEE" filter="url(#fd3mo6xecgr7z)" height="23.9688" id="Collateral" style="stroke: #A80036; stroke-width: 1.5;" width="65" x="412.75" y="340"/><rect fill="#EEEEEE" height="23.9688" style="stroke: #A80036; stroke-width: 1.5;" width="65" x="412.75" y="340"/><text fill="#000000" font-family="sans-serif" font-size="12" lengthAdjust="spacingAndGlyphs" textLength="59" x="415.75" y="356.1387">Collateral</text></a><!--class CollateralManagement--><a target="_top" xlink:actuate="onRequest" xlink:href="../CollateralManagement.html" xlink:show="new" xlink:title="Set of operations relative to the management of collateral, variation margins, default fund participation and independent amount." xlink:type="simple"><rect fill="#EEEEEE" filter="url(#fd3mo6xecgr7z)" height="23.9688" id="CollateralManagement" style="stroke: #A80036; stroke-width: 1.5;" width="147" x="360.75" y="444"/><rect fill="#EEEEEE" height="23.9688" style="stroke: #A80036; stroke-width: 1.5;" width="147" x="360.75" y="444"/><text fill="#000000" font-family="sans-serif" font-size="12" lengthAdjust="spacingAndGlyphs" textLength="141" x="363.75" y="460.1387">CollateralManagement</text></a><!--link Agreement to CollateralAgreement--><path d="M420.537,128.362 C410.887,148.204 400.16,170.263 391.542,187.984 " fill="none" id="Agreement-CollateralAgreement" style="stroke: #A80036; stroke-width: 1.0;"/><polygon fill="none" points="414.312,125.155,429.354,110.231,426.902,131.278,414.312,125.155" style="stroke: #A80036; stroke-width: 1.0;"/><!--link Document to DateTimePeriod--><!--link CommercialTrade to Document--><!--link Document to CommercialTrade--><path d="M813.39,235.22 C804.669,248.877 787.942,271.424 767,282 C751.841,289.655 703.255,278.244 691,290 C679.27,301.252 678.288,320.617 679.432,334.512 " fill="none" id="Document-CommercialTrade" style="stroke: #A80036; stroke-width: 1.0;"/><polygon fill="#A80036" points="679.979,339.724,683.0186,330.3559,679.4576,334.7513,675.0623,331.1902,679.979,339.724" style="stroke: #A80036; stroke-width: 1.0;"/><text fill="#000000" font-family="sans-serif" font-size="13" lengthAdjust="spacingAndGlyphs" textLength="113" x="692" y="303.0669">CommercialTrade</text><text fill="#000000" font-family="sans-serif" font-size="13" lengthAdjust="spacingAndGlyphs" textLength="7" x="669.8189" y="328.936">*</text><!--link Jurisdiction to CommercialTrade--><!--link StandingSettlementInstruction to MasterAgreement--><!--link ExposureTerm to StandingSettlementInstruction--><!--link Collateral to ExposureTerm--><!--link CollateralManagement to Collateral--><!--link Collateral to CollateralManagement--><path d="M429.418,364.002 C417.706,371.784 400.995,381.884 385,388 C368.473,394.319 357.184,382.289 346,396 C329.569,416.143 358.098,432.027 386.954,442.216 " fill="none" id="Collateral-CollateralManagement" style="stroke: #A80036; stroke-width: 1.0;"/><polygon fill="#A80036" points="391.957,443.926,384.735,437.2295,387.2259,442.3085,382.1469,444.7994,391.957,443.926" style="stroke: #A80036; stroke-width: 1.0;"/><text fill="#000000" font-family="sans-serif" font-size="13" lengthAdjust="spacingAndGlyphs" textLength="145" x="347" y="409.0669">CollateralManagement</text><text fill="#000000" font-family="sans-serif" font-size="13" lengthAdjust="spacingAndGlyphs" textLength="8" x="366.7" y="432.9488">1</text><!--link Agreement to DateTimePeriod--><path d="M531.334,83.08 C629.535,92.432 783.737,111.167 834,140 C890.771,172.566 891.966,219.36 873,282 C866.724,302.729 851.939,322.923 840.813,336.053 " fill="none" id="Agreement-DateTimePeriod" style="stroke: #A80036; stroke-width: 1.0;"/><polygon fill="#A80036" points="837.491,339.893,846.4036,335.7018,840.7615,336.111,840.3523,330.4689,837.491,339.893" style="stroke: #A80036; stroke-width: 1.0;"/><text fill="#000000" font-family="sans-serif" font-size="13" lengthAdjust="spacingAndGlyphs" textLength="86" x="884" y="227.0669">ValidityPeriod</text><text fill="#000000" font-family="sans-serif" font-size="13" lengthAdjust="spacingAndGlyphs" textLength="7" x="831.4645" y="328.9044">*</text><!--link Agreement to Document--><path d="M531.37,83.425 C590.191,91.283 668.677,107.34 731,140 C763.007,156.773 792.179,188.021 807.878,206.723 " fill="none" id="Agreement-Document" style="stroke: #A80036; stroke-width: 1.0;"/><polygon fill="#A80036" points="811.204,210.74,808.5437,201.2572,808.0146,206.8893,802.3826,206.3603,811.204,210.74" style="stroke: #A80036; stroke-width: 1.0;"/><text fill="#000000" font-family="sans-serif" font-size="13" lengthAdjust="spacingAndGlyphs" textLength="67" x="757" y="153.0669">Document</text><text fill="#000000" font-family="sans-serif" font-size="13" lengthAdjust="spacingAndGlyphs" textLength="8" x="797.6341" y="199.9573">1</text><!--link Agreement to CommercialTrade--><path d="M479.086,110.184 C499.514,131.731 525.944,160.411 548,187 C581.654,227.57 585.411,241.377 619,282 C634.873,301.197 654.372,322.191 667.435,335.919 " fill="none" id="Agreement-CommercialTrade" style="stroke: #A80036; stroke-width: 1.0;"/><polygon fill="#A80036" points="670.941,339.591,667.62,330.319,667.4886,335.9743,661.8332,335.8429,670.941,339.591" style="stroke: #A80036; stroke-width: 1.0;"/><text fill="#000000" font-family="sans-serif" font-size="13" lengthAdjust="spacingAndGlyphs" textLength="36" x="620" y="227.0669">Trade</text><text fill="#000000" font-family="sans-serif" font-size="13" lengthAdjust="spacingAndGlyphs" textLength="8" x="656.8222" y="329.0193">1</text><!--link Agreement to Jurisdiction--><path d="M531.399,97.698 C563.101,107.853 598.497,121.798 628,140 C657.851,158.417 685.762,188.835 700.996,206.992 " fill="none" id="Agreement-Jurisdiction" style="stroke: #A80036; stroke-width: 1.0;"/><polygon fill="#A80036" points="704.231,210.891,701.563,201.4104,701.0385,207.0429,695.406,206.5184,704.231,210.891" style="stroke: #A80036; stroke-width: 1.0;"/><text fill="#000000" font-family="sans-serif" font-size="13" lengthAdjust="spacingAndGlyphs" textLength="68" x="653" y="153.0669">Jurisdiction</text><text fill="#000000" font-family="sans-serif" font-size="13" lengthAdjust="spacingAndGlyphs" textLength="24" x="671.7479" y="199.9017">0..1</text><!--link CollateralAgreement to MasterAgreement--><path d="M218.511,248.943 C117.94,269.56 6,303.236 6,351 C6,351 6,351 6,543 C6,592.1065 155.659,613.6788 244.617,622.1639 " fill="none" id="CollateralAgreement-MasterAgreement" style="stroke: #A80036; stroke-width: 1.0;"/><polygon fill="#A80036" points="249.859,622.6555,241.2721,617.8321,244.8809,622.1884,240.5247,625.7971,249.859,622.6555" style="stroke: #A80036; stroke-width: 1.0;"/><text fill="#000000" font-family="sans-serif" font-size="13" lengthAdjust="spacingAndGlyphs" textLength="186" x="7" y="460.0669">AssociatedMasterAgreement</text><text fill="#000000" font-family="sans-serif" font-size="13" lengthAdjust="spacingAndGlyphs" textLength="7" x="234.8983" y="617.2171">*</text><!--link CollateralAgreement to StandingSettlementInstruction--><path d="M457.078,258.174 C470.374,266.851 482.781,277.384 492,290 C539.422,354.9 567.058,400.126 524,468 C503.649,500.079 465.025,518.319 431.425,528.545 " fill="none" id="CollateralAgreement-StandingSettlementInstruction" style="stroke: #A80036; stroke-width: 1.0;"/><polygon fill="#A80036" points="426.507,529.996,436.271,531.2861,431.3027,528.5813,434.0075,523.613,426.507,529.996" style="stroke: #A80036; stroke-width: 1.0;"/><text fill="#000000" font-family="sans-serif" font-size="13" lengthAdjust="spacingAndGlyphs" textLength="203" x="547" y="409.0669">StandingSettlementInstructions</text><text fill="#000000" font-family="sans-serif" font-size="13" lengthAdjust="spacingAndGlyphs" textLength="7" x="436.7282" y="519.0428">*</text><!--link CollateralAgreement to ExposureTerm--><path d="M262.665,258.009 C235.941,271.645 210.662,290.405 195,316 C178.297,343.295 181.201,359.128 195,388 C206.337,411.721 230.626,429.738 250.014,441.082 " fill="none" id="CollateralAgreement-ExposureTerm" style="stroke: #A80036; stroke-width: 1.0;"/><polygon fill="#A80036" points="254.827,443.821,248.985,435.8919,250.4819,441.3471,245.0267,442.844,254.827,443.821" style="stroke: #A80036; stroke-width: 1.0;"/><text fill="#000000" font-family="sans-serif" font-size="13" lengthAdjust="spacingAndGlyphs" textLength="92" x="196" y="356.0669">ExposureTerm</text><text fill="#000000" font-family="sans-serif" font-size="13" lengthAdjust="spacingAndGlyphs" textLength="7" x="237.2285" y="432.8077">*</text><!--link CollateralAgreement to Collateral--><path d="M393.759,258.034 C407.572,283.095 425.723,316.025 436.301,335.217 " fill="none" id="CollateralAgreement-Collateral" style="stroke: #A80036; stroke-width: 1.0;"/><polygon fill="#A80036" points="438.82,339.787,437.9785,329.9742,436.4064,335.4082,430.9724,333.836,438.82,339.787" style="stroke: #A80036; stroke-width: 1.0;"/><text fill="#000000" font-family="sans-serif" font-size="13" lengthAdjust="spacingAndGlyphs" textLength="60" x="422" y="303.0669">Collateral</text><text fill="#000000" font-family="sans-serif" font-size="13" lengthAdjust="spacingAndGlyphs" textLength="7" x="427.1994" y="329.0199">*</text><!--link CollateralAgreement to CollateralManagement--><path d="M341.142,258.014 C327.414,274.164 313.134,294.597 306,316 C295.881,346.358 293.209,358.668 306,388 C318.274,416.146 348.079,432.694 375.842,442.301 " fill="none" id="CollateralAgreement-CollateralManagement" style="stroke: #A80036; stroke-width: 1.0;"/><polygon fill="#A80036" points="380.636,443.899,373.3628,437.2582,375.8926,442.3179,370.8329,444.8477,380.636,443.899" style="stroke: #A80036; stroke-width: 1.0;"/><text fill="#000000" font-family="sans-serif" font-size="13" lengthAdjust="spacingAndGlyphs" textLength="86" x="307" y="356.0669">RiskCoverage</text><text fill="#000000" font-family="sans-serif" font-size="13" lengthAdjust="spacingAndGlyphs" textLength="24" x="332.7374" y="432.9125">0..1</text><!--link DateTimePeriod to StandingSettlementInstruction--><path d="M819.729,364.199 C810.614,377.52 793.877,399.74 775,414 C684.341,482.484 556.024,514.522 468.049,529.186 " fill="none" id="DateTimePeriod-StandingSettlementInstruction" style="stroke: #A80036; stroke-width: 1.0;"/><polygon fill="#A80036" points="463.104,529.999,472.6338,532.4856,468.0377,529.1877,471.3357,524.5916,463.104,529.999" style="stroke: #A80036; stroke-width: 1.0;"/><text fill="#000000" font-family="sans-serif" font-size="13" lengthAdjust="spacingAndGlyphs" textLength="244" x="728" y="460.0669">RelatedStandingSettlementInstruction</text><text fill="#000000" font-family="sans-serif" font-size="13" lengthAdjust="spacingAndGlyphs" textLength="7" x="475.8249" y="521.344">*</text></g></svg>