<?xml version="1.0" encoding="UTF-8" standalone="no"?><svg xmlns="http://www.w3.org/2000/svg" xmlns:xlink="http://www.w3.org/1999/xlink" contentScriptType="application/ecmascript" contentStyleType="text/css" height="480px" preserveAspectRatio="none" style="width:570px;height:480px;" version="1.1" viewBox="0 0 570 480" width="570px" zoomAndPan="magnify"><defs><filter height="300%" id="f1ooqmu112rax8" width="300%" x="-1" y="-1"><feGaussianBlur result="blurOut" stdDeviation="2.0"/><feColorMatrix in="blurOut" result="blurOut2" type="matrix" values="0 0 0 0 0 0 0 0 0 0 0 0 0 0 0 0 0 0 .4 0"/><feOffset dx="4.0" dy="4.0" in="blurOut2" result="blurOut3"/><feBlend in="SourceGraphic" in2="blurOut3" mode="normal"/></filter></defs><g><!--cluster ##3850--><!--cluster ##3856--><!--cluster ##3865--><!--class Role--><a target="_top" xlink:actuate="onRequest" xlink:href="../Role.html" xlink:show="new" xlink:title="Role of a party in an activity." xlink:type="simple"><rect fill="#FEFEEE" filter="url(#f1ooqmu112rax8)" height="44.7734" id="Role" style="stroke: #A80036; stroke-width: 1.5;" width="175" x="38.75" y="40.5"/><rect fill="#FEFEEE" height="23.9688" style="stroke: #A80036; stroke-width: 1.5;" width="175" x="38.75" y="40.5"/><text fill="#000000" font-family="sans-serif" font-size="12" lengthAdjust="spacingAndGlyphs" textLength="27" x="112.75" y="56.6387">Role</text><line style="stroke: #A80036; stroke-width: 1.5;" x1="39.75" x2="212.75" y1="64.4688" y2="64.4688"/><ellipse cx="49.75" cy="76.3711" fill="#84BE84" rx="3" ry="3" style="stroke: #038048; stroke-width: 1.0;"/><text fill="#000000" font-family="sans-serif" font-size="11" lengthAdjust="spacingAndGlyphs" textLength="53" x="58.75" y="78.6792">PartyRole</text><text fill="#000000" font-family="sans-serif" font-size="11" font-style="italic" lengthAdjust="spacingAndGlyphs" textLength="92" x="115.75" y="78.6792">(PartyRoleCode)</text></a><!--class CollateralPartyRole--><a target="_top" xlink:actuate="onRequest" xlink:href="../CollateralPartyRole.html" xlink:show="new" xlink:title="Role played by a party in the context of collateral." xlink:type="simple"><rect fill="#FEFECE" filter="url(#f1ooqmu112rax8)" height="23.9688" id="CollateralPartyRole" style="stroke: #A80036; stroke-width: 1.5;" width="124" x="38.5" y="166"/><rect fill="#FEFECE" height="23.9688" style="stroke: #A80036; stroke-width: 1.5;" width="124" x="38.5" y="166"/><text fill="#000000" font-family="sans-serif" font-size="12" lengthAdjust="spacingAndGlyphs" textLength="118" x="41.5" y="182.1387">CollateralPartyRole</text></a><!--class RolePlayer--><a target="_top" xlink:actuate="onRequest" xlink:href="../RolePlayer.html" xlink:show="new" xlink:title="Type of entity that plays a specific role in a specific context." xlink:type="simple"><rect fill="#EEEEEE" filter="url(#f1ooqmu112rax8)" height="23.9688" id="RolePlayer" style="stroke: #A80036; stroke-width: 1.5;" width="71" x="440.75" y="446"/><rect fill="#EEEEEE" height="23.9688" style="stroke: #A80036; stroke-width: 1.5;" width="71" x="440.75" y="446"/><text fill="#000000" font-family="sans-serif" font-size="12" lengthAdjust="spacingAndGlyphs" textLength="65" x="443.75" y="462.1387">RolePlayer</text></a><!--class ContactPersonRole--><a target="_top" xlink:actuate="onRequest" xlink:href="../ContactPersonRole.html" xlink:show="new" xlink:title="Person to be contacted in a given organisation. In the corporate action domain (including meeting notifications) , it is the contact person at the party organising the meeting, at the issuer or at an intermediary." xlink:type="simple"><rect fill="#EEEEEE" filter="url(#f1ooqmu112rax8)" height="23.9688" id="ContactPersonRole" style="stroke: #A80036; stroke-width: 1.5;" width="126" x="433" y="360"/><rect fill="#EEEEEE" height="23.9688" style="stroke: #A80036; stroke-width: 1.5;" width="126" x="433" y="360"/><text fill="#000000" font-family="sans-serif" font-size="12" lengthAdjust="spacingAndGlyphs" textLength="120" x="436" y="376.1387">ContactPersonRole</text></a><!--class CounterpartyRisk--><a target="_top" xlink:actuate="onRequest" xlink:href="../CounterpartyRisk.html" xlink:show="new" xlink:title="Calculation of the exposure amount that one party has vis-a-vis one counterparty or a central system, based on its credit risk." xlink:type="simple"><rect fill="#EEEEEE" filter="url(#f1ooqmu112rax8)" height="23.9688" id="CounterpartyRisk" style="stroke: #A80036; stroke-width: 1.5;" width="113" x="439.75" y="272"/><rect fill="#EEEEEE" height="23.9688" style="stroke: #A80036; stroke-width: 1.5;" width="113" x="439.75" y="272"/><text fill="#000000" font-family="sans-serif" font-size="12" lengthAdjust="spacingAndGlyphs" textLength="107" x="442.75" y="288.1387">CounterpartyRisk</text></a><!--class Entry--><a target="_top" xlink:actuate="onRequest" xlink:href="../Entry.html" xlink:show="new" xlink:title="Posting to an account that results in an increase or decrease to a balance." xlink:type="simple"><rect fill="#EEEEEE" filter="url(#f1ooqmu112rax8)" height="23.9688" id="Entry" style="stroke: #A80036; stroke-width: 1.5;" width="38" x="521" y="166"/><rect fill="#EEEEEE" height="23.9688" style="stroke: #A80036; stroke-width: 1.5;" width="38" x="521" y="166"/><text fill="#000000" font-family="sans-serif" font-size="12" lengthAdjust="spacingAndGlyphs" textLength="32" x="524" y="182.1387">Entry</text></a><!--class Collateral--><a target="_top" xlink:actuate="onRequest" xlink:href="../Collateral.html" xlink:show="new" xlink:title="Assets pledged by a debtor to secure a loan or an exposure and subject to seizure in the event of default." xlink:type="simple"><rect fill="#EEEEEE" filter="url(#f1ooqmu112rax8)" height="23.9688" id="Collateral" style="stroke: #A80036; stroke-width: 1.5;" width="65" x="67.75" y="272"/><rect fill="#EEEEEE" height="23.9688" style="stroke: #A80036; stroke-width: 1.5;" width="65" x="67.75" y="272"/><text fill="#000000" font-family="sans-serif" font-size="12" lengthAdjust="spacingAndGlyphs" textLength="59" x="70.75" y="288.1387">Collateral</text></a><!--link Role to CollateralPartyRole--><path d="M116.515,105.222 C111.527,126.901 105.7924,151.825 102.5621,165.865 " fill="none" id="Role-CollateralPartyRole" style="stroke: #A80036; stroke-width: 1.0;"/><polygon fill="none" points="109.742,103.442,121.048,85.52,123.385,106.581,109.742,103.442" style="stroke: #A80036; stroke-width: 1.0;"/><!--link ContactPersonRole to RolePlayer--><!--link CounterpartyRisk to ContactPersonRole--><!--link Entry to CounterpartyRisk--><!--link Role to RolePlayer--><path d="M157.629,85.603 C183.21,105.892 215,138.792 215,177 C215,177 215,177 215,373 C215,418.7304 362.025,443.1339 435.378,452.4635 " fill="none" id="Role-RolePlayer" style="stroke: #A80036; stroke-width: 1.0;"/><polygon fill="#A80036" points="440.529,453.1092,432.0959,448.0216,435.5678,452.4878,431.1016,455.9596,440.529,453.1092" style="stroke: #A80036; stroke-width: 1.0;"/><text fill="#000000" font-family="sans-serif" font-size="13" lengthAdjust="spacingAndGlyphs" textLength="39" x="216" y="288.0669">Player</text><text fill="#000000" font-family="sans-serif" font-size="13" lengthAdjust="spacingAndGlyphs" textLength="7" x="425.8674" y="446.9718">*</text><!--link Role to ContactPersonRole--><path d="M198.503,85.566 C214.234,93.08 229.563,103.006 241,116 C279.083,159.268 243.545,194.553 279,240 C326.236,300.548 409.907,339.421 458.391,358.034 " fill="none" id="Role-ContactPersonRole" style="stroke: #A80036; stroke-width: 1.0;"/><polygon fill="#A80036" points="463.259,359.88,456.2624,352.9483,458.584,358.1069,453.4254,360.4284,463.259,359.88" style="stroke: #A80036; stroke-width: 1.0;"/><text fill="#000000" font-family="sans-serif" font-size="13" lengthAdjust="spacingAndGlyphs" textLength="121" x="280" y="235.0669">ContactPersonRole</text><text fill="#000000" font-family="sans-serif" font-size="13" lengthAdjust="spacingAndGlyphs" textLength="8" x="441.2855" y="348.887">1</text><!--link Role to CounterpartyRisk--><path d="M213.518,76.923 C246.304,84.629 282.68,96.816 312,116 C359.049,146.784 346.981,180.317 392,214 C399.336,219.489 403.006,217.523 411,222 C435.691,235.827 461.81,255.417 478.475,268.634 " fill="none" id="Role-CounterpartyRisk" style="stroke: #A80036; stroke-width: 1.0;"/><polygon fill="#A80036" points="482.501,271.85,477.9642,263.1083,478.5939,268.73,472.9722,269.3597,482.501,271.85" style="stroke: #A80036; stroke-width: 1.0;"/><text fill="#000000" font-family="sans-serif" font-size="13" lengthAdjust="spacingAndGlyphs" textLength="109" x="393" y="182.0669">CounterpartyRisk</text><text fill="#000000" font-family="sans-serif" font-size="13" lengthAdjust="spacingAndGlyphs" textLength="24" x="448.306" y="260.8467">0..1</text><!--link Role to Entry--><path d="M213.3,70.171 C290.51,78.433 404.471,97.628 494,142 C504.818,147.361 515.627,155.414 524.047,162.444 " fill="none" id="Role-Entry" style="stroke: #A80036; stroke-width: 1.0;"/><polygon fill="#A80036" points="527.979,165.797,523.7265,156.9135,524.1746,162.5526,518.5355,163.0006,527.979,165.797" style="stroke: #A80036; stroke-width: 1.0;"/><text fill="#000000" font-family="sans-serif" font-size="13" lengthAdjust="spacingAndGlyphs" textLength="33" x="476" y="129.0669">Entry</text><text fill="#000000" font-family="sans-serif" font-size="13" lengthAdjust="spacingAndGlyphs" textLength="8" x="513.3408" y="155.0332">1</text><!--link CollateralPartyRole to Collateral--><path d="M100,190.13 C100,208.583 100,245.586 100,266.892 " fill="none" id="CollateralPartyRole-Collateral" style="stroke: #A80036; stroke-width: 1.0;"/><polygon fill="#A80036" points="100,271.95,104,262.95,100,266.95,96,262.95,100,271.95" style="stroke: #A80036; stroke-width: 1.0;"/><text fill="#000000" font-family="sans-serif" font-size="13" lengthAdjust="spacingAndGlyphs" textLength="60" x="101" y="235.0669">Collateral</text><text fill="#000000" font-family="sans-serif" font-size="13" lengthAdjust="spacingAndGlyphs" textLength="7" x="90.3672" y="260.981">*</text></g></svg>