<?xml version="1.0" encoding="UTF-8" standalone="no"?><svg xmlns="http://www.w3.org/2000/svg" xmlns:xlink="http://www.w3.org/1999/xlink" contentScriptType="application/ecmascript" contentStyleType="text/css" height="716px" preserveAspectRatio="none" style="width:1890px;height:716px;" version="1.1" viewBox="0 0 1890 716" width="1890px" zoomAndPan="magnify"><defs><filter height="300%" id="fwvvivnjlp1c" width="300%" x="-1" y="-1"><feGaussianBlur result="blurOut" stdDeviation="2.0"/><feColorMatrix in="blurOut" result="blurOut2" type="matrix" values="0 0 0 0 0 0 0 0 0 0 0 0 0 0 0 0 0 0 .4 0"/><feOffset dx="4.0" dy="4.0" in="blurOut2" result="blurOut3"/><feBlend in="SourceGraphic" in2="blurOut3" mode="normal"/></filter></defs><g><!--cluster ##8117--><!--cluster ##8120--><!--class Collateral--><a target="_top" xlink:actuate="onRequest" xlink:href="../Collateral.html" xlink:show="new" xlink:title="Assets pledged by a debtor to secure a loan or an exposure and subject to seizure in the event of default." xlink:type="simple"><rect fill="#FEFECE" filter="url(#fwvvivnjlp1c)" height="95.9922" id="Collateral" style="stroke: #A80036; stroke-width: 1.5;" width="314" x="768" y="40"/><rect fill="#FEFECE" height="23.9688" style="stroke: #A80036; stroke-width: 1.5;" width="314" x="768" y="40"/><text fill="#000000" font-family="sans-serif" font-size="12" lengthAdjust="spacingAndGlyphs" textLength="59" x="895.5" y="56.1387">Collateral</text><line style="stroke: #A80036; stroke-width: 1.5;" x1="769" x2="1081" y1="63.9688" y2="63.9688"/><ellipse cx="779" cy="75.8711" fill="#84BE84" rx="3" ry="3" style="stroke: #038048; stroke-width: 1.0;"/><text fill="#000000" font-family="sans-serif" font-size="11" lengthAdjust="spacingAndGlyphs" textLength="97" x="788" y="78.1792">CollateralAmount</text><text fill="#000000" font-family="sans-serif" font-size="11" font-style="italic" lengthAdjust="spacingAndGlyphs" textLength="126" x="889" y="78.1792">(CurrencyAndAmount)</text><ellipse cx="779" cy="88.6758" fill="#84BE84" rx="3" ry="3" style="stroke: #038048; stroke-width: 1.0;"/><text fill="#000000" font-family="sans-serif" font-size="11" lengthAdjust="spacingAndGlyphs" textLength="81" x="788" y="90.9839">CollateralType</text><text fill="#000000" font-family="sans-serif" font-size="11" font-style="italic" lengthAdjust="spacingAndGlyphs" textLength="119" x="873" y="90.9839">(CollateralTypeCode)</text><ellipse cx="779" cy="101.4805" fill="#84BE84" rx="3" ry="3" style="stroke: #038048; stroke-width: 1.0;"/><text fill="#000000" font-family="sans-serif" font-size="11" lengthAdjust="spacingAndGlyphs" textLength="123" x="788" y="103.7886">BaseCurrencyAmount</text><text fill="#000000" font-family="sans-serif" font-size="11" font-style="italic" lengthAdjust="spacingAndGlyphs" textLength="161" x="915" y="103.7886">(ActiveCurrencyAndAmount)</text><ellipse cx="779" cy="114.2852" fill="#84BE84" rx="3" ry="3" style="stroke: #038048; stroke-width: 1.0;"/><text fill="#000000" font-family="sans-serif" font-size="11" lengthAdjust="spacingAndGlyphs" textLength="101" x="788" y="116.5933">CollateralPurpose</text><text fill="#000000" font-family="sans-serif" font-size="11" font-style="italic" lengthAdjust="spacingAndGlyphs" textLength="137" x="893" y="116.5933">(CollateralPurposeCode)</text><ellipse cx="779" cy="127.0898" fill="#84BE84" rx="3" ry="3" style="stroke: #038048; stroke-width: 1.0;"/><text fill="#000000" font-family="sans-serif" font-size="11" lengthAdjust="spacingAndGlyphs" textLength="115" x="788" y="129.3979">CollateralOwnership</text><text fill="#000000" font-family="sans-serif" font-size="11" font-style="italic" lengthAdjust="spacingAndGlyphs" textLength="70" x="907" y="129.3979">(Max35Text)</text></a><!--class CollateralValuation--><a target="_top" xlink:actuate="onRequest" xlink:href="../CollateralValuation.html" xlink:show="new" xlink:title="Provides details about the valuation of each piece of collateral that is posted." xlink:type="simple"><rect fill="#EEEEEE" filter="url(#fwvvivnjlp1c)" height="23.9688" id="CollateralValuation" style="stroke: #A80036; stroke-width: 1.5;" width="124" x="38.5" y="76"/><rect fill="#EEEEEE" height="23.9688" style="stroke: #A80036; stroke-width: 1.5;" width="124" x="38.5" y="76"/><text fill="#000000" font-family="sans-serif" font-size="12" lengthAdjust="spacingAndGlyphs" textLength="118" x="41.5" y="92.1387">CollateralValuation</text></a><!--class CollateralBalance--><a target="_top" xlink:actuate="onRequest" xlink:href="../CollateralBalance.html" xlink:show="new" xlink:title="Specifies the different values taken into account to calculate the current collateral." xlink:type="simple"><rect fill="#EEEEEE" filter="url(#fwvvivnjlp1c)" height="23.9688" id="CollateralBalance" style="stroke: #A80036; stroke-width: 1.5;" width="115" x="242.75" y="424"/><rect fill="#EEEEEE" height="23.9688" style="stroke: #A80036; stroke-width: 1.5;" width="115" x="242.75" y="424"/><text fill="#000000" font-family="sans-serif" font-size="12" lengthAdjust="spacingAndGlyphs" textLength="109" x="245.75" y="440.1387">CollateralBalance</text></a><!--class Account--><a target="_top" xlink:actuate="onRequest" xlink:href="../Account.html" xlink:show="new" xlink:title="Record of transactions in specific types of assets, maintained by a servicing party on behalf of one or more owning parties. Business relationship between an account servicer and one or more account owners." xlink:type="simple"><rect fill="#EEEEEE" filter="url(#fwvvivnjlp1c)" height="23.9688" id="Account" style="stroke: #A80036; stroke-width: 1.5;" width="57" x="271.75" y="320"/><rect fill="#EEEEEE" height="23.9688" style="stroke: #A80036; stroke-width: 1.5;" width="57" x="271.75" y="320"/><text fill="#000000" font-family="sans-serif" font-size="12" lengthAdjust="spacingAndGlyphs" textLength="51" x="274.75" y="336.1387">Account</text></a><!--class CollateralManagement--><a target="_top" xlink:actuate="onRequest" xlink:href="../CollateralManagement.html" xlink:show="new" xlink:title="Set of operations relative to the management of collateral, variation margins, default fund participation and independent amount." xlink:type="simple"><rect fill="#EEEEEE" filter="url(#fwvvivnjlp1c)" height="23.9688" id="CollateralManagement" style="stroke: #A80036; stroke-width: 1.5;" width="147" x="87.75" y="216"/><rect fill="#EEEEEE" height="23.9688" style="stroke: #A80036; stroke-width: 1.5;" width="147" x="87.75" y="216"/><text fill="#000000" font-family="sans-serif" font-size="12" lengthAdjust="spacingAndGlyphs" textLength="141" x="90.75" y="232.1387">CollateralManagement</text></a><!--class CollateralPartyRole--><a target="_top" xlink:actuate="onRequest" xlink:href="../CollateralPartyRole.html" xlink:show="new" xlink:title="Role played by a party in the context of collateral." xlink:type="simple"><rect fill="#EEEEEE" filter="url(#fwvvivnjlp1c)" height="23.9688" id="CollateralPartyRole" style="stroke: #A80036; stroke-width: 1.5;" width="124" x="506.5" y="682"/><rect fill="#EEEEEE" height="23.9688" style="stroke: #A80036; stroke-width: 1.5;" width="124" x="506.5" y="682"/><text fill="#000000" font-family="sans-serif" font-size="12" lengthAdjust="spacingAndGlyphs" textLength="118" x="509.5" y="698.1387">CollateralPartyRole</text></a><!--class CollateralStatus--><a target="_top" xlink:actuate="onRequest" xlink:href="../CollateralStatus.html" xlink:show="new" xlink:title="Specifies the status of the collateral or of an event related to collateral." xlink:type="simple"><rect fill="#EEEEEE" filter="url(#fwvvivnjlp1c)" height="23.9688" id="CollateralStatus" style="stroke: #A80036; stroke-width: 1.5;" width="106" x="524.5" y="596"/><rect fill="#EEEEEE" height="23.9688" style="stroke: #A80036; stroke-width: 1.5;" width="106" x="524.5" y="596"/><text fill="#000000" font-family="sans-serif" font-size="12" lengthAdjust="spacingAndGlyphs" textLength="100" x="527.5" y="612.1387">CollateralStatus</text></a><!--class AssetHolding--><a target="_top" xlink:actuate="onRequest" xlink:href="../AssetHolding.html" xlink:show="new" xlink:title="Specifies in terms of value and quantity the assets." xlink:type="simple"><rect fill="#EEEEEE" filter="url(#fwvvivnjlp1c)" height="23.9688" id="AssetHolding" style="stroke: #A80036; stroke-width: 1.5;" width="88" x="542.5" y="510"/><rect fill="#EEEEEE" height="23.9688" style="stroke: #A80036; stroke-width: 1.5;" width="88" x="542.5" y="510"/><text fill="#000000" font-family="sans-serif" font-size="12" lengthAdjust="spacingAndGlyphs" textLength="82" x="545.5" y="526.1387">AssetHolding</text></a><!--class CollateralAgreement--><a target="_top" xlink:actuate="onRequest" xlink:href="../CollateralAgreement.html" xlink:show="new" xlink:title="Agreement between two trading parties that contains information about their relative duties and rights regarding collateral processes." xlink:type="simple"><rect fill="#EEEEEE" filter="url(#fwvvivnjlp1c)" height="23.9688" id="CollateralAgreement" style="stroke: #A80036; stroke-width: 1.5;" width="134" x="495" y="424"/><rect fill="#EEEEEE" height="23.9688" style="stroke: #A80036; stroke-width: 1.5;" width="134" x="495" y="424"/><text fill="#000000" font-family="sans-serif" font-size="12" lengthAdjust="spacingAndGlyphs" textLength="128" x="498" y="440.1387">CollateralAgreement</text></a><!--class CollateralSubstitution--><a target="_top" xlink:actuate="onRequest" xlink:href="../CollateralSubstitution.html" xlink:show="new" xlink:title="Substitution of collateral by specifying the collateral to be returned and proposing the new type(s) of collateral to be delivered." xlink:type="simple"><rect fill="#EEEEEE" filter="url(#fwvvivnjlp1c)" height="23.9688" id="CollateralSubstitution" style="stroke: #A80036; stroke-width: 1.5;" width="141" x="488.75" y="320"/><rect fill="#EEEEEE" height="23.9688" style="stroke: #A80036; stroke-width: 1.5;" width="141" x="488.75" y="320"/><text fill="#000000" font-family="sans-serif" font-size="12" lengthAdjust="spacingAndGlyphs" textLength="135" x="491.75" y="336.1387">CollateralSubstitution</text></a><!--link CollateralBalance to CollateralValuation--><!--link Account to CollateralBalance--><!--link CollateralManagement to Account--><!--link CollateralPartyRole to CollateralManagement--><!--link CollateralStatus to CollateralPartyRole--><!--link AssetHolding to CollateralStatus--><!--link CollateralAgreement to AssetHolding--><!--link CollateralSubstitution to CollateralAgreement--><!--link Collateral to CollateralValuation--><path d="M767.911,88 C586.684,88 297.005,88 166.986,88 " fill="none" id="Collateral-CollateralValuation" style="stroke: #A80036; stroke-width: 1.0;"/><polygon fill="#A80036" points="161.672,88,170.672,92,166.672,88,170.672,84,161.672,88" style="stroke: #A80036; stroke-width: 1.0;"/><text fill="#000000" font-family="sans-serif" font-size="13" lengthAdjust="spacingAndGlyphs" textLength="60" x="434" y="80.0669">Valuation</text><text fill="#000000" font-family="sans-serif" font-size="13" lengthAdjust="spacingAndGlyphs" textLength="7" x="170.3623" y="82.9357">*</text><!--link Collateral to CollateralBalance--><path d="M884.729,136.328 C855.236,168.757 812.854,210.989 769,240 C740.429,258.901 724.523,248.32 698,270 C666.312,295.902 679.517,322.512 646,346 C560.062,406.224 436.589,425.718 362.731,432.014 " fill="none" id="Collateral-CollateralBalance" style="stroke: #A80036; stroke-width: 1.0;"/><polygon fill="#A80036" points="357.5,432.445,366.7986,435.6911,362.4831,432.0337,366.1404,427.7182,357.5,432.445" style="stroke: #A80036; stroke-width: 1.0;"/><text fill="#000000" font-family="sans-serif" font-size="13" lengthAdjust="spacingAndGlyphs" textLength="111" x="699" y="283.0669">CollateralBalance</text><text fill="#000000" font-family="sans-serif" font-size="13" lengthAdjust="spacingAndGlyphs" textLength="24" x="365.9398" y="427.0527">0..1</text><!--link Collateral to Account--><path d="M767.933,129.303 C728.172,139.414 685.533,150.178 646,160 C631.354,163.639 627.601,164.182 613,168 C536.63,187.969 512.119,179.745 442,216 C389.573,243.107 338.35,291.553 314.27,316.004 " fill="none" id="Collateral-Account" style="stroke: #A80036; stroke-width: 1.0;"/><polygon fill="#A80036" points="310.643,319.716,319.7941,316.0748,314.1376,316.14,314.0724,310.4835,310.643,319.716" style="stroke: #A80036; stroke-width: 1.0;"/><text fill="#000000" font-family="sans-serif" font-size="13" lengthAdjust="spacingAndGlyphs" textLength="112" x="443" y="232.0669">CollateralAccount</text><text fill="#000000" font-family="sans-serif" font-size="13" lengthAdjust="spacingAndGlyphs" textLength="7" x="304.5951" y="308.9254">*</text><!--link Collateral to CollateralManagement--><path d="M767.979,135.533 C728.502,145.407 685.984,154.501 646,160 C573.109,170.025 386.399,150.232 315,168 C297.641,172.32 295.483,179.05 279,186 C253.627,196.698 224.396,206.87 201.375,214.406 " fill="none" id="Collateral-CollateralManagement" style="stroke: #A80036; stroke-width: 1.0;"/><polygon fill="#A80036" points="196.561,215.973,206.357,216.9916,201.3156,214.4258,203.8815,209.3843,196.561,215.973" style="stroke: #A80036; stroke-width: 1.0;"/><text fill="#000000" font-family="sans-serif" font-size="13" lengthAdjust="spacingAndGlyphs" textLength="145" x="316" y="181.0669">CollateralManagement</text><text fill="#000000" font-family="sans-serif" font-size="13" lengthAdjust="spacingAndGlyphs" textLength="8" x="197.9804" y="205.0119">1</text><!--link Collateral to CollateralPartyRole--><path d="M1082.47,99.403 C1323.68,117.483 1757,159.373 1757,227 C1757,227 1757,227 1757,609 C1757,665.6795 885.929,686.8712 634.931,691.8011 " fill="none" id="Collateral-CollateralPartyRole" style="stroke: #A80036; stroke-width: 1.0;"/><polygon fill="#A80036" points="629.836,691.9006,638.9131,695.7224,634.835,691.802,638.7554,687.7239,629.836,691.9006" style="stroke: #A80036; stroke-width: 1.0;"/><text fill="#000000" font-family="sans-serif" font-size="13" lengthAdjust="spacingAndGlyphs" textLength="120" x="1758" y="440.0669">CollateralPartyRole</text><text fill="#000000" font-family="sans-serif" font-size="13" lengthAdjust="spacingAndGlyphs" textLength="7" x="638.5483" y="686.5542">*</text><!--link Collateral to CollateralStatus--><path d="M1082.33,102.592 C1300.67,123.613 1669,167.843 1669,227 C1669,227 1669,227 1669,523 C1669,575.353 860.582,599.802 634.892,605.607 " fill="none" id="Collateral-CollateralStatus" style="stroke: #A80036; stroke-width: 1.0;"/><polygon fill="#A80036" points="629.669,605.741,638.7689,609.5083,634.6673,605.6124,638.5632,601.5109,629.669,605.741" style="stroke: #A80036; stroke-width: 1.0;"/><text fill="#000000" font-family="sans-serif" font-size="13" lengthAdjust="spacingAndGlyphs" textLength="42" x="1670" y="389.0669">Status</text><text fill="#000000" font-family="sans-serif" font-size="13" lengthAdjust="spacingAndGlyphs" textLength="7" x="638.5412" y="600.1063">*</text><!--link Collateral to AssetHolding--><path d="M954.452,136.338 C976.551,178.453 998.785,240.546 972,288 C961.602,306.422 693.475,459.902 610.342,507.187 " fill="none" id="Collateral-AssetHolding" style="stroke: #A80036; stroke-width: 1.0;"/><polygon fill="#A80036" points="605.598,509.885,615.3989,508.9143,609.9447,507.4138,611.4451,501.9596,605.598,509.885" style="stroke: #A80036; stroke-width: 1.0;"/><text fill="#000000" font-family="sans-serif" font-size="13" lengthAdjust="spacingAndGlyphs" textLength="84" x="930" y="336.0669">AssetHolding</text><text fill="#000000" font-family="sans-serif" font-size="13" lengthAdjust="spacingAndGlyphs" textLength="8" x="601.4442" y="498.8937">1</text><!--link Collateral to AssetHolding--><path d="M1010.68,136.006 C1040.2,158.825 1066,189.494 1066,227 C1066,227 1066,227 1066,437 C1066,480.4 757.6,508.194 635.203,517.516 " fill="none" id="Collateral-AssetHolding" style="stroke: #A80036; stroke-width: 1.0;"/><polygon fill="#A80036" points="629.869,517.92,639.1451,521.2297,634.8548,517.5429,638.5416,513.2525,629.869,517.92" style="stroke: #A80036; stroke-width: 1.0;"/><text fill="#000000" font-family="sans-serif" font-size="13" lengthAdjust="spacingAndGlyphs" textLength="184" x="1067" y="336.0669">VariationMarginAssetHolding</text><text fill="#000000" font-family="sans-serif" font-size="13" lengthAdjust="spacingAndGlyphs" textLength="7" x="638.5105" y="511.6826">*</text><!--link Collateral to AssetHolding--><path d="M1082.01,113.913 C1193.33,136.171 1323,173.567 1323,227 C1323,227 1323,227 1323,437 C1323,506.471 799.379,518.508 634.854,520.576 " fill="none" id="Collateral-AssetHolding" style="stroke: #A80036; stroke-width: 1.0;"/><polygon fill="#A80036" points="629.623,520.64,638.6715,524.5291,634.6226,520.5786,638.5732,516.5297,629.623,520.64" style="stroke: #A80036; stroke-width: 1.0;"/><text fill="#000000" font-family="sans-serif" font-size="13" lengthAdjust="spacingAndGlyphs" textLength="290" x="1324" y="336.0669">SegregatedIndependentAmountAssetHolding</text><text fill="#000000" font-family="sans-serif" font-size="13" lengthAdjust="spacingAndGlyphs" textLength="7" x="638.5105" y="533.893">*</text><!--link Collateral to CollateralAgreement--><path d="M905.541,136.106 C874.645,204.621 807.6,330.497 709,394 C686.656,408.391 659.251,417.799 634.184,423.92 " fill="none" id="Collateral-CollateralAgreement" style="stroke: #A80036; stroke-width: 1.0;"/><polygon fill="#A80036" points="629.203,425.101,638.8827,426.9183,634.0683,423.9482,637.0383,419.1338,629.203,425.101" style="stroke: #A80036; stroke-width: 1.0;"/><text fill="#000000" font-family="sans-serif" font-size="13" lengthAdjust="spacingAndGlyphs" textLength="132" x="830" y="283.0669">CollateralAgreement</text><text fill="#000000" font-family="sans-serif" font-size="13" lengthAdjust="spacingAndGlyphs" textLength="8" x="636.9908" y="419.0551">1</text><!--link Collateral to CollateralSubstitution--><path d="M767.773,129.493 C688.108,153.198 602.833,184.577 577,216 C553.735,244.3 554.394,290.19 556.76,314.564 " fill="none" id="Collateral-CollateralSubstitution" style="stroke: #A80036; stroke-width: 1.0;"/><polygon fill="#A80036" points="557.316,319.708,560.3231,310.3294,556.7773,314.7371,552.3697,311.1913,557.316,319.708" style="stroke: #A80036; stroke-width: 1.0;"/><text fill="#000000" font-family="sans-serif" font-size="13" lengthAdjust="spacingAndGlyphs" textLength="185" x="578" y="232.0669">RelatedCollateralSubstitution</text><text fill="#000000" font-family="sans-serif" font-size="13" lengthAdjust="spacingAndGlyphs" textLength="24" x="527.3691" y="308.9147">0..1</text><!--link CollateralValuation to CollateralManagement--><path d="M94.6944,100.065 C86.4253,119.053 72.9867,158.454 89,186 C96.2113,198.405 108.734,207.368 121.335,213.687 " fill="none" id="CollateralValuation-CollateralManagement" style="stroke: #A80036; stroke-width: 1.0;"/><polygon fill="#A80036" points="125.971,215.897,119.5702,208.4117,121.4582,213.7442,116.1257,215.6321,125.971,215.897" style="stroke: #A80036; stroke-width: 1.0;"/><text fill="#000000" font-family="sans-serif" font-size="13" lengthAdjust="spacingAndGlyphs" textLength="183" x="90" y="181.0669">RelatedManagementProcess</text><text fill="#000000" font-family="sans-serif" font-size="13" lengthAdjust="spacingAndGlyphs" textLength="24" x="84.3748" y="204.9098">0..1</text><!--link Account to Account--><path d="M328.508,322.938 C346.181,320.753 363,323.773 363,332 C363,339.391 349.424,342.58 333.85,341.567 " fill="none" id="Account-Account" style="stroke: #A80036; stroke-width: 1.0;"/><polygon fill="#A80036" points="328.508,341.062,337.0922,345.8902,333.4859,341.5319,337.8441,337.9256,328.508,341.062" style="stroke: #A80036; stroke-width: 1.0;"/><text fill="#000000" font-family="sans-serif" font-size="13" lengthAdjust="spacingAndGlyphs" textLength="94" x="369" y="336.0669">ParentAccount</text><text fill="#000000" font-family="sans-serif" font-size="13" lengthAdjust="spacingAndGlyphs" textLength="8" x="336.7741" y="337.2939">1</text><!--link CollateralManagement to CollateralSubstitution--><path d="M202.044,240.092 C246.74,252.117 320.361,271.764 384,288 C425.751,298.652 473.23,310.288 508.19,318.767 " fill="none" id="CollateralManagement-CollateralSubstitution" style="stroke: #A80036; stroke-width: 1.0;"/><polygon fill="#A80036" points="513.255,319.994,505.4516,313.9851,508.3959,318.8153,503.5657,321.7596,513.255,319.994" style="stroke: #A80036; stroke-width: 1.0;"/><text fill="#000000" font-family="sans-serif" font-size="13" lengthAdjust="spacingAndGlyphs" textLength="137" x="385" y="283.0669">CollateralSubstitution</text><text fill="#000000" font-family="sans-serif" font-size="13" lengthAdjust="spacingAndGlyphs" textLength="7" x="487.8973" y="309.0402">*</text><!--link CollateralManagement to CollateralAgreement--><path d="M157.028,240.268 C149.582,263.665 136.689,317.688 165,346 C209.941,390.943 387.885,416.68 489.627,428.004 " fill="none" id="CollateralManagement-CollateralAgreement" style="stroke: #A80036; stroke-width: 1.0;"/><polygon fill="#A80036" points="494.714,428.565,486.2072,423.6018,489.7442,428.0164,485.3295,431.5535,494.714,428.565" style="stroke: #A80036; stroke-width: 1.0;"/><text fill="#000000" font-family="sans-serif" font-size="13" lengthAdjust="spacingAndGlyphs" textLength="86" x="166" y="336.0669">AgreedTerms</text><text fill="#000000" font-family="sans-serif" font-size="13" lengthAdjust="spacingAndGlyphs" textLength="8" x="479.0501" y="423.1704">1</text></g></svg>