<?xml version="1.0" encoding="UTF-8" standalone="no"?><svg xmlns="http://www.w3.org/2000/svg" xmlns:xlink="http://www.w3.org/1999/xlink" contentScriptType="application/ecmascript" contentStyleType="text/css" height="1154px" preserveAspectRatio="none" style="width:1987px;height:1154px;" version="1.1" viewBox="0 0 1987 1154" width="1987px" zoomAndPan="magnify"><defs><filter height="300%" id="f1c8mqgav9m9g0" width="300%" x="-1" y="-1"><feGaussianBlur result="blurOut" stdDeviation="2.0"/><feColorMatrix in="blurOut" result="blurOut2" type="matrix" values="0 0 0 0 0 0 0 0 0 0 0 0 0 0 0 0 0 0 .4 0"/><feOffset dx="4.0" dy="4.0" in="blurOut2" result="blurOut3"/><feBlend in="SourceGraphic" in2="blurOut3" mode="normal"/></filter></defs><g><!--cluster ##3343--><!--cluster ##3349--><!--cluster ##3370--><!--class Adjustment--><a target="_top" xlink:actuate="onRequest" xlink:href="../Adjustment.html" xlink:show="new" xlink:title="Modification on the value of goods and / or services. For example: rebate, discount." xlink:type="simple"><rect fill="#FEFEEE" filter="url(#f1c8mqgav9m9g0)" height="134.4063" id="Adjustment" style="stroke: #A80036; stroke-width: 1.5;" width="268" x="1134.56" y="40"/><rect fill="#FEFEEE" height="23.9688" style="stroke: #A80036; stroke-width: 1.5;" width="268" x="1134.56" y="40"/><text fill="#000000" font-family="sans-serif" font-size="12" lengthAdjust="spacingAndGlyphs" textLength="71" x="1233.06" y="56.1387">Adjustment</text><line style="stroke: #A80036; stroke-width: 1.5;" x1="1135.56" x2="1401.56" y1="63.9688" y2="63.9688"/><ellipse cx="1145.56" cy="75.8711" fill="#84BE84" rx="3" ry="3" style="stroke: #038048; stroke-width: 1.0;"/><text fill="#000000" font-family="sans-serif" font-size="11" lengthAdjust="spacingAndGlyphs" textLength="43" x="1154.56" y="78.1792">Amount</text><text fill="#000000" font-family="sans-serif" font-size="11" font-style="italic" lengthAdjust="spacingAndGlyphs" textLength="126" x="1201.56" y="78.1792">(CurrencyAndAmount)</text><ellipse cx="1145.56" cy="88.6758" fill="#84BE84" rx="3" ry="3" style="stroke: #038048; stroke-width: 1.0;"/><text fill="#000000" font-family="sans-serif" font-size="11" lengthAdjust="spacingAndGlyphs" textLength="66" x="1154.56" y="90.9839">ChargeRate</text><text fill="#000000" font-family="sans-serif" font-size="11" font-style="italic" lengthAdjust="spacingAndGlyphs" textLength="98" x="1224.56" y="90.9839">(PercentageRate)</text><ellipse cx="1145.56" cy="101.4805" fill="#84BE84" rx="3" ry="3" style="stroke: #038048; stroke-width: 1.0;"/><text fill="#000000" font-family="sans-serif" font-size="11" lengthAdjust="spacingAndGlyphs" textLength="103" x="1154.56" y="103.7886">CalculationMethod</text><text fill="#000000" font-family="sans-serif" font-size="11" font-style="italic" lengthAdjust="spacingAndGlyphs" textLength="116" x="1261.56" y="103.7886">(TaxationBasisCode)</text><ellipse cx="1145.56" cy="114.2852" fill="#84BE84" rx="3" ry="3" style="stroke: #038048; stroke-width: 1.0;"/><text fill="#000000" font-family="sans-serif" font-size="11" lengthAdjust="spacingAndGlyphs" textLength="50" x="1154.56" y="116.5933">Direction</text><text fill="#000000" font-family="sans-serif" font-size="11" font-style="italic" lengthAdjust="spacingAndGlyphs" textLength="151" x="1208.56" y="116.5933">(AdjustmentDirectionCode)</text><ellipse cx="1145.56" cy="127.0898" fill="#84BE84" rx="3" ry="3" style="stroke: #038048; stroke-width: 1.0;"/><text fill="#000000" font-family="sans-serif" font-size="11" lengthAdjust="spacingAndGlyphs" textLength="42" x="1154.56" y="129.3979">Reason</text><text fill="#000000" font-family="sans-serif" font-size="11" font-style="italic" lengthAdjust="spacingAndGlyphs" textLength="142" x="1200.56" y="129.3979">(Max4AlphaNumericText)</text><ellipse cx="1145.56" cy="139.8945" fill="#84BE84" rx="3" ry="3" style="stroke: #038048; stroke-width: 1.0;"/><text fill="#000000" font-family="sans-serif" font-size="11" lengthAdjust="spacingAndGlyphs" textLength="146" x="1154.56" y="142.2026">AllowanceChargeIndicator</text><text fill="#000000" font-family="sans-serif" font-size="11" font-style="italic" lengthAdjust="spacingAndGlyphs" textLength="92" x="1304.56" y="142.2026">(YesNoIndicator)</text><ellipse cx="1145.56" cy="152.6992" fill="#84BE84" rx="3" ry="3" style="stroke: #038048; stroke-width: 1.0;"/><text fill="#000000" font-family="sans-serif" font-size="11" lengthAdjust="spacingAndGlyphs" textLength="90" x="1154.56" y="155.0073">ChargeIndicator</text><text fill="#000000" font-family="sans-serif" font-size="11" font-style="italic" lengthAdjust="spacingAndGlyphs" textLength="92" x="1248.56" y="155.0073">(YesNoIndicator)</text><ellipse cx="1145.56" cy="165.5039" fill="#84BE84" rx="3" ry="3" style="stroke: #038048; stroke-width: 1.0;"/><text fill="#000000" font-family="sans-serif" font-size="11" lengthAdjust="spacingAndGlyphs" textLength="27" x="1154.56" y="167.812">Type</text><text fill="#000000" font-family="sans-serif" font-size="11" font-style="italic" lengthAdjust="spacingAndGlyphs" textLength="129" x="1185.56" y="167.812">(AdjustmentTypeCode)</text></a><!--class Commission--><a target="_top" xlink:actuate="onRequest" xlink:href="../Commission.html" xlink:show="new" xlink:title="Amount of money due to a party as compensation for a service." xlink:type="simple"><rect fill="#FEFECE" filter="url(#f1c8mqgav9m9g0)" height="134.4063" id="Commission" style="stroke: #A80036; stroke-width: 1.5;" width="287" x="1135.31" y="252"/><rect fill="#FEFECE" height="23.9688" style="stroke: #A80036; stroke-width: 1.5;" width="287" x="1135.31" y="252"/><text fill="#000000" font-family="sans-serif" font-size="12" lengthAdjust="spacingAndGlyphs" textLength="74" x="1241.81" y="268.1387">Commission</text><line style="stroke: #A80036; stroke-width: 1.5;" x1="1136.31" x2="1421.31" y1="275.9688" y2="275.9688"/><ellipse cx="1146.31" cy="287.8711" fill="#84BE84" rx="3" ry="3" style="stroke: #038048; stroke-width: 1.0;"/><text fill="#000000" font-family="sans-serif" font-size="11" lengthAdjust="spacingAndGlyphs" textLength="98" x="1155.31" y="290.1792">CommissionType</text><text fill="#000000" font-family="sans-serif" font-size="11" font-style="italic" lengthAdjust="spacingAndGlyphs" textLength="149" x="1257.31" y="290.1792">(CommissionTypeV2Code)</text><ellipse cx="1146.31" cy="300.6758" fill="#84BE84" rx="3" ry="3" style="stroke: #038048; stroke-width: 1.0;"/><text fill="#000000" font-family="sans-serif" font-size="11" lengthAdjust="spacingAndGlyphs" textLength="32" x="1155.31" y="302.9839">Basis</text><text fill="#000000" font-family="sans-serif" font-size="11" font-style="italic" lengthAdjust="spacingAndGlyphs" textLength="116" x="1191.31" y="302.9839">(TaxationBasisCode)</text><ellipse cx="1146.31" cy="313.4805" fill="#84BE84" rx="3" ry="3" style="stroke: #038048; stroke-width: 1.0;"/><text fill="#000000" font-family="sans-serif" font-size="11" lengthAdjust="spacingAndGlyphs" textLength="187" x="1155.31" y="315.7886">CommercialAgreementReference</text><text fill="#000000" font-family="sans-serif" font-size="11" font-style="italic" lengthAdjust="spacingAndGlyphs" textLength="70" x="1346.31" y="315.7886">(Max35Text)</text><ellipse cx="1146.31" cy="326.2852" fill="#84BE84" rx="3" ry="3" style="stroke: #038048; stroke-width: 1.0;"/><text fill="#000000" font-family="sans-serif" font-size="11" lengthAdjust="spacingAndGlyphs" textLength="88" x="1155.31" y="328.5933">CalculationDate</text><text fill="#000000" font-family="sans-serif" font-size="11" font-style="italic" lengthAdjust="spacingAndGlyphs" textLength="81" x="1247.31" y="328.5933">(ISODateTime)</text><ellipse cx="1146.31" cy="339.0898" fill="#84BE84" rx="3" ry="3" style="stroke: #038048; stroke-width: 1.0;"/><text fill="#000000" font-family="sans-serif" font-size="11" lengthAdjust="spacingAndGlyphs" textLength="25" x="1155.31" y="341.3979">Rate</text><text fill="#000000" font-family="sans-serif" font-size="11" font-style="italic" lengthAdjust="spacingAndGlyphs" textLength="98" x="1184.31" y="341.3979">(PercentageRate)</text><ellipse cx="1146.31" cy="351.8945" fill="#84BE84" rx="3" ry="3" style="stroke: #038048; stroke-width: 1.0;"/><text fill="#000000" font-family="sans-serif" font-size="11" lengthAdjust="spacingAndGlyphs" textLength="114" x="1155.31" y="354.2026">CommissionAmount</text><text fill="#000000" font-family="sans-serif" font-size="11" font-style="italic" lengthAdjust="spacingAndGlyphs" textLength="126" x="1273.31" y="354.2026">(CurrencyAndAmount)</text><ellipse cx="1146.31" cy="364.6992" fill="#84BE84" rx="3" ry="3" style="stroke: #038048; stroke-width: 1.0;"/><text fill="#000000" font-family="sans-serif" font-size="11" lengthAdjust="spacingAndGlyphs" textLength="50" x="1155.31" y="367.0073">SplitRate</text><text fill="#000000" font-family="sans-serif" font-size="11" font-style="italic" lengthAdjust="spacingAndGlyphs" textLength="98" x="1209.31" y="367.0073">(PercentageRate)</text><ellipse cx="1146.31" cy="377.5039" fill="#84BE84" rx="3" ry="3" style="stroke: #038048; stroke-width: 1.0;"/><text fill="#000000" font-family="sans-serif" font-size="11" lengthAdjust="spacingAndGlyphs" textLength="51" x="1155.31" y="379.812">Currency</text><text fill="#000000" font-family="sans-serif" font-size="11" font-style="italic" lengthAdjust="spacingAndGlyphs" textLength="89" x="1210.31" y="379.812">(CurrencyCode)</text></a><!--class Payment--><a target="_top" xlink:actuate="onRequest" xlink:href="../Payment.html" xlink:show="new" xlink:title="Payment information and processes required to transfer cash end to end from the debtor to the creditor." xlink:type="simple"><rect fill="#EEEEEE" filter="url(#f1c8mqgav9m9g0)" height="23.9688" id="Payment" style="stroke: #A80036; stroke-width: 1.5;" width="60" x="444.055" y="95"/><rect fill="#EEEEEE" height="23.9688" style="stroke: #A80036; stroke-width: 1.5;" width="60" x="444.055" y="95"/><text fill="#000000" font-family="sans-serif" font-size="12" lengthAdjust="spacingAndGlyphs" textLength="54" x="447.055" y="111.1387">Payment</text></a><!--class LineItem--><a target="_top" xlink:actuate="onRequest" xlink:href="../LineItem.html" xlink:show="new" xlink:title="Unit of information  showing the related  provision of products and/or services and monetary summations reported as a discrete line item." xlink:type="simple"><rect fill="#EEEEEE" filter="url(#f1c8mqgav9m9g0)" height="23.9688" id="LineItem" style="stroke: #A80036; stroke-width: 1.5;" width="58" x="593.055" y="946"/><rect fill="#EEEEEE" height="23.9688" style="stroke: #A80036; stroke-width: 1.5;" width="58" x="593.055" y="946"/><text fill="#000000" font-family="sans-serif" font-size="12" lengthAdjust="spacingAndGlyphs" textLength="52" x="596.055" y="962.1387">LineItem</text></a><!--class Price--><a target="_top" xlink:actuate="onRequest" xlink:href="../Price.html" xlink:show="new" xlink:title="Amount of money for which goods, services or assets are offered, sold, or bought." xlink:type="simple"><rect fill="#EEEEEE" filter="url(#f1c8mqgav9m9g0)" height="23.9688" id="Price" style="stroke: #A80036; stroke-width: 1.5;" width="37" x="548.305" y="860"/><rect fill="#EEEEEE" height="23.9688" style="stroke: #A80036; stroke-width: 1.5;" width="37" x="548.305" y="860"/><text fill="#000000" font-family="sans-serif" font-size="12" lengthAdjust="spacingAndGlyphs" textLength="31" x="551.305" y="876.1387">Price</text></a><!--class CollateralManagement--><a target="_top" xlink:actuate="onRequest" xlink:href="../CollateralManagement.html" xlink:show="new" xlink:title="Set of operations relative to the management of collateral, variation margins, default fund participation and independent amount." xlink:type="simple"><rect fill="#EEEEEE" filter="url(#f1c8mqgav9m9g0)" height="23.9688" id="CollateralManagement" style="stroke: #A80036; stroke-width: 1.5;" width="147" x="438.305" y="774"/><rect fill="#EEEEEE" height="23.9688" style="stroke: #A80036; stroke-width: 1.5;" width="147" x="438.305" y="774"/><text fill="#000000" font-family="sans-serif" font-size="12" lengthAdjust="spacingAndGlyphs" textLength="141" x="441.305" y="790.1387">CollateralManagement</text></a><!--class Balance--><a target="_top" xlink:actuate="onRequest" xlink:href="../Balance.html" xlink:show="new" xlink:title="Numerical representation of the net increases and decreases in an account at a specific point in time." xlink:type="simple"><rect fill="#EEEEEE" filter="url(#f1c8mqgav9m9g0)" height="23.9688" id="Balance" style="stroke: #A80036; stroke-width: 1.5;" width="56" x="465.055" y="672"/><rect fill="#EEEEEE" height="23.9688" style="stroke: #A80036; stroke-width: 1.5;" width="56" x="465.055" y="672"/><text fill="#000000" font-family="sans-serif" font-size="12" lengthAdjust="spacingAndGlyphs" textLength="50" x="468.055" y="688.1387">Balance</text></a><!--class ChargePartyRole--><a target="_top" xlink:actuate="onRequest" xlink:href="../ChargePartyRole.html" xlink:show="new" xlink:title="Role played by a party in the context of a paymentof charges." xlink:type="simple"><rect fill="#EEEEEE" filter="url(#f1c8mqgav9m9g0)" height="23.9688" id="ChargePartyRole" style="stroke: #A80036; stroke-width: 1.5;" width="110" x="437.555" y="570"/><rect fill="#EEEEEE" height="23.9688" style="stroke: #A80036; stroke-width: 1.5;" width="110" x="437.555" y="570"/><text fill="#000000" font-family="sans-serif" font-size="12" lengthAdjust="spacingAndGlyphs" textLength="104" x="440.555" y="586.1387">ChargePartyRole</text></a><!--class DateTimePeriod--><a target="_top" xlink:actuate="onRequest" xlink:href="../DateTimePeriod.html" xlink:show="new" xlink:title="Time span defined by a start date and time, and an end date and time." xlink:type="simple"><rect fill="#EEEEEE" filter="url(#f1c8mqgav9m9g0)" height="23.9688" id="DateTimePeriod" style="stroke: #A80036; stroke-width: 1.5;" width="105" x="561.305" y="466"/><rect fill="#EEEEEE" height="23.9688" style="stroke: #A80036; stroke-width: 1.5;" width="105" x="561.305" y="466"/><text fill="#000000" font-family="sans-serif" font-size="12" lengthAdjust="spacingAndGlyphs" textLength="99" x="564.305" y="482.1387">DateTimePeriod</text></a><!--class CurrencyExchange--><a target="_top" xlink:actuate="onRequest" xlink:href="../CurrencyExchange.html" xlink:show="new" xlink:title="Information needed to process a currency exchange or conversion." xlink:type="simple"><rect fill="#EEEEEE" filter="url(#f1c8mqgav9m9g0)" height="23.9688" id="CurrencyExchange" style="stroke: #A80036; stroke-width: 1.5;" width="122" x="474.555" y="307"/><rect fill="#EEEEEE" height="23.9688" style="stroke: #A80036; stroke-width: 1.5;" width="122" x="474.555" y="307"/><text fill="#000000" font-family="sans-serif" font-size="12" lengthAdjust="spacingAndGlyphs" textLength="116" x="477.555" y="323.1387">CurrencyExchange</text></a><!--class SecuritiesOrder--><a target="_top" xlink:actuate="onRequest" xlink:href="../SecuritiesOrder.html" xlink:show="new" xlink:title="Intention to transfer an ownership of a financial instrument." xlink:type="simple"><rect fill="#EEEEEE" filter="url(#f1c8mqgav9m9g0)" height="23.9688" id="SecuritiesOrder" style="stroke: #A80036; stroke-width: 1.5;" width="103" x="651.305" y="570"/><rect fill="#EEEEEE" height="23.9688" style="stroke: #A80036; stroke-width: 1.5;" width="103" x="651.305" y="570"/><text fill="#000000" font-family="sans-serif" font-size="12" lengthAdjust="spacingAndGlyphs" textLength="97" x="654.305" y="586.1387">SecuritiesOrder</text></a><!--class Tax--><a target="_top" xlink:actuate="onRequest" xlink:href="../Tax.html" xlink:show="new" xlink:title="Amount of money due to the government or tax authority, according to various pre-defined parameters such as thresholds or income." xlink:type="simple"><rect fill="#EEEEEE" filter="url(#f1c8mqgav9m9g0)" height="23.9688" id="Tax" style="stroke: #A80036; stroke-width: 1.5;" width="27" x="739.305" y="466"/><rect fill="#EEEEEE" height="23.9688" style="stroke: #A80036; stroke-width: 1.5;" width="27" x="739.305" y="466"/><text fill="#000000" font-family="sans-serif" font-size="12" lengthAdjust="spacingAndGlyphs" textLength="21" x="742.305" y="482.1387">Tax</text></a><!--class CommissionWaiver--><a target="_top" xlink:actuate="onRequest" xlink:href="../CommissionWaiver.html" xlink:show="new" xlink:title="Non-enforcement of the right to all or part of a commission by the party entitled to the commission." xlink:type="simple"><rect fill="#EEEEEE" filter="url(#f1c8mqgav9m9g0)" height="23.9688" id="CommissionWaiver" style="stroke: #A80036; stroke-width: 1.5;" width="121" x="1318.31" y="1120"/><rect fill="#EEEEEE" height="23.9688" style="stroke: #A80036; stroke-width: 1.5;" width="121" x="1318.31" y="1120"/><text fill="#000000" font-family="sans-serif" font-size="12" lengthAdjust="spacingAndGlyphs" textLength="115" x="1321.31" y="1136.1387">CommissionWaiver</text></a><!--class Trade--><a target="_top" xlink:actuate="onRequest" xlink:href="../Trade.html" xlink:show="new" xlink:title="Result of an order between at least two parties. A trade relates to the delivery of goods and services, cash or securities." xlink:type="simple"><rect fill="#EEEEEE" filter="url(#f1c8mqgav9m9g0)" height="23.9688" id="Trade" style="stroke: #A80036; stroke-width: 1.5;" width="42" x="1356.06" y="1034"/><rect fill="#EEEEEE" height="23.9688" style="stroke: #A80036; stroke-width: 1.5;" width="42" x="1356.06" y="1034"/><text fill="#000000" font-family="sans-serif" font-size="12" lengthAdjust="spacingAndGlyphs" textLength="36" x="1359.06" y="1050.1387">Trade</text></a><!--class Broker--><a target="_top" xlink:actuate="onRequest" xlink:href="../Broker.html" xlink:show="new" xlink:title="Party that identifies a broker when required (for example, authorised broker, prime broker, etc)." xlink:type="simple"><rect fill="#EEEEEE" filter="url(#f1c8mqgav9m9g0)" height="23.9688" id="Broker" style="stroke: #A80036; stroke-width: 1.5;" width="47" x="1353.31" y="946"/><rect fill="#EEEEEE" height="23.9688" style="stroke: #A80036; stroke-width: 1.5;" width="47" x="1353.31" y="946"/><text fill="#000000" font-family="sans-serif" font-size="12" lengthAdjust="spacingAndGlyphs" textLength="41" x="1356.31" y="962.1387">Broker</text></a><!--class CommissionPartyRole--><a target="_top" xlink:actuate="onRequest" xlink:href="../CommissionPartyRole.html" xlink:show="new" xlink:title="Role played by a party in the context of a payment of commission." xlink:type="simple"><rect fill="#EEEEEE" filter="url(#f1c8mqgav9m9g0)" height="23.9688" id="CommissionPartyRole" style="stroke: #A80036; stroke-width: 1.5;" width="139" x="1304.31" y="860"/><rect fill="#EEEEEE" height="23.9688" style="stroke: #A80036; stroke-width: 1.5;" width="139" x="1304.31" y="860"/><text fill="#000000" font-family="sans-serif" font-size="12" lengthAdjust="spacingAndGlyphs" textLength="133" x="1307.31" y="876.1387">CommissionPartyRole</text></a><!--class CashAccount--><a target="_top" xlink:actuate="onRequest" xlink:href="../CashAccount.html" xlink:show="new" xlink:title="Account to or from which a cash entry is made." xlink:type="simple"><rect fill="#EEEEEE" filter="url(#f1c8mqgav9m9g0)" height="23.9688" id="CashAccount" style="stroke: #A80036; stroke-width: 1.5;" width="88" x="1265.06" y="774"/><rect fill="#EEEEEE" height="23.9688" style="stroke: #A80036; stroke-width: 1.5;" width="88" x="1265.06" y="774"/><text fill="#000000" font-family="sans-serif" font-size="12" lengthAdjust="spacingAndGlyphs" textLength="82" x="1268.06" y="790.1387">CashAccount</text></a><!--class SecuritiesQuoteVariable--><a target="_top" xlink:actuate="onRequest" xlink:href="../SecuritiesQuoteVariable.html" xlink:show="new" xlink:title="Proposition of price for a financial instrument." xlink:type="simple"><rect fill="#EEEEEE" filter="url(#f1c8mqgav9m9g0)" height="23.9688" id="SecuritiesQuoteVariable" style="stroke: #A80036; stroke-width: 1.5;" width="157" x="1230.31" y="672"/><rect fill="#EEEEEE" height="23.9688" style="stroke: #A80036; stroke-width: 1.5;" width="157" x="1230.31" y="672"/><text fill="#000000" font-family="sans-serif" font-size="12" lengthAdjust="spacingAndGlyphs" textLength="151" x="1233.31" y="688.1387">SecuritiesQuoteVariable</text></a><!--class CorporateActionFeesAndCharges--><a target="_top" xlink:actuate="onRequest" xlink:href="../CorporateActionFeesAndCharges.html" xlink:show="new" xlink:title="The definition of all the charges related to a corporate action event." xlink:type="simple"><rect fill="#EEEEEE" filter="url(#f1c8mqgav9m9g0)" height="23.9688" id="CorporateActionFeesAndCharges" style="stroke: #A80036; stroke-width: 1.5;" width="214" x="1230.06" y="570"/><rect fill="#EEEEEE" height="23.9688" style="stroke: #A80036; stroke-width: 1.5;" width="214" x="1230.06" y="570"/><text fill="#000000" font-family="sans-serif" font-size="12" lengthAdjust="spacingAndGlyphs" textLength="208" x="1233.06" y="586.1387">CorporateActionFeesAndCharges</text></a><!--link Adjustment to Commission--><path d="M1272.66,194.172 C1273.57,213.414 1274.53,233.528 1275.4,251.815 " fill="none" id="Adjustment-Commission" style="stroke: #A80036; stroke-width: 1.0;"/><polygon fill="none" points="1265.66,194.467,1271.71,174.16,1279.65,193.801,1265.66,194.467" style="stroke: #A80036; stroke-width: 1.0;"/><!--link LineItem to Payment--><!--link Price to LineItem--><!--link CollateralManagement to Price--><!--link Balance to CollateralManagement--><!--link ChargePartyRole to Balance--><!--link DateTimePeriod to ChargePartyRole--><!--link CurrencyExchange to DateTimePeriod--><!--link SecuritiesOrder to CurrencyExchange--><!--link Tax to SecuritiesOrder--><!--link Trade to CommissionWaiver--><!--link Broker to Trade--><!--link CommissionPartyRole to Broker--><!--link CashAccount to CommissionPartyRole--><!--link SecuritiesQuoteVariable to CashAccount--><!--link CorporateActionFeesAndCharges to SecuritiesQuoteVariable--><!--link Adjustment to Payment--><path d="M1134.28,107 C946.444,107 616.151,107 508.528,107 " fill="none" id="Adjustment-Payment" style="stroke: #A80036; stroke-width: 1.0;"/><polygon fill="#A80036" points="503.269,107,512.269,111,508.269,107,512.269,103,503.269,107" style="stroke: #A80036; stroke-width: 1.0;"/><text fill="#000000" font-family="sans-serif" font-size="13" lengthAdjust="spacingAndGlyphs" textLength="57" x="789.555" y="99.0669">Payment</text><text fill="#000000" font-family="sans-serif" font-size="13" lengthAdjust="spacingAndGlyphs" textLength="7" x="512.0609" y="100.8046">*</text><!--link Adjustment to LineItem--><path d="M1182.81,174.18 C1158.66,196.573 1134.42,223.255 1117.56,252 C1067.51,337.305 1006.56,584.097 1006.56,683 C1006.56,683 1006.56,683 1006.56,873 C1006.56,944.592 749.225,955.268 655.326,956.781 " fill="none" id="Adjustment-LineItem" style="stroke: #A80036; stroke-width: 1.0;"/><polygon fill="#A80036" points="650.178,956.857,659.2353,960.7254,655.1775,956.7842,659.1188,952.7263,650.178,956.857" style="stroke: #A80036; stroke-width: 1.0;"/><text fill="#000000" font-family="sans-serif" font-size="13" lengthAdjust="spacingAndGlyphs" textLength="103" x="1012.56" y="637.0669">RelatedLineItem</text><text fill="#000000" font-family="sans-serif" font-size="13" lengthAdjust="spacingAndGlyphs" textLength="24" x="658.9549" y="950.8324">0..1</text><!--link Adjustment to Price--><path d="M1134.47,121.86 C1016.94,136.03 842.276,162 694.555,204 C674.232,209.778 671.083,216.999 650.555,222 C578.151,239.638 366.837,196.999 316.555,252 C211.928,366.445 281.376,479.147 385.555,594 C462.677,679.024 556.565,623.156 607.555,726 C629.525,770.312 596.682,828.259 578.005,855.533 " fill="none" id="Adjustment-Price" style="stroke: #A80036; stroke-width: 1.0;"/><polygon fill="#A80036" points="574.919,859.949,583.3532,854.8632,577.7831,855.8506,576.7958,850.2806,574.919,859.949" style="stroke: #A80036; stroke-width: 1.0;"/><text fill="#000000" font-family="sans-serif" font-size="13" lengthAdjust="spacingAndGlyphs" textLength="31" x="386.555" y="586.0669">Price</text><text fill="#000000" font-family="sans-serif" font-size="13" lengthAdjust="spacingAndGlyphs" textLength="24" x="548.2394" y="848.9797">0..1</text><!--link Adjustment to CollateralManagement--><path d="M1134.31,120.71 C1008.58,134.54 816.195,160.68 653.555,204 C631.94,209.757 628.378,217.091 606.555,222 C564.153,231.538 246.616,220.612 216.555,252 C179.952,290.218 232.429,442.773 208.555,490 C198.847,509.203 179.939,500.636 170.555,520 C167.066,527.199 166.918,530.875 170.555,538 C236.001,666.217 402.541,743.332 475.916,772.095 " fill="none" id="Adjustment-CollateralManagement" style="stroke: #A80036; stroke-width: 1.0;"/><polygon fill="#A80036" points="480.613,773.919,473.673,766.9307,475.9525,772.1079,470.7753,774.3875,480.613,773.919" style="stroke: #A80036; stroke-width: 1.0;"/><text fill="#000000" font-family="sans-serif" font-size="13" lengthAdjust="spacingAndGlyphs" textLength="145" x="171.555" y="533.0669">CollateralManagement</text><text fill="#000000" font-family="sans-serif" font-size="13" lengthAdjust="spacingAndGlyphs" textLength="8" x="459.172" y="762.9394">1</text><!--link Adjustment to Balance--><path d="M1134.39,127.71 C1036.91,141.67 901.722,160.28 782.555,174 C640.879,190.317 247.742,152.52 145.555,252 C54.3503,340.788 37.6358,451.007 130.555,538 C228.094,629.318 390.391,666.015 459.627,678.035 " fill="none" id="Adjustment-Balance" style="stroke: #A80036; stroke-width: 1.0;"/><polygon fill="#A80036" points="464.846,678.925,456.6457,673.4701,459.917,678.0852,455.302,681.3565,464.846,678.925" style="stroke: #A80036; stroke-width: 1.0;"/><text fill="#000000" font-family="sans-serif" font-size="13" lengthAdjust="spacingAndGlyphs" textLength="107" x="91.555" y="482.0669">AdjustedBalance</text><text fill="#000000" font-family="sans-serif" font-size="13" lengthAdjust="spacingAndGlyphs" textLength="8" x="448.9966" y="672.209">1</text><!--link Adjustment to ChargePartyRole--><path d="M1134.52,124.19 C1025.64,139.23 868.826,165.21 735.555,204 C715.268,209.905 712.028,216.779 691.555,222 C633.272,236.863 472.132,217.942 422.555,252 C348.151,303.114 300.493,353.247 336.555,436 C363.525,497.889 431.374,545.254 468.075,567.332 " fill="none" id="Adjustment-ChargePartyRole" style="stroke: #A80036; stroke-width: 1.0;"/><polygon fill="#A80036" points="472.391,569.899,466.7004,561.8605,468.0936,567.3431,462.611,568.7364,472.391,569.899" style="stroke: #A80036; stroke-width: 1.0;"/><text fill="#000000" font-family="sans-serif" font-size="13" lengthAdjust="spacingAndGlyphs" textLength="113" x="337.555" y="431.0669">ChargesPartyRole</text><text fill="#000000" font-family="sans-serif" font-size="13" lengthAdjust="spacingAndGlyphs" textLength="7" x="455.9128" y="558.9125">*</text><!--link Adjustment to DateTimePeriod--><path d="M1134.44,155.13 C1073.85,176.106 1001.271,200.802 935.555,222 C891.799,236.114 868.205,218.652 836.555,252 C786.763,304.463 845.886,356.188 797.555,410 C765.248,445.971 712.049,462.653 671.142,470.376 " fill="none" id="Adjustment-DateTimePeriod" style="stroke: #A80036; stroke-width: 1.0;"/><polygon fill="#A80036" points="666.217,471.274,675.7887,473.5941,671.1358,470.3768,674.3532,465.724,666.217,471.274" style="stroke: #A80036; stroke-width: 1.0;"/><text fill="#000000" font-family="sans-serif" font-size="13" lengthAdjust="spacingAndGlyphs" textLength="94" x="837.555" y="323.0669">EffectivePeriod</text><text fill="#000000" font-family="sans-serif" font-size="13" lengthAdjust="spacingAndGlyphs" textLength="8" x="674.1499" y="465.2113">1</text><!--link Adjustment to CurrencyExchange--><path d="M1134.53,126.68 C1041.66,141.88 916.046,166.94 809.555,204 C792.66,209.88 790.475,216.195 773.555,222 C709.248,244.064 685.621,224.25 623.555,252 C595.108,264.719 567.173,288.038 550.655,303.276 " fill="none" id="Adjustment-CurrencyExchange" style="stroke: #A80036; stroke-width: 1.0;"/><polygon fill="#A80036" points="546.708,306.965,556.0144,303.7416,550.3608,303.5508,550.5517,297.8971,546.708,306.965" style="stroke: #A80036; stroke-width: 1.0;"/><text fill="#000000" font-family="sans-serif" font-size="13" lengthAdjust="spacingAndGlyphs" textLength="119" x="810.555" y="217.0669">CurrencyExchange</text><text fill="#000000" font-family="sans-serif" font-size="13" lengthAdjust="spacingAndGlyphs" textLength="8" x="539.8231" y="296.0012">1</text><!--link Adjustment to SecuritiesOrder--><path d="M1134.51,126.89 C1034.6,142.71 895.477,168.45 776.555,204 C756.312,210.052 753.036,216.808 732.555,222 C672.752,237.162 497.755,206.079 456.555,252 C409.66,304.269 433.943,343.518 456.555,410 C486.753,498.786 596.442,547.331 658.67,568.277 " fill="none" id="Adjustment-SecuritiesOrder" style="stroke: #A80036; stroke-width: 1.0;"/><polygon fill="#A80036" points="663.434,569.858,656.1512,563.2277,658.6883,568.2837,653.6323,570.8209,663.434,569.858" style="stroke: #A80036; stroke-width: 1.0;"/><text fill="#000000" font-family="sans-serif" font-size="13" lengthAdjust="spacingAndGlyphs" textLength="99" x="469.555" y="431.0669">SecuritiesOrder</text><text fill="#000000" font-family="sans-serif" font-size="13" lengthAdjust="spacingAndGlyphs" textLength="8" x="639.1815" y="558.8574">1</text><!--link Adjustment to Tax--><path d="M1134.35,152.66 C1106.21,166.17 1078.23,183.114 1055.56,204 C978.592,274.896 1021.38,342.348 941.555,410 C889.914,453.763 807.689,469.699 771.129,474.832 " fill="none" id="Adjustment-Tax" style="stroke: #A80036; stroke-width: 1.0;"/><polygon fill="#A80036" points="766.075,475.513,775.529,478.2738,771.0301,474.8445,774.4594,470.3456,766.075,475.513" style="stroke: #A80036; stroke-width: 1.0;"/><text fill="#000000" font-family="sans-serif" font-size="13" lengthAdjust="spacingAndGlyphs" textLength="22" x="1019.56" y="323.0669">Tax</text><text fill="#000000" font-family="sans-serif" font-size="13" lengthAdjust="spacingAndGlyphs" textLength="24" x="774.4457" y="467.9676">0..1</text><!--link Commission to CommissionWaiver--><path d="M1422.14,331.152 C1590.7,348.293 1847.56,388.871 1847.56,477 C1847.56,477 1847.56,477 1847.56,1047 C1847.56,1087.4882 1573.24,1115.1784 1444.19,1125.9644 " fill="none" id="Commission-CommissionWaiver" style="stroke: #A80036; stroke-width: 1.0;"/><polygon fill="#A80036" points="1438.91,1126.4032,1448.2105,1129.6437,1443.8928,1125.9889,1447.5476,1121.6712,1438.91,1126.4032" style="stroke: #A80036; stroke-width: 1.0;"/><text fill="#000000" font-family="sans-serif" font-size="13" lengthAdjust="spacingAndGlyphs" textLength="127" x="1848.56" y="790.0669">CommissionWaiving</text><text fill="#000000" font-family="sans-serif" font-size="13" lengthAdjust="spacingAndGlyphs" textLength="8" x="1447.1228" y="1120.6745">1</text><!--link Commission to Trade--><path d="M1227.62,386.215 C1220.97,396.527 1214.7,407.313 1209.56,418 C1181.95,475.343 1135.56,531.229 1135.56,683 C1135.56,683 1135.56,683 1135.56,959 C1135.56,1004.37 1288.98,1032.089 1351,1041.441 " fill="none" id="Commission-Trade" style="stroke: #A80036; stroke-width: 1.0;"/><polygon fill="#A80036" points="1356.01,1042.186,1347.704,1036.8935,1351.0655,1041.4433,1346.5157,1044.8048,1356.01,1042.186" style="stroke: #A80036; stroke-width: 1.0;"/><text fill="#000000" font-family="sans-serif" font-size="13" lengthAdjust="spacingAndGlyphs" textLength="36" x="1136.56" y="739.0669">Trade</text><text fill="#000000" font-family="sans-serif" font-size="13" lengthAdjust="spacingAndGlyphs" textLength="24" x="1323.9872" y="1035.7301">0..1</text><!--link Commission to Broker--><path d="M1422.11,339.665 C1560.65,362.789 1749.56,407.129 1749.56,477 C1749.56,477 1749.56,477 1749.56,873 C1749.56,943.544 1492.43,954.852 1405.14,956.659 " fill="none" id="Commission-Broker" style="stroke: #A80036; stroke-width: 1.0;"/><polygon fill="#A80036" points="1399.89,956.76,1408.9682,960.5792,1404.889,956.66,1408.8082,952.5808,1399.89,956.76" style="stroke: #A80036; stroke-width: 1.0;"/><text fill="#000000" font-family="sans-serif" font-size="13" lengthAdjust="spacingAndGlyphs" textLength="42" x="1750.56" y="688.0669">Broker</text><text fill="#000000" font-family="sans-serif" font-size="13" lengthAdjust="spacingAndGlyphs" textLength="7" x="1408.3624" y="949.7484">*</text><!--link Commission to CommissionPartyRole--><path d="M1421.83,365.144 C1453.89,379.094 1486.4,396.577 1513.56,418 C1566.04,459.405 1575.92,481.25 1592.56,546 C1597.86,566.663 1599.56,573.849 1592.56,594 C1551.32,712.646 1435.81,818.811 1391.33,856.473 " fill="none" id="Commission-CommissionPartyRole" style="stroke: #A80036; stroke-width: 1.0;"/><polygon fill="#A80036" points="1387.25,859.902,1396.7143,857.1768,1391.0788,856.6863,1391.5693,851.0508,1387.25,859.902" style="stroke: #A80036; stroke-width: 1.0;"/><text fill="#000000" font-family="sans-serif" font-size="13" lengthAdjust="spacingAndGlyphs" textLength="139" x="1580.56" y="637.0669">CommissionPartyRole</text><text fill="#000000" font-family="sans-serif" font-size="13" lengthAdjust="spacingAndGlyphs" textLength="7" x="1382.3231" y="848.9165">*</text><!--link Commission to CashAccount--><path d="M1422.08,376.043 C1459.85,398.133 1496.03,427.622 1517.56,466 C1586.34,588.615 1397.23,727.29 1330.72,771.027 " fill="none" id="Commission-CashAccount" style="stroke: #A80036; stroke-width: 1.0;"/><polygon fill="#A80036" points="1326.52,773.77,1336.2401,772.1828,1330.7021,771.0295,1331.8554,765.4915,1326.52,773.77" style="stroke: #A80036; stroke-width: 1.0;"/><text fill="#000000" font-family="sans-serif" font-size="13" lengthAdjust="spacingAndGlyphs" textLength="52" x="1530.56" y="586.0669">Account</text><text fill="#000000" font-family="sans-serif" font-size="13" lengthAdjust="spacingAndGlyphs" textLength="7" x="1322.813" y="762.9973">*</text><!--link Commission to SecuritiesQuoteVariable--><path d="M1239.11,386.004 C1210.47,443.015 1181.69,526.603 1212.56,594 C1227.73,627.126 1261.54,653.665 1284.7,668.877 " fill="none" id="Commission-SecuritiesQuoteVariable" style="stroke: #A80036; stroke-width: 1.0;"/><polygon fill="#A80036" points="1289.18,671.767,1283.7909,663.5233,1284.9802,669.0538,1279.4498,670.243,1289.18,671.767" style="stroke: #A80036; stroke-width: 1.0;"/><text fill="#000000" font-family="sans-serif" font-size="13" lengthAdjust="spacingAndGlyphs" textLength="87" x="1200.56" y="533.0669">RelatedQuote</text><text fill="#000000" font-family="sans-serif" font-size="13" lengthAdjust="spacingAndGlyphs" textLength="8" x="1272.0213" y="660.9933">1</text><!--link Commission to CorporateActionFeesAndCharges--><path d="M1282.04,386.183 C1284.8,417.967 1289.74,456.367 1298.56,490 C1305.74,517.4 1319.51,547.392 1328.35,565.182 " fill="none" id="Commission-CorporateActionFeesAndCharges" style="stroke: #A80036; stroke-width: 1.0;"/><polygon fill="#A80036" points="1330.7,569.863,1330.2352,560.0251,1328.4559,565.3949,1323.0862,563.6156,1330.7,569.863" style="stroke: #A80036; stroke-width: 1.0;"/><text fill="#000000" font-family="sans-serif" font-size="13" lengthAdjust="spacingAndGlyphs" textLength="212" x="1299.56" y="482.0669">CorporateActionFeesAndCharges</text><text fill="#000000" font-family="sans-serif" font-size="13" lengthAdjust="spacingAndGlyphs" textLength="8" x="1317.795" y="558.8641">1</text><!--link Payment to Tax--><path d="M494.496,119.01 C522.429,134.62 571.909,165.59 602.555,204 C664.984,282.235 639.629,325.678 693.555,410 C705.966,429.406 723.853,448.862 736.674,461.769 " fill="none" id="Payment-Tax" style="stroke: #A80036; stroke-width: 1.0;"/><polygon fill="#A80036" points="740.478,465.557,736.9239,456.3718,736.9353,462.0286,731.2785,462.04,740.478,465.557" style="stroke: #A80036; stroke-width: 1.0;"/><text fill="#000000" font-family="sans-serif" font-size="13" lengthAdjust="spacingAndGlyphs" textLength="97" x="694.555" y="323.0669">TaxOnPayment</text><text fill="#000000" font-family="sans-serif" font-size="13" lengthAdjust="spacingAndGlyphs" textLength="7" x="727.1144" y="454.9745">*</text><!--link Payment to CurrencyExchange--><path d="M471.955,119.31 C469.418,140.13 465.789,185.75 476.555,222 C485.848,253.291 508.092,284.576 522.456,302.569 " fill="none" id="Payment-CurrencyExchange" style="stroke: #A80036; stroke-width: 1.0;"/><polygon fill="#A80036" points="525.926,306.849,523.3661,297.3387,522.7775,302.9648,517.1513,302.3762,525.926,306.849" style="stroke: #A80036; stroke-width: 1.0;"/><text fill="#000000" font-family="sans-serif" font-size="13" lengthAdjust="spacingAndGlyphs" textLength="119" x="477.555" y="217.0669">CurrencyExchange</text><text fill="#000000" font-family="sans-serif" font-size="13" lengthAdjust="spacingAndGlyphs" textLength="7" x="513.0692" y="295.8453">*</text><!--link Payment to Payment--><path d="M487.383,94.89 C509.388,81.43 537.555,85.47 537.555,107 C537.555,127.1 513.005,131.96 491.838,121.56 " fill="none" id="Payment-Payment" style="stroke: #A80036; stroke-width: 1.0;"/><polygon fill="#A80036" points="487.383,119.11,493.3354,126.9566,491.7623,121.5229,497.196,119.9498,487.383,119.11" style="stroke: #A80036; stroke-width: 1.0;"/><text fill="#000000" font-family="sans-serif" font-size="13" lengthAdjust="spacingAndGlyphs" textLength="105" x="543.555" y="111.0669">OriginalPayment</text><text fill="#000000" font-family="sans-serif" font-size="13" lengthAdjust="spacingAndGlyphs" textLength="8" x="481.6622" y="138.9306">1</text><!--link Payment to CashAccount--><path d="M444.032,107.77 C365.683,108.97 152.243,124.33 60.555,252 C-13.6268,355.297 -7.5035,425.371 51.555,538 C167.223,758.589 1042.76,782.257 1259.93,784.727 " fill="none" id="Payment-CashAccount" style="stroke: #A80036; stroke-width: 1.0;"/><polygon fill="#A80036" points="1264.93,784.781,1255.9763,780.6784,1259.9303,784.7239,1255.8849,788.6779,1264.93,784.781" style="stroke: #A80036; stroke-width: 1.0;"/><text fill="#000000" font-family="sans-serif" font-size="13" lengthAdjust="spacingAndGlyphs" textLength="52" x="52.555" y="533.0669">Account</text><text fill="#000000" font-family="sans-serif" font-size="13" lengthAdjust="spacingAndGlyphs" textLength="8" x="1249.0211" y="779.4927">1</text><!--link CurrencyExchange to Tax--><path d="M543.788,331.115 C561.061,353.74 603.327,405.573 649.555,436 C676.643,453.829 712.693,465.95 734.173,472.153 " fill="none" id="CurrencyExchange-Tax" style="stroke: #A80036; stroke-width: 1.0;"/><polygon fill="#A80036" points="739.046,473.531,731.4751,467.2317,734.2349,472.1697,729.2969,474.9295,739.046,473.531" style="stroke: #A80036; stroke-width: 1.0;"/><text fill="#000000" font-family="sans-serif" font-size="13" lengthAdjust="spacingAndGlyphs" textLength="22" x="650.555" y="431.0669">Tax</text><text fill="#000000" font-family="sans-serif" font-size="13" lengthAdjust="spacingAndGlyphs" textLength="8" x="723.3631" y="486.7069">1</text><!--link SecuritiesOrder to SecuritiesQuoteVariable--><path d="M753.981,591.066 C791.184,597.729 842.307,608.603 885.555,624 C902.407,630 904.386,636.977 921.555,642 C1023.24,671.746 1145.55,680.434 1225.07,682.701 " fill="none" id="SecuritiesOrder-SecuritiesQuoteVariable" style="stroke: #A80036; stroke-width: 1.0;"/><polygon fill="#A80036" points="1230.25,682.842,1221.3679,678.5865,1225.252,682.6992,1221.1394,686.5833,1230.25,682.842" style="stroke: #A80036; stroke-width: 1.0;"/><text fill="#000000" font-family="sans-serif" font-size="13" lengthAdjust="spacingAndGlyphs" textLength="39" x="922.555" y="637.0669">Quote</text><text fill="#000000" font-family="sans-serif" font-size="13" lengthAdjust="spacingAndGlyphs" textLength="24" x="1198.2399" y="678.1757">0..1</text><!--link Tax to CashAccount--><path d="M755.568,490.261 C765.228,526.221 795.115,636.283 800.555,642 C864.577,709.284 1145.8,759.683 1260.05,777.743 " fill="none" id="Tax-CashAccount" style="stroke: #A80036; stroke-width: 1.0;"/><polygon fill="#A80036" points="1265.03,778.527,1256.7552,773.1859,1260.0899,777.7553,1255.5205,781.0901,1265.03,778.527" style="stroke: #A80036; stroke-width: 1.0;"/><text fill="#000000" font-family="sans-serif" font-size="13" lengthAdjust="spacingAndGlyphs" textLength="74" x="801.555" y="637.0669">TaxAccount</text><text fill="#000000" font-family="sans-serif" font-size="13" lengthAdjust="spacingAndGlyphs" textLength="7" x="1250.0846" y="768.7341">*</text></g></svg>