<?xml version="1.0" encoding="UTF-8" standalone="no"?><svg xmlns="http://www.w3.org/2000/svg" xmlns:xlink="http://www.w3.org/1999/xlink" contentScriptType="application/ecmascript" contentStyleType="text/css" height="392px" preserveAspectRatio="none" style="width:533px;height:392px;" version="1.1" viewBox="0 0 533 392" width="533px" zoomAndPan="magnify"><defs><filter height="300%" id="f1pz7t0ljb0hoc" width="300%" x="-1" y="-1"><feGaussianBlur result="blurOut" stdDeviation="2.0"/><feColorMatrix in="blurOut" result="blurOut2" type="matrix" values="0 0 0 0 0 0 0 0 0 0 0 0 0 0 0 0 0 0 .4 0"/><feOffset dx="4.0" dy="4.0" in="blurOut2" result="blurOut3"/><feBlend in="SourceGraphic" in2="blurOut3" mode="normal"/></filter></defs><g><!--cluster ##6406--><!--cluster ##6412--><!--cluster ##6419--><!--class Role--><a target="_top" xlink:actuate="onRequest" xlink:href="../Role.html" xlink:show="new" xlink:title="Role of a party in an activity." xlink:type="simple"><rect fill="#FEFEEE" filter="url(#f1pz7t0ljb0hoc)" height="44.7734" id="Role" style="stroke: #A80036; stroke-width: 1.5;" width="175" x="46.75" y="40.5"/><rect fill="#FEFEEE" height="23.9688" style="stroke: #A80036; stroke-width: 1.5;" width="175" x="46.75" y="40.5"/><text fill="#000000" font-family="sans-serif" font-size="12" lengthAdjust="spacingAndGlyphs" textLength="27" x="120.75" y="56.6387">Role</text><line style="stroke: #A80036; stroke-width: 1.5;" x1="47.75" x2="220.75" y1="64.4688" y2="64.4688"/><ellipse cx="57.75" cy="76.3711" fill="#84BE84" rx="3" ry="3" style="stroke: #038048; stroke-width: 1.0;"/><text fill="#000000" font-family="sans-serif" font-size="11" lengthAdjust="spacingAndGlyphs" textLength="53" x="66.75" y="78.6792">PartyRole</text><text fill="#000000" font-family="sans-serif" font-size="11" font-style="italic" lengthAdjust="spacingAndGlyphs" textLength="92" x="123.75" y="78.6792">(PartyRoleCode)</text></a><!--class ContactPersonRole--><a target="_top" xlink:actuate="onRequest" xlink:href="../ContactPersonRole.html" xlink:show="new" xlink:title="Person to be contacted in a given organisation. In the corporate action domain (including meeting notifications) , it is the contact person at the party organising the meeting, at the issuer or at an intermediary." xlink:type="simple"><rect fill="#FEFECE" filter="url(#f1pz7t0ljb0hoc)" height="23.9688" id="ContactPersonRole" style="stroke: #A80036; stroke-width: 1.5;" width="126" x="46" y="166"/><rect fill="#FEFECE" height="23.9688" style="stroke: #A80036; stroke-width: 1.5;" width="126" x="46" y="166"/><text fill="#000000" font-family="sans-serif" font-size="12" lengthAdjust="spacingAndGlyphs" textLength="120" x="49" y="182.1387">ContactPersonRole</text></a><!--class RolePlayer--><a target="_top" xlink:actuate="onRequest" xlink:href="../RolePlayer.html" xlink:show="new" xlink:title="Type of entity that plays a specific role in a specific context." xlink:type="simple"><rect fill="#EEEEEE" filter="url(#f1pz7t0ljb0hoc)" height="23.9688" id="RolePlayer" style="stroke: #A80036; stroke-width: 1.5;" width="71" x="314.75" y="358"/><rect fill="#EEEEEE" height="23.9688" style="stroke: #A80036; stroke-width: 1.5;" width="71" x="314.75" y="358"/><text fill="#000000" font-family="sans-serif" font-size="12" lengthAdjust="spacingAndGlyphs" textLength="65" x="317.75" y="374.1387">RolePlayer</text></a><!--class CounterpartyRisk--><a target="_top" xlink:actuate="onRequest" xlink:href="../CounterpartyRisk.html" xlink:show="new" xlink:title="Calculation of the exposure amount that one party has vis-a-vis one counterparty or a central system, based on its credit risk." xlink:type="simple"><rect fill="#EEEEEE" filter="url(#f1pz7t0ljb0hoc)" height="23.9688" id="CounterpartyRisk" style="stroke: #A80036; stroke-width: 1.5;" width="113" x="278.75" y="272"/><rect fill="#EEEEEE" height="23.9688" style="stroke: #A80036; stroke-width: 1.5;" width="113" x="278.75" y="272"/><text fill="#000000" font-family="sans-serif" font-size="12" lengthAdjust="spacingAndGlyphs" textLength="107" x="281.75" y="288.1387">CounterpartyRisk</text></a><!--class Entry--><a target="_top" xlink:actuate="onRequest" xlink:href="../Entry.html" xlink:show="new" xlink:title="Posting to an account that results in an increase or decrease to a balance." xlink:type="simple"><rect fill="#EEEEEE" filter="url(#f1pz7t0ljb0hoc)" height="23.9688" id="Entry" style="stroke: #A80036; stroke-width: 1.5;" width="38" x="278" y="166"/><rect fill="#EEEEEE" height="23.9688" style="stroke: #A80036; stroke-width: 1.5;" width="38" x="278" y="166"/><text fill="#000000" font-family="sans-serif" font-size="12" lengthAdjust="spacingAndGlyphs" textLength="32" x="281" y="182.1387">Entry</text></a><!--class Meeting--><a target="_top" xlink:actuate="onRequest" xlink:href="../Meeting.html" xlink:show="new" xlink:title="Specifies the physical parameters of a general meeting. Several dates and places can be defined for a  meeting." xlink:type="simple"><rect fill="#EEEEEE" filter="url(#f1pz7t0ljb0hoc)" height="23.9688" id="Meeting" style="stroke: #A80036; stroke-width: 1.5;" width="56" x="38.5" y="358"/><rect fill="#EEEEEE" height="23.9688" style="stroke: #A80036; stroke-width: 1.5;" width="56" x="38.5" y="358"/><text fill="#000000" font-family="sans-serif" font-size="12" lengthAdjust="spacingAndGlyphs" textLength="50" x="41.5" y="374.1387">Meeting</text></a><!--class Person--><a target="_top" xlink:actuate="onRequest" xlink:href="../Person.html" xlink:show="new" xlink:title="Human entity, as distinguished from a corporate entity (which is sometimes referred to as an 'artificial person')." xlink:type="simple"><rect fill="#EEEEEE" filter="url(#f1pz7t0ljb0hoc)" height="23.9688" id="Person" style="stroke: #A80036; stroke-width: 1.5;" width="50" x="39" y="272"/><rect fill="#EEEEEE" height="23.9688" style="stroke: #A80036; stroke-width: 1.5;" width="50" x="39" y="272"/><text fill="#000000" font-family="sans-serif" font-size="12" lengthAdjust="spacingAndGlyphs" textLength="44" x="42" y="288.1387">Person</text></a><!--link Role to ContactPersonRole--><path d="M74.7908,98.682 C69.7,103.859 65.2575,109.629 62,116 C52.201,135.165 73.3169,154.351 90.3383,165.951 " fill="none" id="Role-ContactPersonRole" style="stroke: #A80036; stroke-width: 1.0;"/><polygon fill="none" points="70.5672,93.089,90.4089,85.652,79.5356,103.839,70.5672,93.089" style="stroke: #A80036; stroke-width: 1.0;"/><!--link Role to ContactPersonRole--><path d="M123.518,85.513 C119.522,94.691 115.364,105.654 113,116 C109.638,130.714 108.777,147.906 108.676,160.281 " fill="none" id="Role-ContactPersonRole" style="stroke: #A80036; stroke-width: 1.0;"/><polygon fill="#A80036" points="108.676,165.602,112.676,156.602,108.676,160.602,104.676,156.602,108.676,165.602" style="stroke: #A80036; stroke-width: 1.0;"/><text fill="#000000" font-family="sans-serif" font-size="13" lengthAdjust="spacingAndGlyphs" textLength="121" x="114" y="129.0669">ContactPersonRole</text><text fill="#000000" font-family="sans-serif" font-size="13" lengthAdjust="spacingAndGlyphs" textLength="8" x="97.9792" y="155.0338">1</text><!--link CounterpartyRisk to RolePlayer--><!--link Entry to CounterpartyRisk--><!--link Person to Meeting--><!--link Role to RolePlayer--><path d="M221.486,72.467 C309.108,82.969 435.132,104.275 465,142 C521.567,213.447 412.312,317.135 367.734,354.7204 " fill="none" id="Role-RolePlayer" style="stroke: #A80036; stroke-width: 1.0;"/><polygon fill="#A80036" points="363.881,357.9401,373.3517,355.2371,367.7173,354.7334,368.221,349.099,363.881,357.9401" style="stroke: #A80036; stroke-width: 1.0;"/><text fill="#000000" font-family="sans-serif" font-size="13" lengthAdjust="spacingAndGlyphs" textLength="39" x="474" y="235.0669">Player</text><text fill="#000000" font-family="sans-serif" font-size="13" lengthAdjust="spacingAndGlyphs" textLength="7" x="359.0198" y="346.9677">*</text><!--link Role to CounterpartyRisk--><path d="M221.439,70.729 C265.898,79.539 314.396,99.105 333,142 C351.173,183.902 343.921,239.615 338.65,266.755 " fill="none" id="Role-CounterpartyRisk" style="stroke: #A80036; stroke-width: 1.0;"/><polygon fill="#A80036" points="337.63,271.79,343.3372,263.7633,338.6227,266.8895,335.4964,262.175,337.63,271.79" style="stroke: #A80036; stroke-width: 1.0;"/><text fill="#000000" font-family="sans-serif" font-size="13" lengthAdjust="spacingAndGlyphs" textLength="109" x="346" y="182.0669">CounterpartyRisk</text><text fill="#000000" font-family="sans-serif" font-size="13" lengthAdjust="spacingAndGlyphs" textLength="24" x="309.1121" y="261.0239">0..1</text><!--link Role to Entry--><path d="M188.236,85.538 C205.879,93.774 225.016,104.093 241,116 C258.609,129.117 275.14,148.296 285.611,161.634 " fill="none" id="Role-Entry" style="stroke: #A80036; stroke-width: 1.0;"/><polygon fill="#A80036" points="288.922,165.916,286.5813,156.3493,285.8636,161.9605,280.2524,161.2428,288.922,165.916" style="stroke: #A80036; stroke-width: 1.0;"/><text fill="#000000" font-family="sans-serif" font-size="13" lengthAdjust="spacingAndGlyphs" textLength="33" x="263" y="129.0669">Entry</text><text fill="#000000" font-family="sans-serif" font-size="13" lengthAdjust="spacingAndGlyphs" textLength="8" x="275.4264" y="154.9353">1</text><!--link ContactPersonRole to Meeting--><path d="M118.851,190.121 C125.409,198.305 133.45,210.044 137,222 C139.277,229.669 138.991,232.252 137,240 C125.498,284.752 94.8436,330.6177 77.816,353.7147 " fill="none" id="ContactPersonRole-Meeting" style="stroke: #A80036; stroke-width: 1.0;"/><polygon fill="#A80036" points="74.8029,357.7571,83.3888,352.9319,77.7911,353.7483,76.9747,348.1507,74.8029,357.7571" style="stroke: #A80036; stroke-width: 1.0;"/><text fill="#000000" font-family="sans-serif" font-size="13" lengthAdjust="spacingAndGlyphs" textLength="51" x="136" y="288.0669">Meeting</text><text fill="#000000" font-family="sans-serif" font-size="13" lengthAdjust="spacingAndGlyphs" textLength="7" x="68.0626" y="346.9801">*</text><!--link ContactPersonRole to Person--><path d="M102.4909,190.094 C97.6139,198.648 90.956,210.862 86,222 C79.4325,236.76 73.3151,254.14 69.2068,266.564 " fill="none" id="ContactPersonRole-Person" style="stroke: #A80036; stroke-width: 1.0;"/><polygon fill="#A80036" points="67.5736,271.564,74.1709,264.2513,69.1264,266.8112,66.5665,261.7668,67.5736,271.564" style="stroke: #A80036; stroke-width: 1.0;"/><text fill="#000000" font-family="sans-serif" font-size="13" lengthAdjust="spacingAndGlyphs" textLength="44" x="87" y="235.0669">Person</text><text fill="#000000" font-family="sans-serif" font-size="13" lengthAdjust="spacingAndGlyphs" textLength="8" x="58.1189" y="260.9837">1</text></g></svg>