<?xml version="1.0" encoding="UTF-8" standalone="no"?><svg xmlns="http://www.w3.org/2000/svg" xmlns:xlink="http://www.w3.org/1999/xlink" contentScriptType="application/ecmascript" contentStyleType="text/css" height="522px" preserveAspectRatio="none" style="width:953px;height:522px;" version="1.1" viewBox="0 0 953 522" width="953px" zoomAndPan="magnify"><defs><filter height="300%" id="fkws1s5wegrv1" width="300%" x="-1" y="-1"><feGaussianBlur result="blurOut" stdDeviation="2.0"/><feColorMatrix in="blurOut" result="blurOut2" type="matrix" values="0 0 0 0 0 0 0 0 0 0 0 0 0 0 0 0 0 0 .4 0"/><feOffset dx="4.0" dy="4.0" in="blurOut2" result="blurOut3"/><feBlend in="SourceGraphic" in2="blurOut3" mode="normal"/></filter></defs><g><!--cluster ##2570--><!--cluster ##2585--><!--cluster ##2594--><!--class Agreement--><a target="_top" xlink:actuate="onRequest" xlink:href="../Agreement.html" xlink:show="new" xlink:title="Contractual details related to an agreement between parties." xlink:type="simple"><rect fill="#FEFEEE" filter="url(#fkws1s5wegrv1)" height="70.3828" id="Agreement" style="stroke: #A80036; stroke-width: 1.5;" width="171" x="444.75" y="40"/><rect fill="#FEFEEE" height="23.9688" style="stroke: #A80036; stroke-width: 1.5;" width="171" x="444.75" y="40"/><text fill="#000000" font-family="sans-serif" font-size="12" lengthAdjust="spacingAndGlyphs" textLength="69" x="495.75" y="56.1387">Agreement</text><line style="stroke: #A80036; stroke-width: 1.5;" x1="445.75" x2="614.75" y1="63.9688" y2="63.9688"/><ellipse cx="455.75" cy="75.8711" fill="#84BE84" rx="3" ry="3" style="stroke: #038048; stroke-width: 1.0;"/><text fill="#000000" font-family="sans-serif" font-size="11" lengthAdjust="spacingAndGlyphs" textLength="65" x="464.75" y="78.1792">DateSigned</text><text fill="#000000" font-family="sans-serif" font-size="11" font-style="italic" lengthAdjust="spacingAndGlyphs" textLength="53" x="533.75" y="78.1792">(ISODate)</text><ellipse cx="455.75" cy="88.6758" fill="#84BE84" rx="3" ry="3" style="stroke: #038048; stroke-width: 1.0;"/><text fill="#000000" font-family="sans-serif" font-size="11" lengthAdjust="spacingAndGlyphs" textLength="64" x="464.75" y="90.9839">Description</text><text fill="#000000" font-family="sans-serif" font-size="11" font-style="italic" lengthAdjust="spacingAndGlyphs" textLength="77" x="532.75" y="90.9839">(Max350Text)</text><ellipse cx="455.75" cy="101.4805" fill="#84BE84" rx="3" ry="3" style="stroke: #038048; stroke-width: 1.0;"/><text fill="#000000" font-family="sans-serif" font-size="11" lengthAdjust="spacingAndGlyphs" textLength="43" x="464.75" y="103.7886">Version</text><text fill="#000000" font-family="sans-serif" font-size="11" font-style="italic" lengthAdjust="spacingAndGlyphs" textLength="70" x="511.75" y="103.7886">(Max35Text)</text></a><!--class Contract--><a target="_top" xlink:actuate="onRequest" xlink:href="../Contract.html" xlink:show="new" xlink:title="Document that contains the information of the contract agreed between both parties." xlink:type="simple"><rect fill="#FEFECE" filter="url(#fkws1s5wegrv1)" height="23.9688" id="Contract" style="stroke: #A80036; stroke-width: 1.5;" width="60" x="367.5" y="172"/><rect fill="#FEFECE" height="23.9688" style="stroke: #A80036; stroke-width: 1.5;" width="60" x="367.5" y="172"/><text fill="#000000" font-family="sans-serif" font-size="12" lengthAdjust="spacingAndGlyphs" textLength="54" x="370.5" y="188.1387">Contract</text></a><!--class AccountContract--><a target="_top" xlink:actuate="onRequest" xlink:href="../AccountContract.html" xlink:show="new" xlink:title="Agreement between an account servicer and an account owner about the services linked to an account." xlink:type="simple"><rect fill="#FEFEEE" filter="url(#fkws1s5wegrv1)" height="23.9688" id="AccountContract" style="stroke: #A80036; stroke-width: 1.5;" width="111" x="341.75" y="276"/><rect fill="#FEFEEE" height="23.9688" style="stroke: #A80036; stroke-width: 1.5;" width="111" x="341.75" y="276"/><text fill="#000000" font-family="sans-serif" font-size="12" lengthAdjust="spacingAndGlyphs" textLength="105" x="344.75" y="292.1387">AccountContract</text></a><!--class Mandate--><a target="_top" xlink:actuate="onRequest" xlink:href="../Mandate.html" xlink:show="new" xlink:title="Authorisation given by an issuing party to a holder party to act on the issuer's behalf." xlink:type="simple"><rect fill="#FEFEEE" filter="url(#fkws1s5wegrv1)" height="23.9688" id="Mandate" style="stroke: #A80036; stroke-width: 1.5;" width="61" x="325.75" y="382"/><rect fill="#FEFEEE" height="23.9688" style="stroke: #A80036; stroke-width: 1.5;" width="61" x="325.75" y="382"/><text fill="#000000" font-family="sans-serif" font-size="12" lengthAdjust="spacingAndGlyphs" textLength="55" x="328.75" y="398.1387">Mandate</text></a><!--class RegisteredContract--><a target="_top" xlink:actuate="onRequest" xlink:href="../RegisteredContract.html" xlink:show="new" xlink:title="Contract registered for regulatory purpose by a registration agent for the journaling of payments made against the contract." xlink:type="simple"><rect fill="#FEFEEE" filter="url(#fkws1s5wegrv1)" height="23.9688" id="RegisteredContract" style="stroke: #A80036; stroke-width: 1.5;" width="128" x="488" y="276"/><rect fill="#FEFEEE" height="23.9688" style="stroke: #A80036; stroke-width: 1.5;" width="128" x="488" y="276"/><text fill="#000000" font-family="sans-serif" font-size="12" lengthAdjust="spacingAndGlyphs" textLength="122" x="491" y="292.1387">RegisteredContract</text></a><!--class DateTimePeriod--><a target="_top" xlink:actuate="onRequest" xlink:href="../DateTimePeriod.html" xlink:show="new" xlink:title="Time span defined by a start date and time, and an end date and time." xlink:type="simple"><rect fill="#EEEEEE" filter="url(#fkws1s5wegrv1)" height="23.9688" id="DateTimePeriod" style="stroke: #A80036; stroke-width: 1.5;" width="105" x="672.75" y="488"/><rect fill="#EEEEEE" height="23.9688" style="stroke: #A80036; stroke-width: 1.5;" width="105" x="672.75" y="488"/><text fill="#000000" font-family="sans-serif" font-size="12" lengthAdjust="spacingAndGlyphs" textLength="99" x="675.75" y="504.1387">DateTimePeriod</text></a><!--class Document--><a target="_top" xlink:actuate="onRequest" xlink:href="../Document.html" xlink:show="new" xlink:title="General information that unambiguously identifies a document, such as identification number and issue date time." xlink:type="simple"><rect fill="#EEEEEE" filter="url(#fkws1s5wegrv1)" height="23.9688" id="Document" style="stroke: #A80036; stroke-width: 1.5;" width="70" x="672" y="382"/><rect fill="#EEEEEE" height="23.9688" style="stroke: #A80036; stroke-width: 1.5;" width="70" x="672" y="382"/><text fill="#000000" font-family="sans-serif" font-size="12" lengthAdjust="spacingAndGlyphs" textLength="64" x="675" y="398.1387">Document</text></a><!--class CommercialTrade--><a target="_top" xlink:actuate="onRequest" xlink:href="../CommercialTrade.html" xlink:show="new" xlink:title="Commercial details of a trade transaction between a buyer and a seller." xlink:type="simple"><rect fill="#EEEEEE" filter="url(#fkws1s5wegrv1)" height="23.9688" id="CommercialTrade" style="stroke: #A80036; stroke-width: 1.5;" width="114" x="813" y="488"/><rect fill="#EEEEEE" height="23.9688" style="stroke: #A80036; stroke-width: 1.5;" width="114" x="813" y="488"/><text fill="#000000" font-family="sans-serif" font-size="12" lengthAdjust="spacingAndGlyphs" textLength="108" x="816" y="504.1387">CommercialTrade</text></a><!--class Jurisdiction--><a target="_top" xlink:actuate="onRequest" xlink:href="../Jurisdiction.html" xlink:show="new" xlink:title="Specifies the jurisdiction (country, county, state, province, city)." xlink:type="simple"><rect fill="#EEEEEE" filter="url(#fkws1s5wegrv1)" height="23.9688" id="Jurisdiction" style="stroke: #A80036; stroke-width: 1.5;" width="74" x="777" y="382"/><rect fill="#EEEEEE" height="23.9688" style="stroke: #A80036; stroke-width: 1.5;" width="74" x="777" y="382"/><text fill="#000000" font-family="sans-serif" font-size="12" lengthAdjust="spacingAndGlyphs" textLength="68" x="780" y="398.1387">Jurisdiction</text></a><!--class MasterAgreement--><a target="_top" xlink:actuate="onRequest" xlink:href="../MasterAgreement.html" xlink:show="new" xlink:title="Agreement which defines the framework of a contract between two trading parties in different domains such as collateral, derivatives, trade.." xlink:type="simple"><rect fill="#EEEEEE" filter="url(#fkws1s5wegrv1)" height="23.9688" id="MasterAgreement" style="stroke: #A80036; stroke-width: 1.5;" width="118" x="130" y="276"/><rect fill="#EEEEEE" height="23.9688" style="stroke: #A80036; stroke-width: 1.5;" width="118" x="130" y="276"/><text fill="#000000" font-family="sans-serif" font-size="12" lengthAdjust="spacingAndGlyphs" textLength="112" x="133" y="292.1387">MasterAgreement</text></a><!--link Agreement to Contract--><path d="M471.857,122.776 C449.247,140.967 425.327,160.211 410.777,171.916 " fill="none" id="Agreement-Contract" style="stroke: #A80036; stroke-width: 1.0;"/><polygon fill="none" points="467.581,117.232,487.552,110.15,476.357,128.14,467.581,117.232" style="stroke: #A80036; stroke-width: 1.0;"/><!--link Contract to AccountContract--><path d="M397,216.595 C397,236.825 397,261.843 397,275.954 " fill="none" id="Contract-AccountContract" style="stroke: #A80036; stroke-width: 1.0;"/><polygon fill="none" points="390,216.306,397,196.306,404,216.305,390,216.306" style="stroke: #A80036; stroke-width: 1.0;"/><!--link Contract to Mandate--><path d="M360.904,208.122 C346.592,219.436 331.726,234.422 324,252 C303.9,297.73 334.386,357.565 348.958,381.944 " fill="none" id="Contract-Mandate" style="stroke: #A80036; stroke-width: 1.0;"/><polygon fill="none" points="357.225,202.148,377.568,196.217,365.363,213.539,357.225,202.148" style="stroke: #A80036; stroke-width: 1.0;"/><!--link Contract to RegisteredContract--><path d="M430.846,207.273 C463.067,228.476 510.226,259.51 535.138,275.904 " fill="none" id="Contract-RegisteredContract" style="stroke: #A80036; stroke-width: 1.0;"/><polygon fill="none" points="426.742,212.952,413.883,196.11,434.438,201.257,426.742,212.952" style="stroke: #A80036; stroke-width: 1.0;"/><!--link Document to DateTimePeriod--><!--link CommercialTrade to Document--><!--link Document to CommercialTrade--><path d="M709.353,406.008 C712.924,420.066 721.052,444.217 737,458 C756.713,475.0365 783.416,484.9953 807.723,490.8161 " fill="none" id="Document-CommercialTrade" style="stroke: #A80036; stroke-width: 1.0;"/><polygon fill="#A80036" points="812.87,491.9965,804.9929,486.0845,807.9967,490.878,803.2033,493.8818,812.87,491.9965" style="stroke: #A80036; stroke-width: 1.0;"/><text fill="#000000" font-family="sans-serif" font-size="13" lengthAdjust="spacingAndGlyphs" textLength="113" x="738" y="453.0669">CommercialTrade</text><text fill="#000000" font-family="sans-serif" font-size="13" lengthAdjust="spacingAndGlyphs" textLength="7" x="798.1292" y="486.2673">*</text><!--link Jurisdiction to CommercialTrade--><!--link Agreement to DateTimePeriod--><path d="M444.644,76.061 C296.163,78.493 6,94.561 6,183 C6,183 6,183 6,395 C6,461.7072 497.031,489.1862 667.517,496.7165 " fill="none" id="Agreement-DateTimePeriod" style="stroke: #A80036; stroke-width: 1.0;"/><polygon fill="#A80036" points="672.712,496.9442,663.8967,492.5521,667.7168,496.7242,663.5447,500.5443,672.712,496.9442" style="stroke: #A80036; stroke-width: 1.0;"/><text fill="#000000" font-family="sans-serif" font-size="13" lengthAdjust="spacingAndGlyphs" textLength="86" x="7" y="292.0669">ValidityPeriod</text><text fill="#000000" font-family="sans-serif" font-size="13" lengthAdjust="spacingAndGlyphs" textLength="7" x="657.7605" y="491.6127">*</text><!--link Agreement to Document--><path d="M550.604,110.13 C571.742,145.393 605.354,202.154 633,252 C657.994,297.064 685.822,351.256 699.107,377.393 " fill="none" id="Agreement-Document" style="stroke: #A80036; stroke-width: 1.0;"/><polygon fill="#A80036" points="701.414,381.938,700.9052,372.1023,699.15,377.48,693.7723,375.7247,701.414,381.938" style="stroke: #A80036; stroke-width: 1.0;"/><text fill="#000000" font-family="sans-serif" font-size="13" lengthAdjust="spacingAndGlyphs" textLength="67" x="629" y="239.0669">Document</text><text fill="#000000" font-family="sans-serif" font-size="13" lengthAdjust="spacingAndGlyphs" textLength="8" x="688.7751" y="370.9649">1</text><!--link Agreement to CommercialTrade--><path d="M615.334,83.254 C725.717,95.041 904,123.315 904,183 C904,183 904,183 904,395 C904,427.71 888.617,463.4701 878.545,483.3775 " fill="none" id="Agreement-CommercialTrade" style="stroke: #A80036; stroke-width: 1.0;"/><polygon fill="#A80036" points="876.236,487.85,883.9191,481.688,878.5298,483.4072,876.8106,478.0179,876.236,487.85" style="stroke: #A80036; stroke-width: 1.0;"/><text fill="#000000" font-family="sans-serif" font-size="13" lengthAdjust="spacingAndGlyphs" textLength="36" x="905" y="292.0669">Trade</text><text fill="#000000" font-family="sans-serif" font-size="13" lengthAdjust="spacingAndGlyphs" textLength="8" x="867.6609" y="476.8467">1</text><!--link Agreement to Jurisdiction--><path d="M577.397,110.282 C614.848,138.742 667.107,181.612 706,226 C750.062,276.287 789.259,346.048 805.74,377.051 " fill="none" id="Agreement-Jurisdiction" style="stroke: #A80036; stroke-width: 1.0;"/><polygon fill="#A80036" points="808.188,381.686,807.5234,371.8596,805.8536,377.2644,800.4488,375.5946,808.188,381.686" style="stroke: #A80036; stroke-width: 1.0;"/><text fill="#000000" font-family="sans-serif" font-size="13" lengthAdjust="spacingAndGlyphs" textLength="68" x="722" y="239.0669">Jurisdiction</text><text fill="#000000" font-family="sans-serif" font-size="13" lengthAdjust="spacingAndGlyphs" textLength="24" x="776.9565" y="370.8854">0..1</text><!--link Contract to MasterAgreement--><path d="M367.094,186.027 C312.668,188.593 200.836,197.312 177,226 C166.557,238.569 172.664,257.608 179.398,271.067 " fill="none" id="Contract-MasterAgreement" style="stroke: #A80036; stroke-width: 1.0;"/><polygon fill="#A80036" points="181.877,275.751,181.1998,265.9254,179.537,271.3324,174.13,269.6695,181.877,275.751" style="stroke: #A80036; stroke-width: 1.0;"/><text fill="#000000" font-family="sans-serif" font-size="13" lengthAdjust="spacingAndGlyphs" textLength="116" x="178" y="239.0669">MasterAgreement</text><text fill="#000000" font-family="sans-serif" font-size="13" lengthAdjust="spacingAndGlyphs" textLength="7" x="170.0269" y="264.972">*</text><!--link AccountContract to Mandate--><path d="M392.612,300.13 C385.307,318.661 370.626,355.9 362.244,377.162 " fill="none" id="AccountContract-Mandate" style="stroke: #A80036; stroke-width: 1.0;"/><polygon fill="#A80036" points="360.356,381.95,367.377,375.043,362.189,377.2981,359.934,372.1102,360.356,381.95" style="stroke: #A80036; stroke-width: 1.0;"/><text fill="#000000" font-family="sans-serif" font-size="13" lengthAdjust="spacingAndGlyphs" textLength="137" x="380" y="345.0669">AccountAuthorisation</text><text fill="#000000" font-family="sans-serif" font-size="13" lengthAdjust="spacingAndGlyphs" textLength="7" x="352.2206" y="370.981">*</text><!--link Mandate to Mandate--><path d="M386.425,384.822 C404.284,382.866 421,385.926 421,394 C421,401.254 407.507,404.46 391.815,403.619 " fill="none" id="Mandate-Mandate" style="stroke: #A80036; stroke-width: 1.0;"/><polygon fill="#A80036" points="386.425,403.178,395.0695,407.8974,391.4084,403.5851,395.7208,399.924,386.425,403.178" style="stroke: #A80036; stroke-width: 1.0;"/><text fill="#000000" font-family="sans-serif" font-size="13" lengthAdjust="spacingAndGlyphs" textLength="104" x="427" y="398.0669">OriginalMandate</text><text fill="#000000" font-family="sans-serif" font-size="13" lengthAdjust="spacingAndGlyphs" textLength="8" x="394.7552" y="399.4302">1</text><!--link RegisteredContract to Document--><path d="M552.894,300.464 C554.642,314.482 559.8,337.838 575,350 C594.974,365.983 607.472,350.733 632,358 C649.7,363.244 668.524,372.04 682.886,379.502 " fill="none" id="RegisteredContract-Document" style="stroke: #A80036; stroke-width: 1.0;"/><polygon fill="#A80036" points="687.577,381.974,681.4807,374.2387,683.1539,379.6424,677.7502,381.3157,687.577,381.974" style="stroke: #A80036; stroke-width: 1.0;"/><text fill="#000000" font-family="sans-serif" font-size="13" lengthAdjust="spacingAndGlyphs" textLength="76" x="576" y="345.0669">Attachment</text><text fill="#000000" font-family="sans-serif" font-size="13" lengthAdjust="spacingAndGlyphs" textLength="8" x="670.1816" y="371.0133">1</text></g></svg>