<?xml version="1.0" encoding="UTF-8" standalone="no"?><svg xmlns="http://www.w3.org/2000/svg" xmlns:xlink="http://www.w3.org/1999/xlink" contentScriptType="application/ecmascript" contentStyleType="text/css" height="303px" preserveAspectRatio="none" style="width:1639px;height:303px;" version="1.1" viewBox="0 0 1639 303" width="1639px" zoomAndPan="magnify"><defs><filter height="300%" id="flto876b6v90o" width="300%" x="-1" y="-1"><feGaussianBlur result="blurOut" stdDeviation="2.0"/><feColorMatrix in="blurOut" result="blurOut2" type="matrix" values="0 0 0 0 0 0 0 0 0 0 0 0 0 0 0 0 0 0 .4 0"/><feOffset dx="4.0" dy="4.0" in="blurOut2" result="blurOut3"/><feBlend in="SourceGraphic" in2="blurOut3" mode="normal"/></filter></defs><g><!--cluster ##8340--><!--cluster ##8349--><!--class CorporateActionEntitlement--><a target="_top" xlink:actuate="onRequest" xlink:href="../CorporateActionEntitlement.html" xlink:show="new" xlink:title="Rights entitled to the account owner based on the terms of the corporate action event and the balance of underlying securities." xlink:type="simple"><rect fill="#FEFECE" filter="url(#flto876b6v90o)" height="44.7734" id="CorporateActionEntitlement" style="stroke: #A80036; stroke-width: 1.5;" width="256" x="271" y="40.5"/><rect fill="#FEFECE" height="23.9688" style="stroke: #A80036; stroke-width: 1.5;" width="256" x="271" y="40.5"/><text fill="#000000" font-family="sans-serif" font-size="12" lengthAdjust="spacingAndGlyphs" textLength="174" x="312" y="56.6387">CorporateActionEntitlement</text><line style="stroke: #A80036; stroke-width: 1.5;" x1="272" x2="526" y1="64.4688" y2="64.4688"/><ellipse cx="282" cy="76.3711" fill="#84BE84" rx="3" ry="3" style="stroke: #038048; stroke-width: 1.0;"/><text fill="#000000" font-family="sans-serif" font-size="11" lengthAdjust="spacingAndGlyphs" textLength="134" x="291" y="78.6792">EligibleBalanceIndicator</text><text fill="#000000" font-family="sans-serif" font-size="11" font-style="italic" lengthAdjust="spacingAndGlyphs" textLength="92" x="429" y="78.6792">(YesNoIndicator)</text></a><!--class CorporateActionCashEntitlement--><a target="_top" xlink:actuate="onRequest" xlink:href="../CorporateActionCashEntitlement.html" xlink:show="new" xlink:title="Rights for cash entitled to the account owner based on the terms of the corporate action event and the balance of underlying securities." xlink:type="simple"><rect fill="#FEFEEE" filter="url(#flto876b6v90o)" height="23.9688" id="CorporateActionCashEntitlement" style="stroke: #A80036; stroke-width: 1.5;" width="211" x="38.75" y="166"/><rect fill="#FEFEEE" height="23.9688" style="stroke: #A80036; stroke-width: 1.5;" width="211" x="38.75" y="166"/><text fill="#000000" font-family="sans-serif" font-size="12" lengthAdjust="spacingAndGlyphs" textLength="205" x="41.75" y="182.1387">CorporateActionCashEntitlement</text></a><!--class CorporateActionSecuritiesEntitlement--><a target="_top" xlink:actuate="onRequest" xlink:href="../CorporateActionSecuritiesEntitlement.html" xlink:show="new" xlink:title="Rights for securities entitled to the account owner based on the terms of the corporate action event and the balance of underlying securities." xlink:type="simple"><rect fill="#FEFEEE" filter="url(#flto876b6v90o)" height="23.9688" id="CorporateActionSecuritiesEntitlement" style="stroke: #A80036; stroke-width: 1.5;" width="242" x="285.5" y="166"/><rect fill="#FEFEEE" height="23.9688" style="stroke: #A80036; stroke-width: 1.5;" width="242" x="285.5" y="166"/><text fill="#000000" font-family="sans-serif" font-size="12" lengthAdjust="spacingAndGlyphs" textLength="236" x="288.5" y="182.1387">CorporateActionSecuritiesEntitlement</text></a><!--class SecuritiesBalance--><a target="_top" xlink:actuate="onRequest" xlink:href="../SecuritiesBalance.html" xlink:show="new" xlink:title="Net position of a segregated holding, in a single security, within the overall position held in a securities account. A securities balance is calculated from the sum of securities' receipts minus the sum of securities' deliveries." xlink:type="simple"><rect fill="#EEEEEE" filter="url(#flto876b6v90o)" height="23.9688" id="SecuritiesBalance" style="stroke: #A80036; stroke-width: 1.5;" width="118" x="1182" y="256"/><rect fill="#EEEEEE" height="23.9688" style="stroke: #A80036; stroke-width: 1.5;" width="118" x="1182" y="256"/><text fill="#000000" font-family="sans-serif" font-size="12" lengthAdjust="spacingAndGlyphs" textLength="112" x="1185" y="272.1387">SecuritiesBalance</text></a><!--class CorporateActionServicing--><a target="_top" xlink:actuate="onRequest" xlink:href="../CorporateActionServicing.html" xlink:show="new" xlink:title="Services which consists in notifying the investor or its agent of a corporate event and calculating its proceeds based on its holdings." xlink:type="simple"><rect fill="#EEEEEE" filter="url(#flto876b6v90o)" height="23.9688" id="CorporateActionServicing" style="stroke: #A80036; stroke-width: 1.5;" width="164" x="1311" y="166"/><rect fill="#EEEEEE" height="23.9688" style="stroke: #A80036; stroke-width: 1.5;" width="164" x="1311" y="166"/><text fill="#000000" font-family="sans-serif" font-size="12" lengthAdjust="spacingAndGlyphs" textLength="158" x="1314" y="182.1387">CorporateActionServicing</text></a><!--link CorporateActionEntitlement to CorporateActionCashEntitlement--><path d="M332.032,93.676 C278.577,117.364 206.637,149.243 169.128,165.865 " fill="none" id="CorporateActionEntitlement-CorporateActionCashEntitlement" style="stroke: #A80036; stroke-width: 1.0;"/><polygon fill="none" points="329.315,87.223,350.436,85.52,334.987,100.023,329.315,87.223" style="stroke: #A80036; stroke-width: 1.0;"/><!--link CorporateActionEntitlement to CorporateActionSecuritiesEntitlement--><path d="M401.574,105.559 C402.913,127.159 404.445,151.898 405.31,165.865 " fill="none" id="CorporateActionEntitlement-CorporateActionSecuritiesEntitlement" style="stroke: #A80036; stroke-width: 1.0;"/><polygon fill="none" points="394.583,105.915,400.333,85.52,408.556,105.049,394.583,105.915" style="stroke: #A80036; stroke-width: 1.0;"/><!--link CorporateActionServicing to SecuritiesBalance--><!--link CorporateActionEntitlement to SecuritiesBalance--><path d="M445.014,85.518 C474.097,99.933 511.922,120.208 543,142 C582.437,169.653 579.762,194.947 624,214 C721.977,256.1989 1038.82,264.8222 1176.33,266.5667 " fill="none" id="CorporateActionEntitlement-SecuritiesBalance" style="stroke: #A80036; stroke-width: 1.0;"/><polygon fill="#A80036" points="1181.54,266.6307,1172.5863,262.5281,1176.5403,266.5736,1172.4949,270.5276,1181.54,266.6307" style="stroke: #A80036; stroke-width: 1.0;"/><text fill="#000000" font-family="sans-serif" font-size="13" lengthAdjust="spacingAndGlyphs" textLength="95" x="625" y="182.0669">EligibleBalance</text><text fill="#000000" font-family="sans-serif" font-size="13" lengthAdjust="spacingAndGlyphs" textLength="7" x="1166.9441" y="261.6883">*</text><!--link CorporateActionEntitlement to SecuritiesBalance--><path d="M527.086,76.663 C590.317,87.227 665.751,106.578 726,142 C763.422,164.002 753.359,194.217 792,214 C857.682,247.6267 1069.07,260.4481 1176.72,264.8864 " fill="none" id="CorporateActionEntitlement-SecuritiesBalance" style="stroke: #A80036; stroke-width: 1.0;"/><polygon fill="#A80036" points="1181.77,265.0914,1172.9372,260.7346,1176.774,264.8914,1172.6172,268.7282,1181.77,265.0914" style="stroke: #A80036; stroke-width: 1.0;"/><text fill="#000000" font-family="sans-serif" font-size="13" lengthAdjust="spacingAndGlyphs" textLength="114" x="793" y="182.0669">SecuritiesBalance</text><text fill="#000000" font-family="sans-serif" font-size="13" lengthAdjust="spacingAndGlyphs" textLength="7" x="1167.1978" y="277.6402">*</text><!--link CorporateActionEntitlement to SecuritiesBalance--><path d="M527.217,73.677 C657.162,85.204 848.036,107.372 913,142 C951.308,162.419 941.204,192.648 979,214 C1040.36,248.6615 1121.11,260.8507 1176.66,265.0318 " fill="none" id="CorporateActionEntitlement-SecuritiesBalance" style="stroke: #A80036; stroke-width: 1.0;"/><polygon fill="#A80036" points="1181.95,265.4119,1173.2587,260.7792,1176.9628,265.0548,1172.6873,268.7588,1181.95,265.4119" style="stroke: #A80036; stroke-width: 1.0;"/><text fill="#000000" font-family="sans-serif" font-size="13" lengthAdjust="spacingAndGlyphs" textLength="115" x="980" y="182.0669">InstructedBalance</text><text fill="#000000" font-family="sans-serif" font-size="13" lengthAdjust="spacingAndGlyphs" textLength="7" x="1167.0209" y="258.5209">*</text><!--link CorporateActionEntitlement to SecuritiesBalance--><path d="M527.2,66.374 C702.375,71.611 1005.683,88.375 1101,142 C1136.57,162.012 1127.72,186.639 1158,214 C1175.28,229.61 1197.66,243.6115 1214.83,253.2979 " fill="none" id="CorporateActionEntitlement-SecuritiesBalance" style="stroke: #A80036; stroke-width: 1.0;"/><polygon fill="#A80036" points="1219.53,255.9132,1213.6077,248.0439,1215.16,253.4836,1209.7203,255.0359,1219.53,255.9132" style="stroke: #A80036; stroke-width: 1.0;"/><text fill="#000000" font-family="sans-serif" font-size="13" lengthAdjust="spacingAndGlyphs" textLength="133" x="1159" y="182.0669">UninstructedBalance</text><text fill="#000000" font-family="sans-serif" font-size="13" lengthAdjust="spacingAndGlyphs" textLength="7" x="1202.6028" y="244.9316">*</text><!--link CorporateActionEntitlement to SecuritiesBalance--><path d="M527.068,64.638 C713.212,66.973 1069.05,76.749 1369,116 C1424.83,123.306 1457.5,98.288 1493,142 C1513.17,166.841 1513.16,189.153 1493,214 C1469.8,242.5884 1372.14,256.3292 1305.43,262.4939 " fill="none" id="CorporateActionEntitlement-SecuritiesBalance" style="stroke: #A80036; stroke-width: 1.0;"/><polygon fill="#A80036" points="1300.28,262.9604,1309.608,266.1209,1305.2591,262.5033,1308.8766,258.1544,1300.28,262.9604" style="stroke: #A80036; stroke-width: 1.0;"/><text fill="#000000" font-family="sans-serif" font-size="13" lengthAdjust="spacingAndGlyphs" textLength="118" x="1509" y="182.0669">NotEligibleBalance</text><text fill="#000000" font-family="sans-serif" font-size="13" lengthAdjust="spacingAndGlyphs" textLength="7" x="1307.9313" y="257.3872">*</text><!--link CorporateActionEntitlement to CorporateActionServicing--><path d="M527.181,66.853 C679.978,71.598 942.723,84.015 1166,116 C1219.16,123.615 1232.16,127.998 1284,142 C1308.34,148.573 1335.31,157.224 1356.34,164.28 " fill="none" id="CorporateActionEntitlement-CorporateActionServicing" style="stroke: #A80036; stroke-width: 1.0;"/><polygon fill="#A80036" points="1361.28,165.945,1354.0326,159.276,1356.5428,164.3454,1351.4733,166.8556,1361.28,165.945" style="stroke: #A80036; stroke-width: 1.0;"/><text fill="#000000" font-family="sans-serif" font-size="13" lengthAdjust="spacingAndGlyphs" textLength="106" x="1253" y="129.0669">RelatedServicing</text><text fill="#000000" font-family="sans-serif" font-size="13" lengthAdjust="spacingAndGlyphs" textLength="24" x="1320.9075" y="154.9743">0..1</text><!--link SecuritiesBalance to SecuritiesBalance--><path d="M1300.21,259.7505 C1319.58,259.7931 1335,262.543 1335,268 C1335,272.9454 1322.33,275.6675 1305.54,276.1661 " fill="none" id="SecuritiesBalance-SecuritiesBalance" style="stroke: #A80036; stroke-width: 1.0;"/><polygon fill="#A80036" points="1300.21,276.2495,1309.2772,280.0946,1305.2093,276.1638,1309.1401,272.0958,1300.21,276.2495" style="stroke: #A80036; stroke-width: 1.0;"/><text fill="#000000" font-family="sans-serif" font-size="13" lengthAdjust="spacingAndGlyphs" textLength="144" x="1341" y="272.0669">MainSecuritiesBalance</text><text fill="#000000" font-family="sans-serif" font-size="13" lengthAdjust="spacingAndGlyphs" textLength="24" x="1307.9986" y="290.048">0..1</text></g></svg>