<?xml version="1.0" encoding="UTF-8" standalone="no"?><svg xmlns="http://www.w3.org/2000/svg" xmlns:xlink="http://www.w3.org/1999/xlink" contentScriptType="application/ecmascript" contentStyleType="text/css" height="420px" preserveAspectRatio="none" style="width:1542px;height:420px;" version="1.1" viewBox="0 0 1542 420" width="1542px" zoomAndPan="magnify"><defs><filter height="300%" id="f1sczj9j1wxzxy" width="300%" x="-1" y="-1"><feGaussianBlur result="blurOut" stdDeviation="2.0"/><feColorMatrix in="blurOut" result="blurOut2" type="matrix" values="0 0 0 0 0 0 0 0 0 0 0 0 0 0 0 0 0 0 .4 0"/><feOffset dx="4.0" dy="4.0" in="blurOut2" result="blurOut3"/><feBlend in="SourceGraphic" in2="blurOut3" mode="normal"/></filter></defs><g><!--cluster ##6987--><!--cluster ##6993--><!--cluster ##6998--><!--class CorporateActionEntitlement--><a target="_top" xlink:actuate="onRequest" xlink:href="../CorporateActionEntitlement.html" xlink:show="new" xlink:title="Rights entitled to the account owner based on the terms of the corporate action event and the balance of underlying securities." xlink:type="simple"><rect fill="#FEFEEE" filter="url(#f1sczj9j1wxzxy)" height="44.7734" id="CorporateActionEntitlement" style="stroke: #A80036; stroke-width: 1.5;" width="256" x="172" y="40.5"/><rect fill="#FEFEEE" height="23.9688" style="stroke: #A80036; stroke-width: 1.5;" width="256" x="172" y="40.5"/><text fill="#000000" font-family="sans-serif" font-size="12" lengthAdjust="spacingAndGlyphs" textLength="174" x="213" y="56.6387">CorporateActionEntitlement</text><line style="stroke: #A80036; stroke-width: 1.5;" x1="173" x2="427" y1="64.4688" y2="64.4688"/><ellipse cx="183" cy="76.3711" fill="#84BE84" rx="3" ry="3" style="stroke: #038048; stroke-width: 1.0;"/><text fill="#000000" font-family="sans-serif" font-size="11" lengthAdjust="spacingAndGlyphs" textLength="134" x="192" y="78.6792">EligibleBalanceIndicator</text><text fill="#000000" font-family="sans-serif" font-size="11" font-style="italic" lengthAdjust="spacingAndGlyphs" textLength="92" x="330" y="78.6792">(YesNoIndicator)</text></a><!--class CorporateActionSecuritiesEntitlement--><a target="_top" xlink:actuate="onRequest" xlink:href="../CorporateActionSecuritiesEntitlement.html" xlink:show="new" xlink:title="Rights for securities entitled to the account owner based on the terms of the corporate action event and the balance of underlying securities." xlink:type="simple"><rect fill="#FEFECE" filter="url(#f1sczj9j1wxzxy)" height="44.7734" id="CorporateActionSecuritiesEntitlement" style="stroke: #A80036; stroke-width: 1.5;" width="389" x="38.75" y="164.5"/><rect fill="#FEFECE" height="23.9688" style="stroke: #A80036; stroke-width: 1.5;" width="389" x="38.75" y="164.5"/><text fill="#000000" font-family="sans-serif" font-size="12" lengthAdjust="spacingAndGlyphs" textLength="236" x="115.25" y="180.6387">CorporateActionSecuritiesEntitlement</text><line style="stroke: #A80036; stroke-width: 1.5;" x1="39.75" x2="426.75" y1="188.4688" y2="188.4688"/><ellipse cx="49.75" cy="200.3711" fill="#84BE84" rx="3" ry="3" style="stroke: #038048; stroke-width: 1.0;"/><text fill="#000000" font-family="sans-serif" font-size="11" lengthAdjust="spacingAndGlyphs" textLength="207" x="58.75" y="202.6792">RenounceableEntitlementStatusType</text><text fill="#000000" font-family="sans-serif" font-size="11" font-style="italic" lengthAdjust="spacingAndGlyphs" textLength="152" x="269.75" y="202.6792">(RenounceableStatusCode)</text></a><!--class SecuritiesBalance--><a target="_top" xlink:actuate="onRequest" xlink:href="../SecuritiesBalance.html" xlink:show="new" xlink:title="Net position of a segregated holding, in a single security, within the overall position held in a securities account. A securities balance is calculated from the sum of securities' receipts minus the sum of securities' deliveries." xlink:type="simple"><rect fill="#EEEEEE" filter="url(#f1sczj9j1wxzxy)" height="23.9688" id="SecuritiesBalance" style="stroke: #A80036; stroke-width: 1.5;" width="118" x="1083" y="276"/><rect fill="#EEEEEE" height="23.9688" style="stroke: #A80036; stroke-width: 1.5;" width="118" x="1083" y="276"/><text fill="#000000" font-family="sans-serif" font-size="12" lengthAdjust="spacingAndGlyphs" textLength="112" x="1086" y="292.1387">SecuritiesBalance</text></a><!--class CorporateActionServicing--><a target="_top" xlink:actuate="onRequest" xlink:href="../CorporateActionServicing.html" xlink:show="new" xlink:title="Services which consists in notifying the investor or its agent of a corporate event and calculating its proceeds based on its holdings." xlink:type="simple"><rect fill="#EEEEEE" filter="url(#f1sczj9j1wxzxy)" height="23.9688" id="CorporateActionServicing" style="stroke: #A80036; stroke-width: 1.5;" width="164" x="1212" y="175"/><rect fill="#EEEEEE" height="23.9688" style="stroke: #A80036; stroke-width: 1.5;" width="164" x="1212" y="175"/><text fill="#000000" font-family="sans-serif" font-size="12" lengthAdjust="spacingAndGlyphs" textLength="158" x="1215" y="191.1387">CorporateActionServicing</text></a><!--class SecuritiesQuantity--><a target="_top" xlink:actuate="onRequest" xlink:href="../SecuritiesQuantity.html" xlink:show="new" xlink:title="Quantity of a security." xlink:type="simple"><rect fill="#EEEEEE" filter="url(#f1sczj9j1wxzxy)" height="23.9688" id="SecuritiesQuantity" style="stroke: #A80036; stroke-width: 1.5;" width="120" x="909.5" y="384"/><rect fill="#EEEEEE" height="23.9688" style="stroke: #A80036; stroke-width: 1.5;" width="120" x="909.5" y="384"/><text fill="#000000" font-family="sans-serif" font-size="12" lengthAdjust="spacingAndGlyphs" textLength="114" x="912.5" y="400.1387">SecuritiesQuantity</text></a><!--link CorporateActionEntitlement to CorporateActionSecuritiesEntitlement--><path d="M278.516,103.12 C267.393,123.374 254.232,147.338 244.931,164.275 " fill="none" id="CorporateActionEntitlement-CorporateActionSecuritiesEntitlement" style="stroke: #A80036; stroke-width: 1.0;"/><polygon fill="none" points="272.413,99.691,288.176,85.53,284.684,106.43,272.413,99.691" style="stroke: #A80036; stroke-width: 1.0;"/><!--link CorporateActionServicing to SecuritiesBalance--><!--link CorporateActionEntitlement to SecuritiesBalance--><path d="M341.852,85.575 C371.613,101.784 411.847,125.499 444,151 C484.384,183.03 478.413,211.944 525,234 C574.067,257.23 929.788,276.796 1077.73,284.019 " fill="none" id="CorporateActionEntitlement-SecuritiesBalance" style="stroke: #A80036; stroke-width: 1.0;"/><polygon fill="#A80036" points="1082.9,284.271,1074.1049,279.8386,1077.9059,284.0282,1073.7163,287.8292,1082.9,284.271" style="stroke: #A80036; stroke-width: 1.0;"/><text fill="#000000" font-family="sans-serif" font-size="13" lengthAdjust="spacingAndGlyphs" textLength="95" x="526" y="191.0669">EligibleBalance</text><text fill="#000000" font-family="sans-serif" font-size="13" lengthAdjust="spacingAndGlyphs" textLength="7" x="1067.9438" y="279.0093">*</text><!--link CorporateActionEntitlement to SecuritiesBalance--><path d="M428.072,78.738 C491.848,90.688 567.769,112.235 627,151 C666.435,176.809 651.827,211.064 693,234 C757.546,269.956 969.982,281.691 1077.88,285.384 " fill="none" id="CorporateActionEntitlement-SecuritiesBalance" style="stroke: #A80036; stroke-width: 1.0;"/><polygon fill="#A80036" points="1082.94,285.554,1074.0702,281.2731,1077.9425,285.3968,1073.8187,289.2691,1082.94,285.554" style="stroke: #A80036; stroke-width: 1.0;"/><text fill="#000000" font-family="sans-serif" font-size="13" lengthAdjust="spacingAndGlyphs" textLength="114" x="694" y="191.0669">SecuritiesBalance</text><text fill="#000000" font-family="sans-serif" font-size="13" lengthAdjust="spacingAndGlyphs" textLength="7" x="1067.9881" y="298.1826">*</text><!--link CorporateActionEntitlement to SecuritiesBalance--><path d="M428.17,75.164 C558.59,88.367 750.336,113.413 814,151 C854.584,174.961 839.803,209.394 880,234 C940.417,270.984 1021.93,282.706 1077.91,286.144 " fill="none" id="CorporateActionEntitlement-SecuritiesBalance" style="stroke: #A80036; stroke-width: 1.0;"/><polygon fill="#A80036" points="1082.91,286.433,1074.1533,281.9252,1077.9182,286.1473,1073.6961,289.9121,1082.91,286.433" style="stroke: #A80036; stroke-width: 1.0;"/><text fill="#000000" font-family="sans-serif" font-size="13" lengthAdjust="spacingAndGlyphs" textLength="115" x="881" y="191.0669">InstructedBalance</text><text fill="#000000" font-family="sans-serif" font-size="13" lengthAdjust="spacingAndGlyphs" textLength="7" x="1067.9702" y="279.8164">*</text><!--link CorporateActionEntitlement to SecuritiesBalance--><path d="M428.12,67.127 C603.972,73.547 908.944,92.941 1002,151 C1039.97,174.688 1026.83,202.891 1059,234 C1075.51,249.97 1097.56,263.776 1114.78,273.291 " fill="none" id="CorporateActionEntitlement-SecuritiesBalance" style="stroke: #A80036; stroke-width: 1.0;"/><polygon fill="#A80036" points="1119.5,275.859,1113.5001,268.0487,1115.1062,273.4728,1109.6821,275.0788,1119.5,275.859" style="stroke: #A80036; stroke-width: 1.0;"/><text fill="#000000" font-family="sans-serif" font-size="13" lengthAdjust="spacingAndGlyphs" textLength="133" x="1060" y="191.0669">UninstructedBalance</text><text fill="#000000" font-family="sans-serif" font-size="13" lengthAdjust="spacingAndGlyphs" textLength="7" x="1102.2188" y="264.8587">*</text><!--link CorporateActionEntitlement to SecuritiesBalance--><path d="M428.115,63.854 C704.366,64.975 1335.93,75.817 1394,151 C1416.55,180.195 1417.25,205.357 1394,234 C1370.8,262.588 1273.14,276.329 1206.43,282.494 " fill="none" id="CorporateActionEntitlement-SecuritiesBalance" style="stroke: #A80036; stroke-width: 1.0;"/><polygon fill="#A80036" points="1201.28,282.96,1210.608,286.1206,1206.2591,282.5029,1209.8767,278.154,1201.28,282.96" style="stroke: #A80036; stroke-width: 1.0;"/><text fill="#000000" font-family="sans-serif" font-size="13" lengthAdjust="spacingAndGlyphs" textLength="118" x="1412" y="191.0669">NotEligibleBalance</text><text fill="#000000" font-family="sans-serif" font-size="13" lengthAdjust="spacingAndGlyphs" textLength="7" x="1208.9313" y="277.3867">*</text><!--link CorporateActionEntitlement to CorporateActionServicing--><path d="M428.286,64.091 C581.462,66.176 844.844,76.029 1067,116 C1137.74,128.728 1217.37,156.569 1261,173.047 " fill="none" id="CorporateActionEntitlement-CorporateActionServicing" style="stroke: #A80036; stroke-width: 1.0;"/><polygon fill="#A80036" points="1265.88,174.9,1258.8816,167.9702,1261.2045,173.1281,1256.0466,175.451,1265.88,174.9" style="stroke: #A80036; stroke-width: 1.0;"/><text fill="#000000" font-family="sans-serif" font-size="13" lengthAdjust="spacingAndGlyphs" textLength="106" x="1144" y="129.0669">RelatedServicing</text><text fill="#000000" font-family="sans-serif" font-size="13" lengthAdjust="spacingAndGlyphs" textLength="24" x="1226.745" y="163.9138">0..1</text><!--link CorporateActionSecuritiesEntitlement to SecuritiesQuantity--><path d="M301.181,209.598 C405.223,242.242 610.092,305.29 786,352 C828.391,363.2562 876.707,374.5444 913.045,382.729 " fill="none" id="CorporateActionSecuritiesEntitlement-SecuritiesQuantity" style="stroke: #A80036; stroke-width: 1.0;"/><polygon fill="#A80036" points="918.317,383.9137,910.4123,378.0386,913.4385,382.818,908.6592,385.8442,918.317,383.9137" style="stroke: #A80036; stroke-width: 1.0;"/><text fill="#000000" font-family="sans-serif" font-size="13" lengthAdjust="spacingAndGlyphs" textLength="165" x="685" y="292.0669">EntitledSecuritiesQuantity</text><text fill="#000000" font-family="sans-serif" font-size="13" lengthAdjust="spacingAndGlyphs" textLength="8" x="893.5155" y="374.2138">1</text><!--link SecuritiesBalance to SecuritiesQuantity--><path d="M1082.99,292.634 C990.544,298.934 820.199,313.233 802,334 C769.103,371.5377 844.397,385.9919 904.328,391.5471 " fill="none" id="SecuritiesBalance-SecuritiesQuantity" style="stroke: #A80036; stroke-width: 1.0;"/><polygon fill="#A80036" points="909.343,391.9949,900.734,387.211,904.3628,391.5506,900.0232,395.1794,909.343,391.9949" style="stroke: #A80036; stroke-width: 1.0;"/><text fill="#000000" font-family="sans-serif" font-size="13" lengthAdjust="spacingAndGlyphs" textLength="121" x="803" y="347.0669">AggregateQuantity</text><text fill="#000000" font-family="sans-serif" font-size="13" lengthAdjust="spacingAndGlyphs" textLength="8" x="893.6237" y="386.7807">1</text><!--link SecuritiesBalance to SecuritiesQuantity--><path d="M1082.56,296.356 C1037.28,303.324 980.362,315.504 966,334 C956.241,346.5687 958.955,365.3653 962.872,378.7681 " fill="none" id="SecuritiesBalance-SecuritiesQuantity" style="stroke: #A80036; stroke-width: 1.0;"/><polygon fill="#A80036" points="964.469,383.7931,965.5544,374.0042,962.9542,379.0281,957.9303,376.4279,964.469,383.7931" style="stroke: #A80036; stroke-width: 1.0;"/><text fill="#000000" font-family="sans-serif" font-size="13" lengthAdjust="spacingAndGlyphs" textLength="130" x="967" y="347.0669">SubBalanceQuantity</text><text fill="#000000" font-family="sans-serif" font-size="13" lengthAdjust="spacingAndGlyphs" textLength="8" x="952.1462" y="373.028">1</text><!--link SecuritiesBalance to SecuritiesQuantity--><path d="M1137.99,300.007 C1132.31,314.065 1120.63,338.215 1103,352 C1083.05,367.5934 1057.3,377.6085 1033.7,384.0063 " fill="none" id="SecuritiesBalance-SecuritiesQuantity" style="stroke: #A80036; stroke-width: 1.0;"/><polygon fill="#A80036" points="1028.71,385.3174,1038.4312,386.8977,1033.5457,384.0462,1036.3973,379.1606,1028.71,385.3174" style="stroke: #A80036; stroke-width: 1.0;"/><text fill="#000000" font-family="sans-serif" font-size="13" lengthAdjust="spacingAndGlyphs" textLength="111" x="1120" y="347.0669">AvailableQuantity</text><text fill="#000000" font-family="sans-serif" font-size="13" lengthAdjust="spacingAndGlyphs" textLength="8" x="1037.5989" y="378.6983">1</text><!--link SecuritiesBalance to SecuritiesQuantity--><path d="M1187.7,300.087 C1222.44,310.661 1261.11,328.456 1241,352 C1214.88,382.5723 1105.65,391.5331 1033.81,394.0837 " fill="none" id="SecuritiesBalance-SecuritiesQuantity" style="stroke: #A80036; stroke-width: 1.0;"/><polygon fill="#A80036" points="1028.7,394.2565,1037.8213,397.9716,1033.6975,394.0993,1037.5698,389.9756,1028.7,394.2565" style="stroke: #A80036; stroke-width: 1.0;"/><text fill="#000000" font-family="sans-serif" font-size="13" lengthAdjust="spacingAndGlyphs" textLength="128" x="1247" y="347.0669">UnavailableQuantity</text><text fill="#000000" font-family="sans-serif" font-size="13" lengthAdjust="spacingAndGlyphs" textLength="8" x="1037.5875" y="407.1444">1</text><!--link SecuritiesBalance to SecuritiesBalance--><path d="M1201.21,279.751 C1220.58,279.793 1236,282.543 1236,288 C1236,292.945 1223.33,295.667 1206.54,296.166 " fill="none" id="SecuritiesBalance-SecuritiesBalance" style="stroke: #A80036; stroke-width: 1.0;"/><polygon fill="#A80036" points="1201.21,296.249,1210.2772,300.0941,1206.2093,296.1633,1210.1401,292.0953,1201.21,296.249" style="stroke: #A80036; stroke-width: 1.0;"/><text fill="#000000" font-family="sans-serif" font-size="13" lengthAdjust="spacingAndGlyphs" textLength="144" x="1242" y="292.0669">MainSecuritiesBalance</text><text fill="#000000" font-family="sans-serif" font-size="13" lengthAdjust="spacingAndGlyphs" textLength="24" x="1208.9986" y="310.0474">0..1</text></g></svg>