<?xml version="1.0" encoding="UTF-8" standalone="no"?><svg xmlns="http://www.w3.org/2000/svg" xmlns:xlink="http://www.w3.org/1999/xlink" contentScriptType="application/ecmascript" contentStyleType="text/css" height="468px" preserveAspectRatio="none" style="width:1429px;height:468px;" version="1.1" viewBox="0 0 1429 468" width="1429px" zoomAndPan="magnify"><defs><filter height="300%" id="f1tyyesvfx18gf" width="300%" x="-1" y="-1"><feGaussianBlur result="blurOut" stdDeviation="2.0"/><feColorMatrix in="blurOut" result="blurOut2" type="matrix" values="0 0 0 0 0 0 0 0 0 0 0 0 0 0 0 0 0 0 .4 0"/><feOffset dx="4.0" dy="4.0" in="blurOut2" result="blurOut3"/><feBlend in="SourceGraphic" in2="blurOut3" mode="normal"/></filter></defs><g><!--cluster ##3753--><!--cluster ##3759--><!--cluster ##3764--><!--class CorporateActionEntitlement--><a target="_top" xlink:actuate="onRequest" xlink:href="../CorporateActionEntitlement.html" xlink:show="new" xlink:title="Rights entitled to the account owner based on the terms of the corporate action event and the balance of underlying securities." xlink:type="simple"><rect fill="#FEFEEE" filter="url(#f1tyyesvfx18gf)" height="44.7734" id="CorporateActionEntitlement" style="stroke: #A80036; stroke-width: 1.5;" width="256" x="52" y="40.5"/><rect fill="#FEFEEE" height="23.9688" style="stroke: #A80036; stroke-width: 1.5;" width="256" x="52" y="40.5"/><text fill="#000000" font-family="sans-serif" font-size="12" lengthAdjust="spacingAndGlyphs" textLength="174" x="93" y="56.6387">CorporateActionEntitlement</text><line style="stroke: #A80036; stroke-width: 1.5;" x1="53" x2="307" y1="64.4688" y2="64.4688"/><ellipse cx="63" cy="76.3711" fill="#84BE84" rx="3" ry="3" style="stroke: #038048; stroke-width: 1.0;"/><text fill="#000000" font-family="sans-serif" font-size="11" lengthAdjust="spacingAndGlyphs" textLength="134" x="72" y="78.6792">EligibleBalanceIndicator</text><text fill="#000000" font-family="sans-serif" font-size="11" font-style="italic" lengthAdjust="spacingAndGlyphs" textLength="92" x="210" y="78.6792">(YesNoIndicator)</text></a><!--class CorporateActionCashEntitlement--><a target="_top" xlink:actuate="onRequest" xlink:href="../CorporateActionCashEntitlement.html" xlink:show="new" xlink:title="Rights for cash entitled to the account owner based on the terms of the corporate action event and the balance of underlying securities." xlink:type="simple"><rect fill="#FEFECE" filter="url(#f1tyyesvfx18gf)" height="95.9922" id="CorporateActionCashEntitlement" style="stroke: #A80036; stroke-width: 1.5;" width="270" x="38" y="164"/><rect fill="#FEFECE" height="23.9688" style="stroke: #A80036; stroke-width: 1.5;" width="270" x="38" y="164"/><text fill="#000000" font-family="sans-serif" font-size="12" lengthAdjust="spacingAndGlyphs" textLength="205" x="70.5" y="180.1387">CorporateActionCashEntitlement</text><line style="stroke: #A80036; stroke-width: 1.5;" x1="39" x2="307" y1="187.9688" y2="187.9688"/><ellipse cx="49" cy="199.8711" fill="#84BE84" rx="3" ry="3" style="stroke: #038048; stroke-width: 1.0;"/><text fill="#000000" font-family="sans-serif" font-size="11" lengthAdjust="spacingAndGlyphs" textLength="107" x="58" y="202.1792">GrossCashAmount</text><text fill="#000000" font-family="sans-serif" font-size="11" font-style="italic" lengthAdjust="spacingAndGlyphs" textLength="126" x="169" y="202.1792">(CurrencyAndAmount)</text><ellipse cx="49" cy="212.6758" fill="#84BE84" rx="3" ry="3" style="stroke: #038048; stroke-width: 1.0;"/><text fill="#000000" font-family="sans-serif" font-size="11" lengthAdjust="spacingAndGlyphs" textLength="91" x="58" y="214.9839">NetCashAmount</text><text fill="#000000" font-family="sans-serif" font-size="11" font-style="italic" lengthAdjust="spacingAndGlyphs" textLength="126" x="153" y="214.9839">(CurrencyAndAmount)</text><ellipse cx="49" cy="225.4805" fill="#84BE84" rx="3" ry="3" style="stroke: #038048; stroke-width: 1.0;"/><text fill="#000000" font-family="sans-serif" font-size="11" lengthAdjust="spacingAndGlyphs" textLength="109" x="58" y="227.7886">CashInLieuOfShare</text><text fill="#000000" font-family="sans-serif" font-size="11" font-style="italic" lengthAdjust="spacingAndGlyphs" textLength="126" x="171" y="227.7886">(CurrencyAndAmount)</text><ellipse cx="49" cy="238.2852" fill="#84BE84" rx="3" ry="3" style="stroke: #038048; stroke-width: 1.0;"/><text fill="#000000" font-family="sans-serif" font-size="11" lengthAdjust="spacingAndGlyphs" textLength="65" x="58" y="240.5933">CapitalGain</text><text fill="#000000" font-family="sans-serif" font-size="11" font-style="italic" lengthAdjust="spacingAndGlyphs" textLength="126" x="127" y="240.5933">(CurrencyAndAmount)</text><ellipse cx="49" cy="251.0898" fill="#84BE84" rx="3" ry="3" style="stroke: #038048; stroke-width: 1.0;"/><text fill="#000000" font-family="sans-serif" font-size="11" lengthAdjust="spacingAndGlyphs" textLength="114" x="58" y="253.3979">EntitledCashAmount</text><text fill="#000000" font-family="sans-serif" font-size="11" font-style="italic" lengthAdjust="spacingAndGlyphs" textLength="126" x="176" y="253.3979">(CurrencyAndAmount)</text></a><!--class SecuritiesBalance--><a target="_top" xlink:actuate="onRequest" xlink:href="../SecuritiesBalance.html" xlink:show="new" xlink:title="Net position of a segregated holding, in a single security, within the overall position held in a securities account. A securities balance is calculated from the sum of securities' receipts minus the sum of securities' deliveries." xlink:type="simple"><rect fill="#EEEEEE" filter="url(#f1tyyesvfx18gf)" height="23.9688" id="SecuritiesBalance" style="stroke: #A80036; stroke-width: 1.5;" width="118" x="963" y="326"/><rect fill="#EEEEEE" height="23.9688" style="stroke: #A80036; stroke-width: 1.5;" width="118" x="963" y="326"/><text fill="#000000" font-family="sans-serif" font-size="12" lengthAdjust="spacingAndGlyphs" textLength="112" x="966" y="342.1387">SecuritiesBalance</text></a><!--class CorporateActionServicing--><a target="_top" xlink:actuate="onRequest" xlink:href="../CorporateActionServicing.html" xlink:show="new" xlink:title="Services which consists in notifying the investor or its agent of a corporate event and calculating its proceeds based on its holdings." xlink:type="simple"><rect fill="#EEEEEE" filter="url(#f1tyyesvfx18gf)" height="23.9688" id="CorporateActionServicing" style="stroke: #A80036; stroke-width: 1.5;" width="164" x="1092" y="200"/><rect fill="#EEEEEE" height="23.9688" style="stroke: #A80036; stroke-width: 1.5;" width="164" x="1092" y="200"/><text fill="#000000" font-family="sans-serif" font-size="12" lengthAdjust="spacingAndGlyphs" textLength="158" x="1095" y="216.1387">CorporateActionServicing</text></a><!--class CurrencyExchange--><a target="_top" xlink:actuate="onRequest" xlink:href="../CurrencyExchange.html" xlink:show="new" xlink:title="Information needed to process a currency exchange or conversion." xlink:type="simple"><rect fill="#EEEEEE" filter="url(#f1tyyesvfx18gf)" height="23.9688" id="CurrencyExchange" style="stroke: #A80036; stroke-width: 1.5;" width="122" x="223" y="434"/><rect fill="#EEEEEE" height="23.9688" style="stroke: #A80036; stroke-width: 1.5;" width="122" x="223" y="434"/><text fill="#000000" font-family="sans-serif" font-size="12" lengthAdjust="spacingAndGlyphs" textLength="116" x="226" y="450.1387">CurrencyExchange</text></a><!--link CorporateActionEntitlement to CorporateActionCashEntitlement--><path d="M178.007,105.848 C177.144,123.986 176.128,145.304 175.239,163.986 " fill="none" id="CorporateActionEntitlement-CorporateActionCashEntitlement" style="stroke: #A80036; stroke-width: 1.0;"/><polygon fill="none" points="171.024,105.335,178.967,85.69,185.008,106.001,171.024,105.335" style="stroke: #A80036; stroke-width: 1.0;"/><!--link CorporateActionServicing to SecuritiesBalance--><!--link CorporateActionEntitlement to SecuritiesBalance--><path d="M219.325,85.526 C250.336,103.747 293.465,131.965 325,164 C369.966,209.68 349.85,251.333 405,284 C451.738,311.684 809.23,328.69 957.686,334.623 " fill="none" id="CorporateActionEntitlement-SecuritiesBalance" style="stroke: #A80036; stroke-width: 1.0;"/><polygon fill="#A80036" points="962.878,334.829,954.0452,330.4722,957.882,334.629,953.7252,338.4658,962.878,334.829" style="stroke: #A80036; stroke-width: 1.0;"/><text fill="#000000" font-family="sans-serif" font-size="13" lengthAdjust="spacingAndGlyphs" textLength="95" x="406" y="216.0669">EligibleBalance</text><text fill="#000000" font-family="sans-serif" font-size="13" lengthAdjust="spacingAndGlyphs" textLength="7" x="947.9193" y="329.6284">*</text><!--link CorporateActionEntitlement to SecuritiesBalance--><path d="M308.386,79.888 C373.575,93.372 450.676,118.232 507,164 C554.238,202.385 522.515,249.998 573,284 C634.363,325.328 848.814,334.53 957.625,336.509 " fill="none" id="CorporateActionEntitlement-SecuritiesBalance" style="stroke: #A80036; stroke-width: 1.0;"/><polygon fill="#A80036" points="962.726,336.598,953.7971,332.4417,957.7268,336.5108,953.6576,340.4405,962.726,336.598" style="stroke: #A80036; stroke-width: 1.0;"/><text fill="#000000" font-family="sans-serif" font-size="13" lengthAdjust="spacingAndGlyphs" textLength="114" x="574" y="216.0669">SecuritiesBalance</text><text fill="#000000" font-family="sans-serif" font-size="13" lengthAdjust="spacingAndGlyphs" textLength="7" x="948.1493" y="349.3022">*</text><!--link CorporateActionEntitlement to SecuritiesBalance--><path d="M308.254,76.235 C440.048,91.003 634.166,119.537 694,164 C742.856,200.304 710.953,247.955 760,284 C790.796,306.633 890.421,322.082 957.558,330.222 " fill="none" id="CorporateActionEntitlement-SecuritiesBalance" style="stroke: #A80036; stroke-width: 1.0;"/><polygon fill="#A80036" points="962.737,330.843,954.2777,325.7992,957.7726,330.2473,953.3245,333.7422,962.737,330.843" style="stroke: #A80036; stroke-width: 1.0;"/><text fill="#000000" font-family="sans-serif" font-size="13" lengthAdjust="spacingAndGlyphs" textLength="115" x="761" y="216.0669">InstructedBalance</text><text fill="#000000" font-family="sans-serif" font-size="13" lengthAdjust="spacingAndGlyphs" textLength="7" x="947.7507" y="322.7241">*</text><!--link CorporateActionEntitlement to SecuritiesBalance--><path d="M308.217,67.493 C485.751,74.759 794.49,96.93 882,164 C928.863,199.917 899.935,239.726 939,284 C953.786,300.757 975.111,314.219 992.443,323.383 " fill="none" id="CorporateActionEntitlement-SecuritiesBalance" style="stroke: #A80036; stroke-width: 1.0;"/><polygon fill="#A80036" points="997.217,325.853,991.0615,318.1647,992.7762,323.5554,987.3854,325.27,997.217,325.853" style="stroke: #A80036; stroke-width: 1.0;"/><text fill="#000000" font-family="sans-serif" font-size="13" lengthAdjust="spacingAndGlyphs" textLength="133" x="940" y="216.0669">UninstructedBalance</text><text fill="#000000" font-family="sans-serif" font-size="13" lengthAdjust="spacingAndGlyphs" textLength="7" x="979.151" y="314.8507">*</text><!--link CorporateActionEntitlement to SecuritiesBalance--><path d="M308.127,65.251 C584.79,69.403 1217.77,87.276 1274,164 C1305.53,207.017 1307.61,242.588 1274,284 C1250.8,312.588 1153.14,326.329 1086.43,332.494 " fill="none" id="CorporateActionEntitlement-SecuritiesBalance" style="stroke: #A80036; stroke-width: 1.0;"/><polygon fill="#A80036" points="1081.28,332.96,1090.608,336.1206,1086.2591,332.5029,1089.8767,328.154,1081.28,332.96" style="stroke: #A80036; stroke-width: 1.0;"/><text fill="#000000" font-family="sans-serif" font-size="13" lengthAdjust="spacingAndGlyphs" textLength="118" x="1299" y="216.0669">NotEligibleBalance</text><text fill="#000000" font-family="sans-serif" font-size="13" lengthAdjust="spacingAndGlyphs" textLength="7" x="1088.9313" y="327.3867">*</text><!--link CorporateActionEntitlement to CorporateActionServicing--><path d="M308.234,67.761 C494.162,74.056 829.232,88.796 947,116 C1024.2,133.833 1108.68,175.687 1149.38,197.398 " fill="none" id="CorporateActionEntitlement-CorporateActionServicing" style="stroke: #A80036; stroke-width: 1.0;"/><polygon fill="#A80036" points="1154.12,199.943,1148.0714,192.1704,1149.7113,197.5843,1144.2974,199.2242,1154.12,199.943" style="stroke: #A80036; stroke-width: 1.0;"/><text fill="#000000" font-family="sans-serif" font-size="13" lengthAdjust="spacingAndGlyphs" textLength="106" x="1006" y="129.0669">RelatedServicing</text><text fill="#000000" font-family="sans-serif" font-size="13" lengthAdjust="spacingAndGlyphs" textLength="24" x="1117.8175" y="188.9716">0..1</text><!--link CorporateActionCashEntitlement to CurrencyExchange--><path d="M195.596,260.228 C220.73,312.759 259.953,394.7396 276.37,429.0535 " fill="none" id="CorporateActionCashEntitlement-CurrencyExchange" style="stroke: #A80036; stroke-width: 1.0;"/><polygon fill="#A80036" points="278.623,433.7612,278.3466,423.9162,276.4649,429.2509,271.1302,427.3692,278.623,433.7612" style="stroke: #A80036; stroke-width: 1.0;"/><text fill="#000000" font-family="sans-serif" font-size="13" lengthAdjust="spacingAndGlyphs" textLength="91" x="252" y="342.0669">ExchangeRate</text><text fill="#000000" font-family="sans-serif" font-size="13" lengthAdjust="spacingAndGlyphs" textLength="7" x="267.3512" y="422.9855">*</text><!--link SecuritiesBalance to SecuritiesBalance--><path d="M1081.21,329.751 C1100.58,329.793 1116,332.543 1116,338 C1116,342.945 1103.33,345.667 1086.54,346.166 " fill="none" id="SecuritiesBalance-SecuritiesBalance" style="stroke: #A80036; stroke-width: 1.0;"/><polygon fill="#A80036" points="1081.21,346.249,1090.2772,350.0941,1086.2093,346.1633,1090.1401,342.0953,1081.21,346.249" style="stroke: #A80036; stroke-width: 1.0;"/><text fill="#000000" font-family="sans-serif" font-size="13" lengthAdjust="spacingAndGlyphs" textLength="144" x="1122" y="342.0669">MainSecuritiesBalance</text><text fill="#000000" font-family="sans-serif" font-size="13" lengthAdjust="spacingAndGlyphs" textLength="24" x="1088.9986" y="360.0474">0..1</text><!--link SecuritiesBalance to CurrencyExchange--><path d="M962.854,347.495 C826.881,367.025 492.806,415.0089 350.229,435.4874 " fill="none" id="SecuritiesBalance-CurrencyExchange" style="stroke: #A80036; stroke-width: 1.0;"/><polygon fill="#A80036" points="345.239,436.2042,354.7166,438.883,350.1881,435.4928,353.5783,430.9644,345.239,436.2042" style="stroke: #A80036; stroke-width: 1.0;"/><text fill="#000000" font-family="sans-serif" font-size="13" lengthAdjust="spacingAndGlyphs" textLength="91" x="698" y="397.0669">ExchangeRate</text><text fill="#000000" font-family="sans-serif" font-size="13" lengthAdjust="spacingAndGlyphs" textLength="7" x="353.1291" y="430.0513">*</text></g></svg>