<?xml version="1.0" encoding="UTF-8" standalone="no"?><svg xmlns="http://www.w3.org/2000/svg" xmlns:xlink="http://www.w3.org/1999/xlink" contentScriptType="application/ecmascript" contentStyleType="text/css" height="266px" preserveAspectRatio="none" style="width:1565px;height:266px;" version="1.1" viewBox="0 0 1565 266" width="1565px" zoomAndPan="magnify"><defs><filter height="300%" id="fa132s18nm55h" width="300%" x="-1" y="-1"><feGaussianBlur result="blurOut" stdDeviation="2.0"/><feColorMatrix in="blurOut" result="blurOut2" type="matrix" values="0 0 0 0 0 0 0 0 0 0 0 0 0 0 0 0 0 0 .4 0"/><feOffset dx="4.0" dy="4.0" in="blurOut2" result="blurOut3"/><feBlend in="SourceGraphic" in2="blurOut3" mode="normal"/></filter></defs><g><!--cluster ##8558--><!--cluster ##8561--><!--class CorporateActionPrice--><a target="_top" xlink:actuate="onRequest" xlink:href="../CorporateActionPrice.html" xlink:show="new" xlink:title="Prices related to a corporate action." xlink:type="simple"><rect fill="#FEFECE" filter="url(#fa132s18nm55h)" height="23.9688" id="CorporateActionPrice" style="stroke: #A80036; stroke-width: 1.5;" width="139" x="781.887" y="40"/><rect fill="#FEFECE" height="23.9688" style="stroke: #A80036; stroke-width: 1.5;" width="139" x="781.887" y="40"/><text fill="#000000" font-family="sans-serif" font-size="12" lengthAdjust="spacingAndGlyphs" textLength="133" x="784.887" y="56.1387">CorporateActionPrice</text></a><!--class CorporateActionEvent--><a target="_top" xlink:actuate="onRequest" xlink:href="../CorporateActionEvent.html" xlink:show="new" xlink:title="An event determined by a corporation's board of directors, that changes the existing corporate capital structure or financial condition." xlink:type="simple"><rect fill="#EEEEEE" filter="url(#fa132s18nm55h)" height="23.9688" id="CorporateActionEvent" style="stroke: #A80036; stroke-width: 1.5;" width="143" x="829.887" y="232"/><rect fill="#EEEEEE" height="23.9688" style="stroke: #A80036; stroke-width: 1.5;" width="143" x="829.887" y="232"/><text fill="#000000" font-family="sans-serif" font-size="12" lengthAdjust="spacingAndGlyphs" textLength="137" x="832.887" y="248.1387">CorporateActionEvent</text></a><!--class SecuritiesPricing--><a target="_top" xlink:actuate="onRequest" xlink:href="../SecuritiesPricing.html" xlink:show="new" xlink:title="Characteristics related to the price of the security." xlink:type="simple"><rect fill="#EEEEEE" filter="url(#fa132s18nm55h)" height="23.9688" id="SecuritiesPricing" style="stroke: #A80036; stroke-width: 1.5;" width="110" x="845.137" y="146"/><rect fill="#EEEEEE" height="23.9688" style="stroke: #A80036; stroke-width: 1.5;" width="110" x="845.137" y="146"/><text fill="#000000" font-family="sans-serif" font-size="12" lengthAdjust="spacingAndGlyphs" textLength="104" x="848.137" y="162.1387">SecuritiesPricing</text></a><!--link SecuritiesPricing to CorporateActionEvent--><!--link CorporateActionPrice to CorporateActionEvent--><path d="M920.546,53.417 C1058.79,54.972 1357.97,62.244 1389.14,96 C1509.3,226.1532 1143.07,242.6398 977.71,243.6433 " fill="none" id="CorporateActionPrice-CorporateActionEvent" style="stroke: #A80036; stroke-width: 1.0;"/><polygon fill="#A80036" points="972.395,243.6707,981.4155,247.6244,977.3949,243.645,981.3743,239.6245,972.395,243.6707" style="stroke: #A80036; stroke-width: 1.0;"/><text fill="#000000" font-family="sans-serif" font-size="13" lengthAdjust="spacingAndGlyphs" textLength="140" x="1413.14" y="162.0669">CorporateActionEvent</text><text fill="#000000" font-family="sans-serif" font-size="13" lengthAdjust="spacingAndGlyphs" textLength="24" x="980.9552" y="238.8355">0..1</text><!--link CorporateActionPrice to SecuritiesPricing--><path d="M781.643,53.977 C584.903,57.08 36.5559,68.196 10.137,96 C4.6264,101.799 4.6183,108.208 10.137,114 C38.7459,144.025 644.097,153.922 839.737,156.343 " fill="none" id="CorporateActionPrice-SecuritiesPricing" style="stroke: #A80036; stroke-width: 1.0;"/><polygon fill="#A80036" points="844.843,156.405,835.8928,152.2947,839.8434,156.3436,835.7945,160.2941,844.843,156.405" style="stroke: #A80036; stroke-width: 1.0;"/><text fill="#000000" font-family="sans-serif" font-size="13" lengthAdjust="spacingAndGlyphs" textLength="188" x="11.137" y="109.0669">CorporateActionExercisePrice</text><text fill="#000000" font-family="sans-serif" font-size="13" lengthAdjust="spacingAndGlyphs" textLength="8" x="829.2483" y="169.1267">1</text><!--link CorporateActionPrice to SecuritiesPricing--><path d="M781.82,52.698 C629.725,52.76 277.351,57.143 241.137,96 C235.683,101.852 235.667,108.162 241.137,114 C281.542,157.128 684.327,158.678 839.568,157.648 " fill="none" id="CorporateActionPrice-SecuritiesPricing" style="stroke: #A80036; stroke-width: 1.0;"/><polygon fill="#A80036" points="844.985,157.611,835.9578,153.6728,839.9851,157.6453,836.0126,161.6726,844.985,157.611" style="stroke: #A80036; stroke-width: 1.0;"/><text fill="#000000" font-family="sans-serif" font-size="13" lengthAdjust="spacingAndGlyphs" textLength="239" x="242.137" y="109.0669">GenericCashPriceReceivedPerProduct</text><text fill="#000000" font-family="sans-serif" font-size="13" lengthAdjust="spacingAndGlyphs" textLength="8" x="829.0299" y="152.6596">1</text><!--link CorporateActionPrice to SecuritiesPricing--><path d="M781.642,55.23 C675.148,59.933 487.415,73.972 523.137,114 C543.814,137.17 738.576,149.537 839.747,154.444 " fill="none" id="CorporateActionPrice-SecuritiesPricing" style="stroke: #A80036; stroke-width: 1.0;"/><polygon fill="#A80036" points="844.789,154.686,835.9914,150.2586,839.7948,154.446,835.6074,158.2494,844.789,154.686" style="stroke: #A80036; stroke-width: 1.0;"/><text fill="#000000" font-family="sans-serif" font-size="13" lengthAdjust="spacingAndGlyphs" textLength="209" x="524.137" y="109.0669">GenericCashPricePaidPerProduct</text><text fill="#000000" font-family="sans-serif" font-size="13" lengthAdjust="spacingAndGlyphs" textLength="8" x="829.0637" y="147.16">1</text><!--link CorporateActionPrice to SecuritiesPricing--><path d="M817.869,64.024 C790.979,74.794 759.905,92.653 775.137,114 C790.008,134.842 815.658,145.685 839.867,151.285 " fill="none" id="CorporateActionPrice-SecuritiesPricing" style="stroke: #A80036; stroke-width: 1.0;"/><polygon fill="#A80036" points="845.007,152.403,837.0614,146.5835,840.121,151.3415,835.363,154.4011,845.007,152.403" style="stroke: #A80036; stroke-width: 1.0;"/><text fill="#000000" font-family="sans-serif" font-size="13" lengthAdjust="spacingAndGlyphs" textLength="152" x="776.137" y="109.0669">CashInLieuOfSharePrice</text><text fill="#000000" font-family="sans-serif" font-size="13" lengthAdjust="spacingAndGlyphs" textLength="8" x="829.0545" y="146.8494">1</text><!--link CorporateActionPrice to SecuritiesPricing--><path d="M892.282,64.122 C908.232,70.664 924.861,80.748 934.137,96 C943.5,111.396 930.532,129.476 918.005,141.934 " fill="none" id="CorporateActionPrice-SecuritiesPricing" style="stroke: #A80036; stroke-width: 1.0;"/><polygon fill="#A80036" points="914.157,145.61,923.4277,142.2853,917.7723,142.1561,917.9015,136.5007,914.157,145.61" style="stroke: #A80036; stroke-width: 1.0;"/><text fill="#000000" font-family="sans-serif" font-size="13" lengthAdjust="spacingAndGlyphs" textLength="189" x="939.137" y="109.0669">OverSubscriptionDepositPrice</text><text fill="#000000" font-family="sans-serif" font-size="13" lengthAdjust="spacingAndGlyphs" textLength="8" x="908.0321" y="135.0444">1</text><!--link CorporateActionPrice to SecuritiesPricing--><path d="M920.448,53.401 C996.231,55.487 1110.6,64.029 1138.14,96 C1143.36,102.061 1143.27,107.861 1138.14,114 C1115.91,140.6 1023.36,150.775 960.433,154.647 " fill="none" id="CorporateActionPrice-SecuritiesPricing" style="stroke: #A80036; stroke-width: 1.0;"/><polygon fill="#A80036" points="955.199,154.959,964.4209,158.4169,960.1902,154.6618,963.9453,150.4311,955.199,154.959" style="stroke: #A80036; stroke-width: 1.0;"/><text fill="#000000" font-family="sans-serif" font-size="13" lengthAdjust="spacingAndGlyphs" textLength="110" x="1142.14" y="109.0669">CashValueForTax</text><text fill="#000000" font-family="sans-serif" font-size="13" lengthAdjust="spacingAndGlyphs" textLength="8" x="963.1355" y="149.4861">1</text><!--link CorporateActionPrice to SecuritiesPricing--><path d="M920.616,55.292 C1031.85,59.684 1239.75,71.147 1262.14,96 C1303.55,141.972 1073.89,153.299 960.538,156.089 " fill="none" id="CorporateActionPrice-SecuritiesPricing" style="stroke: #A80036; stroke-width: 1.0;"/><polygon fill="#A80036" points="955.229,156.215,964.3224,159.9978,960.2276,156.095,964.1304,152.0002,955.229,156.215" style="stroke: #A80036; stroke-width: 1.0;"/><text fill="#000000" font-family="sans-serif" font-size="13" lengthAdjust="spacingAndGlyphs" textLength="112" x="1267.14" y="109.0669">PricingCalculation</text><text fill="#000000" font-family="sans-serif" font-size="13" lengthAdjust="spacingAndGlyphs" textLength="8" x="963.1695" y="169.0609">1</text></g></svg>