<?xml version="1.0" encoding="UTF-8" standalone="no"?><svg xmlns="http://www.w3.org/2000/svg" xmlns:xlink="http://www.w3.org/1999/xlink" contentScriptType="application/ecmascript" contentStyleType="text/css" height="266px" preserveAspectRatio="none" style="width:2168px;height:266px;" version="1.1" viewBox="0 0 2168 266" width="2168px" zoomAndPan="magnify"><defs><filter height="300%" id="f1l310ur943vs9" width="300%" x="-1" y="-1"><feGaussianBlur result="blurOut" stdDeviation="2.0"/><feColorMatrix in="blurOut" result="blurOut2" type="matrix" values="0 0 0 0 0 0 0 0 0 0 0 0 0 0 0 0 0 0 .4 0"/><feOffset dx="4.0" dy="4.0" in="blurOut2" result="blurOut3"/><feBlend in="SourceGraphic" in2="blurOut3" mode="normal"/></filter></defs><g><!--cluster ##8134--><!--cluster ##8137--><!--class CorporateActionPrice--><a target="_top" xlink:actuate="onRequest" xlink:href="../CorporateActionPrice.html" xlink:show="new" xlink:title="Prices related to a corporate action." xlink:type="simple"><rect fill="#FEFECE" filter="url(#f1l310ur943vs9)" height="23.9688" id="CorporateActionPrice" style="stroke: #A80036; stroke-width: 1.5;" width="139" x="1135.92" y="40"/><rect fill="#FEFECE" height="23.9688" style="stroke: #A80036; stroke-width: 1.5;" width="139" x="1135.92" y="40"/><text fill="#000000" font-family="sans-serif" font-size="12" lengthAdjust="spacingAndGlyphs" textLength="133" x="1138.92" y="56.1387">CorporateActionPrice</text></a><!--class CorporateActionEvent--><a target="_top" xlink:actuate="onRequest" xlink:href="../CorporateActionEvent.html" xlink:show="new" xlink:title="An event determined by a corporation's board of directors, that changes the existing corporate capital structure or financial condition." xlink:type="simple"><rect fill="#EEEEEE" filter="url(#f1l310ur943vs9)" height="23.9688" id="CorporateActionEvent" style="stroke: #A80036; stroke-width: 1.5;" width="143" x="1138.92" y="232"/><rect fill="#EEEEEE" height="23.9688" style="stroke: #A80036; stroke-width: 1.5;" width="143" x="1138.92" y="232"/><text fill="#000000" font-family="sans-serif" font-size="12" lengthAdjust="spacingAndGlyphs" textLength="137" x="1141.92" y="248.1387">CorporateActionEvent</text></a><!--class SecuritiesPricing--><a target="_top" xlink:actuate="onRequest" xlink:href="../SecuritiesPricing.html" xlink:show="new" xlink:title="Characteristics related to the price of the security." xlink:type="simple"><rect fill="#EEEEEE" filter="url(#f1l310ur943vs9)" height="23.9688" id="SecuritiesPricing" style="stroke: #A80036; stroke-width: 1.5;" width="110" x="1150.17" y="146"/><rect fill="#EEEEEE" height="23.9688" style="stroke: #A80036; stroke-width: 1.5;" width="110" x="1150.17" y="146"/><text fill="#000000" font-family="sans-serif" font-size="12" lengthAdjust="spacingAndGlyphs" textLength="104" x="1153.17" y="162.1387">SecuritiesPricing</text></a><!--link SecuritiesPricing to CorporateActionEvent--><!--link CorporateActionPrice to CorporateActionEvent--><path d="M1274.65,54.168 C1464.63,57.698 1980.22,69.673 2005.17,96 C2106.71,203.1476 1504.67,233.4607 1286.69,240.865 " fill="none" id="CorporateActionPrice-CorporateActionEvent" style="stroke: #A80036; stroke-width: 1.0;"/><polygon fill="#A80036" points="1281.62,241.0357,1290.7413,244.7508,1286.6175,240.8785,1290.4898,236.7548,1281.62,241.0357" style="stroke: #A80036; stroke-width: 1.0;"/><text fill="#000000" font-family="sans-serif" font-size="13" lengthAdjust="spacingAndGlyphs" textLength="140" x="2016.17" y="162.0669">CorporateActionEvent</text><text fill="#000000" font-family="sans-serif" font-size="13" lengthAdjust="spacingAndGlyphs" textLength="24" x="1289.81" y="235.9822">0..1</text><!--link CorporateActionPrice to SecuritiesPricing--><path d="M1135.73,52.869 C886.467,52.737 49.3965,55.332 10.1657,96 C4.6115,101.758 4.6115,108.242 10.1657,114 C49.8916,155.181 907.723,157.322 1144.89,157.124 " fill="none" id="CorporateActionPrice-SecuritiesPricing" style="stroke: #A80036; stroke-width: 1.0;"/><polygon fill="#A80036" points="1150.03,157.12,1141.03,153.12,1145.03,157.12,1141.03,161.12,1150.03,157.12" style="stroke: #A80036; stroke-width: 1.0;"/><text fill="#000000" font-family="sans-serif" font-size="13" lengthAdjust="spacingAndGlyphs" textLength="188" x="11.1657" y="109.0669">CorporateActionExercisePrice</text><text fill="#000000" font-family="sans-serif" font-size="13" lengthAdjust="spacingAndGlyphs" textLength="8" x="1134.0763" y="152.1118">1</text><!--link CorporateActionPrice to SecuritiesPricing--><path d="M1135.7,53.5 C919.636,55.393 272.013,63.746 241.166,96 C235.636,101.782 235.636,108.218 241.166,114 C272.457,146.718 938.393,154.842 1144.75,156.577 " fill="none" id="CorporateActionPrice-SecuritiesPricing" style="stroke: #A80036; stroke-width: 1.0;"/><polygon fill="#A80036" points="1149.84,156.62,1140.8746,152.543,1144.8402,156.5771,1140.806,160.5427,1149.84,156.62" style="stroke: #A80036; stroke-width: 1.0;"/><text fill="#000000" font-family="sans-serif" font-size="13" lengthAdjust="spacingAndGlyphs" textLength="239" x="242.166" y="109.0669">GenericCashPriceReceivedPerProduct</text><text fill="#000000" font-family="sans-serif" font-size="13" lengthAdjust="spacingAndGlyphs" textLength="8" x="1134.2414" y="169.3652">1</text><!--link CorporateActionPrice to SecuritiesPricing--><path d="M1135.68,54.845 C966.203,59.683 543.912,73.905 523.166,96 C517.69,101.832 517.69,108.168 523.166,114 C544.291,136.5 981.794,150.835 1144.72,155.411 " fill="none" id="CorporateActionPrice-SecuritiesPricing" style="stroke: #A80036; stroke-width: 1.0;"/><polygon fill="#A80036" points="1149.93,155.557,1141.048,151.3014,1144.932,155.4141,1140.8194,159.2982,1149.93,155.557" style="stroke: #A80036; stroke-width: 1.0;"/><text fill="#000000" font-family="sans-serif" font-size="13" lengthAdjust="spacingAndGlyphs" textLength="209" x="524.166" y="109.0669">GenericCashPricePaidPerProduct</text><text fill="#000000" font-family="sans-serif" font-size="13" lengthAdjust="spacingAndGlyphs" textLength="8" x="1134.2378" y="148.2977">1</text><!--link CorporateActionPrice to SecuritiesPricing--><path d="M1135.73,54.94 C1020.22,58.891 798.858,69.82 775.166,96 C724.64,151.831 1014.7,157.675 1144.65,157.546 " fill="none" id="CorporateActionPrice-SecuritiesPricing" style="stroke: #A80036; stroke-width: 1.0;"/><polygon fill="#A80036" points="1149.96,157.538,1140.9486,153.5637,1144.96,157.5523,1140.9715,161.5637,1149.96,157.538" style="stroke: #A80036; stroke-width: 1.0;"/><text fill="#000000" font-family="sans-serif" font-size="13" lengthAdjust="spacingAndGlyphs" textLength="152" x="776.166" y="109.0669">CashInLieuOfSharePrice</text><text fill="#000000" font-family="sans-serif" font-size="13" lengthAdjust="spacingAndGlyphs" textLength="8" x="1134.2769" y="171.7854">1</text><!--link CorporateActionPrice to SecuritiesPricing--><path d="M1135.68,56.14 C1074.14,60.552 990.947,71.071 970.166,96 C965.043,102.145 965.043,107.855 970.166,114 C991.993,140.184 1082.68,150.471 1144.8,154.481 " fill="none" id="CorporateActionPrice-SecuritiesPricing" style="stroke: #A80036; stroke-width: 1.0;"/><polygon fill="#A80036" points="1149.97,154.804,1141.2263,150.2711,1144.979,154.5039,1140.7462,158.2567,1149.97,154.804" style="stroke: #A80036; stroke-width: 1.0;"/><text fill="#000000" font-family="sans-serif" font-size="13" lengthAdjust="spacingAndGlyphs" textLength="189" x="971.166" y="109.0669">OverSubscriptionDepositPrice</text><text fill="#000000" font-family="sans-serif" font-size="13" lengthAdjust="spacingAndGlyphs" textLength="8" x="1134.0094" y="149.528">1</text><!--link CorporateActionPrice to SecuritiesPricing--><path d="M1204.16,64.306 C1203.44,72.971 1202.54,85.23 1202.17,96 C1201.64,111.07 1202.62,128.223 1203.6,140.492 " fill="none" id="CorporateActionPrice-SecuritiesPricing" style="stroke: #A80036; stroke-width: 1.0;"/><polygon fill="#A80036" points="1204.05,145.761,1207.2804,136.457,1203.6303,140.7786,1199.3086,137.1285,1204.05,145.761" style="stroke: #A80036; stroke-width: 1.0;"/><text fill="#000000" font-family="sans-serif" font-size="13" lengthAdjust="spacingAndGlyphs" textLength="110" x="1203.17" y="109.0669">CashValueForTax</text><text fill="#000000" font-family="sans-serif" font-size="13" lengthAdjust="spacingAndGlyphs" textLength="8" x="1193.0227" y="134.9853">1</text><!--link CorporateActionPrice to SecuritiesPricing--><path d="M1268.28,64.093 C1303.27,73.245 1336.53,88.892 1319.17,114 C1306.75,131.959 1285.81,142.426 1265.24,148.523 " fill="none" id="CorporateActionPrice-SecuritiesPricing" style="stroke: #A80036; stroke-width: 1.0;"/><polygon fill="#A80036" points="1260.3,149.907,1270.0438,151.3418,1265.1162,148.5636,1267.8944,143.636,1260.3,149.907" style="stroke: #A80036; stroke-width: 1.0;"/><text fill="#000000" font-family="sans-serif" font-size="13" lengthAdjust="spacingAndGlyphs" textLength="112" x="1324.17" y="109.0669">PricingCalculation</text><text fill="#000000" font-family="sans-serif" font-size="13" lengthAdjust="spacingAndGlyphs" textLength="8" x="1268.2456" y="143.7552">1</text><!--link CorporateActionPrice to SecuritiesPricing--><path d="M1274.6,55.762 C1337.86,59.911 1424.61,70.258 1446.17,96 C1451.3,102.134 1451.3,107.866 1446.17,114 C1423.57,140.98 1329.37,151.048 1265.65,154.794 " fill="none" id="CorporateActionPrice-SecuritiesPricing" style="stroke: #A80036; stroke-width: 1.0;"/><polygon fill="#A80036" points="1260.35,155.095,1269.5539,158.6004,1265.3426,154.8235,1269.1195,150.6122,1260.35,155.095" style="stroke: #A80036; stroke-width: 1.0;"/><text fill="#000000" font-family="sans-serif" font-size="13" lengthAdjust="spacingAndGlyphs" textLength="203" x="1450.17" y="109.0669">MinimumMultipleCashToInstruct</text><text fill="#000000" font-family="sans-serif" font-size="13" lengthAdjust="spacingAndGlyphs" textLength="8" x="1268.3023" y="167.7904">1</text><!--link CorporateActionPrice to SecuritiesPricing--><path d="M1274.74,54.481 C1396.45,57.798 1637.56,67.876 1663.17,96 C1668.55,101.915 1668.55,108.085 1663.17,114 C1636.91,142.839 1384.04,152.704 1265.69,155.759 " fill="none" id="CorporateActionPrice-SecuritiesPricing" style="stroke: #A80036; stroke-width: 1.0;"/><polygon fill="#A80036" points="1260.5,155.891,1269.5999,159.6583,1265.4983,155.7624,1269.3942,151.6609,1260.5,155.891" style="stroke: #A80036; stroke-width: 1.0;"/><text fill="#000000" font-family="sans-serif" font-size="13" lengthAdjust="spacingAndGlyphs" textLength="158" x="1668.17" y="109.0669">MaximumCashToInstruct</text><text fill="#000000" font-family="sans-serif" font-size="13" lengthAdjust="spacingAndGlyphs" textLength="8" x="1268.1718" y="148.4708">1</text><!--link CorporateActionPrice to SecuritiesPricing--><path d="M1274.52,52.519 C1430.53,52.163 1798.48,55.655 1836.17,96 C1841.63,101.846 1841.63,108.154 1836.17,114 C1797.74,155.136 1415.98,157.96 1265.59,157.456 " fill="none" id="CorporateActionPrice-SecuritiesPricing" style="stroke: #A80036; stroke-width: 1.0;"/><polygon fill="#A80036" points="1260.34,157.437,1269.3285,161.4627,1265.34,157.4513,1269.3514,153.4627,1260.34,157.437" style="stroke: #A80036; stroke-width: 1.0;"/><text fill="#000000" font-family="sans-serif" font-size="13" lengthAdjust="spacingAndGlyphs" textLength="154" x="1841.17" y="109.0669">MinimumCashToInstruct</text><text fill="#000000" font-family="sans-serif" font-size="13" lengthAdjust="spacingAndGlyphs" textLength="8" x="1268.291" y="152.2971">1</text></g></svg>