<?xml version="1.0" encoding="UTF-8" standalone="no"?><svg xmlns="http://www.w3.org/2000/svg" xmlns:xlink="http://www.w3.org/1999/xlink" contentScriptType="application/ecmascript" contentStyleType="text/css" height="878px" preserveAspectRatio="none" style="width:1488px;height:878px;" version="1.1" viewBox="0 0 1488 878" width="1488px" zoomAndPan="magnify"><defs><filter height="300%" id="f1woidcjq5s7oj" width="300%" x="-1" y="-1"><feGaussianBlur result="blurOut" stdDeviation="2.0"/><feColorMatrix in="blurOut" result="blurOut2" type="matrix" values="0 0 0 0 0 0 0 0 0 0 0 0 0 0 0 0 0 0 .4 0"/><feOffset dx="4.0" dy="4.0" in="blurOut2" result="blurOut3"/><feBlend in="SourceGraphic" in2="blurOut3" mode="normal"/></filter></defs><g><!--cluster ##8459--><!--cluster ##8462--><!--class Country--><a target="_top" xlink:actuate="onRequest" xlink:href="../Country.html" xlink:show="new" xlink:title="Nation with its own government." xlink:type="simple"><rect fill="#FEFECE" filter="url(#f1woidcjq5s7oj)" height="57.5781" id="Country" style="stroke: #A80036; stroke-width: 1.5;" width="141" x="672.75" y="40"/><rect fill="#FEFECE" height="23.9688" style="stroke: #A80036; stroke-width: 1.5;" width="141" x="672.75" y="40"/><text fill="#000000" font-family="sans-serif" font-size="12" lengthAdjust="spacingAndGlyphs" textLength="48" x="719.25" y="56.1387">Country</text><line style="stroke: #A80036; stroke-width: 1.5;" x1="673.75" x2="812.75" y1="63.9688" y2="63.9688"/><ellipse cx="683.75" cy="75.8711" fill="#84BE84" rx="3" ry="3" style="stroke: #038048; stroke-width: 1.0;"/><text fill="#000000" font-family="sans-serif" font-size="11" lengthAdjust="spacingAndGlyphs" textLength="29" x="692.75" y="78.1792">Code</text><text fill="#000000" font-family="sans-serif" font-size="11" font-style="italic" lengthAdjust="spacingAndGlyphs" textLength="82" x="725.75" y="78.1792">(CountryCode)</text><ellipse cx="683.75" cy="88.6758" fill="#84BE84" rx="3" ry="3" style="stroke: #038048; stroke-width: 1.0;"/><text fill="#000000" font-family="sans-serif" font-size="11" lengthAdjust="spacingAndGlyphs" textLength="33" x="692.75" y="90.9839">Name</text><text fill="#000000" font-family="sans-serif" font-size="11" font-style="italic" lengthAdjust="spacingAndGlyphs" textLength="70" x="729.75" y="90.9839">(Max35Text)</text></a><!--class InvestmentFund--><a target="_top" xlink:actuate="onRequest" xlink:href="../InvestmentFund.html" xlink:show="new" xlink:title="Distinct pool of financial instruments managed by a single investment policy. May or not be part of an umbrella fund. The pool is issued in at least one investment fund class." xlink:type="simple"><rect fill="#EEEEEE" filter="url(#f1woidcjq5s7oj)" height="23.9688" id="InvestmentFund" style="stroke: #A80036; stroke-width: 1.5;" width="106" x="93.5" y="758"/><rect fill="#EEEEEE" height="23.9688" style="stroke: #A80036; stroke-width: 1.5;" width="106" x="93.5" y="758"/><text fill="#000000" font-family="sans-serif" font-size="12" lengthAdjust="spacingAndGlyphs" textLength="100" x="96.5" y="774.1387">InvestmentFund</text></a><!--class Person--><a target="_top" xlink:actuate="onRequest" xlink:href="../Person.html" xlink:show="new" xlink:title="Human entity, as distinguished from a corporate entity (which is sometimes referred to as an 'artificial person')." xlink:type="simple"><rect fill="#EEEEEE" filter="url(#f1woidcjq5s7oj)" height="23.9688" id="Person" style="stroke: #A80036; stroke-width: 1.5;" width="50" x="121" y="672"/><rect fill="#EEEEEE" height="23.9688" style="stroke: #A80036; stroke-width: 1.5;" width="50" x="121" y="672"/><text fill="#000000" font-family="sans-serif" font-size="12" lengthAdjust="spacingAndGlyphs" textLength="44" x="124" y="688.1387">Person</text></a><!--class Tax--><a target="_top" xlink:actuate="onRequest" xlink:href="../Tax.html" xlink:show="new" xlink:title="Amount of money due to the government or tax authority, according to various pre-defined parameters such as thresholds or income." xlink:type="simple"><rect fill="#EEEEEE" filter="url(#f1woidcjq5s7oj)" height="23.9688" id="Tax" style="stroke: #A80036; stroke-width: 1.5;" width="27" x="121.75" y="570"/><rect fill="#EEEEEE" height="23.9688" style="stroke: #A80036; stroke-width: 1.5;" width="27" x="121.75" y="570"/><text fill="#000000" font-family="sans-serif" font-size="12" lengthAdjust="spacingAndGlyphs" textLength="21" x="124.75" y="586.1387">Tax</text></a><!--class SafekeepingPlace--><a target="_top" xlink:actuate="onRequest" xlink:href="../SafekeepingPlace.html" xlink:show="new" xlink:title="Organisation used as the safekeeping place for the securities." xlink:type="simple"><rect fill="#EEEEEE" filter="url(#f1woidcjq5s7oj)" height="23.9688" id="SafekeepingPlace" style="stroke: #A80036; stroke-width: 1.5;" width="118" x="222" y="844"/><rect fill="#EEEEEE" height="23.9688" style="stroke: #A80036; stroke-width: 1.5;" width="118" x="222" y="844"/><text fill="#000000" font-family="sans-serif" font-size="12" lengthAdjust="spacingAndGlyphs" textLength="112" x="225" y="860.1387">SafekeepingPlace</text></a><!--class BeneficialOwner--><a target="_top" xlink:actuate="onRequest" xlink:href="../BeneficialOwner.html" xlink:show="new" xlink:title="Characteristics of an individual or entity that is ultimately entitled to the benefit of income and rights in a security, as opposed to a nominal or legal owner." xlink:type="simple"><rect fill="#EEEEEE" filter="url(#f1woidcjq5s7oj)" height="23.9688" id="BeneficialOwner" style="stroke: #A80036; stroke-width: 1.5;" width="105" x="234.75" y="758"/><rect fill="#EEEEEE" height="23.9688" style="stroke: #A80036; stroke-width: 1.5;" width="105" x="234.75" y="758"/><text fill="#000000" font-family="sans-serif" font-size="12" lengthAdjust="spacingAndGlyphs" textLength="99" x="237.75" y="774.1387">BeneficialOwner</text></a><!--class Product--><a target="_top" xlink:actuate="onRequest" xlink:href="../Product.html" xlink:show="new" xlink:title="Item that is offered for sale. Products can be services or goods." xlink:type="simple"><rect fill="#EEEEEE" filter="url(#f1woidcjq5s7oj)" height="23.9688" id="Product" style="stroke: #A80036; stroke-width: 1.5;" width="55" x="250.75" y="672"/><rect fill="#EEEEEE" height="23.9688" style="stroke: #A80036; stroke-width: 1.5;" width="55" x="250.75" y="672"/><text fill="#000000" font-family="sans-serif" font-size="12" lengthAdjust="spacingAndGlyphs" textLength="49" x="253.75" y="688.1387">Product</text></a><!--class RegulatoryAuthorityRole--><a target="_top" xlink:actuate="onRequest" xlink:href="../RegulatoryAuthorityRole.html" xlink:show="new" xlink:title="Entity requiring the regulatory reporting information." xlink:type="simple"><rect fill="#EEEEEE" filter="url(#f1woidcjq5s7oj)" height="23.9688" id="RegulatoryAuthorityRole" style="stroke: #A80036; stroke-width: 1.5;" width="156" x="184" y="570"/><rect fill="#EEEEEE" height="23.9688" style="stroke: #A80036; stroke-width: 1.5;" width="156" x="184" y="570"/><text fill="#000000" font-family="sans-serif" font-size="12" lengthAdjust="spacingAndGlyphs" textLength="150" x="187" y="586.1387">RegulatoryAuthorityRole</text></a><!--class CardPaymentAcquiring--><a target="_top" xlink:actuate="onRequest" xlink:href="../CardPaymentAcquiring.html" xlink:show="new" xlink:title="Payment processes initiated by a payment card." xlink:type="simple"><rect fill="#EEEEEE" filter="url(#f1woidcjq5s7oj)" height="23.9688" id="CardPaymentAcquiring" style="stroke: #A80036; stroke-width: 1.5;" width="147" x="191.75" y="484"/><rect fill="#EEEEEE" height="23.9688" style="stroke: #A80036; stroke-width: 1.5;" width="147" x="191.75" y="484"/><text fill="#000000" font-family="sans-serif" font-size="12" lengthAdjust="spacingAndGlyphs" textLength="141" x="194.75" y="500.1387">CardPaymentAcquiring</text></a><!--class PostalAddress--><a target="_top" xlink:actuate="onRequest" xlink:href="../PostalAddress.html" xlink:show="new" xlink:title="Information that locates and identifies a specific address." xlink:type="simple"><rect fill="#EEEEEE" filter="url(#f1woidcjq5s7oj)" height="23.9688" id="PostalAddress" style="stroke: #A80036; stroke-width: 1.5;" width="96" x="217" y="382"/><rect fill="#EEEEEE" height="23.9688" style="stroke: #A80036; stroke-width: 1.5;" width="96" x="217" y="382"/><text fill="#000000" font-family="sans-serif" font-size="12" lengthAdjust="spacingAndGlyphs" textLength="90" x="220" y="398.1387">PostalAddress</text></a><!--class InvestmentFundClassProcessingCharacteristics--><a target="_top" xlink:actuate="onRequest" xlink:href="../InvestmentFundClassProcessingCharacteristics.html" xlink:show="new" xlink:title="Processing characteristics linked to the instrument, ie, not to  the market." xlink:type="simple"><rect fill="#EEEEEE" filter="url(#f1woidcjq5s7oj)" height="23.9688" id="InvestmentFundClassProcessingCharacteristics" style="stroke: #A80036; stroke-width: 1.5;" width="302" x="38" y="280"/><rect fill="#EEEEEE" height="23.9688" style="stroke: #A80036; stroke-width: 1.5;" width="302" x="38" y="280"/><text fill="#000000" font-family="sans-serif" font-size="12" lengthAdjust="spacingAndGlyphs" textLength="296" x="41" y="296.1387">InvestmentFundClassProcessingCharacteristics</text></a><!--class Market--><a target="_top" xlink:actuate="onRequest" xlink:href="../Market.html" xlink:show="new" xlink:title="Context or geographic environment in which trading parties execute trades." xlink:type="simple"><rect fill="#EEEEEE" filter="url(#f1woidcjq5s7oj)" height="23.9688" id="Market" style="stroke: #A80036; stroke-width: 1.5;" width="49" x="71.75" y="178"/><rect fill="#EEEEEE" height="23.9688" style="stroke: #A80036; stroke-width: 1.5;" width="49" x="71.75" y="178"/><text fill="#000000" font-family="sans-serif" font-size="12" lengthAdjust="spacingAndGlyphs" textLength="43" x="74.75" y="194.1387">Market</text></a><!--class PaymentCard--><a target="_top" xlink:actuate="onRequest" xlink:href="../PaymentCard.html" xlink:show="new" xlink:title="Electronic money product that provides the cardholder with a portable and specialised computer device that typically contains a microprocessor." xlink:type="simple"><rect fill="#EEEEEE" filter="url(#f1woidcjq5s7oj)" height="23.9688" id="PaymentCard" style="stroke: #A80036; stroke-width: 1.5;" width="89" x="37.75" y="57"/><rect fill="#EEEEEE" height="23.9688" style="stroke: #A80036; stroke-width: 1.5;" width="89" x="37.75" y="57"/><text fill="#000000" font-family="sans-serif" font-size="12" lengthAdjust="spacingAndGlyphs" textLength="83" x="40.75" y="73.1387">PaymentCard</text></a><!--link Person to InvestmentFund--><!--link Tax to Person--><!--link SafekeepingPlace to Tax--><!--link BeneficialOwner to SafekeepingPlace--><!--link Product to BeneficialOwner--><!--link RegulatoryAuthorityRole to Product--><!--link CardPaymentAcquiring to RegulatoryAuthorityRole--><!--link PostalAddress to CardPaymentAcquiring--><!--link InvestmentFundClassProcessingCharacteristics to PostalAddress--><!--link Market to InvestmentFundClassProcessingCharacteristics--><!--link PaymentCard to Market--><!--link Country to InvestmentFund--><path d="M813.545,70.575 C896.783,75.417 1024,97.744 1024,189 C1024,189 1024,189 1024,344 C1024,377.036 1004.863,381.234 983,406 C969.441,421.359 956.561,417.386 948,436 C944.657,443.268 947.708,446.005 948,454 C948.667,472.259 951,476.729 951,495 C951,495 951,495 951,685 C951,766.958 298.304,747.667 217,758 C212.731,758.543 208.323,759.139 203.891,759.764 " fill="none" id="Country-InvestmentFund" style="stroke: #A80036; stroke-width: 1.0;"/><polygon fill="#A80036" points="198.685,760.51,208.1619,763.1913,203.6343,759.7999,207.0257,755.2724,198.685,760.51" style="stroke: #A80036; stroke-width: 1.0;"/><text fill="#000000" font-family="sans-serif" font-size="13" lengthAdjust="spacingAndGlyphs" textLength="101" x="949" y="449.0669">DomiciledFunds</text><text fill="#000000" font-family="sans-serif" font-size="13" lengthAdjust="spacingAndGlyphs" textLength="7" x="207.5598" y="753.7228">*</text><!--link Country to Person--><path d="M759.03,98.144 C786.12,149.486 835.198,261.407 805,352 C788.837,400.488 736,392.889 736,444 C736,444 736,444 736,583 C736,597.332 297.418,661.286 176.53,678.642 " fill="none" id="Country-Person" style="stroke: #A80036; stroke-width: 1.0;"/><polygon fill="#A80036" points="171.352,679.385,180.8289,682.0663,176.3013,678.6749,179.6927,674.1474,171.352,679.385" style="stroke: #A80036; stroke-width: 1.0;"/><text fill="#000000" font-family="sans-serif" font-size="13" lengthAdjust="spacingAndGlyphs" textLength="43" x="786" y="398.0669">Citizen</text><text fill="#000000" font-family="sans-serif" font-size="13" lengthAdjust="spacingAndGlyphs" textLength="8" x="178.8735" y="672.1122">1</text><!--link Country to Tax--><path d="M739.152,98.06 C731.116,146.368 708.204,245.667 650,304 C624.642,329.414 606.069,316.011 575,334 C467.116,396.466 464.813,448.992 355,508 C277.126,549.845 249.663,541.439 166,570 C161.805,571.432 157.303,573.007 153.067,574.507 " fill="none" id="Country-Tax" style="stroke: #A80036; stroke-width: 1.0;"/><polygon fill="#A80036" points="148.251,576.219,158.0708,576.9744,152.9624,574.5447,155.392,569.4363,148.251,576.219" style="stroke: #A80036; stroke-width: 1.0;"/><text fill="#000000" font-family="sans-serif" font-size="13" lengthAdjust="spacingAndGlyphs" textLength="22" x="576" y="347.0669">Tax</text><text fill="#000000" font-family="sans-serif" font-size="13" lengthAdjust="spacingAndGlyphs" textLength="8" x="156.539" y="565.3639">1</text><!--link Country to SafekeepingPlace--><path d="M813.368,70.658 C961.509,73.949 1292,92.145 1292,189 C1292,189 1292,189 1292,771 C1292,818.7012 567.79,845.8291 345.259,853.0388 " fill="none" id="Country-SafekeepingPlace" style="stroke: #A80036; stroke-width: 1.0;"/><polygon fill="#A80036" points="340.096,853.2054,349.2205,856.9127,345.0934,853.044,348.9622,848.9169,340.096,853.2054" style="stroke: #A80036; stroke-width: 1.0;"/><text fill="#000000" font-family="sans-serif" font-size="13" lengthAdjust="spacingAndGlyphs" textLength="183" x="1293" y="500.0669">CountryForSafekeepingPlace</text><text fill="#000000" font-family="sans-serif" font-size="13" lengthAdjust="spacingAndGlyphs" textLength="7" x="348.1161" y="847.8357">*</text><!--link Country to BeneficialOwner--><path d="M813.367,69.813 C879.156,72.701 977.816,85.135 1050,130 C1078.01,147.409 1095,156.021 1095,189 C1095,189 1095,189 1095,685 C1095,760.539 529.089,768.475 344.478,769.054 " fill="none" id="Country-BeneficialOwner" style="stroke: #A80036; stroke-width: 1.0;"/><polygon fill="#A80036" points="339.393,769.068,348.4044,773.0423,344.393,769.0537,348.3815,765.0423,339.393,769.068" style="stroke: #A80036; stroke-width: 1.0;"/><text fill="#000000" font-family="sans-serif" font-size="13" lengthAdjust="spacingAndGlyphs" textLength="171" x="1096" y="449.0669">CountryForBeneficialOwner</text><text fill="#000000" font-family="sans-serif" font-size="13" lengthAdjust="spacingAndGlyphs" textLength="8" x="347.639" y="763.7616">1</text><!--link Country to Product--><path d="M807.949,98.134 C820.566,106.563 832.26,117.094 840,130 C911.832,249.768 852,304.343 852,444 C852,444 852,444 852,583 C852,630.829 807.211,626.393 762,642 C678.094,670.964 404.882,680.018 310.455,682.32 " fill="none" id="Country-Product" style="stroke: #A80036; stroke-width: 1.0;"/><polygon fill="#A80036" points="305.294,682.444,314.3863,686.2294,310.2926,682.3254,314.1966,678.2317,305.294,682.444" style="stroke: #A80036; stroke-width: 1.0;"/><text fill="#000000" font-family="sans-serif" font-size="13" lengthAdjust="spacingAndGlyphs" textLength="116" x="857" y="398.0669">ProducedProducts</text><text fill="#000000" font-family="sans-serif" font-size="13" lengthAdjust="spacingAndGlyphs" textLength="7" x="313.8845" y="675.7057">*</text><!--link Country to RegulatoryAuthorityRole--><path d="M745.754,98.157 C748.853,146.172 748.04,244.461 698,304 C673.836,332.751 643.257,305.327 619,334 C558.707,405.269 646.197,476.253 578,540 C545.276,570.589 427.498,578.884 345.371,580.851 " fill="none" id="Country-RegulatoryAuthorityRole" style="stroke: #A80036; stroke-width: 1.0;"/><polygon fill="#A80036" points="340.015,580.971,349.103,584.7668,345.0137,580.8581,348.9224,576.7689,340.015,580.971" style="stroke: #A80036; stroke-width: 1.0;"/><text fill="#000000" font-family="sans-serif" font-size="13" lengthAdjust="spacingAndGlyphs" textLength="179" x="620" y="347.0669">NationalRegulatoryAuthority</text><text fill="#000000" font-family="sans-serif" font-size="13" lengthAdjust="spacingAndGlyphs" textLength="7" x="348.0391" y="576.108">*</text><!--link Country to CardPaymentAcquiring--><path d="M688.052,98.127 C673.419,107.12 658.282,117.92 646,130 C600.822,174.436 616.276,207.803 569,250 C546.46,270.118 533.093,263.173 508,280 C412.755,343.869 315.32,442.124 279.412,479.683 " fill="none" id="Country-CardPaymentAcquiring" style="stroke: #A80036; stroke-width: 1.0;"/><polygon fill="#A80036" points="275.735,483.542,284.839,479.7846,279.1838,479.9218,279.0466,474.2666,275.735,483.542" style="stroke: #A80036; stroke-width: 1.0;"/><text fill="#000000" font-family="sans-serif" font-size="13" lengthAdjust="spacingAndGlyphs" textLength="135" x="509" y="296.0669">RelatedCardPayment</text><text fill="#000000" font-family="sans-serif" font-size="13" lengthAdjust="spacingAndGlyphs" textLength="7" x="269.6427" y="472.9547">*</text><!--link Country to PostalAddress--><path d="M672.406,85.503 C638.26,95.012 597.694,109.397 565,130 C527.241,153.794 533.306,179.096 495,202 C453.344,226.907 426.817,200.376 390,232 C363.297,254.936 377.334,275.266 357,304 C335.787,333.976 303.627,362.336 283.491,378.677 " fill="none" id="Country-PostalAddress" style="stroke: #A80036; stroke-width: 1.0;"/><polygon fill="#A80036" points="279.385,381.977,288.9057,379.4557,283.2819,378.8443,283.8933,373.2206,279.385,381.977" style="stroke: #A80036; stroke-width: 1.0;"/><text fill="#000000" font-family="sans-serif" font-size="13" lengthAdjust="spacingAndGlyphs" textLength="172" x="391" y="245.0669">PostalAddressSpecification</text><text fill="#000000" font-family="sans-serif" font-size="13" lengthAdjust="spacingAndGlyphs" textLength="7" x="274.783" y="371.0173">*</text><!--link Country to InvestmentFundClassProcessingCharacteristics--><path d="M672.593,80.261 C537.16,100.602 250.78,146.767 218,178 C191.28,203.458 187.906,249.926 188.18,274.596 " fill="none" id="Country-InvestmentFundClassProcessingCharacteristics" style="stroke: #A80036; stroke-width: 1.0;"/><polygon fill="#A80036" points="188.296,279.801,192.0944,270.7141,188.1846,274.8022,184.0964,270.8924,188.296,279.801" style="stroke: #A80036; stroke-width: 1.0;"/><text fill="#000000" font-family="sans-serif" font-size="13" lengthAdjust="spacingAndGlyphs" textLength="270" x="219" y="194.0669">CountryRelatedInvestmentFundProcessing</text><text fill="#000000" font-family="sans-serif" font-size="13" lengthAdjust="spacingAndGlyphs" textLength="8" x="177.4065" y="269.0385">1</text><!--link Country to Market--><path d="M672.613,81.612 C595.234,93.874 467.127,112.69 356,122 C342.816,123.105 128.739,122.273 118,130 C104.5262,139.695 99.2962,158.646 97.2708,172.462 " fill="none" id="Country-Market" style="stroke: #A80036; stroke-width: 1.0;"/><polygon fill="#A80036" points="96.6218,177.659,101.7069,169.2244,97.2418,172.6976,93.7686,168.2325,96.6218,177.659" style="stroke: #A80036; stroke-width: 1.0;"/><text fill="#000000" font-family="sans-serif" font-size="13" lengthAdjust="spacingAndGlyphs" textLength="44" x="119" y="143.0669">Market</text><text fill="#000000" font-family="sans-serif" font-size="13" lengthAdjust="spacingAndGlyphs" textLength="8" x="86.0887" y="166.8495">1</text><!--link Country to PaymentCard--><path d="M672.573,69 C538.046,69 247.595,69 131.459,69 " fill="none" id="Country-PaymentCard" style="stroke: #A80036; stroke-width: 1.0;"/><polygon fill="#A80036" points="126.396,69,135.396,73,131.396,69,135.396,65,126.396,69" style="stroke: #A80036; stroke-width: 1.0;"/><text fill="#000000" font-family="sans-serif" font-size="13" lengthAdjust="spacingAndGlyphs" textLength="135" x="331.25" y="61.0669">RelatedPaymentCard</text><text fill="#000000" font-family="sans-serif" font-size="13" lengthAdjust="spacingAndGlyphs" textLength="8" x="134.6711" y="63.6201">1</text><!--link Tax to Product--><path d="M147.687,594 C162.107,606.291 186.56,626.496 209,642 C223.214,651.821 239.844,661.746 253.217,669.371 " fill="none" id="Tax-Product" style="stroke: #A80036; stroke-width: 1.0;"/><polygon fill="#A80036" points="257.619,671.865,251.7599,663.9485,253.2686,669.4005,247.8166,670.9092,257.619,671.865" style="stroke: #A80036; stroke-width: 1.0;"/><text fill="#000000" font-family="sans-serif" font-size="13" lengthAdjust="spacingAndGlyphs" textLength="49" x="210" y="637.0669">Product</text><text fill="#000000" font-family="sans-serif" font-size="13" lengthAdjust="spacingAndGlyphs" textLength="8" x="239.8083" y="660.8668">1</text></g></svg>