<?xml version="1.0" encoding="UTF-8" standalone="no"?><svg xmlns="http://www.w3.org/2000/svg" xmlns:xlink="http://www.w3.org/1999/xlink" contentScriptType="application/ecmascript" contentStyleType="text/css" height="500px" preserveAspectRatio="none" style="width:862px;height:500px;" version="1.1" viewBox="0 0 862 500" width="862px" zoomAndPan="magnify"><defs><filter height="300%" id="f1jy59pm5p8tr0" width="300%" x="-1" y="-1"><feGaussianBlur result="blurOut" stdDeviation="2.0"/><feColorMatrix in="blurOut" result="blurOut2" type="matrix" values="0 0 0 0 0 0 0 0 0 0 0 0 0 0 0 0 0 0 .4 0"/><feOffset dx="4.0" dy="4.0" in="blurOut2" result="blurOut3"/><feBlend in="SourceGraphic" in2="blurOut3" mode="normal"/></filter></defs><g><!--cluster ##10631--><!--cluster ##10640--><!--cluster ##10649--><!--cluster ##10654--><!--class Role--><a target="_top" xlink:actuate="onRequest" xlink:href="../Role.html" xlink:show="new" xlink:title="Role of a party in an activity." xlink:type="simple"><rect fill="#FEFEEE" filter="url(#f1jy59pm5p8tr0)" height="44.7734" id="Role" style="stroke: #A80036; stroke-width: 1.5;" width="175" x="297.75" y="40.5"/><rect fill="#FEFEEE" height="23.9688" style="stroke: #A80036; stroke-width: 1.5;" width="175" x="297.75" y="40.5"/><text fill="#000000" font-family="sans-serif" font-size="12" lengthAdjust="spacingAndGlyphs" textLength="27" x="371.75" y="56.6387">Role</text><line style="stroke: #A80036; stroke-width: 1.5;" x1="298.75" x2="471.75" y1="64.4688" y2="64.4688"/><ellipse cx="308.75" cy="76.3711" fill="#84BE84" rx="3" ry="3" style="stroke: #038048; stroke-width: 1.0;"/><text fill="#000000" font-family="sans-serif" font-size="11" lengthAdjust="spacingAndGlyphs" textLength="53" x="317.75" y="78.6792">PartyRole</text><text fill="#000000" font-family="sans-serif" font-size="11" font-style="italic" lengthAdjust="spacingAndGlyphs" textLength="92" x="374.75" y="78.6792">(PartyRoleCode)</text></a><!--class PaymentPartyRole--><a target="_top" xlink:actuate="onRequest" xlink:href="../PaymentPartyRole.html" xlink:show="new" xlink:title="Role played by a party in the context of a payment." xlink:type="simple"><rect fill="#FEFEEE" filter="url(#f1jy59pm5p8tr0)" height="23.9688" id="PaymentPartyRole" style="stroke: #A80036; stroke-width: 1.5;" width="119" x="297.75" y="166"/><rect fill="#FEFEEE" height="23.9688" style="stroke: #A80036; stroke-width: 1.5;" width="119" x="297.75" y="166"/><text fill="#000000" font-family="sans-serif" font-size="12" lengthAdjust="spacingAndGlyphs" textLength="113" x="300.75" y="182.1387">PaymentPartyRole</text></a><!--class CreditorRole--><a target="_top" xlink:actuate="onRequest" xlink:href="../CreditorRole.html" xlink:show="new" xlink:title="Party to which an amount of money is due." xlink:type="simple"><rect fill="#FEFECE" filter="url(#f1jy59pm5p8tr0)" height="23.9688" id="CreditorRole" style="stroke: #A80036; stroke-width: 1.5;" width="83" x="315.75" y="270"/><rect fill="#FEFECE" height="23.9688" style="stroke: #A80036; stroke-width: 1.5;" width="83" x="315.75" y="270"/><text fill="#000000" font-family="sans-serif" font-size="12" lengthAdjust="spacingAndGlyphs" textLength="77" x="318.75" y="286.1387">CreditorRole</text></a><!--class RolePlayer--><a target="_top" xlink:actuate="onRequest" xlink:href="../RolePlayer.html" xlink:show="new" xlink:title="Type of entity that plays a specific role in a specific context." xlink:type="simple"><rect fill="#EEEEEE" filter="url(#f1jy59pm5p8tr0)" height="23.9688" id="RolePlayer" style="stroke: #A80036; stroke-width: 1.5;" width="71" x="542.75" y="466"/><rect fill="#EEEEEE" height="23.9688" style="stroke: #A80036; stroke-width: 1.5;" width="71" x="542.75" y="466"/><text fill="#000000" font-family="sans-serif" font-size="12" lengthAdjust="spacingAndGlyphs" textLength="65" x="545.75" y="482.1387">RolePlayer</text></a><!--class ContactPersonRole--><a target="_top" xlink:actuate="onRequest" xlink:href="../ContactPersonRole.html" xlink:show="new" xlink:title="Person to be contacted in a given organisation. In the corporate action domain (including meeting notifications) , it is the contact person at the party organising the meeting, at the issuer or at an intermediary." xlink:type="simple"><rect fill="#EEEEEE" filter="url(#f1jy59pm5p8tr0)" height="23.9688" id="ContactPersonRole" style="stroke: #A80036; stroke-width: 1.5;" width="126" x="535" y="376"/><rect fill="#EEEEEE" height="23.9688" style="stroke: #A80036; stroke-width: 1.5;" width="126" x="535" y="376"/><text fill="#000000" font-family="sans-serif" font-size="12" lengthAdjust="spacingAndGlyphs" textLength="120" x="538" y="392.1387">ContactPersonRole</text></a><!--class CounterpartyRisk--><a target="_top" xlink:actuate="onRequest" xlink:href="../CounterpartyRisk.html" xlink:show="new" xlink:title="Calculation of the exposure amount that one party has vis-a-vis one counterparty or a central system, based on its credit risk." xlink:type="simple"><rect fill="#EEEEEE" filter="url(#f1jy59pm5p8tr0)" height="23.9688" id="CounterpartyRisk" style="stroke: #A80036; stroke-width: 1.5;" width="113" x="547.75" y="270"/><rect fill="#EEEEEE" height="23.9688" style="stroke: #A80036; stroke-width: 1.5;" width="113" x="547.75" y="270"/><text fill="#000000" font-family="sans-serif" font-size="12" lengthAdjust="spacingAndGlyphs" textLength="107" x="550.75" y="286.1387">CounterpartyRisk</text></a><!--class Entry--><a target="_top" xlink:actuate="onRequest" xlink:href="../Entry.html" xlink:show="new" xlink:title="Posting to an account that results in an increase or decrease to a balance." xlink:type="simple"><rect fill="#EEEEEE" filter="url(#f1jy59pm5p8tr0)" height="23.9688" id="Entry" style="stroke: #A80036; stroke-width: 1.5;" width="38" x="535" y="166"/><rect fill="#EEEEEE" height="23.9688" style="stroke: #A80036; stroke-width: 1.5;" width="38" x="535" y="166"/><text fill="#000000" font-family="sans-serif" font-size="12" lengthAdjust="spacingAndGlyphs" textLength="32" x="538" y="182.1387">Entry</text></a><!--class CashAccount--><a target="_top" xlink:actuate="onRequest" xlink:href="../CashAccount.html" xlink:show="new" xlink:title="Account to or from which a cash entry is made." xlink:type="simple"><rect fill="#EEEEEE" filter="url(#f1jy59pm5p8tr0)" height="23.9688" id="CashAccount" style="stroke: #A80036; stroke-width: 1.5;" width="88" x="62.5" y="270"/><rect fill="#EEEEEE" height="23.9688" style="stroke: #A80036; stroke-width: 1.5;" width="88" x="62.5" y="270"/><text fill="#000000" font-family="sans-serif" font-size="12" lengthAdjust="spacingAndGlyphs" textLength="82" x="65.5" y="286.1387">CashAccount</text></a><!--class Payment--><a target="_top" xlink:actuate="onRequest" xlink:href="../Payment.html" xlink:show="new" xlink:title="Payment information and processes required to transfer cash end to end from the debtor to the creditor." xlink:type="simple"><rect fill="#EEEEEE" filter="url(#f1jy59pm5p8tr0)" height="23.9688" id="Payment" style="stroke: #A80036; stroke-width: 1.5;" width="60" x="38.5" y="376"/><rect fill="#EEEEEE" height="23.9688" style="stroke: #A80036; stroke-width: 1.5;" width="60" x="38.5" y="376"/><text fill="#000000" font-family="sans-serif" font-size="12" lengthAdjust="spacingAndGlyphs" textLength="54" x="41.5" y="392.1387">Payment</text></a><!--class Scheme--><a target="_top" xlink:actuate="onRequest" xlink:href="../Scheme.html" xlink:show="new" xlink:title="Information regarding an enumerated code list and its owner." xlink:type="simple"><rect fill="#EEEEEE" filter="url(#f1jy59pm5p8tr0)" height="23.9688" id="Scheme" style="stroke: #A80036; stroke-width: 1.5;" width="56" x="290.5" y="376"/><rect fill="#EEEEEE" height="23.9688" style="stroke: #A80036; stroke-width: 1.5;" width="56" x="290.5" y="376"/><text fill="#000000" font-family="sans-serif" font-size="12" lengthAdjust="spacingAndGlyphs" textLength="50" x="293.5" y="392.1387">Scheme</text></a><!--link Role to PaymentPartyRole--><path d="M374.786,105.222 C369.414,126.901 363.238,151.825 359.759,165.865 " fill="none" id="Role-PaymentPartyRole" style="stroke: #A80036; stroke-width: 1.0;"/><polygon fill="none" points="368.063,103.25,379.668,85.52,381.652,106.617,368.063,103.25" style="stroke: #A80036; stroke-width: 1.0;"/><!--link PaymentPartyRole to CreditorRole--><path d="M357,210.595 C357,230.825 357,255.843 357,269.954 " fill="none" id="PaymentPartyRole-CreditorRole" style="stroke: #A80036; stroke-width: 1.0;"/><polygon fill="none" points="350,210.306,357,190.306,364,210.305,350,210.306" style="stroke: #A80036; stroke-width: 1.0;"/><!--link ContactPersonRole to RolePlayer--><!--link CounterpartyRisk to ContactPersonRole--><!--link Entry to CounterpartyRisk--><!--link Payment to CashAccount--><!--link CashAccount to Payment--><path d="M90.8116,294.326 C81.7247,302.1 70.9995,313.285 66,326 C60.3681,340.323 61.7709,358.03 64.0387,370.67 " fill="none" id="CashAccount-Payment" style="stroke: #A80036; stroke-width: 1.0;"/><polygon fill="#A80036" points="65.0456,375.753,67.2208,366.1474,64.0742,370.8483,59.3732,367.7016,65.0456,375.753" style="stroke: #A80036; stroke-width: 1.0;"/><text fill="#000000" font-family="sans-serif" font-size="13" lengthAdjust="spacingAndGlyphs" textLength="57" x="67" y="339.0669">Payment</text><text fill="#000000" font-family="sans-serif" font-size="13" lengthAdjust="spacingAndGlyphs" textLength="8" x="53.2451" y="364.9746">1</text><!--link Role to RolePlayer--><path d="M414.729,85.517 C439.24,105.982 470,139.195 470,177 C470,177 470,177 470,389 C470,426.192 508.968,450.4548 540.089,463.9016 " fill="none" id="Role-RolePlayer" style="stroke: #A80036; stroke-width: 1.0;"/><polygon fill="#A80036" points="545.01,465.9671,538.2604,458.7948,540.3999,464.0314,535.1633,466.1709,545.01,465.9671" style="stroke: #A80036; stroke-width: 1.0;"/><text fill="#000000" font-family="sans-serif" font-size="13" lengthAdjust="spacingAndGlyphs" textLength="39" x="471" y="286.0669">Player</text><text fill="#000000" font-family="sans-serif" font-size="13" lengthAdjust="spacingAndGlyphs" textLength="7" x="527.8109" y="457.0491">*</text><!--link Role to ContactPersonRole--><path d="M472.362,71.838 C562.426,81.942 693.965,103.039 725,142 C759.475,185.28 705.915,277.674 678,318 C662.41,340.522 637.783,360.249 619.969,372.777 " fill="none" id="Role-ContactPersonRole" style="stroke: #A80036; stroke-width: 1.0;"/><polygon fill="#A80036" points="615.597,375.804,625.2738,373.9709,619.7083,372.9584,620.7208,367.3929,615.597,375.804" style="stroke: #A80036; stroke-width: 1.0;"/><text fill="#000000" font-family="sans-serif" font-size="13" lengthAdjust="spacingAndGlyphs" textLength="121" x="729" y="233.0669">ContactPersonRole</text><text fill="#000000" font-family="sans-serif" font-size="13" lengthAdjust="spacingAndGlyphs" textLength="8" x="610.7698" y="365.0425">1</text><!--link Role to CounterpartyRisk--><path d="M472.3,70.47 C517.849,79.161 568.47,98.696 590,142 C610.145,182.517 608.363,237.801 605.915,264.811 " fill="none" id="Role-CounterpartyRisk" style="stroke: #A80036; stroke-width: 1.0;"/><polygon fill="#A80036" points="605.423,269.823,610.2833,261.257,605.9116,264.8469,602.3216,260.4752,605.423,269.823" style="stroke: #A80036; stroke-width: 1.0;"/><text fill="#000000" font-family="sans-serif" font-size="13" lengthAdjust="spacingAndGlyphs" textLength="109" x="606" y="182.0669">CounterpartyRisk</text><text fill="#000000" font-family="sans-serif" font-size="13" lengthAdjust="spacingAndGlyphs" textLength="24" x="576.3575" y="258.8104">0..1</text><!--link Role to Entry--><path d="M441.455,85.552 C459.672,93.759 479.425,104.058 496,116 C514.266,129.161 531.553,148.574 542.424,161.947 " fill="none" id="Role-Entry" style="stroke: #A80036; stroke-width: 1.0;"/><polygon fill="#A80036" points="545.585,165.89,543.0735,156.3668,542.4563,161.9898,536.8332,161.3727,545.585,165.89" style="stroke: #A80036; stroke-width: 1.0;"/><text fill="#000000" font-family="sans-serif" font-size="13" lengthAdjust="spacingAndGlyphs" textLength="33" x="519" y="129.0669">Entry</text><text fill="#000000" font-family="sans-serif" font-size="13" lengthAdjust="spacingAndGlyphs" textLength="8" x="531.9736" y="154.9004">1</text><!--link PaymentPartyRole to CashAccount--><path d="M297.541,180.279 C231.565,183.092 131.183,191.996 107,220 C96.6107,232.031 98.059,250.92 101.0361,264.492 " fill="none" id="PaymentPartyRole-CashAccount" style="stroke: #A80036; stroke-width: 1.0;"/><polygon fill="#A80036" points="102.2784,269.587,104.0329,259.8957,101.0941,264.7293,96.2605,261.7905,102.2784,269.587" style="stroke: #A80036; stroke-width: 1.0;"/><text fill="#000000" font-family="sans-serif" font-size="13" lengthAdjust="spacingAndGlyphs" textLength="84" x="108" y="233.0669">CashAccount</text><text fill="#000000" font-family="sans-serif" font-size="13" lengthAdjust="spacingAndGlyphs" textLength="7" x="91.4984" y="259.014">*</text><!--link PaymentPartyRole to Payment--><path d="M332.437,190.136 C307.41,202.081 268.104,222.531 238,246 C190.644,282.919 192.42,307.164 145,344 C130.097,355.577 111.696,365.973 96.6199,373.643 " fill="none" id="PaymentPartyRole-Payment" style="stroke: #A80036; stroke-width: 1.0;"/><polygon fill="#A80036" points="92.0553,375.934,101.8933,375.4717,96.524,373.6911,98.3046,368.3218,92.0553,375.934" style="stroke: #A80036; stroke-width: 1.0;"/><text fill="#000000" font-family="sans-serif" font-size="13" lengthAdjust="spacingAndGlyphs" textLength="57" x="239" y="286.0669">Payment</text><text fill="#000000" font-family="sans-serif" font-size="13" lengthAdjust="spacingAndGlyphs" textLength="23" x="71.8556" y="364.9595">1..*</text><!--link CreditorRole to Scheme--><path d="M337.098,294.165 C326.005,301.596 313.208,312.473 307,326 C300.422,340.333 304.98,358.245 310.08,370.943 " fill="none" id="CreditorRole-Scheme" style="stroke: #A80036; stroke-width: 1.0;"/><polygon fill="#A80036" points="312.115,375.703,312.2544,365.8551,310.1492,371.1057,304.8987,369.0004,312.115,375.703" style="stroke: #A80036; stroke-width: 1.0;"/><text fill="#000000" font-family="sans-serif" font-size="13" lengthAdjust="spacingAndGlyphs" textLength="134" x="308" y="339.0669">SchemeIdentification</text><text fill="#000000" font-family="sans-serif" font-size="13" lengthAdjust="spacingAndGlyphs" textLength="8" x="299.3437" y="364.9081">1</text><!--link Payment to Payment--><path d="M97.625,379.914 C115.333,378.117 132,380.812 132,388 C132,394.458 118.547,397.289 102.9719,396.494 " fill="none" id="Payment-Payment" style="stroke: #A80036; stroke-width: 1.0;"/><polygon fill="#A80036" points="97.625,396.086,106.2941,400.7601,102.6105,396.467,106.9036,392.7834,97.625,396.086" style="stroke: #A80036; stroke-width: 1.0;"/><text fill="#000000" font-family="sans-serif" font-size="13" lengthAdjust="spacingAndGlyphs" textLength="105" x="138" y="392.0669">OriginalPayment</text><text fill="#000000" font-family="sans-serif" font-size="13" lengthAdjust="spacingAndGlyphs" textLength="8" x="106.5273" y="392.0637">1</text></g></svg>