<?xml version="1.0" encoding="UTF-8" standalone="no"?><svg xmlns="http://www.w3.org/2000/svg" xmlns:xlink="http://www.w3.org/1999/xlink" contentScriptType="application/ecmascript" contentStyleType="text/css" height="1475px" preserveAspectRatio="none" style="width:2315px;height:1475px;" version="1.1" viewBox="0 0 2315 1475" width="2315px" zoomAndPan="magnify"><defs><filter height="300%" id="f1f2ifn29n2h84" width="300%" x="-1" y="-1"><feGaussianBlur result="blurOut" stdDeviation="2.0"/><feColorMatrix in="blurOut" result="blurOut2" type="matrix" values="0 0 0 0 0 0 0 0 0 0 0 0 0 0 0 0 0 0 .4 0"/><feOffset dx="4.0" dy="4.0" in="blurOut2" result="blurOut3"/><feBlend in="SourceGraphic" in2="blurOut3" mode="normal"/></filter></defs><g><!--cluster ##13251--><!--cluster ##13254--><!--class CurrencyExchange--><a target="_top" xlink:actuate="onRequest" xlink:href="../CurrencyExchange.html" xlink:show="new" xlink:title="Information needed to process a currency exchange or conversion." xlink:type="simple"><rect fill="#FEFECE" filter="url(#f1f2ifn29n2h84)" height="147.2109" id="CurrencyExchange" style="stroke: #A80036; stroke-width: 1.5;" width="251" x="878.75" y="40.5"/><rect fill="#FEFECE" height="23.9688" style="stroke: #A80036; stroke-width: 1.5;" width="251" x="878.75" y="40.5"/><text fill="#000000" font-family="sans-serif" font-size="12" lengthAdjust="spacingAndGlyphs" textLength="116" x="946.25" y="56.6387">CurrencyExchange</text><line style="stroke: #A80036; stroke-width: 1.5;" x1="879.75" x2="1128.75" y1="64.4688" y2="64.4688"/><ellipse cx="889.75" cy="76.3711" fill="#84BE84" rx="3" ry="3" style="stroke: #038048; stroke-width: 1.0;"/><text fill="#000000" font-family="sans-serif" font-size="11" lengthAdjust="spacingAndGlyphs" textLength="87" x="898.75" y="78.6792">OriginalAmount</text><text fill="#000000" font-family="sans-serif" font-size="11" font-style="italic" lengthAdjust="spacingAndGlyphs" textLength="126" x="989.75" y="78.6792">(CurrencyAndAmount)</text><ellipse cx="889.75" cy="89.1758" fill="#84BE84" rx="3" ry="3" style="stroke: #038048; stroke-width: 1.0;"/><text fill="#000000" font-family="sans-serif" font-size="11" lengthAdjust="spacingAndGlyphs" textLength="73" x="898.75" y="91.4839">UnitCurrency</text><text fill="#000000" font-family="sans-serif" font-size="11" font-style="italic" lengthAdjust="spacingAndGlyphs" textLength="89" x="975.75" y="91.4839">(CurrencyCode)</text><ellipse cx="889.75" cy="101.9805" fill="#84BE84" rx="3" ry="3" style="stroke: #038048; stroke-width: 1.0;"/><text fill="#000000" font-family="sans-serif" font-size="11" lengthAdjust="spacingAndGlyphs" textLength="92" x="898.75" y="104.2886">QuotedCurrency</text><text fill="#000000" font-family="sans-serif" font-size="11" font-style="italic" lengthAdjust="spacingAndGlyphs" textLength="89" x="994.75" y="104.2886">(CurrencyCode)</text><ellipse cx="889.75" cy="114.7852" fill="#84BE84" rx="3" ry="3" style="stroke: #038048; stroke-width: 1.0;"/><text fill="#000000" font-family="sans-serif" font-size="11" lengthAdjust="spacingAndGlyphs" textLength="79" x="898.75" y="117.0933">ExchangeRate</text><text fill="#000000" font-family="sans-serif" font-size="11" font-style="italic" lengthAdjust="spacingAndGlyphs" textLength="85" x="981.75" y="117.0933">(BaseOneRate)</text><ellipse cx="889.75" cy="127.5898" fill="#84BE84" rx="3" ry="3" style="stroke: #038048; stroke-width: 1.0;"/><text fill="#000000" font-family="sans-serif" font-size="11" lengthAdjust="spacingAndGlyphs" textLength="95" x="898.75" y="129.8979">ResultingAmount</text><text fill="#000000" font-family="sans-serif" font-size="11" font-style="italic" lengthAdjust="spacingAndGlyphs" textLength="126" x="997.75" y="129.8979">(CurrencyAndAmount)</text><ellipse cx="889.75" cy="140.3945" fill="#84BE84" rx="3" ry="3" style="stroke: #038048; stroke-width: 1.0;"/><text fill="#000000" font-family="sans-serif" font-size="11" lengthAdjust="spacingAndGlyphs" textLength="81" x="898.75" y="142.7026">QuotationDate</text><text fill="#000000" font-family="sans-serif" font-size="11" font-style="italic" lengthAdjust="spacingAndGlyphs" textLength="81" x="983.75" y="142.7026">(ISODateTime)</text><ellipse cx="889.75" cy="153.1992" fill="#84BE84" rx="3" ry="3" style="stroke: #038048; stroke-width: 1.0;"/><text fill="#000000" font-family="sans-serif" font-size="11" lengthAdjust="spacingAndGlyphs" textLength="91" x="898.75" y="155.5073">SourceCurrency</text><text fill="#000000" font-family="sans-serif" font-size="11" font-style="italic" lengthAdjust="spacingAndGlyphs" textLength="89" x="993.75" y="155.5073">(CurrencyCode)</text><ellipse cx="889.75" cy="166.0039" fill="#84BE84" rx="3" ry="3" style="stroke: #038048; stroke-width: 1.0;"/><text fill="#000000" font-family="sans-serif" font-size="11" lengthAdjust="spacingAndGlyphs" textLength="88" x="898.75" y="168.312">TargetCurrency</text><text fill="#000000" font-family="sans-serif" font-size="11" font-style="italic" lengthAdjust="spacingAndGlyphs" textLength="89" x="990.75" y="168.312">(CurrencyCode)</text><ellipse cx="889.75" cy="178.8086" fill="#84BE84" rx="3" ry="3" style="stroke: #038048; stroke-width: 1.0;"/><text fill="#000000" font-family="sans-serif" font-size="11" lengthAdjust="spacingAndGlyphs" textLength="52" x="898.75" y="181.1167">RateType</text><text fill="#000000" font-family="sans-serif" font-size="11" font-style="italic" lengthAdjust="spacingAndGlyphs" textLength="146" x="954.75" y="181.1167">(ExchangeRateTypeCode)</text></a><!--class ForeignExchangeTrade--><a target="_top" xlink:actuate="onRequest" xlink:href="../ForeignExchangeTrade.html" xlink:show="new" xlink:title="Agreement between two parties in which one party buys a currency and the other party sells a different currency." xlink:type="simple"><rect fill="#EEEEEE" filter="url(#f1f2ifn29n2h84)" height="23.9688" id="ForeignExchangeTrade" style="stroke: #A80036; stroke-width: 1.5;" width="150" x="75.5" y="268"/><rect fill="#EEEEEE" height="23.9688" style="stroke: #A80036; stroke-width: 1.5;" width="150" x="75.5" y="268"/><text fill="#000000" font-family="sans-serif" font-size="12" lengthAdjust="spacingAndGlyphs" textLength="144" x="78.5" y="284.1387">ForeignExchangeTrade</text></a><!--class CorporateActionEvent--><a target="_top" xlink:actuate="onRequest" xlink:href="../CorporateActionEvent.html" xlink:show="new" xlink:title="An event determined by a corporation's board of directors, that changes the existing corporate capital structure or financial condition." xlink:type="simple"><rect fill="#EEEEEE" filter="url(#f1f2ifn29n2h84)" height="23.9688" id="CorporateActionEvent" style="stroke: #A80036; stroke-width: 1.5;" width="143" x="38.75" y="102"/><rect fill="#EEEEEE" height="23.9688" style="stroke: #A80036; stroke-width: 1.5;" width="143" x="38.75" y="102"/><text fill="#000000" font-family="sans-serif" font-size="12" lengthAdjust="spacingAndGlyphs" textLength="137" x="41.75" y="118.1387">CorporateActionEvent</text></a><!--class SecuritiesBalance--><a target="_top" xlink:actuate="onRequest" xlink:href="../SecuritiesBalance.html" xlink:show="new" xlink:title="Net position of a segregated holding, in a single security, within the overall position held in a securities account. A securities balance is calculated from the sum of securities' receipts minus the sum of securities' deliveries." xlink:type="simple"><rect fill="#EEEEEE" filter="url(#f1f2ifn29n2h84)" height="23.9688" id="SecuritiesBalance" style="stroke: #A80036; stroke-width: 1.5;" width="118" x="149" y="886"/><rect fill="#EEEEEE" height="23.9688" style="stroke: #A80036; stroke-width: 1.5;" width="118" x="149" y="886"/><text fill="#000000" font-family="sans-serif" font-size="12" lengthAdjust="spacingAndGlyphs" textLength="112" x="152" y="902.1387">SecuritiesBalance</text></a><!--class AssetHolding--><a target="_top" xlink:actuate="onRequest" xlink:href="../AssetHolding.html" xlink:show="new" xlink:title="Specifies in terms of value and quantity the assets." xlink:type="simple"><rect fill="#EEEEEE" filter="url(#f1f2ifn29n2h84)" height="23.9688" id="AssetHolding" style="stroke: #A80036; stroke-width: 1.5;" width="88" x="309.5" y="782"/><rect fill="#EEEEEE" height="23.9688" style="stroke: #A80036; stroke-width: 1.5;" width="88" x="309.5" y="782"/><text fill="#000000" font-family="sans-serif" font-size="12" lengthAdjust="spacingAndGlyphs" textLength="82" x="312.5" y="798.1387">AssetHolding</text></a><!--class CashEntry--><a target="_top" xlink:actuate="onRequest" xlink:href="../CashEntry.html" xlink:show="new" xlink:title="Posting of an item to a cash account, in the context of a cash transaction, that results in an increase or decrease to the balance of the account." xlink:type="simple"><rect fill="#EEEEEE" filter="url(#f1f2ifn29n2h84)" height="23.9688" id="CashEntry" style="stroke: #A80036; stroke-width: 1.5;" width="69" x="318.75" y="680"/><rect fill="#EEEEEE" height="23.9688" style="stroke: #A80036; stroke-width: 1.5;" width="69" x="318.75" y="680"/><text fill="#000000" font-family="sans-serif" font-size="12" lengthAdjust="spacingAndGlyphs" textLength="63" x="321.75" y="696.1387">CashEntry</text></a><!--class Payment--><a target="_top" xlink:actuate="onRequest" xlink:href="../Payment.html" xlink:show="new" xlink:title="Payment information and processes required to transfer cash end to end from the debtor to the creditor." xlink:type="simple"><rect fill="#EEEEEE" filter="url(#f1f2ifn29n2h84)" height="23.9688" id="Payment" style="stroke: #A80036; stroke-width: 1.5;" width="60" x="153.5" y="576"/><rect fill="#EEEEEE" height="23.9688" style="stroke: #A80036; stroke-width: 1.5;" width="60" x="153.5" y="576"/><text fill="#000000" font-family="sans-serif" font-size="12" lengthAdjust="spacingAndGlyphs" textLength="54" x="156.5" y="592.1387">Payment</text></a><!--class LiquidityManagementLimit--><a target="_top" xlink:actuate="onRequest" xlink:href="../LiquidityManagementLimit.html" xlink:show="new" xlink:title="Cash management feature limiting the amount of liquidity needed to perform clearing and settlement operations. At any point in time during the process, the limit imposes the maximum amount of liquidity available for operations concerning the system or other managed elements, for example, transaction amount or counterparty." xlink:type="simple"><rect fill="#EEEEEE" filter="url(#f1f2ifn29n2h84)" height="23.9688" id="LiquidityManagementLimit" style="stroke: #A80036; stroke-width: 1.5;" width="166" x="149" y="472"/><rect fill="#EEEEEE" height="23.9688" style="stroke: #A80036; stroke-width: 1.5;" width="166" x="149" y="472"/><text fill="#000000" font-family="sans-serif" font-size="12" lengthAdjust="spacingAndGlyphs" textLength="160" x="152" y="488.1387">LiquidityManagementLimit</text></a><!--class FixingCondition--><a target="_top" xlink:actuate="onRequest" xlink:href="../FixingCondition.html" xlink:show="new" xlink:title="Set of parameters used to calculate a rate for instance the fixing rate to be applied to a non-deliverable agreement." xlink:type="simple"><rect fill="#EEEEEE" filter="url(#f1f2ifn29n2h84)" height="23.9688" id="FixingCondition" style="stroke: #A80036; stroke-width: 1.5;" width="100" x="223" y="370"/><rect fill="#EEEEEE" height="23.9688" style="stroke: #A80036; stroke-width: 1.5;" width="100" x="223" y="370"/><text fill="#000000" font-family="sans-serif" font-size="12" lengthAdjust="spacingAndGlyphs" textLength="94" x="226" y="386.1387">FixingCondition</text></a><!--class Tax--><a target="_top" xlink:actuate="onRequest" xlink:href="../Tax.html" xlink:show="new" xlink:title="Amount of money due to the government or tax authority, according to various pre-defined parameters such as thresholds or income." xlink:type="simple"><rect fill="#EEEEEE" filter="url(#f1f2ifn29n2h84)" height="23.9688" id="Tax" style="stroke: #A80036; stroke-width: 1.5;" width="27" x="259.75" y="268"/><rect fill="#EEEEEE" height="23.9688" style="stroke: #A80036; stroke-width: 1.5;" width="27" x="259.75" y="268"/><text fill="#000000" font-family="sans-serif" font-size="12" lengthAdjust="spacingAndGlyphs" textLength="21" x="262.75" y="284.1387">Tax</text></a><!--class Invoice--><a target="_top" xlink:actuate="onRequest" xlink:href="../Invoice.html" xlink:show="new" xlink:title="General information about an invoice, such as number, issue date date and monetary amounts." xlink:type="simple"><rect fill="#EEEEEE" filter="url(#f1f2ifn29n2h84)" height="23.9688" id="Invoice" style="stroke: #A80036; stroke-width: 1.5;" width="49" x="152.75" y="1426"/><rect fill="#EEEEEE" height="23.9688" style="stroke: #A80036; stroke-width: 1.5;" width="49" x="152.75" y="1426"/><text fill="#000000" font-family="sans-serif" font-size="12" lengthAdjust="spacingAndGlyphs" textLength="43" x="155.75" y="1442.1387">Invoice</text></a><!--class TransactionAdministrator--><a target="_top" xlink:actuate="onRequest" xlink:href="../TransactionAdministrator.html" xlink:show="new" xlink:title="Set of integrated applications that provides centralised services such as clearing and settlement." xlink:type="simple"><rect fill="#EEEEEE" filter="url(#f1f2ifn29n2h84)" height="23.9688" id="TransactionAdministrator" style="stroke: #A80036; stroke-width: 1.5;" width="164" x="379" y="1338"/><rect fill="#EEEEEE" height="23.9688" style="stroke: #A80036; stroke-width: 1.5;" width="164" x="379" y="1338"/><text fill="#000000" font-family="sans-serif" font-size="12" lengthAdjust="spacingAndGlyphs" textLength="158" x="382" y="1354.1387">TransactionAdministrator</text></a><!--class Account--><a target="_top" xlink:actuate="onRequest" xlink:href="../Account.html" xlink:show="new" xlink:title="Record of transactions in specific types of assets, maintained by a servicing party on behalf of one or more owning parties. Business relationship between an account servicer and one or more account owners." xlink:type="simple"><rect fill="#EEEEEE" filter="url(#f1f2ifn29n2h84)" height="23.9688" id="Account" style="stroke: #A80036; stroke-width: 1.5;" width="57" x="432.75" y="1250"/><rect fill="#EEEEEE" height="23.9688" style="stroke: #A80036; stroke-width: 1.5;" width="57" x="432.75" y="1250"/><text fill="#000000" font-family="sans-serif" font-size="12" lengthAdjust="spacingAndGlyphs" textLength="51" x="435.75" y="1266.1387">Account</text></a><!--class CorporateActionCashEntitlement--><a target="_top" xlink:actuate="onRequest" xlink:href="../CorporateActionCashEntitlement.html" xlink:show="new" xlink:title="Rights for cash entitled to the account owner based on the terms of the corporate action event and the balance of underlying securities." xlink:type="simple"><rect fill="#EEEEEE" filter="url(#f1f2ifn29n2h84)" height="23.9688" id="CorporateActionCashEntitlement" style="stroke: #A80036; stroke-width: 1.5;" width="211" x="403.75" y="1162"/><rect fill="#EEEEEE" height="23.9688" style="stroke: #A80036; stroke-width: 1.5;" width="211" x="403.75" y="1162"/><text fill="#000000" font-family="sans-serif" font-size="12" lengthAdjust="spacingAndGlyphs" textLength="205" x="406.75" y="1178.1387">CorporateActionCashEntitlement</text></a><!--class PaymentExecution--><a target="_top" xlink:actuate="onRequest" xlink:href="../PaymentExecution.html" xlink:show="new" xlink:title="Process required for executing an end to end payment. It consists of a payment initiation which may be followed by a series of instructions." xlink:type="simple"><rect fill="#EEEEEE" filter="url(#f1f2ifn29n2h84)" height="23.9688" id="PaymentExecution" style="stroke: #A80036; stroke-width: 1.5;" width="121" x="462.75" y="1076"/><rect fill="#EEEEEE" height="23.9688" style="stroke: #A80036; stroke-width: 1.5;" width="121" x="462.75" y="1076"/><text fill="#000000" font-family="sans-serif" font-size="12" lengthAdjust="spacingAndGlyphs" textLength="115" x="465.75" y="1092.1387">PaymentExecution</text></a><!--class Quote--><a target="_top" xlink:actuate="onRequest" xlink:href="../Quote.html" xlink:show="new" xlink:title="Indicates whether the quote details are indicated as an offer, a bid or a mid of a security, commodity, currency (the latter being an average of the offer and the bid)." xlink:type="simple"><rect fill="#EEEEEE" filter="url(#f1f2ifn29n2h84)" height="23.9688" id="Quote" style="stroke: #A80036; stroke-width: 1.5;" width="44" x="524.5" y="974"/><rect fill="#EEEEEE" height="23.9688" style="stroke: #A80036; stroke-width: 1.5;" width="44" x="524.5" y="974"/><text fill="#000000" font-family="sans-serif" font-size="12" lengthAdjust="spacingAndGlyphs" textLength="38" x="527.5" y="990.1387">Quote</text></a><!--class SecuritiesConversion--><a target="_top" xlink:actuate="onRequest" xlink:href="../SecuritiesConversion.html" xlink:show="new" xlink:title="Conversion exchange of securities, generally convertible bonds or preferred equities, into another form of securities, usually common equities." xlink:type="simple"><rect fill="#EEEEEE" filter="url(#f1f2ifn29n2h84)" height="23.9688" id="SecuritiesConversion" style="stroke: #A80036; stroke-width: 1.5;" width="137" x="477.75" y="886"/><rect fill="#EEEEEE" height="23.9688" style="stroke: #A80036; stroke-width: 1.5;" width="137" x="477.75" y="886"/><text fill="#000000" font-family="sans-serif" font-size="12" lengthAdjust="spacingAndGlyphs" textLength="131" x="480.75" y="902.1387">SecuritiesConversion</text></a><!--class CashDistribution--><a target="_top" xlink:actuate="onRequest" xlink:href="../CashDistribution.html" xlink:show="new" xlink:title="Distribution of cash pay-out." xlink:type="simple"><rect fill="#EEEEEE" filter="url(#f1f2ifn29n2h84)" height="23.9688" id="CashDistribution" style="stroke: #A80036; stroke-width: 1.5;" width="109" x="491.75" y="782"/><rect fill="#EEEEEE" height="23.9688" style="stroke: #A80036; stroke-width: 1.5;" width="109" x="491.75" y="782"/><text fill="#000000" font-family="sans-serif" font-size="12" lengthAdjust="spacingAndGlyphs" textLength="103" x="494.75" y="798.1387">CashDistribution</text></a><!--class Adjustment--><a target="_top" xlink:actuate="onRequest" xlink:href="../Adjustment.html" xlink:show="new" xlink:title="Modification on the value of goods and / or services. For example: rebate, discount." xlink:type="simple"><rect fill="#EEEEEE" filter="url(#f1f2ifn29n2h84)" height="23.9688" id="Adjustment" style="stroke: #A80036; stroke-width: 1.5;" width="77" x="435.75" y="680"/><rect fill="#EEEEEE" height="23.9688" style="stroke: #A80036; stroke-width: 1.5;" width="77" x="435.75" y="680"/><text fill="#000000" font-family="sans-serif" font-size="12" lengthAdjust="spacingAndGlyphs" textLength="71" x="438.75" y="696.1387">Adjustment</text></a><!--link CorporateActionEvent to ForeignExchangeTrade--><!--link SecuritiesBalance to CorporateActionEvent--><!--link AssetHolding to SecuritiesBalance--><!--link CashEntry to AssetHolding--><!--link Payment to CashEntry--><!--link LiquidityManagementLimit to Payment--><!--link FixingCondition to LiquidityManagementLimit--><!--link Tax to FixingCondition--><!--link Invoice to Tax--><!--link TransactionAdministrator to Invoice--><!--link Account to TransactionAdministrator--><!--link CorporateActionCashEntitlement to Account--><!--link PaymentExecution to CorporateActionCashEntitlement--><!--link Quote to PaymentExecution--><!--link SecuritiesConversion to Quote--><!--link CashDistribution to SecuritiesConversion--><!--link Adjustment to CashDistribution--><!--link CurrencyExchange to ForeignExchangeTrade--><path d="M878.592,155.48 C806.91,176.63 714.85,200.45 631,212 C608.321,215.12 240.398,211.86 219,220 C195.569,228.91 174.62,249.52 162.112,263.86 " fill="none" id="CurrencyExchange-ForeignExchangeTrade" style="stroke: #A80036; stroke-width: 1.0;"/><polygon fill="#A80036" points="158.813,267.72,167.6972,263.4689,162.058,263.9161,161.6108,258.2769,158.813,267.72" style="stroke: #A80036; stroke-width: 1.0;"/><text fill="#000000" font-family="sans-serif" font-size="13" lengthAdjust="spacingAndGlyphs" textLength="284" x="220" y="233.0669">CurrencyExchangeForForeignExchangeTrade</text><text fill="#000000" font-family="sans-serif" font-size="13" lengthAdjust="spacingAndGlyphs" textLength="24" x="132.2604" y="256.9307">0..1</text><!--link CurrencyExchange to CorporateActionEvent--><path d="M878.389,114 C690.265,114 340.981,114 186.679,114 " fill="none" id="CurrencyExchange-CorporateActionEvent" style="stroke: #A80036; stroke-width: 1.0;"/><polygon fill="#A80036" points="181.273,114,190.273,118,186.273,114,190.273,110,181.273,114" style="stroke: #A80036; stroke-width: 1.0;"/><text fill="#000000" font-family="sans-serif" font-size="13" lengthAdjust="spacingAndGlyphs" textLength="188" x="435.25" y="106.0669">RelatedCorporateActionEvent</text><text fill="#000000" font-family="sans-serif" font-size="13" lengthAdjust="spacingAndGlyphs" textLength="8" x="189.9475" y="109.0936">1</text><!--link CurrencyExchange to SecuritiesBalance--><path d="M1129.39,146.32 C1193.01,170.52 1257,211.61 1257,279 C1257,279 1257,279 1257,434 C1257,474.57 1227.04,479.44 1190,496 C1125.41,524.886 920.619,473.66 873,526 C867.616,531.917 872.958,536 873,544 C873.222,586.668 874,597.331 874,640 C874,640 874,640 874,795 C874,855.462 439.584,884.794 272.452,893.841 " fill="none" id="CurrencyExchange-SecuritiesBalance" style="stroke: #A80036; stroke-width: 1.0;"/><polygon fill="#A80036" points="267.103,894.128,276.3049,897.6387,272.0958,893.8594,275.8751,889.6502,267.103,894.128" style="stroke: #A80036; stroke-width: 1.0;"/><text fill="#000000" font-family="sans-serif" font-size="13" lengthAdjust="spacingAndGlyphs" textLength="253" x="874" y="539.0669">CurrencyExchangeForSecuritiesBalance</text><text fill="#000000" font-family="sans-serif" font-size="13" lengthAdjust="spacingAndGlyphs" textLength="8" x="275.1881" y="888.6202">1</text><!--link CurrencyExchange to AssetHolding--><path d="M1001.012,187.56 C993.854,262.54 970.781,377.46 898,442 C846.155,487.976 800.53,430.55 745,472 C672.631,526.022 714.148,589.611 647,650 C571.676,717.742 458.475,760.535 396.826,780.239 " fill="none" id="CurrencyExchange-AssetHolding" style="stroke: #A80036; stroke-width: 1.0;"/><polygon fill="#A80036" points="391.751,781.846,401.5388,782.9407,396.5175,780.3358,399.1224,775.3144,391.751,781.846" style="stroke: #A80036; stroke-width: 1.0;"/><text fill="#000000" font-family="sans-serif" font-size="13" lengthAdjust="spacingAndGlyphs" textLength="139" x="746" y="488.0669">CalculatedAssetValue</text><text fill="#000000" font-family="sans-serif" font-size="13" lengthAdjust="spacingAndGlyphs" textLength="7" x="395.3529" y="770.8413">*</text><!--link CurrencyExchange to CashEntry--><path d="M922.146,187.66 C910.551,198.36 898.88,209.37 888,220 C811.771,294.48 816.082,342.1 723,394 C665.903,425.84 635.176,390.56 579,424 C564.759,432.48 410.451,620.669 365.326,675.895 " fill="none" id="CurrencyExchange-CashEntry" style="stroke: #A80036; stroke-width: 1.0;"/><polygon fill="#A80036" points="362.026,679.935,370.8178,675.496,365.1894,676.0629,364.6224,670.4346,362.026,679.935" style="stroke: #A80036; stroke-width: 1.0;"/><text fill="#000000" font-family="sans-serif" font-size="13" lengthAdjust="spacingAndGlyphs" textLength="204" x="580" y="437.0669">CurrencyExchangeForCashEntry</text><text fill="#000000" font-family="sans-serif" font-size="13" lengthAdjust="spacingAndGlyphs" textLength="7" x="355.4959" y="668.9609">*</text><!--link CurrencyExchange to Payment--><path d="M878.52,142.13 C826.882,158.13 769.183,182.78 726,220 C679.731,259.88 701.113,295.75 659,340 C641.656,358.22 631.154,354.94 611,370 C581.992,391.67 577.012,399.89 550,424 C514.313,455.85 511.514,472.23 470,496 C386.114,544.022 273.667,570.149 217.69,580.956 " fill="none" id="CurrencyExchange-Payment" style="stroke: #A80036; stroke-width: 1.0;"/><polygon fill="#A80036" points="212.779,581.893,222.3692,584.1353,217.6904,580.9559,220.8698,576.277,212.779,581.893" style="stroke: #A80036; stroke-width: 1.0;"/><text fill="#000000" font-family="sans-serif" font-size="13" lengthAdjust="spacingAndGlyphs" textLength="105" x="612" y="386.0669">RelatedPayment</text><text fill="#000000" font-family="sans-serif" font-size="13" lengthAdjust="spacingAndGlyphs" textLength="8" x="221.3067" y="574.2379">1</text><!--link CurrencyExchange to LiquidityManagementLimit--><path d="M878.367,140 C811.817,156.58 730.356,182.34 664,220 C622.397,243.61 625.563,268.32 584,292 C545.16,314.13 528.592,303.28 488,322 C393.469,365.6 291.802,438.24 250.759,468.78 " fill="none" id="CurrencyExchange-LiquidityManagementLimit" style="stroke: #A80036; stroke-width: 1.0;"/><polygon fill="#A80036" points="246.518,471.95,256.121,469.7632,250.5221,468.9555,251.3298,463.3566,246.518,471.95" style="stroke: #A80036; stroke-width: 1.0;"/><text fill="#000000" font-family="sans-serif" font-size="13" lengthAdjust="spacingAndGlyphs" textLength="164" x="489" y="335.0669">RelatedLimitManagement</text><text fill="#000000" font-family="sans-serif" font-size="13" lengthAdjust="spacingAndGlyphs" textLength="8" x="240.7898" y="460.981">1</text><!--link CurrencyExchange to FixingCondition--><path d="M878.452,145.57 C803.608,164.79 707.098,191.32 623,220 C603.002,226.82 598.966,231.09 579,238 C533.137,253.88 518.793,249.31 474,268 C405.051,296.76 329.812,343.64 294.094,366.94 " fill="none" id="CurrencyExchange-FixingCondition" style="stroke: #A80036; stroke-width: 1.0;"/><polygon fill="#A80036" points="289.527,369.93,299.2458,368.3345,293.7067,367.186,294.8553,361.6469,289.527,369.93" style="stroke: #A80036; stroke-width: 1.0;"/><text fill="#000000" font-family="sans-serif" font-size="13" lengthAdjust="spacingAndGlyphs" textLength="103" x="475" y="284.0669">FixingConditions</text><text fill="#000000" font-family="sans-serif" font-size="13" lengthAdjust="spacingAndGlyphs" textLength="7" x="285.6613" y="358.9542">*</text><!--link CurrencyExchange to Tax--><path d="M878.617,152.83 C806.746,173.19 714.493,197.11 631,212 C595.386,218.35 584.756,209.97 550,220 C532.813,224.96 531.002,232.44 514,238 C433.7,264.26 332.562,274.47 291.545,277.71 " fill="none" id="CurrencyExchange-Tax" style="stroke: #A80036; stroke-width: 1.0;"/><polygon fill="#A80036" points="286.391,278.11,295.6708,281.4092,291.3763,277.7272,295.0583,273.4327,286.391,278.11" style="stroke: #A80036; stroke-width: 1.0;"/><text fill="#000000" font-family="sans-serif" font-size="13" lengthAdjust="spacingAndGlyphs" textLength="22" x="551" y="233.0669">Tax</text><text fill="#000000" font-family="sans-serif" font-size="13" lengthAdjust="spacingAndGlyphs" textLength="8" x="294.7472" y="269.1518">1</text><!--link CurrencyExchange to Invoice--><path d="M1129.37,119.07 C1438.07,130.76 2210,170.81 2210,279 C2210,279 2210,279 2210,1351 C2210,1403.465 458.42,1432.6283 206.929,1436.5451 " fill="none" id="CurrencyExchange-Invoice" style="stroke: #A80036; stroke-width: 1.0;"/><polygon fill="#A80036" points="201.608,1436.6277,210.6697,1440.4858,206.6074,1436.5491,210.544,1432.4868,201.608,1436.6277" style="stroke: #A80036; stroke-width: 1.0;"/><text fill="#000000" font-family="sans-serif" font-size="13" lengthAdjust="spacingAndGlyphs" textLength="92" x="2211" y="849.0669">RelatedInvoice</text><text fill="#000000" font-family="sans-serif" font-size="13" lengthAdjust="spacingAndGlyphs" textLength="8" x="209.5837" y="1429.9411">1</text><!--link CurrencyExchange to TransactionAdministrator--><path d="M1129.42,123.58 C1318.75,137.93 1667.56,170.22 1782,220 C1819.94,236.5 1854,237.63 1854,279 C1854,279 1854,279 1854,1263 C1854,1328.697 853.939,1344.805 548.522,1348.192 " fill="none" id="CurrencyExchange-TransactionAdministrator" style="stroke: #A80036; stroke-width: 1.0;"/><polygon fill="#A80036" points="543.195,1348.251,552.239,1352.1505,548.1947,1348.1953,552.1499,1344.151,543.195,1348.251" style="stroke: #A80036; stroke-width: 1.0;"/><text fill="#000000" font-family="sans-serif" font-size="13" lengthAdjust="spacingAndGlyphs" textLength="300" x="1855" y="798.0669">CurrencyExchangeForTransactionAdministrator</text><text fill="#000000" font-family="sans-serif" font-size="13" lengthAdjust="spacingAndGlyphs" textLength="8" x="550.8717" y="1343.4124">1</text><!--link CurrencyExchange to Account--><path d="M1129.59,115.83 C1349.93,120.72 1783,147.1 1783,279 C1783,279 1783,279 1783,642 C1783,671.239 1779.09,681.026 1761,704 C1745.9,723.178 1726.63,712.538 1715,734 C1711.19,741.034 1714.71,744.005 1715,752 C1715.67,770.259 1718,774.729 1718,793 C1718,793 1718,793 1718,1175 C1718,1238.182 693.846,1257.372 494.425,1260.51 " fill="none" id="CurrencyExchange-Account" style="stroke: #A80036; stroke-width: 1.0;"/><polygon fill="#A80036" points="489.316,1260.59,498.3767,1264.4506,494.3154,1260.5128,498.2532,1256.4516,489.316,1260.59" style="stroke: #A80036; stroke-width: 1.0;"/><text fill="#000000" font-family="sans-serif" font-size="13" lengthAdjust="spacingAndGlyphs" textLength="110" x="1716" y="747.0669">ReportedAccount</text><text fill="#000000" font-family="sans-serif" font-size="13" lengthAdjust="spacingAndGlyphs" textLength="8" x="497.9337" y="1254.0156">1</text><!--link CurrencyExchange to CorporateActionCashEntitlement--><path d="M1129.52,126.16 C1295.71,144.47 1568,188.31 1568,279 C1568,279 1568,279 1568,536 C1568,602.815 1523.33,609.747 1470,650 C1444.6,669.168 1427.25,657.259 1405,680 C1383.98,701.481 1378,711.945 1378,742 C1378,742 1378,742 1378,1089 C1378,1164.372 853.384,1173.329 619.386,1173.576 " fill="none" id="CurrencyExchange-CorporateActionCashEntitlement" style="stroke: #A80036; stroke-width: 1.0;"/><polygon fill="#A80036" points="614.254,1173.58,623.254,1177.58,619.254,1173.58,623.254,1169.58,614.254,1173.58" style="stroke: #A80036; stroke-width: 1.0;"/><text fill="#000000" font-family="sans-serif" font-size="13" lengthAdjust="spacingAndGlyphs" textLength="349" x="1406" y="696.0669">CurrencyExchangeForCorporateActionCashEntitlement</text><text fill="#000000" font-family="sans-serif" font-size="13" lengthAdjust="spacingAndGlyphs" textLength="8" x="622.5996" y="1168.9702">1</text><!--link CurrencyExchange to PaymentExecution--><path d="M1129.36,131.48 C1275.42,154.27 1497,201.6 1497,279 C1497,279 1497,279 1497,536 C1497,566.92 1497.89,581.218 1475,602 C1430.77,642.146 1390.83,594.919 1344,632 C1301.3,665.811 1290,687.538 1290,742 C1290,742 1290,742 1290,987 C1290,1057.47 774.321,1079.608 588.634,1085.296 " fill="none" id="CurrencyExchange-PaymentExecution" style="stroke: #A80036; stroke-width: 1.0;"/><polygon fill="#A80036" points="583.505,1085.451,592.622,1089.1766,588.5027,1085.2996,592.3798,1081.1803,583.505,1085.451" style="stroke: #A80036; stroke-width: 1.0;"/><text fill="#000000" font-family="sans-serif" font-size="13" lengthAdjust="spacingAndGlyphs" textLength="119" x="1345" y="645.0669">PaymentExecution</text><text fill="#000000" font-family="sans-serif" font-size="13" lengthAdjust="spacingAndGlyphs" textLength="8" x="591.7377" y="1080.1128">1</text><!--link CurrencyExchange to Quote--><path d="M1129.47,138.59 C1253.87,165.67 1426,214.74 1426,279 C1426,279 1426,279 1426,434 C1426,483.02 1466.08,506.937 1434,544 C1373.16,614.29 1300.26,516.769 1227,574 C1202.03,593.512 1200,608.307 1200,640 C1200,640 1200,640 1200,899 C1200,963.32 696.326,980.981 573.005,984.341 " fill="none" id="CurrencyExchange-Quote" style="stroke: #A80036; stroke-width: 1.0;"/><polygon fill="#A80036" points="567.76,984.481,576.8642,988.2379,572.7582,984.3467,576.6493,980.2407,567.76,984.481" style="stroke: #A80036; stroke-width: 1.0;"/><text fill="#000000" font-family="sans-serif" font-size="13" lengthAdjust="spacingAndGlyphs" textLength="241" x="1228" y="592.0669">CurrencyExchangeForSecuritiesQuote</text><text fill="#000000" font-family="sans-serif" font-size="13" lengthAdjust="spacingAndGlyphs" textLength="24" x="576.6986" y="977.8773">0..1</text><!--link CurrencyExchange to SecuritiesConversion--><path d="M1129.27,128.29 C1220.44,145.73 1328,186.01 1328,279 C1328,279 1328,279 1328,434 C1328,468.05 1311.37,477.18 1283,496 C1233.95,528.54 1198.13,487.047 1154,526 C1113.52,561.732 1112,586.004 1112,640 C1112,640 1112,640 1112,795 C1112,844.462 772.901,878.464 619.645,891.305 " fill="none" id="CurrencyExchange-SecuritiesConversion" style="stroke: #A80036; stroke-width: 1.0;"/><polygon fill="#A80036" points="614.273,891.753,623.5744,894.9909,619.2557,891.3373,622.9093,887.0186,614.273,891.753" style="stroke: #A80036; stroke-width: 1.0;"/><text fill="#000000" font-family="sans-serif" font-size="13" lengthAdjust="spacingAndGlyphs" textLength="273" x="1155" y="539.0669">CurrencyExchangeForSecuritiesConversion</text><text fill="#000000" font-family="sans-serif" font-size="13" lengthAdjust="spacingAndGlyphs" textLength="24" x="622.5254" y="886.3076">0..1</text><!--link CurrencyExchange to CashDistribution--><path d="M1008.47,187.53 C1009.56,257.05 1002.606,362.81 959,442 C941.048,474.6 926.672,476.46 895,496 C866.195,513.775 847.498,500.711 825,526 C755.365,604.274 835.591,681.605 758,752 C736.046,771.918 660.31,782.874 605.62,788.339 " fill="none" id="CurrencyExchange-CashDistribution" style="stroke: #A80036; stroke-width: 1.0;"/><polygon fill="#A80036" points="600.396,788.851,609.7429,791.955,605.3722,788.3638,608.9634,783.9931,600.396,788.851" style="stroke: #A80036; stroke-width: 1.0;"/><text fill="#000000" font-family="sans-serif" font-size="13" lengthAdjust="spacingAndGlyphs" textLength="244" x="936" y="488.0669">CurrencyExchangeForCashDistribution</text><text fill="#000000" font-family="sans-serif" font-size="13" lengthAdjust="spacingAndGlyphs" textLength="24" x="608.871" y="783.1796">0..1</text><!--link CurrencyExchange to Adjustment--><path d="M932.182,187.71 C923.241,198.18 914.588,209.1 907,220 C843.728,310.85 878.134,370.04 794,442 C761.317,469.96 734.645,444 702,472 C634.711,529.713 680.045,593.181 612,650 C585.341,672.261 546.962,682.435 517.442,687.085 " fill="none" id="CurrencyExchange-Adjustment" style="stroke: #A80036; stroke-width: 1.0;"/><polygon fill="#A80036" points="512.412,687.838,521.9048,690.4622,517.357,687.0981,520.721,682.5502,512.412,687.838" style="stroke: #A80036; stroke-width: 1.0;"/><text fill="#000000" font-family="sans-serif" font-size="13" lengthAdjust="spacingAndGlyphs" textLength="74" x="814" y="437.0669">Adjustment</text><text fill="#000000" font-family="sans-serif" font-size="13" lengthAdjust="spacingAndGlyphs" textLength="8" x="520.7126" y="681.4282">1</text><!--link CorporateActionEvent to Tax--><path d="M102.127,126.31 C86.7659,149.89 56.5977,204.87 84,238 C129.274,292.74 172.347,249.74 241,268 C245.586,269.22 250.464,270.77 254.994,272.31 " fill="none" id="CorporateActionEvent-Tax" style="stroke: #A80036; stroke-width: 1.0;"/><polygon fill="#A80036" points="259.741,273.97,252.5677,267.2214,255.0217,272.3182,249.9249,274.7723,259.741,273.97" style="stroke: #A80036; stroke-width: 1.0;"/><text fill="#000000" font-family="sans-serif" font-size="13" lengthAdjust="spacingAndGlyphs" textLength="96" x="85" y="233.0669">TransactionTax</text><text fill="#000000" font-family="sans-serif" font-size="13" lengthAdjust="spacingAndGlyphs" textLength="8" x="243.6844" y="264.5286">1</text><!--link SecuritiesBalance to SecuritiesBalance--><path d="M267.208,889.751 C286.577,889.793 302,892.543 302,898 C302,902.945 289.333,905.667 272.542,906.166 " fill="none" id="SecuritiesBalance-SecuritiesBalance" style="stroke: #A80036; stroke-width: 1.0;"/><polygon fill="#A80036" points="267.208,906.249,276.2697,910.1071,272.2074,906.1704,276.144,902.1081,267.208,906.249" style="stroke: #A80036; stroke-width: 1.0;"/><text fill="#000000" font-family="sans-serif" font-size="13" lengthAdjust="spacingAndGlyphs" textLength="144" x="308" y="902.0669">MainSecuritiesBalance</text><text fill="#000000" font-family="sans-serif" font-size="13" lengthAdjust="spacingAndGlyphs" textLength="24" x="274.9964" y="920.0474">0..1</text><!--link Payment to Tax--><path d="M173.986,575.798 C161.452,559.428 139.36,527.48 131,496 C122.708,464.78 126.213,452.72 141,424 C169.889,367.88 226.907,317.52 255.617,294.39 " fill="none" id="Payment-Tax" style="stroke: #A80036; stroke-width: 1.0;"/><polygon fill="#A80036" points="259.641,291.18,250.11,293.6618,255.7311,294.2965,255.0964,299.9176,259.641,291.18" style="stroke: #A80036; stroke-width: 1.0;"/><text fill="#000000" font-family="sans-serif" font-size="13" lengthAdjust="spacingAndGlyphs" textLength="97" x="142" y="437.0669">TaxOnPayment</text><text fill="#000000" font-family="sans-serif" font-size="13" lengthAdjust="spacingAndGlyphs" textLength="7" x="244.7369" y="288.2999">*</text><!--link Payment to PaymentExecution--><path d="M176.17,600.147 C150.277,643.972 62.9962,807.169 131,912 C203.55,1023.839 366.087,1064.826 457.445,1079.372 " fill="none" id="Payment-PaymentExecution" style="stroke: #A80036; stroke-width: 1.0;"/><polygon fill="#A80036" points="462.549,1080.169,454.2739,1074.8283,457.6089,1079.3976,453.0396,1082.7325,462.549,1080.169" style="stroke: #A80036; stroke-width: 1.0;"/><text fill="#000000" font-family="sans-serif" font-size="13" lengthAdjust="spacingAndGlyphs" textLength="119" x="110" y="849.0669">PaymentExecution</text><text fill="#000000" font-family="sans-serif" font-size="13" lengthAdjust="spacingAndGlyphs" textLength="23" x="431.8008" y="1074.7379">1..*</text><!--link Payment to Payment--><path d="M212.625,578.859 C230.333,576.828 247,579.875 247,588 C247,595.3 233.547,598.501 217.972,597.602 " fill="none" id="Payment-Payment" style="stroke: #A80036; stroke-width: 1.0;"/><polygon fill="#A80036" points="212.625,597.141,221.2477,601.9002,217.6065,597.571,221.9357,593.9298,212.625,597.141" style="stroke: #A80036; stroke-width: 1.0;"/><text fill="#000000" font-family="sans-serif" font-size="13" lengthAdjust="spacingAndGlyphs" textLength="105" x="253" y="592.0669">OriginalPayment</text><text fill="#000000" font-family="sans-serif" font-size="13" lengthAdjust="spacingAndGlyphs" textLength="8" x="221.5273" y="613.7022">1</text><!--link Payment to Invoice--><path d="M170.755,600.219 C162.246,608.449 151.037,620.203 143,632 C129.681,651.55 128.117,657.78 120,680 C57.6307,850.725 80,905.24 80,1087 C80,1087 80,1087 80,1351 C80,1387.5932 119.129,1412.3952 147.683,1425.6224 " fill="none" id="Payment-Invoice" style="stroke: #A80036; stroke-width: 1.0;"/><polygon fill="#A80036" points="152.523,1427.8019,145.9588,1420.4594,147.9639,1425.749,142.6743,1427.7541,152.523,1427.8019" style="stroke: #A80036; stroke-width: 1.0;"/><text fill="#000000" font-family="sans-serif" font-size="13" lengthAdjust="spacingAndGlyphs" textLength="131" x="81" y="1041.0669">InvoiceReconciliation</text><text fill="#000000" font-family="sans-serif" font-size="13" lengthAdjust="spacingAndGlyphs" textLength="7" x="137.7643" y="1419.5638">*</text><!--link Payment to Adjustment--><path d="M199.255,600.082 C219.939,613.706 257.17,636.655 292,650 C316.9,659.54 385.06,673.769 430.531,682.709 " fill="none" id="Payment-Adjustment" style="stroke: #A80036; stroke-width: 1.0;"/><polygon fill="#A80036" points="435.683,683.718,427.6203,678.0618,430.7763,682.7564,426.0817,685.9124,435.683,683.718" style="stroke: #A80036; stroke-width: 1.0;"/><text fill="#000000" font-family="sans-serif" font-size="13" lengthAdjust="spacingAndGlyphs" textLength="81" x="293" y="645.0669">Adjustments</text><text fill="#000000" font-family="sans-serif" font-size="13" lengthAdjust="spacingAndGlyphs" textLength="8" x="419.7395" y="677.1233">1</text><!--link Tax to Adjustment--><path d="M286.288,285.61 C315.955,296.84 385,328.61 385,381 C385,381 385,381 385,589 C385,628.323 423.02,659.816 449.36,676.917 " fill="none" id="Tax-Adjustment" style="stroke: #A80036; stroke-width: 1.0;"/><polygon fill="#A80036" points="453.805,679.739,448.3527,671.537,449.5845,677.0581,444.0633,678.2899,453.805,679.739" style="stroke: #A80036; stroke-width: 1.0;"/><text fill="#000000" font-family="sans-serif" font-size="13" lengthAdjust="spacingAndGlyphs" textLength="74" x="386" y="488.0669">Adjustment</text><text fill="#000000" font-family="sans-serif" font-size="13" lengthAdjust="spacingAndGlyphs" textLength="8" x="436.3763" y="668.956">1</text><!--link Invoice to Invoice--><path d="M201.549,1430.5965 C218.858,1428.2704 236,1430.7383 236,1438 C236,1444.5242 222.163,1447.1788 206.8,1445.9639 " fill="none" id="Invoice-Invoice" style="stroke: #A80036; stroke-width: 1.0;"/><polygon fill="#A80036" points="201.549,1445.4035,210.0729,1450.3374,206.5207,1445.9349,210.9232,1442.3827,201.549,1445.4035" style="stroke: #A80036; stroke-width: 1.0;"/><text fill="#000000" font-family="sans-serif" font-size="13" lengthAdjust="spacingAndGlyphs" textLength="92" x="242" y="1442.0669">OriginalInvoice</text><text fill="#000000" font-family="sans-serif" font-size="13" lengthAdjust="spacingAndGlyphs" textLength="8" x="209.8618" y="1461.8724">1</text><!--link Account to Account--><path d="M489.508,1254.332 C507.181,1252.483 524,1255.039 524,1262 C524,1268.254 510.424,1270.952 494.85,1270.095 " fill="none" id="Account-Account" style="stroke: #A80036; stroke-width: 1.0;"/><polygon fill="#A80036" points="489.508,1269.668,498.1605,1274.3727,494.4921,1270.0666,498.7982,1266.3981,489.508,1269.668" style="stroke: #A80036; stroke-width: 1.0;"/><text fill="#000000" font-family="sans-serif" font-size="13" lengthAdjust="spacingAndGlyphs" textLength="94" x="530" y="1266.0669">ParentAccount</text><text fill="#000000" font-family="sans-serif" font-size="13" lengthAdjust="spacingAndGlyphs" textLength="8" x="497.7741" y="1285.6427">1</text></g></svg>