<?xml version="1.0" encoding="UTF-8" standalone="no"?><svg xmlns="http://www.w3.org/2000/svg" xmlns:xlink="http://www.w3.org/1999/xlink" contentScriptType="application/ecmascript" contentStyleType="text/css" height="604px" preserveAspectRatio="none" style="width:805px;height:604px;" version="1.1" viewBox="0 0 805 604" width="805px" zoomAndPan="magnify"><defs><filter height="300%" id="fk7d89qtsbqbo" width="300%" x="-1" y="-1"><feGaussianBlur result="blurOut" stdDeviation="2.0"/><feColorMatrix in="blurOut" result="blurOut2" type="matrix" values="0 0 0 0 0 0 0 0 0 0 0 0 0 0 0 0 0 0 .4 0"/><feOffset dx="4.0" dy="4.0" in="blurOut2" result="blurOut3"/><feBlend in="SourceGraphic" in2="blurOut3" mode="normal"/></filter></defs><g><!--cluster ##7212--><!--cluster ##7224--><!--cluster ##7233--><!--cluster ##7236--><!--cluster ##7243--><!--class Role--><a target="_top" xlink:actuate="onRequest" xlink:href="../Role.html" xlink:show="new" xlink:title="Role of a party in an activity." xlink:type="simple"><rect fill="#FEFEEE" filter="url(#fk7d89qtsbqbo)" height="44.7734" id="Role" style="stroke: #A80036; stroke-width: 1.5;" width="175" x="54.75" y="40.5"/><rect fill="#FEFEEE" height="23.9688" style="stroke: #A80036; stroke-width: 1.5;" width="175" x="54.75" y="40.5"/><text fill="#000000" font-family="sans-serif" font-size="12" lengthAdjust="spacingAndGlyphs" textLength="27" x="128.75" y="56.6387">Role</text><line style="stroke: #A80036; stroke-width: 1.5;" x1="55.75" x2="228.75" y1="64.4688" y2="64.4688"/><ellipse cx="65.75" cy="76.3711" fill="#84BE84" rx="3" ry="3" style="stroke: #038048; stroke-width: 1.0;"/><text fill="#000000" font-family="sans-serif" font-size="11" lengthAdjust="spacingAndGlyphs" textLength="53" x="74.75" y="78.6792">PartyRole</text><text fill="#000000" font-family="sans-serif" font-size="11" font-style="italic" lengthAdjust="spacingAndGlyphs" textLength="92" x="131.75" y="78.6792">(PartyRoleCode)</text></a><!--class AssetPartyRole--><a target="_top" xlink:actuate="onRequest" xlink:href="../AssetPartyRole.html" xlink:show="new" xlink:title="Specifies roles played by a party that are linked to the handling of assets but not related to a specific process." xlink:type="simple"><rect fill="#FEFEEE" filter="url(#fk7d89qtsbqbo)" height="23.9688" id="AssetPartyRole" style="stroke: #A80036; stroke-width: 1.5;" width="100" x="116" y="166"/><rect fill="#FEFEEE" height="23.9688" style="stroke: #A80036; stroke-width: 1.5;" width="100" x="116" y="166"/><text fill="#000000" font-family="sans-serif" font-size="12" lengthAdjust="spacingAndGlyphs" textLength="94" x="119" y="182.1387">AssetPartyRole</text></a><!--class SecuritiesPartyRole--><a target="_top" xlink:actuate="onRequest" xlink:href="../SecuritiesPartyRole.html" xlink:show="new" xlink:title="Specifies roles played by a party that are linked to the handling of securities but not related to a specific process." xlink:type="simple"><rect fill="#FEFEEE" filter="url(#fk7d89qtsbqbo)" height="23.9688" id="SecuritiesPartyRole" style="stroke: #A80036; stroke-width: 1.5;" width="127" x="102.75" y="270"/><rect fill="#FEFEEE" height="23.9688" style="stroke: #A80036; stroke-width: 1.5;" width="127" x="102.75" y="270"/><text fill="#000000" font-family="sans-serif" font-size="12" lengthAdjust="spacingAndGlyphs" textLength="121" x="105.75" y="286.1387">SecuritiesPartyRole</text></a><!--class CustodianRole--><a target="_top" xlink:actuate="onRequest" xlink:href="../CustodianRole.html" xlink:show="new" xlink:title="The party that safekeeps and administers assets on behalf of the owner." xlink:type="simple"><rect fill="#FEFECE" filter="url(#fk7d89qtsbqbo)" height="23.9688" id="CustodianRole" style="stroke: #A80036; stroke-width: 1.5;" width="96" x="54" y="376"/><rect fill="#FEFECE" height="23.9688" style="stroke: #A80036; stroke-width: 1.5;" width="96" x="54" y="376"/><text fill="#000000" font-family="sans-serif" font-size="12" lengthAdjust="spacingAndGlyphs" textLength="90" x="57" y="392.1387">CustodianRole</text></a><!--class RolePlayer--><a target="_top" xlink:actuate="onRequest" xlink:href="../RolePlayer.html" xlink:show="new" xlink:title="Type of entity that plays a specific role in a specific context." xlink:type="simple"><rect fill="#EEEEEE" filter="url(#fk7d89qtsbqbo)" height="23.9688" id="RolePlayer" style="stroke: #A80036; stroke-width: 1.5;" width="71" x="614.75" y="482"/><rect fill="#EEEEEE" height="23.9688" style="stroke: #A80036; stroke-width: 1.5;" width="71" x="614.75" y="482"/><text fill="#000000" font-family="sans-serif" font-size="12" lengthAdjust="spacingAndGlyphs" textLength="65" x="617.75" y="498.1387">RolePlayer</text></a><!--class ContactPersonRole--><a target="_top" xlink:actuate="onRequest" xlink:href="../ContactPersonRole.html" xlink:show="new" xlink:title="Person to be contacted in a given organisation. In the corporate action domain (including meeting notifications) , it is the contact person at the party organising the meeting, at the issuer or at an intermediary." xlink:type="simple"><rect fill="#EEEEEE" filter="url(#fk7d89qtsbqbo)" height="23.9688" id="ContactPersonRole" style="stroke: #A80036; stroke-width: 1.5;" width="126" x="607" y="376"/><rect fill="#EEEEEE" height="23.9688" style="stroke: #A80036; stroke-width: 1.5;" width="126" x="607" y="376"/><text fill="#000000" font-family="sans-serif" font-size="12" lengthAdjust="spacingAndGlyphs" textLength="120" x="610" y="392.1387">ContactPersonRole</text></a><!--class CounterpartyRisk--><a target="_top" xlink:actuate="onRequest" xlink:href="../CounterpartyRisk.html" xlink:show="new" xlink:title="Calculation of the exposure amount that one party has vis-a-vis one counterparty or a central system, based on its credit risk." xlink:type="simple"><rect fill="#EEEEEE" filter="url(#fk7d89qtsbqbo)" height="23.9688" id="CounterpartyRisk" style="stroke: #A80036; stroke-width: 1.5;" width="113" x="619.75" y="270"/><rect fill="#EEEEEE" height="23.9688" style="stroke: #A80036; stroke-width: 1.5;" width="113" x="619.75" y="270"/><text fill="#000000" font-family="sans-serif" font-size="12" lengthAdjust="spacingAndGlyphs" textLength="107" x="622.75" y="286.1387">CounterpartyRisk</text></a><!--class Entry--><a target="_top" xlink:actuate="onRequest" xlink:href="../Entry.html" xlink:show="new" xlink:title="Posting to an account that results in an increase or decrease to a balance." xlink:type="simple"><rect fill="#EEEEEE" filter="url(#fk7d89qtsbqbo)" height="23.9688" id="Entry" style="stroke: #A80036; stroke-width: 1.5;" width="38" x="607" y="166"/><rect fill="#EEEEEE" height="23.9688" style="stroke: #A80036; stroke-width: 1.5;" width="38" x="607" y="166"/><text fill="#000000" font-family="sans-serif" font-size="12" lengthAdjust="spacingAndGlyphs" textLength="32" x="610" y="182.1387">Entry</text></a><!--class Asset--><a target="_top" xlink:actuate="onRequest" xlink:href="../Asset.html" xlink:show="new" xlink:title="Tangible items of value to a business." xlink:type="simple"><rect fill="#EEEEEE" filter="url(#fk7d89qtsbqbo)" height="23.9688" id="Asset" style="stroke: #A80036; stroke-width: 1.5;" width="41" x="286.75" y="270"/><rect fill="#EEEEEE" height="23.9688" style="stroke: #A80036; stroke-width: 1.5;" width="41" x="286.75" y="270"/><text fill="#000000" font-family="sans-serif" font-size="12" lengthAdjust="spacingAndGlyphs" textLength="35" x="289.75" y="286.1387">Asset</text></a><!--class SecuritiesAccount--><a target="_top" xlink:actuate="onRequest" xlink:href="../SecuritiesAccount.html" xlink:show="new" xlink:title="Account to or from which a securities entry is made." xlink:type="simple"><rect fill="#EEEEEE" filter="url(#fk7d89qtsbqbo)" height="23.9688" id="SecuritiesAccount" style="stroke: #A80036; stroke-width: 1.5;" width="119" x="310.75" y="376"/><rect fill="#EEEEEE" height="23.9688" style="stroke: #A80036; stroke-width: 1.5;" width="119" x="310.75" y="376"/><text fill="#000000" font-family="sans-serif" font-size="12" lengthAdjust="spacingAndGlyphs" textLength="113" x="313.75" y="392.1387">SecuritiesAccount</text></a><!--class CashAccount--><a target="_top" xlink:actuate="onRequest" xlink:href="../CashAccount.html" xlink:show="new" xlink:title="Account to or from which a cash entry is made." xlink:type="simple"><rect fill="#EEEEEE" filter="url(#fk7d89qtsbqbo)" height="23.9688" id="CashAccount" style="stroke: #A80036; stroke-width: 1.5;" width="88" x="342.5" y="570"/><rect fill="#EEEEEE" height="23.9688" style="stroke: #A80036; stroke-width: 1.5;" width="88" x="342.5" y="570"/><text fill="#000000" font-family="sans-serif" font-size="12" lengthAdjust="spacingAndGlyphs" textLength="82" x="345.5" y="586.1387">CashAccount</text></a><!--class Security--><a target="_top" xlink:actuate="onRequest" xlink:href="../Security.html" xlink:show="new" xlink:title="Financial instruments representing a sum of rights of the investor vis-a-vis the issuer." xlink:type="simple"><rect fill="#EEEEEE" filter="url(#fk7d89qtsbqbo)" height="23.9688" id="Security" style="stroke: #A80036; stroke-width: 1.5;" width="56" x="314.5" y="482"/><rect fill="#EEEEEE" height="23.9688" style="stroke: #A80036; stroke-width: 1.5;" width="56" x="314.5" y="482"/><text fill="#000000" font-family="sans-serif" font-size="12" lengthAdjust="spacingAndGlyphs" textLength="50" x="317.5" y="498.1387">Security</text></a><!--class InvestmentFund--><a target="_top" xlink:actuate="onRequest" xlink:href="../InvestmentFund.html" xlink:show="new" xlink:title="Distinct pool of financial instruments managed by a single investment policy. May or not be part of an umbrella fund. The pool is issued in at least one investment fund class." xlink:type="simple"><rect fill="#EEEEEE" filter="url(#fk7d89qtsbqbo)" height="23.9688" id="InvestmentFund" style="stroke: #A80036; stroke-width: 1.5;" width="106" x="38.5" y="482"/><rect fill="#EEEEEE" height="23.9688" style="stroke: #A80036; stroke-width: 1.5;" width="106" x="38.5" y="482"/><text fill="#000000" font-family="sans-serif" font-size="12" lengthAdjust="spacingAndGlyphs" textLength="100" x="41.5" y="498.1387">InvestmentFund</text></a><!--link Role to AssetPartyRole--><path d="M150.755,105.222 C155.36,126.901 160.653,151.825 163.635,165.865 " fill="none" id="Role-AssetPartyRole" style="stroke: #A80036; stroke-width: 1.0;"/><polygon fill="none" points="143.879,106.538,146.571,85.52,157.573,103.63,143.879,106.538" style="stroke: #A80036; stroke-width: 1.0;"/><!--link AssetPartyRole to SecuritiesPartyRole--><path d="M166,210.595 C166,230.825 166,255.843 166,269.954 " fill="none" id="AssetPartyRole-SecuritiesPartyRole" style="stroke: #A80036; stroke-width: 1.0;"/><polygon fill="none" points="159,210.306,166,190.306,173,210.305,159,210.306" style="stroke: #A80036; stroke-width: 1.0;"/><!--link SecuritiesPartyRole to CustodianRole--><path d="M148.622,311.239 C135.502,332.559 118.204,360.669 108.8,375.95 " fill="none" id="SecuritiesPartyRole-CustodianRole" style="stroke: #A80036; stroke-width: 1.0;"/><polygon fill="none" points="142.707,307.494,159.151,294.13,154.63,314.832,142.707,307.494" style="stroke: #A80036; stroke-width: 1.0;"/><!--link ContactPersonRole to RolePlayer--><!--link CounterpartyRisk to ContactPersonRole--><!--link Entry to CounterpartyRisk--><!--link CashAccount to SecuritiesAccount--><!--link Security to CashAccount--><!--link Role to RolePlayer--><path d="M167.54,85.568 C257.297,161.367 556.92,414.395 632.547,478.261 " fill="none" id="Role-RolePlayer" style="stroke: #A80036; stroke-width: 1.0;"/><polygon fill="#A80036" points="636.796,481.85,632.5004,472.9873,632.9758,478.6241,627.339,479.0996,636.796,481.85" style="stroke: #A80036; stroke-width: 1.0;"/><text fill="#000000" font-family="sans-serif" font-size="13" lengthAdjust="spacingAndGlyphs" textLength="39" x="442" y="286.0669">Player</text><text fill="#000000" font-family="sans-serif" font-size="13" lengthAdjust="spacingAndGlyphs" textLength="7" x="622.6243" y="470.8467">*</text><!--link Role to ContactPersonRole--><path d="M229.335,67.041 C320.746,71.893 456.518,84.345 497,116 C543.162,152.097 519.131,186.452 547,238 C567.52,275.956 574.528,284.728 602,318 C618.444,337.916 639.628,358.767 653.949,372.264 " fill="none" id="Role-ContactPersonRole" style="stroke: #A80036; stroke-width: 1.0;"/><polygon fill="#A80036" points="657.796,375.869,653.9633,366.7965,654.1473,372.4503,648.4935,372.6343,657.796,375.869" style="stroke: #A80036; stroke-width: 1.0;"/><text fill="#000000" font-family="sans-serif" font-size="13" lengthAdjust="spacingAndGlyphs" textLength="121" x="548" y="233.0669">ContactPersonRole</text><text fill="#000000" font-family="sans-serif" font-size="13" lengthAdjust="spacingAndGlyphs" textLength="8" x="642.8821" y="364.8722">1</text><!--link Role to CounterpartyRisk--><path d="M229.344,64.622 C353.995,66.914 575.434,76.608 644,116 C675.002,133.811 689.731,218.401 690,220 C692.586,235.376 687.874,252.681 683.233,264.921 " fill="none" id="Role-CounterpartyRisk" style="stroke: #A80036; stroke-width: 1.0;"/><polygon fill="#A80036" points="681.27,269.837,688.322,262.9618,683.124,265.1934,680.8923,259.9954,681.27,269.837" style="stroke: #A80036; stroke-width: 1.0;"/><text fill="#000000" font-family="sans-serif" font-size="13" lengthAdjust="spacingAndGlyphs" textLength="109" x="684" y="182.0669">CounterpartyRisk</text><text fill="#000000" font-family="sans-serif" font-size="13" lengthAdjust="spacingAndGlyphs" textLength="24" x="653.5269" y="258.8292">0..1</text><!--link Role to Entry--><path d="M229.297,66.336 C339.603,70.649 522.066,82.72 580,116 C597.98,126.329 611.154,146.79 618.687,161.157 " fill="none" id="Role-Entry" style="stroke: #A80036; stroke-width: 1.0;"/><polygon fill="#A80036" points="621.024,165.772,620.5278,155.9357,618.7657,161.3111,613.3903,159.549,621.024,165.772" style="stroke: #A80036; stroke-width: 1.0;"/><text fill="#000000" font-family="sans-serif" font-size="13" lengthAdjust="spacingAndGlyphs" textLength="33" x="601" y="129.0669">Entry</text><text fill="#000000" font-family="sans-serif" font-size="13" lengthAdjust="spacingAndGlyphs" textLength="8" x="608.7195" y="154.9999">1</text><!--link AssetPartyRole to Asset--><path d="M181.358,190.11 C207.103,208.734 258.932,246.227 287.315,266.76 " fill="none" id="AssetPartyRole-Asset" style="stroke: #A80036; stroke-width: 1.0;"/><polygon fill="#A80036" points="291.661,269.904,286.7143,261.3875,287.6102,266.973,282.0247,267.8689,291.661,269.904" style="stroke: #A80036; stroke-width: 1.0;"/><text fill="#000000" font-family="sans-serif" font-size="13" lengthAdjust="spacingAndGlyphs" textLength="36" x="246" y="233.0669">Asset</text><text fill="#000000" font-family="sans-serif" font-size="13" lengthAdjust="spacingAndGlyphs" textLength="7" x="276.7554" y="258.9192">*</text><!--link SecuritiesPartyRole to SecuritiesAccount--><path d="M187.832,294.13 C225.562,313.365 302.828,352.756 343.546,373.514 " fill="none" id="SecuritiesPartyRole-SecuritiesAccount" style="stroke: #A80036; stroke-width: 1.0;"/><polygon fill="#A80036" points="348.325,375.95,342.1244,368.298,343.8707,373.6786,338.4902,375.4249,348.325,375.95" style="stroke: #A80036; stroke-width: 1.0;"/><text fill="#000000" font-family="sans-serif" font-size="13" lengthAdjust="spacingAndGlyphs" textLength="115" x="282" y="339.0669">SecuritiesAccount</text><text fill="#000000" font-family="sans-serif" font-size="13" lengthAdjust="spacingAndGlyphs" textLength="7" x="331.2414" y="364.981">*</text><!--link SecuritiesPartyRole to CashAccount--><path d="M192.406,294.069 C213.118,302.213 242.881,312.743 270,318 C299.939,323.804 378.082,316.315 407,326 C426.754,332.616 436.17,333.633 446,352 C485.507,425.819 424.141,527.1678 397.428,565.4846 " fill="none" id="SecuritiesPartyRole-CashAccount" style="stroke: #A80036; stroke-width: 1.0;"/><polygon fill="#A80036" points="394.352,569.8388,402.8128,564.7975,397.2377,565.7556,396.2797,560.1804,394.352,569.8388" style="stroke: #A80036; stroke-width: 1.0;"/><text fill="#000000" font-family="sans-serif" font-size="13" lengthAdjust="spacingAndGlyphs" textLength="84" x="458" y="445.0669">CashAccount</text><text fill="#000000" font-family="sans-serif" font-size="13" lengthAdjust="spacingAndGlyphs" textLength="7" x="387.5042" y="558.8316">*</text><!--link SecuritiesPartyRole to Security--><path d="M169.449,294.02 C177.809,319.365 201.217,382.779 238,424 C259.415,447.999 290.963,467.366 313.692,479.403 " fill="none" id="SecuritiesPartyRole-Security" style="stroke: #A80036; stroke-width: 1.0;"/><polygon fill="#A80036" points="318.401,481.86,312.2701,474.1521,313.9675,479.5482,308.5713,481.2456,318.401,481.86" style="stroke: #A80036; stroke-width: 1.0;"/><text fill="#000000" font-family="sans-serif" font-size="13" lengthAdjust="spacingAndGlyphs" textLength="52" x="239" y="392.0669">Security</text><text fill="#000000" font-family="sans-serif" font-size="13" lengthAdjust="spacingAndGlyphs" textLength="7" x="300.5701" y="470.8601">*</text><!--link CustodianRole to InvestmentFund--><path d="M97.3231,400.078 C93.9801,408.625 89.7719,420.834 88,432 C85.6153,447.027 86.8467,464.375 88.3895,476.719 " fill="none" id="CustodianRole-InvestmentFund" style="stroke: #A80036; stroke-width: 1.0;"/><polygon fill="#A80036" points="89.0602,481.682,91.8208,472.228,88.3916,476.7269,83.8927,473.2977,89.0602,481.682" style="stroke: #A80036; stroke-width: 1.0;"/><text fill="#000000" font-family="sans-serif" font-size="13" lengthAdjust="spacingAndGlyphs" textLength="103" x="89" y="445.0669">InvestmentFund</text><text fill="#000000" font-family="sans-serif" font-size="13" lengthAdjust="spacingAndGlyphs" textLength="8" x="77.5958" y="470.8801">1</text><!--link SecuritiesAccount to Security--><path d="M360.149,400.121 C353.591,408.305 345.55,420.044 342,432 C337.622,446.746 338.212,464.396 339.542,476.908 " fill="none" id="SecuritiesAccount-Security" style="stroke: #A80036; stroke-width: 1.0;"/><polygon fill="#A80036" points="340.145,481.932,343.0445,472.5196,339.5494,476.9676,335.1015,473.4725,340.145,481.932" style="stroke: #A80036; stroke-width: 1.0;"/><text fill="#000000" font-family="sans-serif" font-size="13" lengthAdjust="spacingAndGlyphs" textLength="52" x="343" y="445.0669">Security</text><text fill="#000000" font-family="sans-serif" font-size="13" lengthAdjust="spacingAndGlyphs" textLength="7" x="329.7886" y="470.9568">*</text></g></svg>