<?xml version="1.0" encoding="UTF-8" standalone="no"?><svg xmlns="http://www.w3.org/2000/svg" xmlns:xlink="http://www.w3.org/1999/xlink" contentScriptType="application/ecmascript" contentStyleType="text/css" height="498px" preserveAspectRatio="none" style="width:770px;height:498px;" version="1.1" viewBox="0 0 770 498" width="770px" zoomAndPan="magnify"><defs><filter height="300%" id="f15pg43fl1x9j0" width="300%" x="-1" y="-1"><feGaussianBlur result="blurOut" stdDeviation="2.0"/><feColorMatrix in="blurOut" result="blurOut2" type="matrix" values="0 0 0 0 0 0 0 0 0 0 0 0 0 0 0 0 0 0 .4 0"/><feOffset dx="4.0" dy="4.0" in="blurOut2" result="blurOut3"/><feBlend in="SourceGraphic" in2="blurOut3" mode="normal"/></filter></defs><g><!--cluster ##15727--><!--cluster ##15736--><!--cluster ##15745--><!--class Role--><a target="_top" xlink:actuate="onRequest" xlink:href="../Role.html" xlink:show="new" xlink:title="Role of a party in an activity." xlink:type="simple"><rect fill="#FEFEEE" filter="url(#f15pg43fl1x9j0)" height="44.7734" id="Role" style="stroke: #A80036; stroke-width: 1.5;" width="175" x="106.75" y="40.5"/><rect fill="#FEFEEE" height="23.9688" style="stroke: #A80036; stroke-width: 1.5;" width="175" x="106.75" y="40.5"/><text fill="#000000" font-family="sans-serif" font-size="12" lengthAdjust="spacingAndGlyphs" textLength="27" x="180.75" y="56.6387">Role</text><line style="stroke: #A80036; stroke-width: 1.5;" x1="107.75" x2="280.75" y1="64.4688" y2="64.4688"/><ellipse cx="117.75" cy="76.3711" fill="#84BE84" rx="3" ry="3" style="stroke: #038048; stroke-width: 1.0;"/><text fill="#000000" font-family="sans-serif" font-size="11" lengthAdjust="spacingAndGlyphs" textLength="53" x="126.75" y="78.6792">PartyRole</text><text fill="#000000" font-family="sans-serif" font-size="11" font-style="italic" lengthAdjust="spacingAndGlyphs" textLength="92" x="183.75" y="78.6792">(PartyRoleCode)</text></a><!--class TaxPartyRole--><a target="_top" xlink:actuate="onRequest" xlink:href="../TaxPartyRole.html" xlink:show="new" xlink:title="Role played by a party in the context of a tax due." xlink:type="simple"><rect fill="#FEFEEE" filter="url(#f15pg43fl1x9j0)" height="44.7734" id="TaxPartyRole" style="stroke: #A80036; stroke-width: 1.5;" width="234" x="48" y="164.5"/><rect fill="#FEFEEE" height="23.9688" style="stroke: #A80036; stroke-width: 1.5;" width="234" x="48" y="164.5"/><text fill="#000000" font-family="sans-serif" font-size="12" lengthAdjust="spacingAndGlyphs" textLength="80" x="125" y="180.6387">TaxPartyRole</text><line style="stroke: #A80036; stroke-width: 1.5;" x1="49" x2="281" y1="188.4688" y2="188.4688"/><ellipse cx="59" cy="200.3711" fill="#84BE84" rx="3" ry="3" style="stroke: #038048; stroke-width: 1.0;"/><text fill="#000000" font-family="sans-serif" font-size="11" lengthAdjust="spacingAndGlyphs" textLength="134" x="68" y="202.6792">VATRegistrationNumber</text><text fill="#000000" font-family="sans-serif" font-size="11" font-style="italic" lengthAdjust="spacingAndGlyphs" textLength="70" x="206" y="202.6792">(Max35Text)</text></a><!--class DebitSideTaxDebtor--><a target="_top" xlink:actuate="onRequest" xlink:href="../DebitSideTaxDebtor.html" xlink:show="new" xlink:title="Party on the debit side of the transaction to which the tax applies." xlink:type="simple"><rect fill="#FEFECE" filter="url(#f15pg43fl1x9j0)" height="23.9688" id="DebitSideTaxDebtor" style="stroke: #A80036; stroke-width: 1.5;" width="130" x="100" y="290"/><rect fill="#FEFECE" height="23.9688" style="stroke: #A80036; stroke-width: 1.5;" width="130" x="100" y="290"/><text fill="#000000" font-family="sans-serif" font-size="12" lengthAdjust="spacingAndGlyphs" textLength="124" x="103" y="306.1387">DebitSideTaxDebtor</text></a><!--class RolePlayer--><a target="_top" xlink:actuate="onRequest" xlink:href="../RolePlayer.html" xlink:show="new" xlink:title="Type of entity that plays a specific role in a specific context." xlink:type="simple"><rect fill="#EEEEEE" filter="url(#f15pg43fl1x9j0)" height="23.9688" id="RolePlayer" style="stroke: #A80036; stroke-width: 1.5;" width="71" x="579.75" y="464"/><rect fill="#EEEEEE" height="23.9688" style="stroke: #A80036; stroke-width: 1.5;" width="71" x="579.75" y="464"/><text fill="#000000" font-family="sans-serif" font-size="12" lengthAdjust="spacingAndGlyphs" textLength="65" x="582.75" y="480.1387">RolePlayer</text></a><!--class ContactPersonRole--><a target="_top" xlink:actuate="onRequest" xlink:href="../ContactPersonRole.html" xlink:show="new" xlink:title="Person to be contacted in a given organisation. In the corporate action domain (including meeting notifications) , it is the contact person at the party organising the meeting, at the issuer or at an intermediary." xlink:type="simple"><rect fill="#EEEEEE" filter="url(#f15pg43fl1x9j0)" height="23.9688" id="ContactPersonRole" style="stroke: #A80036; stroke-width: 1.5;" width="126" x="572" y="378"/><rect fill="#EEEEEE" height="23.9688" style="stroke: #A80036; stroke-width: 1.5;" width="126" x="572" y="378"/><text fill="#000000" font-family="sans-serif" font-size="12" lengthAdjust="spacingAndGlyphs" textLength="120" x="575" y="394.1387">ContactPersonRole</text></a><!--class CounterpartyRisk--><a target="_top" xlink:actuate="onRequest" xlink:href="../CounterpartyRisk.html" xlink:show="new" xlink:title="Calculation of the exposure amount that one party has vis-a-vis one counterparty or a central system, based on its credit risk." xlink:type="simple"><rect fill="#EEEEEE" filter="url(#f15pg43fl1x9j0)" height="23.9688" id="CounterpartyRisk" style="stroke: #A80036; stroke-width: 1.5;" width="113" x="584.75" y="290"/><rect fill="#EEEEEE" height="23.9688" style="stroke: #A80036; stroke-width: 1.5;" width="113" x="584.75" y="290"/><text fill="#000000" font-family="sans-serif" font-size="12" lengthAdjust="spacingAndGlyphs" textLength="107" x="587.75" y="306.1387">CounterpartyRisk</text></a><!--class Entry--><a target="_top" xlink:actuate="onRequest" xlink:href="../Entry.html" xlink:show="new" xlink:title="Posting to an account that results in an increase or decrease to a balance." xlink:type="simple"><rect fill="#EEEEEE" filter="url(#f15pg43fl1x9j0)" height="23.9688" id="Entry" style="stroke: #A80036; stroke-width: 1.5;" width="38" x="572" y="175"/><rect fill="#EEEEEE" height="23.9688" style="stroke: #A80036; stroke-width: 1.5;" width="38" x="572" y="175"/><text fill="#000000" font-family="sans-serif" font-size="12" lengthAdjust="spacingAndGlyphs" textLength="32" x="575" y="191.1387">Entry</text></a><!--class Tax--><a target="_top" xlink:actuate="onRequest" xlink:href="../Tax.html" xlink:show="new" xlink:title="Amount of money due to the government or tax authority, according to various pre-defined parameters such as thresholds or income." xlink:type="simple"><rect fill="#EEEEEE" filter="url(#f15pg43fl1x9j0)" height="23.9688" id="Tax" style="stroke: #A80036; stroke-width: 1.5;" width="27" x="338.75" y="290"/><rect fill="#EEEEEE" height="23.9688" style="stroke: #A80036; stroke-width: 1.5;" width="27" x="338.75" y="290"/><text fill="#000000" font-family="sans-serif" font-size="12" lengthAdjust="spacingAndGlyphs" textLength="21" x="341.75" y="306.1387">Tax</text></a><!--entity ##15748--><!--link Role to TaxPartyRole--><path d="M184.254,105 C179.538,124.842 174.066,147.859 170.164,164.275 " fill="none" id="Role-TaxPartyRole" style="stroke: #A80036; stroke-width: 1.0;"/><polygon fill="none" points="177.447,103.369,188.882,85.53,191.067,106.607,177.447,103.369" style="stroke: #A80036; stroke-width: 1.0;"/><!--link TaxPartyRole to DebitSideTaxDebtor--><path d="M165,229.559 C165,251.159 165,275.898 165,289.865 " fill="none" id="TaxPartyRole-DebitSideTaxDebtor" style="stroke: #A80036; stroke-width: 1.0;"/><polygon fill="none" points="158,229.52,165,209.52,172,229.52,158,229.52" style="stroke: #A80036; stroke-width: 1.0;"/><!--link ContactPersonRole to RolePlayer--><!--link CounterpartyRisk to ContactPersonRole--><!--link Entry to CounterpartyRisk--><!--link Role to RolePlayer--><path d="M281.368,72.635 C350.686,84.882 436,114.483 436,186 C436,186 436,186 436,391 C436,451.8572 521.842,468.7099 574.634,473.3199 " fill="none" id="Role-RolePlayer" style="stroke: #A80036; stroke-width: 1.0;"/><polygon fill="#A80036" points="579.635,473.7288,570.9919,469.0068,574.6517,473.3202,570.3382,476.98,579.635,473.7288" style="stroke: #A80036; stroke-width: 1.0;"/><text fill="#000000" font-family="sans-serif" font-size="13" lengthAdjust="spacingAndGlyphs" textLength="39" x="437" y="306.0669">Player</text><text fill="#000000" font-family="sans-serif" font-size="13" lengthAdjust="spacingAndGlyphs" textLength="7" x="564.7402" y="467.9585">*</text><!--link Role to ContactPersonRole--><path d="M281.309,71.569 C348.865,79.101 435.267,92.932 462,116 C512.656,159.712 481.673,198.359 512,258 C531.557,296.461 537.125,306.868 567,338 C580.704,352.281 598.714,365.597 612.757,375.039 " fill="none" id="Role-ContactPersonRole" style="stroke: #A80036; stroke-width: 1.0;"/><polygon fill="#A80036" points="616.978,377.842,611.6906,369.5328,612.8118,375.0774,607.2672,376.1987,616.978,377.842" style="stroke: #A80036; stroke-width: 1.0;"/><text fill="#000000" font-family="sans-serif" font-size="13" lengthAdjust="spacingAndGlyphs" textLength="121" x="513" y="253.0669">ContactPersonRole</text><text fill="#000000" font-family="sans-serif" font-size="13" lengthAdjust="spacingAndGlyphs" textLength="8" x="600.0642" y="366.8359">1</text><!--link Role to CounterpartyRisk--><path d="M281.402,66.157 C386.4,70.249 554.939,82.054 607,116 C638.476,136.524 653.488,236.423 654,240 C656.201,255.382 651.85,272.686 647.6,284.924 " fill="none" id="Role-CounterpartyRisk" style="stroke: #A80036; stroke-width: 1.0;"/><polygon fill="#A80036" points="645.805,289.839,652.6508,282.7584,647.5209,285.1427,645.1366,280.0128,645.805,289.839" style="stroke: #A80036; stroke-width: 1.0;"/><text fill="#000000" font-family="sans-serif" font-size="13" lengthAdjust="spacingAndGlyphs" textLength="109" x="649" y="191.0669">CounterpartyRisk</text><text fill="#000000" font-family="sans-serif" font-size="13" lengthAdjust="spacingAndGlyphs" textLength="24" x="617.902" y="278.8319">0..1</text><!--link Role to Entry--><path d="M281.326,68.817 C370.751,75.162 502.489,88.857 545,116 C564.994,128.766 578.185,153.685 585.124,170.086 " fill="none" id="Role-Entry" style="stroke: #A80036; stroke-width: 1.0;"/><polygon fill="#A80036" points="587.078,174.879,587.3852,165.0349,585.1908,170.2488,579.9769,168.0545,587.078,174.879" style="stroke: #A80036; stroke-width: 1.0;"/><text fill="#000000" font-family="sans-serif" font-size="13" lengthAdjust="spacingAndGlyphs" textLength="33" x="564" y="129.0669">Entry</text><text fill="#000000" font-family="sans-serif" font-size="13" lengthAdjust="spacingAndGlyphs" textLength="8" x="575.0111" y="163.8856">1</text><!--link TaxPartyRole to Tax--><path d="M202.817,209.578 C229.581,224.995 266.219,246.395 298,266 C310.147,273.493 323.618,282.224 334.067,289.091 " fill="none" id="TaxPartyRole-Tax" style="stroke: #A80036; stroke-width: 1.0;"/><polygon fill="#A80036" points="338.347,291.91,333.0306,283.6193,334.1712,289.1599,328.6305,290.3005,338.347,291.91" style="stroke: #A80036; stroke-width: 1.0;"/><text fill="#000000" font-family="sans-serif" font-size="13" lengthAdjust="spacingAndGlyphs" textLength="22" x="285" y="253.0669">Tax</text><text fill="#000000" font-family="sans-serif" font-size="13" lengthAdjust="spacingAndGlyphs" textLength="7" x="323.7909" y="281.3834">*</text></g></svg>