<?xml version="1.0" encoding="UTF-8" standalone="no"?><svg xmlns="http://www.w3.org/2000/svg" xmlns:xlink="http://www.w3.org/1999/xlink" contentScriptType="application/ecmascript" contentStyleType="text/css" height="862px" preserveAspectRatio="none" style="width:1397px;height:862px;" version="1.1" viewBox="0 0 1397 862" width="1397px" zoomAndPan="magnify"><defs><filter height="300%" id="f1wjxdylljny39" width="300%" x="-1" y="-1"><feGaussianBlur result="blurOut" stdDeviation="2.0"/><feColorMatrix in="blurOut" result="blurOut2" type="matrix" values="0 0 0 0 0 0 0 0 0 0 0 0 0 0 0 0 0 0 .4 0"/><feOffset dx="4.0" dy="4.0" in="blurOut2" result="blurOut3"/><feBlend in="SourceGraphic" in2="blurOut3" mode="normal"/></filter></defs><g><!--cluster ##8638--><!--cluster ##8647--><!--cluster ##8656--><!--cluster ##8665--><!--class AccountService--><a target="_top" xlink:actuate="onRequest" xlink:href="../AccountService.html" xlink:show="new" xlink:title="Services linked to an account which are available to the account owner or to the holder of a mandate." xlink:type="simple"><rect fill="#FEFEEE" filter="url(#f1wjxdylljny39)" height="23.9688" id="AccountService" style="stroke: #A80036; stroke-width: 1.5;" width="102" x="1004.5" y="40"/><rect fill="#FEFEEE" height="23.9688" style="stroke: #A80036; stroke-width: 1.5;" width="102" x="1004.5" y="40"/><text fill="#000000" font-family="sans-serif" font-size="12" lengthAdjust="spacingAndGlyphs" textLength="96" x="1007.5" y="56.1387">AccountService</text></a><!--class CashAccountService--><a target="_top" xlink:actuate="onRequest" xlink:href="../CashAccountService.html" xlink:show="new" xlink:title="Services linked to an account which are available to the account owner or to the holder of a mandate. The exercise of these services may be submitted to a limit." xlink:type="simple"><rect fill="#FEFEEE" filter="url(#f1wjxdylljny39)" height="83.1875" id="CashAccountService" style="stroke: #A80036; stroke-width: 1.5;" width="312" x="1004" y="142.5"/><rect fill="#FEFEEE" height="23.9688" style="stroke: #A80036; stroke-width: 1.5;" width="312" x="1004" y="142.5"/><text fill="#000000" font-family="sans-serif" font-size="12" lengthAdjust="spacingAndGlyphs" textLength="127" x="1096.5" y="158.6387">CashAccountService</text><line style="stroke: #A80036; stroke-width: 1.5;" x1="1005" x2="1315" y1="166.4688" y2="166.4688"/><ellipse cx="1015" cy="178.3711" fill="#84BE84" rx="3" ry="3" style="stroke: #038048; stroke-width: 1.0;"/><text fill="#000000" font-family="sans-serif" font-size="11" lengthAdjust="spacingAndGlyphs" textLength="123" x="1024" y="180.6792">CompensationMethod</text><text fill="#000000" font-family="sans-serif" font-size="11" font-style="italic" lengthAdjust="spacingAndGlyphs" textLength="159" x="1151" y="180.6792">(CompensationMethodCode)</text><ellipse cx="1015" cy="191.1758" fill="#84BE84" rx="3" ry="3" style="stroke: #038048; stroke-width: 1.0;"/><text fill="#000000" font-family="sans-serif" font-size="11" lengthAdjust="spacingAndGlyphs" textLength="85" x="1024" y="193.4839">BillingCurrency</text><text fill="#000000" font-family="sans-serif" font-size="11" font-style="italic" lengthAdjust="spacingAndGlyphs" textLength="151" x="1113" y="193.4839">(BillingCurrencyTypeCode)</text><ellipse cx="1015" cy="203.9805" fill="#84BE84" rx="3" ry="3" style="stroke: #038048; stroke-width: 1.0;"/><text fill="#000000" font-family="sans-serif" font-size="11" lengthAdjust="spacingAndGlyphs" textLength="116" x="1024" y="206.2886">BillingChargeMethod</text><text fill="#000000" font-family="sans-serif" font-size="11" font-style="italic" lengthAdjust="spacingAndGlyphs" textLength="153" x="1144" y="206.2886">(BillingChargeMethodCode)</text><ellipse cx="1015" cy="216.7852" fill="#84BE84" rx="3" ry="3" style="stroke: #038048; stroke-width: 1.0;"/><text fill="#000000" font-family="sans-serif" font-size="11" lengthAdjust="spacingAndGlyphs" textLength="90" x="1024" y="219.0933">PaymentMethod</text><text fill="#000000" font-family="sans-serif" font-size="11" font-style="italic" lengthAdjust="spacingAndGlyphs" textLength="170" x="1118" y="219.0933">(ServicePaymentMethodCode)</text></a><!--class DebitCreditFacility--><a target="_top" xlink:actuate="onRequest" xlink:href="../DebitCreditFacility.html" xlink:show="new" xlink:title="Specifies the conditions for overdraft on the account or for positive amounts." xlink:type="simple"><rect fill="#FEFECE" filter="url(#f1wjxdylljny39)" height="44.7734" id="DebitCreditFacility" style="stroke: #A80036; stroke-width: 1.5;" width="242" x="1074.5" y="304.5"/><rect fill="#FEFECE" height="23.9688" style="stroke: #A80036; stroke-width: 1.5;" width="242" x="1074.5" y="304.5"/><text fill="#000000" font-family="sans-serif" font-size="12" lengthAdjust="spacingAndGlyphs" textLength="112" x="1139.5" y="320.6387">DebitCreditFacility</text><line style="stroke: #A80036; stroke-width: 1.5;" x1="1075.5" x2="1315.5" y1="328.4688" y2="328.4688"/><ellipse cx="1085.5" cy="340.3711" fill="#84BE84" rx="3" ry="3" style="stroke: #038048; stroke-width: 1.0;"/><text fill="#000000" font-family="sans-serif" font-size="11" lengthAdjust="spacingAndGlyphs" textLength="112" x="1094.5" y="342.6792">CreditDebitIndicator</text><text fill="#000000" font-family="sans-serif" font-size="11" font-style="italic" lengthAdjust="spacingAndGlyphs" textLength="100" x="1210.5" y="342.6792">(DebitCreditCode)</text></a><!--class AccountContract--><a target="_top" xlink:actuate="onRequest" xlink:href="../AccountContract.html" xlink:show="new" xlink:title="Agreement between an account servicer and an account owner about the services linked to an account." xlink:type="simple"><rect fill="#EEEEEE" filter="url(#f1wjxdylljny39)" height="23.9688" id="AccountContract" style="stroke: #A80036; stroke-width: 1.5;" width="111" x="137.75" y="172"/><rect fill="#EEEEEE" height="23.9688" style="stroke: #A80036; stroke-width: 1.5;" width="111" x="137.75" y="172"/><text fill="#000000" font-family="sans-serif" font-size="12" lengthAdjust="spacingAndGlyphs" textLength="105" x="140.75" y="188.1387">AccountContract</text></a><!--class Reservation--><a target="_top" xlink:actuate="onRequest" xlink:href="../Reservation.html" xlink:show="new" xlink:title="Liquidity set aside by the payer for specific purposes." xlink:type="simple"><rect fill="#EEEEEE" filter="url(#f1wjxdylljny39)" height="23.9688" id="Reservation" style="stroke: #A80036; stroke-width: 1.5;" width="80" x="261" y="430"/><rect fill="#EEEEEE" height="23.9688" style="stroke: #A80036; stroke-width: 1.5;" width="80" x="261" y="430"/><text fill="#000000" font-family="sans-serif" font-size="12" lengthAdjust="spacingAndGlyphs" textLength="74" x="264" y="446.1387">Reservation</text></a><!--class Account--><a target="_top" xlink:actuate="onRequest" xlink:href="../Account.html" xlink:show="new" xlink:title="Record of transactions in specific types of assets, maintained by a servicing party on behalf of one or more owning parties. Business relationship between an account servicer and one or more account owners." xlink:type="simple"><rect fill="#EEEEEE" filter="url(#f1wjxdylljny39)" height="23.9688" id="Account" style="stroke: #A80036; stroke-width: 1.5;" width="57" x="121.75" y="315"/><rect fill="#EEEEEE" height="23.9688" style="stroke: #A80036; stroke-width: 1.5;" width="57" x="121.75" y="315"/><text fill="#000000" font-family="sans-serif" font-size="12" lengthAdjust="spacingAndGlyphs" textLength="51" x="124.75" y="331.1387">Account</text></a><!--class Charges--><a target="_top" xlink:actuate="onRequest" xlink:href="../Charges.html" xlink:show="new" xlink:title="Amount of money associated with a service." xlink:type="simple"><rect fill="#EEEEEE" filter="url(#f1wjxdylljny39)" height="23.9688" id="Charges" style="stroke: #A80036; stroke-width: 1.5;" width="58" x="283.5" y="172"/><rect fill="#EEEEEE" height="23.9688" style="stroke: #A80036; stroke-width: 1.5;" width="58" x="283.5" y="172"/><text fill="#000000" font-family="sans-serif" font-size="12" lengthAdjust="spacingAndGlyphs" textLength="52" x="286.5" y="188.1387">Charges</text></a><!--class CashAccountMandate--><a target="_top" xlink:actuate="onRequest" xlink:href="../CashAccountMandate.html" xlink:show="new" xlink:title="Authorisation given to a mandate holder to perform some operation on an account." xlink:type="simple"><rect fill="#EEEEEE" filter="url(#f1wjxdylljny39)" height="23.9688" id="CashAccountMandate" style="stroke: #A80036; stroke-width: 1.5;" width="143" x="612.75" y="315"/><rect fill="#EEEEEE" height="23.9688" style="stroke: #A80036; stroke-width: 1.5;" width="143" x="612.75" y="315"/><text fill="#000000" font-family="sans-serif" font-size="12" lengthAdjust="spacingAndGlyphs" textLength="137" x="615.75" y="331.1387">CashAccountMandate</text></a><!--class CashAccountContract--><a target="_top" xlink:actuate="onRequest" xlink:href="../CashAccountContract.html" xlink:show="new" xlink:title="Account contract established between the organisation or the group to which the organisation belongs, and the account servicer." xlink:type="simple"><rect fill="#EEEEEE" filter="url(#f1wjxdylljny39)" height="23.9688" id="CashAccountContract" style="stroke: #A80036; stroke-width: 1.5;" width="142" x="716" y="430"/><rect fill="#EEEEEE" height="23.9688" style="stroke: #A80036; stroke-width: 1.5;" width="142" x="716" y="430"/><text fill="#000000" font-family="sans-serif" font-size="12" lengthAdjust="spacingAndGlyphs" textLength="136" x="719" y="446.1387">CashAccountContract</text></a><!--class GenericIdentification--><a target="_top" xlink:actuate="onRequest" xlink:href="../GenericIdentification.html" xlink:show="new" xlink:title="Information related to a non-standardised identification, such as a proprietary party identification or account identification." xlink:type="simple"><rect fill="#EEEEEE" filter="url(#f1wjxdylljny39)" height="23.9688" id="GenericIdentification" style="stroke: #A80036; stroke-width: 1.5;" width="135" x="659.75" y="636"/><rect fill="#EEEEEE" height="23.9688" style="stroke: #A80036; stroke-width: 1.5;" width="135" x="659.75" y="636"/><text fill="#000000" font-family="sans-serif" font-size="12" lengthAdjust="spacingAndGlyphs" textLength="129" x="662.75" y="652.1387">GenericIdentification</text></a><!--class CashAccount--><a target="_top" xlink:actuate="onRequest" xlink:href="../CashAccount.html" xlink:show="new" xlink:title="Account to or from which a cash entry is made." xlink:type="simple"><rect fill="#EEEEEE" filter="url(#f1wjxdylljny39)" height="23.9688" id="CashAccount" style="stroke: #A80036; stroke-width: 1.5;" width="88" x="683.5" y="534"/><rect fill="#EEEEEE" height="23.9688" style="stroke: #A80036; stroke-width: 1.5;" width="88" x="683.5" y="534"/><text fill="#000000" font-family="sans-serif" font-size="12" lengthAdjust="spacingAndGlyphs" textLength="82" x="686.5" y="550.1387">CashAccount</text></a><!--class Limit--><a target="_top" xlink:actuate="onRequest" xlink:href="../Limit.html" xlink:show="new" xlink:title="Value used for risk containment in a system or towards counterparts. The limit may be a current limit or a default limit." xlink:type="simple"><rect fill="#EEEEEE" filter="url(#f1wjxdylljny39)" height="23.9688" id="Limit" style="stroke: #A80036; stroke-width: 1.5;" width="34" x="920" y="828"/><rect fill="#EEEEEE" height="23.9688" style="stroke: #A80036; stroke-width: 1.5;" width="34" x="920" y="828"/><text fill="#000000" font-family="sans-serif" font-size="12" lengthAdjust="spacingAndGlyphs" textLength="28" x="923" y="844.1387">Limit</text></a><!--class Interest--><a target="_top" xlink:actuate="onRequest" xlink:href="../Interest.html" xlink:show="new" xlink:title="Consideration, such as amount of money,  paid or received in exchange for an asset that has been invested, loaned or borrowed for a certain period. The interest is expressed as a fixed amount or percentage of the amount upon which the interest is applied." xlink:type="simple"><rect fill="#EEEEEE" filter="url(#f1wjxdylljny39)" height="23.9688" id="Interest" style="stroke: #A80036; stroke-width: 1.5;" width="55" x="901.75" y="742"/><rect fill="#EEEEEE" height="23.9688" style="stroke: #A80036; stroke-width: 1.5;" width="55" x="901.75" y="742"/><text fill="#000000" font-family="sans-serif" font-size="12" lengthAdjust="spacingAndGlyphs" textLength="49" x="904.75" y="758.1387">Interest</text></a><!--link AccountService to CashAccountService--><path d="M1076.61,79.754 C1091.21,97.833 1110.76,122.039 1127.26,142.469 " fill="none" id="AccountService-CashAccountService" style="stroke: #A80036; stroke-width: 1.0;"/><polygon fill="none" points="1071.07,84.041,1063.95,64.084,1081.96,75.244,1071.07,84.041" style="stroke: #A80036; stroke-width: 1.0;"/><!--link CashAccountService to DebitCreditFacility--><path d="M1174.98,245.339 C1180.2,266.395 1185.74,288.685 1189.66,304.484 " fill="none" id="CashAccountService-DebitCreditFacility" style="stroke: #A80036; stroke-width: 1.0;"/><polygon fill="none" points="1168.15,246.88,1170.12,225.783,1181.74,243.508,1168.15,246.88" style="stroke: #A80036; stroke-width: 1.0;"/><!--link Reservation to AccountContract--><!--link Account to Reservation--><!--link Charges to Account--><!--link CashAccountContract to CashAccountMandate--><!--link CashAccountMandate to CashAccountContract--><path d="M669.997,339.061 C653.162,353.708 628.94,380.015 644,400 C653.258,412.285 684.865,422.015 716.017,428.908 " fill="none" id="CashAccountMandate-CashAccountContract" style="stroke: #A80036; stroke-width: 1.0;"/><polygon fill="#A80036" points="721.009,429.989,713.0598,424.1744,716.1223,428.9305,711.3662,431.9931,721.009,429.989" style="stroke: #A80036; stroke-width: 1.0;"/><text fill="#000000" font-family="sans-serif" font-size="13" lengthAdjust="spacingAndGlyphs" textLength="139" x="645" y="395.0669">CashAccountContract</text><text fill="#000000" font-family="sans-serif" font-size="13" lengthAdjust="spacingAndGlyphs" textLength="7" x="700.8934" y="422.5447">*</text><!--link GenericIdentification to CashAccountContract--><!--link CashAccount to GenericIdentification--><!--link Interest to Limit--><!--link AccountService to AccountContract--><path d="M1004.265,53.471 C822.132,55.408 210.51,64.12 182,94 C163.373,113.522 175.009,147.403 184.469,167.253 " fill="none" id="AccountService-AccountContract" style="stroke: #A80036; stroke-width: 1.0;"/><polygon fill="#A80036" points="186.807,171.98,186.4025,162.1395,184.5904,167.4982,179.2316,165.686,186.807,171.98" style="stroke: #A80036; stroke-width: 1.0;"/><text fill="#000000" font-family="sans-serif" font-size="13" lengthAdjust="spacingAndGlyphs" textLength="107" x="183" y="107.0669">AccountContract</text><text fill="#000000" font-family="sans-serif" font-size="13" lengthAdjust="spacingAndGlyphs" textLength="7" x="175.0453" y="161.0213">*</text><!--link AccountService to Reservation--><path d="M1004.188,61.163 C896.441,80.348 640.312,136.032 462,256 C391.34,303.54 332.811,389.729 310.593,425.15 " fill="none" id="AccountService-Reservation" style="stroke: #A80036; stroke-width: 1.0;"/><polygon fill="#A80036" points="307.822,429.606,315.9726,424.0772,310.4633,425.3606,309.1799,419.8512,307.822,429.606" style="stroke: #A80036; stroke-width: 1.0;"/><text fill="#000000" font-family="sans-serif" font-size="13" lengthAdjust="spacingAndGlyphs" textLength="75" x="463" y="269.0669">Reservation</text><text fill="#000000" font-family="sans-serif" font-size="13" lengthAdjust="spacingAndGlyphs" textLength="8" x="299.4028" y="419.0391">1</text><!--link AccountService to Account--><path d="M1004.304,52.713 C840.453,52.197 326.482,53.898 166,94 C117.782,106.049 91.5504,99.986 65,142 C45.0562,173.56 52.1197,190.959 65,226 C78.2657,262.09 110.976,294.052 131.733,311.647 " fill="none" id="AccountService-Account" style="stroke: #A80036; stroke-width: 1.0;"/><polygon fill="#A80036" points="135.715,314.971,131.3692,306.1328,131.8766,311.7668,126.2425,312.2743,135.715,314.971" style="stroke: #A80036; stroke-width: 1.0;"/><text fill="#000000" font-family="sans-serif" font-size="13" lengthAdjust="spacingAndGlyphs" textLength="52" x="66" y="188.0669">Account</text><text fill="#000000" font-family="sans-serif" font-size="13" lengthAdjust="spacingAndGlyphs" textLength="8" x="119.9998" y="304.0092">1</text><!--link AccountService to Charges--><path d="M1004.428,53.892 C840.489,57.026 332.908,68.742 309,94 C290.581,113.459 298.476,147.362 305.498,167.233 " fill="none" id="AccountService-Charges" style="stroke: #A80036; stroke-width: 1.0;"/><polygon fill="#A80036" points="307.248,171.965,307.8773,162.1363,305.5134,167.2755,300.3741,164.9117,307.248,171.965" style="stroke: #A80036; stroke-width: 1.0;"/><text fill="#000000" font-family="sans-serif" font-size="13" lengthAdjust="spacingAndGlyphs" textLength="191" x="310" y="107.0669">AccountAdministrationCharge</text><text fill="#000000" font-family="sans-serif" font-size="13" lengthAdjust="spacingAndGlyphs" textLength="24" x="275.9739" y="161.0012">0..1</text><!--link CashAccountService to CashAccountMandate--><path d="M1003.691,185.467 C873.112,189.58 701.355,204.944 657,256 C643.257,271.819 657.449,295.4 669.894,310.74 " fill="none" id="CashAccountService-CashAccountMandate" style="stroke: #A80036; stroke-width: 1.0;"/><polygon fill="#A80036" points="673.333,314.835,670.6092,305.3703,670.1179,311.0057,664.4824,310.5144,673.333,314.835" style="stroke: #A80036; stroke-width: 1.0;"/><text fill="#000000" font-family="sans-serif" font-size="13" lengthAdjust="spacingAndGlyphs" textLength="140" x="658" y="269.0669">CashAccountMandate</text><text fill="#000000" font-family="sans-serif" font-size="13" lengthAdjust="spacingAndGlyphs" textLength="7" x="660.0334" y="303.8265">*</text><!--link CashAccountService to CashAccountContract--><path d="M1003.928,212.32 C950.949,228.022 894.68,252.607 853,291 C847.693,295.889 809.342,387.247 793.658,424.942 " fill="none" id="CashAccountService-CashAccountContract" style="stroke: #A80036; stroke-width: 1.0;"/><polygon fill="#A80036" points="791.687,429.682,798.8343,422.9059,793.6056,425.0648,791.4467,419.8361,791.687,429.682" style="stroke: #A80036; stroke-width: 1.0;"/><text fill="#000000" font-family="sans-serif" font-size="13" lengthAdjust="spacingAndGlyphs" textLength="139" x="854" y="331.0669">CashAccountContract</text><text fill="#000000" font-family="sans-serif" font-size="13" lengthAdjust="spacingAndGlyphs" textLength="8" x="782.5833" y="418.8801">1</text><!--link CashAccountService to GenericIdentification--><path d="M1003.797,188.237 C849.758,195.622 632.105,218.898 595,291 C530.31,416.705 666.658,581.65 712.598,631.858 " fill="none" id="CashAccountService-GenericIdentification" style="stroke: #A80036; stroke-width: 1.0;"/><polygon fill="#A80036" points="716.252,635.817,713.089,626.4899,712.8615,632.1422,707.2092,631.9147,716.252,635.817" style="stroke: #A80036; stroke-width: 1.0;"/><text fill="#000000" font-family="sans-serif" font-size="13" lengthAdjust="spacingAndGlyphs" textLength="81" x="607" y="446.0669">Identification</text><text fill="#000000" font-family="sans-serif" font-size="13" lengthAdjust="spacingAndGlyphs" textLength="8" x="701.9527" y="625.0598">1</text><!--link CashAccountService to CashAccount--><path d="M1117.53,225.593 C1098.29,244.756 1075.71,268.349 1057,291 C983.418,380.067 1003.907,439.588 908,504 C868.579,530.475 814.557,540.056 775.811,543.419 " fill="none" id="CashAccountService-CashAccount" style="stroke: #A80036; stroke-width: 1.0;"/><polygon fill="#A80036" points="770.688,543.835,779.9829,547.0916,775.6715,543.4293,779.3338,539.118,770.688,543.835" style="stroke: #A80036; stroke-width: 1.0;"/><text fill="#000000" font-family="sans-serif" font-size="13" lengthAdjust="spacingAndGlyphs" textLength="84" x="1002" y="395.0669">CashAccount</text><text fill="#000000" font-family="sans-serif" font-size="13" lengthAdjust="spacingAndGlyphs" textLength="8" x="779.3883" y="537.9507">1</text><!--link DebitCreditFacility to Limit--><path d="M1245.48,349.578 C1280.17,368.174 1320,398.727 1320,441 C1320,441 1320,441 1320,755 C1320,829.3545 1041.11,837.9776 959.299,838.9076 " fill="none" id="DebitCreditFacility-Limit" style="stroke: #A80036; stroke-width: 1.0;"/><polygon fill="#A80036" points="954.201,838.9583,963.2405,842.8681,959.2008,838.9083,963.1606,834.8685,954.201,838.9583" style="stroke: #A80036; stroke-width: 1.0;"/><text fill="#000000" font-family="sans-serif" font-size="13" lengthAdjust="spacingAndGlyphs" textLength="64" x="1321" y="601.0669">CreditLine</text><text fill="#000000" font-family="sans-serif" font-size="13" lengthAdjust="spacingAndGlyphs" textLength="8" x="962.0189" y="831.5369">1</text><!--link DebitCreditFacility to Interest--><path d="M1173.69,349.746 C1155.07,371.122 1131,405.603 1131,441 C1131,441 1131,441 1131,649 C1131,724.238 1018.86,745.094 961.685,750.838 " fill="none" id="DebitCreditFacility-Interest" style="stroke: #A80036; stroke-width: 1.0;"/><polygon fill="#A80036" points="956.664,751.318,966.0038,754.4435,961.6413,750.8423,965.2426,746.4798,956.664,751.318" style="stroke: #A80036; stroke-width: 1.0;"/><text fill="#000000" font-family="sans-serif" font-size="13" lengthAdjust="spacingAndGlyphs" textLength="133" x="1132" y="550.0669">CashAccountInterest</text><text fill="#000000" font-family="sans-serif" font-size="13" lengthAdjust="spacingAndGlyphs" textLength="8" x="964.7138" y="744.5405">1</text><!--link AccountContract to Account--><path d="M189.626,196.064 C182.059,220.877 163.707,281.054 154.889,309.968 " fill="none" id="AccountContract-Account" style="stroke: #A80036; stroke-width: 1.0;"/><polygon fill="#A80036" points="153.358,314.987,159.8093,307.5452,154.8165,310.2044,152.1572,305.2116,153.358,314.987" style="stroke: #A80036; stroke-width: 1.0;"/><text fill="#000000" font-family="sans-serif" font-size="13" lengthAdjust="spacingAndGlyphs" textLength="52" x="172" y="269.0669">Account</text><text fill="#000000" font-family="sans-serif" font-size="13" lengthAdjust="spacingAndGlyphs" textLength="7" x="144.8795" y="304.0307">*</text><!--link AccountContract to Interest--><path d="M175.07,196.207 C128.265,225.756 6,304.959 6,326 C6,326 6,326 6,649 C6,740.527 731.949,751.509 896.225,752.822 " fill="none" id="AccountContract-Interest" style="stroke: #A80036; stroke-width: 1.0;"/><polygon fill="#A80036" points="901.376,752.862,892.4071,748.7927,896.3761,752.8234,892.3454,756.7925,901.376,752.862" style="stroke: #A80036; stroke-width: 1.0;"/><text fill="#000000" font-family="sans-serif" font-size="13" lengthAdjust="spacingAndGlyphs" textLength="49" x="7" y="499.0669">Interest</text><text fill="#000000" font-family="sans-serif" font-size="13" lengthAdjust="spacingAndGlyphs" textLength="7" x="886.6989" y="746.958">*</text><!--link Account to Account--><path d="M178.508,316.195 C196.181,313.59 213,317.191 213,327 C213,335.812 199.424,339.615 183.85,338.407 " fill="none" id="Account-Account" style="stroke: #A80036; stroke-width: 1.0;"/><polygon fill="#A80036" points="178.508,337.805,187.0048,342.7854,183.4767,338.3636,187.8985,334.8355,178.508,337.805" style="stroke: #A80036; stroke-width: 1.0;"/><text fill="#000000" font-family="sans-serif" font-size="13" lengthAdjust="spacingAndGlyphs" textLength="94" x="219" y="331.0669">ParentAccount</text><text fill="#000000" font-family="sans-serif" font-size="13" lengthAdjust="spacingAndGlyphs" textLength="8" x="186.7741" y="334.4836">1</text><!--link Account to GenericIdentification--><path d="M154.311,339.334 C165.209,366.64 196.359,436.847 243,478 C362.448,583.392 551.449,624.023 654.365,638.932 " fill="none" id="Account-GenericIdentification" style="stroke: #A80036; stroke-width: 1.0;"/><polygon fill="#A80036" points="659.503,639.665,651.1577,634.4348,654.5531,638.9593,650.0285,642.3547,659.503,639.665" style="stroke: #A80036; stroke-width: 1.0;"/><text fill="#000000" font-family="sans-serif" font-size="13" lengthAdjust="spacingAndGlyphs" textLength="30" x="273" y="499.0669">Type</text><text fill="#000000" font-family="sans-serif" font-size="13" lengthAdjust="spacingAndGlyphs" textLength="8" x="643.7966" y="634.1875">1</text><!--link Charges to CashAccount--><path d="M316.368,196.271 C333.771,239.687 402.536,397.668 511,478 C560.925,514.976 631.656,531.84 678.398,539.327 " fill="none" id="Charges-CashAccount" style="stroke: #A80036; stroke-width: 1.0;"/><polygon fill="#A80036" points="683.41,540.109,675.1334,534.7706,678.4697,539.3389,673.9013,542.6752,683.41,540.109" style="stroke: #A80036; stroke-width: 1.0;"/><text fill="#000000" font-family="sans-serif" font-size="13" lengthAdjust="spacingAndGlyphs" textLength="139" x="431" y="395.0669">ChargesDebitAccount</text><text fill="#000000" font-family="sans-serif" font-size="13" lengthAdjust="spacingAndGlyphs" textLength="7" x="668.577" y="534.1637">*</text><!--link CashAccountContract to CashAccount--><path d="M715.629,446.969 C688.767,452.368 660.706,463.532 644,486 C629.042,506.117 656.119,522.05 683.253,532.262 " fill="none" id="CashAccountContract-CashAccount" style="stroke: #A80036; stroke-width: 1.0;"/><polygon fill="#A80036" points="687.955,533.976,680.87,527.1347,683.2576,532.263,678.1293,534.6506,687.955,533.976" style="stroke: #A80036; stroke-width: 1.0;"/><text fill="#000000" font-family="sans-serif" font-size="13" lengthAdjust="spacingAndGlyphs" textLength="84" x="645" y="499.0669">CashAccount</text><text fill="#000000" font-family="sans-serif" font-size="13" lengthAdjust="spacingAndGlyphs" textLength="7" x="675.5645" y="523.016">*</text><!--link CashAccountContract to CashAccount--><path d="M780.35,454.306 C769.571,472.63 748.267,508.846 736.094,529.54 " fill="none" id="CashAccountContract-CashAccount" style="stroke: #A80036; stroke-width: 1.0;"/><polygon fill="#A80036" points="733.498,533.954,741.5093,528.2253,736.0334,529.6445,734.6142,524.1686,733.498,533.954" style="stroke: #A80036; stroke-width: 1.0;"/><text fill="#000000" font-family="sans-serif" font-size="13" lengthAdjust="spacingAndGlyphs" textLength="136" x="762" y="499.0669">TransferCashAccount</text><text fill="#000000" font-family="sans-serif" font-size="13" lengthAdjust="spacingAndGlyphs" textLength="7" x="726.0129" y="522.9864">*</text><!--link GenericIdentification to Interest--><path d="M748.618,660.13 C785.978,679.365 862.487,718.756 902.805,739.514 " fill="none" id="GenericIdentification-Interest" style="stroke: #A80036; stroke-width: 1.0;"/><polygon fill="#A80036" points="907.538,741.95,901.3698,734.2719,903.0933,739.6598,897.7055,741.3834,907.538,741.95" style="stroke: #A80036; stroke-width: 1.0;"/><text fill="#000000" font-family="sans-serif" font-size="13" lengthAdjust="spacingAndGlyphs" textLength="189" x="842" y="705.0669">IdentificationForInterestName</text><text fill="#000000" font-family="sans-serif" font-size="13" lengthAdjust="spacingAndGlyphs" textLength="24" x="904.1995" y="730.981">0..1</text></g></svg>