<?xml version="1.0" encoding="UTF-8" standalone="no"?><svg xmlns="http://www.w3.org/2000/svg" xmlns:xlink="http://www.w3.org/1999/xlink" contentScriptType="application/ecmascript" contentStyleType="text/css" height="984px" preserveAspectRatio="none" style="width:1699px;height:984px;" version="1.1" viewBox="0 0 1699 984" width="1699px" zoomAndPan="magnify"><defs><filter height="300%" id="ft0ewbgmcqmgv" width="300%" x="-1" y="-1"><feGaussianBlur result="blurOut" stdDeviation="2.0"/><feColorMatrix in="blurOut" result="blurOut2" type="matrix" values="0 0 0 0 0 0 0 0 0 0 0 0 0 0 0 0 0 0 .4 0"/><feOffset dx="4.0" dy="4.0" in="blurOut2" result="blurOut3"/><feBlend in="SourceGraphic" in2="blurOut3" mode="normal"/></filter></defs><g><!--cluster ##10360--><!--cluster ##10366--><!--class Adjustment--><a target="_top" xlink:actuate="onRequest" xlink:href="../Adjustment.html" xlink:show="new" xlink:title="Modification on the value of goods and / or services. For example: rebate, discount." xlink:type="simple"><rect fill="#FEFEEE" filter="url(#ft0ewbgmcqmgv)" height="134.4063" id="Adjustment" style="stroke: #A80036; stroke-width: 1.5;" width="268" x="68" y="40"/><rect fill="#FEFEEE" height="23.9688" style="stroke: #A80036; stroke-width: 1.5;" width="268" x="68" y="40"/><text fill="#000000" font-family="sans-serif" font-size="12" lengthAdjust="spacingAndGlyphs" textLength="71" x="166.5" y="56.1387">Adjustment</text><line style="stroke: #A80036; stroke-width: 1.5;" x1="69" x2="335" y1="63.9688" y2="63.9688"/><ellipse cx="79" cy="75.8711" fill="#84BE84" rx="3" ry="3" style="stroke: #038048; stroke-width: 1.0;"/><text fill="#000000" font-family="sans-serif" font-size="11" lengthAdjust="spacingAndGlyphs" textLength="43" x="88" y="78.1792">Amount</text><text fill="#000000" font-family="sans-serif" font-size="11" font-style="italic" lengthAdjust="spacingAndGlyphs" textLength="126" x="135" y="78.1792">(CurrencyAndAmount)</text><ellipse cx="79" cy="88.6758" fill="#84BE84" rx="3" ry="3" style="stroke: #038048; stroke-width: 1.0;"/><text fill="#000000" font-family="sans-serif" font-size="11" lengthAdjust="spacingAndGlyphs" textLength="66" x="88" y="90.9839">ChargeRate</text><text fill="#000000" font-family="sans-serif" font-size="11" font-style="italic" lengthAdjust="spacingAndGlyphs" textLength="98" x="158" y="90.9839">(PercentageRate)</text><ellipse cx="79" cy="101.4805" fill="#84BE84" rx="3" ry="3" style="stroke: #038048; stroke-width: 1.0;"/><text fill="#000000" font-family="sans-serif" font-size="11" lengthAdjust="spacingAndGlyphs" textLength="103" x="88" y="103.7886">CalculationMethod</text><text fill="#000000" font-family="sans-serif" font-size="11" font-style="italic" lengthAdjust="spacingAndGlyphs" textLength="116" x="195" y="103.7886">(TaxationBasisCode)</text><ellipse cx="79" cy="114.2852" fill="#84BE84" rx="3" ry="3" style="stroke: #038048; stroke-width: 1.0;"/><text fill="#000000" font-family="sans-serif" font-size="11" lengthAdjust="spacingAndGlyphs" textLength="50" x="88" y="116.5933">Direction</text><text fill="#000000" font-family="sans-serif" font-size="11" font-style="italic" lengthAdjust="spacingAndGlyphs" textLength="151" x="142" y="116.5933">(AdjustmentDirectionCode)</text><ellipse cx="79" cy="127.0898" fill="#84BE84" rx="3" ry="3" style="stroke: #038048; stroke-width: 1.0;"/><text fill="#000000" font-family="sans-serif" font-size="11" lengthAdjust="spacingAndGlyphs" textLength="42" x="88" y="129.3979">Reason</text><text fill="#000000" font-family="sans-serif" font-size="11" font-style="italic" lengthAdjust="spacingAndGlyphs" textLength="142" x="134" y="129.3979">(Max4AlphaNumericText)</text><ellipse cx="79" cy="139.8945" fill="#84BE84" rx="3" ry="3" style="stroke: #038048; stroke-width: 1.0;"/><text fill="#000000" font-family="sans-serif" font-size="11" lengthAdjust="spacingAndGlyphs" textLength="146" x="88" y="142.2026">AllowanceChargeIndicator</text><text fill="#000000" font-family="sans-serif" font-size="11" font-style="italic" lengthAdjust="spacingAndGlyphs" textLength="92" x="238" y="142.2026">(YesNoIndicator)</text><ellipse cx="79" cy="152.6992" fill="#84BE84" rx="3" ry="3" style="stroke: #038048; stroke-width: 1.0;"/><text fill="#000000" font-family="sans-serif" font-size="11" lengthAdjust="spacingAndGlyphs" textLength="90" x="88" y="155.0073">ChargeIndicator</text><text fill="#000000" font-family="sans-serif" font-size="11" font-style="italic" lengthAdjust="spacingAndGlyphs" textLength="92" x="182" y="155.0073">(YesNoIndicator)</text><ellipse cx="79" cy="165.5039" fill="#84BE84" rx="3" ry="3" style="stroke: #038048; stroke-width: 1.0;"/><text fill="#000000" font-family="sans-serif" font-size="11" lengthAdjust="spacingAndGlyphs" textLength="27" x="88" y="167.812">Type</text><text fill="#000000" font-family="sans-serif" font-size="11" font-style="italic" lengthAdjust="spacingAndGlyphs" textLength="129" x="119" y="167.812">(AdjustmentTypeCode)</text></a><!--class Discount--><a target="_top" xlink:actuate="onRequest" xlink:href="../Discount.html" xlink:show="new" xlink:title="Decrease of the value of goods and / or services by applying a discount rate to the original amount." xlink:type="simple"><rect fill="#FEFECE" filter="url(#ft0ewbgmcqmgv)" height="70.3828" id="Discount" style="stroke: #A80036; stroke-width: 1.5;" width="289" x="47.75" y="252"/><rect fill="#FEFECE" height="23.9688" style="stroke: #A80036; stroke-width: 1.5;" width="289" x="47.75" y="252"/><text fill="#000000" font-family="sans-serif" font-size="12" lengthAdjust="spacingAndGlyphs" textLength="55" x="164.75" y="268.1387">Discount</text><line style="stroke: #A80036; stroke-width: 1.5;" x1="48.75" x2="335.75" y1="275.9688" y2="275.9688"/><ellipse cx="58.75" cy="287.8711" fill="#84BE84" rx="3" ry="3" style="stroke: #038048; stroke-width: 1.0;"/><text fill="#000000" font-family="sans-serif" font-size="11" lengthAdjust="spacingAndGlyphs" textLength="133" x="67.75" y="290.1792">DiscountAppliedAmount</text><text fill="#000000" font-family="sans-serif" font-size="11" font-style="italic" lengthAdjust="spacingAndGlyphs" textLength="126" x="204.75" y="290.1792">(CurrencyAndAmount)</text><ellipse cx="58.75" cy="300.6758" fill="#84BE84" rx="3" ry="3" style="stroke: #038048; stroke-width: 1.0;"/><text fill="#000000" font-family="sans-serif" font-size="11" lengthAdjust="spacingAndGlyphs" textLength="76" x="67.75" y="302.9839">DiscountType</text><text fill="#000000" font-family="sans-serif" font-size="11" font-style="italic" lengthAdjust="spacingAndGlyphs" textLength="113" x="147.75" y="302.9839">(DiscountTypeCode)</text><ellipse cx="58.75" cy="313.4805" fill="#84BE84" rx="3" ry="3" style="stroke: #038048; stroke-width: 1.0;"/><text fill="#000000" font-family="sans-serif" font-size="11" lengthAdjust="spacingAndGlyphs" textLength="124" x="67.75" y="315.7886">DiscountBasisAmount</text><text fill="#000000" font-family="sans-serif" font-size="11" font-style="italic" lengthAdjust="spacingAndGlyphs" textLength="126" x="195.75" y="315.7886">(CurrencyAndAmount)</text></a><!--class Payment--><a target="_top" xlink:actuate="onRequest" xlink:href="../Payment.html" xlink:show="new" xlink:title="Payment information and processes required to transfer cash end to end from the debtor to the creditor." xlink:type="simple"><rect fill="#EEEEEE" filter="url(#ft0ewbgmcqmgv)" height="23.9688" id="Payment" style="stroke: #A80036; stroke-width: 1.5;" width="60" x="634.5" y="275"/><rect fill="#EEEEEE" height="23.9688" style="stroke: #A80036; stroke-width: 1.5;" width="60" x="634.5" y="275"/><text fill="#000000" font-family="sans-serif" font-size="12" lengthAdjust="spacingAndGlyphs" textLength="54" x="637.5" y="291.1387">Payment</text></a><!--class LineItem--><a target="_top" xlink:actuate="onRequest" xlink:href="../LineItem.html" xlink:show="new" xlink:title="Unit of information  showing the related  provision of products and/or services and monetary summations reported as a discrete line item." xlink:type="simple"><rect fill="#EEEEEE" filter="url(#ft0ewbgmcqmgv)" height="23.9688" id="LineItem" style="stroke: #A80036; stroke-width: 1.5;" width="58" x="617.5" y="950"/><rect fill="#EEEEEE" height="23.9688" style="stroke: #A80036; stroke-width: 1.5;" width="58" x="617.5" y="950"/><text fill="#000000" font-family="sans-serif" font-size="12" lengthAdjust="spacingAndGlyphs" textLength="52" x="620.5" y="966.1387">LineItem</text></a><!--class Price--><a target="_top" xlink:actuate="onRequest" xlink:href="../Price.html" xlink:show="new" xlink:title="Amount of money for which goods, services or assets are offered, sold, or bought." xlink:type="simple"><rect fill="#EEEEEE" filter="url(#ft0ewbgmcqmgv)" height="23.9688" id="Price" style="stroke: #A80036; stroke-width: 1.5;" width="37" x="737.75" y="864"/><rect fill="#EEEEEE" height="23.9688" style="stroke: #A80036; stroke-width: 1.5;" width="37" x="737.75" y="864"/><text fill="#000000" font-family="sans-serif" font-size="12" lengthAdjust="spacingAndGlyphs" textLength="31" x="740.75" y="880.1387">Price</text></a><!--class CollateralManagement--><a target="_top" xlink:actuate="onRequest" xlink:href="../CollateralManagement.html" xlink:show="new" xlink:title="Set of operations relative to the management of collateral, variation margins, default fund participation and independent amount." xlink:type="simple"><rect fill="#EEEEEE" filter="url(#ft0ewbgmcqmgv)" height="23.9688" id="CollateralManagement" style="stroke: #A80036; stroke-width: 1.5;" width="147" x="682.75" y="778"/><rect fill="#EEEEEE" height="23.9688" style="stroke: #A80036; stroke-width: 1.5;" width="147" x="682.75" y="778"/><text fill="#000000" font-family="sans-serif" font-size="12" lengthAdjust="spacingAndGlyphs" textLength="141" x="685.75" y="794.1387">CollateralManagement</text></a><!--class Balance--><a target="_top" xlink:actuate="onRequest" xlink:href="../Balance.html" xlink:show="new" xlink:title="Numerical representation of the net increases and decreases in an account at a specific point in time." xlink:type="simple"><rect fill="#EEEEEE" filter="url(#ft0ewbgmcqmgv)" height="23.9688" id="Balance" style="stroke: #A80036; stroke-width: 1.5;" width="56" x="747.5" y="692"/><rect fill="#EEEEEE" height="23.9688" style="stroke: #A80036; stroke-width: 1.5;" width="56" x="747.5" y="692"/><text fill="#000000" font-family="sans-serif" font-size="12" lengthAdjust="spacingAndGlyphs" textLength="50" x="750.5" y="708.1387">Balance</text></a><!--class ChargePartyRole--><a target="_top" xlink:actuate="onRequest" xlink:href="../ChargePartyRole.html" xlink:show="new" xlink:title="Role played by a party in the context of a paymentof charges." xlink:type="simple"><rect fill="#EEEEEE" filter="url(#ft0ewbgmcqmgv)" height="23.9688" id="ChargePartyRole" style="stroke: #A80036; stroke-width: 1.5;" width="110" x="720" y="606"/><rect fill="#EEEEEE" height="23.9688" style="stroke: #A80036; stroke-width: 1.5;" width="110" x="720" y="606"/><text fill="#000000" font-family="sans-serif" font-size="12" lengthAdjust="spacingAndGlyphs" textLength="104" x="723" y="622.1387">ChargePartyRole</text></a><!--class DateTimePeriod--><a target="_top" xlink:actuate="onRequest" xlink:href="../DateTimePeriod.html" xlink:show="new" xlink:title="Time span defined by a start date and time, and an end date and time." xlink:type="simple"><rect fill="#EEEEEE" filter="url(#ft0ewbgmcqmgv)" height="23.9688" id="DateTimePeriod" style="stroke: #A80036; stroke-width: 1.5;" width="105" x="722.75" y="504"/><rect fill="#EEEEEE" height="23.9688" style="stroke: #A80036; stroke-width: 1.5;" width="105" x="722.75" y="504"/><text fill="#000000" font-family="sans-serif" font-size="12" lengthAdjust="spacingAndGlyphs" textLength="99" x="725.75" y="520.1387">DateTimePeriod</text></a><!--class CurrencyExchange--><a target="_top" xlink:actuate="onRequest" xlink:href="../CurrencyExchange.html" xlink:show="new" xlink:title="Information needed to process a currency exchange or conversion." xlink:type="simple"><rect fill="#EEEEEE" filter="url(#ft0ewbgmcqmgv)" height="23.9688" id="CurrencyExchange" style="stroke: #A80036; stroke-width: 1.5;" width="122" x="501" y="402"/><rect fill="#EEEEEE" height="23.9688" style="stroke: #A80036; stroke-width: 1.5;" width="122" x="501" y="402"/><text fill="#000000" font-family="sans-serif" font-size="12" lengthAdjust="spacingAndGlyphs" textLength="116" x="504" y="418.1387">CurrencyExchange</text></a><!--class SecuritiesOrder--><a target="_top" xlink:actuate="onRequest" xlink:href="../SecuritiesOrder.html" xlink:show="new" xlink:title="Intention to transfer an ownership of a financial instrument." xlink:type="simple"><rect fill="#EEEEEE" filter="url(#ft0ewbgmcqmgv)" height="23.9688" id="SecuritiesOrder" style="stroke: #A80036; stroke-width: 1.5;" width="103" x="544.75" y="606"/><rect fill="#EEEEEE" height="23.9688" style="stroke: #A80036; stroke-width: 1.5;" width="103" x="544.75" y="606"/><text fill="#000000" font-family="sans-serif" font-size="12" lengthAdjust="spacingAndGlyphs" textLength="97" x="547.75" y="622.1387">SecuritiesOrder</text></a><!--class Tax--><a target="_top" xlink:actuate="onRequest" xlink:href="../Tax.html" xlink:show="new" xlink:title="Amount of money due to the government or tax authority, according to various pre-defined parameters such as thresholds or income." xlink:type="simple"><rect fill="#EEEEEE" filter="url(#ft0ewbgmcqmgv)" height="23.9688" id="Tax" style="stroke: #A80036; stroke-width: 1.5;" width="27" x="615.75" y="504"/><rect fill="#EEEEEE" height="23.9688" style="stroke: #A80036; stroke-width: 1.5;" width="27" x="615.75" y="504"/><text fill="#000000" font-family="sans-serif" font-size="12" lengthAdjust="spacingAndGlyphs" textLength="21" x="618.75" y="520.1387">Tax</text></a><!--entity ##10387--><!--link Adjustment to Discount--><path d="M197.16,194.148 C196.017,214.492 194.863,235.035 193.937,251.519 " fill="none" id="Adjustment-Discount" style="stroke: #A80036; stroke-width: 1.0;"/><polygon fill="none" points="190.18,193.604,198.291,174.028,204.158,194.389,190.18,193.604" style="stroke: #A80036; stroke-width: 1.0;"/><!--link LineItem to Payment--><!--link Price to LineItem--><!--link CollateralManagement to Price--><!--link Balance to CollateralManagement--><!--link ChargePartyRole to Balance--><!--link DateTimePeriod to ChargePartyRole--><!--link CurrencyExchange to DateTimePeriod--><!--link SecuritiesOrder to CurrencyExchange--><!--link Tax to SecuritiesOrder--><!--link Adjustment to Payment--><path d="M336.363,143.202 C417.399,167.217 521.203,203.009 607,249 C619.738,255.828 633.337,264.594 644.056,271.879 " fill="none" id="Adjustment-Payment" style="stroke: #A80036; stroke-width: 1.0;"/><polygon fill="#A80036" points="648.463,274.901,643.3026,266.5123,644.3394,272.0733,638.7783,273.1101,648.463,274.901" style="stroke: #A80036; stroke-width: 1.0;"/><text fill="#000000" font-family="sans-serif" font-size="13" lengthAdjust="spacingAndGlyphs" textLength="57" x="546" y="217.0669">Payment</text><text fill="#000000" font-family="sans-serif" font-size="13" lengthAdjust="spacingAndGlyphs" textLength="7" x="633.4034" y="263.9152">*</text><!--link Adjustment to LineItem--><path d="M323.596,174.111 C359.313,202.738 389,240.282 389,286 C389,286 389,286 389,877 C389,923.3209 541.744,948.1455 611.722,957.088 " fill="none" id="Adjustment-LineItem" style="stroke: #A80036; stroke-width: 1.0;"/><polygon fill="#A80036" points="617.018,957.7546,608.5879,952.6622,612.0571,957.1303,607.589,960.5996,617.018,957.7546" style="stroke: #A80036; stroke-width: 1.0;"/><text fill="#000000" font-family="sans-serif" font-size="13" lengthAdjust="spacingAndGlyphs" textLength="103" x="390" y="622.0669">RelatedLineItem</text><text fill="#000000" font-family="sans-serif" font-size="13" lengthAdjust="spacingAndGlyphs" textLength="24" x="585.5129" y="951.8824">0..1</text><!--link Adjustment to Price--><path d="M336.09,110.489 C695.793,118.934 1655,153.846 1655,286 C1655,286 1655,286 1655,791 C1655,881.635 921.261,877.065 779.536,875.337 " fill="none" id="Adjustment-Price" style="stroke: #A80036; stroke-width: 1.0;"/><polygon fill="#A80036" points="774.365,875.272,783.314,879.3848,779.3646,875.3349,783.4146,871.3854,774.365,875.272" style="stroke: #A80036; stroke-width: 1.0;"/><text fill="#000000" font-family="sans-serif" font-size="13" lengthAdjust="spacingAndGlyphs" textLength="31" x="1656" y="571.0669">Price</text><text fill="#000000" font-family="sans-serif" font-size="13" lengthAdjust="spacingAndGlyphs" textLength="24" x="782.8348" y="868.7666">0..1</text><!--link Adjustment to CollateralManagement--><path d="M336.283,113.203 C659.455,127.509 1454,174.065 1454,286 C1454,286 1454,286 1454,705 C1454,766.822 1016.81,783.403 834.435,787.63 " fill="none" id="Adjustment-CollateralManagement" style="stroke: #A80036; stroke-width: 1.0;"/><polygon fill="#A80036" points="829.379,787.745,838.4681,791.5382,834.3777,787.6307,838.2852,783.5403,829.379,787.745" style="stroke: #A80036; stroke-width: 1.0;"/><text fill="#000000" font-family="sans-serif" font-size="13" lengthAdjust="spacingAndGlyphs" textLength="145" x="1455" y="520.0669">CollateralManagement</text><text fill="#000000" font-family="sans-serif" font-size="13" lengthAdjust="spacingAndGlyphs" textLength="8" x="837.815" y="782.6445">1</text><!--link Adjustment to Balance--><path d="M336.254,111.023 C580.709,118.994 1086.07,147.604 1225,249 C1293.28,298.835 1311.56,321.705 1338,402 C1341.34,412.132 1341.98,416.105 1338,426 C1329.23,447.792 1209.31,564.198 1189,576 C1059.34,651.339 880.4,686.376 807.686,698.177 " fill="none" id="Adjustment-Balance" style="stroke: #A80036; stroke-width: 1.0;"/><polygon fill="#A80036" points="802.637,698.987,812.1567,701.5121,807.574,698.1956,810.8904,693.6129,802.637,698.987" style="stroke: #A80036; stroke-width: 1.0;"/><text fill="#000000" font-family="sans-serif" font-size="13" lengthAdjust="spacingAndGlyphs" textLength="107" x="1315" y="469.0669">AdjustedBalance</text><text fill="#000000" font-family="sans-serif" font-size="13" lengthAdjust="spacingAndGlyphs" textLength="8" x="811.3943" y="691.2764">1</text><!--link Adjustment to ChargePartyRole--><path d="M336.125,117.818 C611.288,139.764 1214,197.891 1214,286 C1214,286 1214,286 1214,517 C1214,593.734 955.796,611.587 835.431,615.741 " fill="none" id="Adjustment-ChargePartyRole" style="stroke: #A80036; stroke-width: 1.0;"/><polygon fill="#A80036" points="830.155,615.917,839.2837,619.6139,835.1522,615.7499,839.0163,611.6184,830.155,615.917" style="stroke: #A80036; stroke-width: 1.0;"/><text fill="#000000" font-family="sans-serif" font-size="13" lengthAdjust="spacingAndGlyphs" textLength="113" x="1215" y="418.0669">ChargesPartyRole</text><text fill="#000000" font-family="sans-serif" font-size="13" lengthAdjust="spacingAndGlyphs" textLength="7" x="838.0368" y="610.5728">*</text><!--link Adjustment to DateTimePeriod--><path d="M336.137,109.727 C465.763,115.705 665.274,136.45 824,204 C854.345,216.914 868.371,219.443 883,249 C907.251,297.995 900.252,320.469 882,372 C862.936,425.822 815.933,476.206 791.05,500.248 " fill="none" id="Adjustment-DateTimePeriod" style="stroke: #A80036; stroke-width: 1.0;"/><polygon fill="#A80036" points="787.254,503.877,796.5234,500.5485,790.8679,500.4216,790.9948,494.7662,787.254,503.877" style="stroke: #A80036; stroke-width: 1.0;"/><text fill="#000000" font-family="sans-serif" font-size="13" lengthAdjust="spacingAndGlyphs" textLength="94" x="890" y="367.0669">EffectivePeriod</text><text fill="#000000" font-family="sans-serif" font-size="13" lengthAdjust="spacingAndGlyphs" textLength="8" x="780.6616" y="492.8829">1</text><!--link Adjustment to CurrencyExchange--><path d="M336.166,152.702 C364.31,166.204 392.303,183.14 415,204 C468.173,252.872 450.279,288.517 494,346 C509.132,365.895 530.036,385.603 544.659,398.439 " fill="none" id="Adjustment-CurrencyExchange" style="stroke: #A80036; stroke-width: 1.0;"/><polygon fill="#A80036" points="548.607,401.872,544.4393,392.9484,544.8336,398.5915,539.1905,398.9859,548.607,401.872" style="stroke: #A80036; stroke-width: 1.0;"/><text fill="#000000" font-family="sans-serif" font-size="13" lengthAdjust="spacingAndGlyphs" textLength="119" x="495" y="291.0669">CurrencyExchange</text><text fill="#000000" font-family="sans-serif" font-size="13" lengthAdjust="spacingAndGlyphs" textLength="8" x="533.2844" y="390.8762">1</text><!--link Adjustment to SecuritiesOrder--><path d="M336.306,117.756 C503.279,131.526 777.461,160.002 869,204 C947.215,241.594 967.001,271.526 994,354 C1045.53,511.403 773.686,583.378 652.241,607.342 " fill="none" id="Adjustment-SecuritiesOrder" style="stroke: #A80036; stroke-width: 1.0;"/><polygon fill="#A80036" points="647.278,608.31,656.8779,610.5103,652.1852,607.3514,655.3442,602.6587,647.278,608.31" style="stroke: #A80036; stroke-width: 1.0;"/><text fill="#000000" font-family="sans-serif" font-size="13" lengthAdjust="spacingAndGlyphs" textLength="99" x="1000" y="418.0669">SecuritiesOrder</text><text fill="#000000" font-family="sans-serif" font-size="13" lengthAdjust="spacingAndGlyphs" textLength="8" x="655.7042" y="601.6041">1</text><!--link Adjustment to Tax--><path d="M336.331,117.984 C506.19,133.724 784.152,170.929 847,249 C881.372,291.697 866.186,324.989 838,372 C792.487,447.91 689.308,492.863 647.305,508.604 " fill="none" id="Adjustment-Tax" style="stroke: #A80036; stroke-width: 1.0;"/><polygon fill="#A80036" points="642.494,510.379,652.3221,511.0181,647.1852,508.6491,649.5542,503.5122,642.494,510.379" style="stroke: #A80036; stroke-width: 1.0;"/><text fill="#000000" font-family="sans-serif" font-size="13" lengthAdjust="spacingAndGlyphs" textLength="22" x="850" y="367.0669">Tax</text><text fill="#000000" font-family="sans-serif" font-size="13" lengthAdjust="spacingAndGlyphs" textLength="24" x="650.8561" y="501.7955">0..1</text><!--link Payment to Tax--><path d="M670.788,299.267 C679.595,315.252 693.248,345.518 688,372 C678.317,420.857 651.699,473.974 637.765,499.539 " fill="none" id="Payment-Tax" style="stroke: #A80036; stroke-width: 1.0;"/><polygon fill="#A80036" points="635.318,503.984,643.1627,498.0291,637.7295,499.6039,636.1546,494.1707,635.318,503.984" style="stroke: #A80036; stroke-width: 1.0;"/><text fill="#000000" font-family="sans-serif" font-size="13" lengthAdjust="spacingAndGlyphs" textLength="97" x="681" y="418.0669">TaxOnPayment</text><text fill="#000000" font-family="sans-serif" font-size="13" lengthAdjust="spacingAndGlyphs" textLength="7" x="627.857" y="493.0267">*</text><!--link Payment to CurrencyExchange--><path d="M656.213,299.45 C646.402,312.905 628.233,334.81 607,346 C589.029,355.471 575.046,338.43 562,354 C552.243,365.644 553.791,383.599 556.821,396.645 " fill="none" id="Payment-CurrencyExchange" style="stroke: #A80036; stroke-width: 1.0;"/><polygon fill="#A80036" points="558.082,401.554,559.7165,391.8417,556.8378,396.7113,551.9682,393.8325,558.082,401.554" style="stroke: #A80036; stroke-width: 1.0;"/><text fill="#000000" font-family="sans-serif" font-size="13" lengthAdjust="spacingAndGlyphs" textLength="119" x="563" y="367.0669">CurrencyExchange</text><text fill="#000000" font-family="sans-serif" font-size="13" lengthAdjust="spacingAndGlyphs" textLength="7" x="547.3988" y="390.9705">*</text><!--link Payment to Payment--><path d="M688.63,274.996 C708.062,270.352 728,274.354 728,287 C728,298.56 711.341,302.896 693.638,300.01 " fill="none" id="Payment-Payment" style="stroke: #A80036; stroke-width: 1.0;"/><polygon fill="#A80036" points="688.63,299.004,696.6663,304.6977,693.5321,299.9884,698.2414,296.8543,688.63,299.004" style="stroke: #A80036; stroke-width: 1.0;"/><text fill="#000000" font-family="sans-serif" font-size="13" lengthAdjust="spacingAndGlyphs" textLength="105" x="734" y="291.0669">OriginalPayment</text><text fill="#000000" font-family="sans-serif" font-size="13" lengthAdjust="spacingAndGlyphs" textLength="8" x="687.5211" y="319.1501">1</text><!--link CurrencyExchange to Tax--><path d="M569.426,426.084 C581.399,443.954 605.002,479.182 618.629,499.521 " fill="none" id="CurrencyExchange-Tax" style="stroke: #A80036; stroke-width: 1.0;"/><polygon fill="#A80036" points="621.541,503.867,619.8538,494.1637,618.7576,499.7134,613.208,498.6171,621.541,503.867" style="stroke: #A80036; stroke-width: 1.0;"/><text fill="#000000" font-family="sans-serif" font-size="13" lengthAdjust="spacingAndGlyphs" textLength="22" x="603" y="469.0669">Tax</text><text fill="#000000" font-family="sans-serif" font-size="13" lengthAdjust="spacingAndGlyphs" textLength="8" x="608.1723" y="492.8695">1</text></g></svg>