<?xml version="1.0" encoding="UTF-8" standalone="no"?><svg xmlns="http://www.w3.org/2000/svg" xmlns:xlink="http://www.w3.org/1999/xlink" contentScriptType="application/ecmascript" contentStyleType="text/css" height="932px" preserveAspectRatio="none" style="width:1443px;height:932px;" version="1.1" viewBox="0 0 1443 932" width="1443px" zoomAndPan="magnify"><defs><filter height="300%" id="f17xoawo3pliga" width="300%" x="-1" y="-1"><feGaussianBlur result="blurOut" stdDeviation="2.0"/><feColorMatrix in="blurOut" result="blurOut2" type="matrix" values="0 0 0 0 0 0 0 0 0 0 0 0 0 0 0 0 0 0 .4 0"/><feOffset dx="4.0" dy="4.0" in="blurOut2" result="blurOut3"/><feBlend in="SourceGraphic" in2="blurOut3" mode="normal"/></filter></defs><g><!--cluster ##12583--><!--cluster ##12595--><!--class Distribution--><a target="_top" xlink:actuate="onRequest" xlink:href="../Distribution.html" xlink:show="new" xlink:title="Distributions in cash and/or securities following a corporate event." xlink:type="simple"><rect fill="#FEFECE" filter="url(#f17xoawo3pliga)" height="211.2344" id="Distribution" style="stroke: #A80036; stroke-width: 1.5;" width="324" x="646.183" y="40.5"/><rect fill="#FEFECE" height="23.9688" style="stroke: #A80036; stroke-width: 1.5;" width="324" x="646.183" y="40.5"/><text fill="#000000" font-family="sans-serif" font-size="12" lengthAdjust="spacingAndGlyphs" textLength="72" x="772.183" y="56.6387">Distribution</text><line style="stroke: #A80036; stroke-width: 1.5;" x1="647.183" x2="969.183" y1="64.4688" y2="64.4688"/><ellipse cx="657.183" cy="76.3711" fill="#84BE84" rx="3" ry="3" style="stroke: #038048; stroke-width: 1.0;"/><text fill="#000000" font-family="sans-serif" font-size="11" lengthAdjust="spacingAndGlyphs" textLength="74" x="666.183" y="78.6792">EffectiveDate</text><text fill="#000000" font-family="sans-serif" font-size="11" font-style="italic" lengthAdjust="spacingAndGlyphs" textLength="81" x="744.183" y="78.6792">(ISODateTime)</text><ellipse cx="657.183" cy="89.1758" fill="#84BE84" rx="3" ry="3" style="stroke: #038048; stroke-width: 1.0;"/><text fill="#000000" font-family="sans-serif" font-size="11" lengthAdjust="spacingAndGlyphs" textLength="91" x="666.183" y="91.4839">EventConditions</text><text fill="#000000" font-family="sans-serif" font-size="11" font-style="italic" lengthAdjust="spacingAndGlyphs" textLength="77" x="761.183" y="91.4839">(Max350Text)</text><ellipse cx="657.183" cy="101.9805" fill="#84BE84" rx="3" ry="3" style="stroke: #038048; stroke-width: 1.0;"/><text fill="#000000" font-family="sans-serif" font-size="11" lengthAdjust="spacingAndGlyphs" textLength="39" x="666.183" y="104.2886">ExDate</text><text fill="#000000" font-family="sans-serif" font-size="11" font-style="italic" lengthAdjust="spacingAndGlyphs" textLength="81" x="709.183" y="104.2886">(ISODateTime)</text><ellipse cx="657.183" cy="114.7852" fill="#84BE84" rx="3" ry="3" style="stroke: #038048; stroke-width: 1.0;"/><text fill="#000000" font-family="sans-serif" font-size="11" lengthAdjust="spacingAndGlyphs" textLength="60" x="666.183" y="117.0933">GrossRate</text><text fill="#000000" font-family="sans-serif" font-size="11" font-style="italic" lengthAdjust="spacingAndGlyphs" textLength="98" x="730.183" y="117.0933">(PercentageRate)</text><ellipse cx="657.183" cy="127.5898" fill="#84BE84" rx="3" ry="3" style="stroke: #038048; stroke-width: 1.0;"/><text fill="#000000" font-family="sans-serif" font-size="11" lengthAdjust="spacingAndGlyphs" textLength="70" x="666.183" y="129.8979">MeetingDate</text><text fill="#000000" font-family="sans-serif" font-size="11" font-style="italic" lengthAdjust="spacingAndGlyphs" textLength="81" x="740.183" y="129.8979">(ISODateTime)</text><ellipse cx="657.183" cy="140.3945" fill="#84BE84" rx="3" ry="3" style="stroke: #038048; stroke-width: 1.0;"/><text fill="#000000" font-family="sans-serif" font-size="11" lengthAdjust="spacingAndGlyphs" textLength="44" x="666.183" y="142.7026">NetRate</text><text fill="#000000" font-family="sans-serif" font-size="11" font-style="italic" lengthAdjust="spacingAndGlyphs" textLength="98" x="714.183" y="142.7026">(PercentageRate)</text><ellipse cx="657.183" cy="153.1992" fill="#84BE84" rx="3" ry="3" style="stroke: #038048; stroke-width: 1.0;"/><text fill="#000000" font-family="sans-serif" font-size="11" lengthAdjust="spacingAndGlyphs" textLength="81" x="666.183" y="155.5073">NewFaceValue</text><text fill="#000000" font-family="sans-serif" font-size="11" font-style="italic" lengthAdjust="spacingAndGlyphs" textLength="126" x="751.183" y="155.5073">(CurrencyAndAmount)</text><ellipse cx="657.183" cy="166.0039" fill="#84BE84" rx="3" ry="3" style="stroke: #038048; stroke-width: 1.0;"/><text fill="#000000" font-family="sans-serif" font-size="11" lengthAdjust="spacingAndGlyphs" textLength="74" x="666.183" y="168.312">NewParValue</text><text fill="#000000" font-family="sans-serif" font-size="11" font-style="italic" lengthAdjust="spacingAndGlyphs" textLength="126" x="744.183" y="168.312">(CurrencyAndAmount)</text><ellipse cx="657.183" cy="178.8086" fill="#84BE84" rx="3" ry="3" style="stroke: #038048; stroke-width: 1.0;"/><text fill="#000000" font-family="sans-serif" font-size="11" lengthAdjust="spacingAndGlyphs" textLength="75" x="666.183" y="181.1167">PaymentDate</text><text fill="#000000" font-family="sans-serif" font-size="11" font-style="italic" lengthAdjust="spacingAndGlyphs" textLength="81" x="745.183" y="181.1167">(ISODateTime)</text><ellipse cx="657.183" cy="191.6133" fill="#84BE84" rx="3" ry="3" style="stroke: #038048; stroke-width: 1.0;"/><text fill="#000000" font-family="sans-serif" font-size="11" lengthAdjust="spacingAndGlyphs" textLength="128" x="666.183" y="193.9214">CorporateActionOption</text><text fill="#000000" font-family="sans-serif" font-size="11" font-style="italic" lengthAdjust="spacingAndGlyphs" textLength="166" x="798.183" y="193.9214">(CorporateActionOptionCode)</text><ellipse cx="657.183" cy="204.418" fill="#84BE84" rx="3" ry="3" style="stroke: #038048; stroke-width: 1.0;"/><text fill="#000000" font-family="sans-serif" font-size="11" lengthAdjust="spacingAndGlyphs" textLength="88" x="666.183" y="206.7261">CurrencyOption</text><text fill="#000000" font-family="sans-serif" font-size="11" font-style="italic" lengthAdjust="spacingAndGlyphs" textLength="89" x="758.183" y="206.7261">(CurrencyCode)</text><ellipse cx="657.183" cy="217.2227" fill="#84BE84" rx="3" ry="3" style="stroke: #038048; stroke-width: 1.0;"/><text fill="#000000" font-family="sans-serif" font-size="11" lengthAdjust="spacingAndGlyphs" textLength="97" x="666.183" y="219.5308">DecreaseAmount</text><text fill="#000000" font-family="sans-serif" font-size="11" font-style="italic" lengthAdjust="spacingAndGlyphs" textLength="126" x="767.183" y="219.5308">(CurrencyAndAmount)</text><ellipse cx="657.183" cy="230.0273" fill="#84BE84" rx="3" ry="3" style="stroke: #038048; stroke-width: 1.0;"/><text fill="#000000" font-family="sans-serif" font-size="11" lengthAdjust="spacingAndGlyphs" textLength="79" x="666.183" y="232.3354">DecreaseRate</text><text fill="#000000" font-family="sans-serif" font-size="11" font-style="italic" lengthAdjust="spacingAndGlyphs" textLength="98" x="749.183" y="232.3354">(PercentageRate)</text><ellipse cx="657.183" cy="242.832" fill="#84BE84" rx="3" ry="3" style="stroke: #038048; stroke-width: 1.0;"/><text fill="#000000" font-family="sans-serif" font-size="11" lengthAdjust="spacingAndGlyphs" textLength="115" x="666.183" y="245.1401">OfferPriceFixingDate</text><text fill="#000000" font-family="sans-serif" font-size="11" font-style="italic" lengthAdjust="spacingAndGlyphs" textLength="81" x="785.183" y="245.1401">(ISODateTime)</text></a><!--class CashDistribution--><a target="_top" xlink:actuate="onRequest" xlink:href="../CashDistribution.html" xlink:show="new" xlink:title="Distribution of cash pay-out." xlink:type="simple"><rect fill="#FEFEEE" filter="url(#f17xoawo3pliga)" height="23.9688" id="CashDistribution" style="stroke: #A80036; stroke-width: 1.5;" width="109" x="757.933" y="314"/><rect fill="#FEFEEE" height="23.9688" style="stroke: #A80036; stroke-width: 1.5;" width="109" x="757.933" y="314"/><text fill="#000000" font-family="sans-serif" font-size="12" lengthAdjust="spacingAndGlyphs" textLength="103" x="760.933" y="330.1387">CashDistribution</text></a><!--class SecuritiesAndCashDistribution--><a target="_top" xlink:actuate="onRequest" xlink:href="../SecuritiesAndCashDistribution.html" xlink:show="new" xlink:title="Characteristics for a mixed cash and securities distribution event." xlink:type="simple"><rect fill="#FEFEEE" filter="url(#f17xoawo3pliga)" height="23.9688" id="SecuritiesAndCashDistribution" style="stroke: #A80036; stroke-width: 1.5;" width="195" x="757.933" y="416"/><rect fill="#FEFEEE" height="23.9688" style="stroke: #A80036; stroke-width: 1.5;" width="195" x="757.933" y="416"/><text fill="#000000" font-family="sans-serif" font-size="12" lengthAdjust="spacingAndGlyphs" textLength="189" x="760.933" y="432.1387">SecuritiesAndCashDistribution</text></a><!--class SecuritiesDistribution--><a target="_top" xlink:actuate="onRequest" xlink:href="../SecuritiesDistribution.html" xlink:show="new" xlink:title="Characteristics for a securities distribution event." xlink:type="simple"><rect fill="#FEFEEE" filter="url(#f17xoawo3pliga)" height="23.9688" id="SecuritiesDistribution" style="stroke: #A80036; stroke-width: 1.5;" width="140" x="761.183" y="520"/><rect fill="#FEFEEE" height="23.9688" style="stroke: #A80036; stroke-width: 1.5;" width="140" x="761.183" y="520"/><text fill="#000000" font-family="sans-serif" font-size="12" lengthAdjust="spacingAndGlyphs" textLength="134" x="764.183" y="536.1387">SecuritiesDistribution</text></a><!--class DateTimePeriod--><a target="_top" xlink:actuate="onRequest" xlink:href="../DateTimePeriod.html" xlink:show="new" xlink:title="Time span defined by a start date and time, and an end date and time." xlink:type="simple"><rect fill="#EEEEEE" filter="url(#f17xoawo3pliga)" height="23.9688" id="DateTimePeriod" style="stroke: #A80036; stroke-width: 1.5;" width="105" x="188.933" y="520"/><rect fill="#EEEEEE" height="23.9688" style="stroke: #A80036; stroke-width: 1.5;" width="105" x="188.933" y="520"/><text fill="#000000" font-family="sans-serif" font-size="12" lengthAdjust="spacingAndGlyphs" textLength="99" x="191.933" y="536.1387">DateTimePeriod</text></a><!--class Tax--><a target="_top" xlink:actuate="onRequest" xlink:href="../Tax.html" xlink:show="new" xlink:title="Amount of money due to the government or tax authority, according to various pre-defined parameters such as thresholds or income." xlink:type="simple"><rect fill="#EEEEEE" filter="url(#f17xoawo3pliga)" height="23.9688" id="Tax" style="stroke: #A80036; stroke-width: 1.5;" width="27" x="521.933" y="710"/><rect fill="#EEEEEE" height="23.9688" style="stroke: #A80036; stroke-width: 1.5;" width="27" x="521.933" y="710"/><text fill="#000000" font-family="sans-serif" font-size="12" lengthAdjust="spacingAndGlyphs" textLength="21" x="524.933" y="726.1387">Tax</text></a><!--class SecuritiesPricing--><a target="_top" xlink:actuate="onRequest" xlink:href="../SecuritiesPricing.html" xlink:show="new" xlink:title="Characteristics related to the price of the security." xlink:type="simple"><rect fill="#EEEEEE" filter="url(#f17xoawo3pliga)" height="23.9688" id="SecuritiesPricing" style="stroke: #A80036; stroke-width: 1.5;" width="110" x="480.183" y="624"/><rect fill="#EEEEEE" height="23.9688" style="stroke: #A80036; stroke-width: 1.5;" width="110" x="480.183" y="624"/><text fill="#000000" font-family="sans-serif" font-size="12" lengthAdjust="spacingAndGlyphs" textLength="104" x="483.183" y="640.1387">SecuritiesPricing</text></a><!--class IncentivePremium--><a target="_top" xlink:actuate="onRequest" xlink:href="../IncentivePremium.html" xlink:show="new" xlink:title="Cash premium made available if the securities holder consents or participates to an event." xlink:type="simple"><rect fill="#EEEEEE" filter="url(#f17xoawo3pliga)" height="23.9688" id="IncentivePremium" style="stroke: #A80036; stroke-width: 1.5;" width="116" x="474.683" y="898"/><rect fill="#EEEEEE" height="23.9688" style="stroke: #A80036; stroke-width: 1.5;" width="116" x="474.683" y="898"/><text fill="#000000" font-family="sans-serif" font-size="12" lengthAdjust="spacingAndGlyphs" textLength="110" x="477.683" y="914.1387">IncentivePremium</text></a><!--class Dividend--><a target="_top" xlink:actuate="onRequest" xlink:href="../Dividend.html" xlink:show="new" xlink:title="Distribution of earnings to shareholders, paid for in cash, stock, scrip issue or, rarely, in kind, for example, in company products or property. The dividend amount is decided by the board of directors." xlink:type="simple"><rect fill="#EEEEEE" filter="url(#f17xoawo3pliga)" height="23.9688" id="Dividend" style="stroke: #A80036; stroke-width: 1.5;" width="59" x="521.933" y="812"/><rect fill="#EEEEEE" height="23.9688" style="stroke: #A80036; stroke-width: 1.5;" width="59" x="521.933" y="812"/><text fill="#000000" font-family="sans-serif" font-size="12" lengthAdjust="spacingAndGlyphs" textLength="53" x="524.933" y="828.1387">Dividend</text></a><!--link Distribution to CashDistribution--><path d="M810.982,271.582 C811.374,289.007 811.716,304.254 811.934,313.949 " fill="none" id="Distribution-CashDistribution" style="stroke: #A80036; stroke-width: 1.0;"/><polygon fill="none" points="803.984,271.725,810.532,251.573,817.98,271.411,803.984,271.725" style="stroke: #A80036; stroke-width: 1.0;"/><!--link Distribution to SecuritiesAndCashDistribution--><path d="M910.617,268.341 C930.964,299.022 949.37,333.199 960.183,368 C962.556,375.64 964.695,379.394 960.183,386 C950.248,400.544 934.322,409.929 917.844,415.985 " fill="none" id="Distribution-SecuritiesAndCashDistribution" style="stroke: #A80036; stroke-width: 1.0;"/><polygon fill="none" points="904.719,272.118,899.15,251.673,916.253,264.183,904.719,272.118" style="stroke: #A80036; stroke-width: 1.0;"/><!--link Distribution to SecuritiesDistribution--><path d="M746.273,270.471 C727.901,323.859 717.931,386.28 740.183,440 C754.974,475.71 791.332,504.714 813.353,519.767 " fill="none" id="Distribution-SecuritiesDistribution" style="stroke: #A80036; stroke-width: 1.0;"/><polygon fill="none" points="739.738,267.958,753.229,251.618,752.873,272.804,739.738,267.958" style="stroke: #A80036; stroke-width: 1.0;"/><!--link Tax to DateTimePeriod--><!--link SecuritiesPricing to Tax--><!--link IncentivePremium to SecuritiesPricing--><!--link Dividend to IncentivePremium--><!--link Distribution to DateTimePeriod--><path d="M645.847,158.343 C503.573,173.054 293.891,206.506 126.183,282 C68.632,307.907 41.2084,311.451 13.1825,368 C-26.5666,448.203 108.547,497.309 187.737,518.595 " fill="none" id="Distribution-DateTimePeriod" style="stroke: #A80036; stroke-width: 1.0;"/><polygon fill="#A80036" points="192.87,519.957,185.1975,513.7818,188.0374,518.6742,183.145,521.5141,192.87,519.957" style="stroke: #A80036; stroke-width: 1.0;"/><text fill="#000000" font-family="sans-serif" font-size="13" lengthAdjust="spacingAndGlyphs" textLength="93" x="14.1825" y="381.0669">ExercisePeriod</text><text fill="#000000" font-family="sans-serif" font-size="13" lengthAdjust="spacingAndGlyphs" textLength="8" x="172.8226" y="511.8038">1</text><!--link Distribution to DateTimePeriod--><path d="M645.927,162.777 C527.728,179.542 366.818,213.598 240.183,282 C186.143,311.189 132.05,327.019 149.183,386 C164.512,438.775 205.466,490.728 227.194,515.68 " fill="none" id="Distribution-DateTimePeriod" style="stroke: #A80036; stroke-width: 1.0;"/><polygon fill="#A80036" points="230.763,519.734,227.8177,510.3358,227.4589,515.9813,221.8134,515.6225,230.763,519.734" style="stroke: #A80036; stroke-width: 1.0;"/><text fill="#000000" font-family="sans-serif" font-size="13" lengthAdjust="spacingAndGlyphs" textLength="71" x="150.183" y="381.0669">OfferPeriod</text><text fill="#000000" font-family="sans-serif" font-size="13" lengthAdjust="spacingAndGlyphs" textLength="8" x="216.5723" y="508.9493">1</text><!--link Distribution to DateTimePeriod--><path d="M646.098,181.362 C560.908,203.221 456.543,236.158 370.183,282 C316.292,310.606 293.178,314.871 263.183,368 C236.221,415.754 237.331,483.592 239.568,514.506 " fill="none" id="Distribution-DateTimePeriod" style="stroke: #A80036; stroke-width: 1.0;"/><polygon fill="#A80036" points="239.992,519.835,243.2645,510.5457,239.5949,514.8508,235.2898,511.1811,239.992,519.835" style="stroke: #A80036; stroke-width: 1.0;"/><text fill="#000000" font-family="sans-serif" font-size="13" lengthAdjust="spacingAndGlyphs" textLength="87" x="264.183" y="381.0669">TradingPeriod</text><text fill="#000000" font-family="sans-serif" font-size="13" lengthAdjust="spacingAndGlyphs" textLength="8" x="228.7779" y="508.8265">1</text><!--link Distribution to DateTimePeriod--><path d="M646.036,211.273 C599.756,231.794 550.018,255.993 506.183,282 C451.903,314.202 439.984,325.658 393.183,368 C337.666,418.228 279.241,485.642 254.017,515.572 " fill="none" id="Distribution-DateTimePeriod" style="stroke: #A80036; stroke-width: 1.0;"/><polygon fill="#A80036" points="250.54,519.71,259.3914,515.391,253.7558,515.8813,253.2655,510.2458,250.54,519.71" style="stroke: #A80036; stroke-width: 1.0;"/><text fill="#000000" font-family="sans-serif" font-size="13" lengthAdjust="spacingAndGlyphs" textLength="93" x="394.183" y="381.0669">BlockingPeriod</text><text fill="#000000" font-family="sans-serif" font-size="13" lengthAdjust="spacingAndGlyphs" textLength="8" x="242.9004" y="508.9174">1</text><!--link Distribution to DateTimePeriod--><path d="M661.61,251.593 C647.868,261.766 634.214,272.015 621.183,282 C562.999,326.582 553.587,344.477 493.183,386 C414.563,440.044 314.668,493.326 267.77,517.511 " fill="none" id="Distribution-DateTimePeriod" style="stroke: #A80036; stroke-width: 1.0;"/><polygon fill="#A80036" points="263.128,519.899,272.961,519.3399,267.5744,517.6122,269.3021,512.2257,263.128,519.899" style="stroke: #A80036; stroke-width: 1.0;"/><text fill="#000000" font-family="sans-serif" font-size="13" lengthAdjust="spacingAndGlyphs" textLength="89" x="519.183" y="381.0669">InterestPeriod</text><text fill="#000000" font-family="sans-serif" font-size="13" lengthAdjust="spacingAndGlyphs" textLength="8" x="259.8669" y="508.9125">1</text><!--link Distribution to Tax--><path d="M904.907,251.767 C913.601,261.859 922.147,272.044 930.183,282 C978.024,341.279 1119.44,534.257 1072.18,594 C1005.232,678.632 640.251,712.661 553.629,719.609 " fill="none" id="Distribution-Tax" style="stroke: #A80036; stroke-width: 1.0;"/><polygon fill="#A80036" points="548.56,720.01,557.8474,723.2878,553.5444,719.6157,557.2165,715.3127,548.56,720.01" style="stroke: #A80036; stroke-width: 1.0;"/><text fill="#000000" font-family="sans-serif" font-size="13" lengthAdjust="spacingAndGlyphs" textLength="95" x="1063.18" y="483.0669">DistributionTax</text><text fill="#000000" font-family="sans-serif" font-size="13" lengthAdjust="spacingAndGlyphs" textLength="8" x="556.9094" y="711.003">1</text><!--link Distribution to SecuritiesPricing--><path d="M746.345,251.682 C718.448,300.781 686.036,360.567 660.183,416 C624.32,492.895 642.822,526.677 591.183,594 C582.905,604.792 571.04,614.038 560.36,621.003 " fill="none" id="Distribution-SecuritiesPricing" style="stroke: #A80036; stroke-width: 1.0;"/><polygon fill="#A80036" points="555.87,623.846,565.6138,622.4116,560.0946,621.1715,561.3347,615.6523,555.87,623.846" style="stroke: #A80036; stroke-width: 1.0;"/><text fill="#000000" font-family="sans-serif" font-size="13" lengthAdjust="spacingAndGlyphs" textLength="62" x="661.183" y="432.0669">OfferPrice</text><text fill="#000000" font-family="sans-serif" font-size="13" lengthAdjust="spacingAndGlyphs" textLength="8" x="552.2624" y="612.8413">1</text><!--link Distribution to IncentivePremium--><path d="M970.343,172.161 C1118.68,199.894 1315.18,250.661 1315.18,325 C1315.18,325 1315.18,325 1315.18,825 C1315.18,897.296 780.641,907.4687 594.884,908.8212 " fill="none" id="Distribution-IncentivePremium" style="stroke: #A80036; stroke-width: 1.0;"/><polygon fill="#A80036" points="589.758,908.8569,598.7852,912.7951,594.7579,908.8226,598.7304,904.7953,589.758,908.8569" style="stroke: #A80036; stroke-width: 1.0;"/><text fill="#000000" font-family="sans-serif" font-size="13" lengthAdjust="spacingAndGlyphs" textLength="115" x="1316.18" y="589.0669">IncentivePremium</text><text fill="#000000" font-family="sans-serif" font-size="13" lengthAdjust="spacingAndGlyphs" textLength="24" x="598.6082" y="903.6988">0..1</text><!--link Distribution to Dividend--><path d="M970.393,157.247 C1079.75,174.004 1204.18,216.835 1204.18,325 C1204.18,325 1204.18,325 1204.18,723 C1204.18,786.199 720.101,814.701 585.525,821.404 " fill="none" id="Distribution-Dividend" style="stroke: #A80036; stroke-width: 1.0;"/><polygon fill="#A80036" points="580.509,821.652,589.6947,825.2049,585.503,821.4063,589.3016,817.2146,580.509,821.652" style="stroke: #A80036; stroke-width: 1.0;"/><text fill="#000000" font-family="sans-serif" font-size="13" lengthAdjust="spacingAndGlyphs" textLength="55" x="1205.18" y="536.0669">Dividend</text><text fill="#000000" font-family="sans-serif" font-size="13" lengthAdjust="spacingAndGlyphs" textLength="8" x="588.9847" y="814.9601">1</text><!--link CashDistribution to SecuritiesAndCashDistribution--><path d="M790.306,338.18 C771.203,349.494 748.255,367.861 760.183,386 C768.695,398.945 782.255,407.822 796.495,413.902 " fill="none" id="CashDistribution-SecuritiesAndCashDistribution" style="stroke: #A80036; stroke-width: 1.0;"/><polygon fill="#A80036" points="801.345,415.858,794.496,408.7805,796.7084,413.9868,791.5021,416.1991,801.345,415.858" style="stroke: #A80036; stroke-width: 1.0;"/><text fill="#000000" font-family="sans-serif" font-size="13" lengthAdjust="spacingAndGlyphs" textLength="193" x="761.183" y="381.0669">SecuritiesAndCashDistribution</text><text fill="#000000" font-family="sans-serif" font-size="13" lengthAdjust="spacingAndGlyphs" textLength="8" x="772.0335" y="404.8574">1</text><!--link SecuritiesAndCashDistribution to SecuritiesDistribution--><path d="M852.522,440.306 C848.247,458.476 839.832,494.239 834.944,515.015 " fill="none" id="SecuritiesAndCashDistribution-SecuritiesDistribution" style="stroke: #A80036; stroke-width: 1.0;"/><polygon fill="#A80036" points="833.782,519.954,839.7378,512.11,834.9277,515.087,831.9506,510.2769,833.782,519.954" style="stroke: #A80036; stroke-width: 1.0;"/><text fill="#000000" font-family="sans-serif" font-size="13" lengthAdjust="spacingAndGlyphs" textLength="136" x="847.183" y="483.0669">SecuritiesDistribution</text><text fill="#000000" font-family="sans-serif" font-size="13" lengthAdjust="spacingAndGlyphs" textLength="8" x="823.9567" y="508.9864">1</text><!--link SecuritiesDistribution to SecuritiesPricing--><path d="M827.733,544.069 C822.738,558.123 812.075,581.986 794.183,594 C762.549,615.239 661.551,626.232 595.423,631.298 " fill="none" id="SecuritiesDistribution-SecuritiesPricing" style="stroke: #A80036; stroke-width: 1.0;"/><polygon fill="#A80036" points="590.328,631.682,599.6031,634.9944,595.3139,631.3063,599.002,627.017,590.328,631.682" style="stroke: #A80036; stroke-width: 1.0;"/><text fill="#000000" font-family="sans-serif" font-size="13" lengthAdjust="spacingAndGlyphs" textLength="121" x="813.183" y="589.0669">CashFractionsPrice</text><text fill="#000000" font-family="sans-serif" font-size="13" lengthAdjust="spacingAndGlyphs" textLength="8" x="598.2756" y="626.0375">1</text><!--link SecuritiesDistribution to SecuritiesPricing--><path d="M889.119,544.04 C927.007,553.756 965.796,570.112 944.183,594 C921.236,619.362 703.296,629.731 595.274,633.34 " fill="none" id="SecuritiesDistribution-SecuritiesPricing" style="stroke: #A80036; stroke-width: 1.0;"/><polygon fill="#A80036" points="590.215,633.507,599.3426,637.2065,595.2123,633.3413,599.0775,629.2109,590.215,633.507" style="stroke: #A80036; stroke-width: 1.0;"/><text fill="#000000" font-family="sans-serif" font-size="13" lengthAdjust="spacingAndGlyphs" textLength="110" x="952.183" y="589.0669">SubscriptionPrice</text><text fill="#000000" font-family="sans-serif" font-size="13" lengthAdjust="spacingAndGlyphs" textLength="8" x="598.1474" y="646.2577">1</text><!--link SecuritiesDistribution to SecuritiesPricing--><path d="M773.191,544.034 C740.511,551.21 699.322,561.875 664.183,576 C649.042,582.086 646.832,586.812 632.183,594 C611.301,604.245 587.219,614.433 568.274,622.091 " fill="none" id="SecuritiesDistribution-SecuritiesPricing" style="stroke: #A80036; stroke-width: 1.0;"/><polygon fill="#A80036" points="563.573,623.981,573.4155,624.3336,568.2118,622.1152,570.4302,616.9115,563.573,623.981" style="stroke: #A80036; stroke-width: 1.0;"/><text fill="#000000" font-family="sans-serif" font-size="13" lengthAdjust="spacingAndGlyphs" textLength="119" x="665.183" y="589.0669">ReinvestmentPrice</text><text fill="#000000" font-family="sans-serif" font-size="13" lengthAdjust="spacingAndGlyphs" textLength="8" x="574.7071" y="613.0227">1</text><!--link DateTimePeriod to SecuritiesPricing--><path d="M274.059,544.114 C297.491,552.295 329.597,564.033 357.183,576 C373.593,583.119 376.52,587.492 393.183,594 C422.659,605.513 456.689,615.448 484.046,622.654 " fill="none" id="DateTimePeriod-SecuritiesPricing" style="stroke: #A80036; stroke-width: 1.0;"/><polygon fill="#A80036" points="489.073,623.968,481.377,617.8221,484.2355,622.7036,479.354,625.5621,489.073,623.968" style="stroke: #A80036; stroke-width: 1.0;"/><text fill="#000000" font-family="sans-serif" font-size="13" lengthAdjust="spacingAndGlyphs" textLength="191" x="394.183" y="589.0669">PriceCalculationRelatedPricing</text><text fill="#000000" font-family="sans-serif" font-size="13" lengthAdjust="spacingAndGlyphs" textLength="8" x="464.4206" y="613.7721">1</text><!--link DateTimePeriod to SecuritiesPricing--><path d="M224.003,544.119 C206.506,556.779 183.836,577.802 198.183,594 C216.184,614.325 382.87,626.632 474.871,631.934 " fill="none" id="DateTimePeriod-SecuritiesPricing" style="stroke: #A80036; stroke-width: 1.0;"/><polygon fill="#A80036" points="480.007,632.227,471.2503,627.7192,475.0152,631.9413,470.7931,635.7061,480.007,632.227" style="stroke: #A80036; stroke-width: 1.0;"/><text fill="#000000" font-family="sans-serif" font-size="13" lengthAdjust="spacingAndGlyphs" textLength="148" x="199.183" y="589.0669">PriceFactRelatedPricing</text><text fill="#000000" font-family="sans-serif" font-size="13" lengthAdjust="spacingAndGlyphs" textLength="8" x="464.0492" y="626.8843">1</text><!--link Tax to Dividend--><path d="M536.956,734.084 C539.779,751.729 545.31,786.297 548.582,806.745 " fill="none" id="Tax-Dividend" style="stroke: #A80036; stroke-width: 1.0;"/><polygon fill="#A80036" points="549.401,811.867,551.9287,802.348,548.611,806.9298,544.0292,803.6121,549.401,811.867" style="stroke: #A80036; stroke-width: 1.0;"/><text fill="#000000" font-family="sans-serif" font-size="13" lengthAdjust="spacingAndGlyphs" textLength="55" x="546.183" y="777.0669">Dividend</text><text fill="#000000" font-family="sans-serif" font-size="13" lengthAdjust="spacingAndGlyphs" textLength="7" x="539.1556" y="800.8695">*</text></g></svg>