<?xml version="1.0" encoding="UTF-8" standalone="no"?><svg xmlns="http://www.w3.org/2000/svg" xmlns:xlink="http://www.w3.org/1999/xlink" contentScriptType="application/ecmascript" contentStyleType="text/css" height="771px" preserveAspectRatio="none" style="width:1159px;height:771px;" version="1.1" viewBox="0 0 1159 771" width="1159px" zoomAndPan="magnify"><defs><filter height="300%" id="f1iklfy5bs0n39" width="300%" x="-1" y="-1"><feGaussianBlur result="blurOut" stdDeviation="2.0"/><feColorMatrix in="blurOut" result="blurOut2" type="matrix" values="0 0 0 0 0 0 0 0 0 0 0 0 0 0 0 0 0 0 .4 0"/><feOffset dx="4.0" dy="4.0" in="blurOut2" result="blurOut3"/><feBlend in="SourceGraphic" in2="blurOut3" mode="normal"/></filter></defs><g><!--cluster ##486--><!--cluster ##489--><!--class Dividend--><a target="_top" xlink:actuate="onRequest" xlink:href="../Dividend.html" xlink:show="new" xlink:title="Distribution of earnings to shareholders, paid for in cash, stock, scrip issue or, rarely, in kind, for example, in company products or property. The dividend amount is decided by the board of directors." xlink:type="simple"><rect fill="#FEFECE" filter="url(#f1iklfy5bs0n39)" height="236.8438" id="Dividend" style="stroke: #A80036; stroke-width: 1.5;" width="380" x="366" y="40.5"/><rect fill="#FEFECE" height="23.9688" style="stroke: #A80036; stroke-width: 1.5;" width="380" x="366" y="40.5"/><text fill="#000000" font-family="sans-serif" font-size="12" lengthAdjust="spacingAndGlyphs" textLength="53" x="529.5" y="56.6387">Dividend</text><line style="stroke: #A80036; stroke-width: 1.5;" x1="367" x2="745" y1="64.4688" y2="64.4688"/><ellipse cx="377" cy="76.3711" fill="#84BE84" rx="3" ry="3" style="stroke: #038048; stroke-width: 1.0;"/><text fill="#000000" font-family="sans-serif" font-size="11" lengthAdjust="spacingAndGlyphs" textLength="106" x="386" y="78.6792">DividendFrequency</text><text fill="#000000" font-family="sans-serif" font-size="11" font-style="italic" lengthAdjust="spacingAndGlyphs" textLength="128" x="496" y="78.6792">(EventFrequencyCode)</text><ellipse cx="377" cy="89.1758" fill="#84BE84" rx="3" ry="3" style="stroke: #038048; stroke-width: 1.0;"/><text fill="#000000" font-family="sans-serif" font-size="11" lengthAdjust="spacingAndGlyphs" textLength="139" x="386" y="91.4839">AnnualTotalDividendRate</text><text fill="#000000" font-family="sans-serif" font-size="11" font-style="italic" lengthAdjust="spacingAndGlyphs" textLength="98" x="529" y="91.4839">(PercentageRate)</text><ellipse cx="377" cy="101.9805" fill="#84BE84" rx="3" ry="3" style="stroke: #038048; stroke-width: 1.0;"/><text fill="#000000" font-family="sans-serif" font-size="11" lengthAdjust="spacingAndGlyphs" textLength="52" x="386" y="104.2886">RateType</text><text fill="#000000" font-family="sans-serif" font-size="11" font-style="italic" lengthAdjust="spacingAndGlyphs" textLength="140" x="442" y="104.2886">(DividendRateTypeCode)</text><ellipse cx="377" cy="114.7852" fill="#84BE84" rx="3" ry="3" style="stroke: #038048; stroke-width: 1.0;"/><text fill="#000000" font-family="sans-serif" font-size="11" lengthAdjust="spacingAndGlyphs" textLength="118" x="386" y="117.0933">DividendRankingDate</text><text fill="#000000" font-family="sans-serif" font-size="11" font-style="italic" lengthAdjust="spacingAndGlyphs" textLength="81" x="508" y="117.0933">(ISODateTime)</text><ellipse cx="377" cy="127.5898" fill="#84BE84" rx="3" ry="3" style="stroke: #038048; stroke-width: 1.0;"/><text fill="#000000" font-family="sans-serif" font-size="11" lengthAdjust="spacingAndGlyphs" textLength="168" x="386" y="129.8979">ManufacturedDividendAmount</text><text fill="#000000" font-family="sans-serif" font-size="11" font-style="italic" lengthAdjust="spacingAndGlyphs" textLength="126" x="558" y="129.8979">(CurrencyAndAmount)</text><ellipse cx="377" cy="140.3945" fill="#84BE84" rx="3" ry="3" style="stroke: #038048; stroke-width: 1.0;"/><text fill="#000000" font-family="sans-serif" font-size="11" lengthAdjust="spacingAndGlyphs" textLength="101" x="386" y="142.7026">UnfrankedAmount</text><text fill="#000000" font-family="sans-serif" font-size="11" font-style="italic" lengthAdjust="spacingAndGlyphs" textLength="126" x="491" y="142.7026">(CurrencyAndAmount)</text><ellipse cx="377" cy="153.1992" fill="#84BE84" rx="3" ry="3" style="stroke: #038048; stroke-width: 1.0;"/><text fill="#000000" font-family="sans-serif" font-size="11" lengthAdjust="spacingAndGlyphs" textLength="181" x="386" y="155.5073">NotionalDividendPayableAmount</text><text fill="#000000" font-family="sans-serif" font-size="11" font-style="italic" lengthAdjust="spacingAndGlyphs" textLength="126" x="571" y="155.5073">(CurrencyAndAmount)</text><ellipse cx="377" cy="166.0039" fill="#84BE84" rx="3" ry="3" style="stroke: #038048; stroke-width: 1.0;"/><text fill="#000000" font-family="sans-serif" font-size="11" lengthAdjust="spacingAndGlyphs" textLength="25" x="386" y="168.312">Rate</text><text fill="#000000" font-family="sans-serif" font-size="11" font-style="italic" lengthAdjust="spacingAndGlyphs" textLength="98" x="415" y="168.312">(PercentageRate)</text><ellipse cx="377" cy="178.8086" fill="#84BE84" rx="3" ry="3" style="stroke: #038048; stroke-width: 1.0;"/><text fill="#000000" font-family="sans-serif" font-size="11" lengthAdjust="spacingAndGlyphs" textLength="87" x="386" y="181.1167">ExDividendDate</text><text fill="#000000" font-family="sans-serif" font-size="11" font-style="italic" lengthAdjust="spacingAndGlyphs" textLength="81" x="477" y="181.1167">(ISODateTime)</text><ellipse cx="377" cy="191.6133" fill="#84BE84" rx="3" ry="3" style="stroke: #038048; stroke-width: 1.0;"/><text fill="#000000" font-family="sans-serif" font-size="11" lengthAdjust="spacingAndGlyphs" textLength="27" x="386" y="193.9214">Type</text><text fill="#000000" font-family="sans-serif" font-size="11" font-style="italic" lengthAdjust="spacingAndGlyphs" textLength="114" x="417" y="193.9214">(DividendTypeCode)</text><ellipse cx="377" cy="204.418" fill="#84BE84" rx="3" ry="3" style="stroke: #038048; stroke-width: 1.0;"/><text fill="#000000" font-family="sans-serif" font-size="11" lengthAdjust="spacingAndGlyphs" textLength="134" x="386" y="206.7261">DividendFrequenceType</text><text fill="#000000" font-family="sans-serif" font-size="11" font-style="italic" lengthAdjust="spacingAndGlyphs" textLength="216" x="524" y="206.7261">(CorporateActionFrequencyTypeCode)</text><ellipse cx="377" cy="217.2227" fill="#84BE84" rx="3" ry="3" style="stroke: #038048; stroke-width: 1.0;"/><text fill="#000000" font-family="sans-serif" font-size="11" lengthAdjust="spacingAndGlyphs" textLength="76" x="386" y="219.5308">DividendRatio</text><text fill="#000000" font-family="sans-serif" font-size="11" font-style="italic" lengthAdjust="spacingAndGlyphs" textLength="98" x="466" y="219.5308">(PercentageRate)</text><ellipse cx="377" cy="230.0273" fill="#84BE84" rx="3" ry="3" style="stroke: #038048; stroke-width: 1.0;"/><text fill="#000000" font-family="sans-serif" font-size="11" lengthAdjust="spacingAndGlyphs" textLength="75" x="386" y="232.3354">PaymentDate</text><text fill="#000000" font-family="sans-serif" font-size="11" font-style="italic" lengthAdjust="spacingAndGlyphs" textLength="53" x="465" y="232.3354">(ISODate)</text><ellipse cx="377" cy="242.832" fill="#84BE84" rx="3" ry="3" style="stroke: #038048; stroke-width: 1.0;"/><text fill="#000000" font-family="sans-serif" font-size="11" lengthAdjust="spacingAndGlyphs" textLength="107" x="386" y="245.1401">PaymentFrequency</text><text fill="#000000" font-family="sans-serif" font-size="11" font-style="italic" lengthAdjust="spacingAndGlyphs" textLength="96" x="497" y="245.1401">(FrequencyCode)</text><ellipse cx="377" cy="255.6367" fill="#84BE84" rx="3" ry="3" style="stroke: #038048; stroke-width: 1.0;"/><text fill="#000000" font-family="sans-serif" font-size="11" lengthAdjust="spacingAndGlyphs" textLength="103" x="386" y="257.9448">ReinvestmentDate</text><text fill="#000000" font-family="sans-serif" font-size="11" font-style="italic" lengthAdjust="spacingAndGlyphs" textLength="53" x="493" y="257.9448">(ISODate)</text><ellipse cx="377" cy="268.4414" fill="#84BE84" rx="3" ry="3" style="stroke: #038048; stroke-width: 1.0;"/><text fill="#000000" font-family="sans-serif" font-size="11" lengthAdjust="spacingAndGlyphs" textLength="31" x="386" y="270.7495">Value</text><text fill="#000000" font-family="sans-serif" font-size="11" font-style="italic" lengthAdjust="spacingAndGlyphs" textLength="126" x="421" y="270.7495">(CurrencyAndAmount)</text></a><!--class RateAndAmount--><a target="_top" xlink:actuate="onRequest" xlink:href="../RateAndAmount.html" xlink:show="new" xlink:title="Specifies the value expressed as a rate or an amount. For example, the value of a tax or a commission." xlink:type="simple"><rect fill="#EEEEEE" filter="url(#f1iklfy5bs0n39)" height="23.9688" id="RateAndAmount" style="stroke: #A80036; stroke-width: 1.5;" width="107" x="575.75" y="736"/><rect fill="#EEEEEE" height="23.9688" style="stroke: #A80036; stroke-width: 1.5;" width="107" x="575.75" y="736"/><text fill="#000000" font-family="sans-serif" font-size="12" lengthAdjust="spacingAndGlyphs" textLength="101" x="578.75" y="752.1387">RateAndAmount</text></a><!--class Security--><a target="_top" xlink:actuate="onRequest" xlink:href="../Security.html" xlink:show="new" xlink:title="Financial instruments representing a sum of rights of the investor vis-a-vis the issuer." xlink:type="simple"><rect fill="#EEEEEE" filter="url(#f1iklfy5bs0n39)" height="23.9688" id="Security" style="stroke: #A80036; stroke-width: 1.5;" width="56" x="747.5" y="650"/><rect fill="#EEEEEE" height="23.9688" style="stroke: #A80036; stroke-width: 1.5;" width="56" x="747.5" y="650"/><text fill="#000000" font-family="sans-serif" font-size="12" lengthAdjust="spacingAndGlyphs" textLength="50" x="750.5" y="666.1387">Security</text></a><!--class CashProceedsDefinition--><a target="_top" xlink:actuate="onRequest" xlink:href="../CashProceedsDefinition.html" xlink:show="new" xlink:title="Definition of the cash proceeds for a corporate action in generic terms; that is, before applying it to specific securities holding. An example would be the definition of a dividend payment where all the information will be given in general on a per share basis." xlink:type="simple"><rect fill="#EEEEEE" filter="url(#f1iklfy5bs0n39)" height="23.9688" id="CashProceedsDefinition" style="stroke: #A80036; stroke-width: 1.5;" width="155" x="697.75" y="564"/><rect fill="#EEEEEE" height="23.9688" style="stroke: #A80036; stroke-width: 1.5;" width="155" x="697.75" y="564"/><text fill="#000000" font-family="sans-serif" font-size="12" lengthAdjust="spacingAndGlyphs" textLength="149" x="700.75" y="580.1387">CashProceedsDefinition</text></a><!--class PaymentObligation--><a target="_top" xlink:actuate="onRequest" xlink:href="../PaymentObligation.html" xlink:show="new" xlink:title="Obligation for the debtor to pay the creditor an amount of cash." xlink:type="simple"><rect fill="#EEEEEE" filter="url(#f1iklfy5bs0n39)" height="23.9688" id="PaymentObligation" style="stroke: #A80036; stroke-width: 1.5;" width="123" x="729.75" y="462"/><rect fill="#EEEEEE" height="23.9688" style="stroke: #A80036; stroke-width: 1.5;" width="123" x="729.75" y="462"/><text fill="#000000" font-family="sans-serif" font-size="12" lengthAdjust="spacingAndGlyphs" textLength="117" x="732.75" y="478.1387">PaymentObligation</text></a><!--class Tax--><a target="_top" xlink:actuate="onRequest" xlink:href="../Tax.html" xlink:show="new" xlink:title="Amount of money due to the government or tax authority, according to various pre-defined parameters such as thresholds or income." xlink:type="simple"><rect fill="#EEEEEE" filter="url(#f1iklfy5bs0n39)" height="23.9688" id="Tax" style="stroke: #A80036; stroke-width: 1.5;" width="27" x="759.75" y="360"/><rect fill="#EEEEEE" height="23.9688" style="stroke: #A80036; stroke-width: 1.5;" width="27" x="759.75" y="360"/><text fill="#000000" font-family="sans-serif" font-size="12" lengthAdjust="spacingAndGlyphs" textLength="21" x="762.75" y="376.1387">Tax</text></a><!--class Distribution--><a target="_top" xlink:actuate="onRequest" xlink:href="../Distribution.html" xlink:show="new" xlink:title="Distributions in cash and/or securities following a corporate event." xlink:type="simple"><rect fill="#EEEEEE" filter="url(#f1iklfy5bs0n39)" height="23.9688" id="Distribution" style="stroke: #A80036; stroke-width: 1.5;" width="78" x="576" y="462"/><rect fill="#EEEEEE" height="23.9688" style="stroke: #A80036; stroke-width: 1.5;" width="78" x="576" y="462"/><text fill="#000000" font-family="sans-serif" font-size="12" lengthAdjust="spacingAndGlyphs" textLength="72" x="579" y="478.1387">Distribution</text></a><!--link Security to RateAndAmount--><!--link CashProceedsDefinition to Security--><!--link PaymentObligation to CashProceedsDefinition--><!--link Tax to PaymentObligation--><!--link Distribution to Tax--><!--link Tax to Distribution--><path d="M759.733,376.674 C751.72,378.865 741.292,381.665 732,384 C675.331,398.239 640.298,368.211 604,414 C594.315,426.217 599.709,444.308 605.864,457.233 " fill="none" id="Tax-Distribution" style="stroke: #A80036; stroke-width: 1.0;"/><polygon fill="#A80036" points="608.139,461.741,607.6541,451.9041,605.8858,457.2775,600.5124,455.5092,608.139,461.741" style="stroke: #A80036; stroke-width: 1.0;"/><text fill="#000000" font-family="sans-serif" font-size="13" lengthAdjust="spacingAndGlyphs" textLength="225" x="605" y="427.0669">RelatedCorporateActionDistribution</text><text fill="#000000" font-family="sans-serif" font-size="13" lengthAdjust="spacingAndGlyphs" textLength="24" x="609.8413" y="450.9586">0..1</text><!--link Dividend to RateAndAmount--><path d="M365.951,195.774 C206.976,231.303 6,291.867 6,371 C6,371 6,371 6,663 C6,719.5925 414.969,739.6225 570.2,745.1869 " fill="none" id="Dividend-RateAndAmount" style="stroke: #A80036; stroke-width: 1.0;"/><polygon fill="#A80036" points="575.614,745.3788,566.7614,741.0625,570.6171,745.2017,566.4779,749.0574,575.614,745.3788" style="stroke: #A80036; stroke-width: 1.0;"/><text fill="#000000" font-family="sans-serif" font-size="13" lengthAdjust="spacingAndGlyphs" textLength="84" x="7" y="529.0669">FinalDividend</text><text fill="#000000" font-family="sans-serif" font-size="13" lengthAdjust="spacingAndGlyphs" textLength="8" x="559.8342" y="758.0193">1</text><!--link Dividend to RateAndAmount--><path d="M365.845,181.711 C253.482,206.333 133,258.876 133,371 C133,371 133,371 133,663 C133,706.8792 438.661,733.6317 570.085,743.1064 " fill="none" id="Dividend-RateAndAmount" style="stroke: #A80036; stroke-width: 1.0;"/><polygon fill="#A80036" points="575.448,743.4904,566.7567,738.8578,570.4608,743.1333,566.1853,746.8373,575.448,743.4904" style="stroke: #A80036; stroke-width: 1.0;"/><text fill="#000000" font-family="sans-serif" font-size="13" lengthAdjust="spacingAndGlyphs" textLength="184" x="134" y="529.0669">FullyFrankedRateAndAmount</text><text fill="#000000" font-family="sans-serif" font-size="13" lengthAdjust="spacingAndGlyphs" textLength="8" x="559.649" y="738.0625">1</text><!--link Dividend to RateAndAmount--><path d="M395.267,277.758 C374.342,305.045 360,336.376 360,371 C360,371 360,371 360,663 C360,706.7451 491.257,730.363 570.397,740.6274 " fill="none" id="Dividend-RateAndAmount" style="stroke: #A80036; stroke-width: 1.0;"/><polygon fill="#A80036" points="575.533,741.2843,567.1131,736.1749,570.5734,740.65,566.0983,744.1103,575.533,741.2843" style="stroke: #A80036; stroke-width: 1.0;"/><text fill="#000000" font-family="sans-serif" font-size="13" lengthAdjust="spacingAndGlyphs" textLength="92" x="361" y="529.0669">GrossDividend</text><text fill="#000000" font-family="sans-serif" font-size="13" lengthAdjust="spacingAndGlyphs" textLength="8" x="559.6857" y="732.5273">1</text><!--link Dividend to RateAndAmount--><path d="M495.315,277.873 C491.571,288.538 488.365,299.339 486,310 C464.43,407.227 463.682,438.52 492,534 C517.017,618.35 537.518,635.385 590,706 C596.95,715.3509 605.83,724.8369 613.361,732.3261 " fill="none" id="Dividend-RateAndAmount" style="stroke: #A80036; stroke-width: 1.0;"/><polygon fill="#A80036" points="616.935,735.8329,613.3136,726.674,613.3666,732.3306,607.7099,732.3835,616.935,735.8329" style="stroke: #A80036; stroke-width: 1.0;"/><text fill="#000000" font-family="sans-serif" font-size="13" lengthAdjust="spacingAndGlyphs" textLength="78" x="493" y="529.0669">NetDividend</text><text fill="#000000" font-family="sans-serif" font-size="13" lengthAdjust="spacingAndGlyphs" textLength="8" x="601.983" y="724.8237">1</text><!--link Dividend to RateAndAmount--><path d="M556.696,277.947 C556.797,294.748 556.901,311.813 557,328 C557.431,398.222 538.226,418.618 558,486 C562.444,501.144 570.956,501.421 577,516 C608.659,592.369 622.668,691.309 627.22,730.2271 " fill="none" id="Dividend-RateAndAmount" style="stroke: #A80036; stroke-width: 1.0;"/><polygon fill="#A80036" points="627.824,735.5237,630.7788,726.1285,627.2577,730.5559,622.8303,727.0347,627.824,735.5237" style="stroke: #A80036; stroke-width: 1.0;"/><text fill="#000000" font-family="sans-serif" font-size="13" lengthAdjust="spacingAndGlyphs" textLength="123" x="585" y="529.0669">ProvisionalDividend</text><text fill="#000000" font-family="sans-serif" font-size="13" lengthAdjust="spacingAndGlyphs" textLength="8" x="616.7757" y="724.9305">1</text><!--link Dividend to Security--><path d="M746.057,197.445 C900.887,233.575 1094,294.06 1094,371 C1094,371 1094,371 1094,577 C1094,635.701 889.443,654.254 807.938,659.316 " fill="none" id="Dividend-Security" style="stroke: #A80036; stroke-width: 1.0;"/><polygon fill="#A80036" points="802.751,659.63,811.9767,663.0776,807.7418,659.3272,811.4922,655.0923,802.751,659.63" style="stroke: #A80036; stroke-width: 1.0;"/><text fill="#000000" font-family="sans-serif" font-size="13" lengthAdjust="spacingAndGlyphs" textLength="52" x="1095" y="478.0669">Security</text><text fill="#000000" font-family="sans-serif" font-size="13" lengthAdjust="spacingAndGlyphs" textLength="7" x="811.3997" y="652.6628">*</text><!--link Dividend to CashProceedsDefinition--><path d="M746.264,204.62 C815.042,230.927 885.636,272.102 926,336 C979.923,421.362 849.676,523.866 796.429,560.84 " fill="none" id="Dividend-CashProceedsDefinition" style="stroke: #A80036; stroke-width: 1.0;"/><polygon fill="#A80036" points="792.127,563.801,801.8087,561.994,796.2459,560.9665,797.2734,555.4037,792.127,563.801" style="stroke: #A80036; stroke-width: 1.0;"/><text fill="#000000" font-family="sans-serif" font-size="13" lengthAdjust="spacingAndGlyphs" textLength="91" x="933" y="427.0669">CashProceeds</text><text fill="#000000" font-family="sans-serif" font-size="13" lengthAdjust="spacingAndGlyphs" textLength="7" x="788.2269" y="553.0385">*</text><!--link Dividend to PaymentObligation--><path d="M737.871,277.512 C760.922,295.811 783.301,315.496 803,336 C836.473,370.84 877.033,389.53 854,432 C847.519,443.95 835.881,452.963 824.356,459.452 " fill="none" id="Dividend-PaymentObligation" style="stroke: #A80036; stroke-width: 1.0;"/><polygon fill="#A80036" points="819.784,461.903,829.6059,461.1743,824.1903,459.5398,825.8248,454.1243,819.784,461.903" style="stroke: #A80036; stroke-width: 1.0;"/><text fill="#000000" font-family="sans-serif" font-size="13" lengthAdjust="spacingAndGlyphs" textLength="64" x="852" y="376.0669">Obligation</text><text fill="#000000" font-family="sans-serif" font-size="13" lengthAdjust="spacingAndGlyphs" textLength="7" x="820.0457" y="450.9179">*</text><!--link Dividend to Tax--><path d="M676.873,277.531 C709.263,309.026 740.163,339.071 757.823,356.243 " fill="none" id="Dividend-Tax" style="stroke: #A80036; stroke-width: 1.0;"/><polygon fill="#A80036" points="761.598,359.913,757.9347,350.7708,758.0135,356.4271,752.3572,356.506,761.598,359.913" style="stroke: #A80036; stroke-width: 1.0;"/><text fill="#000000" font-family="sans-serif" font-size="13" lengthAdjust="spacingAndGlyphs" textLength="22" x="728" y="323.0669">Tax</text><text fill="#000000" font-family="sans-serif" font-size="13" lengthAdjust="spacingAndGlyphs" textLength="8" x="746.8739" y="348.9313">1</text><!--link Dividend to Distribution--><path d="M560.824,277.809 C565.451,326.541 574.282,382.996 591,432 C594.043,440.921 599.152,450.048 603.876,457.419 " fill="none" id="Dividend-Distribution" style="stroke: #A80036; stroke-width: 1.0;"/><polygon fill="#A80036" points="606.746,461.764,605.1242,452.0496,603.9907,457.5917,598.4485,456.4581,606.746,461.764" style="stroke: #A80036; stroke-width: 1.0;"/><text fill="#000000" font-family="sans-serif" font-size="13" lengthAdjust="spacingAndGlyphs" textLength="121" x="578" y="376.0669">RelatedDistribution</text><text fill="#000000" font-family="sans-serif" font-size="13" lengthAdjust="spacingAndGlyphs" textLength="8" x="593.3556" y="450.9893">1</text></g></svg>