<?xml version="1.0" encoding="UTF-8" standalone="no"?><svg xmlns="http://www.w3.org/2000/svg" xmlns:xlink="http://www.w3.org/1999/xlink" contentScriptType="application/ecmascript" contentStyleType="text/css" height="682px" preserveAspectRatio="none" style="width:1768px;height:682px;" version="1.1" viewBox="0 0 1768 682" width="1768px" zoomAndPan="magnify"><defs><filter height="300%" id="fvphx7o7wjxg6" width="300%" x="-1" y="-1"><feGaussianBlur result="blurOut" stdDeviation="2.0"/><feColorMatrix in="blurOut" result="blurOut2" type="matrix" values="0 0 0 0 0 0 0 0 0 0 0 0 0 0 0 0 0 0 .4 0"/><feOffset dx="4.0" dy="4.0" in="blurOut2" result="blurOut3"/><feBlend in="SourceGraphic" in2="blurOut3" mode="normal"/></filter></defs><g><!--cluster ##12682--><!--cluster ##12685--><!--class Dividend--><a target="_top" xlink:actuate="onRequest" xlink:href="../Dividend.html" xlink:show="new" xlink:title="Distribution of earnings to shareholders, paid for in cash, stock, scrip issue or, rarely, in kind, for example, in company products or property. The dividend amount is decided by the board of directors." xlink:type="simple"><rect fill="#FEFECE" filter="url(#fvphx7o7wjxg6)" height="249.6484" id="Dividend" style="stroke: #A80036; stroke-width: 1.5;" width="380" x="542" y="40"/><rect fill="#FEFECE" height="23.9688" style="stroke: #A80036; stroke-width: 1.5;" width="380" x="542" y="40"/><text fill="#000000" font-family="sans-serif" font-size="12" lengthAdjust="spacingAndGlyphs" textLength="53" x="705.5" y="56.1387">Dividend</text><line style="stroke: #A80036; stroke-width: 1.5;" x1="543" x2="921" y1="63.9688" y2="63.9688"/><ellipse cx="553" cy="75.8711" fill="#84BE84" rx="3" ry="3" style="stroke: #038048; stroke-width: 1.0;"/><text fill="#000000" font-family="sans-serif" font-size="11" lengthAdjust="spacingAndGlyphs" textLength="106" x="562" y="78.1792">DividendFrequency</text><text fill="#000000" font-family="sans-serif" font-size="11" font-style="italic" lengthAdjust="spacingAndGlyphs" textLength="128" x="672" y="78.1792">(EventFrequencyCode)</text><ellipse cx="553" cy="88.6758" fill="#84BE84" rx="3" ry="3" style="stroke: #038048; stroke-width: 1.0;"/><text fill="#000000" font-family="sans-serif" font-size="11" lengthAdjust="spacingAndGlyphs" textLength="139" x="562" y="90.9839">AnnualTotalDividendRate</text><text fill="#000000" font-family="sans-serif" font-size="11" font-style="italic" lengthAdjust="spacingAndGlyphs" textLength="98" x="705" y="90.9839">(PercentageRate)</text><ellipse cx="553" cy="101.4805" fill="#84BE84" rx="3" ry="3" style="stroke: #038048; stroke-width: 1.0;"/><text fill="#000000" font-family="sans-serif" font-size="11" lengthAdjust="spacingAndGlyphs" textLength="52" x="562" y="103.7886">RateType</text><text fill="#000000" font-family="sans-serif" font-size="11" font-style="italic" lengthAdjust="spacingAndGlyphs" textLength="140" x="618" y="103.7886">(DividendRateTypeCode)</text><ellipse cx="553" cy="114.2852" fill="#84BE84" rx="3" ry="3" style="stroke: #038048; stroke-width: 1.0;"/><text fill="#000000" font-family="sans-serif" font-size="11" lengthAdjust="spacingAndGlyphs" textLength="118" x="562" y="116.5933">DividendRankingDate</text><text fill="#000000" font-family="sans-serif" font-size="11" font-style="italic" lengthAdjust="spacingAndGlyphs" textLength="81" x="684" y="116.5933">(ISODateTime)</text><ellipse cx="553" cy="127.0898" fill="#84BE84" rx="3" ry="3" style="stroke: #038048; stroke-width: 1.0;"/><text fill="#000000" font-family="sans-serif" font-size="11" lengthAdjust="spacingAndGlyphs" textLength="168" x="562" y="129.3979">ManufacturedDividendAmount</text><text fill="#000000" font-family="sans-serif" font-size="11" font-style="italic" lengthAdjust="spacingAndGlyphs" textLength="126" x="734" y="129.3979">(CurrencyAndAmount)</text><ellipse cx="553" cy="139.8945" fill="#84BE84" rx="3" ry="3" style="stroke: #038048; stroke-width: 1.0;"/><text fill="#000000" font-family="sans-serif" font-size="11" lengthAdjust="spacingAndGlyphs" textLength="101" x="562" y="142.2026">UnfrankedAmount</text><text fill="#000000" font-family="sans-serif" font-size="11" font-style="italic" lengthAdjust="spacingAndGlyphs" textLength="126" x="667" y="142.2026">(CurrencyAndAmount)</text><ellipse cx="553" cy="152.6992" fill="#84BE84" rx="3" ry="3" style="stroke: #038048; stroke-width: 1.0;"/><text fill="#000000" font-family="sans-serif" font-size="11" lengthAdjust="spacingAndGlyphs" textLength="181" x="562" y="155.0073">NotionalDividendPayableAmount</text><text fill="#000000" font-family="sans-serif" font-size="11" font-style="italic" lengthAdjust="spacingAndGlyphs" textLength="126" x="747" y="155.0073">(CurrencyAndAmount)</text><ellipse cx="553" cy="165.5039" fill="#84BE84" rx="3" ry="3" style="stroke: #038048; stroke-width: 1.0;"/><text fill="#000000" font-family="sans-serif" font-size="11" lengthAdjust="spacingAndGlyphs" textLength="25" x="562" y="167.812">Rate</text><text fill="#000000" font-family="sans-serif" font-size="11" font-style="italic" lengthAdjust="spacingAndGlyphs" textLength="98" x="591" y="167.812">(PercentageRate)</text><ellipse cx="553" cy="178.3086" fill="#84BE84" rx="3" ry="3" style="stroke: #038048; stroke-width: 1.0;"/><text fill="#000000" font-family="sans-serif" font-size="11" lengthAdjust="spacingAndGlyphs" textLength="87" x="562" y="180.6167">ExDividendDate</text><text fill="#000000" font-family="sans-serif" font-size="11" font-style="italic" lengthAdjust="spacingAndGlyphs" textLength="81" x="653" y="180.6167">(ISODateTime)</text><ellipse cx="553" cy="191.1133" fill="#84BE84" rx="3" ry="3" style="stroke: #038048; stroke-width: 1.0;"/><text fill="#000000" font-family="sans-serif" font-size="11" lengthAdjust="spacingAndGlyphs" textLength="27" x="562" y="193.4214">Type</text><text fill="#000000" font-family="sans-serif" font-size="11" font-style="italic" lengthAdjust="spacingAndGlyphs" textLength="114" x="593" y="193.4214">(DividendTypeCode)</text><ellipse cx="553" cy="203.918" fill="#84BE84" rx="3" ry="3" style="stroke: #038048; stroke-width: 1.0;"/><text fill="#000000" font-family="sans-serif" font-size="11" lengthAdjust="spacingAndGlyphs" textLength="134" x="562" y="206.2261">DividendFrequenceType</text><text fill="#000000" font-family="sans-serif" font-size="11" font-style="italic" lengthAdjust="spacingAndGlyphs" textLength="216" x="700" y="206.2261">(CorporateActionFrequencyTypeCode)</text><ellipse cx="553" cy="216.7227" fill="#84BE84" rx="3" ry="3" style="stroke: #038048; stroke-width: 1.0;"/><text fill="#000000" font-family="sans-serif" font-size="11" lengthAdjust="spacingAndGlyphs" textLength="76" x="562" y="219.0308">DividendRatio</text><text fill="#000000" font-family="sans-serif" font-size="11" font-style="italic" lengthAdjust="spacingAndGlyphs" textLength="98" x="642" y="219.0308">(PercentageRate)</text><ellipse cx="553" cy="229.5273" fill="#84BE84" rx="3" ry="3" style="stroke: #038048; stroke-width: 1.0;"/><text fill="#000000" font-family="sans-serif" font-size="11" lengthAdjust="spacingAndGlyphs" textLength="75" x="562" y="231.8354">PaymentDate</text><text fill="#000000" font-family="sans-serif" font-size="11" font-style="italic" lengthAdjust="spacingAndGlyphs" textLength="53" x="641" y="231.8354">(ISODate)</text><ellipse cx="553" cy="242.332" fill="#84BE84" rx="3" ry="3" style="stroke: #038048; stroke-width: 1.0;"/><text fill="#000000" font-family="sans-serif" font-size="11" lengthAdjust="spacingAndGlyphs" textLength="107" x="562" y="244.6401">PaymentFrequency</text><text fill="#000000" font-family="sans-serif" font-size="11" font-style="italic" lengthAdjust="spacingAndGlyphs" textLength="96" x="673" y="244.6401">(FrequencyCode)</text><ellipse cx="553" cy="255.1367" fill="#84BE84" rx="3" ry="3" style="stroke: #038048; stroke-width: 1.0;"/><text fill="#000000" font-family="sans-serif" font-size="11" lengthAdjust="spacingAndGlyphs" textLength="103" x="562" y="257.4448">ReinvestmentDate</text><text fill="#000000" font-family="sans-serif" font-size="11" font-style="italic" lengthAdjust="spacingAndGlyphs" textLength="53" x="669" y="257.4448">(ISODate)</text><ellipse cx="553" cy="267.9414" fill="#84BE84" rx="3" ry="3" style="stroke: #038048; stroke-width: 1.0;"/><text fill="#000000" font-family="sans-serif" font-size="11" lengthAdjust="spacingAndGlyphs" textLength="31" x="562" y="270.2495">Value</text><text fill="#000000" font-family="sans-serif" font-size="11" font-style="italic" lengthAdjust="spacingAndGlyphs" textLength="126" x="597" y="270.2495">(CurrencyAndAmount)</text><ellipse cx="553" cy="280.7461" fill="#84BE84" rx="3" ry="3" style="stroke: #038048; stroke-width: 1.0;"/><text fill="#000000" font-family="sans-serif" font-size="11" lengthAdjust="spacingAndGlyphs" textLength="72" x="562" y="283.0542">DeemedRate</text><text fill="#000000" font-family="sans-serif" font-size="11" font-style="italic" lengthAdjust="spacingAndGlyphs" textLength="98" x="638" y="283.0542">(PercentageRate)</text></a><!--class RateAndAmount--><a target="_top" xlink:actuate="onRequest" xlink:href="../RateAndAmount.html" xlink:show="new" xlink:title="Specifies the value expressed as a rate or an amount. For example, the value of a tax or a commission." xlink:type="simple"><rect fill="#EEEEEE" filter="url(#fvphx7o7wjxg6)" height="23.9688" id="RateAndAmount" style="stroke: #A80036; stroke-width: 1.5;" width="107" x="208.75" y="644"/><rect fill="#EEEEEE" height="23.9688" style="stroke: #A80036; stroke-width: 1.5;" width="107" x="208.75" y="644"/><text fill="#000000" font-family="sans-serif" font-size="12" lengthAdjust="spacingAndGlyphs" textLength="101" x="211.75" y="660.1387">RateAndAmount</text></a><!--class Security--><a target="_top" xlink:actuate="onRequest" xlink:href="../Security.html" xlink:show="new" xlink:title="Financial instruments representing a sum of rights of the investor vis-a-vis the issuer." xlink:type="simple"><rect fill="#EEEEEE" filter="url(#fvphx7o7wjxg6)" height="23.9688" id="Security" style="stroke: #A80036; stroke-width: 1.5;" width="56" x="234.5" y="558"/><rect fill="#EEEEEE" height="23.9688" style="stroke: #A80036; stroke-width: 1.5;" width="56" x="234.5" y="558"/><text fill="#000000" font-family="sans-serif" font-size="12" lengthAdjust="spacingAndGlyphs" textLength="50" x="237.5" y="574.1387">Security</text></a><!--class CashProceedsDefinition--><a target="_top" xlink:actuate="onRequest" xlink:href="../CashProceedsDefinition.html" xlink:show="new" xlink:title="Definition of the cash proceeds for a corporate action in generic terms; that is, before applying it to specific securities holding. An example would be the definition of a dividend payment where all the information will be given in general on a per share basis." xlink:type="simple"><rect fill="#EEEEEE" filter="url(#fvphx7o7wjxg6)" height="23.9688" id="CashProceedsDefinition" style="stroke: #A80036; stroke-width: 1.5;" width="155" x="159.75" y="472"/><rect fill="#EEEEEE" height="23.9688" style="stroke: #A80036; stroke-width: 1.5;" width="155" x="159.75" y="472"/><text fill="#000000" font-family="sans-serif" font-size="12" lengthAdjust="spacingAndGlyphs" textLength="149" x="162.75" y="488.1387">CashProceedsDefinition</text></a><!--class PaymentObligation--><a target="_top" xlink:actuate="onRequest" xlink:href="../PaymentObligation.html" xlink:show="new" xlink:title="Obligation for the debtor to pay the creditor an amount of cash." xlink:type="simple"><rect fill="#EEEEEE" filter="url(#fvphx7o7wjxg6)" height="23.9688" id="PaymentObligation" style="stroke: #A80036; stroke-width: 1.5;" width="123" x="191.75" y="370"/><rect fill="#EEEEEE" height="23.9688" style="stroke: #A80036; stroke-width: 1.5;" width="123" x="191.75" y="370"/><text fill="#000000" font-family="sans-serif" font-size="12" lengthAdjust="spacingAndGlyphs" textLength="117" x="194.75" y="386.1387">PaymentObligation</text></a><!--class Tax--><a target="_top" xlink:actuate="onRequest" xlink:href="../Tax.html" xlink:show="new" xlink:title="Amount of money due to the government or tax authority, according to various pre-defined parameters such as thresholds or income." xlink:type="simple"><rect fill="#EEEEEE" filter="url(#fvphx7o7wjxg6)" height="23.9688" id="Tax" style="stroke: #A80036; stroke-width: 1.5;" width="27" x="66.75" y="153"/><rect fill="#EEEEEE" height="23.9688" style="stroke: #A80036; stroke-width: 1.5;" width="27" x="66.75" y="153"/><text fill="#000000" font-family="sans-serif" font-size="12" lengthAdjust="spacingAndGlyphs" textLength="21" x="69.75" y="169.1387">Tax</text></a><!--class Distribution--><a target="_top" xlink:actuate="onRequest" xlink:href="../Distribution.html" xlink:show="new" xlink:title="Distributions in cash and/or securities following a corporate event." xlink:type="simple"><rect fill="#EEEEEE" filter="url(#fvphx7o7wjxg6)" height="23.9688" id="Distribution" style="stroke: #A80036; stroke-width: 1.5;" width="78" x="41" y="370"/><rect fill="#EEEEEE" height="23.9688" style="stroke: #A80036; stroke-width: 1.5;" width="78" x="41" y="370"/><text fill="#000000" font-family="sans-serif" font-size="12" lengthAdjust="spacingAndGlyphs" textLength="72" x="44" y="386.1387">Distribution</text></a><!--link Security to RateAndAmount--><!--link CashProceedsDefinition to Security--><!--link PaymentObligation to CashProceedsDefinition--><!--link Tax to PaymentObligation--><!--link Distribution to Tax--><!--link Tax to Distribution--><path d="M79.3795,177.405 C77.9592,205.211 74.7606,278.709 77,340 C77.2949,348.071 77.9152,357.017 78.5157,364.488 " fill="none" id="Tax-Distribution" style="stroke: #A80036; stroke-width: 1.0;"/><polygon fill="#A80036" points="78.9653,369.875,82.2031,360.5736,78.5496,364.8923,74.2308,361.2387,78.9653,369.875" style="stroke: #A80036; stroke-width: 1.0;"/><text fill="#000000" font-family="sans-serif" font-size="13" lengthAdjust="spacingAndGlyphs" textLength="225" x="78" y="335.0669">RelatedCorporateActionDistribution</text><text fill="#000000" font-family="sans-serif" font-size="13" lengthAdjust="spacingAndGlyphs" textLength="24" x="49.1409" y="358.8802">0..1</text><!--link Dividend to RateAndAmount--><path d="M922.309,207.987 C1069.72,246.197 1249,307.729 1249,381 C1249,381 1249,381 1249,571 C1249,617.8735 532.941,645.8385 320.64,653.0996 " fill="none" id="Dividend-RateAndAmount" style="stroke: #A80036; stroke-width: 1.0;"/><polygon fill="#A80036" points="315.415,653.2776,324.5458,656.9693,320.4121,653.1076,324.2738,648.9739,315.415,653.2776" style="stroke: #A80036; stroke-width: 1.0;"/><text fill="#000000" font-family="sans-serif" font-size="13" lengthAdjust="spacingAndGlyphs" textLength="84" x="1250" y="488.0669">FinalDividend</text><text fill="#000000" font-family="sans-serif" font-size="13" lengthAdjust="spacingAndGlyphs" textLength="8" x="323.8111" y="647.7083">1</text><!--link Dividend to RateAndAmount--><path d="M922.439,189.102 C1121.75,218.739 1406,278.903 1406,381 C1406,381 1406,381 1406,571 C1406,626.0126 553.472,648.6431 320.321,653.8035 " fill="none" id="Dividend-RateAndAmount" style="stroke: #A80036; stroke-width: 1.0;"/><polygon fill="#A80036" points="315.263,653.9149,324.3488,657.7159,320.2618,653.8049,324.1728,649.7179,315.263,653.9149" style="stroke: #A80036; stroke-width: 1.0;"/><text fill="#000000" font-family="sans-serif" font-size="13" lengthAdjust="spacingAndGlyphs" textLength="184" x="1407" y="488.0669">FullyFrankedRateAndAmount</text><text fill="#000000" font-family="sans-serif" font-size="13" lengthAdjust="spacingAndGlyphs" textLength="8" x="323.6368" y="666.7892">1</text><!--link Dividend to RateAndAmount--><path d="M922.086,171.751 C1194.38,185.246 1663,230.355 1663,381 C1663,381 1663,381 1663,571 C1663,639.3273 587.188,652.4078 321.016,654.5985 " fill="none" id="Dividend-RateAndAmount" style="stroke: #A80036; stroke-width: 1.0;"/><polygon fill="#A80036" points="315.635,654.6422,324.6678,658.5675,320.6348,654.6008,324.6015,650.5678,315.635,654.6422" style="stroke: #A80036; stroke-width: 1.0;"/><text fill="#000000" font-family="sans-serif" font-size="13" lengthAdjust="spacingAndGlyphs" textLength="92" x="1664" y="488.0669">GrossDividend</text><text fill="#000000" font-family="sans-serif" font-size="13" lengthAdjust="spacingAndGlyphs" textLength="8" x="323.8722" y="647.2265">1</text><!--link Dividend to RateAndAmount--><path d="M684.84,290.215 C676.931,307.31 668.257,324.352 659,340 C629.526,389.824 625.687,409.182 578,442 C541.526,467.102 521.884,450.821 483,472 C395.142,519.854 309.118,605.2537 276.124,639.8362 " fill="none" id="Dividend-RateAndAmount" style="stroke: #A80036; stroke-width: 1.0;"/><polygon fill="#A80036" points="272.367,643.7957,281.4636,640.0205,275.8087,640.1687,275.6605,634.5138,272.367,643.7957" style="stroke: #A80036; stroke-width: 1.0;"/><text fill="#000000" font-family="sans-serif" font-size="13" lengthAdjust="spacingAndGlyphs" textLength="78" x="484" y="488.0669">NetDividend</text><text fill="#000000" font-family="sans-serif" font-size="13" lengthAdjust="spacingAndGlyphs" textLength="8" x="265.062" y="633.0315">1</text><!--link Dividend to RateAndAmount--><path d="M708.528,290.269 C697.904,325.913 682.68,363.378 661,394 C625.552,444.07 616.638,458.612 568,496 C478.435,564.849 354.654,618.5873 295.759,642.0849 " fill="none" id="Dividend-RateAndAmount" style="stroke: #A80036; stroke-width: 1.0;"/><polygon fill="#A80036" points="290.948,643.9946,300.7888,644.3927,295.5954,642.1503,297.8379,636.9569,290.948,643.9946" style="stroke: #A80036; stroke-width: 1.0;"/><text fill="#000000" font-family="sans-serif" font-size="13" lengthAdjust="spacingAndGlyphs" textLength="123" x="599" y="488.0669">ProvisionalDividend</text><text fill="#000000" font-family="sans-serif" font-size="13" lengthAdjust="spacingAndGlyphs" textLength="8" x="290.0942" y="633.041">1</text><!--link Dividend to RateAndAmount--><path d="M787.681,290.239 C796.618,319.426 803,350.83 803,381 C803,381 803,381 803,571 C803,619.3875 460.699,643.945 320.655,651.9674 " fill="none" id="Dividend-RateAndAmount" style="stroke: #A80036; stroke-width: 1.0;"/><polygon fill="#A80036" points="315.354,652.2686,324.5669,655.7504,320.3459,651.9843,324.112,647.7634,315.354,652.2686" style="stroke: #A80036; stroke-width: 1.0;"/><text fill="#000000" font-family="sans-serif" font-size="13" lengthAdjust="spacingAndGlyphs" textLength="106" x="804" y="488.0669">DeemedAmount</text><text fill="#000000" font-family="sans-serif" font-size="13" lengthAdjust="spacingAndGlyphs" textLength="8" x="323.7412" y="646.5511">1</text><!--link Dividend to RateAndAmount--><path d="M922.119,264.469 C956.662,295.605 982,334.345 982,381 C982,381 982,381 982,571 C982,637.4047 492.584,651.4111 320.766,654.2822 " fill="none" id="Dividend-RateAndAmount" style="stroke: #A80036; stroke-width: 1.0;"/><polygon fill="#A80036" points="315.529,654.3679,324.594,658.2182,320.5283,654.285,324.4615,650.2193,315.529,654.3679" style="stroke: #A80036; stroke-width: 1.0;"/><text fill="#000000" font-family="sans-serif" font-size="13" lengthAdjust="spacingAndGlyphs" textLength="194" x="983" y="488.0669">ConduitForeignIncomeAmount</text><text fill="#000000" font-family="sans-serif" font-size="13" lengthAdjust="spacingAndGlyphs" textLength="8" x="323.7284" y="668.5545">1</text><!--link Dividend to Security--><path d="M662.223,290.097 C650.849,307.385 638.631,324.512 626,340 C555.614,426.31 509.727,416.796 413,472 C364.965,499.414 310.947,535.446 282.336,554.966 " fill="none" id="Dividend-Security" style="stroke: #A80036; stroke-width: 1.0;"/><polygon fill="#A80036" points="277.967,557.953,287.6542,556.1759,282.0947,555.1312,283.1394,549.5717,277.967,557.953" style="stroke: #A80036; stroke-width: 1.0;"/><text fill="#000000" font-family="sans-serif" font-size="13" lengthAdjust="spacingAndGlyphs" textLength="52" x="516" y="437.0669">Security</text><text fill="#000000" font-family="sans-serif" font-size="13" lengthAdjust="spacingAndGlyphs" textLength="7" x="273.7369" y="546.9851">*</text><!--link Dividend to CashProceedsDefinition--><path d="M645.558,290.127 C627.975,308.96 608.275,326.557 587,340 C541.618,368.676 520.404,351.528 470,370 C390.741,399.047 302.405,446.273 260.944,469.386 " fill="none" id="Dividend-CashProceedsDefinition" style="stroke: #A80036; stroke-width: 1.0;"/><polygon fill="#A80036" points="256.362,471.948,266.1694,471.045,260.7256,469.5069,262.2637,464.0632,256.362,471.948" style="stroke: #A80036; stroke-width: 1.0;"/><text fill="#000000" font-family="sans-serif" font-size="13" lengthAdjust="spacingAndGlyphs" textLength="91" x="471" y="386.0669">CashProceeds</text><text fill="#000000" font-family="sans-serif" font-size="13" lengthAdjust="spacingAndGlyphs" textLength="7" x="253.3849" y="460.9783">*</text><!--link Dividend to PaymentObligation--><path d="M563.401,290.129 C529.849,312.968 499.104,332.114 480,340 C428.569,361.231 366.101,371.493 319.725,376.439 " fill="none" id="Dividend-PaymentObligation" style="stroke: #A80036; stroke-width: 1.0;"/><polygon fill="#A80036" points="314.721,376.959,324.0865,380.0066,319.6942,376.4418,323.259,372.0495,314.721,376.959" style="stroke: #A80036; stroke-width: 1.0;"/><text fill="#000000" font-family="sans-serif" font-size="13" lengthAdjust="spacingAndGlyphs" textLength="64" x="514" y="335.0669">Obligation</text><text fill="#000000" font-family="sans-serif" font-size="13" lengthAdjust="spacingAndGlyphs" textLength="7" x="322.6393" y="371.3856">*</text><!--link Dividend to Tax--><path d="M541.648,165 C379.214,165 162.098,165 98.3293,165 " fill="none" id="Dividend-Tax" style="stroke: #A80036; stroke-width: 1.0;"/><polygon fill="#A80036" points="93.3194,165,102.3194,169,98.3194,165,102.3194,161,93.3194,165" style="stroke: #A80036; stroke-width: 1.0;"/><text fill="#000000" font-family="sans-serif" font-size="13" lengthAdjust="spacingAndGlyphs" textLength="22" x="306" y="157.0669">Tax</text><text fill="#000000" font-family="sans-serif" font-size="13" lengthAdjust="spacingAndGlyphs" textLength="8" x="101.6407" y="156.9631">1</text><!--link Dividend to Distribution--><path d="M541.6,239.452 C479.384,264.486 410.288,293.4 348,322 C332.103,329.299 329.579,334.421 313,340 C278.802,351.507 181.795,366.532 124.301,374.825 " fill="none" id="Dividend-Distribution" style="stroke: #A80036; stroke-width: 1.0;"/><polygon fill="#A80036" points="119.206,375.557,128.6829,378.2383,124.1553,374.8469,127.5467,370.3194,119.206,375.557" style="stroke: #A80036; stroke-width: 1.0;"/><text fill="#000000" font-family="sans-serif" font-size="13" lengthAdjust="spacingAndGlyphs" textLength="121" x="349" y="335.0669">RelatedDistribution</text><text fill="#000000" font-family="sans-serif" font-size="13" lengthAdjust="spacingAndGlyphs" textLength="8" x="126.9021" y="368.9768">1</text></g></svg>