<?xml version="1.0" encoding="UTF-8" standalone="no"?><svg xmlns="http://www.w3.org/2000/svg" xmlns:xlink="http://www.w3.org/1999/xlink" contentScriptType="application/ecmascript" contentStyleType="text/css" height="478px" preserveAspectRatio="none" style="width:757px;height:478px;" version="1.1" viewBox="0 0 757 478" width="757px" zoomAndPan="magnify"><defs><filter height="300%" id="f18gnbs9xn9d6d" width="300%" x="-1" y="-1"><feGaussianBlur result="blurOut" stdDeviation="2.0"/><feColorMatrix in="blurOut" result="blurOut2" type="matrix" values="0 0 0 0 0 0 0 0 0 0 0 0 0 0 0 0 0 0 .4 0"/><feOffset dx="4.0" dy="4.0" in="blurOut2" result="blurOut3"/><feBlend in="SourceGraphic" in2="blurOut3" mode="normal"/></filter></defs><g><!--cluster ##10331--><!--cluster ##10340--><!--cluster ##10349--><!--class Role--><a target="_top" xlink:actuate="onRequest" xlink:href="../Role.html" xlink:show="new" xlink:title="Role of a party in an activity." xlink:type="simple"><rect fill="#FEFEEE" filter="url(#f18gnbs9xn9d6d)" height="44.7734" id="Role" style="stroke: #A80036; stroke-width: 1.5;" width="175" x="51.75" y="40.5"/><rect fill="#FEFEEE" height="23.9688" style="stroke: #A80036; stroke-width: 1.5;" width="175" x="51.75" y="40.5"/><text fill="#000000" font-family="sans-serif" font-size="12" lengthAdjust="spacingAndGlyphs" textLength="27" x="125.75" y="56.6387">Role</text><line style="stroke: #A80036; stroke-width: 1.5;" x1="52.75" x2="225.75" y1="64.4688" y2="64.4688"/><ellipse cx="62.75" cy="76.3711" fill="#84BE84" rx="3" ry="3" style="stroke: #038048; stroke-width: 1.0;"/><text fill="#000000" font-family="sans-serif" font-size="11" lengthAdjust="spacingAndGlyphs" textLength="53" x="71.75" y="78.6792">PartyRole</text><text fill="#000000" font-family="sans-serif" font-size="11" font-style="italic" lengthAdjust="spacingAndGlyphs" textLength="92" x="128.75" y="78.6792">(PartyRoleCode)</text></a><!--class DocumentPartyRole--><a target="_top" xlink:actuate="onRequest" xlink:href="../DocumentPartyRole.html" xlink:show="new" xlink:title="Role played by a party in the context of a document." xlink:type="simple"><rect fill="#FEFEEE" filter="url(#f18gnbs9xn9d6d)" height="23.9688" id="DocumentPartyRole" style="stroke: #A80036; stroke-width: 1.5;" width="129" x="86.75" y="166"/><rect fill="#FEFEEE" height="23.9688" style="stroke: #A80036; stroke-width: 1.5;" width="129" x="86.75" y="166"/><text fill="#000000" font-family="sans-serif" font-size="12" lengthAdjust="spacingAndGlyphs" textLength="123" x="89.75" y="182.1387">DocumentPartyRole</text></a><!--class DocumentIssuer--><a target="_top" xlink:actuate="onRequest" xlink:href="../DocumentIssuer.html" xlink:show="new" xlink:title="Party that issues a document such as a bank guarantee or letter of / documentary credit. For instance the inspection company for a trade certificate or the insurance company or its agent for an insurance certificate." xlink:type="simple"><rect fill="#FEFECE" filter="url(#f18gnbs9xn9d6d)" height="23.9688" id="DocumentIssuer" style="stroke: #A80036; stroke-width: 1.5;" width="108" x="97" y="270"/><rect fill="#FEFECE" height="23.9688" style="stroke: #A80036; stroke-width: 1.5;" width="108" x="97" y="270"/><text fill="#000000" font-family="sans-serif" font-size="12" lengthAdjust="spacingAndGlyphs" textLength="102" x="100" y="286.1387">DocumentIssuer</text></a><!--class RolePlayer--><a target="_top" xlink:actuate="onRequest" xlink:href="../RolePlayer.html" xlink:show="new" xlink:title="Type of entity that plays a specific role in a specific context." xlink:type="simple"><rect fill="#EEEEEE" filter="url(#f18gnbs9xn9d6d)" height="23.9688" id="RolePlayer" style="stroke: #A80036; stroke-width: 1.5;" width="71" x="566.75" y="444"/><rect fill="#EEEEEE" height="23.9688" style="stroke: #A80036; stroke-width: 1.5;" width="71" x="566.75" y="444"/><text fill="#000000" font-family="sans-serif" font-size="12" lengthAdjust="spacingAndGlyphs" textLength="65" x="569.75" y="460.1387">RolePlayer</text></a><!--class ContactPersonRole--><a target="_top" xlink:actuate="onRequest" xlink:href="../ContactPersonRole.html" xlink:show="new" xlink:title="Person to be contacted in a given organisation. In the corporate action domain (including meeting notifications) , it is the contact person at the party organising the meeting, at the issuer or at an intermediary." xlink:type="simple"><rect fill="#EEEEEE" filter="url(#f18gnbs9xn9d6d)" height="23.9688" id="ContactPersonRole" style="stroke: #A80036; stroke-width: 1.5;" width="126" x="559" y="358"/><rect fill="#EEEEEE" height="23.9688" style="stroke: #A80036; stroke-width: 1.5;" width="126" x="559" y="358"/><text fill="#000000" font-family="sans-serif" font-size="12" lengthAdjust="spacingAndGlyphs" textLength="120" x="562" y="374.1387">ContactPersonRole</text></a><!--class CounterpartyRisk--><a target="_top" xlink:actuate="onRequest" xlink:href="../CounterpartyRisk.html" xlink:show="new" xlink:title="Calculation of the exposure amount that one party has vis-a-vis one counterparty or a central system, based on its credit risk." xlink:type="simple"><rect fill="#EEEEEE" filter="url(#f18gnbs9xn9d6d)" height="23.9688" id="CounterpartyRisk" style="stroke: #A80036; stroke-width: 1.5;" width="113" x="571.75" y="270"/><rect fill="#EEEEEE" height="23.9688" style="stroke: #A80036; stroke-width: 1.5;" width="113" x="571.75" y="270"/><text fill="#000000" font-family="sans-serif" font-size="12" lengthAdjust="spacingAndGlyphs" textLength="107" x="574.75" y="286.1387">CounterpartyRisk</text></a><!--class Entry--><a target="_top" xlink:actuate="onRequest" xlink:href="../Entry.html" xlink:show="new" xlink:title="Posting to an account that results in an increase or decrease to a balance." xlink:type="simple"><rect fill="#EEEEEE" filter="url(#f18gnbs9xn9d6d)" height="23.9688" id="Entry" style="stroke: #A80036; stroke-width: 1.5;" width="38" x="559" y="166"/><rect fill="#EEEEEE" height="23.9688" style="stroke: #A80036; stroke-width: 1.5;" width="38" x="559" y="166"/><text fill="#000000" font-family="sans-serif" font-size="12" lengthAdjust="spacingAndGlyphs" textLength="32" x="562" y="182.1387">Entry</text></a><!--class Document--><a target="_top" xlink:actuate="onRequest" xlink:href="../Document.html" xlink:show="new" xlink:title="General information that unambiguously identifies a document, such as identification number and issue date time." xlink:type="simple"><rect fill="#EEEEEE" filter="url(#f18gnbs9xn9d6d)" height="23.9688" id="Document" style="stroke: #A80036; stroke-width: 1.5;" width="70" x="283" y="270"/><rect fill="#EEEEEE" height="23.9688" style="stroke: #A80036; stroke-width: 1.5;" width="70" x="283" y="270"/><text fill="#000000" font-family="sans-serif" font-size="12" lengthAdjust="spacingAndGlyphs" textLength="64" x="286" y="286.1387">Document</text></a><!--entity ##10352--><!--link Role to DocumentPartyRole--><path d="M143.413,105.559 C145.707,127.159 148.334,151.898 149.817,165.865 " fill="none" id="Role-DocumentPartyRole" style="stroke: #A80036; stroke-width: 1.0;"/><polygon fill="none" points="136.437,106.148,141.285,85.52,150.358,104.669,136.437,106.148" style="stroke: #A80036; stroke-width: 1.0;"/><!--link DocumentPartyRole to DocumentIssuer--><path d="M151,210.595 C151,230.825 151,255.843 151,269.954 " fill="none" id="DocumentPartyRole-DocumentIssuer" style="stroke: #A80036; stroke-width: 1.0;"/><polygon fill="none" points="144,210.306,151,190.306,158,210.305,144,210.306" style="stroke: #A80036; stroke-width: 1.0;"/><!--link ContactPersonRole to RolePlayer--><!--link CounterpartyRisk to ContactPersonRole--><!--link Entry to CounterpartyRisk--><!--link Role to RolePlayer--><path d="M226.527,81.309 C309.973,100.392 423,134.15 423,177 C423,177 423,177 423,371 C423,431.8572 508.842,448.7099 561.634,453.3199 " fill="none" id="Role-RolePlayer" style="stroke: #A80036; stroke-width: 1.0;"/><polygon fill="#A80036" points="566.635,453.7288,557.9919,449.0068,561.6517,453.3202,557.3382,456.98,566.635,453.7288" style="stroke: #A80036; stroke-width: 1.0;"/><text fill="#000000" font-family="sans-serif" font-size="13" lengthAdjust="spacingAndGlyphs" textLength="39" x="424" y="286.0669">Player</text><text fill="#000000" font-family="sans-serif" font-size="13" lengthAdjust="spacingAndGlyphs" textLength="7" x="551.7402" y="447.9585">*</text><!--link Role to ContactPersonRole--><path d="M226.452,69.258 C305.822,75.677 415.423,89.178 449,116 C494.785,152.574 471.131,186.452 499,238 C519.52,275.956 524.125,286.868 554,318 C567.704,332.281 585.714,345.597 599.757,355.039 " fill="none" id="Role-ContactPersonRole" style="stroke: #A80036; stroke-width: 1.0;"/><polygon fill="#A80036" points="603.978,357.842,598.6906,349.5328,599.8118,355.0774,594.2672,356.1987,603.978,357.842" style="stroke: #A80036; stroke-width: 1.0;"/><text fill="#000000" font-family="sans-serif" font-size="13" lengthAdjust="spacingAndGlyphs" textLength="121" x="500" y="233.0669">ContactPersonRole</text><text fill="#000000" font-family="sans-serif" font-size="13" lengthAdjust="spacingAndGlyphs" textLength="8" x="587.0642" y="346.8359">1</text><!--link Role to CounterpartyRisk--><path d="M226.706,65.7 C341.476,69.32 535.161,80.638 596,116 C627.04,134.042 641.831,218.993 642,220 C644.586,235.376 639.874,252.681 635.233,264.921 " fill="none" id="Role-CounterpartyRisk" style="stroke: #A80036; stroke-width: 1.0;"/><polygon fill="#A80036" points="633.27,269.837,640.322,262.9618,635.124,265.1934,632.8923,259.9954,633.27,269.837" style="stroke: #A80036; stroke-width: 1.0;"/><text fill="#000000" font-family="sans-serif" font-size="13" lengthAdjust="spacingAndGlyphs" textLength="109" x="636" y="182.0669">CounterpartyRisk</text><text fill="#000000" font-family="sans-serif" font-size="13" lengthAdjust="spacingAndGlyphs" textLength="24" x="605.5269" y="258.8292">0..1</text><!--link Role to Entry--><path d="M226.47,67.756 C326.126,73.38 481.693,86.651 532,116 C549.91,126.449 563.1,146.883 570.656,161.211 " fill="none" id="Role-Entry" style="stroke: #A80036; stroke-width: 1.0;"/><polygon fill="#A80036" points="573.001,165.813,572.4796,155.978,570.7313,161.3578,565.3514,159.6095,573.001,165.813" style="stroke: #A80036; stroke-width: 1.0;"/><text fill="#000000" font-family="sans-serif" font-size="13" lengthAdjust="spacingAndGlyphs" textLength="33" x="553" y="129.0669">Entry</text><text fill="#000000" font-family="sans-serif" font-size="13" lengthAdjust="spacingAndGlyphs" textLength="8" x="560.6888" y="155.0545">1</text><!--link DocumentPartyRole to Document--><path d="M169.19,190.11 C199.933,208.887 262.081,246.846 295.509,267.263 " fill="none" id="DocumentPartyRole-Document" style="stroke: #A80036; stroke-width: 1.0;"/><polygon fill="#A80036" points="299.833,269.904,294.2385,261.7984,295.5663,267.2972,290.0675,268.625,299.833,269.904" style="stroke: #A80036; stroke-width: 1.0;"/><text fill="#000000" font-family="sans-serif" font-size="13" lengthAdjust="spacingAndGlyphs" textLength="67" x="246" y="233.0669">Document</text><text fill="#000000" font-family="sans-serif" font-size="13" lengthAdjust="spacingAndGlyphs" textLength="7" x="284.0412" y="258.9192">*</text></g></svg>