<?xml version="1.0" encoding="UTF-8" standalone="no"?><svg xmlns="http://www.w3.org/2000/svg" xmlns:xlink="http://www.w3.org/1999/xlink" contentScriptType="application/ecmascript" contentStyleType="text/css" height="1284px" preserveAspectRatio="none" style="width:2864px;height:1284px;" version="1.1" viewBox="0 0 2864 1284" width="2864px" zoomAndPan="magnify"><defs><filter height="300%" id="fwg0ysuwkx6hp" width="300%" x="-1" y="-1"><feGaussianBlur result="blurOut" stdDeviation="2.0"/><feColorMatrix in="blurOut" result="blurOut2" type="matrix" values="0 0 0 0 0 0 0 0 0 0 0 0 0 0 0 0 0 0 .4 0"/><feOffset dx="4.0" dy="4.0" in="blurOut2" result="blurOut3"/><feBlend in="SourceGraphic" in2="blurOut3" mode="normal"/></filter></defs><g><!--cluster ##2890--><!--cluster ##2908--><!--class Document--><a target="_top" xlink:actuate="onRequest" xlink:href="../Document.html" xlink:show="new" xlink:title="General information that unambiguously identifies a document, such as identification number and issue date time." xlink:type="simple"><rect fill="#FEFECE" filter="url(#fwg0ysuwkx6hp)" height="172.8203" id="Document" style="stroke: #A80036; stroke-width: 1.5;" width="249" x="1480.75" y="40.5"/><rect fill="#FEFECE" height="23.9688" style="stroke: #A80036; stroke-width: 1.5;" width="249" x="1480.75" y="40.5"/><text fill="#000000" font-family="sans-serif" font-size="12" lengthAdjust="spacingAndGlyphs" textLength="64" x="1573.25" y="56.6387">Document</text><line style="stroke: #A80036; stroke-width: 1.5;" x1="1481.75" x2="1728.75" y1="64.4688" y2="64.4688"/><ellipse cx="1491.75" cy="76.3711" fill="#84BE84" rx="3" ry="3" style="stroke: #038048; stroke-width: 1.0;"/><text fill="#000000" font-family="sans-serif" font-size="11" lengthAdjust="spacingAndGlyphs" textLength="57" x="1500.75" y="78.6792">IssueDate</text><text fill="#000000" font-family="sans-serif" font-size="11" font-style="italic" lengthAdjust="spacingAndGlyphs" textLength="81" x="1561.75" y="78.6792">(ISODateTime)</text><ellipse cx="1491.75" cy="89.1758" fill="#84BE84" rx="3" ry="3" style="stroke: #038048; stroke-width: 1.0;"/><text fill="#000000" font-family="sans-serif" font-size="11" lengthAdjust="spacingAndGlyphs" textLength="80" x="1500.75" y="91.4839">CopyDuplicate</text><text fill="#000000" font-family="sans-serif" font-size="11" font-style="italic" lengthAdjust="spacingAndGlyphs" textLength="118" x="1584.75" y="91.4839">(CopyDuplicateCode)</text><ellipse cx="1491.75" cy="101.9805" fill="#84BE84" rx="3" ry="3" style="stroke: #038048; stroke-width: 1.0;"/><text fill="#000000" font-family="sans-serif" font-size="11" lengthAdjust="spacingAndGlyphs" textLength="27" x="1500.75" y="104.2886">Type</text><text fill="#000000" font-family="sans-serif" font-size="11" font-style="italic" lengthAdjust="spacingAndGlyphs" textLength="122" x="1531.75" y="104.2886">(DocumentTypeCode)</text><ellipse cx="1491.75" cy="114.7852" fill="#84BE84" rx="3" ry="3" style="stroke: #038048; stroke-width: 1.0;"/><text fill="#000000" font-family="sans-serif" font-size="11" lengthAdjust="spacingAndGlyphs" textLength="43" x="1500.75" y="117.0933">Amount</text><text fill="#000000" font-family="sans-serif" font-size="11" font-style="italic" lengthAdjust="spacingAndGlyphs" textLength="161" x="1547.75" y="117.0933">(ActiveCurrencyAndAmount)</text><ellipse cx="1491.75" cy="127.5898" fill="#84BE84" rx="3" ry="3" style="stroke: #038048; stroke-width: 1.0;"/><text fill="#000000" font-family="sans-serif" font-size="11" lengthAdjust="spacingAndGlyphs" textLength="100" x="1500.75" y="129.8979">DocumentVersion</text><text fill="#000000" font-family="sans-serif" font-size="11" font-style="italic" lengthAdjust="spacingAndGlyphs" textLength="53" x="1604.75" y="129.8979">(Number)</text><ellipse cx="1491.75" cy="140.3945" fill="#84BE84" rx="3" ry="3" style="stroke: #038048; stroke-width: 1.0;"/><text fill="#000000" font-family="sans-serif" font-size="11" lengthAdjust="spacingAndGlyphs" textLength="37" x="1500.75" y="142.7026">Status</text><text fill="#000000" font-family="sans-serif" font-size="11" font-style="italic" lengthAdjust="spacingAndGlyphs" textLength="77" x="1541.75" y="142.7026">(Max140Text)</text><ellipse cx="1491.75" cy="153.1992" fill="#84BE84" rx="3" ry="3" style="stroke: #038048; stroke-width: 1.0;"/><text fill="#000000" font-family="sans-serif" font-size="11" lengthAdjust="spacingAndGlyphs" textLength="72" x="1500.75" y="155.5073">DataSetType</text><text fill="#000000" font-family="sans-serif" font-size="11" font-style="italic" lengthAdjust="spacingAndGlyphs" textLength="109" x="1576.75" y="155.5073">(DataSetTypeCode)</text><ellipse cx="1491.75" cy="166.0039" fill="#84BE84" rx="3" ry="3" style="stroke: #038048; stroke-width: 1.0;"/><text fill="#000000" font-family="sans-serif" font-size="11" lengthAdjust="spacingAndGlyphs" textLength="88" x="1500.75" y="168.312">SignedIndicator</text><text fill="#000000" font-family="sans-serif" font-size="11" font-style="italic" lengthAdjust="spacingAndGlyphs" textLength="92" x="1592.75" y="168.312">(YesNoIndicator)</text><ellipse cx="1491.75" cy="178.8086" fill="#84BE84" rx="3" ry="3" style="stroke: #038048; stroke-width: 1.0;"/><text fill="#000000" font-family="sans-serif" font-size="11" lengthAdjust="spacingAndGlyphs" textLength="93" x="1500.75" y="181.1167">RemittedAmount</text><text fill="#000000" font-family="sans-serif" font-size="11" font-style="italic" lengthAdjust="spacingAndGlyphs" textLength="126" x="1597.75" y="181.1167">(CurrencyAndAmount)</text><ellipse cx="1491.75" cy="191.6133" fill="#84BE84" rx="3" ry="3" style="stroke: #038048; stroke-width: 1.0;"/><text fill="#000000" font-family="sans-serif" font-size="11" lengthAdjust="spacingAndGlyphs" textLength="55" x="1500.75" y="193.9214">Language</text><text fill="#000000" font-family="sans-serif" font-size="11" font-style="italic" lengthAdjust="spacingAndGlyphs" textLength="92" x="1559.75" y="193.9214">(LanguageCode)</text><ellipse cx="1491.75" cy="204.418" fill="#84BE84" rx="3" ry="3" style="stroke: #038048; stroke-width: 1.0;"/><text fill="#000000" font-family="sans-serif" font-size="11" lengthAdjust="spacingAndGlyphs" textLength="47" x="1500.75" y="206.7261">Purpose</text><text fill="#000000" font-family="sans-serif" font-size="11" font-style="italic" lengthAdjust="spacingAndGlyphs" textLength="70" x="1551.75" y="206.7261">(Max35Text)</text></a><!--class PrivateCertificate--><a target="_top" xlink:actuate="onRequest" xlink:href="../PrivateCertificate.html" xlink:show="new" xlink:title="Specifies the parameters associated with the production of a certificate to identify the profile of a customer." xlink:type="simple"><rect fill="#FEFEEE" filter="url(#fwg0ysuwkx6hp)" height="23.9688" id="PrivateCertificate" style="stroke: #A80036; stroke-width: 1.5;" width="113" x="1153.75" y="292"/><rect fill="#FEFEEE" height="23.9688" style="stroke: #A80036; stroke-width: 1.5;" width="113" x="1153.75" y="292"/><text fill="#000000" font-family="sans-serif" font-size="12" lengthAdjust="spacingAndGlyphs" textLength="107" x="1156.75" y="308.1387">PrivateCertificate</text></a><!--class InsuranceCertificate--><a target="_top" xlink:actuate="onRequest" xlink:href="../InsuranceCertificate.html" xlink:show="new" xlink:title="Formal document used to record a fact and used as proof of the fact that goods have been insured under an insurance policy." xlink:type="simple"><rect fill="#FEFEEE" filter="url(#fwg0ysuwkx6hp)" height="23.9688" id="InsuranceCertificate" style="stroke: #A80036; stroke-width: 1.5;" width="132" x="1302" y="292"/><rect fill="#FEFEEE" height="23.9688" style="stroke: #A80036; stroke-width: 1.5;" width="132" x="1302" y="292"/><text fill="#000000" font-family="sans-serif" font-size="12" lengthAdjust="spacingAndGlyphs" textLength="126" x="1305" y="308.1387">InsuranceCertificate</text></a><!--class SecurityCertificate--><a target="_top" xlink:actuate="onRequest" xlink:href="../SecurityCertificate.html" xlink:show="new" xlink:title="Certificate linked to a digital signature." xlink:type="simple"><rect fill="#FEFEEE" filter="url(#fwg0ysuwkx6hp)" height="23.9688" id="SecurityCertificate" style="stroke: #A80036; stroke-width: 1.5;" width="120" x="1469.5" y="292"/><rect fill="#FEFEEE" height="23.9688" style="stroke: #A80036; stroke-width: 1.5;" width="120" x="1469.5" y="292"/><text fill="#000000" font-family="sans-serif" font-size="12" lengthAdjust="spacingAndGlyphs" textLength="114" x="1472.5" y="308.1387">SecurityCertificate</text></a><!--class TradeCertificate--><a target="_top" xlink:actuate="onRequest" xlink:href="../TradeCertificate.html" xlink:show="new" xlink:title="Formal document used to record a fact and used as proof of the fact, in the context of a commercial trade transaction." xlink:type="simple"><rect fill="#FEFEEE" filter="url(#fwg0ysuwkx6hp)" height="23.9688" id="TradeCertificate" style="stroke: #A80036; stroke-width: 1.5;" width="106" x="1624.5" y="292"/><rect fill="#FEFEEE" height="23.9688" style="stroke: #A80036; stroke-width: 1.5;" width="106" x="1624.5" y="292"/><text fill="#000000" font-family="sans-serif" font-size="12" lengthAdjust="spacingAndGlyphs" textLength="100" x="1627.5" y="308.1387">TradeCertificate</text></a><!--class Assessment--><a target="_top" xlink:actuate="onRequest" xlink:href="../Assessment.html" xlink:show="new" xlink:title="Assessment for the components of a system." xlink:type="simple"><rect fill="#FEFEEE" filter="url(#fwg0ysuwkx6hp)" height="23.9688" id="Assessment" style="stroke: #A80036; stroke-width: 1.5;" width="82" x="1036" y="292"/><rect fill="#FEFEEE" height="23.9688" style="stroke: #A80036; stroke-width: 1.5;" width="82" x="1036" y="292"/><text fill="#000000" font-family="sans-serif" font-size="12" lengthAdjust="spacingAndGlyphs" textLength="76" x="1039" y="308.1387">Assessment</text></a><!--class ContactPoint--><a target="_top" xlink:actuate="onRequest" xlink:href="../ContactPoint.html" xlink:show="new" xlink:title="Number, physical or virtual address, used for communication." xlink:type="simple"><rect fill="#EEEEEE" filter="url(#fwg0ysuwkx6hp)" height="23.9688" id="ContactPoint" style="stroke: #A80036; stroke-width: 1.5;" width="87" x="625.75" y="115"/><rect fill="#EEEEEE" height="23.9688" style="stroke: #A80036; stroke-width: 1.5;" width="87" x="625.75" y="115"/><text fill="#000000" font-family="sans-serif" font-size="12" lengthAdjust="spacingAndGlyphs" textLength="81" x="628.75" y="131.1387">ContactPoint</text></a><!--class PaymentObligation--><a target="_top" xlink:actuate="onRequest" xlink:href="../PaymentObligation.html" xlink:show="new" xlink:title="Obligation for the debtor to pay the creditor an amount of cash." xlink:type="simple"><rect fill="#EEEEEE" filter="url(#fwg0ysuwkx6hp)" height="23.9688" id="PaymentObligation" style="stroke: #A80036; stroke-width: 1.5;" width="123" x="587.75" y="292"/><rect fill="#EEEEEE" height="23.9688" style="stroke: #A80036; stroke-width: 1.5;" width="123" x="587.75" y="292"/><text fill="#000000" font-family="sans-serif" font-size="12" lengthAdjust="spacingAndGlyphs" textLength="117" x="590.75" y="308.1387">PaymentObligation</text></a><!--class Agreement--><a target="_top" xlink:actuate="onRequest" xlink:href="../Agreement.html" xlink:show="new" xlink:title="Contractual details related to an agreement between parties." xlink:type="simple"><rect fill="#EEEEEE" filter="url(#fwg0ysuwkx6hp)" height="23.9688" id="Agreement" style="stroke: #A80036; stroke-width: 1.5;" width="75" x="146.75" y="1250"/><rect fill="#EEEEEE" height="23.9688" style="stroke: #A80036; stroke-width: 1.5;" width="75" x="146.75" y="1250"/><text fill="#000000" font-family="sans-serif" font-size="12" lengthAdjust="spacingAndGlyphs" textLength="69" x="149.75" y="1266.1387">Agreement</text></a><!--class Location--><a target="_top" xlink:actuate="onRequest" xlink:href="../Location.html" xlink:show="new" xlink:title="Specifies a place." xlink:type="simple"><rect fill="#EEEEEE" filter="url(#fwg0ysuwkx6hp)" height="23.9688" id="Location" style="stroke: #A80036; stroke-width: 1.5;" width="59" x="473.75" y="1164"/><rect fill="#EEEEEE" height="23.9688" style="stroke: #A80036; stroke-width: 1.5;" width="59" x="473.75" y="1164"/><text fill="#000000" font-family="sans-serif" font-size="12" lengthAdjust="spacingAndGlyphs" textLength="53" x="476.75" y="1180.1387">Location</text></a><!--class Reconciliation--><a target="_top" xlink:actuate="onRequest" xlink:href="../Reconciliation.html" xlink:show="new" xlink:title="Process of matching different documents submitted by parties to a trade." xlink:type="simple"><rect fill="#EEEEEE" filter="url(#fwg0ysuwkx6hp)" height="23.9688" id="Reconciliation" style="stroke: #A80036; stroke-width: 1.5;" width="93" x="887.75" y="1078"/><rect fill="#EEEEEE" height="23.9688" style="stroke: #A80036; stroke-width: 1.5;" width="93" x="887.75" y="1078"/><text fill="#000000" font-family="sans-serif" font-size="12" lengthAdjust="spacingAndGlyphs" textLength="87" x="890.75" y="1094.1387">Reconciliation</text></a><!--class LetterOfCredit--><a target="_top" xlink:actuate="onRequest" xlink:href="../LetterOfCredit.html" xlink:show="new" xlink:title="Instrument issued by a bank substituting its name and credit standing for that of its customer. A letter of credit is a written undertaking of the bank, issued for the account of a customer (the applicant), to honour a demand for payment, upon the beneficiary's compliance with the terms and conditions set forth in the undertaking." xlink:type="simple"><rect fill="#EEEEEE" filter="url(#fwg0ysuwkx6hp)" height="23.9688" id="LetterOfCredit" style="stroke: #A80036; stroke-width: 1.5;" width="93" x="887.75" y="992"/><rect fill="#EEEEEE" height="23.9688" style="stroke: #A80036; stroke-width: 1.5;" width="93" x="887.75" y="992"/><text fill="#000000" font-family="sans-serif" font-size="12" lengthAdjust="spacingAndGlyphs" textLength="87" x="890.75" y="1008.1387">LetterOfCredit</text></a><!--class DocumentPartyRole--><a target="_top" xlink:actuate="onRequest" xlink:href="../DocumentPartyRole.html" xlink:show="new" xlink:title="Role played by a party in the context of a document." xlink:type="simple"><rect fill="#EEEEEE" filter="url(#fwg0ysuwkx6hp)" height="23.9688" id="DocumentPartyRole" style="stroke: #A80036; stroke-width: 1.5;" width="129" x="850.75" y="906"/><rect fill="#EEEEEE" height="23.9688" style="stroke: #A80036; stroke-width: 1.5;" width="129" x="850.75" y="906"/><text fill="#000000" font-family="sans-serif" font-size="12" lengthAdjust="spacingAndGlyphs" textLength="123" x="853.75" y="922.1387">DocumentPartyRole</text></a><!--class Transport--><a target="_top" xlink:actuate="onRequest" xlink:href="../Transport.html" xlink:show="new" xlink:title="Moving of goods or people from one place to another by vehicle." xlink:type="simple"><rect fill="#EEEEEE" filter="url(#fwg0ysuwkx6hp)" height="23.9688" id="Transport" style="stroke: #A80036; stroke-width: 1.5;" width="67" x="881.75" y="804"/><rect fill="#EEEEEE" height="23.9688" style="stroke: #A80036; stroke-width: 1.5;" width="67" x="881.75" y="804"/><text fill="#000000" font-family="sans-serif" font-size="12" lengthAdjust="spacingAndGlyphs" textLength="61" x="884.75" y="820.1387">Transport</text></a><!--class Guarantee--><a target="_top" xlink:actuate="onRequest" xlink:href="../Guarantee.html" xlink:show="new" xlink:title="Partial or full coverage of amounts by a party other than the debtor." xlink:type="simple"><rect fill="#EEEEEE" filter="url(#fwg0ysuwkx6hp)" height="23.9688" id="Guarantee" style="stroke: #A80036; stroke-width: 1.5;" width="73" x="905.75" y="702"/><rect fill="#EEEEEE" height="23.9688" style="stroke: #A80036; stroke-width: 1.5;" width="73" x="905.75" y="702"/><text fill="#000000" font-family="sans-serif" font-size="12" lengthAdjust="spacingAndGlyphs" textLength="67" x="908.75" y="718.1387">Guarantee</text></a><!--class GenericIdentification--><a target="_top" xlink:actuate="onRequest" xlink:href="../GenericIdentification.html" xlink:show="new" xlink:title="Information related to a non-standardised identification, such as a proprietary party identification or account identification." xlink:type="simple"><rect fill="#EEEEEE" filter="url(#fwg0ysuwkx6hp)" height="23.9688" id="GenericIdentification" style="stroke: #A80036; stroke-width: 1.5;" width="135" x="829.75" y="600"/><rect fill="#EEEEEE" height="23.9688" style="stroke: #A80036; stroke-width: 1.5;" width="135" x="829.75" y="600"/><text fill="#000000" font-family="sans-serif" font-size="12" lengthAdjust="spacingAndGlyphs" textLength="129" x="832.75" y="616.1387">GenericIdentification</text></a><!--class Evidence--><a target="_top" xlink:actuate="onRequest" xlink:href="../Evidence.html" xlink:show="new" xlink:title="Element such as signature that can be used to prove a fact." xlink:type="simple"><rect fill="#EEEEEE" filter="url(#fwg0ysuwkx6hp)" height="23.9688" id="Evidence" style="stroke: #A80036; stroke-width: 1.5;" width="62" x="892.5" y="498"/><rect fill="#EEEEEE" height="23.9688" style="stroke: #A80036; stroke-width: 1.5;" width="62" x="892.5" y="498"/><text fill="#000000" font-family="sans-serif" font-size="12" lengthAdjust="spacingAndGlyphs" textLength="56" x="895.5" y="514.1387">Evidence</text></a><!--class CommercialTrade--><a target="_top" xlink:actuate="onRequest" xlink:href="../CommercialTrade.html" xlink:show="new" xlink:title="Commercial details of a trade transaction between a buyer and a seller." xlink:type="simple"><rect fill="#EEEEEE" filter="url(#fwg0ysuwkx6hp)" height="23.9688" id="CommercialTrade" style="stroke: #A80036; stroke-width: 1.5;" width="114" x="592" y="396"/><rect fill="#EEEEEE" height="23.9688" style="stroke: #A80036; stroke-width: 1.5;" width="114" x="592" y="396"/><text fill="#000000" font-family="sans-serif" font-size="12" lengthAdjust="spacingAndGlyphs" textLength="108" x="595" y="412.1387">CommercialTrade</text></a><!--class Presentation--><a target="_top" xlink:actuate="onRequest" xlink:href="../Presentation.html" xlink:show="new" xlink:title="Presentation of documents." xlink:type="simple"><rect fill="#EEEEEE" filter="url(#fwg0ysuwkx6hp)" height="23.9688" id="Presentation" style="stroke: #A80036; stroke-width: 1.5;" width="87" x="759.75" y="804"/><rect fill="#EEEEEE" height="23.9688" style="stroke: #A80036; stroke-width: 1.5;" width="87" x="759.75" y="804"/><text fill="#000000" font-family="sans-serif" font-size="12" lengthAdjust="spacingAndGlyphs" textLength="81" x="762.75" y="820.1387">Presentation</text></a><!--class RegisteredContract--><a target="_top" xlink:actuate="onRequest" xlink:href="../RegisteredContract.html" xlink:show="new" xlink:title="Contract registered for regulatory purpose by a registration agent for the journaling of payments made against the contract." xlink:type="simple"><rect fill="#EEEEEE" filter="url(#fwg0ysuwkx6hp)" height="23.9688" id="RegisteredContract" style="stroke: #A80036; stroke-width: 1.5;" width="128" x="742" y="702"/><rect fill="#EEEEEE" height="23.9688" style="stroke: #A80036; stroke-width: 1.5;" width="128" x="742" y="702"/><text fill="#000000" font-family="sans-serif" font-size="12" lengthAdjust="spacingAndGlyphs" textLength="122" x="745" y="718.1387">RegisteredContract</text></a><!--link Document to PrivateCertificate--><path d="M1462.06,191.33 C1378.12,228.52 1279.9,272.03 1234.86,291.99 " fill="none" id="Document-PrivateCertificate" style="stroke: #A80036; stroke-width: 1.0;"/><polygon fill="none" points="1459.44,184.83,1480.56,183.13,1465.11,197.63,1459.44,184.83" style="stroke: #A80036; stroke-width: 1.0;"/><!--link Document to InsuranceCertificate--><path d="M1472.81,225.61 C1436.65,252.31 1402.21,277.74 1383.21,291.77 " fill="none" id="Document-InsuranceCertificate" style="stroke: #A80036; stroke-width: 1.0;"/><polygon fill="none" points="1468.68,219.95,1488.93,213.71,1477,231.22,1468.68,219.95" style="stroke: #A80036; stroke-width: 1.0;"/><!--link Document to SecurityCertificate--><path d="M1559.66,232.4 C1549.17,256.56 1539.45,278.93 1533.88,291.77 " fill="none" id="Document-SecurityCertificate" style="stroke: #A80036; stroke-width: 1.0;"/><polygon fill="none" points="1553.39,229.26,1567.78,213.71,1566.23,234.84,1553.39,229.26" style="stroke: #A80036; stroke-width: 1.0;"/><!--link Document to TradeCertificate--><path d="M1647.95,232.4 C1657.89,256.56 1667.1,278.93 1672.38,291.77 " fill="none" id="Document-TradeCertificate" style="stroke: #A80036; stroke-width: 1.0;"/><polygon fill="none" points="1641.4,234.86,1640.26,213.71,1654.35,229.54,1641.4,234.86" style="stroke: #A80036; stroke-width: 1.0;"/><!--link Document to Assessment--><path d="M1461.3,175.63 C1341.38,215.37 1179.34,269.08 1110.34,291.95 " fill="none" id="Document-Assessment" style="stroke: #A80036; stroke-width: 1.0;"/><polygon fill="none" points="1459.35,168.9,1480.54,169.25,1463.76,182.19,1459.35,168.9" style="stroke: #A80036; stroke-width: 1.0;"/><!--link PaymentObligation to ContactPoint--><!--link ContactPoint to PaymentObligation--><path d="M667.718,139.21 C664.298,169.15 654.937,251.05 650.898,286.4 " fill="none" id="ContactPoint-PaymentObligation" style="stroke: #A80036; stroke-width: 1.0;"/><polygon fill="#A80036" points="650.297,291.65,655.2753,283.152,650.8543,286.6812,647.3251,282.2602,650.297,291.65" style="stroke: #A80036; stroke-width: 1.0;"/><text fill="#000000" font-family="sans-serif" font-size="13" lengthAdjust="spacingAndGlyphs" textLength="178" x="657" y="257.0669">RemittanceRelatedPayment</text><text fill="#000000" font-family="sans-serif" font-size="13" lengthAdjust="spacingAndGlyphs" textLength="24" x="621.3376" y="280.8375">0..1</text><!--link Agreement to PaymentObligation--><!--link Location to Agreement--><!--link Reconciliation to Location--><!--link LetterOfCredit to Reconciliation--><!--link DocumentPartyRole to LetterOfCredit--><!--link Transport to DocumentPartyRole--><!--link Guarantee to Transport--><!--link GenericIdentification to Guarantee--><!--link Evidence to GenericIdentification--><!--link CommercialTrade to Evidence--><!--link Presentation to CommercialTrade--><!--link RegisteredContract to Presentation--><!--link Document to ContactPoint--><path d="M1480.65,127 C1271.57,127 858.646,127 717.574,127 " fill="none" id="Document-ContactPoint" style="stroke: #A80036; stroke-width: 1.0;"/><polygon fill="#A80036" points="712.268,127,721.268,131,717.268,127,721.268,123,712.268,127" style="stroke: #A80036; stroke-width: 1.0;"/><text fill="#000000" font-family="sans-serif" font-size="13" lengthAdjust="spacingAndGlyphs" textLength="99" x="1046.25" y="119.0669">PlaceOfStorage</text><text fill="#000000" font-family="sans-serif" font-size="13" lengthAdjust="spacingAndGlyphs" textLength="7" x="720.8448" y="121.5148">*</text><!--link Document to PaymentObligation--><path d="M1480.51,150.79 C1275.04,188.4 871.979,262.18 714.371,291.03 " fill="none" id="Document-PaymentObligation" style="stroke: #A80036; stroke-width: 1.0;"/><polygon fill="#A80036" points="709.324,291.96,718.8973,294.2733,714.2422,291.0593,717.4562,286.4041,709.324,291.96" style="stroke: #A80036; stroke-width: 1.0;"/><text fill="#000000" font-family="sans-serif" font-size="13" lengthAdjust="spacingAndGlyphs" textLength="121" x="960" y="257.0669">PaymentObligation</text><text fill="#000000" font-family="sans-serif" font-size="13" lengthAdjust="spacingAndGlyphs" textLength="24" x="700.5057" y="280.9945">0..1</text><!--link Document to Agreement--><path d="M1729.53,133.66 C2031.67,149.06 2779,197.77 2779,303 C2779,303 2779,303 2779,1177 C2779,1243.6374 563.616,1258.8453 226.726,1260.7727 " fill="none" id="Document-Agreement" style="stroke: #A80036; stroke-width: 1.0;"/><polygon fill="#A80036" points="221.433,1260.8028,230.4557,1264.7513,226.4329,1260.7742,230.41,1256.7514,221.433,1260.8028" style="stroke: #A80036; stroke-width: 1.0;"/><text fill="#000000" font-family="sans-serif" font-size="13" lengthAdjust="spacingAndGlyphs" textLength="72" x="2780" y="769.0669">Agreement</text><text fill="#000000" font-family="sans-serif" font-size="13" lengthAdjust="spacingAndGlyphs" textLength="7" x="229.8239" y="1254.8866">*</text><!--link Document to Location--><path d="M1729.31,136.15 C2004.71,155.87 2642,211.4 2642,303 C2642,303 2642,303 2642,1091 C2642,1145.988 812.781,1171.11 537.508,1174.579 " fill="none" id="Document-Location" style="stroke: #A80036; stroke-width: 1.0;"/><polygon fill="#A80036" points="532.424,1174.643,541.4736,1178.5296,537.4236,1174.5801,541.373,1170.5302,532.424,1174.643" style="stroke: #A80036; stroke-width: 1.0;"/><text fill="#000000" font-family="sans-serif" font-size="13" lengthAdjust="spacingAndGlyphs" textLength="81" x="2643" y="718.0669">PlaceOfIssue</text><text fill="#000000" font-family="sans-serif" font-size="13" lengthAdjust="spacingAndGlyphs" textLength="24" x="540.9161" y="1187.9938">0..1</text><!--link Document to Reconciliation--><path d="M1729.31,137.72 C1990.21,159.79 2571,218.42 2571,303 C2571,303 2571,303 2571,562 C2571,607.518 2542.04,611.402 2526,654 C2481.21,772.961 2544.38,843.749 2451,930 C2340.88,1031.719 1238.66,1077.892 985.598,1087.199 " fill="none" id="Document-Reconciliation" style="stroke: #A80036; stroke-width: 1.0;"/><polygon fill="#A80036" points="980.494,1087.385,989.6343,1091.0531,985.4907,1087.2021,989.3417,1083.0585,980.494,1087.385" style="stroke: #A80036; stroke-width: 1.0;"/><text fill="#000000" font-family="sans-serif" font-size="13" lengthAdjust="spacingAndGlyphs" textLength="87" x="2527" y="667.0669">Reconciliation</text><text fill="#000000" font-family="sans-serif" font-size="13" lengthAdjust="spacingAndGlyphs" textLength="7" x="988.7329" y="1081.6246">*</text><!--link Document to LetterOfCredit--><path d="M1729.28,127.75 C1967.71,130.65 2466,154.47 2466,303 C2466,303 2466,303 2466,460 C2466,551.608 2425,570.392 2425,662 C2425,662 2425,662 2425,919 C2425,992.707 1248.18,1001.749 985.55,1002.849 " fill="none" id="Document-LetterOfCredit" style="stroke: #A80036; stroke-width: 1.0;"/><polygon fill="#A80036" points="980.258,1002.871,989.2751,1006.8324,985.258,1002.8496,989.2408,998.8325,980.258,1002.871" style="stroke: #A80036; stroke-width: 1.0;"/><text fill="#000000" font-family="sans-serif" font-size="13" lengthAdjust="spacingAndGlyphs" textLength="90" x="2433" y="616.0669">LetterOfCredit</text><text fill="#000000" font-family="sans-serif" font-size="13" lengthAdjust="spacingAndGlyphs" textLength="8" x="988.8531" y="997.297">1</text><!--link Document to DocumentPartyRole--><path d="M1729.31,130.09 C1951.78,137.21 2395,168.32 2395,303 C2395,303 2395,303 2395,460 C2395,501.911 2223.02,754.351 2186,774 C1974.63,886.19 1218.23,910.833 984.386,915.82 " fill="none" id="Document-DocumentPartyRole" style="stroke: #A80036; stroke-width: 1.0;"/><polygon fill="#A80036" points="979.296,915.927,988.3785,919.7359,984.2949,915.8213,988.2094,911.7377,979.296,915.927" style="stroke: #A80036; stroke-width: 1.0;"/><text fill="#000000" font-family="sans-serif" font-size="13" lengthAdjust="spacingAndGlyphs" textLength="60" x="2351" y="565.0669">PartyRole</text><text fill="#000000" font-family="sans-serif" font-size="13" lengthAdjust="spacingAndGlyphs" textLength="7" x="987.9503" y="910.6497">*</text><!--link Document to Transport--><path d="M1729.37,130.98 C1904.48,138.1 2210.1,162.22 2279,244 C2357.11,336.697 2249.87,705.305 2150,774 C2099.58,808.683 1157.5,814.112 953.674,814.882 " fill="none" id="Document-Transport" style="stroke: #A80036; stroke-width: 1.0;"/><polygon fill="#A80036" points="948.428,814.901,957.4428,818.8675,953.428,814.8824,957.4131,810.8676,948.428,814.901" style="stroke: #A80036; stroke-width: 1.0;"/><text fill="#000000" font-family="sans-serif" font-size="13" lengthAdjust="spacingAndGlyphs" textLength="61" x="2286" y="514.0669">Transport</text><text fill="#000000" font-family="sans-serif" font-size="13" lengthAdjust="spacingAndGlyphs" textLength="8" x="956.5607" y="808.8861">1</text><!--link Document to Guarantee--><path d="M1729.27,137.44 C1870.14,151.03 2086.78,181.65 2137,244 C2158.35,270.5 2120.43,467.256 2120,468 C2109.07,486.939 2097.15,483.255 2081,498 C2003.19,569.038 2015.63,627.788 1920,672 C1834.17,711.678 1158.42,713.354 983.321,713.115 " fill="none" id="Document-Guarantee" style="stroke: #A80036; stroke-width: 1.0;"/><polygon fill="#A80036" points="978.288,713.108,987.2823,717.1209,983.288,713.1151,987.2937,709.1209,978.288,713.108" style="stroke: #A80036; stroke-width: 1.0;"/><text fill="#000000" font-family="sans-serif" font-size="13" lengthAdjust="spacingAndGlyphs" textLength="68" x="2124" y="463.0669">Guarantee</text><text fill="#000000" font-family="sans-serif" font-size="13" lengthAdjust="spacingAndGlyphs" textLength="7" x="986.9369" y="707.1383">*</text><!--link Document to GenericIdentification--><path d="M1729.48,149.05 C1790.55,165.37 1860.74,194.03 1907,244 C1945.01,285.05 1972.73,322.143 1938,366 C1906.6,405.646 1174.39,555.314 957.197,598.975 " fill="none" id="Document-GenericIdentification" style="stroke: #A80036; stroke-width: 1.0;"/><polygon fill="#A80036" points="952.162,599.987,961.7734,602.1367,957.0641,599.0026,960.1983,594.2933,952.162,599.987" style="stroke: #A80036; stroke-width: 1.0;"/><text fill="#000000" font-family="sans-serif" font-size="13" lengthAdjust="spacingAndGlyphs" textLength="148" x="1861" y="412.0669">DocumentIdentification</text><text fill="#000000" font-family="sans-serif" font-size="13" lengthAdjust="spacingAndGlyphs" textLength="8" x="960.3193" y="589.0307">1</text><!--link Document to Evidence--><path d="M1729.58,166.65 C1831.05,204.52 1948.26,267.07 1887,340 C1856.16,376.721 1129.84,480.13 958.826,504.028 " fill="none" id="Document-Evidence" style="stroke: #A80036; stroke-width: 1.0;"/><polygon fill="#A80036" points="953.691,504.745,963.1576,507.4622,958.643,504.0537,962.0515,499.5391,953.691,504.745" style="stroke: #A80036; stroke-width: 1.0;"/><text fill="#000000" font-family="sans-serif" font-size="13" lengthAdjust="spacingAndGlyphs" textLength="57" x="1871" y="361.0669">Evidence</text><text fill="#000000" font-family="sans-serif" font-size="13" lengthAdjust="spacingAndGlyphs" textLength="7" x="962.3243" y="497.3082">*</text><!--link Document to CommercialTrade--><path d="M1716.05,213.74 C1755.7,254.34 1782.69,302.11 1747,340 C1675.72,415.682 916.755,389.41 813,396 C779.483,398.129 742.122,400.625 711.535,402.701 " fill="none" id="Document-CommercialTrade" style="stroke: #A80036; stroke-width: 1.0;"/><polygon fill="#A80036" points="706.296,403.057,715.5462,406.4384,711.2845,402.7184,715.0045,398.4568,706.296,403.057" style="stroke: #A80036; stroke-width: 1.0;"/><text fill="#000000" font-family="sans-serif" font-size="13" lengthAdjust="spacingAndGlyphs" textLength="113" x="1764" y="308.0669">CommercialTrade</text><text fill="#000000" font-family="sans-serif" font-size="13" lengthAdjust="spacingAndGlyphs" textLength="7" x="714.0855" y="397.412">*</text><!--link Document to Presentation--><path d="M1729.31,137.73 C1875.47,151.81 2105.73,183.14 2165,244 C2235.4,316.291 2236.75,373.269 2202,468 C2183.54,518.327 2124,506.393 2124,560 C2124,560 2124,560 2124,715 C2124,785.174 933.632,795.288 864,804 C859.932,804.509 855.725,805.11 851.509,805.764 " fill="none" id="Document-Presentation" style="stroke: #A80036; stroke-width: 1.0;"/><polygon fill="#A80036" points="846.563,806.555,856.0818,809.0832,851.5002,805.7652,854.8182,801.1836,846.563,806.555" style="stroke: #A80036; stroke-width: 1.0;"/><text fill="#000000" font-family="sans-serif" font-size="13" lengthAdjust="spacingAndGlyphs" textLength="81" x="2180" y="514.0669">Presentation</text><text fill="#000000" font-family="sans-serif" font-size="13" lengthAdjust="spacingAndGlyphs" textLength="24" x="854.6871" y="799.9983">0..1</text><!--link Document to RegisteredContract--><path d="M1729.4,151.98 C1796.51,169.39 1878.03,198.15 1940,244 C2008.92,295 2072.03,352.629 2019,420 C1946.13,512.564 1121.47,659.343 875.099,701.395 " fill="none" id="Document-RegisteredContract" style="stroke: #A80036; stroke-width: 1.0;"/><polygon fill="#A80036" points="870.094,702.248,879.6388,704.6763,875.0227,701.4066,878.2925,696.7904,870.094,702.248" style="stroke: #A80036; stroke-width: 1.0;"/><text fill="#000000" font-family="sans-serif" font-size="13" lengthAdjust="spacingAndGlyphs" textLength="103" x="1972" y="463.0669">RelatedContract</text><text fill="#000000" font-family="sans-serif" font-size="13" lengthAdjust="spacingAndGlyphs" textLength="8" x="877.9674" y="695.9827">1</text><!--link InsuranceCertificate to Location--><path d="M1389.6,316.111 C1406.01,324.054 1429.37,334.308 1451,340 C1503.14,353.723 1887.58,366.953 1933,396 C1964.59,416.204 1953.66,438.648 1977,468 C2097.89,620.019 2138.3,651.467 2289,774 C2404.34,867.785 2567,811.34 2567,960 C2567,960 2567,960 2567,1091 C2567,1143.954 809.2,1170.709 537.962,1174.523 " fill="none" id="InsuranceCertificate-Location" style="stroke: #A80036; stroke-width: 1.0;"/><polygon fill="#A80036" points="532.574,1174.598,541.6291,1178.4716,537.5735,1174.528,541.5171,1170.4724,532.574,1174.598" style="stroke: #A80036; stroke-width: 1.0;"/><text fill="#000000" font-family="sans-serif" font-size="13" lengthAdjust="spacingAndGlyphs" textLength="107" x="2290" y="769.0669">ClaimsPayableAt</text><text fill="#000000" font-family="sans-serif" font-size="13" lengthAdjust="spacingAndGlyphs" textLength="8" x="540.6967" y="1168.2713">1</text><!--link ContactPoint to GenericIdentification--><path d="M699.04,139.05 C739.147,155.44 809.269,190.19 845,244 C859.756,266.22 856,276.33 856,303 C856,303 856,303 856,511 C856,542.828 874,576.381 886.147,595.4 " fill="none" id="ContactPoint-GenericIdentification" style="stroke: #A80036; stroke-width: 1.0;"/><polygon fill="#A80036" points="889.095,599.912,887.5217,590.1896,886.3605,595.726,880.8241,594.5648,889.095,599.912" style="stroke: #A80036; stroke-width: 1.0;"/><text fill="#000000" font-family="sans-serif" font-size="13" lengthAdjust="spacingAndGlyphs" textLength="81" x="857" y="412.0669">Identification</text><text fill="#000000" font-family="sans-serif" font-size="13" lengthAdjust="spacingAndGlyphs" textLength="8" x="875.573" y="588.93">1</text><!--link ContactPoint to ContactPoint--><path d="M682.417,114.8 C709.637,96.23 747,100.3 747,127 C747,152.24 713.612,157.26 686.966,142.05 " fill="none" id="ContactPoint-ContactPoint" style="stroke: #A80036; stroke-width: 1.0;"/><polygon fill="#A80036" points="682.417,139.2,687.9315,147.3603,686.6578,141.8487,692.1694,140.575,682.417,139.2" style="stroke: #A80036; stroke-width: 1.0;"/><text fill="#000000" font-family="sans-serif" font-size="13" lengthAdjust="spacingAndGlyphs" textLength="80" x="753" y="131.0669">MainContact</text><text fill="#000000" font-family="sans-serif" font-size="13" lengthAdjust="spacingAndGlyphs" textLength="8" x="676.6328" y="159.0561">1</text><!--link PaymentObligation to CommercialTrade--><path d="M649,316.306 C649,334.399 649,369.936 649,390.75 " fill="none" id="PaymentObligation-CommercialTrade" style="stroke: #A80036; stroke-width: 1.0;"/><polygon fill="#A80036" points="649,395.954,653,386.954,649,390.954,645,386.954,649,395.954" style="stroke: #A80036; stroke-width: 1.0;"/><text fill="#000000" font-family="sans-serif" font-size="13" lengthAdjust="spacingAndGlyphs" textLength="113" x="650" y="361.0669">CommercialTrade</text><text fill="#000000" font-family="sans-serif" font-size="13" lengthAdjust="spacingAndGlyphs" textLength="8" x="638.2813" y="384.9864">1</text><!--link Agreement to CommercialTrade--><path d="M148.637,1249.9951 C117.139,1237.7318 76,1214.5308 76,1177 C76,960 76,960 76,960 C76,896.42 80,880.58 80,817 C80,509 80,509 80,509 C80,446.359 147.501,466.244 208,450 C339.608,414.664 500.341,408.603 586.805,408.219 " fill="none" id="Agreement-CommercialTrade" style="stroke: #A80036; stroke-width: 1.0;"/><polygon fill="#A80036" points="591.883,408.203,582.8705,404.2313,586.883,408.2187,582.8956,412.2313,591.883,408.203" style="stroke: #A80036; stroke-width: 1.0;"/><text fill="#000000" font-family="sans-serif" font-size="13" lengthAdjust="spacingAndGlyphs" textLength="36" x="81" y="871.0669">Trade</text><text fill="#000000" font-family="sans-serif" font-size="13" lengthAdjust="spacingAndGlyphs" textLength="8" x="576.089" y="403.3714">1</text><!--link Location to Transport--><path d="M473.61,1170.396 C433.355,1162.228 366,1141.08 366,1091 C366,917 366,917 366,917 C366,804.799 752.388,846.82 863,828 C867.409,827.25 872.013,826.389 876.579,825.487 " fill="none" id="Location-Transport" style="stroke: #A80036; stroke-width: 1.0;"/><polygon fill="#A80036" points="881.508,824.495,871.8954,822.3506,876.6064,825.4822,873.4749,830.1932,881.508,824.495" style="stroke: #A80036; stroke-width: 1.0;"/><text fill="#000000" font-family="sans-serif" font-size="13" lengthAdjust="spacingAndGlyphs" textLength="201" x="367" y="1008.0669">DepartureTransportParameters</text><text fill="#000000" font-family="sans-serif" font-size="13" lengthAdjust="spacingAndGlyphs" textLength="24" x="854.6609" y="820.5808">0..1</text><!--link Location to Transport--><path d="M532.39,1170.396 C572.645,1162.228 640,1141.08 640,1091 C640,917 640,917 640,917 C640,892.114 801.114,846.738 876.702,826.818 " fill="none" id="Location-Transport" style="stroke: #A80036; stroke-width: 1.0;"/><polygon fill="#A80036" points="881.555,825.544,871.8343,823.9606,876.7189,826.8137,873.8658,831.6984,881.555,825.544" style="stroke: #A80036; stroke-width: 1.0;"/><text fill="#000000" font-family="sans-serif" font-size="13" lengthAdjust="spacingAndGlyphs" textLength="209" x="641" y="1008.0669">DestinationTransportParameters</text><text fill="#000000" font-family="sans-serif" font-size="13" lengthAdjust="spacingAndGlyphs" textLength="24" x="854.7194" y="841.8142">0..1</text><!--link Location to Transport--><path d="M473.638,1170.473 C389.217,1156.018 155.333,1105.132 211,992 C254.094,904.42 293.631,892.336 385,858 C484.629,820.56 757.545,842.385 863,828 C867.431,827.396 872.049,826.626 876.623,825.775 " fill="none" id="Location-Transport" style="stroke: #A80036; stroke-width: 1.0;"/><polygon fill="#A80036" points="881.559,824.823,871.9649,822.5974,876.6492,825.7687,873.478,830.453,881.559,824.823" style="stroke: #A80036; stroke-width: 1.0;"/><text fill="#000000" font-family="sans-serif" font-size="13" lengthAdjust="spacingAndGlyphs" textLength="109" x="212" y="1008.0669">RelatedTransport</text><text fill="#000000" font-family="sans-serif" font-size="13" lengthAdjust="spacingAndGlyphs" textLength="8" x="865.6001" y="845.7076">1</text><!--link Location to GenericIdentification--><path d="M473.727,1171.004 C409.289,1161.658 257.959,1136.52 221,1102 C154.326,1039.727 108.791,981.505 160,906 C313.05,680.338 670.316,628.473 824.278,616.554 " fill="none" id="Location-GenericIdentification" style="stroke: #A80036; stroke-width: 1.0;"/><polygon fill="#A80036" points="829.668,616.147,820.3919,612.8373,824.6822,616.5241,820.9954,620.8145,829.668,616.147" style="stroke: #A80036; stroke-width: 1.0;"/><text fill="#000000" font-family="sans-serif" font-size="13" lengthAdjust="spacingAndGlyphs" textLength="81" x="161" y="922.0669">Identification</text><text fill="#000000" font-family="sans-serif" font-size="13" lengthAdjust="spacingAndGlyphs" textLength="7" x="814.7977" y="611.8068">*</text><!--link GenericIdentification to RegisteredContract--><path d="M846.808,624.091 C831.03,630.196 815.311,639.592 806,654 C797.925,666.496 799.013,683.805 801.466,696.443 " fill="none" id="GenericIdentification-RegisteredContract" style="stroke: #A80036; stroke-width: 1.0;"/><polygon fill="#A80036" points="802.578,701.546,804.5707,691.9008,801.5138,696.6606,796.7541,693.6036,802.578,701.546" style="stroke: #A80036; stroke-width: 1.0;"/><text fill="#000000" font-family="sans-serif" font-size="13" lengthAdjust="spacingAndGlyphs" textLength="113" x="807" y="667.0669">RelatedCertificate</text><text fill="#000000" font-family="sans-serif" font-size="13" lengthAdjust="spacingAndGlyphs" textLength="8" x="790.8935" y="690.96">1</text></g></svg>