<?xml version="1.0" encoding="UTF-8" standalone="no"?><svg xmlns="http://www.w3.org/2000/svg" xmlns:xlink="http://www.w3.org/1999/xlink" contentScriptType="application/ecmascript" contentStyleType="text/css" height="293px" preserveAspectRatio="none" style="width:703px;height:293px;" version="1.1" viewBox="0 0 703 293" width="703px" zoomAndPan="magnify"><defs><filter height="300%" id="fp567rx7ofmcu" width="300%" x="-1" y="-1"><feGaussianBlur result="blurOut" stdDeviation="2.0"/><feColorMatrix in="blurOut" result="blurOut2" type="matrix" values="0 0 0 0 0 0 0 0 0 0 0 0 0 0 0 0 0 0 .4 0"/><feOffset dx="4.0" dy="4.0" in="blurOut2" result="blurOut3"/><feBlend in="SourceGraphic" in2="blurOut3" mode="normal"/></filter></defs><g><!--cluster ##15008--><!--cluster ##15014--><!--cluster ##15017--><!--class InvestigationResolution--><a target="_top" xlink:actuate="onRequest" xlink:href="../InvestigationResolution.html" xlink:show="new" xlink:title="Specifies the actions taken as a result of an investigation." xlink:type="simple"><rect fill="#FEFEEE" filter="url(#fp567rx7ofmcu)" height="44.7734" id="InvestigationResolution" style="stroke: #A80036; stroke-width: 1.5;" width="258" x="278" y="40.5"/><rect fill="#FEFEEE" height="23.9688" style="stroke: #A80036; stroke-width: 1.5;" width="258" x="278" y="40.5"/><text fill="#000000" font-family="sans-serif" font-size="12" lengthAdjust="spacingAndGlyphs" textLength="146" x="334" y="56.6387">InvestigationResolution</text><line style="stroke: #A80036; stroke-width: 1.5;" x1="279" x2="535" y1="64.4688" y2="64.4688"/><ellipse cx="289" cy="76.3711" fill="#84BE84" rx="3" ry="3" style="stroke: #038048; stroke-width: 1.0;"/><text fill="#000000" font-family="sans-serif" font-size="11" lengthAdjust="spacingAndGlyphs" textLength="158" x="298" y="78.6792">InvestigationCaseReference</text><text fill="#000000" font-family="sans-serif" font-size="11" font-style="italic" lengthAdjust="spacingAndGlyphs" textLength="70" x="460" y="78.6792">(Max35Text)</text></a><!--class DuplicateCase--><a target="_top" xlink:actuate="onRequest" xlink:href="../DuplicateCase.html" xlink:show="new" xlink:title="Outcome that results in closing a case as duplicate because the same issue has been reported by another party." xlink:type="simple"><rect fill="#FEFECE" filter="url(#fp567rx7ofmcu)" height="23.9688" id="DuplicateCase" style="stroke: #A80036; stroke-width: 1.5;" width="96" x="298" y="148"/><rect fill="#FEFECE" height="23.9688" style="stroke: #A80036; stroke-width: 1.5;" width="96" x="298" y="148"/><text fill="#000000" font-family="sans-serif" font-size="12" lengthAdjust="spacingAndGlyphs" textLength="90" x="301" y="164.1387">DuplicateCase</text></a><!--class InvestigationCase--><a target="_top" xlink:actuate="onRequest" xlink:href="../InvestigationCase.html" xlink:show="new" xlink:title="Set of activities performed to handle an exception to a normal transaction flow.." xlink:type="simple"><rect fill="#EEEEEE" filter="url(#fp567rx7ofmcu)" height="23.9688" id="InvestigationCase" style="stroke: #A80036; stroke-width: 1.5;" width="117" x="372.75" y="256"/><rect fill="#EEEEEE" height="23.9688" style="stroke: #A80036; stroke-width: 1.5;" width="117" x="372.75" y="256"/><text fill="#000000" font-family="sans-serif" font-size="12" lengthAdjust="spacingAndGlyphs" textLength="111" x="375.75" y="272.1387">InvestigationCase</text></a><!--class PaymentInvestigationCaseResolution--><a target="_top" xlink:actuate="onRequest" xlink:href="../PaymentInvestigationCaseResolution.html" xlink:show="new" xlink:title="Specifies the status of an investigation case and the actions taken as a result of this status." xlink:type="simple"><rect fill="#EEEEEE" filter="url(#fp567rx7ofmcu)" height="23.9688" id="PaymentInvestigationCaseResolution" style="stroke: #A80036; stroke-width: 1.5;" width="237" x="38.75" y="256"/><rect fill="#EEEEEE" height="23.9688" style="stroke: #A80036; stroke-width: 1.5;" width="237" x="38.75" y="256"/><text fill="#000000" font-family="sans-serif" font-size="12" lengthAdjust="spacingAndGlyphs" textLength="231" x="41.75" y="272.1387">PaymentInvestigationCaseResolution</text></a><!--link InvestigationResolution to DuplicateCase--><path d="M382.194,102.632 C371.711,118.959 360.296,136.735 353.146,147.871 " fill="none" id="InvestigationResolution-DuplicateCase" style="stroke: #A80036; stroke-width: 1.0;"/><polygon fill="none" points="376.462,98.604,393.158,85.557,388.242,106.168,376.462,98.604" style="stroke: #A80036; stroke-width: 1.0;"/><!--link InvestigationResolution to InvestigationCase--><path d="M415.939,85.833 C426.528,112.982 443.546,161.003 450,204 C451.188,211.911 451.587,214.1591 450,222 C447.965,232.0494 443.615,242.6439 439.589,251.0271 " fill="none" id="InvestigationResolution-InvestigationCase" style="stroke: #A80036; stroke-width: 1.0;"/><polygon fill="#A80036" points="437.148,255.9364,444.7364,249.6581,439.3739,251.4592,437.5728,246.0967,437.148,255.9364" style="stroke: #A80036; stroke-width: 1.0;"/><text fill="#000000" font-family="sans-serif" font-size="13" lengthAdjust="spacingAndGlyphs" textLength="113" x="449" y="164.0669">InvestigationCase</text><text fill="#000000" font-family="sans-serif" font-size="13" lengthAdjust="spacingAndGlyphs" textLength="24" x="409.7067" y="244.9628">0..1</text><!--link DuplicateCase to InvestigationCase--><path d="M341.885,172.282 C337.901,185.283 333.704,206.805 343,222 C352.089,236.8569 367.805,247.0067 383.463,253.8466 " fill="none" id="DuplicateCase-InvestigationCase" style="stroke: #A80036; stroke-width: 1.0;"/><polygon fill="#A80036" points="388.313,255.8645,381.5392,248.715,383.6964,253.9444,378.467,256.1015,388.313,255.8645" style="stroke: #A80036; stroke-width: 1.0;"/><text fill="#000000" font-family="sans-serif" font-size="13" lengthAdjust="spacingAndGlyphs" textLength="100" x="344" y="217.0669">DuplicatedCase</text><text fill="#000000" font-family="sans-serif" font-size="13" lengthAdjust="spacingAndGlyphs" textLength="7" x="364.0065" y="244.8661">*</text><!--link DuplicateCase to PaymentInvestigationCaseResolution--><path d="M297.865,162.082 C261.65,165.358 212.961,175.347 181,204 C167.495,216.1075 161.545,236.6425 158.953,250.9652 " fill="none" id="DuplicateCase-PaymentInvestigationCaseResolution" style="stroke: #A80036; stroke-width: 1.0;"/><polygon fill="#A80036" points="158.142,255.9338,163.5396,247.6958,158.9475,250.9991,155.6441,246.407,158.142,255.9338" style="stroke: #A80036; stroke-width: 1.0;"/><text fill="#000000" font-family="sans-serif" font-size="13" lengthAdjust="spacingAndGlyphs" textLength="146" x="182" y="217.0669">RelatedCaseResolution</text><text fill="#000000" font-family="sans-serif" font-size="13" lengthAdjust="spacingAndGlyphs" textLength="8" x="147.7299" y="244.9593">1</text><!--link InvestigationCase to InvestigationCase--><path d="M489.578,257.8756 C508.741,257.9279 524,261.3027 524,268 C524,274.0694 511.468,277.4101 494.856,278.0221 " fill="none" id="InvestigationCase-InvestigationCase" style="stroke: #A80036; stroke-width: 1.0;"/><polygon fill="#A80036" points="489.578,278.1244,498.654,281.9488,494.5771,278.0273,498.4986,273.9503,489.578,278.1244" style="stroke: #A80036; stroke-width: 1.0;"/><text fill="#000000" font-family="sans-serif" font-size="13" lengthAdjust="spacingAndGlyphs" textLength="161" x="530" y="272.0669">OriginalInvestigationCase</text><text fill="#000000" font-family="sans-serif" font-size="13" lengthAdjust="spacingAndGlyphs" textLength="7" x="497.8861" y="274.4206">*</text></g></svg>