<?xml version="1.0" encoding="UTF-8" standalone="no"?><svg xmlns="http://www.w3.org/2000/svg" xmlns:xlink="http://www.w3.org/1999/xlink" contentScriptType="application/ecmascript" contentStyleType="text/css" height="494px" preserveAspectRatio="none" style="width:795px;height:494px;" version="1.1" viewBox="0 0 795 494" width="795px" zoomAndPan="magnify"><defs><filter height="300%" id="f1x42lzvoaehg4" width="300%" x="-1" y="-1"><feGaussianBlur result="blurOut" stdDeviation="2.0"/><feColorMatrix in="blurOut" result="blurOut2" type="matrix" values="0 0 0 0 0 0 0 0 0 0 0 0 0 0 0 0 0 0 .4 0"/><feOffset dx="4.0" dy="4.0" in="blurOut2" result="blurOut3"/><feBlend in="SourceGraphic" in2="blurOut3" mode="normal"/></filter></defs><g><!--cluster ##7521--><!--cluster ##7530--><!--class Entry--><a target="_top" xlink:actuate="onRequest" xlink:href="../Entry.html" xlink:show="new" xlink:title="Posting to an account that results in an increase or decrease to a balance." xlink:type="simple"><rect fill="#FEFECE" filter="url(#f1x42lzvoaehg4)" height="147.2109" id="Entry" style="stroke: #A80036; stroke-width: 1.5;" width="330" x="38" y="40.5"/><rect fill="#FEFECE" height="23.9688" style="stroke: #A80036; stroke-width: 1.5;" width="330" x="38" y="40.5"/><text fill="#000000" font-family="sans-serif" font-size="12" lengthAdjust="spacingAndGlyphs" textLength="32" x="187" y="56.6387">Entry</text><line style="stroke: #A80036; stroke-width: 1.5;" x1="39" x2="367" y1="64.4688" y2="64.4688"/><ellipse cx="49" cy="76.3711" fill="#84BE84" rx="3" ry="3" style="stroke: #038048; stroke-width: 1.0;"/><text fill="#000000" font-family="sans-serif" font-size="11" lengthAdjust="spacingAndGlyphs" textLength="112" x="58" y="78.6792">CreditDebitIndicator</text><text fill="#000000" font-family="sans-serif" font-size="11" font-style="italic" lengthAdjust="spacingAndGlyphs" textLength="100" x="174" y="78.6792">(DebitCreditCode)</text><ellipse cx="49" cy="89.1758" fill="#84BE84" rx="3" ry="3" style="stroke: #038048; stroke-width: 1.0;"/><text fill="#000000" font-family="sans-serif" font-size="11" lengthAdjust="spacingAndGlyphs" textLength="55" x="58" y="91.4839">EntryDate</text><text fill="#000000" font-family="sans-serif" font-size="11" font-style="italic" lengthAdjust="spacingAndGlyphs" textLength="81" x="117" y="91.4839">(ISODateTime)</text><ellipse cx="49" cy="101.9805" fill="#84BE84" rx="3" ry="3" style="stroke: #038048; stroke-width: 1.0;"/><text fill="#000000" font-family="sans-serif" font-size="11" lengthAdjust="spacingAndGlyphs" textLength="72" x="58" y="104.2886">Identification</text><text fill="#000000" font-family="sans-serif" font-size="11" font-style="italic" lengthAdjust="spacingAndGlyphs" textLength="70" x="134" y="104.2886">(Max35Text)</text><ellipse cx="49" cy="114.7852" fill="#84BE84" rx="3" ry="3" style="stroke: #038048; stroke-width: 1.0;"/><text fill="#000000" font-family="sans-serif" font-size="11" lengthAdjust="spacingAndGlyphs" textLength="220" x="58" y="117.0933">AccountOwnerTransactionIdentification</text><text fill="#000000" font-family="sans-serif" font-size="11" font-style="italic" lengthAdjust="spacingAndGlyphs" textLength="70" x="282" y="117.0933">(Max35Text)</text><ellipse cx="49" cy="127.5898" fill="#84BE84" rx="3" ry="3" style="stroke: #038048; stroke-width: 1.0;"/><text fill="#000000" font-family="sans-serif" font-size="11" lengthAdjust="spacingAndGlyphs" textLength="230" x="58" y="129.8979">AccountServicerTransactionIdentification</text><text fill="#000000" font-family="sans-serif" font-size="11" font-style="italic" lengthAdjust="spacingAndGlyphs" textLength="70" x="292" y="129.8979">(Max35Text)</text><ellipse cx="49" cy="140.3945" fill="#84BE84" rx="3" ry="3" style="stroke: #038048; stroke-width: 1.0;"/><text fill="#000000" font-family="sans-serif" font-size="11" lengthAdjust="spacingAndGlyphs" textLength="98" x="58" y="142.7026">ReversalIndicator</text><text fill="#000000" font-family="sans-serif" font-size="11" font-style="italic" lengthAdjust="spacingAndGlyphs" textLength="112" x="160" y="142.7026">(TrueFalseIndicator)</text><ellipse cx="49" cy="153.1992" fill="#84BE84" rx="3" ry="3" style="stroke: #038048; stroke-width: 1.0;"/><text fill="#000000" font-family="sans-serif" font-size="11" lengthAdjust="spacingAndGlyphs" textLength="57" x="58" y="155.5073">ValueDate</text><text fill="#000000" font-family="sans-serif" font-size="11" font-style="italic" lengthAdjust="spacingAndGlyphs" textLength="81" x="119" y="155.5073">(ISODateTime)</text><ellipse cx="49" cy="166.0039" fill="#84BE84" rx="3" ry="3" style="stroke: #038048; stroke-width: 1.0;"/><text fill="#000000" font-family="sans-serif" font-size="11" lengthAdjust="spacingAndGlyphs" textLength="157" x="58" y="168.312">CommissionWaiverIndicator</text><text fill="#000000" font-family="sans-serif" font-size="11" font-style="italic" lengthAdjust="spacingAndGlyphs" textLength="92" x="219" y="168.312">(YesNoIndicator)</text><ellipse cx="49" cy="178.8086" fill="#84BE84" rx="3" ry="3" style="stroke: #038048; stroke-width: 1.0;"/><text fill="#000000" font-family="sans-serif" font-size="11" lengthAdjust="spacingAndGlyphs" textLength="56" x="58" y="181.1167">EntryType</text><text fill="#000000" font-family="sans-serif" font-size="11" font-style="italic" lengthAdjust="spacingAndGlyphs" textLength="67" x="118" y="181.1167">(EntryCode)</text></a><!--class CashEntry--><a target="_top" xlink:actuate="onRequest" xlink:href="../CashEntry.html" xlink:show="new" xlink:title="Posting of an item to a cash account, in the context of a cash transaction, that results in an increase or decrease to the balance of the account." xlink:type="simple"><rect fill="#FEFEEE" filter="url(#f1x42lzvoaehg4)" height="23.9688" id="CashEntry" style="stroke: #A80036; stroke-width: 1.5;" width="69" x="38.75" y="270"/><rect fill="#FEFEEE" height="23.9688" style="stroke: #A80036; stroke-width: 1.5;" width="69" x="38.75" y="270"/><text fill="#000000" font-family="sans-serif" font-size="12" lengthAdjust="spacingAndGlyphs" textLength="63" x="41.75" y="286.1387">CashEntry</text></a><!--class SecuritiesEntry--><a target="_top" xlink:actuate="onRequest" xlink:href="../SecuritiesEntry.html" xlink:show="new" xlink:title="Posting to a securities account as a result of a securities creation, deletion or transfer in the context of a securities transaction." xlink:type="simple"><rect fill="#FEFEEE" filter="url(#f1x42lzvoaehg4)" height="23.9688" id="SecuritiesEntry" style="stroke: #A80036; stroke-width: 1.5;" width="100" x="143" y="270"/><rect fill="#FEFEEE" height="23.9688" style="stroke: #A80036; stroke-width: 1.5;" width="100" x="143" y="270"/><text fill="#000000" font-family="sans-serif" font-size="12" lengthAdjust="spacingAndGlyphs" textLength="94" x="146" y="286.1387">SecuritiesEntry</text></a><!--class BankTransaction--><a target="_top" xlink:actuate="onRequest" xlink:href="../BankTransaction.html" xlink:show="new" xlink:title="Code of the underlying bank transaction." xlink:type="simple"><rect fill="#EEEEEE" filter="url(#f1x42lzvoaehg4)" height="23.9688" id="BankTransaction" style="stroke: #A80036; stroke-width: 1.5;" width="111" x="590.75" y="460"/><rect fill="#EEEEEE" height="23.9688" style="stroke: #A80036; stroke-width: 1.5;" width="111" x="590.75" y="460"/><text fill="#000000" font-family="sans-serif" font-size="12" lengthAdjust="spacingAndGlyphs" textLength="105" x="593.75" y="476.1387">BankTransaction</text></a><!--class Role--><a target="_top" xlink:actuate="onRequest" xlink:href="../Role.html" xlink:show="new" xlink:title="Role of a party in an activity." xlink:type="simple"><rect fill="#EEEEEE" filter="url(#f1x42lzvoaehg4)" height="23.9688" id="Role" style="stroke: #A80036; stroke-width: 1.5;" width="33" x="591.75" y="374"/><rect fill="#EEEEEE" height="23.9688" style="stroke: #A80036; stroke-width: 1.5;" width="33" x="591.75" y="374"/><text fill="#000000" font-family="sans-serif" font-size="12" lengthAdjust="spacingAndGlyphs" textLength="27" x="594.75" y="390.1387">Role</text></a><!--class Account--><a target="_top" xlink:actuate="onRequest" xlink:href="../Account.html" xlink:show="new" xlink:title="Record of transactions in specific types of assets, maintained by a servicing party on behalf of one or more owning parties. Business relationship between an account servicer and one or more account owners." xlink:type="simple"><rect fill="#EEEEEE" filter="url(#f1x42lzvoaehg4)" height="23.9688" id="Account" style="stroke: #A80036; stroke-width: 1.5;" width="57" x="591.75" y="270"/><rect fill="#EEEEEE" height="23.9688" style="stroke: #A80036; stroke-width: 1.5;" width="57" x="591.75" y="270"/><text fill="#000000" font-family="sans-serif" font-size="12" lengthAdjust="spacingAndGlyphs" textLength="51" x="594.75" y="286.1387">Account</text></a><!--class Balance--><a target="_top" xlink:actuate="onRequest" xlink:href="../Balance.html" xlink:show="new" xlink:title="Numerical representation of the net increases and decreases in an account at a specific point in time." xlink:type="simple"><rect fill="#EEEEEE" filter="url(#f1x42lzvoaehg4)" height="23.9688" id="Balance" style="stroke: #A80036; stroke-width: 1.5;" width="56" x="660.5" y="374"/><rect fill="#EEEEEE" height="23.9688" style="stroke: #A80036; stroke-width: 1.5;" width="56" x="660.5" y="374"/><text fill="#000000" font-family="sans-serif" font-size="12" lengthAdjust="spacingAndGlyphs" textLength="50" x="663.5" y="390.1387">Balance</text></a><!--link Entry to CashEntry--><path d="M133.472,203.781 C112.83,230.14 92.7993,255.718 81.7625,269.811 " fill="none" id="Entry-CashEntry" style="stroke: #A80036; stroke-width: 1.0;"/><polygon fill="none" points="128.138,199.24,145.98,187.81,139.16,207.872,128.138,199.24" style="stroke: #A80036; stroke-width: 1.0;"/><!--link Entry to SecuritiesEntry--><path d="M197.406,207.857 C195.907,232.751 194.479,256.446 193.674,269.811 " fill="none" id="Entry-SecuritiesEntry" style="stroke: #A80036; stroke-width: 1.0;"/><polygon fill="none" points="190.424,207.353,198.614,187.81,204.398,208.195,190.424,207.353" style="stroke: #A80036; stroke-width: 1.0;"/><!--link Role to BankTransaction--><!--link Account to Role--><!--link Balance to Account--><!--link Account to Balance--><path d="M620.315,294.233 C621.162,307.188 624.096,328.666 634,344 C641.153,355.074 652.383,364.306 662.754,371.188 " fill="none" id="Account-Balance" style="stroke: #A80036; stroke-width: 1.0;"/><polygon fill="#A80036" points="667.131,373.992,661.7106,365.7689,662.9209,371.2948,657.395,372.5051,667.131,373.992" style="stroke: #A80036; stroke-width: 1.0;"/><text fill="#000000" font-family="sans-serif" font-size="13" lengthAdjust="spacingAndGlyphs" textLength="51" x="635" y="339.0669">Balance</text><text fill="#000000" font-family="sans-serif" font-size="13" lengthAdjust="spacingAndGlyphs" textLength="23" x="663.7385" y="363.0375">1..*</text><!--link Entry to BankTransaction--><path d="M236.771,187.775 C244.771,205.98 253.003,225.573 260,244 C276.565,287.626 259.581,310.435 292,344 C371.229,426.0312 507.136,455.2452 585.498,465.5282 " fill="none" id="Entry-BankTransaction" style="stroke: #A80036; stroke-width: 1.0;"/><polygon fill="#A80036" points="590.575,466.1785,582.1566,461.0667,585.6156,465.5428,581.1395,469.0018,590.575,466.1785" style="stroke: #A80036; stroke-width: 1.0;"/><text fill="#000000" font-family="sans-serif" font-size="13" lengthAdjust="spacingAndGlyphs" textLength="139" x="293" y="339.0669">BankTransactionCode</text><text fill="#000000" font-family="sans-serif" font-size="13" lengthAdjust="spacingAndGlyphs" textLength="24" x="558.8148" y="460.8437">0..1</text><!--link Entry to Role--><path d="M287.859,187.754 C299.393,197.845 311.03,208.133 322,218 C370.395,261.529 375.284,281.238 429,318 C450.982,333.044 458.291,334.05 483,344 C518.602,358.337 561.326,371.518 586.481,378.884 " fill="none" id="Entry-Role" style="stroke: #A80036; stroke-width: 1.0;"/><polygon fill="#A80036" points="591.574,380.365,584.05,374.0097,586.7731,378.968,581.8148,381.6911,591.574,380.365" style="stroke: #A80036; stroke-width: 1.0;"/><text fill="#000000" font-family="sans-serif" font-size="13" lengthAdjust="spacingAndGlyphs" textLength="27" x="430" y="286.0669">Role</text><text fill="#000000" font-family="sans-serif" font-size="13" lengthAdjust="spacingAndGlyphs" textLength="7" x="576.8241" y="371.9525">*</text><!--link Entry to Account--><path d="M368.227,157.115 C420.584,173.143 477.857,193.551 528,218 C555.59,231.453 584.297,252.41 602.153,266.414 " fill="none" id="Entry-Account" style="stroke: #A80036; stroke-width: 1.0;"/><polygon fill="#A80036" points="606.451,269.816,601.8767,261.0938,602.5305,266.7128,596.9116,267.3666,606.451,269.816" style="stroke: #A80036; stroke-width: 1.0;"/><text fill="#000000" font-family="sans-serif" font-size="13" lengthAdjust="spacingAndGlyphs" textLength="52" x="558" y="231.0669">Account</text><text fill="#000000" font-family="sans-serif" font-size="13" lengthAdjust="spacingAndGlyphs" textLength="7" x="592.3895" y="259.0585">*</text><!--link Entry to Balance--><path d="M368.052,182.728 C401.215,200.136 434.572,220.656 463,244 C495.084,270.346 486.875,292.976 520,318 C561.433,349.299 619.439,368.119 655.318,377.522 " fill="none" id="Entry-Balance" style="stroke: #A80036; stroke-width: 1.0;"/><polygon fill="#A80036" points="660.446,378.841,652.7266,372.7245,655.6037,377.5951,650.7332,380.4721,660.446,378.841" style="stroke: #A80036; stroke-width: 1.0;"/><text fill="#000000" font-family="sans-serif" font-size="13" lengthAdjust="spacingAndGlyphs" textLength="51" x="521" y="286.0669">Balance</text><text fill="#000000" font-family="sans-serif" font-size="13" lengthAdjust="spacingAndGlyphs" textLength="7" x="645.3248" y="371.5004">*</text><!--link Account to Account--><path d="M648.508,272.938 C666.181,270.753 683,273.773 683,282 C683,289.391 669.424,292.58 653.85,291.567 " fill="none" id="Account-Account" style="stroke: #A80036; stroke-width: 1.0;"/><polygon fill="#A80036" points="648.508,291.062,657.0922,295.8902,653.4859,291.5319,657.8441,287.9256,648.508,291.062" style="stroke: #A80036; stroke-width: 1.0;"/><text fill="#000000" font-family="sans-serif" font-size="13" lengthAdjust="spacingAndGlyphs" textLength="94" x="689" y="286.0669">ParentAccount</text><text fill="#000000" font-family="sans-serif" font-size="13" lengthAdjust="spacingAndGlyphs" textLength="8" x="656.7741" y="287.2939">1</text></g></svg>