<?xml version="1.0" encoding="UTF-8" standalone="no"?><svg xmlns="http://www.w3.org/2000/svg" xmlns:xlink="http://www.w3.org/1999/xlink" contentScriptType="application/ecmascript" contentStyleType="text/css" height="688px" preserveAspectRatio="none" style="width:1492px;height:688px;" version="1.1" viewBox="0 0 1492 688" width="1492px" zoomAndPan="magnify"><defs><filter height="300%" id="foue4m9e9d9po" width="300%" x="-1" y="-1"><feGaussianBlur result="blurOut" stdDeviation="2.0"/><feColorMatrix in="blurOut" result="blurOut2" type="matrix" values="0 0 0 0 0 0 0 0 0 0 0 0 0 0 0 0 0 0 .4 0"/><feOffset dx="4.0" dy="4.0" in="blurOut2" result="blurOut3"/><feBlend in="SourceGraphic" in2="blurOut3" mode="normal"/></filter></defs><g><!--cluster ##6917--><!--cluster ##6920--><!--class ExposureCalculation--><a target="_top" xlink:actuate="onRequest" xlink:href="../ExposureCalculation.html" xlink:show="new" xlink:title="Description of the calculation of the amounts representing the risk that needs to be covered, together with the calculation of the existing coverage." xlink:type="simple"><rect fill="#FEFECE" filter="url(#foue4m9e9d9po)" height="70.3828" id="ExposureCalculation" style="stroke: #A80036; stroke-width: 1.5;" width="312" x="691" y="40"/><rect fill="#FEFECE" height="23.9688" style="stroke: #A80036; stroke-width: 1.5;" width="312" x="691" y="40"/><text fill="#000000" font-family="sans-serif" font-size="12" lengthAdjust="spacingAndGlyphs" textLength="127" x="783.5" y="56.1387">ExposureCalculation</text><line style="stroke: #A80036; stroke-width: 1.5;" x1="692" x2="1002" y1="63.9688" y2="63.9688"/><ellipse cx="702" cy="75.8711" fill="#84BE84" rx="3" ry="3" style="stroke: #038048; stroke-width: 1.0;"/><text fill="#000000" font-family="sans-serif" font-size="11" lengthAdjust="spacingAndGlyphs" textLength="156" x="711" y="78.1792">TotalCollateralCurrentValue</text><text fill="#000000" font-family="sans-serif" font-size="11" font-style="italic" lengthAdjust="spacingAndGlyphs" textLength="126" x="871" y="78.1792">(CurrencyAndAmount)</text><ellipse cx="702" cy="88.6758" fill="#84BE84" rx="3" ry="3" style="stroke: #038048; stroke-width: 1.0;"/><text fill="#000000" font-family="sans-serif" font-size="11" lengthAdjust="spacingAndGlyphs" textLength="119" x="711" y="90.9839">TotalExposedAmount</text><text fill="#000000" font-family="sans-serif" font-size="11" font-style="italic" lengthAdjust="spacingAndGlyphs" textLength="126" x="834" y="90.9839">(CurrencyAndAmount)</text><ellipse cx="702" cy="101.4805" fill="#84BE84" rx="3" ry="3" style="stroke: #038048; stroke-width: 1.0;"/><text fill="#000000" font-family="sans-serif" font-size="11" lengthAdjust="spacingAndGlyphs" textLength="149" x="711" y="103.7886">TotalCollateralAfterHaircut</text><text fill="#000000" font-family="sans-serif" font-size="11" font-style="italic" lengthAdjust="spacingAndGlyphs" textLength="126" x="864" y="103.7886">(CurrencyAndAmount)</text></a><!--class IndependentAmount--><a target="_top" xlink:actuate="onRequest" xlink:href="../IndependentAmount.html" xlink:show="new" xlink:title="Amount applied as an add-on to the exposure usually intended to cover a possible increase in exposure before the next valuation date." xlink:type="simple"><rect fill="#EEEEEE" filter="url(#foue4m9e9d9po)" height="23.9688" id="IndependentAmount" style="stroke: #A80036; stroke-width: 1.5;" width="134" x="820" y="654"/><rect fill="#EEEEEE" height="23.9688" style="stroke: #A80036; stroke-width: 1.5;" width="134" x="820" y="654"/><text fill="#000000" font-family="sans-serif" font-size="12" lengthAdjust="spacingAndGlyphs" textLength="128" x="823" y="670.1387">IndependentAmount</text></a><!--class CollateralBalance--><a target="_top" xlink:actuate="onRequest" xlink:href="../CollateralBalance.html" xlink:show="new" xlink:title="Specifies the different values taken into account to calculate the current collateral." xlink:type="simple"><rect fill="#EEEEEE" filter="url(#foue4m9e9d9po)" height="23.9688" id="CollateralBalance" style="stroke: #A80036; stroke-width: 1.5;" width="115" x="834.75" y="568"/><rect fill="#EEEEEE" height="23.9688" style="stroke: #A80036; stroke-width: 1.5;" width="115" x="834.75" y="568"/><text fill="#000000" font-family="sans-serif" font-size="12" lengthAdjust="spacingAndGlyphs" textLength="109" x="837.75" y="584.1387">CollateralBalance</text></a><!--class MarginAmountRequirement--><a target="_top" xlink:actuate="onRequest" xlink:href="../MarginAmountRequirement.html" xlink:show="new" xlink:title="Amount of expected margin required by any of the parties of the margin calculation." xlink:type="simple"><rect fill="#EEEEEE" filter="url(#foue4m9e9d9po)" height="23.9688" id="MarginAmountRequirement" style="stroke: #A80036; stroke-width: 1.5;" width="176" x="819.5" y="482"/><rect fill="#EEEEEE" height="23.9688" style="stroke: #A80036; stroke-width: 1.5;" width="176" x="819.5" y="482"/><text fill="#000000" font-family="sans-serif" font-size="12" lengthAdjust="spacingAndGlyphs" textLength="170" x="822.5" y="498.1387">MarginAmountRequirement</text></a><!--class CollateralManagement--><a target="_top" xlink:actuate="onRequest" xlink:href="../CollateralManagement.html" xlink:show="new" xlink:title="Set of operations relative to the management of collateral, variation margins, default fund participation and independent amount." xlink:type="simple"><rect fill="#EEEEEE" filter="url(#foue4m9e9d9po)" height="23.9688" id="CollateralManagement" style="stroke: #A80036; stroke-width: 1.5;" width="147" x="847.75" y="396"/><rect fill="#EEEEEE" height="23.9688" style="stroke: #A80036; stroke-width: 1.5;" width="147" x="847.75" y="396"/><text fill="#000000" font-family="sans-serif" font-size="12" lengthAdjust="spacingAndGlyphs" textLength="141" x="850.75" y="412.1387">CollateralManagement</text></a><!--class CounterpartyRisk--><a target="_top" xlink:actuate="onRequest" xlink:href="../CounterpartyRisk.html" xlink:show="new" xlink:title="Calculation of the exposure amount that one party has vis-a-vis one counterparty or a central system, based on its credit risk." xlink:type="simple"><rect fill="#EEEEEE" filter="url(#foue4m9e9d9po)" height="23.9688" id="CounterpartyRisk" style="stroke: #A80036; stroke-width: 1.5;" width="113" x="881.75" y="294"/><rect fill="#EEEEEE" height="23.9688" style="stroke: #A80036; stroke-width: 1.5;" width="113" x="881.75" y="294"/><text fill="#000000" font-family="sans-serif" font-size="12" lengthAdjust="spacingAndGlyphs" textLength="107" x="884.75" y="310.1387">CounterpartyRisk</text></a><!--class TransactionRisk--><a target="_top" xlink:actuate="onRequest" xlink:href="../TransactionRisk.html" xlink:show="new" xlink:title="Calculation of the exposure amount that one party has vis-a-vis one counterparty or a central system, based on the transactions that are not yet settled." xlink:type="simple"><rect fill="#EEEEEE" filter="url(#foue4m9e9d9po)" height="23.9688" id="TransactionRisk" style="stroke: #A80036; stroke-width: 1.5;" width="105" x="819.75" y="192"/><rect fill="#EEEEEE" height="23.9688" style="stroke: #A80036; stroke-width: 1.5;" width="105" x="819.75" y="192"/><text fill="#000000" font-family="sans-serif" font-size="12" lengthAdjust="spacingAndGlyphs" textLength="99" x="822.75" y="208.1387">TransactionRisk</text></a><!--link CollateralBalance to IndependentAmount--><!--link MarginAmountRequirement to CollateralBalance--><!--link CollateralManagement to MarginAmountRequirement--><!--link CounterpartyRisk to CollateralManagement--><!--link TransactionRisk to CounterpartyRisk--><!--link ExposureCalculation to IndependentAmount--><path d="M690.785,84.01 C447.574,98.601 6,134.522 6,203 C6,203 6,203 6,581 C6,661.994 603.702,666.5516 814.485,665.6406 " fill="none" id="ExposureCalculation-IndependentAmount" style="stroke: #A80036; stroke-width: 1.0;"/><polygon fill="#A80036" points="819.696,665.6167,810.6778,661.6579,814.6961,665.6396,810.7144,669.6578,819.696,665.6167" style="stroke: #A80036; stroke-width: 1.0;"/><text fill="#000000" font-family="sans-serif" font-size="13" lengthAdjust="spacingAndGlyphs" textLength="179" x="7" y="412.0669">CurrentIndependentAmount</text><text fill="#000000" font-family="sans-serif" font-size="13" lengthAdjust="spacingAndGlyphs" textLength="7" x="805.0766" y="660.8722">*</text><!--link ExposureCalculation to CollateralBalance--><path d="M1003.139,87.171 C1144.59,101.722 1331,133.991 1331,203 C1331,203 1331,203 1331,495 C1331,570.697 1076.03,579.803 954.712,579.852 " fill="none" id="ExposureCalculation-CollateralBalance" style="stroke: #A80036; stroke-width: 1.0;"/><polygon fill="#A80036" points="949.392,579.848,958.392,583.848,954.392,579.848,958.392,575.848,949.392,579.848" style="stroke: #A80036; stroke-width: 1.0;"/><text fill="#000000" font-family="sans-serif" font-size="13" lengthAdjust="spacingAndGlyphs" textLength="148" x="1332" y="361.0669">CurrentVariationMargin</text><text fill="#000000" font-family="sans-serif" font-size="13" lengthAdjust="spacingAndGlyphs" textLength="8" x="957.608" y="574.7633">1</text><!--link ExposureCalculation to CollateralBalance--><path d="M690.94,78.309 C511.386,85.303 241,111.093 241,203 C241,203 241,203 241,495 C241,553.939 666.14,572.475 829.292,577.419 " fill="none" id="ExposureCalculation-CollateralBalance" style="stroke: #A80036; stroke-width: 1.0;"/><polygon fill="#A80036" points="834.514,577.575,825.6368,573.3094,829.5162,577.4265,825.3991,581.3058,834.514,577.575" style="stroke: #A80036; stroke-width: 1.0;"/><text fill="#000000" font-family="sans-serif" font-size="13" lengthAdjust="spacingAndGlyphs" textLength="254" x="242" y="361.0669">CurrentSegregatedIndependentAmount</text><text fill="#000000" font-family="sans-serif" font-size="13" lengthAdjust="spacingAndGlyphs" textLength="8" x="818.6523" y="572.4559">1</text><!--link ExposureCalculation to MarginAmountRequirement--><path d="M690.899,107.72 C646.526,126.433 610,156.086 610,203 C610,203 610,203 610,409 C610,452.082 727.174,474.183 814.325,484.664 " fill="none" id="ExposureCalculation-MarginAmountRequirement" style="stroke: #A80036; stroke-width: 1.0;"/><polygon fill="#A80036" points="819.497,485.276,811.0304,480.2445,814.5318,484.6875,810.0887,488.1889,819.497,485.276" style="stroke: #A80036; stroke-width: 1.0;"/><text fill="#000000" font-family="sans-serif" font-size="13" lengthAdjust="spacingAndGlyphs" textLength="233" x="611" y="310.0669">VariationMarginAmountRequirement</text><text fill="#000000" font-family="sans-serif" font-size="13" lengthAdjust="spacingAndGlyphs" textLength="7" x="804.4147" y="480.0305">*</text><!--link ExposureCalculation to MarginAmountRequirement--><path d="M690.994,95.888 C511.15,125.196 252.739,190.828 356,318 C396.934,368.413 440.662,319.474 499,348 C543.477,369.748 542.591,392.862 584,420 C610.932,437.65 618.311,442.253 649,452 C702.492,468.99 764.556,479.134 814.405,485.082 " fill="none" id="ExposureCalculation-MarginAmountRequirement" style="stroke: #A80036; stroke-width: 1.0;"/><polygon fill="#A80036" points="819.497,485.68,811.0247,480.6581,814.5311,485.0971,810.0921,488.6035,819.497,485.68" style="stroke: #A80036; stroke-width: 1.0;"/><text fill="#000000" font-family="sans-serif" font-size="13" lengthAdjust="spacingAndGlyphs" textLength="208" x="357" y="310.0669">SegregatedAmountRequirement</text><text fill="#000000" font-family="sans-serif" font-size="13" lengthAdjust="spacingAndGlyphs" textLength="7" x="804.4147" y="497.6904">*</text><!--link ExposureCalculation to CollateralManagement--><path d="M1003.087,98.922 C1042.33,112.497 1080.06,133.999 1104,168 C1166,256.045 1009.63,357.195 946.259,393.312 " fill="none" id="ExposureCalculation-CollateralManagement" style="stroke: #A80036; stroke-width: 1.0;"/><polygon fill="#A80036" points="941.861,395.799,951.6643,394.8533,946.2139,393.3389,947.7283,387.8886,941.861,395.799" style="stroke: #A80036; stroke-width: 1.0;"/><text fill="#000000" font-family="sans-serif" font-size="13" lengthAdjust="spacingAndGlyphs" textLength="145" x="1110" y="259.0669">CollateralManagement</text><text fill="#000000" font-family="sans-serif" font-size="13" lengthAdjust="spacingAndGlyphs" textLength="7" x="939.1978" y="385.0359">*</text><!--link ExposureCalculation to CounterpartyRisk--><path d="M941.373,110.11 C953.966,118.619 965.202,129.112 973,142 C1002.014,189.952 967.11,258.622 948.383,289.232 " fill="none" id="ExposureCalculation-CounterpartyRisk" style="stroke: #A80036; stroke-width: 1.0;"/><polygon fill="#A80036" points="945.529,293.809,953.6866,288.2906,948.1757,289.5669,946.8993,284.0559,945.529,293.809" style="stroke: #A80036; stroke-width: 1.0;"/><text fill="#000000" font-family="sans-serif" font-size="13" lengthAdjust="spacingAndGlyphs" textLength="109" x="985" y="208.0669">CounterpartyRisk</text><text fill="#000000" font-family="sans-serif" font-size="13" lengthAdjust="spacingAndGlyphs" textLength="7" x="938.4495" y="283.0492">*</text><!--link ExposureCalculation to TransactionRisk--><path d="M853.7,110.034 C858.591,134.883 865.005,167.468 868.796,186.726 " fill="none" id="ExposureCalculation-TransactionRisk" style="stroke: #A80036; stroke-width: 1.0;"/><polygon fill="#A80036" points="869.793,191.787,871.9793,182.1839,868.8273,186.8812,864.13,183.7291,869.793,191.787" style="stroke: #A80036; stroke-width: 1.0;"/><text fill="#000000" font-family="sans-serif" font-size="13" lengthAdjust="spacingAndGlyphs" textLength="99" x="864" y="155.0669">TransactionRisk</text><text fill="#000000" font-family="sans-serif" font-size="13" lengthAdjust="spacingAndGlyphs" textLength="7" x="859.4885" y="181.0199">*</text></g></svg>