<?xml version="1.0" encoding="UTF-8" standalone="no"?><svg xmlns="http://www.w3.org/2000/svg" xmlns:xlink="http://www.w3.org/1999/xlink" contentScriptType="application/ecmascript" contentStyleType="text/css" height="688px" preserveAspectRatio="none" style="width:1492px;height:688px;" version="1.1" viewBox="0 0 1492 688" width="1492px" zoomAndPan="magnify"><defs><filter height="300%" id="f2zqkeq6aobgm" width="300%" x="-1" y="-1"><feGaussianBlur result="blurOut" stdDeviation="2.0"/><feColorMatrix in="blurOut" result="blurOut2" type="matrix" values="0 0 0 0 0 0 0 0 0 0 0 0 0 0 0 0 0 0 .4 0"/><feOffset dx="4.0" dy="4.0" in="blurOut2" result="blurOut3"/><feBlend in="SourceGraphic" in2="blurOut3" mode="normal"/></filter></defs><g><!--cluster ##13849--><!--cluster ##13852--><!--class ExposureCalculation--><a target="_top" xlink:actuate="onRequest" xlink:href="../ExposureCalculation.html" xlink:show="new" xlink:title="Description of the calculation of the amounts representing the risk that needs to be covered, together with the calculation of the existing coverage." xlink:type="simple"><rect fill="#FEFECE" filter="url(#f2zqkeq6aobgm)" height="70.3828" id="ExposureCalculation" style="stroke: #A80036; stroke-width: 1.5;" width="347" x="660.75" y="40"/><rect fill="#FEFECE" height="23.9688" style="stroke: #A80036; stroke-width: 1.5;" width="347" x="660.75" y="40"/><text fill="#000000" font-family="sans-serif" font-size="12" lengthAdjust="spacingAndGlyphs" textLength="127" x="770.75" y="56.1387">ExposureCalculation</text><line style="stroke: #A80036; stroke-width: 1.5;" x1="661.75" x2="1006.75" y1="63.9688" y2="63.9688"/><ellipse cx="671.75" cy="75.8711" fill="#84BE84" rx="3" ry="3" style="stroke: #038048; stroke-width: 1.0;"/><text fill="#000000" font-family="sans-serif" font-size="11" lengthAdjust="spacingAndGlyphs" textLength="156" x="680.75" y="78.1792">TotalCollateralCurrentValue</text><text fill="#000000" font-family="sans-serif" font-size="11" font-style="italic" lengthAdjust="spacingAndGlyphs" textLength="161" x="840.75" y="78.1792">(ActiveCurrencyAndAmount)</text><ellipse cx="671.75" cy="88.6758" fill="#84BE84" rx="3" ry="3" style="stroke: #038048; stroke-width: 1.0;"/><text fill="#000000" font-family="sans-serif" font-size="11" lengthAdjust="spacingAndGlyphs" textLength="119" x="680.75" y="90.9839">TotalExposedAmount</text><text fill="#000000" font-family="sans-serif" font-size="11" font-style="italic" lengthAdjust="spacingAndGlyphs" textLength="161" x="803.75" y="90.9839">(ActiveCurrencyAndAmount)</text><ellipse cx="671.75" cy="101.4805" fill="#84BE84" rx="3" ry="3" style="stroke: #038048; stroke-width: 1.0;"/><text fill="#000000" font-family="sans-serif" font-size="11" lengthAdjust="spacingAndGlyphs" textLength="149" x="680.75" y="103.7886">TotalCollateralAfterHaircut</text><text fill="#000000" font-family="sans-serif" font-size="11" font-style="italic" lengthAdjust="spacingAndGlyphs" textLength="161" x="833.75" y="103.7886">(ActiveCurrencyAndAmount)</text></a><!--class IndependentAmount--><a target="_top" xlink:actuate="onRequest" xlink:href="../IndependentAmount.html" xlink:show="new" xlink:title="Amount applied as an add-on to the exposure usually intended to cover a possible increase in exposure before the next valuation date." xlink:type="simple"><rect fill="#EEEEEE" filter="url(#f2zqkeq6aobgm)" height="23.9688" id="IndependentAmount" style="stroke: #A80036; stroke-width: 1.5;" width="134" x="820" y="654"/><rect fill="#EEEEEE" height="23.9688" style="stroke: #A80036; stroke-width: 1.5;" width="134" x="820" y="654"/><text fill="#000000" font-family="sans-serif" font-size="12" lengthAdjust="spacingAndGlyphs" textLength="128" x="823" y="670.1387">IndependentAmount</text></a><!--class CollateralBalance--><a target="_top" xlink:actuate="onRequest" xlink:href="../CollateralBalance.html" xlink:show="new" xlink:title="Specifies the different values taken into account to calculate the current collateral." xlink:type="simple"><rect fill="#EEEEEE" filter="url(#f2zqkeq6aobgm)" height="23.9688" id="CollateralBalance" style="stroke: #A80036; stroke-width: 1.5;" width="115" x="837.75" y="568"/><rect fill="#EEEEEE" height="23.9688" style="stroke: #A80036; stroke-width: 1.5;" width="115" x="837.75" y="568"/><text fill="#000000" font-family="sans-serif" font-size="12" lengthAdjust="spacingAndGlyphs" textLength="109" x="840.75" y="584.1387">CollateralBalance</text></a><!--class MarginAmountRequirement--><a target="_top" xlink:actuate="onRequest" xlink:href="../MarginAmountRequirement.html" xlink:show="new" xlink:title="Amount of expected margin required by any of the parties of the margin calculation." xlink:type="simple"><rect fill="#EEEEEE" filter="url(#f2zqkeq6aobgm)" height="23.9688" id="MarginAmountRequirement" style="stroke: #A80036; stroke-width: 1.5;" width="176" x="819.5" y="482"/><rect fill="#EEEEEE" height="23.9688" style="stroke: #A80036; stroke-width: 1.5;" width="176" x="819.5" y="482"/><text fill="#000000" font-family="sans-serif" font-size="12" lengthAdjust="spacingAndGlyphs" textLength="170" x="822.5" y="498.1387">MarginAmountRequirement</text></a><!--class CollateralManagement--><a target="_top" xlink:actuate="onRequest" xlink:href="../CollateralManagement.html" xlink:show="new" xlink:title="Set of operations relative to the management of collateral, variation margins, default fund participation and independent amount." xlink:type="simple"><rect fill="#EEEEEE" filter="url(#f2zqkeq6aobgm)" height="23.9688" id="CollateralManagement" style="stroke: #A80036; stroke-width: 1.5;" width="147" x="847.75" y="396"/><rect fill="#EEEEEE" height="23.9688" style="stroke: #A80036; stroke-width: 1.5;" width="147" x="847.75" y="396"/><text fill="#000000" font-family="sans-serif" font-size="12" lengthAdjust="spacingAndGlyphs" textLength="141" x="850.75" y="412.1387">CollateralManagement</text></a><!--class CounterpartyRisk--><a target="_top" xlink:actuate="onRequest" xlink:href="../CounterpartyRisk.html" xlink:show="new" xlink:title="Calculation of the exposure amount that one party has vis-a-vis one counterparty or a central system, based on its credit risk." xlink:type="simple"><rect fill="#EEEEEE" filter="url(#f2zqkeq6aobgm)" height="23.9688" id="CounterpartyRisk" style="stroke: #A80036; stroke-width: 1.5;" width="113" x="881.75" y="294"/><rect fill="#EEEEEE" height="23.9688" style="stroke: #A80036; stroke-width: 1.5;" width="113" x="881.75" y="294"/><text fill="#000000" font-family="sans-serif" font-size="12" lengthAdjust="spacingAndGlyphs" textLength="107" x="884.75" y="310.1387">CounterpartyRisk</text></a><!--class TransactionRisk--><a target="_top" xlink:actuate="onRequest" xlink:href="../TransactionRisk.html" xlink:show="new" xlink:title="Calculation of the exposure amount that one party has vis-a-vis one counterparty or a central system, based on the transactions that are not yet settled." xlink:type="simple"><rect fill="#EEEEEE" filter="url(#f2zqkeq6aobgm)" height="23.9688" id="TransactionRisk" style="stroke: #A80036; stroke-width: 1.5;" width="105" x="819.75" y="192"/><rect fill="#EEEEEE" height="23.9688" style="stroke: #A80036; stroke-width: 1.5;" width="105" x="819.75" y="192"/><text fill="#000000" font-family="sans-serif" font-size="12" lengthAdjust="spacingAndGlyphs" textLength="99" x="822.75" y="208.1387">TransactionRisk</text></a><!--link CollateralBalance to IndependentAmount--><!--link MarginAmountRequirement to CollateralBalance--><!--link CollateralManagement to MarginAmountRequirement--><!--link CounterpartyRisk to CollateralManagement--><!--link TransactionRisk to CounterpartyRisk--><!--link ExposureCalculation to IndependentAmount--><path d="M660.676,85.483 C417.913,101.13 6,137.351 6,203 C6,203 6,203 6,581 C6,661.994 603.702,666.5516 814.485,665.6406 " fill="none" id="ExposureCalculation-IndependentAmount" style="stroke: #A80036; stroke-width: 1.0;"/><polygon fill="#A80036" points="819.696,665.6167,810.6778,661.6579,814.6961,665.6396,810.7144,669.6578,819.696,665.6167" style="stroke: #A80036; stroke-width: 1.0;"/><text fill="#000000" font-family="sans-serif" font-size="13" lengthAdjust="spacingAndGlyphs" textLength="179" x="7" y="412.0669">CurrentIndependentAmount</text><text fill="#000000" font-family="sans-serif" font-size="13" lengthAdjust="spacingAndGlyphs" textLength="7" x="805.0766" y="660.8722">*</text><!--link ExposureCalculation to CollateralBalance--><path d="M1007.48,87.724 C1150.85,102.345 1331,134.37 1331,203 C1331,203 1331,203 1331,495 C1331,570.103 1078.41,579.542 957.741,579.767 " fill="none" id="ExposureCalculation-CollateralBalance" style="stroke: #A80036; stroke-width: 1.0;"/><polygon fill="#A80036" points="952.448,579.771,961.448,583.771,957.448,579.771,961.448,575.771,952.448,579.771" style="stroke: #A80036; stroke-width: 1.0;"/><text fill="#000000" font-family="sans-serif" font-size="13" lengthAdjust="spacingAndGlyphs" textLength="148" x="1332" y="361.0669">CurrentVariationMargin</text><text fill="#000000" font-family="sans-serif" font-size="13" lengthAdjust="spacingAndGlyphs" textLength="8" x="960.6715" y="574.676">1</text><!--link ExposureCalculation to CollateralBalance--><path d="M660.487,79.906 C485.482,88.699 241,116.468 241,203 C241,203 241,203 241,495 C241,554.241 668.61,572.6 832.297,577.457 " fill="none" id="ExposureCalculation-CollateralBalance" style="stroke: #A80036; stroke-width: 1.0;"/><polygon fill="#A80036" points="837.535,577.61,828.6554,573.3494,832.5371,577.4643,828.4222,581.346,837.535,577.61" style="stroke: #A80036; stroke-width: 1.0;"/><text fill="#000000" font-family="sans-serif" font-size="13" lengthAdjust="spacingAndGlyphs" textLength="254" x="242" y="361.0669">CurrentSegregatedIndependentAmount</text><text fill="#000000" font-family="sans-serif" font-size="13" lengthAdjust="spacingAndGlyphs" textLength="8" x="821.6755" y="572.4948">1</text><!--link ExposureCalculation to MarginAmountRequirement--><path d="M686.149,110.06 C644.351,128.992 610,158.184 610,203 C610,203 610,203 610,409 C610,452.082 727.174,474.183 814.325,484.664 " fill="none" id="ExposureCalculation-MarginAmountRequirement" style="stroke: #A80036; stroke-width: 1.0;"/><polygon fill="#A80036" points="819.497,485.276,811.0304,480.2445,814.5318,484.6875,810.0887,488.1889,819.497,485.276" style="stroke: #A80036; stroke-width: 1.0;"/><text fill="#000000" font-family="sans-serif" font-size="13" lengthAdjust="spacingAndGlyphs" textLength="233" x="611" y="310.0669">VariationMarginAmountRequirement</text><text fill="#000000" font-family="sans-serif" font-size="13" lengthAdjust="spacingAndGlyphs" textLength="7" x="804.4147" y="480.0305">*</text><!--link ExposureCalculation to MarginAmountRequirement--><path d="M660.644,100.542 C487.169,132.364 258.964,198.494 356,318 C396.934,368.413 440.662,319.474 499,348 C543.477,369.748 542.591,392.862 584,420 C610.932,437.65 618.311,442.253 649,452 C702.492,468.99 764.556,479.134 814.405,485.082 " fill="none" id="ExposureCalculation-MarginAmountRequirement" style="stroke: #A80036; stroke-width: 1.0;"/><polygon fill="#A80036" points="819.497,485.68,811.0247,480.6581,814.5311,485.0971,810.0921,488.6035,819.497,485.68" style="stroke: #A80036; stroke-width: 1.0;"/><text fill="#000000" font-family="sans-serif" font-size="13" lengthAdjust="spacingAndGlyphs" textLength="208" x="357" y="310.0669">SegregatedAmountRequirement</text><text fill="#000000" font-family="sans-serif" font-size="13" lengthAdjust="spacingAndGlyphs" textLength="7" x="804.4147" y="497.6904">*</text><!--link ExposureCalculation to CollateralManagement--><path d="M1007.57,102.425 C1043.35,116.151 1076.84,136.848 1099,168 C1160.82,254.899 1007.68,356.81 945.671,393.217 " fill="none" id="ExposureCalculation-CollateralManagement" style="stroke: #A80036; stroke-width: 1.0;"/><polygon fill="#A80036" points="941.015,395.928,950.8054,394.8569,945.3361,393.4125,946.7806,387.9431,941.015,395.928" style="stroke: #A80036; stroke-width: 1.0;"/><text fill="#000000" font-family="sans-serif" font-size="13" lengthAdjust="spacingAndGlyphs" textLength="145" x="1106" y="259.0669">CollateralManagement</text><text fill="#000000" font-family="sans-serif" font-size="13" lengthAdjust="spacingAndGlyphs" textLength="7" x="938.2623" y="384.9515">*</text><!--link ExposureCalculation to CounterpartyRisk--><path d="M935.569,110.02 C948.443,118.5 959.917,129.009 968,142 C997.434,189.309 965.175,258.309 947.713,289.118 " fill="none" id="ExposureCalculation-CounterpartyRisk" style="stroke: #A80036; stroke-width: 1.0;"/><polygon fill="#A80036" points="945.049,293.725,953.016,287.9348,947.5512,289.3961,946.0899,283.9313,945.049,293.725" style="stroke: #A80036; stroke-width: 1.0;"/><text fill="#000000" font-family="sans-serif" font-size="13" lengthAdjust="spacingAndGlyphs" textLength="109" x="980" y="208.0669">CounterpartyRisk</text><text fill="#000000" font-family="sans-serif" font-size="13" lengthAdjust="spacingAndGlyphs" textLength="7" x="937.8105" y="282.9373">*</text><!--link ExposureCalculation to TransactionRisk--><path d="M844.183,110.034 C851.619,134.883 861.368,167.468 867.131,186.726 " fill="none" id="ExposureCalculation-TransactionRisk" style="stroke: #A80036; stroke-width: 1.0;"/><polygon fill="#A80036" points="868.645,191.787,869.8953,182.0178,867.2108,186.9971,862.2314,184.3126,868.645,191.787" style="stroke: #A80036; stroke-width: 1.0;"/><text fill="#000000" font-family="sans-serif" font-size="13" lengthAdjust="spacingAndGlyphs" textLength="99" x="859" y="155.0669">TransactionRisk</text><text fill="#000000" font-family="sans-serif" font-size="13" lengthAdjust="spacingAndGlyphs" textLength="7" x="857.9602" y="181.0199">*</text></g></svg>