<?xml version="1.0" encoding="UTF-8" standalone="no"?><svg xmlns="http://www.w3.org/2000/svg" xmlns:xlink="http://www.w3.org/1999/xlink" contentScriptType="application/ecmascript" contentStyleType="text/css" height="414px" preserveAspectRatio="none" style="width:654px;height:414px;" version="1.1" viewBox="0 0 654 414" width="654px" zoomAndPan="magnify"><defs><filter height="300%" id="fr1s5ulabusan" width="300%" x="-1" y="-1"><feGaussianBlur result="blurOut" stdDeviation="2.0"/><feColorMatrix in="blurOut" result="blurOut2" type="matrix" values="0 0 0 0 0 0 0 0 0 0 0 0 0 0 0 0 0 0 .4 0"/><feOffset dx="4.0" dy="4.0" in="blurOut2" result="blurOut3"/><feBlend in="SourceGraphic" in2="blurOut3" mode="normal"/></filter></defs><g><!--cluster ##15137--><!--cluster ##15140--><!--class FinancialInstrumentSwap--><a target="_top" xlink:actuate="onRequest" xlink:href="../FinancialInstrumentSwap.html" xlink:show="new" xlink:title="Characteristics and conditions by which a borrower can exchange one type of financial instrument for another." xlink:type="simple"><rect fill="#FEFECE" filter="url(#fr1s5ulabusan)" height="70.3828" id="FinancialInstrumentSwap" style="stroke: #A80036; stroke-width: 1.5;" width="339" x="47.1118" y="40"/><rect fill="#FEFECE" height="23.9688" style="stroke: #A80036; stroke-width: 1.5;" width="339" x="47.1118" y="40"/><text fill="#000000" font-family="sans-serif" font-size="12" lengthAdjust="spacingAndGlyphs" textLength="156" x="138.6118" y="56.1387">FinancialInstrumentSwap</text><line style="stroke: #A80036; stroke-width: 1.5;" x1="48.1118" x2="385.1118" y1="63.9688" y2="63.9688"/><ellipse cx="58.1118" cy="75.8711" fill="#84BE84" rx="3" ry="3" style="stroke: #038048; stroke-width: 1.0;"/><text fill="#000000" font-family="sans-serif" font-size="11" lengthAdjust="spacingAndGlyphs" textLength="152" x="67.1118" y="78.1792">ForwardSellBackFrequency</text><text fill="#000000" font-family="sans-serif" font-size="11" font-style="italic" lengthAdjust="spacingAndGlyphs" textLength="96" x="223.1118" y="78.1792">(FrequencyCode)</text><ellipse cx="58.1118" cy="88.6758" fill="#84BE84" rx="3" ry="3" style="stroke: #038048; stroke-width: 1.0;"/><text fill="#000000" font-family="sans-serif" font-size="11" lengthAdjust="spacingAndGlyphs" textLength="152" x="67.1118" y="90.9839">ForwardBuyBackFrequency</text><text fill="#000000" font-family="sans-serif" font-size="11" font-style="italic" lengthAdjust="spacingAndGlyphs" textLength="96" x="223.1118" y="90.9839">(FrequencyCode)</text><ellipse cx="58.1118" cy="101.4805" fill="#84BE84" rx="3" ry="3" style="stroke: #038048; stroke-width: 1.0;"/><text fill="#000000" font-family="sans-serif" font-size="11" lengthAdjust="spacingAndGlyphs" textLength="116" x="67.1118" y="103.7886">InterestComputation</text><text fill="#000000" font-family="sans-serif" font-size="11" font-style="italic" lengthAdjust="spacingAndGlyphs" textLength="193" x="187.1118" y="103.7886">(InterestComputationMethodCode)</text></a><!--class DateTimePeriod--><a target="_top" xlink:actuate="onRequest" xlink:href="../DateTimePeriod.html" xlink:show="new" xlink:title="Time span defined by a start date and time, and an end date and time." xlink:type="simple"><rect fill="#EEEEEE" filter="url(#fr1s5ulabusan)" height="23.9688" id="DateTimePeriod" style="stroke: #A80036; stroke-width: 1.5;" width="105" x="522.112" y="380"/><rect fill="#EEEEEE" height="23.9688" style="stroke: #A80036; stroke-width: 1.5;" width="105" x="522.112" y="380"/><text fill="#000000" font-family="sans-serif" font-size="12" lengthAdjust="spacingAndGlyphs" textLength="99" x="525.112" y="396.1387">DateTimePeriod</text></a><!--class SecuritiesSwapLeg--><a target="_top" xlink:actuate="onRequest" xlink:href="../SecuritiesSwapLeg.html" xlink:show="new" xlink:title="Contains the details of one of the legs of a swap, both in time (spot versus [partial] forward details) and the side (sell versus buy)." xlink:type="simple"><rect fill="#EEEEEE" filter="url(#fr1s5ulabusan)" height="23.9688" id="SecuritiesSwapLeg" style="stroke: #A80036; stroke-width: 1.5;" width="123" x="520.112" y="294"/><rect fill="#EEEEEE" height="23.9688" style="stroke: #A80036; stroke-width: 1.5;" width="123" x="520.112" y="294"/><text fill="#000000" font-family="sans-serif" font-size="12" lengthAdjust="spacingAndGlyphs" textLength="117" x="523.112" y="310.1387">SecuritiesSwapLeg</text></a><!--class Quote--><a target="_top" xlink:actuate="onRequest" xlink:href="../Quote.html" xlink:show="new" xlink:title="Indicates whether the quote details are indicated as an offer, a bid or a mid of a security, commodity, currency (the latter being an average of the offer and the bid)." xlink:type="simple"><rect fill="#EEEEEE" filter="url(#fr1s5ulabusan)" height="23.9688" id="Quote" style="stroke: #A80036; stroke-width: 1.5;" width="44" x="599.862" y="192"/><rect fill="#EEEEEE" height="23.9688" style="stroke: #A80036; stroke-width: 1.5;" width="44" x="599.862" y="192"/><text fill="#000000" font-family="sans-serif" font-size="12" lengthAdjust="spacingAndGlyphs" textLength="38" x="602.862" y="208.1387">Quote</text></a><!--link SecuritiesSwapLeg to DateTimePeriod--><!--link Quote to SecuritiesSwapLeg--><!--link FinancialInstrumentSwap to DateTimePeriod--><path d="M101.4196,110.201 C83.7507,118.734 66.6592,129.212 52.3618,142 C10.8209,179.156 -11.3407,220.389 23.3618,264 C84.6305,340.997 387.831,375.283 516.483,386.5343 " fill="none" id="FinancialInstrumentSwap-DateTimePeriod" style="stroke: #A80036; stroke-width: 1.0;"/><polygon fill="#A80036" points="521.731,386.989,513.1097,382.2273,516.7496,386.5576,512.4194,390.1975,521.731,386.989" style="stroke: #A80036; stroke-width: 1.0;"/><text fill="#000000" font-family="sans-serif" font-size="13" lengthAdjust="spacingAndGlyphs" textLength="52" x="24.3618" y="259.0669">Maturity</text><text fill="#000000" font-family="sans-serif" font-size="13" lengthAdjust="spacingAndGlyphs" textLength="8" x="506.0385" y="381.5032">1</text><!--link FinancialInstrumentSwap to SecuritiesSwapLeg--><path d="M118.236,110.025 C92.6318,123.876 68.1079,142.744 53.3618,168 C42.6051,186.423 43.2358,197.223 53.3618,216 C96.5987,296.176 383.077,305.755 515.031,305.839 " fill="none" id="FinancialInstrumentSwap-SecuritiesSwapLeg" style="stroke: #A80036; stroke-width: 1.0;"/><polygon fill="#A80036" points="520.044,305.838,511.044,301.838,515.044,305.838,511.044,309.838,520.044,305.838" style="stroke: #A80036; stroke-width: 1.0;"/><text fill="#000000" font-family="sans-serif" font-size="13" lengthAdjust="spacingAndGlyphs" textLength="53" x="54.3618" y="208.0669">SpotSell</text><text fill="#000000" font-family="sans-serif" font-size="13" lengthAdjust="spacingAndGlyphs" textLength="8" x="504.1792" y="318.6701">1</text><!--link FinancialInstrumentSwap to SecuritiesSwapLeg--><path d="M193.81,110.21 C177.476,139.646 161.179,182.533 179.362,216 C198.076,250.446 216.535,250.562 253.362,264 C339.924,295.587 446.935,303.68 514.689,305.324 " fill="none" id="FinancialInstrumentSwap-SecuritiesSwapLeg" style="stroke: #A80036; stroke-width: 1.0;"/><polygon fill="#A80036" points="519.904,305.439,510.9954,301.2394,514.9052,305.3276,510.8171,309.2374,519.904,305.439" style="stroke: #A80036; stroke-width: 1.0;"/><text fill="#000000" font-family="sans-serif" font-size="13" lengthAdjust="spacingAndGlyphs" textLength="54" x="180.362" y="208.0669">SpotBuy</text><text fill="#000000" font-family="sans-serif" font-size="13" lengthAdjust="spacingAndGlyphs" textLength="8" x="504.0247" y="300.5799">1</text><!--link FinancialInstrumentSwap to SecuritiesSwapLeg--><path d="M230.685,110.073 C245.461,141.493 271.287,187.459 306.362,216 C366.747,265.136 454.937,287.403 515.056,297.322 " fill="none" id="FinancialInstrumentSwap-SecuritiesSwapLeg" style="stroke: #A80036; stroke-width: 1.0;"/><polygon fill="#A80036" points="520.058,298.13,511.8109,292.7462,515.122,297.3328,510.5354,300.6439,520.058,298.13" style="stroke: #A80036; stroke-width: 1.0;"/><text fill="#000000" font-family="sans-serif" font-size="13" lengthAdjust="spacingAndGlyphs" textLength="105" x="307.362" y="208.0669">ForwardBuyBack</text><text fill="#000000" font-family="sans-serif" font-size="13" lengthAdjust="spacingAndGlyphs" textLength="8" x="503.8709" y="289.6159">1</text><!--link FinancialInstrumentSwap to SecuritiesSwapLeg--><path d="M304.813,110.076 C341.156,125.641 382.937,145.611 418.362,168 C446.358,185.694 450.013,194.685 475.362,216 C506.57,242.242 542.978,272.798 563.981,290.42 " fill="none" id="FinancialInstrumentSwap-SecuritiesSwapLeg" style="stroke: #A80036; stroke-width: 1.0;"/><polygon fill="#A80036" points="567.97,293.767,563.6439,284.9191,564.1387,290.5543,558.5036,291.0491,567.97,293.767" style="stroke: #A80036; stroke-width: 1.0;"/><text fill="#000000" font-family="sans-serif" font-size="13" lengthAdjust="spacingAndGlyphs" textLength="104" x="476.362" y="208.0669">ForwardSellBack</text><text fill="#000000" font-family="sans-serif" font-size="13" lengthAdjust="spacingAndGlyphs" textLength="8" x="552.7948" y="282.9933">1</text><!--link FinancialInstrumentSwap to Quote--><path d="M385.617,105.248 C446.388,119.463 514.225,139.756 572.362,168 C583.675,173.496 595.177,181.557 604.192,188.558 " fill="none" id="FinancialInstrumentSwap-Quote" style="stroke: #A80036; stroke-width: 1.0;"/><polygon fill="#A80036" points="608.406,191.893,603.8337,183.1698,604.4862,188.7889,598.8671,189.4414,608.406,191.893" style="stroke: #A80036; stroke-width: 1.0;"/><text fill="#000000" font-family="sans-serif" font-size="13" lengthAdjust="spacingAndGlyphs" textLength="87" x="555.362" y="155.0669">RelatedQuote</text><text fill="#000000" font-family="sans-serif" font-size="13" lengthAdjust="spacingAndGlyphs" textLength="24" x="574.3118" y="180.9044">0..1</text></g></svg>