<?xml version="1.0" encoding="UTF-8" standalone="no"?><svg xmlns="http://www.w3.org/2000/svg" xmlns:xlink="http://www.w3.org/1999/xlink" contentScriptType="application/ecmascript" contentStyleType="text/css" height="642px" preserveAspectRatio="none" style="width:960px;height:642px;" version="1.1" viewBox="0 0 960 642" width="960px" zoomAndPan="magnify"><defs><filter height="300%" id="flhfz2u7zuv1b" width="300%" x="-1" y="-1"><feGaussianBlur result="blurOut" stdDeviation="2.0"/><feColorMatrix in="blurOut" result="blurOut2" type="matrix" values="0 0 0 0 0 0 0 0 0 0 0 0 0 0 0 0 0 0 .4 0"/><feOffset dx="4.0" dy="4.0" in="blurOut2" result="blurOut3"/><feBlend in="SourceGraphic" in2="blurOut3" mode="normal"/></filter></defs><g><!--cluster ##15740--><!--cluster ##15743--><!--class FinancialTransaction--><a target="_top" xlink:actuate="onRequest" xlink:href="../FinancialTransaction.html" xlink:show="new" xlink:title="Process which includes the order, the execution, the settlement of trades in the financial domain." xlink:type="simple"><rect fill="#FEFECE" filter="url(#flhfz2u7zuv1b)" height="23.9688" id="FinancialTransaction" style="stroke: #A80036; stroke-width: 1.5;" width="135" x="279.75" y="40"/><rect fill="#FEFECE" height="23.9688" style="stroke: #A80036; stroke-width: 1.5;" width="135" x="279.75" y="40"/><text fill="#000000" font-family="sans-serif" font-size="12" lengthAdjust="spacingAndGlyphs" textLength="129" x="282.75" y="56.1387">FinancialTransaction</text></a><!--class CorporateActionDistribution--><a target="_top" xlink:actuate="onRequest" xlink:href="../CorporateActionDistribution.html" xlink:show="new" xlink:title="Distribution of the proceeds of a CA event." xlink:type="simple"><rect fill="#EEEEEE" filter="url(#flhfz2u7zuv1b)" height="23.9688" id="CorporateActionDistribution" style="stroke: #A80036; stroke-width: 1.5;" width="180" x="284" y="608"/><rect fill="#EEEEEE" height="23.9688" style="stroke: #A80036; stroke-width: 1.5;" width="180" x="284" y="608"/><text fill="#000000" font-family="sans-serif" font-size="12" lengthAdjust="spacingAndGlyphs" textLength="174" x="287" y="624.1387">CorporateActionDistribution</text></a><!--class InterestManagement--><a target="_top" xlink:actuate="onRequest" xlink:href="../InterestManagement.html" xlink:show="new" xlink:title="Management of interest which consists into calculating the interest, requesting its payment or distributing the interest proceeds." xlink:type="simple"><rect fill="#EEEEEE" filter="url(#flhfz2u7zuv1b)" height="23.9688" id="InterestManagement" style="stroke: #A80036; stroke-width: 1.5;" width="137" x="310.75" y="522"/><rect fill="#EEEEEE" height="23.9688" style="stroke: #A80036; stroke-width: 1.5;" width="137" x="310.75" y="522"/><text fill="#000000" font-family="sans-serif" font-size="12" lengthAdjust="spacingAndGlyphs" textLength="131" x="313.75" y="538.1387">InterestManagement</text></a><!--class Trade--><a target="_top" xlink:actuate="onRequest" xlink:href="../Trade.html" xlink:show="new" xlink:title="Result of an order between at least two parties. A trade relates to the delivery of goods and services, cash or securities." xlink:type="simple"><rect fill="#EEEEEE" filter="url(#flhfz2u7zuv1b)" height="23.9688" id="Trade" style="stroke: #A80036; stroke-width: 1.5;" width="42" x="358.5" y="436"/><rect fill="#EEEEEE" height="23.9688" style="stroke: #A80036; stroke-width: 1.5;" width="42" x="358.5" y="436"/><text fill="#000000" font-family="sans-serif" font-size="12" lengthAdjust="spacingAndGlyphs" textLength="36" x="361.5" y="452.1387">Trade</text></a><!--class CollateralMovement--><a target="_top" xlink:actuate="onRequest" xlink:href="../CollateralMovement.html" xlink:show="new" xlink:title="Provides the agreed amount and the collateral movement direction." xlink:type="simple"><rect fill="#EEEEEE" filter="url(#flhfz2u7zuv1b)" height="23.9688" id="CollateralMovement" style="stroke: #A80036; stroke-width: 1.5;" width="129" x="322.75" y="350"/><rect fill="#EEEEEE" height="23.9688" style="stroke: #A80036; stroke-width: 1.5;" width="129" x="322.75" y="350"/><text fill="#000000" font-family="sans-serif" font-size="12" lengthAdjust="spacingAndGlyphs" textLength="123" x="325.75" y="366.1387">CollateralMovement</text></a><!--class BankingTransaction--><a target="_top" xlink:actuate="onRequest" xlink:href="../BankingTransaction.html" xlink:show="new" xlink:title="Transaction executed by the client of a financial institution from/to the account serviced by the financial institution, such as mortgage payment." xlink:type="simple"><rect fill="#EEEEEE" filter="url(#flhfz2u7zuv1b)" height="23.9688" id="BankingTransaction" style="stroke: #A80036; stroke-width: 1.5;" width="130" x="322" y="248"/><rect fill="#EEEEEE" height="23.9688" style="stroke: #A80036; stroke-width: 1.5;" width="130" x="322" y="248"/><text fill="#000000" font-family="sans-serif" font-size="12" lengthAdjust="spacingAndGlyphs" textLength="124" x="325" y="264.1387">BankingTransaction</text></a><!--class RegulatoryReport--><a target="_top" xlink:actuate="onRequest" xlink:href="../RegulatoryReport.html" xlink:show="new" xlink:title="Information needed due to regulatory and statutory requirements." xlink:type="simple"><rect fill="#EEEEEE" filter="url(#flhfz2u7zuv1b)" height="23.9688" id="RegulatoryReport" style="stroke: #A80036; stroke-width: 1.5;" width="115" x="292.75" y="146"/><rect fill="#EEEEEE" height="23.9688" style="stroke: #A80036; stroke-width: 1.5;" width="115" x="292.75" y="146"/><text fill="#000000" font-family="sans-serif" font-size="12" lengthAdjust="spacingAndGlyphs" textLength="109" x="295.75" y="162.1387">RegulatoryReport</text></a><!--link InterestManagement to CorporateActionDistribution--><!--link Trade to InterestManagement--><!--link CollateralMovement to Trade--><!--link BankingTransaction to CollateralMovement--><!--link RegulatoryReport to BankingTransaction--><!--link FinancialTransaction to CorporateActionDistribution--><path d="M279.629,59.732 C180.252,71.558 6,100.367 6,157 C6,157 6,157 6,535 C6,590.9609 169.79,609.6406 278.827,615.8759 " fill="none" id="FinancialTransaction-CorporateActionDistribution" style="stroke: #A80036; stroke-width: 1.0;"/><polygon fill="#A80036" points="283.977,616.1635,275.2138,611.6683,278.9848,615.8849,274.7681,619.6559,283.977,616.1635" style="stroke: #A80036; stroke-width: 1.0;"/><text fill="#000000" font-family="sans-serif" font-size="13" lengthAdjust="spacingAndGlyphs" textLength="177" x="7" y="366.0669">CorporateActionDistribution</text><text fill="#000000" font-family="sans-serif" font-size="13" lengthAdjust="spacingAndGlyphs" textLength="8" x="267.9987" y="611.3305">1</text><!--link FinancialTransaction to InterestManagement--><path d="M414.263,54.15 C543.312,58.188 813,76.283 813,157 C813,157 813,157 813,449 C813,521.574 576.123,532.762 452.37,533.655 " fill="none" id="FinancialTransaction-InterestManagement" style="stroke: #A80036; stroke-width: 1.0;"/><polygon fill="#A80036" points="447.29,533.687,456.315,537.6304,452.2899,533.6556,456.2647,529.6305,447.29,533.687" style="stroke: #A80036; stroke-width: 1.0;"/><text fill="#000000" font-family="sans-serif" font-size="13" lengthAdjust="spacingAndGlyphs" textLength="134" x="814" y="315.0669">InterestManagement</text><text fill="#000000" font-family="sans-serif" font-size="13" lengthAdjust="spacingAndGlyphs" textLength="8" x="455.6196" y="528.7444">1</text><!--link FinancialTransaction to Trade--><path d="M321.131,64.1 C289.18,79.757 239,111.577 239,157 C239,157 239,157 239,363 C239,415.626 312.638,436.101 353.103,443.379 " fill="none" id="FinancialTransaction-Trade" style="stroke: #A80036; stroke-width: 1.0;"/><polygon fill="#A80036" points="358.343,444.282,350.1522,438.8129,353.4155,443.4336,348.7948,446.6969,358.343,444.282" style="stroke: #A80036; stroke-width: 1.0;"/><text fill="#000000" font-family="sans-serif" font-size="13" lengthAdjust="spacingAndGlyphs" textLength="36" x="240" y="264.0669">Trade</text><text fill="#000000" font-family="sans-serif" font-size="13" lengthAdjust="spacingAndGlyphs" textLength="8" x="342.6403" y="437.2391">1</text><!--link FinancialTransaction to CollateralMovement--><path d="M414.514,61.951 C482.114,72.461 579.282,92.318 602,122 C671.871,213.289 490.119,312.4 416.422,347.647 " fill="none" id="FinancialTransaction-CollateralMovement" style="stroke: #A80036; stroke-width: 1.0;"/><polygon fill="#A80036" points="411.728,349.875,421.5738,349.629,416.2449,347.7308,418.1431,342.402,411.728,349.875" style="stroke: #A80036; stroke-width: 1.0;"/><text fill="#000000" font-family="sans-serif" font-size="13" lengthAdjust="spacingAndGlyphs" textLength="128" x="609" y="213.0669">CollateralMovement</text><text fill="#000000" font-family="sans-serif" font-size="13" lengthAdjust="spacingAndGlyphs" textLength="8" x="409.4236" y="338.8802">1</text><!--link FinancialTransaction to BankingTransaction--><path d="M410.351,64.076 C428.061,70.407 445.356,80.359 456,96 C489.753,145.6 431.892,214.349 402.522,244.192 " fill="none" id="FinancialTransaction-BankingTransaction" style="stroke: #A80036; stroke-width: 1.0;"/><polygon fill="#A80036" points="398.75,247.971,407.9395,244.428,402.2827,244.4326,402.2781,238.7758,398.75,247.971" style="stroke: #A80036; stroke-width: 1.0;"/><text fill="#000000" font-family="sans-serif" font-size="13" lengthAdjust="spacingAndGlyphs" textLength="125" x="467" y="162.0669">BankingTransaction</text><text fill="#000000" font-family="sans-serif" font-size="13" lengthAdjust="spacingAndGlyphs" textLength="8" x="392.0703" y="237.0092">1</text><!--link FinancialTransaction to RegulatoryReport--><path d="M343.795,64.238 C340.711,76.474 336.812,96.62 339,114 C340.126,122.945 342.52,132.695 344.789,140.647 " fill="none" id="FinancialTransaction-RegulatoryReport" style="stroke: #A80036; stroke-width: 1.0;"/><polygon fill="#A80036" points="346.322,145.832,347.6067,136.0673,344.9047,141.0371,339.9349,138.335,346.322,145.832" style="stroke: #A80036; stroke-width: 1.0;"/><text fill="#000000" font-family="sans-serif" font-size="13" lengthAdjust="spacingAndGlyphs" textLength="110" x="340" y="109.0669">RegulatoryReport</text><text fill="#000000" font-family="sans-serif" font-size="13" lengthAdjust="spacingAndGlyphs" textLength="7" x="335.4249" y="134.8225">*</text></g></svg>