<?xml version="1.0" encoding="UTF-8" standalone="no"?><svg xmlns="http://www.w3.org/2000/svg" xmlns:xlink="http://www.w3.org/1999/xlink" contentScriptType="application/ecmascript" contentStyleType="text/css" height="1060px" preserveAspectRatio="none" style="width:2381px;height:1060px;" version="1.1" viewBox="0 0 2381 1060" width="2381px" zoomAndPan="magnify"><defs><filter height="300%" id="f1wxyvtli59ov" width="300%" x="-1" y="-1"><feGaussianBlur result="blurOut" stdDeviation="2.0"/><feColorMatrix in="blurOut" result="blurOut2" type="matrix" values="0 0 0 0 0 0 0 0 0 0 0 0 0 0 0 0 0 0 .4 0"/><feOffset dx="4.0" dy="4.0" in="blurOut2" result="blurOut3"/><feBlend in="SourceGraphic" in2="blurOut3" mode="normal"/></filter></defs><g><!--cluster ##20--><!--cluster ##32--><!--cluster ##37--><!--cluster ##50--><!--class RolePlayer--><a target="_top" xlink:actuate="onRequest" xlink:href="../RolePlayer.html" xlink:show="new" xlink:title="Type of entity that plays a specific role in a specific context." xlink:type="simple"><rect fill="#FEFEEE" filter="url(#f1wxyvtli59ov)" height="23.9688" id="RolePlayer" style="stroke: #A80036; stroke-width: 1.5;" width="71" x="1654.75" y="40"/><rect fill="#FEFEEE" height="23.9688" style="stroke: #A80036; stroke-width: 1.5;" width="71" x="1654.75" y="40"/><text fill="#000000" font-family="sans-serif" font-size="12" lengthAdjust="spacingAndGlyphs" textLength="65" x="1657.75" y="56.1387">RolePlayer</text></a><!--class Party--><a target="_top" xlink:actuate="onRequest" xlink:href="../Party.html" xlink:show="new" xlink:title="Entity involved in an activity." xlink:type="simple"><rect fill="#FEFEEE" filter="url(#f1wxyvtli59ov)" height="57.5781" id="Party" style="stroke: #A80036; stroke-width: 1.5;" width="334" x="1340.5" y="142"/><rect fill="#FEFEEE" height="23.9688" style="stroke: #A80036; stroke-width: 1.5;" width="334" x="1340.5" y="142"/><text fill="#000000" font-family="sans-serif" font-size="12" lengthAdjust="spacingAndGlyphs" textLength="32" x="1491.5" y="158.1387">Party</text><line style="stroke: #A80036; stroke-width: 1.5;" x1="1341.5" x2="1673.5" y1="165.9688" y2="165.9688"/><ellipse cx="1351.5" cy="177.8711" fill="#84BE84" rx="3" ry="3" style="stroke: #038048; stroke-width: 1.0;"/><text fill="#000000" font-family="sans-serif" font-size="11" lengthAdjust="spacingAndGlyphs" textLength="133" x="1360.5" y="180.1792">MoneyLaunderingCheck</text><text fill="#000000" font-family="sans-serif" font-size="11" font-style="italic" lengthAdjust="spacingAndGlyphs" textLength="171" x="1497.5" y="180.1792">(MoneyLaunderingCheckCode)</text><ellipse cx="1351.5" cy="190.6758" fill="#84BE84" rx="3" ry="3" style="stroke: #038048; stroke-width: 1.0;"/><text fill="#000000" font-family="sans-serif" font-size="11" lengthAdjust="spacingAndGlyphs" textLength="73" x="1360.5" y="192.9839">CreditQuality</text><text fill="#000000" font-family="sans-serif" font-size="11" font-style="italic" lengthAdjust="spacingAndGlyphs" textLength="111" x="1437.5" y="192.9839">(CreditQualityCode)</text></a><!--class Organisation--><a target="_top" xlink:actuate="onRequest" xlink:href="../Organisation.html" xlink:show="new" xlink:title="Organised structure that is set up for a particular purpose. For example, a business, government body, department, charity, or financial institution." xlink:type="simple"><rect fill="#FEFEEE" filter="url(#f1wxyvtli59ov)" height="95.9922" id="Organisation" style="stroke: #A80036; stroke-width: 1.5;" width="232" x="1340.5" y="278"/><rect fill="#FEFEEE" height="23.9688" style="stroke: #A80036; stroke-width: 1.5;" width="232" x="1340.5" y="278"/><text fill="#000000" font-family="sans-serif" font-size="12" lengthAdjust="spacingAndGlyphs" textLength="80" x="1416.5" y="294.1387">Organisation</text><line style="stroke: #A80036; stroke-width: 1.5;" x1="1341.5" x2="1571.5" y1="301.9688" y2="301.9688"/><ellipse cx="1351.5" cy="313.8711" fill="#84BE84" rx="3" ry="3" style="stroke: #038048; stroke-width: 1.0;"/><text fill="#000000" font-family="sans-serif" font-size="11" lengthAdjust="spacingAndGlyphs" textLength="47" x="1360.5" y="316.1792">Purpose</text><text fill="#000000" font-family="sans-serif" font-size="11" font-style="italic" lengthAdjust="spacingAndGlyphs" textLength="70" x="1411.5" y="316.1792">(Max35Text)</text><ellipse cx="1351.5" cy="326.6758" fill="#84BE84" rx="3" ry="3" style="stroke: #038048; stroke-width: 1.0;"/><text fill="#000000" font-family="sans-serif" font-size="11" lengthAdjust="spacingAndGlyphs" textLength="94" x="1360.5" y="328.9839">RegistrationDate</text><text fill="#000000" font-family="sans-serif" font-size="11" font-style="italic" lengthAdjust="spacingAndGlyphs" textLength="81" x="1458.5" y="328.9839">(ISODateTime)</text><ellipse cx="1351.5" cy="339.4805" fill="#84BE84" rx="3" ry="3" style="stroke: #038048; stroke-width: 1.0;"/><text fill="#000000" font-family="sans-serif" font-size="11" lengthAdjust="spacingAndGlyphs" textLength="64" x="1360.5" y="341.7886">Description</text><text fill="#000000" font-family="sans-serif" font-size="11" font-style="italic" lengthAdjust="spacingAndGlyphs" textLength="77" x="1428.5" y="341.7886">(Max350Text)</text><ellipse cx="1351.5" cy="352.2852" fill="#84BE84" rx="3" ry="3" style="stroke: #038048; stroke-width: 1.0;"/><text fill="#000000" font-family="sans-serif" font-size="11" lengthAdjust="spacingAndGlyphs" textLength="83" x="1360.5" y="354.5933">LegalStructure</text><text fill="#000000" font-family="sans-serif" font-size="11" font-style="italic" lengthAdjust="spacingAndGlyphs" textLength="119" x="1447.5" y="354.5933">(LegalStructureCode)</text><ellipse cx="1351.5" cy="365.0898" fill="#84BE84" rx="3" ry="3" style="stroke: #038048; stroke-width: 1.0;"/><text fill="#000000" font-family="sans-serif" font-size="11" lengthAdjust="spacingAndGlyphs" textLength="107" x="1360.5" y="367.3979">EstablishmentDate</text><text fill="#000000" font-family="sans-serif" font-size="11" font-style="italic" lengthAdjust="spacingAndGlyphs" textLength="53" x="1471.5" y="367.3979">(ISODate)</text></a><!--class FinancialInstitution--><a target="_top" xlink:actuate="onRequest" xlink:href="../FinancialInstitution.html" xlink:show="new" xlink:title="Organisation established primarily to provide financial services." xlink:type="simple"><rect fill="#FEFECE" filter="url(#f1wxyvtli59ov)" height="23.9688" id="FinancialInstitution" style="stroke: #A80036; stroke-width: 1.5;" width="124" x="1556.5" y="454"/><rect fill="#FEFECE" height="23.9688" style="stroke: #A80036; stroke-width: 1.5;" width="124" x="1556.5" y="454"/><text fill="#000000" font-family="sans-serif" font-size="12" lengthAdjust="spacingAndGlyphs" textLength="118" x="1559.5" y="470.1387">FinancialInstitution</text></a><!--class Role--><a target="_top" xlink:actuate="onRequest" xlink:href="../Role.html" xlink:show="new" xlink:title="Role of a party in an activity." xlink:type="simple"><rect fill="#EEEEEE" filter="url(#f1wxyvtli59ov)" height="23.9688" id="Role" style="stroke: #A80036; stroke-width: 1.5;" width="33" x="1845.75" y="314"/><rect fill="#EEEEEE" height="23.9688" style="stroke: #A80036; stroke-width: 1.5;" width="33" x="1845.75" y="314"/><text fill="#000000" font-family="sans-serif" font-size="12" lengthAdjust="spacingAndGlyphs" textLength="27" x="1848.75" y="330.1387">Role</text></a><!--class DateTimePeriod--><a target="_top" xlink:actuate="onRequest" xlink:href="../DateTimePeriod.html" xlink:show="new" xlink:title="Time span defined by a start date and time, and an end date and time." xlink:type="simple"><rect fill="#EEEEEE" filter="url(#f1wxyvtli59ov)" height="23.9688" id="DateTimePeriod" style="stroke: #A80036; stroke-width: 1.5;" width="105" x="1782.75" y="159"/><rect fill="#EEEEEE" height="23.9688" style="stroke: #A80036; stroke-width: 1.5;" width="105" x="1782.75" y="159"/><text fill="#000000" font-family="sans-serif" font-size="12" lengthAdjust="spacingAndGlyphs" textLength="99" x="1785.75" y="175.1387">DateTimePeriod</text></a><!--class ContactPoint--><a target="_top" xlink:actuate="onRequest" xlink:href="../ContactPoint.html" xlink:show="new" xlink:title="Number, physical or virtual address, used for communication." xlink:type="simple"><rect fill="#EEEEEE" filter="url(#f1wxyvtli59ov)" height="23.9688" id="ContactPoint" style="stroke: #A80036; stroke-width: 1.5;" width="87" x="462.75" y="850"/><rect fill="#EEEEEE" height="23.9688" style="stroke: #A80036; stroke-width: 1.5;" width="87" x="462.75" y="850"/><text fill="#000000" font-family="sans-serif" font-size="12" lengthAdjust="spacingAndGlyphs" textLength="81" x="465.75" y="866.1387">ContactPoint</text></a><!--class PartyIdentificationInformation--><a target="_top" xlink:actuate="onRequest" xlink:href="../PartyIdentificationInformation.html" xlink:show="new" xlink:title="Unique and unambiguous way to identify a party" xlink:type="simple"><rect fill="#EEEEEE" filter="url(#f1wxyvtli59ov)" height="23.9688" id="PartyIdentificationInformation" style="stroke: #A80036; stroke-width: 1.5;" width="190" x="462" y="762"/><rect fill="#EEEEEE" height="23.9688" style="stroke: #A80036; stroke-width: 1.5;" width="190" x="462" y="762"/><text fill="#000000" font-family="sans-serif" font-size="12" lengthAdjust="spacingAndGlyphs" textLength="184" x="465" y="778.1387">PartyIdentificationInformation</text></a><!--class Tax--><a target="_top" xlink:actuate="onRequest" xlink:href="../Tax.html" xlink:show="new" xlink:title="Amount of money due to the government or tax authority, according to various pre-defined parameters such as thresholds or income." xlink:type="simple"><rect fill="#EEEEEE" filter="url(#f1wxyvtli59ov)" height="23.9688" id="Tax" style="stroke: #A80036; stroke-width: 1.5;" width="27" x="543.75" y="660"/><rect fill="#EEEEEE" height="23.9688" style="stroke: #A80036; stroke-width: 1.5;" width="27" x="543.75" y="660"/><text fill="#000000" font-family="sans-serif" font-size="12" lengthAdjust="spacingAndGlyphs" textLength="21" x="546.75" y="676.1387">Tax</text></a><!--class Location--><a target="_top" xlink:actuate="onRequest" xlink:href="../Location.html" xlink:show="new" xlink:title="Specifies a place." xlink:type="simple"><rect fill="#EEEEEE" filter="url(#f1wxyvtli59ov)" height="23.9688" id="Location" style="stroke: #A80036; stroke-width: 1.5;" width="59" x="595.75" y="558"/><rect fill="#EEEEEE" height="23.9688" style="stroke: #A80036; stroke-width: 1.5;" width="59" x="595.75" y="558"/><text fill="#000000" font-family="sans-serif" font-size="12" lengthAdjust="spacingAndGlyphs" textLength="53" x="598.75" y="574.1387">Location</text></a><!--class PowerOfAttorney--><a target="_top" xlink:actuate="onRequest" xlink:href="../PowerOfAttorney.html" xlink:show="new" xlink:title="Document that transfers specific rights from a party to another party." xlink:type="simple"><rect fill="#EEEEEE" filter="url(#f1wxyvtli59ov)" height="23.9688" id="PowerOfAttorney" style="stroke: #A80036; stroke-width: 1.5;" width="110" x="462" y="454"/><rect fill="#EEEEEE" height="23.9688" style="stroke: #A80036; stroke-width: 1.5;" width="110" x="462" y="454"/><text fill="#000000" font-family="sans-serif" font-size="12" lengthAdjust="spacingAndGlyphs" textLength="104" x="465" y="470.1387">PowerOfAttorney</text></a><!--class Security--><a target="_top" xlink:actuate="onRequest" xlink:href="../Security.html" xlink:show="new" xlink:title="Financial instruments representing a sum of rights of the investor vis-a-vis the issuer." xlink:type="simple"><rect fill="#EEEEEE" filter="url(#f1wxyvtli59ov)" height="23.9688" id="Security" style="stroke: #A80036; stroke-width: 1.5;" width="56" x="605.5" y="314"/><rect fill="#EEEEEE" height="23.9688" style="stroke: #A80036; stroke-width: 1.5;" width="56" x="605.5" y="314"/><text fill="#000000" font-family="sans-serif" font-size="12" lengthAdjust="spacingAndGlyphs" textLength="50" x="608.5" y="330.1387">Security</text></a><!--class OrganisationIdentification--><a target="_top" xlink:actuate="onRequest" xlink:href="../OrganisationIdentification.html" xlink:show="new" xlink:title="Unique and unambiguous way to identify an organisation." xlink:type="simple"><rect fill="#EEEEEE" filter="url(#f1wxyvtli59ov)" height="23.9688" id="OrganisationIdentification" style="stroke: #A80036; stroke-width: 1.5;" width="167" x="1895.75" y="1026"/><rect fill="#EEEEEE" height="23.9688" style="stroke: #A80036; stroke-width: 1.5;" width="167" x="1895.75" y="1026"/><text fill="#000000" font-family="sans-serif" font-size="12" lengthAdjust="spacingAndGlyphs" textLength="161" x="1898.75" y="1042.1387">OrganisationIdentification</text></a><!--class SecuritiesModification--><a target="_top" xlink:actuate="onRequest" xlink:href="../SecuritiesModification.html" xlink:show="new" xlink:title="Modification of the reference data of a security or of the organisation that issued it." xlink:type="simple"><rect fill="#EEEEEE" filter="url(#f1wxyvtli59ov)" height="23.9688" id="SecuritiesModification" style="stroke: #A80036; stroke-width: 1.5;" width="143" x="1886.75" y="940"/><rect fill="#EEEEEE" height="23.9688" style="stroke: #A80036; stroke-width: 1.5;" width="143" x="1886.75" y="940"/><text fill="#000000" font-family="sans-serif" font-size="12" lengthAdjust="spacingAndGlyphs" textLength="137" x="1889.75" y="956.1387">SecuritiesModification</text></a><!--class Sector--><a target="_top" xlink:actuate="onRequest" xlink:href="../Sector.html" xlink:show="new" xlink:title="Type of business of the organisation, for example, pharmaceutical." xlink:type="simple"><rect fill="#EEEEEE" filter="url(#f1wxyvtli59ov)" height="23.9688" id="Sector" style="stroke: #A80036; stroke-width: 1.5;" width="47" x="1898.75" y="850"/><rect fill="#EEEEEE" height="23.9688" style="stroke: #A80036; stroke-width: 1.5;" width="47" x="1898.75" y="850"/><text fill="#000000" font-family="sans-serif" font-size="12" lengthAdjust="spacingAndGlyphs" textLength="41" x="1901.75" y="866.1387">Sector</text></a><!--class BuyOrSellIndicationOfInterest--><a target="_top" xlink:actuate="onRequest" xlink:href="../BuyOrSellIndicationOfInterest.html" xlink:show="new" xlink:title="Intention to buy or sell a financial Instrument." xlink:type="simple"><rect fill="#EEEEEE" filter="url(#f1wxyvtli59ov)" height="23.9688" id="BuyOrSellIndicationOfInterest" style="stroke: #A80036; stroke-width: 1.5;" width="187" x="1885.75" y="762"/><rect fill="#EEEEEE" height="23.9688" style="stroke: #A80036; stroke-width: 1.5;" width="187" x="1885.75" y="762"/><text fill="#000000" font-family="sans-serif" font-size="12" lengthAdjust="spacingAndGlyphs" textLength="181" x="1888.75" y="778.1387">BuyOrSellIndicationOfInterest</text></a><!--class OrganisationStrategy--><a target="_top" xlink:actuate="onRequest" xlink:href="../OrganisationStrategy.html" xlink:show="new" xlink:title="Strategy is organisation based." xlink:type="simple"><rect fill="#EEEEEE" filter="url(#f1wxyvtli59ov)" height="23.9688" id="OrganisationStrategy" style="stroke: #A80036; stroke-width: 1.5;" width="139" x="1919.75" y="660"/><rect fill="#EEEEEE" height="23.9688" style="stroke: #A80036; stroke-width: 1.5;" width="139" x="1919.75" y="660"/><text fill="#000000" font-family="sans-serif" font-size="12" lengthAdjust="spacingAndGlyphs" textLength="133" x="1922.75" y="676.1387">OrganisationStrategy</text></a><!--class OrganisationHierarchy--><a target="_top" xlink:actuate="onRequest" xlink:href="../OrganisationHierarchy.html" xlink:show="new" xlink:title="Description of the structure of a company." xlink:type="simple"><rect fill="#EEEEEE" filter="url(#f1wxyvtli59ov)" height="23.9688" id="OrganisationHierarchy" style="stroke: #A80036; stroke-width: 1.5;" width="145" x="1916.75" y="558"/><rect fill="#EEEEEE" height="23.9688" style="stroke: #A80036; stroke-width: 1.5;" width="145" x="1916.75" y="558"/><text fill="#000000" font-family="sans-serif" font-size="12" lengthAdjust="spacingAndGlyphs" textLength="139" x="1919.75" y="574.1387">OrganisationHierarchy</text></a><!--class RepresentativeOfficer--><a target="_top" xlink:actuate="onRequest" xlink:href="../RepresentativeOfficer.html" xlink:show="new" xlink:title="Officer who has some rights to represent a given organisation. In account management, it is the person to be contacted by the account servicer." xlink:type="simple"><rect fill="#EEEEEE" filter="url(#f1wxyvtli59ov)" height="23.9688" id="RepresentativeOfficer" style="stroke: #A80036; stroke-width: 1.5;" width="141" x="1930.75" y="454"/><rect fill="#EEEEEE" height="23.9688" style="stroke: #A80036; stroke-width: 1.5;" width="141" x="1930.75" y="454"/><text fill="#000000" font-family="sans-serif" font-size="12" lengthAdjust="spacingAndGlyphs" textLength="135" x="1933.75" y="470.1387">RepresentativeOfficer</text></a><!--entity ##65--><!--link RolePlayer to Party--><path d="M1655.87,74.82 C1626.2,93.792 1583.02,121.399 1550.8,141.999 " fill="none" id="RolePlayer-Party" style="stroke: #A80036; stroke-width: 1.0;"/><polygon fill="none" points="1652.16,68.88,1672.78,64.01,1659.7,80.68,1652.16,68.88" style="stroke: #A80036; stroke-width: 1.0;"/><!--link Party to Organisation--><path d="M1491.23,219.299 C1485.02,237.928 1477.91,259.275 1471.7,277.886 " fill="none" id="Party-Organisation" style="stroke: #A80036; stroke-width: 1.0;"/><polygon fill="none" points="1484.68,216.823,1497.65,200.063,1497.96,221.25,1484.68,216.823" style="stroke: #A80036; stroke-width: 1.0;"/><!--link Organisation to FinancialInstitution--><path d="M1526.91,387.402 C1556.35,412.484 1587.6,439.106 1604.77,453.731 " fill="none" id="Organisation-FinancialInstitution" style="stroke: #A80036; stroke-width: 1.0;"/><polygon fill="none" points="1521.98,392.404,1511.3,374.106,1531.06,381.746,1521.98,392.404" style="stroke: #A80036; stroke-width: 1.0;"/><!--link DateTimePeriod to Role--><!--link PartyIdentificationInformation to ContactPoint--><!--link Tax to PartyIdentificationInformation--><!--link Location to Tax--><!--link PowerOfAttorney to Location--><!--link Security to PowerOfAttorney--><!--link SecuritiesModification to OrganisationIdentification--><!--link Sector to SecuritiesModification--><!--link BuyOrSellIndicationOfInterest to Sector--><!--link OrganisationStrategy to BuyOrSellIndicationOfInterest--><!--link OrganisationHierarchy to OrganisationStrategy--><!--link RepresentativeOfficer to OrganisationHierarchy--><!--link RolePlayer to Role--><path d="M1725.27,52.89 C1778.29,54.96 1875.46,68.13 1905,135 C1931.96,196.037 1891.82,275.846 1872,309.238 " fill="none" id="RolePlayer-Role" style="stroke: #A80036; stroke-width: 1.0;"/><polygon fill="#A80036" points="1869.23,313.82,1877.3112,308.1903,1871.8182,309.542,1870.4665,304.0491,1869.23,313.82" style="stroke: #A80036; stroke-width: 1.0;"/><text fill="#000000" font-family="sans-serif" font-size="13" lengthAdjust="spacingAndGlyphs" textLength="27" x="1915" y="175.0669">Role</text><text fill="#000000" font-family="sans-serif" font-size="13" lengthAdjust="spacingAndGlyphs" textLength="23" x="1843.3325" y="302.8063">1..*</text><!--link RolePlayer to DateTimePeriod--><path d="M1703.64,64.01 C1729.98,85.261 1787.83,131.938 1817.17,155.616 " fill="none" id="RolePlayer-DateTimePeriod" style="stroke: #A80036; stroke-width: 1.0;"/><polygon fill="#A80036" points="1821.29,158.937,1816.8016,150.1704,1817.4002,155.7954,1811.7751,156.3941,1821.29,158.937" style="stroke: #A80036; stroke-width: 1.0;"/><text fill="#000000" font-family="sans-serif" font-size="13" lengthAdjust="spacingAndGlyphs" textLength="86" x="1764" y="107.0669">ValidityPeriod</text><text fill="#000000" font-family="sans-serif" font-size="13" lengthAdjust="spacingAndGlyphs" textLength="24" x="1787.0225" y="147.9636">0..1</text><!--link Party to ContactPoint--><path d="M1340.27,171.866 C949.247,173.762 6,192.106 6,325 C6,325 6,325 6,775 C6,820.501 331.762,848.579 457.395,857.716 " fill="none" id="Party-ContactPoint" style="stroke: #A80036; stroke-width: 1.0;"/><polygon fill="#A80036" points="462.503,858.085,453.8144,853.4474,457.516,857.725,453.2384,861.4266,462.503,858.085" style="stroke: #A80036; stroke-width: 1.0;"/><text fill="#000000" font-family="sans-serif" font-size="13" lengthAdjust="spacingAndGlyphs" textLength="82" x="7" y="574.0669">ContactPoint</text><text fill="#000000" font-family="sans-serif" font-size="13" lengthAdjust="spacingAndGlyphs" textLength="23" x="431.6479" y="852.6488">1..*</text><!--link Party to PartyIdentificationInformation--><path d="M1340.21,173.664 C976.429,179.511 144,205.904 144,325 C144,325 144,325 144,673 C144,737.169 334.716,760.305 456.948,768.543 " fill="none" id="Party-PartyIdentificationInformation" style="stroke: #A80036; stroke-width: 1.0;"/><polygon fill="#A80036" points="461.99,768.877,453.2736,764.2918,457.0009,768.5471,452.7457,772.2744,461.99,768.877" style="stroke: #A80036; stroke-width: 1.0;"/><text fill="#000000" font-family="sans-serif" font-size="13" lengthAdjust="spacingAndGlyphs" textLength="81" x="145" y="523.0669">Identification</text><text fill="#000000" font-family="sans-serif" font-size="13" lengthAdjust="spacingAndGlyphs" textLength="23" x="431.1026" y="764.0764">1..*</text><!--link Party to Tax--><path d="M1340.36,176.539 C1066.19,184.708 542.103,203.536 461,230 C320.57,275.822 196.691,373.758 270,502 C330.342,607.56 485.193,653.73 538.58,666.855 " fill="none" id="Party-Tax" style="stroke: #A80036; stroke-width: 1.0;"/><polygon fill="#A80036" points="543.714,668.091,535.9015,662.094,538.8531,666.9197,534.0274,669.8714,543.714,668.091" style="stroke: #A80036; stroke-width: 1.0;"/><text fill="#000000" font-family="sans-serif" font-size="13" lengthAdjust="spacingAndGlyphs" textLength="121" x="271" y="470.0669">TaxationConditions</text><text fill="#000000" font-family="sans-serif" font-size="13" lengthAdjust="spacingAndGlyphs" textLength="8" x="527.6472" y="659.4582">1</text><!--link Party to Location--><path d="M1340.21,176.714 C1134.74,183.786 806.811,199.673 759,230 C696.807,269.449 729.552,322.401 677,374 C657.132,393.508 636.214,380.057 622,404 C593.658,451.743 609.944,521.754 619.533,552.962 " fill="none" id="Party-Location" style="stroke: #A80036; stroke-width: 1.0;"/><polygon fill="#A80036" points="621.121,557.977,622.2193,548.1896,619.6125,553.21,614.592,550.6032,621.121,557.977" style="stroke: #A80036; stroke-width: 1.0;"/><text fill="#000000" font-family="sans-serif" font-size="13" lengthAdjust="spacingAndGlyphs" textLength="55" x="623" y="417.0669">Domicile</text><text fill="#000000" font-family="sans-serif" font-size="13" lengthAdjust="spacingAndGlyphs" textLength="8" x="608.9829" y="547.0173">1</text><!--link Party to Location--><path d="M1340.22,176.022 C1198.1,181.799 1006.34,195.85 938,230 C782.229,307.841 665.308,497.933 633.582,553.503 " fill="none" id="Party-Location" style="stroke: #A80036; stroke-width: 1.0;"/><polygon fill="#A80036" points="631.11,557.866,639.0279,552.0088,633.5756,553.5162,632.0682,548.0639,631.11,557.866" style="stroke: #A80036; stroke-width: 1.0;"/><text fill="#000000" font-family="sans-serif" font-size="13" lengthAdjust="spacingAndGlyphs" textLength="65" x="736" y="417.0669">Residence</text><text fill="#000000" font-family="sans-serif" font-size="13" lengthAdjust="spacingAndGlyphs" textLength="7" x="623.5775" y="546.8682">*</text><!--link Party to Location--><path d="M1340.49,174.251 C1072.96,178.955 569.927,192.687 497,230 C387.356,286.099 359.188,412.692 444,502 C483.086,543.158 549.695,559.183 590.29,565.315 " fill="none" id="Party-Location" style="stroke: #A80036; stroke-width: 1.0;"/><polygon fill="#A80036" points="595.596,566.083,587.2612,560.8359,590.6475,565.3673,586.1161,568.7535,595.596,566.083" style="stroke: #A80036; stroke-width: 1.0;"/><text fill="#000000" font-family="sans-serif" font-size="13" lengthAdjust="spacingAndGlyphs" textLength="54" x="400" y="417.0669">Location</text><text fill="#000000" font-family="sans-serif" font-size="13" lengthAdjust="spacingAndGlyphs" textLength="8" x="579.7735" y="559.7214">1</text><!--link Party to PowerOfAttorney--><path d="M1340.38,172.801 C1108.07,175.52 699.419,186.564 558,230 C517.998,242.286 497.717,241.642 477,278 C444.572,334.911 485.886,415.172 506.539,448.988 " fill="none" id="Party-PowerOfAttorney" style="stroke: #A80036; stroke-width: 1.0;"/><polygon fill="#A80036" points="509.425,453.632,508.0718,443.8765,506.7858,449.3853,501.2771,448.0993,509.425,453.632" style="stroke: #A80036; stroke-width: 1.0;"/><text fill="#000000" font-family="sans-serif" font-size="13" lengthAdjust="spacingAndGlyphs" textLength="107" x="478" y="330.0669">PowerOfAttorney</text><text fill="#000000" font-family="sans-serif" font-size="13" lengthAdjust="spacingAndGlyphs" textLength="24" x="477.6095" y="442.8135">0..1</text><!--link Party to Security--><path d="M1340.44,176.496 C1078.91,184.378 598.834,202.512 573,230 C549.384,255.128 586.992,290.851 612.531,310.555 " fill="none" id="Party-Security" style="stroke: #A80036; stroke-width: 1.0;"/><polygon fill="#A80036" points="616.829,313.809,612.0694,305.1866,612.8431,310.7903,607.2394,311.564,616.829,313.809" style="stroke: #A80036; stroke-width: 1.0;"/><text fill="#000000" font-family="sans-serif" font-size="13" lengthAdjust="spacingAndGlyphs" textLength="112" x="574" y="243.0669">CloseLinkSecurity</text><text fill="#000000" font-family="sans-serif" font-size="13" lengthAdjust="spacingAndGlyphs" textLength="8" x="600.6505" y="303.0492">1</text><!--link Organisation to OrganisationIdentification--><path d="M1571.72,346.054 C1629.91,355.25 1701.58,365.996 1766,374 C1902.93,391.014 1941.88,367.691 2075,404 C2136.96,420.901 2206,400.775 2206,465 C2206,465 2206,465 2206,953 C2206,986.8898 2115.88,1011.4207 2049.21,1024.9324 " fill="none" id="Organisation-OrganisationIdentification" style="stroke: #A80036; stroke-width: 1.0;"/><polygon fill="#A80036" points="2044.05,1025.966,2053.6619,1028.1135,2048.9519,1024.9804,2052.085,1020.2704,2044.05,1025.966" style="stroke: #A80036; stroke-width: 1.0;"/><text fill="#000000" font-family="sans-serif" font-size="13" lengthAdjust="spacingAndGlyphs" textLength="162" x="2207" y="727.0669">OrganisationIdentification</text><text fill="#000000" font-family="sans-serif" font-size="13" lengthAdjust="spacingAndGlyphs" textLength="7" x="2056.7781" y="1015.0025">*</text><!--link Organisation to Organisation--><path d="M1571.72,310.883 C1591.94,312.898 1606,317.938 1606,326 C1606,333.37 1594.25,338.213 1576.79,340.531 " fill="none" id="Organisation-Organisation" style="stroke: #A80036; stroke-width: 1.0;"/><polygon fill="#A80036" points="1571.72,341.117,1581.1182,344.0622,1576.6872,340.5456,1580.2039,336.1146,1571.72,341.117" style="stroke: #A80036; stroke-width: 1.0;"/><text fill="#000000" font-family="sans-serif" font-size="13" lengthAdjust="spacingAndGlyphs" textLength="123" x="1612" y="330.0669">ParentOrganisation</text><text fill="#000000" font-family="sans-serif" font-size="13" lengthAdjust="spacingAndGlyphs" textLength="8" x="1580.4752" y="337.675">1</text><!--link Organisation to SecuritiesModification--><path d="M1402.94,374.149 C1381.18,398.677 1361,430.678 1361,465 C1361,465 1361,465 1361,863 C1361,915.015 1720.27,939.286 1881.4,947.556 " fill="none" id="Organisation-SecuritiesModification" style="stroke: #A80036; stroke-width: 1.0;"/><polygon fill="#A80036" points="1886.58,947.82,1877.7976,943.3624,1881.5866,947.5628,1877.3862,951.3518,1886.58,947.82" style="stroke: #A80036; stroke-width: 1.0;"/><text fill="#000000" font-family="sans-serif" font-size="13" lengthAdjust="spacingAndGlyphs" textLength="139" x="1362" y="676.0669">SecuritiesModification</text><text fill="#000000" font-family="sans-serif" font-size="13" lengthAdjust="spacingAndGlyphs" textLength="8" x="1870.7516" y="942.7649">1</text><!--link Organisation to Location--><path d="M1342.96,374.026 C1303.96,390.914 1260.23,410.595 1221,430 C1140.4,469.869 1129.86,501.29 1044,528 C972.407,550.272 746.454,563.179 659.537,567.427 " fill="none" id="Organisation-Location" style="stroke: #A80036; stroke-width: 1.0;"/><polygon fill="#A80036" points="654.511,567.67,663.6947,571.2282,659.5051,567.4272,663.3061,563.2376,654.511,567.67" style="stroke: #A80036; stroke-width: 1.0;"/><text fill="#000000" font-family="sans-serif" font-size="13" lengthAdjust="spacingAndGlyphs" textLength="111" x="1222" y="470.0669">PlaceOfOperation</text><text fill="#000000" font-family="sans-serif" font-size="13" lengthAdjust="spacingAndGlyphs" textLength="7" x="662.906" y="560.9827">*</text><!--link Organisation to Location--><path d="M1340.17,345.887 C1241.23,363.384 1095.7,392.367 972,430 C940.143,439.692 736.324,523.189 656.756,555.918 " fill="none" id="Organisation-Location" style="stroke: #A80036; stroke-width: 1.0;"/><polygon fill="#A80036" points="651.697,557.999,661.542,558.2748,656.3211,556.097,658.4989,550.8762,651.697,557.999" style="stroke: #A80036; stroke-width: 1.0;"/><text fill="#000000" font-family="sans-serif" font-size="13" lengthAdjust="spacingAndGlyphs" textLength="124" x="973" y="470.0669">PlaceOfRegistration</text><text fill="#000000" font-family="sans-serif" font-size="13" lengthAdjust="spacingAndGlyphs" textLength="24" x="631.3194" y="547.0469">0..1</text><!--link Organisation to Sector--><path d="M1456.03,374.037 C1457.84,410.749 1464.37,462.051 1485,502 C1579.65,685.256 1813.21,809.49 1893.98,848.173 " fill="none" id="Organisation-Sector" style="stroke: #A80036; stroke-width: 1.0;"/><polygon fill="#A80036" points="1898.63,850.383,1892.2148,842.91,1894.1131,848.2389,1888.7842,850.1371,1898.63,850.383" style="stroke: #A80036; stroke-width: 1.0;"/><text fill="#000000" font-family="sans-serif" font-size="13" lengthAdjust="spacingAndGlyphs" textLength="42" x="1579" y="625.0669">Sector</text><text fill="#000000" font-family="sans-serif" font-size="13" lengthAdjust="spacingAndGlyphs" textLength="8" x="1882.6539" y="841.5664">1</text><!--link Organisation to BuyOrSellIndicationOfInterest--><path d="M1469.68,374.001 C1482.53,411.904 1504.81,464.838 1538,502 C1659.05,637.538 1864.04,728.046 1944.82,760.091 " fill="none" id="Organisation-BuyOrSellIndicationOfInterest" style="stroke: #A80036; stroke-width: 1.0;"/><polygon fill="#A80036" points="1949.5,761.936,1942.6061,754.9022,1944.8515,760.0943,1939.6594,762.3397,1949.5,761.936" style="stroke: #A80036; stroke-width: 1.0;"/><text fill="#000000" font-family="sans-serif" font-size="13" lengthAdjust="spacingAndGlyphs" textLength="172" x="1624" y="574.0669">RelatedIndicationOfInterest</text><text fill="#000000" font-family="sans-serif" font-size="13" lengthAdjust="spacingAndGlyphs" textLength="24" x="1909.8047" y="750.9622">0..1</text><!--link Organisation to OrganisationStrategy--><path d="M1571.81,345.43 C1630.01,354.471 1701.68,365.267 1766,374 C1876.89,389.056 1907.06,378.401 2016,404 C2049.53,411.878 2069.15,401.856 2089,430 C2128.02,485.323 2108.91,521.266 2079,582 C2063.25,613.972 2031.33,641.156 2010.06,656.785 " fill="none" id="Organisation-OrganisationStrategy" style="stroke: #A80036; stroke-width: 1.0;"/><polygon fill="#A80036" points="2005.95,659.755,2015.5872,657.7243,2010.0022,656.8259,2010.9006,651.2408,2005.95,659.755" style="stroke: #A80036; stroke-width: 1.0;"/><text fill="#000000" font-family="sans-serif" font-size="13" lengthAdjust="spacingAndGlyphs" textLength="55" x="2109" y="523.0669">Strategy</text><text fill="#000000" font-family="sans-serif" font-size="13" lengthAdjust="spacingAndGlyphs" textLength="24" x="1982.1756" y="648.9773">0..1</text><!--link Organisation to OrganisationHierarchy--><path d="M1571.71,366.307 C1612.73,382.866 1658.08,404.316 1696,430 C1733.47,455.381 1729.18,478.738 1768,502 C1814.45,529.838 1873.41,546.952 1918.75,556.909 " fill="none" id="Organisation-OrganisationHierarchy" style="stroke: #A80036; stroke-width: 1.0;"/><polygon fill="#A80036" points="1923.65,557.969,1915.6995,552.1561,1918.7631,556.9116,1914.0076,559.9752,1923.65,557.969" style="stroke: #A80036; stroke-width: 1.0;"/><text fill="#000000" font-family="sans-serif" font-size="13" lengthAdjust="spacingAndGlyphs" textLength="142" x="1769" y="470.0669">OrganisationHierarchy</text><text fill="#000000" font-family="sans-serif" font-size="13" lengthAdjust="spacingAndGlyphs" textLength="8" x="1900.7506" y="550.01">1</text><!--link Organisation to RepresentativeOfficer--><path d="M1571.79,349.81 C1662.6,368.627 1791.79,397.449 1903,430 C1924.71,436.355 1948.63,444.868 1967.41,451.907 " fill="none" id="Organisation-RepresentativeOfficer" style="stroke: #A80036; stroke-width: 1.0;"/><polygon fill="#A80036" points="1972.56,453.85,1965.5595,446.9223,1967.884,452.0795,1962.7267,454.404,1972.56,453.85" style="stroke: #A80036; stroke-width: 1.0;"/><text fill="#000000" font-family="sans-serif" font-size="13" lengthAdjust="spacingAndGlyphs" textLength="137" x="1869" y="417.0669">RepresentativeOfficer</text><text fill="#000000" font-family="sans-serif" font-size="13" lengthAdjust="spacingAndGlyphs" textLength="8" x="1951.9791" y="442.8467">1</text><!--link DateTimePeriod to PartyIdentificationInformation--><path d="M1801.23,183.127 C1783.69,188.662 1761.83,195.181 1742,200 C1558.36,244.64 1501.04,211.883 1324,278 C1139.62,346.856 1126.09,432.387 942,502 C924.634,508.567 917.932,502.383 901,510 C755.627,575.394 615.073,712.889 571.088,758.182 " fill="none" id="DateTimePeriod-PartyIdentificationInformation" style="stroke: #A80036; stroke-width: 1.0;"/><polygon fill="#A80036" points="567.609,761.78,576.7408,758.0908,571.0848,758.1857,570.9899,752.5296,567.609,761.78" style="stroke: #A80036; stroke-width: 1.0;"/><text fill="#000000" font-family="sans-serif" font-size="13" lengthAdjust="spacingAndGlyphs" textLength="129" x="902" y="523.0669">RelatedIdentification</text><text fill="#000000" font-family="sans-serif" font-size="13" lengthAdjust="spacingAndGlyphs" textLength="7" x="561.6326" y="751.0106">*</text><!--link ContactPoint to ContactPoint--><path d="M549.314,853.849 C568.001,853.181 584,855.898 584,862 C584,867.53 570.86,870.279 554.488,870.25 " fill="none" id="ContactPoint-ContactPoint" style="stroke: #A80036; stroke-width: 1.0;"/><polygon fill="#A80036" points="549.314,870.151,558.2358,874.3226,554.3131,870.2467,558.3889,866.324,549.314,870.151" style="stroke: #A80036; stroke-width: 1.0;"/><text fill="#000000" font-family="sans-serif" font-size="13" lengthAdjust="spacingAndGlyphs" textLength="80" x="590" y="866.0669">MainContact</text><text fill="#000000" font-family="sans-serif" font-size="13" lengthAdjust="spacingAndGlyphs" textLength="8" x="557.6973" y="866.1703">1</text><!--link Security to Sector--><path d="M660.596,327.232 C771.521,328.774 1183,340.528 1268,430 C1329.59,494.832 1266.79,543.639 1290,630 C1302.86,677.851 1296.65,700.62 1335,732 C1423.14,804.131 1787.85,847.052 1893.31,858.126 " fill="none" id="Security-Sector" style="stroke: #A80036; stroke-width: 1.0;"/><polygon fill="#A80036" points="1898.43,858.659,1889.8892,853.7544,1893.4565,858.1447,1889.0663,861.712,1898.43,858.659" style="stroke: #A80036; stroke-width: 1.0;"/><text fill="#000000" font-family="sans-serif" font-size="13" lengthAdjust="spacingAndGlyphs" textLength="42" x="1291" y="625.0669">Sector</text><text fill="#000000" font-family="sans-serif" font-size="13" lengthAdjust="spacingAndGlyphs" textLength="8" x="1882.7654" y="871.7066">1</text><!--link Security to SecuritiesModification--><path d="M660.623,326.162 C729.668,325.612 911.484,333.91 1013,430 C1060.26,474.733 1059,503.927 1059,569 C1059,569 1059,569 1059,863 C1059,945.369 1664.5,951.81 1881.65,951.472 " fill="none" id="Security-SecuritiesModification" style="stroke: #A80036; stroke-width: 1.0;"/><polygon fill="#A80036" points="1886.71,951.462,1877.6986,947.4877,1881.71,951.4763,1877.7215,955.4877,1886.71,951.462" style="stroke: #A80036; stroke-width: 1.0;"/><text fill="#000000" font-family="sans-serif" font-size="13" lengthAdjust="spacingAndGlyphs" textLength="76" x="1060" y="676.0669">Modification</text><text fill="#000000" font-family="sans-serif" font-size="13" lengthAdjust="spacingAndGlyphs" textLength="24" x="1854.709" y="964.1122">0..1</text></g></svg>