<?xml version="1.0" encoding="UTF-8" standalone="no"?><svg xmlns="http://www.w3.org/2000/svg" xmlns:xlink="http://www.w3.org/1999/xlink" contentScriptType="application/ecmascript" contentStyleType="text/css" height="1088px" preserveAspectRatio="none" style="width:2542px;height:1088px;" version="1.1" viewBox="0 0 2542 1088" width="2542px" zoomAndPan="magnify"><defs><filter height="300%" id="f30ymc1mzo4v8" width="300%" x="-1" y="-1"><feGaussianBlur result="blurOut" stdDeviation="2.0"/><feColorMatrix in="blurOut" result="blurOut2" type="matrix" values="0 0 0 0 0 0 0 0 0 0 0 0 0 0 0 0 0 0 .4 0"/><feOffset dx="4.0" dy="4.0" in="blurOut2" result="blurOut3"/><feBlend in="SourceGraphic" in2="blurOut3" mode="normal"/></filter></defs><g><!--cluster ##3578--><!--cluster ##3587--><!--cluster ##3618--><!--cluster ##3627--><!--class Trade--><a target="_top" xlink:actuate="onRequest" xlink:href="../Trade.html" xlink:show="new" xlink:title="Result of an order between at least two parties. A trade relates to the delivery of goods and services, cash or securities." xlink:type="simple"><rect fill="#FEFEEE" filter="url(#f30ymc1mzo4v8)" height="134.4063" id="Trade" style="stroke: #A80036; stroke-width: 1.5;" width="249" x="1446.75" y="40"/><rect fill="#FEFEEE" height="23.9688" style="stroke: #A80036; stroke-width: 1.5;" width="249" x="1446.75" y="40"/><text fill="#000000" font-family="sans-serif" font-size="12" lengthAdjust="spacingAndGlyphs" textLength="36" x="1553.25" y="56.1387">Trade</text><line style="stroke: #A80036; stroke-width: 1.5;" x1="1447.75" x2="1694.75" y1="63.9688" y2="63.9688"/><ellipse cx="1457.75" cy="75.8711" fill="#84BE84" rx="3" ry="3" style="stroke: #038048; stroke-width: 1.0;"/><text fill="#000000" font-family="sans-serif" font-size="11" lengthAdjust="spacingAndGlyphs" textLength="87" x="1466.75" y="78.1792">TradeDateTime</text><text fill="#000000" font-family="sans-serif" font-size="11" font-style="italic" lengthAdjust="spacingAndGlyphs" textLength="81" x="1557.75" y="78.1792">(ISODateTime)</text><ellipse cx="1457.75" cy="88.6758" fill="#84BE84" rx="3" ry="3" style="stroke: #038048; stroke-width: 1.0;"/><text fill="#000000" font-family="sans-serif" font-size="11" lengthAdjust="spacingAndGlyphs" textLength="57" x="1466.75" y="90.9839">ValueDate</text><text fill="#000000" font-family="sans-serif" font-size="11" font-style="italic" lengthAdjust="spacingAndGlyphs" textLength="53" x="1527.75" y="90.9839">(ISODate)</text><ellipse cx="1457.75" cy="101.4805" fill="#84BE84" rx="3" ry="3" style="stroke: #038048; stroke-width: 1.0;"/><text fill="#000000" font-family="sans-serif" font-size="11" lengthAdjust="spacingAndGlyphs" textLength="47" x="1466.75" y="103.7886">EndDate</text><text fill="#000000" font-family="sans-serif" font-size="11" font-style="italic" lengthAdjust="spacingAndGlyphs" textLength="81" x="1517.75" y="103.7886">(ISODateTime)</text><ellipse cx="1457.75" cy="114.2852" fill="#84BE84" rx="3" ry="3" style="stroke: #038048; stroke-width: 1.0;"/><text fill="#000000" font-family="sans-serif" font-size="11" lengthAdjust="spacingAndGlyphs" textLength="103" x="1466.75" y="116.5933">AllocationIndicator</text><text fill="#000000" font-family="sans-serif" font-size="11" font-style="italic" lengthAdjust="spacingAndGlyphs" textLength="70" x="1573.75" y="116.5933">(Max35Text)</text><ellipse cx="1457.75" cy="127.0898" fill="#84BE84" rx="3" ry="3" style="stroke: #038048; stroke-width: 1.0;"/><text fill="#000000" font-family="sans-serif" font-size="11" lengthAdjust="spacingAndGlyphs" textLength="119" x="1466.75" y="129.3979">CollateralisationType</text><text fill="#000000" font-family="sans-serif" font-size="11" font-style="italic" lengthAdjust="spacingAndGlyphs" textLength="70" x="1589.75" y="129.3979">(Max35Text)</text><ellipse cx="1457.75" cy="139.8945" fill="#84BE84" rx="3" ry="3" style="stroke: #038048; stroke-width: 1.0;"/><text fill="#000000" font-family="sans-serif" font-size="11" lengthAdjust="spacingAndGlyphs" textLength="79" x="1466.75" y="142.2026">BlockIndicator</text><text fill="#000000" font-family="sans-serif" font-size="11" font-style="italic" lengthAdjust="spacingAndGlyphs" textLength="92" x="1549.75" y="142.2026">(YesNoIndicator)</text><ellipse cx="1457.75" cy="152.6992" fill="#84BE84" rx="3" ry="3" style="stroke: #038048; stroke-width: 1.0;"/><text fill="#000000" font-family="sans-serif" font-size="11" lengthAdjust="spacingAndGlyphs" textLength="102" x="1466.75" y="155.0073">SettlementNetting</text><text fill="#000000" font-family="sans-serif" font-size="11" font-style="italic" lengthAdjust="spacingAndGlyphs" textLength="117" x="1572.75" y="155.0073">(NettingEligibleCode)</text><ellipse cx="1457.75" cy="165.5039" fill="#84BE84" rx="3" ry="3" style="stroke: #038048; stroke-width: 1.0;"/><text fill="#000000" font-family="sans-serif" font-size="11" lengthAdjust="spacingAndGlyphs" textLength="54" x="1466.75" y="167.812">StartDate</text><text fill="#000000" font-family="sans-serif" font-size="11" font-style="italic" lengthAdjust="spacingAndGlyphs" textLength="81" x="1524.75" y="167.812">(ISODateTime)</text></a><!--class TreasuryTrade--><a target="_top" xlink:actuate="onRequest" xlink:href="../TreasuryTrade.html" xlink:show="new" xlink:title="Specifies trades linked to treasury operations such as the exchange of currencies, the lending of cash amounts and the related derivatives trades (options and non deliverable trades)." xlink:type="simple"><rect fill="#FEFEEE" filter="url(#f30ymc1mzo4v8)" height="23.9688" id="TreasuryTrade" style="stroke: #A80036; stroke-width: 1.5;" width="96" x="1600" y="254"/><rect fill="#FEFEEE" height="23.9688" style="stroke: #A80036; stroke-width: 1.5;" width="96" x="1600" y="254"/><text fill="#000000" font-family="sans-serif" font-size="12" lengthAdjust="spacingAndGlyphs" textLength="90" x="1603" y="270.1387">TreasuryTrade</text></a><!--class ForeignExchangeSwap--><a target="_top" xlink:actuate="onRequest" xlink:href="../ForeignExchangeSwap.html" xlink:show="new" xlink:title="Combination of two foreign exchange trades, in opposite directions, for different value dates and for the same pair(s) of currencies." xlink:type="simple"><rect fill="#FEFECE" filter="url(#f30ymc1mzo4v8)" height="44.7734" id="ForeignExchangeSwap" style="stroke: #A80036; stroke-width: 1.5;" width="225" x="1470.75" y="358.5"/><rect fill="#FEFECE" height="23.9688" style="stroke: #A80036; stroke-width: 1.5;" width="225" x="1470.75" y="358.5"/><text fill="#000000" font-family="sans-serif" font-size="12" lengthAdjust="spacingAndGlyphs" textLength="141" x="1512.75" y="374.6387">ForeignExchangeSwap</text><line style="stroke: #A80036; stroke-width: 1.5;" x1="1471.75" x2="1694.75" y1="382.4688" y2="382.4688"/><ellipse cx="1481.75" cy="394.3711" fill="#84BE84" rx="3" ry="3" style="stroke: #038048; stroke-width: 1.0;"/><text fill="#000000" font-family="sans-serif" font-size="11" lengthAdjust="spacingAndGlyphs" textLength="125" x="1490.75" y="396.6792">LinkSwapIdentification</text><text fill="#000000" font-family="sans-serif" font-size="11" font-style="italic" lengthAdjust="spacingAndGlyphs" textLength="70" x="1619.75" y="396.6792">(Max35Text)</text></a><!--class Commission--><a target="_top" xlink:actuate="onRequest" xlink:href="../Commission.html" xlink:show="new" xlink:title="Amount of money due to a party as compensation for a service." xlink:type="simple"><rect fill="#EEEEEE" filter="url(#f30ymc1mzo4v8)" height="23.9688" id="Commission" style="stroke: #A80036; stroke-width: 1.5;" width="80" x="561" y="590"/><rect fill="#EEEEEE" height="23.9688" style="stroke: #A80036; stroke-width: 1.5;" width="80" x="561" y="590"/><text fill="#000000" font-family="sans-serif" font-size="12" lengthAdjust="spacingAndGlyphs" textLength="74" x="564" y="606.1387">Commission</text></a><!--class TradeIdentification--><a target="_top" xlink:actuate="onRequest" xlink:href="../TradeIdentification.html" xlink:show="new" xlink:title="Specifies the different identifications associated with a trade." xlink:type="simple"><rect fill="#EEEEEE" filter="url(#f30ymc1mzo4v8)" height="23.9688" id="TradeIdentification" style="stroke: #A80036; stroke-width: 1.5;" width="123" x="522.75" y="486"/><rect fill="#EEEEEE" height="23.9688" style="stroke: #A80036; stroke-width: 1.5;" width="123" x="522.75" y="486"/><text fill="#000000" font-family="sans-serif" font-size="12" lengthAdjust="spacingAndGlyphs" textLength="117" x="525.75" y="502.1387">TradeIdentification</text></a><!--class TradePartyRole--><a target="_top" xlink:actuate="onRequest" xlink:href="../TradePartyRole.html" xlink:show="new" xlink:title="Trading party in a commercial, securities, treasury trade. This role may also represent parties which play different intermediary roles in a trade." xlink:type="simple"><rect fill="#EEEEEE" filter="url(#f30ymc1mzo4v8)" height="23.9688" id="TradePartyRole" style="stroke: #A80036; stroke-width: 1.5;" width="101" x="544.75" y="369"/><rect fill="#EEEEEE" height="23.9688" style="stroke: #A80036; stroke-width: 1.5;" width="101" x="544.75" y="369"/><text fill="#000000" font-family="sans-serif" font-size="12" lengthAdjust="spacingAndGlyphs" textLength="95" x="547.75" y="385.1387">TradePartyRole</text></a><!--class Obligation--><a target="_top" xlink:actuate="onRequest" xlink:href="../Obligation.html" xlink:show="new" xlink:title="Specifies the assets (quantity of securities, goods, services, and cash amounts) that have to be delivered." xlink:type="simple"><rect fill="#EEEEEE" filter="url(#f30ymc1mzo4v8)" height="23.9688" id="Obligation" style="stroke: #A80036; stroke-width: 1.5;" width="69" x="349.75" y="254"/><rect fill="#EEEEEE" height="23.9688" style="stroke: #A80036; stroke-width: 1.5;" width="69" x="349.75" y="254"/><text fill="#000000" font-family="sans-serif" font-size="12" lengthAdjust="spacingAndGlyphs" textLength="63" x="352.75" y="270.1387">Obligation</text></a><!--class Negotiation--><a target="_top" xlink:actuate="onRequest" xlink:href="../Negotiation.html" xlink:show="new" xlink:title="Decision making on the transfer of a financial instrument." xlink:type="simple"><rect fill="#EEEEEE" filter="url(#f30ymc1mzo4v8)" height="23.9688" id="Negotiation" style="stroke: #A80036; stroke-width: 1.5;" width="79" x="228.75" y="95"/><rect fill="#EEEEEE" height="23.9688" style="stroke: #A80036; stroke-width: 1.5;" width="79" x="228.75" y="95"/><text fill="#000000" font-family="sans-serif" font-size="12" lengthAdjust="spacingAndGlyphs" textLength="73" x="231.75" y="111.1387">Negotiation</text></a><!--class MasterAgreement--><a target="_top" xlink:actuate="onRequest" xlink:href="../MasterAgreement.html" xlink:show="new" xlink:title="Agreement which defines the framework of a contract between two trading parties in different domains such as collateral, derivatives, trade.." xlink:type="simple"><rect fill="#EEEEEE" filter="url(#f30ymc1mzo4v8)" height="23.9688" id="MasterAgreement" style="stroke: #A80036; stroke-width: 1.5;" width="118" x="226" y="369"/><rect fill="#EEEEEE" height="23.9688" style="stroke: #A80036; stroke-width: 1.5;" width="118" x="226" y="369"/><text fill="#000000" font-family="sans-serif" font-size="12" lengthAdjust="spacingAndGlyphs" textLength="112" x="229" y="385.1387">MasterAgreement</text></a><!--class System--><a target="_top" xlink:actuate="onRequest" xlink:href="../System.html" xlink:show="new" xlink:title="Set of integrated applications that provides centralised services such as clearing, netting, reconciliation, trading and/or settlement." xlink:type="simple"><rect fill="#EEEEEE" filter="url(#f30ymc1mzo4v8)" height="23.9688" id="System" style="stroke: #A80036; stroke-width: 1.5;" width="51" x="263.75" y="254"/><rect fill="#EEEEEE" height="23.9688" style="stroke: #A80036; stroke-width: 1.5;" width="51" x="263.75" y="254"/><text fill="#000000" font-family="sans-serif" font-size="12" lengthAdjust="spacingAndGlyphs" textLength="45" x="266.75" y="270.1387">System</text></a><!--class Asset--><a target="_top" xlink:actuate="onRequest" xlink:href="../Asset.html" xlink:show="new" xlink:title="Tangible items of value to a business." xlink:type="simple"><rect fill="#EEEEEE" filter="url(#f30ymc1mzo4v8)" height="23.9688" id="Asset" style="stroke: #A80036; stroke-width: 1.5;" width="41" x="399.75" y="1054"/><rect fill="#EEEEEE" height="23.9688" style="stroke: #A80036; stroke-width: 1.5;" width="41" x="399.75" y="1054"/><text fill="#000000" font-family="sans-serif" font-size="12" lengthAdjust="spacingAndGlyphs" textLength="35" x="402.75" y="1070.1387">Asset</text></a><!--class Market--><a target="_top" xlink:actuate="onRequest" xlink:href="../Market.html" xlink:show="new" xlink:title="Context or geographic environment in which trading parties execute trades." xlink:type="simple"><rect fill="#EEEEEE" filter="url(#f30ymc1mzo4v8)" height="23.9688" id="Market" style="stroke: #A80036; stroke-width: 1.5;" width="49" x="350.75" y="968"/><rect fill="#EEEEEE" height="23.9688" style="stroke: #A80036; stroke-width: 1.5;" width="49" x="350.75" y="968"/><text fill="#000000" font-family="sans-serif" font-size="12" lengthAdjust="spacingAndGlyphs" textLength="43" x="353.75" y="984.1387">Market</text></a><!--class Guarantee--><a target="_top" xlink:actuate="onRequest" xlink:href="../Guarantee.html" xlink:show="new" xlink:title="Partial or full coverage of amounts by a party other than the debtor." xlink:type="simple"><rect fill="#EEEEEE" filter="url(#f30ymc1mzo4v8)" height="23.9688" id="Guarantee" style="stroke: #A80036; stroke-width: 1.5;" width="73" x="326.75" y="882"/><rect fill="#EEEEEE" height="23.9688" style="stroke: #A80036; stroke-width: 1.5;" width="73" x="326.75" y="882"/><text fill="#000000" font-family="sans-serif" font-size="12" lengthAdjust="spacingAndGlyphs" textLength="67" x="329.75" y="898.1387">Guarantee</text></a><!--class Settlement--><a target="_top" xlink:actuate="onRequest" xlink:href="../Settlement.html" xlink:show="new" xlink:title="Process which consists in transferring the proceeds related to a trade from one party to the next one." xlink:type="simple"><rect fill="#EEEEEE" filter="url(#f30ymc1mzo4v8)" height="23.9688" id="Settlement" style="stroke: #A80036; stroke-width: 1.5;" width="75" x="324.75" y="780"/><rect fill="#EEEEEE" height="23.9688" style="stroke: #A80036; stroke-width: 1.5;" width="75" x="324.75" y="780"/><text fill="#000000" font-family="sans-serif" font-size="12" lengthAdjust="spacingAndGlyphs" textLength="69" x="327.75" y="796.1387">Settlement</text></a><!--class Order--><a target="_top" xlink:actuate="onRequest" xlink:href="../Order.html" xlink:show="new" xlink:title="Order placed by an investor to buy or sell an asset at a price specified or not." xlink:type="simple"><rect fill="#EEEEEE" filter="url(#f30ymc1mzo4v8)" height="23.9688" id="Order" style="stroke: #A80036; stroke-width: 1.5;" width="41" x="341.75" y="692"/><rect fill="#EEEEEE" height="23.9688" style="stroke: #A80036; stroke-width: 1.5;" width="41" x="341.75" y="692"/><text fill="#000000" font-family="sans-serif" font-size="12" lengthAdjust="spacingAndGlyphs" textLength="35" x="344.75" y="708.1387">Order</text></a><!--class Leg--><a target="_top" xlink:actuate="onRequest" xlink:href="../Leg.html" xlink:show="new" xlink:title="Separate transactions which combined together form a trade." xlink:type="simple"><rect fill="#EEEEEE" filter="url(#f30ymc1mzo4v8)" height="23.9688" id="Leg" style="stroke: #A80036; stroke-width: 1.5;" width="28" x="257.5" y="590"/><rect fill="#EEEEEE" height="23.9688" style="stroke: #A80036; stroke-width: 1.5;" width="28" x="257.5" y="590"/><text fill="#000000" font-family="sans-serif" font-size="12" lengthAdjust="spacingAndGlyphs" textLength="22" x="260.5" y="606.1387">Leg</text></a><!--class FinancialTransaction--><a target="_top" xlink:actuate="onRequest" xlink:href="../FinancialTransaction.html" xlink:show="new" xlink:title="Process which includes the order, the execution, the settlement of trades in the financial domain." xlink:type="simple"><rect fill="#EEEEEE" filter="url(#f30ymc1mzo4v8)" height="23.9688" id="FinancialTransaction" style="stroke: #A80036; stroke-width: 1.5;" width="135" x="226.75" y="486"/><rect fill="#EEEEEE" height="23.9688" style="stroke: #A80036; stroke-width: 1.5;" width="135" x="226.75" y="486"/><text fill="#000000" font-family="sans-serif" font-size="12" lengthAdjust="spacingAndGlyphs" textLength="129" x="229.75" y="502.1387">FinancialTransaction</text></a><!--class Reconciliation--><a target="_top" xlink:actuate="onRequest" xlink:href="../Reconciliation.html" xlink:show="new" xlink:title="Process of matching different documents submitted by parties to a trade." xlink:type="simple"><rect fill="#EEEEEE" filter="url(#f30ymc1mzo4v8)" height="23.9688" id="Reconciliation" style="stroke: #A80036; stroke-width: 1.5;" width="93" x="416.75" y="369"/><rect fill="#EEEEEE" height="23.9688" style="stroke: #A80036; stroke-width: 1.5;" width="93" x="416.75" y="369"/><text fill="#000000" font-family="sans-serif" font-size="12" lengthAdjust="spacingAndGlyphs" textLength="87" x="419.75" y="385.1387">Reconciliation</text></a><!--class TreasuryTradeSettlementStatus--><a target="_top" xlink:actuate="onRequest" xlink:href="../TreasuryTradeSettlementStatus.html" xlink:show="new" xlink:title="Specifies the status of a treasury trade at a specified time." xlink:type="simple"><rect fill="#EEEEEE" filter="url(#f30ymc1mzo4v8)" height="23.9688" id="TreasuryTradeSettlementStatus" style="stroke: #A80036; stroke-width: 1.5;" width="206" x="2024" y="692"/><rect fill="#EEEEEE" height="23.9688" style="stroke: #A80036; stroke-width: 1.5;" width="206" x="2024" y="692"/><text fill="#000000" font-family="sans-serif" font-size="12" lengthAdjust="spacingAndGlyphs" textLength="200" x="2027" y="708.1387">TreasuryTradeSettlementStatus</text></a><!--class InformationPartyRole--><a target="_top" xlink:actuate="onRequest" xlink:href="../InformationPartyRole.html" xlink:show="new" xlink:title="Role played by a party as source of information." xlink:type="simple"><rect fill="#EEEEEE" filter="url(#f30ymc1mzo4v8)" height="23.9688" id="InformationPartyRole" style="stroke: #A80036; stroke-width: 1.5;" width="136" x="2059" y="590"/><rect fill="#EEEEEE" height="23.9688" style="stroke: #A80036; stroke-width: 1.5;" width="136" x="2059" y="590"/><text fill="#000000" font-family="sans-serif" font-size="12" lengthAdjust="spacingAndGlyphs" textLength="130" x="2062" y="606.1387">InformationPartyRole</text></a><!--class TreasurySettlementPartyRole--><a target="_top" xlink:actuate="onRequest" xlink:href="../TreasurySettlementPartyRole.html" xlink:show="new" xlink:title="Role played by a party in the context of the settlement of a treasury trade." xlink:type="simple"><rect fill="#EEEEEE" filter="url(#f30ymc1mzo4v8)" height="23.9688" id="TreasurySettlementPartyRole" style="stroke: #A80036; stroke-width: 1.5;" width="188" x="2042" y="486"/><rect fill="#EEEEEE" height="23.9688" style="stroke: #A80036; stroke-width: 1.5;" width="188" x="2042" y="486"/><text fill="#000000" font-family="sans-serif" font-size="12" lengthAdjust="spacingAndGlyphs" textLength="182" x="2045" y="502.1387">TreasurySettlementPartyRole</text></a><!--class TreasuryTradePartyRole--><a target="_top" xlink:actuate="onRequest" xlink:href="../TreasuryTradePartyRole.html" xlink:show="new" xlink:title="Role played by a party in the context of a treasury trade." xlink:type="simple"><rect fill="#EEEEEE" filter="url(#f30ymc1mzo4v8)" height="23.9688" id="TreasuryTradePartyRole" style="stroke: #A80036; stroke-width: 1.5;" width="155" x="2024.75" y="369"/><rect fill="#EEEEEE" height="23.9688" style="stroke: #A80036; stroke-width: 1.5;" width="155" x="2024.75" y="369"/><text fill="#000000" font-family="sans-serif" font-size="12" lengthAdjust="spacingAndGlyphs" textLength="149" x="2027.75" y="385.1387">TreasuryTradePartyRole</text></a><!--class ForeignExchangeTrade--><a target="_top" xlink:actuate="onRequest" xlink:href="../ForeignExchangeTrade.html" xlink:show="new" xlink:title="Agreement between two parties in which one party buys a currency and the other party sells a different currency." xlink:type="simple"><rect fill="#EEEEEE" filter="url(#f30ymc1mzo4v8)" height="23.9688" id="ForeignExchangeTrade" style="stroke: #A80036; stroke-width: 1.5;" width="150" x="1508.5" y="486"/><rect fill="#EEEEEE" height="23.9688" style="stroke: #A80036; stroke-width: 1.5;" width="150" x="1508.5" y="486"/><text fill="#000000" font-family="sans-serif" font-size="12" lengthAdjust="spacingAndGlyphs" textLength="144" x="1511.5" y="502.1387">ForeignExchangeTrade</text></a><!--link Trade to TreasuryTrade--><path d="M1612.4,192.411 C1624.42,216.915 1636.06,240.647 1642.6,253.983 " fill="none" id="Trade-TreasuryTrade" style="stroke: #A80036; stroke-width: 1.0;"/><polygon fill="none" points="1605.95,195.166,1603.43,174.127,1618.52,189.001,1605.95,195.166" style="stroke: #A80036; stroke-width: 1.0;"/><!--link TreasuryTrade to ForeignExchangeSwap--><path d="M1631.56,295.585 C1620.32,315.113 1605.67,340.582 1595.41,358.417 " fill="none" id="TreasuryTrade-ForeignExchangeSwap" style="stroke: #A80036; stroke-width: 1.0;"/><polygon fill="none" points="1625.49,292.094,1641.53,278.248,1637.63,299.075,1625.49,292.094" style="stroke: #A80036; stroke-width: 1.0;"/><!--link TradeIdentification to Commission--><!--link TradePartyRole to TradeIdentification--><!--link Obligation to TradePartyRole--><!--link Negotiation to Obligation--><!--link MasterAgreement to Negotiation--><!--link System to MasterAgreement--><!--link Asset to System--><!--link Market to Asset--><!--link Guarantee to Market--><!--link Settlement to Guarantee--><!--link Order to Settlement--><!--link Leg to Order--><!--link FinancialTransaction to Leg--><!--link Reconciliation to FinancialTransaction--><!--link InformationPartyRole to TreasuryTradeSettlementStatus--><!--link TreasurySettlementPartyRole to InformationPartyRole--><!--link TreasuryTradePartyRole to TreasurySettlementPartyRole--><!--link Trade to Commission--><path d="M1446.45,123.652 C1384.62,136.686 1312.02,160.511 1259,204 C1210.57,243.726 1240.96,288.924 1192,328 C1170,345.557 1157.33,335.062 1131,345 C928.934,421.262 699.252,546.1 625.294,587.319 " fill="none" id="Trade-Commission" style="stroke: #A80036; stroke-width: 1.0;"/><polygon fill="#A80036" points="620.65,589.911,630.4582,589.0167,625.0158,587.4738,626.5587,582.0314,620.65,589.911" style="stroke: #A80036; stroke-width: 1.0;"/><text fill="#000000" font-family="sans-serif" font-size="13" lengthAdjust="spacingAndGlyphs" textLength="115" x="1132" y="385.0669">TradeCommission</text><text fill="#000000" font-family="sans-serif" font-size="13" lengthAdjust="spacingAndGlyphs" textLength="7" x="617.8578" y="578.9286">*</text><!--link Trade to TradeIdentification--><path d="M1446.32,120.732 C1367.83,133.072 1266.83,157.174 1188,204 C1148.52,227.454 1157.09,255.904 1118,280 C1076.68,305.467 1058.68,293.6 1013,310 C857.3,365.899 677.889,451.175 610.981,483.735 " fill="none" id="Trade-TradeIdentification" style="stroke: #A80036; stroke-width: 1.0;"/><polygon fill="#A80036" points="606.36,485.987,616.2027,485.6391,610.8545,483.7962,612.6974,478.4479,606.36,485.987" style="stroke: #A80036; stroke-width: 1.0;"/><text fill="#000000" font-family="sans-serif" font-size="13" lengthAdjust="spacingAndGlyphs" textLength="172" x="1014" y="323.0669">TradeRelatedIdentifications</text><text fill="#000000" font-family="sans-serif" font-size="13" lengthAdjust="spacingAndGlyphs" textLength="7" x="604.4134" y="475.0307">*</text><!--link Trade to TradePartyRole--><path d="M1446.53,126.153 C1354.08,141.586 1225.73,167.158 1117,204 C995.747,245.086 978.507,287.67 857,328 C787.715,350.997 704.569,365.374 650.808,373.036 " fill="none" id="Trade-TradePartyRole" style="stroke: #A80036; stroke-width: 1.0;"/><polygon fill="#A80036" points="645.698,373.757,655.1687,376.4601,650.6489,373.0583,654.0507,368.5386,645.698,373.757" style="stroke: #A80036; stroke-width: 1.0;"/><text fill="#000000" font-family="sans-serif" font-size="13" lengthAdjust="spacingAndGlyphs" textLength="96" x="1012" y="270.0669">TradePartyRole</text><text fill="#000000" font-family="sans-serif" font-size="13" lengthAdjust="spacingAndGlyphs" textLength="8" x="653.695" y="367.5237">1</text><!--link Trade to Obligation--><path d="M1446.69,115.04 C1226.48,128.439 776.85,160.223 626,204 C608.82,208.986 606.896,216.124 590,222 C533.629,241.606 465.318,253.699 423.26,259.885 " fill="none" id="Trade-Obligation" style="stroke: #A80036; stroke-width: 1.0;"/><polygon fill="#A80036" points="418.263,260.61,427.7444,263.2752,423.2111,259.8915,426.5948,255.3582,418.263,260.61" style="stroke: #A80036; stroke-width: 1.0;"/><text fill="#000000" font-family="sans-serif" font-size="13" lengthAdjust="spacingAndGlyphs" textLength="64" x="627" y="217.0669">Obligation</text><text fill="#000000" font-family="sans-serif" font-size="13" lengthAdjust="spacingAndGlyphs" textLength="7" x="426.9379" y="253.4838">*</text><!--link Trade to Negotiation--><path d="M1446.59,107 C1165.5,107 491.889,107 312.513,107 " fill="none" id="Trade-Negotiation" style="stroke: #A80036; stroke-width: 1.0;"/><polygon fill="#A80036" points="307.351,107,316.351,111,312.351,107,316.351,103,307.351,107" style="stroke: #A80036; stroke-width: 1.0;"/><text fill="#000000" font-family="sans-serif" font-size="13" lengthAdjust="spacingAndGlyphs" textLength="122" x="815.25" y="99.0669">RelatedNegotiation</text><text fill="#000000" font-family="sans-serif" font-size="13" lengthAdjust="spacingAndGlyphs" textLength="24" x="315.8146" y="101.6727">0..1</text><!--link Trade to MasterAgreement--><path d="M1446.59,113.845 C1266.37,125.318 924.146,158.48 649,252 C582.336,274.658 576.697,305.44 510,328 C462.723,343.991 447.651,333.869 399,345 C372.732,351.01 343.706,359.956 321.517,367.299 " fill="none" id="Trade-MasterAgreement" style="stroke: #A80036; stroke-width: 1.0;"/><polygon fill="#A80036" points="316.604,368.936,326.4068,369.8873,321.3478,367.3561,323.879,362.2972,316.604,368.936" style="stroke: #A80036; stroke-width: 1.0;"/><text fill="#000000" font-family="sans-serif" font-size="13" lengthAdjust="spacingAndGlyphs" textLength="132" x="650" y="270.0669">GoverningDocument</text><text fill="#000000" font-family="sans-serif" font-size="13" lengthAdjust="spacingAndGlyphs" textLength="24" x="297.9991" y="357.9622">0..1</text><!--link Trade to System--><path d="M1446.51,112.966 C1208.58,123.528 697.966,151.642 530,204 C514.422,208.856 513.353,216.472 498,222 C427.46,247.397 404.891,234.456 332,252 C327.858,252.997 323.526,254.16 319.273,255.374 " fill="none" id="Trade-System" style="stroke: #A80036; stroke-width: 1.0;"/><polygon fill="#A80036" points="314.334,256.814,324.094,258.134,319.134,255.414,321.854,250.454,314.334,256.814" style="stroke: #A80036; stroke-width: 1.0;"/><text fill="#000000" font-family="sans-serif" font-size="13" lengthAdjust="spacingAndGlyphs" textLength="49" x="531" y="217.0669">System</text><text fill="#000000" font-family="sans-serif" font-size="13" lengthAdjust="spacingAndGlyphs" textLength="8" x="322.8774" y="247.7097">1</text><!--link Trade to Asset--><path d="M1695.35,116.431 C1947.01,135.167 2493,185.031 2493,265 C2493,265 2493,265 2493,981 C2493,1034.8299 684.407,1061.386 445.859,1064.6545 " fill="none" id="Trade-Asset" style="stroke: #A80036; stroke-width: 1.0;"/><polygon fill="#A80036" points="440.517,1064.7274,449.571,1068.6036,445.5165,1064.6588,449.4613,1060.6043,440.517,1064.7274" style="stroke: #A80036; stroke-width: 1.0;"/><text fill="#000000" font-family="sans-serif" font-size="13" lengthAdjust="spacingAndGlyphs" textLength="36" x="2494" y="657.0669">Asset</text><text fill="#000000" font-family="sans-serif" font-size="13" lengthAdjust="spacingAndGlyphs" textLength="23" x="448.6573" y="1058.3111">1..*</text><!--link Trade to Market--><path d="M1527.71,174.036 C1500.32,219.905 1467.44,283.59 1453,345 C1450.77,354.462 1455,521.051 1455,550 C1455,550 1455,550 1455,895 C1455,949.242 577.658,973.944 404.482,978.292 " fill="none" id="Trade-Market" style="stroke: #A80036; stroke-width: 1.0;"/><polygon fill="#A80036" points="399.328,978.421,408.4257,982.1935,404.3264,978.2953,408.2246,974.196,399.328,978.421" style="stroke: #A80036; stroke-width: 1.0;"/><text fill="#000000" font-family="sans-serif" font-size="13" lengthAdjust="spacingAndGlyphs" textLength="44" x="1456" y="606.0669">Market</text><text fill="#000000" font-family="sans-serif" font-size="13" lengthAdjust="spacingAndGlyphs" textLength="8" x="407.5759" y="971.5513">1</text><!--link Trade to Guarantee--><path d="M1446.65,116.37 C1169.39,135.319 517.166,181.59 419,204 C397.193,208.978 393.679,216.491 372,222 C273.796,246.956 233.096,200.221 146,252 C55.2211,305.968 6,338.39 6,444 C6,444 6,444 6,793 C6,857.829 227.048,882.551 321.267,890.144 " fill="none" id="Trade-Guarantee" style="stroke: #A80036; stroke-width: 1.0;"/><polygon fill="#A80036" points="326.472,890.556,317.8154,885.8589,321.4876,890.1618,317.1847,893.834,326.472,890.556" style="stroke: #A80036; stroke-width: 1.0;"/><text fill="#000000" font-family="sans-serif" font-size="13" lengthAdjust="spacingAndGlyphs" textLength="68" x="7" y="555.0669">Guarantee</text><text fill="#000000" font-family="sans-serif" font-size="13" lengthAdjust="spacingAndGlyphs" textLength="8" x="310.8136" y="884.7324">1</text><!--link Trade to Settlement--><path d="M1446.67,161.244 C1429.3,173.167 1413.24,187.339 1401,204 C1307.88,330.722 1327,392.745 1327,550 C1327,550 1327,550 1327,705 C1327,751.997 591.257,782.49 404.63,789.469 " fill="none" id="Trade-Settlement" style="stroke: #A80036; stroke-width: 1.0;"/><polygon fill="#A80036" points="399.533,789.659,408.6764,793.3193,404.5295,789.4718,408.377,785.3249,399.533,789.659" style="stroke: #A80036; stroke-width: 1.0;"/><text fill="#000000" font-family="sans-serif" font-size="13" lengthAdjust="spacingAndGlyphs" textLength="72" x="1328" y="502.0669">Settlement</text><text fill="#000000" font-family="sans-serif" font-size="13" lengthAdjust="spacingAndGlyphs" textLength="8" x="407.6606" y="783.6077">1</text><!--link Trade to Order--><path d="M1446.52,135.073 C1404.86,149.51 1361.15,171.317 1330,204 C1257.37,280.204 1328.48,354.614 1253,428 C992.782,681.003 504.996,701.779 387.797,703.036 " fill="none" id="Trade-Order" style="stroke: #A80036; stroke-width: 1.0;"/><polygon fill="#A80036" points="382.498,703.082,391.532,707.0047,387.4978,703.0391,391.4634,699.005,382.498,703.082" style="stroke: #A80036; stroke-width: 1.0;"/><text fill="#000000" font-family="sans-serif" font-size="13" lengthAdjust="spacingAndGlyphs" textLength="36" x="1246" y="449.0669">Order</text><text fill="#000000" font-family="sans-serif" font-size="13" lengthAdjust="spacingAndGlyphs" textLength="8" x="390.8332" y="695.9397">1</text><!--link Trade to Leg--><path d="M1446.51,116.63 C1176.53,135.653 553.883,181.298 460,204 C439.463,208.966 436.428,216.605 416,222 C315.05,248.659 266.634,189.495 183,252 C118.665,300.081 119.662,350.852 142,428 C161.845,496.537 223.558,558.846 253.861,586.261 " fill="none" id="Trade-Leg" style="stroke: #A80036; stroke-width: 1.0;"/><polygon fill="#A80036" points="257.746,589.74,253.7089,580.7566,254.0209,586.4048,248.3726,586.7168,257.746,589.74" style="stroke: #A80036; stroke-width: 1.0;"/><text fill="#000000" font-family="sans-serif" font-size="13" lengthAdjust="spacingAndGlyphs" textLength="23" x="143" y="385.0669">Leg</text><text fill="#000000" font-family="sans-serif" font-size="13" lengthAdjust="spacingAndGlyphs" textLength="7" x="243.6994" y="578.9573">*</text><!--link Trade to FinancialTransaction--><path d="M1446.39,114.502 C1204,127.92 677.343,161.052 501,204 C480.471,209 477.392,216.471 457,222 C365.58,246.788 333.009,214.564 246,252 C202.977,270.511 165.153,281.826 173,328 C180.889,374.422 180.807,389.558 208,428 C224.407,451.195 250.697,470.688 269.896,482.974 " fill="none" id="Trade-FinancialTransaction" style="stroke: #A80036; stroke-width: 1.0;"/><polygon fill="#A80036" points="274.613,485.941,269.123,477.7642,270.3802,483.2796,264.8648,484.5367,274.613,485.941" style="stroke: #A80036; stroke-width: 1.0;"/><text fill="#000000" font-family="sans-serif" font-size="13" lengthAdjust="spacingAndGlyphs" textLength="129" x="174" y="323.0669">FinancialTransaction</text><text fill="#000000" font-family="sans-serif" font-size="13" lengthAdjust="spacingAndGlyphs" textLength="8" x="257.144" y="474.9689">1</text><!--link Trade to Reconciliation--><path d="M1446.7,126.744 C1305.11,149.644 1067.66,192.778 869,252 C771.07,281.193 751.355,304.104 652,328 C597.487,341.111 580.259,327.48 527,345 C511.679,350.04 495.762,358.728 483.634,366.187 " fill="none" id="Trade-Reconciliation" style="stroke: #A80036; stroke-width: 1.0;"/><polygon fill="#A80036" points="479.345,368.87,489.0964,367.4882,483.5839,366.2183,484.8538,360.7058,479.345,368.87" style="stroke: #A80036; stroke-width: 1.0;"/><text fill="#000000" font-family="sans-serif" font-size="13" lengthAdjust="spacingAndGlyphs" textLength="87" x="870" y="270.0669">Reconciliation</text><text fill="#000000" font-family="sans-serif" font-size="13" lengthAdjust="spacingAndGlyphs" textLength="8" x="474.1589" y="357.8735">1</text><!--link TreasuryTrade to TreasuryTradeSettlementStatus--><path d="M1660.97,278.173 C1676.15,292.107 1700.65,317.47 1712,345 C1744.16,423.011 1680.18,465.9 1730,534 C1801.7,631.998 1941.77,673.651 2034.88,691.022 " fill="none" id="TreasuryTrade-TreasuryTradeSettlementStatus" style="stroke: #A80036; stroke-width: 1.0;"/><polygon fill="#A80036" points="2039.84,691.932,2031.7226,686.3546,2034.9242,691.0182,2030.2606,694.2198,2039.84,691.932" style="stroke: #A80036; stroke-width: 1.0;"/><text fill="#000000" font-family="sans-serif" font-size="13" lengthAdjust="spacingAndGlyphs" textLength="205" x="1731" y="502.0669">TreasuryTradeSettlementStatus</text><text fill="#000000" font-family="sans-serif" font-size="13" lengthAdjust="spacingAndGlyphs" textLength="7" x="2009.4979" y="683.0054">*</text><!--link TreasuryTrade to InformationPartyRole--><path d="M1695.21,278.049 C1720.01,285.047 1750.29,295.538 1775,310 C1903.47,385.185 1905.93,443.35 2024,534 C2050.22,554.133 2082.44,574.444 2103.79,587.339 " fill="none" id="TreasuryTrade-InformationPartyRole" style="stroke: #A80036; stroke-width: 1.0;"/><polygon fill="#A80036" points="2108.17,589.976,2102.5105,581.9156,2103.8825,587.4035,2098.3946,588.7755,2108.17,589.976" style="stroke: #A80036; stroke-width: 1.0;"/><text fill="#000000" font-family="sans-serif" font-size="13" lengthAdjust="spacingAndGlyphs" textLength="133" x="1938" y="449.0669">InformationPartyRole</text><text fill="#000000" font-family="sans-serif" font-size="13" lengthAdjust="spacingAndGlyphs" textLength="8" x="2090.9784" y="579.016">1</text><!--link TreasuryTrade to TreasurySettlementPartyRole--><path d="M1696.16,267.375 C1779.93,268.949 1957.47,276.371 2103,310 C2146.03,319.943 2170.87,308.686 2196,345 C2216.99,375.332 2208.92,393.448 2196,428 C2187.72,450.154 2168.75,469.892 2154.34,482.523 " fill="none" id="TreasuryTrade-TreasurySettlementPartyRole" style="stroke: #A80036; stroke-width: 1.0;"/><polygon fill="#A80036" points="2150.41,485.893,2159.8449,483.0676,2154.2045,482.6369,2154.6352,476.9965,2150.41,485.893" style="stroke: #A80036; stroke-width: 1.0;"/><text fill="#000000" font-family="sans-serif" font-size="13" lengthAdjust="spacingAndGlyphs" textLength="187" x="2210" y="385.0669">TreasurySettlementPartyRole</text><text fill="#000000" font-family="sans-serif" font-size="13" lengthAdjust="spacingAndGlyphs" textLength="7" x="2145.8166" y="474.9044">*</text><!--link TreasuryTrade to TreasuryTradePartyRole--><path d="M1696.21,266.014 C1765.1,266.126 1894.69,272.039 1997,310 C2031.37,322.754 2065.67,348.745 2085.31,365.218 " fill="none" id="TreasuryTrade-TreasuryTradePartyRole" style="stroke: #A80036; stroke-width: 1.0;"/><polygon fill="#A80036" points="2089.51,368.782,2085.249,359.9026,2085.7025,365.5412,2080.0638,365.9947,2089.51,368.782" style="stroke: #A80036; stroke-width: 1.0;"/><text fill="#000000" font-family="sans-serif" font-size="13" lengthAdjust="spacingAndGlyphs" textLength="60" x="2033" y="323.0669">PartyRole</text><text fill="#000000" font-family="sans-serif" font-size="13" lengthAdjust="spacingAndGlyphs" textLength="7" x="2075.7993" y="358.0132">*</text><!--link ForeignExchangeSwap to ForeignExchangeTrade--><path d="M1583,403.631 C1583,426.088 1583,460.699 1583,480.872 " fill="none" id="ForeignExchangeSwap-ForeignExchangeTrade" style="stroke: #A80036; stroke-width: 1.0;"/><polygon fill="#A80036" points="1583,485.915,1587,476.915,1583,480.915,1579,476.915,1583,485.915" style="stroke: #A80036; stroke-width: 1.0;"/><text fill="#000000" font-family="sans-serif" font-size="13" lengthAdjust="spacingAndGlyphs" textLength="57" x="1584" y="449.0669">SwapLeg</text><text fill="#000000" font-family="sans-serif" font-size="13" lengthAdjust="spacingAndGlyphs" textLength="24" x="1553.3594" y="474.934">2..2</text><!--link Obligation to Obligation--><path d="M418.437,256.622 C436.569,255.104 453,258.23 453,266 C453,273.041 439.505,276.269 423.48,275.682 " fill="none" id="Obligation-Obligation" style="stroke: #A80036; stroke-width: 1.0;"/><polygon fill="#A80036" points="418.437,275.378,427.1794,279.9134,423.4279,275.6795,427.6618,271.9279,418.437,275.378" style="stroke: #A80036; stroke-width: 1.0;"/><text fill="#000000" font-family="sans-serif" font-size="13" lengthAdjust="spacingAndGlyphs" textLength="106" x="459" y="270.0669">ParentObligation</text><text fill="#000000" font-family="sans-serif" font-size="13" lengthAdjust="spacingAndGlyphs" textLength="8" x="426.7904" y="291.1549">1</text><!--link Negotiation to System--><path d="M265.676,119.238 C261.835,139.957 255.478,185.403 265,222 C267.496,231.593 272.653,241.316 277.55,249.084 " fill="none" id="Negotiation-System" style="stroke: #A80036; stroke-width: 1.0;"/><polygon fill="#A80036" points="280.539,253.65,278.9557,243.9292,277.8002,249.4668,272.2626,248.3113,280.539,253.65" style="stroke: #A80036; stroke-width: 1.0;"/><text fill="#000000" font-family="sans-serif" font-size="13" lengthAdjust="spacingAndGlyphs" textLength="96" x="266" y="217.0669">TradingSystem</text><text fill="#000000" font-family="sans-serif" font-size="13" lengthAdjust="spacingAndGlyphs" textLength="24" x="248.3472" y="242.8375">0..1</text><!--link System to Reconciliation--><path d="M314.477,275.146 C335.459,282.497 365.476,294.525 389,310 C412.768,325.636 435.887,349.263 449.786,364.664 " fill="none" id="System-Reconciliation" style="stroke: #A80036; stroke-width: 1.0;"/><polygon fill="#A80036" points="453.455,368.776,450.4489,359.3971,450.1266,365.0448,444.479,364.7225,453.455,368.776" style="stroke: #A80036; stroke-width: 1.0;"/><text fill="#000000" font-family="sans-serif" font-size="13" lengthAdjust="spacingAndGlyphs" textLength="87" x="413" y="323.0669">Reconciliation</text><text fill="#000000" font-family="sans-serif" font-size="13" lengthAdjust="spacingAndGlyphs" textLength="8" x="439.5542" y="358.0052">1</text><!--link Asset to Leg--><path d="M399.539,1063.5696 C356.596,1059.3419 261,1042.9709 261,981 C261,703 261,703 261,703 C261,673.336 265.411,638.967 268.373,619.226 " fill="none" id="Asset-Leg" style="stroke: #A80036; stroke-width: 1.0;"/><polygon fill="#A80036" points="269.166,614.062,263.8467,622.3509,268.4073,619.0041,271.7541,623.5647,269.166,614.062" style="stroke: #A80036; stroke-width: 1.0;"/><text fill="#000000" font-family="sans-serif" font-size="13" lengthAdjust="spacingAndGlyphs" textLength="159" x="262" y="847.0669">LegAdditionalInformation</text><text fill="#000000" font-family="sans-serif" font-size="13" lengthAdjust="spacingAndGlyphs" textLength="7" x="258.347" y="634.2321">*</text></g></svg>