<?xml version="1.0" encoding="UTF-8" standalone="no"?><svg xmlns="http://www.w3.org/2000/svg" xmlns:xlink="http://www.w3.org/1999/xlink" contentScriptType="application/ecmascript" contentStyleType="text/css" height="430px" preserveAspectRatio="none" style="width:1061px;height:430px;" version="1.1" viewBox="0 0 1061 430" width="1061px" zoomAndPan="magnify"><defs><filter height="300%" id="f121i077342pdf" width="300%" x="-1" y="-1"><feGaussianBlur result="blurOut" stdDeviation="2.0"/><feColorMatrix in="blurOut" result="blurOut2" type="matrix" values="0 0 0 0 0 0 0 0 0 0 0 0 0 0 0 0 0 0 .4 0"/><feOffset dx="4.0" dy="4.0" in="blurOut2" result="blurOut3"/><feBlend in="SourceGraphic" in2="blurOut3" mode="normal"/></filter></defs><g><!--cluster ##12087--><!--cluster ##12090--><!--class FundsCashFlow--><a target="_top" xlink:actuate="onRequest" xlink:href="../FundsCashFlow.html" xlink:show="new" xlink:title="Cash movements from or to a fund as a result of investment funds transactions, for example, subscriptions or redemptions." xlink:type="simple"><rect fill="#FEFECE" filter="url(#f121i077342pdf)" height="70.3828" id="FundsCashFlow" style="stroke: #A80036; stroke-width: 1.5;" width="289" x="431.75" y="40"/><rect fill="#FEFECE" height="23.9688" style="stroke: #A80036; stroke-width: 1.5;" width="289" x="431.75" y="40"/><text fill="#000000" font-family="sans-serif" font-size="12" lengthAdjust="spacingAndGlyphs" textLength="96" x="528.25" y="56.1387">FundsCashFlow</text><line style="stroke: #A80036; stroke-width: 1.5;" x1="432.75" x2="719.75" y1="63.9688" y2="63.9688"/><ellipse cx="442.75" cy="75.8711" fill="#84BE84" rx="3" ry="3" style="stroke: #038048; stroke-width: 1.0;"/><text fill="#000000" font-family="sans-serif" font-size="11" lengthAdjust="spacingAndGlyphs" textLength="167" x="451.75" y="78.1792">ExceptionalCashFlowIndicator</text><text fill="#000000" font-family="sans-serif" font-size="11" font-style="italic" lengthAdjust="spacingAndGlyphs" textLength="92" x="622.75" y="78.1792">(YesNoIndicator)</text><ellipse cx="442.75" cy="88.6758" fill="#84BE84" rx="3" ry="3" style="stroke: #038048; stroke-width: 1.0;"/><text fill="#000000" font-family="sans-serif" font-size="11" lengthAdjust="spacingAndGlyphs" textLength="75" x="451.75" y="90.9839">FlowDirection</text><text fill="#000000" font-family="sans-serif" font-size="11" font-style="italic" lengthAdjust="spacingAndGlyphs" textLength="140" x="530.75" y="90.9839">(FlowDirectionTypeCode)</text><ellipse cx="442.75" cy="101.4805" fill="#84BE84" rx="3" ry="3" style="stroke: #038048; stroke-width: 1.0;"/><text fill="#000000" font-family="sans-serif" font-size="11" lengthAdjust="spacingAndGlyphs" textLength="68" x="451.75" y="103.7886">NetIndicator</text><text fill="#000000" font-family="sans-serif" font-size="11" font-style="italic" lengthAdjust="spacingAndGlyphs" textLength="92" x="523.75" y="103.7886">(YesNoIndicator)</text></a><!--class BookEntry--><a target="_top" xlink:actuate="onRequest" xlink:href="../BookEntry.html" xlink:show="new" xlink:title="Movement of cash between two accounts. One account is debited and the other account is credited." xlink:type="simple"><rect fill="#EEEEEE" filter="url(#f121i077342pdf)" height="23.9688" id="BookEntry" style="stroke: #A80036; stroke-width: 1.5;" width="69" x="75.75" y="294"/><rect fill="#EEEEEE" height="23.9688" style="stroke: #A80036; stroke-width: 1.5;" width="69" x="75.75" y="294"/><text fill="#000000" font-family="sans-serif" font-size="12" lengthAdjust="spacingAndGlyphs" textLength="63" x="78.75" y="310.1387">BookEntry</text></a><!--class InvestmentFundOrderExecution--><a target="_top" xlink:actuate="onRequest" xlink:href="../InvestmentFundOrderExecution.html" xlink:show="new" xlink:title="Creation/cancellation of investment units on the books of the fund or its designated agent, as a result of executing an investment fund order." xlink:type="simple"><rect fill="#EEEEEE" filter="url(#f121i077342pdf)" height="23.9688" id="InvestmentFundOrderExecution" style="stroke: #A80036; stroke-width: 1.5;" width="202" x="38" y="192"/><rect fill="#EEEEEE" height="23.9688" style="stroke: #A80036; stroke-width: 1.5;" width="202" x="38" y="192"/><text fill="#000000" font-family="sans-serif" font-size="12" lengthAdjust="spacingAndGlyphs" textLength="196" x="41" y="208.1387">InvestmentFundOrderExecution</text></a><!--class NetAssetValueCalculation--><a target="_top" xlink:actuate="onRequest" xlink:href="../NetAssetValueCalculation.html" xlink:show="new" xlink:title="Calculation of the net asset value for an investment fund/fund class." xlink:type="simple"><rect fill="#EEEEEE" filter="url(#f121i077342pdf)" height="23.9688" id="NetAssetValueCalculation" style="stroke: #A80036; stroke-width: 1.5;" width="167" x="85.75" y="396"/><rect fill="#EEEEEE" height="23.9688" style="stroke: #A80036; stroke-width: 1.5;" width="167" x="85.75" y="396"/><text fill="#000000" font-family="sans-serif" font-size="12" lengthAdjust="spacingAndGlyphs" textLength="161" x="88.75" y="412.1387">NetAssetValueCalculation</text></a><!--class SecuritiesQuantity--><a target="_top" xlink:actuate="onRequest" xlink:href="../SecuritiesQuantity.html" xlink:show="new" xlink:title="Quantity of a security." xlink:type="simple"><rect fill="#EEEEEE" filter="url(#f121i077342pdf)" height="23.9688" id="SecuritiesQuantity" style="stroke: #A80036; stroke-width: 1.5;" width="120" x="180.5" y="294"/><rect fill="#EEEEEE" height="23.9688" style="stroke: #A80036; stroke-width: 1.5;" width="120" x="180.5" y="294"/><text fill="#000000" font-family="sans-serif" font-size="12" lengthAdjust="spacingAndGlyphs" textLength="114" x="183.5" y="310.1387">SecuritiesQuantity</text></a><!--link InvestmentFundOrderExecution to BookEntry--><!--link NetAssetValueCalculation to InvestmentFundOrderExecution--><!--link SecuritiesQuantity to NetAssetValueCalculation--><!--link NetAssetValueCalculation to SecuritiesQuantity--><path d="M143.732,395.7961 C122.113,384.6063 96.467,366.4582 110,348 C118.598,336.273 148.898,326.357 178.084,319.215 " fill="none" id="NetAssetValueCalculation-SecuritiesQuantity" style="stroke: #A80036; stroke-width: 1.0;"/><polygon fill="#A80036" points="183.133,318.004,173.4484,316.2129,178.2708,319.1699,175.3138,323.9923,183.133,318.004" style="stroke: #A80036; stroke-width: 1.0;"/><text fill="#000000" font-family="sans-serif" font-size="13" lengthAdjust="spacingAndGlyphs" textLength="117" x="111" y="361.0669">SecuritiesQuantity</text><text fill="#000000" font-family="sans-serif" font-size="13" lengthAdjust="spacingAndGlyphs" textLength="7" x="165.6596" y="333.07">*</text><!--link FundsCashFlow to BookEntry--><path d="M569.645,110.128 C561.929,142.04 545.787,188.752 514,216 C392.339,320.285 319.368,263.8 162,294 C157.897,294.787 153.618,295.641 149.354,296.511 " fill="none" id="FundsCashFlow-BookEntry" style="stroke: #A80036; stroke-width: 1.0;"/><polygon fill="#A80036" points="144.367,297.539,153.9895,299.6386,149.2639,296.529,152.3735,291.8035,144.367,297.539" style="stroke: #A80036; stroke-width: 1.0;"/><text fill="#000000" font-family="sans-serif" font-size="13" lengthAdjust="spacingAndGlyphs" textLength="195" x="551" y="208.0669">FundSubscriptionAccountEntry</text><text fill="#000000" font-family="sans-serif" font-size="13" lengthAdjust="spacingAndGlyphs" textLength="24" x="148.4975" y="309.3837">0..1</text><!--link FundsCashFlow to BookEntry--><path d="M431.579,97.774 C387.049,111.202 341.5,132.91 310,168 C280.759,200.573 318.935,233.031 288,264 C285.517,266.486 201.111,285.191 149.436,296.459 " fill="none" id="FundsCashFlow-BookEntry" style="stroke: #A80036; stroke-width: 1.0;"/><polygon fill="#A80036" points="144.542,297.526,154.1872,299.5187,149.4274,296.4618,152.4844,291.7021,144.542,297.526" style="stroke: #A80036; stroke-width: 1.0;"/><text fill="#000000" font-family="sans-serif" font-size="13" lengthAdjust="spacingAndGlyphs" textLength="193" x="311" y="208.0669">FundRedemptionAccountEntry</text><text fill="#000000" font-family="sans-serif" font-size="13" lengthAdjust="spacingAndGlyphs" textLength="24" x="148.4106" y="289.4335">0..1</text><!--link FundsCashFlow to InvestmentFundOrderExecution--><path d="M431.619,91.654 C342.27,103.151 237.187,120.487 197,142 C176.685,152.875 159.39,173.497 149.103,187.732 " fill="none" id="FundsCashFlow-InvestmentFundOrderExecution" style="stroke: #A80036; stroke-width: 1.0;"/><polygon fill="#A80036" points="146.14,191.927,154.5999,186.8842,149.0249,187.8432,148.0659,182.2683,146.14,191.927" style="stroke: #A80036; stroke-width: 1.0;"/><text fill="#000000" font-family="sans-serif" font-size="13" lengthAdjust="spacingAndGlyphs" textLength="84" x="198" y="155.0669">RelatedOrder</text><text fill="#000000" font-family="sans-serif" font-size="13" lengthAdjust="spacingAndGlyphs" textLength="8" x="137.8756" y="180.9501">1</text><!--link FundsCashFlow to NetAssetValueCalculation--><path d="M720.377,87.306 C838.123,102.38 975.924,137.063 916,216 C836.314,320.969 437.276,377.4594 257.297,397.9461 " fill="none" id="FundsCashFlow-NetAssetValueCalculation" style="stroke: #A80036; stroke-width: 1.0;"/><polygon fill="#A80036" points="252.299,398.5122,261.6921,401.4736,257.2672,397.9494,260.7915,393.5245,252.299,398.5122" style="stroke: #A80036; stroke-width: 1.0;"/><text fill="#000000" font-family="sans-serif" font-size="13" lengthAdjust="spacingAndGlyphs" textLength="165" x="884" y="259.0669">NetAssetValueCalculation</text><text fill="#000000" font-family="sans-serif" font-size="13" lengthAdjust="spacingAndGlyphs" textLength="8" x="260.8679" y="392.8165">1</text><!--link FundsCashFlow to SecuritiesQuantity--><path d="M696.524,110.045 C759.637,134.118 817.17,170.223 782,216 C724.914,290.304 436.058,302.975 304.924,304.852 " fill="none" id="FundsCashFlow-SecuritiesQuantity" style="stroke: #A80036; stroke-width: 1.0;"/><polygon fill="#A80036" points="299.563,304.924,308.6159,308.8028,304.5625,304.8569,308.5085,300.8035,299.563,304.924" style="stroke: #A80036; stroke-width: 1.0;"/><text fill="#000000" font-family="sans-serif" font-size="13" lengthAdjust="spacingAndGlyphs" textLength="113" x="793" y="208.0669">CashFlowQuantity</text><text fill="#000000" font-family="sans-serif" font-size="13" lengthAdjust="spacingAndGlyphs" textLength="8" x="308.4312" y="299.6558">1</text><!--link InvestmentFundOrderExecution to SecuritiesQuantity--><path d="M150.195,216.084 C168.471,234.18 204.724,270.073 225.136,290.283 " fill="none" id="InvestmentFundOrderExecution-SecuritiesQuantity" style="stroke: #A80036; stroke-width: 1.0;"/><polygon fill="#A80036" points="228.755,293.867,225.1731,284.6926,225.2017,290.3494,219.5449,290.3779,228.755,293.867" style="stroke: #A80036; stroke-width: 1.0;"/><text fill="#000000" font-family="sans-serif" font-size="13" lengthAdjust="spacingAndGlyphs" textLength="85" x="200" y="259.0669">UnitsNumber</text><text fill="#000000" font-family="sans-serif" font-size="13" lengthAdjust="spacingAndGlyphs" textLength="8" x="213.9989" y="282.8695">1</text></g></svg>