<?xml version="1.0" encoding="UTF-8" standalone="no"?><svg xmlns="http://www.w3.org/2000/svg" xmlns:xlink="http://www.w3.org/1999/xlink" contentScriptType="application/ecmascript" contentStyleType="text/css" height="520px" preserveAspectRatio="none" style="width:1231px;height:520px;" version="1.1" viewBox="0 0 1231 520" width="1231px" zoomAndPan="magnify"><defs><filter height="300%" id="f1jlfc2e18nofe" width="300%" x="-1" y="-1"><feGaussianBlur result="blurOut" stdDeviation="2.0"/><feColorMatrix in="blurOut" result="blurOut2" type="matrix" values="0 0 0 0 0 0 0 0 0 0 0 0 0 0 0 0 0 0 .4 0"/><feOffset dx="4.0" dy="4.0" in="blurOut2" result="blurOut3"/><feBlend in="SourceGraphic" in2="blurOut3" mode="normal"/></filter></defs><g><!--cluster ##14588--><!--cluster ##14597--><!--cluster ##14606--><!--cluster ##14611--><!--class Role--><a target="_top" xlink:actuate="onRequest" xlink:href="../Role.html" xlink:show="new" xlink:title="Role of a party in an activity." xlink:type="simple"><rect fill="#FEFEEE" filter="url(#f1jlfc2e18nofe)" height="44.7734" id="Role" style="stroke: #A80036; stroke-width: 1.5;" width="175" x="148.75" y="40.5"/><rect fill="#FEFEEE" height="23.9688" style="stroke: #A80036; stroke-width: 1.5;" width="175" x="148.75" y="40.5"/><text fill="#000000" font-family="sans-serif" font-size="12" lengthAdjust="spacingAndGlyphs" textLength="27" x="222.75" y="56.6387">Role</text><line style="stroke: #A80036; stroke-width: 1.5;" x1="149.75" x2="322.75" y1="64.4688" y2="64.4688"/><ellipse cx="159.75" cy="76.3711" fill="#84BE84" rx="3" ry="3" style="stroke: #038048; stroke-width: 1.0;"/><text fill="#000000" font-family="sans-serif" font-size="11" lengthAdjust="spacingAndGlyphs" textLength="53" x="168.75" y="78.6792">PartyRole</text><text fill="#000000" font-family="sans-serif" font-size="11" font-style="italic" lengthAdjust="spacingAndGlyphs" textLength="92" x="225.75" y="78.6792">(PartyRoleCode)</text></a><!--class InvestmentFundPartyRole--><a target="_top" xlink:actuate="onRequest" xlink:href="../InvestmentFundPartyRole.html" xlink:show="new" xlink:title="Specifies roles played by a party that are linked to the handling of investment funds but not related to a specific process." xlink:type="simple"><rect fill="#FEFEEE" filter="url(#f1jlfc2e18nofe)" height="23.9688" id="InvestmentFundPartyRole" style="stroke: #A80036; stroke-width: 1.5;" width="165" x="156.75" y="166"/><rect fill="#FEFEEE" height="23.9688" style="stroke: #A80036; stroke-width: 1.5;" width="165" x="156.75" y="166"/><text fill="#000000" font-family="sans-serif" font-size="12" lengthAdjust="spacingAndGlyphs" textLength="159" x="159.75" y="182.1387">InvestmentFundPartyRole</text></a><!--class FundOrderDesk--><a target="_top" xlink:actuate="onRequest" xlink:href="../FundOrderDesk.html" xlink:show="new" xlink:title="Principal entity appointed by the fund to which orders should be submitted." xlink:type="simple"><rect fill="#FEFECE" filter="url(#f1jlfc2e18nofe)" height="44.7734" id="FundOrderDesk" style="stroke: #A80036; stroke-width: 1.5;" width="285" x="38.75" y="268.5"/><rect fill="#FEFECE" height="23.9688" style="stroke: #A80036; stroke-width: 1.5;" width="285" x="38.75" y="268.5"/><text fill="#000000" font-family="sans-serif" font-size="12" lengthAdjust="spacingAndGlyphs" textLength="97" x="132.75" y="284.6387">FundOrderDesk</text><line style="stroke: #A80036; stroke-width: 1.5;" x1="39.75" x2="322.75" y1="292.4688" y2="292.4688"/><ellipse cx="49.75" cy="304.3711" fill="#84BE84" rx="3" ry="3" style="stroke: #038048; stroke-width: 1.0;"/><text fill="#000000" font-family="sans-serif" font-size="11" lengthAdjust="spacingAndGlyphs" textLength="163" x="58.75" y="306.6792">MainFundOrderDeskIndicator</text><text fill="#000000" font-family="sans-serif" font-size="11" font-style="italic" lengthAdjust="spacingAndGlyphs" textLength="92" x="225.75" y="306.6792">(YesNoIndicator)</text></a><!--class RolePlayer--><a target="_top" xlink:actuate="onRequest" xlink:href="../RolePlayer.html" xlink:show="new" xlink:title="Type of entity that plays a specific role in a specific context." xlink:type="simple"><rect fill="#EEEEEE" filter="url(#f1jlfc2e18nofe)" height="23.9688" id="RolePlayer" style="stroke: #A80036; stroke-width: 1.5;" width="71" x="806.75" y="486"/><rect fill="#EEEEEE" height="23.9688" style="stroke: #A80036; stroke-width: 1.5;" width="71" x="806.75" y="486"/><text fill="#000000" font-family="sans-serif" font-size="12" lengthAdjust="spacingAndGlyphs" textLength="65" x="809.75" y="502.1387">RolePlayer</text></a><!--class ContactPersonRole--><a target="_top" xlink:actuate="onRequest" xlink:href="../ContactPersonRole.html" xlink:show="new" xlink:title="Person to be contacted in a given organisation. In the corporate action domain (including meeting notifications) , it is the contact person at the party organising the meeting, at the issuer or at an intermediary." xlink:type="simple"><rect fill="#EEEEEE" filter="url(#f1jlfc2e18nofe)" height="23.9688" id="ContactPersonRole" style="stroke: #A80036; stroke-width: 1.5;" width="126" x="759" y="396"/><rect fill="#EEEEEE" height="23.9688" style="stroke: #A80036; stroke-width: 1.5;" width="126" x="759" y="396"/><text fill="#000000" font-family="sans-serif" font-size="12" lengthAdjust="spacingAndGlyphs" textLength="120" x="762" y="412.1387">ContactPersonRole</text></a><!--class CounterpartyRisk--><a target="_top" xlink:actuate="onRequest" xlink:href="../CounterpartyRisk.html" xlink:show="new" xlink:title="Calculation of the exposure amount that one party has vis-a-vis one counterparty or a central system, based on its credit risk." xlink:type="simple"><rect fill="#EEEEEE" filter="url(#f1jlfc2e18nofe)" height="23.9688" id="CounterpartyRisk" style="stroke: #A80036; stroke-width: 1.5;" width="113" x="771.75" y="279"/><rect fill="#EEEEEE" height="23.9688" style="stroke: #A80036; stroke-width: 1.5;" width="113" x="771.75" y="279"/><text fill="#000000" font-family="sans-serif" font-size="12" lengthAdjust="spacingAndGlyphs" textLength="107" x="774.75" y="295.1387">CounterpartyRisk</text></a><!--class Entry--><a target="_top" xlink:actuate="onRequest" xlink:href="../Entry.html" xlink:show="new" xlink:title="Posting to an account that results in an increase or decrease to a balance." xlink:type="simple"><rect fill="#EEEEEE" filter="url(#f1jlfc2e18nofe)" height="23.9688" id="Entry" style="stroke: #A80036; stroke-width: 1.5;" width="38" x="759" y="166"/><rect fill="#EEEEEE" height="23.9688" style="stroke: #A80036; stroke-width: 1.5;" width="38" x="759" y="166"/><text fill="#000000" font-family="sans-serif" font-size="12" lengthAdjust="spacingAndGlyphs" textLength="32" x="762" y="182.1387">Entry</text></a><!--class Account--><a target="_top" xlink:actuate="onRequest" xlink:href="../Account.html" xlink:show="new" xlink:title="Record of transactions in specific types of assets, maintained by a servicing party on behalf of one or more owning parties. Business relationship between an account servicer and one or more account owners." xlink:type="simple"><rect fill="#EEEEEE" filter="url(#f1jlfc2e18nofe)" height="23.9688" id="Account" style="stroke: #A80036; stroke-width: 1.5;" width="57" x="380.75" y="396"/><rect fill="#EEEEEE" height="23.9688" style="stroke: #A80036; stroke-width: 1.5;" width="57" x="380.75" y="396"/><text fill="#000000" font-family="sans-serif" font-size="12" lengthAdjust="spacingAndGlyphs" textLength="51" x="383.75" y="412.1387">Account</text></a><!--class InvestmentFund--><a target="_top" xlink:actuate="onRequest" xlink:href="../InvestmentFund.html" xlink:show="new" xlink:title="Distinct pool of financial instruments managed by a single investment policy. May or not be part of an umbrella fund. The pool is issued in at least one investment fund class." xlink:type="simple"><rect fill="#EEEEEE" filter="url(#f1jlfc2e18nofe)" height="23.9688" id="InvestmentFund" style="stroke: #A80036; stroke-width: 1.5;" width="106" x="380.5" y="279"/><rect fill="#EEEEEE" height="23.9688" style="stroke: #A80036; stroke-width: 1.5;" width="106" x="380.5" y="279"/><text fill="#000000" font-family="sans-serif" font-size="12" lengthAdjust="spacingAndGlyphs" textLength="100" x="383.5" y="295.1387">InvestmentFund</text></a><!--class InvestmentAccount--><a target="_top" xlink:actuate="onRequest" xlink:href="../InvestmentAccount.html" xlink:show="new" xlink:title="Account between an investor(s) and a fund manager or a fund. The account can contain holdings in any investment fund or investment fund class managed (or distributed) by the fund manager, within the same fund family." xlink:type="simple"><rect fill="#EEEEEE" filter="url(#f1jlfc2e18nofe)" height="23.9688" id="InvestmentAccount" style="stroke: #A80036; stroke-width: 1.5;" width="126" x="101" y="396"/><rect fill="#EEEEEE" height="23.9688" style="stroke: #A80036; stroke-width: 1.5;" width="126" x="101" y="396"/><text fill="#000000" font-family="sans-serif" font-size="12" lengthAdjust="spacingAndGlyphs" textLength="120" x="104" y="412.1387">InvestmentAccount</text></a><!--link Role to InvestmentFundPartyRole--><path d="M237.103,105.559 C237.677,127.159 238.334,151.898 238.704,165.865 " fill="none" id="Role-InvestmentFundPartyRole" style="stroke: #A80036; stroke-width: 1.0;"/><polygon fill="none" points="230.105,105.699,236.571,85.52,244.1,105.328,230.105,105.699" style="stroke: #A80036; stroke-width: 1.0;"/><!--link InvestmentFundPartyRole to FundOrderDesk--><path d="M223.918,207.864 C214.032,226.784 201.317,251.118 192.299,268.376 " fill="none" id="InvestmentFundPartyRole-FundOrderDesk" style="stroke: #A80036; stroke-width: 1.0;"/><polygon fill="none" points="217.76,204.533,233.227,190.049,230.169,211.017,217.76,204.533" style="stroke: #A80036; stroke-width: 1.0;"/><!--link ContactPersonRole to RolePlayer--><!--link CounterpartyRisk to ContactPersonRole--><!--link Entry to CounterpartyRisk--><!--link InvestmentFund to Account--><!--link Role to RolePlayer--><path d="M323.446,65.394 C557.221,70.275 1179,91.311 1179,177 C1179,177 1179,177 1179,409 C1179,469.6217 972.27,489.2654 882.642,494.9332 " fill="none" id="Role-RolePlayer" style="stroke: #A80036; stroke-width: 1.0;"/><polygon fill="#A80036" points="877.428,495.2555,886.6577,498.6924,882.4185,494.9469,886.164,490.7077,877.428,495.2555" style="stroke: #A80036; stroke-width: 1.0;"/><text fill="#000000" font-family="sans-serif" font-size="13" lengthAdjust="spacingAndGlyphs" textLength="39" x="1180" y="295.0669">Player</text><text fill="#000000" font-family="sans-serif" font-size="13" lengthAdjust="spacingAndGlyphs" textLength="7" x="885.8888" y="488.8806">*</text><!--link Role to ContactPersonRole--><path d="M323.424,66.795 C506.592,73.585 917.076,94.042 957,142 C996.178,189.063 950.106,268.795 902,338 C886.366,360.491 861.747,380.223 843.947,392.761 " fill="none" id="Role-ContactPersonRole" style="stroke: #A80036; stroke-width: 1.0;"/><polygon fill="#A80036" points="839.578,395.791,849.2529,393.948,843.6863,392.9412,844.6931,387.3746,839.578,395.791" style="stroke: #A80036; stroke-width: 1.0;"/><text fill="#000000" font-family="sans-serif" font-size="13" lengthAdjust="spacingAndGlyphs" textLength="121" x="966" y="233.0669">ContactPersonRole</text><text fill="#000000" font-family="sans-serif" font-size="13" lengthAdjust="spacingAndGlyphs" textLength="8" x="834.7445" y="385.0252">1</text><!--link Role to CounterpartyRisk--><path d="M323.298,63.061 C467.991,63.501 748.138,73.461 814,142 C848.486,177.887 838.96,243.69 832.161,273.974 " fill="none" id="Role-CounterpartyRisk" style="stroke: #A80036; stroke-width: 1.0;"/><polygon fill="#A80036" points="831.017,278.861,836.9635,271.01,832.1569,273.9927,829.1742,269.1861,831.017,278.861" style="stroke: #A80036; stroke-width: 1.0;"/><text fill="#000000" font-family="sans-serif" font-size="13" lengthAdjust="spacingAndGlyphs" textLength="109" x="838" y="182.0669">CounterpartyRisk</text><text fill="#000000" font-family="sans-serif" font-size="13" lengthAdjust="spacingAndGlyphs" textLength="24" x="802.4994" y="267.8614">0..1</text><!--link Role to Entry--><path d="M323.383,82.218 C450.287,108.676 678.611,156.279 753.487,171.889 " fill="none" id="Role-Entry" style="stroke: #A80036; stroke-width: 1.0;"/><polygon fill="#A80036" points="758.61,172.957,750.6154,167.2049,753.7152,171.9369,748.9832,175.0367,758.61,172.957" style="stroke: #A80036; stroke-width: 1.0;"/><text fill="#000000" font-family="sans-serif" font-size="13" lengthAdjust="spacingAndGlyphs" textLength="33" x="573" y="129.0669">Entry</text><text fill="#000000" font-family="sans-serif" font-size="13" lengthAdjust="spacingAndGlyphs" textLength="8" x="743.0552" y="165.4063">1</text><!--link InvestmentFundPartyRole to Account--><path d="M321.289,185.483 C363.027,190.995 413.701,201.182 456,220 C479.472,230.442 490.591,231.983 502,255 C518.383,288.051 518.583,305.048 502,338 C489.091,363.652 461.634,382.16 439.883,393.509 " fill="none" id="InvestmentFundPartyRole-Account" style="stroke: #A80036; stroke-width: 1.0;"/><polygon fill="#A80036" points="435.335,395.823,445.1703,395.3066,439.7913,393.5556,441.5424,388.1766,435.335,395.823" style="stroke: #A80036; stroke-width: 1.0;"/><text fill="#000000" font-family="sans-serif" font-size="13" lengthAdjust="spacingAndGlyphs" textLength="52" x="516" y="295.0669">Account</text><text fill="#000000" font-family="sans-serif" font-size="13" lengthAdjust="spacingAndGlyphs" textLength="7" x="434.7548" y="384.8104">*</text><!--link InvestmentFundPartyRole to InvestmentFund--><path d="M258.311,190.049 C294.044,210.494 370.371,254.166 409.221,276.394 " fill="none" id="InvestmentFundPartyRole-InvestmentFund" style="stroke: #A80036; stroke-width: 1.0;"/><polygon fill="#A80036" points="413.767,278.996,407.9433,271.0534,409.4276,276.5121,403.969,277.9964,413.767,278.996" style="stroke: #A80036; stroke-width: 1.0;"/><text fill="#000000" font-family="sans-serif" font-size="13" lengthAdjust="spacingAndGlyphs" textLength="103" x="343" y="233.0669">InvestmentFund</text><text fill="#000000" font-family="sans-serif" font-size="13" lengthAdjust="spacingAndGlyphs" textLength="7" x="397.4369" y="268.0428">*</text><!--link FundOrderDesk to InvestmentAccount--><path d="M177.802,313.631 C174.483,336.088 169.366,370.699 166.384,390.872 " fill="none" id="FundOrderDesk-InvestmentAccount" style="stroke: #A80036; stroke-width: 1.0;"/><polygon fill="#A80036" points="165.639,395.915,170.9127,387.597,166.3705,390.9688,162.9987,386.4266,165.639,395.915" style="stroke: #A80036; stroke-width: 1.0;"/><text fill="#000000" font-family="sans-serif" font-size="13" lengthAdjust="spacingAndGlyphs" textLength="181" x="175" y="359.0669">MainFundOrderDeskAccount</text><text fill="#000000" font-family="sans-serif" font-size="13" lengthAdjust="spacingAndGlyphs" textLength="7" x="156.6555" y="384.934">*</text><!--link Entry to Account--><path d="M766.219,190.283 C736.584,218.218 655.74,291.686 578,338 C552.682,353.084 544.248,352.771 517,364 C492.02,374.295 463.631,385.582 442.23,394.008 " fill="none" id="Entry-Account" style="stroke: #A80036; stroke-width: 1.0;"/><polygon fill="#A80036" points="437.499,395.869,447.3387,396.2947,442.1516,394.0377,444.4086,388.8506,437.499,395.869" style="stroke: #A80036; stroke-width: 1.0;"/><text fill="#000000" font-family="sans-serif" font-size="13" lengthAdjust="spacingAndGlyphs" textLength="52" x="692" y="295.0669">Account</text><text fill="#000000" font-family="sans-serif" font-size="13" lengthAdjust="spacingAndGlyphs" textLength="7" x="445.6347" y="386.6702">*</text><!--link Account to Account--><path d="M437.508,399.984 C455.181,398.051 472,400.723 472,408 C472,414.538 458.424,417.359 442.85,416.463 " fill="none" id="Account-Account" style="stroke: #A80036; stroke-width: 1.0;"/><polygon fill="#A80036" points="437.508,416.016,446.1443,420.7504,442.4907,416.4317,446.8094,412.7781,437.508,416.016" style="stroke: #A80036; stroke-width: 1.0;"/><text fill="#000000" font-family="sans-serif" font-size="13" lengthAdjust="spacingAndGlyphs" textLength="94" x="478" y="412.0669">ParentAccount</text><text fill="#000000" font-family="sans-serif" font-size="13" lengthAdjust="spacingAndGlyphs" textLength="8" x="445.7741" y="411.9799">1</text></g></svg>