<?xml version="1.0" encoding="UTF-8" standalone="no"?><svg xmlns="http://www.w3.org/2000/svg" xmlns:xlink="http://www.w3.org/1999/xlink" contentScriptType="application/ecmascript" contentStyleType="text/css" height="1786px" preserveAspectRatio="none" style="width:2848px;height:1786px;" version="1.1" viewBox="0 0 2848 1786" width="2848px" zoomAndPan="magnify"><defs><filter height="300%" id="fnff4swk4jyjy" width="300%" x="-1" y="-1"><feGaussianBlur result="blurOut" stdDeviation="2.0"/><feColorMatrix in="blurOut" result="blurOut2" type="matrix" values="0 0 0 0 0 0 0 0 0 0 0 0 0 0 0 0 0 0 .4 0"/><feOffset dx="4.0" dy="4.0" in="blurOut2" result="blurOut3"/><feBlend in="SourceGraphic" in2="blurOut3" mode="normal"/></filter></defs><g><!--cluster ##10414--><!--cluster ##10417--><!--class GenericIdentification--><a target="_top" xlink:actuate="onRequest" xlink:href="../GenericIdentification.html" xlink:show="new" xlink:title="Information related to a non-standardised identification, such as a proprietary party identification or account identification." xlink:type="simple"><rect fill="#FEFECE" filter="url(#fnff4swk4jyjy)" height="70.3828" id="GenericIdentification" style="stroke: #A80036; stroke-width: 1.5;" width="172" x="1369" y="40"/><rect fill="#FEFECE" height="23.9688" style="stroke: #A80036; stroke-width: 1.5;" width="172" x="1369" y="40"/><text fill="#000000" font-family="sans-serif" font-size="12" lengthAdjust="spacingAndGlyphs" textLength="129" x="1390.5" y="56.1387">GenericIdentification</text><line style="stroke: #A80036; stroke-width: 1.5;" x1="1370" x2="1540" y1="63.9688" y2="63.9688"/><ellipse cx="1380" cy="75.8711" fill="#84BE84" rx="3" ry="3" style="stroke: #038048; stroke-width: 1.0;"/><text fill="#000000" font-family="sans-serif" font-size="11" lengthAdjust="spacingAndGlyphs" textLength="72" x="1389" y="78.1792">Identification</text><text fill="#000000" font-family="sans-serif" font-size="11" font-style="italic" lengthAdjust="spacingAndGlyphs" textLength="70" x="1465" y="78.1792">(Max35Text)</text><ellipse cx="1380" cy="88.6758" fill="#84BE84" rx="3" ry="3" style="stroke: #038048; stroke-width: 1.0;"/><text fill="#000000" font-family="sans-serif" font-size="11" lengthAdjust="spacingAndGlyphs" textLength="57" x="1389" y="90.9839">IssueDate</text><text fill="#000000" font-family="sans-serif" font-size="11" font-style="italic" lengthAdjust="spacingAndGlyphs" textLength="53" x="1450" y="90.9839">(ISODate)</text><ellipse cx="1380" cy="101.4805" fill="#84BE84" rx="3" ry="3" style="stroke: #038048; stroke-width: 1.0;"/><text fill="#000000" font-family="sans-serif" font-size="11" lengthAdjust="spacingAndGlyphs" textLength="60" x="1389" y="103.7886">ExpiryDate</text><text fill="#000000" font-family="sans-serif" font-size="11" font-style="italic" lengthAdjust="spacingAndGlyphs" textLength="53" x="1453" y="103.7886">(ISODate)</text></a><!--class ContactPoint--><a target="_top" xlink:actuate="onRequest" xlink:href="../ContactPoint.html" xlink:show="new" xlink:title="Number, physical or virtual address, used for communication." xlink:type="simple"><rect fill="#EEEEEE" filter="url(#fnff4swk4jyjy)" height="23.9688" id="ContactPoint" style="stroke: #A80036; stroke-width: 1.5;" width="87" x="54.75" y="63"/><rect fill="#EEEEEE" height="23.9688" style="stroke: #A80036; stroke-width: 1.5;" width="87" x="54.75" y="63"/><text fill="#000000" font-family="sans-serif" font-size="12" lengthAdjust="spacingAndGlyphs" textLength="81" x="57.75" y="79.1387">ContactPoint</text></a><!--class AccountIdentification--><a target="_top" xlink:actuate="onRequest" xlink:href="../AccountIdentification.html" xlink:show="new" xlink:title="Unique identifier of an account, as assigned by the account servicer." xlink:type="simple"><rect fill="#EEEEEE" filter="url(#fnff4swk4jyjy)" height="23.9688" id="AccountIdentification" style="stroke: #A80036; stroke-width: 1.5;" width="138" x="465" y="1750"/><rect fill="#EEEEEE" height="23.9688" style="stroke: #A80036; stroke-width: 1.5;" width="138" x="465" y="1750"/><text fill="#000000" font-family="sans-serif" font-size="12" lengthAdjust="spacingAndGlyphs" textLength="132" x="468" y="1766.1387">AccountIdentification</text></a><!--class PartyIdentificationInformation--><a target="_top" xlink:actuate="onRequest" xlink:href="../PartyIdentificationInformation.html" xlink:show="new" xlink:title="Unique and unambiguous way to identify a party" xlink:type="simple"><rect fill="#EEEEEE" filter="url(#fnff4swk4jyjy)" height="23.9688" id="PartyIdentificationInformation" style="stroke: #A80036; stroke-width: 1.5;" width="190" x="439" y="1664"/><rect fill="#EEEEEE" height="23.9688" style="stroke: #A80036; stroke-width: 1.5;" width="190" x="439" y="1664"/><text fill="#000000" font-family="sans-serif" font-size="12" lengthAdjust="spacingAndGlyphs" textLength="184" x="442" y="1680.1387">PartyIdentificationInformation</text></a><!--class Scheme--><a target="_top" xlink:actuate="onRequest" xlink:href="../Scheme.html" xlink:show="new" xlink:title="Information regarding an enumerated code list and its owner." xlink:type="simple"><rect fill="#EEEEEE" filter="url(#fnff4swk4jyjy)" height="23.9688" id="Scheme" style="stroke: #A80036; stroke-width: 1.5;" width="56" x="517.5" y="1578"/><rect fill="#EEEEEE" height="23.9688" style="stroke: #A80036; stroke-width: 1.5;" width="56" x="517.5" y="1578"/><text fill="#000000" font-family="sans-serif" font-size="12" lengthAdjust="spacingAndGlyphs" textLength="50" x="520.5" y="1594.1387">Scheme</text></a><!--class SecuritiesCertificate--><a target="_top" xlink:actuate="onRequest" xlink:href="../SecuritiesCertificate.html" xlink:show="new" xlink:title="Physical representation of a security." xlink:type="simple"><rect fill="#EEEEEE" filter="url(#fnff4swk4jyjy)" height="23.9688" id="SecuritiesCertificate" style="stroke: #A80036; stroke-width: 1.5;" width="132" x="497" y="1492"/><rect fill="#EEEEEE" height="23.9688" style="stroke: #A80036; stroke-width: 1.5;" width="132" x="497" y="1492"/><text fill="#000000" font-family="sans-serif" font-size="12" lengthAdjust="spacingAndGlyphs" textLength="126" x="500" y="1508.1387">SecuritiesCertificate</text></a><!--class LotBreakdown--><a target="_top" xlink:actuate="onRequest" xlink:href="../LotBreakdown.html" xlink:show="new" xlink:title="Number of securities purchased or sold in one transaction. In terms of options, a lot represents the number of contracts contained in one derivative security." xlink:type="simple"><rect fill="#EEEEEE" filter="url(#fnff4swk4jyjy)" height="23.9688" id="LotBreakdown" style="stroke: #A80036; stroke-width: 1.5;" width="94" x="535" y="1390"/><rect fill="#EEEEEE" height="23.9688" style="stroke: #A80036; stroke-width: 1.5;" width="94" x="535" y="1390"/><text fill="#000000" font-family="sans-serif" font-size="12" lengthAdjust="spacingAndGlyphs" textLength="88" x="538" y="1406.1387">LotBreakdown</text></a><!--class InformationPartyRole--><a target="_top" xlink:actuate="onRequest" xlink:href="../InformationPartyRole.html" xlink:show="new" xlink:title="Role played by a party as source of information." xlink:type="simple"><rect fill="#EEEEEE" filter="url(#fnff4swk4jyjy)" height="23.9688" id="InformationPartyRole" style="stroke: #A80036; stroke-width: 1.5;" width="136" x="488" y="1288"/><rect fill="#EEEEEE" height="23.9688" style="stroke: #A80036; stroke-width: 1.5;" width="136" x="488" y="1288"/><text fill="#000000" font-family="sans-serif" font-size="12" lengthAdjust="spacingAndGlyphs" textLength="130" x="491" y="1304.1387">InformationPartyRole</text></a><!--class CashProceedsDefinition--><a target="_top" xlink:actuate="onRequest" xlink:href="../CashProceedsDefinition.html" xlink:show="new" xlink:title="Definition of the cash proceeds for a corporate action in generic terms; that is, before applying it to specific securities holding. An example would be the definition of a dividend payment where all the information will be given in general on a per share basis." xlink:type="simple"><rect fill="#EEEEEE" filter="url(#fnff4swk4jyjy)" height="23.9688" id="CashProceedsDefinition" style="stroke: #A80036; stroke-width: 1.5;" width="155" x="473.75" y="1202"/><rect fill="#EEEEEE" height="23.9688" style="stroke: #A80036; stroke-width: 1.5;" width="155" x="473.75" y="1202"/><text fill="#000000" font-family="sans-serif" font-size="12" lengthAdjust="spacingAndGlyphs" textLength="149" x="476.75" y="1218.1387">CashProceedsDefinition</text></a><!--class StatusReason--><a target="_top" xlink:actuate="onRequest" xlink:href="../StatusReason.html" xlink:show="new" xlink:title="Specifies the underlying reason for the status of an object." xlink:type="simple"><rect fill="#EEEEEE" filter="url(#fnff4swk4jyjy)" height="23.9688" id="StatusReason" style="stroke: #A80036; stroke-width: 1.5;" width="94" x="445" y="1100"/><rect fill="#EEEEEE" height="23.9688" style="stroke: #A80036; stroke-width: 1.5;" width="94" x="445" y="1100"/><text fill="#000000" font-family="sans-serif" font-size="12" lengthAdjust="spacingAndGlyphs" textLength="88" x="448" y="1116.1387">StatusReason</text></a><!--class BankTransaction--><a target="_top" xlink:actuate="onRequest" xlink:href="../BankTransaction.html" xlink:show="new" xlink:title="Code of the underlying bank transaction." xlink:type="simple"><rect fill="#EEEEEE" filter="url(#fnff4swk4jyjy)" height="23.9688" id="BankTransaction" style="stroke: #A80036; stroke-width: 1.5;" width="111" x="429.75" y="1014"/><rect fill="#EEEEEE" height="23.9688" style="stroke: #A80036; stroke-width: 1.5;" width="111" x="429.75" y="1014"/><text fill="#000000" font-family="sans-serif" font-size="12" lengthAdjust="spacingAndGlyphs" textLength="105" x="432.75" y="1030.1387">BankTransaction</text></a><!--class Account--><a target="_top" xlink:actuate="onRequest" xlink:href="../Account.html" xlink:show="new" xlink:title="Record of transactions in specific types of assets, maintained by a servicing party on behalf of one or more owning parties. Business relationship between an account servicer and one or more account owners." xlink:type="simple"><rect fill="#EEEEEE" filter="url(#fnff4swk4jyjy)" height="23.9688" id="Account" style="stroke: #A80036; stroke-width: 1.5;" width="57" x="358.75" y="910"/><rect fill="#EEEEEE" height="23.9688" style="stroke: #A80036; stroke-width: 1.5;" width="57" x="358.75" y="910"/><text fill="#000000" font-family="sans-serif" font-size="12" lengthAdjust="spacingAndGlyphs" textLength="51" x="361.75" y="926.1387">Account</text></a><!--class SystemIdentification--><a target="_top" xlink:actuate="onRequest" xlink:href="../SystemIdentification.html" xlink:show="new" xlink:title="Parameters that identify a system." xlink:type="simple"><rect fill="#EEEEEE" filter="url(#fnff4swk4jyjy)" height="23.9688" id="SystemIdentification" style="stroke: #A80036; stroke-width: 1.5;" width="132" x="409" y="806"/><rect fill="#EEEEEE" height="23.9688" style="stroke: #A80036; stroke-width: 1.5;" width="132" x="409" y="806"/><text fill="#000000" font-family="sans-serif" font-size="12" lengthAdjust="spacingAndGlyphs" textLength="126" x="412" y="822.1387">SystemIdentification</text></a><!--class Interest--><a target="_top" xlink:actuate="onRequest" xlink:href="../Interest.html" xlink:show="new" xlink:title="Consideration, such as amount of money,  paid or received in exchange for an asset that has been invested, loaned or borrowed for a certain period. The interest is expressed as a fixed amount or percentage of the amount upon which the interest is applied." xlink:type="simple"><rect fill="#EEEEEE" filter="url(#fnff4swk4jyjy)" height="23.9688" id="Interest" style="stroke: #A80036; stroke-width: 1.5;" width="55" x="542.75" y="704"/><rect fill="#EEEEEE" height="23.9688" style="stroke: #A80036; stroke-width: 1.5;" width="55" x="542.75" y="704"/><text fill="#000000" font-family="sans-serif" font-size="12" lengthAdjust="spacingAndGlyphs" textLength="49" x="545.75" y="720.1387">Interest</text></a><!--class CashAccountService--><a target="_top" xlink:actuate="onRequest" xlink:href="../CashAccountService.html" xlink:show="new" xlink:title="Services linked to an account which are available to the account owner or to the holder of a mandate. The exercise of these services may be submitted to a limit." xlink:type="simple"><rect fill="#EEEEEE" filter="url(#fnff4swk4jyjy)" height="23.9688" id="CashAccountService" style="stroke: #A80036; stroke-width: 1.5;" width="133" x="495.75" y="602"/><rect fill="#EEEEEE" height="23.9688" style="stroke: #A80036; stroke-width: 1.5;" width="133" x="495.75" y="602"/><text fill="#000000" font-family="sans-serif" font-size="12" lengthAdjust="spacingAndGlyphs" textLength="127" x="498.75" y="618.1387">CashAccountService</text></a><!--class InvestmentFundClass--><a target="_top" xlink:actuate="onRequest" xlink:href="../InvestmentFundClass.html" xlink:show="new" xlink:title="Security that is a sub-set of an investment fund, and is governed by the same investment fund policy, for example, a dividend option or valuation currency." xlink:type="simple"><rect fill="#EEEEEE" filter="url(#fnff4swk4jyjy)" height="23.9688" id="InvestmentFundClass" style="stroke: #A80036; stroke-width: 1.5;" width="139" x="489.75" y="500"/><rect fill="#EEEEEE" height="23.9688" style="stroke: #A80036; stroke-width: 1.5;" width="139" x="489.75" y="500"/><text fill="#000000" font-family="sans-serif" font-size="12" lengthAdjust="spacingAndGlyphs" textLength="133" x="492.75" y="516.1387">InvestmentFundClass</text></a><!--class Location--><a target="_top" xlink:actuate="onRequest" xlink:href="../Location.html" xlink:show="new" xlink:title="Specifies a place." xlink:type="simple"><rect fill="#EEEEEE" filter="url(#fnff4swk4jyjy)" height="23.9688" id="Location" style="stroke: #A80036; stroke-width: 1.5;" width="59" x="472.75" y="398"/><rect fill="#EEEEEE" height="23.9688" style="stroke: #A80036; stroke-width: 1.5;" width="59" x="472.75" y="398"/><text fill="#000000" font-family="sans-serif" font-size="12" lengthAdjust="spacingAndGlyphs" textLength="53" x="475.75" y="414.1387">Location</text></a><!--class SecuritiesIdentification--><a target="_top" xlink:actuate="onRequest" xlink:href="../SecuritiesIdentification.html" xlink:show="new" xlink:title="Unique and unambiguous identifier of a security, assigned under a formal or proprietary identification scheme." xlink:type="simple"><rect fill="#EEEEEE" filter="url(#fnff4swk4jyjy)" height="23.9688" id="SecuritiesIdentification" style="stroke: #A80036; stroke-width: 1.5;" width="149" x="330.75" y="294"/><rect fill="#EEEEEE" height="23.9688" style="stroke: #A80036; stroke-width: 1.5;" width="149" x="330.75" y="294"/><text fill="#000000" font-family="sans-serif" font-size="12" lengthAdjust="spacingAndGlyphs" textLength="143" x="333.75" y="310.1387">SecuritiesIdentification</text></a><!--class Document--><a target="_top" xlink:actuate="onRequest" xlink:href="../Document.html" xlink:show="new" xlink:title="General information that unambiguously identifies a document, such as identification number and issue date time." xlink:type="simple"><rect fill="#EEEEEE" filter="url(#fnff4swk4jyjy)" height="23.9688" id="Document" style="stroke: #A80036; stroke-width: 1.5;" width="70" x="113" y="190"/><rect fill="#EEEEEE" height="23.9688" style="stroke: #A80036; stroke-width: 1.5;" width="70" x="113" y="190"/><text fill="#000000" font-family="sans-serif" font-size="12" lengthAdjust="spacingAndGlyphs" textLength="64" x="116" y="206.1387">Document</text></a><!--class PurchaseOrder--><a target="_top" xlink:actuate="onRequest" xlink:href="../PurchaseOrder.html" xlink:show="new" xlink:title="Document issued by a buyer and containing the details of a purchase, including description of goods, transport information, payment terms, etc." xlink:type="simple"><rect fill="#EEEEEE" filter="url(#fnff4swk4jyjy)" height="23.9688" id="PurchaseOrder" style="stroke: #A80036; stroke-width: 1.5;" width="100" x="324" y="1288"/><rect fill="#EEEEEE" height="23.9688" style="stroke: #A80036; stroke-width: 1.5;" width="100" x="324" y="1288"/><text fill="#000000" font-family="sans-serif" font-size="12" lengthAdjust="spacingAndGlyphs" textLength="94" x="327" y="1304.1387">PurchaseOrder</text></a><!--class RegisteredContract--><a target="_top" xlink:actuate="onRequest" xlink:href="../RegisteredContract.html" xlink:show="new" xlink:title="Contract registered for regulatory purpose by a registration agent for the journaling of payments made against the contract." xlink:type="simple"><rect fill="#EEEEEE" filter="url(#fnff4swk4jyjy)" height="23.9688" id="RegisteredContract" style="stroke: #A80036; stroke-width: 1.5;" width="128" x="310" y="1202"/><rect fill="#EEEEEE" height="23.9688" style="stroke: #A80036; stroke-width: 1.5;" width="128" x="310" y="1202"/><text fill="#000000" font-family="sans-serif" font-size="12" lengthAdjust="spacingAndGlyphs" textLength="122" x="313" y="1218.1387">RegisteredContract</text></a><!--link AccountIdentification to ContactPoint--><!--link PartyIdentificationInformation to AccountIdentification--><!--link Scheme to PartyIdentificationInformation--><!--link SecuritiesCertificate to Scheme--><!--link LotBreakdown to SecuritiesCertificate--><!--link InformationPartyRole to LotBreakdown--><!--link CashProceedsDefinition to InformationPartyRole--><!--link StatusReason to CashProceedsDefinition--><!--link BankTransaction to StatusReason--><!--link Account to BankTransaction--><!--link SystemIdentification to Account--><!--link Interest to SystemIdentification--><!--link CashAccountService to Interest--><!--link InvestmentFundClass to CashAccountService--><!--link Location to InvestmentFundClass--><!--link SecuritiesIdentification to Location--><!--link Document to SecuritiesIdentification--><!--link PurchaseOrder to Document--><!--link RegisteredContract to PurchaseOrder--><!--link GenericIdentification to ContactPoint--><path d="M1368.99,75 C1110.73,75 347.537,75 146.819,75 " fill="none" id="GenericIdentification-ContactPoint" style="stroke: #A80036; stroke-width: 1.0;"/><polygon fill="#A80036" points="141.613,75,150.613,79,146.613,75,150.613,71,141.613,75" style="stroke: #A80036; stroke-width: 1.0;"/><text fill="#000000" font-family="sans-serif" font-size="13" lengthAdjust="spacingAndGlyphs" textLength="183" x="663" y="67.0669">IdentificationForContactPoint</text><text fill="#000000" font-family="sans-serif" font-size="13" lengthAdjust="spacingAndGlyphs" textLength="7" x="149.6676" y="69.6201">*</text><!--link GenericIdentification to AccountIdentification--><path d="M1541.24,79.13 C1764.85,88.4 2346,120.26 2346,201 C2346,201 2346,201 2346,1677 C2346,1721.2423 949.02,1752.5519 608.278,1759.5307 " fill="none" id="GenericIdentification-AccountIdentification" style="stroke: #A80036; stroke-width: 1.0;"/><polygon fill="#A80036" points="603.095,1759.6367,612.1754,1763.4507,608.0939,1759.5338,612.0108,1755.4524,603.095,1759.6367" style="stroke: #A80036; stroke-width: 1.0;"/><text fill="#000000" font-family="sans-serif" font-size="13" lengthAdjust="spacingAndGlyphs" textLength="153" x="2347" y="979.0669">IdentificationForAccount</text><text fill="#000000" font-family="sans-serif" font-size="13" lengthAdjust="spacingAndGlyphs" textLength="8" x="611.0898" y="1754.5244">1</text><!--link GenericIdentification to AccountIdentification--><path d="M1541.2,76.9 C1798.3,80.71 2542,100.44 2542,201 C2542,201 2542,201 2542,1677 C2542,1726.3693 971.655,1754.1125 608.38,1759.87 " fill="none" id="GenericIdentification-AccountIdentification" style="stroke: #A80036; stroke-width: 1.0;"/><polygon fill="#A80036" points="603.12,1759.9532,612.1817,1763.8113,608.1194,1759.8746,612.056,1755.8123,603.12,1759.9532" style="stroke: #A80036; stroke-width: 1.0;"/><text fill="#000000" font-family="sans-serif" font-size="13" lengthAdjust="spacingAndGlyphs" textLength="293" x="2543" y="979.0669">IdentificationForAccountCostReferencePattern</text><text fill="#000000" font-family="sans-serif" font-size="13" lengthAdjust="spacingAndGlyphs" textLength="24" x="611.1053" y="1772.565">0..1</text><!--link GenericIdentification to PartyIdentificationInformation--><path d="M1541.13,79.93 C1683.11,87.35 1959.6,105.99 2050,142 C2090.38,158.08 2128,157.53 2128,201 C2128,201 2128,201 2128,1591 C2128,1666.125 984.014,1674.249 634.324,1674.978 " fill="none" id="GenericIdentification-PartyIdentificationInformation" style="stroke: #A80036; stroke-width: 1.0;"/><polygon fill="#A80036" points="629.234,1674.988,638.242,1678.97,634.234,1674.978,638.226,1670.97,629.234,1674.988" style="stroke: #A80036; stroke-width: 1.0;"/><text fill="#000000" font-family="sans-serif" font-size="13" lengthAdjust="spacingAndGlyphs" textLength="162" x="2129" y="926.0669">RelatedPartyIdentification</text><text fill="#000000" font-family="sans-serif" font-size="13" lengthAdjust="spacingAndGlyphs" textLength="24" x="637.109" y="1670.3624">0..1</text><!--link GenericIdentification to Scheme--><path d="M1541.25,76.18 C1707.71,78.88 2057,96.93 2057,201 C2057,201 2057,201 2057,768 C2057,809.18 2049.53,818.971 2046,860 C2041.65,910.55 2040,923.263 2040,974 C2040,974 2040,974 2040,1505 C2040,1580.85 797.084,1588.216 577.837,1588.925 " fill="none" id="GenericIdentification-Scheme" style="stroke: #A80036; stroke-width: 1.0;"/><polygon fill="#A80036" points="572.548,1588.942,581.5605,1592.9137,577.548,1588.9263,581.5354,1584.9137,572.548,1588.942" style="stroke: #A80036; stroke-width: 1.0;"/><text fill="#000000" font-family="sans-serif" font-size="13" lengthAdjust="spacingAndGlyphs" textLength="53" x="2047" y="873.0669">Scheme</text><text fill="#000000" font-family="sans-serif" font-size="13" lengthAdjust="spacingAndGlyphs" textLength="8" x="581.6684" y="1582.2253">1</text><!--link GenericIdentification to SecuritiesCertificate--><path d="M1541.1,83.58 C1666.08,97 1883,130.46 1883,201 C1883,201 1883,201 1883,666 C1883,719.34 1867.02,733.34 1835,776 C1822.5,792.66 1811.49,789.34 1799,806 C1780.97,830.046 1772,837.945 1772,868 C1772,868 1772,868 1772,1403 C1772,1460.424 894.288,1492.591 634.566,1500.852 " fill="none" id="GenericIdentification-SecuritiesCertificate" style="stroke: #A80036; stroke-width: 1.0;"/><polygon fill="#A80036" points="629.291,1501.019,638.4133,1504.7316,634.2885,1500.8605,638.1596,1496.7356,629.291,1501.019" style="stroke: #A80036; stroke-width: 1.0;"/><text fill="#000000" font-family="sans-serif" font-size="13" lengthAdjust="spacingAndGlyphs" textLength="229" x="1800" y="822.0669">IdentificationForSecuritiesCertificate</text><text fill="#000000" font-family="sans-serif" font-size="13" lengthAdjust="spacingAndGlyphs" textLength="8" x="636.9791" y="1495.8391">1</text><!--link GenericIdentification to LotBreakdown--><path d="M1541.01,82.42 C1602.82,89.97 1686.45,106.37 1752,142 C1784.86,159.86 1812,163.6 1812,201 C1812,201 1812,201 1812,666 C1812,695.24 1810.61,707.26 1790,728 C1762.35,755.82 1732.72,728.38 1707,758 C1674.25,795.71 1684,818.054 1684,868 C1684,868 1684,868 1684,1301 C1684,1354.369 853.413,1390.443 634.41,1399.027 " fill="none" id="GenericIdentification-LotBreakdown" style="stroke: #A80036; stroke-width: 1.0;"/><polygon fill="#A80036" points="629.352,1399.225,638.5017,1402.8696,634.3482,1399.0293,638.1885,1394.8757,629.352,1399.225" style="stroke: #A80036; stroke-width: 1.0;"/><text fill="#000000" font-family="sans-serif" font-size="13" lengthAdjust="spacingAndGlyphs" textLength="121" x="1708" y="771.0669">IdentificationForLot</text><text fill="#000000" font-family="sans-serif" font-size="13" lengthAdjust="spacingAndGlyphs" textLength="24" x="636.9565" y="1393.8578">0..1</text><!--link GenericIdentification to InformationPartyRole--><path d="M1541.21,90.81 C1601.02,106.61 1670,138.39 1670,201 C1670,201 1670,201 1670,564 C1670,612.89 1701.28,636.43 1670,674 C1622.86,730.6 1564.69,658.2 1507,704 C1483.46,722.69 1480,735.94 1480,766 C1480,766 1480,766 1480,1215 C1480,1257.627 848.073,1287.198 629.407,1296.155 " fill="none" id="GenericIdentification-InformationPartyRole" style="stroke: #A80036; stroke-width: 1.0;"/><polygon fill="#A80036" points="624.319,1296.362,633.4739,1299.9936,629.3149,1296.1591,633.1493,1292.0001,624.319,1296.362" style="stroke: #A80036; stroke-width: 1.0;"/><text fill="#000000" font-family="sans-serif" font-size="13" lengthAdjust="spacingAndGlyphs" textLength="60" x="1508" y="720.0669">PartyRole</text><text fill="#000000" font-family="sans-serif" font-size="13" lengthAdjust="spacingAndGlyphs" textLength="7" x="632.1742" y="1291.1103">*</text><!--link GenericIdentification to CashProceedsDefinition--><path d="M1469.94,110.04 C1479.46,134.78 1490,169.34 1490,201 C1490,201 1490,201 1490,360 C1490,479.42 1535.3,540.43 1452,626 C1396.65,682.86 1327.18,595.36 1276,656 C1270.84,662.11 1275.31,666.03 1276,674 C1279.57,715.35 1292,724.5 1292,766 C1292,766 1292,766 1292,1113 C1292,1178.823 826.856,1203.117 633.626,1210.369 " fill="none" id="GenericIdentification-CashProceedsDefinition" style="stroke: #A80036; stroke-width: 1.0;"/><polygon fill="#A80036" points="628.551,1210.558,637.6944,1214.2183,633.5475,1210.3708,637.395,1206.2239,628.551,1210.558" style="stroke: #A80036; stroke-width: 1.0;"/><text fill="#000000" font-family="sans-serif" font-size="13" lengthAdjust="spacingAndGlyphs" textLength="239" x="1277" y="669.0669">IdentificationForCashProceedsIncome</text><text fill="#000000" font-family="sans-serif" font-size="13" lengthAdjust="spacingAndGlyphs" textLength="24" x="636.7834" y="1205.5316">0..1</text><!--link GenericIdentification to StatusReason--><path d="M1439.52,110.26 C1429.77,134.96 1419,169.38 1419,201 C1419,201 1419,201 1419,411 C1419,483.55 1438.57,516.37 1392,572 C1366.55,602.4 1342.44,582.37 1308,602 C1252.94,633.39 1221,651.62 1221,715 C1221,715 1221,715 1221,1027 C1221,1095.136 711.928,1108.054 544.599,1110.46 " fill="none" id="GenericIdentification-StatusReason" style="stroke: #A80036; stroke-width: 1.0;"/><polygon fill="#A80036" points="539.27,1110.535,548.3251,1114.4086,544.2695,1110.465,548.2131,1106.4094,539.27,1110.535" style="stroke: #A80036; stroke-width: 1.0;"/><text fill="#000000" font-family="sans-serif" font-size="13" lengthAdjust="spacingAndGlyphs" textLength="137" x="1309" y="618.0669">RelatedStatusReason</text><text fill="#000000" font-family="sans-serif" font-size="13" lengthAdjust="spacingAndGlyphs" textLength="8" x="547.1207" y="1105.0886">1</text><!--link GenericIdentification to BankTransaction--><path d="M1402.75,110.05 C1375.59,132.21 1348,163.86 1348,201 C1348,201 1348,201 1348,360 C1348,440.15 1333.05,470.92 1273,524 C1239.83,553.32 1206.46,520.08 1178,554 C1116.91,626.81 1150,670.96 1150,766 C1150,766 1150,766 1150,923 C1150,983.843 709.465,1013.215 545.512,1022.039 " fill="none" id="GenericIdentification-BankTransaction" style="stroke: #A80036; stroke-width: 1.0;"/><polygon fill="#A80036" points="540.269,1022.319,549.4699,1025.8324,545.2619,1022.0519,549.0424,1017.8439,540.269,1022.319" style="stroke: #A80036; stroke-width: 1.0;"/><text fill="#000000" font-family="sans-serif" font-size="13" lengthAdjust="spacingAndGlyphs" textLength="207" x="1179" y="567.0669">IdentificationForBankTransaction</text><text fill="#000000" font-family="sans-serif" font-size="13" lengthAdjust="spacingAndGlyphs" textLength="7" x="548.864" y="1016.6089">*</text><!--link GenericIdentification to Account--><path d="M1368.87,101.03 C1323.43,120.08 1277,151.63 1277,201 C1277,201 1277,201 1277,360 C1277,410.56 1276.35,428.13 1248,470 C1242.67,477.88 981.045,668.93 973,674 C929.611,701.36 917.557,706.47 871,728 C705.092,804.73 499.552,880.572 420.307,909.126 " fill="none" id="GenericIdentification-Account" style="stroke: #A80036; stroke-width: 1.0;"/><polygon fill="#A80036" points="415.272,910.938,425.0948,911.6543,419.9767,909.245,422.386,904.1269,415.272,910.938" style="stroke: #A80036; stroke-width: 1.0;"/><text fill="#000000" font-family="sans-serif" font-size="13" lengthAdjust="spacingAndGlyphs" textLength="52" x="1211" y="516.0669">Account</text><text fill="#000000" font-family="sans-serif" font-size="13" lengthAdjust="spacingAndGlyphs" textLength="8" x="423.8779" y="901.7697">1</text><!--link GenericIdentification to SystemIdentification--><path d="M1368.96,84.07 C1296.99,96.11 1206,126.15 1206,201 C1206,201 1206,201 1206,360 C1206,389.24 1205.66,402.36 1184,422 C1142.95,459.21 1105.34,416.26 1063,452 C998.511,506.43 1036.58,557.71 987,626 C968.134,651.98 960.952,658.19 933,674 C805.311,746.2 636.573,786.74 543.681,805.01 " fill="none" id="GenericIdentification-SystemIdentification" style="stroke: #A80036; stroke-width: 1.0;"/><polygon fill="#A80036" points="538.768,805.97,548.368,808.1698,543.6752,805.0111,546.8339,800.3183,538.768,805.97" style="stroke: #A80036; stroke-width: 1.0;"/><text fill="#000000" font-family="sans-serif" font-size="13" lengthAdjust="spacingAndGlyphs" textLength="178" x="1064" y="465.0669">RelatedSystemIdentification</text><text fill="#000000" font-family="sans-serif" font-size="13" lengthAdjust="spacingAndGlyphs" textLength="8" x="549.2349" y="795.2635">1</text><!--link GenericIdentification to Interest--><path d="M1368.78,87.6 C1298.92,98.61 1207.69,117.17 1180,142 C1100.57,213.24 1177.41,295.64 1099,368 C1061.45,402.66 1026.69,364.61 988,398 C965.247,417.64 961,429.94 961,460 C961,460 961,460 961,615 C961,688.75 696.586,708.83 602.637,713.64 " fill="none" id="GenericIdentification-Interest" style="stroke: #A80036; stroke-width: 1.0;"/><polygon fill="#A80036" points="597.494,713.89,606.682,717.4369,602.4878,713.641,606.2837,709.4468,597.494,713.89" style="stroke: #A80036; stroke-width: 1.0;"/><text fill="#000000" font-family="sans-serif" font-size="13" lengthAdjust="spacingAndGlyphs" textLength="189" x="989" y="414.0669">IdentificationForInterestName</text><text fill="#000000" font-family="sans-serif" font-size="13" lengthAdjust="spacingAndGlyphs" textLength="24" x="605.5881" y="707.7855">0..1</text><!--link GenericIdentification to CashAccountService--><path d="M1368.63,83.26 C1279.52,92.32 1148.19,110.6 1109,142 C1041.73,195.9 1097.66,264.16 1032,320 C990.45,355.34 962.232,326.52 913,350 C767.6,419.34 622.813,553.68 576.919,598.24 " fill="none" id="GenericIdentification-CashAccountService" style="stroke: #A80036; stroke-width: 1.0;"/><polygon fill="#A80036" points="573.285,601.78,582.5175,598.3507,576.8611,598.2855,576.9263,592.629,573.285,601.78" style="stroke: #A80036; stroke-width: 1.0;"/><text fill="#000000" font-family="sans-serif" font-size="13" lengthAdjust="spacingAndGlyphs" textLength="179" x="914" y="363.0669">RelatedCashAccountService</text><text fill="#000000" font-family="sans-serif" font-size="13" lengthAdjust="spacingAndGlyphs" textLength="8" x="566.2841" y="591.0106">1</text><!--link GenericIdentification to InvestmentFundClass--><path d="M1368.61,79.66 C1282.46,85.59 1147.54,101.16 1038,142 C821.875,222.57 623.878,436.67 572.108,495.73 " fill="none" id="GenericIdentification-InvestmentFundClass" style="stroke: #A80036; stroke-width: 1.0;"/><polygon fill="#A80036" points="568.635,499.71,577.5653,495.5567,571.9216,495.9419,571.5363,490.2982,568.635,499.71" style="stroke: #A80036; stroke-width: 1.0;"/><text fill="#000000" font-family="sans-serif" font-size="13" lengthAdjust="spacingAndGlyphs" textLength="238" x="784" y="310.0669">IdentificationForInvestmentFundClass</text><text fill="#000000" font-family="sans-serif" font-size="13" lengthAdjust="spacingAndGlyphs" textLength="8" x="561.0875" y="488.9174">1</text><!--link GenericIdentification to Location--><path d="M1368.92,78.04 C1214.02,82.8 895.03,97.78 794,142 C731.413,169.39 719.412,188.92 679,244 C657.111,273.84 669.327,292.12 645,320 C614.126,355.39 565.709,381.4 533.912,395.88 " fill="none" id="GenericIdentification-Location" style="stroke: #A80036; stroke-width: 1.0;"/><polygon fill="#A80036" points="529.345,397.93,539.1938,397.8998,533.9078,395.8853,535.9223,390.5993,529.345,397.93" style="stroke: #A80036; stroke-width: 1.0;"/><text fill="#000000" font-family="sans-serif" font-size="13" lengthAdjust="spacingAndGlyphs" textLength="112" x="680" y="257.0669">IdentifiedLocation</text><text fill="#000000" font-family="sans-serif" font-size="13" lengthAdjust="spacingAndGlyphs" textLength="8" x="527.9402" y="386.9542">1</text><!--link GenericIdentification to SecuritiesIdentification--><path d="M1368.73,78.63 C1221.63,84.13 913.221,99.99 656,142 C567.913,156.39 530.429,133.91 461,190 C429.229,215.67 414.205,263.81 408.263,288.89 " fill="none" id="GenericIdentification-SecuritiesIdentification" style="stroke: #A80036; stroke-width: 1.0;"/><polygon fill="#A80036" points="407.13,293.87,413.0126,285.971,408.2304,288.9926,405.2088,284.2104,407.13,293.87" style="stroke: #A80036; stroke-width: 1.0;"/><text fill="#000000" font-family="sans-serif" font-size="13" lengthAdjust="spacingAndGlyphs" textLength="192" x="462" y="206.0669">RelatedSecuritiesIdentification</text><text fill="#000000" font-family="sans-serif" font-size="13" lengthAdjust="spacingAndGlyphs" textLength="8" x="397.0575" y="282.8735">1</text><!--link GenericIdentification to Document--><path d="M1368.77,83.61 C1220.83,96.35 909.064,121.78 645,134 C602.703,135.96 305.07,131.7 264,142 C254.444,144.4 204.06,170.92 172.92,187.57 " fill="none" id="GenericIdentification-Document" style="stroke: #A80036; stroke-width: 1.0;"/><polygon fill="#A80036" points="168.472,189.96,178.2946,189.2418,172.8808,187.6015,174.521,182.1877,168.472,189.96" style="stroke: #A80036; stroke-width: 1.0;"/><text fill="#000000" font-family="sans-serif" font-size="13" lengthAdjust="spacingAndGlyphs" textLength="125" x="265" y="155.0669">IdentifiedDocument</text><text fill="#000000" font-family="sans-serif" font-size="13" lengthAdjust="spacingAndGlyphs" textLength="8" x="164.7905" y="178.9945">1</text><!--link GenericIdentification to PurchaseOrder--><path d="M1541.2,78.57 C1625.41,86.23 1741,112.81 1741,201 C1741,201 1741,201 1741,615 C1741,646.43 1725.66,653.3 1702,674 C1678.96,694.15 1661.21,681.93 1640,704 C1619.18,725.67 1613,735.94 1613,766 C1613,766 1613,766 1613,1215 C1613,1278.629 533.378,1282.349 470,1288 C456.871,1289.171 442.759,1290.659 429.502,1292.16 " fill="none" id="GenericIdentification-PurchaseOrder" style="stroke: #A80036; stroke-width: 1.0;"/><polygon fill="#A80036" points="424.273,1292.757,433.6687,1295.7102,429.2407,1292.1898,432.7611,1287.7618,424.273,1292.757" style="stroke: #A80036; stroke-width: 1.0;"/><text fill="#000000" font-family="sans-serif" font-size="13" lengthAdjust="spacingAndGlyphs" textLength="143" x="1641" y="720.0669">RelatedPurchaseOrder</text><text fill="#000000" font-family="sans-serif" font-size="13" lengthAdjust="spacingAndGlyphs" textLength="8" x="431.9051" y="1286.6216">1</text><!--link GenericIdentification to RegisteredContract--><path d="M1506.76,110.15 C1533.67,132.35 1561,164.01 1561,201 C1561,201 1561,201 1561,615 C1561,715.73 1392,665.27 1392,766 C1392,766 1392,766 1392,1113 C1392,1217.469 559.79,1190.108 456,1202 C451.897,1202.47 447.682,1202.973 443.431,1203.496 " fill="none" id="GenericIdentification-RegisteredContract" style="stroke: #A80036; stroke-width: 1.0;"/><polygon fill="#A80036" points="438.429,1204.119,447.8547,1206.9748,443.3906,1203.5004,446.865,1199.0363,438.429,1204.119" style="stroke: #A80036; stroke-width: 1.0;"/><text fill="#000000" font-family="sans-serif" font-size="13" lengthAdjust="spacingAndGlyphs" textLength="113" x="1547" y="669.0669">RelatedCertificate</text><text fill="#000000" font-family="sans-serif" font-size="13" lengthAdjust="spacingAndGlyphs" textLength="8" x="445.9134" y="1198.1844">1</text><!--link ContactPoint to Document--><path d="M96.7113,87.25 C95.2963,103.99 94.5576,136.08 106,160 C110.913,170.27 119.536,179.38 127.696,186.4 " fill="none" id="ContactPoint-Document" style="stroke: #A80036; stroke-width: 1.0;"/><polygon fill="#A80036" points="131.647,189.67,127.257,180.8537,127.7926,186.4851,122.1611,187.0207,131.647,189.67" style="stroke: #A80036; stroke-width: 1.0;"/><text fill="#000000" font-family="sans-serif" font-size="13" lengthAdjust="spacingAndGlyphs" textLength="110" x="107" y="155.0669">StoredDocument</text><text fill="#000000" font-family="sans-serif" font-size="13" lengthAdjust="spacingAndGlyphs" textLength="7" x="116.7394" y="178.8641">*</text><!--link ContactPoint to ContactPoint--><path d="M126.8,62.92 C150.86,57.76 176,61.79 176,75 C176,87.28 154.271,91.62 131.882,88.03 " fill="none" id="ContactPoint-ContactPoint" style="stroke: #A80036; stroke-width: 1.0;"/><polygon fill="#A80036" points="126.8,87.08,134.9103,92.6678,131.7146,88.0001,136.3824,84.8044,126.8,87.08" style="stroke: #A80036; stroke-width: 1.0;"/><text fill="#000000" font-family="sans-serif" font-size="13" lengthAdjust="spacingAndGlyphs" textLength="80" x="182" y="79.0669">MainContact</text><text fill="#000000" font-family="sans-serif" font-size="13" lengthAdjust="spacingAndGlyphs" textLength="8" x="127.5144" y="107.2575">1</text><!--link AccountIdentification to Account--><path d="M464.92,1760.272 C351.922,1757.1895 140,1742.6562 140,1677 C140,1213 140,1213 140,1213 C140,1077.323 298.629,972.861 361.64,936.719 " fill="none" id="AccountIdentification-Account" style="stroke: #A80036; stroke-width: 1.0;"/><polygon fill="#A80036" points="366.366,934.034,356.5649,935.0023,362.0187,936.5041,360.517,941.9579,366.366,934.034" style="stroke: #A80036; stroke-width: 1.0;"/><text fill="#000000" font-family="sans-serif" font-size="13" lengthAdjust="spacingAndGlyphs" textLength="52" x="141" y="1355.0669">Account</text><text fill="#000000" font-family="sans-serif" font-size="13" lengthAdjust="spacingAndGlyphs" textLength="24" x="327.3889" y="954.1925">0..1</text><!--link Scheme to InformationPartyRole--><path d="M527.206,1577.858 C493.304,1555.082 424.49,1500.552 444,1444 C462.841,1389.387 512.073,1339.706 538.55,1315.867 " fill="none" id="Scheme-InformationPartyRole" style="stroke: #A80036; stroke-width: 1.0;"/><polygon fill="#A80036" points="542.596,1312.265,533.2141,1315.2615,538.8614,1315.5896,538.5334,1321.2369,542.596,1312.265" style="stroke: #A80036; stroke-width: 1.0;"/><text fill="#000000" font-family="sans-serif" font-size="13" lengthAdjust="spacingAndGlyphs" textLength="133" x="445" y="1457.0669">InformationPartyRole</text><text fill="#000000" font-family="sans-serif" font-size="13" lengthAdjust="spacingAndGlyphs" textLength="7" x="527.5463" y="1332.1467">*</text><!--link CashProceedsDefinition to Interest--><path d="M555.89,1201.849 C563.422,1183.631 577,1146.186 577,1113 C577,817 577,817 577,817 C577,787.41 573.913,753.02 571.839,733.25 " fill="none" id="CashProceedsDefinition-Interest" style="stroke: #A80036; stroke-width: 1.0;"/><polygon fill="#A80036" points="571.284,728.08,568.258,737.4525,571.8126,733.052,576.2131,736.6067,571.284,728.08" style="stroke: #A80036; stroke-width: 1.0;"/><text fill="#000000" font-family="sans-serif" font-size="13" lengthAdjust="spacingAndGlyphs" textLength="49" x="578" y="979.0669">Interest</text><text fill="#000000" font-family="sans-serif" font-size="13" lengthAdjust="spacingAndGlyphs" textLength="7" x="561.8543" y="748.2575">*</text><!--link StatusReason to RegisteredContract--><path d="M444.806,1118.545 C421.664,1123.806 395.501,1134.053 380,1154 C370.713,1165.951 370.113,1183.631 371.286,1196.52 " fill="none" id="StatusReason-RegisteredContract" style="stroke: #A80036; stroke-width: 1.0;"/><polygon fill="#A80036" points="371.877,1201.72,374.8355,1192.326,371.3126,1196.752,366.8867,1193.229,371.877,1201.72" style="stroke: #A80036; stroke-width: 1.0;"/><text fill="#000000" font-family="sans-serif" font-size="13" lengthAdjust="spacingAndGlyphs" textLength="143" x="381" y="1167.0669">RelatedClosureReason</text><text fill="#000000" font-family="sans-serif" font-size="13" lengthAdjust="spacingAndGlyphs" textLength="8" x="360.5175" y="1190.9307">1</text><!--link Account to Account--><path d="M415.508,912.938 C433.181,910.753 450,913.773 450,922 C450,929.391 436.424,932.58 420.85,931.567 " fill="none" id="Account-Account" style="stroke: #A80036; stroke-width: 1.0;"/><polygon fill="#A80036" points="415.508,931.062,424.0922,935.8902,420.4859,931.5319,424.8441,927.9256,415.508,931.062" style="stroke: #A80036; stroke-width: 1.0;"/><text fill="#000000" font-family="sans-serif" font-size="13" lengthAdjust="spacingAndGlyphs" textLength="94" x="456" y="926.0669">ParentAccount</text><text fill="#000000" font-family="sans-serif" font-size="13" lengthAdjust="spacingAndGlyphs" textLength="8" x="423.7741" y="927.2939">1</text><!--link Location to Document--><path d="M472.662,408.06 C414.239,404.68 282.104,389.33 202,320 C170.888,293.07 156.608,244.45 151.033,219.2 " fill="none" id="Location-Document" style="stroke: #A80036; stroke-width: 1.0;"/><polygon fill="#A80036" points="149.972,214.18,147.936,223.8161,151.0143,219.0702,155.7602,222.1485,149.972,214.18" style="stroke: #A80036; stroke-width: 1.0;"/><text fill="#000000" font-family="sans-serif" font-size="13" lengthAdjust="spacingAndGlyphs" textLength="108" x="203" y="310.0669">IssuedDocument</text><text fill="#000000" font-family="sans-serif" font-size="13" lengthAdjust="spacingAndGlyphs" textLength="7" x="140.9766" y="234.0282">*</text><!--link SecuritiesIdentification to SecuritiesIdentification--><path d="M479.381,296.34 C499.08,296.89 514,300.11 514,306 C514,311.34 501.746,314.48 484.787,315.44 " fill="none" id="SecuritiesIdentification-SecuritiesIdentification" style="stroke: #A80036; stroke-width: 1.0;"/><polygon fill="#A80036" points="479.381,315.66,488.5403,319.2803,484.3766,315.451,488.2059,311.2873,479.381,315.66" style="stroke: #A80036; stroke-width: 1.0;"/><text fill="#000000" font-family="sans-serif" font-size="13" lengthAdjust="spacingAndGlyphs" textLength="118" x="520" y="310.0669">PrimeIdentification</text><text fill="#000000" font-family="sans-serif" font-size="13" lengthAdjust="spacingAndGlyphs" textLength="8" x="487.9266" y="311.8627">1</text><!--link Document to RegisteredContract--><path d="M147.966,214.11 C147.79,271.87 147,543.63 147,766 C147,766 147,766 147,1113 C147,1182.777 237.935,1204.286 304.695,1210.675 " fill="none" id="Document-RegisteredContract" style="stroke: #A80036; stroke-width: 1.0;"/><polygon fill="#A80036" points="309.861,1211.144,301.2602,1206.3454,304.8815,1210.6912,300.5357,1214.3125,309.861,1211.144" style="stroke: #A80036; stroke-width: 1.0;"/><text fill="#000000" font-family="sans-serif" font-size="13" lengthAdjust="spacingAndGlyphs" textLength="103" x="149" y="720.0669">RelatedContract</text><text fill="#000000" font-family="sans-serif" font-size="13" lengthAdjust="spacingAndGlyphs" textLength="8" x="294.0551" y="1206.1011">1</text></g></svg>