<?xml version="1.0" encoding="UTF-8" standalone="no"?><svg xmlns="http://www.w3.org/2000/svg" xmlns:xlink="http://www.w3.org/1999/xlink" contentScriptType="application/ecmascript" contentStyleType="text/css" height="857px" preserveAspectRatio="none" style="width:3144px;height:857px;" version="1.1" viewBox="0 0 3144 857" width="3144px" zoomAndPan="magnify"><defs><filter height="300%" id="fjtnlyleu4qhc" width="300%" x="-1" y="-1"><feGaussianBlur result="blurOut" stdDeviation="2.0"/><feColorMatrix in="blurOut" result="blurOut2" type="matrix" values="0 0 0 0 0 0 0 0 0 0 0 0 0 0 0 0 0 0 .4 0"/><feOffset dx="4.0" dy="4.0" in="blurOut2" result="blurOut3"/><feBlend in="SourceGraphic" in2="blurOut3" mode="normal"/></filter></defs><g><!--cluster ##13175--><!--cluster ##13181--><!--cluster ##13204--><!--class Product--><a target="_top" xlink:actuate="onRequest" xlink:href="../Product.html" xlink:show="new" xlink:title="Item that is offered for sale. Products can be services or goods." xlink:type="simple"><rect fill="#FEFEEE" filter="url(#fjtnlyleu4qhc)" height="70.3828" id="Product" style="stroke: #A80036; stroke-width: 1.5;" width="171" x="1767.75" y="40"/><rect fill="#FEFEEE" height="23.9688" style="stroke: #A80036; stroke-width: 1.5;" width="171" x="1767.75" y="40"/><text fill="#000000" font-family="sans-serif" font-size="12" lengthAdjust="spacingAndGlyphs" textLength="49" x="1828.75" y="56.1387">Product</text><line style="stroke: #A80036; stroke-width: 1.5;" x1="1768.75" x2="1937.75" y1="63.9688" y2="63.9688"/><ellipse cx="1778.75" cy="75.8711" fill="#84BE84" rx="3" ry="3" style="stroke: #038048; stroke-width: 1.0;"/><text fill="#000000" font-family="sans-serif" font-size="11" lengthAdjust="spacingAndGlyphs" textLength="33" x="1787.75" y="78.1792">Name</text><text fill="#000000" font-family="sans-serif" font-size="11" font-style="italic" lengthAdjust="spacingAndGlyphs" textLength="70" x="1824.75" y="78.1792">(Max35Text)</text><ellipse cx="1778.75" cy="88.6758" fill="#84BE84" rx="3" ry="3" style="stroke: #038048; stroke-width: 1.0;"/><text fill="#000000" font-family="sans-serif" font-size="11" lengthAdjust="spacingAndGlyphs" textLength="64" x="1787.75" y="90.9839">Description</text><text fill="#000000" font-family="sans-serif" font-size="11" font-style="italic" lengthAdjust="spacingAndGlyphs" textLength="77" x="1855.75" y="90.9839">(Max140Text)</text><ellipse cx="1778.75" cy="101.4805" fill="#84BE84" rx="3" ry="3" style="stroke: #038048; stroke-width: 1.0;"/><text fill="#000000" font-family="sans-serif" font-size="11" lengthAdjust="spacingAndGlyphs" textLength="39" x="1787.75" y="103.7886">Quality</text><text fill="#000000" font-family="sans-serif" font-size="11" font-style="italic" lengthAdjust="spacingAndGlyphs" textLength="70" x="1830.75" y="103.7886">(Max70Text)</text></a><!--class Goods--><a target="_top" xlink:actuate="onRequest" xlink:href="../Goods.html" xlink:show="new" xlink:title="Good is a physical product that can be delivered to a purchaser and that involves the transfer of ownership from seller to customer." xlink:type="simple"><rect fill="#FEFECE" filter="url(#fjtnlyleu4qhc)" height="70.3828" id="Goods" style="stroke: #A80036; stroke-width: 1.5;" width="257" x="1681.75" y="188"/><rect fill="#FEFECE" height="23.9688" style="stroke: #A80036; stroke-width: 1.5;" width="257" x="1681.75" y="188"/><text fill="#000000" font-family="sans-serif" font-size="12" lengthAdjust="spacingAndGlyphs" textLength="40" x="1790.25" y="204.1387">Goods</text><line style="stroke: #A80036; stroke-width: 1.5;" x1="1682.75" x2="1937.75" y1="211.9688" y2="211.9688"/><ellipse cx="1692.75" cy="223.8711" fill="#84BE84" rx="3" ry="3" style="stroke: #038048; stroke-width: 1.0;"/><text fill="#000000" font-family="sans-serif" font-size="11" lengthAdjust="spacingAndGlyphs" textLength="47" x="1701.75" y="226.1792">Analysis</text><text fill="#000000" font-family="sans-serif" font-size="11" font-style="italic" lengthAdjust="spacingAndGlyphs" textLength="70" x="1752.75" y="226.1792">(Max70Text)</text><ellipse cx="1692.75" cy="236.6758" fill="#84BE84" rx="3" ry="3" style="stroke: #038048; stroke-width: 1.0;"/><text fill="#000000" font-family="sans-serif" font-size="11" lengthAdjust="spacingAndGlyphs" textLength="70" x="1701.75" y="238.9839">HealthCheck</text><text fill="#000000" font-family="sans-serif" font-size="11" font-style="italic" lengthAdjust="spacingAndGlyphs" textLength="92" x="1775.75" y="238.9839">(YesNoIndicator)</text><ellipse cx="1692.75" cy="249.4805" fill="#84BE84" rx="3" ry="3" style="stroke: #038048; stroke-width: 1.0;"/><text fill="#000000" font-family="sans-serif" font-size="11" lengthAdjust="spacingAndGlyphs" textLength="135" x="1701.75" y="251.7886">PhytosanitaryInspection</text><text fill="#000000" font-family="sans-serif" font-size="11" font-style="italic" lengthAdjust="spacingAndGlyphs" textLength="92" x="1840.75" y="251.7886">(YesNoIndicator)</text></a><!--class CardPayment--><a target="_top" xlink:actuate="onRequest" xlink:href="../CardPayment.html" xlink:show="new" xlink:title="Payment through an electronic money product." xlink:type="simple"><rect fill="#EEEEEE" filter="url(#fjtnlyleu4qhc)" height="23.9688" id="CardPayment" style="stroke: #A80036; stroke-width: 1.5;" width="89" x="1416.75" y="440"/><rect fill="#EEEEEE" height="23.9688" style="stroke: #A80036; stroke-width: 1.5;" width="89" x="1416.75" y="440"/><text fill="#000000" font-family="sans-serif" font-size="12" lengthAdjust="spacingAndGlyphs" textLength="83" x="1419.75" y="456.1387">CardPayment</text></a><!--class Price--><a target="_top" xlink:actuate="onRequest" xlink:href="../Price.html" xlink:show="new" xlink:title="Amount of money for which goods, services or assets are offered, sold, or bought." xlink:type="simple"><rect fill="#EEEEEE" filter="url(#fjtnlyleu4qhc)" height="23.9688" id="Price" style="stroke: #A80036; stroke-width: 1.5;" width="37" x="1404.75" y="338"/><rect fill="#EEEEEE" height="23.9688" style="stroke: #A80036; stroke-width: 1.5;" width="37" x="1404.75" y="338"/><text fill="#000000" font-family="sans-serif" font-size="12" lengthAdjust="spacingAndGlyphs" textLength="31" x="1407.75" y="354.1387">Price</text></a><!--class ProductCategory--><a target="_top" xlink:actuate="onRequest" xlink:href="../ProductCategory.html" xlink:show="new" xlink:title="Specifies the category of the product." xlink:type="simple"><rect fill="#EEEEEE" filter="url(#fjtnlyleu4qhc)" height="23.9688" id="ProductCategory" style="stroke: #A80036; stroke-width: 1.5;" width="111" x="1514.75" y="211"/><rect fill="#EEEEEE" height="23.9688" style="stroke: #A80036; stroke-width: 1.5;" width="111" x="1514.75" y="211"/><text fill="#000000" font-family="sans-serif" font-size="12" lengthAdjust="spacingAndGlyphs" textLength="105" x="1517.75" y="227.1387">ProductCategory</text></a><!--class LineItem--><a target="_top" xlink:actuate="onRequest" xlink:href="../LineItem.html" xlink:show="new" xlink:title="Unit of information  showing the related  provision of products and/or services and monetary summations reported as a discrete line item." xlink:type="simple"><rect fill="#EEEEEE" filter="url(#fjtnlyleu4qhc)" height="23.9688" id="LineItem" style="stroke: #A80036; stroke-width: 1.5;" width="58" x="1032.5" y="63"/><rect fill="#EEEEEE" height="23.9688" style="stroke: #A80036; stroke-width: 1.5;" width="58" x="1032.5" y="63"/><text fill="#000000" font-family="sans-serif" font-size="12" lengthAdjust="spacingAndGlyphs" textLength="52" x="1035.5" y="79.1387">LineItem</text></a><!--class ProductIdentification--><a target="_top" xlink:actuate="onRequest" xlink:href="../ProductIdentification.html" xlink:show="new" xlink:title="Information used to identify a product." xlink:type="simple"><rect fill="#EEEEEE" filter="url(#fjtnlyleu4qhc)" height="23.9688" id="ProductIdentification" style="stroke: #A80036; stroke-width: 1.5;" width="136" x="1411" y="542"/><rect fill="#EEEEEE" height="23.9688" style="stroke: #A80036; stroke-width: 1.5;" width="136" x="1411" y="542"/><text fill="#000000" font-family="sans-serif" font-size="12" lengthAdjust="spacingAndGlyphs" textLength="130" x="1414" y="558.1387">ProductIdentification</text></a><!--class Country--><a target="_top" xlink:actuate="onRequest" xlink:href="../Country.html" xlink:show="new" xlink:title="Nation with its own government." xlink:type="simple"><rect fill="#EEEEEE" filter="url(#fjtnlyleu4qhc)" height="23.9688" id="Country" style="stroke: #A80036; stroke-width: 1.5;" width="54" x="1550" y="440"/><rect fill="#EEEEEE" height="23.9688" style="stroke: #A80036; stroke-width: 1.5;" width="54" x="1550" y="440"/><text fill="#000000" font-family="sans-serif" font-size="12" lengthAdjust="spacingAndGlyphs" textLength="48" x="1553" y="456.1387">Country</text></a><!--class ProductCharacteristics--><a target="_top" xlink:actuate="onRequest" xlink:href="../ProductCharacteristics.html" xlink:show="new" xlink:title="Identifies the characteristic of a product." xlink:type="simple"><rect fill="#EEEEEE" filter="url(#fjtnlyleu4qhc)" height="23.9688" id="ProductCharacteristics" style="stroke: #A80036; stroke-width: 1.5;" width="149" x="1476.75" y="338"/><rect fill="#EEEEEE" height="23.9688" style="stroke: #A80036; stroke-width: 1.5;" width="149" x="1476.75" y="338"/><text fill="#000000" font-family="sans-serif" font-size="12" lengthAdjust="spacingAndGlyphs" textLength="143" x="1479.75" y="354.1387">ProductCharacteristics</text></a><!--class ProductQuantity--><a target="_top" xlink:actuate="onRequest" xlink:href="../ProductQuantity.html" xlink:show="new" xlink:title="Specifies the ordered quantity of a product." xlink:type="simple"><rect fill="#EEEEEE" filter="url(#fjtnlyleu4qhc)" height="23.9688" id="ProductQuantity" style="stroke: #A80036; stroke-width: 1.5;" width="107" x="1241.75" y="211"/><rect fill="#EEEEEE" height="23.9688" style="stroke: #A80036; stroke-width: 1.5;" width="107" x="1241.75" y="211"/><text fill="#000000" font-family="sans-serif" font-size="12" lengthAdjust="spacingAndGlyphs" textLength="101" x="1244.75" y="227.1387">ProductQuantity</text></a><!--class ProductDelivery--><a target="_top" xlink:actuate="onRequest" xlink:href="../ProductDelivery.html" xlink:show="new" xlink:title="Arrangements for delivery of invoiced products and/or services." xlink:type="simple"><rect fill="#EEEEEE" filter="url(#fjtnlyleu4qhc)" height="23.9688" id="ProductDelivery" style="stroke: #A80036; stroke-width: 1.5;" width="103" x="1419.75" y="716"/><rect fill="#EEEEEE" height="23.9688" style="stroke: #A80036; stroke-width: 1.5;" width="103" x="1419.75" y="716"/><text fill="#000000" font-family="sans-serif" font-size="12" lengthAdjust="spacingAndGlyphs" textLength="97" x="1422.75" y="732.1387">ProductDelivery</text></a><!--class PurchaseOrder--><a target="_top" xlink:actuate="onRequest" xlink:href="../PurchaseOrder.html" xlink:show="new" xlink:title="Document issued by a buyer and containing the details of a purchase, including description of goods, transport information, payment terms, etc." xlink:type="simple"><rect fill="#EEEEEE" filter="url(#fjtnlyleu4qhc)" height="23.9688" id="PurchaseOrder" style="stroke: #A80036; stroke-width: 1.5;" width="100" x="1525" y="628"/><rect fill="#EEEEEE" height="23.9688" style="stroke: #A80036; stroke-width: 1.5;" width="100" x="1525" y="628"/><text fill="#000000" font-family="sans-serif" font-size="12" lengthAdjust="spacingAndGlyphs" textLength="94" x="1528" y="644.1387">PurchaseOrder</text></a><!--class Tax--><a target="_top" xlink:actuate="onRequest" xlink:href="../Tax.html" xlink:show="new" xlink:title="Amount of money due to the government or tax authority, according to various pre-defined parameters such as thresholds or income." xlink:type="simple"><rect fill="#EEEEEE" filter="url(#fjtnlyleu4qhc)" height="23.9688" id="Tax" style="stroke: #A80036; stroke-width: 1.5;" width="27" x="1582.75" y="542"/><rect fill="#EEEEEE" height="23.9688" style="stroke: #A80036; stroke-width: 1.5;" width="27" x="1582.75" y="542"/><text fill="#000000" font-family="sans-serif" font-size="12" lengthAdjust="spacingAndGlyphs" textLength="21" x="1585.75" y="558.1387">Tax</text></a><!--class Transport--><a target="_top" xlink:actuate="onRequest" xlink:href="../Transport.html" xlink:show="new" xlink:title="Moving of goods or people from one place to another by vehicle." xlink:type="simple"><rect fill="#EEEEEE" filter="url(#fjtnlyleu4qhc)" height="23.9688" id="Transport" style="stroke: #A80036; stroke-width: 1.5;" width="67" x="76.75" y="820"/><rect fill="#EEEEEE" height="23.9688" style="stroke: #A80036; stroke-width: 1.5;" width="67" x="76.75" y="820"/><text fill="#000000" font-family="sans-serif" font-size="12" lengthAdjust="spacingAndGlyphs" textLength="61" x="79.75" y="836.1387">Transport</text></a><!--class GoodsPartyRole--><a target="_top" xlink:actuate="onRequest" xlink:href="../GoodsPartyRole.html" xlink:show="new" xlink:title="Role played by a party in the context of handling goods." xlink:type="simple"><rect fill="#EEEEEE" filter="url(#fjtnlyleu4qhc)" height="23.9688" id="GoodsPartyRole" style="stroke: #A80036; stroke-width: 1.5;" width="105" x="38.75" y="716"/><rect fill="#EEEEEE" height="23.9688" style="stroke: #A80036; stroke-width: 1.5;" width="105" x="38.75" y="716"/><text fill="#000000" font-family="sans-serif" font-size="12" lengthAdjust="spacingAndGlyphs" textLength="99" x="41.75" y="732.1387">GoodsPartyRole</text></a><!--link Product to Goods--><path d="M1875.78,129.834 C1877.11,139.376 1876.65,149.101 1873,158 C1868.51,168.965 1861.13,179.06 1852.98,187.836 " fill="none" id="Product-Goods" style="stroke: #A80036; stroke-width: 1.0;"/><polygon fill="none" points="1868.94,131.342,1870.77,110.232,1882.5,127.876,1868.94,131.342" style="stroke: #A80036; stroke-width: 1.0;"/><!--link Price to CardPayment--><!--link ProductCategory to Price--><!--link LineItem to ProductCategory--><!--link ProductIdentification to LineItem--><!--link Country to ProductIdentification--><!--link ProductCharacteristics to Country--><!--link ProductQuantity to ProductCharacteristics--><!--link ProductDelivery to ProductQuantity--><!--link PurchaseOrder to ProductDelivery--><!--link Tax to PurchaseOrder--><!--link GoodsPartyRole to Transport--><!--link Product to CardPayment--><path d="M1938.33,76.093 C2139.02,79.19 2613.4,104.9 2468,282 C2430.33,327.876 2395.41,297.439 2337,308 C2174.62,337.36 1670.8,417.684 1510.51,443.147 " fill="none" id="Product-CardPayment" style="stroke: #A80036; stroke-width: 1.0;"/><polygon fill="#A80036" points="1505.41,443.957,1514.9267,446.4932,1510.3479,443.1714,1513.6697,438.5926,1505.41,443.957" style="stroke: #A80036; stroke-width: 1.0;"/><text fill="#000000" font-family="sans-serif" font-size="13" lengthAdjust="spacingAndGlyphs" textLength="87" x="2461" y="303.0669">CardPayment</text><text fill="#000000" font-family="sans-serif" font-size="13" lengthAdjust="spacingAndGlyphs" textLength="8" x="1513.6875" y="437.1947">1</text><!--link Product to Price--><path d="M1938.3,81.512 C2002.69,88.483 2091.67,104.266 2162,140 C2222.06,170.513 2250.63,224.832 2215,282 C2201.12,304.266 2187.43,301.525 2162,308 C2010.47,346.588 1613.12,311.608 1459,338 C1454.83,338.714 1450.47,339.769 1446.28,340.948 " fill="none" id="Product-Price" style="stroke: #A80036; stroke-width: 1.0;"/><polygon fill="#A80036" points="1441.47,342.375,1451.2376,343.6375,1446.2617,340.9468,1448.9524,335.9709,1441.47,342.375" style="stroke: #A80036; stroke-width: 1.0;"/><text fill="#000000" font-family="sans-serif" font-size="13" lengthAdjust="spacingAndGlyphs" textLength="57" x="2232" y="227.0669">UnitPrice</text><text fill="#000000" font-family="sans-serif" font-size="13" lengthAdjust="spacingAndGlyphs" textLength="7" x="1449.7508" y="332.3255">*</text><!--link Product to Price--><path d="M1892.33,110.306 C1937.88,154.1 2001.13,230.366 1955,282 C1881.1,364.717 1567.61,315.476 1459,338 C1454.86,338.858 1450.51,339.985 1446.33,341.19 " fill="none" id="Product-Price" style="stroke: #A80036; stroke-width: 1.0;"/><polygon fill="#A80036" points="1441.52,342.629,1451.2912,343.8632,1446.3075,341.1869,1448.9838,336.2032,1441.52,342.629" style="stroke: #A80036; stroke-width: 1.0;"/><text fill="#000000" font-family="sans-serif" font-size="13" lengthAdjust="spacingAndGlyphs" textLength="54" x="1973" y="227.0669">NetPrice</text><text fill="#000000" font-family="sans-serif" font-size="13" lengthAdjust="spacingAndGlyphs" textLength="24" x="1444.7553" y="354.7673">0..1</text><!--link Product to Price--><path d="M1938.35,105.693 C1975.63,123.412 2015.66,150.019 2037,188 C2057.47,224.42 2061.56,248.2 2037,282 C2015.03,312.247 1993.73,301.042 1957,308 C1739.14,349.267 1677.22,298.661 1459,338 C1454.84,338.75 1450.48,339.823 1446.3,341.009 " fill="none" id="Product-Price" style="stroke: #A80036; stroke-width: 1.0;"/><polygon fill="#A80036" points="1441.48,342.439,1451.2476,343.7015,1446.2717,341.0108,1448.9624,336.0349,1441.48,342.439" style="stroke: #A80036; stroke-width: 1.0;"/><text fill="#000000" font-family="sans-serif" font-size="13" lengthAdjust="spacingAndGlyphs" textLength="68" x="2055" y="227.0669">GrossPrice</text><text fill="#000000" font-family="sans-serif" font-size="13" lengthAdjust="spacingAndGlyphs" textLength="24" x="1420.2064" y="327.1209">0..1</text><!--link Product to ProductCategory--><path d="M1801.04,110.008 C1771.93,128.816 1738.45,149.968 1723,158 C1683.96,178.298 1637.01,197.169 1605.5,209.084 " fill="none" id="Product-ProductCategory" style="stroke: #A80036; stroke-width: 1.0;"/><polygon fill="#A80036" points="1600.58,210.935,1610.4132,211.49,1605.2562,209.165,1607.5812,204.008,1600.58,210.935" style="stroke: #A80036; stroke-width: 1.0;"/><text fill="#000000" font-family="sans-serif" font-size="13" lengthAdjust="spacingAndGlyphs" textLength="107" x="1753" y="153.0669">ProductCategory</text><text fill="#000000" font-family="sans-serif" font-size="13" lengthAdjust="spacingAndGlyphs" textLength="7" x="1601.4591" y="199.9609">*</text><!--link Product to LineItem--><path d="M1767.46,75 C1594.8,75 1211.15,75 1094.98,75 " fill="none" id="Product-LineItem" style="stroke: #A80036; stroke-width: 1.0;"/><polygon fill="#A80036" points="1089.66,75,1098.66,79,1094.66,75,1098.66,71,1089.66,75" style="stroke: #A80036; stroke-width: 1.0;"/><text fill="#000000" font-family="sans-serif" font-size="13" lengthAdjust="spacingAndGlyphs" textLength="55" x="1400.25" y="67.0669">LineItem</text><text fill="#000000" font-family="sans-serif" font-size="13" lengthAdjust="spacingAndGlyphs" textLength="24" x="1098.445" y="69.2255">0..1</text><!--link Product to ProductIdentification--><path d="M1938.26,77.213 C2127.13,80.733 2567.94,93.852 2616,140 C2669.98,191.824 2659.54,240.617 2627,308 C2588.02,388.724 2539.01,384.755 2453,410 C2366.75,435.314 1764.56,515.586 1552.6,543.401 " fill="none" id="Product-ProductIdentification" style="stroke: #A80036; stroke-width: 1.0;"/><polygon fill="#A80036" points="1547.36,544.088,1556.7996,546.8977,1552.3185,543.4452,1555.771,538.9641,1547.36,544.088" style="stroke: #A80036; stroke-width: 1.0;"/><text fill="#000000" font-family="sans-serif" font-size="13" lengthAdjust="spacingAndGlyphs" textLength="130" x="2610" y="354.0669">ProductIdentification</text><text fill="#000000" font-family="sans-serif" font-size="13" lengthAdjust="spacingAndGlyphs" textLength="7" x="1555.2197" y="538.1501">*</text><!--link Product to Country--><path d="M1938.52,77.143 C2122.17,80.486 2541.13,93.212 2584,140 C2626.64,186.532 2609.23,224.15 2584,282 C2561.94,332.595 2547.15,362.328 2402,410 C2325.83,435.016 1753.21,447.613 1609.59,450.399 " fill="none" id="Product-Country" style="stroke: #A80036; stroke-width: 1.0;"/><polygon fill="#A80036" points="1604.27,450.502,1613.3482,454.3212,1609.269,450.402,1613.1882,446.3228,1604.27,450.502" style="stroke: #A80036; stroke-width: 1.0;"/><text fill="#000000" font-family="sans-serif" font-size="13" lengthAdjust="spacingAndGlyphs" textLength="37" x="2580" y="303.0669">Origin</text><text fill="#000000" font-family="sans-serif" font-size="13" lengthAdjust="spacingAndGlyphs" textLength="8" x="1611.8921" y="444.1519">1</text><!--link Product to ProductCharacteristics--><path d="M1938.53,81.083 C2051.07,88.97 2241.77,106.82 2303,140 C2360.86,171.357 2378.92,225.601 2345,282 C2332.29,303.127 2319.75,301.391 2296,308 C2172.78,342.29 1796.34,348.074 1630.67,348.928 " fill="none" id="Product-ProductCharacteristics" style="stroke: #A80036; stroke-width: 1.0;"/><polygon fill="#A80036" points="1625.35,348.954,1634.3727,352.9025,1630.3499,348.9254,1634.327,344.9026,1625.35,348.954" style="stroke: #A80036; stroke-width: 1.0;"/><text fill="#000000" font-family="sans-serif" font-size="13" lengthAdjust="spacingAndGlyphs" textLength="95" x="2363" y="227.0669">Characteristics</text><text fill="#000000" font-family="sans-serif" font-size="13" lengthAdjust="spacingAndGlyphs" textLength="7" x="1633.8375" y="343.9858">*</text><!--link Product to ProductQuantity--><path d="M1767.57,102.043 C1711.59,118.789 1636.69,140.59 1570,158 C1494.61,177.68 1406.82,197.595 1351.09,209.866 " fill="none" id="Product-ProductQuantity" style="stroke: #A80036; stroke-width: 1.0;"/><polygon fill="#A80036" points="1346.14,210.956,1355.7936,212.9072,1351.0208,209.8707,1354.0572,205.0979,1346.14,210.956" style="stroke: #A80036; stroke-width: 1.0;"/><text fill="#000000" font-family="sans-serif" font-size="13" lengthAdjust="spacingAndGlyphs" textLength="54" x="1634" y="153.0669">Quantity</text><text fill="#000000" font-family="sans-serif" font-size="13" lengthAdjust="spacingAndGlyphs" textLength="7" x="1354.0866" y="199.9891">*</text><!--link Product to ProductDelivery--><path d="M1938.37,76.758 C2141.59,79.354 2649.14,90.726 2811,140 C2943.16,180.233 3042.15,295.405 2965,410 C2799.18,656.293 1780.07,714.266 1527.56,724.92 " fill="none" id="Product-ProductDelivery" style="stroke: #A80036; stroke-width: 1.0;"/><polygon fill="#A80036" points="1522.46,725.133,1531.6231,728.7436,1527.4554,724.9187,1531.2803,720.751,1522.46,725.133" style="stroke: #A80036; stroke-width: 1.0;"/><text fill="#000000" font-family="sans-serif" font-size="13" lengthAdjust="spacingAndGlyphs" textLength="51" x="2938" y="456.0669">Delivery</text><text fill="#000000" font-family="sans-serif" font-size="13" lengthAdjust="spacingAndGlyphs" textLength="8" x="1530.914" y="719.4719">1</text><!--link Product to PurchaseOrder--><path d="M1938.54,77.051 C2134.62,80.259 2611.39,92.815 2764,140 C2869.2,172.527 2916.94,260.602 2874,362 C2819.1,491.64 2733.05,484.408 2595,512 C2230.75,584.8 1784.48,623.177 1630.39,634.979 " fill="none" id="Product-PurchaseOrder" style="stroke: #A80036; stroke-width: 1.0;"/><polygon fill="#A80036" points="1625.04,635.387,1634.3217,638.6809,1630.0251,635.0013,1633.7047,630.7047,1625.04,635.387" style="stroke: #A80036; stroke-width: 1.0;"/><text fill="#000000" font-family="sans-serif" font-size="13" lengthAdjust="spacingAndGlyphs" textLength="95" x="2860" y="405.0669">PurchaseOrder</text><text fill="#000000" font-family="sans-serif" font-size="13" lengthAdjust="spacingAndGlyphs" textLength="7" x="1632.9037" y="629.54">*</text><!--link Product to Tax--><path d="M1938.4,77.59 C2145.3,82.1 2661.18,97.515 2726,140 C2817.13,199.726 2887.28,269.316 2830,362 C2751.63,488.808 2674.3,474.577 2530,512 C2438.37,535.764 1738.15,550.264 1614.6,552.65 " fill="none" id="Product-Tax" style="stroke: #A80036; stroke-width: 1.0;"/><polygon fill="#A80036" points="1609.47,552.748,1618.5373,556.5931,1614.4693,552.6623,1618.4001,548.5943,1609.47,552.748" style="stroke: #A80036; stroke-width: 1.0;"/><text fill="#000000" font-family="sans-serif" font-size="13" lengthAdjust="spacingAndGlyphs" textLength="22" x="2842" y="354.0669">Tax</text><text fill="#000000" font-family="sans-serif" font-size="13" lengthAdjust="spacingAndGlyphs" textLength="7" x="1617.621" y="544.1008">*</text><!--link Goods to Transport--><path d="M1876.26,258.12 C1898.2,267.751 1923.12,276.97 1947,282 C1976.74,288.263 2465.54,279.331 2494,290 C2540.36,307.381 2537.32,335.273 2579,362 C2682.27,428.227 3079,473.323 3079,596 C3079,596 3079,596 3079,729 C3079,805.9667 496.216,828.0923 148.54,830.722 " fill="none" id="Goods-Transport" style="stroke: #A80036; stroke-width: 1.0;"/><polygon fill="#A80036" points="143.343,830.7611,152.3725,834.6941,148.3429,830.724,152.313,826.6944,143.343,830.7611" style="stroke: #A80036; stroke-width: 1.0;"/><text fill="#000000" font-family="sans-serif" font-size="13" lengthAdjust="spacingAndGlyphs" textLength="61" x="3071" y="558.0669">Transport</text><text fill="#000000" font-family="sans-serif" font-size="13" lengthAdjust="spacingAndGlyphs" textLength="24" x="151.657" y="843.9975">0..1</text><!--link Goods to GoodsPartyRole--><path d="M1876.26,258.109 C1898.2,267.739 1923.12,276.961 1947,282 C1961.13,284.982 2456.86,279.707 2467,290 C2472.61,295.7 2471.74,301.555 2467,308 C2239.16,617.855 2019.89,499.933 1641,566 C1481.37,593.835 331.313,560.514 184,628 C145.008,645.863 114.479,688.314 100.0686,711.399 " fill="none" id="Goods-GoodsPartyRole" style="stroke: #A80036; stroke-width: 1.0;"/><polygon fill="#A80036" points="97.4038,715.745,105.5176,710.1624,100.0169,711.4822,98.6971,705.9814,97.4038,715.745" style="stroke: #A80036; stroke-width: 1.0;"/><text fill="#000000" font-family="sans-serif" font-size="13" lengthAdjust="spacingAndGlyphs" textLength="60" x="2244" y="507.0669">PartyRole</text><text fill="#000000" font-family="sans-serif" font-size="13" lengthAdjust="spacingAndGlyphs" textLength="7" x="89.9516" y="704.964">*</text><!--link LineItem to ProductQuantity--><path d="M1089.74,77.305 C1160.96,81.2 1342.48,95.393 1379,140 C1400.6,166.376 1358.11,193.293 1326.06,208.783 " fill="none" id="LineItem-ProductQuantity" style="stroke: #A80036; stroke-width: 1.0;"/><polygon fill="#A80036" points="1321.42,210.984,1331.2659,210.7418,1325.9377,208.8415,1327.8379,203.5134,1321.42,210.984" style="stroke: #A80036; stroke-width: 1.0;"/><text fill="#000000" font-family="sans-serif" font-size="13" lengthAdjust="spacingAndGlyphs" textLength="66" x="1386" y="153.0669">NetWeight</text><text fill="#000000" font-family="sans-serif" font-size="13" lengthAdjust="spacingAndGlyphs" textLength="8" x="1319.6972" y="200.0267">1</text><!--link LineItem to ProductQuantity--><path d="M1089.64,75.994 C1173.19,76.645 1413.79,83.482 1462,140 C1497.17,181.23 1414.5,203.639 1353.35,214.187 " fill="none" id="LineItem-ProductQuantity" style="stroke: #A80036; stroke-width: 1.0;"/><polygon fill="#A80036" points="1348.25,215.048,1357.7884,217.5014,1353.1809,214.2195,1356.4628,209.612,1348.25,215.048" style="stroke: #A80036; stroke-width: 1.0;"/><text fill="#000000" font-family="sans-serif" font-size="13" lengthAdjust="spacingAndGlyphs" textLength="88" x="1472" y="153.0669">BilledQuantity</text><text fill="#000000" font-family="sans-serif" font-size="13" lengthAdjust="spacingAndGlyphs" textLength="7" x="1356.9016" y="208.6082">*</text><!--link LineItem to ProductQuantity--><path d="M1032.04,75.985 C892.505,76.207 293.922,80.635 239,140 C233.567,145.872 233.517,152.175 239,158 C273.426,194.575 1020.25,215.378 1236.7,220.654 " fill="none" id="LineItem-ProductQuantity" style="stroke: #A80036; stroke-width: 1.0;"/><polygon fill="#A80036" points="1241.71,220.776,1232.8158,216.5459,1236.7117,220.6474,1232.6101,224.5433,1241.71,220.776" style="stroke: #A80036; stroke-width: 1.0;"/><text fill="#000000" font-family="sans-serif" font-size="13" lengthAdjust="spacingAndGlyphs" textLength="128" x="240" y="153.0669">ChargeFreeQuantity</text><text fill="#000000" font-family="sans-serif" font-size="13" lengthAdjust="spacingAndGlyphs" textLength="7" x="1226.6364" y="233.4959">*</text><!--link LineItem to ProductQuantity--><path d="M1032.25,76.606 C911.839,79.436 452.38,93.25 410,140 C404.627,145.927 404.551,152.143 410,158 C466.199,218.41 1048.17,222.532 1236.53,222.269 " fill="none" id="LineItem-ProductQuantity" style="stroke: #A80036; stroke-width: 1.0;"/><polygon fill="#A80036" points="1241.72,222.26,1232.7086,218.2857,1236.72,222.2743,1232.7315,226.2857,1241.72,222.26" style="stroke: #A80036; stroke-width: 1.0;"/><text fill="#000000" font-family="sans-serif" font-size="13" lengthAdjust="spacingAndGlyphs" textLength="244" x="411" y="153.0669">MeasureQuantityStartRelatedLineItem</text><text fill="#000000" font-family="sans-serif" font-size="13" lengthAdjust="spacingAndGlyphs" textLength="8" x="1225.5867" y="217.2108">1</text><!--link LineItem to ProductQuantity--><path d="M1032.4,77.651 C938.833,83.572 650.453,106.206 697,158 C732.694,197.718 1093.22,214.827 1236.62,220.098 " fill="none" id="LineItem-ProductQuantity" style="stroke: #A80036; stroke-width: 1.0;"/><polygon fill="#A80036" points="1241.63,220.281,1232.7848,215.9494,1236.6335,220.0953,1232.4876,223.9439,1241.63,220.281" style="stroke: #A80036; stroke-width: 1.0;"/><text fill="#000000" font-family="sans-serif" font-size="13" lengthAdjust="spacingAndGlyphs" textLength="236" x="698" y="153.0669">MeasureQuantityEndRelatedLineItem</text><text fill="#000000" font-family="sans-serif" font-size="13" lengthAdjust="spacingAndGlyphs" textLength="8" x="1225.8136" y="212.798">1</text><!--link LineItem to ProductQuantity--><path d="M1034.03,87.096 C1001.33,102.117 953.259,130.243 976,158 C1008.27,197.388 1153.31,213.04 1236.27,218.853 " fill="none" id="LineItem-ProductQuantity" style="stroke: #A80036; stroke-width: 1.0;"/><polygon fill="#A80036" points="1241.64,219.222,1232.9354,214.6143,1236.6518,218.8792,1232.3869,222.5955,1241.64,219.222" style="stroke: #A80036; stroke-width: 1.0;"/><text fill="#000000" font-family="sans-serif" font-size="13" lengthAdjust="spacingAndGlyphs" textLength="122" x="977" y="153.0669">GrossPriceQuantity</text><text fill="#000000" font-family="sans-serif" font-size="13" lengthAdjust="spacingAndGlyphs" textLength="7" x="1226.921" y="213.8787">*</text><!--link LineItem to ProductQuantity--><path d="M1069.46,87.218 C1082.94,104.449 1110.87,137.575 1141,158 C1175.35,181.288 1219.51,198.561 1251.73,209.255 " fill="none" id="LineItem-ProductQuantity" style="stroke: #A80036; stroke-width: 1.0;"/><polygon fill="#A80036" points="1256.79,210.914,1249.4833,204.3101,1252.0386,209.3569,1246.9919,211.9123,1256.79,210.914" style="stroke: #A80036; stroke-width: 1.0;"/><text fill="#000000" font-family="sans-serif" font-size="13" lengthAdjust="spacingAndGlyphs" textLength="108" x="1142" y="153.0669">NetPriceQuantity</text><text fill="#000000" font-family="sans-serif" font-size="13" lengthAdjust="spacingAndGlyphs" textLength="7" x="1244.7725" y="199.9327">*</text><!--link LineItem to ProductQuantity--><path d="M1089.63,78.366 C1131.02,83.193 1207.87,97.614 1256,140 C1275.9,157.522 1286.48,187.414 1291.41,205.859 " fill="none" id="LineItem-ProductQuantity" style="stroke: #A80036; stroke-width: 1.0;"/><polygon fill="#A80036" points="1292.65,210.739,1294.3087,201.0308,1291.4178,205.8932,1286.5554,203.0023,1292.65,210.739" style="stroke: #A80036; stroke-width: 1.0;"/><text fill="#000000" font-family="sans-serif" font-size="13" lengthAdjust="spacingAndGlyphs" textLength="80" x="1272" y="153.0669">GrossWeight</text><text fill="#000000" font-family="sans-serif" font-size="13" lengthAdjust="spacingAndGlyphs" textLength="7" x="1282.2981" y="199.956">*</text><!--link Country to Tax--><path d="M1579.11,464.084 C1582.46,481.729 1589.03,516.297 1592.91,536.745 " fill="none" id="Country-Tax" style="stroke: #A80036; stroke-width: 1.0;"/><polygon fill="#A80036" points="1593.88,541.867,1596.1314,532.2789,1592.9475,536.9547,1588.2717,533.7709,1593.88,541.867" style="stroke: #A80036; stroke-width: 1.0;"/><text fill="#000000" font-family="sans-serif" font-size="13" lengthAdjust="spacingAndGlyphs" textLength="22" x="1590" y="507.0669">Tax</text><text fill="#000000" font-family="sans-serif" font-size="13" lengthAdjust="spacingAndGlyphs" textLength="8" x="1582.3466" y="530.8695">1</text><!--link ProductDelivery to Transport--><path d="M1419.72,732.843 C1200.2,749.295 342.016,813.6115 148.786,828.0932 " fill="none" id="ProductDelivery-Transport" style="stroke: #A80036; stroke-width: 1.0;"/><polygon fill="#A80036" points="143.533,828.4869,152.8072,831.802,148.519,828.1126,152.2083,823.8244,143.533,828.4869" style="stroke: #A80036; stroke-width: 1.0;"/><text fill="#000000" font-family="sans-serif" font-size="13" lengthAdjust="spacingAndGlyphs" textLength="48" x="873" y="785.0669">Routing</text><text fill="#000000" font-family="sans-serif" font-size="13" lengthAdjust="spacingAndGlyphs" textLength="7" x="151.5793" y="821.9439">*</text></g></svg>