<?xml version="1.0" encoding="UTF-8" standalone="no"?><svg xmlns="http://www.w3.org/2000/svg" xmlns:xlink="http://www.w3.org/1999/xlink" contentScriptType="application/ecmascript" contentStyleType="text/css" height="645px" preserveAspectRatio="none" style="width:1858px;height:645px;" version="1.1" viewBox="0 0 1858 645" width="1858px" zoomAndPan="magnify"><defs><filter height="300%" id="f1dq2k62qsnpeq" width="300%" x="-1" y="-1"><feGaussianBlur result="blurOut" stdDeviation="2.0"/><feColorMatrix in="blurOut" result="blurOut2" type="matrix" values="0 0 0 0 0 0 0 0 0 0 0 0 0 0 0 0 0 0 .4 0"/><feOffset dx="4.0" dy="4.0" in="blurOut2" result="blurOut3"/><feBlend in="SourceGraphic" in2="blurOut3" mode="normal"/></filter></defs><g><!--cluster ##7595--><!--cluster ##7604--><!--cluster ##7613--><!--class Role--><a target="_top" xlink:actuate="onRequest" xlink:href="../Role.html" xlink:show="new" xlink:title="Role of a party in an activity." xlink:type="simple"><rect fill="#FEFEEE" filter="url(#f1dq2k62qsnpeq)" height="44.7734" id="Role" style="stroke: #A80036; stroke-width: 1.5;" width="175" x="270.75" y="40.5"/><rect fill="#FEFEEE" height="23.9688" style="stroke: #A80036; stroke-width: 1.5;" width="175" x="270.75" y="40.5"/><text fill="#000000" font-family="sans-serif" font-size="12" lengthAdjust="spacingAndGlyphs" textLength="27" x="344.75" y="56.6387">Role</text><line style="stroke: #A80036; stroke-width: 1.5;" x1="271.75" x2="444.75" y1="64.4688" y2="64.4688"/><ellipse cx="281.75" cy="76.3711" fill="#84BE84" rx="3" ry="3" style="stroke: #038048; stroke-width: 1.0;"/><text fill="#000000" font-family="sans-serif" font-size="11" lengthAdjust="spacingAndGlyphs" textLength="53" x="290.75" y="78.6792">PartyRole</text><text fill="#000000" font-family="sans-serif" font-size="11" font-style="italic" lengthAdjust="spacingAndGlyphs" textLength="92" x="347.75" y="78.6792">(PartyRoleCode)</text></a><!--class InformationPartyRole--><a target="_top" xlink:actuate="onRequest" xlink:href="../InformationPartyRole.html" xlink:show="new" xlink:title="Role played by a party as source of information." xlink:type="simple"><rect fill="#FEFEEE" filter="url(#f1dq2k62qsnpeq)" height="23.9688" id="InformationPartyRole" style="stroke: #A80036; stroke-width: 1.5;" width="136" x="292" y="166"/><rect fill="#FEFEEE" height="23.9688" style="stroke: #A80036; stroke-width: 1.5;" width="136" x="292" y="166"/><text fill="#000000" font-family="sans-serif" font-size="12" lengthAdjust="spacingAndGlyphs" textLength="130" x="295" y="182.1387">InformationPartyRole</text></a><!--class IdentificationIssuerRole--><a target="_top" xlink:actuate="onRequest" xlink:href="../IdentificationIssuerRole.html" xlink:show="new" xlink:title="Entity that assigns the identification." xlink:type="simple"><rect fill="#FEFECE" filter="url(#f1dq2k62qsnpeq)" height="70.3828" id="IdentificationIssuerRole" style="stroke: #A80036; stroke-width: 1.5;" width="166" x="280" y="268"/><rect fill="#FEFECE" height="23.9688" style="stroke: #A80036; stroke-width: 1.5;" width="166" x="280" y="268"/><text fill="#000000" font-family="sans-serif" font-size="12" lengthAdjust="spacingAndGlyphs" textLength="146" x="290" y="284.1387">IdentificationIssuerRole</text><line style="stroke: #A80036; stroke-width: 1.5;" x1="281" x2="445" y1="291.9688" y2="291.9688"/><ellipse cx="291" cy="303.8711" fill="#84BE84" rx="3" ry="3" style="stroke: #038048; stroke-width: 1.0;"/><text fill="#000000" font-family="sans-serif" font-size="11" lengthAdjust="spacingAndGlyphs" textLength="44" x="300" y="306.1792">Country</text><text fill="#000000" font-family="sans-serif" font-size="11" font-style="italic" lengthAdjust="spacingAndGlyphs" textLength="82" x="348" y="306.1792">(CountryCode)</text><ellipse cx="291" cy="316.6758" fill="#84BE84" rx="3" ry="3" style="stroke: #038048; stroke-width: 1.0;"/><text fill="#000000" font-family="sans-serif" font-size="11" lengthAdjust="spacingAndGlyphs" textLength="64" x="300" y="318.9839">EntityName</text><text fill="#000000" font-family="sans-serif" font-size="11" font-style="italic" lengthAdjust="spacingAndGlyphs" textLength="70" x="368" y="318.9839">(Max35Text)</text><ellipse cx="291" cy="329.4805" fill="#84BE84" rx="3" ry="3" style="stroke: #038048; stroke-width: 1.0;"/><text fill="#000000" font-family="sans-serif" font-size="11" lengthAdjust="spacingAndGlyphs" textLength="66" x="300" y="331.7886">OwnerCode</text><text fill="#000000" font-family="sans-serif" font-size="11" font-style="italic" lengthAdjust="spacingAndGlyphs" textLength="70" x="370" y="331.7886">(Max35Text)</text></a><!--class RolePlayer--><a target="_top" xlink:actuate="onRequest" xlink:href="../RolePlayer.html" xlink:show="new" xlink:title="Type of entity that plays a specific role in a specific context." xlink:type="simple"><rect fill="#EEEEEE" filter="url(#f1dq2k62qsnpeq)" height="23.9688" id="RolePlayer" style="stroke: #A80036; stroke-width: 1.5;" width="71" x="1539.75" y="504"/><rect fill="#EEEEEE" height="23.9688" style="stroke: #A80036; stroke-width: 1.5;" width="71" x="1539.75" y="504"/><text fill="#000000" font-family="sans-serif" font-size="12" lengthAdjust="spacingAndGlyphs" textLength="65" x="1542.75" y="520.1387">RolePlayer</text></a><!--class ContactPersonRole--><a target="_top" xlink:actuate="onRequest" xlink:href="../ContactPersonRole.html" xlink:show="new" xlink:title="Person to be contacted in a given organisation. In the corporate action domain (including meeting notifications) , it is the contact person at the party organising the meeting, at the issuer or at an intermediary." xlink:type="simple"><rect fill="#EEEEEE" filter="url(#f1dq2k62qsnpeq)" height="23.9688" id="ContactPersonRole" style="stroke: #A80036; stroke-width: 1.5;" width="126" x="1492" y="418"/><rect fill="#EEEEEE" height="23.9688" style="stroke: #A80036; stroke-width: 1.5;" width="126" x="1492" y="418"/><text fill="#000000" font-family="sans-serif" font-size="12" lengthAdjust="spacingAndGlyphs" textLength="120" x="1495" y="434.1387">ContactPersonRole</text></a><!--class CounterpartyRisk--><a target="_top" xlink:actuate="onRequest" xlink:href="../CounterpartyRisk.html" xlink:show="new" xlink:title="Calculation of the exposure amount that one party has vis-a-vis one counterparty or a central system, based on its credit risk." xlink:type="simple"><rect fill="#EEEEEE" filter="url(#f1dq2k62qsnpeq)" height="23.9688" id="CounterpartyRisk" style="stroke: #A80036; stroke-width: 1.5;" width="113" x="1492.75" y="291"/><rect fill="#EEEEEE" height="23.9688" style="stroke: #A80036; stroke-width: 1.5;" width="113" x="1492.75" y="291"/><text fill="#000000" font-family="sans-serif" font-size="12" lengthAdjust="spacingAndGlyphs" textLength="107" x="1495.75" y="307.1387">CounterpartyRisk</text></a><!--class Entry--><a target="_top" xlink:actuate="onRequest" xlink:href="../Entry.html" xlink:show="new" xlink:title="Posting to an account that results in an increase or decrease to a balance." xlink:type="simple"><rect fill="#EEEEEE" filter="url(#f1dq2k62qsnpeq)" height="23.9688" id="Entry" style="stroke: #A80036; stroke-width: 1.5;" width="38" x="1536" y="166"/><rect fill="#EEEEEE" height="23.9688" style="stroke: #A80036; stroke-width: 1.5;" width="38" x="1536" y="166"/><text fill="#000000" font-family="sans-serif" font-size="12" lengthAdjust="spacingAndGlyphs" textLength="32" x="1539" y="182.1387">Entry</text></a><!--class GenericIdentification--><a target="_top" xlink:actuate="onRequest" xlink:href="../GenericIdentification.html" xlink:show="new" xlink:title="Information related to a non-standardised identification, such as a proprietary party identification or account identification." xlink:type="simple"><rect fill="#EEEEEE" filter="url(#f1dq2k62qsnpeq)" height="23.9688" id="GenericIdentification" style="stroke: #A80036; stroke-width: 1.5;" width="135" x="566.75" y="291"/><rect fill="#EEEEEE" height="23.9688" style="stroke: #A80036; stroke-width: 1.5;" width="135" x="566.75" y="291"/><text fill="#000000" font-family="sans-serif" font-size="12" lengthAdjust="spacingAndGlyphs" textLength="129" x="569.75" y="307.1387">GenericIdentification</text></a><!--class HaircutValuation--><a target="_top" xlink:actuate="onRequest" xlink:href="../HaircutValuation.html" xlink:show="new" xlink:title="Basic valuation details of an asset's market value." xlink:type="simple"><rect fill="#EEEEEE" filter="url(#f1dq2k62qsnpeq)" height="23.9688" id="HaircutValuation" style="stroke: #A80036; stroke-width: 1.5;" width="110" x="1271" y="608"/><rect fill="#EEEEEE" height="23.9688" style="stroke: #A80036; stroke-width: 1.5;" width="110" x="1271" y="608"/><text fill="#000000" font-family="sans-serif" font-size="12" lengthAdjust="spacingAndGlyphs" textLength="104" x="1274" y="624.1387">HaircutValuation</text></a><!--class SecuritiesPricing--><a target="_top" xlink:actuate="onRequest" xlink:href="../SecuritiesPricing.html" xlink:show="new" xlink:title="Characteristics related to the price of the security." xlink:type="simple"><rect fill="#EEEEEE" filter="url(#f1dq2k62qsnpeq)" height="23.9688" id="SecuritiesPricing" style="stroke: #A80036; stroke-width: 1.5;" width="110" x="862" y="504"/><rect fill="#EEEEEE" height="23.9688" style="stroke: #A80036; stroke-width: 1.5;" width="110" x="862" y="504"/><text fill="#000000" font-family="sans-serif" font-size="12" lengthAdjust="spacingAndGlyphs" textLength="104" x="865" y="520.1387">SecuritiesPricing</text></a><!--class Scheme--><a target="_top" xlink:actuate="onRequest" xlink:href="../Scheme.html" xlink:show="new" xlink:title="Information regarding an enumerated code list and its owner." xlink:type="simple"><rect fill="#EEEEEE" filter="url(#f1dq2k62qsnpeq)" height="23.9688" id="Scheme" style="stroke: #A80036; stroke-width: 1.5;" width="56" x="606.5" y="418"/><rect fill="#EEEEEE" height="23.9688" style="stroke: #A80036; stroke-width: 1.5;" width="56" x="606.5" y="418"/><text fill="#000000" font-family="sans-serif" font-size="12" lengthAdjust="spacingAndGlyphs" textLength="50" x="609.5" y="434.1387">Scheme</text></a><!--class Quote--><a target="_top" xlink:actuate="onRequest" xlink:href="../Quote.html" xlink:show="new" xlink:title="Indicates whether the quote details are indicated as an offer, a bid or a mid of a security, commodity, currency (the latter being an average of the offer and the bid)." xlink:type="simple"><rect fill="#EEEEEE" filter="url(#f1dq2k62qsnpeq)" height="23.9688" id="Quote" style="stroke: #A80036; stroke-width: 1.5;" width="44" x="529.5" y="608"/><rect fill="#EEEEEE" height="23.9688" style="stroke: #A80036; stroke-width: 1.5;" width="44" x="529.5" y="608"/><text fill="#000000" font-family="sans-serif" font-size="12" lengthAdjust="spacingAndGlyphs" textLength="38" x="532.5" y="624.1387">Quote</text></a><!--class TreasuryTrade--><a target="_top" xlink:actuate="onRequest" xlink:href="../TreasuryTrade.html" xlink:show="new" xlink:title="Specifies trades linked to treasury operations such as the exchange of currencies, the lending of cash amounts and the related derivatives trades (options and non deliverable trades)." xlink:type="simple"><rect fill="#EEEEEE" filter="url(#f1dq2k62qsnpeq)" height="23.9688" id="TreasuryTrade" style="stroke: #A80036; stroke-width: 1.5;" width="96" x="502" y="504"/><rect fill="#EEEEEE" height="23.9688" style="stroke: #A80036; stroke-width: 1.5;" width="96" x="502" y="504"/><text fill="#000000" font-family="sans-serif" font-size="12" lengthAdjust="spacingAndGlyphs" textLength="90" x="505" y="520.1387">TreasuryTrade</text></a><!--entity ##7626--><!--link Role to InformationPartyRole--><path d="M358.736,105.559 C359.118,127.159 359.556,151.898 359.803,165.865 " fill="none" id="Role-InformationPartyRole" style="stroke: #A80036; stroke-width: 1.0;"/><polygon fill="none" points="351.736,105.641,358.381,85.52,365.734,105.393,351.736,105.641" style="stroke: #A80036; stroke-width: 1.0;"/><!--link InformationPartyRole to IdentificationIssuerRole--><path d="M360.768,210.505 C361.196,228.016 361.727,249.825 362.165,267.758 " fill="none" id="InformationPartyRole-IdentificationIssuerRole" style="stroke: #A80036; stroke-width: 1.0;"/><polygon fill="none" points="353.767,210.516,360.277,190.351,367.763,210.174,353.767,210.516" style="stroke: #A80036; stroke-width: 1.0;"/><!--link ContactPersonRole to RolePlayer--><!--link CounterpartyRisk to ContactPersonRole--><!--link Entry to CounterpartyRisk--><!--link HaircutValuation to GenericIdentification--><!--link SecuritiesPricing to HaircutValuation--><!--link Scheme to SecuritiesPricing--><!--link Quote to Scheme--><!--link TreasuryTrade to Quote--><!--link Role to RolePlayer--><path d="M445.354,65.161 C687.431,68.785 1363.48,81.762 1583,116 C1684.52,131.834 1806,74.248 1806,177 C1806,177 1806,177 1806,431 C1806,471.082 1681.61,497.571 1615.39,508.833 " fill="none" id="Role-RolePlayer" style="stroke: #A80036; stroke-width: 1.0;"/><polygon fill="#A80036" points="1610.34,509.682,1619.8784,512.1354,1615.2709,508.8535,1618.5528,504.246,1610.34,509.682" style="stroke: #A80036; stroke-width: 1.0;"/><text fill="#000000" font-family="sans-serif" font-size="13" lengthAdjust="spacingAndGlyphs" textLength="39" x="1807" y="307.0669">Player</text><text fill="#000000" font-family="sans-serif" font-size="13" lengthAdjust="spacingAndGlyphs" textLength="7" x="1618.7816" y="502.5254">*</text><!--link Role to ContactPersonRole--><path d="M445.676,63.476 C682.058,62.763 1328.59,65.618 1535,116 C1647.66,143.5 1666.38,254.858 1622,362 C1612.85,384.088 1592.5,402.691 1576.61,414.647 " fill="none" id="Role-ContactPersonRole" style="stroke: #A80036; stroke-width: 1.0;"/><polygon fill="#A80036" points="1572.26,417.84,1581.8828,415.7422,1576.2917,414.8827,1577.1511,409.2915,1572.26,417.84" style="stroke: #A80036; stroke-width: 1.0;"/><text fill="#000000" font-family="sans-serif" font-size="13" lengthAdjust="spacingAndGlyphs" textLength="121" x="1644" y="233.0669">ContactPersonRole</text><text fill="#000000" font-family="sans-serif" font-size="13" lengthAdjust="spacingAndGlyphs" textLength="8" x="1567.4744" y="406.8332">1</text><!--link Role to CounterpartyRisk--><path d="M445.439,69.558 C622.584,82.544 1035.2,121.581 1367,220 C1425.98,237.496 1490.69,270.16 1524.81,288.541 " fill="none" id="Role-CounterpartyRisk" style="stroke: #A80036; stroke-width: 1.0;"/><polygon fill="#A80036" points="1529.22,290.928,1523.1973,283.1352,1524.8192,288.5546,1519.3999,290.1765,1529.22,290.928" style="stroke: #A80036; stroke-width: 1.0;"/><text fill="#000000" font-family="sans-serif" font-size="13" lengthAdjust="spacingAndGlyphs" textLength="109" x="1250" y="182.0669">CounterpartyRisk</text><text fill="#000000" font-family="sans-serif" font-size="13" lengthAdjust="spacingAndGlyphs" textLength="24" x="1492.8659" y="279.9515">0..1</text><!--link Role to Entry--><path d="M445.398,65.817 C663.806,70.756 1229.18,86.108 1415,116 C1457.8,122.885 1470.16,122.751 1509,142 C1519.82,147.361 1530.63,155.414 1539.05,162.444 " fill="none" id="Role-Entry" style="stroke: #A80036; stroke-width: 1.0;"/><polygon fill="#A80036" points="1542.98,165.797,1538.7256,156.9144,1539.1749,162.5534,1533.5359,163.0027,1542.98,165.797" style="stroke: #A80036; stroke-width: 1.0;"/><text fill="#000000" font-family="sans-serif" font-size="13" lengthAdjust="spacingAndGlyphs" textLength="33" x="1492" y="129.0669">Entry</text><text fill="#000000" font-family="sans-serif" font-size="13" lengthAdjust="spacingAndGlyphs" textLength="8" x="1528.3421" y="155.0332">1</text><!--link InformationPartyRole to GenericIdentification--><path d="M384.799,190.132 C435.437,212.864 550.506,264.519 604.716,288.854 " fill="none" id="InformationPartyRole-GenericIdentification" style="stroke: #A80036; stroke-width: 1.0;"/><polygon fill="#A80036" points="609.455,290.981,602.8837,283.6449,604.8939,288.9326,599.6062,290.9427,609.455,290.981" style="stroke: #A80036; stroke-width: 1.0;"/><text fill="#000000" font-family="sans-serif" font-size="13" lengthAdjust="spacingAndGlyphs" textLength="130" x="490" y="233.0669">GenericIdentification</text><text fill="#000000" font-family="sans-serif" font-size="13" lengthAdjust="spacingAndGlyphs" textLength="7" x="591.3848" y="280.0227">*</text><!--link InformationPartyRole to HaircutValuation--><path d="M428.082,181.771 C592.128,189.24 1005.008,212.99 1131,267 C1200.69,296.874 1219.05,311.264 1267,370 C1326.21,442.531 1337.26,468.695 1358,560 C1359.77,567.8013 1360.6,570.4352 1358,578 C1354.68,587.6535 1348.05,596.7774 1341.68,603.9564 " fill="none" id="InformationPartyRole-HaircutValuation" style="stroke: #A80036; stroke-width: 1.0;"/><polygon fill="#A80036" points="1338.19,607.7357,1347.235,603.8384,1341.5826,604.0627,1341.3582,598.4103,1338.19,607.7357" style="stroke: #A80036; stroke-width: 1.0;"/><text fill="#000000" font-family="sans-serif" font-size="13" lengthAdjust="spacingAndGlyphs" textLength="106" x="1320" y="434.0669">HaircutValuation</text><text fill="#000000" font-family="sans-serif" font-size="13" lengthAdjust="spacingAndGlyphs" textLength="7" x="1332.7373" y="596.9516">*</text><!--link InformationPartyRole to SecuritiesPricing--><path d="M428.009,183.397 C612.991,196.931 1117.91,244.879 1215,370 C1282.46,456.945 1082.76,494.912 977.46,508.553 " fill="none" id="InformationPartyRole-SecuritiesPricing" style="stroke: #A80036; stroke-width: 1.0;"/><polygon fill="#A80036" points="972.209,509.223,981.6429,512.0517,977.1688,508.5902,980.6304,504.1161,972.209,509.223" style="stroke: #A80036; stroke-width: 1.0;"/><text fill="#000000" font-family="sans-serif" font-size="13" lengthAdjust="spacingAndGlyphs" textLength="31" x="1226" y="383.0669">Price</text><text fill="#000000" font-family="sans-serif" font-size="13" lengthAdjust="spacingAndGlyphs" textLength="7" x="980.098" y="503.2481">*</text><!--link InformationPartyRole to Scheme--><path d="M318.189,190.007 C281.359,202.166 229.957,225.718 206,267 C184.808,303.518 178.55,329.919 206,362 C257.058,421.672 509.645,428.574 600.975,429.092 " fill="none" id="InformationPartyRole-Scheme" style="stroke: #A80036; stroke-width: 1.0;"/><polygon fill="#A80036" points="606.238,429.115,597.2564,425.0739,601.2381,429.0921,597.2198,433.0738,606.238,429.115" style="stroke: #A80036; stroke-width: 1.0;"/><text fill="#000000" font-family="sans-serif" font-size="13" lengthAdjust="spacingAndGlyphs" textLength="53" x="207" y="307.0669">Scheme</text><text fill="#000000" font-family="sans-serif" font-size="13" lengthAdjust="spacingAndGlyphs" textLength="24" x="574.404" y="423.6411">0..1</text><!--link InformationPartyRole to Quote--><path d="M291.745,188.511 C188.877,204.788 6,242.143 6,302 C6,302 6,302 6,517 C6,570.3599 414.853,607.8054 524.316,616.8745 " fill="none" id="InformationPartyRole-Quote" style="stroke: #A80036; stroke-width: 1.0;"/><polygon fill="#A80036" points="529.299,617.2849,520.6587,612.5579,524.316,616.8735,520.0004,620.5308,529.299,617.2849" style="stroke: #A80036; stroke-width: 1.0;"/><text fill="#000000" font-family="sans-serif" font-size="13" lengthAdjust="spacingAndGlyphs" textLength="39" x="7" y="434.0669">Quote</text><text fill="#000000" font-family="sans-serif" font-size="13" lengthAdjust="spacingAndGlyphs" textLength="24" x="497.5888" y="611.2296">0..1</text><!--link InformationPartyRole to TreasuryTrade--><path d="M299.561,190.007 C274.883,196.285 246.837,205.822 224,220 C148.381,266.945 61.6061,316.789 115,388 C161.18,449.591 390.956,491.231 496.646,507.432 " fill="none" id="InformationPartyRole-TreasuryTrade" style="stroke: #A80036; stroke-width: 1.0;"/><polygon fill="#A80036" points="501.891,508.23,493.5957,502.9208,496.948,507.4773,492.3914,510.8296,501.891,508.23" style="stroke: #A80036; stroke-width: 1.0;"/><text fill="#000000" font-family="sans-serif" font-size="13" lengthAdjust="spacingAndGlyphs" textLength="91" x="116" y="383.0669">TreasuryTrade</text><text fill="#000000" font-family="sans-serif" font-size="13" lengthAdjust="spacingAndGlyphs" textLength="7" x="487.1505" y="502.2228">*</text><!--link GenericIdentification to Scheme--><path d="M634,315.093 C634,337.183 634,386.762 634,412.614 " fill="none" id="GenericIdentification-Scheme" style="stroke: #A80036; stroke-width: 1.0;"/><polygon fill="#A80036" points="634,417.752,638,408.752,634,412.752,630,408.752,634,417.752" style="stroke: #A80036; stroke-width: 1.0;"/><text fill="#000000" font-family="sans-serif" font-size="13" lengthAdjust="spacingAndGlyphs" textLength="53" x="635" y="383.0669">Scheme</text><text fill="#000000" font-family="sans-serif" font-size="13" lengthAdjust="spacingAndGlyphs" textLength="8" x="623.1781" y="406.9733">1</text><!--link SecuritiesPricing to Quote--><path d="M913.251,528.171 C907.863,542.337 896.492,566.3204 878,578 C828.143,609.4902 646.568,616.8508 577.717,618.5235 " fill="none" id="SecuritiesPricing-Quote" style="stroke: #A80036; stroke-width: 1.0;"/><polygon fill="#A80036" points="572.57,618.643,581.6602,622.4336,577.5687,618.5273,581.475,614.4358,572.57,618.643" style="stroke: #A80036; stroke-width: 1.0;"/><text fill="#000000" font-family="sans-serif" font-size="13" lengthAdjust="spacingAndGlyphs" textLength="218" x="898" y="573.0669">PreviousClosingPriceRelatedQuote</text><text fill="#000000" font-family="sans-serif" font-size="13" lengthAdjust="spacingAndGlyphs" textLength="24" x="581.4576" y="632.3829">0..1</text><!--link SecuritiesPricing to Quote--><path d="M972.31,516.747 C1048.84,518.17 1172.62,527.932 1126,578 C1088.27,618.5138 686.214,619.6229 577.801,619.178 " fill="none" id="SecuritiesPricing-Quote" style="stroke: #A80036; stroke-width: 1.0;"/><polygon fill="#A80036" points="572.565,619.1543,581.5466,623.1954,577.5649,619.1772,581.5832,615.1955,572.565,619.1543" style="stroke: #A80036; stroke-width: 1.0;"/><text fill="#000000" font-family="sans-serif" font-size="13" lengthAdjust="spacingAndGlyphs" textLength="186" x="1137" y="573.0669">RequestedPriceRelatedQuote</text><text fill="#000000" font-family="sans-serif" font-size="13" lengthAdjust="spacingAndGlyphs" textLength="24" x="581.4512" y="612.7316">0..1</text><!--link SecuritiesPricing to Quote--><path d="M861.976,524.736 C806.709,532.339 719.064,543.943 643,552 C632.466,553.116 555.169,552.202 548,560 C537.583,571.3316 540.41,589.6542 544.534,602.8765 " fill="none" id="SecuritiesPricing-Quote" style="stroke: #A80036; stroke-width: 1.0;"/><polygon fill="#A80036" points="546.217,607.8441,547.1181,598.0366,544.6129,603.1084,539.541,600.6032,546.217,607.8441" style="stroke: #A80036; stroke-width: 1.0;"/><text fill="#000000" font-family="sans-serif" font-size="13" lengthAdjust="spacingAndGlyphs" textLength="118" x="549" y="573.0669">PriceRelatedQuote</text><text fill="#000000" font-family="sans-serif" font-size="13" lengthAdjust="spacingAndGlyphs" textLength="24" x="548.526" y="596.8387">0..1</text><!--link SecuritiesPricing to Quote--><path d="M861.675,523.403 C818.116,529.58 756.388,540.877 705,560 C689.707,565.6911 687.911,571.3716 673,578 C641.033,592.2104 602.536,604.3743 577.452,611.6799 " fill="none" id="SecuritiesPricing-Quote" style="stroke: #A80036; stroke-width: 1.0;"/><polygon fill="#A80036" points="572.62,613.0754,582.3764,614.4214,577.4237,611.6882,580.1569,606.7355,572.62,613.0754" style="stroke: #A80036; stroke-width: 1.0;"/><text fill="#000000" font-family="sans-serif" font-size="13" lengthAdjust="spacingAndGlyphs" textLength="162" x="706" y="573.0669">MarketPriceRelatedQuote</text><text fill="#000000" font-family="sans-serif" font-size="13" lengthAdjust="spacingAndGlyphs" textLength="24" x="581.521" y="605.019">0..1</text></g></svg>