<?xml version="1.0" encoding="UTF-8" standalone="no"?><svg xmlns="http://www.w3.org/2000/svg" xmlns:xlink="http://www.w3.org/1999/xlink" contentScriptType="application/ecmascript" contentStyleType="text/css" height="621px" preserveAspectRatio="none" style="width:1973px;height:621px;" version="1.1" viewBox="0 0 1973 621" width="1973px" zoomAndPan="magnify"><defs><filter height="300%" id="fy6m8kf2so6mi" width="300%" x="-1" y="-1"><feGaussianBlur result="blurOut" stdDeviation="2.0"/><feColorMatrix in="blurOut" result="blurOut2" type="matrix" values="0 0 0 0 0 0 0 0 0 0 0 0 0 0 0 0 0 0 .4 0"/><feOffset dx="4.0" dy="4.0" in="blurOut2" result="blurOut3"/><feBlend in="SourceGraphic" in2="blurOut3" mode="normal"/></filter></defs><g><!--cluster ##240--><!--cluster ##252--><!--cluster ##261--><!--class Role--><a target="_top" xlink:actuate="onRequest" xlink:href="../Role.html" xlink:show="new" xlink:title="Role of a party in an activity." xlink:type="simple"><rect fill="#FEFEEE" filter="url(#fy6m8kf2so6mi)" height="44.7734" id="Role" style="stroke: #A80036; stroke-width: 1.5;" width="175" x="385.75" y="40.5"/><rect fill="#FEFEEE" height="23.9688" style="stroke: #A80036; stroke-width: 1.5;" width="175" x="385.75" y="40.5"/><text fill="#000000" font-family="sans-serif" font-size="12" lengthAdjust="spacingAndGlyphs" textLength="27" x="459.75" y="56.6387">Role</text><line style="stroke: #A80036; stroke-width: 1.5;" x1="386.75" x2="559.75" y1="64.4688" y2="64.4688"/><ellipse cx="396.75" cy="76.3711" fill="#84BE84" rx="3" ry="3" style="stroke: #038048; stroke-width: 1.0;"/><text fill="#000000" font-family="sans-serif" font-size="11" lengthAdjust="spacingAndGlyphs" textLength="53" x="405.75" y="78.6792">PartyRole</text><text fill="#000000" font-family="sans-serif" font-size="11" font-style="italic" lengthAdjust="spacingAndGlyphs" textLength="92" x="462.75" y="78.6792">(PartyRoleCode)</text></a><!--class InformationPartyRole--><a target="_top" xlink:actuate="onRequest" xlink:href="../InformationPartyRole.html" xlink:show="new" xlink:title="Role played by a party as source of information." xlink:type="simple"><rect fill="#FEFECE" filter="url(#fy6m8kf2so6mi)" height="23.9688" id="InformationPartyRole" style="stroke: #A80036; stroke-width: 1.5;" width="136" x="405" y="166"/><rect fill="#FEFECE" height="23.9688" style="stroke: #A80036; stroke-width: 1.5;" width="136" x="405" y="166"/><text fill="#000000" font-family="sans-serif" font-size="12" lengthAdjust="spacingAndGlyphs" textLength="130" x="408" y="182.1387">InformationPartyRole</text></a><!--class IdentificationIssuerRole--><a target="_top" xlink:actuate="onRequest" xlink:href="../IdentificationIssuerRole.html" xlink:show="new" xlink:title="Entity that assigns the identification." xlink:type="simple"><rect fill="#FEFEEE" filter="url(#fy6m8kf2so6mi)" height="23.9688" id="IdentificationIssuerRole" style="stroke: #A80036; stroke-width: 1.5;" width="152" x="280" y="270"/><rect fill="#FEFEEE" height="23.9688" style="stroke: #A80036; stroke-width: 1.5;" width="152" x="280" y="270"/><text fill="#000000" font-family="sans-serif" font-size="12" lengthAdjust="spacingAndGlyphs" textLength="146" x="283" y="286.1387">IdentificationIssuerRole</text></a><!--class SourceOfPrice--><a target="_top" xlink:actuate="onRequest" xlink:href="../SourceOfPrice.html" xlink:show="new" xlink:title="Place from which the price was obtained." xlink:type="simple"><rect fill="#FEFEEE" filter="url(#fy6m8kf2so6mi)" height="23.9688" id="SourceOfPrice" style="stroke: #A80036; stroke-width: 1.5;" width="94" x="467" y="270"/><rect fill="#FEFEEE" height="23.9688" style="stroke: #A80036; stroke-width: 1.5;" width="94" x="467" y="270"/><text fill="#000000" font-family="sans-serif" font-size="12" lengthAdjust="spacingAndGlyphs" textLength="88" x="470" y="286.1387">SourceOfPrice</text></a><!--class RolePlayer--><a target="_top" xlink:actuate="onRequest" xlink:href="../RolePlayer.html" xlink:show="new" xlink:title="Type of entity that plays a specific role in a specific context." xlink:type="simple"><rect fill="#EEEEEE" filter="url(#fy6m8kf2so6mi)" height="23.9688" id="RolePlayer" style="stroke: #A80036; stroke-width: 1.5;" width="71" x="1654.75" y="460"/><rect fill="#EEEEEE" height="23.9688" style="stroke: #A80036; stroke-width: 1.5;" width="71" x="1654.75" y="460"/><text fill="#000000" font-family="sans-serif" font-size="12" lengthAdjust="spacingAndGlyphs" textLength="65" x="1657.75" y="476.1387">RolePlayer</text></a><!--class ContactPersonRole--><a target="_top" xlink:actuate="onRequest" xlink:href="../ContactPersonRole.html" xlink:show="new" xlink:title="Person to be contacted in a given organisation. In the corporate action domain (including meeting notifications) , it is the contact person at the party organising the meeting, at the issuer or at an intermediary." xlink:type="simple"><rect fill="#EEEEEE" filter="url(#fy6m8kf2so6mi)" height="23.9688" id="ContactPersonRole" style="stroke: #A80036; stroke-width: 1.5;" width="126" x="1607" y="374"/><rect fill="#EEEEEE" height="23.9688" style="stroke: #A80036; stroke-width: 1.5;" width="126" x="1607" y="374"/><text fill="#000000" font-family="sans-serif" font-size="12" lengthAdjust="spacingAndGlyphs" textLength="120" x="1610" y="390.1387">ContactPersonRole</text></a><!--class CounterpartyRisk--><a target="_top" xlink:actuate="onRequest" xlink:href="../CounterpartyRisk.html" xlink:show="new" xlink:title="Calculation of the exposure amount that one party has vis-a-vis one counterparty or a central system, based on its credit risk." xlink:type="simple"><rect fill="#EEEEEE" filter="url(#fy6m8kf2so6mi)" height="23.9688" id="CounterpartyRisk" style="stroke: #A80036; stroke-width: 1.5;" width="113" x="1607.75" y="270"/><rect fill="#EEEEEE" height="23.9688" style="stroke: #A80036; stroke-width: 1.5;" width="113" x="1607.75" y="270"/><text fill="#000000" font-family="sans-serif" font-size="12" lengthAdjust="spacingAndGlyphs" textLength="107" x="1610.75" y="286.1387">CounterpartyRisk</text></a><!--class Entry--><a target="_top" xlink:actuate="onRequest" xlink:href="../Entry.html" xlink:show="new" xlink:title="Posting to an account that results in an increase or decrease to a balance." xlink:type="simple"><rect fill="#EEEEEE" filter="url(#fy6m8kf2so6mi)" height="23.9688" id="Entry" style="stroke: #A80036; stroke-width: 1.5;" width="38" x="1651" y="166"/><rect fill="#EEEEEE" height="23.9688" style="stroke: #A80036; stroke-width: 1.5;" width="38" x="1651" y="166"/><text fill="#000000" font-family="sans-serif" font-size="12" lengthAdjust="spacingAndGlyphs" textLength="32" x="1654" y="182.1387">Entry</text></a><!--class GenericIdentification--><a target="_top" xlink:actuate="onRequest" xlink:href="../GenericIdentification.html" xlink:show="new" xlink:title="Information related to a non-standardised identification, such as a proprietary party identification or account identification." xlink:type="simple"><rect fill="#EEEEEE" filter="url(#fy6m8kf2so6mi)" height="23.9688" id="GenericIdentification" style="stroke: #A80036; stroke-width: 1.5;" width="135" x="681.75" y="270"/><rect fill="#EEEEEE" height="23.9688" style="stroke: #A80036; stroke-width: 1.5;" width="135" x="681.75" y="270"/><text fill="#000000" font-family="sans-serif" font-size="12" lengthAdjust="spacingAndGlyphs" textLength="129" x="684.75" y="286.1387">GenericIdentification</text></a><!--class HaircutValuation--><a target="_top" xlink:actuate="onRequest" xlink:href="../HaircutValuation.html" xlink:show="new" xlink:title="Basic valuation details of an asset's market value." xlink:type="simple"><rect fill="#EEEEEE" filter="url(#fy6m8kf2so6mi)" height="23.9688" id="HaircutValuation" style="stroke: #A80036; stroke-width: 1.5;" width="110" x="1386" y="564"/><rect fill="#EEEEEE" height="23.9688" style="stroke: #A80036; stroke-width: 1.5;" width="110" x="1386" y="564"/><text fill="#000000" font-family="sans-serif" font-size="12" lengthAdjust="spacingAndGlyphs" textLength="104" x="1389" y="580.1387">HaircutValuation</text></a><!--class SecuritiesPricing--><a target="_top" xlink:actuate="onRequest" xlink:href="../SecuritiesPricing.html" xlink:show="new" xlink:title="Characteristics related to the price of the security." xlink:type="simple"><rect fill="#EEEEEE" filter="url(#fy6m8kf2so6mi)" height="23.9688" id="SecuritiesPricing" style="stroke: #A80036; stroke-width: 1.5;" width="110" x="1101" y="460"/><rect fill="#EEEEEE" height="23.9688" style="stroke: #A80036; stroke-width: 1.5;" width="110" x="1101" y="460"/><text fill="#000000" font-family="sans-serif" font-size="12" lengthAdjust="spacingAndGlyphs" textLength="104" x="1104" y="476.1387">SecuritiesPricing</text></a><!--class Scheme--><a target="_top" xlink:actuate="onRequest" xlink:href="../Scheme.html" xlink:show="new" xlink:title="Information regarding an enumerated code list and its owner." xlink:type="simple"><rect fill="#EEEEEE" filter="url(#fy6m8kf2so6mi)" height="23.9688" id="Scheme" style="stroke: #A80036; stroke-width: 1.5;" width="56" x="721.5" y="374"/><rect fill="#EEEEEE" height="23.9688" style="stroke: #A80036; stroke-width: 1.5;" width="56" x="721.5" y="374"/><text fill="#000000" font-family="sans-serif" font-size="12" lengthAdjust="spacingAndGlyphs" textLength="50" x="724.5" y="390.1387">Scheme</text></a><!--class Quote--><a target="_top" xlink:actuate="onRequest" xlink:href="../Quote.html" xlink:show="new" xlink:title="Indicates whether the quote details are indicated as an offer, a bid or a mid of a security, commodity, currency (the latter being an average of the offer and the bid)." xlink:type="simple"><rect fill="#EEEEEE" filter="url(#fy6m8kf2so6mi)" height="23.9688" id="Quote" style="stroke: #A80036; stroke-width: 1.5;" width="44" x="644.5" y="564"/><rect fill="#EEEEEE" height="23.9688" style="stroke: #A80036; stroke-width: 1.5;" width="44" x="644.5" y="564"/><text fill="#000000" font-family="sans-serif" font-size="12" lengthAdjust="spacingAndGlyphs" textLength="38" x="647.5" y="580.1387">Quote</text></a><!--class TreasuryTrade--><a target="_top" xlink:actuate="onRequest" xlink:href="../TreasuryTrade.html" xlink:show="new" xlink:title="Specifies trades linked to treasury operations such as the exchange of currencies, the lending of cash amounts and the related derivatives trades (options and non deliverable trades)." xlink:type="simple"><rect fill="#EEEEEE" filter="url(#fy6m8kf2so6mi)" height="23.9688" id="TreasuryTrade" style="stroke: #A80036; stroke-width: 1.5;" width="96" x="617" y="460"/><rect fill="#EEEEEE" height="23.9688" style="stroke: #A80036; stroke-width: 1.5;" width="96" x="617" y="460"/><text fill="#000000" font-family="sans-serif" font-size="12" lengthAdjust="spacingAndGlyphs" textLength="90" x="620" y="476.1387">TreasuryTrade</text></a><!--link Role to InformationPartyRole--><path d="M473,105.559 C473,127.159 473,151.898 473,165.865 " fill="none" id="Role-InformationPartyRole" style="stroke: #A80036; stroke-width: 1.0;"/><polygon fill="none" points="466,105.52,473,85.52,480,105.52,466,105.52" style="stroke: #A80036; stroke-width: 1.0;"/><!--link InformationPartyRole to IdentificationIssuerRole--><path d="M444.774,203.607 C420.556,224.721 386.782,254.165 368.671,269.954 " fill="none" id="InformationPartyRole-IdentificationIssuerRole" style="stroke: #A80036; stroke-width: 1.0;"/><polygon fill="none" points="440.356,198.172,460.032,190.306,449.556,208.725,440.356,198.172" style="stroke: #A80036; stroke-width: 1.0;"/><!--link InformationPartyRole to SourceOfPrice--><path d="M485.045,208.965 C493.285,229.465 503.734,255.461 509.56,269.954 " fill="none" id="InformationPartyRole-SourceOfPrice" style="stroke: #A80036; stroke-width: 1.0;"/><polygon fill="none" points="478.509,211.473,477.544,190.306,491.499,206.252,478.509,211.473" style="stroke: #A80036; stroke-width: 1.0;"/><!--link ContactPersonRole to RolePlayer--><!--link CounterpartyRisk to ContactPersonRole--><!--link Entry to CounterpartyRisk--><!--link HaircutValuation to GenericIdentification--><!--link SecuritiesPricing to HaircutValuation--><!--link Scheme to SecuritiesPricing--><!--link Quote to Scheme--><!--link TreasuryTrade to Quote--><!--link Role to RolePlayer--><path d="M560.574,65.115 C803.259,68.618 1481,81.308 1701,116 C1801.23,131.805 1921,75.533 1921,177 C1921,177 1921,177 1921,387 C1921,427.082 1796.61,453.571 1730.39,464.833 " fill="none" id="Role-RolePlayer" style="stroke: #A80036; stroke-width: 1.0;"/><polygon fill="#A80036" points="1725.34,465.682,1734.8784,468.1354,1730.2709,464.8535,1733.5528,460.246,1725.34,465.682" style="stroke: #A80036; stroke-width: 1.0;"/><text fill="#000000" font-family="sans-serif" font-size="13" lengthAdjust="spacingAndGlyphs" textLength="39" x="1922" y="286.0669">Player</text><text fill="#000000" font-family="sans-serif" font-size="13" lengthAdjust="spacingAndGlyphs" textLength="7" x="1733.7816" y="458.5254">*</text><!--link Role to ContactPersonRole--><path d="M560.676,63.476 C797.058,62.763 1443.59,65.618 1650,116 C1676.66,122.507 1688.05,121.242 1706,142 C1757.95,202.083 1767.4,244.62 1737,318 C1727.85,340.088 1707.5,358.691 1691.61,370.647 " fill="none" id="Role-ContactPersonRole" style="stroke: #A80036; stroke-width: 1.0;"/><polygon fill="#A80036" points="1687.26,373.84,1696.8828,371.7422,1691.2917,370.8827,1692.1511,365.2915,1687.26,373.84" style="stroke: #A80036; stroke-width: 1.0;"/><text fill="#000000" font-family="sans-serif" font-size="13" lengthAdjust="spacingAndGlyphs" textLength="121" x="1755" y="233.0669">ContactPersonRole</text><text fill="#000000" font-family="sans-serif" font-size="13" lengthAdjust="spacingAndGlyphs" textLength="8" x="1682.4744" y="362.8332">1</text><!--link Role to CounterpartyRisk--><path d="M560.355,72.448 C736.499,90.588 1146.13,138.377 1482,220 C1535.3,232.954 1595.31,254.47 1631.36,268.181 " fill="none" id="Role-CounterpartyRisk" style="stroke: #A80036; stroke-width: 1.0;"/><polygon fill="#A80036" points="1636.06,269.979,1629.0815,263.0291,1631.3896,268.1937,1626.225,270.5017,1636.06,269.979" style="stroke: #A80036; stroke-width: 1.0;"/><text fill="#000000" font-family="sans-serif" font-size="13" lengthAdjust="spacingAndGlyphs" textLength="109" x="1348" y="182.0669">CounterpartyRisk</text><text fill="#000000" font-family="sans-serif" font-size="13" lengthAdjust="spacingAndGlyphs" textLength="24" x="1596.9009" y="259.02">0..1</text><!--link Role to Entry--><path d="M560.398,65.817 C778.806,70.756 1344.18,86.108 1530,116 C1572.8,122.885 1585.16,122.751 1624,142 C1634.82,147.361 1645.63,155.414 1654.05,162.444 " fill="none" id="Role-Entry" style="stroke: #A80036; stroke-width: 1.0;"/><polygon fill="#A80036" points="1657.98,165.797,1653.7256,156.9144,1654.1749,162.5534,1648.5359,163.0027,1657.98,165.797" style="stroke: #A80036; stroke-width: 1.0;"/><text fill="#000000" font-family="sans-serif" font-size="13" lengthAdjust="spacingAndGlyphs" textLength="33" x="1607" y="129.0669">Entry</text><text fill="#000000" font-family="sans-serif" font-size="13" lengthAdjust="spacingAndGlyphs" textLength="8" x="1643.3421" y="155.0332">1</text><!--link InformationPartyRole to GenericIdentification--><path d="M502.799,190.013 C554.215,209.014 659.334,247.863 714.09,268.098 " fill="none" id="InformationPartyRole-GenericIdentification" style="stroke: #A80036; stroke-width: 1.0;"/><polygon fill="#A80036" points="718.907,269.879,711.853,263.0058,714.2174,268.1448,709.0783,270.5092,718.907,269.879" style="stroke: #A80036; stroke-width: 1.0;"/><text fill="#000000" font-family="sans-serif" font-size="13" lengthAdjust="spacingAndGlyphs" textLength="130" x="629" y="233.0669">GenericIdentification</text><text fill="#000000" font-family="sans-serif" font-size="13" lengthAdjust="spacingAndGlyphs" textLength="7" x="698.9297" y="258.8856">*</text><!--link InformationPartyRole to HaircutValuation--><path d="M541.06,179.362 C709.323,181.104 1140.73,190.97 1272,246 C1416.06,306.393 1455.01,365.544 1497,516 C1499.15,523.7056 1500.62,526.8653 1497,534 C1491.18,545.4714 1480.48,554.5051 1469.98,561.1393 " fill="none" id="InformationPartyRole-HaircutValuation" style="stroke: #A80036; stroke-width: 1.0;"/><polygon fill="#A80036" points="1465.5,563.8357,1475.272,562.608,1469.7803,561.2513,1471.137,555.7595,1465.5,563.8357" style="stroke: #A80036; stroke-width: 1.0;"/><text fill="#000000" font-family="sans-serif" font-size="13" lengthAdjust="spacingAndGlyphs" textLength="106" x="1456" y="390.0669">HaircutValuation</text><text fill="#000000" font-family="sans-serif" font-size="13" lengthAdjust="spacingAndGlyphs" textLength="7" x="1464.375" y="552.8274">*</text><!--link InformationPartyRole to SecuritiesPricing--><path d="M541.189,179.81 C726.074,183.601 1229.76,205.047 1330,326 C1377.44,383.245 1259.89,435.027 1195.19,458.189 " fill="none" id="InformationPartyRole-SecuritiesPricing" style="stroke: #A80036; stroke-width: 1.0;"/><polygon fill="#A80036" points="1190.24,459.94,1200.0593,460.7026,1194.9526,458.2692,1197.386,453.1625,1190.24,459.94" style="stroke: #A80036; stroke-width: 1.0;"/><text fill="#000000" font-family="sans-serif" font-size="13" lengthAdjust="spacingAndGlyphs" textLength="31" x="1341" y="339.0669">Price</text><text fill="#000000" font-family="sans-serif" font-size="13" lengthAdjust="spacingAndGlyphs" textLength="7" x="1192.4631" y="448.9676">*</text><!--link InformationPartyRole to Scheme--><path d="M404.965,186.595 C334.158,196.065 230.251,214.912 206,246 C186.318,271.231 184.803,294.027 206,318 C240.026,356.482 604.252,377.769 716.354,383.443 " fill="none" id="InformationPartyRole-Scheme" style="stroke: #A80036; stroke-width: 1.0;"/><polygon fill="#A80036" points="721.5,383.702,712.7125,379.2545,716.5063,383.4506,712.3103,387.2444,721.5,383.702" style="stroke: #A80036; stroke-width: 1.0;"/><text fill="#000000" font-family="sans-serif" font-size="13" lengthAdjust="spacingAndGlyphs" textLength="53" x="207" y="286.0669">Scheme</text><text fill="#000000" font-family="sans-serif" font-size="13" lengthAdjust="spacingAndGlyphs" textLength="24" x="689.4531" y="377.9271">0..1</text><!--link InformationPartyRole to Quote--><path d="M404.844,179.865 C275.226,183.366 6,200.346 6,281 C6,281 6,281 6,473 C6,538.1912 515.411,567.5632 639.156,573.7365 " fill="none" id="InformationPartyRole-Quote" style="stroke: #A80036; stroke-width: 1.0;"/><polygon fill="#A80036" points="644.416,573.9965,635.6235,569.559,639.422,573.7508,635.2303,577.5494,644.416,573.9965" style="stroke: #A80036; stroke-width: 1.0;"/><text fill="#000000" font-family="sans-serif" font-size="13" lengthAdjust="spacingAndGlyphs" textLength="39" x="7" y="390.0669">Quote</text><text fill="#000000" font-family="sans-serif" font-size="13" lengthAdjust="spacingAndGlyphs" textLength="24" x="612.5088" y="568.0117">0..1</text><!--link InformationPartyRole to TreasuryTrade--><path d="M404.965,184.55 C338.093,190.885 241.357,202.665 208,220 C147.575,251.401 75.6415,290.68 118,344 C179.458,421.362 486.501,455.834 611.714,466.836 " fill="none" id="InformationPartyRole-TreasuryTrade" style="stroke: #A80036; stroke-width: 1.0;"/><polygon fill="#A80036" points="616.815,467.28,608.1951,462.5159,611.8338,466.8472,607.5025,470.4859,616.815,467.28" style="stroke: #A80036; stroke-width: 1.0;"/><text fill="#000000" font-family="sans-serif" font-size="13" lengthAdjust="spacingAndGlyphs" textLength="91" x="119" y="339.0669">TreasuryTrade</text><text fill="#000000" font-family="sans-serif" font-size="13" lengthAdjust="spacingAndGlyphs" textLength="7" x="602.0647" y="461.6636">*</text><!--link GenericIdentification to Scheme--><path d="M749,294.306 C749,312.399 749,347.936 749,368.75 " fill="none" id="GenericIdentification-Scheme" style="stroke: #A80036; stroke-width: 1.0;"/><polygon fill="#A80036" points="749,373.954,753,364.954,749,368.954,745,364.954,749,373.954" style="stroke: #A80036; stroke-width: 1.0;"/><text fill="#000000" font-family="sans-serif" font-size="13" lengthAdjust="spacingAndGlyphs" textLength="53" x="750" y="339.0669">Scheme</text><text fill="#000000" font-family="sans-serif" font-size="13" lengthAdjust="spacingAndGlyphs" textLength="8" x="738.1094" y="362.9864">1</text><!--link SecuritiesPricing to Quote--><path d="M1100.96,477.905 C1024.16,484.734 880.495,497.456 758,508 C747.446,508.908 670.169,508.202 663,516 C652.583,527.3316 655.41,545.6542 659.534,558.8765 " fill="none" id="SecuritiesPricing-Quote" style="stroke: #A80036; stroke-width: 1.0;"/><polygon fill="#A80036" points="661.217,563.8441,662.1181,554.0366,659.6129,559.1084,654.541,556.6032,661.217,563.8441" style="stroke: #A80036; stroke-width: 1.0;"/><text fill="#000000" font-family="sans-serif" font-size="13" lengthAdjust="spacingAndGlyphs" textLength="218" x="664" y="529.0669">PreviousClosingPriceRelatedQuote</text><text fill="#000000" font-family="sans-serif" font-size="13" lengthAdjust="spacingAndGlyphs" textLength="24" x="663.526" y="552.8387">0..1</text><!--link SecuritiesPricing to Quote--><path d="M1100.53,478.845 C1052.83,484.912 982.648,496.34 924,516 C907.039,521.6858 904.963,528.3196 888,534 C819.748,556.8558 735.175,568.0188 692.821,572.5032 " fill="none" id="SecuritiesPricing-Quote" style="stroke: #A80036; stroke-width: 1.0;"/><polygon fill="#A80036" points="687.623,573.0423,696.9884,576.09,692.5962,572.5252,696.161,568.1329,687.623,573.0423" style="stroke: #A80036; stroke-width: 1.0;"/><text fill="#000000" font-family="sans-serif" font-size="13" lengthAdjust="spacingAndGlyphs" textLength="186" x="925" y="529.0669">RequestedPriceRelatedQuote</text><text fill="#000000" font-family="sans-serif" font-size="13" lengthAdjust="spacingAndGlyphs" textLength="24" x="696.5248" y="566.052">0..1</text><!--link SecuritiesPricing to Quote--><path d="M1152.31,484.269 C1146.99,498.54 1135.69,522.6371 1117,534 C1080.73,556.0518 784.732,570.0746 693,573.9226 " fill="none" id="SecuritiesPricing-Quote" style="stroke: #A80036; stroke-width: 1.0;"/><polygon fill="#A80036" points="687.765,574.1405,696.924,577.7616,692.7606,573.9319,696.5903,569.7686,687.765,574.1405" style="stroke: #A80036; stroke-width: 1.0;"/><text fill="#000000" font-family="sans-serif" font-size="13" lengthAdjust="spacingAndGlyphs" textLength="118" x="1137" y="529.0669">PriceRelatedQuote</text><text fill="#000000" font-family="sans-serif" font-size="13" lengthAdjust="spacingAndGlyphs" textLength="24" x="696.705" y="587.7453">0..1</text><!--link SecuritiesPricing to Quote--><path d="M1210.29,484.088 C1247.59,494.047 1286.76,510.702 1265,534 C1225.52,576.2762 804.144,576.0634 692.837,575.2601 " fill="none" id="SecuritiesPricing-Quote" style="stroke: #A80036; stroke-width: 1.0;"/><polygon fill="#A80036" points="687.774,575.2216,696.7429,579.2909,692.7739,575.2602,696.8046,571.2911,687.774,575.2216" style="stroke: #A80036; stroke-width: 1.0;"/><text fill="#000000" font-family="sans-serif" font-size="13" lengthAdjust="spacingAndGlyphs" textLength="162" x="1273" y="529.0669">MarketPriceRelatedQuote</text><text fill="#000000" font-family="sans-serif" font-size="13" lengthAdjust="spacingAndGlyphs" textLength="24" x="688.0097" y="608.0396">0..1</text></g></svg>