<?xml version="1.0" encoding="UTF-8" standalone="no"?><svg xmlns="http://www.w3.org/2000/svg" xmlns:xlink="http://www.w3.org/1999/xlink" contentScriptType="application/ecmascript" contentStyleType="text/css" height="1374px" preserveAspectRatio="none" style="width:2855px;height:1374px;" version="1.1" viewBox="0 0 2855 1374" width="2855px" zoomAndPan="magnify"><defs><filter height="300%" id="fzf9ci7izepp8" width="300%" x="-1" y="-1"><feGaussianBlur result="blurOut" stdDeviation="2.0"/><feColorMatrix in="blurOut" result="blurOut2" type="matrix" values="0 0 0 0 0 0 0 0 0 0 0 0 0 0 0 0 0 0 .4 0"/><feOffset dx="4.0" dy="4.0" in="blurOut2" result="blurOut3"/><feBlend in="SourceGraphic" in2="blurOut3" mode="normal"/></filter></defs><g><!--cluster ##5072--><!--cluster ##5078--><!--cluster ##5107--><!--class Document--><a target="_top" xlink:actuate="onRequest" xlink:href="../Document.html" xlink:show="new" xlink:title="General information that unambiguously identifies a document, such as identification number and issue date time." xlink:type="simple"><rect fill="#FEFEEE" filter="url(#fzf9ci7izepp8)" height="172.8203" id="Document" style="stroke: #A80036; stroke-width: 1.5;" width="249" x="1054.75" y="40.5"/><rect fill="#FEFEEE" height="23.9688" style="stroke: #A80036; stroke-width: 1.5;" width="249" x="1054.75" y="40.5"/><text fill="#000000" font-family="sans-serif" font-size="12" lengthAdjust="spacingAndGlyphs" textLength="64" x="1147.25" y="56.6387">Document</text><line style="stroke: #A80036; stroke-width: 1.5;" x1="1055.75" x2="1302.75" y1="64.4688" y2="64.4688"/><ellipse cx="1065.75" cy="76.3711" fill="#84BE84" rx="3" ry="3" style="stroke: #038048; stroke-width: 1.0;"/><text fill="#000000" font-family="sans-serif" font-size="11" lengthAdjust="spacingAndGlyphs" textLength="57" x="1074.75" y="78.6792">IssueDate</text><text fill="#000000" font-family="sans-serif" font-size="11" font-style="italic" lengthAdjust="spacingAndGlyphs" textLength="81" x="1135.75" y="78.6792">(ISODateTime)</text><ellipse cx="1065.75" cy="89.1758" fill="#84BE84" rx="3" ry="3" style="stroke: #038048; stroke-width: 1.0;"/><text fill="#000000" font-family="sans-serif" font-size="11" lengthAdjust="spacingAndGlyphs" textLength="80" x="1074.75" y="91.4839">CopyDuplicate</text><text fill="#000000" font-family="sans-serif" font-size="11" font-style="italic" lengthAdjust="spacingAndGlyphs" textLength="118" x="1158.75" y="91.4839">(CopyDuplicateCode)</text><ellipse cx="1065.75" cy="101.9805" fill="#84BE84" rx="3" ry="3" style="stroke: #038048; stroke-width: 1.0;"/><text fill="#000000" font-family="sans-serif" font-size="11" lengthAdjust="spacingAndGlyphs" textLength="27" x="1074.75" y="104.2886">Type</text><text fill="#000000" font-family="sans-serif" font-size="11" font-style="italic" lengthAdjust="spacingAndGlyphs" textLength="122" x="1105.75" y="104.2886">(DocumentTypeCode)</text><ellipse cx="1065.75" cy="114.7852" fill="#84BE84" rx="3" ry="3" style="stroke: #038048; stroke-width: 1.0;"/><text fill="#000000" font-family="sans-serif" font-size="11" lengthAdjust="spacingAndGlyphs" textLength="43" x="1074.75" y="117.0933">Amount</text><text fill="#000000" font-family="sans-serif" font-size="11" font-style="italic" lengthAdjust="spacingAndGlyphs" textLength="161" x="1121.75" y="117.0933">(ActiveCurrencyAndAmount)</text><ellipse cx="1065.75" cy="127.5898" fill="#84BE84" rx="3" ry="3" style="stroke: #038048; stroke-width: 1.0;"/><text fill="#000000" font-family="sans-serif" font-size="11" lengthAdjust="spacingAndGlyphs" textLength="100" x="1074.75" y="129.8979">DocumentVersion</text><text fill="#000000" font-family="sans-serif" font-size="11" font-style="italic" lengthAdjust="spacingAndGlyphs" textLength="53" x="1178.75" y="129.8979">(Number)</text><ellipse cx="1065.75" cy="140.3945" fill="#84BE84" rx="3" ry="3" style="stroke: #038048; stroke-width: 1.0;"/><text fill="#000000" font-family="sans-serif" font-size="11" lengthAdjust="spacingAndGlyphs" textLength="37" x="1074.75" y="142.7026">Status</text><text fill="#000000" font-family="sans-serif" font-size="11" font-style="italic" lengthAdjust="spacingAndGlyphs" textLength="77" x="1115.75" y="142.7026">(Max140Text)</text><ellipse cx="1065.75" cy="153.1992" fill="#84BE84" rx="3" ry="3" style="stroke: #038048; stroke-width: 1.0;"/><text fill="#000000" font-family="sans-serif" font-size="11" lengthAdjust="spacingAndGlyphs" textLength="72" x="1074.75" y="155.5073">DataSetType</text><text fill="#000000" font-family="sans-serif" font-size="11" font-style="italic" lengthAdjust="spacingAndGlyphs" textLength="109" x="1150.75" y="155.5073">(DataSetTypeCode)</text><ellipse cx="1065.75" cy="166.0039" fill="#84BE84" rx="3" ry="3" style="stroke: #038048; stroke-width: 1.0;"/><text fill="#000000" font-family="sans-serif" font-size="11" lengthAdjust="spacingAndGlyphs" textLength="88" x="1074.75" y="168.312">SignedIndicator</text><text fill="#000000" font-family="sans-serif" font-size="11" font-style="italic" lengthAdjust="spacingAndGlyphs" textLength="92" x="1166.75" y="168.312">(YesNoIndicator)</text><ellipse cx="1065.75" cy="178.8086" fill="#84BE84" rx="3" ry="3" style="stroke: #038048; stroke-width: 1.0;"/><text fill="#000000" font-family="sans-serif" font-size="11" lengthAdjust="spacingAndGlyphs" textLength="93" x="1074.75" y="181.1167">RemittedAmount</text><text fill="#000000" font-family="sans-serif" font-size="11" font-style="italic" lengthAdjust="spacingAndGlyphs" textLength="126" x="1171.75" y="181.1167">(CurrencyAndAmount)</text><ellipse cx="1065.75" cy="191.6133" fill="#84BE84" rx="3" ry="3" style="stroke: #038048; stroke-width: 1.0;"/><text fill="#000000" font-family="sans-serif" font-size="11" lengthAdjust="spacingAndGlyphs" textLength="55" x="1074.75" y="193.9214">Language</text><text fill="#000000" font-family="sans-serif" font-size="11" font-style="italic" lengthAdjust="spacingAndGlyphs" textLength="92" x="1133.75" y="193.9214">(LanguageCode)</text><ellipse cx="1065.75" cy="204.418" fill="#84BE84" rx="3" ry="3" style="stroke: #038048; stroke-width: 1.0;"/><text fill="#000000" font-family="sans-serif" font-size="11" lengthAdjust="spacingAndGlyphs" textLength="47" x="1074.75" y="206.7261">Purpose</text><text fill="#000000" font-family="sans-serif" font-size="11" font-style="italic" lengthAdjust="spacingAndGlyphs" textLength="70" x="1125.75" y="206.7261">(Max35Text)</text></a><!--class InsuranceCertificate--><a target="_top" xlink:actuate="onRequest" xlink:href="../InsuranceCertificate.html" xlink:show="new" xlink:title="Formal document used to record a fact and used as proof of the fact that goods have been insured under an insurance policy." xlink:type="simple"><rect fill="#FEFECE" filter="url(#fzf9ci7izepp8)" height="108.7969" id="InsuranceCertificate" style="stroke: #A80036; stroke-width: 1.5;" width="268" x="1036" y="292.5"/><rect fill="#FEFECE" height="23.9688" style="stroke: #A80036; stroke-width: 1.5;" width="268" x="1036" y="292.5"/><text fill="#000000" font-family="sans-serif" font-size="12" lengthAdjust="spacingAndGlyphs" textLength="126" x="1107" y="308.6387">InsuranceCertificate</text><line style="stroke: #A80036; stroke-width: 1.5;" x1="1037" x2="1303" y1="316.4688" y2="316.4688"/><ellipse cx="1047" cy="328.3711" fill="#84BE84" rx="3" ry="3" style="stroke: #038048; stroke-width: 1.0;"/><text fill="#000000" font-family="sans-serif" font-size="11" lengthAdjust="spacingAndGlyphs" textLength="74" x="1056" y="330.6792">EffectiveDate</text><text fill="#000000" font-family="sans-serif" font-size="11" font-style="italic" lengthAdjust="spacingAndGlyphs" textLength="53" x="1134" y="330.6792">(ISODate)</text><ellipse cx="1047" cy="341.1758" fill="#84BE84" rx="3" ry="3" style="stroke: #038048; stroke-width: 1.0;"/><text fill="#000000" font-family="sans-serif" font-size="11" lengthAdjust="spacingAndGlyphs" textLength="86" x="1056" y="343.4839">InsuredAmount</text><text fill="#000000" font-family="sans-serif" font-size="11" font-style="italic" lengthAdjust="spacingAndGlyphs" textLength="126" x="1146" y="343.4839">(CurrencyAndAmount)</text><ellipse cx="1047" cy="353.9805" fill="#84BE84" rx="3" ry="3" style="stroke: #038048; stroke-width: 1.0;"/><text fill="#000000" font-family="sans-serif" font-size="11" lengthAdjust="spacingAndGlyphs" textLength="116" x="1056" y="356.2886">InsuranceConditions</text><text fill="#000000" font-family="sans-serif" font-size="11" font-style="italic" lengthAdjust="spacingAndGlyphs" textLength="77" x="1176" y="356.2886">(Max350Text)</text><ellipse cx="1047" cy="366.7852" fill="#84BE84" rx="3" ry="3" style="stroke: #038048; stroke-width: 1.0;"/><text fill="#000000" font-family="sans-serif" font-size="11" lengthAdjust="spacingAndGlyphs" textLength="102" x="1056" y="369.0933">InsuranceClauses</text><text fill="#000000" font-family="sans-serif" font-size="11" font-style="italic" lengthAdjust="spacingAndGlyphs" textLength="136" x="1162" y="369.0933">(InsuranceClausesCode)</text><ellipse cx="1047" cy="379.5898" fill="#84BE84" rx="3" ry="3" style="stroke: #038048; stroke-width: 1.0;"/><text fill="#000000" font-family="sans-serif" font-size="11" lengthAdjust="spacingAndGlyphs" textLength="93" x="1056" y="381.8979">ClaimsPayableIn</text><text fill="#000000" font-family="sans-serif" font-size="11" font-style="italic" lengthAdjust="spacingAndGlyphs" textLength="89" x="1153" y="381.8979">(CurrencyCode)</text><ellipse cx="1047" cy="392.3945" fill="#84BE84" rx="3" ry="3" style="stroke: #038048; stroke-width: 1.0;"/><text fill="#000000" font-family="sans-serif" font-size="11" lengthAdjust="spacingAndGlyphs" textLength="83" x="1056" y="394.7026">InsuranceType</text><text fill="#000000" font-family="sans-serif" font-size="11" font-style="italic" lengthAdjust="spacingAndGlyphs" textLength="92" x="1143" y="394.7026">(InsuranceCode)</text></a><!--class ContactPoint--><a target="_top" xlink:actuate="onRequest" xlink:href="../ContactPoint.html" xlink:show="new" xlink:title="Number, physical or virtual address, used for communication." xlink:type="simple"><rect fill="#EEEEEE" filter="url(#fzf9ci7izepp8)" height="23.9688" id="ContactPoint" style="stroke: #A80036; stroke-width: 1.5;" width="87" x="613.75" y="115"/><rect fill="#EEEEEE" height="23.9688" style="stroke: #A80036; stroke-width: 1.5;" width="87" x="613.75" y="115"/><text fill="#000000" font-family="sans-serif" font-size="12" lengthAdjust="spacingAndGlyphs" textLength="81" x="616.75" y="131.1387">ContactPoint</text></a><!--class PaymentObligation--><a target="_top" xlink:actuate="onRequest" xlink:href="../PaymentObligation.html" xlink:show="new" xlink:title="Obligation for the debtor to pay the creditor an amount of cash." xlink:type="simple"><rect fill="#EEEEEE" filter="url(#fzf9ci7izepp8)" height="23.9688" id="PaymentObligation" style="stroke: #A80036; stroke-width: 1.5;" width="123" x="574.75" y="335"/><rect fill="#EEEEEE" height="23.9688" style="stroke: #A80036; stroke-width: 1.5;" width="123" x="574.75" y="335"/><text fill="#000000" font-family="sans-serif" font-size="12" lengthAdjust="spacingAndGlyphs" textLength="117" x="577.75" y="351.1387">PaymentObligation</text></a><!--class Agreement--><a target="_top" xlink:actuate="onRequest" xlink:href="../Agreement.html" xlink:show="new" xlink:title="Contractual details related to an agreement between parties." xlink:type="simple"><rect fill="#EEEEEE" filter="url(#fzf9ci7izepp8)" height="23.9688" id="Agreement" style="stroke: #A80036; stroke-width: 1.5;" width="75" x="160.75" y="1340"/><rect fill="#EEEEEE" height="23.9688" style="stroke: #A80036; stroke-width: 1.5;" width="75" x="160.75" y="1340"/><text fill="#000000" font-family="sans-serif" font-size="12" lengthAdjust="spacingAndGlyphs" textLength="69" x="163.75" y="1356.1387">Agreement</text></a><!--class Location--><a target="_top" xlink:actuate="onRequest" xlink:href="../Location.html" xlink:show="new" xlink:title="Specifies a place." xlink:type="simple"><rect fill="#EEEEEE" filter="url(#fzf9ci7izepp8)" height="23.9688" id="Location" style="stroke: #A80036; stroke-width: 1.5;" width="59" x="527.75" y="1254"/><rect fill="#EEEEEE" height="23.9688" style="stroke: #A80036; stroke-width: 1.5;" width="59" x="527.75" y="1254"/><text fill="#000000" font-family="sans-serif" font-size="12" lengthAdjust="spacingAndGlyphs" textLength="53" x="530.75" y="1270.1387">Location</text></a><!--class Reconciliation--><a target="_top" xlink:actuate="onRequest" xlink:href="../Reconciliation.html" xlink:show="new" xlink:title="Process of matching different documents submitted by parties to a trade." xlink:type="simple"><rect fill="#EEEEEE" filter="url(#fzf9ci7izepp8)" height="23.9688" id="Reconciliation" style="stroke: #A80036; stroke-width: 1.5;" width="93" x="887.75" y="1168"/><rect fill="#EEEEEE" height="23.9688" style="stroke: #A80036; stroke-width: 1.5;" width="93" x="887.75" y="1168"/><text fill="#000000" font-family="sans-serif" font-size="12" lengthAdjust="spacingAndGlyphs" textLength="87" x="890.75" y="1184.1387">Reconciliation</text></a><!--class LetterOfCredit--><a target="_top" xlink:actuate="onRequest" xlink:href="../LetterOfCredit.html" xlink:show="new" xlink:title="Instrument issued by a bank substituting its name and credit standing for that of its customer. A letter of credit is a written undertaking of the bank, issued for the account of a customer (the applicant), to honour a demand for payment, upon the beneficiary's compliance with the terms and conditions set forth in the undertaking." xlink:type="simple"><rect fill="#EEEEEE" filter="url(#fzf9ci7izepp8)" height="23.9688" id="LetterOfCredit" style="stroke: #A80036; stroke-width: 1.5;" width="93" x="887.75" y="1080"/><rect fill="#EEEEEE" height="23.9688" style="stroke: #A80036; stroke-width: 1.5;" width="93" x="887.75" y="1080"/><text fill="#000000" font-family="sans-serif" font-size="12" lengthAdjust="spacingAndGlyphs" textLength="87" x="890.75" y="1096.1387">LetterOfCredit</text></a><!--class DocumentPartyRole--><a target="_top" xlink:actuate="onRequest" xlink:href="../DocumentPartyRole.html" xlink:show="new" xlink:title="Role played by a party in the context of a document." xlink:type="simple"><rect fill="#EEEEEE" filter="url(#fzf9ci7izepp8)" height="23.9688" id="DocumentPartyRole" style="stroke: #A80036; stroke-width: 1.5;" width="129" x="850.75" y="994"/><rect fill="#EEEEEE" height="23.9688" style="stroke: #A80036; stroke-width: 1.5;" width="129" x="850.75" y="994"/><text fill="#000000" font-family="sans-serif" font-size="12" lengthAdjust="spacingAndGlyphs" textLength="123" x="853.75" y="1010.1387">DocumentPartyRole</text></a><!--class Transport--><a target="_top" xlink:actuate="onRequest" xlink:href="../Transport.html" xlink:show="new" xlink:title="Moving of goods or people from one place to another by vehicle." xlink:type="simple"><rect fill="#EEEEEE" filter="url(#fzf9ci7izepp8)" height="23.9688" id="Transport" style="stroke: #A80036; stroke-width: 1.5;" width="67" x="881.75" y="892"/><rect fill="#EEEEEE" height="23.9688" style="stroke: #A80036; stroke-width: 1.5;" width="67" x="881.75" y="892"/><text fill="#000000" font-family="sans-serif" font-size="12" lengthAdjust="spacingAndGlyphs" textLength="61" x="884.75" y="908.1387">Transport</text></a><!--class Guarantee--><a target="_top" xlink:actuate="onRequest" xlink:href="../Guarantee.html" xlink:show="new" xlink:title="Partial or full coverage of amounts by a party other than the debtor." xlink:type="simple"><rect fill="#EEEEEE" filter="url(#fzf9ci7izepp8)" height="23.9688" id="Guarantee" style="stroke: #A80036; stroke-width: 1.5;" width="73" x="905.75" y="788"/><rect fill="#EEEEEE" height="23.9688" style="stroke: #A80036; stroke-width: 1.5;" width="73" x="905.75" y="788"/><text fill="#000000" font-family="sans-serif" font-size="12" lengthAdjust="spacingAndGlyphs" textLength="67" x="908.75" y="804.1387">Guarantee</text></a><!--class GenericIdentification--><a target="_top" xlink:actuate="onRequest" xlink:href="../GenericIdentification.html" xlink:show="new" xlink:title="Information related to a non-standardised identification, such as a proprietary party identification or account identification." xlink:type="simple"><rect fill="#EEEEEE" filter="url(#fzf9ci7izepp8)" height="23.9688" id="GenericIdentification" style="stroke: #A80036; stroke-width: 1.5;" width="135" x="795.75" y="686"/><rect fill="#EEEEEE" height="23.9688" style="stroke: #A80036; stroke-width: 1.5;" width="135" x="795.75" y="686"/><text fill="#000000" font-family="sans-serif" font-size="12" lengthAdjust="spacingAndGlyphs" textLength="129" x="798.75" y="702.1387">GenericIdentification</text></a><!--class Evidence--><a target="_top" xlink:actuate="onRequest" xlink:href="../Evidence.html" xlink:show="new" xlink:title="Element such as signature that can be used to prove a fact." xlink:type="simple"><rect fill="#EEEEEE" filter="url(#fzf9ci7izepp8)" height="23.9688" id="Evidence" style="stroke: #A80036; stroke-width: 1.5;" width="62" x="880.5" y="584"/><rect fill="#EEEEEE" height="23.9688" style="stroke: #A80036; stroke-width: 1.5;" width="62" x="880.5" y="584"/><text fill="#000000" font-family="sans-serif" font-size="12" lengthAdjust="spacingAndGlyphs" textLength="56" x="883.5" y="600.1387">Evidence</text></a><!--class CommercialTrade--><a target="_top" xlink:actuate="onRequest" xlink:href="../CommercialTrade.html" xlink:show="new" xlink:title="Commercial details of a trade transaction between a buyer and a seller." xlink:type="simple"><rect fill="#EEEEEE" filter="url(#fzf9ci7izepp8)" height="23.9688" id="CommercialTrade" style="stroke: #A80036; stroke-width: 1.5;" width="114" x="579" y="482"/><rect fill="#EEEEEE" height="23.9688" style="stroke: #A80036; stroke-width: 1.5;" width="114" x="579" y="482"/><text fill="#000000" font-family="sans-serif" font-size="12" lengthAdjust="spacingAndGlyphs" textLength="108" x="582" y="498.1387">CommercialTrade</text></a><!--class Presentation--><a target="_top" xlink:actuate="onRequest" xlink:href="../Presentation.html" xlink:show="new" xlink:title="Presentation of documents." xlink:type="simple"><rect fill="#EEEEEE" filter="url(#fzf9ci7izepp8)" height="23.9688" id="Presentation" style="stroke: #A80036; stroke-width: 1.5;" width="87" x="759.75" y="892"/><rect fill="#EEEEEE" height="23.9688" style="stroke: #A80036; stroke-width: 1.5;" width="87" x="759.75" y="892"/><text fill="#000000" font-family="sans-serif" font-size="12" lengthAdjust="spacingAndGlyphs" textLength="81" x="762.75" y="908.1387">Presentation</text></a><!--class RegisteredContract--><a target="_top" xlink:actuate="onRequest" xlink:href="../RegisteredContract.html" xlink:show="new" xlink:title="Contract registered for regulatory purpose by a registration agent for the journaling of payments made against the contract." xlink:type="simple"><rect fill="#EEEEEE" filter="url(#fzf9ci7izepp8)" height="23.9688" id="RegisteredContract" style="stroke: #A80036; stroke-width: 1.5;" width="128" x="742" y="788"/><rect fill="#EEEEEE" height="23.9688" style="stroke: #A80036; stroke-width: 1.5;" width="128" x="742" y="788"/><text fill="#000000" font-family="sans-serif" font-size="12" lengthAdjust="spacingAndGlyphs" textLength="122" x="745" y="804.1387">RegisteredContract</text></a><!--class InsurancePartyRole--><a target="_top" xlink:actuate="onRequest" xlink:href="../InsurancePartyRole.html" xlink:show="new" xlink:title="Role played by a party in the context of insurance." xlink:type="simple"><rect fill="#EEEEEE" filter="url(#fzf9ci7izepp8)" height="23.9688" id="InsurancePartyRole" style="stroke: #A80036; stroke-width: 1.5;" width="127" x="2469.75" y="1080"/><rect fill="#EEEEEE" height="23.9688" style="stroke: #A80036; stroke-width: 1.5;" width="127" x="2469.75" y="1080"/><text fill="#000000" font-family="sans-serif" font-size="12" lengthAdjust="spacingAndGlyphs" textLength="121" x="2472.75" y="1096.1387">InsurancePartyRole</text></a><!--class ProductDelivery--><a target="_top" xlink:actuate="onRequest" xlink:href="../ProductDelivery.html" xlink:show="new" xlink:title="Arrangements for delivery of invoiced products and/or services." xlink:type="simple"><rect fill="#EEEEEE" filter="url(#fzf9ci7izepp8)" height="23.9688" id="ProductDelivery" style="stroke: #A80036; stroke-width: 1.5;" width="103" x="2476.75" y="994"/><rect fill="#EEEEEE" height="23.9688" style="stroke: #A80036; stroke-width: 1.5;" width="103" x="2476.75" y="994"/><text fill="#000000" font-family="sans-serif" font-size="12" lengthAdjust="spacingAndGlyphs" textLength="97" x="2479.75" y="1010.1387">ProductDelivery</text></a><!--class InvestmentPlan--><a target="_top" xlink:actuate="onRequest" xlink:href="../InvestmentPlan.html" xlink:show="new" xlink:title="Plan that allows investors to schedule periodical investments or divestments, according to pre-defined criteria." xlink:type="simple"><rect fill="#EEEEEE" filter="url(#fzf9ci7izepp8)" height="23.9688" id="InvestmentPlan" style="stroke: #A80036; stroke-width: 1.5;" width="102" x="2469.5" y="892"/><rect fill="#EEEEEE" height="23.9688" style="stroke: #A80036; stroke-width: 1.5;" width="102" x="2469.5" y="892"/><text fill="#000000" font-family="sans-serif" font-size="12" lengthAdjust="spacingAndGlyphs" textLength="96" x="2472.5" y="908.1387">InvestmentPlan</text></a><!--link Document to InsuranceCertificate--><path d="M1174.63,233.75 C1173.79,254.11 1172.95,274.63 1172.21,292.46 " fill="none" id="Document-InsuranceCertificate" style="stroke: #A80036; stroke-width: 1.0;"/><polygon fill="none" points="1167.65,233.23,1175.47,213.53,1181.64,233.81,1167.65,233.23" style="stroke: #A80036; stroke-width: 1.0;"/><!--link PaymentObligation to ContactPoint--><!--link ContactPoint to PaymentObligation--><path d="M655.93,139.11 C652.475,174.97 641.61,287.76 637.551,329.9 " fill="none" id="ContactPoint-PaymentObligation" style="stroke: #A80036; stroke-width: 1.0;"/><polygon fill="#A80036" points="637.068,334.91,641.8988,326.3273,637.5395,329.9323,633.9345,325.5729,637.068,334.91" style="stroke: #A80036; stroke-width: 1.0;"/><text fill="#000000" font-family="sans-serif" font-size="13" lengthAdjust="spacingAndGlyphs" textLength="178" x="647" y="257.0669">RemittanceRelatedPayment</text><text fill="#000000" font-family="sans-serif" font-size="13" lengthAdjust="spacingAndGlyphs" textLength="24" x="607.8804" y="323.9273">0..1</text><!--link Agreement to PaymentObligation--><!--link Location to Agreement--><!--link Reconciliation to Location--><!--link LetterOfCredit to Reconciliation--><!--link DocumentPartyRole to LetterOfCredit--><!--link Transport to DocumentPartyRole--><!--link Guarantee to Transport--><!--link GenericIdentification to Guarantee--><!--link Evidence to GenericIdentification--><!--link CommercialTrade to Evidence--><!--link Presentation to CommercialTrade--><!--link RegisteredContract to Presentation--><!--link ProductDelivery to InsurancePartyRole--><!--link InvestmentPlan to ProductDelivery--><!--link Document to ContactPoint--><path d="M1054.49,127 C942.759,127 784.578,127 705.688,127 " fill="none" id="Document-ContactPoint" style="stroke: #A80036; stroke-width: 1.0;"/><polygon fill="#A80036" points="700.608,127,709.608,131,705.608,127,709.608,123,700.608,127" style="stroke: #A80036; stroke-width: 1.0;"/><text fill="#000000" font-family="sans-serif" font-size="13" lengthAdjust="spacingAndGlyphs" textLength="99" x="827.25" y="119.0669">PlaceOfStorage</text><text fill="#000000" font-family="sans-serif" font-size="13" lengthAdjust="spacingAndGlyphs" textLength="7" x="708.6617" y="121.6201">*</text><!--link Document to PaymentObligation--><path d="M1054.64,188.23 C1035.14,197.15 1015.11,206.02 996,214 C880.444,262.23 740.345,310.85 674.155,333.25 " fill="none" id="Document-PaymentObligation" style="stroke: #A80036; stroke-width: 1.0;"/><polygon fill="#A80036" points="669.134,334.94,678.9407,335.8506,673.8712,333.3405,676.3814,328.271,669.134,334.94" style="stroke: #A80036; stroke-width: 1.0;"/><text fill="#000000" font-family="sans-serif" font-size="13" lengthAdjust="spacingAndGlyphs" textLength="121" x="920" y="257.0669">PaymentObligation</text><text fill="#000000" font-family="sans-serif" font-size="13" lengthAdjust="spacingAndGlyphs" textLength="24" x="650.9691" y="323.9676">0..1</text><!--link Document to Agreement--><path d="M1303.39,131.23 C1689.7,142.91 2843,190.76 2843,346 C2843,346 2843,346 2843,699 C2843,908.571 2478.24,845.525 2453,868 C2421.92,895.67 2416,912.39 2416,954 C2416,954 2416,954 2416,1267 C2416,1323.5653 549.101,1347.0427 240.854,1350.5336 " fill="none" id="Document-Agreement" style="stroke: #A80036; stroke-width: 1.0;"/><polygon fill="#A80036" points="235.567,1350.5932,244.611,1354.4927,240.5667,1350.5375,244.5219,1346.4932,235.567,1350.5932" style="stroke: #A80036; stroke-width: 1.0;"/><text fill="#000000" font-family="sans-serif" font-size="13" lengthAdjust="spacingAndGlyphs" textLength="72" x="2713" y="855.0669">Agreement</text><text fill="#000000" font-family="sans-serif" font-size="13" lengthAdjust="spacingAndGlyphs" textLength="7" x="243.9855" y="1344.6337">*</text><!--link Document to Location--><path d="M1303.48,132.92 C1537.84,143.71 2035,174.26 2191,244 C2251.28,270.94 2299,279.98 2299,346 C2299,346 2299,346 2299,648 C2299,728.718 2232,924.282 2232,1005 C2232,1005 2232,1005 2232,1181 C2232,1266.219 830.757,1265.82 591.532,1265.131 " fill="none" id="Document-Location" style="stroke: #A80036; stroke-width: 1.0;"/><polygon fill="#A80036" points="586.427,1265.116,595.4155,1269.1417,591.427,1265.1303,595.4384,1261.1417,586.427,1265.116" style="stroke: #A80036; stroke-width: 1.0;"/><text fill="#000000" font-family="sans-serif" font-size="13" lengthAdjust="spacingAndGlyphs" textLength="81" x="2276" y="804.0669">PlaceOfIssue</text><text fill="#000000" font-family="sans-serif" font-size="13" lengthAdjust="spacingAndGlyphs" textLength="24" x="594.9198" y="1259.2644">0..1</text><!--link Document to Reconciliation--><path d="M1303.45,127.98 C1581.32,131.28 2228,159.06 2228,346 C2228,346 2228,346 2228,648 C2228,677.239 2220.47,684.595 2206,710 C2197.41,725.08 2188.35,724.277 2181,740 C2159.96,785.015 2161,800.31 2161,850 C2161,850 2161,850 2161,1093 C2161,1152.884 1218.68,1173.856 985.643,1178.127 " fill="none" id="Document-Reconciliation" style="stroke: #A80036; stroke-width: 1.0;"/><polygon fill="#A80036" points="980.602,1178.219,989.6736,1182.0538,985.6012,1178.1276,989.5274,1174.0551,980.602,1178.219" style="stroke: #A80036; stroke-width: 1.0;"/><text fill="#000000" font-family="sans-serif" font-size="13" lengthAdjust="spacingAndGlyphs" textLength="87" x="2182" y="753.0669">Reconciliation</text><text fill="#000000" font-family="sans-serif" font-size="13" lengthAdjust="spacingAndGlyphs" textLength="7" x="988.8587" y="1172.5967">*</text><!--link Document to LetterOfCredit--><path d="M1303.73,131.28 C1557.69,141.36 2111,182.11 2111,346 C2111,346 2111,346 2111,546 C2111,563.47 2104,845.676 2094,860 C1964.02,1046.172 1192.95,1083.076 985.415,1089.673 " fill="none" id="Document-LetterOfCredit" style="stroke: #A80036; stroke-width: 1.0;"/><polygon fill="#A80036" points="980.323,1089.833,989.4443,1093.5481,985.3205,1089.6758,989.1928,1085.5521,980.323,1089.833" style="stroke: #A80036; stroke-width: 1.0;"/><text fill="#000000" font-family="sans-serif" font-size="13" lengthAdjust="spacingAndGlyphs" textLength="90" x="2108" y="702.0669">LetterOfCredit</text><text fill="#000000" font-family="sans-serif" font-size="13" lengthAdjust="spacingAndGlyphs" textLength="8" x="988.6163" y="1084.1468">1</text><!--link Document to DocumentPartyRole--><path d="M1303.33,137.76 C1478.96,153.33 1789.14,187.87 1886,244 C1936.57,273.3 1969,287.55 1969,346 C1969,346 1969,346 1969,546 C1969,589.44 1945.95,595.714 1936,638 C1924.73,685.921 1923,698.771 1923,748 C1923,748 1923,748 1923,905 C1923,999.44 1213.29,1005.8 984.893,1005.401 " fill="none" id="Document-DocumentPartyRole" style="stroke: #A80036; stroke-width: 1.0;"/><polygon fill="#A80036" points="979.588,1005.391,988.58,1009.409,984.588,1005.401,988.596,1001.409,979.588,1005.391" style="stroke: #A80036; stroke-width: 1.0;"/><text fill="#000000" font-family="sans-serif" font-size="13" lengthAdjust="spacingAndGlyphs" textLength="60" x="1937" y="651.0669">PartyRole</text><text fill="#000000" font-family="sans-serif" font-size="13" lengthAdjust="spacingAndGlyphs" textLength="7" x="987.8558" y="1000.3577">*</text><!--link Document to Transport--><path d="M1303.37,130.98 C1478.48,138.1 1784.1,162.22 1853,244 C1968.13,380.63 1852,467.333 1852,646 C1852,646 1852,646 1852,801 C1852,863.641 1784.81,844.957 1724,860 C1575.38,896.764 1094.49,902.097 953.924,902.869 " fill="none" id="Document-Transport" style="stroke: #A80036; stroke-width: 1.0;"/><polygon fill="#A80036" points="948.672,902.897,957.6936,906.8481,953.6719,902.8698,957.6501,898.8482,948.672,902.897" style="stroke: #A80036; stroke-width: 1.0;"/><text fill="#000000" font-family="sans-serif" font-size="13" lengthAdjust="spacingAndGlyphs" textLength="61" x="1858" y="600.0669">Transport</text><text fill="#000000" font-family="sans-serif" font-size="13" lengthAdjust="spacingAndGlyphs" textLength="8" x="956.8581" y="896.8812">1</text><!--link Document to Guarantee--><path d="M1303.27,137.44 C1444.14,151.03 1660.78,181.65 1711,244 C1784.04,334.69 1746.67,395.15 1711,506 C1697.93,546.624 1677.31,547.618 1655,584 C1609.49,658.225 1637.85,710.316 1565,758 C1516.58,789.692 1115.46,797.04 983.734,798.606 " fill="none" id="Document-Guarantee" style="stroke: #A80036; stroke-width: 1.0;"/><polygon fill="#A80036" points="978.413,798.668,987.4581,802.5649,983.4127,798.6108,987.3667,794.5654,978.413,798.668" style="stroke: #A80036; stroke-width: 1.0;"/><text fill="#000000" font-family="sans-serif" font-size="13" lengthAdjust="spacingAndGlyphs" textLength="68" x="1697" y="549.0669">Guarantee</text><text fill="#000000" font-family="sans-serif" font-size="13" lengthAdjust="spacingAndGlyphs" textLength="7" x="986.5935" y="792.724">*</text><!--link Document to GenericIdentification--><path d="M1303.41,163.97 C1356.42,182.8 1417.16,209.28 1466,244 C1544.72,299.97 1584.27,372.78 1529,452 C1391.81,648.649 1078.29,687.898 935.835,695.415 " fill="none" id="Document-GenericIdentification" style="stroke: #A80036; stroke-width: 1.0;"/><polygon fill="#A80036" points="930.425,695.69,939.6168,699.2272,935.4185,695.4358,939.21,691.2375,930.425,695.69" style="stroke: #A80036; stroke-width: 1.0;"/><text fill="#000000" font-family="sans-serif" font-size="13" lengthAdjust="spacingAndGlyphs" textLength="148" x="1507" y="498.0669">DocumentIdentification</text><text fill="#000000" font-family="sans-serif" font-size="13" lengthAdjust="spacingAndGlyphs" textLength="8" x="938.6546" y="690.5165">1</text><!--link Document to Evidence--><path d="M1303.47,165.04 C1364.81,190.29 1433.15,230.55 1469,292 C1499.01,343.44 1504.49,378.17 1469,426 C1404.66,512.719 1059.96,572.28 946.924,589.714 " fill="none" id="Document-Evidence" style="stroke: #A80036; stroke-width: 1.0;"/><polygon fill="#A80036" points="941.719,590.513,951.2217,593.1011,946.6611,589.7543,950.0079,585.1937,941.719,590.513" style="stroke: #A80036; stroke-width: 1.0;"/><text fill="#000000" font-family="sans-serif" font-size="13" lengthAdjust="spacingAndGlyphs" textLength="57" x="1462" y="447.0669">Evidence</text><text fill="#000000" font-family="sans-serif" font-size="13" lengthAdjust="spacingAndGlyphs" textLength="7" x="950.3595" y="583.0167">*</text><!--link Document to CommercialTrade--><path d="M1268.3,213.77 C1324.4,277.92 1376.54,364.77 1321,426 C1310.57,437.499 865.446,474.498 698.433,488.005 " fill="none" id="Document-CommercialTrade" style="stroke: #A80036; stroke-width: 1.0;"/><polygon fill="#A80036" points="693.092,488.436,702.385,491.6979,698.0757,488.0332,701.7405,483.7239,693.092,488.436" style="stroke: #A80036; stroke-width: 1.0;"/><text fill="#000000" font-family="sans-serif" font-size="13" lengthAdjust="spacingAndGlyphs" textLength="113" x="1346" y="351.0669">CommercialTrade</text><text fill="#000000" font-family="sans-serif" font-size="13" lengthAdjust="spacingAndGlyphs" textLength="7" x="700.8553" y="482.7115">*</text><!--link Document to Presentation--><path d="M1303.4,141.59 C1447.72,159.39 1674.75,194.29 1744,244 C1856.48,324.75 1822.28,423.856 1775,554 C1756.79,604.116 1698,592.68 1698,646 C1698,646 1698,646 1698,801 C1698,893.965 952.798,840.479 864,868 C849.174,872.595 834.031,881.257 822.541,888.814 " fill="none" id="Document-Presentation" style="stroke: #A80036; stroke-width: 1.0;"/><polygon fill="#A80036" points="818.168,891.753,827.8691,890.0535,822.3181,888.9644,823.4073,883.4133,818.168,891.753" style="stroke: #A80036; stroke-width: 1.0;"/><text fill="#000000" font-family="sans-serif" font-size="13" lengthAdjust="spacingAndGlyphs" textLength="81" x="1754" y="600.0669">Presentation</text><text fill="#000000" font-family="sans-serif" font-size="13" lengthAdjust="spacingAndGlyphs" textLength="24" x="793.8033" y="880.9746">0..1</text><!--link Document to RegisteredContract--><path d="M1303.34,149.76 C1389.14,171.31 1499.05,213.02 1564,292 C1630.56,372.94 1725.2,421.658 1663,506 C1636.22,542.318 1608.62,521.179 1566,536 C1482.27,565.113 1462.87,576.543 1380,608 C1322.81,629.709 1308.8,635.96 1251,656 C1111.16,704.486 1074.92,712.76 934,758 C904.319,767.529 870.758,778.278 845.45,786.379 " fill="none" id="Document-RegisteredContract" style="stroke: #A80036; stroke-width: 1.0;"/><polygon fill="#A80036" points="840.502,787.962,850.293,789.0284,845.2641,786.438,847.8545,781.4091,840.502,787.962" style="stroke: #A80036; stroke-width: 1.0;"/><text fill="#000000" font-family="sans-serif" font-size="13" lengthAdjust="spacingAndGlyphs" textLength="103" x="1567" y="549.0669">RelatedContract</text><text fill="#000000" font-family="sans-serif" font-size="13" lengthAdjust="spacingAndGlyphs" textLength="8" x="841.6433" y="776.9972">1</text><!--link InsuranceCertificate to Location--><path d="M1253.08,401.609 C1272.08,411.478 1292.68,420.417 1313,426 C1359.32,438.728 1481.35,427.952 1529,434 C1739.33,460.696 1855.71,376.16 1995,536 C2017.61,561.945 2005,561.718 2005,1005 C2005,1005 2005,1005 2005,1181 C2005,1254.161 811.366,1263.716 591.565,1264.855 " fill="none" id="InsuranceCertificate-Location" style="stroke: #A80036; stroke-width: 1.0;"/><polygon fill="#A80036" points="586.252,1264.882,595.2713,1268.8382,591.2519,1264.8577,595.2325,1260.8383,586.252,1264.882" style="stroke: #A80036; stroke-width: 1.0;"/><text fill="#000000" font-family="sans-serif" font-size="13" lengthAdjust="spacingAndGlyphs" textLength="107" x="2007" y="855.0669">ClaimsPayableAt</text><text fill="#000000" font-family="sans-serif" font-size="13" lengthAdjust="spacingAndGlyphs" textLength="8" x="594.7088" y="1278.6053">1</text><!--link InsuranceCertificate to InsurancePartyRole--><path d="M1252.2,401.667 C1271.42,411.668 1292.33,420.648 1313,426 C1371.19,441.068 2335.16,428.306 2395,434 C2466.98,440.849 2715,420.69 2715,493 C2715,493 2715,493 2715,648 C2715,690.147 2697.15,698.168 2692,740 C2691.02,747.94 2691.71,750.005 2692,758 C2692.67,776.259 2695,780.729 2695,799 C2695,799 2695,799 2695,1007 C2695,1051.69 2645.81,1072.635 2601.64,1082.433 " fill="none" id="InsuranceCertificate-InsurancePartyRole" style="stroke: #A80036; stroke-width: 1.0;"/><polygon fill="#A80036" points="2596.56,1083.517,2606.1964,1085.5519,2601.45,1082.4741,2604.5278,1077.7278,2596.56,1083.517" style="stroke: #A80036; stroke-width: 1.0;"/><text fill="#000000" font-family="sans-serif" font-size="13" lengthAdjust="spacingAndGlyphs" textLength="122" x="2693" y="753.0669">InsurancePartyRole</text><text fill="#000000" font-family="sans-serif" font-size="13" lengthAdjust="spacingAndGlyphs" textLength="7" x="2604.7025" y="1077.5241">*</text><!--link InsuranceCertificate to ProductDelivery--><path d="M1252.2,401.646 C1271.42,411.649 1292.33,420.634 1313,426 C1362.2,438.776 2177.38,429.301 2228,434 C2302.4,440.906 2559,418.285 2559,493 C2559,493 2559,493 2559,648 C2559,767.759 2621.56,801.334 2587,916 C2578.27,944.963 2556.7,973.162 2542.2,989.804 " fill="none" id="InsuranceCertificate-ProductDelivery" style="stroke: #A80036; stroke-width: 1.0;"/><polygon fill="#A80036" points="2538.68,993.78,2547.6412,989.6938,2541.9947,990.0367,2541.6518,984.3902,2538.68,993.78" style="stroke: #A80036; stroke-width: 1.0;"/><text fill="#000000" font-family="sans-serif" font-size="13" lengthAdjust="spacingAndGlyphs" textLength="100" x="2566" y="702.0669">ProductDelivery</text><text fill="#000000" font-family="sans-serif" font-size="13" lengthAdjust="spacingAndGlyphs" textLength="24" x="2512.8287" y="983.0106">0..1</text><!--link InsuranceCertificate to InvestmentPlan--><path d="M1252.21,401.617 C1271.43,411.621 1292.34,420.615 1313,426 C1353.48,436.552 2024.36,429.97 2066,434 C2137.97,440.965 2386,420.69 2386,493 C2386,493 2386,493 2386,801 C2386,847.497 2437.71,875.588 2476.89,890.197 " fill="none" id="InsuranceCertificate-InvestmentPlan" style="stroke: #A80036; stroke-width: 1.0;"/><polygon fill="#A80036" points="2481.6,891.912,2474.5162,885.0695,2476.9029,890.1982,2471.7742,892.5849,2481.6,891.912" style="stroke: #A80036; stroke-width: 1.0;"/><text fill="#000000" font-family="sans-serif" font-size="13" lengthAdjust="spacingAndGlyphs" textLength="147" x="2387" y="651.0669">RelatedInvestmentPlan</text><text fill="#000000" font-family="sans-serif" font-size="13" lengthAdjust="spacingAndGlyphs" textLength="8" x="2457.5094" y="880.93">1</text><!--link ContactPoint to GenericIdentification--><path d="M689.563,139.01 C731.203,154.96 801.873,188.81 835,244 C858.422,283.02 844,300.49 844,346 C844,346 844,346 844,597 C844,627.011 852.361,661.211 857.991,680.836 " fill="none" id="ContactPoint-GenericIdentification" style="stroke: #A80036; stroke-width: 1.0;"/><polygon fill="#A80036" points="859.426,685.735,860.731,675.973,858.0186,680.9371,853.0545,678.2248,859.426,685.735" style="stroke: #A80036; stroke-width: 1.0;"/><text fill="#000000" font-family="sans-serif" font-size="13" lengthAdjust="spacingAndGlyphs" textLength="81" x="845" y="498.0669">Identification</text><text fill="#000000" font-family="sans-serif" font-size="13" lengthAdjust="spacingAndGlyphs" textLength="8" x="847.5031" y="674.9507">1</text><!--link ContactPoint to ContactPoint--><path d="M670.417,114.8 C697.637,96.23 735,100.3 735,127 C735,152.24 701.612,157.26 674.966,142.05 " fill="none" id="ContactPoint-ContactPoint" style="stroke: #A80036; stroke-width: 1.0;"/><polygon fill="#A80036" points="670.417,139.2,675.9315,147.3603,674.6578,141.8487,680.1694,140.575,670.417,139.2" style="stroke: #A80036; stroke-width: 1.0;"/><text fill="#000000" font-family="sans-serif" font-size="13" lengthAdjust="spacingAndGlyphs" textLength="80" x="741" y="131.0669">MainContact</text><text fill="#000000" font-family="sans-serif" font-size="13" lengthAdjust="spacingAndGlyphs" textLength="8" x="664.6328" y="159.0561">1</text><!--link PaymentObligation to CommercialTrade--><path d="M636,359.38 C636,384.9 636,446.779 636,476.513 " fill="none" id="PaymentObligation-CommercialTrade" style="stroke: #A80036; stroke-width: 1.0;"/><polygon fill="#A80036" points="636,481.675,640,472.675,636,476.675,632,472.675,636,481.675" style="stroke: #A80036; stroke-width: 1.0;"/><text fill="#000000" font-family="sans-serif" font-size="13" lengthAdjust="spacingAndGlyphs" textLength="113" x="637" y="447.0669">CommercialTrade</text><text fill="#000000" font-family="sans-serif" font-size="13" lengthAdjust="spacingAndGlyphs" textLength="8" x="625.3438" y="470.8708">1</text><!--link Agreement to CommercialTrade--><path d="M160.733,1342.1911 C124.855,1331.2314 76,1308.6592 76,1267 C76,1048 76,1048 76,1048 C76,984.42 80,968.58 80,905 C80,595 80,595 80,595 C80,558.539 104.0481,551.606 137,536 C212.763,500.118 457.633,495.032 573.774,494.704 " fill="none" id="Agreement-CommercialTrade" style="stroke: #A80036; stroke-width: 1.0;"/><polygon fill="#A80036" points="578.868,494.693,569.8589,490.7136,573.868,494.7044,569.8772,498.7136,578.868,494.693" style="stroke: #A80036; stroke-width: 1.0;"/><text fill="#000000" font-family="sans-serif" font-size="13" lengthAdjust="spacingAndGlyphs" textLength="36" x="81" y="959.0669">Trade</text><text fill="#000000" font-family="sans-serif" font-size="13" lengthAdjust="spacingAndGlyphs" textLength="8" x="563.0723" y="489.915">1</text><!--link Location to Transport--><path d="M583.811,1253.913 C610.654,1240.817 648,1216.261 648,1181 C648,1005 648,1005 648,1005 C648,980.891 802.638,935.561 876.546,915.272 " fill="none" id="Location-Transport" style="stroke: #A80036; stroke-width: 1.0;"/><polygon fill="#A80036" points="881.724,913.855,871.9877,912.3701,876.901,915.1736,874.0975,920.0869,881.724,913.855" style="stroke: #A80036; stroke-width: 1.0;"/><text fill="#000000" font-family="sans-serif" font-size="13" lengthAdjust="spacingAndGlyphs" textLength="201" x="649" y="1096.0669">DepartureTransportParameters</text><text fill="#000000" font-family="sans-serif" font-size="13" lengthAdjust="spacingAndGlyphs" textLength="24" x="854.7467" y="930.1391">0..1</text><!--link Location to Transport--><path d="M527.463,1261.973 C431.089,1250.819 136.206,1205.912 211,1080 C274.584,972.959 337.565,981.156 457,946 C630.573,894.908 683.862,941.448 863,916 C867.428,915.371 872.043,914.586 876.616,913.726 " fill="none" id="Location-Transport" style="stroke: #A80036; stroke-width: 1.0;"/><polygon fill="#A80036" points="881.551,912.768,871.9537,910.5564,876.6426,913.7208,873.4782,918.4098,881.551,912.768" style="stroke: #A80036; stroke-width: 1.0;"/><text fill="#000000" font-family="sans-serif" font-size="13" lengthAdjust="spacingAndGlyphs" textLength="209" x="212" y="1096.0669">DestinationTransportParameters</text><text fill="#000000" font-family="sans-serif" font-size="13" lengthAdjust="spacingAndGlyphs" textLength="24" x="854.7145" y="908.9208">0..1</text><!--link Location to Transport--><path d="M530.189,1253.913 C503.346,1240.817 466,1216.261 466,1181 C466,1005 466,1005 466,1005 C466,914.588 774.517,934.576 863,916 C867.443,915.067 872.1,914.087 876.723,913.111 " fill="none" id="Location-Transport" style="stroke: #A80036; stroke-width: 1.0;"/><polygon fill="#A80036" points="881.715,912.057,872.0828,910.0027,876.8229,913.09,873.7356,917.8301,881.715,912.057" style="stroke: #A80036; stroke-width: 1.0;"/><text fill="#000000" font-family="sans-serif" font-size="13" lengthAdjust="spacingAndGlyphs" textLength="109" x="467" y="1096.0669">RelatedTransport</text><text fill="#000000" font-family="sans-serif" font-size="13" lengthAdjust="spacingAndGlyphs" textLength="8" x="865.8399" y="932.5299">1</text><!--link Location to GenericIdentification--><path d="M527.652,1262.406 C453.852,1255.32 263.142,1233.348 217,1192 C149.643,1131.64 120.119,1069.447 170,994 C311.471,780.022 643.067,720.758 790.326,704.745 " fill="none" id="Location-GenericIdentification" style="stroke: #A80036; stroke-width: 1.0;"/><polygon fill="#A80036" points="795.486,704.193,786.1119,701.172,790.5143,704.7243,786.962,709.1267,795.486,704.193" style="stroke: #A80036; stroke-width: 1.0;"/><text fill="#000000" font-family="sans-serif" font-size="13" lengthAdjust="spacingAndGlyphs" textLength="81" x="171" y="1010.0669">Identification</text><text fill="#000000" font-family="sans-serif" font-size="13" lengthAdjust="spacingAndGlyphs" textLength="7" x="780.8242" y="700.0548">*</text><!--link Transport to ProductDelivery--><path d="M948.32,907.066 C1150.47,919.598 2212.5,985.44 2471.16,1001.476 " fill="none" id="Transport-ProductDelivery" style="stroke: #A80036; stroke-width: 1.0;"/><polygon fill="#A80036" points="2476.39,1001.8,2467.6592,997.2423,2471.3999,1001.4858,2467.1564,1005.2265,2476.39,1001.8" style="stroke: #A80036; stroke-width: 1.0;"/><text fill="#000000" font-family="sans-serif" font-size="13" lengthAdjust="spacingAndGlyphs" textLength="100" x="1867" y="959.0669">ProductDelivery</text><text fill="#000000" font-family="sans-serif" font-size="13" lengthAdjust="spacingAndGlyphs" textLength="24" x="2444.7013" y="996.5657">0..1</text><!--link GenericIdentification to RegisteredContract--><path d="M840.945,710.142 C829.641,717.094 816.844,727.17 810,740 C802.982,753.157 802.64,770.378 803.657,782.815 " fill="none" id="GenericIdentification-RegisteredContract" style="stroke: #A80036; stroke-width: 1.0;"/><polygon fill="#A80036" points="804.161,787.826,807.2382,778.4702,803.6595,782.8512,799.2785,779.2726,804.161,787.826" style="stroke: #A80036; stroke-width: 1.0;"/><text fill="#000000" font-family="sans-serif" font-size="13" lengthAdjust="spacingAndGlyphs" textLength="113" x="811" y="753.0669">RelatedCertificate</text><text fill="#000000" font-family="sans-serif" font-size="13" lengthAdjust="spacingAndGlyphs" textLength="8" x="792.8101" y="776.8144">1</text></g></svg>