<?xml version="1.0" encoding="UTF-8" standalone="no"?><svg xmlns="http://www.w3.org/2000/svg" xmlns:xlink="http://www.w3.org/1999/xlink" contentScriptType="application/ecmascript" contentStyleType="text/css" height="980px" preserveAspectRatio="none" style="width:1028px;height:980px;" version="1.1" viewBox="0 0 1028 980" width="1028px" zoomAndPan="magnify"><defs><filter height="300%" id="fkbyptw426270" width="300%" x="-1" y="-1"><feGaussianBlur result="blurOut" stdDeviation="2.0"/><feColorMatrix in="blurOut" result="blurOut2" type="matrix" values="0 0 0 0 0 0 0 0 0 0 0 0 0 0 0 0 0 0 .4 0"/><feOffset dx="4.0" dy="4.0" in="blurOut2" result="blurOut3"/><feBlend in="SourceGraphic" in2="blurOut3" mode="normal"/></filter></defs><g><!--cluster ##7602--><!--cluster ##7605--><!--class InterestCalculation--><a target="_top" xlink:actuate="onRequest" xlink:href="../InterestCalculation.html" xlink:show="new" xlink:title="Set of parameters used to calculate an interest amount." xlink:type="simple"><rect fill="#FEFECE" filter="url(#fkbyptw426270)" height="172.8203" id="InterestCalculation" style="stroke: #A80036; stroke-width: 1.5;" width="309" x="333.75" y="40.5"/><rect fill="#FEFECE" height="23.9688" style="stroke: #A80036; stroke-width: 1.5;" width="309" x="333.75" y="40.5"/><text fill="#000000" font-family="sans-serif" font-size="12" lengthAdjust="spacingAndGlyphs" textLength="118" x="429.25" y="56.6387">InterestCalculation</text><line style="stroke: #A80036; stroke-width: 1.5;" x1="334.75" x2="641.75" y1="64.4688" y2="64.4688"/><ellipse cx="344.75" cy="76.3711" fill="#84BE84" rx="3" ry="3" style="stroke: #038048; stroke-width: 1.0;"/><text fill="#000000" font-family="sans-serif" font-size="11" lengthAdjust="spacingAndGlyphs" textLength="86" x="353.75" y="78.6792">DayCountBasis</text><text fill="#000000" font-family="sans-serif" font-size="11" font-style="italic" lengthAdjust="spacingAndGlyphs" textLength="193" x="443.75" y="78.6792">(InterestComputationMethodCode)</text><ellipse cx="344.75" cy="89.1758" fill="#84BE84" rx="3" ry="3" style="stroke: #038048; stroke-width: 1.0;"/><text fill="#000000" font-family="sans-serif" font-size="11" lengthAdjust="spacingAndGlyphs" textLength="25" x="353.75" y="91.4839">Rate</text><text fill="#000000" font-family="sans-serif" font-size="11" font-style="italic" lengthAdjust="spacingAndGlyphs" textLength="98" x="382.75" y="91.4839">(PercentageRate)</text><ellipse cx="344.75" cy="101.9805" fill="#84BE84" rx="3" ry="3" style="stroke: #038048; stroke-width: 1.0;"/><text fill="#000000" font-family="sans-serif" font-size="11" lengthAdjust="spacingAndGlyphs" textLength="52" x="353.75" y="104.2886">RateType</text><text fill="#000000" font-family="sans-serif" font-size="11" font-style="italic" lengthAdjust="spacingAndGlyphs" textLength="134" x="409.75" y="104.2886">(InterestRateTypeCode)</text><ellipse cx="344.75" cy="114.7852" fill="#84BE84" rx="3" ry="3" style="stroke: #038048; stroke-width: 1.0;"/><text fill="#000000" font-family="sans-serif" font-size="11" lengthAdjust="spacingAndGlyphs" textLength="72" x="353.75" y="117.0933">RelatedIndex</text><text fill="#000000" font-family="sans-serif" font-size="11" font-style="italic" lengthAdjust="spacingAndGlyphs" textLength="98" x="429.75" y="117.0933">(PercentageRate)</text><ellipse cx="344.75" cy="127.5898" fill="#84BE84" rx="3" ry="3" style="stroke: #038048; stroke-width: 1.0;"/><text fill="#000000" font-family="sans-serif" font-size="11" lengthAdjust="spacingAndGlyphs" textLength="111" x="353.75" y="129.8979">InterestAccrualDate</text><text fill="#000000" font-family="sans-serif" font-size="11" font-style="italic" lengthAdjust="spacingAndGlyphs" textLength="81" x="468.75" y="129.8979">(ISODateTime)</text><ellipse cx="344.75" cy="140.3945" fill="#84BE84" rx="3" ry="3" style="stroke: #038048; stroke-width: 1.0;"/><text fill="#000000" font-family="sans-serif" font-size="11" lengthAdjust="spacingAndGlyphs" textLength="103" x="353.75" y="142.7026">CalculationMethod</text><text fill="#000000" font-family="sans-serif" font-size="11" font-style="italic" lengthAdjust="spacingAndGlyphs" textLength="140" x="460.75" y="142.7026">(CalculationMethodCode)</text><ellipse cx="344.75" cy="153.1992" fill="#84BE84" rx="3" ry="3" style="stroke: #038048; stroke-width: 1.0;"/><text fill="#000000" font-family="sans-serif" font-size="11" lengthAdjust="spacingAndGlyphs" textLength="71" x="353.75" y="155.5073">InterestType</text><text fill="#000000" font-family="sans-serif" font-size="11" font-style="italic" lengthAdjust="spacingAndGlyphs" textLength="80" x="428.75" y="155.5073">(InterestCode)</text><ellipse cx="344.75" cy="166.0039" fill="#84BE84" rx="3" ry="3" style="stroke: #038048; stroke-width: 1.0;"/><text fill="#000000" font-family="sans-serif" font-size="11" lengthAdjust="spacingAndGlyphs" textLength="85" x="353.75" y="168.312">InterestMethod</text><text fill="#000000" font-family="sans-serif" font-size="11" font-style="italic" lengthAdjust="spacingAndGlyphs" textLength="121" x="442.75" y="168.312">(InterestMethodCode)</text><ellipse cx="344.75" cy="178.8086" fill="#84BE84" rx="3" ry="3" style="stroke: #038048; stroke-width: 1.0;"/><text fill="#000000" font-family="sans-serif" font-size="11" lengthAdjust="spacingAndGlyphs" textLength="120" x="353.75" y="181.1167">CalculationFrequency</text><text fill="#000000" font-family="sans-serif" font-size="11" font-style="italic" lengthAdjust="spacingAndGlyphs" textLength="96" x="477.75" y="181.1167">(FrequencyCode)</text><ellipse cx="344.75" cy="191.6133" fill="#84BE84" rx="3" ry="3" style="stroke: #038048; stroke-width: 1.0;"/><text fill="#000000" font-family="sans-serif" font-size="11" lengthAdjust="spacingAndGlyphs" textLength="88" x="353.75" y="193.9214">CalculationDate</text><text fill="#000000" font-family="sans-serif" font-size="11" font-style="italic" lengthAdjust="spacingAndGlyphs" textLength="53" x="445.75" y="193.9214">(ISODate)</text><ellipse cx="344.75" cy="204.418" fill="#84BE84" rx="3" ry="3" style="stroke: #038048; stroke-width: 1.0;"/><text fill="#000000" font-family="sans-serif" font-size="11" lengthAdjust="spacingAndGlyphs" textLength="107" x="353.75" y="206.7261">PaymentFrequency</text><text fill="#000000" font-family="sans-serif" font-size="11" font-style="italic" lengthAdjust="spacingAndGlyphs" textLength="96" x="464.75" y="206.7261">(FrequencyCode)</text></a><!--class Interest--><a target="_top" xlink:actuate="onRequest" xlink:href="../Interest.html" xlink:show="new" xlink:title="Consideration, such as amount of money,  paid or received in exchange for an asset that has been invested, loaned or borrowed for a certain period. The interest is expressed as a fixed amount or percentage of the amount upon which the interest is applied." xlink:type="simple"><rect fill="#EEEEEE" filter="url(#fkbyptw426270)" height="23.9688" id="Interest" style="stroke: #A80036; stroke-width: 1.5;" width="55" x="237.75" y="296"/><rect fill="#EEEEEE" height="23.9688" style="stroke: #A80036; stroke-width: 1.5;" width="55" x="237.75" y="296"/><text fill="#000000" font-family="sans-serif" font-size="12" lengthAdjust="spacingAndGlyphs" textLength="49" x="240.75" y="312.1387">Interest</text></a><!--class DateTimePeriod--><a target="_top" xlink:actuate="onRequest" xlink:href="../DateTimePeriod.html" xlink:show="new" xlink:title="Time span defined by a start date and time, and an end date and time." xlink:type="simple"><rect fill="#EEEEEE" filter="url(#fkbyptw426270)" height="23.9688" id="DateTimePeriod" style="stroke: #A80036; stroke-width: 1.5;" width="105" x="252.75" y="946"/><rect fill="#EEEEEE" height="23.9688" style="stroke: #A80036; stroke-width: 1.5;" width="105" x="252.75" y="946"/><text fill="#000000" font-family="sans-serif" font-size="12" lengthAdjust="spacingAndGlyphs" textLength="99" x="255.75" y="962.1387">DateTimePeriod</text></a><!--class VariableInterest--><a target="_top" xlink:actuate="onRequest" xlink:href="../VariableInterest.html" xlink:show="new" xlink:title="Specifies the estimated interest rate and the parameters used for determining its value." xlink:type="simple"><rect fill="#EEEEEE" filter="url(#fkbyptw426270)" height="23.9688" id="VariableInterest" style="stroke: #A80036; stroke-width: 1.5;" width="106" x="653.5" y="860"/><rect fill="#EEEEEE" height="23.9688" style="stroke: #A80036; stroke-width: 1.5;" width="106" x="653.5" y="860"/><text fill="#000000" font-family="sans-serif" font-size="12" lengthAdjust="spacingAndGlyphs" textLength="100" x="656.5" y="876.1387">VariableInterest</text></a><!--class AmountRange--><a target="_top" xlink:actuate="onRequest" xlink:href="../AmountRange.html" xlink:show="new" xlink:title="Range of amount values." xlink:type="simple"><rect fill="#EEEEEE" filter="url(#fkbyptw426270)" height="23.9688" id="AmountRange" style="stroke: #A80036; stroke-width: 1.5;" width="94" x="665" y="774"/><rect fill="#EEEEEE" height="23.9688" style="stroke: #A80036; stroke-width: 1.5;" width="94" x="665" y="774"/><text fill="#000000" font-family="sans-serif" font-size="12" lengthAdjust="spacingAndGlyphs" textLength="88" x="668" y="790.1387">AmountRange</text></a><!--class Charges--><a target="_top" xlink:actuate="onRequest" xlink:href="../Charges.html" xlink:show="new" xlink:title="Amount of money associated with a service." xlink:type="simple"><rect fill="#EEEEEE" filter="url(#fkbyptw426270)" height="23.9688" id="Charges" style="stroke: #A80036; stroke-width: 1.5;" width="58" x="626.5" y="688"/><rect fill="#EEEEEE" height="23.9688" style="stroke: #A80036; stroke-width: 1.5;" width="58" x="626.5" y="688"/><text fill="#000000" font-family="sans-serif" font-size="12" lengthAdjust="spacingAndGlyphs" textLength="52" x="629.5" y="704.1387">Charges</text></a><!--class Debt--><a target="_top" xlink:actuate="onRequest" xlink:href="../Debt.html" xlink:show="new" xlink:title="Financial instruments evidencing moneys owed by the issuer to the holder on terms as specified." xlink:type="simple"><rect fill="#EEEEEE" filter="url(#fkbyptw426270)" height="23.9688" id="Debt" style="stroke: #A80036; stroke-width: 1.5;" width="36" x="477" y="602"/><rect fill="#EEEEEE" height="23.9688" style="stroke: #A80036; stroke-width: 1.5;" width="36" x="477" y="602"/><text fill="#000000" font-family="sans-serif" font-size="12" lengthAdjust="spacingAndGlyphs" textLength="30" x="480" y="618.1387">Debt</text></a><!--class Spread--><a target="_top" xlink:actuate="onRequest" xlink:href="../Spread.html" xlink:show="new" xlink:title="Margin over or under an index which determines a rate." xlink:type="simple"><rect fill="#EEEEEE" filter="url(#fkbyptw426270)" height="23.9688" id="Spread" style="stroke: #A80036; stroke-width: 1.5;" width="51" x="469.75" y="500"/><rect fill="#EEEEEE" height="23.9688" style="stroke: #A80036; stroke-width: 1.5;" width="51" x="469.75" y="500"/><text fill="#000000" font-family="sans-serif" font-size="12" lengthAdjust="spacingAndGlyphs" textLength="45" x="472.75" y="516.1387">Spread</text></a><!--class InterestManagement--><a target="_top" xlink:actuate="onRequest" xlink:href="../InterestManagement.html" xlink:show="new" xlink:title="Management of interest which consists into calculating the interest, requesting its payment or distributing the interest proceeds." xlink:type="simple"><rect fill="#EEEEEE" filter="url(#fkbyptw426270)" height="23.9688" id="InterestManagement" style="stroke: #A80036; stroke-width: 1.5;" width="137" x="409.75" y="398"/><rect fill="#EEEEEE" height="23.9688" style="stroke: #A80036; stroke-width: 1.5;" width="137" x="409.75" y="398"/><text fill="#000000" font-family="sans-serif" font-size="12" lengthAdjust="spacingAndGlyphs" textLength="131" x="412.75" y="414.1387">InterestManagement</text></a><!--link DateTimePeriod to Interest--><!--link VariableInterest to DateTimePeriod--><!--link AmountRange to VariableInterest--><!--link Charges to AmountRange--><!--link Debt to Charges--><!--link Spread to Debt--><!--link InterestManagement to Spread--><!--link InterestCalculation to Interest--><path d="M333.651,200.875 C315.575,214.03 298.723,229.049 285,246 C274.476,259 269.417,277.722 267.033,290.99 " fill="none" id="InterestCalculation-Interest" style="stroke: #A80036; stroke-width: 1.0;"/><polygon fill="#A80036" points="266.219,295.959,271.6241,287.7258,267.0289,291.025,263.7297,286.4299,266.219,295.959" style="stroke: #A80036; stroke-width: 1.0;"/><text fill="#000000" font-family="sans-serif" font-size="13" lengthAdjust="spacingAndGlyphs" textLength="49" x="286" y="259.0669">Interest</text><text fill="#000000" font-family="sans-serif" font-size="13" lengthAdjust="spacingAndGlyphs" textLength="7" x="257.0052" y="284.9931">*</text><!--link InterestCalculation to DateTimePeriod--><path d="M333.503,154.919 C192.52,184.008 6,235.923 6,307 C6,307 6,307 6,873 C6,922.6282 160.603,944.3173 247.467,952.5868 " fill="none" id="InterestCalculation-DateTimePeriod" style="stroke: #A80036; stroke-width: 1.0;"/><polygon fill="#A80036" points="252.576,953.0652,243.9877,948.2443,247.5977,952.5995,243.2425,956.2095,252.576,953.0652" style="stroke: #A80036; stroke-width: 1.0;"/><text fill="#000000" font-family="sans-serif" font-size="13" lengthAdjust="spacingAndGlyphs" textLength="89" x="7" y="618.0669">InterestPeriod</text><text fill="#000000" font-family="sans-serif" font-size="13" lengthAdjust="spacingAndGlyphs" textLength="8" x="236.9074" y="947.5882">1</text><!--link InterestCalculation to VariableInterest--><path d="M642.398,162.594 C764.312,194.528 914,246.132 914,307 C914,307 914,307 914,787 C914,852.058 825.428,867.978 763.88,871.187 " fill="none" id="InterestCalculation-VariableInterest" style="stroke: #A80036; stroke-width: 1.0;"/><polygon fill="#A80036" points="758.756,871.428,767.9346,874.9993,763.7504,871.1923,767.5574,867.0081,758.756,871.428" style="stroke: #A80036; stroke-width: 1.0;"/><text fill="#000000" font-family="sans-serif" font-size="13" lengthAdjust="spacingAndGlyphs" textLength="101" x="915" y="567.0669">VariableInterest</text><text fill="#000000" font-family="sans-serif" font-size="13" lengthAdjust="spacingAndGlyphs" textLength="7" x="767.6421" y="866.0621">*</text><!--link InterestCalculation to AmountRange--><path d="M642.583,178.388 C696.133,206.274 743,247.637 743,307 C743,307 743,307 743,701 C743,725.935 730.829,752.601 721.739,769.04 " fill="none" id="InterestCalculation-AmountRange" style="stroke: #A80036; stroke-width: 1.0;"/><polygon fill="#A80036" points="719.034,773.8,726.9579,767.951,721.5041,769.4527,720.0023,763.9989,719.034,773.8" style="stroke: #A80036; stroke-width: 1.0;"/><text fill="#000000" font-family="sans-serif" font-size="13" lengthAdjust="spacingAndGlyphs" textLength="115" x="744" y="516.0669">RateValidityRange</text><text fill="#000000" font-family="sans-serif" font-size="13" lengthAdjust="spacingAndGlyphs" textLength="8" x="710.7078" y="763.0372">1</text><!--link InterestCalculation to Charges--><path d="M575.711,213.718 C584.455,224.171 592.76,235.042 600,246 C627.762,288.021 634.083,300.834 645,350 C672.891,475.606 661.405,632.858 656.666,682.921 " fill="none" id="InterestCalculation-Charges" style="stroke: #A80036; stroke-width: 1.0;"/><polygon fill="#A80036" points="656.177,687.959,661.0274,679.3873,656.6598,682.9824,653.0647,678.6148,656.177,687.959" style="stroke: #A80036; stroke-width: 1.0;"/><text fill="#000000" font-family="sans-serif" font-size="13" lengthAdjust="spacingAndGlyphs" textLength="53" x="662" y="465.0669">Charges</text><text fill="#000000" font-family="sans-serif" font-size="13" lengthAdjust="spacingAndGlyphs" textLength="7" x="646.8628" y="676.9931">*</text><!--link InterestCalculation to Debt--><path d="M333.694,137.777 C223.251,154.148 94,196.839 94,307 C94,307 94,307 94,513 C94,591.449 386.583,608.841 471.909,612.245 " fill="none" id="InterestCalculation-Debt" style="stroke: #A80036; stroke-width: 1.0;"/><polygon fill="#A80036" points="476.991,612.441,468.152,608.0968,471.9947,612.2481,467.8434,616.0908,476.991,612.441" style="stroke: #A80036; stroke-width: 1.0;"/><text fill="#000000" font-family="sans-serif" font-size="13" lengthAdjust="spacingAndGlyphs" textLength="101" x="95" y="414.0669">DebtInstrument</text><text fill="#000000" font-family="sans-serif" font-size="13" lengthAdjust="spacingAndGlyphs" textLength="8" x="460.9445" y="605.4524">1</text><!--link InterestCalculation to Spread--><path d="M552.965,213.706 C563.696,232.055 573.202,251.973 579,272 C597.643,336.401 589.356,360.353 563,422 C550.527,451.175 526.328,479.316 510.419,495.888 " fill="none" id="InterestCalculation-Spread" style="stroke: #A80036; stroke-width: 1.0;"/><polygon fill="#A80036" points="506.565,499.846,515.7094,496.1882,510.0531,496.2636,509.9777,490.6073,506.565,499.846" style="stroke: #A80036; stroke-width: 1.0;"/><text fill="#000000" font-family="sans-serif" font-size="13" lengthAdjust="spacingAndGlyphs" textLength="46" x="589" y="363.0669">Spread</text><text fill="#000000" font-family="sans-serif" font-size="13" lengthAdjust="spacingAndGlyphs" textLength="7" x="500.9077" y="488.8413">*</text><!--link InterestCalculation to InterestManagement--><path d="M417.842,213.55 C406.382,231.836 396.231,251.77 390,272 C383.72,292.388 378.211,302.22 390,320 C408.931,348.551 438.263,324.376 461,350 C471.4,361.721 475.462,379.435 477.035,392.395 " fill="none" id="InterestCalculation-InterestManagement" style="stroke: #A80036; stroke-width: 1.0;"/><polygon fill="#A80036" points="477.568,397.626,480.6345,388.2667,477.0609,392.6518,472.6758,389.0781,477.568,397.626" style="stroke: #A80036; stroke-width: 1.0;"/><text fill="#000000" font-family="sans-serif" font-size="13" lengthAdjust="spacingAndGlyphs" textLength="182" x="391" y="312.0669">RelatedInterestManagement</text><text fill="#000000" font-family="sans-serif" font-size="13" lengthAdjust="spacingAndGlyphs" textLength="8" x="466.6858" y="386.8056">1</text><!--link Interest to InterestManagement--><path d="M262.809,320.142 C260.915,333.331 260.096,355.124 272,368 C289.8,387.253 352.61,397.813 404.243,403.372 " fill="none" id="Interest-InterestManagement" style="stroke: #A80036; stroke-width: 1.0;"/><polygon fill="#A80036" points="409.521,403.927,400.99,399.0054,404.5486,403.4028,400.1512,406.9613,409.521,403.927" style="stroke: #A80036; stroke-width: 1.0;"/><text fill="#000000" font-family="sans-serif" font-size="13" lengthAdjust="spacingAndGlyphs" textLength="182" x="273" y="363.0669">RelatedInterestManagement</text><text fill="#000000" font-family="sans-serif" font-size="13" lengthAdjust="spacingAndGlyphs" textLength="8" x="393.7241" y="398.658">1</text><!--link DateTimePeriod to Debt--><path d="M305,945.8581 C305,929.7715 305,899.104 305,873 C305,699 305,699 305,699 C305,626.968 420.645,616.202 471.491,614.95 " fill="none" id="DateTimePeriod-Debt" style="stroke: #A80036; stroke-width: 1.0;"/><polygon fill="#A80036" points="476.782,614.849,467.706,611.0246,471.7829,614.9462,467.8614,619.0231,476.782,614.849" style="stroke: #A80036; stroke-width: 1.0;"/><text fill="#000000" font-family="sans-serif" font-size="13" lengthAdjust="spacingAndGlyphs" textLength="137" x="306" y="790.0669">ExtendiblePeriodDebt</text><text fill="#000000" font-family="sans-serif" font-size="13" lengthAdjust="spacingAndGlyphs" textLength="8" x="460.9617" y="629.3925">1</text><!--link DateTimePeriod to Debt--><path d="M357.45,946.8293 C419.651,933.2331 515,906.8676 515,873 C515,699 515,699 515,699 C515,674.818 507.059,647.758 501.184,631.049 " fill="none" id="DateTimePeriod-Debt" style="stroke: #A80036; stroke-width: 1.0;"/><polygon fill="#A80036" points="499.439,626.211,498.7306,636.0343,501.1358,630.9143,506.2558,633.3195,499.439,626.211" style="stroke: #A80036; stroke-width: 1.0;"/><text fill="#000000" font-family="sans-serif" font-size="13" lengthAdjust="spacingAndGlyphs" textLength="112" x="516" y="790.0669">CustomDateDebt</text><text fill="#000000" font-family="sans-serif" font-size="13" lengthAdjust="spacingAndGlyphs" textLength="8" x="490.2181" y="646.0714">1</text></g></svg>