<?xml version="1.0" encoding="UTF-8" standalone="no"?><svg xmlns="http://www.w3.org/2000/svg" xmlns:xlink="http://www.w3.org/1999/xlink" contentScriptType="application/ecmascript" contentStyleType="text/css" height="1290px" preserveAspectRatio="none" style="width:1992px;height:1290px;" version="1.1" viewBox="0 0 1992 1290" width="1992px" zoomAndPan="magnify"><defs><filter height="300%" id="fnjgwr2vpkctc" width="300%" x="-1" y="-1"><feGaussianBlur result="blurOut" stdDeviation="2.0"/><feColorMatrix in="blurOut" result="blurOut2" type="matrix" values="0 0 0 0 0 0 0 0 0 0 0 0 0 0 0 0 0 0 .4 0"/><feOffset dx="4.0" dy="4.0" in="blurOut2" result="blurOut3"/><feBlend in="SourceGraphic" in2="blurOut3" mode="normal"/></filter></defs><g><!--cluster ##6993--><!--cluster ##6996--><!--class Interest--><a target="_top" xlink:actuate="onRequest" xlink:href="../Interest.html" xlink:show="new" xlink:title="Consideration, such as amount of money,  paid or received in exchange for an asset that has been invested, loaned or borrowed for a certain period. The interest is expressed as a fixed amount or percentage of the amount upon which the interest is applied." xlink:type="simple"><rect fill="#FEFECE" filter="url(#fnjgwr2vpkctc)" height="108.7969" id="Interest" style="stroke: #A80036; stroke-width: 1.5;" width="288" x="903" y="40.5"/><rect fill="#FEFECE" height="23.9688" style="stroke: #A80036; stroke-width: 1.5;" width="288" x="903" y="40.5"/><text fill="#000000" font-family="sans-serif" font-size="12" lengthAdjust="spacingAndGlyphs" textLength="49" x="1022.5" y="56.6387">Interest</text><line style="stroke: #A80036; stroke-width: 1.5;" x1="904" x2="1190" y1="64.4688" y2="64.4688"/><ellipse cx="914" cy="76.3711" fill="#84BE84" rx="3" ry="3" style="stroke: #038048; stroke-width: 1.0;"/><text fill="#000000" font-family="sans-serif" font-size="11" lengthAdjust="spacingAndGlyphs" textLength="132" x="923" y="78.6792">AccruedInterestAmount</text><text fill="#000000" font-family="sans-serif" font-size="11" font-style="italic" lengthAdjust="spacingAndGlyphs" textLength="126" x="1059" y="78.6792">(CurrencyAndAmount)</text><ellipse cx="914" cy="89.1758" fill="#84BE84" rx="3" ry="3" style="stroke: #038048; stroke-width: 1.0;"/><text fill="#000000" font-family="sans-serif" font-size="11" lengthAdjust="spacingAndGlyphs" textLength="43" x="923" y="91.4839">Amount</text><text fill="#000000" font-family="sans-serif" font-size="11" font-style="italic" lengthAdjust="spacingAndGlyphs" textLength="126" x="970" y="91.4839">(CurrencyAndAmount)</text><ellipse cx="914" cy="101.9805" fill="#84BE84" rx="3" ry="3" style="stroke: #038048; stroke-width: 1.0;"/><text fill="#000000" font-family="sans-serif" font-size="11" lengthAdjust="spacingAndGlyphs" textLength="25" x="923" y="104.2886">Rate</text><text fill="#000000" font-family="sans-serif" font-size="11" font-style="italic" lengthAdjust="spacingAndGlyphs" textLength="98" x="952" y="104.2886">(PercentageRate)</text><ellipse cx="914" cy="114.7852" fill="#84BE84" rx="3" ry="3" style="stroke: #038048; stroke-width: 1.0;"/><text fill="#000000" font-family="sans-serif" font-size="11" lengthAdjust="spacingAndGlyphs" textLength="112" x="923" y="117.0933">CreditDebitIndicator</text><text fill="#000000" font-family="sans-serif" font-size="11" font-style="italic" lengthAdjust="spacingAndGlyphs" textLength="100" x="1039" y="117.0933">(DebitCreditCode)</text><ellipse cx="914" cy="127.5898" fill="#84BE84" rx="3" ry="3" style="stroke: #038048; stroke-width: 1.0;"/><text fill="#000000" font-family="sans-serif" font-size="11" lengthAdjust="spacingAndGlyphs" textLength="75" x="923" y="129.8979">PaymentDate</text><text fill="#000000" font-family="sans-serif" font-size="11" font-style="italic" lengthAdjust="spacingAndGlyphs" textLength="53" x="1002" y="129.8979">(ISODate)</text><ellipse cx="914" cy="140.3945" fill="#84BE84" rx="3" ry="3" style="stroke: #038048; stroke-width: 1.0;"/><text fill="#000000" font-family="sans-serif" font-size="11" lengthAdjust="spacingAndGlyphs" textLength="84" x="923" y="142.7026">TypeOfInterest</text><text fill="#000000" font-family="sans-serif" font-size="11" font-style="italic" lengthAdjust="spacingAndGlyphs" textLength="108" x="1011" y="142.7026">(InterestTypeCode)</text></a><!--class InterestCalculation--><a target="_top" xlink:actuate="onRequest" xlink:href="../InterestCalculation.html" xlink:show="new" xlink:title="Set of parameters used to calculate an interest amount." xlink:type="simple"><rect fill="#EEEEEE" filter="url(#fnjgwr2vpkctc)" height="23.9688" id="InterestCalculation" style="stroke: #A80036; stroke-width: 1.5;" width="124" x="38.5" y="83"/><rect fill="#EEEEEE" height="23.9688" style="stroke: #A80036; stroke-width: 1.5;" width="124" x="38.5" y="83"/><text fill="#000000" font-family="sans-serif" font-size="12" lengthAdjust="spacingAndGlyphs" textLength="118" x="41.5" y="99.1387">InterestCalculation</text></a><!--class CashProceedsDefinition--><a target="_top" xlink:actuate="onRequest" xlink:href="../CashProceedsDefinition.html" xlink:show="new" xlink:title="Definition of the cash proceeds for a corporate action in generic terms; that is, before applying it to specific securities holding. An example would be the definition of a dividend payment where all the information will be given in general on a per share basis." xlink:type="simple"><rect fill="#EEEEEE" filter="url(#fnjgwr2vpkctc)" height="23.9688" id="CashProceedsDefinition" style="stroke: #A80036; stroke-width: 1.5;" width="155" x="123.75" y="638"/><rect fill="#EEEEEE" height="23.9688" style="stroke: #A80036; stroke-width: 1.5;" width="155" x="123.75" y="638"/><text fill="#000000" font-family="sans-serif" font-size="12" lengthAdjust="spacingAndGlyphs" textLength="149" x="126.75" y="654.1387">CashProceedsDefinition</text></a><!--class SecuritiesFinancing--><a target="_top" xlink:actuate="onRequest" xlink:href="../SecuritiesFinancing.html" xlink:show="new" xlink:title="Process of lending or borrowing cash or securities against securities or cash collateral. It aims at optimising liquidity, support a trading strategy, or increase settlement efficiency." xlink:type="simple"><rect fill="#EEEEEE" filter="url(#fnjgwr2vpkctc)" height="23.9688" id="SecuritiesFinancing" style="stroke: #A80036; stroke-width: 1.5;" width="128" x="137" y="536"/><rect fill="#EEEEEE" height="23.9688" style="stroke: #A80036; stroke-width: 1.5;" width="128" x="137" y="536"/><text fill="#000000" font-family="sans-serif" font-size="12" lengthAdjust="spacingAndGlyphs" textLength="122" x="140" y="552.1387">SecuritiesFinancing</text></a><!--class Tax--><a target="_top" xlink:actuate="onRequest" xlink:href="../Tax.html" xlink:show="new" xlink:title="Amount of money due to the government or tax authority, according to various pre-defined parameters such as thresholds or income." xlink:type="simple"><rect fill="#EEEEEE" filter="url(#fnjgwr2vpkctc)" height="23.9688" id="Tax" style="stroke: #A80036; stroke-width: 1.5;" width="27" x="225.75" y="434"/><rect fill="#EEEEEE" height="23.9688" style="stroke: #A80036; stroke-width: 1.5;" width="27" x="225.75" y="434"/><text fill="#000000" font-family="sans-serif" font-size="12" lengthAdjust="spacingAndGlyphs" textLength="21" x="228.75" y="450.1387">Tax</text></a><!--class CashEntry--><a target="_top" xlink:actuate="onRequest" xlink:href="../CashEntry.html" xlink:show="new" xlink:title="Posting of an item to a cash account, in the context of a cash transaction, that results in an increase or decrease to the balance of the account." xlink:type="simple"><rect fill="#EEEEEE" filter="url(#fnjgwr2vpkctc)" height="23.9688" id="CashEntry" style="stroke: #A80036; stroke-width: 1.5;" width="69" x="204.75" y="332"/><rect fill="#EEEEEE" height="23.9688" style="stroke: #A80036; stroke-width: 1.5;" width="69" x="204.75" y="332"/><text fill="#000000" font-family="sans-serif" font-size="12" lengthAdjust="spacingAndGlyphs" textLength="63" x="207.75" y="348.1387">CashEntry</text></a><!--class InterestManagement--><a target="_top" xlink:actuate="onRequest" xlink:href="../InterestManagement.html" xlink:show="new" xlink:title="Management of interest which consists into calculating the interest, requesting its payment or distributing the interest proceeds." xlink:type="simple"><rect fill="#EEEEEE" filter="url(#fnjgwr2vpkctc)" height="23.9688" id="InterestManagement" style="stroke: #A80036; stroke-width: 1.5;" width="137" x="85.75" y="230"/><rect fill="#EEEEEE" height="23.9688" style="stroke: #A80036; stroke-width: 1.5;" width="137" x="85.75" y="230"/><text fill="#000000" font-family="sans-serif" font-size="12" lengthAdjust="spacingAndGlyphs" textLength="131" x="88.75" y="246.1387">InterestManagement</text></a><!--class UndertakingAmount--><a target="_top" xlink:actuate="onRequest" xlink:href="../UndertakingAmount.html" xlink:show="new" xlink:title="Amount of an undertaking such as a guarantee or standby letter of credit." xlink:type="simple"><rect fill="#EEEEEE" filter="url(#fnjgwr2vpkctc)" height="23.9688" id="UndertakingAmount" style="stroke: #A80036; stroke-width: 1.5;" width="131" x="361.75" y="1256"/><rect fill="#EEEEEE" height="23.9688" style="stroke: #A80036; stroke-width: 1.5;" width="131" x="361.75" y="1256"/><text fill="#000000" font-family="sans-serif" font-size="12" lengthAdjust="spacingAndGlyphs" textLength="125" x="364.75" y="1272.1387">UndertakingAmount</text></a><!--class DebitCreditFacility--><a target="_top" xlink:actuate="onRequest" xlink:href="../DebitCreditFacility.html" xlink:show="new" xlink:title="Specifies the conditions for overdraft on the account or for positive amounts." xlink:type="simple"><rect fill="#EEEEEE" filter="url(#fnjgwr2vpkctc)" height="23.9688" id="DebitCreditFacility" style="stroke: #A80036; stroke-width: 1.5;" width="118" x="368" y="1170"/><rect fill="#EEEEEE" height="23.9688" style="stroke: #A80036; stroke-width: 1.5;" width="118" x="368" y="1170"/><text fill="#000000" font-family="sans-serif" font-size="12" lengthAdjust="spacingAndGlyphs" textLength="112" x="371" y="1186.1387">DebitCreditFacility</text></a><!--class SecuritiesSettlement--><a target="_top" xlink:actuate="onRequest" xlink:href="../SecuritiesSettlement.html" xlink:show="new" xlink:title="Settlement of the securities in a securities transaction, that is, the instruction to deliver or receive securities, involving the payment of an amount of money or not." xlink:type="simple"><rect fill="#EEEEEE" filter="url(#fnjgwr2vpkctc)" height="23.9688" id="SecuritiesSettlement" style="stroke: #A80036; stroke-width: 1.5;" width="137" x="356.75" y="1084"/><rect fill="#EEEEEE" height="23.9688" style="stroke: #A80036; stroke-width: 1.5;" width="137" x="356.75" y="1084"/><text fill="#000000" font-family="sans-serif" font-size="12" lengthAdjust="spacingAndGlyphs" textLength="131" x="359.75" y="1100.1387">SecuritiesSettlement</text></a><!--class GenericIdentification--><a target="_top" xlink:actuate="onRequest" xlink:href="../GenericIdentification.html" xlink:show="new" xlink:title="Information related to a non-standardised identification, such as a proprietary party identification or account identification." xlink:type="simple"><rect fill="#EEEEEE" filter="url(#fnjgwr2vpkctc)" height="23.9688" id="GenericIdentification" style="stroke: #A80036; stroke-width: 1.5;" width="135" x="357.75" y="998"/><rect fill="#EEEEEE" height="23.9688" style="stroke: #A80036; stroke-width: 1.5;" width="135" x="357.75" y="998"/><text fill="#000000" font-family="sans-serif" font-size="12" lengthAdjust="spacingAndGlyphs" textLength="129" x="360.75" y="1014.1387">GenericIdentification</text></a><!--class AssetHolding--><a target="_top" xlink:actuate="onRequest" xlink:href="../AssetHolding.html" xlink:show="new" xlink:title="Specifies in terms of value and quantity the assets." xlink:type="simple"><rect fill="#EEEEEE" filter="url(#fnjgwr2vpkctc)" height="23.9688" id="AssetHolding" style="stroke: #A80036; stroke-width: 1.5;" width="88" x="396.5" y="912"/><rect fill="#EEEEEE" height="23.9688" style="stroke: #A80036; stroke-width: 1.5;" width="88" x="396.5" y="912"/><text fill="#000000" font-family="sans-serif" font-size="12" lengthAdjust="spacingAndGlyphs" textLength="82" x="399.5" y="928.1387">AssetHolding</text></a><!--class Deposit--><a target="_top" xlink:actuate="onRequest" xlink:href="../Deposit.html" xlink:show="new" xlink:title="An arrangement in which a lender gives money or property to a borrower, and the borrower agrees to return the property or repay the money, usually along with interest, at some future point(s) in time." xlink:type="simple"><rect fill="#EEEEEE" filter="url(#fnjgwr2vpkctc)" height="23.9688" id="Deposit" style="stroke: #A80036; stroke-width: 1.5;" width="54" x="440" y="826"/><rect fill="#EEEEEE" height="23.9688" style="stroke: #A80036; stroke-width: 1.5;" width="54" x="440" y="826"/><text fill="#000000" font-family="sans-serif" font-size="12" lengthAdjust="spacingAndGlyphs" textLength="48" x="443" y="842.1387">Deposit</text></a><!--class Balance--><a target="_top" xlink:actuate="onRequest" xlink:href="../Balance.html" xlink:show="new" xlink:title="Numerical representation of the net increases and decreases in an account at a specific point in time." xlink:type="simple"><rect fill="#EEEEEE" filter="url(#fnjgwr2vpkctc)" height="23.9688" id="Balance" style="stroke: #A80036; stroke-width: 1.5;" width="56" x="425.5" y="740"/><rect fill="#EEEEEE" height="23.9688" style="stroke: #A80036; stroke-width: 1.5;" width="56" x="425.5" y="740"/><text fill="#000000" font-family="sans-serif" font-size="12" lengthAdjust="spacingAndGlyphs" textLength="50" x="428.5" y="756.1387">Balance</text></a><!--class AccountContract--><a target="_top" xlink:actuate="onRequest" xlink:href="../AccountContract.html" xlink:show="new" xlink:title="Agreement between an account servicer and an account owner about the services linked to an account." xlink:type="simple"><rect fill="#EEEEEE" filter="url(#fnjgwr2vpkctc)" height="23.9688" id="AccountContract" style="stroke: #A80036; stroke-width: 1.5;" width="111" x="383.75" y="638"/><rect fill="#EEEEEE" height="23.9688" style="stroke: #A80036; stroke-width: 1.5;" width="111" x="383.75" y="638"/><text fill="#000000" font-family="sans-serif" font-size="12" lengthAdjust="spacingAndGlyphs" textLength="105" x="386.75" y="654.1387">AccountContract</text></a><!--class NetAssetValueCalculation--><a target="_top" xlink:actuate="onRequest" xlink:href="../NetAssetValueCalculation.html" xlink:show="new" xlink:title="Calculation of the net asset value for an investment fund/fund class." xlink:type="simple"><rect fill="#EEEEEE" filter="url(#fnjgwr2vpkctc)" height="23.9688" id="NetAssetValueCalculation" style="stroke: #A80036; stroke-width: 1.5;" width="167" x="327.75" y="536"/><rect fill="#EEEEEE" height="23.9688" style="stroke: #A80036; stroke-width: 1.5;" width="167" x="327.75" y="536"/><text fill="#000000" font-family="sans-serif" font-size="12" lengthAdjust="spacingAndGlyphs" textLength="161" x="330.75" y="552.1387">NetAssetValueCalculation</text></a><!--class PaymentCard--><a target="_top" xlink:actuate="onRequest" xlink:href="../PaymentCard.html" xlink:show="new" xlink:title="Electronic money product that provides the cardholder with a portable and specialised computer device that typically contains a microprocessor." xlink:type="simple"><rect fill="#EEEEEE" filter="url(#fnjgwr2vpkctc)" height="23.9688" id="PaymentCard" style="stroke: #A80036; stroke-width: 1.5;" width="89" x="374.75" y="434"/><rect fill="#EEEEEE" height="23.9688" style="stroke: #A80036; stroke-width: 1.5;" width="89" x="374.75" y="434"/><text fill="#000000" font-family="sans-serif" font-size="12" lengthAdjust="spacingAndGlyphs" textLength="83" x="377.75" y="450.1387">PaymentCard</text></a><!--link CashProceedsDefinition to InterestCalculation--><!--link SecuritiesFinancing to CashProceedsDefinition--><!--link Tax to SecuritiesFinancing--><!--link CashEntry to Tax--><!--link InterestManagement to CashEntry--><!--link UndertakingAmount to InterestManagement--><!--link DebitCreditFacility to UndertakingAmount--><!--link SecuritiesSettlement to DebitCreditFacility--><!--link GenericIdentification to SecuritiesSettlement--><!--link AssetHolding to GenericIdentification--><!--link Deposit to AssetHolding--><!--link Balance to Deposit--><!--link AccountContract to Balance--><!--link NetAssetValueCalculation to AccountContract--><!--link PaymentCard to NetAssetValueCalculation--><!--link Interest to InterestCalculation--><path d="M902.731,95 C694.916,95 319.566,95 167.099,95 " fill="none" id="Interest-InterestCalculation" style="stroke: #A80036; stroke-width: 1.0;"/><polygon fill="#A80036" points="161.77,95,170.77,99,166.77,95,170.77,91,161.77,95" style="stroke: #A80036; stroke-width: 1.0;"/><text fill="#000000" font-family="sans-serif" font-size="13" lengthAdjust="spacingAndGlyphs" textLength="119" x="472" y="87.0669">InterestCalculation</text><text fill="#000000" font-family="sans-serif" font-size="13" lengthAdjust="spacingAndGlyphs" textLength="7" x="170.4735" y="89.9357">*</text><!--link Interest to CashProceedsDefinition--><path d="M1041.66,149.59 C1032.59,209.93 1008.34,306.06 944,356 C860.473,420.829 803.494,340.608 708,386 C705.817,387.037 583.84,504.433 582,506 C551.822,531.71 546.438,542.226 511,560 C432.586,599.33 334.045,623.854 269.381,636.964 " fill="none" id="Interest-CashProceedsDefinition" style="stroke: #A80036; stroke-width: 1.0;"/><polygon fill="#A80036" points="264.396,637.966,274.0074,640.1157,269.2981,636.9816,272.4323,632.2723,264.396,637.966" style="stroke: #A80036; stroke-width: 1.0;"/><text fill="#000000" font-family="sans-serif" font-size="13" lengthAdjust="spacingAndGlyphs" textLength="199" x="709" y="399.0669">RelatedCashProceedsDefinition</text><text fill="#000000" font-family="sans-serif" font-size="13" lengthAdjust="spacingAndGlyphs" textLength="7" x="276.5556" y="627.0025">*</text><!--link Interest to SecuritiesFinancing--><path d="M933.771,149.53 C791.823,216.81 566.051,324.491 559,332 C501.83,392.892 553.848,454.617 488,506 C479.458,512.666 352.523,528.918 270.353,538.842 " fill="none" id="Interest-SecuritiesFinancing" style="stroke: #A80036; stroke-width: 1.0;"/><polygon fill="#A80036" points="265.007,539.486,274.4212,542.3795,269.971,538.8873,273.4633,534.4371,265.007,539.486" style="stroke: #A80036; stroke-width: 1.0;"/><text fill="#000000" font-family="sans-serif" font-size="13" lengthAdjust="spacingAndGlyphs" textLength="123" x="560" y="348.0669">SecuritiesFinancing</text><text fill="#000000" font-family="sans-serif" font-size="13" lengthAdjust="spacingAndGlyphs" textLength="7" x="272.8125" y="533.5951">*</text><!--link Interest to Tax--><path d="M902.757,111.06 C808.06,123.67 682.486,145.62 576,182 C552.675,189.97 398.375,268.76 379,284 C322.11,328.74 270.506,398.974 249.26,429.723 " fill="none" id="Interest-Tax" style="stroke: #A80036; stroke-width: 1.0;"/><polygon fill="#A80036" points="246.348,433.965,254.7379,428.8066,249.1766,429.842,248.1412,424.2808,246.348,433.965" style="stroke: #A80036; stroke-width: 1.0;"/><text fill="#000000" font-family="sans-serif" font-size="13" lengthAdjust="spacingAndGlyphs" textLength="71" x="380" y="297.0669">InterestTax</text><text fill="#000000" font-family="sans-serif" font-size="13" lengthAdjust="spacingAndGlyphs" textLength="24" x="219.3192" y="423.0012">0..1</text><!--link Interest to CashEntry--><path d="M902.759,111.55 C799.125,124.81 656.798,147.32 535,182 C514.679,187.79 511.163,193.69 491,200 C432.345,218.37 410.134,200.89 356,230 C309.682,254.9 268.838,303.37 250.014,327.943 " fill="none" id="Interest-CashEntry" style="stroke: #A80036; stroke-width: 1.0;"/><polygon fill="#A80036" points="246.971,331.958,255.5953,327.2018,249.9913,327.9733,249.2198,322.3693,246.971,331.958" style="stroke: #A80036; stroke-width: 1.0;"/><text fill="#000000" font-family="sans-serif" font-size="13" lengthAdjust="spacingAndGlyphs" textLength="65" x="357" y="246.0669">CashEntry</text><text fill="#000000" font-family="sans-serif" font-size="13" lengthAdjust="spacingAndGlyphs" textLength="8" x="238.9063" y="320.9918">1</text><!--link Interest to InterestManagement--><path d="M902.764,121.18 C794.931,138.97 643.686,161.75 510,174 C463.936,178.22 346.806,170.51 302,182 C284.672,186.44 282.425,192.91 266,200 C241.784,210.45 213.941,220.65 192.073,228.26 " fill="none" id="Interest-InterestManagement" style="stroke: #A80036; stroke-width: 1.0;"/><polygon fill="#A80036" points="187.219,229.94,197.0324,230.7753,191.9438,228.3042,194.415,223.2156,187.219,229.94" style="stroke: #A80036; stroke-width: 1.0;"/><text fill="#000000" font-family="sans-serif" font-size="13" lengthAdjust="spacingAndGlyphs" textLength="182" x="303" y="195.0669">RelatedInterestManagement</text><text fill="#000000" font-family="sans-serif" font-size="13" lengthAdjust="spacingAndGlyphs" textLength="8" x="187.8333" y="218.9676">1</text><!--link Interest to UndertakingAmount--><path d="M1191.23,109.25 C1410.37,131.36 1802,179.48 1802,241 C1802,241 1802,241 1802,1183 C1802,1249.02 778.765,1263.6456 497.689,1266.4177 " fill="none" id="Interest-UndertakingAmount" style="stroke: #A80036; stroke-width: 1.0;"/><polygon fill="#A80036" points="492.394,1266.4694,501.4324,1270.3818,497.3938,1266.4208,501.3547,1262.3822,492.394,1266.4694" style="stroke: #A80036; stroke-width: 1.0;"/><text fill="#000000" font-family="sans-serif" font-size="13" lengthAdjust="spacingAndGlyphs" textLength="177" x="1803" y="756.0669">RelatedUndertakingAmount</text><text fill="#000000" font-family="sans-serif" font-size="13" lengthAdjust="spacingAndGlyphs" textLength="8" x="500.8209" y="1261.3238">1</text><!--link Interest to DebitCreditFacility--><path d="M1191.29,104.53 C1358.98,118.5 1613,154.02 1613,241 C1613,241 1613,241 1613,1097 C1613,1153.729 738.21,1174.975 491.23,1179.842 " fill="none" id="Interest-DebitCreditFacility" style="stroke: #A80036; stroke-width: 1.0;"/><polygon fill="#A80036" points="486.22,1179.94,495.2971,1183.7618,491.219,1179.8414,495.1394,1175.7633,486.22,1179.94" style="stroke: #A80036; stroke-width: 1.0;"/><text fill="#000000" font-family="sans-serif" font-size="13" lengthAdjust="spacingAndGlyphs" textLength="163" x="1614" y="705.0669">RelatedDebitCreditFacility</text><text fill="#000000" font-family="sans-serif" font-size="13" lengthAdjust="spacingAndGlyphs" textLength="24" x="494.0097" y="1174.8609">0..1</text><!--link Interest to SecuritiesSettlement--><path d="M1191.2,120.38 C1306.17,144.04 1448,184.64 1448,241 C1448,241 1448,241 1448,549 C1448,617.099 1422,631.901 1422,700 C1422,700 1422,700 1422,1011 C1422,1057.341 729.042,1084.797 498.554,1092.648 " fill="none" id="Interest-SecuritiesSettlement" style="stroke: #A80036; stroke-width: 1.0;"/><polygon fill="#A80036" points="493.528,1092.819,502.6577,1096.5133,498.5252,1092.6504,502.388,1088.5178,493.528,1092.819" style="stroke: #A80036; stroke-width: 1.0;"/><text fill="#000000" font-family="sans-serif" font-size="13" lengthAdjust="spacingAndGlyphs" textLength="135" x="1431" y="654.0669">SecuritiesSettlement</text><text fill="#000000" font-family="sans-serif" font-size="13" lengthAdjust="spacingAndGlyphs" textLength="24" x="501.8067" y="1087.6898">0..1</text><!--link Interest to GenericIdentification--><path d="M1191.26,104.75 C1280.06,118.87 1377,154.17 1377,241 C1377,241 1377,241 1377,498 C1377,520.858 1336.25,567.754 1331,590 C1329.16,597.786 1330.71,600.005 1331,608 C1331.67,626.259 1334,630.729 1334,649 C1334,649 1334,649 1334,925 C1334,966.916 713.06,996.925 497.594,1006.077 " fill="none" id="Interest-GenericIdentification" style="stroke: #A80036; stroke-width: 1.0;"/><polygon fill="#A80036" points="492.58,1006.289,501.7411,1009.9049,497.5755,1006.0776,501.4028,1001.912,492.58,1006.289" style="stroke: #A80036; stroke-width: 1.0;"/><text fill="#000000" font-family="sans-serif" font-size="13" lengthAdjust="spacingAndGlyphs" textLength="88" x="1332" y="603.0669">InterestName</text><text fill="#000000" font-family="sans-serif" font-size="13" lengthAdjust="spacingAndGlyphs" textLength="8" x="500.8275" y="1000.9535">1</text><!--link Interest to AssetHolding--><path d="M1191.14,143.93 C1229.26,166.12 1260,197.5 1260,241 C1260,241 1260,241 1260,396 C1260,491.162 1189,502.838 1189,598 C1189,598 1189,598 1189,839 C1189,909.709 655.022,920.898 488.791,922.668 " fill="none" id="Interest-AssetHolding" style="stroke: #A80036; stroke-width: 1.0;"/><polygon fill="#A80036" points="483.507,922.722,492.5477,926.6292,488.5067,922.6706,492.4654,918.6296,483.507,922.722" style="stroke: #A80036; stroke-width: 1.0;"/><text fill="#000000" font-family="sans-serif" font-size="13" lengthAdjust="spacingAndGlyphs" textLength="132" x="1203" y="552.0669">RelatedAssetHolding</text><text fill="#000000" font-family="sans-serif" font-size="13" lengthAdjust="spacingAndGlyphs" textLength="8" x="492.4677" y="916.9406">1</text><!--link Interest to Deposit--><path d="M1137.33,149.56 C1165.34,173.26 1189,204.18 1189,241 C1189,241 1189,241 1189,396 C1189,493.927 1101,500.073 1101,598 C1101,598 1101,598 1101,753 C1101,814.327 628.776,832.365 499.421,836.156 " fill="none" id="Interest-Deposit" style="stroke: #A80036; stroke-width: 1.0;"/><polygon fill="#A80036" points="494.242,836.305,503.3537,840.0436,499.2399,836.1607,503.1228,832.0469,494.242,836.305" style="stroke: #A80036; stroke-width: 1.0;"/><text fill="#000000" font-family="sans-serif" font-size="13" lengthAdjust="spacingAndGlyphs" textLength="49" x="1154" y="501.0669">Deposit</text><text fill="#000000" font-family="sans-serif" font-size="13" lengthAdjust="spacingAndGlyphs" textLength="8" x="501.8572" y="829.9069">1</text><!--link Interest to Balance--><path d="M1075.92,149.58 C1106.27,213.68 1144.06,322.525 1101,404 C1089.94,424.926 1072.09,415.769 1057,434 C1037.83,457.15 1030,465.945 1030,496 C1030,496 1030,496 1030,651 C1030,706.599 608.707,740.195 486.098,748.796 " fill="none" id="Interest-Balance" style="stroke: #A80036; stroke-width: 1.0;"/><polygon fill="#A80036" points="480.83,749.163,490.086,752.5286,485.8179,748.8159,489.5306,744.5479,480.83,749.163" style="stroke: #A80036; stroke-width: 1.0;"/><text fill="#000000" font-family="sans-serif" font-size="13" lengthAdjust="spacingAndGlyphs" textLength="103" x="1058" y="450.0669">AccountBalance</text><text fill="#000000" font-family="sans-serif" font-size="13" lengthAdjust="spacingAndGlyphs" textLength="24" x="489.4334" y="742.7679">0..1</text><!--link Interest to AccountContract--><path d="M1051.34,149.67 C1053.08,206.55 1047.33,296.23 1002,356 C983.259,380.71 964.145,367.848 939,386 C828.132,466.032 847.662,545.588 726,608 C687.569,627.715 571.668,639.424 499.448,645 " fill="none" id="Interest-AccountContract" style="stroke: #A80036; stroke-width: 1.0;"/><polygon fill="#A80036" points="494.325,645.391,503.6039,648.6928,499.3104,645.0096,502.9937,640.7161,494.325,645.391" style="stroke: #A80036; stroke-width: 1.0;"/><text fill="#000000" font-family="sans-serif" font-size="13" lengthAdjust="spacingAndGlyphs" textLength="155" x="940" y="399.0669">RelatedAccountContract</text><text fill="#000000" font-family="sans-serif" font-size="13" lengthAdjust="spacingAndGlyphs" textLength="8" x="502.6324" y="639.626">1</text><!--link Interest to NetAssetValueCalculation--><path d="M966.603,149.72 C885.513,205.28 758.187,296.31 657,386 C601.948,434.794 605.479,467.168 543,506 C521.879,519.127 496.228,528.345 473.175,534.667 " fill="none" id="Interest-NetAssetValueCalculation" style="stroke: #A80036; stroke-width: 1.0;"/><polygon fill="#A80036" points="468.298,535.973,478.0262,537.5098,473.128,534.6802,475.9577,529.7819,468.298,535.973" style="stroke: #A80036; stroke-width: 1.0;"/><text fill="#000000" font-family="sans-serif" font-size="13" lengthAdjust="spacingAndGlyphs" textLength="213" x="721" y="348.0669">RelatedNetAssetValueCalculation</text><text fill="#000000" font-family="sans-serif" font-size="13" lengthAdjust="spacingAndGlyphs" textLength="8" x="477.1895" y="525.0119">1</text><!--link Interest to PaymentCard--><path d="M902.645,109.71 C816.999,121.5 707.781,143.06 617,182 C544.589,213.06 518.921,220.7 472,284 C438.206,329.589 425.251,397.854 420.915,428.762 " fill="none" id="Interest-PaymentCard" style="stroke: #A80036; stroke-width: 1.0;"/><polygon fill="#A80036" points="420.247,433.74,425.4096,425.3527,420.9127,428.7845,417.4808,424.2876,420.247,433.74" style="stroke: #A80036; stroke-width: 1.0;"/><text fill="#000000" font-family="sans-serif" font-size="13" lengthAdjust="spacingAndGlyphs" textLength="135" x="473" y="297.0669">RelatedPaymentCard</text><text fill="#000000" font-family="sans-serif" font-size="13" lengthAdjust="spacingAndGlyphs" textLength="8" x="409.921" y="422.9573">1</text><!--link InterestCalculation to InterestManagement--><path d="M92.5955,107.17 C80.3434,127.18 58.9133,169.88 77,200 C84.5686,212.6 97.4697,221.55 110.571,227.79 " fill="none" id="InterestCalculation-InterestManagement" style="stroke: #A80036; stroke-width: 1.0;"/><polygon fill="#A80036" points="115.397,229.97,108.8398,222.6213,110.8398,227.9128,105.5483,229.9129,115.397,229.97" style="stroke: #A80036; stroke-width: 1.0;"/><text fill="#000000" font-family="sans-serif" font-size="13" lengthAdjust="spacingAndGlyphs" textLength="182" x="78" y="195.0669">RelatedInterestManagement</text><text fill="#000000" font-family="sans-serif" font-size="13" lengthAdjust="spacingAndGlyphs" textLength="8" x="91.3225" y="219.0079">1</text><!--link CashProceedsDefinition to GenericIdentification--><path d="M201,662.098 C201,680.551 201,718.708 201,751 C201,751 201,751 201,925 C201,958.648 290.733,983.353 356.611,996.956 " fill="none" id="CashProceedsDefinition-GenericIdentification" style="stroke: #A80036; stroke-width: 1.0;"/><polygon fill="#A80036" points="361.709,997.996,353.6906,992.2771,356.81,996.9962,352.0909,1000.1156,361.709,997.996" style="stroke: #A80036; stroke-width: 1.0;"/><text fill="#000000" font-family="sans-serif" font-size="13" lengthAdjust="spacingAndGlyphs" textLength="77" x="202" y="842.0669">IncomeType</text><text fill="#000000" font-family="sans-serif" font-size="13" lengthAdjust="spacingAndGlyphs" textLength="8" x="341.7853" y="990.8081">1</text><!--link Tax to NetAssetValueCalculation--><path d="M248.636,458.41 C260.169,471.453 280.62,492.709 302,506 C321.552,518.155 345.277,527.609 365.593,534.359 " fill="none" id="Tax-NetAssetValueCalculation" style="stroke: #A80036; stroke-width: 1.0;"/><polygon fill="#A80036" points="370.41,535.931,363.0931,529.3383,365.6563,534.3812,360.6134,536.9443,370.41,535.931" style="stroke: #A80036; stroke-width: 1.0;"/><text fill="#000000" font-family="sans-serif" font-size="13" lengthAdjust="spacingAndGlyphs" textLength="175" x="303" y="501.0669">TaxLiabilityValueCalculation</text><text fill="#000000" font-family="sans-serif" font-size="13" lengthAdjust="spacingAndGlyphs" textLength="24" x="326.9025" y="524.9555">0..1</text><!--link Tax to NetAssetValueCalculation--><path d="M225.744,447.776 C183.861,450.684 59.3091,463.068 97,506 C104.4644,514.502 232.197,529.026 322.418,538.31 " fill="none" id="Tax-NetAssetValueCalculation" style="stroke: #A80036; stroke-width: 1.0;"/><polygon fill="#A80036" points="327.494,538.831,318.9489,533.9339,322.5201,538.321,318.133,541.8922,327.494,538.831" style="stroke: #A80036; stroke-width: 1.0;"/><text fill="#000000" font-family="sans-serif" font-size="13" lengthAdjust="spacingAndGlyphs" textLength="172" x="98" y="501.0669">TaxRefundValueCalculation</text><text fill="#000000" font-family="sans-serif" font-size="13" lengthAdjust="spacingAndGlyphs" textLength="24" x="295.6908" y="533.6613">0..1</text><!--link AssetHolding to Balance--><path d="M421.002,911.784 C394.708,894.702 352.155,860.495 368,826 C380.078,799.706 406.818,779.322 427.104,766.857 " fill="none" id="AssetHolding-Balance" style="stroke: #A80036; stroke-width: 1.0;"/><polygon fill="#A80036" points="431.586,764.166,421.8107,765.3674,427.2988,766.7389,425.9273,772.227,431.586,764.166" style="stroke: #A80036; stroke-width: 1.0;"/><text fill="#000000" font-family="sans-serif" font-size="13" lengthAdjust="spacingAndGlyphs" textLength="51" x="369" y="842.0669">Balance</text><text fill="#000000" font-family="sans-serif" font-size="13" lengthAdjust="spacingAndGlyphs" textLength="7" x="413.1855" y="784.0087">*</text></g></svg>