<?xml version="1.0" encoding="UTF-8" standalone="no"?><svg xmlns="http://www.w3.org/2000/svg" xmlns:xlink="http://www.w3.org/1999/xlink" contentScriptType="application/ecmascript" contentStyleType="text/css" height="1112px" preserveAspectRatio="none" style="width:2133px;height:1112px;" version="1.1" viewBox="0 0 2133 1112" width="2133px" zoomAndPan="magnify"><defs><filter height="300%" id="f1k4635jz6g8c0" width="300%" x="-1" y="-1"><feGaussianBlur result="blurOut" stdDeviation="2.0"/><feColorMatrix in="blurOut" result="blurOut2" type="matrix" values="0 0 0 0 0 0 0 0 0 0 0 0 0 0 0 0 0 0 .4 0"/><feOffset dx="4.0" dy="4.0" in="blurOut2" result="blurOut3"/><feBlend in="SourceGraphic" in2="blurOut3" mode="normal"/></filter></defs><g><!--cluster ##7666--><!--cluster ##7675--><!--cluster ##7678--><!--cluster ##7697--><!--class ObligationFulfilment--><a target="_top" xlink:actuate="onRequest" xlink:href="../ObligationFulfilment.html" xlink:show="new" xlink:title="Processes by which an obligation is extinguished fully or partially." xlink:type="simple"><rect fill="#FEFEEE" filter="url(#f1k4635jz6g8c0)" height="44.7734" id="ObligationFulfilment" style="stroke: #A80036; stroke-width: 1.5;" width="129" x="196.75" y="40.5"/><rect fill="#FEFEEE" height="23.9688" style="stroke: #A80036; stroke-width: 1.5;" width="129" x="196.75" y="40.5"/><text fill="#000000" font-family="sans-serif" font-size="12" lengthAdjust="spacingAndGlyphs" textLength="123" x="199.75" y="56.6387">ObligationFulfilment</text><line style="stroke: #A80036; stroke-width: 1.5;" x1="197.75" x2="324.75" y1="64.4688" y2="64.4688"/><ellipse cx="207.75" cy="76.3711" fill="#84BE84" rx="3" ry="3" style="stroke: #038048; stroke-width: 1.0;"/><text fill="#000000" font-family="sans-serif" font-size="11" lengthAdjust="spacingAndGlyphs" textLength="26" x="216.75" y="78.6792">Date</text><text fill="#000000" font-family="sans-serif" font-size="11" font-style="italic" lengthAdjust="spacingAndGlyphs" textLength="53" x="246.75" y="78.6792">(ISODate)</text></a><!--class SecuritiesTransfer--><a target="_top" xlink:actuate="onRequest" xlink:href="../SecuritiesTransfer.html" xlink:show="new" xlink:title="Completion of a securities settlement instruction, wherein securities are delivered/debited from a securities account and received/credited to the designated securities account." xlink:type="simple"><rect fill="#FEFEEE" filter="url(#f1k4635jz6g8c0)" height="121.6016" id="SecuritiesTransfer" style="stroke: #A80036; stroke-width: 1.5;" width="289" x="37.75" y="164"/><rect fill="#FEFEEE" height="23.9688" style="stroke: #A80036; stroke-width: 1.5;" width="289" x="37.75" y="164"/><text fill="#000000" font-family="sans-serif" font-size="12" lengthAdjust="spacingAndGlyphs" textLength="114" x="125.25" y="180.1387">SecuritiesTransfer</text><line style="stroke: #A80036; stroke-width: 1.5;" x1="38.75" x2="325.75" y1="187.9688" y2="187.9688"/><ellipse cx="48.75" cy="199.8711" fill="#84BE84" rx="3" ry="3" style="stroke: #038048; stroke-width: 1.0;"/><text fill="#000000" font-family="sans-serif" font-size="11" lengthAdjust="spacingAndGlyphs" textLength="72" x="57.75" y="202.1792">Identification</text><text fill="#000000" font-family="sans-serif" font-size="11" font-style="italic" lengthAdjust="spacingAndGlyphs" textLength="70" x="133.75" y="202.1792">(Max35Text)</text><ellipse cx="48.75" cy="212.6758" fill="#84BE84" rx="3" ry="3" style="stroke: #038048; stroke-width: 1.0;"/><text fill="#000000" font-family="sans-serif" font-size="11" lengthAdjust="spacingAndGlyphs" textLength="76" x="57.75" y="214.9839">TransferType</text><text fill="#000000" font-family="sans-serif" font-size="11" font-style="italic" lengthAdjust="spacingAndGlyphs" textLength="113" x="137.75" y="214.9839">(TransferTypeCode)</text><ellipse cx="48.75" cy="225.4805" fill="#84BE84" rx="3" ry="3" style="stroke: #038048; stroke-width: 1.0;"/><text fill="#000000" font-family="sans-serif" font-size="11" lengthAdjust="spacingAndGlyphs" textLength="167" x="57.75" y="227.7886">OwnAccountTransferIndicator</text><text fill="#000000" font-family="sans-serif" font-size="11" font-style="italic" lengthAdjust="spacingAndGlyphs" textLength="92" x="228.75" y="227.7886">(YesNoIndicator)</text><ellipse cx="48.75" cy="238.2852" fill="#84BE84" rx="3" ry="3" style="stroke: #038048; stroke-width: 1.0;"/><text fill="#000000" font-family="sans-serif" font-size="11" lengthAdjust="spacingAndGlyphs" textLength="95" x="57.75" y="240.5933">LateDeliveryDate</text><text fill="#000000" font-family="sans-serif" font-size="11" font-style="italic" lengthAdjust="spacingAndGlyphs" textLength="81" x="156.75" y="240.5933">(ISODateTime)</text><ellipse cx="48.75" cy="251.0898" fill="#84BE84" rx="3" ry="3" style="stroke: #038048; stroke-width: 1.0;"/><text fill="#000000" font-family="sans-serif" font-size="11" lengthAdjust="spacingAndGlyphs" textLength="91" x="57.75" y="253.3979">TransferReason</text><text fill="#000000" font-family="sans-serif" font-size="11" font-style="italic" lengthAdjust="spacingAndGlyphs" textLength="127" x="152.75" y="253.3979">(TransferReasonCode)</text><ellipse cx="48.75" cy="263.8945" fill="#84BE84" rx="3" ry="3" style="stroke: #038048; stroke-width: 1.0;"/><text fill="#000000" font-family="sans-serif" font-size="11" lengthAdjust="spacingAndGlyphs" textLength="125" x="57.75" y="266.2026">PartialSettlementType</text><text fill="#000000" font-family="sans-serif" font-size="11" font-style="italic" lengthAdjust="spacingAndGlyphs" textLength="134" x="186.75" y="266.2026">(PartialSettlementCode)</text><ellipse cx="48.75" cy="276.6992" fill="#84BE84" rx="3" ry="3" style="stroke: #038048; stroke-width: 1.0;"/><text fill="#000000" font-family="sans-serif" font-size="11" lengthAdjust="spacingAndGlyphs" textLength="139" x="57.75" y="279.0073">TransactionIdentification</text><text fill="#000000" font-family="sans-serif" font-size="11" font-style="italic" lengthAdjust="spacingAndGlyphs" textLength="70" x="200.75" y="279.0073">(Max35Text)</text></a><!--class IntraPositionTransfer--><a target="_top" xlink:actuate="onRequest" xlink:href="../IntraPositionTransfer.html" xlink:show="new" xlink:title="Transfer of securities from one sub-balance to another or from one balance status to another." xlink:type="simple"><rect fill="#FEFECE" filter="url(#f1k4635jz6g8c0)" height="44.7734" id="IntraPositionTransfer" style="stroke: #A80036; stroke-width: 1.5;" width="253" x="38.75" y="364.5"/><rect fill="#FEFECE" height="23.9688" style="stroke: #A80036; stroke-width: 1.5;" width="253" x="38.75" y="364.5"/><text fill="#000000" font-family="sans-serif" font-size="12" lengthAdjust="spacingAndGlyphs" textLength="131" x="99.75" y="380.6387">IntraPositionTransfer</text><line style="stroke: #A80036; stroke-width: 1.5;" x1="39.75" x2="290.75" y1="388.4688" y2="388.4688"/><ellipse cx="49.75" cy="400.3711" fill="#84BE84" rx="3" ry="3" style="stroke: #038048; stroke-width: 1.0;"/><text fill="#000000" font-family="sans-serif" font-size="11" lengthAdjust="spacingAndGlyphs" textLength="97" x="58.75" y="402.6792">CollateralAmount</text><text fill="#000000" font-family="sans-serif" font-size="11" font-style="italic" lengthAdjust="spacingAndGlyphs" textLength="126" x="159.75" y="402.6792">(CurrencyAndAmount)</text></a><!--class Obligation--><a target="_top" xlink:actuate="onRequest" xlink:href="../Obligation.html" xlink:show="new" xlink:title="Specifies the assets (quantity of securities, goods, services, and cash amounts) that have to be delivered." xlink:type="simple"><rect fill="#EEEEEE" filter="url(#f1k4635jz6g8c0)" height="23.9688" id="Obligation" style="stroke: #A80036; stroke-width: 1.5;" width="69" x="382.75" y="213"/><rect fill="#EEEEEE" height="23.9688" style="stroke: #A80036; stroke-width: 1.5;" width="69" x="382.75" y="213"/><text fill="#000000" font-family="sans-serif" font-size="12" lengthAdjust="spacingAndGlyphs" textLength="63" x="385.75" y="229.1387">Obligation</text></a><!--class SecuritiesQuantity--><a target="_top" xlink:actuate="onRequest" xlink:href="../SecuritiesQuantity.html" xlink:show="new" xlink:title="Quantity of a security." xlink:type="simple"><rect fill="#EEEEEE" filter="url(#f1k4635jz6g8c0)" height="23.9688" id="SecuritiesQuantity" style="stroke: #A80036; stroke-width: 1.5;" width="120" x="807.5" y="375"/><rect fill="#EEEEEE" height="23.9688" style="stroke: #A80036; stroke-width: 1.5;" width="120" x="807.5" y="375"/><text fill="#000000" font-family="sans-serif" font-size="12" lengthAdjust="spacingAndGlyphs" textLength="114" x="810.5" y="391.1387">SecuritiesQuantity</text></a><!--class SecuritiesAccount--><a target="_top" xlink:actuate="onRequest" xlink:href="../SecuritiesAccount.html" xlink:show="new" xlink:title="Account to or from which a securities entry is made." xlink:type="simple"><rect fill="#EEEEEE" filter="url(#f1k4635jz6g8c0)" height="23.9688" id="SecuritiesAccount" style="stroke: #A80036; stroke-width: 1.5;" width="119" x="1224.75" y="592"/><rect fill="#EEEEEE" height="23.9688" style="stroke: #A80036; stroke-width: 1.5;" width="119" x="1224.75" y="592"/><text fill="#000000" font-family="sans-serif" font-size="12" lengthAdjust="spacingAndGlyphs" textLength="113" x="1227.75" y="608.1387">SecuritiesAccount</text></a><!--class SecuritiesSettlement--><a target="_top" xlink:actuate="onRequest" xlink:href="../SecuritiesSettlement.html" xlink:show="new" xlink:title="Settlement of the securities in a securities transaction, that is, the instruction to deliver or receive securities, involving the payment of an amount of money or not." xlink:type="simple"><rect fill="#EEEEEE" filter="url(#f1k4635jz6g8c0)" height="23.9688" id="SecuritiesSettlement" style="stroke: #A80036; stroke-width: 1.5;" width="137" x="990.75" y="490"/><rect fill="#EEEEEE" height="23.9688" style="stroke: #A80036; stroke-width: 1.5;" width="137" x="990.75" y="490"/><text fill="#000000" font-family="sans-serif" font-size="12" lengthAdjust="spacingAndGlyphs" textLength="131" x="993.75" y="506.1387">SecuritiesSettlement</text></a><!--class PhysicalDelivery--><a target="_top" xlink:actuate="onRequest" xlink:href="../PhysicalDelivery.html" xlink:show="new" xlink:title="Parameters of a physical delivery." xlink:type="simple"><rect fill="#EEEEEE" filter="url(#f1k4635jz6g8c0)" height="23.9688" id="PhysicalDelivery" style="stroke: #A80036; stroke-width: 1.5;" width="104" x="1327" y="1078"/><rect fill="#EEEEEE" height="23.9688" style="stroke: #A80036; stroke-width: 1.5;" width="104" x="1327" y="1078"/><text fill="#000000" font-family="sans-serif" font-size="12" lengthAdjust="spacingAndGlyphs" textLength="98" x="1330" y="1094.1387">PhysicalDelivery</text></a><!--class Tax--><a target="_top" xlink:actuate="onRequest" xlink:href="../Tax.html" xlink:show="new" xlink:title="Amount of money due to the government or tax authority, according to various pre-defined parameters such as thresholds or income." xlink:type="simple"><rect fill="#EEEEEE" filter="url(#f1k4635jz6g8c0)" height="23.9688" id="Tax" style="stroke: #A80036; stroke-width: 1.5;" width="27" x="1365.75" y="990"/><rect fill="#EEEEEE" height="23.9688" style="stroke: #A80036; stroke-width: 1.5;" width="27" x="1365.75" y="990"/><text fill="#000000" font-family="sans-serif" font-size="12" lengthAdjust="spacingAndGlyphs" textLength="21" x="1368.75" y="1006.1387">Tax</text></a><!--class SecuritiesDeliveryObligation--><a target="_top" xlink:actuate="onRequest" xlink:href="../SecuritiesDeliveryObligation.html" xlink:show="new" xlink:title="Obligation for one party to deliver securities to another party." xlink:type="simple"><rect fill="#EEEEEE" filter="url(#f1k4635jz6g8c0)" height="23.9688" id="SecuritiesDeliveryObligation" style="stroke: #A80036; stroke-width: 1.5;" width="179" x="1270.75" y="902"/><rect fill="#EEEEEE" height="23.9688" style="stroke: #A80036; stroke-width: 1.5;" width="179" x="1270.75" y="902"/><text fill="#000000" font-family="sans-serif" font-size="12" lengthAdjust="spacingAndGlyphs" textLength="173" x="1273.75" y="918.1387">SecuritiesDeliveryObligation</text></a><!--class SecuritiesEntry--><a target="_top" xlink:actuate="onRequest" xlink:href="../SecuritiesEntry.html" xlink:show="new" xlink:title="Posting to a securities account as a result of a securities creation, deletion or transfer in the context of a securities transaction." xlink:type="simple"><rect fill="#EEEEEE" filter="url(#f1k4635jz6g8c0)" height="23.9688" id="SecuritiesEntry" style="stroke: #A80036; stroke-width: 1.5;" width="100" x="1226" y="796"/><rect fill="#EEEEEE" height="23.9688" style="stroke: #A80036; stroke-width: 1.5;" width="100" x="1226" y="796"/><text fill="#000000" font-family="sans-serif" font-size="12" lengthAdjust="spacingAndGlyphs" textLength="94" x="1229" y="812.1387">SecuritiesEntry</text></a><!--class Security--><a target="_top" xlink:actuate="onRequest" xlink:href="../Security.html" xlink:show="new" xlink:title="Financial instruments representing a sum of rights of the investor vis-a-vis the issuer." xlink:type="simple"><rect fill="#EEEEEE" filter="url(#f1k4635jz6g8c0)" height="23.9688" id="Security" style="stroke: #A80036; stroke-width: 1.5;" width="56" x="969.5" y="694"/><rect fill="#EEEEEE" height="23.9688" style="stroke: #A80036; stroke-width: 1.5;" width="56" x="969.5" y="694"/><text fill="#000000" font-family="sans-serif" font-size="12" lengthAdjust="spacingAndGlyphs" textLength="50" x="972.5" y="710.1387">Security</text></a><!--class SecuritiesTradeStatus--><a target="_top" xlink:actuate="onRequest" xlink:href="../SecuritiesTradeStatus.html" xlink:show="new" xlink:title="Status of a securities trade." xlink:type="simple"><rect fill="#EEEEEE" filter="url(#f1k4635jz6g8c0)" height="23.9688" id="SecuritiesTradeStatus" style="stroke: #A80036; stroke-width: 1.5;" width="145" x="918.75" y="592"/><rect fill="#EEEEEE" height="23.9688" style="stroke: #A80036; stroke-width: 1.5;" width="145" x="918.75" y="592"/><text fill="#000000" font-family="sans-serif" font-size="12" lengthAdjust="spacingAndGlyphs" textLength="139" x="921.75" y="608.1387">SecuritiesTradeStatus</text></a><!--class Reservation--><a target="_top" xlink:actuate="onRequest" xlink:href="../Reservation.html" xlink:show="new" xlink:title="Liquidity set aside by the payer for specific purposes." xlink:type="simple"><rect fill="#EEEEEE" filter="url(#f1k4635jz6g8c0)" height="23.9688" id="Reservation" style="stroke: #A80036; stroke-width: 1.5;" width="80" x="463" y="990"/><rect fill="#EEEEEE" height="23.9688" style="stroke: #A80036; stroke-width: 1.5;" width="80" x="463" y="990"/><text fill="#000000" font-family="sans-serif" font-size="12" lengthAdjust="spacingAndGlyphs" textLength="74" x="466" y="1006.1387">Reservation</text></a><!--class SecuritiesBalance--><a target="_top" xlink:actuate="onRequest" xlink:href="../SecuritiesBalance.html" xlink:show="new" xlink:title="Net position of a segregated holding, in a single security, within the overall position held in a securities account. A securities balance is calculated from the sum of securities' receipts minus the sum of securities' deliveries." xlink:type="simple"><rect fill="#EEEEEE" filter="url(#f1k4635jz6g8c0)" height="23.9688" id="SecuritiesBalance" style="stroke: #A80036; stroke-width: 1.5;" width="118" x="458" y="902"/><rect fill="#EEEEEE" height="23.9688" style="stroke: #A80036; stroke-width: 1.5;" width="118" x="458" y="902"/><text fill="#000000" font-family="sans-serif" font-size="12" lengthAdjust="spacingAndGlyphs" textLength="112" x="461" y="918.1387">SecuritiesBalance</text></a><!--link ObligationFulfilment to SecuritiesTransfer--><path d="M229.567,102.18 C226.468,106.71 223.537,111.37 221,116 C212.812,130.95 205.743,147.959 199.959,163.987 " fill="none" id="ObligationFulfilment-SecuritiesTransfer" style="stroke: #A80036; stroke-width: 1.0;"/><polygon fill="none" points="224.285,97.56,241.868,85.73,235.496,105.94,224.285,97.56" style="stroke: #A80036; stroke-width: 1.0;"/><!--link SecuritiesTransfer to IntraPositionTransfer--><path d="M173.493,306.064 C171.204,327.611 168.915,349.151 167.291,364.433 " fill="none" id="SecuritiesTransfer-IntraPositionTransfer" style="stroke: #A80036; stroke-width: 1.0;"/><polygon fill="none" points="166.547,305.182,175.621,286.033,180.469,306.661,166.547,305.182" style="stroke: #A80036; stroke-width: 1.0;"/><!--link SecuritiesAccount to SecuritiesQuantity--><!--link SecuritiesSettlement to SecuritiesAccount--><!--link PhysicalDelivery to SecuritiesSettlement--><!--link Tax to PhysicalDelivery--><!--link SecuritiesDeliveryObligation to Tax--><!--link SecuritiesEntry to SecuritiesDeliveryObligation--><!--link Security to SecuritiesEntry--><!--link SecuritiesTradeStatus to Security--><!--link SecuritiesBalance to Reservation--><!--link ObligationFulfilment to Obligation--><path d="M256.933,85.62 C255.359,100.6 255.909,120.25 266,134 C287.484,163.277 310.583,145.788 342,164 C364.153,176.842 386.716,195.867 401.225,209.036 " fill="none" id="ObligationFulfilment-Obligation" style="stroke: #A80036; stroke-width: 1.0;"/><polygon fill="#A80036" points="405.097,212.585,401.1638,203.5556,401.4106,209.2071,395.7591,209.4539,405.097,212.585" style="stroke: #A80036; stroke-width: 1.0;"/><text fill="#000000" font-family="sans-serif" font-size="13" lengthAdjust="spacingAndGlyphs" textLength="102" x="267" y="129.0669">ObligationOffset</text><text fill="#000000" font-family="sans-serif" font-size="13" lengthAdjust="spacingAndGlyphs" textLength="7" x="391.7889" y="202.0114">*</text><!--link ObligationFulfilment to Obligation--><path d="M325.383,83.15 C343.275,91 361.482,101.69 375,116 C399.682,142.132 410.37,184.397 414.575,207.545 " fill="none" id="ObligationFulfilment-Obligation" style="stroke: #A80036; stroke-width: 1.0;"/><polygon fill="#A80036" points="415.465,212.726,417.8821,203.1784,414.6178,207.7983,409.9978,204.5339,415.465,212.726" style="stroke: #A80036; stroke-width: 1.0;"/><text fill="#000000" font-family="sans-serif" font-size="13" lengthAdjust="spacingAndGlyphs" textLength="122" x="390" y="129.0669">ResultingObligation</text><text fill="#000000" font-family="sans-serif" font-size="13" lengthAdjust="spacingAndGlyphs" textLength="7" x="405.3831" y="201.9387">*</text><!--link SecuritiesTransfer to SecuritiesQuantity--><path d="M326.411,274.867 C339.736,278.837 353.08,282.617 366,286 C520.889,326.56 706.456,359.642 802.418,375.624 " fill="none" id="SecuritiesTransfer-SecuritiesQuantity" style="stroke: #A80036; stroke-width: 1.0;"/><polygon fill="#A80036" points="807.482,376.466,799.2598,371.0443,802.5497,375.6461,797.9479,378.936,807.482,376.466" style="stroke: #A80036; stroke-width: 1.0;"/><text fill="#000000" font-family="sans-serif" font-size="13" lengthAdjust="spacingAndGlyphs" textLength="127" x="573" y="329.0669">TransferredQuantity</text><text fill="#000000" font-family="sans-serif" font-size="13" lengthAdjust="spacingAndGlyphs" textLength="8" x="791.3707" y="370.46">1</text><!--link SecuritiesTransfer to SecuritiesAccount--><path d="M326.443,277.145 C339.7,280.608 353.023,283.649 366,286 C576.833,324.199 1128.97,271.658 1328,351 C1396.47,378.295 1484.01,393.131 1453,460 C1423.79,522.989 1351.64,568.29 1311.71,589.5 " fill="none" id="SecuritiesTransfer-SecuritiesAccount" style="stroke: #A80036; stroke-width: 1.0;"/><polygon fill="#A80036" points="1307,591.966,1316.8291,591.3427,1311.4314,589.6502,1313.1239,584.2525,1307,591.966" style="stroke: #A80036; stroke-width: 1.0;"/><text fill="#000000" font-family="sans-serif" font-size="13" lengthAdjust="spacingAndGlyphs" textLength="52" x="1460" y="455.0669">Account</text><text fill="#000000" font-family="sans-serif" font-size="13" lengthAdjust="spacingAndGlyphs" textLength="7" x="1305.2734" y="581.0025">*</text><!--link SecuritiesTransfer to SecuritiesSettlement--><path d="M311.992,286.003 C430.444,339.912 597.094,413.635 666,434 C774.79,466.153 905.37,484.599 985.245,493.709 " fill="none" id="SecuritiesTransfer-SecuritiesSettlement" style="stroke: #A80036; stroke-width: 1.0;"/><polygon fill="#A80036" points="990.432,494.296,981.938,489.3108,985.4636,493.7346,981.0398,497.2602,990.432,494.296" style="stroke: #A80036; stroke-width: 1.0;"/><text fill="#000000" font-family="sans-serif" font-size="13" lengthAdjust="spacingAndGlyphs" textLength="120" x="667" y="391.0669">RelatedSettlement</text><text fill="#000000" font-family="sans-serif" font-size="13" lengthAdjust="spacingAndGlyphs" textLength="24" x="958.6564" y="489.0278">0..1</text><!--link SecuritiesTransfer to PhysicalDelivery--><path d="M326.389,277.45 C339.658,280.849 352.998,283.791 366,286 C673.224,338.201 1458.25,281.806 1768,316 C1882.69,328.661 2018,270.616 2018,386 C2018,386 2018,386 2018,1003 C2018,1061.4475 1592.68,1081.7687 1436.03,1087.271 " fill="none" id="SecuritiesTransfer-PhysicalDelivery" style="stroke: #A80036; stroke-width: 1.0;"/><polygon fill="#A80036" points="1431.02,1087.4451,1440.1519,1091.1342,1436.0171,1087.2737,1439.8776,1083.1389,1431.02,1087.4451" style="stroke: #A80036; stroke-width: 1.0;"/><text fill="#000000" font-family="sans-serif" font-size="13" lengthAdjust="spacingAndGlyphs" textLength="102" x="2019" y="710.0669">PhysicalDelivery</text><text fill="#000000" font-family="sans-serif" font-size="13" lengthAdjust="spacingAndGlyphs" textLength="8" x="1438.8978" y="1081.9689">1</text><!--link SecuritiesTransfer to Tax--><path d="M326.397,277.404 C339.665,280.812 353.002,283.769 366,286 C631.752,331.61 1311.12,285.28 1579,316 C1731.84,333.528 1918,232.155 1918,386 C1918,386 1918,386 1918,915 C1918,968.887 1492.45,994.91 1397.59,1000.041 " fill="none" id="SecuritiesTransfer-Tax" style="stroke: #A80036; stroke-width: 1.0;"/><polygon fill="#A80036" points="1392.32,1000.323,1401.5239,1003.8286,1397.3126,1000.0516,1401.0896,995.8403,1392.32,1000.323" style="stroke: #A80036; stroke-width: 1.0;"/><text fill="#000000" font-family="sans-serif" font-size="13" lengthAdjust="spacingAndGlyphs" textLength="74" x="1919" y="659.0669">TransferTax</text><text fill="#000000" font-family="sans-serif" font-size="13" lengthAdjust="spacingAndGlyphs" textLength="8" x="1400.6416" y="991.4686">1</text><!--link SecuritiesTransfer to SecuritiesDeliveryObligation--><path d="M326.405,277.359 C339.671,280.777 353.006,283.749 366,286 C503.582,309.837 1520.69,253.863 1621,351 C1719.81,446.687 1684,516.453 1684,654 C1684,654 1684,654 1684,809 C1684,857.607 1550.13,886.697 1454.49,901.277 " fill="none" id="SecuritiesTransfer-SecuritiesDeliveryObligation" style="stroke: #A80036; stroke-width: 1.0;"/><polygon fill="#A80036" points="1449.39,902.045,1458.8844,904.6634,1454.3345,901.3021,1457.6958,896.7522,1449.39,902.045" style="stroke: #A80036; stroke-width: 1.0;"/><text fill="#000000" font-family="sans-serif" font-size="13" lengthAdjust="spacingAndGlyphs" textLength="178" x="1688" y="608.0669">SecuritiesDeliveryObligation</text><text fill="#000000" font-family="sans-serif" font-size="13" lengthAdjust="spacingAndGlyphs" textLength="7" x="1457.6408" y="896.2974">*</text><!--link SecuritiesTransfer to SecuritiesEntry--><path d="M326.42,277.272 C339.683,280.708 353.013,283.708 366,286 C750.508,353.859 856.139,271.108 1244,316 C1402.45,334.339 1596,226.492 1596,386 C1596,386 1596,386 1593,554 C1593,578.845 1587.91,644.124 1573,664 C1513.77,742.977 1399.5,780.449 1331.27,796.491 " fill="none" id="SecuritiesTransfer-SecuritiesEntry" style="stroke: #A80036; stroke-width: 1.0;"/><polygon fill="#A80036" points="1326.03,797.702,1335.7006,799.5675,1330.901,796.5735,1333.895,791.774,1326.03,797.702" style="stroke: #A80036; stroke-width: 1.0;"/><text fill="#000000" font-family="sans-serif" font-size="13" lengthAdjust="spacingAndGlyphs" textLength="65" x="1597" y="557.0669">BookEntry</text><text fill="#000000" font-family="sans-serif" font-size="13" lengthAdjust="spacingAndGlyphs" textLength="7" x="1333.8922" y="791.02">*</text><!--link SecuritiesTransfer to Security--><path d="M260.44,286.219 C279.269,304.83 297.074,326.858 308,351 C365.465,477.969 228.477,565.428 327,664 C349.752,686.763 832.271,700.774 964.018,704.184 " fill="none" id="SecuritiesTransfer-Security" style="stroke: #A80036; stroke-width: 1.0;"/><polygon fill="#A80036" points="969.292,704.32,960.3978,700.0899,964.2937,704.1914,960.1921,708.0873,969.292,704.32" style="stroke: #A80036; stroke-width: 1.0;"/><text fill="#000000" font-family="sans-serif" font-size="13" lengthAdjust="spacingAndGlyphs" textLength="52" x="312" y="506.0669">Security</text><text fill="#000000" font-family="sans-serif" font-size="13" lengthAdjust="spacingAndGlyphs" textLength="7" x="954.546" y="698.3042">*</text><!--link SecuritiesTransfer to SecuritiesTradeStatus--><path d="M326.307,276.467 C339.624,280.088 352.996,283.349 366,286 C592.403,332.154 1247.66,263.187 1394,442 C1441.24,499.724 1174.31,564.47 1050.95,590.843 " fill="none" id="SecuritiesTransfer-SecuritiesTradeStatus" style="stroke: #A80036; stroke-width: 1.0;"/><polygon fill="#A80036" points="1045.9,591.917,1055.5362,593.9524,1050.7901,590.8744,1053.8681,586.1283,1045.9,591.917" style="stroke: #A80036; stroke-width: 1.0;"/><text fill="#000000" font-family="sans-serif" font-size="13" lengthAdjust="spacingAndGlyphs" textLength="42" x="1401" y="455.0669">Status</text><text fill="#000000" font-family="sans-serif" font-size="13" lengthAdjust="spacingAndGlyphs" textLength="8" x="1053.9672" y="580.9367">1</text><!--link IntraPositionTransfer to Reservation--><path d="M110.961,409.509 C74.8755,427.824 34,458.05 34,501 C34,501 34,501 34,915 C34,957.773 339.689,987.535 457.48,997.416 " fill="none" id="IntraPositionTransfer-Reservation" style="stroke: #A80036; stroke-width: 1.0;"/><polygon fill="#A80036" points="462.607,997.844,453.9707,993.1096,457.6243,997.4283,453.3056,1001.0819,462.607,997.844" style="stroke: #A80036; stroke-width: 1.0;"/><text fill="#000000" font-family="sans-serif" font-size="13" lengthAdjust="spacingAndGlyphs" textLength="75" x="35" y="710.0669">Reservation</text><text fill="#000000" font-family="sans-serif" font-size="13" lengthAdjust="spacingAndGlyphs" textLength="7" x="448.0133" y="992.0641">*</text><!--link IntraPositionTransfer to SecuritiesBalance--><path d="M165,409.663 C165,432.41 165,469.219 165,501 C165,501 165,501 165,809 C165,868.296 351.035,896.342 452.615,907.237 " fill="none" id="IntraPositionTransfer-SecuritiesBalance" style="stroke: #A80036; stroke-width: 1.0;"/><polygon fill="#A80036" points="457.686,907.774,449.1579,902.8473,452.7139,907.2468,448.3144,910.8027,457.686,907.774" style="stroke: #A80036; stroke-width: 1.0;"/><text fill="#000000" font-family="sans-serif" font-size="13" lengthAdjust="spacingAndGlyphs" textLength="114" x="166" y="659.0669">SecuritiesBalance</text><text fill="#000000" font-family="sans-serif" font-size="13" lengthAdjust="spacingAndGlyphs" textLength="8" x="442.0536" y="902.3307">1</text><!--link Obligation to Obligation--><path d="M433.284,212.86 C456.79,201.031 486,205.078 486,225 C486,243.599 460.54,248.361 438.032,239.286 " fill="none" id="Obligation-Obligation" style="stroke: #A80036; stroke-width: 1.0;"/><polygon fill="#A80036" points="433.284,237.14,439.8365,244.4928,437.8399,239.2001,443.1327,237.2034,433.284,237.14" style="stroke: #A80036; stroke-width: 1.0;"/><text fill="#000000" font-family="sans-serif" font-size="13" lengthAdjust="spacingAndGlyphs" textLength="106" x="492" y="229.0669">ParentObligation</text><text fill="#000000" font-family="sans-serif" font-size="13" lengthAdjust="spacingAndGlyphs" textLength="8" x="428.6286" y="256.9724">1</text><!--link SecuritiesQuantity to Security--><path d="M862.987,399.143 C853.542,426.966 831.739,501.588 846,562 C852.165,588.115 853.904,597.15 873,616 C894.786,637.505 912.752,624.973 935,646 C941.651,652.286 939.069,657.031 945,664 C953.736,674.265 965.378,683.728 975.431,690.97 " fill="none" id="SecuritiesQuantity-Security" style="stroke: #A80036; stroke-width: 1.0;"/><polygon fill="#A80036" points="979.63,693.934,974.5824,685.4769,975.5446,691.0514,969.9702,692.0136,979.63,693.934" style="stroke: #A80036; stroke-width: 1.0;"/><text fill="#000000" font-family="sans-serif" font-size="13" lengthAdjust="spacingAndGlyphs" textLength="133" x="847" y="557.0669">SecurityIdentification</text><text fill="#000000" font-family="sans-serif" font-size="13" lengthAdjust="spacingAndGlyphs" textLength="8" x="962.7684" y="682.9595">1</text><!--link SecuritiesQuantity to Security--><path d="M866.251,399.076 C865.761,413.972 866.736,440.806 878,460 C908.777,512.446 959.283,489.374 986,544 C1011.93,597.013 909.962,579.334 901,592 C894.839,600.708 896.173,606.488 901,616 C911.217,636.136 925.116,631.009 942,646 C957.617,659.866 973.705,677.601 984.414,689.99 " fill="none" id="SecuritiesQuantity-Security" style="stroke: #A80036; stroke-width: 1.0;"/><polygon fill="#A80036" points="987.832,693.973,985.0069,684.538,984.576,690.1784,978.9356,689.7475,987.832,693.973" style="stroke: #A80036; stroke-width: 1.0;"/><text fill="#000000" font-family="sans-serif" font-size="13" lengthAdjust="spacingAndGlyphs" textLength="144" x="992" y="557.0669">MinimumQuantityDebt</text><text fill="#000000" font-family="sans-serif" font-size="13" lengthAdjust="spacingAndGlyphs" textLength="8" x="985.8836" y="683.0119">1</text><!--link SecuritiesQuantity to SecuritiesSettlement--><path d="M869.144,399.073 C872.813,414.98 881.837,444.128 901,460 C924.623,479.566 956.515,489.917 985.46,495.346 " fill="none" id="SecuritiesQuantity-SecuritiesSettlement" style="stroke: #A80036; stroke-width: 1.0;"/><polygon fill="#A80036" points="990.452,496.24,982.2981,490.716,985.5303,495.3585,980.8878,498.5907,990.452,496.24" style="stroke: #A80036; stroke-width: 1.0;"/><text fill="#000000" font-family="sans-serif" font-size="13" lengthAdjust="spacingAndGlyphs" textLength="135" x="902" y="455.0669">SecuritiesSettlement</text><text fill="#000000" font-family="sans-serif" font-size="13" lengthAdjust="spacingAndGlyphs" textLength="24" x="958.6781" y="508.4578">0..1</text><!--link SecuritiesQuantity to SecuritiesSettlement--><path d="M926.836,391.881 C964.991,397.475 1012.77,410.763 1043,442 C1053.98,453.345 1057.6,471.426 1058.71,484.584 " fill="none" id="SecuritiesQuantity-SecuritiesSettlement" style="stroke: #A80036; stroke-width: 1.0;"/><polygon fill="#A80036" points="1059.04,489.888,1062.4632,480.6532,1058.724,484.898,1054.4792,481.1588,1059.04,489.888" style="stroke: #A80036; stroke-width: 1.0;"/><text fill="#000000" font-family="sans-serif" font-size="13" lengthAdjust="spacingAndGlyphs" textLength="193" x="1055" y="455.0669">RelatedTurnaroundSettlement</text><text fill="#000000" font-family="sans-serif" font-size="13" lengthAdjust="spacingAndGlyphs" textLength="8" x="1048.2491" y="478.8977">1</text><!--link SecuritiesQuantity to SecuritiesBalance--><path d="M854.078,399.204 C840.746,410.074 818.869,426.057 797,434 C767.983,444.54 757.886,434.261 728,442 C661.442,459.234 585,432.247 585,501 C585,501 585,501 585,809 C585,845.808 554.793,879.75 534.644,898.296 " fill="none" id="SecuritiesQuantity-SecuritiesBalance" style="stroke: #A80036; stroke-width: 1.0;"/><polygon fill="#A80036" points="530.761,901.796,540.1233,898.7387,534.474,898.4473,534.7654,892.798,530.761,901.796" style="stroke: #A80036; stroke-width: 1.0;"/><text fill="#000000" font-family="sans-serif" font-size="13" lengthAdjust="spacingAndGlyphs" textLength="172" x="586" y="659.0669">AggregateQuantityBalance</text><text fill="#000000" font-family="sans-serif" font-size="13" lengthAdjust="spacingAndGlyphs" textLength="24" x="506.0131" y="891.0319">0..1</text><!--link SecuritiesQuantity to SecuritiesBalance--><path d="M861.147,399.042 C855.489,409.868 846.797,426.898 840,442 C819.947,486.554 815.498,498.011 799,544 C780.11,596.658 787.568,614.768 761,664 C705.487,766.868 683.987,792.205 595,868 C580.223,880.586 561.433,891.548 545.998,899.502 " fill="none" id="SecuritiesQuantity-SecuritiesBalance" style="stroke: #A80036; stroke-width: 1.0;"/><polygon fill="#A80036" points="541.324,901.872,551.16,901.3682,545.7832,899.6103,547.5412,894.2335,541.324,901.872" style="stroke: #A80036; stroke-width: 1.0;"/><text fill="#000000" font-family="sans-serif" font-size="13" lengthAdjust="spacingAndGlyphs" textLength="124" x="771" y="659.0669">RelatedSubBalance</text><text fill="#000000" font-family="sans-serif" font-size="13" lengthAdjust="spacingAndGlyphs" textLength="24" x="553.8104" y="890.8762">0..1</text><!--link SecuritiesQuantity to SecuritiesBalance--><path d="M926.656,396.827 C994.651,406.707 1109.17,422.795 1208,434 C1227.29,436.187 1277.51,433.569 1295,442 C1377.63,481.832 1426.84,526.669 1406,616 C1389.11,688.395 1390.04,719.55 1332,766 C1287.73,801.429 1263.03,782.32 1208,796 C1082.47,827.209 1053.81,848.083 926,868 C866.611,877.254 850.824,870.196 791,876 C718.883,882.996 636.552,894.605 581.123,902.956 " fill="none" id="SecuritiesQuantity-SecuritiesBalance" style="stroke: #A80036; stroke-width: 1.0;"/><polygon fill="#A80036" points="576.179,903.702,585.6756,906.3124,581.1229,902.9549,584.4803,898.4022,576.179,903.702" style="stroke: #A80036; stroke-width: 1.0;"/><text fill="#000000" font-family="sans-serif" font-size="13" lengthAdjust="spacingAndGlyphs" textLength="162" x="1401" y="659.0669">AvailableQuantityBalance</text><text fill="#000000" font-family="sans-serif" font-size="13" lengthAdjust="spacingAndGlyphs" textLength="24" x="583.9642" y="897.7218">0..1</text><!--link SecuritiesQuantity to SecuritiesBalance--><path d="M854.69,399.138 C841.503,410.289 819.429,426.796 797,434 C754.862,447.534 639.192,425.814 598,442 C468.333,492.951 418.215,519.428 360,646 C313.339,747.452 445.687,860.002 497.33,898.888 " fill="none" id="SecuritiesQuantity-SecuritiesBalance" style="stroke: #A80036; stroke-width: 1.0;"/><polygon fill="#A80036" points="501.489,901.991,496.6679,893.4028,497.4816,899.0008,491.8836,899.8146,501.489,901.991" style="stroke: #A80036; stroke-width: 1.0;"/><text fill="#000000" font-family="sans-serif" font-size="13" lengthAdjust="spacingAndGlyphs" textLength="179" x="361" y="659.0669">UnavailableQuantityBalance</text><text fill="#000000" font-family="sans-serif" font-size="13" lengthAdjust="spacingAndGlyphs" textLength="24" x="466.6883" y="891.0361">0..1</text><!--link SecuritiesQuantity to SecuritiesEntry--><path d="M926.719,396.304 C994.771,405.708 1109.34,421.367 1208,434 C1222.65,435.876 1261.69,433.837 1274,442 C1338.05,484.461 1340.22,517.742 1360,592 C1362.75,602.307 1362.19,605.561 1360,616 C1345.44,685.267 1304.17,760.064 1285.45,791.599 " fill="none" id="SecuritiesQuantity-SecuritiesEntry" style="stroke: #A80036; stroke-width: 1.0;"/><polygon fill="#A80036" points="1282.85,795.932,1290.9063,790.2666,1285.4193,791.6426,1284.0433,786.1557,1282.85,795.932" style="stroke: #A80036; stroke-width: 1.0;"/><text fill="#000000" font-family="sans-serif" font-size="13" lengthAdjust="spacingAndGlyphs" textLength="33" x="1363" y="608.0669">Entry</text><text fill="#000000" font-family="sans-serif" font-size="13" lengthAdjust="spacingAndGlyphs" textLength="24" x="1255.7359" y="784.9568">0..1</text><!--link SecuritiesAccount to Security--><path d="M1231.5,616.059 C1201.08,623.161 1162.33,633.411 1129,646 C1112.27,652.32 1109.23,656.484 1093,664 C1071.77,673.828 1047.55,684.167 1028.75,692.004 " fill="none" id="SecuritiesAccount-Security" style="stroke: #A80036; stroke-width: 1.0;"/><polygon fill="#A80036" points="1024.09,693.941,1033.9364,694.1631,1028.7037,692.0139,1030.8529,686.7812,1024.09,693.941" style="stroke: #A80036; stroke-width: 1.0;"/><text fill="#000000" font-family="sans-serif" font-size="13" lengthAdjust="spacingAndGlyphs" textLength="52" x="1130" y="659.0669">Security</text><text fill="#000000" font-family="sans-serif" font-size="13" lengthAdjust="spacingAndGlyphs" textLength="7" x="1023.6834" y="682.9689">*</text><!--link SecuritiesAccount to SecuritiesBalance--><path d="M1287.73,616.215 C1294.26,638.081 1305.05,686.98 1283,718 C1275.55,728.484 1077.1,791.626 1065,796 C977.336,827.702 958.829,847.024 868,868 C834.476,875.742 825.164,871.92 791,876 C719.201,884.576 637.025,895.87 581.546,903.715 " fill="none" id="SecuritiesAccount-SecuritiesBalance" style="stroke: #A80036; stroke-width: 1.0;"/><polygon fill="#A80036" points="576.262,904.463,585.7341,907.1611,581.2126,903.7617,584.612,899.2402,576.262,904.463" style="stroke: #A80036; stroke-width: 1.0;"/><text fill="#000000" font-family="sans-serif" font-size="13" lengthAdjust="spacingAndGlyphs" textLength="114" x="1208" y="761.0669">SecuritiesBalance</text><text fill="#000000" font-family="sans-serif" font-size="13" lengthAdjust="spacingAndGlyphs" textLength="7" x="583.9111" y="916.2916">*</text><!--link SecuritiesAccount to SecuritiesEntry--><path d="M1260.66,616.233 C1234.48,630.291 1193.41,657.084 1176,694 C1156.21,735.949 1211.63,773.923 1247.69,793.356 " fill="none" id="SecuritiesAccount-SecuritiesEntry" style="stroke: #A80036; stroke-width: 1.0;"/><polygon fill="#A80036" points="1252.42,795.86,1246.3424,788.11,1248.0026,793.5177,1242.5948,795.1779,1252.42,795.86" style="stroke: #A80036; stroke-width: 1.0;"/><text fill="#000000" font-family="sans-serif" font-size="13" lengthAdjust="spacingAndGlyphs" textLength="96" x="1177" y="710.0669">SecuritiesEntry</text><text fill="#000000" font-family="sans-serif" font-size="13" lengthAdjust="spacingAndGlyphs" textLength="7" x="1234.7675" y="784.8601">*</text><!--link SecuritiesSettlement to Security--><path d="M1127.41,513.778 C1158.07,522.191 1184.97,536.847 1173,562 C1156.36,596.97 1061.34,662.65 1018.25,691.182 " fill="none" id="SecuritiesSettlement-Security" style="stroke: #A80036; stroke-width: 1.0;"/><polygon fill="#A80036" points="1014,693.988,1023.714,692.3639,1018.1716,691.2317,1019.3039,685.6893,1014,693.988" style="stroke: #A80036; stroke-width: 1.0;"/><text fill="#000000" font-family="sans-serif" font-size="13" lengthAdjust="spacingAndGlyphs" textLength="52" x="1150" y="608.0669">Security</text><text fill="#000000" font-family="sans-serif" font-size="13" lengthAdjust="spacingAndGlyphs" textLength="23" x="991.3723" y="683.0321">1..*</text><!--link SecuritiesEntry to SecuritiesBalance--><path d="M1246.46,820.112 C1207.26,834.263 1135.56,858.068 1072,868 C1010.28,877.644 853.263,870.924 791,876 C718.784,881.887 636.471,893.695 581.073,902.395 " fill="none" id="SecuritiesEntry-SecuritiesBalance" style="stroke: #A80036; stroke-width: 1.0;"/><polygon fill="#A80036" points="576.132,903.174,585.6451,905.7236,581.071,902.3954,584.3993,897.8212,576.132,903.174" style="stroke: #A80036; stroke-width: 1.0;"/><text fill="#000000" font-family="sans-serif" font-size="13" lengthAdjust="spacingAndGlyphs" textLength="114" x="1153" y="863.0669">SecuritiesBalance</text><text fill="#000000" font-family="sans-serif" font-size="13" lengthAdjust="spacingAndGlyphs" textLength="24" x="583.9121" y="914.8861">0..1</text><!--link Security to SecuritiesBalance--><path d="M988.957,718.403 C966.899,748.682 902.004,831.291 826,868 C815.081,873.274 668.463,893.16 581.178,904.655 " fill="none" id="Security-SecuritiesBalance" style="stroke: #A80036; stroke-width: 1.0;"/><polygon fill="#A80036" points="576.034,905.332,585.4792,908.1226,580.9912,904.6791,584.4347,900.1911,576.034,905.332" style="stroke: #A80036; stroke-width: 1.0;"/><text fill="#000000" font-family="sans-serif" font-size="13" lengthAdjust="spacingAndGlyphs" textLength="51" x="924" y="812.0669">Balance</text><text fill="#000000" font-family="sans-serif" font-size="13" lengthAdjust="spacingAndGlyphs" textLength="8" x="584.2573" y="895.9527">1</text><!--link SecuritiesBalance to SecuritiesBalance--><path d="M576.208,905.751 C595.577,905.793 611,908.543 611,914 C611,918.945 598.333,921.667 581.542,922.166 " fill="none" id="SecuritiesBalance-SecuritiesBalance" style="stroke: #A80036; stroke-width: 1.0;"/><polygon fill="#A80036" points="576.208,922.249,585.2697,926.1071,581.2074,922.1704,585.144,918.1081,576.208,922.249" style="stroke: #A80036; stroke-width: 1.0;"/><text fill="#000000" font-family="sans-serif" font-size="13" lengthAdjust="spacingAndGlyphs" textLength="144" x="617" y="918.0669">MainSecuritiesBalance</text><text fill="#000000" font-family="sans-serif" font-size="13" lengthAdjust="spacingAndGlyphs" textLength="24" x="583.9964" y="936.0474">0..1</text></g></svg>