<?xml version="1.0" encoding="UTF-8" standalone="no"?><svg xmlns="http://www.w3.org/2000/svg" xmlns:xlink="http://www.w3.org/1999/xlink" contentScriptType="application/ecmascript" contentStyleType="text/css" height="484px" preserveAspectRatio="none" style="width:958px;height:484px;" version="1.1" viewBox="0 0 958 484" width="958px" zoomAndPan="magnify"><defs><filter height="300%" id="f4bxdylngbzmh" width="300%" x="-1" y="-1"><feGaussianBlur result="blurOut" stdDeviation="2.0"/><feColorMatrix in="blurOut" result="blurOut2" type="matrix" values="0 0 0 0 0 0 0 0 0 0 0 0 0 0 0 0 0 0 .4 0"/><feOffset dx="4.0" dy="4.0" in="blurOut2" result="blurOut3"/><feBlend in="SourceGraphic" in2="blurOut3" mode="normal"/></filter></defs><g><!--cluster ##10733--><!--cluster ##10742--><!--cluster ##10751--><!--class Role--><a target="_top" xlink:actuate="onRequest" xlink:href="../Role.html" xlink:show="new" xlink:title="Role of a party in an activity." xlink:type="simple"><rect fill="#FEFEEE" filter="url(#f4bxdylngbzmh)" height="44.7734" id="Role" style="stroke: #A80036; stroke-width: 1.5;" width="175" x="404.75" y="40.5"/><rect fill="#FEFEEE" height="23.9688" style="stroke: #A80036; stroke-width: 1.5;" width="175" x="404.75" y="40.5"/><text fill="#000000" font-family="sans-serif" font-size="12" lengthAdjust="spacingAndGlyphs" textLength="27" x="478.75" y="56.6387">Role</text><line style="stroke: #A80036; stroke-width: 1.5;" x1="405.75" x2="578.75" y1="64.4688" y2="64.4688"/><ellipse cx="415.75" cy="76.3711" fill="#84BE84" rx="3" ry="3" style="stroke: #038048; stroke-width: 1.0;"/><text fill="#000000" font-family="sans-serif" font-size="11" lengthAdjust="spacingAndGlyphs" textLength="53" x="424.75" y="78.6792">PartyRole</text><text fill="#000000" font-family="sans-serif" font-size="11" font-style="italic" lengthAdjust="spacingAndGlyphs" textLength="92" x="481.75" y="78.6792">(PartyRoleCode)</text></a><!--class InvestigationPartyRole--><a target="_top" xlink:actuate="onRequest" xlink:href="../InvestigationPartyRole.html" xlink:show="new" xlink:title="Role played by a party in the context of an investigation process." xlink:type="simple"><rect fill="#FEFECE" filter="url(#f4bxdylngbzmh)" height="23.9688" id="InvestigationPartyRole" style="stroke: #A80036; stroke-width: 1.5;" width="145" x="404.75" y="166"/><rect fill="#FEFECE" height="23.9688" style="stroke: #A80036; stroke-width: 1.5;" width="145" x="404.75" y="166"/><text fill="#000000" font-family="sans-serif" font-size="12" lengthAdjust="spacingAndGlyphs" textLength="139" x="407.75" y="182.1387">InvestigationPartyRole</text></a><!--class StatusOriginator--><a target="_top" xlink:actuate="onRequest" xlink:href="../StatusOriginator.html" xlink:show="new" xlink:title="Provides the identification of the originator issuing the transaction reason." xlink:type="simple"><rect fill="#FEFEEE" filter="url(#f4bxdylngbzmh)" height="23.9688" id="StatusOriginator" style="stroke: #A80036; stroke-width: 1.5;" width="109" x="422.75" y="270"/><rect fill="#FEFEEE" height="23.9688" style="stroke: #A80036; stroke-width: 1.5;" width="109" x="422.75" y="270"/><text fill="#000000" font-family="sans-serif" font-size="12" lengthAdjust="spacingAndGlyphs" textLength="103" x="425.75" y="286.1387">StatusOriginator</text></a><!--class RolePlayer--><a target="_top" xlink:actuate="onRequest" xlink:href="../RolePlayer.html" xlink:show="new" xlink:title="Type of entity that plays a specific role in a specific context." xlink:type="simple"><rect fill="#EEEEEE" filter="url(#f4bxdylngbzmh)" height="23.9688" id="RolePlayer" style="stroke: #A80036; stroke-width: 1.5;" width="71" x="828.75" y="450"/><rect fill="#EEEEEE" height="23.9688" style="stroke: #A80036; stroke-width: 1.5;" width="71" x="828.75" y="450"/><text fill="#000000" font-family="sans-serif" font-size="12" lengthAdjust="spacingAndGlyphs" textLength="65" x="831.75" y="466.1387">RolePlayer</text></a><!--class ContactPersonRole--><a target="_top" xlink:actuate="onRequest" xlink:href="../ContactPersonRole.html" xlink:show="new" xlink:title="Person to be contacted in a given organisation. In the corporate action domain (including meeting notifications) , it is the contact person at the party organising the meeting, at the issuer or at an intermediary." xlink:type="simple"><rect fill="#EEEEEE" filter="url(#f4bxdylngbzmh)" height="23.9688" id="ContactPersonRole" style="stroke: #A80036; stroke-width: 1.5;" width="126" x="821" y="360"/><rect fill="#EEEEEE" height="23.9688" style="stroke: #A80036; stroke-width: 1.5;" width="126" x="821" y="360"/><text fill="#000000" font-family="sans-serif" font-size="12" lengthAdjust="spacingAndGlyphs" textLength="120" x="824" y="376.1387">ContactPersonRole</text></a><!--class CounterpartyRisk--><a target="_top" xlink:actuate="onRequest" xlink:href="../CounterpartyRisk.html" xlink:show="new" xlink:title="Calculation of the exposure amount that one party has vis-a-vis one counterparty or a central system, based on its credit risk." xlink:type="simple"><rect fill="#EEEEEE" filter="url(#f4bxdylngbzmh)" height="23.9688" id="CounterpartyRisk" style="stroke: #A80036; stroke-width: 1.5;" width="113" x="827.75" y="270"/><rect fill="#EEEEEE" height="23.9688" style="stroke: #A80036; stroke-width: 1.5;" width="113" x="827.75" y="270"/><text fill="#000000" font-family="sans-serif" font-size="12" lengthAdjust="spacingAndGlyphs" textLength="107" x="830.75" y="286.1387">CounterpartyRisk</text></a><!--class Entry--><a target="_top" xlink:actuate="onRequest" xlink:href="../Entry.html" xlink:show="new" xlink:title="Posting to an account that results in an increase or decrease to a balance." xlink:type="simple"><rect fill="#EEEEEE" filter="url(#f4bxdylngbzmh)" height="23.9688" id="Entry" style="stroke: #A80036; stroke-width: 1.5;" width="38" x="909" y="166"/><rect fill="#EEEEEE" height="23.9688" style="stroke: #A80036; stroke-width: 1.5;" width="38" x="909" y="166"/><text fill="#000000" font-family="sans-serif" font-size="12" lengthAdjust="spacingAndGlyphs" textLength="32" x="912" y="182.1387">Entry</text></a><!--class InvestigationCase--><a target="_top" xlink:actuate="onRequest" xlink:href="../InvestigationCase.html" xlink:show="new" xlink:title="Set of activities performed to handle an exception to a normal transaction flow.." xlink:type="simple"><rect fill="#EEEEEE" filter="url(#f4bxdylngbzmh)" height="23.9688" id="InvestigationCase" style="stroke: #A80036; stroke-width: 1.5;" width="117" x="38.75" y="360"/><rect fill="#EEEEEE" height="23.9688" style="stroke: #A80036; stroke-width: 1.5;" width="117" x="38.75" y="360"/><text fill="#000000" font-family="sans-serif" font-size="12" lengthAdjust="spacingAndGlyphs" textLength="111" x="41.75" y="376.1387">InvestigationCase</text></a><!--class Status--><a target="_top" xlink:actuate="onRequest" xlink:href="../Status.html" xlink:show="new" xlink:title="The status of an instruction, advice or request." xlink:type="simple"><rect fill="#EEEEEE" filter="url(#f4bxdylngbzmh)" height="23.9688" id="Status" style="stroke: #A80036; stroke-width: 1.5;" width="47" x="103.75" y="270"/><rect fill="#EEEEEE" height="23.9688" style="stroke: #A80036; stroke-width: 1.5;" width="47" x="103.75" y="270"/><text fill="#000000" font-family="sans-serif" font-size="12" lengthAdjust="spacingAndGlyphs" textLength="41" x="106.75" y="286.1387">Status</text></a><!--link Role to InvestigationPartyRole--><path d="M486.483,105.559 C483.616,127.159 480.332,151.898 478.478,165.865 " fill="none" id="Role-InvestigationPartyRole" style="stroke: #A80036; stroke-width: 1.0;"/><polygon fill="none" points="479.572,104.425,489.143,85.52,493.451,106.268,479.572,104.425" style="stroke: #A80036; stroke-width: 1.0;"/><!--link InvestigationPartyRole to StatusOriginator--><path d="M477,210.595 C477,230.825 477,255.843 477,269.954 " fill="none" id="InvestigationPartyRole-StatusOriginator" style="stroke: #A80036; stroke-width: 1.0;"/><polygon fill="none" points="470,210.306,477,190.306,484,210.305,470,210.306" style="stroke: #A80036; stroke-width: 1.0;"/><!--link ContactPersonRole to RolePlayer--><!--link CounterpartyRisk to ContactPersonRole--><!--link Entry to CounterpartyRisk--><!--link Status to InvestigationCase--><!--link Role to RolePlayer--><path d="M534.598,85.635 C565.901,104.892 603,136.3 603,177 C603,177 603,177 603,373 C603,418.9392 750.025,445.4913 823.378,455.8799 " fill="none" id="Role-RolePlayer" style="stroke: #A80036; stroke-width: 1.0;"/><polygon fill="#A80036" points="828.529,456.6,820.1686,451.3938,823.577,455.9086,819.0623,459.317,828.529,456.6" style="stroke: #A80036; stroke-width: 1.0;"/><text fill="#000000" font-family="sans-serif" font-size="13" lengthAdjust="spacingAndGlyphs" textLength="39" x="604" y="286.0669">Player</text><text fill="#000000" font-family="sans-serif" font-size="13" lengthAdjust="spacingAndGlyphs" textLength="7" x="813.8674" y="450.3783">*</text><!--link Role to ContactPersonRole--><path d="M579.553,85.325 C597.486,92.781 615.102,102.742 629,116 C671.775,156.807 643.952,192.753 682,238 C730.366,295.518 809.839,337.619 853.282,357.746 " fill="none" id="Role-ContactPersonRole" style="stroke: #A80036; stroke-width: 1.0;"/><polygon fill="#A80036" points="857.884,359.859,851.373,352.4694,853.3398,357.7733,848.0359,359.7401,857.884,359.859" style="stroke: #A80036; stroke-width: 1.0;"/><text fill="#000000" font-family="sans-serif" font-size="13" lengthAdjust="spacingAndGlyphs" textLength="121" x="683" y="233.0669">ContactPersonRole</text><text fill="#000000" font-family="sans-serif" font-size="13" lengthAdjust="spacingAndGlyphs" textLength="8" x="838.1879" y="348.8587">1</text><!--link Role to CounterpartyRisk--><path d="M579.308,75.77 C617.941,83.462 662.92,95.949 700,116 C742.604,139.038 743.994,157.605 780,190 C810.432,217.379 846.498,248.687 867.168,266.523 " fill="none" id="Role-CounterpartyRisk" style="stroke: #A80036; stroke-width: 1.0;"/><polygon fill="#A80036" points="871.091,269.906,866.8854,261.0002,867.3037,266.6416,861.6623,267.0599,871.091,269.906" style="stroke: #A80036; stroke-width: 1.0;"/><text fill="#000000" font-family="sans-serif" font-size="13" lengthAdjust="spacingAndGlyphs" textLength="109" x="781" y="182.0669">CounterpartyRisk</text><text fill="#000000" font-family="sans-serif" font-size="13" lengthAdjust="spacingAndGlyphs" textLength="24" x="837.0988" y="258.9219">0..1</text><!--link Role to Entry--><path d="M579.462,68.476 C661.381,75.606 785.332,94.09 882,142 C892.818,147.361 903.627,155.414 912.047,162.444 " fill="none" id="Role-Entry" style="stroke: #A80036; stroke-width: 1.0;"/><polygon fill="#A80036" points="915.979,165.797,911.7265,156.9135,912.1746,162.5526,906.5355,163.0006,915.979,165.797" style="stroke: #A80036; stroke-width: 1.0;"/><text fill="#000000" font-family="sans-serif" font-size="13" lengthAdjust="spacingAndGlyphs" textLength="33" x="863" y="129.0669">Entry</text><text fill="#000000" font-family="sans-serif" font-size="13" lengthAdjust="spacingAndGlyphs" textLength="8" x="901.3408" y="155.0332">1</text><!--link InvestigationPartyRole to InvestigationCase--><path d="M437.746,190.039 C398.938,201.63 338.373,221.555 289,246 C221.796,279.273 149.442,331.335 115.973,356.464 " fill="none" id="InvestigationPartyRole-InvestigationCase" style="stroke: #A80036; stroke-width: 1.0;"/><polygon fill="#A80036" points="111.704,359.682,121.2986,357.4584,115.6966,356.6722,116.4829,351.0702,111.704,359.682" style="stroke: #A80036; stroke-width: 1.0;"/><text fill="#000000" font-family="sans-serif" font-size="13" lengthAdjust="spacingAndGlyphs" textLength="113" x="290" y="286.0669">InvestigationCase</text><text fill="#000000" font-family="sans-serif" font-size="13" lengthAdjust="spacingAndGlyphs" textLength="7" x="107.0018" y="348.8801">*</text><!--link InvestigationPartyRole to Status--><path d="M404.474,184.24 C332.141,190.372 226.667,202.034 190,220 C168.442,230.563 149.539,251.257 138.199,265.594 " fill="none" id="InvestigationPartyRole-Status" style="stroke: #A80036; stroke-width: 1.0;"/><polygon fill="#A80036" points="134.928,269.821,143.5994,265.1513,137.988,265.8667,137.2726,260.2553,134.928,269.821" style="stroke: #A80036; stroke-width: 1.0;"/><text fill="#000000" font-family="sans-serif" font-size="13" lengthAdjust="spacingAndGlyphs" textLength="42" x="191" y="233.0669">Status</text><text fill="#000000" font-family="sans-serif" font-size="13" lengthAdjust="spacingAndGlyphs" textLength="7" x="128.0204" y="258.8077">*</text><!--link InvestigationCase to InvestigationCase--><path d="M155.578,363.751 C174.741,363.793 190,366.543 190,372 C190,376.945 177.468,379.667 160.856,380.166 " fill="none" id="InvestigationCase-InvestigationCase" style="stroke: #A80036; stroke-width: 1.0;"/><polygon fill="#A80036" points="155.578,380.249,164.6398,384.1071,160.5774,380.1704,164.514,376.108,155.578,380.249" style="stroke: #A80036; stroke-width: 1.0;"/><text fill="#000000" font-family="sans-serif" font-size="13" lengthAdjust="spacingAndGlyphs" textLength="161" x="196" y="376.0669">OriginalInvestigationCase</text><text fill="#000000" font-family="sans-serif" font-size="13" lengthAdjust="spacingAndGlyphs" textLength="7" x="163.8861" y="376.2932">*</text></g></svg>