<?xml version="1.0" encoding="UTF-8" standalone="no"?><svg xmlns="http://www.w3.org/2000/svg" xmlns:xlink="http://www.w3.org/1999/xlink" contentScriptType="application/ecmascript" contentStyleType="text/css" height="632px" preserveAspectRatio="none" style="width:1086px;height:632px;" version="1.1" viewBox="0 0 1086 632" width="1086px" zoomAndPan="magnify"><defs><filter height="300%" id="f1njd8w4fxc7li" width="300%" x="-1" y="-1"><feGaussianBlur result="blurOut" stdDeviation="2.0"/><feColorMatrix in="blurOut" result="blurOut2" type="matrix" values="0 0 0 0 0 0 0 0 0 0 0 0 0 0 0 0 0 0 .4 0"/><feOffset dx="4.0" dy="4.0" in="blurOut2" result="blurOut3"/><feBlend in="SourceGraphic" in2="blurOut3" mode="normal"/></filter></defs><g><!--cluster ##2740--><!--cluster ##2749--><!--cluster ##2758--><!--cluster ##2761--><!--class Role--><a target="_top" xlink:actuate="onRequest" xlink:href="../Role.html" xlink:show="new" xlink:title="Role of a party in an activity." xlink:type="simple"><rect fill="#FEFEEE" filter="url(#f1njd8w4fxc7li)" height="44.7734" id="Role" style="stroke: #A80036; stroke-width: 1.5;" width="175" x="143.75" y="40.5"/><rect fill="#FEFEEE" height="23.9688" style="stroke: #A80036; stroke-width: 1.5;" width="175" x="143.75" y="40.5"/><text fill="#000000" font-family="sans-serif" font-size="12" lengthAdjust="spacingAndGlyphs" textLength="27" x="217.75" y="56.6387">Role</text><line style="stroke: #A80036; stroke-width: 1.5;" x1="144.75" x2="317.75" y1="64.4688" y2="64.4688"/><ellipse cx="154.75" cy="76.3711" fill="#84BE84" rx="3" ry="3" style="stroke: #038048; stroke-width: 1.0;"/><text fill="#000000" font-family="sans-serif" font-size="11" lengthAdjust="spacingAndGlyphs" textLength="53" x="163.75" y="78.6792">PartyRole</text><text fill="#000000" font-family="sans-serif" font-size="11" font-style="italic" lengthAdjust="spacingAndGlyphs" textLength="92" x="220.75" y="78.6792">(PartyRoleCode)</text></a><!--class AccountPartyRole--><a target="_top" xlink:actuate="onRequest" xlink:href="../AccountPartyRole.html" xlink:show="new" xlink:title="Role played by a party in the context of account operations." xlink:type="simple"><rect fill="#FEFEEE" filter="url(#f1njd8w4fxc7li)" height="23.9688" id="AccountPartyRole" style="stroke: #A80036; stroke-width: 1.5;" width="116" x="173.5" y="166"/><rect fill="#FEFEEE" height="23.9688" style="stroke: #A80036; stroke-width: 1.5;" width="116" x="173.5" y="166"/><text fill="#000000" font-family="sans-serif" font-size="12" lengthAdjust="spacingAndGlyphs" textLength="110" x="176.5" y="182.1387">AccountPartyRole</text></a><!--class InvestmentAccountPartyRole--><a target="_top" xlink:actuate="onRequest" xlink:href="../InvestmentAccountPartyRole.html" xlink:show="new" xlink:title="Specifies roles played by a party that are related to an investment account." xlink:type="simple"><rect fill="#FEFECE" filter="url(#f1njd8w4fxc7li)" height="57.5781" id="InvestmentAccountPartyRole" style="stroke: #A80036; stroke-width: 1.5;" width="277" x="41.75" y="268"/><rect fill="#FEFECE" height="23.9688" style="stroke: #A80036; stroke-width: 1.5;" width="277" x="41.75" y="268"/><text fill="#000000" font-family="sans-serif" font-size="12" lengthAdjust="spacingAndGlyphs" textLength="179" x="90.75" y="284.1387">InvestmentAccountPartyRole</text><line style="stroke: #A80036; stroke-width: 1.5;" x1="42.75" x2="317.75" y1="291.9688" y2="291.9688"/><ellipse cx="52.75" cy="303.8711" fill="#84BE84" rx="3" ry="3" style="stroke: #038048; stroke-width: 1.0;"/><text fill="#000000" font-family="sans-serif" font-size="11" lengthAdjust="spacingAndGlyphs" textLength="149" x="61.75" y="306.1792">OwnershipBeneficiaryRate</text><text fill="#000000" font-family="sans-serif" font-size="11" font-style="italic" lengthAdjust="spacingAndGlyphs" textLength="98" x="214.75" y="306.1792">(PercentageRate)</text><ellipse cx="52.75" cy="316.6758" fill="#84BE84" rx="3" ry="3" style="stroke: #038048; stroke-width: 1.0;"/><text fill="#000000" font-family="sans-serif" font-size="11" lengthAdjust="spacingAndGlyphs" textLength="91" x="61.75" y="318.9839">FATCAFormType</text><text fill="#000000" font-family="sans-serif" font-size="11" font-style="italic" lengthAdjust="spacingAndGlyphs" textLength="131" x="156.75" y="318.9839">(FATCAFormTypeCode)</text></a><!--class RolePlayer--><a target="_top" xlink:actuate="onRequest" xlink:href="../RolePlayer.html" xlink:show="new" xlink:title="Type of entity that plays a specific role in a specific context." xlink:type="simple"><rect fill="#EEEEEE" filter="url(#f1njd8w4fxc7li)" height="23.9688" id="RolePlayer" style="stroke: #A80036; stroke-width: 1.5;" width="71" x="661.75" y="510"/><rect fill="#EEEEEE" height="23.9688" style="stroke: #A80036; stroke-width: 1.5;" width="71" x="661.75" y="510"/><text fill="#000000" font-family="sans-serif" font-size="12" lengthAdjust="spacingAndGlyphs" textLength="65" x="664.75" y="526.1387">RolePlayer</text></a><!--class ContactPersonRole--><a target="_top" xlink:actuate="onRequest" xlink:href="../ContactPersonRole.html" xlink:show="new" xlink:title="Person to be contacted in a given organisation. In the corporate action domain (including meeting notifications) , it is the contact person at the party organising the meeting, at the issuer or at an intermediary." xlink:type="simple"><rect fill="#EEEEEE" filter="url(#f1njd8w4fxc7li)" height="23.9688" id="ContactPersonRole" style="stroke: #A80036; stroke-width: 1.5;" width="126" x="614" y="408"/><rect fill="#EEEEEE" height="23.9688" style="stroke: #A80036; stroke-width: 1.5;" width="126" x="614" y="408"/><text fill="#000000" font-family="sans-serif" font-size="12" lengthAdjust="spacingAndGlyphs" textLength="120" x="617" y="424.1387">ContactPersonRole</text></a><!--class CounterpartyRisk--><a target="_top" xlink:actuate="onRequest" xlink:href="../CounterpartyRisk.html" xlink:show="new" xlink:title="Calculation of the exposure amount that one party has vis-a-vis one counterparty or a central system, based on its credit risk." xlink:type="simple"><rect fill="#EEEEEE" filter="url(#f1njd8w4fxc7li)" height="23.9688" id="CounterpartyRisk" style="stroke: #A80036; stroke-width: 1.5;" width="113" x="620.75" y="285"/><rect fill="#EEEEEE" height="23.9688" style="stroke: #A80036; stroke-width: 1.5;" width="113" x="620.75" y="285"/><text fill="#000000" font-family="sans-serif" font-size="12" lengthAdjust="spacingAndGlyphs" textLength="107" x="623.75" y="301.1387">CounterpartyRisk</text></a><!--class Entry--><a target="_top" xlink:actuate="onRequest" xlink:href="../Entry.html" xlink:show="new" xlink:title="Posting to an account that results in an increase or decrease to a balance." xlink:type="simple"><rect fill="#EEEEEE" filter="url(#f1njd8w4fxc7li)" height="23.9688" id="Entry" style="stroke: #A80036; stroke-width: 1.5;" width="38" x="614" y="166"/><rect fill="#EEEEEE" height="23.9688" style="stroke: #A80036; stroke-width: 1.5;" width="38" x="614" y="166"/><text fill="#000000" font-family="sans-serif" font-size="12" lengthAdjust="spacingAndGlyphs" textLength="32" x="617" y="182.1387">Entry</text></a><!--class Account--><a target="_top" xlink:actuate="onRequest" xlink:href="../Account.html" xlink:show="new" xlink:title="Record of transactions in specific types of assets, maintained by a servicing party on behalf of one or more owning parties. Business relationship between an account servicer and one or more account owners." xlink:type="simple"><rect fill="#EEEEEE" filter="url(#f1njd8w4fxc7li)" height="23.9688" id="Account" style="stroke: #A80036; stroke-width: 1.5;" width="57" x="375.75" y="285"/><rect fill="#EEEEEE" height="23.9688" style="stroke: #A80036; stroke-width: 1.5;" width="57" x="375.75" y="285"/><text fill="#000000" font-family="sans-serif" font-size="12" lengthAdjust="spacingAndGlyphs" textLength="51" x="378.75" y="301.1387">Account</text></a><!--class InvestmentAccount--><a target="_top" xlink:actuate="onRequest" xlink:href="../InvestmentAccount.html" xlink:show="new" xlink:title="Account between an investor(s) and a fund manager or a fund. The account can contain holdings in any investment fund or investment fund class managed (or distributed) by the fund manager, within the same fund family." xlink:type="simple"><rect fill="#EEEEEE" filter="url(#f1njd8w4fxc7li)" height="23.9688" id="InvestmentAccount" style="stroke: #A80036; stroke-width: 1.5;" width="126" x="38" y="598"/><rect fill="#EEEEEE" height="23.9688" style="stroke: #A80036; stroke-width: 1.5;" width="126" x="38" y="598"/><text fill="#000000" font-family="sans-serif" font-size="12" lengthAdjust="spacingAndGlyphs" textLength="120" x="41" y="614.1387">InvestmentAccount</text></a><!--class FATCAStatus--><a target="_top" xlink:actuate="onRequest" xlink:href="../FATCAStatus.html" xlink:show="new" xlink:title="Foreign Account Tax Compliance Act (FATCA) status and the status source of the investor." xlink:type="simple"><rect fill="#EEEEEE" filter="url(#f1njd8w4fxc7li)" height="23.9688" id="FATCAStatus" style="stroke: #A80036; stroke-width: 1.5;" width="85" x="58.75" y="510"/><rect fill="#EEEEEE" height="23.9688" style="stroke: #A80036; stroke-width: 1.5;" width="85" x="58.75" y="510"/><text fill="#000000" font-family="sans-serif" font-size="12" lengthAdjust="spacingAndGlyphs" textLength="79" x="61.75" y="526.1387">FATCAStatus</text></a><!--class CRSStatus--><a target="_top" xlink:actuate="onRequest" xlink:href="../CRSStatus.html" xlink:show="new" xlink:title="Common Reporting Standard (CRS) status and the status source of the investor." xlink:type="simple"><rect fill="#EEEEEE" filter="url(#f1njd8w4fxc7li)" height="23.9688" id="CRSStatus" style="stroke: #A80036; stroke-width: 1.5;" width="71" x="38.75" y="408"/><rect fill="#EEEEEE" height="23.9688" style="stroke: #A80036; stroke-width: 1.5;" width="71" x="38.75" y="408"/><text fill="#000000" font-family="sans-serif" font-size="12" lengthAdjust="spacingAndGlyphs" textLength="65" x="41.75" y="424.1387">CRSStatus</text></a><!--link Role to AccountPartyRole--><path d="M231,105.559 C231,127.159 231,151.898 231,165.865 " fill="none" id="Role-AccountPartyRole" style="stroke: #A80036; stroke-width: 1.0;"/><polygon fill="none" points="224,105.52,231,85.52,238,105.52,224,105.52" style="stroke: #A80036; stroke-width: 1.0;"/><!--link AccountPartyRole to InvestmentAccountPartyRole--><path d="M218.065,208.675 C210.14,226.855 200.057,249.987 192.259,267.876 " fill="none" id="AccountPartyRole-InvestmentAccountPartyRole" style="stroke: #A80036; stroke-width: 1.0;"/><polygon fill="none" points="211.701,205.755,226.11,190.218,224.535,211.349,211.701,205.755" style="stroke: #A80036; stroke-width: 1.0;"/><!--link ContactPersonRole to RolePlayer--><!--link CounterpartyRisk to ContactPersonRole--><!--link Entry to CounterpartyRisk--><!--link FATCAStatus to InvestmentAccount--><!--link CRSStatus to FATCAStatus--><!--link Role to RolePlayer--><path d="M318.464,67.271 C526.584,76.218 1034,105.376 1034,177 C1034,177 1034,177 1034,421 C1034,482.183 827.27,508.87 737.642,517.565 " fill="none" id="Role-RolePlayer" style="stroke: #A80036; stroke-width: 1.0;"/><polygon fill="#A80036" points="732.428,518.063,741.7678,521.1885,737.4053,517.5873,741.0066,513.2248,732.428,518.063" style="stroke: #A80036; stroke-width: 1.0;"/><text fill="#000000" font-family="sans-serif" font-size="13" lengthAdjust="spacingAndGlyphs" textLength="39" x="1035" y="301.0669">Player</text><text fill="#000000" font-family="sans-serif" font-size="13" lengthAdjust="spacingAndGlyphs" textLength="7" x="740.8888" y="511.4272">*</text><!--link Role to ContactPersonRole--><path d="M318.35,69.342 C472.399,79.681 779.106,104.742 810,142 C881.87,228.675 744.821,360.722 694.496,404.405 " fill="none" id="Role-ContactPersonRole" style="stroke: #A80036; stroke-width: 1.0;"/><polygon fill="#A80036" points="690.464,407.877,699.895,405.0385,694.2539,404.6156,694.6768,398.9746,690.464,407.877" style="stroke: #A80036; stroke-width: 1.0;"/><text fill="#000000" font-family="sans-serif" font-size="13" lengthAdjust="spacingAndGlyphs" textLength="121" x="829" y="233.0669">ContactPersonRole</text><text fill="#000000" font-family="sans-serif" font-size="13" lengthAdjust="spacingAndGlyphs" textLength="8" x="684.3735" y="396.8829">1</text><!--link Role to CounterpartyRisk--><path d="M318.444,67.103 C432.8,73.169 623.92,90.874 669,142 C703.145,180.725 690.387,248.495 682.014,279.577 " fill="none" id="Role-CounterpartyRisk" style="stroke: #A80036; stroke-width: 1.0;"/><polygon fill="#A80036" points="680.615,284.59,686.8869,276.9964,681.959,279.774,679.1813,274.846,680.615,284.59" style="stroke: #A80036; stroke-width: 1.0;"/><text fill="#000000" font-family="sans-serif" font-size="13" lengthAdjust="spacingAndGlyphs" textLength="109" x="691" y="182.0669">CounterpartyRisk</text><text fill="#000000" font-family="sans-serif" font-size="13" lengthAdjust="spacingAndGlyphs" textLength="24" x="652.5438" y="274.018">0..1</text><!--link Role to Entry--><path d="M307.559,85.52 C399.992,111.503 550.31,153.756 608.715,170.174 " fill="none" id="Role-Entry" style="stroke: #A80036; stroke-width: 1.0;"/><polygon fill="#A80036" points="613.748,171.588,606.1662,165.3018,608.9345,170.235,604.0014,173.0033,613.748,171.588" style="stroke: #A80036; stroke-width: 1.0;"/><text fill="#000000" font-family="sans-serif" font-size="13" lengthAdjust="spacingAndGlyphs" textLength="33" x="481" y="129.0669">Entry</text><text fill="#000000" font-family="sans-serif" font-size="13" lengthAdjust="spacingAndGlyphs" textLength="8" x="597.9271" y="163.484">1</text><!--link AccountPartyRole to Account--><path d="M247.275,190.007 C278.831,211.348 348.287,258.321 383.16,281.906 " fill="none" id="AccountPartyRole-Account" style="stroke: #A80036; stroke-width: 1.0;"/><polygon fill="#A80036" points="387.642,284.937,382.4265,276.5824,383.4999,282.1365,377.9458,283.2098,387.642,284.937" style="stroke: #A80036; stroke-width: 1.0;"/><text fill="#000000" font-family="sans-serif" font-size="13" lengthAdjust="spacingAndGlyphs" textLength="52" x="319" y="233.0669">Account</text><text fill="#000000" font-family="sans-serif" font-size="13" lengthAdjust="spacingAndGlyphs" textLength="7" x="372.3861" y="273.9636">*</text><!--link InvestmentAccountPartyRole to InvestmentAccount--><path d="M210.918,326.294 C225.483,341.741 241.318,362.149 249,384 C256.076,404.126 255.457,411.667 249,432 C225.817,505.005 154.688,567.7057 120.177,594.761 " fill="none" id="InvestmentAccountPartyRole-InvestmentAccount" style="stroke: #A80036; stroke-width: 1.0;"/><polygon fill="#A80036" points="116.156,597.8821,125.7184,595.5239,120.1059,594.8165,120.8133,589.204,116.156,597.8821" style="stroke: #A80036; stroke-width: 1.0;"/><text fill="#000000" font-family="sans-serif" font-size="13" lengthAdjust="spacingAndGlyphs" textLength="124" x="238" y="475.0669">InvestmentAccount</text><text fill="#000000" font-family="sans-serif" font-size="13" lengthAdjust="spacingAndGlyphs" textLength="7" x="111.819" y="586.8898">*</text><!--link InvestmentAccountPartyRole to FATCAStatus--><path d="M172.827,326.003 C168.816,340.951 163.522,359.598 158,376 C141.981,423.585 119.224,478.399 107.923,504.939 " fill="none" id="InvestmentAccountPartyRole-FATCAStatus" style="stroke: #A80036; stroke-width: 1.0;"/><polygon fill="#A80036" points="105.8204,509.86,113.0342,503.1547,107.7845,505.2619,105.6773,500.0122,105.8204,509.86" style="stroke: #A80036; stroke-width: 1.0;"/><text fill="#000000" font-family="sans-serif" font-size="13" lengthAdjust="spacingAndGlyphs" textLength="83" x="156" y="424.0669">FATCAStatus</text><text fill="#000000" font-family="sans-serif" font-size="13" lengthAdjust="spacingAndGlyphs" textLength="7" x="97.8446" y="498.8601">*</text><!--link InvestmentAccountPartyRole to CRSStatus--><path d="M116.585,326.131 C103.6478,334.62 91.4314,345.177 83,358 C74.3543,371.148 72.6701,389.31 72.8033,402.392 " fill="none" id="InvestmentAccountPartyRole-CRSStatus" style="stroke: #A80036; stroke-width: 1.0;"/><polygon fill="#A80036" points="72.9566,407.658,76.6926,398.5453,72.8109,402.6601,68.696,398.7784,72.9566,407.658" style="stroke: #A80036; stroke-width: 1.0;"/><text fill="#000000" font-family="sans-serif" font-size="13" lengthAdjust="spacingAndGlyphs" textLength="68" x="84" y="371.0669">CRSStatus</text><text fill="#000000" font-family="sans-serif" font-size="13" lengthAdjust="spacingAndGlyphs" textLength="8" x="61.8719" y="396.8482">1</text><!--link Entry to Account--><path d="M613.869,188.774 C572.922,209.695 476.739,258.837 430.173,282.628 " fill="none" id="Entry-Account" style="stroke: #A80036; stroke-width: 1.0;"/><polygon fill="#A80036" points="425.555,284.987,435.3894,284.4531,430.0073,282.7116,431.7487,277.3295,425.555,284.987" style="stroke: #A80036; stroke-width: 1.0;"/><text fill="#000000" font-family="sans-serif" font-size="13" lengthAdjust="spacingAndGlyphs" textLength="52" x="554" y="233.0669">Account</text><text fill="#000000" font-family="sans-serif" font-size="13" lengthAdjust="spacingAndGlyphs" textLength="7" x="423.3317" y="274.0307">*</text><!--link Account to Account--><path d="M432.508,285.15 C450.181,282.292 467,286.242 467,297 C467,306.665 453.424,310.835 437.85,309.51 " fill="none" id="Account-Account" style="stroke: #A80036; stroke-width: 1.0;"/><polygon fill="#A80036" points="432.508,308.85,440.9497,313.9232,437.4703,309.463,441.9305,305.9835,432.508,308.85" style="stroke: #A80036; stroke-width: 1.0;"/><text fill="#000000" font-family="sans-serif" font-size="13" lengthAdjust="spacingAndGlyphs" textLength="94" x="473" y="301.0669">ParentAccount</text><text fill="#000000" font-family="sans-serif" font-size="13" lengthAdjust="spacingAndGlyphs" textLength="8" x="433.1019" y="328.9326">1</text></g></svg>