<?xml version="1.0" encoding="UTF-8" standalone="no"?><svg xmlns="http://www.w3.org/2000/svg" xmlns:xlink="http://www.w3.org/1999/xlink" contentScriptType="application/ecmascript" contentStyleType="text/css" height="734px" preserveAspectRatio="none" style="width:1993px;height:734px;" version="1.1" viewBox="0 0 1993 734" width="1993px" zoomAndPan="magnify"><defs><filter height="300%" id="fxbmwgugtj8jd" width="300%" x="-1" y="-1"><feGaussianBlur result="blurOut" stdDeviation="2.0"/><feColorMatrix in="blurOut" result="blurOut2" type="matrix" values="0 0 0 0 0 0 0 0 0 0 0 0 0 0 0 0 0 0 .4 0"/><feOffset dx="4.0" dy="4.0" in="blurOut2" result="blurOut3"/><feBlend in="SourceGraphic" in2="blurOut3" mode="normal"/></filter></defs><g><!--cluster ##5213--><!--cluster ##5219--><!--cluster ##5232--><!--class SecuritiesTradeExecution--><a target="_top" xlink:actuate="onRequest" xlink:href="../SecuritiesTradeExecution.html" xlink:show="new" xlink:title="Transaction between two counterparties in which they agree to buy and sell a financial instrument. A trade transaction occurs with the matching of the two counterparties orders. There could be several trade transactions necessary to execute the trade." xlink:type="simple"><rect fill="#FEFEEE" filter="url(#fxbmwgugtj8jd)" height="108.7969" id="SecuritiesTradeExecution" style="stroke: #A80036; stroke-width: 1.5;" width="280" x="537" y="40.5"/><rect fill="#FEFEEE" height="23.9688" style="stroke: #A80036; stroke-width: 1.5;" width="280" x="537" y="40.5"/><text fill="#000000" font-family="sans-serif" font-size="12" lengthAdjust="spacingAndGlyphs" textLength="159" x="597.5" y="56.6387">SecuritiesTradeExecution</text><line style="stroke: #A80036; stroke-width: 1.5;" x1="538" x2="816" y1="64.4688" y2="64.4688"/><ellipse cx="548" cy="76.3711" fill="#84BE84" rx="3" ry="3" style="stroke: #038048; stroke-width: 1.0;"/><text fill="#000000" font-family="sans-serif" font-size="11" lengthAdjust="spacingAndGlyphs" textLength="111" x="557" y="78.6792">StampDutyIndicator</text><text fill="#000000" font-family="sans-serif" font-size="11" font-style="italic" lengthAdjust="spacingAndGlyphs" textLength="92" x="672" y="78.6792">(YesNoIndicator)</text><ellipse cx="548" cy="89.1758" fill="#84BE84" rx="3" ry="3" style="stroke: #038048; stroke-width: 1.0;"/><text fill="#000000" font-family="sans-serif" font-size="11" lengthAdjust="spacingAndGlyphs" textLength="108" x="557" y="91.4839">ProcessingPosition</text><text fill="#000000" font-family="sans-serif" font-size="11" font-style="italic" lengthAdjust="spacingAndGlyphs" textLength="142" x="669" y="91.4839">(ProcessingPositionCode)</text><ellipse cx="548" cy="101.9805" fill="#84BE84" rx="3" ry="3" style="stroke: #038048; stroke-width: 1.0;"/><text fill="#000000" font-family="sans-serif" font-size="11" lengthAdjust="spacingAndGlyphs" textLength="81" x="557" y="104.2886">MarginAmount</text><text fill="#000000" font-family="sans-serif" font-size="11" font-style="italic" lengthAdjust="spacingAndGlyphs" textLength="126" x="642" y="104.2886">(CurrencyAndAmount)</text><ellipse cx="548" cy="114.7852" fill="#84BE84" rx="3" ry="3" style="stroke: #038048; stroke-width: 1.0;"/><text fill="#000000" font-family="sans-serif" font-size="11" lengthAdjust="spacingAndGlyphs" textLength="97" x="557" y="117.0933">OffMarketReason</text><text fill="#000000" font-family="sans-serif" font-size="11" font-style="italic" lengthAdjust="spacingAndGlyphs" textLength="92" x="658" y="117.0933">(OffMarketCode)</text><ellipse cx="548" cy="127.5898" fill="#84BE84" rx="3" ry="3" style="stroke: #038048; stroke-width: 1.0;"/><text fill="#000000" font-family="sans-serif" font-size="11" lengthAdjust="spacingAndGlyphs" textLength="122" x="557" y="129.8979">DealExecutionAmount</text><text fill="#000000" font-family="sans-serif" font-size="11" font-style="italic" lengthAdjust="spacingAndGlyphs" textLength="126" x="683" y="129.8979">(CurrencyAndAmount)</text><ellipse cx="548" cy="140.3945" fill="#84BE84" rx="3" ry="3" style="stroke: #038048; stroke-width: 1.0;"/><text fill="#000000" font-family="sans-serif" font-size="11" lengthAdjust="spacingAndGlyphs" textLength="81" x="557" y="142.7026">ReportingType</text><text fill="#000000" font-family="sans-serif" font-size="11" font-style="italic" lengthAdjust="spacingAndGlyphs" textLength="92" x="642" y="142.7026">(ReportingCode)</text></a><!--class InvestmentFundOrderExecution--><a target="_top" xlink:actuate="onRequest" xlink:href="../InvestmentFundOrderExecution.html" xlink:show="new" xlink:title="Creation/cancellation of investment units on the books of the fund or its designated agent, as a result of executing an investment fund order." xlink:type="simple"><rect fill="#FEFECE" filter="url(#fxbmwgugtj8jd)" height="185.625" id="InvestmentFundOrderExecution" style="stroke: #A80036; stroke-width: 1.5;" width="308" x="509" y="228"/><rect fill="#FEFECE" height="23.9688" style="stroke: #A80036; stroke-width: 1.5;" width="308" x="509" y="228"/><text fill="#000000" font-family="sans-serif" font-size="12" lengthAdjust="spacingAndGlyphs" textLength="196" x="565" y="244.1387">InvestmentFundOrderExecution</text><line style="stroke: #A80036; stroke-width: 1.5;" x1="510" x2="816" y1="251.9688" y2="251.9688"/><ellipse cx="520" cy="263.8711" fill="#84BE84" rx="3" ry="3" style="stroke: #038048; stroke-width: 1.0;"/><text fill="#000000" font-family="sans-serif" font-size="11" lengthAdjust="spacingAndGlyphs" textLength="201" x="529" y="266.1792">NonStandardSettlementInformation</text><text fill="#000000" font-family="sans-serif" font-size="11" font-style="italic" lengthAdjust="spacingAndGlyphs" textLength="77" x="734" y="266.1792">(Max350Text)</text><ellipse cx="520" cy="276.6758" fill="#84BE84" rx="3" ry="3" style="stroke: #038048; stroke-width: 1.0;"/><text fill="#000000" font-family="sans-serif" font-size="11" lengthAdjust="spacingAndGlyphs" textLength="97" x="529" y="278.9839">DealIdentification</text><text fill="#000000" font-family="sans-serif" font-size="11" font-style="italic" lengthAdjust="spacingAndGlyphs" textLength="70" x="630" y="278.9839">(Max35Text)</text><ellipse cx="520" cy="289.4805" fill="#84BE84" rx="3" ry="3" style="stroke: #038048; stroke-width: 1.0;"/><text fill="#000000" font-family="sans-serif" font-size="11" lengthAdjust="spacingAndGlyphs" textLength="145" x="529" y="291.7886">PartiallyExecutedIndicator</text><text fill="#000000" font-family="sans-serif" font-size="11" font-style="italic" lengthAdjust="spacingAndGlyphs" textLength="92" x="678" y="291.7886">(YesNoIndicator)</text><ellipse cx="520" cy="302.2852" fill="#84BE84" rx="3" ry="3" style="stroke: #038048; stroke-width: 1.0;"/><text fill="#000000" font-family="sans-serif" font-size="11" lengthAdjust="spacingAndGlyphs" textLength="113" x="529" y="304.5933">InterimProfitAmount</text><text fill="#000000" font-family="sans-serif" font-size="11" font-style="italic" lengthAdjust="spacingAndGlyphs" textLength="126" x="646" y="304.5933">(CurrencyAndAmount)</text><ellipse cx="520" cy="315.0898" fill="#84BE84" rx="3" ry="3" style="stroke: #038048; stroke-width: 1.0;"/><text fill="#000000" font-family="sans-serif" font-size="11" lengthAdjust="spacingAndGlyphs" textLength="80" x="529" y="317.3979">BestExecution</text><text fill="#000000" font-family="sans-serif" font-size="11" font-style="italic" lengthAdjust="spacingAndGlyphs" textLength="117" x="613" y="317.3979">(BestExecutionCode)</text><ellipse cx="520" cy="327.8945" fill="#84BE84" rx="3" ry="3" style="stroke: #038048; stroke-width: 1.0;"/><text fill="#000000" font-family="sans-serif" font-size="11" lengthAdjust="spacingAndGlyphs" textLength="140" x="529" y="330.2026">PartialSettlementOfUnits</text><text fill="#000000" font-family="sans-serif" font-size="11" font-style="italic" lengthAdjust="spacingAndGlyphs" textLength="98" x="673" y="330.2026">(PercentageRate)</text><ellipse cx="520" cy="340.6992" fill="#84BE84" rx="3" ry="3" style="stroke: #038048; stroke-width: 1.0;"/><text fill="#000000" font-family="sans-serif" font-size="11" lengthAdjust="spacingAndGlyphs" textLength="140" x="529" y="343.0073">PartialSettlementOfCash</text><text fill="#000000" font-family="sans-serif" font-size="11" font-style="italic" lengthAdjust="spacingAndGlyphs" textLength="98" x="673" y="343.0073">(PercentageRate)</text><ellipse cx="520" cy="353.5039" fill="#84BE84" rx="3" ry="3" style="stroke: #038048; stroke-width: 1.0;"/><text fill="#000000" font-family="sans-serif" font-size="11" lengthAdjust="spacingAndGlyphs" textLength="61" x="529" y="355.812">LateReport</text><text fill="#000000" font-family="sans-serif" font-size="11" font-style="italic" lengthAdjust="spacingAndGlyphs" textLength="99" x="594" y="355.812">(LateReportCode)</text><ellipse cx="520" cy="366.3086" fill="#84BE84" rx="3" ry="3" style="stroke: #038048; stroke-width: 1.0;"/><text fill="#000000" font-family="sans-serif" font-size="11" lengthAdjust="spacingAndGlyphs" textLength="89" x="529" y="368.6167">SettledIndicator</text><text fill="#000000" font-family="sans-serif" font-size="11" font-style="italic" lengthAdjust="spacingAndGlyphs" textLength="92" x="622" y="368.6167">(YesNoIndicator)</text><ellipse cx="520" cy="379.1133" fill="#84BE84" rx="3" ry="3" style="stroke: #038048; stroke-width: 1.0;"/><text fill="#000000" font-family="sans-serif" font-size="11" lengthAdjust="spacingAndGlyphs" textLength="110" x="529" y="381.4214">RegisteredIndicator</text><text fill="#000000" font-family="sans-serif" font-size="11" font-style="italic" lengthAdjust="spacingAndGlyphs" textLength="92" x="643" y="381.4214">(YesNoIndicator)</text><ellipse cx="520" cy="391.918" fill="#84BE84" rx="3" ry="3" style="stroke: #038048; stroke-width: 1.0;"/><text fill="#000000" font-family="sans-serif" font-size="11" lengthAdjust="spacingAndGlyphs" textLength="94" x="529" y="394.2261">ExecutedAmount</text><text fill="#000000" font-family="sans-serif" font-size="11" font-style="italic" lengthAdjust="spacingAndGlyphs" textLength="126" x="627" y="394.2261">(CurrencyAndAmount)</text><ellipse cx="520" cy="404.7227" fill="#84BE84" rx="3" ry="3" style="stroke: #038048; stroke-width: 1.0;"/><text fill="#000000" font-family="sans-serif" font-size="11" lengthAdjust="spacingAndGlyphs" textLength="82" x="529" y="407.0308">SourceOfCash</text><text fill="#000000" font-family="sans-serif" font-size="11" font-style="italic" lengthAdjust="spacingAndGlyphs" textLength="117" x="615" y="407.0308">(SourceOfCashCode)</text></a><!--class SecuritiesSettlement--><a target="_top" xlink:actuate="onRequest" xlink:href="../SecuritiesSettlement.html" xlink:show="new" xlink:title="Settlement of the securities in a securities transaction, that is, the instruction to deliver or receive securities, involving the payment of an amount of money or not." xlink:type="simple"><rect fill="#EEEEEE" filter="url(#fxbmwgugtj8jd)" height="23.9688" id="SecuritiesSettlement" style="stroke: #A80036; stroke-width: 1.5;" width="137" x="152.75" y="309"/><rect fill="#EEEEEE" height="23.9688" style="stroke: #A80036; stroke-width: 1.5;" width="137" x="152.75" y="309"/><text fill="#000000" font-family="sans-serif" font-size="12" lengthAdjust="spacingAndGlyphs" textLength="131" x="155.75" y="325.1387">SecuritiesSettlement</text></a><!--class SecuritiesPricing--><a target="_top" xlink:actuate="onRequest" xlink:href="../SecuritiesPricing.html" xlink:show="new" xlink:title="Characteristics related to the price of the security." xlink:type="simple"><rect fill="#EEEEEE" filter="url(#fxbmwgugtj8jd)" height="23.9688" id="SecuritiesPricing" style="stroke: #A80036; stroke-width: 1.5;" width="110" x="184" y="598"/><rect fill="#EEEEEE" height="23.9688" style="stroke: #A80036; stroke-width: 1.5;" width="110" x="184" y="598"/><text fill="#000000" font-family="sans-serif" font-size="12" lengthAdjust="spacingAndGlyphs" textLength="104" x="187" y="614.1387">SecuritiesPricing</text></a><!--class SecuritiesQuantity--><a target="_top" xlink:actuate="onRequest" xlink:href="../SecuritiesQuantity.html" xlink:show="new" xlink:title="Quantity of a security." xlink:type="simple"><rect fill="#EEEEEE" filter="url(#fxbmwgugtj8jd)" height="23.9688" id="SecuritiesQuantity" style="stroke: #A80036; stroke-width: 1.5;" width="120" x="118.5" y="494"/><rect fill="#EEEEEE" height="23.9688" style="stroke: #A80036; stroke-width: 1.5;" width="120" x="118.5" y="494"/><text fill="#000000" font-family="sans-serif" font-size="12" lengthAdjust="spacingAndGlyphs" textLength="114" x="121.5" y="510.1387">SecuritiesQuantity</text></a><!--class SecuritiesTrade--><a target="_top" xlink:actuate="onRequest" xlink:href="../SecuritiesTrade.html" xlink:show="new" xlink:title="Specifies trades linked to securities operations such as the exchange of securities, the lending of securities and the transactions related to investment funds." xlink:type="simple"><rect fill="#EEEEEE" filter="url(#fxbmwgugtj8jd)" height="23.9688" id="SecuritiesTrade" style="stroke: #A80036; stroke-width: 1.5;" width="104" x="187" y="700"/><rect fill="#EEEEEE" height="23.9688" style="stroke: #A80036; stroke-width: 1.5;" width="104" x="187" y="700"/><text fill="#000000" font-family="sans-serif" font-size="12" lengthAdjust="spacingAndGlyphs" textLength="98" x="190" y="716.1387">SecuritiesTrade</text></a><!--class PaymentObligation--><a target="_top" xlink:actuate="onRequest" xlink:href="../PaymentObligation.html" xlink:show="new" xlink:title="Obligation for the debtor to pay the creditor an amount of cash." xlink:type="simple"><rect fill="#EEEEEE" filter="url(#fxbmwgugtj8jd)" height="23.9688" id="PaymentObligation" style="stroke: #A80036; stroke-width: 1.5;" width="123" x="329.75" y="598"/><rect fill="#EEEEEE" height="23.9688" style="stroke: #A80036; stroke-width: 1.5;" width="123" x="329.75" y="598"/><text fill="#000000" font-family="sans-serif" font-size="12" lengthAdjust="spacingAndGlyphs" textLength="117" x="332.75" y="614.1387">PaymentObligation</text></a><!--class SecuritiesDeliveryObligation--><a target="_top" xlink:actuate="onRequest" xlink:href="../SecuritiesDeliveryObligation.html" xlink:show="new" xlink:title="Obligation for one party to deliver securities to another party." xlink:type="simple"><rect fill="#EEEEEE" filter="url(#fxbmwgugtj8jd)" height="23.9688" id="SecuritiesDeliveryObligation" style="stroke: #A80036; stroke-width: 1.5;" width="179" x="273.75" y="494"/><rect fill="#EEEEEE" height="23.9688" style="stroke: #A80036; stroke-width: 1.5;" width="179" x="273.75" y="494"/><text fill="#000000" font-family="sans-serif" font-size="12" lengthAdjust="spacingAndGlyphs" textLength="173" x="276.75" y="510.1387">SecuritiesDeliveryObligation</text></a><!--class InvestmentFundOrder--><a target="_top" xlink:actuate="onRequest" xlink:href="../InvestmentFundOrder.html" xlink:show="new" xlink:title="An investor's instruction to either subscribe or redeem an amount of money or its equivalent, for example other assets, into or out of an investment fund." xlink:type="simple"><rect fill="#EEEEEE" filter="url(#fxbmwgugtj8jd)" height="23.9688" id="InvestmentFundOrder" style="stroke: #A80036; stroke-width: 1.5;" width="141" x="1308.75" y="598"/><rect fill="#EEEEEE" height="23.9688" style="stroke: #A80036; stroke-width: 1.5;" width="141" x="1308.75" y="598"/><text fill="#000000" font-family="sans-serif" font-size="12" lengthAdjust="spacingAndGlyphs" textLength="135" x="1311.75" y="614.1387">InvestmentFundOrder</text></a><!--class InvestmentFundTransaction--><a target="_top" xlink:actuate="onRequest" xlink:href="../InvestmentFundTransaction.html" xlink:show="new" xlink:title="Process of buying, selling, switching or transferring fund units." xlink:type="simple"><rect fill="#EEEEEE" filter="url(#fxbmwgugtj8jd)" height="23.9688" id="InvestmentFundTransaction" style="stroke: #A80036; stroke-width: 1.5;" width="180" x="1407" y="700"/><rect fill="#EEEEEE" height="23.9688" style="stroke: #A80036; stroke-width: 1.5;" width="180" x="1407" y="700"/><text fill="#000000" font-family="sans-serif" font-size="12" lengthAdjust="spacingAndGlyphs" textLength="174" x="1410" y="716.1387">InvestmentFundTransaction</text></a><!--class FundsCashFlow--><a target="_top" xlink:actuate="onRequest" xlink:href="../FundsCashFlow.html" xlink:show="new" xlink:title="Cash movements from or to a fund as a result of investment funds transactions, for example, subscriptions or redemptions." xlink:type="simple"><rect fill="#EEEEEE" filter="url(#fxbmwgugtj8jd)" height="23.9688" id="FundsCashFlow" style="stroke: #A80036; stroke-width: 1.5;" width="102" x="1485.5" y="598"/><rect fill="#EEEEEE" height="23.9688" style="stroke: #A80036; stroke-width: 1.5;" width="102" x="1485.5" y="598"/><text fill="#000000" font-family="sans-serif" font-size="12" lengthAdjust="spacingAndGlyphs" textLength="96" x="1488.5" y="614.1387">FundsCashFlow</text></a><!--link SecuritiesTradeExecution to InvestmentFundOrderExecution--><path d="M672.387,169.803 C671.227,188.361 669.968,208.508 668.76,227.841 " fill="none" id="SecuritiesTradeExecution-InvestmentFundOrderExecution" style="stroke: #A80036; stroke-width: 1.0;"/><polygon fill="none" points="665.413,169.178,673.647,149.654,679.385,170.051,665.413,169.178" style="stroke: #A80036; stroke-width: 1.0;"/><!--link SecuritiesPricing to SecuritiesSettlement--><!--link SecuritiesQuantity to SecuritiesPricing--><!--link SecuritiesTrade to SecuritiesQuantity--><!--link SecuritiesQuantity to SecuritiesTrade--><path d="M165.483,518.39 C152.981,530.691 134.569,551.56 127,574 C120.182,594.214 117.727,602.787 127,622 C144.042,657.3105 182.657,682.9162 209.757,697.3585 " fill="none" id="SecuritiesQuantity-SecuritiesTrade" style="stroke: #A80036; stroke-width: 1.0;"/><polygon fill="#A80036" points="214.339,699.7526,208.215,692.0392,209.9076,697.4369,204.5099,699.1295,214.339,699.7526" style="stroke: #A80036; stroke-width: 1.0;"/><text fill="#000000" font-family="sans-serif" font-size="13" lengthAdjust="spacingAndGlyphs" textLength="36" x="128" y="614.0669">Trade</text><text fill="#000000" font-family="sans-serif" font-size="13" lengthAdjust="spacingAndGlyphs" textLength="24" x="176.8638" y="688.9741">0..1</text><!--link PaymentObligation to SecuritiesTrade--><!--link SecuritiesDeliveryObligation to PaymentObligation--><!--link InvestmentFundTransaction to InvestmentFundOrder--><!--link InvestmentFundOrder to InvestmentFundTransaction--><path d="M1371.75,622.088 C1364.42,634.829 1355.57,655.801 1366,670 C1375.53,682.9653 1389.14,691.9436 1404.02,698.1361 " fill="none" id="InvestmentFundOrder-InvestmentFundTransaction" style="stroke: #A80036; stroke-width: 1.0;"/><polygon fill="#A80036" points="1408.68,699.9698,1401.767,692.9548,1404.0265,698.1408,1398.8406,700.4003,1408.68,699.9698" style="stroke: #A80036; stroke-width: 1.0;"/><text fill="#000000" font-family="sans-serif" font-size="13" lengthAdjust="spacingAndGlyphs" textLength="122" x="1367" y="665.0669">RelatedTransaction</text><text fill="#000000" font-family="sans-serif" font-size="13" lengthAdjust="spacingAndGlyphs" textLength="24" x="1374.9728" y="694.2794">0..1</text><!--link FundsCashFlow to InvestmentFundTransaction--><!--link SecuritiesTradeExecution to SecuritiesSettlement--><path d="M568.066,149.511 C462.535,201.351 309.698,276.429 248.168,306.654 " fill="none" id="SecuritiesTradeExecution-SecuritiesSettlement" style="stroke: #A80036; stroke-width: 1.0;"/><polygon fill="#A80036" points="243.548,308.924,253.3896,308.5459,248.0357,306.7194,249.8623,301.3656,243.548,308.924" style="stroke: #A80036; stroke-width: 1.0;"/><text fill="#000000" font-family="sans-serif" font-size="13" lengthAdjust="spacingAndGlyphs" textLength="135" x="505" y="193.0669">SecuritiesSettlement</text><text fill="#000000" font-family="sans-serif" font-size="13" lengthAdjust="spacingAndGlyphs" textLength="7" x="241.6661" y="297.9461">*</text><!--link SecuritiesTradeExecution to SecuritiesPricing--><path d="M817.153,106.758 C976.808,122.265 1223.02,157.192 1280,228 C1338.52,300.711 1337.81,364.726 1280,438 C1128.56,629.942 987.53,535.117 745,566 C697.266,572.078 358.822,562.9 312,574 C293.938,578.282 275.083,587.461 261.061,595.345 " fill="none" id="SecuritiesTradeExecution-SecuritiesPricing" style="stroke: #A80036; stroke-width: 1.0;"/><polygon fill="#A80036" points="256.499,597.96,266.2966,596.9566,260.8374,595.4744,262.3196,590.0152,256.499,597.96" style="stroke: #A80036; stroke-width: 1.0;"/><text fill="#000000" font-family="sans-serif" font-size="13" lengthAdjust="spacingAndGlyphs" textLength="60" x="1275" y="459.0669">DealPrice</text><text fill="#000000" font-family="sans-serif" font-size="13" lengthAdjust="spacingAndGlyphs" textLength="8" x="251.7955" y="586.9945">1</text><!--link SecuritiesTradeExecution to SecuritiesQuantity--><path d="M766.997,149.593 C793.613,170.426 819.492,196.848 834,228 C873.403,312.608 896.734,368.894 834,438 C790.631,485.774 320.072,486.382 256,494 C251.705,494.511 247.281,495.063 242.826,495.639 " fill="none" id="SecuritiesTradeExecution-SecuritiesQuantity" style="stroke: #A80036; stroke-width: 1.0;"/><polygon fill="#A80036" points="237.586,496.325,247.0289,499.1236,242.5437,495.6763,245.991,491.1912,237.586,496.325" style="stroke: #A80036; stroke-width: 1.0;"/><text fill="#000000" font-family="sans-serif" font-size="13" lengthAdjust="spacingAndGlyphs" textLength="149" x="874" y="325.0669">ExecutedTradeQuantity</text><text fill="#000000" font-family="sans-serif" font-size="13" lengthAdjust="spacingAndGlyphs" textLength="7" x="246.3872" y="489.8476">*</text><!--link SecuritiesTradeExecution to SecuritiesTrade--><path d="M817.152,102.016 C998.063,111.523 1301.66,133.89 1403,180 C1629.04,282.846 1981.23,389.04 1807,566 C1796.96,576.195 1306.27,572.964 1292,574 C909.794,601.741 454.017,674.7581 296.141,701.2342 " fill="none" id="SecuritiesTradeExecution-SecuritiesTrade" style="stroke: #A80036; stroke-width: 1.0;"/><polygon fill="#A80036" points="291.104,702.0801,300.6417,704.5361,296.0351,701.2529,299.3183,696.6463,291.104,702.0801" style="stroke: #A80036; stroke-width: 1.0;"/><text fill="#000000" font-family="sans-serif" font-size="13" lengthAdjust="spacingAndGlyphs" textLength="84" x="1852" y="510.0669">RelatedTrade</text><text fill="#000000" font-family="sans-serif" font-size="13" lengthAdjust="spacingAndGlyphs" textLength="8" x="298.9936" y="695.5682">1</text><!--link SecuritiesTradeExecution to PaymentObligation--><path d="M817.005,103.201 C1008.62,114.512 1333.06,139.435 1369,180 C1445.04,265.828 1421.03,335.819 1369,438 C1325.11,524.19 1284.15,533.637 1193,566 C1124.65,590.269 637.59,603.494 457.617,607.595 " fill="none" id="SecuritiesTradeExecution-PaymentObligation" style="stroke: #A80036; stroke-width: 1.0;"/><polygon fill="#A80036" points="452.382,607.713,461.4711,611.5062,457.3807,607.5987,461.2882,603.5083,452.382,607.713" style="stroke: #A80036; stroke-width: 1.0;"/><text fill="#000000" font-family="sans-serif" font-size="13" lengthAdjust="spacingAndGlyphs" textLength="121" x="1365" y="459.0669">PaymentObligation</text><text fill="#000000" font-family="sans-serif" font-size="13" lengthAdjust="spacingAndGlyphs" textLength="7" x="460.663" y="602.4083">*</text><!--link SecuritiesTradeExecution to SecuritiesDeliveryObligation--><path d="M817.317,107.177 C898.79,121.717 995.274,154.526 1047,228 C1100.73,304.318 1109.7,368.861 1047,438 C1027.46,459.55 640.629,487.155 457.536,499.079 " fill="none" id="SecuritiesTradeExecution-SecuritiesDeliveryObligation" style="stroke: #A80036; stroke-width: 1.0;"/><polygon fill="#A80036" points="452.446,499.41,461.6865,502.8179,457.4355,499.0857,461.1677,494.8348,452.446,499.41" style="stroke: #A80036; stroke-width: 1.0;"/><text fill="#000000" font-family="sans-serif" font-size="13" lengthAdjust="spacingAndGlyphs" textLength="178" x="1092" y="325.0669">SecuritiesDeliveryObligation</text><text fill="#000000" font-family="sans-serif" font-size="13" lengthAdjust="spacingAndGlyphs" textLength="7" x="460.7017" y="494.1402">*</text><!--link InvestmentFundOrderExecution to SecuritiesQuantity--><path d="M515.482,414.05 C500,422.547 484.32,430.695 469,438 C438.667,452.464 430.408,455.113 398,464 C346.588,478.098 287.087,488.862 242.937,495.816 " fill="none" id="InvestmentFundOrderExecution-SecuritiesQuantity" style="stroke: #A80036; stroke-width: 1.0;"/><polygon fill="#A80036" points="237.903,496.603,247.4131,499.1638,242.8429,495.8302,246.1766,491.26,237.903,496.603" style="stroke: #A80036; stroke-width: 1.0;"/><text fill="#000000" font-family="sans-serif" font-size="13" lengthAdjust="spacingAndGlyphs" textLength="85" x="453" y="459.0669">UnitsNumber</text><text fill="#000000" font-family="sans-serif" font-size="13" lengthAdjust="spacingAndGlyphs" textLength="8" x="246.4228" y="508.426">1</text><!--link InvestmentFundOrderExecution to InvestmentFundOrder--><path d="M774.468,414.07 C790.942,423.79 808.34,432.22 826,438 C841.023,442.917 1383.9,434.744 1395,446 C1434.39,485.947 1403.56,561.137 1387.35,593.519 " fill="none" id="InvestmentFundOrderExecution-InvestmentFundOrder" style="stroke: #A80036; stroke-width: 1.0;"/><polygon fill="#A80036" points="1385.08,597.977,1392.7335,591.7783,1387.3525,593.5233,1385.6076,588.1423,1385.08,597.977" style="stroke: #A80036; stroke-width: 1.0;"/><text fill="#000000" font-family="sans-serif" font-size="13" lengthAdjust="spacingAndGlyphs" textLength="36" x="1416" y="510.0669">Order</text><text fill="#000000" font-family="sans-serif" font-size="13" lengthAdjust="spacingAndGlyphs" textLength="24" x="1357.6153" y="587.0173">0..1</text><!--link InvestmentFundOrderExecution to SecuritiesPricing--><path d="M761.139,414.428 C784.224,447.211 796.994,484.319 777,518 C754.258,556.309 732.05,554.535 689,566 C608.026,587.565 393.51,554.558 312,574 C293.944,578.307 275.089,587.485 261.065,595.362 " fill="none" id="InvestmentFundOrderExecution-SecuritiesPricing" style="stroke: #A80036; stroke-width: 1.0;"/><polygon fill="#A80036" points="256.503,597.975,266.3009,596.974,260.842,595.4905,262.3256,590.0316,256.503,597.975" style="stroke: #A80036; stroke-width: 1.0;"/><text fill="#000000" font-family="sans-serif" font-size="13" lengthAdjust="spacingAndGlyphs" textLength="126" x="787" y="510.0669">ExecutedTradePrice</text><text fill="#000000" font-family="sans-serif" font-size="13" lengthAdjust="spacingAndGlyphs" textLength="8" x="263.8947" y="587.0146">1</text><!--link InvestmentFundOrderExecution to SecuritiesPricing--><path d="M594.948,414.117 C580.322,431.51 564.326,448.947 548,464 C462.92,542.443 418.819,529.485 312,574 C296.148,580.606 278.798,588.879 264.991,595.724 " fill="none" id="InvestmentFundOrderExecution-SecuritiesPricing" style="stroke: #A80036; stroke-width: 1.0;"/><polygon fill="#A80036" points="260.452,597.985,270.2913,597.5516,264.9273,595.7552,266.7237,590.3912,260.452,597.985" style="stroke: #A80036; stroke-width: 1.0;"/><text fill="#000000" font-family="sans-serif" font-size="13" lengthAdjust="spacingAndGlyphs" textLength="103" x="512" y="510.0669">InformativePrice</text><text fill="#000000" font-family="sans-serif" font-size="13" lengthAdjust="spacingAndGlyphs" textLength="8" x="269.2011" y="587.0281">1</text><!--link InvestmentFundOrderExecution to InvestmentFundTransaction--><path d="M774.459,414.097 C790.934,423.813 808.335,432.235 826,438 C860.121,449.135 1436.84,438.786 1472,446 C1526.66,457.214 1552.83,450.682 1588,494 C1624.1,538.469 1627.2,570.085 1603,622 C1586.85,656.6507 1549.83,682.6069 1524.12,697.2922 " fill="none" id="InvestmentFundOrderExecution-InvestmentFundTransaction" style="stroke: #A80036; stroke-width: 1.0;"/><polygon fill="#A80036" points="1519.46,699.9027,1529.267,698.9955,1523.8226,697.4598,1525.3583,692.0154,1519.46,699.9027" style="stroke: #A80036; stroke-width: 1.0;"/><text fill="#000000" font-family="sans-serif" font-size="13" lengthAdjust="spacingAndGlyphs" textLength="177" x="1620" y="561.0669">InvestmentFundTransaction</text><text fill="#000000" font-family="sans-serif" font-size="13" lengthAdjust="spacingAndGlyphs" textLength="24" x="1497.7119" y="688.9175">0..1</text><!--link InvestmentFundOrderExecution to FundsCashFlow--><path d="M774.464,414.082 C790.938,423.801 808.337,432.227 826,438 C857.739,448.374 1396.11,433.313 1427,446 C1487.48,470.841 1505.93,488.487 1533,548 C1539.38,562.019 1539.48,579.767 1538.38,592.499 " fill="none" id="InvestmentFundOrderExecution-FundsCashFlow" style="stroke: #A80036; stroke-width: 1.0;"/><polygon fill="#A80036" points="1537.85,597.624,1542.7573,589.0848,1538.3659,592.6507,1534.8,588.2593,1537.85,597.624" style="stroke: #A80036; stroke-width: 1.0;"/><text fill="#000000" font-family="sans-serif" font-size="13" lengthAdjust="spacingAndGlyphs" textLength="59" x="1519" y="510.0669">CashFlow</text><text fill="#000000" font-family="sans-serif" font-size="13" lengthAdjust="spacingAndGlyphs" textLength="7" x="1528.8459" y="587.0628">*</text><!--link SecuritiesSettlement to SecuritiesQuantity--><path d="M228.625,333.171 C244.747,358.311 278.78,420.527 253,464 C245.585,476.505 232.861,485.443 219.978,491.713 " fill="none" id="SecuritiesSettlement-SecuritiesQuantity" style="stroke: #A80036; stroke-width: 1.0;"/><polygon fill="#A80036" points="215.234,493.904,225.0818,493.7612,219.7731,491.8073,221.727,486.4986,215.234,493.904" style="stroke: #A80036; stroke-width: 1.0;"/><text fill="#000000" font-family="sans-serif" font-size="13" lengthAdjust="spacingAndGlyphs" textLength="126" x="262" y="459.0669">SettlementQuantity</text><text fill="#000000" font-family="sans-serif" font-size="13" lengthAdjust="spacingAndGlyphs" textLength="8" x="217.1426" y="482.9192">1</text><!--link SecuritiesSettlement to SecuritiesQuantity--><path d="M210.918,333.244 C193.224,353.822 157.206,399.699 144,446 C141.806,453.693 141.286,456.475 144,464 C147.547,473.835 154.593,482.98 161.355,490.126 " fill="none" id="SecuritiesSettlement-SecuritiesQuantity" style="stroke: #A80036; stroke-width: 1.0;"/><polygon fill="#A80036" points="165.059,493.882,161.5904,484.6641,161.5493,490.3208,155.8926,490.2797,165.059,493.882" style="stroke: #A80036; stroke-width: 1.0;"/><text fill="#000000" font-family="sans-serif" font-size="13" lengthAdjust="spacingAndGlyphs" textLength="98" x="145" y="459.0669">TurnedQuantity</text><text fill="#000000" font-family="sans-serif" font-size="13" lengthAdjust="spacingAndGlyphs" textLength="8" x="149.7199" y="482.8897">1</text><!--link SecuritiesPricing to SecuritiesTrade--><path d="M239,622.084 C239,639.729 239,674.2968 239,694.745 " fill="none" id="SecuritiesPricing-SecuritiesTrade" style="stroke: #A80036; stroke-width: 1.0;"/><polygon fill="#A80036" points="239,699.8665,243,690.8665,239,694.8665,235,690.8665,239,699.8665" style="stroke: #A80036; stroke-width: 1.0;"/><text fill="#000000" font-family="sans-serif" font-size="13" lengthAdjust="spacingAndGlyphs" textLength="99" x="240" y="665.0669">SecuritiesTrade</text><text fill="#000000" font-family="sans-serif" font-size="13" lengthAdjust="spacingAndGlyphs" textLength="24" x="243.125" y="688.8688">0..1</text><!--link SecuritiesQuantity to InvestmentFundOrder--><path d="M237.575,515.772 C243.79,516.576 250.019,517.337 256,518 C649.402,561.64 1122.54,593.147 1303.55,604.436 " fill="none" id="SecuritiesQuantity-InvestmentFundOrder" style="stroke: #A80036; stroke-width: 1.0;"/><polygon fill="#A80036" points="1308.56,604.748,1299.8292,600.1902,1303.5699,604.4337,1299.3264,608.1744,1308.56,604.748" style="stroke: #A80036; stroke-width: 1.0;"/><text fill="#000000" font-family="sans-serif" font-size="13" lengthAdjust="spacingAndGlyphs" textLength="36" x="750" y="561.0669">Order</text><text fill="#000000" font-family="sans-serif" font-size="13" lengthAdjust="spacingAndGlyphs" textLength="8" x="1292.8189" y="599.5974">1</text><!--link SecuritiesQuantity to FundsCashFlow--><path d="M237.553,515.985 C243.773,516.748 250.009,517.44 256,518 C524.009,543.044 1205.52,506.115 1466,574 C1483.25,578.495 1501.2,587.572 1514.6,595.356 " fill="none" id="SecuritiesQuantity-FundsCashFlow" style="stroke: #A80036; stroke-width: 1.0;"/><polygon fill="#A80036" points="1518.97,597.938,1513.2558,589.9163,1514.6651,595.3948,1509.1866,596.8041,1518.97,597.938" style="stroke: #A80036; stroke-width: 1.0;"/><text fill="#000000" font-family="sans-serif" font-size="13" lengthAdjust="spacingAndGlyphs" textLength="107" x="1416" y="561.0669">RelatedCashFlow</text><text fill="#000000" font-family="sans-serif" font-size="13" lengthAdjust="spacingAndGlyphs" textLength="8" x="1502.2253" y="586.9649">1</text></g></svg>