<?xml version="1.0" encoding="UTF-8" standalone="no"?><svg xmlns="http://www.w3.org/2000/svg" xmlns:xlink="http://www.w3.org/1999/xlink" contentScriptType="application/ecmascript" contentStyleType="text/css" height="602px" preserveAspectRatio="none" style="width:1048px;height:602px;" version="1.1" viewBox="0 0 1048 602" width="1048px" zoomAndPan="magnify"><defs><filter height="300%" id="f50w8tulelgli" width="300%" x="-1" y="-1"><feGaussianBlur result="blurOut" stdDeviation="2.0"/><feColorMatrix in="blurOut" result="blurOut2" type="matrix" values="0 0 0 0 0 0 0 0 0 0 0 0 0 0 0 0 0 0 .4 0"/><feOffset dx="4.0" dy="4.0" in="blurOut2" result="blurOut3"/><feBlend in="SourceGraphic" in2="blurOut3" mode="normal"/></filter></defs><g><!--cluster ##11282--><!--cluster ##11288--><!--class InvestigationCase--><a target="_top" xlink:actuate="onRequest" xlink:href="../InvestigationCase.html" xlink:show="new" xlink:title="Set of activities performed to handle an exception to a normal transaction flow.." xlink:type="simple"><rect fill="#FEFECE" filter="url(#f50w8tulelgli)" height="70.3828" id="InvestigationCase" style="stroke: #A80036; stroke-width: 1.5;" width="239" x="37.75" y="40"/><rect fill="#FEFECE" height="23.9688" style="stroke: #A80036; stroke-width: 1.5;" width="239" x="37.75" y="40"/><text fill="#000000" font-family="sans-serif" font-size="12" lengthAdjust="spacingAndGlyphs" textLength="111" x="101.75" y="56.1387">InvestigationCase</text><line style="stroke: #A80036; stroke-width: 1.5;" x1="38.75" x2="275.75" y1="63.9688" y2="63.9688"/><ellipse cx="48.75" cy="75.8711" fill="#84BE84" rx="3" ry="3" style="stroke: #038048; stroke-width: 1.0;"/><text fill="#000000" font-family="sans-serif" font-size="11" lengthAdjust="spacingAndGlyphs" textLength="139" x="57.75" y="78.1792">AssignmentIdentification</text><text fill="#000000" font-family="sans-serif" font-size="11" font-style="italic" lengthAdjust="spacingAndGlyphs" textLength="70" x="200.75" y="78.1792">(Max35Text)</text><ellipse cx="48.75" cy="88.6758" fill="#84BE84" rx="3" ry="3" style="stroke: #038048; stroke-width: 1.0;"/><text fill="#000000" font-family="sans-serif" font-size="11" lengthAdjust="spacingAndGlyphs" textLength="102" x="57.75" y="90.9839">CreationDateTime</text><text fill="#000000" font-family="sans-serif" font-size="11" font-style="italic" lengthAdjust="spacingAndGlyphs" textLength="81" x="163.75" y="90.9839">(ISODateTime)</text><ellipse cx="48.75" cy="101.4805" fill="#84BE84" rx="3" ry="3" style="stroke: #038048; stroke-width: 1.0;"/><text fill="#000000" font-family="sans-serif" font-size="11" lengthAdjust="spacingAndGlyphs" textLength="72" x="57.75" y="103.7886">Identification</text><text fill="#000000" font-family="sans-serif" font-size="11" font-style="italic" lengthAdjust="spacingAndGlyphs" textLength="70" x="133.75" y="103.7886">(Max35Text)</text></a><!--class PaymentInvestigationCase--><a target="_top" xlink:actuate="onRequest" xlink:href="../PaymentInvestigationCase.html" xlink:show="new" xlink:title="Set of activities performed to handle an exception to a normal payment transaction flow, such as: - a payment has not been received. - a payment has been received but is incorrect. - a payment must be corrected or cancelled (requested by the party which ordered the payment)." xlink:type="simple"><rect fill="#FEFEEE" filter="url(#f50w8tulelgli)" height="23.9688" id="PaymentInvestigationCase" style="stroke: #A80036; stroke-width: 1.5;" width="171" x="71.75" y="190"/><rect fill="#FEFEEE" height="23.9688" style="stroke: #A80036; stroke-width: 1.5;" width="171" x="71.75" y="190"/><text fill="#000000" font-family="sans-serif" font-size="12" lengthAdjust="spacingAndGlyphs" textLength="165" x="74.75" y="206.1387">PaymentInvestigationCase</text></a><!--class InvestigationCaseStatus--><a target="_top" xlink:actuate="onRequest" xlink:href="../InvestigationCaseStatus.html" xlink:show="new" xlink:title="Status of an investigation case." xlink:type="simple"><rect fill="#EEEEEE" filter="url(#f50w8tulelgli)" height="23.9688" id="InvestigationCaseStatus" style="stroke: #A80036; stroke-width: 1.5;" width="158" x="525.5" y="568"/><rect fill="#EEEEEE" height="23.9688" style="stroke: #A80036; stroke-width: 1.5;" width="158" x="525.5" y="568"/><text fill="#000000" font-family="sans-serif" font-size="12" lengthAdjust="spacingAndGlyphs" textLength="152" x="528.5" y="584.1387">InvestigationCaseStatus</text></a><!--class InvestigationPartyRole--><a target="_top" xlink:actuate="onRequest" xlink:href="../InvestigationPartyRole.html" xlink:show="new" xlink:title="Role played by a party in the context of an investigation process." xlink:type="simple"><rect fill="#EEEEEE" filter="url(#f50w8tulelgli)" height="23.9688" id="InvestigationPartyRole" style="stroke: #A80036; stroke-width: 1.5;" width="145" x="531.75" y="482"/><rect fill="#EEEEEE" height="23.9688" style="stroke: #A80036; stroke-width: 1.5;" width="145" x="531.75" y="482"/><text fill="#000000" font-family="sans-serif" font-size="12" lengthAdjust="spacingAndGlyphs" textLength="139" x="534.75" y="498.1387">InvestigationPartyRole</text></a><!--class DuplicateCase--><a target="_top" xlink:actuate="onRequest" xlink:href="../DuplicateCase.html" xlink:show="new" xlink:title="Outcome that results in closing a case as duplicate because the same issue has been reported by another party." xlink:type="simple"><rect fill="#EEEEEE" filter="url(#f50w8tulelgli)" height="23.9688" id="DuplicateCase" style="stroke: #A80036; stroke-width: 1.5;" width="96" x="554" y="396"/><rect fill="#EEEEEE" height="23.9688" style="stroke: #A80036; stroke-width: 1.5;" width="96" x="554" y="396"/><text fill="#000000" font-family="sans-serif" font-size="12" lengthAdjust="spacingAndGlyphs" textLength="90" x="557" y="412.1387">DuplicateCase</text></a><!--class InvestigationResolution--><a target="_top" xlink:actuate="onRequest" xlink:href="../InvestigationResolution.html" xlink:show="new" xlink:title="Specifies the actions taken as a result of an investigation." xlink:type="simple"><rect fill="#EEEEEE" filter="url(#f50w8tulelgli)" height="23.9688" id="InvestigationResolution" style="stroke: #A80036; stroke-width: 1.5;" width="152" x="526" y="294"/><rect fill="#EEEEEE" height="23.9688" style="stroke: #A80036; stroke-width: 1.5;" width="152" x="526" y="294"/><text fill="#000000" font-family="sans-serif" font-size="12" lengthAdjust="spacingAndGlyphs" textLength="146" x="529" y="310.1387">InvestigationResolution</text></a><!--class Reassignment--><a target="_top" xlink:actuate="onRequest" xlink:href="../Reassignment.html" xlink:show="new" xlink:title="Action that consists in forwarding an investigation case assignment to another party which becomes the new assignee." xlink:type="simple"><rect fill="#EEEEEE" filter="url(#f50w8tulelgli)" height="23.9688" id="Reassignment" style="stroke: #A80036; stroke-width: 1.5;" width="95" x="525.75" y="190"/><rect fill="#EEEEEE" height="23.9688" style="stroke: #A80036; stroke-width: 1.5;" width="95" x="525.75" y="190"/><text fill="#000000" font-family="sans-serif" font-size="12" lengthAdjust="spacingAndGlyphs" textLength="89" x="528.75" y="206.1387">Reassignment</text></a><!--link InvestigationCase to PaymentInvestigationCase--><path d="M157,130.298 C157,152.58 157,176.279 157,189.797 " fill="none" id="InvestigationCase-PaymentInvestigationCase" style="stroke: #A80036; stroke-width: 1.0;"/><polygon fill="none" points="150,130.157,157,110.157,164,130.157,150,130.157" style="stroke: #A80036; stroke-width: 1.0;"/><!--link InvestigationPartyRole to InvestigationCaseStatus--><!--link DuplicateCase to InvestigationPartyRole--><!--link InvestigationResolution to DuplicateCase--><!--link Reassignment to InvestigationResolution--><!--link InvestigationCase to InvestigationCaseStatus--><path d="M252.601,110.231 C289.502,130.074 323,159.512 323,201 C323,201 323,201 323,495 C323,536.5406 437.155,559.252 519.946,570.2611 " fill="none" id="InvestigationCase-InvestigationCaseStatus" style="stroke: #A80036; stroke-width: 1.0;"/><polygon fill="#A80036" points="525.352,570.9693,516.9484,565.8332,520.3944,570.3193,515.9084,573.7654,525.352,570.9693" style="stroke: #A80036; stroke-width: 1.0;"/><text fill="#000000" font-family="sans-serif" font-size="13" lengthAdjust="spacingAndGlyphs" textLength="42" x="324" y="361.0669">Status</text><text fill="#000000" font-family="sans-serif" font-size="13" lengthAdjust="spacingAndGlyphs" textLength="7" x="510.4249" y="565.5912">*</text><!--link InvestigationCase to InvestigationPartyRole--><path d="M276.641,84.192 C485.354,100.103 894,139.152 894,201 C894,201 894,201 894,409 C894,453.326 767.42,475.747 681.515,485.859 " fill="none" id="InvestigationCase-InvestigationPartyRole" style="stroke: #A80036; stroke-width: 1.0;"/><polygon fill="#A80036" points="676.431,486.449,685.8326,489.3832,681.3976,485.8718,684.909,481.4367,676.431,486.449" style="stroke: #A80036; stroke-width: 1.0;"/><text fill="#000000" font-family="sans-serif" font-size="13" lengthAdjust="spacingAndGlyphs" textLength="141" x="895" y="310.0669">InvestigationPartyRole</text><text fill="#000000" font-family="sans-serif" font-size="13" lengthAdjust="spacingAndGlyphs" textLength="7" x="684.7086" y="480.7693">*</text><!--link InvestigationCase to DuplicateCase--><path d="M276.372,100.506 C302.249,109.803 328.094,122.552 349,140 C397.256,180.273 376.164,216.219 417,264 C465.787,321.085 540.661,370.336 578.45,393.27 " fill="none" id="InvestigationCase-DuplicateCase" style="stroke: #A80036; stroke-width: 1.0;"/><polygon fill="#A80036" points="582.87,395.935,577.2267,387.8632,578.5877,393.3539,573.097,394.7149,582.87,395.935" style="stroke: #A80036; stroke-width: 1.0;"/><text fill="#000000" font-family="sans-serif" font-size="13" lengthAdjust="spacingAndGlyphs" textLength="158" x="418" y="259.0669">DuplicateCaseResolution</text><text fill="#000000" font-family="sans-serif" font-size="13" lengthAdjust="spacingAndGlyphs" textLength="24" x="546.8253" y="384.9609">0..1</text><!--link InvestigationCase to InvestigationResolution--><path d="M276.349,79.295 C406.049,85.941 599.957,105.937 638,166 C663.092,205.616 631.868,262.067 613.544,289.219 " fill="none" id="InvestigationCase-InvestigationResolution" style="stroke: #A80036; stroke-width: 1.0;"/><polygon fill="#A80036" points="610.507,293.628,618.9055,288.4835,613.3425,289.5098,612.3163,283.9468,610.507,293.628" style="stroke: #A80036; stroke-width: 1.0;"/><text fill="#000000" font-family="sans-serif" font-size="13" lengthAdjust="spacingAndGlyphs" textLength="147" x="648" y="206.0669">InvestigationResolution</text><text fill="#000000" font-family="sans-serif" font-size="13" lengthAdjust="spacingAndGlyphs" textLength="7" x="603.8343" y="282.8082">*</text><!--link InvestigationCase to InvestigationCase--><path d="M276.455,62.047 C296.862,63.817 311,68.135 311,75 C311,81.275 299.187,85.422 281.572,87.44 " fill="none" id="InvestigationCase-InvestigationCase" style="stroke: #A80036; stroke-width: 1.0;"/><polygon fill="#A80036" points="276.455,87.953,285.8091,91.0355,281.4301,87.4543,285.0112,83.0754,276.455,87.953" style="stroke: #A80036; stroke-width: 1.0;"/><text fill="#000000" font-family="sans-serif" font-size="13" lengthAdjust="spacingAndGlyphs" textLength="161" x="317" y="79.0669">OriginalInvestigationCase</text><text fill="#000000" font-family="sans-serif" font-size="13" lengthAdjust="spacingAndGlyphs" textLength="7" x="284.6992" y="84.3107">*</text><!--link InvestigationCase to Reassignment--><path d="M276.508,98.714 C325.561,109.324 382.563,123.32 433,140 C473.69,153.456 518.813,174.241 546.548,187.733 " fill="none" id="InvestigationCase-Reassignment" style="stroke: #A80036; stroke-width: 1.0;"/><polygon fill="#A80036" points="551.183,189.999,544.8543,182.4527,546.691,187.803,541.3407,189.6398,551.183,189.999" style="stroke: #A80036; stroke-width: 1.0;"/><text fill="#000000" font-family="sans-serif" font-size="13" lengthAdjust="spacingAndGlyphs" textLength="91" x="482" y="153.0669">Reassignment</text><text fill="#000000" font-family="sans-serif" font-size="13" lengthAdjust="spacingAndGlyphs" textLength="24" x="514.1287" y="179.0469">0..1</text></g></svg>