<?xml version="1.0" encoding="UTF-8" standalone="no"?><svg xmlns="http://www.w3.org/2000/svg" xmlns:xlink="http://www.w3.org/1999/xlink" contentScriptType="application/ecmascript" contentStyleType="text/css" height="1036px" preserveAspectRatio="none" style="width:1220px;height:1036px;" version="1.1" viewBox="0 0 1220 1036" width="1220px" zoomAndPan="magnify"><defs><filter height="300%" id="f1w9yyi8hh2h6r" width="300%" x="-1" y="-1"><feGaussianBlur result="blurOut" stdDeviation="2.0"/><feColorMatrix in="blurOut" result="blurOut2" type="matrix" values="0 0 0 0 0 0 0 0 0 0 0 0 0 0 0 0 0 0 .4 0"/><feOffset dx="4.0" dy="4.0" in="blurOut2" result="blurOut3"/><feBlend in="SourceGraphic" in2="blurOut3" mode="normal"/></filter></defs><g><!--cluster ##2656--><!--cluster ##2668--><!--cluster ##2677--><!--cluster ##2680--><!--cluster ##2689--><!--class Agreement--><a target="_top" xlink:actuate="onRequest" xlink:href="../Agreement.html" xlink:show="new" xlink:title="Contractual details related to an agreement between parties." xlink:type="simple"><rect fill="#FEFEEE" filter="url(#f1w9yyi8hh2h6r)" height="70.3828" id="Agreement" style="stroke: #A80036; stroke-width: 1.5;" width="171" x="612.714" y="40"/><rect fill="#FEFEEE" height="23.9688" style="stroke: #A80036; stroke-width: 1.5;" width="171" x="612.714" y="40"/><text fill="#000000" font-family="sans-serif" font-size="12" lengthAdjust="spacingAndGlyphs" textLength="69" x="663.714" y="56.1387">Agreement</text><line style="stroke: #A80036; stroke-width: 1.5;" x1="613.714" x2="782.714" y1="63.9688" y2="63.9688"/><ellipse cx="623.714" cy="75.8711" fill="#84BE84" rx="3" ry="3" style="stroke: #038048; stroke-width: 1.0;"/><text fill="#000000" font-family="sans-serif" font-size="11" lengthAdjust="spacingAndGlyphs" textLength="65" x="632.714" y="78.1792">DateSigned</text><text fill="#000000" font-family="sans-serif" font-size="11" font-style="italic" lengthAdjust="spacingAndGlyphs" textLength="53" x="701.714" y="78.1792">(ISODate)</text><ellipse cx="623.714" cy="88.6758" fill="#84BE84" rx="3" ry="3" style="stroke: #038048; stroke-width: 1.0;"/><text fill="#000000" font-family="sans-serif" font-size="11" lengthAdjust="spacingAndGlyphs" textLength="64" x="632.714" y="90.9839">Description</text><text fill="#000000" font-family="sans-serif" font-size="11" font-style="italic" lengthAdjust="spacingAndGlyphs" textLength="77" x="700.714" y="90.9839">(Max350Text)</text><ellipse cx="623.714" cy="101.4805" fill="#84BE84" rx="3" ry="3" style="stroke: #038048; stroke-width: 1.0;"/><text fill="#000000" font-family="sans-serif" font-size="11" lengthAdjust="spacingAndGlyphs" textLength="43" x="632.714" y="103.7886">Version</text><text fill="#000000" font-family="sans-serif" font-size="11" font-style="italic" lengthAdjust="spacingAndGlyphs" textLength="70" x="679.714" y="103.7886">(Max35Text)</text></a><!--class Contract--><a target="_top" xlink:actuate="onRequest" xlink:href="../Contract.html" xlink:show="new" xlink:title="Document that contains the information of the contract agreed between both parties." xlink:type="simple"><rect fill="#FEFEEE" filter="url(#f1w9yyi8hh2h6r)" height="23.9688" id="Contract" style="stroke: #A80036; stroke-width: 1.5;" width="60" x="822.464" y="190"/><rect fill="#FEFEEE" height="23.9688" style="stroke: #A80036; stroke-width: 1.5;" width="60" x="822.464" y="190"/><text fill="#000000" font-family="sans-serif" font-size="12" lengthAdjust="spacingAndGlyphs" textLength="54" x="825.464" y="206.1387">Contract</text></a><!--class AccountContract--><a target="_top" xlink:actuate="onRequest" xlink:href="../AccountContract.html" xlink:show="new" xlink:title="Agreement between an account servicer and an account owner about the services linked to an account." xlink:type="simple"><rect fill="#FEFEEE" filter="url(#f1w9yyi8hh2h6r)" height="108.7969" id="AccountContract" style="stroke: #A80036; stroke-width: 1.5;" width="292" x="611.964" y="292.5"/><rect fill="#FEFEEE" height="23.9688" style="stroke: #A80036; stroke-width: 1.5;" width="292" x="611.964" y="292.5"/><text fill="#000000" font-family="sans-serif" font-size="12" lengthAdjust="spacingAndGlyphs" textLength="105" x="705.464" y="308.6387">AccountContract</text><line style="stroke: #A80036; stroke-width: 1.5;" x1="612.964" x2="902.964" y1="316.4688" y2="316.4688"/><ellipse cx="622.964" cy="328.3711" fill="#84BE84" rx="3" ry="3" style="stroke: #038048; stroke-width: 1.0;"/><text fill="#000000" font-family="sans-serif" font-size="11" lengthAdjust="spacingAndGlyphs" textLength="105" x="631.964" y="330.6792">TargetClosingDate</text><text fill="#000000" font-family="sans-serif" font-size="11" font-style="italic" lengthAdjust="spacingAndGlyphs" textLength="81" x="740.964" y="330.6792">(ISODateTime)</text><ellipse cx="622.964" cy="341.1758" fill="#84BE84" rx="3" ry="3" style="stroke: #038048; stroke-width: 1.0;"/><text fill="#000000" font-family="sans-serif" font-size="11" lengthAdjust="spacingAndGlyphs" textLength="69" x="631.964" y="343.4839">UrgencyFlag</text><text fill="#000000" font-family="sans-serif" font-size="11" font-style="italic" lengthAdjust="spacingAndGlyphs" textLength="112" x="704.964" y="343.4839">(TrueFalseIndicator)</text><ellipse cx="622.964" cy="353.9805" fill="#84BE84" rx="3" ry="3" style="stroke: #038048; stroke-width: 1.0;"/><text fill="#000000" font-family="sans-serif" font-size="11" lengthAdjust="spacingAndGlyphs" textLength="97" x="631.964" y="356.2886">RemovalIndicator</text><text fill="#000000" font-family="sans-serif" font-size="11" font-style="italic" lengthAdjust="spacingAndGlyphs" textLength="92" x="732.964" y="356.2886">(YesNoIndicator)</text><ellipse cx="622.964" cy="366.7852" fill="#84BE84" rx="3" ry="3" style="stroke: #038048; stroke-width: 1.0;"/><text fill="#000000" font-family="sans-serif" font-size="11" lengthAdjust="spacingAndGlyphs" textLength="101" x="631.964" y="369.0933">TargetGoLiveDate</text><text fill="#000000" font-family="sans-serif" font-size="11" font-style="italic" lengthAdjust="spacingAndGlyphs" textLength="81" x="736.964" y="369.0933">(ISODateTime)</text><ellipse cx="622.964" cy="379.5898" fill="#84BE84" rx="3" ry="3" style="stroke: #038048; stroke-width: 1.0;"/><text fill="#000000" font-family="sans-serif" font-size="11" lengthAdjust="spacingAndGlyphs" textLength="72" x="631.964" y="381.8979">RequestDate</text><text fill="#000000" font-family="sans-serif" font-size="11" font-style="italic" lengthAdjust="spacingAndGlyphs" textLength="81" x="707.964" y="381.8979">(ISODateTime)</text><ellipse cx="622.964" cy="392.3945" fill="#84BE84" rx="3" ry="3" style="stroke: #038048; stroke-width: 1.0;"/><text fill="#000000" font-family="sans-serif" font-size="11" lengthAdjust="spacingAndGlyphs" textLength="113" x="631.964" y="394.7026">TransactionChannel</text><text fill="#000000" font-family="sans-serif" font-size="11" font-style="italic" lengthAdjust="spacingAndGlyphs" textLength="149" x="748.964" y="394.7026">(TransactionChannelCode)</text></a><!--class InvestmentAccountContract--><a target="_top" xlink:actuate="onRequest" xlink:href="../InvestmentAccountContract.html" xlink:show="new" xlink:title="Contract defining the related investment account." xlink:type="simple"><rect fill="#FEFECE" filter="url(#f1w9yyi8hh2h6r)" height="57.5781" id="InvestmentAccountContract" style="stroke: #A80036; stroke-width: 1.5;" width="260" x="643.964" y="480"/><rect fill="#FEFECE" height="23.9688" style="stroke: #A80036; stroke-width: 1.5;" width="260" x="643.964" y="480"/><text fill="#000000" font-family="sans-serif" font-size="12" lengthAdjust="spacingAndGlyphs" textLength="174" x="686.964" y="496.1387">InvestmentAccountContract</text><line style="stroke: #A80036; stroke-width: 1.5;" x1="644.964" x2="902.964" y1="503.9688" y2="503.9688"/><ellipse cx="654.964" cy="515.8711" fill="#84BE84" rx="3" ry="3" style="stroke: #038048; stroke-width: 1.0;"/><text fill="#000000" font-family="sans-serif" font-size="11" lengthAdjust="spacingAndGlyphs" textLength="122" x="663.964" y="518.1792">LetterIntentReference</text><text fill="#000000" font-family="sans-serif" font-size="11" font-style="italic" lengthAdjust="spacingAndGlyphs" textLength="70" x="789.964" y="518.1792">(Max35Text)</text><ellipse cx="654.964" cy="528.6758" fill="#84BE84" rx="3" ry="3" style="stroke: #038048; stroke-width: 1.0;"/><text fill="#000000" font-family="sans-serif" font-size="11" lengthAdjust="spacingAndGlyphs" textLength="160" x="663.964" y="530.9839">AccumulationRightReference</text><text fill="#000000" font-family="sans-serif" font-size="11" font-style="italic" lengthAdjust="spacingAndGlyphs" textLength="70" x="827.964" y="530.9839">(Max35Text)</text></a><!--class DateTimePeriod--><a target="_top" xlink:actuate="onRequest" xlink:href="../DateTimePeriod.html" xlink:show="new" xlink:title="Time span defined by a start date and time, and an end date and time." xlink:type="simple"><rect fill="#EEEEEE" filter="url(#f1w9yyi8hh2h6r)" height="23.9688" id="DateTimePeriod" style="stroke: #A80036; stroke-width: 1.5;" width="105" x="450.714" y="335"/><rect fill="#EEEEEE" height="23.9688" style="stroke: #A80036; stroke-width: 1.5;" width="105" x="450.714" y="335"/><text fill="#000000" font-family="sans-serif" font-size="12" lengthAdjust="spacingAndGlyphs" textLength="99" x="453.714" y="351.1387">DateTimePeriod</text></a><!--class Document--><a target="_top" xlink:actuate="onRequest" xlink:href="../Document.html" xlink:show="new" xlink:title="General information that unambiguously identifies a document, such as identification number and issue date time." xlink:type="simple"><rect fill="#EEEEEE" filter="url(#f1w9yyi8hh2h6r)" height="23.9688" id="Document" style="stroke: #A80036; stroke-width: 1.5;" width="70" x="448.964" y="190"/><rect fill="#EEEEEE" height="23.9688" style="stroke: #A80036; stroke-width: 1.5;" width="70" x="448.964" y="190"/><text fill="#000000" font-family="sans-serif" font-size="12" lengthAdjust="spacingAndGlyphs" textLength="64" x="451.964" y="206.1387">Document</text></a><!--class CommercialTrade--><a target="_top" xlink:actuate="onRequest" xlink:href="../CommercialTrade.html" xlink:show="new" xlink:title="Commercial details of a trade transaction between a buyer and a seller." xlink:type="simple"><rect fill="#EEEEEE" filter="url(#f1w9yyi8hh2h6r)" height="23.9688" id="CommercialTrade" style="stroke: #A80036; stroke-width: 1.5;" width="114" x="300.964" y="335"/><rect fill="#EEEEEE" height="23.9688" style="stroke: #A80036; stroke-width: 1.5;" width="114" x="300.964" y="335"/><text fill="#000000" font-family="sans-serif" font-size="12" lengthAdjust="spacingAndGlyphs" textLength="108" x="303.964" y="351.1387">CommercialTrade</text></a><!--class Jurisdiction--><a target="_top" xlink:actuate="onRequest" xlink:href="../Jurisdiction.html" xlink:show="new" xlink:title="Specifies the jurisdiction (country, county, state, province, city)." xlink:type="simple"><rect fill="#EEEEEE" filter="url(#f1w9yyi8hh2h6r)" height="23.9688" id="Jurisdiction" style="stroke: #A80036; stroke-width: 1.5;" width="74" x="320.964" y="190"/><rect fill="#EEEEEE" height="23.9688" style="stroke: #A80036; stroke-width: 1.5;" width="74" x="320.964" y="190"/><text fill="#000000" font-family="sans-serif" font-size="12" lengthAdjust="spacingAndGlyphs" textLength="68" x="323.964" y="206.1387">Jurisdiction</text></a><!--class MasterAgreement--><a target="_top" xlink:actuate="onRequest" xlink:href="../MasterAgreement.html" xlink:show="new" xlink:title="Agreement which defines the framework of a contract between two trading parties in different domains such as collateral, derivatives, trade.." xlink:type="simple"><rect fill="#EEEEEE" filter="url(#f1w9yyi8hh2h6r)" height="23.9688" id="MasterAgreement" style="stroke: #A80036; stroke-width: 1.5;" width="118" x="959.964" y="335"/><rect fill="#EEEEEE" height="23.9688" style="stroke: #A80036; stroke-width: 1.5;" width="118" x="959.964" y="335"/><text fill="#000000" font-family="sans-serif" font-size="12" lengthAdjust="spacingAndGlyphs" textLength="112" x="962.964" y="351.1387">MasterAgreement</text></a><!--class AccountService--><a target="_top" xlink:actuate="onRequest" xlink:href="../AccountService.html" xlink:show="new" xlink:title="Services linked to an account which are available to the account owner or to the holder of a mandate." xlink:type="simple"><rect fill="#EEEEEE" filter="url(#f1w9yyi8hh2h6r)" height="23.9688" id="AccountService" style="stroke: #A80036; stroke-width: 1.5;" width="102" x="49.4635" y="618"/><rect fill="#EEEEEE" height="23.9688" style="stroke: #A80036; stroke-width: 1.5;" width="102" x="49.4635" y="618"/><text fill="#000000" font-family="sans-serif" font-size="12" lengthAdjust="spacingAndGlyphs" textLength="96" x="52.4635" y="634.1387">AccountService</text></a><!--class Account--><a target="_top" xlink:actuate="onRequest" xlink:href="../Account.html" xlink:show="new" xlink:title="Record of transactions in specific types of assets, maintained by a servicing party on behalf of one or more owning parties. Business relationship between an account servicer and one or more account owners." xlink:type="simple"><rect fill="#EEEEEE" filter="url(#f1w9yyi8hh2h6r)" height="23.9688" id="Account" style="stroke: #A80036; stroke-width: 1.5;" width="57" x="61.7135" y="722"/><rect fill="#EEEEEE" height="23.9688" style="stroke: #A80036; stroke-width: 1.5;" width="57" x="61.7135" y="722"/><text fill="#000000" font-family="sans-serif" font-size="12" lengthAdjust="spacingAndGlyphs" textLength="51" x="64.7135" y="738.1387">Account</text></a><!--class Interest--><a target="_top" xlink:actuate="onRequest" xlink:href="../Interest.html" xlink:show="new" xlink:title="Consideration, such as amount of money,  paid or received in exchange for an asset that has been invested, loaned or borrowed for a certain period. The interest is expressed as a fixed amount or percentage of the amount upon which the interest is applied." xlink:type="simple"><rect fill="#EEEEEE" filter="url(#f1w9yyi8hh2h6r)" height="23.9688" id="Interest" style="stroke: #A80036; stroke-width: 1.5;" width="55" x="186.714" y="618"/><rect fill="#EEEEEE" height="23.9688" style="stroke: #A80036; stroke-width: 1.5;" width="55" x="186.714" y="618"/><text fill="#000000" font-family="sans-serif" font-size="12" lengthAdjust="spacingAndGlyphs" textLength="49" x="189.714" y="634.1387">Interest</text></a><!--class Mandate--><a target="_top" xlink:actuate="onRequest" xlink:href="../Mandate.html" xlink:show="new" xlink:title="Authorisation given by an issuing party to a holder party to act on the issuer's behalf." xlink:type="simple"><rect fill="#EEEEEE" filter="url(#f1w9yyi8hh2h6r)" height="23.9688" id="Mandate" style="stroke: #A80036; stroke-width: 1.5;" width="61" x="47.7135" y="497"/><rect fill="#EEEEEE" height="23.9688" style="stroke: #A80036; stroke-width: 1.5;" width="61" x="47.7135" y="497"/><text fill="#000000" font-family="sans-serif" font-size="12" lengthAdjust="spacingAndGlyphs" textLength="55" x="50.7135" y="513.1387">Mandate</text></a><!--class InvestmentAccount--><a target="_top" xlink:actuate="onRequest" xlink:href="../InvestmentAccount.html" xlink:show="new" xlink:title="Account between an investor(s) and a fund manager or a fund. The account can contain holdings in any investment fund or investment fund class managed (or distributed) by the fund manager, within the same fund family." xlink:type="simple"><rect fill="#EEEEEE" filter="url(#f1w9yyi8hh2h6r)" height="23.9688" id="InvestmentAccount" style="stroke: #A80036; stroke-width: 1.5;" width="126" x="833.964" y="1002"/><rect fill="#EEEEEE" height="23.9688" style="stroke: #A80036; stroke-width: 1.5;" width="126" x="833.964" y="1002"/><text fill="#000000" font-family="sans-serif" font-size="12" lengthAdjust="spacingAndGlyphs" textLength="120" x="836.964" y="1018.1387">InvestmentAccount</text></a><!--class InvestmentAccountService--><a target="_top" xlink:actuate="onRequest" xlink:href="../InvestmentAccountService.html" xlink:show="new" xlink:title="Services linked to an account which are available to the account owner or to the holder of a mandate. The exercise of these services may be submitted to a limit." xlink:type="simple"><rect fill="#EEEEEE" filter="url(#f1w9yyi8hh2h6r)" height="23.9688" id="InvestmentAccountService" style="stroke: #A80036; stroke-width: 1.5;" width="171" x="828.714" y="916"/><rect fill="#EEEEEE" height="23.9688" style="stroke: #A80036; stroke-width: 1.5;" width="171" x="828.714" y="916"/><text fill="#000000" font-family="sans-serif" font-size="12" lengthAdjust="spacingAndGlyphs" textLength="165" x="831.714" y="932.1387">InvestmentAccountService</text></a><!--class ManagedAccountProduct--><a target="_top" xlink:actuate="onRequest" xlink:href="../ManagedAccountProduct.html" xlink:show="new" xlink:title="Product which provides guidance to investors to manage their portfolios." xlink:type="simple"><rect fill="#EEEEEE" filter="url(#f1w9yyi8hh2h6r)" height="23.9688" id="ManagedAccountProduct" style="stroke: #A80036; stroke-width: 1.5;" width="164" x="831.964" y="830"/><rect fill="#EEEEEE" height="23.9688" style="stroke: #A80036; stroke-width: 1.5;" width="164" x="831.964" y="830"/><text fill="#000000" font-family="sans-serif" font-size="12" lengthAdjust="spacingAndGlyphs" textLength="158" x="834.964" y="846.1387">ManagedAccountProduct</text></a><!--link Agreement to Contract--><path d="M755.654,122.827 C785.563,147.104 819.628,174.753 838.162,189.797 " fill="none" id="Agreement-Contract" style="stroke: #A80036; stroke-width: 1.0;"/><polygon fill="none" points="751.162,128.196,740.045,110.157,759.985,117.326,751.162,128.196" style="stroke: #A80036; stroke-width: 1.0;"/><!--link Contract to AccountContract--><path d="M833.45,231.164 C821.978,248.616 806.871,271.598 793.187,292.415 " fill="none" id="Contract-AccountContract" style="stroke: #A80036; stroke-width: 1.0;"/><polygon fill="none" points="827.752,227.088,844.588,214.221,839.451,234.779,827.752,227.088" style="stroke: #A80036; stroke-width: 1.0;"/><!--link AccountContract to InvestmentAccountContract--><path d="M765.355,421.919 C767.413,442.498 769.525,463.617 771.142,479.786 " fill="none" id="AccountContract-InvestmentAccountContract" style="stroke: #A80036; stroke-width: 1.0;"/><polygon fill="none" points="758.361,422.32,763.336,401.723,772.291,420.927,758.361,422.32" style="stroke: #A80036; stroke-width: 1.0;"/><!--link Document to DateTimePeriod--><!--link CommercialTrade to Document--><!--link Document to CommercialTrade--><path d="M448.658,209.691 C415.293,216.816 368.777,229.109 357.964,244 C339.564,269.336 346.582,308.336 352.684,330.036 " fill="none" id="Document-CommercialTrade" style="stroke: #A80036; stroke-width: 1.0;"/><polygon fill="#A80036" points="354.12,334.905,355.4109,325.1411,352.7057,330.1092,347.7376,327.404,354.12,334.905" style="stroke: #A80036; stroke-width: 1.0;"/><text fill="#000000" font-family="sans-serif" font-size="13" lengthAdjust="spacingAndGlyphs" textLength="113" x="358.964" y="257.0669">CommercialTrade</text><text fill="#000000" font-family="sans-serif" font-size="13" lengthAdjust="spacingAndGlyphs" textLength="7" x="343.2518" y="323.9206">*</text><!--link Jurisdiction to CommercialTrade--><!--link Account to AccountService--><!--link AccountService to Account--><path d="M98.8552,642.306 C97.0813,660.399 93.5972,695.936 91.5567,716.75 " fill="none" id="AccountService-Account" style="stroke: #A80036; stroke-width: 1.0;"/><polygon fill="#A80036" points="91.0465,721.954,95.9068,713.3879,91.5351,716.9779,87.9451,712.6062,91.0465,721.954" style="stroke: #A80036; stroke-width: 1.0;"/><text fill="#000000" font-family="sans-serif" font-size="13" lengthAdjust="spacingAndGlyphs" textLength="52" x="96.9635" y="685.0669">Account</text><text fill="#000000" font-family="sans-serif" font-size="13" lengthAdjust="spacingAndGlyphs" textLength="8" x="80.6141" y="710.9864">1</text><!--link Interest to Account--><!--link Mandate to Interest--><!--link InvestmentAccountService to InvestmentAccount--><!--link ManagedAccountProduct to InvestmentAccountService--><!--link Agreement to DateTimePeriod--><path d="M688.528,110.012 C676.327,149.582 652.127,215.428 614.964,262 C590.701,292.404 553.003,317.623 528.15,332.256 " fill="none" id="Agreement-DateTimePeriod" style="stroke: #A80036; stroke-width: 1.0;"/><polygon fill="#A80036" points="523.665,334.864,533.4559,333.7968,527.9871,332.3502,529.4337,326.8814,523.665,334.864" style="stroke: #A80036; stroke-width: 1.0;"/><text fill="#000000" font-family="sans-serif" font-size="13" lengthAdjust="spacingAndGlyphs" textLength="86" x="667.964" y="206.0669">ValidityPeriod</text><text fill="#000000" font-family="sans-serif" font-size="13" lengthAdjust="spacingAndGlyphs" textLength="7" x="521.1482" y="323.8655">*</text><!--link Agreement to Document--><path d="M612.557,81.83 C570.465,89.27 522.521,105.426 492.964,140 C482.524,152.211 481.231,171.07 481.949,184.585 " fill="none" id="Agreement-Document" style="stroke: #A80036; stroke-width: 1.0;"/><polygon fill="#A80036" points="482.325,189.656,485.6508,180.3857,481.9565,184.6696,477.6725,180.9753,482.325,189.656" style="stroke: #A80036; stroke-width: 1.0;"/><text fill="#000000" font-family="sans-serif" font-size="13" lengthAdjust="spacingAndGlyphs" textLength="67" x="493.964" y="153.0669">Document</text><text fill="#000000" font-family="sans-serif" font-size="13" lengthAdjust="spacingAndGlyphs" textLength="8" x="471.1258" y="178.8455">1</text><!--link Agreement to CommercialTrade--><path d="M660.147,110.37 C601.234,163.906 494.113,261.213 492.964,262 C468.361,278.84 458.477,276.573 432.964,292 C412.632,304.293 390.728,320.432 375.873,331.855 " fill="none" id="Agreement-CommercialTrade" style="stroke: #A80036; stroke-width: 1.0;"/><polygon fill="#A80036" points="371.877,334.945,381.4437,332.6043,375.8325,331.8866,376.5502,326.2754,371.877,334.945" style="stroke: #A80036; stroke-width: 1.0;"/><text fill="#000000" font-family="sans-serif" font-size="13" lengthAdjust="spacingAndGlyphs" textLength="36" x="596.964" y="206.0669">Trade</text><text fill="#000000" font-family="sans-serif" font-size="13" lengthAdjust="spacingAndGlyphs" textLength="8" x="365.9408" y="323.9743">1</text><!--link Agreement to Jurisdiction--><path d="M612.56,79.232 C550.74,85.07 467.421,100.434 404.964,140 C387.511,151.056 374.003,170.991 366.036,185.058 " fill="none" id="Agreement-Jurisdiction" style="stroke: #A80036; stroke-width: 1.0;"/><polygon fill="#A80036" points="363.549,189.582,371.389,183.621,365.9571,185.2001,364.378,179.7681,363.549,189.582" style="stroke: #A80036; stroke-width: 1.0;"/><text fill="#000000" font-family="sans-serif" font-size="13" lengthAdjust="spacingAndGlyphs" textLength="68" x="405.964" y="153.0669">Jurisdiction</text><text fill="#000000" font-family="sans-serif" font-size="13" lengthAdjust="spacingAndGlyphs" textLength="24" x="336.1855" y="179.0074">0..1</text><!--link Contract to MasterAgreement--><path d="M865.068,214.221 C895.066,239.908 968.705,302.964 1002.058,331.524 " fill="none" id="Contract-MasterAgreement" style="stroke: #A80036; stroke-width: 1.0;"/><polygon fill="#A80036" points="1005.92,334.831,1001.6874,325.938,1002.1228,331.5781,996.4827,332.0135,1005.92,334.831" style="stroke: #A80036; stroke-width: 1.0;"/><text fill="#000000" font-family="sans-serif" font-size="13" lengthAdjust="spacingAndGlyphs" textLength="116" x="920.964" y="257.0669">MasterAgreement</text><text fill="#000000" font-family="sans-serif" font-size="13" lengthAdjust="spacingAndGlyphs" textLength="7" x="991.8893" y="323.8211">*</text><!--link AccountContract to AccountService--><path d="M611.838,390.741 C598.367,394.585 584.919,398.387 571.964,402 C457.629,433.882 408.579,399.329 313.964,471 C276.475,499.397 295.447,531.135 259.964,562 C228.886,589.032 185.345,606.304 151.529,616.529 " fill="none" id="AccountContract-AccountService" style="stroke: #A80036; stroke-width: 1.0;"/><polygon fill="#A80036" points="146.613,617.987,156.3789,619.2629,151.4066,616.5653,154.1042,611.5931,146.613,617.987" style="stroke: #A80036; stroke-width: 1.0;"/><text fill="#000000" font-family="sans-serif" font-size="13" lengthAdjust="spacingAndGlyphs" textLength="99" x="314.964" y="513.0669">AccountService</text><text fill="#000000" font-family="sans-serif" font-size="13" lengthAdjust="spacingAndGlyphs" textLength="8" x="151.7581" y="607.0307">1</text><!--link AccountContract to Account--><path d="M694.495,401.688 C671.949,422.24 647.172,446.622 626.964,471 C596.355,507.924 606.463,532.1 568.964,562 C428.108,674.311 207.533,716.217 123.766,728.604 " fill="none" id="AccountContract-Account" style="stroke: #A80036; stroke-width: 1.0;"/><polygon fill="#A80036" points="118.449,729.378,127.9311,732.0405,123.3969,728.6581,126.7793,724.1239,118.449,729.378" style="stroke: #A80036; stroke-width: 1.0;"/><text fill="#000000" font-family="sans-serif" font-size="13" lengthAdjust="spacingAndGlyphs" textLength="52" x="556.964" y="583.0669">Account</text><text fill="#000000" font-family="sans-serif" font-size="13" lengthAdjust="spacingAndGlyphs" textLength="7" x="126.5812" y="722.1034">*</text><!--link AccountContract to Interest--><path d="M623.841,401.527 C603.723,410.937 583.52,421.202 564.964,432 C539.994,446.53 534.682,451.951 512.964,471 C470.433,508.303 472.113,532.302 423.964,562 C366.842,597.232 289.432,615.635 246.337,623.733 " fill="none" id="AccountContract-Interest" style="stroke: #A80036; stroke-width: 1.0;"/><polygon fill="#A80036" points="241.255,624.669,250.8313,626.9698,246.172,623.7619,249.3799,619.1026,241.255,624.669" style="stroke: #A80036; stroke-width: 1.0;"/><text fill="#000000" font-family="sans-serif" font-size="13" lengthAdjust="spacingAndGlyphs" textLength="49" x="513.964" y="513.0669">Interest</text><text fill="#000000" font-family="sans-serif" font-size="13" lengthAdjust="spacingAndGlyphs" textLength="7" x="249.8447" y="616.869">*</text><!--link AccountContract to Mandate--><path d="M611.937,393.533 C598.507,396.768 585.039,399.667 571.964,402 C478.975,418.594 233.077,391.037 147.964,432 C120.546,445.195 98.7294,474.271 87.1289,492.389 " fill="none" id="AccountContract-Mandate" style="stroke: #A80036; stroke-width: 1.0;"/><polygon fill="#A80036" points="84.4025,496.743,92.5685,491.2369,87.0556,492.5049,85.7876,486.992,84.4025,496.743" style="stroke: #A80036; stroke-width: 1.0;"/><text fill="#000000" font-family="sans-serif" font-size="13" lengthAdjust="spacingAndGlyphs" textLength="137" x="148.964" y="445.0669">AccountAuthorisation</text><text fill="#000000" font-family="sans-serif" font-size="13" lengthAdjust="spacingAndGlyphs" textLength="7" x="76.962" y="485.9613">*</text><!--link InvestmentAccountContract to InvestmentAccount--><path d="M727.909,538.078 C699.697,559.139 668.964,590.84 668.964,629 C668.964,629 668.964,629 668.964,929 C668.964,963.3809 761.401,988.0349 828.56,1001.4099 " fill="none" id="InvestmentAccountContract-InvestmentAccount" style="stroke: #A80036; stroke-width: 1.0;"/><polygon fill="#A80036" points="833.756,1002.4322,825.698,996.7692,828.8501,1001.4665,824.1529,1004.6186,833.756,1002.4322" style="stroke: #A80036; stroke-width: 1.0;"/><text fill="#000000" font-family="sans-serif" font-size="13" lengthAdjust="spacingAndGlyphs" textLength="124" x="669.964" y="793.0669">InvestmentAccount</text><text fill="#000000" font-family="sans-serif" font-size="13" lengthAdjust="spacingAndGlyphs" textLength="7" x="818.7736" y="996.4381">*</text><!--link InvestmentAccountContract to InvestmentAccountService--><path d="M904.206,525.852 C1014.21,542.996 1153.96,575.337 1153.96,629 C1153.96,629 1153.96,629 1153.96,843 C1153.96,878.081 1061.46,901.98 991.307,915.059 " fill="none" id="InvestmentAccountContract-InvestmentAccountService" style="stroke: #A80036; stroke-width: 1.0;"/><polygon fill="#A80036" points="986.297,915.983,995.8727,918.2865,991.2143,915.0773,994.4235,910.4188,986.297,915.983" style="stroke: #A80036; stroke-width: 1.0;"/><text fill="#000000" font-family="sans-serif" font-size="13" lengthAdjust="spacingAndGlyphs" textLength="54" x="1154.96" y="738.0669">Services</text><text fill="#000000" font-family="sans-serif" font-size="13" lengthAdjust="spacingAndGlyphs" textLength="7" x="1001.5287" y="905.0254">*</text><!--link InvestmentAccountContract to ManagedAccountProduct--><path d="M809.735,538.059 C863.234,582.573 961.871,675.145 999.964,780 C1008.25,802.823 984.861,818.373 960.393,828.058 " fill="none" id="InvestmentAccountContract-ManagedAccountProduct" style="stroke: #A80036; stroke-width: 1.0;"/><polygon fill="#A80036" points="955.494,829.918,965.3277,830.4647,960.1687,828.1441,962.4894,822.9852,955.494,829.918" style="stroke: #A80036; stroke-width: 1.0;"/><text fill="#000000" font-family="sans-serif" font-size="13" lengthAdjust="spacingAndGlyphs" textLength="106" x="951.964" y="685.0669">ModeledAccount</text><text fill="#000000" font-family="sans-serif" font-size="13" lengthAdjust="spacingAndGlyphs" textLength="8" x="959.0512" y="818.938">1</text><!--link DateTimePeriod to Account--><path d="M492.154,359.401 C479.202,372.238 456.199,392.536 431.964,402 C347.533,434.97 78.8996,394.706 29.9635,471 C-11.0693,534.973 8.95,569.257 30.9635,642 C39.9126,671.572 61.6305,700.622 76.0708,717.67 " fill="none" id="DateTimePeriod-Account" style="stroke: #A80036; stroke-width: 1.0;"/><polygon fill="#A80036" points="79.5731,721.738,76.7337,712.3073,76.3114,717.9484,70.6703,717.5261,79.5731,721.738" style="stroke: #A80036; stroke-width: 1.0;"/><text fill="#000000" font-family="sans-serif" font-size="13" lengthAdjust="spacingAndGlyphs" textLength="52" x="15.9636" y="583.0669">Account</text><text fill="#000000" font-family="sans-serif" font-size="13" lengthAdjust="spacingAndGlyphs" textLength="24" x="46.7422" y="710.9547">0..1</text><!--link Account to Account--><path d="M118.472,724.938 C136.145,722.753 152.964,725.773 152.964,734 C152.964,741.391 139.387,744.58 123.813,743.567 " fill="none" id="Account-Account" style="stroke: #A80036; stroke-width: 1.0;"/><polygon fill="#A80036" points="118.472,743.062,127.0562,747.8902,123.4499,743.5319,127.8081,739.9256,118.472,743.062" style="stroke: #A80036; stroke-width: 1.0;"/><text fill="#000000" font-family="sans-serif" font-size="13" lengthAdjust="spacingAndGlyphs" textLength="94" x="158.964" y="738.0669">ParentAccount</text><text fill="#000000" font-family="sans-serif" font-size="13" lengthAdjust="spacingAndGlyphs" textLength="8" x="126.7382" y="759.3939">1</text><!--link Account to ManagedAccountProduct--><path d="M118.264,735.241 C233.297,736.461 665.909,743.436 796.964,780 C801.84,781.361 855.788,809.938 888.7,827.489 " fill="none" id="Account-ManagedAccountProduct" style="stroke: #A80036; stroke-width: 1.0;"/><polygon fill="#A80036" points="893.395,829.994,887.3363,822.2292,888.9833,827.641,883.5715,829.288,893.395,829.994" style="stroke: #A80036; stroke-width: 1.0;"/><text fill="#000000" font-family="sans-serif" font-size="13" lengthAdjust="spacingAndGlyphs" textLength="160" x="831.964" y="793.0669">ManagedAccountProduct</text><text fill="#000000" font-family="sans-serif" font-size="13" lengthAdjust="spacingAndGlyphs" textLength="8" x="875.6057" y="819.0402">1</text><!--link Mandate to Mandate--><path d="M108.389,496.998 C126.247,494.441 142.964,498.441 142.964,509 C142.964,518.569 129.235,522.752 113.368,521.548 " fill="none" id="Mandate-Mandate" style="stroke: #A80036; stroke-width: 1.0;"/><polygon fill="#A80036" points="108.389,521.002,116.8986,525.9604,113.3591,521.5477,117.7718,518.0082,108.389,521.002" style="stroke: #A80036; stroke-width: 1.0;"/><text fill="#000000" font-family="sans-serif" font-size="13" lengthAdjust="spacingAndGlyphs" textLength="104" x="148.964" y="513.0669">OriginalMandate</text><text fill="#000000" font-family="sans-serif" font-size="13" lengthAdjust="spacingAndGlyphs" textLength="8" x="109.7732" y="541.1473">1</text></g></svg>