<?xml version="1.0" encoding="UTF-8" standalone="no"?><svg xmlns="http://www.w3.org/2000/svg" xmlns:xlink="http://www.w3.org/1999/xlink" contentScriptType="application/ecmascript" contentStyleType="text/css" height="484px" preserveAspectRatio="none" style="width:1121px;height:484px;" version="1.1" viewBox="0 0 1121 484" width="1121px" zoomAndPan="magnify"><defs><filter height="300%" id="fgfqa981bma8v" width="300%" x="-1" y="-1"><feGaussianBlur result="blurOut" stdDeviation="2.0"/><feColorMatrix in="blurOut" result="blurOut2" type="matrix" values="0 0 0 0 0 0 0 0 0 0 0 0 0 0 0 0 0 0 .4 0"/><feOffset dx="4.0" dy="4.0" in="blurOut2" result="blurOut3"/><feBlend in="SourceGraphic" in2="blurOut3" mode="normal"/></filter></defs><g><!--cluster ##4489--><!--cluster ##4498--><!--cluster ##4507--><!--class Role--><a target="_top" xlink:actuate="onRequest" xlink:href="../Role.html" xlink:show="new" xlink:title="Role of a party in an activity." xlink:type="simple"><rect fill="#FEFEEE" filter="url(#fgfqa981bma8v)" height="44.7734" id="Role" style="stroke: #A80036; stroke-width: 1.5;" width="175" x="38.75" y="40.5"/><rect fill="#FEFEEE" height="23.9688" style="stroke: #A80036; stroke-width: 1.5;" width="175" x="38.75" y="40.5"/><text fill="#000000" font-family="sans-serif" font-size="12" lengthAdjust="spacingAndGlyphs" textLength="27" x="112.75" y="56.6387">Role</text><line style="stroke: #A80036; stroke-width: 1.5;" x1="39.75" x2="212.75" y1="64.4688" y2="64.4688"/><ellipse cx="49.75" cy="76.3711" fill="#84BE84" rx="3" ry="3" style="stroke: #038048; stroke-width: 1.0;"/><text fill="#000000" font-family="sans-serif" font-size="11" lengthAdjust="spacingAndGlyphs" textLength="53" x="58.75" y="78.6792">PartyRole</text><text fill="#000000" font-family="sans-serif" font-size="11" font-style="italic" lengthAdjust="spacingAndGlyphs" textLength="92" x="115.75" y="78.6792">(PartyRoleCode)</text></a><!--class InvestmentFundPartyRole--><a target="_top" xlink:actuate="onRequest" xlink:href="../InvestmentFundPartyRole.html" xlink:show="new" xlink:title="Specifies roles played by a party that are linked to the handling of investment funds but not related to a specific process." xlink:type="simple"><rect fill="#FEFECE" filter="url(#fgfqa981bma8v)" height="23.9688" id="InvestmentFundPartyRole" style="stroke: #A80036; stroke-width: 1.5;" width="165" x="48.75" y="166"/><rect fill="#FEFECE" height="23.9688" style="stroke: #A80036; stroke-width: 1.5;" width="165" x="48.75" y="166"/><text fill="#000000" font-family="sans-serif" font-size="12" lengthAdjust="spacingAndGlyphs" textLength="159" x="51.75" y="182.1387">InvestmentFundPartyRole</text></a><!--class FundOrderDesk--><a target="_top" xlink:actuate="onRequest" xlink:href="../FundOrderDesk.html" xlink:show="new" xlink:title="Principal entity appointed by the fund to which orders should be submitted." xlink:type="simple"><rect fill="#FEFEEE" filter="url(#fgfqa981bma8v)" height="23.9688" id="FundOrderDesk" style="stroke: #A80036; stroke-width: 1.5;" width="103" x="79.75" y="270"/><rect fill="#FEFEEE" height="23.9688" style="stroke: #A80036; stroke-width: 1.5;" width="103" x="79.75" y="270"/><text fill="#000000" font-family="sans-serif" font-size="12" lengthAdjust="spacingAndGlyphs" textLength="97" x="82.75" y="286.1387">FundOrderDesk</text></a><!--class RolePlayer--><a target="_top" xlink:actuate="onRequest" xlink:href="../RolePlayer.html" xlink:show="new" xlink:title="Type of entity that plays a specific role in a specific context." xlink:type="simple"><rect fill="#EEEEEE" filter="url(#fgfqa981bma8v)" height="23.9688" id="RolePlayer" style="stroke: #A80036; stroke-width: 1.5;" width="71" x="696.75" y="450"/><rect fill="#EEEEEE" height="23.9688" style="stroke: #A80036; stroke-width: 1.5;" width="71" x="696.75" y="450"/><text fill="#000000" font-family="sans-serif" font-size="12" lengthAdjust="spacingAndGlyphs" textLength="65" x="699.75" y="466.1387">RolePlayer</text></a><!--class ContactPersonRole--><a target="_top" xlink:actuate="onRequest" xlink:href="../ContactPersonRole.html" xlink:show="new" xlink:title="Person to be contacted in a given organisation. In the corporate action domain (including meeting notifications) , it is the contact person at the party organising the meeting, at the issuer or at an intermediary." xlink:type="simple"><rect fill="#EEEEEE" filter="url(#fgfqa981bma8v)" height="23.9688" id="ContactPersonRole" style="stroke: #A80036; stroke-width: 1.5;" width="126" x="649" y="360"/><rect fill="#EEEEEE" height="23.9688" style="stroke: #A80036; stroke-width: 1.5;" width="126" x="649" y="360"/><text fill="#000000" font-family="sans-serif" font-size="12" lengthAdjust="spacingAndGlyphs" textLength="120" x="652" y="376.1387">ContactPersonRole</text></a><!--class CounterpartyRisk--><a target="_top" xlink:actuate="onRequest" xlink:href="../CounterpartyRisk.html" xlink:show="new" xlink:title="Calculation of the exposure amount that one party has vis-a-vis one counterparty or a central system, based on its credit risk." xlink:type="simple"><rect fill="#EEEEEE" filter="url(#fgfqa981bma8v)" height="23.9688" id="CounterpartyRisk" style="stroke: #A80036; stroke-width: 1.5;" width="113" x="661.75" y="270"/><rect fill="#EEEEEE" height="23.9688" style="stroke: #A80036; stroke-width: 1.5;" width="113" x="661.75" y="270"/><text fill="#000000" font-family="sans-serif" font-size="12" lengthAdjust="spacingAndGlyphs" textLength="107" x="664.75" y="286.1387">CounterpartyRisk</text></a><!--class Entry--><a target="_top" xlink:actuate="onRequest" xlink:href="../Entry.html" xlink:show="new" xlink:title="Posting to an account that results in an increase or decrease to a balance." xlink:type="simple"><rect fill="#EEEEEE" filter="url(#fgfqa981bma8v)" height="23.9688" id="Entry" style="stroke: #A80036; stroke-width: 1.5;" width="38" x="649" y="166"/><rect fill="#EEEEEE" height="23.9688" style="stroke: #A80036; stroke-width: 1.5;" width="38" x="649" y="166"/><text fill="#000000" font-family="sans-serif" font-size="12" lengthAdjust="spacingAndGlyphs" textLength="32" x="652" y="182.1387">Entry</text></a><!--class Account--><a target="_top" xlink:actuate="onRequest" xlink:href="../Account.html" xlink:show="new" xlink:title="Record of transactions in specific types of assets, maintained by a servicing party on behalf of one or more owning parties. Business relationship between an account servicer and one or more account owners." xlink:type="simple"><rect fill="#EEEEEE" filter="url(#fgfqa981bma8v)" height="23.9688" id="Account" style="stroke: #A80036; stroke-width: 1.5;" width="57" x="270.75" y="360"/><rect fill="#EEEEEE" height="23.9688" style="stroke: #A80036; stroke-width: 1.5;" width="57" x="270.75" y="360"/><text fill="#000000" font-family="sans-serif" font-size="12" lengthAdjust="spacingAndGlyphs" textLength="51" x="273.75" y="376.1387">Account</text></a><!--class InvestmentFund--><a target="_top" xlink:actuate="onRequest" xlink:href="../InvestmentFund.html" xlink:show="new" xlink:title="Distinct pool of financial instruments managed by a single investment policy. May or not be part of an umbrella fund. The pool is issued in at least one investment fund class." xlink:type="simple"><rect fill="#EEEEEE" filter="url(#fgfqa981bma8v)" height="23.9688" id="InvestmentFund" style="stroke: #A80036; stroke-width: 1.5;" width="106" x="270.5" y="270"/><rect fill="#EEEEEE" height="23.9688" style="stroke: #A80036; stroke-width: 1.5;" width="106" x="270.5" y="270"/><text fill="#000000" font-family="sans-serif" font-size="12" lengthAdjust="spacingAndGlyphs" textLength="100" x="273.5" y="286.1387">InvestmentFund</text></a><!--link Role to InvestmentFundPartyRole--><path d="M127.839,105.559 C128.795,127.159 129.889,151.898 130.507,165.865 " fill="none" id="Role-InvestmentFundPartyRole" style="stroke: #A80036; stroke-width: 1.0;"/><polygon fill="none" points="120.843,105.81,126.952,85.52,134.83,105.191,120.843,105.81" style="stroke: #A80036; stroke-width: 1.0;"/><!--link InvestmentFundPartyRole to FundOrderDesk--><path d="M131,210.595 C131,230.825 131,255.843 131,269.954 " fill="none" id="InvestmentFundPartyRole-FundOrderDesk" style="stroke: #A80036; stroke-width: 1.0;"/><polygon fill="none" points="124,210.306,131,190.306,138,210.305,124,210.306" style="stroke: #A80036; stroke-width: 1.0;"/><!--link ContactPersonRole to RolePlayer--><!--link CounterpartyRisk to ContactPersonRole--><!--link Entry to CounterpartyRisk--><!--link InvestmentFund to Account--><!--link Role to RolePlayer--><path d="M213.446,65.394 C447.221,70.275 1069,91.311 1069,177 C1069,177 1069,177 1069,373 C1069,433.6217 862.27,453.2654 772.642,458.9332 " fill="none" id="Role-RolePlayer" style="stroke: #A80036; stroke-width: 1.0;"/><polygon fill="#A80036" points="767.428,459.2555,776.6577,462.6924,772.4185,458.9469,776.164,454.7077,767.428,459.2555" style="stroke: #A80036; stroke-width: 1.0;"/><text fill="#000000" font-family="sans-serif" font-size="13" lengthAdjust="spacingAndGlyphs" textLength="39" x="1070" y="286.0669">Player</text><text fill="#000000" font-family="sans-serif" font-size="13" lengthAdjust="spacingAndGlyphs" textLength="7" x="775.8888" y="452.8806">*</text><!--link Role to ContactPersonRole--><path d="M213.307,66.802 C396.23,73.603 806.162,94.082 846,142 C884.794,188.662 823.987,279.437 792,318 C778.097,334.761 757.535,348.223 740.739,357.386 " fill="none" id="Role-ContactPersonRole" style="stroke: #A80036; stroke-width: 1.0;"/><polygon fill="#A80036" points="736.11,359.855,745.9333,359.1465,740.5211,357.5009,742.1667,352.0887,736.11,359.855" style="stroke: #A80036; stroke-width: 1.0;"/><text fill="#000000" font-family="sans-serif" font-size="13" lengthAdjust="spacingAndGlyphs" textLength="121" x="851" y="233.0669">ContactPersonRole</text><text fill="#000000" font-family="sans-serif" font-size="13" lengthAdjust="spacingAndGlyphs" textLength="8" x="733.6791" y="348.8534">1</text><!--link Role to CounterpartyRisk--><path d="M213.253,63.104 C357.881,63.607 637.93,73.661 704,142 C736.058,175.159 728.214,235.755 722.059,264.728 " fill="none" id="Role-CounterpartyRisk" style="stroke: #A80036; stroke-width: 1.0;"/><polygon fill="#A80036" points="720.94,269.757,726.8008,261.8418,722.0269,264.8766,718.9921,260.1027,720.94,269.757" style="stroke: #A80036; stroke-width: 1.0;"/><text fill="#000000" font-family="sans-serif" font-size="13" lengthAdjust="spacingAndGlyphs" textLength="109" x="727" y="182.0669">CounterpartyRisk</text><text fill="#000000" font-family="sans-serif" font-size="13" lengthAdjust="spacingAndGlyphs" textLength="24" x="692.5248" y="258.9799">0..1</text><!--link Role to Entry--><path d="M213.383,82.218 C340.287,108.676 568.611,156.279 643.487,171.889 " fill="none" id="Role-Entry" style="stroke: #A80036; stroke-width: 1.0;"/><polygon fill="#A80036" points="648.61,172.957,640.6154,167.2049,643.7152,171.9369,638.9832,175.0367,648.61,172.957" style="stroke: #A80036; stroke-width: 1.0;"/><text fill="#000000" font-family="sans-serif" font-size="13" lengthAdjust="spacingAndGlyphs" textLength="33" x="463" y="129.0669">Entry</text><text fill="#000000" font-family="sans-serif" font-size="13" lengthAdjust="spacingAndGlyphs" textLength="8" x="633.0552" y="165.4063">1</text><!--link InvestmentFundPartyRole to Account--><path d="M213.511,187.219 C283.414,196.33 374.948,214.137 392,246 C407.099,274.214 408.078,290.332 392,318 C379.153,340.108 353.25,353.762 332.037,361.663 " fill="none" id="InvestmentFundPartyRole-Account" style="stroke: #A80036; stroke-width: 1.0;"/><polygon fill="#A80036" points="327.312,363.358,337.1341,364.0832,332.0182,361.6693,334.4321,356.5533,327.312,363.358" style="stroke: #A80036; stroke-width: 1.0;"/><text fill="#000000" font-family="sans-serif" font-size="13" lengthAdjust="spacingAndGlyphs" textLength="52" x="405" y="286.0669">Account</text><text fill="#000000" font-family="sans-serif" font-size="13" lengthAdjust="spacingAndGlyphs" textLength="7" x="335.7943" y="354.84">*</text><!--link InvestmentFundPartyRole to InvestmentFund--><path d="M151.913,190.11 C187.403,208.964 259.294,247.156 297.611,267.512 " fill="none" id="InvestmentFundPartyRole-InvestmentFund" style="stroke: #A80036; stroke-width: 1.0;"/><polygon fill="#A80036" points="302.113,269.904,296.0414,262.1493,297.6974,267.5583,292.2883,269.2143,302.113,269.904" style="stroke: #A80036; stroke-width: 1.0;"/><text fill="#000000" font-family="sans-serif" font-size="13" lengthAdjust="spacingAndGlyphs" textLength="103" x="240" y="233.0669">InvestmentFund</text><text fill="#000000" font-family="sans-serif" font-size="13" lengthAdjust="spacingAndGlyphs" textLength="7" x="285.2143" y="258.9192">*</text><!--link Entry to Account--><path d="M654.759,190.298 C623.821,216.197 543.591,280.499 467,318 C422.493,339.791 367.024,355.23 332.3,363.628 " fill="none" id="Entry-Account" style="stroke: #A80036; stroke-width: 1.0;"/><polygon fill="#A80036" points="327.331,364.815,337.0145,366.6122,332.1939,363.6521,335.1539,358.8315,327.331,364.815" style="stroke: #A80036; stroke-width: 1.0;"/><text fill="#000000" font-family="sans-serif" font-size="13" lengthAdjust="spacingAndGlyphs" textLength="52" x="584" y="286.0669">Account</text><text fill="#000000" font-family="sans-serif" font-size="13" lengthAdjust="spacingAndGlyphs" textLength="7" x="335.8184" y="376.9886">*</text><!--link Account to Account--><path d="M327.508,364.332 C345.181,362.483 362,365.039 362,372 C362,378.254 348.424,380.952 332.85,380.095 " fill="none" id="Account-Account" style="stroke: #A80036; stroke-width: 1.0;"/><polygon fill="#A80036" points="327.508,379.668,336.1605,384.3727,332.4921,380.0666,336.7982,376.3981,327.508,379.668" style="stroke: #A80036; stroke-width: 1.0;"/><text fill="#000000" font-family="sans-serif" font-size="13" lengthAdjust="spacingAndGlyphs" textLength="94" x="368" y="376.0669">ParentAccount</text><text fill="#000000" font-family="sans-serif" font-size="13" lengthAdjust="spacingAndGlyphs" textLength="8" x="335.7741" y="395.6427">1</text></g></svg>