<?xml version="1.0" encoding="UTF-8" standalone="no"?><svg xmlns="http://www.w3.org/2000/svg" xmlns:xlink="http://www.w3.org/1999/xlink" contentScriptType="application/ecmascript" contentStyleType="text/css" height="722px" preserveAspectRatio="none" style="width:1173px;height:722px;" version="1.1" viewBox="0 0 1173 722" width="1173px" zoomAndPan="magnify"><defs><filter height="300%" id="frx3kg70nvh27" width="300%" x="-1" y="-1"><feGaussianBlur result="blurOut" stdDeviation="2.0"/><feColorMatrix in="blurOut" result="blurOut2" type="matrix" values="0 0 0 0 0 0 0 0 0 0 0 0 0 0 0 0 0 0 .4 0"/><feOffset dx="4.0" dy="4.0" in="blurOut2" result="blurOut3"/><feBlend in="SourceGraphic" in2="blurOut3" mode="normal"/></filter></defs><g><!--cluster ##2407--><!--cluster ##2413--><!--cluster ##2422--><!--class AccountService--><a target="_top" xlink:actuate="onRequest" xlink:href="../AccountService.html" xlink:show="new" xlink:title="Services linked to an account which are available to the account owner or to the holder of a mandate." xlink:type="simple"><rect fill="#FEFEEE" filter="url(#frx3kg70nvh27)" height="23.9688" id="AccountService" style="stroke: #A80036; stroke-width: 1.5;" width="102" x="533.5" y="40"/><rect fill="#FEFEEE" height="23.9688" style="stroke: #A80036; stroke-width: 1.5;" width="102" x="533.5" y="40"/><text fill="#000000" font-family="sans-serif" font-size="12" lengthAdjust="spacingAndGlyphs" textLength="96" x="536.5" y="56.1387">AccountService</text></a><!--class InvestmentAccountService--><a target="_top" xlink:actuate="onRequest" xlink:href="../InvestmentAccountService.html" xlink:show="new" xlink:title="Services linked to an account which are available to the account owner or to the holder of a mandate. The exercise of these services may be submitted to a limit." xlink:type="simple"><rect fill="#FEFECE" filter="url(#frx3kg70nvh27)" height="83.1875" id="InvestmentAccountService" style="stroke: #A80036; stroke-width: 1.5;" width="458" x="177" y="142.5"/><rect fill="#FEFECE" height="23.9688" style="stroke: #A80036; stroke-width: 1.5;" width="458" x="177" y="142.5"/><text fill="#000000" font-family="sans-serif" font-size="12" lengthAdjust="spacingAndGlyphs" textLength="165" x="323.5" y="158.6387">InvestmentAccountService</text><line style="stroke: #A80036; stroke-width: 1.5;" x1="178" x2="634" y1="166.4688" y2="166.4688"/><ellipse cx="188" cy="178.3711" fill="#84BE84" rx="3" ry="3" style="stroke: #038048; stroke-width: 1.0;"/><text fill="#000000" font-family="sans-serif" font-size="11" lengthAdjust="spacingAndGlyphs" textLength="103" x="197" y="180.6792">IncomePreference</text><text fill="#000000" font-family="sans-serif" font-size="11" font-style="italic" lengthAdjust="spacingAndGlyphs" textLength="140" x="304" y="180.6792">(IncomePreferenceCode)</text><ellipse cx="188" cy="191.1758" fill="#84BE84" rx="3" ry="3" style="stroke: #038048; stroke-width: 1.0;"/><text fill="#000000" font-family="sans-serif" font-size="11" lengthAdjust="spacingAndGlyphs" textLength="125" x="197" y="193.4839">TaxWithholdingMethod</text><text fill="#000000" font-family="sans-serif" font-size="11" font-style="italic" lengthAdjust="spacingAndGlyphs" textLength="165" x="326" y="193.4839">(TaxWithholdingMethodCode)</text><ellipse cx="188" cy="203.9805" fill="#84BE84" rx="3" ry="3" style="stroke: #038048; stroke-width: 1.0;"/><text fill="#000000" font-family="sans-serif" font-size="11" lengthAdjust="spacingAndGlyphs" textLength="180" x="197" y="206.2886">BeneficiaryCertificationIndicator</text><text fill="#000000" font-family="sans-serif" font-size="11" font-style="italic" lengthAdjust="spacingAndGlyphs" textLength="92" x="381" y="206.2886">(YesNoIndicator)</text><ellipse cx="188" cy="216.7852" fill="#84BE84" rx="3" ry="3" style="stroke: #038048; stroke-width: 1.0;"/><text fill="#000000" font-family="sans-serif" font-size="11" lengthAdjust="spacingAndGlyphs" textLength="195" x="197" y="219.0933">BeneficiaryCertificationCompletion</text><text fill="#000000" font-family="sans-serif" font-size="11" font-style="italic" lengthAdjust="spacingAndGlyphs" textLength="233" x="396" y="219.0933">(BeneficiaryCertificationCompletionCode)</text></a><!--class AccountContract--><a target="_top" xlink:actuate="onRequest" xlink:href="../AccountContract.html" xlink:show="new" xlink:title="Agreement between an account servicer and an account owner about the services linked to an account." xlink:type="simple"><rect fill="#EEEEEE" filter="url(#frx3kg70nvh27)" height="23.9688" id="AccountContract" style="stroke: #A80036; stroke-width: 1.5;" width="111" x="917.75" y="172"/><rect fill="#EEEEEE" height="23.9688" style="stroke: #A80036; stroke-width: 1.5;" width="111" x="917.75" y="172"/><text fill="#000000" font-family="sans-serif" font-size="12" lengthAdjust="spacingAndGlyphs" textLength="105" x="920.75" y="188.1387">AccountContract</text></a><!--class Reservation--><a target="_top" xlink:actuate="onRequest" xlink:href="../Reservation.html" xlink:show="new" xlink:title="Liquidity set aside by the payer for specific purposes." xlink:type="simple"><rect fill="#EEEEEE" filter="url(#frx3kg70nvh27)" height="23.9688" id="Reservation" style="stroke: #A80036; stroke-width: 1.5;" width="80" x="960" y="412"/><rect fill="#EEEEEE" height="23.9688" style="stroke: #A80036; stroke-width: 1.5;" width="80" x="960" y="412"/><text fill="#000000" font-family="sans-serif" font-size="12" lengthAdjust="spacingAndGlyphs" textLength="74" x="963" y="428.1387">Reservation</text></a><!--class Account--><a target="_top" xlink:actuate="onRequest" xlink:href="../Account.html" xlink:show="new" xlink:title="Record of transactions in specific types of assets, maintained by a servicing party on behalf of one or more owning parties. Business relationship between an account servicer and one or more account owners." xlink:type="simple"><rect fill="#EEEEEE" filter="url(#frx3kg70nvh27)" height="23.9688" id="Account" style="stroke: #A80036; stroke-width: 1.5;" width="57" x="820.75" y="308"/><rect fill="#EEEEEE" height="23.9688" style="stroke: #A80036; stroke-width: 1.5;" width="57" x="820.75" y="308"/><text fill="#000000" font-family="sans-serif" font-size="12" lengthAdjust="spacingAndGlyphs" textLength="51" x="823.75" y="324.1387">Account</text></a><!--class Charges--><a target="_top" xlink:actuate="onRequest" xlink:href="../Charges.html" xlink:show="new" xlink:title="Amount of money associated with a service." xlink:type="simple"><rect fill="#EEEEEE" filter="url(#frx3kg70nvh27)" height="23.9688" id="Charges" style="stroke: #A80036; stroke-width: 1.5;" width="58" x="820.5" y="172"/><rect fill="#EEEEEE" height="23.9688" style="stroke: #A80036; stroke-width: 1.5;" width="58" x="820.5" y="172"/><text fill="#000000" font-family="sans-serif" font-size="12" lengthAdjust="spacingAndGlyphs" textLength="52" x="823.5" y="188.1387">Charges</text></a><!--class RoundingParameters--><a target="_top" xlink:actuate="onRequest" xlink:href="../RoundingParameters.html" xlink:show="new" xlink:title="Parameters applied to a fractional number." xlink:type="simple"><rect fill="#EEEEEE" filter="url(#frx3kg70nvh27)" height="23.9688" id="RoundingParameters" style="stroke: #A80036; stroke-width: 1.5;" width="138" x="280" y="688"/><rect fill="#EEEEEE" height="23.9688" style="stroke: #A80036; stroke-width: 1.5;" width="138" x="280" y="688"/><text fill="#000000" font-family="sans-serif" font-size="12" lengthAdjust="spacingAndGlyphs" textLength="132" x="283" y="704.1387">RoundingParameters</text></a><!--class InvestmentPlan--><a target="_top" xlink:actuate="onRequest" xlink:href="../InvestmentPlan.html" xlink:show="new" xlink:title="Plan that allows investors to schedule periodical investments or divestments, according to pre-defined criteria." xlink:type="simple"><rect fill="#EEEEEE" filter="url(#frx3kg70nvh27)" height="23.9688" id="InvestmentPlan" style="stroke: #A80036; stroke-width: 1.5;" width="102" x="298.5" y="602"/><rect fill="#EEEEEE" height="23.9688" style="stroke: #A80036; stroke-width: 1.5;" width="102" x="298.5" y="602"/><text fill="#000000" font-family="sans-serif" font-size="12" lengthAdjust="spacingAndGlyphs" textLength="96" x="301.5" y="618.1387">InvestmentPlan</text></a><!--class InvestmentAccountContract--><a target="_top" xlink:actuate="onRequest" xlink:href="../InvestmentAccountContract.html" xlink:show="new" xlink:title="Contract defining the related investment account." xlink:type="simple"><rect fill="#EEEEEE" filter="url(#frx3kg70nvh27)" height="23.9688" id="InvestmentAccountContract" style="stroke: #A80036; stroke-width: 1.5;" width="180" x="280" y="516"/><rect fill="#EEEEEE" height="23.9688" style="stroke: #A80036; stroke-width: 1.5;" width="180" x="280" y="516"/><text fill="#000000" font-family="sans-serif" font-size="12" lengthAdjust="spacingAndGlyphs" textLength="174" x="283" y="532.1387">InvestmentAccountContract</text></a><!--class ReportingService--><a target="_top" xlink:actuate="onRequest" xlink:href="../ReportingService.html" xlink:show="new" xlink:title="Specifies the reporting parameters that are included in the account contract which specifies the services linked to the account.." xlink:type="simple"><rect fill="#EEEEEE" filter="url(#frx3kg70nvh27)" height="23.9688" id="ReportingService" style="stroke: #A80036; stroke-width: 1.5;" width="112" x="348.5" y="412"/><rect fill="#EEEEEE" height="23.9688" style="stroke: #A80036; stroke-width: 1.5;" width="112" x="348.5" y="412"/><text fill="#000000" font-family="sans-serif" font-size="12" lengthAdjust="spacingAndGlyphs" textLength="106" x="351.5" y="428.1387">ReportingService</text></a><!--class Reinvestment--><a target="_top" xlink:actuate="onRequest" xlink:href="../Reinvestment.html" xlink:show="new" xlink:title="Parameters of the reinvestment of the income on the fund." xlink:type="simple"><rect fill="#EEEEEE" filter="url(#frx3kg70nvh27)" height="23.9688" id="Reinvestment" style="stroke: #A80036; stroke-width: 1.5;" width="91" x="280.75" y="308"/><rect fill="#EEEEEE" height="23.9688" style="stroke: #A80036; stroke-width: 1.5;" width="91" x="280.75" y="308"/><text fill="#000000" font-family="sans-serif" font-size="12" lengthAdjust="spacingAndGlyphs" textLength="85" x="283.75" y="324.1387">Reinvestment</text></a><!--link AccountService to InvestmentAccountService--><path d="M552.644,75.901 C527.474,94.283 491.51,120.549 461.497,142.469 " fill="none" id="AccountService-InvestmentAccountService" style="stroke: #A80036; stroke-width: 1.0;"/><polygon fill="none" points="548.544,70.227,568.824,64.084,556.801,81.532,548.544,70.227" style="stroke: #A80036; stroke-width: 1.0;"/><!--link Reservation to AccountContract--><!--link Account to Reservation--><!--link Charges to Account--><!--link InvestmentPlan to RoundingParameters--><!--link InvestmentAccountContract to InvestmentPlan--><!--link ReportingService to InvestmentAccountContract--><!--link Reinvestment to ReportingService--><!--link AccountService to AccountContract--><path d="M634.501,52.893 C719.797,53.68 887.654,59.694 934,94 C957.525,111.413 967.076,146.102 970.789,166.652 " fill="none" id="AccountService-AccountContract" style="stroke: #A80036; stroke-width: 1.0;"/><polygon fill="#A80036" points="971.65,171.8,974.1088,162.263,970.8243,166.8686,966.2187,163.5841,971.65,171.8" style="stroke: #A80036; stroke-width: 1.0;"/><text fill="#000000" font-family="sans-serif" font-size="13" lengthAdjust="spacingAndGlyphs" textLength="107" x="950" y="107.0669">AccountContract</text><text fill="#000000" font-family="sans-serif" font-size="13" lengthAdjust="spacingAndGlyphs" textLength="7" x="961.6294" y="161.0372">*</text><!--link AccountService to Reservation--><path d="M634.691,53.513 C752.737,55.233 1038.18,62.626 1067,94 C1151.79,186.294 1046.89,355.634 1011.12,407.496 " fill="none" id="AccountService-Reservation" style="stroke: #A80036; stroke-width: 1.0;"/><polygon fill="#A80036" points="1008.08,411.865,1016.499,406.7543,1010.932,407.7582,1009.9281,402.1911,1008.08,411.865" style="stroke: #A80036; stroke-width: 1.0;"/><text fill="#000000" font-family="sans-serif" font-size="13" lengthAdjust="spacingAndGlyphs" textLength="75" x="1086" y="271.0669">Reservation</text><text fill="#000000" font-family="sans-serif" font-size="13" lengthAdjust="spacingAndGlyphs" textLength="8" x="1000.1414" y="400.8668">1</text><!--link AccountService to Account--><path d="M592.485,64.072 C620.713,100.774 711.669,217.923 747,250 C771.236,272.004 802.967,292.369 824.559,305.185 " fill="none" id="AccountService-Account" style="stroke: #A80036; stroke-width: 1.0;"/><polygon fill="#A80036" points="829.006,307.803,823.2784,299.7908,824.6969,305.267,819.2208,306.6854,829.006,307.803" style="stroke: #A80036; stroke-width: 1.0;"/><text fill="#000000" font-family="sans-serif" font-size="13" lengthAdjust="spacingAndGlyphs" textLength="52" x="748" y="188.0669">Account</text><text fill="#000000" font-family="sans-serif" font-size="13" lengthAdjust="spacingAndGlyphs" textLength="8" x="811.6439" y="297.0412">1</text><!--link AccountService to Charges--><path d="M621.057,64.019 C644.209,71.408 674.383,81.968 700,94 C747.893,116.494 800.191,150.006 828.315,168.836 " fill="none" id="AccountService-Charges" style="stroke: #A80036; stroke-width: 1.0;"/><polygon fill="#A80036" points="832.617,171.728,827.3797,163.3871,828.4675,168.9384,822.9163,170.0262,832.617,171.728" style="stroke: #A80036; stroke-width: 1.0;"/><text fill="#000000" font-family="sans-serif" font-size="13" lengthAdjust="spacingAndGlyphs" textLength="191" x="735" y="107.0669">AccountAdministrationCharge</text><text fill="#000000" font-family="sans-serif" font-size="13" lengthAdjust="spacingAndGlyphs" textLength="24" x="797.7183" y="160.9413">0..1</text><!--link InvestmentAccountService to RoundingParameters--><path d="M176.796,223.564 C87.4224,245.298 6,276.705 6,319 C6,319 6,319 6,615 C6,669.8644 173.655,689.0719 274.538,695.6633 " fill="none" id="InvestmentAccountService-RoundingParameters" style="stroke: #A80036; stroke-width: 1.0;"/><polygon fill="#A80036" points="279.589,695.9864,270.8634,691.4186,274.5993,695.6664,270.3515,699.4022,279.589,695.9864" style="stroke: #A80036; stroke-width: 1.0;"/><text fill="#000000" font-family="sans-serif" font-size="13" lengthAdjust="spacingAndGlyphs" textLength="107" x="7" y="481.0669">RoundingMethod</text><text fill="#000000" font-family="sans-serif" font-size="13" lengthAdjust="spacingAndGlyphs" textLength="8" x="263.9618" y="690.9461">1</text><!--link InvestmentAccountService to InvestmentPlan--><path d="M207.412,225.658 C168.262,245.507 139,275.045 139,319 C139,319 139,319 139,529 C139,562.276 231.046,588.309 293.259,602.105 " fill="none" id="InvestmentAccountService-InvestmentPlan" style="stroke: #A80036; stroke-width: 1.0;"/><polygon fill="#A80036" points="298.433,603.239,290.4975,597.4057,293.5488,602.169,288.7855,605.2204,298.433,603.239" style="stroke: #A80036; stroke-width: 1.0;"/><text fill="#000000" font-family="sans-serif" font-size="13" lengthAdjust="spacingAndGlyphs" textLength="171" x="140" y="428.0669">SystematicInvestmentPlan</text><text fill="#000000" font-family="sans-serif" font-size="13" lengthAdjust="spacingAndGlyphs" textLength="24" x="266.4257" y="597.2082">0..1</text><!--link InvestmentAccountService to InvestmentAccountContract--><path d="M486.699,225.714 C508.305,240.866 528.979,260.278 541,284 C551.045,303.822 546.242,312.405 541,334 C526.136,395.234 518.567,413.539 476,460 C454.353,483.627 422.558,502.233 399.439,513.782 " fill="none" id="InvestmentAccountService-InvestmentAccountContract" style="stroke: #A80036; stroke-width: 1.0;"/><polygon fill="#A80036" points="394.937,515.997,404.7784,515.6139,399.4236,513.7901,401.2474,508.4353,394.937,515.997" style="stroke: #A80036; stroke-width: 1.0;"/><text fill="#000000" font-family="sans-serif" font-size="13" lengthAdjust="spacingAndGlyphs" textLength="179" x="534" y="377.0669">InvestmentAccountContract</text><text fill="#000000" font-family="sans-serif" font-size="13" lengthAdjust="spacingAndGlyphs" textLength="24" x="374.0403" y="505.0442">0..1</text><!--link InvestmentAccountService to ReportingService--><path d="M415.224,225.729 C417.203,236.19 418.999,247.466 420,258 C425.177,312.484 413.834,377.07 407.658,406.685 " fill="none" id="InvestmentAccountService-ReportingService" style="stroke: #A80036; stroke-width: 1.0;"/><polygon fill="#A80036" points="406.57,411.798,412.357,403.8286,407.6115,406.9077,404.5324,402.1622,406.57,411.798" style="stroke: #A80036; stroke-width: 1.0;"/><text fill="#000000" font-family="sans-serif" font-size="13" lengthAdjust="spacingAndGlyphs" textLength="108" x="423" y="324.0669">ReportingService</text><text fill="#000000" font-family="sans-serif" font-size="13" lengthAdjust="spacingAndGlyphs" textLength="8" x="396.5994" y="401.0345">1</text><!--link InvestmentAccountService to Reinvestment--><path d="M347.981,225.845 C338.642,235.262 330.31,246.066 325,258 C318.746,272.056 319.911,289.799 322.089,302.52 " fill="none" id="InvestmentAccountService-Reinvestment" style="stroke: #A80036; stroke-width: 1.0;"/><polygon fill="#A80036" points="323.066,307.639,325.3083,298.0488,322.1289,302.7276,317.45,299.5482,323.066,307.639" style="stroke: #A80036; stroke-width: 1.0;"/><text fill="#000000" font-family="sans-serif" font-size="13" lengthAdjust="spacingAndGlyphs" textLength="88" x="326" y="271.0669">Reinvestment</text><text fill="#000000" font-family="sans-serif" font-size="13" lengthAdjust="spacingAndGlyphs" textLength="8" x="311.355" y="296.8229">1</text><!--link AccountContract to Account--><path d="M962.428,196.425 C939.987,220.675 887.61,277.276 862.671,304.227 " fill="none" id="AccountContract-Account" style="stroke: #A80036; stroke-width: 1.0;"/><polygon fill="#A80036" points="859.197,307.981,868.2461,304.0935,862.5935,304.3117,862.3753,298.6591,859.197,307.981" style="stroke: #A80036; stroke-width: 1.0;"/><text fill="#000000" font-family="sans-serif" font-size="13" lengthAdjust="spacingAndGlyphs" textLength="52" x="904" y="271.0669">Account</text><text fill="#000000" font-family="sans-serif" font-size="13" lengthAdjust="spacingAndGlyphs" textLength="7" x="853.0694" y="297.0227">*</text><!--link Account to Account--><path d="M877.508,310.938 C895.181,308.753 912,311.773 912,320 C912,327.391 898.424,330.58 882.85,329.567 " fill="none" id="Account-Account" style="stroke: #A80036; stroke-width: 1.0;"/><polygon fill="#A80036" points="877.508,329.062,886.0922,333.8902,882.4859,329.5319,886.8441,325.9256,877.508,329.062" style="stroke: #A80036; stroke-width: 1.0;"/><text fill="#000000" font-family="sans-serif" font-size="13" lengthAdjust="spacingAndGlyphs" textLength="94" x="918" y="324.0669">ParentAccount</text><text fill="#000000" font-family="sans-serif" font-size="13" lengthAdjust="spacingAndGlyphs" textLength="8" x="885.7741" y="325.2939">1</text></g></svg>