<?xml version="1.0" encoding="UTF-8" standalone="no"?><svg xmlns="http://www.w3.org/2000/svg" xmlns:xlink="http://www.w3.org/1999/xlink" contentScriptType="application/ecmascript" contentStyleType="text/css" height="395px" preserveAspectRatio="none" style="width:638px;height:395px;" version="1.1" viewBox="0 0 638 395" width="638px" zoomAndPan="magnify"><defs><filter height="300%" id="f1i56i1bnyzv51" width="300%" x="-1" y="-1"><feGaussianBlur result="blurOut" stdDeviation="2.0"/><feColorMatrix in="blurOut" result="blurOut2" type="matrix" values="0 0 0 0 0 0 0 0 0 0 0 0 0 0 0 0 0 0 .4 0"/><feOffset dx="4.0" dy="4.0" in="blurOut2" result="blurOut3"/><feBlend in="SourceGraphic" in2="blurOut3" mode="normal"/></filter></defs><g><!--cluster ##12192--><!--cluster ##12204--><!--class InvestigationResolution--><a target="_top" xlink:actuate="onRequest" xlink:href="../InvestigationResolution.html" xlink:show="new" xlink:title="Specifies the actions taken as a result of an investigation." xlink:type="simple"><rect fill="#FEFECE" filter="url(#f1i56i1bnyzv51)" height="44.7734" id="InvestigationResolution" style="stroke: #A80036; stroke-width: 1.5;" width="258" x="185" y="40.5"/><rect fill="#FEFECE" height="23.9688" style="stroke: #A80036; stroke-width: 1.5;" width="258" x="185" y="40.5"/><text fill="#000000" font-family="sans-serif" font-size="12" lengthAdjust="spacingAndGlyphs" textLength="146" x="241" y="56.6387">InvestigationResolution</text><line style="stroke: #A80036; stroke-width: 1.5;" x1="186" x2="442" y1="64.4688" y2="64.4688"/><ellipse cx="196" cy="76.3711" fill="#84BE84" rx="3" ry="3" style="stroke: #038048; stroke-width: 1.0;"/><text fill="#000000" font-family="sans-serif" font-size="11" lengthAdjust="spacingAndGlyphs" textLength="158" x="205" y="78.6792">InvestigationCaseReference</text><text fill="#000000" font-family="sans-serif" font-size="11" font-style="italic" lengthAdjust="spacingAndGlyphs" textLength="70" x="367" y="78.6792">(Max35Text)</text></a><!--class PaymentInvestigationCaseResolution--><a target="_top" xlink:actuate="onRequest" xlink:href="../PaymentInvestigationCaseResolution.html" xlink:show="new" xlink:title="Specifies the status of an investigation case and the actions taken as a result of this status." xlink:type="simple"><rect fill="#FEFEEE" filter="url(#f1i56i1bnyzv51)" height="23.9688" id="PaymentInvestigationCaseResolution" style="stroke: #A80036; stroke-width: 1.5;" width="237" x="38.75" y="148"/><rect fill="#FEFEEE" height="23.9688" style="stroke: #A80036; stroke-width: 1.5;" width="237" x="38.75" y="148"/><text fill="#000000" font-family="sans-serif" font-size="12" lengthAdjust="spacingAndGlyphs" textLength="231" x="41.75" y="164.1387">PaymentInvestigationCaseResolution</text></a><!--class Reassignment--><a target="_top" xlink:actuate="onRequest" xlink:href="../Reassignment.html" xlink:show="new" xlink:title="Action that consists in forwarding an investigation case assignment to another party which becomes the new assignee." xlink:type="simple"><rect fill="#FEFEEE" filter="url(#f1i56i1bnyzv51)" height="23.9688" id="Reassignment" style="stroke: #A80036; stroke-width: 1.5;" width="95" x="348.75" y="148"/><rect fill="#FEFEEE" height="23.9688" style="stroke: #A80036; stroke-width: 1.5;" width="95" x="348.75" y="148"/><text fill="#000000" font-family="sans-serif" font-size="12" lengthAdjust="spacingAndGlyphs" textLength="89" x="351.75" y="164.1387">Reassignment</text></a><!--class DuplicateCase--><a target="_top" xlink:actuate="onRequest" xlink:href="../DuplicateCase.html" xlink:show="new" xlink:title="Outcome that results in closing a case as duplicate because the same issue has been reported by another party." xlink:type="simple"><rect fill="#FEFEEE" filter="url(#f1i56i1bnyzv51)" height="23.9688" id="DuplicateCase" style="stroke: #A80036; stroke-width: 1.5;" width="96" x="192" y="250"/><rect fill="#FEFEEE" height="23.9688" style="stroke: #A80036; stroke-width: 1.5;" width="96" x="192" y="250"/><text fill="#000000" font-family="sans-serif" font-size="12" lengthAdjust="spacingAndGlyphs" textLength="90" x="195" y="266.1387">DuplicateCase</text></a><!--class InvestigationCase--><a target="_top" xlink:actuate="onRequest" xlink:href="../InvestigationCase.html" xlink:show="new" xlink:title="Set of activities performed to handle an exception to a normal transaction flow.." xlink:type="simple"><rect fill="#EEEEEE" filter="url(#f1i56i1bnyzv51)" height="23.9688" id="InvestigationCase" style="stroke: #A80036; stroke-width: 1.5;" width="117" x="307.75" y="358"/><rect fill="#EEEEEE" height="23.9688" style="stroke: #A80036; stroke-width: 1.5;" width="117" x="307.75" y="358"/><text fill="#000000" font-family="sans-serif" font-size="12" lengthAdjust="spacingAndGlyphs" textLength="111" x="310.75" y="374.1387">InvestigationCase</text></a><!--link InvestigationResolution to PaymentInvestigationCaseResolution--><path d="M261.236,95.927 C231.554,113.887 196.354,135.187 175.392,147.871 " fill="none" id="InvestigationResolution-PaymentInvestigationCaseResolution" style="stroke: #A80036; stroke-width: 1.0;"/><polygon fill="none" points="257.639,89.922,278.374,85.557,264.887,101.9,257.639,89.922" style="stroke: #A80036; stroke-width: 1.0;"/><!--link InvestigationResolution to Reassignment--><path d="M345.768,100.805 C360.282,117.619 376.422,136.319 386.394,147.871 " fill="none" id="InvestigationResolution-Reassignment" style="stroke: #A80036; stroke-width: 1.0;"/><polygon fill="none" points="340.376,105.271,332.607,85.557,350.974,96.123,340.376,105.271" style="stroke: #A80036; stroke-width: 1.0;"/><!--link InvestigationResolution to DuplicateCase--><path d="M322.26,105.85 C326.556,139.109 327.308,185.596 307,220 C298.959,233.623 284.448,243.318 270.982,249.848 " fill="none" id="InvestigationResolution-DuplicateCase" style="stroke: #A80036; stroke-width: 1.0;"/><polygon fill="none" points="315.285,106.564,319.023,85.707,329.108,104.343,315.285,106.564" style="stroke: #A80036; stroke-width: 1.0;"/><!--link InvestigationResolution to InvestigationCase--><path d="M371.761,85.644 C401.894,99.478 437.309,120.108 461,148 C492.318,184.872 490.42,202.39 499,250 C502.784,270.995 509.972,279.705 499,298 C481.12,327.8133 445.993,345.8024 416.329,356.2117 " fill="none" id="InvestigationResolution-InvestigationCase" style="stroke: #A80036; stroke-width: 1.0;"/><polygon fill="#A80036" points="411.239,357.943,421.0479,358.8292,415.9722,356.3317,418.4698,351.256,411.239,357.943" style="stroke: #A80036; stroke-width: 1.0;"/><text fill="#000000" font-family="sans-serif" font-size="13" lengthAdjust="spacingAndGlyphs" textLength="113" x="494" y="215.0669">InvestigationCase</text><text fill="#000000" font-family="sans-serif" font-size="13" lengthAdjust="spacingAndGlyphs" textLength="24" x="397.2352" y="346.9716">0..1</text><!--link PaymentInvestigationCaseResolution to DuplicateCase--><path d="M166.2,172.084 C181.094,190.029 210.517,225.478 227.365,245.777 " fill="none" id="PaymentInvestigationCaseResolution-DuplicateCase" style="stroke: #A80036; stroke-width: 1.0;"/><polygon fill="#A80036" points="230.759,249.867,228.0872,240.3875,227.565,246.0202,221.9323,245.4979,230.759,249.867" style="stroke: #A80036; stroke-width: 1.0;"/><text fill="#000000" font-family="sans-serif" font-size="13" lengthAdjust="spacingAndGlyphs" textLength="92" x="207" y="215.0669">DuplicateCase</text><text fill="#000000" font-family="sans-serif" font-size="13" lengthAdjust="spacingAndGlyphs" textLength="7" x="218.0355" y="238.8695">*</text><!--link Reassignment to InvestigationCase--><path d="M394.387,172.183 C389.402,206.747 374.225,311.976 368.354,352.6814 " fill="none" id="Reassignment-InvestigationCase" style="stroke: #A80036; stroke-width: 1.0;"/><polygon fill="#A80036" points="367.621,357.7617,372.865,349.425,368.3349,352.8129,364.947,348.2828,367.621,357.7617" style="stroke: #A80036; stroke-width: 1.0;"/><text fill="#000000" font-family="sans-serif" font-size="13" lengthAdjust="spacingAndGlyphs" textLength="105" x="384" y="266.0669">ReassignedCase</text><text fill="#000000" font-family="sans-serif" font-size="13" lengthAdjust="spacingAndGlyphs" textLength="24" x="338.7689" y="346.9862">0..1</text><!--link DuplicateCase to InvestigationCase--><path d="M235.678,274.052 C231.31,287.227 226.562,309.304 237,324 C252.066,345.2114 277.903,356.5073 302.516,362.4905 " fill="none" id="DuplicateCase-InvestigationCase" style="stroke: #A80036; stroke-width: 1.0;"/><polygon fill="#A80036" points="307.419,363.6177,299.5437,357.7033,302.5461,362.4977,297.7517,365.5,307.419,363.6177" style="stroke: #A80036; stroke-width: 1.0;"/><text fill="#000000" font-family="sans-serif" font-size="13" lengthAdjust="spacingAndGlyphs" textLength="100" x="238" y="319.0669">DuplicatedCase</text><text fill="#000000" font-family="sans-serif" font-size="13" lengthAdjust="spacingAndGlyphs" textLength="7" x="292.888" y="358.1583">*</text><!--link InvestigationCase to InvestigationCase--><path d="M424.578,359.8756 C443.741,359.9279 459,363.3027 459,370 C459,376.0694 446.468,379.4101 429.856,380.0221 " fill="none" id="InvestigationCase-InvestigationCase" style="stroke: #A80036; stroke-width: 1.0;"/><polygon fill="#A80036" points="424.578,380.1244,433.654,383.9488,429.5771,380.0273,433.4986,375.9503,424.578,380.1244" style="stroke: #A80036; stroke-width: 1.0;"/><text fill="#000000" font-family="sans-serif" font-size="13" lengthAdjust="spacingAndGlyphs" textLength="161" x="465" y="374.0669">OriginalInvestigationCase</text><text fill="#000000" font-family="sans-serif" font-size="13" lengthAdjust="spacingAndGlyphs" textLength="7" x="432.8861" y="376.4206">*</text></g></svg>