<?xml version="1.0" encoding="UTF-8" standalone="no"?><svg xmlns="http://www.w3.org/2000/svg" xmlns:xlink="http://www.w3.org/1999/xlink" contentScriptType="application/ecmascript" contentStyleType="text/css" height="484px" preserveAspectRatio="none" style="width:1037px;height:484px;" version="1.1" viewBox="0 0 1037 484" width="1037px" zoomAndPan="magnify"><defs><filter height="300%" id="f1w8znk6hgnhwi" width="300%" x="-1" y="-1"><feGaussianBlur result="blurOut" stdDeviation="2.0"/><feColorMatrix in="blurOut" result="blurOut2" type="matrix" values="0 0 0 0 0 0 0 0 0 0 0 0 0 0 0 0 0 0 .4 0"/><feOffset dx="4.0" dy="4.0" in="blurOut2" result="blurOut3"/><feBlend in="SourceGraphic" in2="blurOut3" mode="normal"/></filter></defs><g><!--cluster ##4222--><!--cluster ##4234--><!--cluster ##4243--><!--class Role--><a target="_top" xlink:actuate="onRequest" xlink:href="../Role.html" xlink:show="new" xlink:title="Role of a party in an activity." xlink:type="simple"><rect fill="#FEFEEE" filter="url(#f1w8znk6hgnhwi)" height="44.7734" id="Role" style="stroke: #A80036; stroke-width: 1.5;" width="175" x="436.75" y="40.5"/><rect fill="#FEFEEE" height="23.9688" style="stroke: #A80036; stroke-width: 1.5;" width="175" x="436.75" y="40.5"/><text fill="#000000" font-family="sans-serif" font-size="12" lengthAdjust="spacingAndGlyphs" textLength="27" x="510.75" y="56.6387">Role</text><line style="stroke: #A80036; stroke-width: 1.5;" x1="437.75" x2="610.75" y1="64.4688" y2="64.4688"/><ellipse cx="447.75" cy="76.3711" fill="#84BE84" rx="3" ry="3" style="stroke: #038048; stroke-width: 1.0;"/><text fill="#000000" font-family="sans-serif" font-size="11" lengthAdjust="spacingAndGlyphs" textLength="53" x="456.75" y="78.6792">PartyRole</text><text fill="#000000" font-family="sans-serif" font-size="11" font-style="italic" lengthAdjust="spacingAndGlyphs" textLength="92" x="513.75" y="78.6792">(PartyRoleCode)</text></a><!--class InvestigationPartyRole--><a target="_top" xlink:actuate="onRequest" xlink:href="../InvestigationPartyRole.html" xlink:show="new" xlink:title="Role played by a party in the context of an investigation process." xlink:type="simple"><rect fill="#FEFECE" filter="url(#f1w8znk6hgnhwi)" height="23.9688" id="InvestigationPartyRole" style="stroke: #A80036; stroke-width: 1.5;" width="145" x="404.75" y="166"/><rect fill="#FEFECE" height="23.9688" style="stroke: #A80036; stroke-width: 1.5;" width="145" x="404.75" y="166"/><text fill="#000000" font-family="sans-serif" font-size="12" lengthAdjust="spacingAndGlyphs" textLength="139" x="407.75" y="182.1387">InvestigationPartyRole</text></a><!--class StatusOriginator--><a target="_top" xlink:actuate="onRequest" xlink:href="../StatusOriginator.html" xlink:show="new" xlink:title="Provides the identification of the originator issuing the transaction reason." xlink:type="simple"><rect fill="#FEFEEE" filter="url(#f1w8znk6hgnhwi)" height="23.9688" id="StatusOriginator" style="stroke: #A80036; stroke-width: 1.5;" width="109" x="404.75" y="270"/><rect fill="#FEFEEE" height="23.9688" style="stroke: #A80036; stroke-width: 1.5;" width="109" x="404.75" y="270"/><text fill="#000000" font-family="sans-serif" font-size="12" lengthAdjust="spacingAndGlyphs" textLength="103" x="407.75" y="286.1387">StatusOriginator</text></a><!--class Assignee--><a target="_top" xlink:actuate="onRequest" xlink:href="../Assignee.html" xlink:show="new" xlink:title="Party to which the case is assigned." xlink:type="simple"><rect fill="#FEFEEE" filter="url(#f1w8znk6hgnhwi)" height="23.9688" id="Assignee" style="stroke: #A80036; stroke-width: 1.5;" width="63" x="548.75" y="270"/><rect fill="#FEFEEE" height="23.9688" style="stroke: #A80036; stroke-width: 1.5;" width="63" x="548.75" y="270"/><text fill="#000000" font-family="sans-serif" font-size="12" lengthAdjust="spacingAndGlyphs" textLength="57" x="551.75" y="286.1387">Assignee</text></a><!--class RolePlayer--><a target="_top" xlink:actuate="onRequest" xlink:href="../RolePlayer.html" xlink:show="new" xlink:title="Type of entity that plays a specific role in a specific context." xlink:type="simple"><rect fill="#EEEEEE" filter="url(#f1w8znk6hgnhwi)" height="23.9688" id="RolePlayer" style="stroke: #A80036; stroke-width: 1.5;" width="71" x="907.75" y="450"/><rect fill="#EEEEEE" height="23.9688" style="stroke: #A80036; stroke-width: 1.5;" width="71" x="907.75" y="450"/><text fill="#000000" font-family="sans-serif" font-size="12" lengthAdjust="spacingAndGlyphs" textLength="65" x="910.75" y="466.1387">RolePlayer</text></a><!--class ContactPersonRole--><a target="_top" xlink:actuate="onRequest" xlink:href="../ContactPersonRole.html" xlink:show="new" xlink:title="Person to be contacted in a given organisation. In the corporate action domain (including meeting notifications) , it is the contact person at the party organising the meeting, at the issuer or at an intermediary." xlink:type="simple"><rect fill="#EEEEEE" filter="url(#f1w8znk6hgnhwi)" height="23.9688" id="ContactPersonRole" style="stroke: #A80036; stroke-width: 1.5;" width="126" x="900" y="360"/><rect fill="#EEEEEE" height="23.9688" style="stroke: #A80036; stroke-width: 1.5;" width="126" x="900" y="360"/><text fill="#000000" font-family="sans-serif" font-size="12" lengthAdjust="spacingAndGlyphs" textLength="120" x="903" y="376.1387">ContactPersonRole</text></a><!--class CounterpartyRisk--><a target="_top" xlink:actuate="onRequest" xlink:href="../CounterpartyRisk.html" xlink:show="new" xlink:title="Calculation of the exposure amount that one party has vis-a-vis one counterparty or a central system, based on its credit risk." xlink:type="simple"><rect fill="#EEEEEE" filter="url(#f1w8znk6hgnhwi)" height="23.9688" id="CounterpartyRisk" style="stroke: #A80036; stroke-width: 1.5;" width="113" x="906.75" y="270"/><rect fill="#EEEEEE" height="23.9688" style="stroke: #A80036; stroke-width: 1.5;" width="113" x="906.75" y="270"/><text fill="#000000" font-family="sans-serif" font-size="12" lengthAdjust="spacingAndGlyphs" textLength="107" x="909.75" y="286.1387">CounterpartyRisk</text></a><!--class Entry--><a target="_top" xlink:actuate="onRequest" xlink:href="../Entry.html" xlink:show="new" xlink:title="Posting to an account that results in an increase or decrease to a balance." xlink:type="simple"><rect fill="#EEEEEE" filter="url(#f1w8znk6hgnhwi)" height="23.9688" id="Entry" style="stroke: #A80036; stroke-width: 1.5;" width="38" x="988" y="166"/><rect fill="#EEEEEE" height="23.9688" style="stroke: #A80036; stroke-width: 1.5;" width="38" x="988" y="166"/><text fill="#000000" font-family="sans-serif" font-size="12" lengthAdjust="spacingAndGlyphs" textLength="32" x="991" y="182.1387">Entry</text></a><!--class InvestigationCase--><a target="_top" xlink:actuate="onRequest" xlink:href="../InvestigationCase.html" xlink:show="new" xlink:title="Set of activities performed to handle an exception to a normal transaction flow.." xlink:type="simple"><rect fill="#EEEEEE" filter="url(#f1w8znk6hgnhwi)" height="23.9688" id="InvestigationCase" style="stroke: #A80036; stroke-width: 1.5;" width="117" x="38.75" y="360"/><rect fill="#EEEEEE" height="23.9688" style="stroke: #A80036; stroke-width: 1.5;" width="117" x="38.75" y="360"/><text fill="#000000" font-family="sans-serif" font-size="12" lengthAdjust="spacingAndGlyphs" textLength="111" x="41.75" y="376.1387">InvestigationCase</text></a><!--class Status--><a target="_top" xlink:actuate="onRequest" xlink:href="../Status.html" xlink:show="new" xlink:title="The status of an instruction, advice or request." xlink:type="simple"><rect fill="#EEEEEE" filter="url(#f1w8znk6hgnhwi)" height="23.9688" id="Status" style="stroke: #A80036; stroke-width: 1.5;" width="47" x="96.75" y="270"/><rect fill="#EEEEEE" height="23.9688" style="stroke: #A80036; stroke-width: 1.5;" width="47" x="96.75" y="270"/><text fill="#000000" font-family="sans-serif" font-size="12" lengthAdjust="spacingAndGlyphs" textLength="41" x="99.75" y="286.1387">Status</text></a><!--link Role to InvestigationPartyRole--><path d="M507.274,104.213 C498.161,126.124 487.562,151.607 481.631,165.865 " fill="none" id="Role-InvestigationPartyRole" style="stroke: #A80036; stroke-width: 1.0;"/><polygon fill="none" points="500.905,101.299,515.049,85.52,513.831,106.675,500.905,101.299" style="stroke: #A80036; stroke-width: 1.0;"/><!--link InvestigationPartyRole to StatusOriginator--><path d="M471.482,210.267 C467.902,230.554 463.453,255.766 460.949,269.954 " fill="none" id="InvestigationPartyRole-StatusOriginator" style="stroke: #A80036; stroke-width: 1.0;"/><polygon fill="none" points="464.636,208.785,475.005,190.306,478.423,211.218,464.636,208.785" style="stroke: #A80036; stroke-width: 1.0;"/><!--link InvestigationPartyRole to Assignee--><path d="M502.781,204.53 C524.028,225.571 553.133,254.393 568.846,269.954 " fill="none" id="InvestigationPartyRole-Assignee" style="stroke: #A80036; stroke-width: 1.0;"/><polygon fill="none" points="497.702,209.352,488.416,190.306,507.553,199.405,497.702,209.352" style="stroke: #A80036; stroke-width: 1.0;"/><!--link ContactPersonRole to RolePlayer--><!--link CounterpartyRisk to ContactPersonRole--><!--link Entry to CounterpartyRisk--><!--link Status to InvestigationCase--><!--link Role to RolePlayer--><path d="M596.988,85.548 C638.386,102.753 682,131.641 682,177 C682,177 682,177 682,373 C682,418.9392 829.025,445.4913 902.378,455.8799 " fill="none" id="Role-RolePlayer" style="stroke: #A80036; stroke-width: 1.0;"/><polygon fill="#A80036" points="907.529,456.6,899.1686,451.3938,902.577,455.9086,898.0623,459.317,907.529,456.6" style="stroke: #A80036; stroke-width: 1.0;"/><text fill="#000000" font-family="sans-serif" font-size="13" lengthAdjust="spacingAndGlyphs" textLength="39" x="683" y="286.0669">Player</text><text fill="#000000" font-family="sans-serif" font-size="13" lengthAdjust="spacingAndGlyphs" textLength="7" x="892.8674" y="450.3783">*</text><!--link Role to ContactPersonRole--><path d="M611.256,72.588 C644.722,79.708 681.254,92.627 708,116 C752.515,154.901 722.952,192.753 761,238 C809.366,295.518 888.839,337.619 932.282,357.746 " fill="none" id="Role-ContactPersonRole" style="stroke: #A80036; stroke-width: 1.0;"/><polygon fill="#A80036" points="936.884,359.859,930.373,352.4694,932.3398,357.7733,927.0359,359.7401,936.884,359.859" style="stroke: #A80036; stroke-width: 1.0;"/><text fill="#000000" font-family="sans-serif" font-size="13" lengthAdjust="spacingAndGlyphs" textLength="121" x="762" y="233.0669">ContactPersonRole</text><text fill="#000000" font-family="sans-serif" font-size="13" lengthAdjust="spacingAndGlyphs" textLength="8" x="917.1879" y="348.8587">1</text><!--link Role to CounterpartyRisk--><path d="M611.417,70.023 C662.542,76.359 727.036,89.354 779,116 C822.099,138.1 822.994,157.605 859,190 C889.432,217.379 925.498,248.687 946.168,266.523 " fill="none" id="Role-CounterpartyRisk" style="stroke: #A80036; stroke-width: 1.0;"/><polygon fill="#A80036" points="950.091,269.906,945.8854,261.0002,946.3037,266.6416,940.6623,267.0599,950.091,269.906" style="stroke: #A80036; stroke-width: 1.0;"/><text fill="#000000" font-family="sans-serif" font-size="13" lengthAdjust="spacingAndGlyphs" textLength="109" x="860" y="182.0669">CounterpartyRisk</text><text fill="#000000" font-family="sans-serif" font-size="13" lengthAdjust="spacingAndGlyphs" textLength="24" x="916.0988" y="258.9219">0..1</text><!--link Role to Entry--><path d="M611.571,74.345 C681.19,83.273 780.853,97.625 867,116 C909.393,125.043 922.162,122.751 961,142 C971.818,147.361 982.627,155.414 991.047,162.444 " fill="none" id="Role-Entry" style="stroke: #A80036; stroke-width: 1.0;"/><polygon fill="#A80036" points="994.979,165.797,990.7265,156.9135,991.1746,162.5526,985.5355,163.0006,994.979,165.797" style="stroke: #A80036; stroke-width: 1.0;"/><text fill="#000000" font-family="sans-serif" font-size="13" lengthAdjust="spacingAndGlyphs" textLength="33" x="943" y="129.0669">Entry</text><text fill="#000000" font-family="sans-serif" font-size="13" lengthAdjust="spacingAndGlyphs" textLength="8" x="980.3408" y="155.0332">1</text><!--link InvestigationPartyRole to InvestigationCase--><path d="M429.142,190.08 C386.306,201.029 322.502,219.922 271,246 C208.376,277.709 143.524,330.597 113.762,356.207 " fill="none" id="InvestigationPartyRole-InvestigationCase" style="stroke: #A80036; stroke-width: 1.0;"/><polygon fill="#A80036" points="109.63,359.782,119.0534,356.9187,113.4113,356.5107,113.8193,350.8685,109.63,359.782" style="stroke: #A80036; stroke-width: 1.0;"/><text fill="#000000" font-family="sans-serif" font-size="13" lengthAdjust="spacingAndGlyphs" textLength="113" x="272" y="286.0669">InvestigationCase</text><text fill="#000000" font-family="sans-serif" font-size="13" lengthAdjust="spacingAndGlyphs" textLength="7" x="104.2397" y="349.0132">*</text><!--link InvestigationPartyRole to Status--><path d="M404.701,182.993 C328.034,188.238 212.751,199.314 174,220 C154.325,230.503 138.4,251.211 129.07,265.568 " fill="none" id="InvestigationPartyRole-Status" style="stroke: #A80036; stroke-width: 1.0;"/><polygon fill="#A80036" points="126.389,269.801,134.5841,264.3383,129.0645,265.5771,127.8257,260.0575,126.389,269.801" style="stroke: #A80036; stroke-width: 1.0;"/><text fill="#000000" font-family="sans-serif" font-size="13" lengthAdjust="spacingAndGlyphs" textLength="42" x="175" y="233.0669">Status</text><text fill="#000000" font-family="sans-serif" font-size="13" lengthAdjust="spacingAndGlyphs" textLength="7" x="118.9319" y="259.0385">*</text><!--link InvestigationCase to InvestigationCase--><path d="M155.578,363.751 C174.741,363.793 190,366.543 190,372 C190,376.945 177.468,379.667 160.856,380.166 " fill="none" id="InvestigationCase-InvestigationCase" style="stroke: #A80036; stroke-width: 1.0;"/><polygon fill="#A80036" points="155.578,380.249,164.6398,384.1071,160.5774,380.1704,164.514,376.108,155.578,380.249" style="stroke: #A80036; stroke-width: 1.0;"/><text fill="#000000" font-family="sans-serif" font-size="13" lengthAdjust="spacingAndGlyphs" textLength="161" x="196" y="376.0669">OriginalInvestigationCase</text><text fill="#000000" font-family="sans-serif" font-size="13" lengthAdjust="spacingAndGlyphs" textLength="7" x="163.8861" y="376.2932">*</text></g></svg>