<?xml version="1.0" encoding="UTF-8" standalone="no"?><svg xmlns="http://www.w3.org/2000/svg" xmlns:xlink="http://www.w3.org/1999/xlink" contentScriptType="application/ecmascript" contentStyleType="text/css" height="482px" preserveAspectRatio="none" style="width:957px;height:482px;" version="1.1" viewBox="0 0 957 482" width="957px" zoomAndPan="magnify"><defs><filter height="300%" id="f1ex5vs2d3ta8i" width="300%" x="-1" y="-1"><feGaussianBlur result="blurOut" stdDeviation="2.0"/><feColorMatrix in="blurOut" result="blurOut2" type="matrix" values="0 0 0 0 0 0 0 0 0 0 0 0 0 0 0 0 0 0 .4 0"/><feOffset dx="4.0" dy="4.0" in="blurOut2" result="blurOut3"/><feBlend in="SourceGraphic" in2="blurOut3" mode="normal"/></filter></defs><g><!--cluster ##12733--><!--cluster ##12745--><!--cluster ##12754--><!--class Role--><a target="_top" xlink:actuate="onRequest" xlink:href="../Role.html" xlink:show="new" xlink:title="Role of a party in an activity." xlink:type="simple"><rect fill="#FEFEEE" filter="url(#f1ex5vs2d3ta8i)" height="44.7734" id="Role" style="stroke: #A80036; stroke-width: 1.5;" width="175" x="149.75" y="40.5"/><rect fill="#FEFEEE" height="23.9688" style="stroke: #A80036; stroke-width: 1.5;" width="175" x="149.75" y="40.5"/><text fill="#000000" font-family="sans-serif" font-size="12" lengthAdjust="spacingAndGlyphs" textLength="27" x="223.75" y="56.6387">Role</text><line style="stroke: #A80036; stroke-width: 1.5;" x1="150.75" x2="323.75" y1="64.4688" y2="64.4688"/><ellipse cx="160.75" cy="76.3711" fill="#84BE84" rx="3" ry="3" style="stroke: #038048; stroke-width: 1.0;"/><text fill="#000000" font-family="sans-serif" font-size="11" lengthAdjust="spacingAndGlyphs" textLength="53" x="169.75" y="78.6792">PartyRole</text><text fill="#000000" font-family="sans-serif" font-size="11" font-style="italic" lengthAdjust="spacingAndGlyphs" textLength="92" x="226.75" y="78.6792">(PartyRoleCode)</text></a><!--class InvoicePartyRole--><a target="_top" xlink:actuate="onRequest" xlink:href="../InvoicePartyRole.html" xlink:show="new" xlink:title="Role played by a party in the context of an invoice." xlink:type="simple"><rect fill="#FEFECE" filter="url(#f1ex5vs2d3ta8i)" height="23.9688" id="InvoicePartyRole" style="stroke: #A80036; stroke-width: 1.5;" width="108" x="185" y="166"/><rect fill="#FEFECE" height="23.9688" style="stroke: #A80036; stroke-width: 1.5;" width="108" x="185" y="166"/><text fill="#000000" font-family="sans-serif" font-size="12" lengthAdjust="spacingAndGlyphs" textLength="102" x="188" y="182.1387">InvoicePartyRole</text></a><!--class InvoiceeRole--><a target="_top" xlink:actuate="onRequest" xlink:href="../InvoiceeRole.html" xlink:show="new" xlink:title="Party identified as the liable party on the face of a commercial invoice." xlink:type="simple"><rect fill="#FEFEEE" filter="url(#f1ex5vs2d3ta8i)" height="23.9688" id="InvoiceeRole" style="stroke: #A80036; stroke-width: 1.5;" width="84" x="38.5" y="272"/><rect fill="#FEFEEE" height="23.9688" style="stroke: #A80036; stroke-width: 1.5;" width="84" x="38.5" y="272"/><text fill="#000000" font-family="sans-serif" font-size="12" lengthAdjust="spacingAndGlyphs" textLength="78" x="41.5" y="288.1387">InvoiceeRole</text></a><!--class InvoiceFinancingPartyRole--><a target="_top" xlink:actuate="onRequest" xlink:href="../InvoiceFinancingPartyRole.html" xlink:show="new" xlink:title="Role played by a party in the context of financing an invoice." xlink:type="simple"><rect fill="#FEFEEE" filter="url(#f1ex5vs2d3ta8i)" height="23.9688" id="InvoiceFinancingPartyRole" style="stroke: #A80036; stroke-width: 1.5;" width="168" x="157.5" y="272"/><rect fill="#FEFEEE" height="23.9688" style="stroke: #A80036; stroke-width: 1.5;" width="168" x="157.5" y="272"/><text fill="#000000" font-family="sans-serif" font-size="12" lengthAdjust="spacingAndGlyphs" textLength="162" x="160.5" y="288.1387">InvoiceFinancingPartyRole</text></a><!--class RolePlayer--><a target="_top" xlink:actuate="onRequest" xlink:href="../RolePlayer.html" xlink:show="new" xlink:title="Type of entity that plays a specific role in a specific context." xlink:type="simple"><rect fill="#EEEEEE" filter="url(#f1ex5vs2d3ta8i)" height="23.9688" id="RolePlayer" style="stroke: #A80036; stroke-width: 1.5;" width="71" x="767.75" y="448"/><rect fill="#EEEEEE" height="23.9688" style="stroke: #A80036; stroke-width: 1.5;" width="71" x="767.75" y="448"/><text fill="#000000" font-family="sans-serif" font-size="12" lengthAdjust="spacingAndGlyphs" textLength="65" x="770.75" y="464.1387">RolePlayer</text></a><!--class ContactPersonRole--><a target="_top" xlink:actuate="onRequest" xlink:href="../ContactPersonRole.html" xlink:show="new" xlink:title="Person to be contacted in a given organisation. In the corporate action domain (including meeting notifications) , it is the contact person at the party organising the meeting, at the issuer or at an intermediary." xlink:type="simple"><rect fill="#EEEEEE" filter="url(#f1ex5vs2d3ta8i)" height="23.9688" id="ContactPersonRole" style="stroke: #A80036; stroke-width: 1.5;" width="126" x="760" y="362"/><rect fill="#EEEEEE" height="23.9688" style="stroke: #A80036; stroke-width: 1.5;" width="126" x="760" y="362"/><text fill="#000000" font-family="sans-serif" font-size="12" lengthAdjust="spacingAndGlyphs" textLength="120" x="763" y="378.1387">ContactPersonRole</text></a><!--class CounterpartyRisk--><a target="_top" xlink:actuate="onRequest" xlink:href="../CounterpartyRisk.html" xlink:show="new" xlink:title="Calculation of the exposure amount that one party has vis-a-vis one counterparty or a central system, based on its credit risk." xlink:type="simple"><rect fill="#EEEEEE" filter="url(#f1ex5vs2d3ta8i)" height="23.9688" id="CounterpartyRisk" style="stroke: #A80036; stroke-width: 1.5;" width="113" x="772.75" y="272"/><rect fill="#EEEEEE" height="23.9688" style="stroke: #A80036; stroke-width: 1.5;" width="113" x="772.75" y="272"/><text fill="#000000" font-family="sans-serif" font-size="12" lengthAdjust="spacingAndGlyphs" textLength="107" x="775.75" y="288.1387">CounterpartyRisk</text></a><!--class Entry--><a target="_top" xlink:actuate="onRequest" xlink:href="../Entry.html" xlink:show="new" xlink:title="Posting to an account that results in an increase or decrease to a balance." xlink:type="simple"><rect fill="#EEEEEE" filter="url(#f1ex5vs2d3ta8i)" height="23.9688" id="Entry" style="stroke: #A80036; stroke-width: 1.5;" width="38" x="760" y="166"/><rect fill="#EEEEEE" height="23.9688" style="stroke: #A80036; stroke-width: 1.5;" width="38" x="760" y="166"/><text fill="#000000" font-family="sans-serif" font-size="12" lengthAdjust="spacingAndGlyphs" textLength="32" x="763" y="182.1387">Entry</text></a><!--class Invoice--><a target="_top" xlink:actuate="onRequest" xlink:href="../Invoice.html" xlink:show="new" xlink:title="General information about an invoice, such as number, issue date date and monetary amounts." xlink:type="simple"><rect fill="#EEEEEE" filter="url(#f1ex5vs2d3ta8i)" height="23.9688" id="Invoice" style="stroke: #A80036; stroke-width: 1.5;" width="49" x="381.75" y="272"/><rect fill="#EEEEEE" height="23.9688" style="stroke: #A80036; stroke-width: 1.5;" width="49" x="381.75" y="272"/><text fill="#000000" font-family="sans-serif" font-size="12" lengthAdjust="spacingAndGlyphs" textLength="43" x="384.75" y="288.1387">Invoice</text></a><!--link Role to InvoicePartyRole--><path d="M237.736,105.559 C238.118,127.159 238.556,151.898 238.803,165.865 " fill="none" id="Role-InvoicePartyRole" style="stroke: #A80036; stroke-width: 1.0;"/><polygon fill="none" points="230.736,105.641,237.381,85.52,244.734,105.393,230.736,105.641" style="stroke: #A80036; stroke-width: 1.0;"/><!--link InvoicePartyRole to InvoiceeRole--><path d="M204.987,201.247 C171.748,222.989 122.52,255.188 96.8934,271.95 " fill="none" id="InvoicePartyRole-InvoiceeRole" style="stroke: #A80036; stroke-width: 1.0;"/><polygon fill="none" points="201.415,195.22,221.984,190.13,209.078,206.936,201.415,195.22" style="stroke: #A80036; stroke-width: 1.0;"/><!--link InvoicePartyRole to InvoiceFinancingPartyRole--><path d="M239.6,210.217 C240.002,231.114 240.507,257.371 240.788,271.95 " fill="none" id="InvoicePartyRole-InvoiceFinancingPartyRole" style="stroke: #A80036; stroke-width: 1.0;"/><polygon fill="none" points="232.6,210.261,239.214,190.13,246.597,209.991,232.6,210.261" style="stroke: #A80036; stroke-width: 1.0;"/><!--link ContactPersonRole to RolePlayer--><!--link CounterpartyRisk to ContactPersonRole--><!--link Entry to CounterpartyRisk--><!--link Role to RolePlayer--><path d="M324.333,71.891 C438.475,84.665 624,114.969 624,177 C624,177 624,177 624,375 C624,435.8572 709.842,452.7099 762.634,457.3199 " fill="none" id="Role-RolePlayer" style="stroke: #A80036; stroke-width: 1.0;"/><polygon fill="#A80036" points="767.635,457.7288,758.9919,453.0068,762.6517,457.3202,758.3382,460.98,767.635,457.7288" style="stroke: #A80036; stroke-width: 1.0;"/><text fill="#000000" font-family="sans-serif" font-size="13" lengthAdjust="spacingAndGlyphs" textLength="39" x="625" y="288.0669">Player</text><text fill="#000000" font-family="sans-serif" font-size="13" lengthAdjust="spacingAndGlyphs" textLength="7" x="752.7402" y="451.9585">*</text><!--link Role to ContactPersonRole--><path d="M324.358,64.892 C430.198,67.668 600.514,78.103 650,116 C696.524,151.629 672.715,186.141 700,238 C720.778,277.492 724.468,289.456 755,322 C768.542,336.435 786.56,349.743 800.646,359.144 " fill="none" id="Role-ContactPersonRole" style="stroke: #A80036; stroke-width: 1.0;"/><polygon fill="#A80036" points="804.883,361.932,799.5653,353.6421,800.7068,359.1826,795.1663,360.3241,804.883,361.932" style="stroke: #A80036; stroke-width: 1.0;"/><text fill="#000000" font-family="sans-serif" font-size="13" lengthAdjust="spacingAndGlyphs" textLength="121" x="701" y="233.0669">ContactPersonRole</text><text fill="#000000" font-family="sans-serif" font-size="13" lengthAdjust="spacingAndGlyphs" textLength="8" x="787.9365" y="350.9568">1</text><!--link Role to CounterpartyRisk--><path d="M324.483,63.496 C461.327,64.129 718.502,71.455 797,116 C827.961,133.569 842.627,217.782 843,220 C845.723,236.192 840.741,254.491 835.983,267.178 " fill="none" id="Role-CounterpartyRisk" style="stroke: #A80036; stroke-width: 1.0;"/><polygon fill="#A80036" points="834.118,271.916,841.1346,265.0046,835.9481,267.263,833.6897,262.0765,834.118,271.916" style="stroke: #A80036; stroke-width: 1.0;"/><text fill="#000000" font-family="sans-serif" font-size="13" lengthAdjust="spacingAndGlyphs" textLength="109" x="836" y="182.0669">CounterpartyRisk</text><text fill="#000000" font-family="sans-serif" font-size="13" lengthAdjust="spacingAndGlyphs" textLength="24" x="806.3226" y="260.9353">0..1</text><!--link Role to Entry--><path d="M324.253,64.888 C447.509,67.521 665.166,77.649 733,116 C751.05,126.205 764.209,146.694 771.719,161.101 " fill="none" id="Role-Entry" style="stroke: #A80036; stroke-width: 1.0;"/><polygon fill="#A80036" points="774.049,165.73,773.5766,155.8925,771.8015,161.2636,766.4304,159.4885,774.049,165.73" style="stroke: #A80036; stroke-width: 1.0;"/><text fill="#000000" font-family="sans-serif" font-size="13" lengthAdjust="spacingAndGlyphs" textLength="33" x="754" y="129.0669">Entry</text><text fill="#000000" font-family="sans-serif" font-size="13" lengthAdjust="spacingAndGlyphs" textLength="8" x="761.7527" y="154.944">1</text><!--link InvoicePartyRole to Invoice--><path d="M256.872,190.13 C287.634,209.287 350.498,248.436 383.936,269.26 " fill="none" id="InvoicePartyRole-Invoice" style="stroke: #A80036; stroke-width: 1.0;"/><polygon fill="#A80036" points="388.257,271.95,382.7314,263.7972,384.0126,269.3071,378.5027,270.5882,388.257,271.95" style="stroke: #A80036; stroke-width: 1.0;"/><text fill="#000000" font-family="sans-serif" font-size="13" lengthAdjust="spacingAndGlyphs" textLength="44" x="334" y="233.0669">Invoice</text><text fill="#000000" font-family="sans-serif" font-size="13" lengthAdjust="spacingAndGlyphs" textLength="7" x="372.525" y="260.981">*</text><!--link Invoice to Invoice--><path d="M430.549,276.26 C447.858,273.828 465,276.408 465,284 C465,290.821 451.163,293.596 435.8,292.326 " fill="none" id="Invoice-Invoice" style="stroke: #A80036; stroke-width: 1.0;"/><polygon fill="#A80036" points="430.549,291.74,439.0502,296.7129,435.5182,292.2942,439.9369,288.7622,430.549,291.74" style="stroke: #A80036; stroke-width: 1.0;"/><text fill="#000000" font-family="sans-serif" font-size="13" lengthAdjust="spacingAndGlyphs" textLength="92" x="471" y="288.0669">OriginalInvoice</text><text fill="#000000" font-family="sans-serif" font-size="13" lengthAdjust="spacingAndGlyphs" textLength="8" x="438.8618" y="287.6077">1</text></g></svg>