<?xml version="1.0" encoding="UTF-8" standalone="no"?><svg xmlns="http://www.w3.org/2000/svg" xmlns:xlink="http://www.w3.org/1999/xlink" contentScriptType="application/ecmascript" contentStyleType="text/css" height="884px" preserveAspectRatio="none" style="width:1151px;height:884px;" version="1.1" viewBox="0 0 1151 884" width="1151px" zoomAndPan="magnify"><defs><filter height="300%" id="f18bzmyq570pg" width="300%" x="-1" y="-1"><feGaussianBlur result="blurOut" stdDeviation="2.0"/><feColorMatrix in="blurOut" result="blurOut2" type="matrix" values="0 0 0 0 0 0 0 0 0 0 0 0 0 0 0 0 0 0 .4 0"/><feOffset dx="4.0" dy="4.0" in="blurOut2" result="blurOut3"/><feBlend in="SourceGraphic" in2="blurOut3" mode="normal"/></filter></defs><g><!--cluster ##14553--><!--cluster ##14556--><!--class Invoice--><a target="_top" xlink:actuate="onRequest" xlink:href="../Invoice.html" xlink:show="new" xlink:title="General information about an invoice, such as number, issue date date and monetary amounts." xlink:type="simple"><rect fill="#FEFECE" filter="url(#f18bzmyq570pg)" height="160.0156" id="Invoice" style="stroke: #A80036; stroke-width: 1.5;" width="400" x="253" y="40"/><rect fill="#FEFECE" height="23.9688" style="stroke: #A80036; stroke-width: 1.5;" width="400" x="253" y="40"/><text fill="#000000" font-family="sans-serif" font-size="12" lengthAdjust="spacingAndGlyphs" textLength="43" x="431.5" y="56.1387">Invoice</text><line style="stroke: #A80036; stroke-width: 1.5;" x1="254" x2="652" y1="63.9688" y2="63.9688"/><ellipse cx="264" cy="75.8711" fill="#84BE84" rx="3" ry="3" style="stroke: #038048; stroke-width: 1.0;"/><text fill="#000000" font-family="sans-serif" font-size="11" lengthAdjust="spacingAndGlyphs" textLength="132" x="273" y="78.1792">CreditDebitNoteAmount</text><text fill="#000000" font-family="sans-serif" font-size="11" font-style="italic" lengthAdjust="spacingAndGlyphs" textLength="126" x="409" y="78.1792">(CurrencyAndAmount)</text><ellipse cx="264" cy="88.6758" fill="#84BE84" rx="3" ry="3" style="stroke: #038048; stroke-width: 1.0;"/><text fill="#000000" font-family="sans-serif" font-size="11" lengthAdjust="spacingAndGlyphs" textLength="91" x="273" y="90.9839">TotalTaxAmount</text><text fill="#000000" font-family="sans-serif" font-size="11" font-style="italic" lengthAdjust="spacingAndGlyphs" textLength="126" x="368" y="90.9839">(CurrencyAndAmount)</text><ellipse cx="264" cy="101.4805" fill="#84BE84" rx="3" ry="3" style="stroke: #038048; stroke-width: 1.0;"/><text fill="#000000" font-family="sans-serif" font-size="11" lengthAdjust="spacingAndGlyphs" textLength="110" x="273" y="103.7886">TotalInvoiceAmount</text><text fill="#000000" font-family="sans-serif" font-size="11" font-style="italic" lengthAdjust="spacingAndGlyphs" textLength="126" x="387" y="103.7886">(CurrencyAndAmount)</text><ellipse cx="264" cy="114.2852" fill="#84BE84" rx="3" ry="3" style="stroke: #038048; stroke-width: 1.0;"/><text fill="#000000" font-family="sans-serif" font-size="11" lengthAdjust="spacingAndGlyphs" textLength="90" x="273" y="116.5933">InvoiceCurrency</text><text fill="#000000" font-family="sans-serif" font-size="11" font-style="italic" lengthAdjust="spacingAndGlyphs" textLength="89" x="367" y="116.5933">(CurrencyCode)</text><ellipse cx="264" cy="127.0898" fill="#84BE84" rx="3" ry="3" style="stroke: #038048; stroke-width: 1.0;"/><text fill="#000000" font-family="sans-serif" font-size="11" lengthAdjust="spacingAndGlyphs" textLength="69" x="273" y="129.3979">TotalCharge</text><text fill="#000000" font-family="sans-serif" font-size="11" font-style="italic" lengthAdjust="spacingAndGlyphs" textLength="126" x="346" y="129.3979">(CurrencyAndAmount)</text><ellipse cx="264" cy="139.8945" fill="#84BE84" rx="3" ry="3" style="stroke: #038048; stroke-width: 1.0;"/><text fill="#000000" font-family="sans-serif" font-size="11" lengthAdjust="spacingAndGlyphs" textLength="114" x="273" y="142.2026">TotalPrepaidAmount</text><text fill="#000000" font-family="sans-serif" font-size="11" font-style="italic" lengthAdjust="spacingAndGlyphs" textLength="126" x="391" y="142.2026">(CurrencyAndAmount)</text><ellipse cx="264" cy="152.6992" fill="#84BE84" rx="3" ry="3" style="stroke: #038048; stroke-width: 1.0;"/><text fill="#000000" font-family="sans-serif" font-size="11" lengthAdjust="spacingAndGlyphs" textLength="90" x="273" y="155.0073">TotalNetAmount</text><text fill="#000000" font-family="sans-serif" font-size="11" font-style="italic" lengthAdjust="spacingAndGlyphs" textLength="126" x="367" y="155.0073">(CurrencyAndAmount)</text><ellipse cx="264" cy="165.5039" fill="#84BE84" rx="3" ry="3" style="stroke: #038048; stroke-width: 1.0;"/><text fill="#000000" font-family="sans-serif" font-size="11" lengthAdjust="spacingAndGlyphs" textLength="143" x="273" y="167.812">BillingCompensationType</text><text fill="#000000" font-family="sans-serif" font-size="11" font-style="italic" lengthAdjust="spacingAndGlyphs" textLength="227" x="420" y="167.812">(ExternalBillingCompensationTypeCode)</text><ellipse cx="264" cy="178.3086" fill="#84BE84" rx="3" ry="3" style="stroke: #038048; stroke-width: 1.0;"/><text fill="#000000" font-family="sans-serif" font-size="11" lengthAdjust="spacingAndGlyphs" textLength="159" x="273" y="180.6167">BillingCompensationAmount</text><text fill="#000000" font-family="sans-serif" font-size="11" font-style="italic" lengthAdjust="spacingAndGlyphs" textLength="126" x="436" y="180.6167">(CurrencyAndAmount)</text><ellipse cx="264" cy="191.1133" fill="#84BE84" rx="3" ry="3" style="stroke: #038048; stroke-width: 1.0;"/><text fill="#000000" font-family="sans-serif" font-size="11" lengthAdjust="spacingAndGlyphs" textLength="112" x="273" y="193.4214">CreditDebitIndicator</text><text fill="#000000" font-family="sans-serif" font-size="11" font-style="italic" lengthAdjust="spacingAndGlyphs" textLength="100" x="389" y="193.4214">(DebitCreditCode)</text></a><!--class DateTimePeriod--><a target="_top" xlink:actuate="onRequest" xlink:href="../DateTimePeriod.html" xlink:show="new" xlink:title="Time span defined by a start date and time, and an end date and time." xlink:type="simple"><rect fill="#EEEEEE" filter="url(#f18bzmyq570pg)" height="23.9688" id="DateTimePeriod" style="stroke: #A80036; stroke-width: 1.5;" width="105" x="466.75" y="386"/><rect fill="#EEEEEE" height="23.9688" style="stroke: #A80036; stroke-width: 1.5;" width="105" x="466.75" y="386"/><text fill="#000000" font-family="sans-serif" font-size="12" lengthAdjust="spacingAndGlyphs" textLength="99" x="469.75" y="402.1387">DateTimePeriod</text></a><!--class CommercialTradeSettlement--><a target="_top" xlink:actuate="onRequest" xlink:href="../CommercialTradeSettlement.html" xlink:show="new" xlink:title="Settlement of a commercial trade, that is, the instruction to deliver goods or services against the payment of an amount of money." xlink:type="simple"><rect fill="#EEEEEE" filter="url(#f18bzmyq570pg)" height="23.9688" id="CommercialTradeSettlement" style="stroke: #A80036; stroke-width: 1.5;" width="183" x="436.75" y="282"/><rect fill="#EEEEEE" height="23.9688" style="stroke: #A80036; stroke-width: 1.5;" width="183" x="436.75" y="282"/><text fill="#000000" font-family="sans-serif" font-size="12" lengthAdjust="spacingAndGlyphs" textLength="177" x="439.75" y="298.1387">CommercialTradeSettlement</text></a><!--class LineItem--><a target="_top" xlink:actuate="onRequest" xlink:href="../LineItem.html" xlink:show="new" xlink:title="Unit of information  showing the related  provision of products and/or services and monetary summations reported as a discrete line item." xlink:type="simple"><rect fill="#EEEEEE" filter="url(#f18bzmyq570pg)" height="23.9688" id="LineItem" style="stroke: #A80036; stroke-width: 1.5;" width="58" x="359.5" y="850"/><rect fill="#EEEEEE" height="23.9688" style="stroke: #A80036; stroke-width: 1.5;" width="58" x="359.5" y="850"/><text fill="#000000" font-family="sans-serif" font-size="12" lengthAdjust="spacingAndGlyphs" textLength="52" x="362.5" y="866.1387">LineItem</text></a><!--class CurrencyExchange--><a target="_top" xlink:actuate="onRequest" xlink:href="../CurrencyExchange.html" xlink:show="new" xlink:title="Information needed to process a currency exchange or conversion." xlink:type="simple"><rect fill="#EEEEEE" filter="url(#f18bzmyq570pg)" height="23.9688" id="CurrencyExchange" style="stroke: #A80036; stroke-width: 1.5;" width="122" x="327" y="764"/><rect fill="#EEEEEE" height="23.9688" style="stroke: #A80036; stroke-width: 1.5;" width="122" x="327" y="764"/><text fill="#000000" font-family="sans-serif" font-size="12" lengthAdjust="spacingAndGlyphs" textLength="116" x="330" y="780.1387">CurrencyExchange</text></a><!--class InvoicePartyRole--><a target="_top" xlink:actuate="onRequest" xlink:href="../InvoicePartyRole.html" xlink:show="new" xlink:title="Role played by a party in the context of an invoice." xlink:type="simple"><rect fill="#EEEEEE" filter="url(#f18bzmyq570pg)" height="23.9688" id="InvoicePartyRole" style="stroke: #A80036; stroke-width: 1.5;" width="108" x="334" y="678"/><rect fill="#EEEEEE" height="23.9688" style="stroke: #A80036; stroke-width: 1.5;" width="108" x="334" y="678"/><text fill="#000000" font-family="sans-serif" font-size="12" lengthAdjust="spacingAndGlyphs" textLength="102" x="337" y="694.1387">InvoicePartyRole</text></a><!--class InvoiceFinancingAgreement--><a target="_top" xlink:actuate="onRequest" xlink:href="../InvoiceFinancingAgreement.html" xlink:show="new" xlink:title="Set of characteristics that unambiguously identify an invoice financing agreement. An invoice financing agreement between a factor and its client allows to transfer a payment obligation that exists between the client and a third party from the client to the factor." xlink:type="simple"><rect fill="#EEEEEE" filter="url(#f18bzmyq570pg)" height="23.9688" id="InvoiceFinancingAgreement" style="stroke: #A80036; stroke-width: 1.5;" width="178" x="405.5" y="592"/><rect fill="#EEEEEE" height="23.9688" style="stroke: #A80036; stroke-width: 1.5;" width="178" x="405.5" y="592"/><text fill="#000000" font-family="sans-serif" font-size="12" lengthAdjust="spacingAndGlyphs" textLength="172" x="408.5" y="608.1387">InvoiceFinancingAgreement</text></a><!--class InvoiceStatus--><a target="_top" xlink:actuate="onRequest" xlink:href="../InvoiceStatus.html" xlink:show="new" xlink:title="Status of the invoice or of the billing process." xlink:type="simple"><rect fill="#EEEEEE" filter="url(#f18bzmyq570pg)" height="23.9688" id="InvoiceStatus" style="stroke: #A80036; stroke-width: 1.5;" width="90" x="449" y="490"/><rect fill="#EEEEEE" height="23.9688" style="stroke: #A80036; stroke-width: 1.5;" width="90" x="449" y="490"/><text fill="#000000" font-family="sans-serif" font-size="12" lengthAdjust="spacingAndGlyphs" textLength="84" x="452" y="506.1387">InvoiceStatus</text></a><!--class Payment--><a target="_top" xlink:actuate="onRequest" xlink:href="../Payment.html" xlink:show="new" xlink:title="Payment information and processes required to transfer cash end to end from the debtor to the creditor." xlink:type="simple"><rect fill="#EEEEEE" filter="url(#f18bzmyq570pg)" height="23.9688" id="Payment" style="stroke: #A80036; stroke-width: 1.5;" width="60" x="233.5" y="386"/><rect fill="#EEEEEE" height="23.9688" style="stroke: #A80036; stroke-width: 1.5;" width="60" x="233.5" y="386"/><text fill="#000000" font-family="sans-serif" font-size="12" lengthAdjust="spacingAndGlyphs" textLength="54" x="236.5" y="402.1387">Payment</text></a><!--link CommercialTradeSettlement to DateTimePeriod--><!--link LineItem to CommercialTradeSettlement--><!--link CurrencyExchange to LineItem--><!--link InvoicePartyRole to CurrencyExchange--><!--link InvoiceFinancingAgreement to InvoicePartyRole--><!--link InvoiceStatus to InvoiceFinancingAgreement--><!--link Payment to InvoiceStatus--><!--link Invoice to DateTimePeriod--><path d="M352.413,200.312 C325.32,231.497 307.335,268.725 323,306 C334.811,334.105 345.694,338.593 372,354 C399.324,370.004 433.037,380.423 461.282,386.99 " fill="none" id="Invoice-DateTimePeriod" style="stroke: #A80036; stroke-width: 1.0;"/><polygon fill="#A80036" points="466.49,388.172,458.5975,382.2806,461.6138,387.0662,456.8282,390.0825,466.49,388.172" style="stroke: #A80036; stroke-width: 1.0;"/><text fill="#000000" font-family="sans-serif" font-size="13" lengthAdjust="spacingAndGlyphs" textLength="93" x="324" y="298.0669">PeriodCovered</text><text fill="#000000" font-family="sans-serif" font-size="13" lengthAdjust="spacingAndGlyphs" textLength="7" x="451.8693" y="382.1292">*</text><!--link Invoice to CommercialTradeSettlement--><path d="M487.536,200.204 C500.258,229.377 513.436,259.601 521.168,277.332 " fill="none" id="Invoice-CommercialTradeSettlement" style="stroke: #A80036; stroke-width: 1.0;"/><polygon fill="#A80036" points="523.199,281.991,523.2679,272.1424,521.2003,277.4079,515.9348,275.3403,523.199,281.991" style="stroke: #A80036; stroke-width: 1.0;"/><text fill="#000000" font-family="sans-serif" font-size="13" lengthAdjust="spacingAndGlyphs" textLength="108" x="509" y="245.0669">TradeSettlement</text><text fill="#000000" font-family="sans-serif" font-size="13" lengthAdjust="spacingAndGlyphs" textLength="7" x="511.9158" y="271.0361">*</text><!--link Invoice to LineItem--><path d="M252.708,161.103 C133.784,190.87 6,236.094 6,293 C6,293 6,293 6,777 C6,847.9758 260.727,859.0482 354.164,860.7221 " fill="none" id="Invoice-LineItem" style="stroke: #A80036; stroke-width: 1.0;"/><polygon fill="#A80036" points="359.288,860.8074,350.3567,856.6563,354.2887,860.7231,350.2219,864.6551,359.288,860.8074" style="stroke: #A80036; stroke-width: 1.0;"/><text fill="#000000" font-family="sans-serif" font-size="13" lengthAdjust="spacingAndGlyphs" textLength="55" x="7" y="557.0669">LineItem</text><text fill="#000000" font-family="sans-serif" font-size="13" lengthAdjust="spacingAndGlyphs" textLength="7" x="344.3349" y="854.8921">*</text><!--link Invoice to CurrencyExchange--><path d="M653.347,143.851 C816.168,168.191 1019,214.305 1019,293 C1019,293 1019,293 1019,691 C1019,747.509 616.228,767.341 454.266,773.032 " fill="none" id="Invoice-CurrencyExchange" style="stroke: #A80036; stroke-width: 1.0;"/><polygon fill="#A80036" points="449.076,773.212,458.21,776.8959,454.073,773.0377,457.9311,768.9007,449.076,773.212" style="stroke: #A80036; stroke-width: 1.0;"/><text fill="#000000" font-family="sans-serif" font-size="13" lengthAdjust="spacingAndGlyphs" textLength="119" x="1020" y="506.0669">CurrencyExchange</text><text fill="#000000" font-family="sans-serif" font-size="13" lengthAdjust="spacingAndGlyphs" textLength="7" x="456.9462" y="767.9132">*</text><!--link Invoice to InvoicePartyRole--><path d="M252.866,143.719 C167.42,165.691 87,208.75 87,293 C87,293 87,293 87,605 C87,654.67 240.984,676.26 328.679,684.528 " fill="none" id="Invoice-InvoicePartyRole" style="stroke: #A80036; stroke-width: 1.0;"/><polygon fill="#A80036" points="333.84,685.006,325.2489,680.19,328.8615,684.5431,324.5084,688.1557,333.84,685.006" style="stroke: #A80036; stroke-width: 1.0;"/><text fill="#000000" font-family="sans-serif" font-size="13" lengthAdjust="spacingAndGlyphs" textLength="104" x="88" y="455.0669">InvoicePartyRole</text><text fill="#000000" font-family="sans-serif" font-size="13" lengthAdjust="spacingAndGlyphs" textLength="7" x="319.0574" y="679.5221">*</text><!--link Invoice to Invoice--><path d="M653.148,101.285 C674.373,104.914 688,111.152 688,120 C688,128.087 676.615,133.994 658.448,137.721 " fill="none" id="Invoice-Invoice" style="stroke: #A80036; stroke-width: 1.0;"/><polygon fill="#A80036" points="653.148,138.715,662.731,140.9879,658.0624,137.7936,661.2567,133.1249,653.148,138.715" style="stroke: #A80036; stroke-width: 1.0;"/><text fill="#000000" font-family="sans-serif" font-size="13" lengthAdjust="spacingAndGlyphs" textLength="92" x="694" y="124.0669">OriginalInvoice</text><text fill="#000000" font-family="sans-serif" font-size="13" lengthAdjust="spacingAndGlyphs" textLength="8" x="661.1225" y="135.1832">1</text><!--link Invoice to InvoiceFinancingAgreement--><path d="M653.308,155.179 C723.423,179.606 785,221.431 785,293 C785,293 785,293 785,503 C785,547.39 662.363,576.289 576.316,591.103 " fill="none" id="Invoice-InvoiceFinancingAgreement" style="stroke: #A80036; stroke-width: 1.0;"/><polygon fill="#A80036" points="571.219,591.971,580.7631,594.402,576.1479,591.1309,579.419,586.5158,571.219,591.971" style="stroke: #A80036; stroke-width: 1.0;"/><text fill="#000000" font-family="sans-serif" font-size="13" lengthAdjust="spacingAndGlyphs" textLength="178" x="786" y="402.0669">InvoiceFinancingTransaction</text><text fill="#000000" font-family="sans-serif" font-size="13" lengthAdjust="spacingAndGlyphs" textLength="8" x="586.8724" y="581.0092">1</text><!--link Invoice to InvoiceStatus--><path d="M606.184,200.188 C621.435,216.508 632.856,235.68 637,258 C650.112,328.619 634.722,357.448 588,412 C563.672,440.405 531.251,469.49 511.54,486.367 " fill="none" id="Invoice-InvoiceStatus" style="stroke: #A80036; stroke-width: 1.0;"/><polygon fill="#A80036" points="507.294,489.981,516.7398,487.1922,511.1011,486.7396,511.5536,481.1009,507.294,489.981" style="stroke: #A80036; stroke-width: 1.0;"/><text fill="#000000" font-family="sans-serif" font-size="13" lengthAdjust="spacingAndGlyphs" textLength="86" x="637" y="349.0669">InvoiceStatus</text><text fill="#000000" font-family="sans-serif" font-size="13" lengthAdjust="spacingAndGlyphs" textLength="8" x="501.1451" y="479.0227">1</text><!--link Invoice to Payment--><path d="M298.295,200.172 C278.904,216.632 261.774,235.849 250,258 C228.688,298.094 245.53,353.945 256.097,381.019 " fill="none" id="Invoice-Payment" style="stroke: #A80036; stroke-width: 1.0;"/><polygon fill="#A80036" points="257.987,385.73,258.3485,375.8878,256.1254,381.0895,250.9237,378.8664,257.987,385.73" style="stroke: #A80036; stroke-width: 1.0;"/><text fill="#000000" font-family="sans-serif" font-size="13" lengthAdjust="spacingAndGlyphs" textLength="57" x="251" y="298.0669">Payment</text><text fill="#000000" font-family="sans-serif" font-size="13" lengthAdjust="spacingAndGlyphs" textLength="7" x="246.6702" y="374.944">*</text><!--link CommercialTradeSettlement to Payment--><path d="M499.389,306.013 C450.121,324.976 349.498,363.706 296.837,383.976 " fill="none" id="CommercialTradeSettlement-Payment" style="stroke: #A80036; stroke-width: 1.0;"/><polygon fill="#A80036" points="291.894,385.879,301.7302,386.3777,296.56,384.0823,298.8555,378.9121,291.894,385.879" style="stroke: #A80036; stroke-width: 1.0;"/><text fill="#000000" font-family="sans-serif" font-size="13" lengthAdjust="spacingAndGlyphs" textLength="57" x="421" y="349.0669">Payment</text><text fill="#000000" font-family="sans-serif" font-size="13" lengthAdjust="spacingAndGlyphs" textLength="7" x="292.1076" y="374.8856">*</text><!--link CurrencyExchange to Payment--><path d="M340.724,763.89 C304.971,752.35 262,730.304 262,691 C262,501 262,501 262,501 C262,470.6 262.45,435.107 262.746,415.02 " fill="none" id="CurrencyExchange-Payment" style="stroke: #A80036; stroke-width: 1.0;"/><polygon fill="#A80036" points="262.821,410.018,258.6852,418.9564,262.7453,415.0174,266.6843,419.0775,262.821,410.018" style="stroke: #A80036; stroke-width: 1.0;"/><text fill="#000000" font-family="sans-serif" font-size="13" lengthAdjust="spacingAndGlyphs" textLength="105" x="263" y="608.0669">RelatedPayment</text><text fill="#000000" font-family="sans-serif" font-size="13" lengthAdjust="spacingAndGlyphs" textLength="8" x="251.4784" y="430.1699">1</text><!--link Payment to Payment--><path d="M292.625,388.859 C310.333,386.828 327,389.875 327,398 C327,405.3 313.547,408.501 297.972,407.602 " fill="none" id="Payment-Payment" style="stroke: #A80036; stroke-width: 1.0;"/><polygon fill="#A80036" points="292.625,407.141,301.2477,411.9002,297.6065,407.571,301.9357,403.9298,292.625,407.141" style="stroke: #A80036; stroke-width: 1.0;"/><text fill="#000000" font-family="sans-serif" font-size="13" lengthAdjust="spacingAndGlyphs" textLength="105" x="333" y="402.0669">OriginalPayment</text><text fill="#000000" font-family="sans-serif" font-size="13" lengthAdjust="spacingAndGlyphs" textLength="8" x="301.5273" y="403.4022">1</text></g></svg>