<?xml version="1.0" encoding="UTF-8" standalone="no"?><svg xmlns="http://www.w3.org/2000/svg" xmlns:xlink="http://www.w3.org/1999/xlink" contentScriptType="application/ecmascript" contentStyleType="text/css" height="808px" preserveAspectRatio="none" style="width:966px;height:808px;" version="1.1" viewBox="0 0 966 808" width="966px" zoomAndPan="magnify"><defs><filter height="300%" id="f13f1nugddhsej" width="300%" x="-1" y="-1"><feGaussianBlur result="blurOut" stdDeviation="2.0"/><feColorMatrix in="blurOut" result="blurOut2" type="matrix" values="0 0 0 0 0 0 0 0 0 0 0 0 0 0 0 0 0 0 .4 0"/><feOffset dx="4.0" dy="4.0" in="blurOut2" result="blurOut3"/><feBlend in="SourceGraphic" in2="blurOut3" mode="normal"/></filter></defs><g><!--cluster ##13736--><!--cluster ##13742--><!--cluster ##13751--><!--class Agreement--><a target="_top" xlink:actuate="onRequest" xlink:href="../Agreement.html" xlink:show="new" xlink:title="Contractual details related to an agreement between parties." xlink:type="simple"><rect fill="#FEFEEE" filter="url(#f13f1nugddhsej)" height="70.3828" id="Agreement" style="stroke: #A80036; stroke-width: 1.5;" width="171" x="342.75" y="40"/><rect fill="#FEFEEE" height="23.9688" style="stroke: #A80036; stroke-width: 1.5;" width="171" x="342.75" y="40"/><text fill="#000000" font-family="sans-serif" font-size="12" lengthAdjust="spacingAndGlyphs" textLength="69" x="393.75" y="56.1387">Agreement</text><line style="stroke: #A80036; stroke-width: 1.5;" x1="343.75" x2="512.75" y1="63.9688" y2="63.9688"/><ellipse cx="353.75" cy="75.8711" fill="#84BE84" rx="3" ry="3" style="stroke: #038048; stroke-width: 1.0;"/><text fill="#000000" font-family="sans-serif" font-size="11" lengthAdjust="spacingAndGlyphs" textLength="65" x="362.75" y="78.1792">DateSigned</text><text fill="#000000" font-family="sans-serif" font-size="11" font-style="italic" lengthAdjust="spacingAndGlyphs" textLength="53" x="431.75" y="78.1792">(ISODate)</text><ellipse cx="353.75" cy="88.6758" fill="#84BE84" rx="3" ry="3" style="stroke: #038048; stroke-width: 1.0;"/><text fill="#000000" font-family="sans-serif" font-size="11" lengthAdjust="spacingAndGlyphs" textLength="64" x="362.75" y="90.9839">Description</text><text fill="#000000" font-family="sans-serif" font-size="11" font-style="italic" lengthAdjust="spacingAndGlyphs" textLength="77" x="430.75" y="90.9839">(Max350Text)</text><ellipse cx="353.75" cy="101.4805" fill="#84BE84" rx="3" ry="3" style="stroke: #038048; stroke-width: 1.0;"/><text fill="#000000" font-family="sans-serif" font-size="11" lengthAdjust="spacingAndGlyphs" textLength="43" x="362.75" y="103.7886">Version</text><text fill="#000000" font-family="sans-serif" font-size="11" font-style="italic" lengthAdjust="spacingAndGlyphs" textLength="70" x="409.75" y="103.7886">(Max35Text)</text></a><!--class InvoiceFinancingAgreement--><a target="_top" xlink:actuate="onRequest" xlink:href="../InvoiceFinancingAgreement.html" xlink:show="new" xlink:title="Set of characteristics that unambiguously identify an invoice financing agreement. An invoice financing agreement between a factor and its client allows to transfer a payment obligation that exists between the client and a third party from the client to the factor." xlink:type="simple"><rect fill="#FEFECE" filter="url(#f13f1nugddhsej)" height="121.6016" id="InvoiceFinancingAgreement" style="stroke: #A80036; stroke-width: 1.5;" width="259" x="254.75" y="188"/><rect fill="#FEFECE" height="23.9688" style="stroke: #A80036; stroke-width: 1.5;" width="259" x="254.75" y="188"/><text fill="#000000" font-family="sans-serif" font-size="12" lengthAdjust="spacingAndGlyphs" textLength="172" x="298.25" y="204.1387">InvoiceFinancingAgreement</text><line style="stroke: #A80036; stroke-width: 1.5;" x1="255.75" x2="512.75" y1="211.9688" y2="211.9688"/><ellipse cx="265.75" cy="223.8711" fill="#84BE84" rx="3" ry="3" style="stroke: #038048; stroke-width: 1.0;"/><text fill="#000000" font-family="sans-serif" font-size="11" lengthAdjust="spacingAndGlyphs" textLength="75" x="274.75" y="226.1792">Authorisation</text><text fill="#000000" font-family="sans-serif" font-size="11" font-style="italic" lengthAdjust="spacingAndGlyphs" textLength="77" x="353.75" y="226.1792">(Max128Text)</text><ellipse cx="265.75" cy="236.6758" fill="#84BE84" rx="3" ry="3" style="stroke: #038048; stroke-width: 1.0;"/><text fill="#000000" font-family="sans-serif" font-size="11" lengthAdjust="spacingAndGlyphs" textLength="94" x="274.75" y="238.9839">FinancingMethod</text><text fill="#000000" font-family="sans-serif" font-size="11" font-style="italic" lengthAdjust="spacingAndGlyphs" textLength="77" x="372.75" y="238.9839">(Max350Text)</text><ellipse cx="265.75" cy="249.4805" fill="#84BE84" rx="3" ry="3" style="stroke: #038048; stroke-width: 1.0;"/><text fill="#000000" font-family="sans-serif" font-size="11" lengthAdjust="spacingAndGlyphs" textLength="103" x="274.75" y="251.7886">RequestedAmount</text><text fill="#000000" font-family="sans-serif" font-size="11" font-style="italic" lengthAdjust="spacingAndGlyphs" textLength="126" x="381.75" y="251.7886">(CurrencyAndAmount)</text><ellipse cx="265.75" cy="262.2852" fill="#84BE84" rx="3" ry="3" style="stroke: #038048; stroke-width: 1.0;"/><text fill="#000000" font-family="sans-serif" font-size="11" lengthAdjust="spacingAndGlyphs" textLength="124" x="274.75" y="264.5933">RequestedPercentage</text><text fill="#000000" font-family="sans-serif" font-size="11" font-style="italic" lengthAdjust="spacingAndGlyphs" textLength="98" x="402.75" y="264.5933">(PercentageRate)</text><ellipse cx="265.75" cy="275.0898" fill="#84BE84" rx="3" ry="3" style="stroke: #038048; stroke-width: 1.0;"/><text fill="#000000" font-family="sans-serif" font-size="11" lengthAdjust="spacingAndGlyphs" textLength="105" x="274.75" y="277.3979">AppliedPercentage</text><text fill="#000000" font-family="sans-serif" font-size="11" font-style="italic" lengthAdjust="spacingAndGlyphs" textLength="98" x="383.75" y="277.3979">(PercentageRate)</text><ellipse cx="265.75" cy="287.8945" fill="#84BE84" rx="3" ry="3" style="stroke: #038048; stroke-width: 1.0;"/><text fill="#000000" font-family="sans-serif" font-size="11" lengthAdjust="spacingAndGlyphs" textLength="93" x="274.75" y="290.2026">FinancedAmount</text><text fill="#000000" font-family="sans-serif" font-size="11" font-style="italic" lengthAdjust="spacingAndGlyphs" textLength="126" x="371.75" y="290.2026">(CurrencyAndAmount)</text><ellipse cx="265.75" cy="300.6992" fill="#84BE84" rx="3" ry="3" style="stroke: #038048; stroke-width: 1.0;"/><text fill="#000000" font-family="sans-serif" font-size="11" lengthAdjust="spacingAndGlyphs" textLength="72" x="274.75" y="303.0073">Identification</text><text fill="#000000" font-family="sans-serif" font-size="11" font-style="italic" lengthAdjust="spacingAndGlyphs" textLength="70" x="350.75" y="303.0073">(Max35Text)</text></a><!--class DateTimePeriod--><a target="_top" xlink:actuate="onRequest" xlink:href="../DateTimePeriod.html" xlink:show="new" xlink:title="Time span defined by a start date and time, and an end date and time." xlink:type="simple"><rect fill="#EEEEEE" filter="url(#f13f1nugddhsej)" height="23.9688" id="DateTimePeriod" style="stroke: #A80036; stroke-width: 1.5;" width="105" x="719.75" y="392"/><rect fill="#EEEEEE" height="23.9688" style="stroke: #A80036; stroke-width: 1.5;" width="105" x="719.75" y="392"/><text fill="#000000" font-family="sans-serif" font-size="12" lengthAdjust="spacingAndGlyphs" textLength="99" x="722.75" y="408.1387">DateTimePeriod</text></a><!--class Document--><a target="_top" xlink:actuate="onRequest" xlink:href="../Document.html" xlink:show="new" xlink:title="General information that unambiguously identifies a document, such as identification number and issue date time." xlink:type="simple"><rect fill="#EEEEEE" filter="url(#f13f1nugddhsej)" height="23.9688" id="Document" style="stroke: #A80036; stroke-width: 1.5;" width="70" x="679" y="237"/><rect fill="#EEEEEE" height="23.9688" style="stroke: #A80036; stroke-width: 1.5;" width="70" x="679" y="237"/><text fill="#000000" font-family="sans-serif" font-size="12" lengthAdjust="spacingAndGlyphs" textLength="64" x="682" y="253.1387">Document</text></a><!--class CommercialTrade--><a target="_top" xlink:actuate="onRequest" xlink:href="../CommercialTrade.html" xlink:show="new" xlink:title="Commercial details of a trade transaction between a buyer and a seller." xlink:type="simple"><rect fill="#EEEEEE" filter="url(#f13f1nugddhsej)" height="23.9688" id="CommercialTrade" style="stroke: #A80036; stroke-width: 1.5;" width="114" x="570" y="392"/><rect fill="#EEEEEE" height="23.9688" style="stroke: #A80036; stroke-width: 1.5;" width="114" x="570" y="392"/><text fill="#000000" font-family="sans-serif" font-size="12" lengthAdjust="spacingAndGlyphs" textLength="108" x="573" y="408.1387">CommercialTrade</text></a><!--class Jurisdiction--><a target="_top" xlink:actuate="onRequest" xlink:href="../Jurisdiction.html" xlink:show="new" xlink:title="Specifies the jurisdiction (country, county, state, province, city)." xlink:type="simple"><rect fill="#EEEEEE" filter="url(#f13f1nugddhsej)" height="23.9688" id="Jurisdiction" style="stroke: #A80036; stroke-width: 1.5;" width="74" x="570" y="237"/><rect fill="#EEEEEE" height="23.9688" style="stroke: #A80036; stroke-width: 1.5;" width="74" x="570" y="237"/><text fill="#000000" font-family="sans-serif" font-size="12" lengthAdjust="spacingAndGlyphs" textLength="68" x="573" y="253.1387">Jurisdiction</text></a><!--class InvoiceFinancingPartyRole--><a target="_top" xlink:actuate="onRequest" xlink:href="../InvoiceFinancingPartyRole.html" xlink:show="new" xlink:title="Role played by a party in the context of financing an invoice." xlink:type="simple"><rect fill="#EEEEEE" filter="url(#f13f1nugddhsej)" height="23.9688" id="InvoiceFinancingPartyRole" style="stroke: #A80036; stroke-width: 1.5;" width="168" x="69.5" y="774"/><rect fill="#EEEEEE" height="23.9688" style="stroke: #A80036; stroke-width: 1.5;" width="168" x="69.5" y="774"/><text fill="#000000" font-family="sans-serif" font-size="12" lengthAdjust="spacingAndGlyphs" textLength="162" x="72.5" y="790.1387">InvoiceFinancingPartyRole</text></a><!--class InvoiceFinancingStatus--><a target="_top" xlink:actuate="onRequest" xlink:href="../InvoiceFinancingStatus.html" xlink:show="new" xlink:title="Status of an invoice financing transaction and of the instructions related to the invoice financing." xlink:type="simple"><rect fill="#EEEEEE" filter="url(#f13f1nugddhsej)" height="23.9688" id="InvoiceFinancingStatus" style="stroke: #A80036; stroke-width: 1.5;" width="150" x="78.5" y="688"/><rect fill="#EEEEEE" height="23.9688" style="stroke: #A80036; stroke-width: 1.5;" width="150" x="78.5" y="688"/><text fill="#000000" font-family="sans-serif" font-size="12" lengthAdjust="spacingAndGlyphs" textLength="144" x="81.5" y="704.1387">InvoiceFinancingStatus</text></a><!--class Invoice--><a target="_top" xlink:actuate="onRequest" xlink:href="../Invoice.html" xlink:show="new" xlink:title="General information about an invoice, such as number, issue date date and monetary amounts." xlink:type="simple"><rect fill="#EEEEEE" filter="url(#f13f1nugddhsej)" height="23.9688" id="Invoice" style="stroke: #A80036; stroke-width: 1.5;" width="49" x="69.75" y="600"/><rect fill="#EEEEEE" height="23.9688" style="stroke: #A80036; stroke-width: 1.5;" width="49" x="69.75" y="600"/><text fill="#000000" font-family="sans-serif" font-size="12" lengthAdjust="spacingAndGlyphs" textLength="43" x="72.75" y="616.1387">Invoice</text></a><!--class CashEntry--><a target="_top" xlink:actuate="onRequest" xlink:href="../CashEntry.html" xlink:show="new" xlink:title="Posting of an item to a cash account, in the context of a cash transaction, that results in an increase or decrease to the balance of the account." xlink:type="simple"><rect fill="#EEEEEE" filter="url(#f13f1nugddhsej)" height="23.9688" id="CashEntry" style="stroke: #A80036; stroke-width: 1.5;" width="69" x="141.75" y="496"/><rect fill="#EEEEEE" height="23.9688" style="stroke: #A80036; stroke-width: 1.5;" width="69" x="141.75" y="496"/><text fill="#000000" font-family="sans-serif" font-size="12" lengthAdjust="spacingAndGlyphs" textLength="63" x="144.75" y="512.1387">CashEntry</text></a><!--class Assignment--><a target="_top" xlink:actuate="onRequest" xlink:href="../Assignment.html" xlink:show="new" xlink:title="Transfer by one party to a third party of its receivables." xlink:type="simple"><rect fill="#EEEEEE" filter="url(#f13f1nugddhsej)" height="23.9688" id="Assignment" style="stroke: #A80036; stroke-width: 1.5;" width="79" x="68.75" y="392"/><rect fill="#EEEEEE" height="23.9688" style="stroke: #A80036; stroke-width: 1.5;" width="79" x="68.75" y="392"/><text fill="#000000" font-family="sans-serif" font-size="12" lengthAdjust="spacingAndGlyphs" textLength="73" x="71.75" y="408.1387">Assignment</text></a><!--link Agreement to InvoiceFinancingAgreement--><path d="M414.192,129.976 C409.486,148.372 404.197,169.05 399.375,187.897 " fill="none" id="Agreement-InvoiceFinancingAgreement" style="stroke: #A80036; stroke-width: 1.0;"/><polygon fill="none" points="407.463,128.035,419.202,110.393,421.027,131.504,407.463,128.035" style="stroke: #A80036; stroke-width: 1.0;"/><!--link Document to DateTimePeriod--><!--link CommercialTrade to Document--><!--link Document to CommercialTrade--><path d="M710.174,261.283 C703.351,279.603 687.281,315.615 661,334 C647.214,343.644 634.565,328.906 624,342 C614.007,354.384 616.762,373.213 620.752,386.673 " fill="none" id="Document-CommercialTrade" style="stroke: #A80036; stroke-width: 1.0;"/><polygon fill="#A80036" points="622.38,391.722,623.4278,381.929,620.8469,386.9628,615.8132,384.3819,622.38,391.722" style="stroke: #A80036; stroke-width: 1.0;"/><text fill="#000000" font-family="sans-serif" font-size="13" lengthAdjust="spacingAndGlyphs" textLength="113" x="625" y="355.0669">CommercialTrade</text><text fill="#000000" font-family="sans-serif" font-size="13" lengthAdjust="spacingAndGlyphs" textLength="7" x="611.359" y="380.9334">*</text><!--link Jurisdiction to CommercialTrade--><!--link InvoiceFinancingStatus to InvoiceFinancingPartyRole--><!--link Invoice to InvoiceFinancingStatus--><!--link CashEntry to Invoice--><!--link Assignment to CashEntry--><!--link Agreement to DateTimePeriod--><path d="M513.324,85.592 C624.574,100.192 809.245,132.341 845,188 C880.071,242.595 870.674,274.406 845,334 C834.823,357.624 812.139,376.931 794.739,389.053 " fill="none" id="Agreement-DateTimePeriod" style="stroke: #A80036; stroke-width: 1.0;"/><polygon fill="#A80036" points="790.44,391.979,800.1307,390.2212,794.5733,389.1654,795.629,383.608,790.44,391.979" style="stroke: #A80036; stroke-width: 1.0;"/><text fill="#000000" font-family="sans-serif" font-size="13" lengthAdjust="spacingAndGlyphs" textLength="86" x="868" y="253.0669">ValidityPeriod</text><text fill="#000000" font-family="sans-serif" font-size="13" lengthAdjust="spacingAndGlyphs" textLength="7" x="787.1459" y="381.02">*</text><!--link Agreement to Document--><path d="M513.342,104.316 C560.487,122.907 618.024,150.726 661,188 C676.659,201.582 692.061,219.702 702.191,232.464 " fill="none" id="Agreement-Document" style="stroke: #A80036; stroke-width: 1.0;"/><polygon fill="#A80036" points="705.417,236.572,703.0063,227.0227,702.3297,232.639,696.7135,231.9624,705.417,236.572" style="stroke: #A80036; stroke-width: 1.0;"/><text fill="#000000" font-family="sans-serif" font-size="13" lengthAdjust="spacingAndGlyphs" textLength="67" x="617" y="153.0669">Document</text><text fill="#000000" font-family="sans-serif" font-size="13" lengthAdjust="spacingAndGlyphs" textLength="8" x="692.0874" y="225.9942">1</text><!--link Agreement to CommercialTrade--><path d="M513.32,90.696 C605.228,108.694 741.644,142.49 766,188 C802.086,255.428 816.549,307.436 761,360 C751.39,369.094 714.695,364.271 702,368 C684.288,373.203 665.464,381.999 651.105,389.471 " fill="none" id="Agreement-CommercialTrade" style="stroke: #A80036; stroke-width: 1.0;"/><polygon fill="#A80036" points="646.415,391.947,656.2412,391.2799,650.836,389.6115,652.5044,384.2063,646.415,391.947" style="stroke: #A80036; stroke-width: 1.0;"/><text fill="#000000" font-family="sans-serif" font-size="13" lengthAdjust="spacingAndGlyphs" textLength="36" x="799" y="253.0669">Trade</text><text fill="#000000" font-family="sans-serif" font-size="13" lengthAdjust="spacingAndGlyphs" textLength="8" x="642.3702" y="380.977">1</text><!--link Agreement to Jurisdiction--><path d="M463.538,110.341 C478.757,125.033 496.738,142.371 513,158 C540.563,184.49 572.755,215.28 591.416,233.113 " fill="none" id="Agreement-Jurisdiction" style="stroke: #A80036; stroke-width: 1.0;"/><polygon fill="#A80036" points="595.41,236.93,591.6656,227.8207,591.7947,233.4761,586.1393,233.6052,595.41,236.93" style="stroke: #A80036; stroke-width: 1.0;"/><text fill="#000000" font-family="sans-serif" font-size="13" lengthAdjust="spacingAndGlyphs" textLength="68" x="514" y="153.0669">Jurisdiction</text><text fill="#000000" font-family="sans-serif" font-size="13" lengthAdjust="spacingAndGlyphs" textLength="24" x="561.9572" y="225.9542">0..1</text><!--link InvoiceFinancingAgreement to InvoiceFinancingPartyRole--><path d="M254.707,276.84 C145.243,303.402 6,348 6,403 C6,403 6,403 6,701 C6,739.9609 45.4084,761.0955 83.4164,772.4187 " fill="none" id="InvoiceFinancingAgreement-InvoiceFinancingPartyRole" style="stroke: #A80036; stroke-width: 1.0;"/><polygon fill="#A80036" points="88.5237,773.8852,80.9774,767.5564,83.7179,772.5051,78.7692,775.2456,88.5237,773.8852" style="stroke: #A80036; stroke-width: 1.0;"/><text fill="#000000" font-family="sans-serif" font-size="13" lengthAdjust="spacingAndGlyphs" textLength="164" x="7" y="563.0669">InvoiceFinancingPartyRole</text><text fill="#000000" font-family="sans-serif" font-size="13" lengthAdjust="spacingAndGlyphs" textLength="7" x="56.6412" y="762.894">*</text><!--link InvoiceFinancingAgreement to InvoiceFinancingStatus--><path d="M470.109,310.147 C495.678,335.21 517,366.925 517,403 C517,403 517,403 517,613 C517,671.007 339.705,689.935 232.586,696.078 " fill="none" id="InvoiceFinancingAgreement-InvoiceFinancingStatus" style="stroke: #A80036; stroke-width: 1.0;"/><polygon fill="#A80036" points="227.539,696.361,236.7489,699.8506,232.5312,696.081,236.3008,691.8632,227.539,696.361" style="stroke: #A80036; stroke-width: 1.0;"/><text fill="#000000" font-family="sans-serif" font-size="13" lengthAdjust="spacingAndGlyphs" textLength="146" x="518" y="512.0669">InvoiceFinancingStatus</text><text fill="#000000" font-family="sans-serif" font-size="13" lengthAdjust="spacingAndGlyphs" textLength="8" x="236.5623" y="691.0338">1</text><!--link InvoiceFinancingAgreement to Invoice--><path d="M394.378,310.271 C398.101,349.634 396.932,400.808 375,440 C320.071,538.157 183.326,586.497 123.176,603.573 " fill="none" id="InvoiceFinancingAgreement-Invoice" style="stroke: #A80036; stroke-width: 1.0;"/><polygon fill="#A80036" points="118.289,604.939,128.0335,606.3692,123.1045,603.5933,125.8804,598.6644,118.289,604.939" style="stroke: #A80036; stroke-width: 1.0;"/><text fill="#000000" font-family="sans-serif" font-size="13" lengthAdjust="spacingAndGlyphs" textLength="44" x="371" y="461.0669">Invoice</text><text fill="#000000" font-family="sans-serif" font-size="13" lengthAdjust="spacingAndGlyphs" textLength="23" x="126.9516" y="597.2329">1..*</text><!--link InvoiceFinancingAgreement to CashEntry--><path d="M301.901,310.171 C281.736,327.39 261.286,347.182 245,368 C213.901,407.753 191.367,463.762 181.517,490.946 " fill="none" id="InvoiceFinancingAgreement-CashEntry" style="stroke: #A80036; stroke-width: 1.0;"/><polygon fill="#A80036" points="179.826,495.676,186.6216,488.5472,181.5088,490.9677,179.0883,485.8548,179.826,495.676" style="stroke: #A80036; stroke-width: 1.0;"/><text fill="#000000" font-family="sans-serif" font-size="13" lengthAdjust="spacingAndGlyphs" textLength="123" x="246" y="408.0669">ResultingCashEntry</text><text fill="#000000" font-family="sans-serif" font-size="13" lengthAdjust="spacingAndGlyphs" textLength="24" x="151.7043" y="484.8721">0..1</text><!--link InvoiceFinancingAgreement to Assignment--><path d="M254.671,263.181 C202.635,275.346 147.006,298.423 113,342 C103.1892,354.572 103.1631,373.368 104.8209,386.77 " fill="none" id="InvoiceFinancingAgreement-Assignment" style="stroke: #A80036; stroke-width: 1.0;"/><polygon fill="#A80036" points="105.5512,391.794,108.2163,382.3126,104.8327,386.8459,100.2993,383.4623,105.5512,391.794" style="stroke: #A80036; stroke-width: 1.0;"/><text fill="#000000" font-family="sans-serif" font-size="13" lengthAdjust="spacingAndGlyphs" textLength="76" x="114" y="355.0669">Assignment</text><text fill="#000000" font-family="sans-serif" font-size="13" lengthAdjust="spacingAndGlyphs" textLength="7" x="95.1666" y="381.0292">*</text><!--link DateTimePeriod to Invoice--><path d="M753.339,416.043 C739.37,423.845 719.554,433.952 701,440 C562.892,485.017 511.265,435.949 379,496 C332.673,517.034 335.856,545.957 290,568 C234.86,594.505 163.136,604.881 123.529,608.783 " fill="none" id="DateTimePeriod-Invoice" style="stroke: #A80036; stroke-width: 1.0;"/><polygon fill="#A80036" points="118.393,609.271,127.7309,612.4021,123.3706,608.7982,126.9745,604.4379,118.393,609.271" style="stroke: #A80036; stroke-width: 1.0;"/><text fill="#000000" font-family="sans-serif" font-size="13" lengthAdjust="spacingAndGlyphs" textLength="92" x="380" y="512.0669">RelatedInvoice</text><text fill="#000000" font-family="sans-serif" font-size="13" lengthAdjust="spacingAndGlyphs" textLength="8" x="126.66" y="622.7635">1</text><!--link Invoice to Invoice--><path d="M118.549,604.596 C135.858,602.27 153,604.738 153,612 C153,618.524 139.163,621.179 123.8,619.964 " fill="none" id="Invoice-Invoice" style="stroke: #A80036; stroke-width: 1.0;"/><polygon fill="#A80036" points="118.549,619.404,127.0729,624.338,123.5207,619.9355,127.9232,616.3833,118.549,619.404" style="stroke: #A80036; stroke-width: 1.0;"/><text fill="#000000" font-family="sans-serif" font-size="13" lengthAdjust="spacingAndGlyphs" textLength="92" x="159" y="616.0669">OriginalInvoice</text><text fill="#000000" font-family="sans-serif" font-size="13" lengthAdjust="spacingAndGlyphs" textLength="8" x="125.4707" y="643.8344">1</text></g></svg>