<?xml version="1.0" encoding="UTF-8" standalone="no"?><svg xmlns="http://www.w3.org/2000/svg" xmlns:xlink="http://www.w3.org/1999/xlink" contentScriptType="application/ecmascript" contentStyleType="text/css" height="846px" preserveAspectRatio="none" style="width:1602px;height:846px;" version="1.1" viewBox="0 0 1602 846" width="1602px" zoomAndPan="magnify"><defs><filter height="300%" id="f80wdms7jiawg" width="300%" x="-1" y="-1"><feGaussianBlur result="blurOut" stdDeviation="2.0"/><feColorMatrix in="blurOut" result="blurOut2" type="matrix" values="0 0 0 0 0 0 0 0 0 0 0 0 0 0 0 0 0 0 .4 0"/><feOffset dx="4.0" dy="4.0" in="blurOut2" result="blurOut3"/><feBlend in="SourceGraphic" in2="blurOut3" mode="normal"/></filter></defs><g><!--cluster ##3714--><!--cluster ##3717--><!--class Issuance--><a target="_top" xlink:actuate="onRequest" xlink:href="../Issuance.html" xlink:show="new" xlink:title="Preparation/bringing to market of a security (also known as primary market or Initial Public Offering (IPO) issuance)." xlink:type="simple"><rect fill="#FEFECE" filter="url(#f80wdms7jiawg)" height="108.7969" id="Issuance" style="stroke: #A80036; stroke-width: 1.5;" width="292" x="689" y="40.5"/><rect fill="#FEFECE" height="23.9688" style="stroke: #A80036; stroke-width: 1.5;" width="292" x="689" y="40.5"/><text fill="#000000" font-family="sans-serif" font-size="12" lengthAdjust="spacingAndGlyphs" textLength="56" x="807" y="56.6387">Issuance</text><line style="stroke: #A80036; stroke-width: 1.5;" x1="690" x2="980" y1="64.4688" y2="64.4688"/><ellipse cx="700" cy="76.3711" fill="#84BE84" rx="3" ry="3" style="stroke: #038048; stroke-width: 1.0;"/><text fill="#000000" font-family="sans-serif" font-size="11" lengthAdjust="spacingAndGlyphs" textLength="57" x="709" y="78.6792">IssueDate</text><text fill="#000000" font-family="sans-serif" font-size="11" font-style="italic" lengthAdjust="spacingAndGlyphs" textLength="81" x="770" y="78.6792">(ISODateTime)</text><ellipse cx="700" cy="89.1758" fill="#84BE84" rx="3" ry="3" style="stroke: #038048; stroke-width: 1.0;"/><text fill="#000000" font-family="sans-serif" font-size="11" lengthAdjust="spacingAndGlyphs" textLength="136" x="709" y="91.4839">IssueDiscountAllowance</text><text fill="#000000" font-family="sans-serif" font-size="11" font-style="italic" lengthAdjust="spacingAndGlyphs" textLength="126" x="849" y="91.4839">(CurrencyAndAmount)</text><ellipse cx="700" cy="101.9805" fill="#84BE84" rx="3" ry="3" style="stroke: #038048; stroke-width: 1.0;"/><text fill="#000000" font-family="sans-serif" font-size="11" lengthAdjust="spacingAndGlyphs" textLength="47" x="709" y="104.2886">Purpose</text><text fill="#000000" font-family="sans-serif" font-size="11" font-style="italic" lengthAdjust="spacingAndGlyphs" textLength="77" x="760" y="104.2886">(Max256Text)</text><ellipse cx="700" cy="114.7852" fill="#84BE84" rx="3" ry="3" style="stroke: #038048; stroke-width: 1.0;"/><text fill="#000000" font-family="sans-serif" font-size="11" lengthAdjust="spacingAndGlyphs" textLength="54" x="709" y="117.0933">IssueSize</text><text fill="#000000" font-family="sans-serif" font-size="11" font-style="italic" lengthAdjust="spacingAndGlyphs" textLength="53" x="767" y="117.0933">(Number)</text><ellipse cx="700" cy="127.5898" fill="#84BE84" rx="3" ry="3" style="stroke: #038048; stroke-width: 1.0;"/><text fill="#000000" font-family="sans-serif" font-size="11" lengthAdjust="spacingAndGlyphs" textLength="89" x="709" y="129.8979">GlobalNoteType</text><text fill="#000000" font-family="sans-serif" font-size="11" font-style="italic" lengthAdjust="spacingAndGlyphs" textLength="99" x="802" y="129.8979">(GlobalNoteCode)</text><ellipse cx="700" cy="140.3945" fill="#84BE84" rx="3" ry="3" style="stroke: #038048; stroke-width: 1.0;"/><text fill="#000000" font-family="sans-serif" font-size="11" lengthAdjust="spacingAndGlyphs" textLength="59" x="709" y="142.7026">IssuePrice</text><text fill="#000000" font-family="sans-serif" font-size="11" font-style="italic" lengthAdjust="spacingAndGlyphs" textLength="126" x="772" y="142.7026">(CurrencyAndAmount)</text></a><!--class RateAndAmount--><a target="_top" xlink:actuate="onRequest" xlink:href="../RateAndAmount.html" xlink:show="new" xlink:title="Specifies the value expressed as a rate or an amount. For example, the value of a tax or a commission." xlink:type="simple"><rect fill="#EEEEEE" filter="url(#f80wdms7jiawg)" height="23.9688" id="RateAndAmount" style="stroke: #A80036; stroke-width: 1.5;" width="107" x="755.75" y="334"/><rect fill="#EEEEEE" height="23.9688" style="stroke: #A80036; stroke-width: 1.5;" width="107" x="755.75" y="334"/><text fill="#000000" font-family="sans-serif" font-size="12" lengthAdjust="spacingAndGlyphs" textLength="101" x="758.75" y="350.1387">RateAndAmount</text></a><!--class SecuritiesQuantity--><a target="_top" xlink:actuate="onRequest" xlink:href="../SecuritiesQuantity.html" xlink:show="new" xlink:title="Quantity of a security." xlink:type="simple"><rect fill="#EEEEEE" filter="url(#f80wdms7jiawg)" height="23.9688" id="SecuritiesQuantity" style="stroke: #A80036; stroke-width: 1.5;" width="120" x="419.5" y="232"/><rect fill="#EEEEEE" height="23.9688" style="stroke: #A80036; stroke-width: 1.5;" width="120" x="419.5" y="232"/><text fill="#000000" font-family="sans-serif" font-size="12" lengthAdjust="spacingAndGlyphs" textLength="114" x="422.5" y="248.1387">SecuritiesQuantity</text></a><!--class CorporateActionEvent--><a target="_top" xlink:actuate="onRequest" xlink:href="../CorporateActionEvent.html" xlink:show="new" xlink:title="An event determined by a corporation's board of directors, that changes the existing corporate capital structure or financial condition." xlink:type="simple"><rect fill="#EEEEEE" filter="url(#f80wdms7jiawg)" height="23.9688" id="CorporateActionEvent" style="stroke: #A80036; stroke-width: 1.5;" width="143" x="545.75" y="334"/><rect fill="#EEEEEE" height="23.9688" style="stroke: #A80036; stroke-width: 1.5;" width="143" x="545.75" y="334"/><text fill="#000000" font-family="sans-serif" font-size="12" lengthAdjust="spacingAndGlyphs" textLength="137" x="548.75" y="350.1387">CorporateActionEvent</text></a><!--class Asset--><a target="_top" xlink:actuate="onRequest" xlink:href="../Asset.html" xlink:show="new" xlink:title="Tangible items of value to a business." xlink:type="simple"><rect fill="#EEEEEE" filter="url(#f80wdms7jiawg)" height="23.9688" id="Asset" style="stroke: #A80036; stroke-width: 1.5;" width="41" x="620.75" y="812"/><rect fill="#EEEEEE" height="23.9688" style="stroke: #A80036; stroke-width: 1.5;" width="41" x="620.75" y="812"/><text fill="#000000" font-family="sans-serif" font-size="12" lengthAdjust="spacingAndGlyphs" textLength="35" x="623.75" y="828.1387">Asset</text></a><!--class SecuritiesPricing--><a target="_top" xlink:actuate="onRequest" xlink:href="../SecuritiesPricing.html" xlink:show="new" xlink:title="Characteristics related to the price of the security." xlink:type="simple"><rect fill="#EEEEEE" filter="url(#f80wdms7jiawg)" height="23.9688" id="SecuritiesPricing" style="stroke: #A80036; stroke-width: 1.5;" width="110" x="586" y="726"/><rect fill="#EEEEEE" height="23.9688" style="stroke: #A80036; stroke-width: 1.5;" width="110" x="586" y="726"/><text fill="#000000" font-family="sans-serif" font-size="12" lengthAdjust="spacingAndGlyphs" textLength="104" x="589" y="742.1387">SecuritiesPricing</text></a><!--class TradingMarket--><a target="_top" xlink:actuate="onRequest" xlink:href="../TradingMarket.html" xlink:show="new" xlink:title="Context or geographic environment in which trading parties may meet in order to negotiate and execute trades among themselves. It also identifies the primary market where an asset is issued." xlink:type="simple"><rect fill="#EEEEEE" filter="url(#f80wdms7jiawg)" height="23.9688" id="TradingMarket" style="stroke: #A80036; stroke-width: 1.5;" width="96" x="423" y="640"/><rect fill="#EEEEEE" height="23.9688" style="stroke: #A80036; stroke-width: 1.5;" width="96" x="423" y="640"/><text fill="#000000" font-family="sans-serif" font-size="12" lengthAdjust="spacingAndGlyphs" textLength="90" x="426" y="656.1387">TradingMarket</text></a><!--class Capital--><a target="_top" xlink:actuate="onRequest" xlink:href="../Capital.html" xlink:show="new" xlink:title="Amount of money targeted to be raised through the issuance of a security." xlink:type="simple"><rect fill="#EEEEEE" filter="url(#f80wdms7jiawg)" height="23.9688" id="Capital" style="stroke: #A80036; stroke-width: 1.5;" width="49" x="507.75" y="538"/><rect fill="#EEEEEE" height="23.9688" style="stroke: #A80036; stroke-width: 1.5;" width="49" x="507.75" y="538"/><text fill="#000000" font-family="sans-serif" font-size="12" lengthAdjust="spacingAndGlyphs" textLength="43" x="510.75" y="554.1387">Capital</text></a><!--class DateTimePeriod--><a target="_top" xlink:actuate="onRequest" xlink:href="../DateTimePeriod.html" xlink:show="new" xlink:title="Time span defined by a start date and time, and an end date and time." xlink:type="simple"><rect fill="#EEEEEE" filter="url(#f80wdms7jiawg)" height="23.9688" id="DateTimePeriod" style="stroke: #A80036; stroke-width: 1.5;" width="105" x="714.75" y="436"/><rect fill="#EEEEEE" height="23.9688" style="stroke: #A80036; stroke-width: 1.5;" width="105" x="714.75" y="436"/><text fill="#000000" font-family="sans-serif" font-size="12" lengthAdjust="spacingAndGlyphs" textLength="99" x="717.75" y="452.1387">DateTimePeriod</text></a><!--link SecuritiesQuantity to RateAndAmount--><!--link CorporateActionEvent to SecuritiesQuantity--><!--link SecuritiesQuantity to CorporateActionEvent--><path d="M538.088,256.079 C557.524,262.184 577.977,271.582 593,286 C604.974,297.491 611.157,315.786 614.223,328.959 " fill="none" id="SecuritiesQuantity-CorporateActionEvent" style="stroke: #A80036; stroke-width: 1.0;"/><polygon fill="#A80036" points="615.286,333.905,617.3041,324.2651,614.2346,329.0168,609.483,325.9473,615.286,333.905" style="stroke: #A80036; stroke-width: 1.0;"/><text fill="#000000" font-family="sans-serif" font-size="13" lengthAdjust="spacingAndGlyphs" textLength="220" x="606" y="299.0669">RelatedEventForFractionalQuantity</text><text fill="#000000" font-family="sans-serif" font-size="13" lengthAdjust="spacingAndGlyphs" textLength="8" x="603.8921" y="322.9206">1</text><!--link SecuritiesQuantity to CorporateActionEvent--><path d="M419.234,245.325 C347.845,247.132 234.684,254.975 208,286 C202.783,292.065 202.633,298.068 208,304 C229.827,328.125 428.088,338.684 540.351,342.763 " fill="none" id="SecuritiesQuantity-CorporateActionEvent" style="stroke: #A80036; stroke-width: 1.0;"/><polygon fill="#A80036" points="545.631,342.952,536.7809,338.6305,540.6342,342.772,536.4928,346.6253,545.631,342.952" style="stroke: #A80036; stroke-width: 1.0;"/><text fill="#000000" font-family="sans-serif" font-size="13" lengthAdjust="spacingAndGlyphs" textLength="140" x="209" y="299.0669">CorporateActionEvent</text><text fill="#000000" font-family="sans-serif" font-size="13" lengthAdjust="spacingAndGlyphs" textLength="8" x="529.8071" y="355.4227">1</text><!--link SecuritiesQuantity to CorporateActionEvent--><path d="M434.386,256.046 C402.763,266.005 368.908,282.398 387,304 C406.402,327.166 481.136,337.255 540.219,341.641 " fill="none" id="SecuritiesQuantity-CorporateActionEvent" style="stroke: #A80036; stroke-width: 1.0;"/><polygon fill="#A80036" points="545.523,342.023,536.833,337.3879,540.5359,341.6644,536.2593,345.3673,545.523,342.023" style="stroke: #A80036; stroke-width: 1.0;"/><text fill="#000000" font-family="sans-serif" font-size="13" lengthAdjust="spacingAndGlyphs" textLength="188" x="388" y="299.0669">RelatedCorporateActionEvent</text><text fill="#000000" font-family="sans-serif" font-size="13" lengthAdjust="spacingAndGlyphs" textLength="8" x="529.6895" y="336.986">1</text><!--link Asset to CorporateActionEvent--><!--link SecuritiesPricing to Asset--><!--link TradingMarket to SecuritiesPricing--><!--link Capital to TradingMarket--><!--link DateTimePeriod to Capital--><!--link Issuance to RateAndAmount--><path d="M962.682,149.629 C1007.13,176.81 1041,213.168 1019,256 C990.779,310.935 918.995,331.967 867.206,340.016 " fill="none" id="Issuance-RateAndAmount" style="stroke: #A80036; stroke-width: 1.0;"/><polygon fill="#A80036" points="862.259,340.755,871.7518,343.3792,867.204,340.0151,870.568,335.4672,862.259,340.755" style="stroke: #A80036; stroke-width: 1.0;"/><text fill="#000000" font-family="sans-serif" font-size="13" lengthAdjust="spacingAndGlyphs" textLength="102" x="1027" y="248.0669">InterestShortfall</text><text fill="#000000" font-family="sans-serif" font-size="13" lengthAdjust="spacingAndGlyphs" textLength="8" x="870.6322" y="353.1651">1</text><!--link Issuance to RateAndAmount--><path d="M877.41,149.812 C906.662,193.943 935.147,256.634 904,304 C895.399,317.08 881.644,326.006 867.242,332.091 " fill="none" id="Issuance-RateAndAmount" style="stroke: #A80036; stroke-width: 1.0;"/><polygon fill="#A80036" points="862.339,334.047,872.1805,334.4273,866.9831,332.1942,869.2161,326.9968,862.339,334.047" style="stroke: #A80036; stroke-width: 1.0;"/><text fill="#000000" font-family="sans-serif" font-size="13" lengthAdjust="spacingAndGlyphs" textLength="82" x="919" y="248.0669">RealisedLoss</text><text fill="#000000" font-family="sans-serif" font-size="13" lengthAdjust="spacingAndGlyphs" textLength="8" x="870.7239" y="327.1219">1</text><!--link Issuance to SecuritiesQuantity--><path d="M688.981,138.411 C652.11,150.863 613.053,165.602 578,182 C549.099,195.52 518.15,215.596 498.697,228.98 " fill="none" id="Issuance-SecuritiesQuantity" style="stroke: #A80036; stroke-width: 1.0;"/><polygon fill="#A80036" points="494.486,231.897,504.162,230.0601,498.5961,229.0498,499.6065,223.4839,494.486,231.897" style="stroke: #A80036; stroke-width: 1.0;"/><text fill="#000000" font-family="sans-serif" font-size="13" lengthAdjust="spacingAndGlyphs" textLength="137" x="579" y="195.0669">IssueNominalAmount</text><text fill="#000000" font-family="sans-serif" font-size="13" lengthAdjust="spacingAndGlyphs" textLength="8" x="488.9187" y="220.9098">1</text><!--link Issuance to SecuritiesQuantity--><path d="M688.73,112.51 C601.247,125.735 501.972,147.826 475,182 C465.132,194.503 468.209,213.311 472.444,226.734 " fill="none" id="Issuance-SecuritiesQuantity" style="stroke: #A80036; stroke-width: 1.0;"/><polygon fill="#A80036" points="474.165,231.768,475.0393,221.958,472.5479,227.0367,467.4692,224.5454,474.165,231.768" style="stroke: #A80036; stroke-width: 1.0;"/><text fill="#000000" font-family="sans-serif" font-size="13" lengthAdjust="spacingAndGlyphs" textLength="59" x="476" y="195.0669">Minimum</text><text fill="#000000" font-family="sans-serif" font-size="13" lengthAdjust="spacingAndGlyphs" textLength="8" x="461.7415" y="220.9946">1</text><!--link Issuance to CorporateActionEvent--><path d="M808.012,149.646 C800.275,167.718 792.887,188.305 789,208 C784.869,228.93 778.747,237.292 789,256 C800.91,277.732 824.09,264.268 836,286 C839.845,293.015 841.11,297.845 836,304 C826.718,315.181 752.869,327.363 693.455,335.518 " fill="none" id="Issuance-CorporateActionEvent" style="stroke: #A80036; stroke-width: 1.0;"/><polygon fill="#A80036" points="688.48,336.197,697.938,338.9441,693.4341,335.5213,696.8569,331.0174,688.48,336.197" style="stroke: #A80036; stroke-width: 1.0;"/><text fill="#000000" font-family="sans-serif" font-size="13" lengthAdjust="spacingAndGlyphs" textLength="109" x="790" y="248.0669">EventInformation</text><text fill="#000000" font-family="sans-serif" font-size="13" lengthAdjust="spacingAndGlyphs" textLength="8" x="696.7083" y="330.271">1</text><!--link Issuance to Asset--><path d="M688.721,98.213 C542.277,103.982 312.012,122.789 122,182 C66.3882,199.33 6,184.751 6,243 C6,243 6,243 6,739 C6,801.5944 497.189,819.061 615.562,822.3615 " fill="none" id="Issuance-Asset" style="stroke: #A80036; stroke-width: 1.0;"/><polygon fill="#A80036" points="620.592,822.4994,611.7051,818.254,615.5939,822.3623,611.4857,826.251,620.592,822.4994" style="stroke: #A80036; stroke-width: 1.0;"/><text fill="#000000" font-family="sans-serif" font-size="13" lengthAdjust="spacingAndGlyphs" textLength="77" x="7" y="503.0669">IssuedAsset</text><text fill="#000000" font-family="sans-serif" font-size="13" lengthAdjust="spacingAndGlyphs" textLength="24" x="588.65" y="816.5206">0..1</text><!--link Issuance to SecuritiesPricing--><path d="M981.22,101.899 C1163.68,113.334 1452,146.648 1452,243 C1452,243 1452,243 1452,653 C1452,728.466 889.229,736.492 701.286,737.068 " fill="none" id="Issuance-SecuritiesPricing" style="stroke: #A80036; stroke-width: 1.0;"/><polygon fill="#A80036" points="696.106,737.083,705.1174,741.0573,701.106,737.0687,705.0945,733.0573,696.106,737.083" style="stroke: #A80036; stroke-width: 1.0;"/><text fill="#000000" font-family="sans-serif" font-size="13" lengthAdjust="spacingAndGlyphs" textLength="137" x="1453" y="452.0669">OriginalIssueDiscount</text><text fill="#000000" font-family="sans-serif" font-size="13" lengthAdjust="spacingAndGlyphs" textLength="8" x="704.0484" y="731.8955">1</text><!--link Issuance to TradingMarket--><path d="M688.956,96.394 C476.953,100.978 109,125.814 109,243 C109,243 109,243 109,551 C109,614.317 317.364,639.119 417.93,647.402 " fill="none" id="Issuance-TradingMarket" style="stroke: #A80036; stroke-width: 1.0;"/><polygon fill="#A80036" points="422.929,647.807,414.282,643.0923,417.9454,647.4027,413.635,651.0661,422.929,647.807" style="stroke: #A80036; stroke-width: 1.0;"/><text fill="#000000" font-family="sans-serif" font-size="13" lengthAdjust="spacingAndGlyphs" textLength="67" x="110" y="401.0669">IssuePlace</text><text fill="#000000" font-family="sans-serif" font-size="13" lengthAdjust="spacingAndGlyphs" textLength="8" x="407.1293" y="642.2581">1</text><!--link Issuance to Capital--><path d="M981.068,112.762 C1120.67,132.971 1310,173.239 1310,243 C1310,243 1310,243 1310,449 C1310,525.89 704.486,544.943 561.84,548.365 " fill="none" id="Issuance-Capital" style="stroke: #A80036; stroke-width: 1.0;"/><polygon fill="#A80036" points="556.569,548.489,565.6613,552.2744,561.5676,548.3704,565.4716,544.2767,556.569,548.489" style="stroke: #A80036; stroke-width: 1.0;"/><text fill="#000000" font-family="sans-serif" font-size="13" lengthAdjust="spacingAndGlyphs" textLength="86" x="1311" y="350.0669">CapitalRaised</text><text fill="#000000" font-family="sans-serif" font-size="13" lengthAdjust="spacingAndGlyphs" textLength="7" x="564.7408" y="541.6393">*</text><!--link Issuance to DateTimePeriod--><path d="M981.047,118.243 C1079.66,140.308 1184.27,181.875 1139,256 C1070,368.994 910.526,417.928 824.497,436.729 " fill="none" id="Issuance-DateTimePeriod" style="stroke: #A80036; stroke-width: 1.0;"/><polygon fill="#A80036" points="819.445,437.817,829.0854,439.8324,824.3329,436.7643,827.4011,432.0118,819.445,437.817" style="stroke: #A80036; stroke-width: 1.0;"/><text fill="#000000" font-family="sans-serif" font-size="13" lengthAdjust="spacingAndGlyphs" textLength="119" x="1117" y="299.0669">SubscriptionPeriod</text><text fill="#000000" font-family="sans-serif" font-size="13" lengthAdjust="spacingAndGlyphs" textLength="8" x="827.6986" y="431.1519">1</text><!--link SecuritiesQuantity to TradingMarket--><path d="M419.453,248.675 C333.809,254.577 184.292,267.42 168,286 C162.726,292.015 166.628,296.118 168,304 C174.316,340.287 202.342,430.208 224,460 C285.603,544.738 394.968,610.39 444.869,637.478 " fill="none" id="SecuritiesQuantity-TradingMarket" style="stroke: #A80036; stroke-width: 1.0;"/><polygon fill="#A80036" points="449.509,639.978,443.4851,632.1862,445.1078,637.6053,439.6887,639.228,449.509,639.978" style="stroke: #A80036; stroke-width: 1.0;"/><text fill="#000000" font-family="sans-serif" font-size="13" lengthAdjust="spacingAndGlyphs" textLength="201" x="225" y="452.0669">MinimumTradedQuantityMarket</text><text fill="#000000" font-family="sans-serif" font-size="13" lengthAdjust="spacingAndGlyphs" textLength="8" x="431.4027" y="629.0187">1</text><!--link SecuritiesQuantity to TradingMarket--><path d="M419.403,244.906 C345.317,246.206 225.161,253.449 197,286 C191.766,292.05 192.959,297.096 197,304 C257.508,407.388 362.471,338.449 432,436 C476.49,498.421 475.045,596.249 472.461,634.702 " fill="none" id="SecuritiesQuantity-TradingMarket" style="stroke: #A80036; stroke-width: 1.0;"/><polygon fill="#A80036" points="472.077,639.933,476.7247,631.2497,472.4428,634.9464,468.7461,630.6645,472.077,639.933" style="stroke: #A80036; stroke-width: 1.0;"/><text fill="#000000" font-family="sans-serif" font-size="13" lengthAdjust="spacingAndGlyphs" textLength="205" x="448" y="452.0669">MaximumTradedQuantityMarket</text><text fill="#000000" font-family="sans-serif" font-size="13" lengthAdjust="spacingAndGlyphs" textLength="8" x="461.7285" y="628.9582">1</text><!--link CorporateActionEvent to DateTimePeriod--><path d="M608.142,358.106 C599.113,370.863 587.888,391.85 599,406 C606.022,414.942 663.556,427.657 709.366,436.549 " fill="none" id="CorporateActionEvent-DateTimePeriod" style="stroke: #A80036; stroke-width: 1.0;"/><polygon fill="#A80036" points="714.324,437.506,706.2446,431.8737,709.4145,436.559,704.7293,439.7289,714.324,437.506" style="stroke: #A80036; stroke-width: 1.0;"/><text fill="#000000" font-family="sans-serif" font-size="13" lengthAdjust="spacingAndGlyphs" textLength="120" x="600" y="401.0669">BookClosurePeriod</text><text fill="#000000" font-family="sans-serif" font-size="13" lengthAdjust="spacingAndGlyphs" textLength="8" x="698.6263" y="431.3862">1</text><!--link CorporateActionEvent to DateTimePeriod--><path d="M664.435,358.032 C684.831,364.415 708.054,374.025 726,388 C740.901,399.603 752.517,418.119 759.522,431.312 " fill="none" id="CorporateActionEvent-DateTimePeriod" style="stroke: #A80036; stroke-width: 1.0;"/><polygon fill="#A80036" points="761.892,435.909,761.3229,426.0766,759.6007,431.4649,754.2124,429.7427,761.892,435.909" style="stroke: #A80036; stroke-width: 1.0;"/><text fill="#000000" font-family="sans-serif" font-size="13" lengthAdjust="spacingAndGlyphs" textLength="87" x="744" y="401.0669">TradingPeriod</text><text fill="#000000" font-family="sans-serif" font-size="13" lengthAdjust="spacingAndGlyphs" textLength="8" x="749.3314" y="424.9259">1</text><!--link SecuritiesPricing to DateTimePeriod--><path d="M645.905,725.788 C665.37,681.296 737.215,517.08 760.011,464.975 " fill="none" id="SecuritiesPricing-DateTimePeriod" style="stroke: #A80036; stroke-width: 1.0;"/><polygon fill="#A80036" points="762.061,460.29,754.7891,466.9323,760.057,464.8708,762.1184,470.1387,762.061,460.29" style="stroke: #A80036; stroke-width: 1.0;"/><text fill="#000000" font-family="sans-serif" font-size="13" lengthAdjust="spacingAndGlyphs" textLength="141" x="705" y="605.0669">PriceCalculationPeriod</text><text fill="#000000" font-family="sans-serif" font-size="13" lengthAdjust="spacingAndGlyphs" textLength="8" x="749.1764" y="479.9331">1</text><!--link SecuritiesPricing to DateTimePeriod--><path d="M630.849,725.784 C609.73,701.022 564.879,640.065 588,592 C618.964,527.632 694.568,483.203 736.947,462.413 " fill="none" id="SecuritiesPricing-DateTimePeriod" style="stroke: #A80036; stroke-width: 1.0;"/><polygon fill="#A80036" points="741.695,460.115,731.8514,460.4365,737.1947,462.2937,735.3374,467.637,741.695,460.115" style="stroke: #A80036; stroke-width: 1.0;"/><text fill="#000000" font-family="sans-serif" font-size="13" lengthAdjust="spacingAndGlyphs" textLength="98" x="589" y="605.0669">PriceFactPeriod</text><text fill="#000000" font-family="sans-serif" font-size="13" lengthAdjust="spacingAndGlyphs" textLength="8" x="720.664" y="479.9376">1</text></g></svg>