<?xml version="1.0" encoding="UTF-8" standalone="no"?><svg xmlns="http://www.w3.org/2000/svg" xmlns:xlink="http://www.w3.org/1999/xlink" contentScriptType="application/ecmascript" contentStyleType="text/css" height="556px" preserveAspectRatio="none" style="width:1050px;height:556px;" version="1.1" viewBox="0 0 1050 556" width="1050px" zoomAndPan="magnify"><defs><filter height="300%" id="fkhzv3cg59osd" width="300%" x="-1" y="-1"><feGaussianBlur result="blurOut" stdDeviation="2.0"/><feColorMatrix in="blurOut" result="blurOut2" type="matrix" values="0 0 0 0 0 0 0 0 0 0 0 0 0 0 0 0 0 0 .4 0"/><feOffset dx="4.0" dy="4.0" in="blurOut2" result="blurOut3"/><feBlend in="SourceGraphic" in2="blurOut3" mode="normal"/></filter></defs><g><!--cluster ##11592--><!--cluster ##11595--><!--class Jurisdiction--><a target="_top" xlink:actuate="onRequest" xlink:href="../Jurisdiction.html" xlink:show="new" xlink:title="Specifies the jurisdiction (country, county, state, province, city)." xlink:type="simple"><rect fill="#FEFECE" filter="url(#fkhzv3cg59osd)" height="23.9688" id="Jurisdiction" style="stroke: #A80036; stroke-width: 1.5;" width="74" x="431.185" y="40"/><rect fill="#FEFECE" height="23.9688" style="stroke: #A80036; stroke-width: 1.5;" width="74" x="431.185" y="40"/><text fill="#000000" font-family="sans-serif" font-size="12" lengthAdjust="spacingAndGlyphs" textLength="68" x="434.185" y="56.1387">Jurisdiction</text></a><!--class GovernanceRules--><a target="_top" xlink:actuate="onRequest" xlink:href="../GovernanceRules.html" xlink:show="new" xlink:title="Rules governing an undertaking such as a guarantee or standby letter of credit." xlink:type="simple"><rect fill="#EEEEEE" filter="url(#fkhzv3cg59osd)" height="23.9688" id="GovernanceRules" style="stroke: #A80036; stroke-width: 1.5;" width="115" x="104.9349" y="436"/><rect fill="#EEEEEE" height="23.9688" style="stroke: #A80036; stroke-width: 1.5;" width="115" x="104.9349" y="436"/><text fill="#000000" font-family="sans-serif" font-size="12" lengthAdjust="spacingAndGlyphs" textLength="109" x="107.9349" y="452.1387">GovernanceRules</text></a><!--class Location--><a target="_top" xlink:actuate="onRequest" xlink:href="../Location.html" xlink:show="new" xlink:title="Specifies a place." xlink:type="simple"><rect fill="#EEEEEE" filter="url(#fkhzv3cg59osd)" height="23.9688" id="Location" style="stroke: #A80036; stroke-width: 1.5;" width="59" x="82.9349" y="350"/><rect fill="#EEEEEE" height="23.9688" style="stroke: #A80036; stroke-width: 1.5;" width="59" x="82.9349" y="350"/><text fill="#000000" font-family="sans-serif" font-size="12" lengthAdjust="spacingAndGlyphs" textLength="53" x="85.9349" y="366.1387">Location</text></a><!--class Security--><a target="_top" xlink:actuate="onRequest" xlink:href="../Security.html" xlink:show="new" xlink:title="Financial instruments representing a sum of rights of the investor vis-a-vis the issuer." xlink:type="simple"><rect fill="#EEEEEE" filter="url(#fkhzv3cg59osd)" height="23.9688" id="Security" style="stroke: #A80036; stroke-width: 1.5;" width="56" x="162.685" y="248"/><rect fill="#EEEEEE" height="23.9688" style="stroke: #A80036; stroke-width: 1.5;" width="56" x="162.685" y="248"/><text fill="#000000" font-family="sans-serif" font-size="12" lengthAdjust="spacingAndGlyphs" textLength="50" x="165.685" y="264.1387">Security</text></a><!--class JurisdictionStrategy--><a target="_top" xlink:actuate="onRequest" xlink:href="../JurisdictionStrategy.html" xlink:show="new" xlink:title="Strategy is jurisdiction based." xlink:type="simple"><rect fill="#EEEEEE" filter="url(#fkhzv3cg59osd)" height="23.9688" id="JurisdictionStrategy" style="stroke: #A80036; stroke-width: 1.5;" width="127" x="274.935" y="522"/><rect fill="#EEEEEE" height="23.9688" style="stroke: #A80036; stroke-width: 1.5;" width="127" x="274.935" y="522"/><text fill="#000000" font-family="sans-serif" font-size="12" lengthAdjust="spacingAndGlyphs" textLength="121" x="277.935" y="538.1387">JurisdictionStrategy</text></a><!--class SecuritiesRestriction--><a target="_top" xlink:actuate="onRequest" xlink:href="../SecuritiesRestriction.html" xlink:show="new" xlink:title="Restrictions applicable to the security." xlink:type="simple"><rect fill="#EEEEEE" filter="url(#fkhzv3cg59osd)" height="23.9688" id="SecuritiesRestriction" style="stroke: #A80036; stroke-width: 1.5;" width="135" x="270.935" y="436"/><rect fill="#EEEEEE" height="23.9688" style="stroke: #A80036; stroke-width: 1.5;" width="135" x="270.935" y="436"/><text fill="#000000" font-family="sans-serif" font-size="12" lengthAdjust="spacingAndGlyphs" textLength="129" x="273.935" y="452.1387">SecuritiesRestriction</text></a><!--class SecuritiesTax--><a target="_top" xlink:actuate="onRequest" xlink:href="../SecuritiesTax.html" xlink:show="new" xlink:title="Amount of money due to the government or tax authority, according to various pre-defined parameters such as thresholds or income." xlink:type="simple"><rect fill="#EEEEEE" filter="url(#fkhzv3cg59osd)" height="23.9688" id="SecuritiesTax" style="stroke: #A80036; stroke-width: 1.5;" width="89" x="317.935" y="350"/><rect fill="#EEEEEE" height="23.9688" style="stroke: #A80036; stroke-width: 1.5;" width="89" x="317.935" y="350"/><text fill="#000000" font-family="sans-serif" font-size="12" lengthAdjust="spacingAndGlyphs" textLength="83" x="320.935" y="366.1387">SecuritiesTax</text></a><!--class Market--><a target="_top" xlink:actuate="onRequest" xlink:href="../Market.html" xlink:show="new" xlink:title="Context or geographic environment in which trading parties execute trades." xlink:type="simple"><rect fill="#EEEEEE" filter="url(#fkhzv3cg59osd)" height="23.9688" id="Market" style="stroke: #A80036; stroke-width: 1.5;" width="49" x="337.935" y="248"/><rect fill="#EEEEEE" height="23.9688" style="stroke: #A80036; stroke-width: 1.5;" width="49" x="337.935" y="248"/><text fill="#000000" font-family="sans-serif" font-size="12" lengthAdjust="spacingAndGlyphs" textLength="43" x="340.935" y="264.1387">Market</text></a><!--class Agreement--><a target="_top" xlink:actuate="onRequest" xlink:href="../Agreement.html" xlink:show="new" xlink:title="Contractual details related to an agreement between parties." xlink:type="simple"><rect fill="#EEEEEE" filter="url(#fkhzv3cg59osd)" height="23.9688" id="Agreement" style="stroke: #A80036; stroke-width: 1.5;" width="75" x="44.9349" y="146"/><rect fill="#EEEEEE" height="23.9688" style="stroke: #A80036; stroke-width: 1.5;" width="75" x="44.9349" y="146"/><text fill="#000000" font-family="sans-serif" font-size="12" lengthAdjust="spacingAndGlyphs" textLength="69" x="47.9349" y="162.1387">Agreement</text></a><!--link Location to GovernanceRules--><!--link Security to Location--><!--link JurisdictionStrategy to Security--><!--link SecuritiesRestriction to JurisdictionStrategy--><!--link SecuritiesTax to SecuritiesRestriction--><!--link Market to SecuritiesTax--><!--link Agreement to Market--><!--link Jurisdiction to GovernanceRules--><path d="M493.964,64.158 C508.652,71.522 526.582,82.334 539.185,96 C579.144,139.33 614.745,163.971 591.185,218 C581.003,241.35 445.41,361.552 423.185,374 C360.55,409.081 279.863,428.276 224.892,438.06 " fill="none" id="Jurisdiction-GovernanceRules" style="stroke: #A80036; stroke-width: 1.0;"/><polygon fill="#A80036" points="219.654,438.978,229.2092,441.3651,224.579,438.1153,227.8288,433.4851,219.654,438.978" style="stroke: #A80036; stroke-width: 1.0;"/><text fill="#000000" font-family="sans-serif" font-size="13" lengthAdjust="spacingAndGlyphs" textLength="111" x="567.185" y="264.0669">GovernanceRules</text><text fill="#000000" font-family="sans-serif" font-size="13" lengthAdjust="spacingAndGlyphs" textLength="8" x="227.8803" y="432.7014">1</text><!--link Jurisdiction to Location--><path d="M430.941,54.296 C331.311,58.095 64.1792,70.568 34.1849,96 C-43.399,161.784 61.1167,300.466 99.2451,346.097 " fill="none" id="Jurisdiction-Location" style="stroke: #A80036; stroke-width: 1.0;"/><polygon fill="#A80036" points="102.5091,349.97,99.7687,340.5101,99.2873,346.1464,93.651,345.665,102.5091,349.97" style="stroke: #A80036; stroke-width: 1.0;"/><text fill="#000000" font-family="sans-serif" font-size="13" lengthAdjust="spacingAndGlyphs" textLength="81" x="19.1849" y="213.0669">Identification</text><text fill="#000000" font-family="sans-serif" font-size="13" lengthAdjust="spacingAndGlyphs" textLength="8" x="88.3784" y="339.0079">1</text><!--link Jurisdiction to Security--><path d="M430.879,56.261 C384.781,62.102 306.312,78.189 256.185,122 C218.383,155.039 200.323,214.589 193.535,243.033 " fill="none" id="Jurisdiction-Security" style="stroke: #A80036; stroke-width: 1.0;"/><polygon fill="#A80036" points="192.396,247.969,198.3153,240.0974,193.519,243.0968,190.5197,238.3005,192.396,247.969" style="stroke: #A80036; stroke-width: 1.0;"/><text fill="#000000" font-family="sans-serif" font-size="13" lengthAdjust="spacingAndGlyphs" textLength="131" x="257.185" y="162.0669">RegisteredSecurities</text><text fill="#000000" font-family="sans-serif" font-size="13" lengthAdjust="spacingAndGlyphs" textLength="24" x="163.5154" y="237.0066">0..1</text><!--link Jurisdiction to JurisdictionStrategy--><path d="M505.276,53.791 C611.987,57.064 912.185,73.674 912.185,157 C912.185,157 912.185,157 912.185,449 C912.185,499.5446 559.23,522.4712 406.865,530.0135 " fill="none" id="Jurisdiction-JurisdictionStrategy" style="stroke: #A80036; stroke-width: 1.0;"/><polygon fill="#A80036" points="401.53,530.2753,410.7157,533.8282,406.524,530.0296,410.3226,525.8379,401.53,530.2753" style="stroke: #A80036; stroke-width: 1.0;"/><text fill="#000000" font-family="sans-serif" font-size="13" lengthAdjust="spacingAndGlyphs" textLength="125" x="913.185" y="315.0669">AssociatedStrategy</text><text fill="#000000" font-family="sans-serif" font-size="13" lengthAdjust="spacingAndGlyphs" textLength="7" x="410.0625" y="524.7864">*</text><!--link Jurisdiction to SecuritiesRestriction--><path d="M505.425,59.935 C576.873,74.309 726.185,109.974 726.185,157 C726.185,157 726.185,157 726.185,363 C726.185,426.774 523.422,442.241 411.051,445.915 " fill="none" id="Jurisdiction-SecuritiesRestriction" style="stroke: #A80036; stroke-width: 1.0;"/><polygon fill="#A80036" points="405.769,446.082,414.8903,449.7971,410.7665,445.9248,414.6388,441.8011,405.769,446.082" style="stroke: #A80036; stroke-width: 1.0;"/><text fill="#000000" font-family="sans-serif" font-size="13" lengthAdjust="spacingAndGlyphs" textLength="130" x="727.185" y="264.0669">SecuritiesRestriction</text><text fill="#000000" font-family="sans-serif" font-size="13" lengthAdjust="spacingAndGlyphs" textLength="8" x="414.017" y="440.9538">1</text><!--link Jurisdiction to SecuritiesTax--><path d="M480.356,64.251 C502.207,85.842 543.708,134.123 520.185,170 C501.85,197.965 475.925,177.502 451.185,200 C427.425,221.607 386.07,308.625 369.428,344.949 " fill="none" id="Jurisdiction-SecuritiesTax" style="stroke: #A80036; stroke-width: 1.0;"/><polygon fill="#A80036" points="367.157,349.926,374.5324,343.3989,369.2328,345.3773,367.2544,340.0776,367.157,349.926" style="stroke: #A80036; stroke-width: 1.0;"/><text fill="#000000" font-family="sans-serif" font-size="13" lengthAdjust="spacingAndGlyphs" textLength="133" x="452.185" y="213.0669">RelatedSecuritiesTax</text><text fill="#000000" font-family="sans-serif" font-size="13" lengthAdjust="spacingAndGlyphs" textLength="8" x="358.0614" y="338.9488">1</text><!--link Jurisdiction to Market--><path d="M459.498,64.289 C449.486,77.611 432.908,100.658 421.185,122 C398.158,163.92 377.648,216.659 368.009,242.789 " fill="none" id="Jurisdiction-Market" style="stroke: #A80036; stroke-width: 1.0;"/><polygon fill="#A80036" points="366.228,247.649,373.0802,240.5745,367.9482,242.9542,365.5685,237.8222,366.228,247.649" style="stroke: #A80036; stroke-width: 1.0;"/><text fill="#000000" font-family="sans-serif" font-size="13" lengthAdjust="spacingAndGlyphs" textLength="92" x="422.185" y="162.0669">RelatedMarket</text><text fill="#000000" font-family="sans-serif" font-size="13" lengthAdjust="spacingAndGlyphs" textLength="8" x="356.8282" y="236.8362">1</text><!--link Jurisdiction to Agreement--><path d="M430.886,54.004 C332.507,57.034 71.7615,67.685 46.1849,96 C33.4517,110.097 49.1939,129.392 63.6824,142.479 " fill="none" id="Jurisdiction-Agreement" style="stroke: #A80036; stroke-width: 1.0;"/><polygon fill="#A80036" points="67.711,145.997,63.563,137.0643,63.9449,142.7082,58.3009,143.0901,67.711,145.997" style="stroke: #A80036; stroke-width: 1.0;"/><text fill="#000000" font-family="sans-serif" font-size="13" lengthAdjust="spacingAndGlyphs" textLength="120" x="47.1849" y="109.0669">RelatedAgreement</text><text fill="#000000" font-family="sans-serif" font-size="13" lengthAdjust="spacingAndGlyphs" textLength="7" x="53.1028" y="135.0442">*</text><!--link Security to SecuritiesRestriction--><path d="M191.741,272.054 C195.25,293.637 205.485,342.064 230.185,374 C250.953,400.853 284.463,421.3 308.652,433.629 " fill="none" id="Security-SecuritiesRestriction" style="stroke: #A80036; stroke-width: 1.0;"/><polygon fill="#A80036" points="313.359,435.986,307.1048,428.3778,308.8889,433.7459,303.5207,435.53,313.359,435.986" style="stroke: #A80036; stroke-width: 1.0;"/><text fill="#000000" font-family="sans-serif" font-size="13" lengthAdjust="spacingAndGlyphs" textLength="67" x="231.185" y="366.0669">Restriction</text><text fill="#000000" font-family="sans-serif" font-size="13" lengthAdjust="spacingAndGlyphs" textLength="7" x="295.1922" y="425.0294">*</text><!--link Security to SecuritiesTax--><path d="M207.14,272.005 C225.984,284.124 257.425,304.013 285.185,320 C301.836,329.59 320.896,339.745 335.886,347.549 " fill="none" id="Security-SecuritiesTax" style="stroke: #A80036; stroke-width: 1.0;"/><polygon fill="#A80036" points="340.401,349.892,334.2554,342.1958,335.9631,347.5887,330.5702,349.2965,340.401,349.892" style="stroke: #A80036; stroke-width: 1.0;"/><text fill="#000000" font-family="sans-serif" font-size="13" lengthAdjust="spacingAndGlyphs" textLength="66" x="286.185" y="315.0669">TaxDetails</text><text fill="#000000" font-family="sans-serif" font-size="13" lengthAdjust="spacingAndGlyphs" textLength="7" x="323.2799" y="338.9031">*</text></g></svg>