<?xml version="1.0" encoding="UTF-8" standalone="no"?><svg xmlns="http://www.w3.org/2000/svg" xmlns:xlink="http://www.w3.org/1999/xlink" contentScriptType="application/ecmascript" contentStyleType="text/css" height="456px" preserveAspectRatio="none" style="width:2026px;height:456px;" version="1.1" viewBox="0 0 2026 456" width="2026px" zoomAndPan="magnify"><defs><filter height="300%" id="fw991h5mscte7" width="300%" x="-1" y="-1"><feGaussianBlur result="blurOut" stdDeviation="2.0"/><feColorMatrix in="blurOut" result="blurOut2" type="matrix" values="0 0 0 0 0 0 0 0 0 0 0 0 0 0 0 0 0 0 .4 0"/><feOffset dx="4.0" dy="4.0" in="blurOut2" result="blurOut3"/><feBlend in="SourceGraphic" in2="blurOut3" mode="normal"/></filter></defs><g><!--cluster ##13069--><!--cluster ##13072--><!--class LineItem--><a target="_top" xlink:actuate="onRequest" xlink:href="../LineItem.html" xlink:show="new" xlink:title="Unit of information  showing the related  provision of products and/or services and monetary summations reported as a discrete line item." xlink:type="simple"><rect fill="#FEFECE" filter="url(#fw991h5mscte7)" height="108.7969" id="LineItem" style="stroke: #A80036; stroke-width: 1.5;" width="242" x="709.497" y="40.5"/><rect fill="#FEFECE" height="23.9688" style="stroke: #A80036; stroke-width: 1.5;" width="242" x="709.497" y="40.5"/><text fill="#000000" font-family="sans-serif" font-size="12" lengthAdjust="spacingAndGlyphs" textLength="52" x="804.497" y="56.6387">LineItem</text><line style="stroke: #A80036; stroke-width: 1.5;" x1="710.497" x2="950.497" y1="64.4688" y2="64.4688"/><ellipse cx="720.497" cy="76.3711" fill="#84BE84" rx="3" ry="3" style="stroke: #038048; stroke-width: 1.0;"/><text fill="#000000" font-family="sans-serif" font-size="11" lengthAdjust="spacingAndGlyphs" textLength="78" x="729.497" y="78.6792">GrossAmount</text><text fill="#000000" font-family="sans-serif" font-size="11" font-style="italic" lengthAdjust="spacingAndGlyphs" textLength="126" x="811.497" y="78.6792">(CurrencyAndAmount)</text><ellipse cx="720.497" cy="89.1758" fill="#84BE84" rx="3" ry="3" style="stroke: #038048; stroke-width: 1.0;"/><text fill="#000000" font-family="sans-serif" font-size="11" lengthAdjust="spacingAndGlyphs" textLength="72" x="729.497" y="91.4839">Identification</text><text fill="#000000" font-family="sans-serif" font-size="11" font-style="italic" lengthAdjust="spacingAndGlyphs" textLength="70" x="805.497" y="91.4839">(Max35Text)</text><ellipse cx="720.497" cy="101.9805" fill="#84BE84" rx="3" ry="3" style="stroke: #038048; stroke-width: 1.0;"/><text fill="#000000" font-family="sans-serif" font-size="11" lengthAdjust="spacingAndGlyphs" textLength="131" x="729.497" y="104.2886">MeasureDateTimeStart</text><text fill="#000000" font-family="sans-serif" font-size="11" font-style="italic" lengthAdjust="spacingAndGlyphs" textLength="81" x="864.497" y="104.2886">(ISODateTime)</text><ellipse cx="720.497" cy="114.7852" fill="#84BE84" rx="3" ry="3" style="stroke: #038048; stroke-width: 1.0;"/><text fill="#000000" font-family="sans-serif" font-size="11" lengthAdjust="spacingAndGlyphs" textLength="124" x="729.497" y="117.0933">MeasureDateTimeEnd</text><text fill="#000000" font-family="sans-serif" font-size="11" font-style="italic" lengthAdjust="spacingAndGlyphs" textLength="81" x="857.497" y="117.0933">(ISODateTime)</text><ellipse cx="720.497" cy="127.5898" fill="#84BE84" rx="3" ry="3" style="stroke: #038048; stroke-width: 1.0;"/><text fill="#000000" font-family="sans-serif" font-size="11" lengthAdjust="spacingAndGlyphs" textLength="62" x="729.497" y="129.8979">NetAmount</text><text fill="#000000" font-family="sans-serif" font-size="11" font-style="italic" lengthAdjust="spacingAndGlyphs" textLength="126" x="795.497" y="129.8979">(CurrencyAndAmount)</text><ellipse cx="720.497" cy="140.3945" fill="#84BE84" rx="3" ry="3" style="stroke: #038048; stroke-width: 1.0;"/><text fill="#000000" font-family="sans-serif" font-size="11" lengthAdjust="spacingAndGlyphs" textLength="99" x="729.497" y="142.7026">DeliveryDateTime</text><text fill="#000000" font-family="sans-serif" font-size="11" font-style="italic" lengthAdjust="spacingAndGlyphs" textLength="81" x="832.497" y="142.7026">(ISODateTime)</text></a><!--class Adjustment--><a target="_top" xlink:actuate="onRequest" xlink:href="../Adjustment.html" xlink:show="new" xlink:title="Modification on the value of goods and / or services. For example: rebate, discount." xlink:type="simple"><rect fill="#EEEEEE" filter="url(#fw991h5mscte7)" height="23.9688" id="Adjustment" style="stroke: #A80036; stroke-width: 1.5;" width="77" x="1920.75" y="332"/><rect fill="#EEEEEE" height="23.9688" style="stroke: #A80036; stroke-width: 1.5;" width="77" x="1920.75" y="332"/><text fill="#000000" font-family="sans-serif" font-size="12" lengthAdjust="spacingAndGlyphs" textLength="71" x="1923.75" y="348.1387">Adjustment</text></a><!--class Charges--><a target="_top" xlink:actuate="onRequest" xlink:href="../Charges.html" xlink:show="new" xlink:title="Amount of money associated with a service." xlink:type="simple"><rect fill="#EEEEEE" filter="url(#fw991h5mscte7)" height="23.9688" id="Charges" style="stroke: #A80036; stroke-width: 1.5;" width="58" x="1754.5" y="230"/><rect fill="#EEEEEE" height="23.9688" style="stroke: #A80036; stroke-width: 1.5;" width="58" x="1754.5" y="230"/><text fill="#000000" font-family="sans-serif" font-size="12" lengthAdjust="spacingAndGlyphs" textLength="52" x="1757.5" y="246.1387">Charges</text></a><!--class Product--><a target="_top" xlink:actuate="onRequest" xlink:href="../Product.html" xlink:show="new" xlink:title="Item that is offered for sale. Products can be services or goods." xlink:type="simple"><rect fill="#EEEEEE" filter="url(#fw991h5mscte7)" height="23.9688" id="Product" style="stroke: #A80036; stroke-width: 1.5;" width="55" x="1942.75" y="83"/><rect fill="#EEEEEE" height="23.9688" style="stroke: #A80036; stroke-width: 1.5;" width="55" x="1942.75" y="83"/><text fill="#000000" font-family="sans-serif" font-size="12" lengthAdjust="spacingAndGlyphs" textLength="49" x="1945.75" y="99.1387">Product</text></a><!--class ProductQuantity--><a target="_top" xlink:actuate="onRequest" xlink:href="../ProductQuantity.html" xlink:show="new" xlink:title="Specifies the ordered quantity of a product." xlink:type="simple"><rect fill="#EEEEEE" filter="url(#fw991h5mscte7)" height="23.9688" id="ProductQuantity" style="stroke: #A80036; stroke-width: 1.5;" width="107" x="1254.75" y="230"/><rect fill="#EEEEEE" height="23.9688" style="stroke: #A80036; stroke-width: 1.5;" width="107" x="1254.75" y="230"/><text fill="#000000" font-family="sans-serif" font-size="12" lengthAdjust="spacingAndGlyphs" textLength="101" x="1257.75" y="246.1387">ProductQuantity</text></a><!--class Invoice--><a target="_top" xlink:actuate="onRequest" xlink:href="../Invoice.html" xlink:show="new" xlink:title="General information about an invoice, such as number, issue date date and monetary amounts." xlink:type="simple"><rect fill="#EEEEEE" filter="url(#fw991h5mscte7)" height="23.9688" id="Invoice" style="stroke: #A80036; stroke-width: 1.5;" width="49" x="1376.75" y="420"/><rect fill="#EEEEEE" height="23.9688" style="stroke: #A80036; stroke-width: 1.5;" width="49" x="1376.75" y="420"/><text fill="#000000" font-family="sans-serif" font-size="12" lengthAdjust="spacingAndGlyphs" textLength="43" x="1379.75" y="436.1387">Invoice</text></a><!--class Packaging--><a target="_top" xlink:actuate="onRequest" xlink:href="../Packaging.html" xlink:show="new" xlink:title="Physical packaging of goods for transport." xlink:type="simple"><rect fill="#EEEEEE" filter="url(#fw991h5mscte7)" height="23.9688" id="Packaging" style="stroke: #A80036; stroke-width: 1.5;" width="71" x="1365.75" y="332"/><rect fill="#EEEEEE" height="23.9688" style="stroke: #A80036; stroke-width: 1.5;" width="71" x="1365.75" y="332"/><text fill="#000000" font-family="sans-serif" font-size="12" lengthAdjust="spacingAndGlyphs" textLength="65" x="1368.75" y="348.1387">Packaging</text></a><!--link Charges to Adjustment--><!--link Product to Charges--><!--link ProductQuantity to Product--><!--link Product to ProductQuantity--><path d="M1965,107.328 C1954.46,129.661 1927.62,179.024 1888,200 C1842.74,223.955 1504.91,235.692 1366.68,239.531 " fill="none" id="Product-ProductQuantity" style="stroke: #A80036; stroke-width: 1.0;"/><polygon fill="#A80036" points="1361.45,239.676,1370.5606,243.4173,1366.448,239.5332,1370.3321,235.4205,1361.45,239.676" style="stroke: #A80036; stroke-width: 1.0;"/><text fill="#000000" font-family="sans-serif" font-size="13" lengthAdjust="spacingAndGlyphs" textLength="54" x="1912" y="195.0669">Quantity</text><text fill="#000000" font-family="sans-serif" font-size="13" lengthAdjust="spacingAndGlyphs" textLength="7" x="1369.7778" y="234.1652">*</text><!--link Invoice to ProductQuantity--><!--link Packaging to Invoice--><!--link LineItem to Adjustment--><path d="M709.215,95.261 C483.424,95.999 27.1825,108.591 108.997,200 C245.886,352.942 822.355,286.147 1027,302 C1368.57,328.46 1781.99,339.186 1915.32,342.114 " fill="none" id="LineItem-Adjustment" style="stroke: #A80036; stroke-width: 1.0;"/><polygon fill="#A80036" points="1920.32,342.223,1911.4018,338.0438,1915.321,342.123,1911.2418,346.0422,1920.32,342.223" style="stroke: #A80036; stroke-width: 1.0;"/><text fill="#000000" font-family="sans-serif" font-size="13" lengthAdjust="spacingAndGlyphs" textLength="129" x="194.997" y="246.0669">FinancialAdjustment</text><text fill="#000000" font-family="sans-serif" font-size="13" lengthAdjust="spacingAndGlyphs" textLength="8" x="1904.8678" y="336.7925">1</text><!--link LineItem to Charges--><path d="M923.202,149.645 C944.804,159.648 968.17,168.634 990.997,174 C1011.36,178.787 1725.63,171.996 1744,182 C1760.71,191.1 1771.48,210.803 1777.38,224.937 " fill="none" id="LineItem-Charges" style="stroke: #A80036; stroke-width: 1.0;"/><polygon fill="#A80036" points="1779.33,229.863,1779.7249,220.0221,1777.4841,225.2162,1772.29,222.9754,1779.33,229.863" style="stroke: #A80036; stroke-width: 1.0;"/><text fill="#000000" font-family="sans-serif" font-size="13" lengthAdjust="spacingAndGlyphs" textLength="101" x="1764" y="195.0669">LogisticsCharge</text><text fill="#000000" font-family="sans-serif" font-size="13" lengthAdjust="spacingAndGlyphs" textLength="7" x="1768.3497" y="218.8641">*</text><!--link LineItem to Charges--><path d="M923.227,149.539 C944.827,159.548 968.187,168.562 990.997,174 C1042.24,186.214 1412.73,175.448 1465,182 C1499.44,186.318 1506.98,193.097 1541,200 C1614.94,215.003 1702.35,228.864 1749.24,235.987 " fill="none" id="LineItem-Charges" style="stroke: #A80036; stroke-width: 1.0;"/><polygon fill="#A80036" points="1754.2,236.739,1745.8944,231.4458,1749.2555,235.9959,1744.7055,239.357,1754.2,236.739" style="stroke: #A80036; stroke-width: 1.0;"/><text fill="#000000" font-family="sans-serif" font-size="13" lengthAdjust="spacingAndGlyphs" textLength="53" x="1542" y="195.0669">Charges</text><text fill="#000000" font-family="sans-serif" font-size="13" lengthAdjust="spacingAndGlyphs" textLength="7" x="1739.5456" y="230.1128">*</text><!--link LineItem to Charges--><path d="M923.212,149.603 C944.813,159.608 968.177,168.605 990.997,174 C1056.96,189.594 1535.54,164.394 1601,182 C1616.75,186.238 1617.9,193.802 1633,200 C1671.6,215.848 1718.26,227.505 1749.19,234.254 " fill="none" id="LineItem-Charges" style="stroke: #A80036; stroke-width: 1.0;"/><polygon fill="#A80036" points="1754.39,235.376,1746.4391,229.5636,1749.503,234.3189,1744.7478,237.3828,1754.39,235.376" style="stroke: #A80036; stroke-width: 1.0;"/><text fill="#000000" font-family="sans-serif" font-size="13" lengthAdjust="spacingAndGlyphs" textLength="100" x="1634" y="195.0669">NetPriceCharge</text><text fill="#000000" font-family="sans-serif" font-size="13" lengthAdjust="spacingAndGlyphs" textLength="8" x="1738.3548" y="247.6405">1</text><!--link LineItem to Product--><path d="M950.649,95 C1206.5,95 1791.96,95 1937.02,95 " fill="none" id="LineItem-Product" style="stroke: #A80036; stroke-width: 1.0;"/><polygon fill="#A80036" points="1942.4,95,1933.4,91,1937.4,95,1933.4,99,1942.4,95" style="stroke: #A80036; stroke-width: 1.0;"/><text fill="#000000" font-family="sans-serif" font-size="13" lengthAdjust="spacingAndGlyphs" textLength="101" x="1395.25" y="87.0669">InvoicedProduct</text><text fill="#000000" font-family="sans-serif" font-size="13" lengthAdjust="spacingAndGlyphs" textLength="8" x="1926.6247" y="89.3307">1</text><!--link LineItem to ProductQuantity--><path d="M923.707,149.529 C945.184,159.47 968.372,168.459 990.997,174 C1020.58,181.245 1238.05,167.798 1265,182 C1282.53,191.239 1294.68,211.196 1301.49,225.335 " fill="none" id="LineItem-ProductQuantity" style="stroke: #A80036; stroke-width: 1.0;"/><polygon fill="#A80036" points="1303.59,229.883,1303.4326,220.0354,1301.4865,225.347,1296.175,223.4009,1303.59,229.883" style="stroke: #A80036; stroke-width: 1.0;"/><text fill="#000000" font-family="sans-serif" font-size="13" lengthAdjust="spacingAndGlyphs" textLength="66" x="1286" y="195.0669">NetWeight</text><text fill="#000000" font-family="sans-serif" font-size="13" lengthAdjust="spacingAndGlyphs" textLength="8" x="1291.2694" y="218.891">1</text><!--link LineItem to ProductQuantity--><path d="M923.675,149.658 C945.155,159.592 968.351,168.545 990.997,174 C1011.04,178.827 1347.58,167.266 1362,182 C1376.81,197.131 1354.82,215.167 1334.62,227.28 " fill="none" id="LineItem-ProductQuantity" style="stroke: #A80036; stroke-width: 1.0;"/><polygon fill="#A80036" points="1330.08,229.923,1339.8706,228.8529,1334.4014,227.4079,1335.8464,221.9387,1330.08,229.923" style="stroke: #A80036; stroke-width: 1.0;"/><text fill="#000000" font-family="sans-serif" font-size="13" lengthAdjust="spacingAndGlyphs" textLength="88" x="1367" y="195.0669">BilledQuantity</text><text fill="#000000" font-family="sans-serif" font-size="13" lengthAdjust="spacingAndGlyphs" textLength="7" x="1328.0372" y="218.9447">*</text><!--link LineItem to ProductQuantity--><path d="M709.15,96.18 C486.599,98.564 41.8893,113.962 124.997,200 C164.416,240.808 1016.42,241.719 1249.51,241.201 " fill="none" id="LineItem-ProductQuantity" style="stroke: #A80036; stroke-width: 1.0;"/><polygon fill="#A80036" points="1254.57,241.189,1245.5586,237.2147,1249.57,241.2033,1245.5815,245.2147,1254.57,241.189" style="stroke: #A80036; stroke-width: 1.0;"/><text fill="#000000" font-family="sans-serif" font-size="13" lengthAdjust="spacingAndGlyphs" textLength="128" x="125.997" y="195.0669">ChargeFreeQuantity</text><text fill="#000000" font-family="sans-serif" font-size="13" lengthAdjust="spacingAndGlyphs" textLength="7" x="1239.8429" y="254.0388">*</text><!--link LineItem to ProductQuantity--><path d="M709.175,101.382 C533.918,111.378 236.219,137.751 295.997,200 C329.156,234.529 1038.42,239.982 1249.34,240.84 " fill="none" id="LineItem-ProductQuantity" style="stroke: #A80036; stroke-width: 1.0;"/><polygon fill="#A80036" points="1254.53,240.861,1245.5415,236.8353,1249.53,240.8467,1245.5186,244.8353,1254.53,240.861" style="stroke: #A80036; stroke-width: 1.0;"/><text fill="#000000" font-family="sans-serif" font-size="13" lengthAdjust="spacingAndGlyphs" textLength="244" x="296.997" y="195.0669">MeasureQuantityStartRelatedLineItem</text><text fill="#000000" font-family="sans-serif" font-size="13" lengthAdjust="spacingAndGlyphs" textLength="8" x="1238.7405" y="235.8229">1</text><!--link LineItem to ProductQuantity--><path d="M709.098,109.33 C625.038,123.194 535.859,150.121 582.997,200 C605.764,224.091 1080.57,236.273 1249.21,239.852 " fill="none" id="LineItem-ProductQuantity" style="stroke: #A80036; stroke-width: 1.0;"/><polygon fill="#A80036" points="1254.59,239.965,1245.6718,235.7858,1249.591,239.865,1245.5118,243.7842,1254.59,239.965" style="stroke: #A80036; stroke-width: 1.0;"/><text fill="#000000" font-family="sans-serif" font-size="13" lengthAdjust="spacingAndGlyphs" textLength="236" x="583.997" y="195.0669">MeasureQuantityEndRelatedLineItem</text><text fill="#000000" font-family="sans-serif" font-size="13" lengthAdjust="spacingAndGlyphs" textLength="8" x="1238.7609" y="232.7">1</text><!--link LineItem to ProductQuantity--><path d="M834.376,149.627 C838.682,168.317 846.818,187.676 861.997,200 C891.477,223.936 1135.66,235.216 1249.72,239.217 " fill="none" id="LineItem-ProductQuantity" style="stroke: #A80036; stroke-width: 1.0;"/><polygon fill="#A80036" points="1254.72,239.391,1245.8624,235.0848,1249.7229,239.2196,1245.5882,243.0801,1254.72,239.391" style="stroke: #A80036; stroke-width: 1.0;"/><text fill="#000000" font-family="sans-serif" font-size="13" lengthAdjust="spacingAndGlyphs" textLength="122" x="862.997" y="195.0669">GrossPriceQuantity</text><text fill="#000000" font-family="sans-serif" font-size="13" lengthAdjust="spacingAndGlyphs" textLength="7" x="1240.0237" y="252.9187">*</text><!--link LineItem to ProductQuantity--><path d="M929.688,149.552 C975.646,174.076 1021.34,198.156 1027,200 C1101.5,224.302 1191.82,234.232 1249.59,238.268 " fill="none" id="LineItem-ProductQuantity" style="stroke: #A80036; stroke-width: 1.0;"/><polygon fill="#A80036" points="1254.73,238.618,1246.0255,234.0101,1249.7418,238.2751,1245.4768,241.9913,1254.73,238.618" style="stroke: #A80036; stroke-width: 1.0;"/><text fill="#000000" font-family="sans-serif" font-size="13" lengthAdjust="spacingAndGlyphs" textLength="108" x="1028" y="195.0669">NetPriceQuantity</text><text fill="#000000" font-family="sans-serif" font-size="13" lengthAdjust="spacingAndGlyphs" textLength="7" x="1239.6588" y="233.2468">*</text><!--link LineItem to ProductQuantity--><path d="M924.667,149.525 C945.897,159.333 968.74,168.268 990.997,174 C1056.08,190.76 1077.46,163.256 1142,182 C1157.67,186.551 1159,193.576 1174,200 C1201.15,211.629 1232.68,221.449 1258.34,228.56 " fill="none" id="LineItem-ProductQuantity" style="stroke: #A80036; stroke-width: 1.0;"/><polygon fill="#A80036" points="1263.39,229.946,1255.7755,223.6994,1258.5696,228.6181,1253.6509,231.4121,1263.39,229.946" style="stroke: #A80036; stroke-width: 1.0;"/><text fill="#000000" font-family="sans-serif" font-size="13" lengthAdjust="spacingAndGlyphs" textLength="80" x="1175" y="195.0669">GrossWeight</text><text fill="#000000" font-family="sans-serif" font-size="13" lengthAdjust="spacingAndGlyphs" textLength="7" x="1249.1725" y="218.9757">*</text><!--link LineItem to Invoice--><path d="M709.141,100.591 C498.303,109.823 81.2649,133.984 35.9971,182 C-0.6199,220.84 -4.9352,262.525 30.9971,302 C124.549,404.7749 1179.96,427.2944 1371.33,430.5427 " fill="none" id="LineItem-Invoice" style="stroke: #A80036; stroke-width: 1.0;"/><polygon fill="#A80036" points="1376.48,430.6289,1367.5499,426.4752,1371.4807,430.5432,1367.4128,434.474,1376.48,430.6289" style="stroke: #A80036; stroke-width: 1.0;"/><text fill="#000000" font-family="sans-serif" font-size="13" lengthAdjust="spacingAndGlyphs" textLength="44" x="31.9971" y="297.0669">Invoice</text><text fill="#000000" font-family="sans-serif" font-size="13" lengthAdjust="spacingAndGlyphs" textLength="24" x="1344.7522" y="424.9521">0..1</text><!--link LineItem to Packaging--><path d="M709.139,100.638 C501.264,109.867 94.061,133.92 50.9971,182 C41.4686,192.638 34.6934,221.092 55.9971,254 C79.5744,290.42 99.2221,290.29 140.997,302 C260.522,335.504 1157.71,341.825 1360.39,342.83 " fill="none" id="LineItem-Packaging" style="stroke: #A80036; stroke-width: 1.0;"/><polygon fill="#A80036" points="1365.62,342.855,1356.643,338.8036,1360.6201,342.8264,1356.5973,346.8035,1365.62,342.855" style="stroke: #A80036; stroke-width: 1.0;"/><text fill="#000000" font-family="sans-serif" font-size="13" lengthAdjust="spacingAndGlyphs" textLength="65" x="56.9971" y="246.0669">Packaging</text><text fill="#000000" font-family="sans-serif" font-size="13" lengthAdjust="spacingAndGlyphs" textLength="7" x="1350.7227" y="356.0283">*</text><!--link ProductQuantity to Packaging--><path d="M1361.29,246.201 C1446.15,251.846 1604.17,264.82 1621,284 C1626.27,290.013 1626.11,295.847 1621,302 C1598.64,328.905 1498.89,338.245 1441.68,341.42 " fill="none" id="ProductQuantity-Packaging" style="stroke: #A80036; stroke-width: 1.0;"/><polygon fill="#A80036" points="1436.62,341.69,1445.8239,345.1956,1441.6126,341.4186,1445.3896,337.2073,1436.62,341.69" style="stroke: #A80036; stroke-width: 1.0;"/><text fill="#000000" font-family="sans-serif" font-size="13" lengthAdjust="spacingAndGlyphs" textLength="113" x="1625" y="297.0669">RelatedPackaging</text><text fill="#000000" font-family="sans-serif" font-size="13" lengthAdjust="spacingAndGlyphs" textLength="24" x="1444.7617" y="335.913">0..1</text><!--link ProductQuantity to Packaging--><path d="M1361.58,244.037 C1473.2,246.754 1722.42,255.929 1748,284 C1790.2,330.317 1542.1,340.289 1441.73,342.423 " fill="none" id="ProductQuantity-Packaging" style="stroke: #A80036; stroke-width: 1.0;"/><polygon fill="#A80036" points="1436.49,342.53,1445.5682,346.3492,1441.489,342.43,1445.4082,338.3508,1436.49,342.53" style="stroke: #A80036; stroke-width: 1.0;"/><text fill="#000000" font-family="sans-serif" font-size="13" lengthAdjust="spacingAndGlyphs" textLength="165" x="1753" y="297.0669">PackagingForUnitQuantity</text><text fill="#000000" font-family="sans-serif" font-size="13" lengthAdjust="spacingAndGlyphs" textLength="24" x="1444.6094" y="355.6474">0..1</text><!--link ProductQuantity to Packaging--><path d="M1254.74,243.244 C1184.41,244.828 1066.24,252.288 1039,284 C1033.78,290.068 1033.67,296.033 1039,302 C1060.12,325.646 1270.22,337.403 1360.32,341.389 " fill="none" id="ProductQuantity-Packaging" style="stroke: #A80036; stroke-width: 1.0;"/><polygon fill="#A80036" points="1365.56,341.618,1356.7522,337.2108,1360.5652,341.3895,1356.3866,345.2025,1365.56,341.618" style="stroke: #A80036; stroke-width: 1.0;"/><text fill="#000000" font-family="sans-serif" font-size="13" lengthAdjust="spacingAndGlyphs" textLength="227" x="1040" y="297.0669">PackagingForConsignmentlQuantity</text><text fill="#000000" font-family="sans-serif" font-size="13" lengthAdjust="spacingAndGlyphs" textLength="24" x="1333.713" y="336.1661">0..1</text><!--link ProductQuantity to Packaging--><path d="M1304.91,254.033 C1302.04,266.721 1299.5,287.644 1309,302 C1320.55,319.465 1341.42,329.562 1360.37,335.363 " fill="none" id="ProductQuantity-Packaging" style="stroke: #A80036; stroke-width: 1.0;"/><polygon fill="#A80036" points="1365.65,336.887,1358.1111,330.5495,1360.8458,335.5013,1355.894,338.2361,1365.65,336.887" style="stroke: #A80036; stroke-width: 1.0;"/><text fill="#000000" font-family="sans-serif" font-size="13" lengthAdjust="spacingAndGlyphs" textLength="134" x="1310" y="297.0669">PackagingForVolume</text><text fill="#000000" font-family="sans-serif" font-size="13" lengthAdjust="spacingAndGlyphs" textLength="24" x="1347.655" y="321.1115">0..1</text><!--link ProductQuantity to Packaging--><path d="M1361.26,251.562 C1396.85,258.495 1439.08,269.491 1450,284 C1461.95,299.892 1443.28,317.321 1425.65,329.086 " fill="none" id="ProductQuantity-Packaging" style="stroke: #A80036; stroke-width: 1.0;"/><polygon fill="#A80036" points="1421.21,331.95,1430.9402,330.426,1425.4098,329.2368,1426.5991,323.7063,1421.21,331.95" style="stroke: #A80036; stroke-width: 1.0;"/><text fill="#000000" font-family="sans-serif" font-size="13" lengthAdjust="spacingAndGlyphs" textLength="128" x="1454" y="297.0669">PackagingForWeight</text><text fill="#000000" font-family="sans-serif" font-size="13" lengthAdjust="spacingAndGlyphs" textLength="24" x="1398.6025" y="320.981">0..1</text><!--link Invoice to Invoice--><path d="M1425.55,424.5965 C1442.86,422.2704 1460,424.7383 1460,432 C1460,438.5242 1446.16,441.1788 1430.8,439.9639 " fill="none" id="Invoice-Invoice" style="stroke: #A80036; stroke-width: 1.0;"/><polygon fill="#A80036" points="1425.55,439.4035,1434.0767,444.3326,1430.522,439.9321,1434.9224,436.3774,1425.55,439.4035" style="stroke: #A80036; stroke-width: 1.0;"/><text fill="#000000" font-family="sans-serif" font-size="13" lengthAdjust="spacingAndGlyphs" textLength="92" x="1466" y="436.0669">OriginalInvoice</text><text fill="#000000" font-family="sans-serif" font-size="13" lengthAdjust="spacingAndGlyphs" textLength="8" x="1433.8631" y="435.1724">1</text></g></svg>