<?xml version="1.0" encoding="UTF-8" standalone="no"?><svg xmlns="http://www.w3.org/2000/svg" xmlns:xlink="http://www.w3.org/1999/xlink" contentScriptType="application/ecmascript" contentStyleType="text/css" height="500px" preserveAspectRatio="none" style="width:924px;height:500px;" version="1.1" viewBox="0 0 924 500" width="924px" zoomAndPan="magnify"><defs><filter height="300%" id="f1m8veguc33t1l" width="300%" x="-1" y="-1"><feGaussianBlur result="blurOut" stdDeviation="2.0"/><feColorMatrix in="blurOut" result="blurOut2" type="matrix" values="0 0 0 0 0 0 0 0 0 0 0 0 0 0 0 0 0 0 .4 0"/><feOffset dx="4.0" dy="4.0" in="blurOut2" result="blurOut3"/><feBlend in="SourceGraphic" in2="blurOut3" mode="normal"/></filter></defs><g><!--cluster ##6411--><!--cluster ##6414--><!--class LotBreakdown--><a target="_top" xlink:actuate="onRequest" xlink:href="../LotBreakdown.html" xlink:show="new" xlink:title="Number of securities purchased or sold in one transaction. In terms of options, a lot represents the number of contracts contained in one derivative security." xlink:type="simple"><rect fill="#FEFECE" filter="url(#f1m8veguc33t1l)" height="70.3828" id="LotBreakdown" style="stroke: #A80036; stroke-width: 1.5;" width="182" x="268" y="40"/><rect fill="#FEFECE" height="23.9688" style="stroke: #A80036; stroke-width: 1.5;" width="182" x="268" y="40"/><text fill="#000000" font-family="sans-serif" font-size="12" lengthAdjust="spacingAndGlyphs" textLength="88" x="315" y="56.1387">LotBreakdown</text><line style="stroke: #A80036; stroke-width: 1.5;" x1="269" x2="449" y1="63.9688" y2="63.9688"/><ellipse cx="279" cy="75.8711" fill="#84BE84" rx="3" ry="3" style="stroke: #038048; stroke-width: 1.0;"/><text fill="#000000" font-family="sans-serif" font-size="11" lengthAdjust="spacingAndGlyphs" textLength="39" x="288" y="78.1792">LotUnit</text><text fill="#000000" font-family="sans-serif" font-size="11" font-style="italic" lengthAdjust="spacingAndGlyphs" textLength="98" x="331" y="78.1792">(DecimalNumber)</text><ellipse cx="279" cy="88.6758" fill="#84BE84" rx="3" ry="3" style="stroke: #038048; stroke-width: 1.0;"/><text fill="#000000" font-family="sans-serif" font-size="11" lengthAdjust="spacingAndGlyphs" textLength="71" x="288" y="90.9839">LotDateTime</text><text fill="#000000" font-family="sans-serif" font-size="11" font-style="italic" lengthAdjust="spacingAndGlyphs" textLength="81" x="363" y="90.9839">(ISODateTime)</text><ellipse cx="279" cy="101.4805" fill="#84BE84" rx="3" ry="3" style="stroke: #038048; stroke-width: 1.0;"/><text fill="#000000" font-family="sans-serif" font-size="11" lengthAdjust="spacingAndGlyphs" textLength="67" x="288" y="103.7886">LotIdentifier</text><text fill="#000000" font-family="sans-serif" font-size="11" font-style="italic" lengthAdjust="spacingAndGlyphs" textLength="70" x="359" y="103.7886">(Max35Text)</text></a><!--class SecuritiesQuantity--><a target="_top" xlink:actuate="onRequest" xlink:href="../SecuritiesQuantity.html" xlink:show="new" xlink:title="Quantity of a security." xlink:type="simple"><rect fill="#EEEEEE" filter="url(#f1m8veguc33t1l)" height="23.9688" id="SecuritiesQuantity" style="stroke: #A80036; stroke-width: 1.5;" width="120" x="585.5" y="192"/><rect fill="#EEEEEE" height="23.9688" style="stroke: #A80036; stroke-width: 1.5;" width="120" x="585.5" y="192"/><text fill="#000000" font-family="sans-serif" font-size="12" lengthAdjust="spacingAndGlyphs" textLength="114" x="588.5" y="208.1387">SecuritiesQuantity</text></a><!--class GenericIdentification--><a target="_top" xlink:actuate="onRequest" xlink:href="../GenericIdentification.html" xlink:show="new" xlink:title="Information related to a non-standardised identification, such as a proprietary party identification or account identification." xlink:type="simple"><rect fill="#EEEEEE" filter="url(#f1m8veguc33t1l)" height="23.9688" id="GenericIdentification" style="stroke: #A80036; stroke-width: 1.5;" width="135" x="612.75" y="466"/><rect fill="#EEEEEE" height="23.9688" style="stroke: #A80036; stroke-width: 1.5;" width="135" x="612.75" y="466"/><text fill="#000000" font-family="sans-serif" font-size="12" lengthAdjust="spacingAndGlyphs" textLength="129" x="615.75" y="482.1387">GenericIdentification</text></a><!--class SecuritiesPricing--><a target="_top" xlink:actuate="onRequest" xlink:href="../SecuritiesPricing.html" xlink:show="new" xlink:title="Characteristics related to the price of the security." xlink:type="simple"><rect fill="#EEEEEE" filter="url(#f1m8veguc33t1l)" height="23.9688" id="SecuritiesPricing" style="stroke: #A80036; stroke-width: 1.5;" width="110" x="625" y="380"/><rect fill="#EEEEEE" height="23.9688" style="stroke: #A80036; stroke-width: 1.5;" width="110" x="625" y="380"/><text fill="#000000" font-family="sans-serif" font-size="12" lengthAdjust="spacingAndGlyphs" textLength="104" x="628" y="396.1387">SecuritiesPricing</text></a><!--class TradingMarket--><a target="_top" xlink:actuate="onRequest" xlink:href="../TradingMarket.html" xlink:show="new" xlink:title="Context or geographic environment in which trading parties may meet in order to negotiate and execute trades among themselves. It also identifies the primary market where an asset is issued." xlink:type="simple"><rect fill="#EEEEEE" filter="url(#f1m8veguc33t1l)" height="23.9688" id="TradingMarket" style="stroke: #A80036; stroke-width: 1.5;" width="96" x="366" y="294"/><rect fill="#EEEEEE" height="23.9688" style="stroke: #A80036; stroke-width: 1.5;" width="96" x="366" y="294"/><text fill="#000000" font-family="sans-serif" font-size="12" lengthAdjust="spacingAndGlyphs" textLength="90" x="369" y="310.1387">TradingMarket</text></a><!--link GenericIdentification to SecuritiesQuantity--><!--link SecuritiesPricing to GenericIdentification--><!--link TradingMarket to SecuritiesPricing--><!--link LotBreakdown to SecuritiesQuantity--><path d="M435.643,110.034 C494.751,136.281 573.295,171.159 615.379,189.847 " fill="none" id="LotBreakdown-SecuritiesQuantity" style="stroke: #A80036; stroke-width: 1.0;"/><polygon fill="#A80036" points="620.079,191.934,613.4759,184.6266,615.509,189.9054,610.2301,191.9386,620.079,191.934" style="stroke: #A80036; stroke-width: 1.0;"/><text fill="#000000" font-family="sans-serif" font-size="13" lengthAdjust="spacingAndGlyphs" textLength="117" x="546" y="155.0669">SecuritiesQuantity</text><text fill="#000000" font-family="sans-serif" font-size="13" lengthAdjust="spacingAndGlyphs" textLength="8" x="600.6218" y="180.9595">1</text><!--link LotBreakdown to GenericIdentification--><path d="M267.635,90.372 C163.042,109.467 6,147.395 6,203 C6,203 6,203 6,393 C6,453.0988 433.428,470.7487 607.523,475.4451 " fill="none" id="LotBreakdown-GenericIdentification" style="stroke: #A80036; stroke-width: 1.0;"/><polygon fill="#A80036" points="612.6,475.5803,603.7095,471.3426,607.6018,475.4474,603.4969,479.3397,612.6,475.5803" style="stroke: #A80036; stroke-width: 1.0;"/><text fill="#000000" font-family="sans-serif" font-size="13" lengthAdjust="spacingAndGlyphs" textLength="72" x="7" y="310.0669">LotNumber</text><text fill="#000000" font-family="sans-serif" font-size="13" lengthAdjust="spacingAndGlyphs" textLength="7" x="597.7232" y="470.6142">*</text><!--link LotBreakdown to SecuritiesPricing--><path d="M450.263,88.037 C513.987,98.154 600.312,115.319 673,142 C695.776,150.36 699.866,156.084 721,168 C780.692,201.657 819.939,186.538 854,246 C890.193,309.184 782.985,356.828 720.895,378.354 " fill="none" id="LotBreakdown-SecuritiesPricing" style="stroke: #A80036; stroke-width: 1.0;"/><polygon fill="#A80036" points="716.138,379.983,725.9485,380.851,720.8683,378.3629,723.3564,373.2826,716.138,379.983" style="stroke: #A80036; stroke-width: 1.0;"/><text fill="#000000" font-family="sans-serif" font-size="13" lengthAdjust="spacingAndGlyphs" textLength="51" x="861" y="259.0669">LotPrice</text><text fill="#000000" font-family="sans-serif" font-size="13" lengthAdjust="spacingAndGlyphs" textLength="7" x="719.0136" y="369.0254">*</text><!--link LotBreakdown to TradingMarket--><path d="M371.039,110.034 C376.48,127.181 382.289,148.436 385,168 C385,168 385,264 385,264 C387.975,273.358 393.945,282.417 399.699,289.63 " fill="none" id="LotBreakdown-TradingMarket" style="stroke: #A80036; stroke-width: 1.0;"/><polygon fill="#A80036" points="403.226,293.868,400.5445,284.3912,400.028,290.0244,394.3948,289.508,403.226,293.868" style="stroke: #A80036; stroke-width: 1.0;"/><text fill="#000000" font-family="sans-serif" font-size="13" lengthAdjust="spacingAndGlyphs" textLength="100" x="386" y="208.0669">TradeLotMarket</text><text fill="#000000" font-family="sans-serif" font-size="13" lengthAdjust="spacingAndGlyphs" textLength="8" x="388.8037" y="282.8708">1</text><!--link LotBreakdown to TradingMarket--><path d="M267.796,93.015 C183.476,113.088 77.326,152.075 121,216 C148.218,255.839 284.142,283.927 360.933,296.899 " fill="none" id="LotBreakdown-TradingMarket" style="stroke: #A80036; stroke-width: 1.0;"/><polygon fill="#A80036" points="365.904,297.732,357.6881,292.3007,360.9726,296.9063,356.367,300.1908,365.904,297.732" style="stroke: #A80036; stroke-width: 1.0;"/><text fill="#000000" font-family="sans-serif" font-size="13" lengthAdjust="spacingAndGlyphs" textLength="103" x="122" y="208.0669">QuoteLotMarket</text><text fill="#000000" font-family="sans-serif" font-size="13" lengthAdjust="spacingAndGlyphs" textLength="24" x="333.8398" y="291.8696">0..1</text><!--link LotBreakdown to TradingMarket--><path d="M313.442,110.132 C282.01,138.072 249.313,178.895 270,216 C291.689,254.901 338.162,278.934 372.476,292.07 " fill="none" id="LotBreakdown-TradingMarket" style="stroke: #A80036; stroke-width: 1.0;"/><polygon fill="#A80036" points="377.446,293.929,370.4175,287.0297,372.7628,292.1775,367.6151,294.5228,377.446,293.929" style="stroke: #A80036; stroke-width: 1.0;"/><text fill="#000000" font-family="sans-serif" font-size="13" lengthAdjust="spacingAndGlyphs" textLength="104" x="271" y="208.0669">RoundLotMarket</text><text fill="#000000" font-family="sans-serif" font-size="13" lengthAdjust="spacingAndGlyphs" textLength="24" x="369.0056" y="282.9528">0..1</text><!--link SecuritiesQuantity to TradingMarket--><path d="M585.243,212.958 C514.103,222.72 404.061,238.85 398,246 C387.732,258.113 394.932,276.222 402.689,289.179 " fill="none" id="SecuritiesQuantity-TradingMarket" style="stroke: #A80036; stroke-width: 1.0;"/><polygon fill="#A80036" points="405.541,293.699,404.1228,283.9528,402.8736,289.47,397.3564,288.2207,405.541,293.699" style="stroke: #A80036; stroke-width: 1.0;"/><text fill="#000000" font-family="sans-serif" font-size="13" lengthAdjust="spacingAndGlyphs" textLength="201" x="399" y="259.0669">MinimumTradedQuantityMarket</text><text fill="#000000" font-family="sans-serif" font-size="13" lengthAdjust="spacingAndGlyphs" textLength="8" x="404.064" y="282.9027">1</text><!--link SecuritiesQuantity to TradingMarket--><path d="M640.794,216.045 C635.055,229.557 623.448,252.101 606,264 C564.953,291.994 508.401,301.401 467.31,304.312 " fill="none" id="SecuritiesQuantity-TradingMarket" style="stroke: #A80036; stroke-width: 1.0;"/><polygon fill="#A80036" points="462.124,304.651,471.3655,308.0561,467.1134,304.3252,470.8443,300.0731,462.124,304.651" style="stroke: #A80036; stroke-width: 1.0;"/><text fill="#000000" font-family="sans-serif" font-size="13" lengthAdjust="spacingAndGlyphs" textLength="205" x="625" y="259.0669">MaximumTradedQuantityMarket</text><text fill="#000000" font-family="sans-serif" font-size="13" lengthAdjust="spacingAndGlyphs" textLength="8" x="470.1055" y="299.2223">1</text></g></svg>