<?xml version="1.0" encoding="UTF-8" standalone="no"?><svg xmlns="http://www.w3.org/2000/svg" xmlns:xlink="http://www.w3.org/1999/xlink" contentScriptType="application/ecmascript" contentStyleType="text/css" height="318px" preserveAspectRatio="none" style="width:903px;height:318px;" version="1.1" viewBox="0 0 903 318" width="903px" zoomAndPan="magnify"><defs><filter height="300%" id="fdloa7l9jakl5" width="300%" x="-1" y="-1"><feGaussianBlur result="blurOut" stdDeviation="2.0"/><feColorMatrix in="blurOut" result="blurOut2" type="matrix" values="0 0 0 0 0 0 0 0 0 0 0 0 0 0 0 0 0 0 .4 0"/><feOffset dx="4.0" dy="4.0" in="blurOut2" result="blurOut3"/><feBlend in="SourceGraphic" in2="blurOut3" mode="normal"/></filter></defs><g><!--cluster ##8925--><!--cluster ##8928--><!--class Lottery--><a target="_top" xlink:actuate="onRequest" xlink:href="../Lottery.html" xlink:show="new" xlink:title="The parameters required to manage the organisation of a lottery." xlink:type="simple"><rect fill="#FEFECE" filter="url(#fdloa7l9jakl5)" height="57.5781" id="Lottery" style="stroke: #A80036; stroke-width: 1.5;" width="201" x="467.75" y="40"/><rect fill="#FEFECE" height="23.9688" style="stroke: #A80036; stroke-width: 1.5;" width="201" x="467.75" y="40"/><text fill="#000000" font-family="sans-serif" font-size="12" lengthAdjust="spacingAndGlyphs" textLength="43" x="546.75" y="56.1387">Lottery</text><line style="stroke: #A80036; stroke-width: 1.5;" x1="468.75" x2="667.75" y1="63.9688" y2="63.9688"/><ellipse cx="478.75" cy="75.8711" fill="#84BE84" rx="3" ry="3" style="stroke: #038048; stroke-width: 1.0;"/><text fill="#000000" font-family="sans-serif" font-size="11" lengthAdjust="spacingAndGlyphs" textLength="65" x="487.75" y="78.1792">LotteryDate</text><text fill="#000000" font-family="sans-serif" font-size="11" font-style="italic" lengthAdjust="spacingAndGlyphs" textLength="81" x="556.75" y="78.1792">(ISODateTime)</text><ellipse cx="478.75" cy="88.6758" fill="#84BE84" rx="3" ry="3" style="stroke: #038048; stroke-width: 1.0;"/><text fill="#000000" font-family="sans-serif" font-size="11" lengthAdjust="spacingAndGlyphs" textLength="66" x="487.75" y="90.9839">LotteryType</text><text fill="#000000" font-family="sans-serif" font-size="11" font-style="italic" lengthAdjust="spacingAndGlyphs" textLength="105" x="557.75" y="90.9839">(LotteryTypeCode)</text></a><!--class SecuritiesQuantity--><a target="_top" xlink:actuate="onRequest" xlink:href="../SecuritiesQuantity.html" xlink:show="new" xlink:title="Quantity of a security." xlink:type="simple"><rect fill="#EEEEEE" filter="url(#fdloa7l9jakl5)" height="23.9688" id="SecuritiesQuantity" style="stroke: #A80036; stroke-width: 1.5;" width="120" x="459.5" y="180"/><rect fill="#EEEEEE" height="23.9688" style="stroke: #A80036; stroke-width: 1.5;" width="120" x="459.5" y="180"/><text fill="#000000" font-family="sans-serif" font-size="12" lengthAdjust="spacingAndGlyphs" textLength="114" x="462.5" y="196.1387">SecuritiesQuantity</text></a><!--class CorporateActionEvent--><a target="_top" xlink:actuate="onRequest" xlink:href="../CorporateActionEvent.html" xlink:show="new" xlink:title="An event determined by a corporation's board of directors, that changes the existing corporate capital structure or financial condition." xlink:type="simple"><rect fill="#EEEEEE" filter="url(#fdloa7l9jakl5)" height="23.9688" id="CorporateActionEvent" style="stroke: #A80036; stroke-width: 1.5;" width="143" x="447.75" y="282"/><rect fill="#EEEEEE" height="23.9688" style="stroke: #A80036; stroke-width: 1.5;" width="143" x="447.75" y="282"/><text fill="#000000" font-family="sans-serif" font-size="12" lengthAdjust="spacingAndGlyphs" textLength="137" x="450.75" y="298.1387">CorporateActionEvent</text></a><!--link CorporateActionEvent to SecuritiesQuantity--><!--link SecuritiesQuantity to CorporateActionEvent--><path d="M459.498,194.063 C343.411,196.757 95.7597,205.781 70,234 C64.6065,239.9085 64.6065,246.0915 70,252 C94.5373,278.88 320.408,288.3433 442.122,291.509 " fill="none" id="SecuritiesQuantity-CorporateActionEvent" style="stroke: #A80036; stroke-width: 1.0;"/><polygon fill="#A80036" points="447.48,291.646,438.5846,287.4184,442.4816,291.5189,438.3812,295.4158,447.48,291.646" style="stroke: #A80036; stroke-width: 1.0;"/><text fill="#000000" font-family="sans-serif" font-size="13" lengthAdjust="spacingAndGlyphs" textLength="220" x="71" y="247.0669">RelatedEventForFractionalQuantity</text><text fill="#000000" font-family="sans-serif" font-size="13" lengthAdjust="spacingAndGlyphs" textLength="8" x="431.6427" y="286.7535">1</text><!--link SecuritiesQuantity to CorporateActionEvent--><path d="M459.167,198.157 C410.951,203.7 348.69,214.475 333,234 C299.599,275.5654 377.584,288.3223 442.613,291.9831 " fill="none" id="SecuritiesQuantity-CorporateActionEvent" style="stroke: #A80036; stroke-width: 1.0;"/><polygon fill="#A80036" points="447.666,292.251,438.89,287.7809,442.673,291.9867,438.4671,295.7697,447.666,292.251" style="stroke: #A80036; stroke-width: 1.0;"/><text fill="#000000" font-family="sans-serif" font-size="13" lengthAdjust="spacingAndGlyphs" textLength="140" x="334" y="247.0669">CorporateActionEvent</text><text fill="#000000" font-family="sans-serif" font-size="13" lengthAdjust="spacingAndGlyphs" textLength="8" x="431.8452" y="304.8374">1</text><!--link SecuritiesQuantity to CorporateActionEvent--><path d="M516.291,204.288 C513.767,216.146 510.589,235.35 512,252 C512.704,260.3015 514.195,269.4481 515.621,276.9918 " fill="none" id="SecuritiesQuantity-CorporateActionEvent" style="stroke: #A80036; stroke-width: 1.0;"/><polygon fill="#A80036" points="516.587,281.9282,518.7833,272.3274,515.6263,277.0214,510.9323,273.8644,516.587,281.9282" style="stroke: #A80036; stroke-width: 1.0;"/><text fill="#000000" font-family="sans-serif" font-size="13" lengthAdjust="spacingAndGlyphs" textLength="188" x="513" y="247.0669">RelatedCorporateActionEvent</text><text fill="#000000" font-family="sans-serif" font-size="13" lengthAdjust="spacingAndGlyphs" textLength="8" x="504.9528" y="270.9517">1</text><!--link Lottery to SecuritiesQuantity--><path d="M556.635,98.064 C546.94,122.006 533.348,155.569 525.429,175.124 " fill="none" id="Lottery-SecuritiesQuantity" style="stroke: #A80036; stroke-width: 1.0;"/><polygon fill="#A80036" points="523.544,179.779,530.6302,172.939,525.4211,175.1447,523.2154,169.9356,523.544,179.779" style="stroke: #A80036; stroke-width: 1.0;"/><text fill="#000000" font-family="sans-serif" font-size="13" lengthAdjust="spacingAndGlyphs" textLength="166" x="544" y="143.0669">IncrementalDenomination</text><text fill="#000000" font-family="sans-serif" font-size="13" lengthAdjust="spacingAndGlyphs" textLength="8" x="514.2273" y="169.0092">1</text><!--link Lottery to CorporateActionEvent--><path d="M668.464,91.096 C687.974,99.89 706.049,112.349 718,130 C748.399,174.9 752.255,209.968 718,252 C702.461,271.0668 644.795,281.5273 595.512,287.0999 " fill="none" id="Lottery-CorporateActionEvent" style="stroke: #A80036; stroke-width: 1.0;"/><polygon fill="#A80036" points="590.466,287.6569,599.8505,290.6453,595.4358,287.1083,598.9728,282.6936,590.466,287.6569" style="stroke: #A80036; stroke-width: 1.0;"/><text fill="#000000" font-family="sans-serif" font-size="13" lengthAdjust="spacingAndGlyphs" textLength="148" x="743" y="196.0669">RelatedCorporateEvent</text><text fill="#000000" font-family="sans-serif" font-size="13" lengthAdjust="spacingAndGlyphs" textLength="24" x="598.6576" y="282.2708">0..1</text></g></svg>