<?xml version="1.0" encoding="UTF-8" standalone="no"?><svg xmlns="http://www.w3.org/2000/svg" xmlns:xlink="http://www.w3.org/1999/xlink" contentScriptType="application/ecmascript" contentStyleType="text/css" height="868px" preserveAspectRatio="none" style="width:1304px;height:868px;" version="1.1" viewBox="0 0 1304 868" width="1304px" zoomAndPan="magnify"><defs><filter height="300%" id="f1sk3z3z2rxx1c" width="300%" x="-1" y="-1"><feGaussianBlur result="blurOut" stdDeviation="2.0"/><feColorMatrix in="blurOut" result="blurOut2" type="matrix" values="0 0 0 0 0 0 0 0 0 0 0 0 0 0 0 0 0 0 .4 0"/><feOffset dx="4.0" dy="4.0" in="blurOut2" result="blurOut3"/><feBlend in="SourceGraphic" in2="blurOut3" mode="normal"/></filter></defs><g><!--cluster ##1936--><!--cluster ##1954--><!--cluster ##1963--><!--cluster ##1966--><!--class Agreement--><a target="_top" xlink:actuate="onRequest" xlink:href="../Agreement.html" xlink:show="new" xlink:title="Contractual details related to an agreement between parties." xlink:type="simple"><rect fill="#FEFEEE" filter="url(#f1sk3z3z2rxx1c)" height="70.3828" id="Agreement" style="stroke: #A80036; stroke-width: 1.5;" width="171" x="495.75" y="40"/><rect fill="#FEFEEE" height="23.9688" style="stroke: #A80036; stroke-width: 1.5;" width="171" x="495.75" y="40"/><text fill="#000000" font-family="sans-serif" font-size="12" lengthAdjust="spacingAndGlyphs" textLength="69" x="546.75" y="56.1387">Agreement</text><line style="stroke: #A80036; stroke-width: 1.5;" x1="496.75" x2="665.75" y1="63.9688" y2="63.9688"/><ellipse cx="506.75" cy="75.8711" fill="#84BE84" rx="3" ry="3" style="stroke: #038048; stroke-width: 1.0;"/><text fill="#000000" font-family="sans-serif" font-size="11" lengthAdjust="spacingAndGlyphs" textLength="65" x="515.75" y="78.1792">DateSigned</text><text fill="#000000" font-family="sans-serif" font-size="11" font-style="italic" lengthAdjust="spacingAndGlyphs" textLength="53" x="584.75" y="78.1792">(ISODate)</text><ellipse cx="506.75" cy="88.6758" fill="#84BE84" rx="3" ry="3" style="stroke: #038048; stroke-width: 1.0;"/><text fill="#000000" font-family="sans-serif" font-size="11" lengthAdjust="spacingAndGlyphs" textLength="64" x="515.75" y="90.9839">Description</text><text fill="#000000" font-family="sans-serif" font-size="11" font-style="italic" lengthAdjust="spacingAndGlyphs" textLength="77" x="583.75" y="90.9839">(Max350Text)</text><ellipse cx="506.75" cy="101.4805" fill="#84BE84" rx="3" ry="3" style="stroke: #038048; stroke-width: 1.0;"/><text fill="#000000" font-family="sans-serif" font-size="11" lengthAdjust="spacingAndGlyphs" textLength="43" x="515.75" y="103.7886">Version</text><text fill="#000000" font-family="sans-serif" font-size="11" font-style="italic" lengthAdjust="spacingAndGlyphs" textLength="70" x="562.75" y="103.7886">(Max35Text)</text></a><!--class Contract--><a target="_top" xlink:actuate="onRequest" xlink:href="../Contract.html" xlink:show="new" xlink:title="Document that contains the information of the contract agreed between both parties." xlink:type="simple"><rect fill="#FEFEEE" filter="url(#f1sk3z3z2rxx1c)" height="23.9688" id="Contract" style="stroke: #A80036; stroke-width: 1.5;" width="60" x="382.5" y="190"/><rect fill="#FEFEEE" height="23.9688" style="stroke: #A80036; stroke-width: 1.5;" width="60" x="382.5" y="190"/><text fill="#000000" font-family="sans-serif" font-size="12" lengthAdjust="spacingAndGlyphs" textLength="54" x="385.5" y="206.1387">Contract</text></a><!--class Mandate--><a target="_top" xlink:actuate="onRequest" xlink:href="../Mandate.html" xlink:show="new" xlink:title="Authorisation given by an issuing party to a holder party to act on the issuer's behalf." xlink:type="simple"><rect fill="#FEFECE" filter="url(#f1sk3z3z2rxx1c)" height="83.1875" id="Mandate" style="stroke: #A80036; stroke-width: 1.5;" width="239" x="292.75" y="292.5"/><rect fill="#FEFECE" height="23.9688" style="stroke: #A80036; stroke-width: 1.5;" width="239" x="292.75" y="292.5"/><text fill="#000000" font-family="sans-serif" font-size="12" lengthAdjust="spacingAndGlyphs" textLength="55" x="384.75" y="308.6387">Mandate</text><line style="stroke: #A80036; stroke-width: 1.5;" x1="293.75" x2="530.75" y1="316.4688" y2="316.4688"/><ellipse cx="303.75" cy="328.3711" fill="#84BE84" rx="3" ry="3" style="stroke: #038048; stroke-width: 1.0;"/><text fill="#000000" font-family="sans-serif" font-size="11" lengthAdjust="spacingAndGlyphs" textLength="120" x="312.75" y="330.6792">MandateIdentification</text><text fill="#000000" font-family="sans-serif" font-size="11" font-style="italic" lengthAdjust="spacingAndGlyphs" textLength="70" x="436.75" y="330.6792">(Max35Text)</text><ellipse cx="303.75" cy="341.1758" fill="#84BE84" rx="3" ry="3" style="stroke: #038048; stroke-width: 1.0;"/><text fill="#000000" font-family="sans-serif" font-size="11" lengthAdjust="spacingAndGlyphs" textLength="76" x="312.75" y="343.4839">TrackingDays</text><text fill="#000000" font-family="sans-serif" font-size="11" font-style="italic" lengthAdjust="spacingAndGlyphs" textLength="117" x="392.75" y="343.4839">(Max35NumericText)</text><ellipse cx="303.75" cy="353.9805" fill="#84BE84" rx="3" ry="3" style="stroke: #038048; stroke-width: 1.0;"/><text fill="#000000" font-family="sans-serif" font-size="11" lengthAdjust="spacingAndGlyphs" textLength="97" x="312.75" y="356.2886">TrackingIndicator</text><text fill="#000000" font-family="sans-serif" font-size="11" font-style="italic" lengthAdjust="spacingAndGlyphs" textLength="112" x="413.75" y="356.2886">(TrueFalseIndicator)</text><ellipse cx="303.75" cy="366.7852" fill="#84BE84" rx="3" ry="3" style="stroke: #038048; stroke-width: 1.0;"/><text fill="#000000" font-family="sans-serif" font-size="11" lengthAdjust="spacingAndGlyphs" textLength="25" x="312.75" y="369.0933">Rate</text><text fill="#000000" font-family="sans-serif" font-size="11" font-style="italic" lengthAdjust="spacingAndGlyphs" textLength="98" x="341.75" y="369.0933">(PercentageRate)</text></a><!--class CashAccountMandate--><a target="_top" xlink:actuate="onRequest" xlink:href="../CashAccountMandate.html" xlink:show="new" xlink:title="Authorisation given to a mandate holder to perform some operation on an account." xlink:type="simple"><rect fill="#FEFEEE" filter="url(#f1sk3z3z2rxx1c)" height="23.9688" id="CashAccountMandate" style="stroke: #A80036; stroke-width: 1.5;" width="143" x="212.75" y="456"/><rect fill="#FEFEEE" height="23.9688" style="stroke: #A80036; stroke-width: 1.5;" width="143" x="212.75" y="456"/><text fill="#000000" font-family="sans-serif" font-size="12" lengthAdjust="spacingAndGlyphs" textLength="137" x="215.75" y="472.1387">CashAccountMandate</text></a><!--class DirectDebitMandate--><a target="_top" xlink:actuate="onRequest" xlink:href="../DirectDebitMandate.html" xlink:show="new" xlink:title="Authorisation in favour of the creditor given by the debtor to debit its own account." xlink:type="simple"><rect fill="#FEFEEE" filter="url(#f1sk3z3z2rxx1c)" height="23.9688" id="DirectDebitMandate" style="stroke: #A80036; stroke-width: 1.5;" width="131" x="390.75" y="456"/><rect fill="#FEFEEE" height="23.9688" style="stroke: #A80036; stroke-width: 1.5;" width="131" x="390.75" y="456"/><text fill="#000000" font-family="sans-serif" font-size="12" lengthAdjust="spacingAndGlyphs" textLength="125" x="393.75" y="472.1387">DirectDebitMandate</text></a><!--class PowerOfAttorney--><a target="_top" xlink:actuate="onRequest" xlink:href="../PowerOfAttorney.html" xlink:show="new" xlink:title="Document that transfers specific rights from a party to another party." xlink:type="simple"><rect fill="#FEFEEE" filter="url(#f1sk3z3z2rxx1c)" height="23.9688" id="PowerOfAttorney" style="stroke: #A80036; stroke-width: 1.5;" width="110" x="557" y="456"/><rect fill="#FEFEEE" height="23.9688" style="stroke: #A80036; stroke-width: 1.5;" width="110" x="557" y="456"/><text fill="#000000" font-family="sans-serif" font-size="12" lengthAdjust="spacingAndGlyphs" textLength="104" x="560" y="472.1387">PowerOfAttorney</text></a><!--class DateTimePeriod--><a target="_top" xlink:actuate="onRequest" xlink:href="../DateTimePeriod.html" xlink:show="new" xlink:title="Time span defined by a start date and time, and an end date and time." xlink:type="simple"><rect fill="#EEEEEE" filter="url(#f1sk3z3z2rxx1c)" height="23.9688" id="DateTimePeriod" style="stroke: #A80036; stroke-width: 1.5;" width="105" x="872.75" y="322"/><rect fill="#EEEEEE" height="23.9688" style="stroke: #A80036; stroke-width: 1.5;" width="105" x="872.75" y="322"/><text fill="#000000" font-family="sans-serif" font-size="12" lengthAdjust="spacingAndGlyphs" textLength="99" x="875.75" y="338.1387">DateTimePeriod</text></a><!--class Document--><a target="_top" xlink:actuate="onRequest" xlink:href="../Document.html" xlink:show="new" xlink:title="General information that unambiguously identifies a document, such as identification number and issue date time." xlink:type="simple"><rect fill="#EEEEEE" filter="url(#f1sk3z3z2rxx1c)" height="23.9688" id="Document" style="stroke: #A80036; stroke-width: 1.5;" width="70" x="832" y="190"/><rect fill="#EEEEEE" height="23.9688" style="stroke: #A80036; stroke-width: 1.5;" width="70" x="832" y="190"/><text fill="#000000" font-family="sans-serif" font-size="12" lengthAdjust="spacingAndGlyphs" textLength="64" x="835" y="206.1387">Document</text></a><!--class CommercialTrade--><a target="_top" xlink:actuate="onRequest" xlink:href="../CommercialTrade.html" xlink:show="new" xlink:title="Commercial details of a trade transaction between a buyer and a seller." xlink:type="simple"><rect fill="#EEEEEE" filter="url(#f1sk3z3z2rxx1c)" height="23.9688" id="CommercialTrade" style="stroke: #A80036; stroke-width: 1.5;" width="114" x="723" y="322"/><rect fill="#EEEEEE" height="23.9688" style="stroke: #A80036; stroke-width: 1.5;" width="114" x="723" y="322"/><text fill="#000000" font-family="sans-serif" font-size="12" lengthAdjust="spacingAndGlyphs" textLength="108" x="726" y="338.1387">CommercialTrade</text></a><!--class Jurisdiction--><a target="_top" xlink:actuate="onRequest" xlink:href="../Jurisdiction.html" xlink:show="new" xlink:title="Specifies the jurisdiction (country, county, state, province, city)." xlink:type="simple"><rect fill="#EEEEEE" filter="url(#f1sk3z3z2rxx1c)" height="23.9688" id="Jurisdiction" style="stroke: #A80036; stroke-width: 1.5;" width="74" x="723" y="190"/><rect fill="#EEEEEE" height="23.9688" style="stroke: #A80036; stroke-width: 1.5;" width="74" x="723" y="190"/><text fill="#000000" font-family="sans-serif" font-size="12" lengthAdjust="spacingAndGlyphs" textLength="68" x="726" y="206.1387">Jurisdiction</text></a><!--class MasterAgreement--><a target="_top" xlink:actuate="onRequest" xlink:href="../MasterAgreement.html" xlink:show="new" xlink:title="Agreement which defines the framework of a contract between two trading parties in different domains such as collateral, derivatives, trade.." xlink:type="simple"><rect fill="#EEEEEE" filter="url(#f1sk3z3z2rxx1c)" height="23.9688" id="MasterAgreement" style="stroke: #A80036; stroke-width: 1.5;" width="118" x="38" y="322"/><rect fill="#EEEEEE" height="23.9688" style="stroke: #A80036; stroke-width: 1.5;" width="118" x="38" y="322"/><text fill="#000000" font-family="sans-serif" font-size="12" lengthAdjust="spacingAndGlyphs" textLength="112" x="41" y="338.1387">MasterAgreement</text></a><!--class SignatureCondition--><a target="_top" xlink:actuate="onRequest" xlink:href="../SignatureCondition.html" xlink:show="new" xlink:title="Specifies the signature requirements for managing an account." xlink:type="simple"><rect fill="#EEEEEE" filter="url(#f1sk3z3z2rxx1c)" height="23.9688" id="SignatureCondition" style="stroke: #A80036; stroke-width: 1.5;" width="126" x="831" y="834"/><rect fill="#EEEEEE" height="23.9688" style="stroke: #A80036; stroke-width: 1.5;" width="126" x="831" y="834"/><text fill="#000000" font-family="sans-serif" font-size="12" lengthAdjust="spacingAndGlyphs" textLength="120" x="834" y="850.1387">SignatureCondition</text></a><!--class MandatePartyRole--><a target="_top" xlink:actuate="onRequest" xlink:href="../MandatePartyRole.html" xlink:show="new" xlink:title="Role played by a party in the context of a mandate." xlink:type="simple"><rect fill="#EEEEEE" filter="url(#f1sk3z3z2rxx1c)" height="23.9688" id="MandatePartyRole" style="stroke: #A80036; stroke-width: 1.5;" width="120" x="836.5" y="748"/><rect fill="#EEEEEE" height="23.9688" style="stroke: #A80036; stroke-width: 1.5;" width="120" x="836.5" y="748"/><text fill="#000000" font-family="sans-serif" font-size="12" lengthAdjust="spacingAndGlyphs" textLength="114" x="839.5" y="764.1387">MandatePartyRole</text></a><!--class MandateStatus--><a target="_top" xlink:actuate="onRequest" xlink:href="../MandateStatus.html" xlink:show="new" xlink:title="Specifies whether a mandate is accepted or rejected." xlink:type="simple"><rect fill="#EEEEEE" filter="url(#f1sk3z3z2rxx1c)" height="23.9688" id="MandateStatus" style="stroke: #A80036; stroke-width: 1.5;" width="102" x="845.5" y="662"/><rect fill="#EEEEEE" height="23.9688" style="stroke: #A80036; stroke-width: 1.5;" width="102" x="845.5" y="662"/><text fill="#000000" font-family="sans-serif" font-size="12" lengthAdjust="spacingAndGlyphs" textLength="96" x="848.5" y="678.1387">MandateStatus</text></a><!--class AccountContract--><a target="_top" xlink:actuate="onRequest" xlink:href="../AccountContract.html" xlink:show="new" xlink:title="Agreement between an account servicer and an account owner about the services linked to an account." xlink:type="simple"><rect fill="#EEEEEE" filter="url(#f1sk3z3z2rxx1c)" height="23.9688" id="AccountContract" style="stroke: #A80036; stroke-width: 1.5;" width="111" x="844.75" y="560"/><rect fill="#EEEEEE" height="23.9688" style="stroke: #A80036; stroke-width: 1.5;" width="111" x="844.75" y="560"/><text fill="#000000" font-family="sans-serif" font-size="12" lengthAdjust="spacingAndGlyphs" textLength="105" x="847.75" y="576.1387">AccountContract</text></a><!--class Authentication--><a target="_top" xlink:actuate="onRequest" xlink:href="../Authentication.html" xlink:show="new" xlink:title="Data related to the authentication of the cardholder." xlink:type="simple"><rect fill="#EEEEEE" filter="url(#f1sk3z3z2rxx1c)" height="23.9688" id="Authentication" style="stroke: #A80036; stroke-width: 1.5;" width="98" x="844.5" y="456"/><rect fill="#EEEEEE" height="23.9688" style="stroke: #A80036; stroke-width: 1.5;" width="98" x="844.5" y="456"/><text fill="#000000" font-family="sans-serif" font-size="12" lengthAdjust="spacingAndGlyphs" textLength="92" x="847.5" y="472.1387">Authentication</text></a><!--link Agreement to Contract--><path d="M518.597,122.156 C485.558,146.593 447.673,174.615 427.146,189.797 " fill="none" id="Agreement-Contract" style="stroke: #A80036; stroke-width: 1.0;"/><polygon fill="none" points="514.578,116.422,534.82,110.157,522.903,127.678,514.578,116.422" style="stroke: #A80036; stroke-width: 1.0;"/><!--link Contract to Mandate--><path d="M412,234.099 C412,251.592 412,273.635 412,292.469 " fill="none" id="Contract-Mandate" style="stroke: #A80036; stroke-width: 1.0;"/><polygon fill="none" points="405,234.084,412,214.084,419,234.084,405,234.084" style="stroke: #A80036; stroke-width: 1.0;"/><!--link Mandate to CashAccountMandate--><path d="M358.538,390.132 C334.816,414.596 309.108,441.108 294.937,455.722 " fill="none" id="Mandate-CashAccountMandate" style="stroke: #A80036; stroke-width: 1.0;"/><polygon fill="none" points="353.603,385.166,372.551,375.681,363.654,394.912,353.603,385.166" style="stroke: #A80036; stroke-width: 1.0;"/><!--link Mandate to DirectDebitMandate--><path d="M431.993,394.979 C439.676,418.029 447.689,442.068 452.241,455.722 " fill="none" id="Mandate-DirectDebitMandate" style="stroke: #A80036; stroke-width: 1.0;"/><polygon fill="none" points="425.244,396.869,425.56,375.681,438.526,392.441,425.244,396.869" style="stroke: #A80036; stroke-width: 1.0;"/><!--link Mandate to PowerOfAttorney--><path d="M490.169,386.591 C528.878,412.139 572.175,440.716 595.297,455.976 " fill="none" id="Mandate-PowerOfAttorney" style="stroke: #A80036; stroke-width: 1.0;"/><polygon fill="none" points="486.202,392.361,473.366,375.501,493.914,380.676,486.202,392.361" style="stroke: #A80036; stroke-width: 1.0;"/><!--link Document to DateTimePeriod--><!--link CommercialTrade to Document--><!--link Document to CommercialTrade--><path d="M831.831,209.377 C812.096,214.949 789.076,225.228 777,244 C762.856,265.987 768.706,297.76 774.308,316.797 " fill="none" id="Document-CommercialTrade" style="stroke: #A80036; stroke-width: 1.0;"/><polygon fill="#A80036" points="775.865,321.81,777.0155,312.0286,774.3819,317.035,769.3755,314.4015,775.865,321.81" style="stroke: #A80036; stroke-width: 1.0;"/><text fill="#000000" font-family="sans-serif" font-size="13" lengthAdjust="spacingAndGlyphs" textLength="113" x="778" y="257.0669">CommercialTrade</text><text fill="#000000" font-family="sans-serif" font-size="13" lengthAdjust="spacingAndGlyphs" textLength="7" x="765.0047" y="311.0505">*</text><!--link Jurisdiction to CommercialTrade--><!--link MandatePartyRole to SignatureCondition--><!--link MandateStatus to MandatePartyRole--><!--link AccountContract to MandateStatus--><!--link Authentication to AccountContract--><!--link Agreement to DateTimePeriod--><path d="M666.535,85.21 C758.297,97.258 894.369,122.176 920,166 C948.378,214.521 936.658,285.279 929.285,316.803 " fill="none" id="Agreement-DateTimePeriod" style="stroke: #A80036; stroke-width: 1.0;"/><polygon fill="#A80036" points="928.058,321.868,934.0647,314.0629,929.2353,317.0086,926.2897,312.1792,928.058,321.868" style="stroke: #A80036; stroke-width: 1.0;"/><text fill="#000000" font-family="sans-serif" font-size="13" lengthAdjust="spacingAndGlyphs" textLength="86" x="936" y="206.0669">ValidityPeriod</text><text fill="#000000" font-family="sans-serif" font-size="13" lengthAdjust="spacingAndGlyphs" textLength="7" x="919.4764" y="310.8708">*</text><!--link Agreement to Document--><path d="M666.66,100.854 C699.561,111.469 737.096,124.905 770,140 C790.646,149.471 794.739,153.96 814,166 C824.703,172.69 836.431,180.396 846.128,186.87 " fill="none" id="Agreement-Document" style="stroke: #A80036; stroke-width: 1.0;"/><polygon fill="#A80036" points="850.429,189.75,845.1758,181.4191,846.2743,186.9683,840.7251,188.0667,850.429,189.75" style="stroke: #A80036; stroke-width: 1.0;"/><text fill="#000000" font-family="sans-serif" font-size="13" lengthAdjust="spacingAndGlyphs" textLength="67" x="803" y="153.0669">Document</text><text fill="#000000" font-family="sans-serif" font-size="13" lengthAdjust="spacingAndGlyphs" textLength="8" x="834.2836" y="178.9706">1</text><!--link Agreement to CommercialTrade--><path d="M599.375,110.209 C615.442,138.966 640.189,180.605 666,214 C697.425,254.658 740.87,296.841 764,318.396 " fill="none" id="Agreement-CommercialTrade" style="stroke: #A80036; stroke-width: 1.0;"/><polygon fill="#A80036" points="767.804,321.926,763.9274,312.8722,764.1388,318.5251,758.4859,318.7365,767.804,321.926" style="stroke: #A80036; stroke-width: 1.0;"/><text fill="#000000" font-family="sans-serif" font-size="13" lengthAdjust="spacingAndGlyphs" textLength="36" x="667" y="206.0669">Trade</text><text fill="#000000" font-family="sans-serif" font-size="13" lengthAdjust="spacingAndGlyphs" textLength="8" x="752.8929" y="310.9488">1</text><!--link Agreement to Jurisdiction--><path d="M627.575,110.127 C648.116,125.016 672.626,142.561 695,158 C709.283,167.855 725.568,178.628 738.265,186.926 " fill="none" id="Agreement-Jurisdiction" style="stroke: #A80036; stroke-width: 1.0;"/><polygon fill="#A80036" points="742.771,189.864,737.4185,181.5965,738.5833,187.1322,733.0476,188.2969,742.771,189.864" style="stroke: #A80036; stroke-width: 1.0;"/><text fill="#000000" font-family="sans-serif" font-size="13" lengthAdjust="spacingAndGlyphs" textLength="68" x="696" y="153.0669">Jurisdiction</text><text fill="#000000" font-family="sans-serif" font-size="13" lengthAdjust="spacingAndGlyphs" textLength="24" x="707.3798" y="178.8655">0..1</text><!--link Contract to MasterAgreement--><path d="M382.361,211.38 C356.375,219.007 317.741,231.029 285,244 C225.559,267.549 158.414,301.095 122.653,319.546 " fill="none" id="Contract-MasterAgreement" style="stroke: #A80036; stroke-width: 1.0;"/><polygon fill="#A80036" points="118.029,321.938,127.8607,321.3563,122.4701,319.641,124.1855,314.2505,118.029,321.938" style="stroke: #A80036; stroke-width: 1.0;"/><text fill="#000000" font-family="sans-serif" font-size="13" lengthAdjust="spacingAndGlyphs" textLength="116" x="286" y="257.0669">MasterAgreement</text><text fill="#000000" font-family="sans-serif" font-size="13" lengthAdjust="spacingAndGlyphs" textLength="7" x="115.7108" y="310.9649">*</text><!--link Mandate to SignatureCondition--><path d="M531.522,339.847 C618.098,350.547 720,381.336 720,467 C720,467 720,467 720,761 C720,810.1322 776.959,830.5403 825.7,839.0096 " fill="none" id="Mandate-SignatureCondition" style="stroke: #A80036; stroke-width: 1.0;"/><polygon fill="#A80036" points="830.69,839.8406,822.4694,834.4164,825.7579,839.0192,821.1551,842.3077,830.69,839.8406" style="stroke: #A80036; stroke-width: 1.0;"/><text fill="#000000" font-family="sans-serif" font-size="13" lengthAdjust="spacingAndGlyphs" textLength="129" x="721" y="627.0669">SignatureConditions</text><text fill="#000000" font-family="sans-serif" font-size="13" lengthAdjust="spacingAndGlyphs" textLength="7" x="816.015" y="834.4725">*</text><!--link Mandate to Mandate--><path d="M531.455,319.997 C551.862,321.91 566,326.578 566,334 C566,340.784 554.187,345.267 536.572,347.449 " fill="none" id="Mandate-Mandate" style="stroke: #A80036; stroke-width: 1.0;"/><polygon fill="#A80036" points="531.455,348.003,540.8336,351.0101,536.4259,347.4643,539.9717,343.0567,531.455,348.003" style="stroke: #A80036; stroke-width: 1.0;"/><text fill="#000000" font-family="sans-serif" font-size="13" lengthAdjust="spacingAndGlyphs" textLength="104" x="572" y="338.0669">OriginalMandate</text><text fill="#000000" font-family="sans-serif" font-size="13" lengthAdjust="spacingAndGlyphs" textLength="8" x="539.7328" y="344.4378">1</text><!--link Mandate to MandatePartyRole--><path d="M531.387,352.407 C585.026,360.017 649.143,368.825 707,376 C829.013,391.131 861.046,383.952 982,406 C1070.5,422.133 1175,377.04 1175,467 C1175,467 1175,467 1175,675 C1175,719.487 1043.3,742.496 960.867,752.54 " fill="none" id="Mandate-MandatePartyRole" style="stroke: #A80036; stroke-width: 1.0;"/><polygon fill="#A80036" points="955.51,753.183,964.9225,756.0822,960.4744,752.5873,963.9693,748.1392,955.51,753.183" style="stroke: #A80036; stroke-width: 1.0;"/><text fill="#000000" font-family="sans-serif" font-size="13" lengthAdjust="spacingAndGlyphs" textLength="116" x="1176" y="576.0669">MandatePartyRole</text><text fill="#000000" font-family="sans-serif" font-size="13" lengthAdjust="spacingAndGlyphs" textLength="7" x="964.6912" y="747.0123">*</text><!--link Mandate to MandateStatus--><path d="M531.265,347.825 C613.82,358.981 714.325,377.834 746,406 C789.482,444.665 761.336,478.283 788,530 C809.632,571.957 823.614,577.057 853,614 C864.525,628.489 876.896,645.651 885.397,657.719 " fill="none" id="Mandate-MandateStatus" style="stroke: #A80036; stroke-width: 1.0;"/><polygon fill="#A80036" points="888.345,661.92,886.4506,652.2551,885.4734,657.8269,879.9016,656.8497,888.345,661.92" style="stroke: #A80036; stroke-width: 1.0;"/><text fill="#000000" font-family="sans-serif" font-size="13" lengthAdjust="spacingAndGlyphs" textLength="98" x="789" y="525.0669">MandateStatus</text><text fill="#000000" font-family="sans-serif" font-size="13" lengthAdjust="spacingAndGlyphs" textLength="7" x="875.9948" y="650.9407">*</text><!--link Mandate to AccountContract--><path d="M531.434,352.035 C585.083,359.575 649.193,368.43 707,376 C761.168,383.094 909.122,370.918 951,406 C973.256,424.644 964.765,488.73 959,504 C950.944,525.339 932.653,544.285 918.556,556.538 " fill="none" id="Mandate-AccountContract" style="stroke: #A80036; stroke-width: 1.0;"/><polygon fill="#A80036" points="914.703,559.813,924.1516,557.0339,918.5134,556.5755,918.9717,550.9373,914.703,559.813" style="stroke: #A80036; stroke-width: 1.0;"/><text fill="#000000" font-family="sans-serif" font-size="13" lengthAdjust="spacingAndGlyphs" textLength="107" x="966" y="472.0669">AccountContract</text><text fill="#000000" font-family="sans-serif" font-size="13" lengthAdjust="spacingAndGlyphs" textLength="24" x="890.1843" y="549.0545">0..1</text><!--link Mandate to Authentication--><path d="M531.274,349.233 C631.86,362.454 767.166,383.449 817,406 C841.516,417.094 864.904,437.948 879.103,452.153 " fill="none" id="Mandate-Authentication" style="stroke: #A80036; stroke-width: 1.0;"/><polygon fill="#A80036" points="882.858,455.969,879.3987,446.7476,879.3519,452.4043,873.6952,452.3574,882.858,455.969" style="stroke: #A80036; stroke-width: 1.0;"/><text fill="#000000" font-family="sans-serif" font-size="13" lengthAdjust="spacingAndGlyphs" textLength="93" x="848" y="419.0669">Authentication</text><text fill="#000000" font-family="sans-serif" font-size="13" lengthAdjust="spacingAndGlyphs" textLength="8" x="868.4811" y="445.0066">1</text></g></svg>