<?xml version="1.0" encoding="UTF-8" standalone="no"?><svg xmlns="http://www.w3.org/2000/svg" xmlns:xlink="http://www.w3.org/1999/xlink" contentScriptType="application/ecmascript" contentStyleType="text/css" height="482px" preserveAspectRatio="none" style="width:870px;height:482px;" version="1.1" viewBox="0 0 870 482" width="870px" zoomAndPan="magnify"><defs><filter height="300%" id="fer8tl4ce6tib" width="300%" x="-1" y="-1"><feGaussianBlur result="blurOut" stdDeviation="2.0"/><feColorMatrix in="blurOut" result="blurOut2" type="matrix" values="0 0 0 0 0 0 0 0 0 0 0 0 0 0 0 0 0 0 .4 0"/><feOffset dx="4.0" dy="4.0" in="blurOut2" result="blurOut3"/><feBlend in="SourceGraphic" in2="blurOut3" mode="normal"/></filter></defs><g><!--cluster ##3236--><!--cluster ##3245--><!--cluster ##3254--><!--class Role--><a target="_top" xlink:actuate="onRequest" xlink:href="../Role.html" xlink:show="new" xlink:title="Role of a party in an activity." xlink:type="simple"><rect fill="#FEFEEE" filter="url(#fer8tl4ce6tib)" height="44.7734" id="Role" style="stroke: #A80036; stroke-width: 1.5;" width="175" x="38.75" y="40.5"/><rect fill="#FEFEEE" height="23.9688" style="stroke: #A80036; stroke-width: 1.5;" width="175" x="38.75" y="40.5"/><text fill="#000000" font-family="sans-serif" font-size="12" lengthAdjust="spacingAndGlyphs" textLength="27" x="112.75" y="56.6387">Role</text><line style="stroke: #A80036; stroke-width: 1.5;" x1="39.75" x2="212.75" y1="64.4688" y2="64.4688"/><ellipse cx="49.75" cy="76.3711" fill="#84BE84" rx="3" ry="3" style="stroke: #038048; stroke-width: 1.0;"/><text fill="#000000" font-family="sans-serif" font-size="11" lengthAdjust="spacingAndGlyphs" textLength="53" x="58.75" y="78.6792">PartyRole</text><text fill="#000000" font-family="sans-serif" font-size="11" font-style="italic" lengthAdjust="spacingAndGlyphs" textLength="92" x="115.75" y="78.6792">(PartyRoleCode)</text></a><!--class MandatePartyRole--><a target="_top" xlink:actuate="onRequest" xlink:href="../MandatePartyRole.html" xlink:show="new" xlink:title="Role played by a party in the context of a mandate." xlink:type="simple"><rect fill="#FEFECE" filter="url(#fer8tl4ce6tib)" height="23.9688" id="MandatePartyRole" style="stroke: #A80036; stroke-width: 1.5;" width="120" x="80.5" y="166"/><rect fill="#FEFECE" height="23.9688" style="stroke: #A80036; stroke-width: 1.5;" width="120" x="80.5" y="166"/><text fill="#000000" font-family="sans-serif" font-size="12" lengthAdjust="spacingAndGlyphs" textLength="114" x="83.5" y="182.1387">MandatePartyRole</text></a><!--class MandateHolder--><a target="_top" xlink:actuate="onRequest" xlink:href="../MandateHolder.html" xlink:show="new" xlink:title="Entity that was given by another entity the authority to act on its behalf." xlink:type="simple"><rect fill="#FEFEEE" filter="url(#fer8tl4ce6tib)" height="23.9688" id="MandateHolder" style="stroke: #A80036; stroke-width: 1.5;" width="102" x="89.5" y="272"/><rect fill="#FEFEEE" height="23.9688" style="stroke: #A80036; stroke-width: 1.5;" width="102" x="89.5" y="272"/><text fill="#000000" font-family="sans-serif" font-size="12" lengthAdjust="spacingAndGlyphs" textLength="96" x="92.5" y="288.1387">MandateHolder</text></a><!--class RolePlayer--><a target="_top" xlink:actuate="onRequest" xlink:href="../RolePlayer.html" xlink:show="new" xlink:title="Type of entity that plays a specific role in a specific context." xlink:type="simple"><rect fill="#EEEEEE" filter="url(#fer8tl4ce6tib)" height="23.9688" id="RolePlayer" style="stroke: #A80036; stroke-width: 1.5;" width="71" x="680.75" y="448"/><rect fill="#EEEEEE" height="23.9688" style="stroke: #A80036; stroke-width: 1.5;" width="71" x="680.75" y="448"/><text fill="#000000" font-family="sans-serif" font-size="12" lengthAdjust="spacingAndGlyphs" textLength="65" x="683.75" y="464.1387">RolePlayer</text></a><!--class ContactPersonRole--><a target="_top" xlink:actuate="onRequest" xlink:href="../ContactPersonRole.html" xlink:show="new" xlink:title="Person to be contacted in a given organisation. In the corporate action domain (including meeting notifications) , it is the contact person at the party organising the meeting, at the issuer or at an intermediary." xlink:type="simple"><rect fill="#EEEEEE" filter="url(#fer8tl4ce6tib)" height="23.9688" id="ContactPersonRole" style="stroke: #A80036; stroke-width: 1.5;" width="126" x="673" y="362"/><rect fill="#EEEEEE" height="23.9688" style="stroke: #A80036; stroke-width: 1.5;" width="126" x="673" y="362"/><text fill="#000000" font-family="sans-serif" font-size="12" lengthAdjust="spacingAndGlyphs" textLength="120" x="676" y="378.1387">ContactPersonRole</text></a><!--class CounterpartyRisk--><a target="_top" xlink:actuate="onRequest" xlink:href="../CounterpartyRisk.html" xlink:show="new" xlink:title="Calculation of the exposure amount that one party has vis-a-vis one counterparty or a central system, based on its credit risk." xlink:type="simple"><rect fill="#EEEEEE" filter="url(#fer8tl4ce6tib)" height="23.9688" id="CounterpartyRisk" style="stroke: #A80036; stroke-width: 1.5;" width="113" x="685.75" y="272"/><rect fill="#EEEEEE" height="23.9688" style="stroke: #A80036; stroke-width: 1.5;" width="113" x="685.75" y="272"/><text fill="#000000" font-family="sans-serif" font-size="12" lengthAdjust="spacingAndGlyphs" textLength="107" x="688.75" y="288.1387">CounterpartyRisk</text></a><!--class Entry--><a target="_top" xlink:actuate="onRequest" xlink:href="../Entry.html" xlink:show="new" xlink:title="Posting to an account that results in an increase or decrease to a balance." xlink:type="simple"><rect fill="#EEEEEE" filter="url(#fer8tl4ce6tib)" height="23.9688" id="Entry" style="stroke: #A80036; stroke-width: 1.5;" width="38" x="673" y="166"/><rect fill="#EEEEEE" height="23.9688" style="stroke: #A80036; stroke-width: 1.5;" width="38" x="673" y="166"/><text fill="#000000" font-family="sans-serif" font-size="12" lengthAdjust="spacingAndGlyphs" textLength="32" x="676" y="182.1387">Entry</text></a><!--class Mandate--><a target="_top" xlink:actuate="onRequest" xlink:href="../Mandate.html" xlink:show="new" xlink:title="Authorisation given by an issuing party to a holder party to act on the issuer's behalf." xlink:type="simple"><rect fill="#EEEEEE" filter="url(#fer8tl4ce6tib)" height="23.9688" id="Mandate" style="stroke: #A80036; stroke-width: 1.5;" width="61" x="270.75" y="272"/><rect fill="#EEEEEE" height="23.9688" style="stroke: #A80036; stroke-width: 1.5;" width="61" x="270.75" y="272"/><text fill="#000000" font-family="sans-serif" font-size="12" lengthAdjust="spacingAndGlyphs" textLength="55" x="273.75" y="288.1387">Mandate</text></a><!--link Role to MandatePartyRole--><path d="M131.149,105.559 C133.825,127.159 136.89,151.898 138.62,165.865 " fill="none" id="Role-MandatePartyRole" style="stroke: #A80036; stroke-width: 1.0;"/><polygon fill="none" points="124.179,106.229,128.666,85.52,138.072,104.508,124.179,106.229" style="stroke: #A80036; stroke-width: 1.0;"/><!--link MandatePartyRole to MandateHolder--><path d="M140,210.217 C140,231.114 140,257.371 140,271.95 " fill="none" id="MandatePartyRole-MandateHolder" style="stroke: #A80036; stroke-width: 1.0;"/><polygon fill="none" points="133,210.13,140,190.13,147,210.13,133,210.13" style="stroke: #A80036; stroke-width: 1.0;"/><!--link ContactPersonRole to RolePlayer--><!--link CounterpartyRisk to ContactPersonRole--><!--link Entry to CounterpartyRisk--><!--link Role to RolePlayer--><path d="M213.414,70.378 C334.09,81.63 537,110.445 537,177 C537,177 537,177 537,375 C537,435.8572 622.842,452.7099 675.634,457.3199 " fill="none" id="Role-RolePlayer" style="stroke: #A80036; stroke-width: 1.0;"/><polygon fill="#A80036" points="680.635,457.7288,671.9919,453.0068,675.6517,457.3202,671.3382,460.98,680.635,457.7288" style="stroke: #A80036; stroke-width: 1.0;"/><text fill="#000000" font-family="sans-serif" font-size="13" lengthAdjust="spacingAndGlyphs" textLength="39" x="538" y="288.0669">Player</text><text fill="#000000" font-family="sans-serif" font-size="13" lengthAdjust="spacingAndGlyphs" textLength="7" x="665.7402" y="451.9585">*</text><!--link Role to ContactPersonRole--><path d="M213.58,64.17 C325.115,66.093 509.785,75.534 563,116 C609.645,151.47 585.715,186.141 613,238 C633.778,277.492 637.468,289.456 668,322 C681.542,336.435 699.56,349.743 713.646,359.144 " fill="none" id="Role-ContactPersonRole" style="stroke: #A80036; stroke-width: 1.0;"/><polygon fill="#A80036" points="717.883,361.932,712.5653,353.6421,713.7068,359.1826,708.1663,360.3241,717.883,361.932" style="stroke: #A80036; stroke-width: 1.0;"/><text fill="#000000" font-family="sans-serif" font-size="13" lengthAdjust="spacingAndGlyphs" textLength="121" x="614" y="233.0669">ContactPersonRole</text><text fill="#000000" font-family="sans-serif" font-size="13" lengthAdjust="spacingAndGlyphs" textLength="8" x="700.9365" y="350.9568">1</text><!--link Role to CounterpartyRisk--><path d="M213.485,63.093 C355.179,63.051 627.358,69.31 710,116 C740.947,133.484 755.59,217.563 756,220 C758.723,236.192 753.741,254.491 748.983,267.178 " fill="none" id="Role-CounterpartyRisk" style="stroke: #A80036; stroke-width: 1.0;"/><polygon fill="#A80036" points="747.118,271.916,754.1346,265.0046,748.9481,267.263,746.6897,262.0765,747.118,271.916" style="stroke: #A80036; stroke-width: 1.0;"/><text fill="#000000" font-family="sans-serif" font-size="13" lengthAdjust="spacingAndGlyphs" textLength="109" x="749" y="182.0669">CounterpartyRisk</text><text fill="#000000" font-family="sans-serif" font-size="13" lengthAdjust="spacingAndGlyphs" textLength="24" x="719.3226" y="260.9353">0..1</text><!--link Role to Entry--><path d="M213.454,64.384 C341.888,66.338 574.081,75.566 646,116 C664.075,126.162 677.228,146.66 684.73,161.081 " fill="none" id="Role-Entry" style="stroke: #A80036; stroke-width: 1.0;"/><polygon fill="#A80036" points="687.057,165.715,686.5922,155.8771,684.8129,161.2469,679.4432,159.4676,687.057,165.715" style="stroke: #A80036; stroke-width: 1.0;"/><text fill="#000000" font-family="sans-serif" font-size="13" lengthAdjust="spacingAndGlyphs" textLength="33" x="667" y="129.0669">Entry</text><text fill="#000000" font-family="sans-serif" font-size="13" lengthAdjust="spacingAndGlyphs" textLength="8" x="674.7634" y="154.924">1</text><!--link MandatePartyRole to Mandate--><path d="M157.23,190.13 C186.765,209.209 246.998,248.117 279.333,269.004 " fill="none" id="MandatePartyRole-Mandate" style="stroke: #A80036; stroke-width: 1.0;"/><polygon fill="#A80036" points="283.894,271.95,278.5042,263.7068,279.694,269.2371,274.1636,270.4268,283.894,271.95" style="stroke: #A80036; stroke-width: 1.0;"/><text fill="#000000" font-family="sans-serif" font-size="13" lengthAdjust="spacingAndGlyphs" textLength="56" x="232" y="233.0669">Mandate</text><text fill="#000000" font-family="sans-serif" font-size="13" lengthAdjust="spacingAndGlyphs" textLength="7" x="268.381" y="260.981">*</text><!--link Mandate to Mandate--><path d="M331.425,275.881 C349.284,274.151 366,276.857 366,284 C366,290.417 352.507,293.253 336.815,292.509 " fill="none" id="Mandate-Mandate" style="stroke: #A80036; stroke-width: 1.0;"/><polygon fill="#A80036" points="331.425,292.119,340.1136,296.7566,336.412,292.479,340.6896,288.7774,331.425,292.119" style="stroke: #A80036; stroke-width: 1.0;"/><text fill="#000000" font-family="sans-serif" font-size="13" lengthAdjust="spacingAndGlyphs" textLength="104" x="372" y="288.0669">OriginalMandate</text><text fill="#000000" font-family="sans-serif" font-size="13" lengthAdjust="spacingAndGlyphs" textLength="8" x="339.7552" y="288.113">1</text></g></svg>