<?xml version="1.0" encoding="UTF-8" standalone="no"?><svg xmlns="http://www.w3.org/2000/svg" xmlns:xlink="http://www.w3.org/1999/xlink" contentScriptType="application/ecmascript" contentStyleType="text/css" height="480px" preserveAspectRatio="none" style="width:582px;height:480px;" version="1.1" viewBox="0 0 582 480" width="582px" zoomAndPan="magnify"><defs><filter height="300%" id="f1jfxgzx9krvt2" width="300%" x="-1" y="-1"><feGaussianBlur result="blurOut" stdDeviation="2.0"/><feColorMatrix in="blurOut" result="blurOut2" type="matrix" values="0 0 0 0 0 0 0 0 0 0 0 0 0 0 0 0 0 0 .4 0"/><feOffset dx="4.0" dy="4.0" in="blurOut2" result="blurOut3"/><feBlend in="SourceGraphic" in2="blurOut3" mode="normal"/></filter></defs><g><!--cluster ##15498--><!--cluster ##15504--><!--cluster ##15513--><!--class Role--><a target="_top" xlink:actuate="onRequest" xlink:href="../Role.html" xlink:show="new" xlink:title="Role of a party in an activity." xlink:type="simple"><rect fill="#FEFEEE" filter="url(#f1jfxgzx9krvt2)" height="44.7734" id="Role" style="stroke: #A80036; stroke-width: 1.5;" width="175" x="38.75" y="40.5"/><rect fill="#FEFEEE" height="23.9688" style="stroke: #A80036; stroke-width: 1.5;" width="175" x="38.75" y="40.5"/><text fill="#000000" font-family="sans-serif" font-size="12" lengthAdjust="spacingAndGlyphs" textLength="27" x="112.75" y="56.6387">Role</text><line style="stroke: #A80036; stroke-width: 1.5;" x1="39.75" x2="212.75" y1="64.4688" y2="64.4688"/><ellipse cx="49.75" cy="76.3711" fill="#84BE84" rx="3" ry="3" style="stroke: #038048; stroke-width: 1.0;"/><text fill="#000000" font-family="sans-serif" font-size="11" lengthAdjust="spacingAndGlyphs" textLength="53" x="58.75" y="78.6792">PartyRole</text><text fill="#000000" font-family="sans-serif" font-size="11" font-style="italic" lengthAdjust="spacingAndGlyphs" textLength="92" x="115.75" y="78.6792">(PartyRoleCode)</text></a><!--class MarketInfrastructure--><a target="_top" xlink:actuate="onRequest" xlink:href="../MarketInfrastructure.html" xlink:show="new" xlink:title="Multilateral system among participating institutions, including the operator of the system, used for the purposes of clearing, settling, or recording payments, securities, derivatives or other financial transactions." xlink:type="simple"><rect fill="#FEFECE" filter="url(#f1jfxgzx9krvt2)" height="23.9688" id="MarketInfrastructure" style="stroke: #A80036; stroke-width: 1.5;" width="135" x="38.75" y="166"/><rect fill="#FEFECE" height="23.9688" style="stroke: #A80036; stroke-width: 1.5;" width="135" x="38.75" y="166"/><text fill="#000000" font-family="sans-serif" font-size="12" lengthAdjust="spacingAndGlyphs" textLength="129" x="41.75" y="182.1387">MarketInfrastructure</text></a><!--class RolePlayer--><a target="_top" xlink:actuate="onRequest" xlink:href="../RolePlayer.html" xlink:show="new" xlink:title="Type of entity that plays a specific role in a specific context." xlink:type="simple"><rect fill="#EEEEEE" filter="url(#f1jfxgzx9krvt2)" height="23.9688" id="RolePlayer" style="stroke: #A80036; stroke-width: 1.5;" width="71" x="452.75" y="446"/><rect fill="#EEEEEE" height="23.9688" style="stroke: #A80036; stroke-width: 1.5;" width="71" x="452.75" y="446"/><text fill="#000000" font-family="sans-serif" font-size="12" lengthAdjust="spacingAndGlyphs" textLength="65" x="455.75" y="462.1387">RolePlayer</text></a><!--class ContactPersonRole--><a target="_top" xlink:actuate="onRequest" xlink:href="../ContactPersonRole.html" xlink:show="new" xlink:title="Person to be contacted in a given organisation. In the corporate action domain (including meeting notifications) , it is the contact person at the party organising the meeting, at the issuer or at an intermediary." xlink:type="simple"><rect fill="#EEEEEE" filter="url(#f1jfxgzx9krvt2)" height="23.9688" id="ContactPersonRole" style="stroke: #A80036; stroke-width: 1.5;" width="126" x="445" y="360"/><rect fill="#EEEEEE" height="23.9688" style="stroke: #A80036; stroke-width: 1.5;" width="126" x="445" y="360"/><text fill="#000000" font-family="sans-serif" font-size="12" lengthAdjust="spacingAndGlyphs" textLength="120" x="448" y="376.1387">ContactPersonRole</text></a><!--class CounterpartyRisk--><a target="_top" xlink:actuate="onRequest" xlink:href="../CounterpartyRisk.html" xlink:show="new" xlink:title="Calculation of the exposure amount that one party has vis-a-vis one counterparty or a central system, based on its credit risk." xlink:type="simple"><rect fill="#EEEEEE" filter="url(#f1jfxgzx9krvt2)" height="23.9688" id="CounterpartyRisk" style="stroke: #A80036; stroke-width: 1.5;" width="113" x="451.75" y="272"/><rect fill="#EEEEEE" height="23.9688" style="stroke: #A80036; stroke-width: 1.5;" width="113" x="451.75" y="272"/><text fill="#000000" font-family="sans-serif" font-size="12" lengthAdjust="spacingAndGlyphs" textLength="107" x="454.75" y="288.1387">CounterpartyRisk</text></a><!--class Entry--><a target="_top" xlink:actuate="onRequest" xlink:href="../Entry.html" xlink:show="new" xlink:title="Posting to an account that results in an increase or decrease to a balance." xlink:type="simple"><rect fill="#EEEEEE" filter="url(#f1jfxgzx9krvt2)" height="23.9688" id="Entry" style="stroke: #A80036; stroke-width: 1.5;" width="38" x="533" y="166"/><rect fill="#EEEEEE" height="23.9688" style="stroke: #A80036; stroke-width: 1.5;" width="38" x="533" y="166"/><text fill="#000000" font-family="sans-serif" font-size="12" lengthAdjust="spacingAndGlyphs" textLength="32" x="536" y="182.1387">Entry</text></a><!--class AccountLink--><a target="_top" xlink:actuate="onRequest" xlink:href="../AccountLink.html" xlink:show="new" xlink:title="Defines the link between the accounts held with a market infrastructure." xlink:type="simple"><rect fill="#EEEEEE" filter="url(#f1jfxgzx9krvt2)" height="23.9688" id="AccountLink" style="stroke: #A80036; stroke-width: 1.5;" width="81" x="65.75" y="272"/><rect fill="#EEEEEE" height="23.9688" style="stroke: #A80036; stroke-width: 1.5;" width="81" x="65.75" y="272"/><text fill="#000000" font-family="sans-serif" font-size="12" lengthAdjust="spacingAndGlyphs" textLength="75" x="68.75" y="288.1387">AccountLink</text></a><!--link Role to MarketInfrastructure--><path d="M118.704,105.222 C114.867,126.901 110.456,151.825 107.971,165.865 " fill="none" id="Role-MarketInfrastructure" style="stroke: #A80036; stroke-width: 1.0;"/><polygon fill="none" points="111.812,103.994,122.191,85.52,125.598,106.434,111.812,103.994" style="stroke: #A80036; stroke-width: 1.0;"/><!--link ContactPersonRole to RolePlayer--><!--link CounterpartyRisk to ContactPersonRole--><!--link Entry to CounterpartyRisk--><!--link Role to RolePlayer--><path d="M163.322,85.58 C192.093,105.306 227,137.4 227,177 C227,177 227,177 227,373 C227,418.7304 374.025,443.1339 447.378,452.4635 " fill="none" id="Role-RolePlayer" style="stroke: #A80036; stroke-width: 1.0;"/><polygon fill="#A80036" points="452.529,453.1092,444.0959,448.0216,447.5678,452.4878,443.1016,455.9596,452.529,453.1092" style="stroke: #A80036; stroke-width: 1.0;"/><text fill="#000000" font-family="sans-serif" font-size="13" lengthAdjust="spacingAndGlyphs" textLength="39" x="228" y="288.0669">Player</text><text fill="#000000" font-family="sans-serif" font-size="13" lengthAdjust="spacingAndGlyphs" textLength="7" x="437.8674" y="446.9718">*</text><!--link Role to ContactPersonRole--><path d="M208.95,85.581 C225.278,93.006 241.035,102.89 253,116 C291.857,158.575 255.545,194.553 291,240 C338.236,300.548 421.907,339.421 470.391,358.034 " fill="none" id="Role-ContactPersonRole" style="stroke: #A80036; stroke-width: 1.0;"/><polygon fill="#A80036" points="475.259,359.88,468.2624,352.9483,470.584,358.1069,465.4254,360.4284,475.259,359.88" style="stroke: #A80036; stroke-width: 1.0;"/><text fill="#000000" font-family="sans-serif" font-size="13" lengthAdjust="spacingAndGlyphs" textLength="121" x="292" y="235.0669">ContactPersonRole</text><text fill="#000000" font-family="sans-serif" font-size="13" lengthAdjust="spacingAndGlyphs" textLength="8" x="453.2855" y="348.887">1</text><!--link Role to CounterpartyRisk--><path d="M213.66,74.814 C249.937,82.279 291.118,94.854 324,116 C371.29,146.412 358.981,180.317 404,214 C411.336,219.489 415.006,217.523 423,222 C447.691,235.827 473.81,255.417 490.475,268.634 " fill="none" id="Role-CounterpartyRisk" style="stroke: #A80036; stroke-width: 1.0;"/><polygon fill="#A80036" points="494.501,271.85,489.9642,263.1083,490.5939,268.73,484.9722,269.3597,494.501,271.85" style="stroke: #A80036; stroke-width: 1.0;"/><text fill="#000000" font-family="sans-serif" font-size="13" lengthAdjust="spacingAndGlyphs" textLength="109" x="405" y="182.0669">CounterpartyRisk</text><text fill="#000000" font-family="sans-serif" font-size="13" lengthAdjust="spacingAndGlyphs" textLength="24" x="460.306" y="260.8467">0..1</text><!--link Role to Entry--><path d="M213.485,69.234 C293.278,76.889 412.619,95.719 506,142 C516.818,147.361 527.627,155.414 536.047,162.444 " fill="none" id="Role-Entry" style="stroke: #A80036; stroke-width: 1.0;"/><polygon fill="#A80036" points="539.979,165.797,535.7265,156.9135,536.1746,162.5526,530.5355,163.0006,539.979,165.797" style="stroke: #A80036; stroke-width: 1.0;"/><text fill="#000000" font-family="sans-serif" font-size="13" lengthAdjust="spacingAndGlyphs" textLength="33" x="488" y="129.0669">Entry</text><text fill="#000000" font-family="sans-serif" font-size="13" lengthAdjust="spacingAndGlyphs" textLength="8" x="525.3408" y="155.0332">1</text><!--link MarketInfrastructure to AccountLink--><path d="M106,190.13 C106,208.583 106,245.586 106,266.892 " fill="none" id="MarketInfrastructure-AccountLink" style="stroke: #A80036; stroke-width: 1.0;"/><polygon fill="#A80036" points="106,271.95,110,262.95,106,266.95,102,262.95,106,271.95" style="stroke: #A80036; stroke-width: 1.0;"/><text fill="#000000" font-family="sans-serif" font-size="13" lengthAdjust="spacingAndGlyphs" textLength="77" x="107" y="235.0669">AccountLink</text><text fill="#000000" font-family="sans-serif" font-size="13" lengthAdjust="spacingAndGlyphs" textLength="7" x="96.3672" y="260.981">*</text></g></svg>