<?xml version="1.0" encoding="UTF-8" standalone="no"?><svg xmlns="http://www.w3.org/2000/svg" xmlns:xlink="http://www.w3.org/1999/xlink" contentScriptType="application/ecmascript" contentStyleType="text/css" height="476px" preserveAspectRatio="none" style="width:738px;height:476px;" version="1.1" viewBox="0 0 738 476" width="738px" zoomAndPan="magnify"><defs><filter height="300%" id="f1cjyydt8wyo3h" width="300%" x="-1" y="-1"><feGaussianBlur result="blurOut" stdDeviation="2.0"/><feColorMatrix in="blurOut" result="blurOut2" type="matrix" values="0 0 0 0 0 0 0 0 0 0 0 0 0 0 0 0 0 0 .4 0"/><feOffset dx="4.0" dy="4.0" in="blurOut2" result="blurOut3"/><feBlend in="SourceGraphic" in2="blurOut3" mode="normal"/></filter></defs><g><!--cluster ##15570--><!--cluster ##15576--><!--class Market--><a target="_top" xlink:actuate="onRequest" xlink:href="../Market.html" xlink:show="new" xlink:title="Context or geographic environment in which trading parties execute trades." xlink:type="simple"><rect fill="#FEFECE" filter="url(#f1cjyydt8wyo3h)" height="44.7734" id="Market" style="stroke: #A80036; stroke-width: 1.5;" width="360" x="38" y="40.5"/><rect fill="#FEFECE" height="23.9688" style="stroke: #A80036; stroke-width: 1.5;" width="360" x="38" y="40.5"/><text fill="#000000" font-family="sans-serif" font-size="12" lengthAdjust="spacingAndGlyphs" textLength="43" x="196.5" y="56.6387">Market</text><line style="stroke: #A80036; stroke-width: 1.5;" x1="39" x2="397" y1="64.4688" y2="64.4688"/><ellipse cx="49" cy="76.3711" fill="#84BE84" rx="3" ry="3" style="stroke: #038048; stroke-width: 1.0;"/><text fill="#000000" font-family="sans-serif" font-size="11" lengthAdjust="spacingAndGlyphs" textLength="146" x="58" y="78.6792">GeographicalEnvironment</text><text fill="#000000" font-family="sans-serif" font-size="11" font-style="italic" lengthAdjust="spacingAndGlyphs" textLength="184" x="208" y="78.6792">(GeographicalEnvironmentCode)</text></a><!--class TradingMarket--><a target="_top" xlink:actuate="onRequest" xlink:href="../TradingMarket.html" xlink:show="new" xlink:title="Context or geographic environment in which trading parties may meet in order to negotiate and execute trades among themselves. It also identifies the primary market where an asset is issued." xlink:type="simple"><rect fill="#FEFEEE" filter="url(#f1cjyydt8wyo3h)" height="23.9688" id="TradingMarket" style="stroke: #A80036; stroke-width: 1.5;" width="96" x="160" y="166"/><rect fill="#FEFEEE" height="23.9688" style="stroke: #A80036; stroke-width: 1.5;" width="96" x="160" y="166"/><text fill="#000000" font-family="sans-serif" font-size="12" lengthAdjust="spacingAndGlyphs" textLength="90" x="163" y="182.1387">TradingMarket</text></a><!--class Trade--><a target="_top" xlink:actuate="onRequest" xlink:href="../Trade.html" xlink:show="new" xlink:title="Result of an order between at least two parties. A trade relates to the delivery of goods and services, cash or securities." xlink:type="simple"><rect fill="#EEEEEE" filter="url(#f1cjyydt8wyo3h)" height="23.9688" id="Trade" style="stroke: #A80036; stroke-width: 1.5;" width="42" x="458.5" y="442"/><rect fill="#EEEEEE" height="23.9688" style="stroke: #A80036; stroke-width: 1.5;" width="42" x="458.5" y="442"/><text fill="#000000" font-family="sans-serif" font-size="12" lengthAdjust="spacingAndGlyphs" textLength="36" x="461.5" y="458.1387">Trade</text></a><!--class Jurisdiction--><a target="_top" xlink:actuate="onRequest" xlink:href="../Jurisdiction.html" xlink:show="new" xlink:title="Specifies the jurisdiction (country, county, state, province, city)." xlink:type="simple"><rect fill="#EEEEEE" filter="url(#f1cjyydt8wyo3h)" height="23.9688" id="Jurisdiction" style="stroke: #A80036; stroke-width: 1.5;" width="74" x="454" y="356"/><rect fill="#EEEEEE" height="23.9688" style="stroke: #A80036; stroke-width: 1.5;" width="74" x="454" y="356"/><text fill="#000000" font-family="sans-serif" font-size="12" lengthAdjust="spacingAndGlyphs" textLength="68" x="457" y="372.1387">Jurisdiction</text></a><!--class Country--><a target="_top" xlink:actuate="onRequest" xlink:href="../Country.html" xlink:show="new" xlink:title="Nation with its own government." xlink:type="simple"><rect fill="#EEEEEE" filter="url(#f1cjyydt8wyo3h)" height="23.9688" id="Country" style="stroke: #A80036; stroke-width: 1.5;" width="54" x="522" y="270"/><rect fill="#EEEEEE" height="23.9688" style="stroke: #A80036; stroke-width: 1.5;" width="54" x="522" y="270"/><text fill="#000000" font-family="sans-serif" font-size="12" lengthAdjust="spacingAndGlyphs" textLength="48" x="525" y="286.1387">Country</text></a><!--class PartyIdentificationInformation--><a target="_top" xlink:actuate="onRequest" xlink:href="../PartyIdentificationInformation.html" xlink:show="new" xlink:title="Unique and unambiguous way to identify a party" xlink:type="simple"><rect fill="#EEEEEE" filter="url(#f1cjyydt8wyo3h)" height="23.9688" id="PartyIdentificationInformation" style="stroke: #A80036; stroke-width: 1.5;" width="190" x="454" y="166"/><rect fill="#EEEEEE" height="23.9688" style="stroke: #A80036; stroke-width: 1.5;" width="190" x="454" y="166"/><text fill="#000000" font-family="sans-serif" font-size="12" lengthAdjust="spacingAndGlyphs" textLength="184" x="457" y="182.1387">PartyIdentificationInformation</text></a><!--link Market to TradingMarket--><path d="M214.322,105.559 C212.411,127.159 210.221,151.898 208.985,165.865 " fill="none" id="Market-TradingMarket" style="stroke: #A80036; stroke-width: 1.0;"/><polygon fill="none" points="207.36,104.825,216.096,85.52,221.305,106.06,207.36,104.825" style="stroke: #A80036; stroke-width: 1.0;"/><!--link Jurisdiction to Trade--><!--link Country to Jurisdiction--><!--link PartyIdentificationInformation to Country--><!--link Market to Trade--><path d="M250.596,85.64 C276.708,105.84 309,138.587 309,177 C309,177 309,177 309,369 C309,432.5557 405.683,448.0247 453.225,451.7893 " fill="none" id="Market-Trade" style="stroke: #A80036; stroke-width: 1.0;"/><polygon fill="#A80036" points="458.494,452.1745,449.8093,447.5294,453.5073,451.8102,449.2265,455.5082,458.494,452.1745" style="stroke: #A80036; stroke-width: 1.0;"/><text fill="#000000" font-family="sans-serif" font-size="13" lengthAdjust="spacingAndGlyphs" textLength="36" x="310" y="286.0669">Trade</text><text fill="#000000" font-family="sans-serif" font-size="13" lengthAdjust="spacingAndGlyphs" textLength="8" x="442.5049" y="445.4885">1</text><!--link Market to Jurisdiction--><path d="M284.883,85.595 C302.441,93.342 320.5,103.373 335,116 C415.311,185.937 467.943,307.468 484.984,350.954 " fill="none" id="Market-Jurisdiction" style="stroke: #A80036; stroke-width: 1.0;"/><polygon fill="#A80036" points="486.886,355.862,487.3634,346.0247,485.0791,351.1999,479.904,348.9157,486.886,355.862" style="stroke: #A80036; stroke-width: 1.0;"/><text fill="#000000" font-family="sans-serif" font-size="13" lengthAdjust="spacingAndGlyphs" textLength="68" x="433" y="235.0669">Jurisdiction</text><text fill="#000000" font-family="sans-serif" font-size="13" lengthAdjust="spacingAndGlyphs" textLength="8" x="474.7531" y="344.8628">1</text><!--link Market to Country--><path d="M398.021,71.647 C506.35,80.589 629.425,99.977 662,142 C681.605,167.291 677.839,186.195 662,214 C644.784,244.223 607.976,262.215 581.03,271.822 " fill="none" id="Market-Country" style="stroke: #A80036; stroke-width: 1.0;"/><polygon fill="#A80036" points="576.121,273.519,585.9342,274.3569,580.8463,271.8844,583.3188,266.7965,576.121,273.519" style="stroke: #A80036; stroke-width: 1.0;"/><text fill="#000000" font-family="sans-serif" font-size="13" lengthAdjust="spacingAndGlyphs" textLength="50" x="676" y="182.0669">Country</text><text fill="#000000" font-family="sans-serif" font-size="13" lengthAdjust="spacingAndGlyphs" textLength="8" x="584.0958" y="265.2555">1</text><!--link Market to PartyIdentificationInformation--><path d="M323.815,85.553 C357.289,93.634 394.117,103.857 427,116 C462.612,129.151 501.465,149.752 525.534,163.316 " fill="none" id="Market-PartyIdentificationInformation" style="stroke: #A80036; stroke-width: 1.0;"/><polygon fill="#A80036" points="530.145,165.93,524.2878,158.0121,525.7952,163.4644,520.3429,164.9718,530.145,165.93" style="stroke: #A80036; stroke-width: 1.0;"/><text fill="#000000" font-family="sans-serif" font-size="13" lengthAdjust="spacingAndGlyphs" textLength="81" x="470" y="129.0669">Identification</text><text fill="#000000" font-family="sans-serif" font-size="13" lengthAdjust="spacingAndGlyphs" textLength="8" x="512.9448" y="154.9542">1</text></g></svg>