<?xml version="1.0" encoding="UTF-8" standalone="no"?><svg xmlns="http://www.w3.org/2000/svg" xmlns:xlink="http://www.w3.org/1999/xlink" contentScriptType="application/ecmascript" contentStyleType="text/css" height="552px" preserveAspectRatio="none" style="width:792px;height:552px;" version="1.1" viewBox="0 0 792 552" width="792px" zoomAndPan="magnify"><defs><filter height="300%" id="f1pfglv2vqnpy6" width="300%" x="-1" y="-1"><feGaussianBlur result="blurOut" stdDeviation="2.0"/><feColorMatrix in="blurOut" result="blurOut2" type="matrix" values="0 0 0 0 0 0 0 0 0 0 0 0 0 0 0 0 0 0 .4 0"/><feOffset dx="4.0" dy="4.0" in="blurOut2" result="blurOut3"/><feBlend in="SourceGraphic" in2="blurOut3" mode="normal"/></filter></defs><g><!--cluster ##13647--><!--cluster ##13653--><!--cluster ##13662--><!--class Agreement--><a target="_top" xlink:actuate="onRequest" xlink:href="../Agreement.html" xlink:show="new" xlink:title="Contractual details related to an agreement between parties." xlink:type="simple"><rect fill="#FEFEEE" filter="url(#f1pfglv2vqnpy6)" height="70.3828" id="Agreement" style="stroke: #A80036; stroke-width: 1.5;" width="171" x="188.75" y="40"/><rect fill="#FEFEEE" height="23.9688" style="stroke: #A80036; stroke-width: 1.5;" width="171" x="188.75" y="40"/><text fill="#000000" font-family="sans-serif" font-size="12" lengthAdjust="spacingAndGlyphs" textLength="69" x="239.75" y="56.1387">Agreement</text><line style="stroke: #A80036; stroke-width: 1.5;" x1="189.75" x2="358.75" y1="63.9688" y2="63.9688"/><ellipse cx="199.75" cy="75.8711" fill="#84BE84" rx="3" ry="3" style="stroke: #038048; stroke-width: 1.0;"/><text fill="#000000" font-family="sans-serif" font-size="11" lengthAdjust="spacingAndGlyphs" textLength="65" x="208.75" y="78.1792">DateSigned</text><text fill="#000000" font-family="sans-serif" font-size="11" font-style="italic" lengthAdjust="spacingAndGlyphs" textLength="53" x="277.75" y="78.1792">(ISODate)</text><ellipse cx="199.75" cy="88.6758" fill="#84BE84" rx="3" ry="3" style="stroke: #038048; stroke-width: 1.0;"/><text fill="#000000" font-family="sans-serif" font-size="11" lengthAdjust="spacingAndGlyphs" textLength="64" x="208.75" y="90.9839">Description</text><text fill="#000000" font-family="sans-serif" font-size="11" font-style="italic" lengthAdjust="spacingAndGlyphs" textLength="77" x="276.75" y="90.9839">(Max350Text)</text><ellipse cx="199.75" cy="101.4805" fill="#84BE84" rx="3" ry="3" style="stroke: #038048; stroke-width: 1.0;"/><text fill="#000000" font-family="sans-serif" font-size="11" lengthAdjust="spacingAndGlyphs" textLength="43" x="208.75" y="103.7886">Version</text><text fill="#000000" font-family="sans-serif" font-size="11" font-style="italic" lengthAdjust="spacingAndGlyphs" textLength="70" x="255.75" y="103.7886">(Max35Text)</text></a><!--class MasterAgreement--><a target="_top" xlink:actuate="onRequest" xlink:href="../MasterAgreement.html" xlink:show="new" xlink:title="Agreement which defines the framework of a contract between two trading parties in different domains such as collateral, derivatives, trade.." xlink:type="simple"><rect fill="#FEFECE" filter="url(#f1pfglv2vqnpy6)" height="57.5781" id="MasterAgreement" style="stroke: #A80036; stroke-width: 1.5;" width="321" x="38.75" y="188"/><rect fill="#FEFECE" height="23.9688" style="stroke: #A80036; stroke-width: 1.5;" width="321" x="38.75" y="188"/><text fill="#000000" font-family="sans-serif" font-size="12" lengthAdjust="spacingAndGlyphs" textLength="112" x="143.25" y="204.1387">MasterAgreement</text><line style="stroke: #A80036; stroke-width: 1.5;" x1="39.75" x2="358.75" y1="211.9688" y2="211.9688"/><ellipse cx="49.75" cy="223.8711" fill="#84BE84" rx="3" ry="3" style="stroke: #038048; stroke-width: 1.0;"/><text fill="#000000" font-family="sans-serif" font-size="11" lengthAdjust="spacingAndGlyphs" textLength="128" x="58.75" y="226.1792">MasterAgreementType</text><text fill="#000000" font-family="sans-serif" font-size="11" font-style="italic" lengthAdjust="spacingAndGlyphs" textLength="163" x="190.75" y="226.1792">(AgreementFrameworkCode)</text><ellipse cx="49.75" cy="236.6758" fill="#84BE84" rx="3" ry="3" style="stroke: #038048; stroke-width: 1.0;"/><text fill="#000000" font-family="sans-serif" font-size="11" lengthAdjust="spacingAndGlyphs" textLength="80" x="58.75" y="238.9839">GoverningLaw</text><text fill="#000000" font-family="sans-serif" font-size="11" font-style="italic" lengthAdjust="spacingAndGlyphs" textLength="82" x="142.75" y="238.9839">(CountryCode)</text></a><!--class DateTimePeriod--><a target="_top" xlink:actuate="onRequest" xlink:href="../DateTimePeriod.html" xlink:show="new" xlink:title="Time span defined by a start date and time, and an end date and time." xlink:type="simple"><rect fill="#EEEEEE" filter="url(#f1pfglv2vqnpy6)" height="23.9688" id="DateTimePeriod" style="stroke: #A80036; stroke-width: 1.5;" width="105" x="565.75" y="328"/><rect fill="#EEEEEE" height="23.9688" style="stroke: #A80036; stroke-width: 1.5;" width="105" x="565.75" y="328"/><text fill="#000000" font-family="sans-serif" font-size="12" lengthAdjust="spacingAndGlyphs" textLength="99" x="568.75" y="344.1387">DateTimePeriod</text></a><!--class Document--><a target="_top" xlink:actuate="onRequest" xlink:href="../Document.html" xlink:show="new" xlink:title="General information that unambiguously identifies a document, such as identification number and issue date time." xlink:type="simple"><rect fill="#EEEEEE" filter="url(#f1pfglv2vqnpy6)" height="23.9688" id="Document" style="stroke: #A80036; stroke-width: 1.5;" width="70" x="525" y="205"/><rect fill="#EEEEEE" height="23.9688" style="stroke: #A80036; stroke-width: 1.5;" width="70" x="525" y="205"/><text fill="#000000" font-family="sans-serif" font-size="12" lengthAdjust="spacingAndGlyphs" textLength="64" x="528" y="221.1387">Document</text></a><!--class CommercialTrade--><a target="_top" xlink:actuate="onRequest" xlink:href="../CommercialTrade.html" xlink:show="new" xlink:title="Commercial details of a trade transaction between a buyer and a seller." xlink:type="simple"><rect fill="#EEEEEE" filter="url(#f1pfglv2vqnpy6)" height="23.9688" id="CommercialTrade" style="stroke: #A80036; stroke-width: 1.5;" width="114" x="416" y="328"/><rect fill="#EEEEEE" height="23.9688" style="stroke: #A80036; stroke-width: 1.5;" width="114" x="416" y="328"/><text fill="#000000" font-family="sans-serif" font-size="12" lengthAdjust="spacingAndGlyphs" textLength="108" x="419" y="344.1387">CommercialTrade</text></a><!--class Jurisdiction--><a target="_top" xlink:actuate="onRequest" xlink:href="../Jurisdiction.html" xlink:show="new" xlink:title="Specifies the jurisdiction (country, county, state, province, city)." xlink:type="simple"><rect fill="#EEEEEE" filter="url(#f1pfglv2vqnpy6)" height="23.9688" id="Jurisdiction" style="stroke: #A80036; stroke-width: 1.5;" width="74" x="416" y="205"/><rect fill="#EEEEEE" height="23.9688" style="stroke: #A80036; stroke-width: 1.5;" width="74" x="416" y="205"/><text fill="#000000" font-family="sans-serif" font-size="12" lengthAdjust="spacingAndGlyphs" textLength="68" x="419" y="221.1387">Jurisdiction</text></a><!--class CollateralAgreement--><a target="_top" xlink:actuate="onRequest" xlink:href="../CollateralAgreement.html" xlink:show="new" xlink:title="Agreement between two trading parties that contains information about their relative duties and rights regarding collateral processes." xlink:type="simple"><rect fill="#EEEEEE" filter="url(#f1pfglv2vqnpy6)" height="23.9688" id="CollateralAgreement" style="stroke: #A80036; stroke-width: 1.5;" width="134" x="69" y="518"/><rect fill="#EEEEEE" height="23.9688" style="stroke: #A80036; stroke-width: 1.5;" width="134" x="69" y="518"/><text fill="#000000" font-family="sans-serif" font-size="12" lengthAdjust="spacingAndGlyphs" textLength="128" x="72" y="534.1387">CollateralAgreement</text></a><!--class Trade--><a target="_top" xlink:actuate="onRequest" xlink:href="../Trade.html" xlink:show="new" xlink:title="Result of an order between at least two parties. A trade relates to the delivery of goods and services, cash or securities." xlink:type="simple"><rect fill="#EEEEEE" filter="url(#f1pfglv2vqnpy6)" height="23.9688" id="Trade" style="stroke: #A80036; stroke-width: 1.5;" width="42" x="115.5" y="432"/><rect fill="#EEEEEE" height="23.9688" style="stroke: #A80036; stroke-width: 1.5;" width="42" x="115.5" y="432"/><text fill="#000000" font-family="sans-serif" font-size="12" lengthAdjust="spacingAndGlyphs" textLength="36" x="118.5" y="448.1387">Trade</text></a><!--class Contract--><a target="_top" xlink:actuate="onRequest" xlink:href="../Contract.html" xlink:show="new" xlink:title="Document that contains the information of the contract agreed between both parties." xlink:type="simple"><rect fill="#EEEEEE" filter="url(#f1pfglv2vqnpy6)" height="23.9688" id="Contract" style="stroke: #A80036; stroke-width: 1.5;" width="60" x="69.5" y="328"/><rect fill="#EEEEEE" height="23.9688" style="stroke: #A80036; stroke-width: 1.5;" width="60" x="69.5" y="328"/><text fill="#000000" font-family="sans-serif" font-size="12" lengthAdjust="spacingAndGlyphs" textLength="54" x="72.5" y="344.1387">Contract</text></a><!--link Agreement to MasterAgreement--><path d="M246.137,128.011 C235.298,148.244 223.307,170.627 214.132,187.754 " fill="none" id="Agreement-MasterAgreement" style="stroke: #A80036; stroke-width: 1.0;"/><polygon fill="none" points="240.038,124.572,255.653,110.248,252.379,131.183,240.038,124.572" style="stroke: #A80036; stroke-width: 1.0;"/><!--link Document to DateTimePeriod--><!--link CommercialTrade to Document--><!--link Document to CommercialTrade--><path d="M551.595,229.434 C542.126,241.449 525.609,259.969 507,270 C492.19,277.983 480.565,264.906 470,278 C460.007,290.384 462.762,309.213 466.752,322.673 " fill="none" id="Document-CommercialTrade" style="stroke: #A80036; stroke-width: 1.0;"/><polygon fill="#A80036" points="468.38,327.722,469.4278,317.929,466.8469,322.9628,461.8132,320.3819,468.38,327.722" style="stroke: #A80036; stroke-width: 1.0;"/><text fill="#000000" font-family="sans-serif" font-size="13" lengthAdjust="spacingAndGlyphs" textLength="113" x="471" y="291.0669">CommercialTrade</text><text fill="#000000" font-family="sans-serif" font-size="13" lengthAdjust="spacingAndGlyphs" textLength="7" x="457.359" y="316.9334">*</text><!--link Jurisdiction to CommercialTrade--><!--link Trade to CollateralAgreement--><!--link Contract to Trade--><!--link Agreement to DateTimePeriod--><path d="M359.265,84.472 C468.151,97.423 646.547,126.572 680,181 C700.713,214.699 694.157,233.064 680,270 C671.465,292.268 652.06,311.861 637.215,324.423 " fill="none" id="Agreement-DateTimePeriod" style="stroke: #A80036; stroke-width: 1.0;"/><polygon fill="#A80036" points="633.162,327.777,642.6464,325.1226,637.0147,324.59,637.5472,318.9583,633.162,327.777" style="stroke: #A80036; stroke-width: 1.0;"/><text fill="#000000" font-family="sans-serif" font-size="13" lengthAdjust="spacingAndGlyphs" textLength="86" x="694" y="221.0669">ValidityPeriod</text><text fill="#000000" font-family="sans-serif" font-size="13" lengthAdjust="spacingAndGlyphs" textLength="7" x="628.611" y="317.0066">*</text><!--link Agreement to Document--><path d="M359.594,107.835 C383.921,117.528 410.249,128.64 434,140 C467.569,156.056 475.231,161.623 507,181 C517.939,187.672 529.868,195.498 539.633,202.057 " fill="none" id="Agreement-Document" style="stroke: #A80036; stroke-width: 1.0;"/><polygon fill="#A80036" points="543.957,204.972,538.7296,196.6249,539.8109,202.1774,534.2583,203.2587,543.957,204.972" style="stroke: #A80036; stroke-width: 1.0;"/><text fill="#000000" font-family="sans-serif" font-size="13" lengthAdjust="spacingAndGlyphs" textLength="67" x="470" y="153.0669">Document</text><text fill="#000000" font-family="sans-serif" font-size="13" lengthAdjust="spacingAndGlyphs" textLength="8" x="527.7235" y="194.0106">1</text><!--link Agreement to CommercialTrade--><path d="M359.579,89.03 C451.341,105.171 587.257,136.14 612,181 C636.718,225.816 643.777,261.469 606,296 C596.397,304.778 560.479,300.319 548,304 C530.294,309.223 511.47,318.019 497.11,325.486 " fill="none" id="Agreement-CommercialTrade" style="stroke: #A80036; stroke-width: 1.0;"/><polygon fill="#A80036" points="492.419,327.96,502.2456,327.2979,496.8412,325.6267,498.5124,320.2224,492.419,327.96" style="stroke: #A80036; stroke-width: 1.0;"/><text fill="#000000" font-family="sans-serif" font-size="13" lengthAdjust="spacingAndGlyphs" textLength="36" x="634" y="221.0669">Trade</text><text fill="#000000" font-family="sans-serif" font-size="13" lengthAdjust="spacingAndGlyphs" textLength="8" x="488.3755" y="316.9945">1</text><!--link Agreement to Jurisdiction--><path d="M306.001,110.065 C321.329,125.524 340.374,143.54 359,158 C380.923,175.02 408.103,191.334 427.589,202.3 " fill="none" id="Agreement-Jurisdiction" style="stroke: #A80036; stroke-width: 1.0;"/><polygon fill="#A80036" points="432.369,204.97,426.4634,197.0881,428.0042,202.5311,422.5612,204.0719,432.369,204.97" style="stroke: #A80036; stroke-width: 1.0;"/><text fill="#000000" font-family="sans-serif" font-size="13" lengthAdjust="spacingAndGlyphs" textLength="68" x="360" y="153.0669">Jurisdiction</text><text fill="#000000" font-family="sans-serif" font-size="13" lengthAdjust="spacingAndGlyphs" textLength="24" x="395.8083" y="194.0079">0..1</text><!--link MasterAgreement to CollateralAgreement--><path d="M242.389,246.156 C261.064,260.896 280.901,280.735 291,304 C303.742,333.354 303.342,346.476 291,376 C263.954,440.7 194.745,491.9554 158.659,515.2893 " fill="none" id="MasterAgreement-CollateralAgreement" style="stroke: #A80036; stroke-width: 1.0;"/><polygon fill="#A80036" points="154.428,517.9955,164.1651,516.5157,158.6401,515.3014,159.8544,509.7764,154.428,517.9955" style="stroke: #A80036; stroke-width: 1.0;"/><text fill="#000000" font-family="sans-serif" font-size="13" lengthAdjust="spacingAndGlyphs" textLength="132" x="289" y="397.0669">CollateralAgreement</text><text fill="#000000" font-family="sans-serif" font-size="13" lengthAdjust="spacingAndGlyphs" textLength="24" x="131.2939" y="507.0422">0..1</text><!--link MasterAgreement to Trade--><path d="M191.148,246.041 C177.818,293.649 151.174,388.809 140.538,426.794 " fill="none" id="MasterAgreement-Trade" style="stroke: #A80036; stroke-width: 1.0;"/><polygon fill="#A80036" points="139.088,431.972,145.3674,424.3845,140.4367,427.1573,137.6639,422.2266,139.088,431.972" style="stroke: #A80036; stroke-width: 1.0;"/><text fill="#000000" font-family="sans-serif" font-size="13" lengthAdjust="spacingAndGlyphs" textLength="105" x="176" y="344.0669">GovernedTrades</text><text fill="#000000" font-family="sans-serif" font-size="13" lengthAdjust="spacingAndGlyphs" textLength="7" x="130.4308" y="421.0106">*</text><!--link MasterAgreement to Contract--><path d="M88.6815,246.047 C74.6086,254.142 62.0014,264.569 53,278 C41.9038,294.557 59.6828,312.694 76.2621,324.851 " fill="none" id="MasterAgreement-Contract" style="stroke: #A80036; stroke-width: 1.0;"/><polygon fill="#A80036" points="80.433,327.809,75.4052,319.3402,76.3544,324.9168,70.7777,325.866,80.433,327.809" style="stroke: #A80036; stroke-width: 1.0;"/><text fill="#000000" font-family="sans-serif" font-size="13" lengthAdjust="spacingAndGlyphs" textLength="117" x="54" y="291.0669">GovernedContract</text><text fill="#000000" font-family="sans-serif" font-size="13" lengthAdjust="spacingAndGlyphs" textLength="24" x="44.8108" y="317.0492">0..1</text></g></svg>