<?xml version="1.0" encoding="UTF-8" standalone="no"?><svg xmlns="http://www.w3.org/2000/svg" xmlns:xlink="http://www.w3.org/1999/xlink" contentScriptType="application/ecmascript" contentStyleType="text/css" height="1052px" preserveAspectRatio="none" style="width:1592px;height:1052px;" version="1.1" viewBox="0 0 1592 1052" width="1592px" zoomAndPan="magnify"><defs><filter height="300%" id="f1fi80cw90nfdr" width="300%" x="-1" y="-1"><feGaussianBlur result="blurOut" stdDeviation="2.0"/><feColorMatrix in="blurOut" result="blurOut2" type="matrix" values="0 0 0 0 0 0 0 0 0 0 0 0 0 0 0 0 0 0 .4 0"/><feOffset dx="4.0" dy="4.0" in="blurOut2" result="blurOut3"/><feBlend in="SourceGraphic" in2="blurOut3" mode="normal"/></filter></defs><g><!--cluster ##7166--><!--cluster ##7172--><!--cluster ##7187--><!--class CorporateActionServicing--><a target="_top" xlink:actuate="onRequest" xlink:href="../CorporateActionServicing.html" xlink:show="new" xlink:title="Services which consists in notifying the investor or its agent of a corporate event and calculating its proceeds based on its holdings." xlink:type="simple"><rect fill="#FEFEEE" filter="url(#f1fi80cw90nfdr)" height="23.9688" id="CorporateActionServicing" style="stroke: #A80036; stroke-width: 1.5;" width="164" x="840" y="40"/><rect fill="#FEFEEE" height="23.9688" style="stroke: #A80036; stroke-width: 1.5;" width="164" x="840" y="40"/><text fill="#000000" font-family="sans-serif" font-size="12" lengthAdjust="spacingAndGlyphs" textLength="158" x="843" y="56.1387">CorporateActionServicing</text></a><!--class MeetingServicing--><a target="_top" xlink:actuate="onRequest" xlink:href="../MeetingServicing.html" xlink:show="new" xlink:title="Services which consists in notifying the investor or its agent of a meeting, in validating and relaying its instructions and in calculating its entitlement based on its holdings." xlink:type="simple"><rect fill="#FEFECE" filter="url(#f1fi80cw90nfdr)" height="23.9688" id="MeetingServicing" style="stroke: #A80036; stroke-width: 1.5;" width="112" x="892.5" y="142"/><rect fill="#FEFECE" height="23.9688" style="stroke: #A80036; stroke-width: 1.5;" width="112" x="892.5" y="142"/><text fill="#000000" font-family="sans-serif" font-size="12" lengthAdjust="spacingAndGlyphs" textLength="106" x="895.5" y="158.1387">MeetingServicing</text></a><!--class SecuritiesAccount--><a target="_top" xlink:actuate="onRequest" xlink:href="../SecuritiesAccount.html" xlink:show="new" xlink:title="Account to or from which a securities entry is made." xlink:type="simple"><rect fill="#EEEEEE" filter="url(#f1fi80cw90nfdr)" height="23.9688" id="SecuritiesAccount" style="stroke: #A80036; stroke-width: 1.5;" width="119" x="302.75" y="656"/><rect fill="#EEEEEE" height="23.9688" style="stroke: #A80036; stroke-width: 1.5;" width="119" x="302.75" y="656"/><text fill="#000000" font-family="sans-serif" font-size="12" lengthAdjust="spacingAndGlyphs" textLength="113" x="305.75" y="672.1387">SecuritiesAccount</text></a><!--class CorporateActionNotification--><a target="_top" xlink:actuate="onRequest" xlink:href="../CorporateActionNotification.html" xlink:show="new" xlink:title="The process of notifying of an upcoming corporate action. It provides corporate action details including the different options." xlink:type="simple"><rect fill="#EEEEEE" filter="url(#f1fi80cw90nfdr)" height="23.9688" id="CorporateActionNotification" style="stroke: #A80036; stroke-width: 1.5;" width="179" x="272.75" y="552"/><rect fill="#EEEEEE" height="23.9688" style="stroke: #A80036; stroke-width: 1.5;" width="179" x="272.75" y="552"/><text fill="#000000" font-family="sans-serif" font-size="12" lengthAdjust="spacingAndGlyphs" textLength="173" x="275.75" y="568.1387">CorporateActionNotification</text></a><!--class CorporateActionDistribution--><a target="_top" xlink:actuate="onRequest" xlink:href="../CorporateActionDistribution.html" xlink:show="new" xlink:title="Distribution of the proceeds of a CA event." xlink:type="simple"><rect fill="#EEEEEE" filter="url(#f1fi80cw90nfdr)" height="23.9688" id="CorporateActionDistribution" style="stroke: #A80036; stroke-width: 1.5;" width="180" x="272" y="450"/><rect fill="#EEEEEE" height="23.9688" style="stroke: #A80036; stroke-width: 1.5;" width="180" x="272" y="450"/><text fill="#000000" font-family="sans-serif" font-size="12" lengthAdjust="spacingAndGlyphs" textLength="174" x="275" y="466.1387">CorporateActionDistribution</text></a><!--class CorporateActionOptionServicing--><a target="_top" xlink:actuate="onRequest" xlink:href="../CorporateActionOptionServicing.html" xlink:show="new" xlink:title="Option servicing process which calculates the entitlement based on a corporate action option." xlink:type="simple"><rect fill="#EEEEEE" filter="url(#f1fi80cw90nfdr)" height="23.9688" id="CorporateActionOptionServicing" style="stroke: #A80036; stroke-width: 1.5;" width="205" x="247.75" y="348"/><rect fill="#EEEEEE" height="23.9688" style="stroke: #A80036; stroke-width: 1.5;" width="205" x="247.75" y="348"/><text fill="#000000" font-family="sans-serif" font-size="12" lengthAdjust="spacingAndGlyphs" textLength="199" x="250.75" y="364.1387">CorporateActionOptionServicing</text></a><!--class CorporateActionEvent--><a target="_top" xlink:actuate="onRequest" xlink:href="../CorporateActionEvent.html" xlink:show="new" xlink:title="An event determined by a corporation's board of directors, that changes the existing corporate capital structure or financial condition." xlink:type="simple"><rect fill="#EEEEEE" filter="url(#f1fi80cw90nfdr)" height="23.9688" id="CorporateActionEvent" style="stroke: #A80036; stroke-width: 1.5;" width="143" x="250.75" y="246"/><rect fill="#EEEEEE" height="23.9688" style="stroke: #A80036; stroke-width: 1.5;" width="143" x="250.75" y="246"/><text fill="#000000" font-family="sans-serif" font-size="12" lengthAdjust="spacingAndGlyphs" textLength="137" x="253.75" y="262.1387">CorporateActionEvent</text></a><!--class CorporateActionElection--><a target="_top" xlink:actuate="onRequest" xlink:href="../CorporateActionElection.html" xlink:show="new" xlink:title="Decision taken by the account holder regarding the corporate action event." xlink:type="simple"><rect fill="#EEEEEE" filter="url(#f1fi80cw90nfdr)" height="23.9688" id="CorporateActionElection" style="stroke: #A80036; stroke-width: 1.5;" width="158" x="248.5" y="142"/><rect fill="#EEEEEE" height="23.9688" style="stroke: #A80036; stroke-width: 1.5;" width="158" x="248.5" y="142"/><text fill="#000000" font-family="sans-serif" font-size="12" lengthAdjust="spacingAndGlyphs" textLength="152" x="251.5" y="158.1387">CorporateActionElection</text></a><!--class CorporateActionEntitlement--><a target="_top" xlink:actuate="onRequest" xlink:href="../CorporateActionEntitlement.html" xlink:show="new" xlink:title="Rights entitled to the account owner based on the terms of the corporate action event and the balance of underlying securities." xlink:type="simple"><rect fill="#EEEEEE" filter="url(#f1fi80cw90nfdr)" height="23.9688" id="CorporateActionEntitlement" style="stroke: #A80036; stroke-width: 1.5;" width="180" x="248" y="40"/><rect fill="#EEEEEE" height="23.9688" style="stroke: #A80036; stroke-width: 1.5;" width="180" x="248" y="40"/><text fill="#000000" font-family="sans-serif" font-size="12" lengthAdjust="spacingAndGlyphs" textLength="174" x="251" y="56.1387">CorporateActionEntitlement</text></a><!--class Meeting--><a target="_top" xlink:actuate="onRequest" xlink:href="../Meeting.html" xlink:show="new" xlink:title="Specifies the physical parameters of a general meeting. Several dates and places can be defined for a  meeting." xlink:type="simple"><rect fill="#EEEEEE" filter="url(#f1fi80cw90nfdr)" height="23.9688" id="Meeting" style="stroke: #A80036; stroke-width: 1.5;" width="56" x="1085.5" y="1018"/><rect fill="#EEEEEE" height="23.9688" style="stroke: #A80036; stroke-width: 1.5;" width="56" x="1085.5" y="1018"/><text fill="#000000" font-family="sans-serif" font-size="12" lengthAdjust="spacingAndGlyphs" textLength="50" x="1088.5" y="1034.1387">Meeting</text></a><!--class MeetingNotice--><a target="_top" xlink:actuate="onRequest" xlink:href="../MeetingNotice.html" xlink:show="new" xlink:title="Information about the general meeting, specifying the participation requirements and the voting procedures. Alternatively, it may indicate where such information may be obtained." xlink:type="simple"><rect fill="#EEEEEE" filter="url(#f1fi80cw90nfdr)" height="23.9688" id="MeetingNotice" style="stroke: #A80036; stroke-width: 1.5;" width="96" x="1065" y="932"/><rect fill="#EEEEEE" height="23.9688" style="stroke: #A80036; stroke-width: 1.5;" width="96" x="1065" y="932"/><text fill="#000000" font-family="sans-serif" font-size="12" lengthAdjust="spacingAndGlyphs" textLength="90" x="1068" y="948.1387">MeetingNotice</text></a><!--class MeetingEntitlement--><a target="_top" xlink:actuate="onRequest" xlink:href="../MeetingEntitlement.html" xlink:show="new" xlink:title="Notification of the entitlement that one party has in relation with a specific meeting." xlink:type="simple"><rect fill="#EEEEEE" filter="url(#f1fi80cw90nfdr)" height="23.9688" id="MeetingEntitlement" style="stroke: #A80036; stroke-width: 1.5;" width="128" x="1067" y="846"/><rect fill="#EEEEEE" height="23.9688" style="stroke: #A80036; stroke-width: 1.5;" width="128" x="1067" y="846"/><text fill="#000000" font-family="sans-serif" font-size="12" lengthAdjust="spacingAndGlyphs" textLength="122" x="1070" y="862.1387">MeetingEntitlement</text></a><!--class InstructionForMeeting--><a target="_top" xlink:actuate="onRequest" xlink:href="../InstructionForMeeting.html" xlink:show="new" xlink:title="Identifies the position of the instructing party and the actions that it wants to take in relation with the meeting." xlink:type="simple"><rect fill="#EEEEEE" filter="url(#f1fi80cw90nfdr)" height="23.9688" id="InstructionForMeeting" style="stroke: #A80036; stroke-width: 1.5;" width="143" x="1059.75" y="760"/><rect fill="#EEEEEE" height="23.9688" style="stroke: #A80036; stroke-width: 1.5;" width="143" x="1059.75" y="760"/><text fill="#000000" font-family="sans-serif" font-size="12" lengthAdjust="spacingAndGlyphs" textLength="137" x="1062.75" y="776.1387">InstructionForMeeting</text></a><!--class MeetingResultDissemination--><a target="_top" xlink:actuate="onRequest" xlink:href="../MeetingResultDissemination.html" xlink:show="new" xlink:title="Provides information on the voting results of a shareholders meeting." xlink:type="simple"><rect fill="#EEEEEE" filter="url(#f1fi80cw90nfdr)" height="23.9688" id="MeetingResultDissemination" style="stroke: #A80036; stroke-width: 1.5;" width="183" x="1059.75" y="656"/><rect fill="#EEEEEE" height="23.9688" style="stroke: #A80036; stroke-width: 1.5;" width="183" x="1059.75" y="656"/><text fill="#000000" font-family="sans-serif" font-size="12" lengthAdjust="spacingAndGlyphs" textLength="177" x="1062.75" y="672.1387">MeetingResultDissemination</text></a><!--link CorporateActionServicing to MeetingServicing--><path d="M929.939,83.536 C935.078,103.301 941.468,127.875 945.105,141.867 " fill="none" id="CorporateActionServicing-MeetingServicing" style="stroke: #A80036; stroke-width: 1.0;"/><polygon fill="none" points="923.14,85.202,924.882,64.08,936.689,81.679,923.14,85.202" style="stroke: #A80036; stroke-width: 1.0;"/><!--link CorporateActionNotification to SecuritiesAccount--><!--link CorporateActionDistribution to CorporateActionNotification--><!--link CorporateActionOptionServicing to CorporateActionDistribution--><!--link CorporateActionEvent to CorporateActionOptionServicing--><!--link CorporateActionElection to CorporateActionEvent--><!--link CorporateActionEntitlement to CorporateActionElection--><!--link MeetingNotice to Meeting--><!--link MeetingEntitlement to MeetingNotice--><!--link InstructionForMeeting to MeetingEntitlement--><!--link MeetingResultDissemination to InstructionForMeeting--><!--link CorporateActionServicing to SecuritiesAccount--><path d="M839.95,62.44 C795.744,68.83 740.65,78.913 693,94 C644.851,109.245 633.864,116.967 590,142 C557.237,160.697 553.668,172.986 520,190 C510.34,194.881 506.43,192.688 497,198 C453.271,222.635 454.665,247.105 410,270 C273.302,340.07 94,256.389 94,410 C94,410 94,410 94,565 C94,608.356 218.06,639.932 297.365,655.688 " fill="none" id="CorporateActionServicing-SecuritiesAccount" style="stroke: #A80036; stroke-width: 1.0;"/><polygon fill="#A80036" points="302.522,656.703,294.4641,651.04,297.6162,655.7373,292.9189,658.8893,302.522,656.703" style="stroke: #A80036; stroke-width: 1.0;"/><text fill="#000000" font-family="sans-serif" font-size="13" lengthAdjust="spacingAndGlyphs" textLength="115" x="111" y="364.0669">SecuritiesAccount</text><text fill="#000000" font-family="sans-serif" font-size="13" lengthAdjust="spacingAndGlyphs" textLength="7" x="287.8985" y="650.7368">*</text><!--link CorporateActionServicing to CorporateActionNotification--><path d="M915.663,64.1 C906.207,80.8 888.015,113.483 874,142 C846.533,197.89 865.45,230.875 817,270 C766.477,310.799 732.324,271.445 674,300 C566.668,352.549 560.495,397.122 469,474 C437.609,500.376 400.821,530.889 379.583,548.466 " fill="none" id="CorporateActionServicing-CorporateActionNotification" style="stroke: #A80036; stroke-width: 1.0;"/><polygon fill="#A80036" points="375.549,551.803,385.0323,549.1447,379.4004,548.6145,379.9307,542.9825,375.549,551.803" style="stroke: #A80036; stroke-width: 1.0;"/><text fill="#000000" font-family="sans-serif" font-size="13" lengthAdjust="spacingAndGlyphs" textLength="212" x="675" y="313.0669">CorporateActionEventNotification</text><text fill="#000000" font-family="sans-serif" font-size="13" lengthAdjust="spacingAndGlyphs" textLength="7" x="370.4637" y="541.0412">*</text><!--link CorporateActionServicing to CorporateActionDistribution--><path d="M873.176,64 C852.994,70.32 830.318,79.887 813,94 C763.296,134.506 787.214,177.421 736,216 C697.916,244.688 675.357,224.107 633,246 C604.532,260.714 435.152,400.347 379.62,446.368 " fill="none" id="CorporateActionServicing-CorporateActionDistribution" style="stroke: #A80036; stroke-width: 1.0;"/><polygon fill="#A80036" points="375.516,449.771,384.9977,447.1068,379.3654,446.5801,379.8922,440.9478,375.516,449.771" style="stroke: #A80036; stroke-width: 1.0;"/><text fill="#000000" font-family="sans-serif" font-size="13" lengthAdjust="spacingAndGlyphs" textLength="177" x="634" y="262.0669">CorporateActionDistribution</text><text fill="#000000" font-family="sans-serif" font-size="13" lengthAdjust="spacingAndGlyphs" textLength="7" x="370.5026" y="438.9986">*</text><!--link CorporateActionServicing to CorporateActionOptionServicing--><path d="M839.84,63.44 C805.546,69.63 765.886,79.265 732,94 C663.483,123.793 663.882,163.567 594,190 C565.124,200.922 551.631,182.383 525,198 C490.95,217.968 498.898,240.211 473,270 C452.789,293.248 447.738,299.644 423,318 C408.947,328.428 391.966,338.115 377.92,345.452 " fill="none" id="CorporateActionServicing-CorporateActionOptionServicing" style="stroke: #A80036; stroke-width: 1.0;"/><polygon fill="#A80036" points="373.278,347.848,383.1102,347.2751,377.7212,345.555,379.4413,340.166,373.278,347.848" style="stroke: #A80036; stroke-width: 1.0;"/><text fill="#000000" font-family="sans-serif" font-size="13" lengthAdjust="spacingAndGlyphs" textLength="204" x="526" y="211.0669">CorporateActionOptionServicing</text><text fill="#000000" font-family="sans-serif" font-size="13" lengthAdjust="spacingAndGlyphs" textLength="7" x="371.647" y="336.844">*</text><!--link CorporateActionServicing to CorporateActionEvent--><path d="M839.813,56.49 C744.605,61.47 594.143,72.5 542,94 C478.858,120.037 477.087,149.622 422,190 C395.832,209.181 364.623,229.74 344.113,242.95 " fill="none" id="CorporateActionServicing-CorporateActionEvent" style="stroke: #A80036; stroke-width: 1.0;"/><polygon fill="#A80036" points="339.649,245.818,349.3828,244.3172,343.8553,243.1148,345.0577,237.5872,339.649,245.818" style="stroke: #A80036; stroke-width: 1.0;"/><text fill="#000000" font-family="sans-serif" font-size="13" lengthAdjust="spacingAndGlyphs" textLength="36" x="474" y="158.0669">Event</text><text fill="#000000" font-family="sans-serif" font-size="13" lengthAdjust="spacingAndGlyphs" textLength="7" x="335.9218" y="235.0612">*</text><!--link CorporateActionServicing to CorporateActionElection--><path d="M839.824,52.56 C684.104,52.59 358.446,57.11 324,94 C313.495,105.25 316.338,123.587 320.489,136.835 " fill="none" id="CorporateActionServicing-CorporateActionElection" style="stroke: #A80036; stroke-width: 1.0;"/><polygon fill="#A80036" points="322.183,141.813,323.0723,132.0044,320.5732,137.0792,315.4983,134.5801,322.183,141.813" style="stroke: #A80036; stroke-width: 1.0;"/><text fill="#000000" font-family="sans-serif" font-size="13" lengthAdjust="spacingAndGlyphs" textLength="154" x="325" y="107.0669">CorporateActionElection</text><text fill="#000000" font-family="sans-serif" font-size="13" lengthAdjust="spacingAndGlyphs" textLength="7" x="310.9311" y="131.0545">*</text><!--link CorporateActionServicing to CorporateActionEntitlement--><path d="M839.583,52 C732.693,52 546.596,52 433.614,52 " fill="none" id="CorporateActionServicing-CorporateActionEntitlement" style="stroke: #A80036; stroke-width: 1.0;"/><polygon fill="#A80036" points="428.289,52,437.289,56,433.289,52,437.289,48,428.289,52" style="stroke: #A80036; stroke-width: 1.0;"/><text fill="#000000" font-family="sans-serif" font-size="13" lengthAdjust="spacingAndGlyphs" textLength="178" x="544.5" y="44.0669">CorporateActionEntitlement</text><text fill="#000000" font-family="sans-serif" font-size="13" lengthAdjust="spacingAndGlyphs" textLength="7" x="436.0559" y="47.3698">*</text><!--link MeetingServicing to Meeting--><path d="M1003.789,154.768 C1134,155.729 1447,167.361 1447,257 C1447,257 1447,257 1447,945 C1447,1006.7135 1229.83,1023.5186 1145.72,1027.7128 " fill="none" id="MeetingServicing-Meeting" style="stroke: #A80036; stroke-width: 1.0;"/><polygon fill="#A80036" points="1140.62,1027.96,1149.8037,1031.5181,1145.6141,1027.7171,1149.4151,1023.5276,1140.62,1027.96" style="stroke: #A80036; stroke-width: 1.0;"/><text fill="#000000" font-family="sans-serif" font-size="13" lengthAdjust="spacingAndGlyphs" textLength="132" x="1448" y="619.0669">MeetingSpecification</text><text fill="#000000" font-family="sans-serif" font-size="13" lengthAdjust="spacingAndGlyphs" textLength="23" x="1149.5509" y="1021.6085">1..*</text><!--link MeetingServicing to MeetingNotice--><path d="M944.133,166.196 C926.906,217.103 858,432.101 858,614 C858,614 858,614 858,859 C858,901.048 984.657,925.55 1059.44,936.353 " fill="none" id="MeetingServicing-MeetingNotice" style="stroke: #A80036; stroke-width: 1.0;"/><polygon fill="#A80036" points="1064.74,937.107,1056.3887,931.8862,1059.7893,936.4069,1055.2686,939.8074,1064.74,937.107" style="stroke: #A80036; stroke-width: 1.0;"/><text fill="#000000" font-family="sans-serif" font-size="13" lengthAdjust="spacingAndGlyphs" textLength="92" x="862" y="568.0669">MeetingNotice</text><text fill="#000000" font-family="sans-serif" font-size="13" lengthAdjust="spacingAndGlyphs" textLength="7" x="1049.9801" y="931.2122">*</text><!--link MeetingServicing to MeetingEntitlement--><path d="M1003.526,159.721 C1101.78,169.618 1296,196.796 1296,257 C1296,257 1296,257 1296,773 C1296,818.591 1245.35,839.448 1200.18,848.984 " fill="none" id="MeetingServicing-MeetingEntitlement" style="stroke: #A80036; stroke-width: 1.0;"/><polygon fill="#A80036" points="1195.27,849.982,1204.8821,852.1285,1200.1718,848.9959,1203.3044,844.2856,1195.27,849.982" style="stroke: #A80036; stroke-width: 1.0;"/><text fill="#000000" font-family="sans-serif" font-size="13" lengthAdjust="spacingAndGlyphs" textLength="125" x="1297" y="517.0669">MeetingEntitlement</text><text fill="#000000" font-family="sans-serif" font-size="13" lengthAdjust="spacingAndGlyphs" textLength="7" x="1203.1059" y="844.1485">*</text><!--link MeetingServicing to InstructionForMeeting--><path d="M955.148,166.118 C966.155,184.34 986,222.04 986,257 C986,257 986,257 986,412 C986,544.143 969.343,593.625 1042,704 C1057.42,727.429 1083.94,745.816 1104.02,757.353 " fill="none" id="MeetingServicing-InstructionForMeeting" style="stroke: #A80036; stroke-width: 1.0;"/><polygon fill="#A80036" points="1108.46,759.853,1102.5658,751.9626,1104.0987,757.4078,1098.6535,758.9407,1108.46,759.853" style="stroke: #A80036; stroke-width: 1.0;"/><text fill="#000000" font-family="sans-serif" font-size="13" lengthAdjust="spacingAndGlyphs" textLength="118" x="987" y="466.0669">MeetingInstruction</text><text fill="#000000" font-family="sans-serif" font-size="13" lengthAdjust="spacingAndGlyphs" textLength="7" x="1091.0791" y="748.8507">*</text><!--link MeetingServicing to MeetingResultDissemination--><path d="M971.904,166.102 C985.374,173.447 1001.543,184.258 1012,198 C1074.98,280.766 1032.07,331.069 1086,420 C1095.62,435.857 1106.66,433.436 1115,450 C1149.54,518.597 1152.03,613.336 1151.51,650.81 " fill="none" id="MeetingServicing-MeetingResultDissemination" style="stroke: #A80036; stroke-width: 1.0;"/><polygon fill="#A80036" points="1151.41,655.913,1155.5764,646.9888,1151.5028,650.9139,1147.5778,646.8403,1151.41,655.913" style="stroke: #A80036; stroke-width: 1.0;"/><text fill="#000000" font-family="sans-serif" font-size="13" lengthAdjust="spacingAndGlyphs" textLength="181" x="1087" y="415.0669">MeetingResultDissemination</text><text fill="#000000" font-family="sans-serif" font-size="13" lengthAdjust="spacingAndGlyphs" textLength="7" x="1141.9181" y="644.9313">*</text><!--link SecuritiesAccount to InstructionForMeeting--><path d="M421.537,677.235 C507.5,689.092 671.396,711.574 811,730 C894.207,740.982 989.644,753.155 1054.49,761.362 " fill="none" id="SecuritiesAccount-InstructionForMeeting" style="stroke: #A80036; stroke-width: 1.0;"/><polygon fill="#A80036" points="1059.49,761.996,1051.0643,756.8962,1054.5297,761.3674,1050.0585,764.8328,1059.49,761.996" style="stroke: #A80036; stroke-width: 1.0;"/><text fill="#000000" font-family="sans-serif" font-size="13" lengthAdjust="spacingAndGlyphs" textLength="166" x="812" y="725.0669">RelatedMeetingInstruction</text><text fill="#000000" font-family="sans-serif" font-size="13" lengthAdjust="spacingAndGlyphs" textLength="24" x="1027.7357" y="756.5949">0..1</text><!--link CorporateActionEvent to Meeting--><path d="M250.689,267.089 C157.488,279.685 6,308.003 6,359 C6,359 6,359 6,945 C6,1000.3189 896.536,1023.9795 1080.14,1028.2697 " fill="none" id="CorporateActionEvent-Meeting" style="stroke: #A80036; stroke-width: 1.0;"/><polygon fill="#A80036" points="1085.36,1028.391,1076.4538,1024.1863,1080.3613,1028.2767,1076.2709,1032.1842,1085.36,1028.391" style="stroke: #A80036; stroke-width: 1.0;"/><text fill="#000000" font-family="sans-serif" font-size="13" lengthAdjust="spacingAndGlyphs" textLength="99" x="7" y="672.0669">RelatedMeeting</text><text fill="#000000" font-family="sans-serif" font-size="13" lengthAdjust="spacingAndGlyphs" textLength="7" x="1070.628" y="1022.3898">*</text></g></svg>