<?xml version="1.0" encoding="UTF-8" standalone="no"?><svg xmlns="http://www.w3.org/2000/svg" xmlns:xlink="http://www.w3.org/1999/xlink" contentScriptType="application/ecmascript" contentStyleType="text/css" height="500px" preserveAspectRatio="none" style="width:1236px;height:500px;" version="1.1" viewBox="0 0 1236 500" width="1236px" zoomAndPan="magnify"><defs><filter height="300%" id="fpm5sv8uztvd2" width="300%" x="-1" y="-1"><feGaussianBlur result="blurOut" stdDeviation="2.0"/><feColorMatrix in="blurOut" result="blurOut2" type="matrix" values="0 0 0 0 0 0 0 0 0 0 0 0 0 0 0 0 0 0 .4 0"/><feOffset dx="4.0" dy="4.0" in="blurOut2" result="blurOut3"/><feBlend in="SourceGraphic" in2="blurOut3" mode="normal"/></filter></defs><g><!--cluster ##12460--><!--cluster ##12472--><!--cluster ##12481--><!--cluster ##12486--><!--cluster ##12489--><!--class Role--><a target="_top" xlink:actuate="onRequest" xlink:href="../Role.html" xlink:show="new" xlink:title="Role of a party in an activity." xlink:type="simple"><rect fill="#FEFEEE" filter="url(#fpm5sv8uztvd2)" height="44.7734" id="Role" style="stroke: #A80036; stroke-width: 1.5;" width="175" x="38.75" y="40.5"/><rect fill="#FEFEEE" height="23.9688" style="stroke: #A80036; stroke-width: 1.5;" width="175" x="38.75" y="40.5"/><text fill="#000000" font-family="sans-serif" font-size="12" lengthAdjust="spacingAndGlyphs" textLength="27" x="112.75" y="56.6387">Role</text><line style="stroke: #A80036; stroke-width: 1.5;" x1="39.75" x2="212.75" y1="64.4688" y2="64.4688"/><ellipse cx="49.75" cy="76.3711" fill="#84BE84" rx="3" ry="3" style="stroke: #038048; stroke-width: 1.0;"/><text fill="#000000" font-family="sans-serif" font-size="11" lengthAdjust="spacingAndGlyphs" textLength="53" x="58.75" y="78.6792">PartyRole</text><text fill="#000000" font-family="sans-serif" font-size="11" font-style="italic" lengthAdjust="spacingAndGlyphs" textLength="92" x="115.75" y="78.6792">(PartyRoleCode)</text></a><!--class CorporateActionPartyRole--><a target="_top" xlink:actuate="onRequest" xlink:href="../CorporateActionPartyRole.html" xlink:show="new" xlink:title="Role played by a party in the context of a corporate action." xlink:type="simple"><rect fill="#FEFEEE" filter="url(#fpm5sv8uztvd2)" height="23.9688" id="CorporateActionPartyRole" style="stroke: #A80036; stroke-width: 1.5;" width="167" x="47.75" y="166"/><rect fill="#FEFEEE" height="23.9688" style="stroke: #A80036; stroke-width: 1.5;" width="167" x="47.75" y="166"/><text fill="#000000" font-family="sans-serif" font-size="12" lengthAdjust="spacingAndGlyphs" textLength="161" x="50.75" y="182.1387">CorporateActionPartyRole</text></a><!--class MeetingPartyRole--><a target="_top" xlink:actuate="onRequest" xlink:href="../MeetingPartyRole.html" xlink:show="new" xlink:title="Role played by a party in the context of a meeting." xlink:type="simple"><rect fill="#FEFEEE" filter="url(#fpm5sv8uztvd2)" height="23.9688" id="MeetingPartyRole" style="stroke: #A80036; stroke-width: 1.5;" width="115" x="73.75" y="272"/><rect fill="#FEFEEE" height="23.9688" style="stroke: #A80036; stroke-width: 1.5;" width="115" x="73.75" y="272"/><text fill="#000000" font-family="sans-serif" font-size="12" lengthAdjust="spacingAndGlyphs" textLength="109" x="76.75" y="288.1387">MeetingPartyRole</text></a><!--class MeetingAttendeeRole--><a target="_top" xlink:actuate="onRequest" xlink:href="../MeetingAttendeeRole.html" xlink:show="new" xlink:title="Security holder who will attend and vote at the meeting in person and/or a person assigned by the security holder to attend the meeting without having any voting rights or taking any action." xlink:type="simple"><rect fill="#FEFECE" filter="url(#fpm5sv8uztvd2)" height="23.9688" id="MeetingAttendeeRole" style="stroke: #A80036; stroke-width: 1.5;" width="141" x="38.75" y="360"/><rect fill="#FEFECE" height="23.9688" style="stroke: #A80036; stroke-width: 1.5;" width="141" x="38.75" y="360"/><text fill="#000000" font-family="sans-serif" font-size="12" lengthAdjust="spacingAndGlyphs" textLength="135" x="41.75" y="376.1387">MeetingAttendeeRole</text></a><!--class RolePlayer--><a target="_top" xlink:actuate="onRequest" xlink:href="../RolePlayer.html" xlink:show="new" xlink:title="Type of entity that plays a specific role in a specific context." xlink:type="simple"><rect fill="#EEEEEE" filter="url(#fpm5sv8uztvd2)" height="23.9688" id="RolePlayer" style="stroke: #A80036; stroke-width: 1.5;" width="71" x="811.75" y="466"/><rect fill="#EEEEEE" height="23.9688" style="stroke: #A80036; stroke-width: 1.5;" width="71" x="811.75" y="466"/><text fill="#000000" font-family="sans-serif" font-size="12" lengthAdjust="spacingAndGlyphs" textLength="65" x="814.75" y="482.1387">RolePlayer</text></a><!--class ContactPersonRole--><a target="_top" xlink:actuate="onRequest" xlink:href="../ContactPersonRole.html" xlink:show="new" xlink:title="Person to be contacted in a given organisation. In the corporate action domain (including meeting notifications) , it is the contact person at the party organising the meeting, at the issuer or at an intermediary." xlink:type="simple"><rect fill="#EEEEEE" filter="url(#fpm5sv8uztvd2)" height="23.9688" id="ContactPersonRole" style="stroke: #A80036; stroke-width: 1.5;" width="126" x="764" y="360"/><rect fill="#EEEEEE" height="23.9688" style="stroke: #A80036; stroke-width: 1.5;" width="126" x="764" y="360"/><text fill="#000000" font-family="sans-serif" font-size="12" lengthAdjust="spacingAndGlyphs" textLength="120" x="767" y="376.1387">ContactPersonRole</text></a><!--class CounterpartyRisk--><a target="_top" xlink:actuate="onRequest" xlink:href="../CounterpartyRisk.html" xlink:show="new" xlink:title="Calculation of the exposure amount that one party has vis-a-vis one counterparty or a central system, based on its credit risk." xlink:type="simple"><rect fill="#EEEEEE" filter="url(#fpm5sv8uztvd2)" height="23.9688" id="CounterpartyRisk" style="stroke: #A80036; stroke-width: 1.5;" width="113" x="770.75" y="272"/><rect fill="#EEEEEE" height="23.9688" style="stroke: #A80036; stroke-width: 1.5;" width="113" x="770.75" y="272"/><text fill="#000000" font-family="sans-serif" font-size="12" lengthAdjust="spacingAndGlyphs" textLength="107" x="773.75" y="288.1387">CounterpartyRisk</text></a><!--class Entry--><a target="_top" xlink:actuate="onRequest" xlink:href="../Entry.html" xlink:show="new" xlink:title="Posting to an account that results in an increase or decrease to a balance." xlink:type="simple"><rect fill="#EEEEEE" filter="url(#fpm5sv8uztvd2)" height="23.9688" id="Entry" style="stroke: #A80036; stroke-width: 1.5;" width="38" x="764" y="166"/><rect fill="#EEEEEE" height="23.9688" style="stroke: #A80036; stroke-width: 1.5;" width="38" x="764" y="166"/><text fill="#000000" font-family="sans-serif" font-size="12" lengthAdjust="spacingAndGlyphs" textLength="32" x="767" y="182.1387">Entry</text></a><!--class CorporateActionEvent--><a target="_top" xlink:actuate="onRequest" xlink:href="../CorporateActionEvent.html" xlink:show="new" xlink:title="An event determined by a corporation's board of directors, that changes the existing corporate capital structure or financial condition." xlink:type="simple"><rect fill="#EEEEEE" filter="url(#fpm5sv8uztvd2)" height="23.9688" id="CorporateActionEvent" style="stroke: #A80036; stroke-width: 1.5;" width="143" x="357.75" y="360"/><rect fill="#EEEEEE" height="23.9688" style="stroke: #A80036; stroke-width: 1.5;" width="143" x="357.75" y="360"/><text fill="#000000" font-family="sans-serif" font-size="12" lengthAdjust="spacingAndGlyphs" textLength="137" x="360.75" y="376.1387">CorporateActionEvent</text></a><!--class Account--><a target="_top" xlink:actuate="onRequest" xlink:href="../Account.html" xlink:show="new" xlink:title="Record of transactions in specific types of assets, maintained by a servicing party on behalf of one or more owning parties. Business relationship between an account servicer and one or more account owners." xlink:type="simple"><rect fill="#EEEEEE" filter="url(#fpm5sv8uztvd2)" height="23.9688" id="Account" style="stroke: #A80036; stroke-width: 1.5;" width="57" x="336.75" y="272"/><rect fill="#EEEEEE" height="23.9688" style="stroke: #A80036; stroke-width: 1.5;" width="57" x="336.75" y="272"/><text fill="#000000" font-family="sans-serif" font-size="12" lengthAdjust="spacingAndGlyphs" textLength="51" x="339.75" y="288.1387">Account</text></a><!--class Meeting--><a target="_top" xlink:actuate="onRequest" xlink:href="../Meeting.html" xlink:show="new" xlink:title="Specifies the physical parameters of a general meeting. Several dates and places can be defined for a  meeting." xlink:type="simple"><rect fill="#EEEEEE" filter="url(#fpm5sv8uztvd2)" height="23.9688" id="Meeting" style="stroke: #A80036; stroke-width: 1.5;" width="56" x="401.5" y="466"/><rect fill="#EEEEEE" height="23.9688" style="stroke: #A80036; stroke-width: 1.5;" width="56" x="401.5" y="466"/><text fill="#000000" font-family="sans-serif" font-size="12" lengthAdjust="spacingAndGlyphs" textLength="50" x="404.5" y="482.1387">Meeting</text></a><!--class Person--><a target="_top" xlink:actuate="onRequest" xlink:href="../Person.html" xlink:show="new" xlink:title="Human entity, as distinguished from a corporate entity (which is sometimes referred to as an 'artificial person')." xlink:type="simple"><rect fill="#EEEEEE" filter="url(#fpm5sv8uztvd2)" height="23.9688" id="Person" style="stroke: #A80036; stroke-width: 1.5;" width="50" x="190" y="466"/><rect fill="#EEEEEE" height="23.9688" style="stroke: #A80036; stroke-width: 1.5;" width="50" x="190" y="466"/><text fill="#000000" font-family="sans-serif" font-size="12" lengthAdjust="spacingAndGlyphs" textLength="44" x="193" y="482.1387">Person</text></a><!--link Role to CorporateActionPartyRole--><path d="M127.839,105.559 C128.795,127.159 129.889,151.898 130.507,165.865 " fill="none" id="Role-CorporateActionPartyRole" style="stroke: #A80036; stroke-width: 1.0;"/><polygon fill="none" points="120.843,105.81,126.952,85.52,134.83,105.191,120.843,105.81" style="stroke: #A80036; stroke-width: 1.0;"/><!--link CorporateActionPartyRole to MeetingPartyRole--><path d="M131,210.217 C131,231.114 131,257.371 131,271.95 " fill="none" id="CorporateActionPartyRole-MeetingPartyRole" style="stroke: #A80036; stroke-width: 1.0;"/><polygon fill="none" points="124,210.13,131,190.13,138,210.13,124,210.13" style="stroke: #A80036; stroke-width: 1.0;"/><!--link MeetingPartyRole to MeetingAttendeeRole--><path d="M123.134,315.751 C119.219,331.054 114.726,348.615 111.877,359.754 " fill="none" id="MeetingPartyRole-MeetingAttendeeRole" style="stroke: #A80036; stroke-width: 1.0;"/><polygon fill="none" points="116.386,313.884,128.124,296.243,129.949,317.354,116.386,313.884" style="stroke: #A80036; stroke-width: 1.0;"/><!--link ContactPersonRole to RolePlayer--><!--link CounterpartyRisk to ContactPersonRole--><!--link Entry to CounterpartyRisk--><!--link Account to CorporateActionEvent--><!--link Role to RolePlayer--><path d="M213.481,64.221 C466.964,66.01 1184,79.673 1184,177 C1184,177 1184,177 1184,373 C1184,434.3845 977.27,463.4112 887.642,473.1111 " fill="none" id="Role-RolePlayer" style="stroke: #A80036; stroke-width: 1.0;"/><polygon fill="#A80036" points="882.428,473.6679,891.8022,476.6887,887.3997,473.1365,890.9519,468.734,882.428,473.6679" style="stroke: #A80036; stroke-width: 1.0;"/><text fill="#000000" font-family="sans-serif" font-size="13" lengthAdjust="spacingAndGlyphs" textLength="39" x="1185" y="288.0669">Player</text><text fill="#000000" font-family="sans-serif" font-size="13" lengthAdjust="spacingAndGlyphs" textLength="7" x="890.8888" y="466.9457">*</text><!--link Role to ContactPersonRole--><path d="M213.436,65.428 C417.662,69.696 912.384,85.791 960,142 C1021.42,214.508 896.965,319.209 846.74,356.855 " fill="none" id="Role-ContactPersonRole" style="stroke: #A80036; stroke-width: 1.0;"/><polygon fill="#A80036" points="842.686,359.868,852.2953,357.7092,846.6988,356.8852,847.5228,351.2887,842.686,359.868" style="stroke: #A80036; stroke-width: 1.0;"/><text fill="#000000" font-family="sans-serif" font-size="13" lengthAdjust="spacingAndGlyphs" textLength="121" x="971" y="233.0669">ContactPersonRole</text><text fill="#000000" font-family="sans-serif" font-size="13" lengthAdjust="spacingAndGlyphs" textLength="8" x="837.3593" y="348.8708">1</text><!--link Role to CounterpartyRisk--><path d="M213.268,67.633 C390.224,75.874 778.047,98.712 819,142 C851.043,175.87 839.896,237.224 832.043,266.541 " fill="none" id="Role-CounterpartyRisk" style="stroke: #A80036; stroke-width: 1.0;"/><polygon fill="#A80036" points="830.626,271.628,836.8937,264.0309,831.9673,266.8113,829.187,261.8848,830.626,271.628" style="stroke: #A80036; stroke-width: 1.0;"/><text fill="#000000" font-family="sans-serif" font-size="13" lengthAdjust="spacingAndGlyphs" textLength="109" x="841" y="182.0669">CounterpartyRisk</text><text fill="#000000" font-family="sans-serif" font-size="13" lengthAdjust="spacingAndGlyphs" textLength="24" x="802.4381" y="260.8082">0..1</text><!--link Role to Entry--><path d="M213.584,79.064 C365.67,105.222 670.779,157.699 758.749,172.829 " fill="none" id="Role-Entry" style="stroke: #A80036; stroke-width: 1.0;"/><polygon fill="#A80036" points="763.744,173.688,755.5519,168.2208,758.8163,172.8408,754.1964,176.1051,763.744,173.688" style="stroke: #A80036; stroke-width: 1.0;"/><text fill="#000000" font-family="sans-serif" font-size="13" lengthAdjust="spacingAndGlyphs" textLength="33" x="534" y="129.0669">Entry</text><text fill="#000000" font-family="sans-serif" font-size="13" lengthAdjust="spacingAndGlyphs" textLength="8" x="747.922" y="166.1746">1</text><!--link CorporateActionPartyRole to CorporateActionEvent--><path d="M214.66,180.627 C320.753,184.663 494.77,198.549 535,246 C549.946,263.628 545.751,277.542 535,298 C519.93,326.676 487.933,346.285 463.015,357.899 " fill="none" id="CorporateActionPartyRole-CorporateActionEvent" style="stroke: #A80036; stroke-width: 1.0;"/><polygon fill="#A80036" points="458.45,359.975,468.2985,359.8901,463.0014,357.905,464.9865,352.6079,458.45,359.975" style="stroke: #A80036; stroke-width: 1.0;"/><text fill="#000000" font-family="sans-serif" font-size="13" lengthAdjust="spacingAndGlyphs" textLength="140" x="546" y="288.0669">CorporateActionEvent</text><text fill="#000000" font-family="sans-serif" font-size="13" lengthAdjust="spacingAndGlyphs" textLength="7" x="458.9406" y="349.0146">*</text><!--link CorporateActionPartyRole to Account--><path d="M156.042,190.13 C199.585,209.482 289.033,249.237 335.506,269.891 " fill="none" id="CorporateActionPartyRole-Account" style="stroke: #A80036; stroke-width: 1.0;"/><polygon fill="#A80036" points="340.138,271.95,333.5387,264.6391,335.5691,269.919,330.2891,271.9494,340.138,271.95" style="stroke: #A80036; stroke-width: 1.0;"/><text fill="#000000" font-family="sans-serif" font-size="13" lengthAdjust="spacingAndGlyphs" textLength="52" x="264" y="233.0669">Account</text><text fill="#000000" font-family="sans-serif" font-size="13" lengthAdjust="spacingAndGlyphs" textLength="7" x="321.9589" y="260.981">*</text><!--link MeetingPartyRole to Meeting--><path d="M140.825,296.22 C161.812,319.633 213.402,374.31 266,408 C308.052,434.9348 362.398,455.478 396.485,466.8906 " fill="none" id="MeetingPartyRole-Meeting" style="stroke: #A80036; stroke-width: 1.0;"/><polygon fill="#A80036" points="401.363,468.5078,394.0783,461.8796,396.6168,466.9349,391.5616,469.4735,401.363,468.5078" style="stroke: #A80036; stroke-width: 1.0;"/><text fill="#000000" font-family="sans-serif" font-size="13" lengthAdjust="spacingAndGlyphs" textLength="51" x="267" y="376.0669">Meeting</text><text fill="#000000" font-family="sans-serif" font-size="13" lengthAdjust="spacingAndGlyphs" textLength="7" x="386.6316" y="460.8807">*</text><!--link MeetingAttendeeRole to Person--><path d="M120.344,384.13 C139.55,402.974 178.474,441.1627 199.941,462.2252 " fill="none" id="MeetingAttendeeRole-Person" style="stroke: #A80036; stroke-width: 1.0;"/><polygon fill="#A80036" points="203.738,465.9502,200.1148,456.792,200.1688,462.4486,194.5122,462.5027,203.738,465.9502" style="stroke: #A80036; stroke-width: 1.0;"/><text fill="#000000" font-family="sans-serif" font-size="13" lengthAdjust="spacingAndGlyphs" textLength="44" x="170" y="429.0669">Person</text><text fill="#000000" font-family="sans-serif" font-size="13" lengthAdjust="spacingAndGlyphs" textLength="7" x="190.3198" y="454.9813">*</text><!--link ContactPersonRole to Meeting--><path d="M805.305,384.175 C777.788,397.894 728.55,420.942 684,434 C606.059,456.8458 510.932,468.8762 461.831,473.9682 " fill="none" id="ContactPersonRole-Meeting" style="stroke: #A80036; stroke-width: 1.0;"/><polygon fill="#A80036" points="456.651,474.4974,466.0112,477.5612,461.6251,473.9888,465.1975,469.6027,456.651,474.4974" style="stroke: #A80036; stroke-width: 1.0;"/><text fill="#000000" font-family="sans-serif" font-size="13" lengthAdjust="spacingAndGlyphs" textLength="51" x="734" y="429.0669">Meeting</text><text fill="#000000" font-family="sans-serif" font-size="13" lengthAdjust="spacingAndGlyphs" textLength="7" x="465.6547" y="467.0626">*</text><!--link ContactPersonRole to Person--><path d="M775.856,384.05 C696.296,401.208 550.735,432.4621 539,434 C471.044,442.9058 452.981,433.287 385,442 C335.635,448.327 279.206,461.0587 245.376,469.2971 " fill="none" id="ContactPersonRole-Person" style="stroke: #A80036; stroke-width: 1.0;"/><polygon fill="#A80036" points="240.145,470.5791,249.8384,472.3221,245.0013,469.3891,247.9344,464.552,240.145,470.5791" style="stroke: #A80036; stroke-width: 1.0;"/><text fill="#000000" font-family="sans-serif" font-size="13" lengthAdjust="spacingAndGlyphs" textLength="44" x="625" y="429.0669">Person</text><text fill="#000000" font-family="sans-serif" font-size="13" lengthAdjust="spacingAndGlyphs" textLength="8" x="247.9777" y="462.3893">1</text><!--link Entry to Account--><path d="M763.953,183.739 C698.484,200.028 482.121,253.86 398.446,274.678 " fill="none" id="Entry-Account" style="stroke: #A80036; stroke-width: 1.0;"/><polygon fill="#A80036" points="393.368,275.942,403.0675,277.6505,398.2201,274.7347,401.1359,269.8872,393.368,275.942" style="stroke: #A80036; stroke-width: 1.0;"/><text fill="#000000" font-family="sans-serif" font-size="13" lengthAdjust="spacingAndGlyphs" textLength="52" x="613" y="233.0669">Account</text><text fill="#000000" font-family="sans-serif" font-size="13" lengthAdjust="spacingAndGlyphs" textLength="7" x="401.8653" y="267.581">*</text><!--link CorporateActionEvent to Meeting--><path d="M429,384.13 C429,402.583 429,439.5865 429,460.8925 " fill="none" id="CorporateActionEvent-Meeting" style="stroke: #A80036; stroke-width: 1.0;"/><polygon fill="#A80036" points="429,465.9502,433,456.9502,429,460.9502,425,456.9502,429,465.9502" style="stroke: #A80036; stroke-width: 1.0;"/><text fill="#000000" font-family="sans-serif" font-size="13" lengthAdjust="spacingAndGlyphs" textLength="99" x="430" y="429.0669">RelatedMeeting</text><text fill="#000000" font-family="sans-serif" font-size="13" lengthAdjust="spacingAndGlyphs" textLength="7" x="419.2813" y="454.9813">*</text><!--link Account to Account--><path d="M393.508,276.332 C411.181,274.483 428,277.039 428,284 C428,290.254 414.424,292.952 398.85,292.095 " fill="none" id="Account-Account" style="stroke: #A80036; stroke-width: 1.0;"/><polygon fill="#A80036" points="393.508,291.668,402.1605,296.3727,398.4921,292.0666,402.7982,288.3981,393.508,291.668" style="stroke: #A80036; stroke-width: 1.0;"/><text fill="#000000" font-family="sans-serif" font-size="13" lengthAdjust="spacingAndGlyphs" textLength="94" x="434" y="288.0669">ParentAccount</text><text fill="#000000" font-family="sans-serif" font-size="13" lengthAdjust="spacingAndGlyphs" textLength="8" x="401.7741" y="287.5427">1</text></g></svg>