<?xml version="1.0" encoding="UTF-8" standalone="no"?><svg xmlns="http://www.w3.org/2000/svg" xmlns:xlink="http://www.w3.org/1999/xlink" contentScriptType="application/ecmascript" contentStyleType="text/css" height="1510px" preserveAspectRatio="none" style="width:1535px;height:1510px;" version="1.1" viewBox="0 0 1535 1510" width="1535px" zoomAndPan="magnify"><defs><filter height="300%" id="f10alptrimmk5v" width="300%" x="-1" y="-1"><feGaussianBlur result="blurOut" stdDeviation="2.0"/><feColorMatrix in="blurOut" result="blurOut2" type="matrix" values="0 0 0 0 0 0 0 0 0 0 0 0 0 0 0 0 0 0 .4 0"/><feOffset dx="4.0" dy="4.0" in="blurOut2" result="blurOut3"/><feBlend in="SourceGraphic" in2="blurOut3" mode="normal"/></filter></defs><g><!--cluster ##3793--><!--cluster ##3796--><!--class Meeting--><a target="_top" xlink:actuate="onRequest" xlink:href="../Meeting.html" xlink:show="new" xlink:title="Specifies the physical parameters of a general meeting. Several dates and places can be defined for a  meeting." xlink:type="simple"><rect fill="#FEFECE" filter="url(#f10alptrimmk5v)" height="121.6016" id="Meeting" style="stroke: #A80036; stroke-width: 1.5;" width="364" x="403" y="40"/><rect fill="#FEFECE" height="23.9688" style="stroke: #A80036; stroke-width: 1.5;" width="364" x="403" y="40"/><text fill="#000000" font-family="sans-serif" font-size="12" lengthAdjust="spacingAndGlyphs" textLength="50" x="560" y="56.1387">Meeting</text><line style="stroke: #A80036; stroke-width: 1.5;" x1="404" x2="766" y1="63.9688" y2="63.9688"/><ellipse cx="414" cy="75.8711" fill="#84BE84" rx="3" ry="3" style="stroke: #038048; stroke-width: 1.0;"/><text fill="#000000" font-family="sans-serif" font-size="11" lengthAdjust="spacingAndGlyphs" textLength="75" x="423" y="78.1792">DateAndTime</text><text fill="#000000" font-family="sans-serif" font-size="11" font-style="italic" lengthAdjust="spacingAndGlyphs" textLength="81" x="502" y="78.1792">(ISODateTime)</text><ellipse cx="414" cy="88.6758" fill="#84BE84" rx="3" ry="3" style="stroke: #038048; stroke-width: 1.0;"/><text fill="#000000" font-family="sans-serif" font-size="11" lengthAdjust="spacingAndGlyphs" textLength="63" x="423" y="90.9839">DateStatus</text><text fill="#000000" font-family="sans-serif" font-size="11" font-style="italic" lengthAdjust="spacingAndGlyphs" textLength="142" x="490" y="90.9839">(MeetingDateStatusCode)</text><ellipse cx="414" cy="101.4805" fill="#84BE84" rx="3" ry="3" style="stroke: #038048; stroke-width: 1.0;"/><text fill="#000000" font-family="sans-serif" font-size="11" lengthAdjust="spacingAndGlyphs" textLength="72" x="423" y="103.7886">Identification</text><text fill="#000000" font-family="sans-serif" font-size="11" font-style="italic" lengthAdjust="spacingAndGlyphs" textLength="70" x="499" y="103.7886">(Max35Text)</text><ellipse cx="414" cy="114.2852" fill="#84BE84" rx="3" ry="3" style="stroke: #038048; stroke-width: 1.0;"/><text fill="#000000" font-family="sans-serif" font-size="11" lengthAdjust="spacingAndGlyphs" textLength="113" x="423" y="116.5933">AttendanceRequired</text><text fill="#000000" font-family="sans-serif" font-size="11" font-style="italic" lengthAdjust="spacingAndGlyphs" textLength="92" x="540" y="116.5933">(YesNoIndicator)</text><ellipse cx="414" cy="127.0898" fill="#84BE84" rx="3" ry="3" style="stroke: #038048; stroke-width: 1.0;"/><text fill="#000000" font-family="sans-serif" font-size="11" lengthAdjust="spacingAndGlyphs" textLength="136" x="423" y="129.3979">AttendanceConfirmation</text><text fill="#000000" font-family="sans-serif" font-size="11" font-style="italic" lengthAdjust="spacingAndGlyphs" textLength="77" x="563" y="129.3979">(Max350Text)</text><ellipse cx="414" cy="139.8945" fill="#84BE84" rx="3" ry="3" style="stroke: #038048; stroke-width: 1.0;"/><text fill="#000000" font-family="sans-serif" font-size="11" lengthAdjust="spacingAndGlyphs" textLength="27" x="423" y="142.2026">Type</text><text fill="#000000" font-family="sans-serif" font-size="11" font-style="italic" lengthAdjust="spacingAndGlyphs" textLength="109" x="454" y="142.2026">(MeetingTypeCode)</text><ellipse cx="414" cy="152.6992" fill="#84BE84" rx="3" ry="3" style="stroke: #038048; stroke-width: 1.0;"/><text fill="#000000" font-family="sans-serif" font-size="11" lengthAdjust="spacingAndGlyphs" textLength="151" x="423" y="155.0073">MeetingEventClassification</text><text fill="#000000" font-family="sans-serif" font-size="11" font-style="italic" lengthAdjust="spacingAndGlyphs" textLength="183" x="578" y="155.0073">(MeetingTypeClassificationCode)</text></a><!--class ContactPoint--><a target="_top" xlink:actuate="onRequest" xlink:href="../ContactPoint.html" xlink:show="new" xlink:title="Number, physical or virtual address, used for communication." xlink:type="simple"><rect fill="#EEEEEE" filter="url(#f10alptrimmk5v)" height="23.9688" id="ContactPoint" style="stroke: #A80036; stroke-width: 1.5;" width="87" x="1315.75" y="244"/><rect fill="#EEEEEE" height="23.9688" style="stroke: #A80036; stroke-width: 1.5;" width="87" x="1315.75" y="244"/><text fill="#000000" font-family="sans-serif" font-size="12" lengthAdjust="spacingAndGlyphs" textLength="81" x="1318.75" y="260.1387">ContactPoint</text></a><!--class Deadline--><a target="_top" xlink:actuate="onRequest" xlink:href="../Deadline.html" xlink:show="new" xlink:title="Specifies the different deadlines available for the different processes related to corporate action processes." xlink:type="simple"><rect fill="#EEEEEE" filter="url(#f10alptrimmk5v)" height="23.9688" id="Deadline" style="stroke: #A80036; stroke-width: 1.5;" width="61" x="1072.75" y="1476"/><rect fill="#EEEEEE" height="23.9688" style="stroke: #A80036; stroke-width: 1.5;" width="61" x="1072.75" y="1476"/><text fill="#000000" font-family="sans-serif" font-size="12" lengthAdjust="spacingAndGlyphs" textLength="55" x="1075.75" y="1492.1387">Deadline</text></a><!--class MeetingServicing--><a target="_top" xlink:actuate="onRequest" xlink:href="../MeetingServicing.html" xlink:show="new" xlink:title="Services which consists in notifying the investor or its agent of a meeting, in validating and relaying its instructions and in calculating its entitlement based on its holdings." xlink:type="simple"><rect fill="#EEEEEE" filter="url(#f10alptrimmk5v)" height="23.9688" id="MeetingServicing" style="stroke: #A80036; stroke-width: 1.5;" width="112" x="1114.5" y="1390"/><rect fill="#EEEEEE" height="23.9688" style="stroke: #A80036; stroke-width: 1.5;" width="112" x="1114.5" y="1390"/><text fill="#000000" font-family="sans-serif" font-size="12" lengthAdjust="spacingAndGlyphs" textLength="106" x="1117.5" y="1406.1387">MeetingServicing</text></a><!--class ContactPersonRole--><a target="_top" xlink:actuate="onRequest" xlink:href="../ContactPersonRole.html" xlink:show="new" xlink:title="Person to be contacted in a given organisation. In the corporate action domain (including meeting notifications) , it is the contact person at the party organising the meeting, at the issuer or at an intermediary." xlink:type="simple"><rect fill="#EEEEEE" filter="url(#f10alptrimmk5v)" height="23.9688" id="ContactPersonRole" style="stroke: #A80036; stroke-width: 1.5;" width="126" x="1114" y="1304"/><rect fill="#EEEEEE" height="23.9688" style="stroke: #A80036; stroke-width: 1.5;" width="126" x="1114" y="1304"/><text fill="#000000" font-family="sans-serif" font-size="12" lengthAdjust="spacingAndGlyphs" textLength="120" x="1117" y="1320.1387">ContactPersonRole</text></a><!--class MeetingPartyRole--><a target="_top" xlink:actuate="onRequest" xlink:href="../MeetingPartyRole.html" xlink:show="new" xlink:title="Role played by a party in the context of a meeting." xlink:type="simple"><rect fill="#EEEEEE" filter="url(#f10alptrimmk5v)" height="23.9688" id="MeetingPartyRole" style="stroke: #A80036; stroke-width: 1.5;" width="115" x="1114.75" y="1202"/><rect fill="#EEEEEE" height="23.9688" style="stroke: #A80036; stroke-width: 1.5;" width="115" x="1114.75" y="1202"/><text fill="#000000" font-family="sans-serif" font-size="12" lengthAdjust="spacingAndGlyphs" textLength="109" x="1117.75" y="1218.1387">MeetingPartyRole</text></a><!--class MeetingStatus--><a target="_top" xlink:actuate="onRequest" xlink:href="../MeetingStatus.html" xlink:show="new" xlink:title="Status of the instructions related to a meeting." xlink:type="simple"><rect fill="#EEEEEE" filter="url(#f10alptrimmk5v)" height="23.9688" id="MeetingStatus" style="stroke: #A80036; stroke-width: 1.5;" width="97" x="1114.75" y="1116"/><rect fill="#EEEEEE" height="23.9688" style="stroke: #A80036; stroke-width: 1.5;" width="97" x="1114.75" y="1116"/><text fill="#000000" font-family="sans-serif" font-size="12" lengthAdjust="spacingAndGlyphs" textLength="91" x="1117.75" y="1132.1387">MeetingStatus</text></a><!--class CorporateActionEvent--><a target="_top" xlink:actuate="onRequest" xlink:href="../CorporateActionEvent.html" xlink:show="new" xlink:title="An event determined by a corporation's board of directors, that changes the existing corporate capital structure or financial condition." xlink:type="simple"><rect fill="#EEEEEE" filter="url(#f10alptrimmk5v)" height="23.9688" id="CorporateActionEvent" style="stroke: #A80036; stroke-width: 1.5;" width="143" x="1043.75" y="1030"/><rect fill="#EEEEEE" height="23.9688" style="stroke: #A80036; stroke-width: 1.5;" width="143" x="1043.75" y="1030"/><text fill="#000000" font-family="sans-serif" font-size="12" lengthAdjust="spacingAndGlyphs" textLength="137" x="1046.75" y="1046.1387">CorporateActionEvent</text></a><!--class Quorum--><a target="_top" xlink:actuate="onRequest" xlink:href="../Quorum.html" xlink:show="new" xlink:title="Specifies whether a quorum is required or not together with the quorum parameters." xlink:type="simple"><rect fill="#EEEEEE" filter="url(#f10alptrimmk5v)" height="23.9688" id="Quorum" style="stroke: #A80036; stroke-width: 1.5;" width="55" x="1076.75" y="944"/><rect fill="#EEEEEE" height="23.9688" style="stroke: #A80036; stroke-width: 1.5;" width="55" x="1076.75" y="944"/><text fill="#000000" font-family="sans-serif" font-size="12" lengthAdjust="spacingAndGlyphs" textLength="49" x="1079.75" y="960.1387">Quorum</text></a><!--class VotingCondition--><a target="_top" xlink:actuate="onRequest" xlink:href="../VotingCondition.html" xlink:show="new" xlink:title="Specifies the different voting types, channels and premium." xlink:type="simple"><rect fill="#EEEEEE" filter="url(#f10alptrimmk5v)" height="23.9688" id="VotingCondition" style="stroke: #A80036; stroke-width: 1.5;" width="105" x="1051.75" y="858"/><rect fill="#EEEEEE" height="23.9688" style="stroke: #A80036; stroke-width: 1.5;" width="105" x="1051.75" y="858"/><text fill="#000000" font-family="sans-serif" font-size="12" lengthAdjust="spacingAndGlyphs" textLength="99" x="1054.75" y="874.1387">VotingCondition</text></a><!--class IncentivePremium--><a target="_top" xlink:actuate="onRequest" xlink:href="../IncentivePremium.html" xlink:show="new" xlink:title="Cash premium made available if the securities holder consents or participates to an event." xlink:type="simple"><rect fill="#EEEEEE" filter="url(#f10alptrimmk5v)" height="23.9688" id="IncentivePremium" style="stroke: #A80036; stroke-width: 1.5;" width="116" x="1046.5" y="756"/><rect fill="#EEEEEE" height="23.9688" style="stroke: #A80036; stroke-width: 1.5;" width="116" x="1046.5" y="756"/><text fill="#000000" font-family="sans-serif" font-size="12" lengthAdjust="spacingAndGlyphs" textLength="110" x="1049.5" y="772.1387">IncentivePremium</text></a><!--class MeetingParticipation--><a target="_top" xlink:actuate="onRequest" xlink:href="../MeetingParticipation.html" xlink:show="new" xlink:title="Specifies the number of voting rights and of outstanding securities." xlink:type="simple"><rect fill="#EEEEEE" filter="url(#f10alptrimmk5v)" height="23.9688" id="MeetingParticipation" style="stroke: #A80036; stroke-width: 1.5;" width="135" x="1043.75" y="654"/><rect fill="#EEEEEE" height="23.9688" style="stroke: #A80036; stroke-width: 1.5;" width="135" x="1043.75" y="654"/><text fill="#000000" font-family="sans-serif" font-size="12" lengthAdjust="spacingAndGlyphs" textLength="129" x="1046.75" y="670.1387">MeetingParticipation</text></a><!--class ResolutionProposal--><a target="_top" xlink:actuate="onRequest" xlink:href="../ResolutionProposal.html" xlink:show="new" xlink:title="Conditions that must be met to propose a resolution." xlink:type="simple"><rect fill="#EEEEEE" filter="url(#f10alptrimmk5v)" height="23.9688" id="ResolutionProposal" style="stroke: #A80036; stroke-width: 1.5;" width="127" x="1043.75" y="552"/><rect fill="#EEEEEE" height="23.9688" style="stroke: #A80036; stroke-width: 1.5;" width="127" x="1043.75" y="552"/><text fill="#000000" font-family="sans-serif" font-size="12" lengthAdjust="spacingAndGlyphs" textLength="121" x="1046.75" y="568.1387">ResolutionProposal</text></a><!--class Resolution--><a target="_top" xlink:actuate="onRequest" xlink:href="../Resolution.html" xlink:show="new" xlink:title="Specifies an item in the agenda of the meeting. Some resolutions are submitted to the vote of the security holders, some are presented for information only." xlink:type="simple"><rect fill="#EEEEEE" filter="url(#f10alptrimmk5v)" height="23.9688" id="Resolution" style="stroke: #A80036; stroke-width: 1.5;" width="72" x="1071" y="450"/><rect fill="#EEEEEE" height="23.9688" style="stroke: #A80036; stroke-width: 1.5;" width="72" x="1071" y="450"/><text fill="#000000" font-family="sans-serif" font-size="12" lengthAdjust="spacingAndGlyphs" textLength="66" x="1074" y="466.1387">Resolution</text></a><!--class ProxyAppointmentCondition--><a target="_top" xlink:actuate="onRequest" xlink:href="../ProxyAppointmentCondition.html" xlink:show="new" xlink:title="Conditions that must be met to appoint a proxy." xlink:type="simple"><rect fill="#EEEEEE" filter="url(#f10alptrimmk5v)" height="23.9688" id="ProxyAppointmentCondition" style="stroke: #A80036; stroke-width: 1.5;" width="178" x="1112.5" y="348"/><rect fill="#EEEEEE" height="23.9688" style="stroke: #A80036; stroke-width: 1.5;" width="178" x="1112.5" y="348"/><text fill="#000000" font-family="sans-serif" font-size="12" lengthAdjust="spacingAndGlyphs" textLength="172" x="1115.5" y="364.1387">ProxyAppointmentCondition</text></a><!--class AdditionalRight--><a target="_top" xlink:actuate="onRequest" xlink:href="../AdditionalRight.html" xlink:show="new" xlink:title="Specifies how the additional rights can be granted to the shareholder. These rights can be exercised at shareholders meetings (for example, the right to ask questions, the right to add items to the agenda or table draft resolutions)." xlink:type="simple"><rect fill="#EEEEEE" filter="url(#f10alptrimmk5v)" height="23.9688" id="AdditionalRight" style="stroke: #A80036; stroke-width: 1.5;" width="100" x="1180" y="244"/><rect fill="#EEEEEE" height="23.9688" style="stroke: #A80036; stroke-width: 1.5;" width="100" x="1180" y="244"/><text fill="#000000" font-family="sans-serif" font-size="12" lengthAdjust="spacingAndGlyphs" textLength="94" x="1183" y="260.1387">AdditionalRight</text></a><!--class PowerOfAttorneyRequirements--><a target="_top" xlink:actuate="onRequest" xlink:href="../PowerOfAttorneyRequirements.html" xlink:show="new" xlink:title="Specifies the conditions to be filled in to obtain a valid power of attorney." xlink:type="simple"><rect fill="#EEEEEE" filter="url(#f10alptrimmk5v)" height="23.9688" id="PowerOfAttorneyRequirements" style="stroke: #A80036; stroke-width: 1.5;" width="197" x="1168.75" y="89"/><rect fill="#EEEEEE" height="23.9688" style="stroke: #A80036; stroke-width: 1.5;" width="197" x="1168.75" y="89"/><text fill="#000000" font-family="sans-serif" font-size="12" lengthAdjust="spacingAndGlyphs" textLength="191" x="1171.75" y="105.1387">PowerOfAttorneyRequirements</text></a><!--link Deadline to ContactPoint--><!--link MeetingServicing to Deadline--><!--link ContactPersonRole to MeetingServicing--><!--link MeetingPartyRole to ContactPersonRole--><!--link MeetingStatus to MeetingPartyRole--><!--link CorporateActionEvent to MeetingStatus--><!--link Quorum to CorporateActionEvent--><!--link VotingCondition to Quorum--><!--link IncentivePremium to VotingCondition--><!--link MeetingParticipation to IncentivePremium--><!--link ResolutionProposal to MeetingParticipation--><!--link Resolution to ResolutionProposal--><!--link ProxyAppointmentCondition to Resolution--><!--link AdditionalRight to ProxyAppointmentCondition--><!--link PowerOfAttorneyRequirements to AdditionalRight--><!--link Meeting to ContactPoint--><path d="M767.136,140.69 C846.643,156.53 941.144,173.92 1027,186 C1065.45,191.41 1075.72,187.51 1114,194 C1186.28,206.25 1268.7,228.53 1317.15,242.51 " fill="none" id="Meeting-ContactPoint" style="stroke: #A80036; stroke-width: 1.0;"/><polygon fill="#A80036" points="1322.02,243.92,1314.4826,237.5807,1317.2162,242.5332,1312.2637,245.2668,1322.02,243.92" style="stroke: #A80036; stroke-width: 1.0;"/><text fill="#000000" font-family="sans-serif" font-size="13" lengthAdjust="spacingAndGlyphs" textLength="105" x="1196" y="207.0669">MeetingLocation</text><text fill="#000000" font-family="sans-serif" font-size="13" lengthAdjust="spacingAndGlyphs" textLength="23" x="1288.0662" y="233.1371">1..*</text><!--link Meeting to Deadline--><path d="M402.993,115.2 C233.233,132.67 6,171.63 6,255 C6,255 6,255 6,1403 C6,1457.5239 878.917,1481.6145 1067.4,1486.1807 " fill="none" id="Meeting-Deadline" style="stroke: #A80036; stroke-width: 1.0;"/><polygon fill="#A80036" points="1072.51,1486.3038,1063.6158,1482.0737,1067.5117,1486.1752,1063.4101,1490.0711,1072.51,1486.3038" style="stroke: #A80036; stroke-width: 1.0;"/><text fill="#000000" font-family="sans-serif" font-size="13" lengthAdjust="spacingAndGlyphs" textLength="56" x="7" y="874.0669">Deadline</text><text fill="#000000" font-family="sans-serif" font-size="13" lengthAdjust="spacingAndGlyphs" textLength="7" x="1057.7924" y="1480.4427">*</text><!--link Meeting to MeetingServicing--><path d="M402.774,127.55 C271.721,151.22 118,192.35 118,255 C118,255 118,255 118,1317 C118,1367.049 884.576,1392.861 1108.98,1399.345 " fill="none" id="Meeting-MeetingServicing" style="stroke: #A80036; stroke-width: 1.0;"/><polygon fill="#A80036" points="1114.18,1399.494,1105.3101,1395.2132,1109.1825,1399.3369,1105.0588,1403.2092,1114.18,1399.494" style="stroke: #A80036; stroke-width: 1.0;"/><text fill="#000000" font-family="sans-serif" font-size="13" lengthAdjust="spacingAndGlyphs" textLength="109" x="119" y="823.0669">MeetingServicing</text><text fill="#000000" font-family="sans-serif" font-size="13" lengthAdjust="spacingAndGlyphs" textLength="24" x="1082.5729" y="1394.5197">0..1</text><!--link Meeting to ContactPersonRole--><path d="M402.914,113.44 C313.195,130.07 224,168.38 224,255 C224,255 224,255 224,718 C224,786.338 253,800.662 253,869 C253,869 253,869 253,1215 C253,1301.058 894.703,1313.13 1108.57,1314.764 " fill="none" id="Meeting-ContactPersonRole" style="stroke: #A80036; stroke-width: 1.0;"/><polygon fill="#A80036" points="1113.85,1314.803,1104.8846,1310.726,1108.8502,1314.7601,1104.816,1318.7257,1113.85,1314.803" style="stroke: #A80036; stroke-width: 1.0;"/><text fill="#000000" font-family="sans-serif" font-size="13" lengthAdjust="spacingAndGlyphs" textLength="44" x="235" y="772.0669">Person</text><text fill="#000000" font-family="sans-serif" font-size="13" lengthAdjust="spacingAndGlyphs" textLength="7" x="1098.8736" y="1309.8784">*</text><!--link Meeting to MeetingPartyRole--><path d="M402.728,138.49 C347.421,160.93 301,197.03 301,255 C301,255 301,255 301,616 C301,706.358 324,727.642 324,818 C324,818 324,818 324,1129 C324,1207.958 913.71,1213.642 1109.6,1213.352 " fill="none" id="Meeting-MeetingPartyRole" style="stroke: #A80036; stroke-width: 1.0;"/><polygon fill="#A80036" points="1114.71,1213.343,1105.6986,1209.3687,1109.71,1213.3573,1105.7215,1217.3687,1114.71,1213.343" style="stroke: #A80036; stroke-width: 1.0;"/><text fill="#000000" font-family="sans-serif" font-size="13" lengthAdjust="spacingAndGlyphs" textLength="60" x="316" y="721.0669">PartyRole</text><text fill="#000000" font-family="sans-serif" font-size="13" lengthAdjust="spacingAndGlyphs" textLength="7" x="1099.9244" y="1208.4173">*</text><!--link Meeting to MeetingStatus--><path d="M429.36,162.01 C396.742,184.86 372,215.27 372,255 C372,255 372,255 372,514 C372,649.497 395,682.503 395,818 C395,818 395,818 395,1043 C395,1115.013 935.476,1125.318 1109.62,1126.769 " fill="none" id="Meeting-MeetingStatus" style="stroke: #A80036; stroke-width: 1.0;"/><polygon fill="#A80036" points="1114.67,1126.809,1105.7046,1122.732,1109.6702,1126.7661,1105.636,1130.7317,1114.67,1126.809" style="stroke: #A80036; stroke-width: 1.0;"/><text fill="#000000" font-family="sans-serif" font-size="13" lengthAdjust="spacingAndGlyphs" textLength="42" x="387" y="670.0669">Status</text><text fill="#000000" font-family="sans-serif" font-size="13" lengthAdjust="spacingAndGlyphs" textLength="7" x="1099.8691" y="1121.6447">*</text><!--link Meeting to CorporateActionEvent--><path d="M491.868,162.09 C465.103,186.86 443,218.4 443,255 C443,255 443,255 443,565 C443,591.237 438.991,598.46 445,624 C455.294,667.754 487,671.052 487,716 C487,716 487,716 487,957 C487,1012.021 870.597,1032.347 1038.19,1038.603 " fill="none" id="Meeting-CorporateActionEvent" style="stroke: #A80036; stroke-width: 1.0;"/><polygon fill="#A80036" points="1043.57,1038.801,1034.7248,1034.4695,1038.5734,1038.6153,1034.4277,1042.464,1043.57,1038.801" style="stroke: #A80036; stroke-width: 1.0;"/><text fill="#000000" font-family="sans-serif" font-size="13" lengthAdjust="spacingAndGlyphs" textLength="100" x="446" y="619.0669">CorporateEvent</text><text fill="#000000" font-family="sans-serif" font-size="13" lengthAdjust="spacingAndGlyphs" textLength="24" x="1011.8221" y="1033.9422">0..1</text><!--link Meeting to Quorum--><path d="M542.674,162 C527.469,189.12 514,222.35 514,255 C514,255 514,255 514,412 C514,486.26 529.591,503.57 546,576 C555.027,615.845 569,624.145 569,665 C569,665 569,665 569,871 C569,922.134 955.349,947.022 1071.41,953.345 " fill="none" id="Meeting-Quorum" style="stroke: #A80036; stroke-width: 1.0;"/><polygon fill="#A80036" points="1076.73,953.632,1067.9604,949.1493,1071.7374,953.3606,1067.5261,957.1376,1076.73,953.632" style="stroke: #A80036; stroke-width: 1.0;"/><text fill="#000000" font-family="sans-serif" font-size="13" lengthAdjust="spacingAndGlyphs" textLength="52" x="547" y="568.0669">Quorum</text><text fill="#000000" font-family="sans-serif" font-size="13" lengthAdjust="spacingAndGlyphs" textLength="7" x="1061.7256" y="947.3395">*</text><!--link Meeting to VotingCondition--><path d="M585,162.31 C585,190.48 585,224.45 585,255 C585,255 585,255 585,463 C585,489.26 575.073,499.15 588,522 C697.113,714.893 963.037,821.559 1064.12,856.251 " fill="none" id="Meeting-VotingCondition" style="stroke: #A80036; stroke-width: 1.0;"/><polygon fill="#A80036" points="1069.09,857.947,1061.8631,851.2558,1064.3577,856.3329,1059.2806,858.8275,1069.09,857.947" style="stroke: #A80036; stroke-width: 1.0;"/><text fill="#000000" font-family="sans-serif" font-size="13" lengthAdjust="spacingAndGlyphs" textLength="101" x="589" y="517.0669">VotingCondition</text><text fill="#000000" font-family="sans-serif" font-size="13" lengthAdjust="spacingAndGlyphs" textLength="7" x="1047.4569" y="846.977">*</text><!--link Meeting to IncentivePremium--><path d="M602.472,162.26 C605.406,172.82 608.354,183.71 611,194 C642.825,317.73 603.939,368.51 676,474 C779.214,625.094 988.236,720.929 1070.06,754.033 " fill="none" id="Meeting-IncentivePremium" style="stroke: #A80036; stroke-width: 1.0;"/><polygon fill="#A80036" points="1074.8,755.936,1067.9315,748.8774,1070.1582,754.0776,1064.958,756.3043,1074.8,755.936" style="stroke: #A80036; stroke-width: 1.0;"/><text fill="#000000" font-family="sans-serif" font-size="13" lengthAdjust="spacingAndGlyphs" textLength="115" x="677" y="466.0669">IncentivePremium</text><text fill="#000000" font-family="sans-serif" font-size="13" lengthAdjust="spacingAndGlyphs" textLength="24" x="1035.1219" y="744.9622">0..1</text><!--link Meeting to MeetingParticipation--><path d="M656.055,162.21 C665.532,172.2 674.536,182.94 682,194 C742.374,283.49 704.747,334.77 771,420 C818.298,480.85 1020.15,608.767 1088.37,651.081 " fill="none" id="Meeting-MeetingParticipation" style="stroke: #A80036; stroke-width: 1.0;"/><polygon fill="#A80036" points="1092.67,653.743,1087.1395,645.5935,1088.424,651.1026,1082.9149,652.3871,1092.67,653.743" style="stroke: #A80036; stroke-width: 1.0;"/><text fill="#000000" font-family="sans-serif" font-size="13" lengthAdjust="spacingAndGlyphs" textLength="79" x="772" y="415.0669">Participation</text><text fill="#000000" font-family="sans-serif" font-size="13" lengthAdjust="spacingAndGlyphs" textLength="7" x="1077.0248" y="642.9613">*</text><!--link Meeting to ResolutionProposal--><path d="M718.312,162.28 C731.105,171.65 743.009,182.2 753,194 C807.126,257.94 763.416,305.99 815,372 C819.962,378.35 1018.49,506.15 1085.31,549.077 " fill="none" id="Meeting-ResolutionProposal" style="stroke: #A80036; stroke-width: 1.0;"/><polygon fill="#A80036" points="1089.52,551.78,1084.1258,543.5397,1085.3185,549.0694,1079.7888,550.262,1089.52,551.78" style="stroke: #A80036; stroke-width: 1.0;"/><text fill="#000000" font-family="sans-serif" font-size="13" lengthAdjust="spacingAndGlyphs" textLength="188" x="816" y="364.0669">ResolutionProposalConditions</text><text fill="#000000" font-family="sans-serif" font-size="13" lengthAdjust="spacingAndGlyphs" textLength="7" x="1074.1563" y="541.0106">*</text><!--link Meeting to Resolution--><path d="M766.385,162.04 C786.474,171.52 806.11,182.16 824,194 C887.955,236.33 880.848,274.49 944,318 C971.872,337.21 986.922,327.69 1014,348 C1051.16,375.87 1082.67,421.56 1097.65,445.41 " fill="none" id="Meeting-Resolution" style="stroke: #A80036; stroke-width: 1.0;"/><polygon fill="#A80036" points="1100.43,449.87,1099.0815,440.1139,1097.7928,445.622,1092.2847,444.3334,1100.43,449.87" style="stroke: #A80036; stroke-width: 1.0;"/><text fill="#000000" font-family="sans-serif" font-size="13" lengthAdjust="spacingAndGlyphs" textLength="78" x="945" y="313.0669">AgendaItem</text><text fill="#000000" font-family="sans-serif" font-size="13" lengthAdjust="spacingAndGlyphs" textLength="7" x="1088.6247" y="438.8735">*</text><!--link Meeting to ProxyAppointmentCondition--><path d="M767.155,140.54 C810.702,153.89 855.874,171.38 895,194 C937.459,218.54 933.644,243.64 975,270 C1032.3,306.52 1107,332.33 1154.5,346.44 " fill="none" id="Meeting-ProxyAppointmentCondition" style="stroke: #A80036; stroke-width: 1.0;"/><polygon fill="#A80036" points="1159.58,347.93,1152.0775,341.5494,1154.7839,346.5169,1149.8164,349.2232,1159.58,347.93" style="stroke: #A80036; stroke-width: 1.0;"/><text fill="#000000" font-family="sans-serif" font-size="13" lengthAdjust="spacingAndGlyphs" textLength="185" x="976" y="260.0669">ProxyAppointmentConditions</text><text fill="#000000" font-family="sans-serif" font-size="13" lengthAdjust="spacingAndGlyphs" textLength="7" x="1135.6231" y="336.9542">*</text><!--link Meeting to AdditionalRight--><path d="M767.129,135.64 C833.831,150.36 909.282,169.84 976,194 C992.82,200.09 995.072,206.22 1012,212 C1027.25,217.21 1115.42,233.93 1174.86,244.92 " fill="none" id="Meeting-AdditionalRight" style="stroke: #A80036; stroke-width: 1.0;"/><polygon fill="#A80036" points="1179.8,245.83,1171.665,240.2783,1174.8813,244.9318,1170.2279,248.1482,1179.8,245.83" style="stroke: #A80036; stroke-width: 1.0;"/><text fill="#000000" font-family="sans-serif" font-size="13" lengthAdjust="spacingAndGlyphs" textLength="95" x="1013" y="207.0669">AdditionalRight</text><text fill="#000000" font-family="sans-serif" font-size="13" lengthAdjust="spacingAndGlyphs" textLength="7" x="1165.1334" y="239.6315">*</text><!--link Meeting to PowerOfAttorneyRequirements--><path d="M767.315,101 C894.007,101 1058.31,101 1163.23,101 " fill="none" id="Meeting-PowerOfAttorneyRequirements" style="stroke: #A80036; stroke-width: 1.0;"/><polygon fill="#A80036" points="1168.49,101,1159.49,97,1163.49,101,1159.49,105,1168.49,101" style="stroke: #A80036; stroke-width: 1.0;"/><text fill="#000000" font-family="sans-serif" font-size="13" lengthAdjust="spacingAndGlyphs" textLength="196" x="869.25" y="93.0669">PowerOfAttorneyRequirements</text><text fill="#000000" font-family="sans-serif" font-size="13" lengthAdjust="spacingAndGlyphs" textLength="8" x="1152.8429" y="96.5276">1</text><!--link ContactPoint to CorporateActionEvent--><path d="M1369.47,268.24 C1384.92,286.05 1412,322.48 1412,359 C1412,359 1412,359 1412,514 C1412,541.645 1419.75,551.47 1407,576 C1381.96,624.17 1345.61,610.6 1313,654 C1294.94,678.027 1286,685.945 1286,716 C1286,716 1286,716 1286,957 C1286,1002.317 1237.02,1023.187 1191.49,1032.798 " fill="none" id="ContactPoint-CorporateActionEvent" style="stroke: #A80036; stroke-width: 1.0;"/><polygon fill="#A80036" points="1186.53,1033.805,1196.1481,1035.9246,1191.429,1032.8052,1194.5484,1028.0861,1186.53,1033.805" style="stroke: #A80036; stroke-width: 1.0;"/><text fill="#000000" font-family="sans-serif" font-size="13" lengthAdjust="spacingAndGlyphs" textLength="188" x="1314" y="670.0669">RelatedCorporateActionEvent</text><text fill="#000000" font-family="sans-serif" font-size="13" lengthAdjust="spacingAndGlyphs" textLength="24" x="1194.7279" y="1028.2366">0..1</text><!--link ContactPoint to ProxyAppointmentCondition--><path d="M1315.67,266.78 C1263.67,278.61 1183.13,297.3 1181,300 C1170.9,312.83 1179.66,331.04 1188.56,343.83 " fill="none" id="ContactPoint-ProxyAppointmentCondition" style="stroke: #A80036; stroke-width: 1.0;"/><polygon fill="#A80036" points="1191.55,347.94,1189.4874,338.3096,1188.6074,343.8976,1183.0194,343.0176,1191.55,347.94" style="stroke: #A80036; stroke-width: 1.0;"/><text fill="#000000" font-family="sans-serif" font-size="13" lengthAdjust="spacingAndGlyphs" textLength="166" x="1182" y="313.0669">RelatedProxyAppointment</text><text fill="#000000" font-family="sans-serif" font-size="13" lengthAdjust="spacingAndGlyphs" textLength="24" x="1158.6609" y="336.9676">0..1</text><!--link ContactPoint to VotingCondition--><path d="M1359.01,268.39 C1358.81,280.75 1357.84,301 1354,318 C1350.98,331.39 1185.95,768.168 1179,780 C1162.06,808.831 1135.68,837.578 1119.15,854.302 " fill="none" id="ContactPoint-VotingCondition" style="stroke: #A80036; stroke-width: 1.0;"/><polygon fill="#A80036" points="1115.57,857.885,1124.7567,854.3346,1119.0998,854.3438,1119.0907,848.6869,1115.57,857.885" style="stroke: #A80036; stroke-width: 1.0;"/><text fill="#000000" font-family="sans-serif" font-size="13" lengthAdjust="spacingAndGlyphs" textLength="132" x="1267" y="568.0669">ContactPointForVote</text><text fill="#000000" font-family="sans-serif" font-size="13" lengthAdjust="spacingAndGlyphs" textLength="24" x="1089.9925" y="846.8937">0..1</text><!--link ContactPoint to ContactPoint--><path d="M1402.31,246.37 C1421,245.58 1437,248.79 1437,256 C1437,262.53 1423.86,265.78 1407.49,265.75 " fill="none" id="ContactPoint-ContactPoint" style="stroke: #A80036; stroke-width: 1.0;"/><polygon fill="#A80036" points="1402.31,265.63,1411.2162,269.8346,1407.3087,265.7443,1411.3991,261.8367,1402.31,265.63" style="stroke: #A80036; stroke-width: 1.0;"/><text fill="#000000" font-family="sans-serif" font-size="13" lengthAdjust="spacingAndGlyphs" textLength="80" x="1443" y="260.0669">MainContact</text><text fill="#000000" font-family="sans-serif" font-size="13" lengthAdjust="spacingAndGlyphs" textLength="8" x="1410.6926" y="261.9128">1</text><!--link Deadline to CorporateActionEvent--><path d="M1097.45,1475.9006 C1090.09,1460.1147 1078,1430.084 1078,1403 C1078,1127 1078,1127 1078,1127 C1078,1101.218 1092.78,1074.474 1103.66,1058.281 " fill="none" id="Deadline-CorporateActionEvent" style="stroke: #A80036; stroke-width: 1.0;"/><polygon fill="#A80036" points="1106.6,1054.003,1098.1966,1059.1394,1103.7606,1058.1185,1104.7814,1063.6825,1106.6,1054.003" style="stroke: #A80036; stroke-width: 1.0;"/><text fill="#000000" font-family="sans-serif" font-size="13" lengthAdjust="spacingAndGlyphs" textLength="188" x="1079" y="1269.0669">RelatedCorporateActionEvent</text><text fill="#000000" font-family="sans-serif" font-size="13" lengthAdjust="spacingAndGlyphs" textLength="24" x="1072.6694" y="1074.1487">0..1</text></g></svg>