<?xml version="1.0" encoding="UTF-8" standalone="no"?><svg xmlns="http://www.w3.org/2000/svg" xmlns:xlink="http://www.w3.org/1999/xlink" contentScriptType="application/ecmascript" contentStyleType="text/css" height="504px" preserveAspectRatio="none" style="width:696px;height:504px;" version="1.1" viewBox="0 0 696 504" width="696px" zoomAndPan="magnify"><defs><filter height="300%" id="ftkkgal5ywawu" width="300%" x="-1" y="-1"><feGaussianBlur result="blurOut" stdDeviation="2.0"/><feColorMatrix in="blurOut" result="blurOut2" type="matrix" values="0 0 0 0 0 0 0 0 0 0 0 0 0 0 0 0 0 0 .4 0"/><feOffset dx="4.0" dy="4.0" in="blurOut2" result="blurOut3"/><feBlend in="SourceGraphic" in2="blurOut3" mode="normal"/></filter></defs><g><!--cluster ##11842--><!--cluster ##11845--><!--class Negotiation--><a target="_top" xlink:actuate="onRequest" xlink:href="../Negotiation.html" xlink:show="new" xlink:title="Decision making on the transfer of a financial instrument." xlink:type="simple"><rect fill="#FEFECE" filter="url(#ftkkgal5ywawu)" height="57.5781" id="Negotiation" style="stroke: #A80036; stroke-width: 1.5;" width="236" x="274" y="40"/><rect fill="#FEFECE" height="23.9688" style="stroke: #A80036; stroke-width: 1.5;" width="236" x="274" y="40"/><text fill="#000000" font-family="sans-serif" font-size="12" lengthAdjust="spacingAndGlyphs" textLength="73" x="355.5" y="56.1387">Negotiation</text><line style="stroke: #A80036; stroke-width: 1.5;" x1="275" x2="509" y1="63.9688" y2="63.9688"/><ellipse cx="285" cy="75.8711" fill="#84BE84" rx="3" ry="3" style="stroke: #038048; stroke-width: 1.0;"/><text fill="#000000" font-family="sans-serif" font-size="11" lengthAdjust="spacingAndGlyphs" textLength="84" x="294" y="78.1792">TradingMethod</text><text fill="#000000" font-family="sans-serif" font-size="11" font-style="italic" lengthAdjust="spacingAndGlyphs" textLength="121" x="382" y="78.1792">(TradingMethodCode)</text><ellipse cx="285" cy="88.6758" fill="#84BE84" rx="3" ry="3" style="stroke: #038048; stroke-width: 1.0;"/><text fill="#000000" font-family="sans-serif" font-size="11" lengthAdjust="spacingAndGlyphs" textLength="136" x="294" y="90.9839">NegotiationIdentification</text><text fill="#000000" font-family="sans-serif" font-size="11" font-style="italic" lengthAdjust="spacingAndGlyphs" textLength="70" x="434" y="90.9839">(Max35Text)</text></a><!--class Trade--><a target="_top" xlink:actuate="onRequest" xlink:href="../Trade.html" xlink:show="new" xlink:title="Result of an order between at least two parties. A trade relates to the delivery of goods and services, cash or securities." xlink:type="simple"><rect fill="#EEEEEE" filter="url(#ftkkgal5ywawu)" height="23.9688" id="Trade" style="stroke: #A80036; stroke-width: 1.5;" width="42" x="182.5" y="368"/><rect fill="#EEEEEE" height="23.9688" style="stroke: #A80036; stroke-width: 1.5;" width="42" x="182.5" y="368"/><text fill="#000000" font-family="sans-serif" font-size="12" lengthAdjust="spacingAndGlyphs" textLength="36" x="185.5" y="384.1387">Trade</text></a><!--class System--><a target="_top" xlink:actuate="onRequest" xlink:href="../System.html" xlink:show="new" xlink:title="Set of integrated applications that provides centralised services such as clearing, netting, reconciliation, trading and/or settlement." xlink:type="simple"><rect fill="#EEEEEE" filter="url(#ftkkgal5ywawu)" height="23.9688" id="System" style="stroke: #A80036; stroke-width: 1.5;" width="51" x="155.75" y="470"/><rect fill="#EEEEEE" height="23.9688" style="stroke: #A80036; stroke-width: 1.5;" width="51" x="155.75" y="470"/><text fill="#000000" font-family="sans-serif" font-size="12" lengthAdjust="spacingAndGlyphs" textLength="45" x="158.75" y="486.1387">System</text></a><!--class Quote--><a target="_top" xlink:actuate="onRequest" xlink:href="../Quote.html" xlink:show="new" xlink:title="Indicates whether the quote details are indicated as an offer, a bid or a mid of a security, commodity, currency (the latter being an average of the offer and the bid)." xlink:type="simple"><rect fill="#EEEEEE" filter="url(#ftkkgal5ywawu)" height="23.9688" id="Quote" style="stroke: #A80036; stroke-width: 1.5;" width="44" x="103.5" y="368"/><rect fill="#EEEEEE" height="23.9688" style="stroke: #A80036; stroke-width: 1.5;" width="44" x="103.5" y="368"/><text fill="#000000" font-family="sans-serif" font-size="12" lengthAdjust="spacingAndGlyphs" textLength="38" x="106.5" y="384.1387">Quote</text></a><!--class BuyOrSellIndicationOfInterest--><a target="_top" xlink:actuate="onRequest" xlink:href="../BuyOrSellIndicationOfInterest.html" xlink:show="new" xlink:title="Intention to buy or sell a financial Instrument." xlink:type="simple"><rect fill="#EEEEEE" filter="url(#ftkkgal5ywawu)" height="23.9688" id="BuyOrSellIndicationOfInterest" style="stroke: #A80036; stroke-width: 1.5;" width="187" x="37.75" y="282"/><rect fill="#EEEEEE" height="23.9688" style="stroke: #A80036; stroke-width: 1.5;" width="187" x="37.75" y="282"/><text fill="#000000" font-family="sans-serif" font-size="12" lengthAdjust="spacingAndGlyphs" textLength="181" x="40.75" y="298.1387">BuyOrSellIndicationOfInterest</text></a><!--class SecuritiesOrder--><a target="_top" xlink:actuate="onRequest" xlink:href="../SecuritiesOrder.html" xlink:show="new" xlink:title="Intention to transfer an ownership of a financial instrument." xlink:type="simple"><rect fill="#EEEEEE" filter="url(#ftkkgal5ywawu)" height="23.9688" id="SecuritiesOrder" style="stroke: #A80036; stroke-width: 1.5;" width="103" x="38.75" y="180"/><rect fill="#EEEEEE" height="23.9688" style="stroke: #A80036; stroke-width: 1.5;" width="103" x="38.75" y="180"/><text fill="#000000" font-family="sans-serif" font-size="12" lengthAdjust="spacingAndGlyphs" textLength="97" x="41.75" y="196.1387">SecuritiesOrder</text></a><!--link System to Trade--><!--link Trade to System--><path d="M184.6,392.219 C174.716,399.375 163.466,409.625 158,422 C151.591,436.5096 159.712,453.405 168.021,465.388 " fill="none" id="Trade-System" style="stroke: #A80036; stroke-width: 1.0;"/><polygon fill="#A80036" points="171.064,469.5671,168.9991,459.9371,168.1205,465.5254,162.5323,464.6468,171.064,469.5671" style="stroke: #A80036; stroke-width: 1.0;"/><text fill="#000000" font-family="sans-serif" font-size="13" lengthAdjust="spacingAndGlyphs" textLength="49" x="159" y="435.0669">System</text><text fill="#000000" font-family="sans-serif" font-size="13" lengthAdjust="spacingAndGlyphs" textLength="8" x="157.2235" y="458.9878">1</text><!--link Quote to System--><!--link BuyOrSellIndicationOfInterest to Quote--><!--link SecuritiesOrder to BuyOrSellIndicationOfInterest--><!--link Negotiation to Trade--><path d="M405.444,98.278 C429.301,153.08 470.824,273.972 407,338 C382.27,362.809 277.936,373.559 228.798,377.313 " fill="none" id="Negotiation-Trade" style="stroke: #A80036; stroke-width: 1.0;"/><polygon fill="#A80036" points="223.653,377.696,232.9244,381.019,228.6393,377.326,232.3323,373.0409,223.653,377.696" style="stroke: #A80036; stroke-width: 1.0;"/><text fill="#000000" font-family="sans-serif" font-size="13" lengthAdjust="spacingAndGlyphs" textLength="98" x="442" y="247.0669">TradeExecution</text><text fill="#000000" font-family="sans-serif" font-size="13" lengthAdjust="spacingAndGlyphs" textLength="8" x="232.5594" y="369.8092">1</text><!--link Negotiation to System--><path d="M504.585,98.105 C547.82,116.237 587,145.281 587,191 C587,191 587,191 587,381 C587,458.3017 306.006,476.1949 211.551,480.026 " fill="none" id="Negotiation-System" style="stroke: #A80036; stroke-width: 1.0;"/><polygon fill="#A80036" points="206.397,480.2285,215.5467,483.8731,211.3932,480.0328,215.2335,475.8793,206.397,480.2285" style="stroke: #A80036; stroke-width: 1.0;"/><text fill="#000000" font-family="sans-serif" font-size="13" lengthAdjust="spacingAndGlyphs" textLength="96" x="588" y="298.0669">TradingSystem</text><text fill="#000000" font-family="sans-serif" font-size="13" lengthAdjust="spacingAndGlyphs" textLength="24" x="214.5229" y="474.0664">0..1</text><!--link Negotiation to Quote--><path d="M393.117,98.152 C392.997,126.726 389.261,171.294 370,204 C318.349,291.702 203.529,347.233 151.517,368.794 " fill="none" id="Negotiation-Quote" style="stroke: #A80036; stroke-width: 1.0;"/><polygon fill="#A80036" points="146.684,370.774,156.5286,371.0634,151.3108,368.8784,153.4957,363.6606,146.684,370.774" style="stroke: #A80036; stroke-width: 1.0;"/><text fill="#000000" font-family="sans-serif" font-size="13" lengthAdjust="spacingAndGlyphs" textLength="39" x="350" y="247.0669">Quote</text><text fill="#000000" font-family="sans-serif" font-size="13" lengthAdjust="spacingAndGlyphs" textLength="8" x="155.6558" y="360.5552">1</text><!--link Negotiation to BuyOrSellIndicationOfInterest--><path d="M329.624,98.032 C300.377,112.87 266.091,132.825 239,156 C195.488,193.222 157.34,250.188 140.366,277.433 " fill="none" id="Negotiation-BuyOrSellIndicationOfInterest" style="stroke: #A80036; stroke-width: 1.0;"/><polygon fill="#A80036" points="137.635,281.854,145.7672,276.2981,140.2621,277.5998,138.9604,272.0947,137.635,281.854" style="stroke: #A80036; stroke-width: 1.0;"/><text fill="#000000" font-family="sans-serif" font-size="13" lengthAdjust="spacingAndGlyphs" textLength="124" x="240" y="196.0669">IndicationOfInterest</text><text fill="#000000" font-family="sans-serif" font-size="13" lengthAdjust="spacingAndGlyphs" textLength="24" x="110.3611" y="270.852">0..1</text><!--link Negotiation to SecuritiesOrder--><path d="M273.711,77.749 C197.45,85.493 108.164,100.675 84,130 C73.7542,142.434 77.7265,161.498 82.6828,175 " fill="none" id="Negotiation-SecuritiesOrder" style="stroke: #A80036; stroke-width: 1.0;"/><polygon fill="#A80036" points="84.5287,179.7,84.9603,169.8606,82.7002,175.0463,77.5145,172.7862,84.5287,179.7" style="stroke: #A80036; stroke-width: 1.0;"/><text fill="#000000" font-family="sans-serif" font-size="13" lengthAdjust="spacingAndGlyphs" textLength="99" x="85" y="143.0669">SecuritiesOrder</text><text fill="#000000" font-family="sans-serif" font-size="13" lengthAdjust="spacingAndGlyphs" textLength="7" x="73.1429" y="168.9041">*</text></g></svg>