<?xml version="1.0" encoding="UTF-8" standalone="no"?><svg xmlns="http://www.w3.org/2000/svg" xmlns:xlink="http://www.w3.org/1999/xlink" contentScriptType="application/ecmascript" contentStyleType="text/css" height="538px" preserveAspectRatio="none" style="width:661px;height:538px;" version="1.1" viewBox="0 0 661 538" width="661px" zoomAndPan="magnify"><defs><filter height="300%" id="f12u50xcjc9g0e" width="300%" x="-1" y="-1"><feGaussianBlur result="blurOut" stdDeviation="2.0"/><feColorMatrix in="blurOut" result="blurOut2" type="matrix" values="0 0 0 0 0 0 0 0 0 0 0 0 0 0 0 0 0 0 .4 0"/><feOffset dx="4.0" dy="4.0" in="blurOut2" result="blurOut3"/><feBlend in="SourceGraphic" in2="blurOut3" mode="normal"/></filter></defs><g><!--cluster ##14922--><!--cluster ##14928--><!--cluster ##14931--><!--class ObligationFulfilment--><a target="_top" xlink:actuate="onRequest" xlink:href="../ObligationFulfilment.html" xlink:show="new" xlink:title="Processes by which an obligation is extinguished fully or partially." xlink:type="simple"><rect fill="#FEFEEE" filter="url(#f12u50xcjc9g0e)" height="44.7734" id="ObligationFulfilment" style="stroke: #A80036; stroke-width: 1.5;" width="129" x="238.75" y="40.5"/><rect fill="#FEFEEE" height="23.9688" style="stroke: #A80036; stroke-width: 1.5;" width="129" x="238.75" y="40.5"/><text fill="#000000" font-family="sans-serif" font-size="12" lengthAdjust="spacingAndGlyphs" textLength="123" x="241.75" y="56.6387">ObligationFulfilment</text><line style="stroke: #A80036; stroke-width: 1.5;" x1="239.75" x2="366.75" y1="64.4688" y2="64.4688"/><ellipse cx="249.75" cy="76.3711" fill="#84BE84" rx="3" ry="3" style="stroke: #038048; stroke-width: 1.0;"/><text fill="#000000" font-family="sans-serif" font-size="11" lengthAdjust="spacingAndGlyphs" textLength="26" x="258.75" y="78.6792">Date</text><text fill="#000000" font-family="sans-serif" font-size="11" font-style="italic" lengthAdjust="spacingAndGlyphs" textLength="53" x="288.75" y="78.6792">(ISODate)</text></a><!--class Netting--><a target="_top" xlink:actuate="onRequest" xlink:href="../Netting.html" xlink:show="new" xlink:title="Offset of payables against receivables to reduce credit exposure to a counterparty." xlink:type="simple"><rect fill="#FEFECE" filter="url(#f12u50xcjc9g0e)" height="70.3828" id="Netting" style="stroke: #A80036; stroke-width: 1.5;" width="298" x="79.5" y="164"/><rect fill="#FEFECE" height="23.9688" style="stroke: #A80036; stroke-width: 1.5;" width="298" x="79.5" y="164"/><text fill="#000000" font-family="sans-serif" font-size="12" lengthAdjust="spacingAndGlyphs" textLength="46" x="205.5" y="180.1387">Netting</text><line style="stroke: #A80036; stroke-width: 1.5;" x1="80.5" x2="376.5" y1="187.9688" y2="187.9688"/><ellipse cx="90.5" cy="199.8711" fill="#84BE84" rx="3" ry="3" style="stroke: #038048; stroke-width: 1.0;"/><text fill="#000000" font-family="sans-serif" font-size="11" lengthAdjust="spacingAndGlyphs" textLength="107" x="99.5" y="202.1792">NetPositionAmount</text><text fill="#000000" font-family="sans-serif" font-size="11" font-style="italic" lengthAdjust="spacingAndGlyphs" textLength="161" x="210.5" y="202.1792">(ActiveCurrencyAndAmount)</text><ellipse cx="90.5" cy="212.6758" fill="#84BE84" rx="3" ry="3" style="stroke: #038048; stroke-width: 1.0;"/><text fill="#000000" font-family="sans-serif" font-size="11" lengthAdjust="spacingAndGlyphs" textLength="93" x="99.5" y="214.9839">AmountDirection</text><text fill="#000000" font-family="sans-serif" font-size="11" font-style="italic" lengthAdjust="spacingAndGlyphs" textLength="100" x="196.5" y="214.9839">(DebitCreditCode)</text><ellipse cx="90.5" cy="225.4805" fill="#84BE84" rx="3" ry="3" style="stroke: #038048; stroke-width: 1.0;"/><text fill="#000000" font-family="sans-serif" font-size="11" lengthAdjust="spacingAndGlyphs" textLength="88" x="99.5" y="227.7886">PositionAmount</text><text fill="#000000" font-family="sans-serif" font-size="11" font-style="italic" lengthAdjust="spacingAndGlyphs" textLength="126" x="191.5" y="227.7886">(CurrencyAndAmount)</text></a><!--class Obligation--><a target="_top" xlink:actuate="onRequest" xlink:href="../Obligation.html" xlink:show="new" xlink:title="Specifies the assets (quantity of securities, goods, services, and cash amounts) that have to be delivered." xlink:type="simple"><rect fill="#EEEEEE" filter="url(#f12u50xcjc9g0e)" height="23.9688" id="Obligation" style="stroke: #A80036; stroke-width: 1.5;" width="69" x="433.75" y="187"/><rect fill="#EEEEEE" height="23.9688" style="stroke: #A80036; stroke-width: 1.5;" width="69" x="433.75" y="187"/><text fill="#000000" font-family="sans-serif" font-size="12" lengthAdjust="spacingAndGlyphs" textLength="63" x="436.75" y="203.1387">Obligation</text></a><!--class Price--><a target="_top" xlink:actuate="onRequest" xlink:href="../Price.html" xlink:show="new" xlink:title="Amount of money for which goods, services or assets are offered, sold, or bought." xlink:type="simple"><rect fill="#EEEEEE" filter="url(#f12u50xcjc9g0e)" height="23.9688" id="Price" style="stroke: #A80036; stroke-width: 1.5;" width="37" x="109.75" y="504"/><rect fill="#EEEEEE" height="23.9688" style="stroke: #A80036; stroke-width: 1.5;" width="37" x="109.75" y="504"/><text fill="#000000" font-family="sans-serif" font-size="12" lengthAdjust="spacingAndGlyphs" textLength="31" x="112.75" y="520.1387">Price</text></a><!--class SecuritiesClearing--><a target="_top" xlink:actuate="onRequest" xlink:href="../SecuritiesClearing.html" xlink:show="new" xlink:title="Process of settling securities through a central system." xlink:type="simple"><rect fill="#EEEEEE" filter="url(#f12u50xcjc9g0e)" height="23.9688" id="SecuritiesClearing" style="stroke: #A80036; stroke-width: 1.5;" width="119" x="38.75" y="418"/><rect fill="#EEEEEE" height="23.9688" style="stroke: #A80036; stroke-width: 1.5;" width="119" x="38.75" y="418"/><text fill="#000000" font-family="sans-serif" font-size="12" lengthAdjust="spacingAndGlyphs" textLength="113" x="41.75" y="434.1387">SecuritiesClearing</text></a><!--class SecuritiesQuantity--><a target="_top" xlink:actuate="onRequest" xlink:href="../SecuritiesQuantity.html" xlink:show="new" xlink:title="Quantity of a security." xlink:type="simple"><rect fill="#EEEEEE" filter="url(#f12u50xcjc9g0e)" height="23.9688" id="SecuritiesQuantity" style="stroke: #A80036; stroke-width: 1.5;" width="120" x="38.5" y="316"/><rect fill="#EEEEEE" height="23.9688" style="stroke: #A80036; stroke-width: 1.5;" width="120" x="38.5" y="316"/><text fill="#000000" font-family="sans-serif" font-size="12" lengthAdjust="spacingAndGlyphs" textLength="114" x="41.5" y="332.1387">SecuritiesQuantity</text></a><!--link ObligationFulfilment to Netting--><path d="M269.619,101.592 C266.147,106.289 262.852,111.15 260,116 C251.248,130.886 243.987,148.607 238.607,163.761 " fill="none" id="ObligationFulfilment-Netting" style="stroke: #A80036; stroke-width: 1.0;"/><polygon fill="none" points="264.495,96.795,282.494,85.612,275.397,105.578,264.495,96.795" style="stroke: #A80036; stroke-width: 1.0;"/><!--link SecuritiesClearing to Price--><!--link SecuritiesQuantity to SecuritiesClearing--><!--link ObligationFulfilment to Obligation--><path d="M367.542,80.37 C389.081,88.329 411.919,99.793 429,116 C448.069,134.093 458.843,163.406 464.038,181.647 " fill="none" id="ObligationFulfilment-Obligation" style="stroke: #A80036; stroke-width: 1.0;"/><polygon fill="#A80036" points="465.474,186.927,466.9704,177.1925,464.1611,182.1025,459.2511,179.2932,465.474,186.927" style="stroke: #A80036; stroke-width: 1.0;"/><text fill="#000000" font-family="sans-serif" font-size="13" lengthAdjust="spacingAndGlyphs" textLength="102" x="443" y="129.0669">ObligationOffset</text><text fill="#000000" font-family="sans-serif" font-size="13" lengthAdjust="spacingAndGlyphs" textLength="7" x="454.9729" y="175.9501">*</text><!--link ObligationFulfilment to Obligation--><path d="M293.62,85.706 C288.72,100.726 285.657,120.384 296,134 C323.07,169.634 351.196,145.031 393,161 C410.304,167.61 428.987,176.821 443.378,184.399 " fill="none" id="ObligationFulfilment-Obligation" style="stroke: #A80036; stroke-width: 1.0;"/><polygon fill="#A80036" points="448.086,186.9,442.0144,179.1453,443.6704,184.5543,438.2613,186.2103,448.086,186.9" style="stroke: #A80036; stroke-width: 1.0;"/><text fill="#000000" font-family="sans-serif" font-size="13" lengthAdjust="spacingAndGlyphs" textLength="122" x="297" y="129.0669">ResultingObligation</text><text fill="#000000" font-family="sans-serif" font-size="13" lengthAdjust="spacingAndGlyphs" textLength="7" x="431.6078" y="175.9138">*</text><!--link Netting to Price--><path d="M345.1,234.11 C402.101,257.414 453.085,292.684 426,340 C364.951,446.648 210.835,494.6642 151.651,509.6007 " fill="none" id="Netting-Price" style="stroke: #A80036; stroke-width: 1.0;"/><polygon fill="#A80036" points="146.557,510.8634,156.255,512.5808,151.4102,509.6605,154.3304,504.8157,146.557,510.8634" style="stroke: #A80036; stroke-width: 1.0;"/><text fill="#000000" font-family="sans-serif" font-size="13" lengthAdjust="spacingAndGlyphs" textLength="113" x="404" y="383.0669">AverageDealPrice</text><text fill="#000000" font-family="sans-serif" font-size="13" lengthAdjust="spacingAndGlyphs" textLength="7" x="154.8709" y="501.7626">*</text><!--link Netting to SecuritiesClearing--><path d="M221.199,234.177 C217.57,249.692 212.496,268.089 206,284 C184.037,337.789 137.374,389.599 113.21,414.171 " fill="none" id="Netting-SecuritiesClearing" style="stroke: #A80036; stroke-width: 1.0;"/><polygon fill="#A80036" points="109.533,417.877,118.711,414.3044,113.0542,414.3272,113.0314,408.6704,109.533,417.877" style="stroke: #A80036; stroke-width: 1.0;"/><text fill="#000000" font-family="sans-serif" font-size="13" lengthAdjust="spacingAndGlyphs" textLength="213" x="203" y="332.0669">RelatedSecuritiesClearingProcess</text><text fill="#000000" font-family="sans-serif" font-size="13" lengthAdjust="spacingAndGlyphs" textLength="24" x="83.9422" y="406.8829">0..1</text><!--link Netting to SecuritiesQuantity--><path d="M158.741,234.134 C145.275,243.102 132.196,253.756 122,266 C111.199,278.971 104.8579,297.386 101.434,310.585 " fill="none" id="Netting-SecuritiesQuantity" style="stroke: #A80036; stroke-width: 1.0;"/><polygon fill="#A80036" points="100.2211,315.54,106.2459,307.7488,101.4097,310.6833,98.4752,305.8471,100.2211,315.54" style="stroke: #A80036; stroke-width: 1.0;"/><text fill="#000000" font-family="sans-serif" font-size="13" lengthAdjust="spacingAndGlyphs" textLength="77" x="123" y="279.0669">NetQuantity</text><text fill="#000000" font-family="sans-serif" font-size="13" lengthAdjust="spacingAndGlyphs" textLength="8" x="90.176" y="304.952">1</text><!--link Obligation to Obligation--><path d="M494.554,186.996 C515.504,182.352 537,186.354 537,199 C537,210.56 519.04,214.896 499.953,212.01 " fill="none" id="Obligation-Obligation" style="stroke: #A80036; stroke-width: 1.0;"/><polygon fill="#A80036" points="494.554,211.004,502.6693,216.5845,499.4694,211.9197,504.1343,208.7198,494.554,211.004" style="stroke: #A80036; stroke-width: 1.0;"/><text fill="#000000" font-family="sans-serif" font-size="13" lengthAdjust="spacingAndGlyphs" textLength="106" x="543" y="203.0669">ParentObligation</text><text fill="#000000" font-family="sans-serif" font-size="13" lengthAdjust="spacingAndGlyphs" textLength="8" x="494.3419" y="231.1501">1</text></g></svg>