<?xml version="1.0" encoding="UTF-8" standalone="no"?><svg xmlns="http://www.w3.org/2000/svg" xmlns:xlink="http://www.w3.org/1999/xlink" contentScriptType="application/ecmascript" contentStyleType="text/css" height="326px" preserveAspectRatio="none" style="width:560px;height:326px;" version="1.1" viewBox="0 0 560 326" width="560px" zoomAndPan="magnify"><defs><filter height="300%" id="f4er7q7n0d3pe" width="300%" x="-1" y="-1"><feGaussianBlur result="blurOut" stdDeviation="2.0"/><feColorMatrix in="blurOut" result="blurOut2" type="matrix" values="0 0 0 0 0 0 0 0 0 0 0 0 0 0 0 0 0 0 .4 0"/><feOffset dx="4.0" dy="4.0" in="blurOut2" result="blurOut3"/><feBlend in="SourceGraphic" in2="blurOut3" mode="normal"/></filter></defs><g><!--cluster ##6305--><!--cluster ##6311--><!--cluster ##6314--><!--class ObligationFulfilment--><a target="_top" xlink:actuate="onRequest" xlink:href="../ObligationFulfilment.html" xlink:show="new" xlink:title="Processes by which an obligation is extinguished fully or partially." xlink:type="simple"><rect fill="#FEFEEE" filter="url(#f4er7q7n0d3pe)" height="44.7734" id="ObligationFulfilment" style="stroke: #A80036; stroke-width: 1.5;" width="129" x="146.75" y="40.5"/><rect fill="#FEFEEE" height="23.9688" style="stroke: #A80036; stroke-width: 1.5;" width="129" x="146.75" y="40.5"/><text fill="#000000" font-family="sans-serif" font-size="12" lengthAdjust="spacingAndGlyphs" textLength="123" x="149.75" y="56.6387">ObligationFulfilment</text><line style="stroke: #A80036; stroke-width: 1.5;" x1="147.75" x2="274.75" y1="64.4688" y2="64.4688"/><ellipse cx="157.75" cy="76.3711" fill="#84BE84" rx="3" ry="3" style="stroke: #038048; stroke-width: 1.0;"/><text fill="#000000" font-family="sans-serif" font-size="11" lengthAdjust="spacingAndGlyphs" textLength="26" x="166.75" y="78.6792">Date</text><text fill="#000000" font-family="sans-serif" font-size="11" font-style="italic" lengthAdjust="spacingAndGlyphs" textLength="53" x="196.75" y="78.6792">(ISODate)</text></a><!--class Novation--><a target="_top" xlink:actuate="onRequest" xlink:href="../Novation.html" xlink:show="new" xlink:title="Act of either replacing an obligation to perform with a new obligation, or replacing a party to an agreement with a new party." xlink:type="simple"><rect fill="#FEFECE" filter="url(#f4er7q7n0d3pe)" height="44.7734" id="Novation" style="stroke: #A80036; stroke-width: 1.5;" width="238" x="38" y="164.5"/><rect fill="#FEFECE" height="23.9688" style="stroke: #A80036; stroke-width: 1.5;" width="238" x="38" y="164.5"/><text fill="#000000" font-family="sans-serif" font-size="12" lengthAdjust="spacingAndGlyphs" textLength="55" x="129.5" y="180.6387">Novation</text><line style="stroke: #A80036; stroke-width: 1.5;" x1="39" x2="275" y1="188.4688" y2="188.4688"/><ellipse cx="49" cy="200.3711" fill="#84BE84" rx="3" ry="3" style="stroke: #038048; stroke-width: 1.0;"/><text fill="#000000" font-family="sans-serif" font-size="11" lengthAdjust="spacingAndGlyphs" textLength="86" x="58" y="202.6792">NovationStatus</text><text fill="#000000" font-family="sans-serif" font-size="11" font-style="italic" lengthAdjust="spacingAndGlyphs" textLength="122" x="148" y="202.6792">(NovationStatusCode)</text></a><!--class Obligation--><a target="_top" xlink:actuate="onRequest" xlink:href="../Obligation.html" xlink:show="new" xlink:title="Specifies the assets (quantity of securities, goods, services, and cash amounts) that have to be delivered." xlink:type="simple"><rect fill="#EEEEEE" filter="url(#f4er7q7n0d3pe)" height="23.9688" id="Obligation" style="stroke: #A80036; stroke-width: 1.5;" width="69" x="332.75" y="175"/><rect fill="#EEEEEE" height="23.9688" style="stroke: #A80036; stroke-width: 1.5;" width="69" x="332.75" y="175"/><text fill="#000000" font-family="sans-serif" font-size="12" lengthAdjust="spacingAndGlyphs" textLength="63" x="335.75" y="191.1387">Obligation</text></a><!--class SecuritiesClearing--><a target="_top" xlink:actuate="onRequest" xlink:href="../SecuritiesClearing.html" xlink:show="new" xlink:title="Process of settling securities through a central system." xlink:type="simple"><rect fill="#EEEEEE" filter="url(#f4er7q7n0d3pe)" height="23.9688" id="SecuritiesClearing" style="stroke: #A80036; stroke-width: 1.5;" width="119" x="97.75" y="292"/><rect fill="#EEEEEE" height="23.9688" style="stroke: #A80036; stroke-width: 1.5;" width="119" x="97.75" y="292"/><text fill="#000000" font-family="sans-serif" font-size="12" lengthAdjust="spacingAndGlyphs" textLength="113" x="100.75" y="308.1387">SecuritiesClearing</text></a><!--link ObligationFulfilment to Novation--><path d="M178.774,101.956 C175.841,106.508 173.165,111.237 171,116 C164.027,131.345 160.511,150.142 158.748,164.392 " fill="none" id="ObligationFulfilment-Novation" style="stroke: #A80036; stroke-width: 1.0;"/><polygon fill="none" points="173.341,97.529,190.832,85.568,184.617,105.826,173.341,97.529" style="stroke: #A80036; stroke-width: 1.0;"/><!--link ObligationFulfilment to Obligation--><path d="M206.277,85.567 C204.26,100.915 204.545,121.034 216,134 C238.796,159.802 259.39,137.955 292,149 C309.915,155.068 329.019,164.542 343.462,172.384 " fill="none" id="ObligationFulfilment-Obligation" style="stroke: #A80036; stroke-width: 1.0;"/><polygon fill="#A80036" points="348.173,174.973,342.2131,167.1321,343.7914,172.5643,338.3592,174.1427,348.173,174.973" style="stroke: #A80036; stroke-width: 1.0;"/><text fill="#000000" font-family="sans-serif" font-size="13" lengthAdjust="spacingAndGlyphs" textLength="102" x="217" y="129.0669">ObligationOffset</text><text fill="#000000" font-family="sans-serif" font-size="13" lengthAdjust="spacingAndGlyphs" textLength="7" x="332.0684" y="164.0119">*</text><!--link ObligationFulfilment to Obligation--><path d="M275.405,85.313 C292.793,93.116 310.724,103.246 325,116 C341.807,131.016 353.94,154.387 360.721,169.94 " fill="none" id="ObligationFulfilment-Obligation" style="stroke: #A80036; stroke-width: 1.0;"/><polygon fill="#A80036" points="362.814,174.891,362.9937,165.0438,360.867,170.2857,355.6251,168.159,362.814,174.891" style="stroke: #A80036; stroke-width: 1.0;"/><text fill="#000000" font-family="sans-serif" font-size="13" lengthAdjust="spacingAndGlyphs" textLength="122" x="340" y="129.0669">ResultingObligation</text><text fill="#000000" font-family="sans-serif" font-size="13" lengthAdjust="spacingAndGlyphs" textLength="7" x="351.7423" y="163.9017">*</text><!--link Novation to SecuritiesClearing--><path d="M157,209.631 C157,232.088 157,266.699 157,286.8715 " fill="none" id="Novation-SecuritiesClearing" style="stroke: #A80036; stroke-width: 1.0;"/><polygon fill="#A80036" points="157,291.9146,161,282.9146,157,286.9146,153,282.9146,157,291.9146" style="stroke: #A80036; stroke-width: 1.0;"/><text fill="#000000" font-family="sans-serif" font-size="13" lengthAdjust="spacingAndGlyphs" textLength="115" x="158" y="255.0669">SecuritiesClearing</text><text fill="#000000" font-family="sans-serif" font-size="13" lengthAdjust="spacingAndGlyphs" textLength="24" x="127.4453" y="280.9335">0..1</text><!--link Obligation to Obligation--><path d="M401.437,175.818 C419.569,174.009 436,177.736 436,187 C436,195.395 422.505,199.243 406.48,198.544 " fill="none" id="Obligation-Obligation" style="stroke: #A80036; stroke-width: 1.0;"/><polygon fill="#A80036" points="401.437,198.182,410.127,202.8171,406.4241,198.5406,410.7007,194.8377,401.437,198.182" style="stroke: #A80036; stroke-width: 1.0;"/><text fill="#000000" font-family="sans-serif" font-size="13" lengthAdjust="spacingAndGlyphs" textLength="106" x="442" y="191.0669">ParentObligation</text><text fill="#000000" font-family="sans-serif" font-size="13" lengthAdjust="spacingAndGlyphs" textLength="8" x="405.936" y="218.9273">1</text></g></svg>