<?xml version="1.0" encoding="UTF-8" standalone="no"?><svg xmlns="http://www.w3.org/2000/svg" xmlns:xlink="http://www.w3.org/1999/xlink" contentScriptType="application/ecmascript" contentStyleType="text/css" height="428px" preserveAspectRatio="none" style="width:976px;height:428px;" version="1.1" viewBox="0 0 976 428" width="976px" zoomAndPan="magnify"><defs><filter height="300%" id="f1cy7w1960eymh" width="300%" x="-1" y="-1"><feGaussianBlur result="blurOut" stdDeviation="2.0"/><feColorMatrix in="blurOut" result="blurOut2" type="matrix" values="0 0 0 0 0 0 0 0 0 0 0 0 0 0 0 0 0 0 .4 0"/><feOffset dx="4.0" dy="4.0" in="blurOut2" result="blurOut3"/><feBlend in="SourceGraphic" in2="blurOut3" mode="normal"/></filter></defs><g><!--cluster ##3562--><!--cluster ##3574--><!--class Obligation--><a target="_top" xlink:actuate="onRequest" xlink:href="../Obligation.html" xlink:show="new" xlink:title="Specifies the assets (quantity of securities, goods, services, and cash amounts) that have to be delivered." xlink:type="simple"><rect fill="#FEFECE" filter="url(#f1cy7w1960eymh)" height="83.1875" id="Obligation" style="stroke: #A80036; stroke-width: 1.5;" width="321" x="118.75" y="40.5"/><rect fill="#FEFECE" height="23.9688" style="stroke: #A80036; stroke-width: 1.5;" width="321" x="118.75" y="40.5"/><text fill="#000000" font-family="sans-serif" font-size="12" lengthAdjust="spacingAndGlyphs" textLength="63" x="247.75" y="56.6387">Obligation</text><line style="stroke: #A80036; stroke-width: 1.5;" x1="119.75" x2="438.75" y1="64.4688" y2="64.4688"/><ellipse cx="129.75" cy="76.3711" fill="#84BE84" rx="3" ry="3" style="stroke: #038048; stroke-width: 1.0;"/><text fill="#000000" font-family="sans-serif" font-size="11" lengthAdjust="spacingAndGlyphs" textLength="148" x="138.75" y="78.6792">RequestedSettlementDate</text><text fill="#000000" font-family="sans-serif" font-size="11" font-style="italic" lengthAdjust="spacingAndGlyphs" textLength="81" x="290.75" y="78.6792">(ISODateTime)</text><ellipse cx="129.75" cy="89.1758" fill="#84BE84" rx="3" ry="3" style="stroke: #038048; stroke-width: 1.0;"/><text fill="#000000" font-family="sans-serif" font-size="11" lengthAdjust="spacingAndGlyphs" textLength="165" x="138.75" y="91.4839">RequestedSettlementAmount</text><text fill="#000000" font-family="sans-serif" font-size="11" font-style="italic" lengthAdjust="spacingAndGlyphs" textLength="126" x="307.75" y="91.4839">(CurrencyAndAmount)</text><ellipse cx="129.75" cy="101.9805" fill="#84BE84" rx="3" ry="3" style="stroke: #038048; stroke-width: 1.0;"/><text fill="#000000" font-family="sans-serif" font-size="11" lengthAdjust="spacingAndGlyphs" textLength="40" x="138.75" y="104.2886">Priority</text><text fill="#000000" font-family="sans-serif" font-size="11" font-style="italic" lengthAdjust="spacingAndGlyphs" textLength="142" x="182.75" y="104.2886">(Max4AlphaNumericText)</text><ellipse cx="129.75" cy="114.7852" fill="#84BE84" rx="3" ry="3" style="stroke: #038048; stroke-width: 1.0;"/><text fill="#000000" font-family="sans-serif" font-size="11" lengthAdjust="spacingAndGlyphs" textLength="80" x="138.75" y="117.0933">ExposureType</text><text fill="#000000" font-family="sans-serif" font-size="11" font-style="italic" lengthAdjust="spacingAndGlyphs" textLength="133" x="222.75" y="117.0933">(ExposureTypeV2Code)</text></a><!--class PaymentObligation--><a target="_top" xlink:actuate="onRequest" xlink:href="../PaymentObligation.html" xlink:show="new" xlink:title="Obligation for the debtor to pay the creditor an amount of cash." xlink:type="simple"><rect fill="#FEFEEE" filter="url(#f1cy7w1960eymh)" height="23.9688" id="PaymentObligation" style="stroke: #A80036; stroke-width: 1.5;" width="123" x="38.75" y="204"/><rect fill="#FEFEEE" height="23.9688" style="stroke: #A80036; stroke-width: 1.5;" width="123" x="38.75" y="204"/><text fill="#000000" font-family="sans-serif" font-size="12" lengthAdjust="spacingAndGlyphs" textLength="117" x="41.75" y="220.1387">PaymentObligation</text></a><!--class SecuritiesDeliveryObligation--><a target="_top" xlink:actuate="onRequest" xlink:href="../SecuritiesDeliveryObligation.html" xlink:show="new" xlink:title="Obligation for one party to deliver securities to another party." xlink:type="simple"><rect fill="#FEFEEE" filter="url(#f1cy7w1960eymh)" height="23.9688" id="SecuritiesDeliveryObligation" style="stroke: #A80036; stroke-width: 1.5;" width="179" x="196.75" y="204"/><rect fill="#FEFEEE" height="23.9688" style="stroke: #A80036; stroke-width: 1.5;" width="179" x="196.75" y="204"/><text fill="#000000" font-family="sans-serif" font-size="12" lengthAdjust="spacingAndGlyphs" textLength="173" x="199.75" y="220.1387">SecuritiesDeliveryObligation</text></a><!--class ProductDeliveryObligation--><a target="_top" xlink:actuate="onRequest" xlink:href="../ProductDeliveryObligation.html" xlink:show="new" xlink:title="Obligation for the seller  to deliver goods or services to the buyer." xlink:type="simple"><rect fill="#FEFEEE" filter="url(#f1cy7w1960eymh)" height="23.9688" id="ProductDeliveryObligation" style="stroke: #A80036; stroke-width: 1.5;" width="166" x="411" y="204"/><rect fill="#FEFEEE" height="23.9688" style="stroke: #A80036; stroke-width: 1.5;" width="166" x="411" y="204"/><text fill="#000000" font-family="sans-serif" font-size="12" lengthAdjust="spacingAndGlyphs" textLength="160" x="414" y="220.1387">ProductDeliveryObligation</text></a><!--class Trade--><a target="_top" xlink:actuate="onRequest" xlink:href="../Trade.html" xlink:show="new" xlink:title="Result of an order between at least two parties. A trade relates to the delivery of goods and services, cash or securities." xlink:type="simple"><rect fill="#EEEEEE" filter="url(#f1cy7w1960eymh)" height="23.9688" id="Trade" style="stroke: #A80036; stroke-width: 1.5;" width="42" x="713.5" y="394"/><rect fill="#EEEEEE" height="23.9688" style="stroke: #A80036; stroke-width: 1.5;" width="42" x="713.5" y="394"/><text fill="#000000" font-family="sans-serif" font-size="12" lengthAdjust="spacingAndGlyphs" textLength="36" x="716.5" y="410.1387">Trade</text></a><!--class TransactionRisk--><a target="_top" xlink:actuate="onRequest" xlink:href="../TransactionRisk.html" xlink:show="new" xlink:title="Calculation of the exposure amount that one party has vis-a-vis one counterparty or a central system, based on the transactions that are not yet settled." xlink:type="simple"><rect fill="#EEEEEE" filter="url(#f1cy7w1960eymh)" height="23.9688" id="TransactionRisk" style="stroke: #A80036; stroke-width: 1.5;" width="105" x="657.75" y="308"/><rect fill="#EEEEEE" height="23.9688" style="stroke: #A80036; stroke-width: 1.5;" width="105" x="657.75" y="308"/><text fill="#000000" font-family="sans-serif" font-size="12" lengthAdjust="spacingAndGlyphs" textLength="99" x="660.75" y="324.1387">TransactionRisk</text></a><!--class ObligationFulfilment--><a target="_top" xlink:actuate="onRequest" xlink:href="../ObligationFulfilment.html" xlink:show="new" xlink:title="Processes by which an obligation is extinguished fully or partially." xlink:type="simple"><rect fill="#EEEEEE" filter="url(#f1cy7w1960eymh)" height="23.9688" id="ObligationFulfilment" style="stroke: #A80036; stroke-width: 1.5;" width="129" x="633.75" y="204"/><rect fill="#EEEEEE" height="23.9688" style="stroke: #A80036; stroke-width: 1.5;" width="129" x="633.75" y="204"/><text fill="#000000" font-family="sans-serif" font-size="12" lengthAdjust="spacingAndGlyphs" textLength="123" x="636.75" y="220.1387">ObligationFulfilment</text></a><!--link Obligation to PaymentObligation--><path d="M207.498,135.727 C173.444,160.84 135.763,188.627 115.294,203.722 " fill="none" id="Obligation-PaymentObligation" style="stroke: #A80036; stroke-width: 1.0;"/><polygon fill="none" points="203.582,129.918,223.834,123.681,211.891,141.185,203.582,129.918" style="stroke: #A80036; stroke-width: 1.0;"/><!--link Obligation to SecuritiesDeliveryObligation--><path d="M282.218,143.674 C283.429,166.512 284.685,190.205 285.402,203.722 " fill="none" id="Obligation-SecuritiesDeliveryObligation" style="stroke: #A80036; stroke-width: 1.0;"/><polygon fill="none" points="275.226,144.024,281.157,123.681,289.207,143.283,275.226,144.024" style="stroke: #A80036; stroke-width: 1.0;"/><!--link Obligation to ProductDeliveryObligation--><path d="M312.081,140.344 C321.577,152.484 332.955,164.023 346,172 C363.704,182.826 371.901,174.839 392,180 C417.387,186.519 445.512,196.376 465.788,203.969 " fill="none" id="Obligation-ProductDeliveryObligation" style="stroke: #A80036; stroke-width: 1.0;"/><polygon fill="none" points="306.142,144.07,300.317,123.696,317.576,135.991,306.142,144.07" style="stroke: #A80036; stroke-width: 1.0;"/><!--link TransactionRisk to Trade--><!--link ObligationFulfilment to TransactionRisk--><!--link Obligation to Trade--><path d="M439.306,84.382 C604.533,89.708 845.728,109.719 902,180 C964.51,258.072 818.937,355.512 758.646,391.138 " fill="none" id="Obligation-Trade" style="stroke: #A80036; stroke-width: 1.0;"/><polygon fill="#A80036" points="754.113,393.7951,763.9002,392.6947,758.4266,391.2666,759.8546,385.793,754.113,393.7951" style="stroke: #A80036; stroke-width: 1.0;"/><text fill="#000000" font-family="sans-serif" font-size="13" lengthAdjust="spacingAndGlyphs" textLength="36" x="906" y="273.0669">Trade</text><text fill="#000000" font-family="sans-serif" font-size="13" lengthAdjust="spacingAndGlyphs" textLength="8" x="749.9536" y="383.0307">1</text><!--link Obligation to TransactionRisk--><path d="M439.52,92.179 C569.48,103.388 737.667,127.783 780,180 C800.152,204.857 792.569,222.572 780,252 C770.376,274.534 749.043,293.115 732.44,304.947 " fill="none" id="Obligation-TransactionRisk" style="stroke: #A80036; stroke-width: 1.0;"/><polygon fill="#A80036" points="728.331,307.808,738.0025,305.9473,732.4341,304.9507,733.4308,299.3823,728.331,307.808" style="stroke: #A80036; stroke-width: 1.0;"/><text fill="#000000" font-family="sans-serif" font-size="13" lengthAdjust="spacingAndGlyphs" textLength="99" x="793" y="220.0669">TransactionRisk</text><text fill="#000000" font-family="sans-serif" font-size="13" lengthAdjust="spacingAndGlyphs" textLength="8" x="723.6641" y="297.0478">1</text><!--link Obligation to Obligation--><path d="M439.275,68.813 C460.17,71.081 474,75.477 474,82 C474,87.963 462.445,92.148 444.501,94.555 " fill="none" id="Obligation-Obligation" style="stroke: #A80036; stroke-width: 1.0;"/><polygon fill="#A80036" points="439.275,95.187,448.6899,98.0782,444.2389,94.587,447.73,90.136,439.275,95.187" style="stroke: #A80036; stroke-width: 1.0;"/><text fill="#000000" font-family="sans-serif" font-size="13" lengthAdjust="spacingAndGlyphs" textLength="106" x="480" y="86.0669">ParentObligation</text><text fill="#000000" font-family="sans-serif" font-size="13" lengthAdjust="spacingAndGlyphs" textLength="8" x="447.7325" y="91.4942">1</text><!--link Obligation to ObligationFulfilment--><path d="M439.473,118.05 C479.878,128.294 522.874,140.436 562,154 C601.291,167.622 644.846,188.18 671.827,201.597 " fill="none" id="Obligation-ObligationFulfilment" style="stroke: #A80036; stroke-width: 1.0;"/><polygon fill="#A80036" points="676.34,203.852,670.0761,196.2518,671.867,201.6176,666.5011,203.4086,676.34,203.852" style="stroke: #A80036; stroke-width: 1.0;"/><text fill="#000000" font-family="sans-serif" font-size="13" lengthAdjust="spacingAndGlyphs" textLength="38" x="609" y="167.0669">Offset</text><text fill="#000000" font-family="sans-serif" font-size="13" lengthAdjust="spacingAndGlyphs" textLength="24" x="639.3397" y="192.8493">0..1</text><!--link Obligation to ObligationFulfilment--><path d="M316.78,123.809 C336.378,142.09 361.868,161.796 389,172 C431.464,187.97 548.369,171.857 593,180 C618.55,184.662 646.391,194.158 666.981,202.084 " fill="none" id="Obligation-ObligationFulfilment" style="stroke: #A80036; stroke-width: 1.0;"/><polygon fill="#A80036" points="671.788,203.956,664.8532,196.9626,667.1289,202.1415,661.9499,204.4172,671.788,203.956" style="stroke: #A80036; stroke-width: 1.0;"/><text fill="#000000" font-family="sans-serif" font-size="13" lengthAdjust="spacingAndGlyphs" textLength="162" x="390" y="167.0669">OriginalObligationProcess</text><text fill="#000000" font-family="sans-serif" font-size="13" lengthAdjust="spacingAndGlyphs" textLength="8" x="664.0667" y="192.9891">1</text></g></svg>