<?xml version="1.0" encoding="UTF-8" standalone="no"?><svg xmlns="http://www.w3.org/2000/svg" xmlns:xlink="http://www.w3.org/1999/xlink" contentScriptType="application/ecmascript" contentStyleType="text/css" height="206px" preserveAspectRatio="none" style="width:1334px;height:206px;" version="1.1" viewBox="0 0 1334 206" width="1334px" zoomAndPan="magnify"><defs><filter height="300%" id="f1ebp102ccawtf" width="300%" x="-1" y="-1"><feGaussianBlur result="blurOut" stdDeviation="2.0"/><feColorMatrix in="blurOut" result="blurOut2" type="matrix" values="0 0 0 0 0 0 0 0 0 0 0 0 0 0 0 0 0 0 .4 0"/><feOffset dx="4.0" dy="4.0" in="blurOut2" result="blurOut3"/><feBlend in="SourceGraphic" in2="blurOut3" mode="normal"/></filter></defs><g><!--cluster ##3691--><!--cluster ##3721--><!--class ObligationFulfilment--><a target="_top" xlink:actuate="onRequest" xlink:href="../ObligationFulfilment.html" xlink:show="new" xlink:title="Processes by which an obligation is extinguished fully or partially." xlink:type="simple"><rect fill="#FEFECE" filter="url(#f1ebp102ccawtf)" height="44.7734" id="ObligationFulfilment" style="stroke: #A80036; stroke-width: 1.5;" width="129" x="687.75" y="40.5"/><rect fill="#FEFECE" height="23.9688" style="stroke: #A80036; stroke-width: 1.5;" width="129" x="687.75" y="40.5"/><text fill="#000000" font-family="sans-serif" font-size="12" lengthAdjust="spacingAndGlyphs" textLength="123" x="690.75" y="56.6387">ObligationFulfilment</text><line style="stroke: #A80036; stroke-width: 1.5;" x1="688.75" x2="815.75" y1="64.4688" y2="64.4688"/><ellipse cx="698.75" cy="76.3711" fill="#84BE84" rx="3" ry="3" style="stroke: #038048; stroke-width: 1.0;"/><text fill="#000000" font-family="sans-serif" font-size="11" lengthAdjust="spacingAndGlyphs" textLength="26" x="707.75" y="78.6792">Date</text><text fill="#000000" font-family="sans-serif" font-size="11" font-style="italic" lengthAdjust="spacingAndGlyphs" textLength="53" x="737.75" y="78.6792">(ISODate)</text></a><!--class Payment--><a target="_top" xlink:actuate="onRequest" xlink:href="../Payment.html" xlink:show="new" xlink:title="Payment information and processes required to transfer cash end to end from the debtor to the creditor." xlink:type="simple"><rect fill="#FEFEEE" filter="url(#f1ebp102ccawtf)" height="23.9688" id="Payment" style="stroke: #A80036; stroke-width: 1.5;" width="60" x="38.5" y="168"/><rect fill="#FEFEEE" height="23.9688" style="stroke: #A80036; stroke-width: 1.5;" width="60" x="38.5" y="168"/><text fill="#000000" font-family="sans-serif" font-size="12" lengthAdjust="spacingAndGlyphs" textLength="54" x="41.5" y="184.1387">Payment</text></a><!--class SecuritiesTransfer--><a target="_top" xlink:actuate="onRequest" xlink:href="../SecuritiesTransfer.html" xlink:show="new" xlink:title="Completion of a securities settlement instruction, wherein securities are delivered/debited from a securities account and received/credited to the designated securities account." xlink:type="simple"><rect fill="#FEFEEE" filter="url(#f1ebp102ccawtf)" height="23.9688" id="SecuritiesTransfer" style="stroke: #A80036; stroke-width: 1.5;" width="120" x="269.5" y="168"/><rect fill="#FEFEEE" height="23.9688" style="stroke: #A80036; stroke-width: 1.5;" width="120" x="269.5" y="168"/><text fill="#000000" font-family="sans-serif" font-size="12" lengthAdjust="spacingAndGlyphs" textLength="114" x="272.5" y="184.1387">SecuritiesTransfer</text></a><!--class Clearing--><a target="_top" xlink:actuate="onRequest" xlink:href="../Clearing.html" xlink:show="new" xlink:title="Mechanism allowing financial institutions that are members of a clearing house to pay and to receive the amounts linked to the transactions that they have executed on the market. The addition of all the positions per product results in one net position (due or to receive) with the clearing house or the central clearing counterparty." xlink:type="simple"><rect fill="#FEFEEE" filter="url(#f1ebp102ccawtf)" height="23.9688" id="Clearing" style="stroke: #A80036; stroke-width: 1.5;" width="57" x="424.75" y="168"/><rect fill="#FEFEEE" height="23.9688" style="stroke: #A80036; stroke-width: 1.5;" width="57" x="424.75" y="168"/><text fill="#000000" font-family="sans-serif" font-size="12" lengthAdjust="spacingAndGlyphs" textLength="51" x="427.75" y="184.1387">Clearing</text></a><!--class ProductDelivery--><a target="_top" xlink:actuate="onRequest" xlink:href="../ProductDelivery.html" xlink:show="new" xlink:title="Arrangements for delivery of invoiced products and/or services." xlink:type="simple"><rect fill="#FEFEEE" filter="url(#f1ebp102ccawtf)" height="23.9688" id="ProductDelivery" style="stroke: #A80036; stroke-width: 1.5;" width="103" x="516.75" y="168"/><rect fill="#FEFEEE" height="23.9688" style="stroke: #A80036; stroke-width: 1.5;" width="103" x="516.75" y="168"/><text fill="#000000" font-family="sans-serif" font-size="12" lengthAdjust="spacingAndGlyphs" textLength="97" x="519.75" y="184.1387">ProductDelivery</text></a><!--class BuyIn--><a target="_top" xlink:actuate="onRequest" xlink:href="../BuyIn.html" xlink:show="new" xlink:title="Process in which the buyer/CCP repurchases shares of stock because the seller either failed to deliver the shares or did not deliver them in a timely fashion. The seller has to make up the price difference if the new shares are more expensive than originally agreed to." xlink:type="simple"><rect fill="#FEFEEE" filter="url(#f1ebp102ccawtf)" height="23.9688" id="BuyIn" style="stroke: #A80036; stroke-width: 1.5;" width="39" x="654.75" y="168"/><rect fill="#FEFEEE" height="23.9688" style="stroke: #A80036; stroke-width: 1.5;" width="39" x="654.75" y="168"/><text fill="#000000" font-family="sans-serif" font-size="12" lengthAdjust="spacingAndGlyphs" textLength="33" x="657.75" y="184.1387">BuyIn</text></a><!--class PairOff--><a target="_top" xlink:actuate="onRequest" xlink:href="../PairOff.html" xlink:show="new" xlink:title="Transaction is paired off and netted against one or more previous transactions." xlink:type="simple"><rect fill="#FEFEEE" filter="url(#f1ebp102ccawtf)" height="23.9688" id="PairOff" style="stroke: #A80036; stroke-width: 1.5;" width="47" x="728.75" y="168"/><rect fill="#FEFEEE" height="23.9688" style="stroke: #A80036; stroke-width: 1.5;" width="47" x="728.75" y="168"/><text fill="#000000" font-family="sans-serif" font-size="12" lengthAdjust="spacingAndGlyphs" textLength="41" x="731.75" y="184.1387">PairOff</text></a><!--class Netting--><a target="_top" xlink:actuate="onRequest" xlink:href="../Netting.html" xlink:show="new" xlink:title="Offset of payables against receivables to reduce credit exposure to a counterparty." xlink:type="simple"><rect fill="#FEFEEE" filter="url(#f1ebp102ccawtf)" height="23.9688" id="Netting" style="stroke: #A80036; stroke-width: 1.5;" width="52" x="811" y="168"/><rect fill="#FEFEEE" height="23.9688" style="stroke: #A80036; stroke-width: 1.5;" width="52" x="811" y="168"/><text fill="#000000" font-family="sans-serif" font-size="12" lengthAdjust="spacingAndGlyphs" textLength="46" x="814" y="184.1387">Netting</text></a><!--class Rollover--><a target="_top" xlink:actuate="onRequest" xlink:href="../Rollover.html" xlink:show="new" xlink:title="Process whereby a financial instrument is reinvested at maturity." xlink:type="simple"><rect fill="#FEFEEE" filter="url(#f1ebp102ccawtf)" height="23.9688" id="Rollover" style="stroke: #A80036; stroke-width: 1.5;" width="55" x="898.75" y="168"/><rect fill="#FEFEEE" height="23.9688" style="stroke: #A80036; stroke-width: 1.5;" width="55" x="898.75" y="168"/><text fill="#000000" font-family="sans-serif" font-size="12" lengthAdjust="spacingAndGlyphs" textLength="49" x="901.75" y="184.1387">Rollover</text></a><!--class Novation--><a target="_top" xlink:actuate="onRequest" xlink:href="../Novation.html" xlink:show="new" xlink:title="Act of either replacing an obligation to perform with a new obligation, or replacing a party to an agreement with a new party." xlink:type="simple"><rect fill="#FEFEEE" filter="url(#f1ebp102ccawtf)" height="23.9688" id="Novation" style="stroke: #A80036; stroke-width: 1.5;" width="61" x="988.75" y="168"/><rect fill="#FEFEEE" height="23.9688" style="stroke: #A80036; stroke-width: 1.5;" width="61" x="988.75" y="168"/><text fill="#000000" font-family="sans-serif" font-size="12" lengthAdjust="spacingAndGlyphs" textLength="55" x="991.75" y="184.1387">Novation</text></a><!--class Obligation--><a target="_top" xlink:actuate="onRequest" xlink:href="../Obligation.html" xlink:show="new" xlink:title="Specifies the assets (quantity of securities, goods, services, and cash amounts) that have to be delivered." xlink:type="simple"><rect fill="#EEEEEE" filter="url(#f1ebp102ccawtf)" height="23.9688" id="Obligation" style="stroke: #A80036; stroke-width: 1.5;" width="69" x="1106.75" y="168"/><rect fill="#EEEEEE" height="23.9688" style="stroke: #A80036; stroke-width: 1.5;" width="69" x="1106.75" y="168"/><text fill="#000000" font-family="sans-serif" font-size="12" lengthAdjust="spacingAndGlyphs" textLength="63" x="1109.75" y="184.1387">Obligation</text></a><!--link ObligationFulfilment to Payment--><path d="M667.692,76.004 C568.15,90.443 397.696,116 252,142 C197.308,151.76 133.85,164.9317 97.5617,172.6413 " fill="none" id="ObligationFulfilment-Payment" style="stroke: #A80036; stroke-width: 1.0;"/><polygon fill="none" points="666.727,69.071,687.523,73.139,668.729,82.927,666.727,69.071" style="stroke: #A80036; stroke-width: 1.0;"/><!--link ObligationFulfilment to SecuritiesTransfer--><path d="M667.722,77.087 C596.843,89.496 493.519,110.898 407,142 C386.831,149.2504 364.856,159.9457 349.387,167.9751 " fill="none" id="ObligationFulfilment-SecuritiesTransfer" style="stroke: #A80036; stroke-width: 1.0;"/><polygon fill="none" points="666.823,70.139,687.716,73.674,669.179,83.939,666.823,70.139" style="stroke: #A80036; stroke-width: 1.0;"/><!--link ObligationFulfilment to Clearing--><path d="M667.758,81.484 C616.99,94.052 552.1,113.799 499,142 C485.966,148.9225 473.04,159.7642 464.225,167.9257 " fill="none" id="ObligationFulfilment-Clearing" style="stroke: #A80036; stroke-width: 1.0;"/><polygon fill="none" points="666.441,74.602,687.519,76.774,669.687,88.22,666.441,74.602" style="stroke: #A80036; stroke-width: 1.0;"/><!--link ObligationFulfilment to ProductDelivery--><path d="M700.183,96.386 C661.832,120.355 611.888,151.5703 585.737,167.9146 " fill="none" id="ObligationFulfilment-ProductDelivery" style="stroke: #A80036; stroke-width: 1.0;"/><polygon fill="none" points="696.721,90.295,717.391,85.631,704.141,102.167,696.721,90.295" style="stroke: #A80036; stroke-width: 1.0;"/><!--link ObligationFulfilment to BuyIn--><path d="M725.972,102.375 C710.395,125.341 691.702,152.9015 681.519,167.9146 " fill="none" id="ObligationFulfilment-BuyIn" style="stroke: #A80036; stroke-width: 1.0;"/><polygon fill="none" points="720.309,98.253,737.329,85.631,731.895,106.112,720.309,98.253" style="stroke: #A80036; stroke-width: 1.0;"/><!--link ObligationFulfilment to PairOff--><path d="M752,105.8 C752,128.0259 752,153.6411 752,167.9146 " fill="none" id="ObligationFulfilment-PairOff" style="stroke: #A80036; stroke-width: 1.0;"/><polygon fill="none" points="745,105.631,752,85.631,759,105.631,745,105.631" style="stroke: #A80036; stroke-width: 1.0;"/><!--link ObligationFulfilment to Netting--><path d="M780.113,102.036 C797.138,125.069 817.655,152.8276 828.806,167.9146 " fill="none" id="ObligationFulfilment-Netting" style="stroke: #A80036; stroke-width: 1.0;"/><polygon fill="none" points="774.246,105.875,767.988,85.631,785.505,97.553,774.246,105.875" style="stroke: #A80036; stroke-width: 1.0;"/><!--link ObligationFulfilment to Rollover--><path d="M808.549,95.802 C831.51,109.324 857.992,125.714 881,142 C892.392,150.0643 904.579,160.186 913.393,167.8036 " fill="none" id="ObligationFulfilment-Rollover" style="stroke: #A80036; stroke-width: 1.0;"/><polygon fill="none" points="804.807,101.723,791.024,85.628,811.835,89.615,804.807,101.723" style="stroke: #A80036; stroke-width: 1.0;"/><!--link ObligationFulfilment to Novation--><path d="M819.554,93.389 C852.933,107.104 894.091,122.828 932,134 C948.972,139.0021 954.913,134.6316 971,142 C984.966,148.397 998.615,159.5319 1007.77,167.9199 " fill="none" id="ObligationFulfilment-Novation" style="stroke: #A80036; stroke-width: 1.0;"/><polygon fill="none" points="816.643,99.759,800.882,85.595,822.036,86.84,816.643,99.759" style="stroke: #A80036; stroke-width: 1.0;"/><!--link ObligationFulfilment to Obligation--><path d="M816.415,84.328 C878.528,103.812 965.494,130.7364 982,134 C1018.79,141.2739 1029.92,131.7577 1066,142 C1084.57,147.2727 1104.08,157.0501 1118.55,165.2301 " fill="none" id="ObligationFulfilment-Obligation" style="stroke: #A80036; stroke-width: 1.0;"/><polygon fill="#A80036" points="1123.25,167.9342,1117.4324,159.9871,1118.9126,165.4469,1113.4528,166.9271,1123.25,167.9342" style="stroke: #A80036; stroke-width: 1.0;"/><text fill="#000000" font-family="sans-serif" font-size="13" lengthAdjust="spacingAndGlyphs" textLength="102" x="983" y="129.0669">ObligationOffset</text><text fill="#000000" font-family="sans-serif" font-size="13" lengthAdjust="spacingAndGlyphs" textLength="7" x="1107.5156" y="156.9598">*</text><!--link ObligationFulfilment to Obligation--><path d="M816.266,68.268 C901.227,74.852 1045.49,89.577 1091,116 C1109.99,127.0242 1124.51,148.2706 1132.89,163.0247 " fill="none" id="ObligationFulfilment-Obligation" style="stroke: #A80036; stroke-width: 1.0;"/><polygon fill="#A80036" points="1135.5,167.7552,1134.6683,157.9415,1133.0907,163.3739,1127.6583,161.7963,1135.5,167.7552" style="stroke: #A80036; stroke-width: 1.0;"/><text fill="#000000" font-family="sans-serif" font-size="13" lengthAdjust="spacingAndGlyphs" textLength="122" x="1112" y="129.0669">ResultingObligation</text><text fill="#000000" font-family="sans-serif" font-size="13" lengthAdjust="spacingAndGlyphs" textLength="7" x="1124.1047" y="156.9776">*</text><!--link Payment to Payment--><path d="M97.625,170.5078 C115.333,168.3984 132,171.5625 132,180 C132,187.5806 118.547,190.9045 102.9719,189.9717 " fill="none" id="Payment-Payment" style="stroke: #A80036; stroke-width: 1.0;"/><polygon fill="#A80036" points="97.625,189.4922,106.2316,194.2803,102.605,189.9389,106.9464,186.3123,97.625,189.4922" style="stroke: #A80036; stroke-width: 1.0;"/><text fill="#000000" font-family="sans-serif" font-size="13" lengthAdjust="spacingAndGlyphs" textLength="105" x="138" y="184.0669">OriginalPayment</text><text fill="#000000" font-family="sans-serif" font-size="13" lengthAdjust="spacingAndGlyphs" textLength="8" x="106.5273" y="185.8478">1</text><!--link Obligation to Obligation--><path d="M1175.44,170.2612 C1193.57,168.6854 1210,171.9316 1210,180 C1210,187.312 1196.51,190.6636 1180.48,190.0548 " fill="none" id="Obligation-Obligation" style="stroke: #A80036; stroke-width: 1.0;"/><polygon fill="#A80036" points="1175.44,189.7388,1184.1708,194.2966,1180.4301,190.0531,1184.6736,186.3124,1175.44,189.7388" style="stroke: #A80036; stroke-width: 1.0;"/><text fill="#000000" font-family="sans-serif" font-size="13" lengthAdjust="spacingAndGlyphs" textLength="106" x="1216" y="184.0669">ParentObligation</text><text fill="#000000" font-family="sans-serif" font-size="13" lengthAdjust="spacingAndGlyphs" textLength="8" x="1183.7941" y="186.0946">1</text></g></svg>