<?xml version="1.0" encoding="UTF-8" standalone="no"?><svg xmlns="http://www.w3.org/2000/svg" xmlns:xlink="http://www.w3.org/1999/xlink" contentScriptType="application/ecmascript" contentStyleType="text/css" height="402px" preserveAspectRatio="none" style="width:1965px;height:402px;" version="1.1" viewBox="0 0 1965 402" width="1965px" zoomAndPan="magnify"><defs><filter height="300%" id="f1if8umaqgvgsz" width="300%" x="-1" y="-1"><feGaussianBlur result="blurOut" stdDeviation="2.0"/><feColorMatrix in="blurOut" result="blurOut2" type="matrix" values="0 0 0 0 0 0 0 0 0 0 0 0 0 0 0 0 0 0 .4 0"/><feOffset dx="4.0" dy="4.0" in="blurOut2" result="blurOut3"/><feBlend in="SourceGraphic" in2="blurOut3" mode="normal"/></filter></defs><g><!--cluster ##10960--><!--cluster ##10963--><!--class Packaging--><a target="_top" xlink:actuate="onRequest" xlink:href="../Packaging.html" xlink:show="new" xlink:title="Physical packaging of goods for transport." xlink:type="simple"><rect fill="#FEFECE" filter="url(#f1if8umaqgvgsz)" height="57.5781" id="Packaging" style="stroke: #A80036; stroke-width: 1.5;" width="197" x="1222.75" y="40"/><rect fill="#FEFECE" height="23.9688" style="stroke: #A80036; stroke-width: 1.5;" width="197" x="1222.75" y="40"/><text fill="#000000" font-family="sans-serif" font-size="12" lengthAdjust="spacingAndGlyphs" textLength="65" x="1288.75" y="56.1387">Packaging</text><line style="stroke: #A80036; stroke-width: 1.5;" x1="1223.75" x2="1418.75" y1="63.9688" y2="63.9688"/><ellipse cx="1233.75" cy="75.8711" fill="#84BE84" rx="3" ry="3" style="stroke: #038048; stroke-width: 1.0;"/><text fill="#000000" font-family="sans-serif" font-size="11" lengthAdjust="spacingAndGlyphs" textLength="90" x="1242.75" y="78.1792">PackagingName</text><text fill="#000000" font-family="sans-serif" font-size="11" font-style="italic" lengthAdjust="spacingAndGlyphs" textLength="77" x="1336.75" y="78.1792">(Max350Text)</text><ellipse cx="1233.75" cy="88.6758" fill="#84BE84" rx="3" ry="3" style="stroke: #038048; stroke-width: 1.0;"/><text fill="#000000" font-family="sans-serif" font-size="11" lengthAdjust="spacingAndGlyphs" textLength="74" x="1242.75" y="90.9839">PackageType</text><text fill="#000000" font-family="sans-serif" font-size="11" font-style="italic" lengthAdjust="spacingAndGlyphs" textLength="63" x="1320.75" y="90.9839">(Max4Text)</text></a><!--class ProductQuantity--><a target="_top" xlink:actuate="onRequest" xlink:href="../ProductQuantity.html" xlink:show="new" xlink:title="Specifies the ordered quantity of a product." xlink:type="simple"><rect fill="#EEEEEE" filter="url(#f1if8umaqgvgsz)" height="23.9688" id="ProductQuantity" style="stroke: #A80036; stroke-width: 1.5;" width="107" x="972.75" y="180"/><rect fill="#EEEEEE" height="23.9688" style="stroke: #A80036; stroke-width: 1.5;" width="107" x="972.75" y="180"/><text fill="#000000" font-family="sans-serif" font-size="12" lengthAdjust="spacingAndGlyphs" textLength="101" x="975.75" y="196.1387">ProductQuantity</text></a><!--class Transport--><a target="_top" xlink:actuate="onRequest" xlink:href="../Transport.html" xlink:show="new" xlink:title="Moving of goods or people from one place to another by vehicle." xlink:type="simple"><rect fill="#EEEEEE" filter="url(#f1if8umaqgvgsz)" height="23.9688" id="Transport" style="stroke: #A80036; stroke-width: 1.5;" width="67" x="992.75" y="368"/><rect fill="#EEEEEE" height="23.9688" style="stroke: #A80036; stroke-width: 1.5;" width="67" x="992.75" y="368"/><text fill="#000000" font-family="sans-serif" font-size="12" lengthAdjust="spacingAndGlyphs" textLength="61" x="995.75" y="384.1387">Transport</text></a><!--class LineItem--><a target="_top" xlink:actuate="onRequest" xlink:href="../LineItem.html" xlink:show="new" xlink:title="Unit of information  showing the related  provision of products and/or services and monetary summations reported as a discrete line item." xlink:type="simple"><rect fill="#EEEEEE" filter="url(#f1if8umaqgvgsz)" height="23.9688" id="LineItem" style="stroke: #A80036; stroke-width: 1.5;" width="58" x="997.5" y="282"/><rect fill="#EEEEEE" height="23.9688" style="stroke: #A80036; stroke-width: 1.5;" width="58" x="997.5" y="282"/><text fill="#000000" font-family="sans-serif" font-size="12" lengthAdjust="spacingAndGlyphs" textLength="52" x="1000.5" y="298.1387">LineItem</text></a><!--link Transport to ProductQuantity--><!--link LineItem to Transport--><!--link Packaging to ProductQuantity--><path d="M1222.55,76.627 C1145.75,84.09 1048.03,99.425 1023,130 C1012.92,142.313 1015.69,161.153 1019.71,174.637 " fill="none" id="Packaging-ProductQuantity" style="stroke: #A80036; stroke-width: 1.0;"/><polygon fill="#A80036" points="1021.35,179.695,1022.381,169.9003,1019.8088,174.9385,1014.7706,172.3662,1021.35,179.695" style="stroke: #A80036; stroke-width: 1.0;"/><text fill="#000000" font-family="sans-serif" font-size="13" lengthAdjust="spacingAndGlyphs" textLength="54" x="1024" y="143.0669">Quantity</text><text fill="#000000" font-family="sans-serif" font-size="13" lengthAdjust="spacingAndGlyphs" textLength="8" x="1009.0706" y="168.8974">1</text><!--link Packaging to ProductQuantity--><path d="M1222.58,93.319 C1189.26,102.791 1152.31,115.068 1120,130 C1092.16,142.864 1062.96,163.016 1044.64,176.602 " fill="none" id="Packaging-ProductQuantity" style="stroke: #A80036; stroke-width: 1.0;"/><polygon fill="#A80036" points="1040.22,179.906,1049.8261,177.7329,1044.2284,176.9172,1045.0441,171.3195,1040.22,179.906" style="stroke: #A80036; stroke-width: 1.0;"/><text fill="#000000" font-family="sans-serif" font-size="13" lengthAdjust="spacingAndGlyphs" textLength="155" x="1121" y="143.0669">PerPackageUnitQuantity</text><text fill="#000000" font-family="sans-serif" font-size="13" lengthAdjust="spacingAndGlyphs" textLength="8" x="1034.3034" y="168.9219">1</text><!--link Packaging to ProductQuantity--><path d="M1313.98,98.041 C1308.23,115.131 1298.31,135.937 1282,148 C1251.45,170.591 1150.1,182.077 1084.45,187.286 " fill="none" id="Packaging-ProductQuantity" style="stroke: #A80036; stroke-width: 1.0;"/><polygon fill="#A80036" points="1079.4,187.681,1088.6818,190.9747,1084.3851,187.2952,1088.0646,182.9985,1079.4,187.681" style="stroke: #A80036; stroke-width: 1.0;"/><text fill="#000000" font-family="sans-serif" font-size="13" lengthAdjust="spacingAndGlyphs" textLength="170" x="1299" y="143.0669">TotalConsignmentQuantity</text><text fill="#000000" font-family="sans-serif" font-size="13" lengthAdjust="spacingAndGlyphs" textLength="8" x="1087.7939" y="181.8772">1</text><!--link Packaging to ProductQuantity--><path d="M1419.49,87.203 C1465.69,99.457 1505.4,118.977 1479,148 C1452.94,176.648 1201.03,186.638 1084.54,189.744 " fill="none" id="Packaging-ProductQuantity" style="stroke: #A80036; stroke-width: 1.0;"/><polygon fill="#A80036" points="1079.44,189.878,1088.5399,193.6453,1084.4383,189.7494,1088.3342,185.6479,1079.44,189.878" style="stroke: #A80036; stroke-width: 1.0;"/><text fill="#000000" font-family="sans-serif" font-size="13" lengthAdjust="spacingAndGlyphs" textLength="80" x="1488" y="143.0669">TotalVolume</text><text fill="#000000" font-family="sans-serif" font-size="13" lengthAdjust="spacingAndGlyphs" textLength="8" x="1087.8398" y="202.7468">1</text><!--link Packaging to ProductQuantity--><path d="M1222.61,71.079 C1119.64,74.542 967.855,87.041 931,130 C912.707,151.322 944.679,167.89 976.364,178.344 " fill="none" id="Packaging-ProductQuantity" style="stroke: #A80036; stroke-width: 1.0;"/><polygon fill="#A80036" points="981.439,179.969,974.0865,173.4161,976.6769,178.445,971.648,181.0354,981.439,179.969" style="stroke: #A80036; stroke-width: 1.0;"/><text fill="#000000" font-family="sans-serif" font-size="13" lengthAdjust="spacingAndGlyphs" textLength="74" x="932" y="143.0669">TotalWeight</text><text fill="#000000" font-family="sans-serif" font-size="13" lengthAdjust="spacingAndGlyphs" textLength="8" x="956.5617" y="169.5178">1</text><!--link Packaging to Transport--><path d="M1419.46,82.099 C1510.73,93.557 1650.21,111.691 1771,130 C1839.2,140.337 1879.5,103.3 1924,156 C1937.76,172.3 1935.56,186.072 1924,204 C1828.46,352.1433 1223.5,374.9521 1064.33,378.3984 " fill="none" id="Packaging-Transport" style="stroke: #A80036; stroke-width: 1.0;"/><polygon fill="#A80036" points="1059.31,378.5039,1068.3882,382.3231,1064.309,378.4039,1068.2282,374.3247,1059.31,378.5039" style="stroke: #A80036; stroke-width: 1.0;"/><text fill="#000000" font-family="sans-serif" font-size="13" lengthAdjust="spacingAndGlyphs" textLength="61" x="1892" y="247.0669">Transport</text><text fill="#000000" font-family="sans-serif" font-size="13" lengthAdjust="spacingAndGlyphs" textLength="8" x="1067.8801" y="372.2782">1</text><!--link Packaging to LineItem--><path d="M1419.38,76.13 C1587.04,89.928 1899.51,132.196 1786,252 C1760.71,278.694 1204.59,289.967 1060.07,292.453 " fill="none" id="Packaging-LineItem" style="stroke: #A80036; stroke-width: 1.0;"/><polygon fill="#A80036" points="1054.7,292.544,1063.7672,296.3891,1059.6993,292.4583,1063.6301,288.3903,1054.7,292.544" style="stroke: #A80036; stroke-width: 1.0;"/><text fill="#000000" font-family="sans-serif" font-size="13" lengthAdjust="spacingAndGlyphs" textLength="103" x="1811" y="196.0669">RelatedLineItem</text><text fill="#000000" font-family="sans-serif" font-size="13" lengthAdjust="spacingAndGlyphs" textLength="7" x="1063.6156" y="285.8338">*</text><!--link ProductQuantity to LineItem--><path d="M972.743,194.04 C809.531,197.486 325.949,209.713 303,234 C297.506,239.815 297.506,246.185 303,252 C326.95,277.346 852.582,289.557 992.201,292.36 " fill="none" id="ProductQuantity-LineItem" style="stroke: #A80036; stroke-width: 1.0;"/><polygon fill="#A80036" points="997.394,292.464,988.4758,288.2848,992.395,292.364,988.3158,296.2832,997.394,292.464" style="stroke: #A80036; stroke-width: 1.0;"/><text fill="#000000" font-family="sans-serif" font-size="13" lengthAdjust="spacingAndGlyphs" textLength="169" x="304" y="247.0669">NetWeightRelatedLineItem</text><text fill="#000000" font-family="sans-serif" font-size="13" lengthAdjust="spacingAndGlyphs" textLength="24" x="965.4202" y="286.8823">0..1</text><!--link ProductQuantity to LineItem--><path d="M972.379,193.285 C847.508,194.507 545.559,200.891 515,234 C509.574,239.879 509.574,246.121 515,252 C547.315,287.012 883.102,292.138 992.064,292.878 " fill="none" id="ProductQuantity-LineItem" style="stroke: #A80036; stroke-width: 1.0;"/><polygon fill="#A80036" points="997.386,292.912,988.4113,288.8555,992.3861,292.8806,988.361,296.8554,997.386,292.912" style="stroke: #A80036; stroke-width: 1.0;"/><text fill="#000000" font-family="sans-serif" font-size="13" lengthAdjust="spacingAndGlyphs" textLength="191" x="516" y="247.0669">BilledQuantityRelatedLineItem</text><text fill="#000000" font-family="sans-serif" font-size="13" lengthAdjust="spacingAndGlyphs" textLength="24" x="965.4109" y="306.0545">0..1</text><!--link ProductQuantity to LineItem--><path d="M972.701,192.971 C900.488,194.197 777.305,201.197 749,234 C743.774,240.057 743.774,245.943 749,252 C780.03,287.961 925.084,292.912 992.009,293.24 " fill="none" id="ProductQuantity-LineItem" style="stroke: #A80036; stroke-width: 1.0;"/><polygon fill="#A80036" points="997.077,293.257,988.0908,289.2262,992.077,293.2399,988.0633,297.2261,997.077,293.257" style="stroke: #A80036; stroke-width: 1.0;"/><text fill="#000000" font-family="sans-serif" font-size="13" lengthAdjust="spacingAndGlyphs" textLength="231" x="750" y="247.0669">ChargeFreeQuantityRelatedLineItem</text><text fill="#000000" font-family="sans-serif" font-size="13" lengthAdjust="spacingAndGlyphs" textLength="24" x="964.8445" y="272.3761">0..1</text><!--link ProductQuantity to LineItem--><path d="M1024.84,204.307 C1023.76,216.18 1022.39,235.396 1023,252 C1023.29,260.071 1023.92,269.017 1024.52,276.488 " fill="none" id="ProductQuantity-LineItem" style="stroke: #A80036; stroke-width: 1.0;"/><polygon fill="#A80036" points="1024.97,281.875,1028.2061,272.573,1024.5534,276.8924,1020.2339,273.2396,1024.97,281.875" style="stroke: #A80036; stroke-width: 1.0;"/><text fill="#000000" font-family="sans-serif" font-size="13" lengthAdjust="spacingAndGlyphs" textLength="141" x="1024" y="247.0669">MeasureQuantityStart</text><text fill="#000000" font-family="sans-serif" font-size="13" lengthAdjust="spacingAndGlyphs" textLength="8" x="1025.8191" y="270.8802">1</text><!--link ProductQuantity to LineItem--><path d="M1079.61,196.662 C1131.23,202.324 1197.81,216.561 1171,252 C1157.6,269.721 1098.13,281.977 1059.64,288.218 " fill="none" id="ProductQuantity-LineItem" style="stroke: #A80036; stroke-width: 1.0;"/><polygon fill="#A80036" points="1054.59,289.022,1064.1068,291.5578,1059.5279,288.2362,1062.8495,283.6572,1054.59,289.022" style="stroke: #A80036; stroke-width: 1.0;"/><text fill="#000000" font-family="sans-serif" font-size="13" lengthAdjust="spacingAndGlyphs" textLength="133" x="1178" y="247.0669">MeasureQuantityEnd</text><text fill="#000000" font-family="sans-serif" font-size="13" lengthAdjust="spacingAndGlyphs" textLength="8" x="1063.6153" y="301.8213">1</text><!--link ProductQuantity to LineItem--><path d="M1079.53,192.409 C1155.9,192.841 1290.31,198.755 1321,234 C1326.25,240.034 1326.25,245.966 1321,252 C1287.5,290.483 1130.32,293.998 1060.07,293.589 " fill="none" id="ProductQuantity-LineItem" style="stroke: #A80036; stroke-width: 1.0;"/><polygon fill="#A80036" points="1054.76,293.55,1063.7254,297.627,1059.7598,293.5929,1063.794,289.6273,1054.76,293.55" style="stroke: #A80036; stroke-width: 1.0;"/><text fill="#000000" font-family="sans-serif" font-size="13" lengthAdjust="spacingAndGlyphs" textLength="225" x="1325" y="247.0669">GrossPriceQuantityRelatedLineItem</text><text fill="#000000" font-family="sans-serif" font-size="13" lengthAdjust="spacingAndGlyphs" textLength="24" x="1063.5669" y="307.177">0..1</text><!--link ProductQuantity to LineItem--><path d="M1079.63,193.084 C1208.6,193.844 1527.82,199.252 1560,234 C1565.44,239.869 1565.44,246.131 1560,252 C1526.03,288.682 1172.19,292.667 1059.96,293.004 " fill="none" id="ProductQuantity-LineItem" style="stroke: #A80036; stroke-width: 1.0;"/><polygon fill="#A80036" points="1054.8,293.017,1063.8114,296.9913,1059.8,293.0027,1063.7885,288.9913,1054.8,293.017" style="stroke: #A80036; stroke-width: 1.0;"/><text fill="#000000" font-family="sans-serif" font-size="13" lengthAdjust="spacingAndGlyphs" textLength="211" x="1565" y="247.0669">NetPriceQuantityRelatedLineItem</text><text fill="#000000" font-family="sans-serif" font-size="13" lengthAdjust="spacingAndGlyphs" textLength="24" x="1063.6156" y="287.0274">0..1</text><!--link ProductQuantity to LineItem--><path d="M972.478,193.364 C780.339,194.929 135.112,202.518 105,234 C99.4704,239.781 99.4704,246.219 105,252 C136.259,284.682 830.392,291.615 992.406,292.79 " fill="none" id="ProductQuantity-LineItem" style="stroke: #A80036; stroke-width: 1.0;"/><polygon fill="#A80036" points="997.494,292.826,988.5228,288.7618,992.4941,292.7903,988.4657,296.7616,997.494,292.826" style="stroke: #A80036; stroke-width: 1.0;"/><text fill="#000000" font-family="sans-serif" font-size="13" lengthAdjust="spacingAndGlyphs" textLength="183" x="106" y="247.0669">GrossWeightRelatedLineItem</text><text fill="#000000" font-family="sans-serif" font-size="13" lengthAdjust="spacingAndGlyphs" textLength="24" x="965.5368" y="287.3042">0..1</text></g></svg>