<?xml version="1.0" encoding="UTF-8" standalone="no"?><svg xmlns="http://www.w3.org/2000/svg" xmlns:xlink="http://www.w3.org/1999/xlink" contentScriptType="application/ecmascript" contentStyleType="text/css" height="412px" preserveAspectRatio="none" style="width:743px;height:412px;" version="1.1" viewBox="0 0 743 412" width="743px" zoomAndPan="magnify"><defs><filter height="300%" id="fzrb3q5y30pkb" width="300%" x="-1" y="-1"><feGaussianBlur result="blurOut" stdDeviation="2.0"/><feColorMatrix in="blurOut" result="blurOut2" type="matrix" values="0 0 0 0 0 0 0 0 0 0 0 0 0 0 0 0 0 0 .4 0"/><feOffset dx="4.0" dy="4.0" in="blurOut2" result="blurOut3"/><feBlend in="SourceGraphic" in2="blurOut3" mode="normal"/></filter></defs><g><!--cluster ##6159--><!--cluster ##6165--><!--cluster ##6168--><!--class ObligationFulfilment--><a target="_top" xlink:actuate="onRequest" xlink:href="../ObligationFulfilment.html" xlink:show="new" xlink:title="Processes by which an obligation is extinguished fully or partially." xlink:type="simple"><rect fill="#FEFEEE" filter="url(#fzrb3q5y30pkb)" height="44.7734" id="ObligationFulfilment" style="stroke: #A80036; stroke-width: 1.5;" width="129" x="329.75" y="40.5"/><rect fill="#FEFEEE" height="23.9688" style="stroke: #A80036; stroke-width: 1.5;" width="129" x="329.75" y="40.5"/><text fill="#000000" font-family="sans-serif" font-size="12" lengthAdjust="spacingAndGlyphs" textLength="123" x="332.75" y="56.6387">ObligationFulfilment</text><line style="stroke: #A80036; stroke-width: 1.5;" x1="330.75" x2="457.75" y1="64.4688" y2="64.4688"/><ellipse cx="340.75" cy="76.3711" fill="#84BE84" rx="3" ry="3" style="stroke: #038048; stroke-width: 1.0;"/><text fill="#000000" font-family="sans-serif" font-size="11" lengthAdjust="spacingAndGlyphs" textLength="26" x="349.75" y="78.6792">Date</text><text fill="#000000" font-family="sans-serif" font-size="11" font-style="italic" lengthAdjust="spacingAndGlyphs" textLength="53" x="379.75" y="78.6792">(ISODate)</text></a><!--class PairOff--><a target="_top" xlink:actuate="onRequest" xlink:href="../PairOff.html" xlink:show="new" xlink:title="Transaction is paired off and netted against one or more previous transactions." xlink:type="simple"><rect fill="#FEFECE" filter="url(#fzrb3q5y30pkb)" height="23.9688" id="PairOff" style="stroke: #A80036; stroke-width: 1.5;" width="47" x="340.75" y="168"/><rect fill="#FEFECE" height="23.9688" style="stroke: #A80036; stroke-width: 1.5;" width="47" x="340.75" y="168"/><text fill="#000000" font-family="sans-serif" font-size="12" lengthAdjust="spacingAndGlyphs" textLength="41" x="343.75" y="184.1387">PairOff</text></a><!--class Obligation--><a target="_top" xlink:actuate="onRequest" xlink:href="../Obligation.html" xlink:show="new" xlink:title="Specifies the assets (quantity of securities, goods, services, and cash amounts) that have to be delivered." xlink:type="simple"><rect fill="#EEEEEE" filter="url(#fzrb3q5y30pkb)" height="23.9688" id="Obligation" style="stroke: #A80036; stroke-width: 1.5;" width="69" x="515.75" y="168"/><rect fill="#EEEEEE" height="23.9688" style="stroke: #A80036; stroke-width: 1.5;" width="69" x="515.75" y="168"/><text fill="#000000" font-family="sans-serif" font-size="12" lengthAdjust="spacingAndGlyphs" textLength="63" x="518.75" y="184.1387">Obligation</text></a><!--class SecuritiesQuantity--><a target="_top" xlink:actuate="onRequest" xlink:href="../SecuritiesQuantity.html" xlink:show="new" xlink:title="Quantity of a security." xlink:type="simple"><rect fill="#EEEEEE" filter="url(#fzrb3q5y30pkb)" height="23.9688" id="SecuritiesQuantity" style="stroke: #A80036; stroke-width: 1.5;" width="120" x="213.5" y="276"/><rect fill="#EEEEEE" height="23.9688" style="stroke: #A80036; stroke-width: 1.5;" width="120" x="213.5" y="276"/><text fill="#000000" font-family="sans-serif" font-size="12" lengthAdjust="spacingAndGlyphs" textLength="114" x="216.5" y="292.1387">SecuritiesQuantity</text></a><!--class SecuritiesSettlement--><a target="_top" xlink:actuate="onRequest" xlink:href="../SecuritiesSettlement.html" xlink:show="new" xlink:title="Settlement of the securities in a securities transaction, that is, the instruction to deliver or receive securities, involving the payment of an amount of money or not." xlink:type="simple"><rect fill="#EEEEEE" filter="url(#fzrb3q5y30pkb)" height="23.9688" id="SecuritiesSettlement" style="stroke: #A80036; stroke-width: 1.5;" width="137" x="249.75" y="378"/><rect fill="#EEEEEE" height="23.9688" style="stroke: #A80036; stroke-width: 1.5;" width="137" x="249.75" y="378"/><text fill="#000000" font-family="sans-serif" font-size="12" lengthAdjust="spacingAndGlyphs" textLength="131" x="252.75" y="394.1387">SecuritiesSettlement</text></a><!--link ObligationFulfilment to PairOff--><path d="M372.927,104.181 C371.406,108.104 370.057,112.083 369,116 C364.253,133.584 363.56,154.853 363.659,167.635 " fill="none" id="ObligationFulfilment-PairOff" style="stroke: #A80036; stroke-width: 1.0;"/><polygon fill="none" points="366.748,100.859,381.421,85.572,379.484,106.673,366.748,100.859" style="stroke: #A80036; stroke-width: 1.0;"/><!--link SecuritiesSettlement to SecuritiesQuantity--><!--link SecuritiesQuantity to SecuritiesSettlement--><path d="M213.361,288.257 C139.517,289.353 28.2749,298.81 70,348 C92.079,374.0289 179.77,383.5566 244.647,387.0304 " fill="none" id="SecuritiesQuantity-SecuritiesSettlement" style="stroke: #A80036; stroke-width: 1.0;"/><polygon fill="#A80036" points="249.67,387.2898,240.8889,382.8297,244.6767,387.0312,240.4752,390.819,249.67,387.2898" style="stroke: #A80036; stroke-width: 1.0;"/><text fill="#000000" font-family="sans-serif" font-size="13" lengthAdjust="spacingAndGlyphs" textLength="135" x="71" y="343.0669">SecuritiesSettlement</text><text fill="#000000" font-family="sans-serif" font-size="13" lengthAdjust="spacingAndGlyphs" textLength="24" x="217.6592" y="382.4004">0..1</text><!--link SecuritiesQuantity to SecuritiesSettlement--><path d="M260.774,300.134 C249.072,312.195 234.498,331.873 244,348 C251.371,360.51 264.084,369.4722 276.915,375.7612 " fill="none" id="SecuritiesQuantity-SecuritiesSettlement" style="stroke: #A80036; stroke-width: 1.0;"/><polygon fill="#A80036" points="281.637,377.9588,275.1636,370.5362,277.1034,375.85,271.7896,377.7899,281.637,377.9588" style="stroke: #A80036; stroke-width: 1.0;"/><text fill="#000000" font-family="sans-serif" font-size="13" lengthAdjust="spacingAndGlyphs" textLength="193" x="245" y="343.0669">RelatedTurnaroundSettlement</text><text fill="#000000" font-family="sans-serif" font-size="13" lengthAdjust="spacingAndGlyphs" textLength="8" x="258.3325" y="366.9929">1</text><!--link ObligationFulfilment to Obligation--><path d="M390.054,85.663 C388.559,101.264 389.603,121.66 402,134 C413.566,145.513 459.333,137.432 475,142 C493.409,147.368 512.785,157.045 527.231,165.156 " fill="none" id="ObligationFulfilment-Obligation" style="stroke: #A80036; stroke-width: 1.0;"/><polygon fill="#A80036" points="531.932,167.838,526.0962,159.9043,527.5889,165.3607,522.1325,166.8534,531.932,167.838" style="stroke: #A80036; stroke-width: 1.0;"/><text fill="#000000" font-family="sans-serif" font-size="13" lengthAdjust="spacingAndGlyphs" textLength="102" x="403" y="129.0669">ObligationOffset</text><text fill="#000000" font-family="sans-serif" font-size="13" lengthAdjust="spacingAndGlyphs" textLength="7" x="516.0883" y="156.8305">*</text><!--link ObligationFulfilment to Obligation--><path d="M458.466,84.518 C476.778,92.402 495.841,102.775 511,116 C525.849,128.954 536.892,148.964 543.367,162.946 " fill="none" id="ObligationFulfilment-Obligation" style="stroke: #A80036; stroke-width: 1.0;"/><polygon fill="#A80036" points="545.544,167.8,545.5083,157.9512,543.4968,163.2383,538.2096,161.2268,545.544,167.8" style="stroke: #A80036; stroke-width: 1.0;"/><text fill="#000000" font-family="sans-serif" font-size="13" lengthAdjust="spacingAndGlyphs" textLength="122" x="526" y="129.0669">ResultingObligation</text><text fill="#000000" font-family="sans-serif" font-size="13" lengthAdjust="spacingAndGlyphs" textLength="7" x="534.4945" y="157.0372">*</text><!--link PairOff to SecuritiesQuantity--><path d="M354.261,192.344 C337.773,211.55 304.358,250.474 285.928,271.941 " fill="none" id="PairOff-SecuritiesQuantity" style="stroke: #A80036; stroke-width: 1.0;"/><polygon fill="#A80036" points="282.669,275.738,291.5671,271.5161,285.9265,271.9447,285.4979,266.3042,282.669,275.738" style="stroke: #A80036; stroke-width: 1.0;"/><text fill="#000000" font-family="sans-serif" font-size="13" lengthAdjust="spacingAndGlyphs" textLength="112" x="325" y="239.0669">PairedOffQuantity</text><text fill="#000000" font-family="sans-serif" font-size="13" lengthAdjust="spacingAndGlyphs" textLength="8" x="275.05" y="264.9547">1</text><!--link PairOff to SecuritiesSettlement--><path d="M387.252,186.897 C406.724,193.152 433.443,205.097 447,226 C476.569,271.589 487.451,304.415 455,348 C440.051,368.0785 415.625,378.7009 391.507,384.2013 " fill="none" id="PairOff-SecuritiesSettlement" style="stroke: #A80036; stroke-width: 1.0;"/><polygon fill="#A80036" points="386.368,385.2988,396.0055,387.3282,391.2574,384.2531,394.3325,379.5051,386.368,385.2988" style="stroke: #A80036; stroke-width: 1.0;"/><text fill="#000000" font-family="sans-serif" font-size="13" lengthAdjust="spacingAndGlyphs" textLength="183" x="476" y="292.0669">RelatedSecuritiesSettlement</text><text fill="#000000" font-family="sans-serif" font-size="13" lengthAdjust="spacingAndGlyphs" textLength="8" x="394.7066" y="379.8488">1</text><!--link Obligation to Obligation--><path d="M584.437,170.261 C602.569,168.685 619,171.932 619,180 C619,187.312 605.505,190.664 589.48,190.055 " fill="none" id="Obligation-Obligation" style="stroke: #A80036; stroke-width: 1.0;"/><polygon fill="#A80036" points="584.437,189.739,593.1691,194.2943,589.4272,190.0519,593.6697,186.31,584.437,189.739" style="stroke: #A80036; stroke-width: 1.0;"/><text fill="#000000" font-family="sans-serif" font-size="13" lengthAdjust="spacingAndGlyphs" textLength="106" x="625" y="184.0669">ParentObligation</text><text fill="#000000" font-family="sans-serif" font-size="13" lengthAdjust="spacingAndGlyphs" textLength="8" x="592.7904" y="186.0949">1</text></g></svg>