<?xml version="1.0" encoding="UTF-8" standalone="no"?><svg xmlns="http://www.w3.org/2000/svg" xmlns:xlink="http://www.w3.org/1999/xlink" contentScriptType="application/ecmascript" contentStyleType="text/css" height="710px" preserveAspectRatio="none" style="width:1510px;height:710px;" version="1.1" viewBox="0 0 1510 710" width="1510px" zoomAndPan="magnify"><defs><filter height="300%" id="felqz743sounm" width="300%" x="-1" y="-1"><feGaussianBlur result="blurOut" stdDeviation="2.0"/><feColorMatrix in="blurOut" result="blurOut2" type="matrix" values="0 0 0 0 0 0 0 0 0 0 0 0 0 0 0 0 0 0 .4 0"/><feOffset dx="4.0" dy="4.0" in="blurOut2" result="blurOut3"/><feBlend in="SourceGraphic" in2="blurOut3" mode="normal"/></filter></defs><g><!--cluster ##2240--><!--cluster ##2252--><!--cluster ##2257--><!--class RolePlayer--><a target="_top" xlink:actuate="onRequest" xlink:href="../RolePlayer.html" xlink:show="new" xlink:title="Type of entity that plays a specific role in a specific context." xlink:type="simple"><rect fill="#FEFEEE" filter="url(#felqz743sounm)" height="23.9688" id="RolePlayer" style="stroke: #A80036; stroke-width: 1.5;" width="71" x="555.75" y="40"/><rect fill="#FEFEEE" height="23.9688" style="stroke: #A80036; stroke-width: 1.5;" width="71" x="555.75" y="40"/><text fill="#000000" font-family="sans-serif" font-size="12" lengthAdjust="spacingAndGlyphs" textLength="65" x="558.75" y="56.1387">RolePlayer</text></a><!--class Party--><a target="_top" xlink:actuate="onRequest" xlink:href="../Party.html" xlink:show="new" xlink:title="Entity involved in an activity." xlink:type="simple"><rect fill="#FEFECE" filter="url(#felqz743sounm)" height="57.5781" id="Party" style="stroke: #A80036; stroke-width: 1.5;" width="334" x="293.5" y="142"/><rect fill="#FEFECE" height="23.9688" style="stroke: #A80036; stroke-width: 1.5;" width="334" x="293.5" y="142"/><text fill="#000000" font-family="sans-serif" font-size="12" lengthAdjust="spacingAndGlyphs" textLength="32" x="444.5" y="158.1387">Party</text><line style="stroke: #A80036; stroke-width: 1.5;" x1="294.5" x2="626.5" y1="165.9688" y2="165.9688"/><ellipse cx="304.5" cy="177.8711" fill="#84BE84" rx="3" ry="3" style="stroke: #038048; stroke-width: 1.0;"/><text fill="#000000" font-family="sans-serif" font-size="11" lengthAdjust="spacingAndGlyphs" textLength="133" x="313.5" y="180.1792">MoneyLaunderingCheck</text><text fill="#000000" font-family="sans-serif" font-size="11" font-style="italic" lengthAdjust="spacingAndGlyphs" textLength="171" x="450.5" y="180.1792">(MoneyLaunderingCheckCode)</text><ellipse cx="304.5" cy="190.6758" fill="#84BE84" rx="3" ry="3" style="stroke: #038048; stroke-width: 1.0;"/><text fill="#000000" font-family="sans-serif" font-size="11" lengthAdjust="spacingAndGlyphs" textLength="73" x="313.5" y="192.9839">CreditQuality</text><text fill="#000000" font-family="sans-serif" font-size="11" font-style="italic" lengthAdjust="spacingAndGlyphs" textLength="111" x="390.5" y="192.9839">(CreditQualityCode)</text></a><!--class Organisation--><a target="_top" xlink:actuate="onRequest" xlink:href="../Organisation.html" xlink:show="new" xlink:title="Organised structure that is set up for a particular purpose. For example, a business, government body, department, charity, or financial institution." xlink:type="simple"><rect fill="#FEFEEE" filter="url(#felqz743sounm)" height="23.9688" id="Organisation" style="stroke: #A80036; stroke-width: 1.5;" width="86" x="293" y="280"/><rect fill="#FEFEEE" height="23.9688" style="stroke: #A80036; stroke-width: 1.5;" width="86" x="293" y="280"/><text fill="#000000" font-family="sans-serif" font-size="12" lengthAdjust="spacingAndGlyphs" textLength="80" x="296" y="296.1387">Organisation</text></a><!--class Person--><a target="_top" xlink:actuate="onRequest" xlink:href="../Person.html" xlink:show="new" xlink:title="Human entity, as distinguished from a corporate entity (which is sometimes referred to as an 'artificial person')." xlink:type="simple"><rect fill="#FEFEEE" filter="url(#felqz743sounm)" height="23.9688" id="Person" style="stroke: #A80036; stroke-width: 1.5;" width="50" x="568" y="280"/><rect fill="#FEFEEE" height="23.9688" style="stroke: #A80036; stroke-width: 1.5;" width="50" x="568" y="280"/><text fill="#000000" font-family="sans-serif" font-size="12" lengthAdjust="spacingAndGlyphs" textLength="44" x="571" y="296.1387">Person</text></a><!--class Role--><a target="_top" xlink:actuate="onRequest" xlink:href="../Role.html" xlink:show="new" xlink:title="Role of a party in an activity." xlink:type="simple"><rect fill="#EEEEEE" filter="url(#felqz743sounm)" height="23.9688" id="Role" style="stroke: #A80036; stroke-width: 1.5;" width="33" x="1283.75" y="280"/><rect fill="#EEEEEE" height="23.9688" style="stroke: #A80036; stroke-width: 1.5;" width="33" x="1283.75" y="280"/><text fill="#000000" font-family="sans-serif" font-size="12" lengthAdjust="spacingAndGlyphs" textLength="27" x="1286.75" y="296.1387">Role</text></a><!--class DateTimePeriod--><a target="_top" xlink:actuate="onRequest" xlink:href="../DateTimePeriod.html" xlink:show="new" xlink:title="Time span defined by a start date and time, and an end date and time." xlink:type="simple"><rect fill="#EEEEEE" filter="url(#felqz743sounm)" height="23.9688" id="DateTimePeriod" style="stroke: #A80036; stroke-width: 1.5;" width="105" x="1211.75" y="159"/><rect fill="#EEEEEE" height="23.9688" style="stroke: #A80036; stroke-width: 1.5;" width="105" x="1211.75" y="159"/><text fill="#000000" font-family="sans-serif" font-size="12" lengthAdjust="spacingAndGlyphs" textLength="99" x="1214.75" y="175.1387">DateTimePeriod</text></a><!--class ContactPoint--><a target="_top" xlink:actuate="onRequest" xlink:href="../ContactPoint.html" xlink:show="new" xlink:title="Number, physical or virtual address, used for communication." xlink:type="simple"><rect fill="#EEEEEE" filter="url(#felqz743sounm)" height="23.9688" id="ContactPoint" style="stroke: #A80036; stroke-width: 1.5;" width="87" x="38.75" y="662"/><rect fill="#EEEEEE" height="23.9688" style="stroke: #A80036; stroke-width: 1.5;" width="87" x="38.75" y="662"/><text fill="#000000" font-family="sans-serif" font-size="12" lengthAdjust="spacingAndGlyphs" textLength="81" x="41.75" y="678.1387">ContactPoint</text></a><!--class PartyIdentificationInformation--><a target="_top" xlink:actuate="onRequest" xlink:href="../PartyIdentificationInformation.html" xlink:show="new" xlink:title="Unique and unambiguous way to identify a party" xlink:type="simple"><rect fill="#EEEEEE" filter="url(#felqz743sounm)" height="23.9688" id="PartyIdentificationInformation" style="stroke: #A80036; stroke-width: 1.5;" width="190" x="47" y="574"/><rect fill="#EEEEEE" height="23.9688" style="stroke: #A80036; stroke-width: 1.5;" width="190" x="47" y="574"/><text fill="#000000" font-family="sans-serif" font-size="12" lengthAdjust="spacingAndGlyphs" textLength="184" x="50" y="590.1387">PartyIdentificationInformation</text></a><!--class Tax--><a target="_top" xlink:actuate="onRequest" xlink:href="../Tax.html" xlink:show="new" xlink:title="Amount of money due to the government or tax authority, according to various pre-defined parameters such as thresholds or income." xlink:type="simple"><rect fill="#EEEEEE" filter="url(#felqz743sounm)" height="23.9688" id="Tax" style="stroke: #A80036; stroke-width: 1.5;" width="27" x="193.75" y="488"/><rect fill="#EEEEEE" height="23.9688" style="stroke: #A80036; stroke-width: 1.5;" width="27" x="193.75" y="488"/><text fill="#000000" font-family="sans-serif" font-size="12" lengthAdjust="spacingAndGlyphs" textLength="21" x="196.75" y="504.1387">Tax</text></a><!--class Location--><a target="_top" xlink:actuate="onRequest" xlink:href="../Location.html" xlink:show="new" xlink:title="Specifies a place." xlink:type="simple"><rect fill="#EEEEEE" filter="url(#felqz743sounm)" height="23.9688" id="Location" style="stroke: #A80036; stroke-width: 1.5;" width="59" x="177.75" y="386"/><rect fill="#EEEEEE" height="23.9688" style="stroke: #A80036; stroke-width: 1.5;" width="59" x="177.75" y="386"/><text fill="#000000" font-family="sans-serif" font-size="12" lengthAdjust="spacingAndGlyphs" textLength="53" x="180.75" y="402.1387">Location</text></a><!--class PowerOfAttorney--><a target="_top" xlink:actuate="onRequest" xlink:href="../PowerOfAttorney.html" xlink:show="new" xlink:title="Document that transfers specific rights from a party to another party." xlink:type="simple"><rect fill="#EEEEEE" filter="url(#felqz743sounm)" height="23.9688" id="PowerOfAttorney" style="stroke: #A80036; stroke-width: 1.5;" width="110" x="111" y="280"/><rect fill="#EEEEEE" height="23.9688" style="stroke: #A80036; stroke-width: 1.5;" width="110" x="111" y="280"/><text fill="#000000" font-family="sans-serif" font-size="12" lengthAdjust="spacingAndGlyphs" textLength="104" x="114" y="296.1387">PowerOfAttorney</text></a><!--class Security--><a target="_top" xlink:actuate="onRequest" xlink:href="../Security.html" xlink:show="new" xlink:title="Financial instruments representing a sum of rights of the investor vis-a-vis the issuer." xlink:type="simple"><rect fill="#EEEEEE" filter="url(#felqz743sounm)" height="23.9688" id="Security" style="stroke: #A80036; stroke-width: 1.5;" width="56" x="87.5" y="159"/><rect fill="#EEEEEE" height="23.9688" style="stroke: #A80036; stroke-width: 1.5;" width="56" x="87.5" y="159"/><text fill="#000000" font-family="sans-serif" font-size="12" lengthAdjust="spacingAndGlyphs" textLength="50" x="90.5" y="175.1387">Security</text></a><!--link RolePlayer to Party--><path d="M563.265,77.771 C542.254,96.536 513.369,122.335 491.49,141.876 " fill="none" id="RolePlayer-Party" style="stroke: #A80036; stroke-width: 1.0;"/><polygon fill="none" points="558.859,72.32,578.439,64.218,568.185,82.762,558.859,72.32" style="stroke: #A80036; stroke-width: 1.0;"/><!--link Party to Organisation--><path d="M416.117,214.113 C391.742,237.506 363.27,264.83 347.681,279.79 " fill="none" id="Party-Organisation" style="stroke: #A80036; stroke-width: 1.0;"/><polygon fill="none" points="411.337,208.999,430.614,200.201,421.031,219.1,411.337,208.999" style="stroke: #A80036; stroke-width: 1.0;"/><!--link Party to Person--><path d="M506.698,213.782 C532.924,237.248 563.672,264.759 580.471,279.79 " fill="none" id="Party-Person" style="stroke: #A80036; stroke-width: 1.0;"/><polygon fill="none" points="501.756,218.754,491.519,200.201,511.092,208.321,501.756,218.754" style="stroke: #A80036; stroke-width: 1.0;"/><!--link DateTimePeriod to Role--><!--link PartyIdentificationInformation to ContactPoint--><!--link Tax to PartyIdentificationInformation--><!--link Location to Tax--><!--link PowerOfAttorney to Location--><!--link Security to PowerOfAttorney--><!--link RolePlayer to Role--><path d="M626.65,54.175 C768.295,59.209 1285.88,81.191 1333,135 C1368.63,175.692 1330.65,245.145 1310.67,275.75 " fill="none" id="RolePlayer-Role" style="stroke: #A80036; stroke-width: 1.0;"/><polygon fill="#A80036" points="1307.86,279.976,1316.1755,274.6984,1310.6295,275.8131,1309.5149,270.2672,1307.86,279.976" style="stroke: #A80036; stroke-width: 1.0;"/><text fill="#000000" font-family="sans-serif" font-size="13" lengthAdjust="spacingAndGlyphs" textLength="27" x="1349" y="175.0669">Role</text><text fill="#000000" font-family="sans-serif" font-size="13" lengthAdjust="spacingAndGlyphs" textLength="23" x="1282.1791" y="269.016">1..*</text><!--link RolePlayer to DateTimePeriod--><path d="M626.708,59.208 C736.71,78.331 1071.13,136.469 1206.35,159.977 " fill="none" id="RolePlayer-DateTimePeriod" style="stroke: #A80036; stroke-width: 1.0;"/><polygon fill="#A80036" points="1211.46,160.867,1203.279,155.3833,1206.534,160.0098,1201.9075,163.2648,1211.46,160.867" style="stroke: #A80036; stroke-width: 1.0;"/><text fill="#000000" font-family="sans-serif" font-size="13" lengthAdjust="spacingAndGlyphs" textLength="86" x="929" y="107.0669">ValidityPeriod</text><text fill="#000000" font-family="sans-serif" font-size="13" lengthAdjust="spacingAndGlyphs" textLength="24" x="1179.6754" y="155.0208">0..1</text><!--link Party to ContactPoint--><path d="M626.621,176.115 C900.305,185.123 1415,212.498 1415,291 C1415,291 1415,291 1415,587 C1415,652.6807 370.793,669.4654 130.774,672.4559 " fill="none" id="Party-ContactPoint" style="stroke: #A80036; stroke-width: 1.0;"/><polygon fill="#A80036" points="125.593,672.5199,134.6426,676.4064,130.5926,672.457,134.542,668.4071,125.593,672.5199" style="stroke: #A80036; stroke-width: 1.0;"/><text fill="#000000" font-family="sans-serif" font-size="13" lengthAdjust="spacingAndGlyphs" textLength="82" x="1416" y="453.0669">ContactPoint</text><text fill="#000000" font-family="sans-serif" font-size="13" lengthAdjust="spacingAndGlyphs" textLength="23" x="133.6481" y="667.133">1..*</text><!--link Party to PartyIdentificationInformation--><path d="M626.662,174.242 C823.174,183.02 1110.57,218.766 1005,356 C911.739,477.235 449.408,547.641 242.456,573.538 " fill="none" id="Party-PartyIdentificationInformation" style="stroke: #A80036; stroke-width: 1.0;"/><polygon fill="#A80036" points="237.313,574.179,246.7387,577.0348,242.2746,573.5604,245.749,569.0963,237.313,574.179" style="stroke: #A80036; stroke-width: 1.0;"/><text fill="#000000" font-family="sans-serif" font-size="13" lengthAdjust="spacingAndGlyphs" textLength="81" x="972" y="402.0669">Identification</text><text fill="#000000" font-family="sans-serif" font-size="13" lengthAdjust="spacingAndGlyphs" textLength="23" x="245.1571" y="568.7596">1..*</text><!--link Party to Tax--><path d="M626.637,180.203 C773.943,193.993 954.711,230.953 880,330 C797.053,439.965 325.288,488.323 225.528,497.393 " fill="none" id="Party-Tax" style="stroke: #A80036; stroke-width: 1.0;"/><polygon fill="#A80036" points="220.274,497.866,229.5957,501.0451,225.254,497.4189,228.8802,493.0772,220.274,497.866" style="stroke: #A80036; stroke-width: 1.0;"/><text fill="#000000" font-family="sans-serif" font-size="13" lengthAdjust="spacingAndGlyphs" textLength="121" x="874" y="351.0669">TaxationConditions</text><text fill="#000000" font-family="sans-serif" font-size="13" lengthAdjust="spacingAndGlyphs" textLength="8" x="228.5732" y="488.7888">1</text><!--link Party to Location--><path d="M541.165,200.007 C576.62,216.756 614.687,241.947 635,278 C652.217,308.558 651.581,335.669 623,356 C592.203,377.908 336.077,391.31 241.723,395.543 " fill="none" id="Party-Location" style="stroke: #A80036; stroke-width: 1.0;"/><polygon fill="#A80036" points="236.547,395.773,245.7153,399.3706,241.5421,395.5516,245.3611,391.3784,236.547,395.773" style="stroke: #A80036; stroke-width: 1.0;"/><text fill="#000000" font-family="sans-serif" font-size="13" lengthAdjust="spacingAndGlyphs" textLength="55" x="648" y="296.0669">Domicile</text><text fill="#000000" font-family="sans-serif" font-size="13" lengthAdjust="spacingAndGlyphs" textLength="8" x="244.6631" y="389.2452">1</text><!--link Party to Location--><path d="M585.817,200.09 C667.863,224.885 752.901,267.002 713,330 C698.532,352.842 684.086,348.889 658,356 C579.459,377.41 332.869,391.01 241.502,395.426 " fill="none" id="Party-Location" style="stroke: #A80036; stroke-width: 1.0;"/><polygon fill="#A80036" points="236.489,395.667,245.6706,399.2304,241.4832,395.427,245.2866,391.2396,236.489,395.667" style="stroke: #A80036; stroke-width: 1.0;"/><text fill="#000000" font-family="sans-serif" font-size="13" lengthAdjust="spacingAndGlyphs" textLength="65" x="725" y="296.0669">Residence</text><text fill="#000000" font-family="sans-serif" font-size="13" lengthAdjust="spacingAndGlyphs" textLength="7" x="244.8784" y="409.079">*</text><!--link Party to Location--><path d="M626.653,192.531 C738.999,213.55 857.13,254.262 800,330 C766.149,374.877 363.516,391.817 241.698,395.934 " fill="none" id="Party-Location" style="stroke: #A80036; stroke-width: 1.0;"/><polygon fill="#A80036" points="236.454,396.11,245.5827,399.8069,241.4512,395.9429,245.3153,391.8114,236.454,396.11" style="stroke: #A80036; stroke-width: 1.0;"/><text fill="#000000" font-family="sans-serif" font-size="13" lengthAdjust="spacingAndGlyphs" textLength="54" x="816" y="296.0669">Location</text><text fill="#000000" font-family="sans-serif" font-size="13" lengthAdjust="spacingAndGlyphs" textLength="8" x="244.6994" y="384.8325">1</text><!--link Party to PowerOfAttorney--><path d="M348.438,200.01 C320.982,208.351 292.01,218.412 266,230 C236.468,243.157 205.051,263.497 185.478,277.025 " fill="none" id="Party-PowerOfAttorney" style="stroke: #A80036; stroke-width: 1.0;"/><polygon fill="#A80036" points="181.247,279.972,190.9188,278.1129,185.3506,277.1153,186.3481,271.5471,181.247,279.972" style="stroke: #A80036; stroke-width: 1.0;"/><text fill="#000000" font-family="sans-serif" font-size="13" lengthAdjust="spacingAndGlyphs" textLength="107" x="267" y="243.0669">PowerOfAttorney</text><text fill="#000000" font-family="sans-serif" font-size="13" lengthAdjust="spacingAndGlyphs" textLength="24" x="157.0194" y="269.0106">0..1</text><!--link Party to Security--><path d="M293.23,171 C238.036,171 182.06,171 147.935,171 " fill="none" id="Party-Security" style="stroke: #A80036; stroke-width: 1.0;"/><polygon fill="#A80036" points="142.65,171,151.65,175,147.65,171,151.65,167,142.65,171" style="stroke: #A80036; stroke-width: 1.0;"/><text fill="#000000" font-family="sans-serif" font-size="13" lengthAdjust="spacingAndGlyphs" textLength="112" x="161" y="163.0669">CloseLinkSecurity</text><text fill="#000000" font-family="sans-serif" font-size="13" lengthAdjust="spacingAndGlyphs" textLength="8" x="151.4109" y="164.6993">1</text><!--link Organisation to Organisation--><path d="M379.314,282.367 C398.001,281.578 414,284.789 414,292 C414,298.535 400.86,301.785 384.488,301.75 " fill="none" id="Organisation-Organisation" style="stroke: #A80036; stroke-width: 1.0;"/><polygon fill="#A80036" points="379.314,301.633,388.2214,305.8351,384.3127,301.7459,388.402,297.8372,379.314,301.633" style="stroke: #A80036; stroke-width: 1.0;"/><text fill="#000000" font-family="sans-serif" font-size="13" lengthAdjust="spacingAndGlyphs" textLength="123" x="420" y="296.0669">ParentOrganisation</text><text fill="#000000" font-family="sans-serif" font-size="13" lengthAdjust="spacingAndGlyphs" textLength="8" x="386.8547" y="297.8935">1</text><!--link Organisation to Location--><path d="M315.08,304.139 C298.634,312.446 274.917,323.446 253,330 C242.43,333.161 211.145,329.593 204,338 C194.031,349.728 196.782,367.982 200.764,381.08 " fill="none" id="Organisation-Location" style="stroke: #A80036; stroke-width: 1.0;"/><polygon fill="#A80036" points="202.389,385.996,203.3642,376.1955,200.8207,381.2483,195.768,378.7048,202.389,385.996" style="stroke: #A80036; stroke-width: 1.0;"/><text fill="#000000" font-family="sans-serif" font-size="13" lengthAdjust="spacingAndGlyphs" textLength="111" x="205" y="351.0669">PlaceOfOperation</text><text fill="#000000" font-family="sans-serif" font-size="13" lengthAdjust="spacingAndGlyphs" textLength="7" x="191.1712" y="375.0428">*</text><!--link Organisation to Location--><path d="M336.588,304.232 C336.692,318.082 334.758,341.556 322,356 C301.61,379.085 267.314,389.173 241.47,393.581 " fill="none" id="Organisation-Location" style="stroke: #A80036; stroke-width: 1.0;"/><polygon fill="#A80036" points="236.42,394.389,245.939,396.9167,241.3572,393.599,244.6749,389.0172,236.42,394.389" style="stroke: #A80036; stroke-width: 1.0;"/><text fill="#000000" font-family="sans-serif" font-size="13" lengthAdjust="spacingAndGlyphs" textLength="124" x="333" y="351.0669">PlaceOfRegistration</text><text fill="#000000" font-family="sans-serif" font-size="13" lengthAdjust="spacingAndGlyphs" textLength="24" x="244.9113" y="407.2749">0..1</text><!--link Person to Location--><path d="M582.629,304.095 C574.453,312.267 562.397,323.113 550,330 C448.368,386.456 306.716,395.934 241.891,397.131 " fill="none" id="Person-Location" style="stroke: #A80036; stroke-width: 1.0;"/><polygon fill="#A80036" points="236.608,397.213,245.6687,401.0736,241.6074,397.1358,245.5452,393.0746,236.608,397.213" style="stroke: #A80036; stroke-width: 1.0;"/><text fill="#000000" font-family="sans-serif" font-size="13" lengthAdjust="spacingAndGlyphs" textLength="78" x="535" y="351.0669">PlaceOfBirth</text><text fill="#000000" font-family="sans-serif" font-size="13" lengthAdjust="spacingAndGlyphs" textLength="8" x="244.9631" y="414.1214">1</text><!--link DateTimePeriod to PartyIdentificationInformation--><path d="M1258.54,183.182 C1248.93,203.918 1230,249.961 1230,291 C1230,291 1230,291 1230,501 C1230,550.268 511.433,574.935 242.228,582.448 " fill="none" id="DateTimePeriod-PartyIdentificationInformation" style="stroke: #A80036; stroke-width: 1.0;"/><polygon fill="#A80036" points="237.124,582.59,246.2325,586.3364,242.122,582.45,246.0084,578.3395,237.124,582.59" style="stroke: #A80036; stroke-width: 1.0;"/><text fill="#000000" font-family="sans-serif" font-size="13" lengthAdjust="spacingAndGlyphs" textLength="129" x="1231" y="402.0669">RelatedIdentification</text><text fill="#000000" font-family="sans-serif" font-size="13" lengthAdjust="spacingAndGlyphs" textLength="7" x="244.9831" y="594.9894">*</text><!--link ContactPoint to ContactPoint--><path d="M125.314,665.8487 C144.001,665.1813 160,667.8984 160,674 C160,679.5295 146.86,682.2795 130.488,682.2498 " fill="none" id="ContactPoint-ContactPoint" style="stroke: #A80036; stroke-width: 1.0;"/><polygon fill="#A80036" points="125.314,682.1513,134.2358,686.3229,130.3131,682.247,134.3889,678.3243,125.314,682.1513" style="stroke: #A80036; stroke-width: 1.0;"/><text fill="#000000" font-family="sans-serif" font-size="13" lengthAdjust="spacingAndGlyphs" textLength="80" x="166" y="678.0669">MainContact</text><text fill="#000000" font-family="sans-serif" font-size="13" lengthAdjust="spacingAndGlyphs" textLength="8" x="133.6973" y="697.0207">1</text></g></svg>