<?xml version="1.0" encoding="UTF-8" standalone="no"?><svg xmlns="http://www.w3.org/2000/svg" xmlns:xlink="http://www.w3.org/1999/xlink" contentScriptType="application/ecmascript" contentStyleType="text/css" height="698px" preserveAspectRatio="none" style="width:1510px;height:698px;" version="1.1" viewBox="0 0 1510 698" width="1510px" zoomAndPan="magnify"><defs><filter height="300%" id="f4anf75s7tda5" width="300%" x="-1" y="-1"><feGaussianBlur result="blurOut" stdDeviation="2.0"/><feColorMatrix in="blurOut" result="blurOut2" type="matrix" values="0 0 0 0 0 0 0 0 0 0 0 0 0 0 0 0 0 0 .4 0"/><feOffset dx="4.0" dy="4.0" in="blurOut2" result="blurOut3"/><feBlend in="SourceGraphic" in2="blurOut3" mode="normal"/></filter></defs><g><!--cluster ##745--><!--cluster ##757--><!--cluster ##762--><!--class RolePlayer--><a target="_top" xlink:actuate="onRequest" xlink:href="../RolePlayer.html" xlink:show="new" xlink:title="Type of entity that plays a specific role in a specific context." xlink:type="simple"><rect fill="#FEFEEE" filter="url(#f4anf75s7tda5)" height="23.9688" id="RolePlayer" style="stroke: #A80036; stroke-width: 1.5;" width="71" x="555.75" y="40"/><rect fill="#FEFEEE" height="23.9688" style="stroke: #A80036; stroke-width: 1.5;" width="71" x="555.75" y="40"/><text fill="#000000" font-family="sans-serif" font-size="12" lengthAdjust="spacingAndGlyphs" textLength="65" x="558.75" y="56.1387">RolePlayer</text></a><!--class Party--><a target="_top" xlink:actuate="onRequest" xlink:href="../Party.html" xlink:show="new" xlink:title="Entity involved in an activity." xlink:type="simple"><rect fill="#FEFECE" filter="url(#f4anf75s7tda5)" height="44.7734" id="Party" style="stroke: #A80036; stroke-width: 1.5;" width="334" x="293.5" y="142.5"/><rect fill="#FEFECE" height="23.9688" style="stroke: #A80036; stroke-width: 1.5;" width="334" x="293.5" y="142.5"/><text fill="#000000" font-family="sans-serif" font-size="12" lengthAdjust="spacingAndGlyphs" textLength="32" x="444.5" y="158.6387">Party</text><line style="stroke: #A80036; stroke-width: 1.5;" x1="294.5" x2="626.5" y1="166.4688" y2="166.4688"/><ellipse cx="304.5" cy="178.3711" fill="#84BE84" rx="3" ry="3" style="stroke: #038048; stroke-width: 1.0;"/><text fill="#000000" font-family="sans-serif" font-size="11" lengthAdjust="spacingAndGlyphs" textLength="133" x="313.5" y="180.6792">MoneyLaunderingCheck</text><text fill="#000000" font-family="sans-serif" font-size="11" font-style="italic" lengthAdjust="spacingAndGlyphs" textLength="171" x="450.5" y="180.6792">(MoneyLaunderingCheckCode)</text></a><!--class Organisation--><a target="_top" xlink:actuate="onRequest" xlink:href="../Organisation.html" xlink:show="new" xlink:title="Organised structure that is set up for a particular purpose. For example, a business, government body, department, charity, or financial institution." xlink:type="simple"><rect fill="#FEFEEE" filter="url(#f4anf75s7tda5)" height="23.9688" id="Organisation" style="stroke: #A80036; stroke-width: 1.5;" width="86" x="293" y="268"/><rect fill="#FEFEEE" height="23.9688" style="stroke: #A80036; stroke-width: 1.5;" width="86" x="293" y="268"/><text fill="#000000" font-family="sans-serif" font-size="12" lengthAdjust="spacingAndGlyphs" textLength="80" x="296" y="284.1387">Organisation</text></a><!--class Person--><a target="_top" xlink:actuate="onRequest" xlink:href="../Person.html" xlink:show="new" xlink:title="Human entity, as distinguished from a corporate entity (which is sometimes referred to as an 'artificial person')." xlink:type="simple"><rect fill="#FEFEEE" filter="url(#f4anf75s7tda5)" height="23.9688" id="Person" style="stroke: #A80036; stroke-width: 1.5;" width="50" x="568" y="268"/><rect fill="#FEFEEE" height="23.9688" style="stroke: #A80036; stroke-width: 1.5;" width="50" x="568" y="268"/><text fill="#000000" font-family="sans-serif" font-size="12" lengthAdjust="spacingAndGlyphs" textLength="44" x="571" y="284.1387">Person</text></a><!--class Role--><a target="_top" xlink:actuate="onRequest" xlink:href="../Role.html" xlink:show="new" xlink:title="Role of a party in an activity." xlink:type="simple"><rect fill="#EEEEEE" filter="url(#f4anf75s7tda5)" height="23.9688" id="Role" style="stroke: #A80036; stroke-width: 1.5;" width="33" x="1283.75" y="268"/><rect fill="#EEEEEE" height="23.9688" style="stroke: #A80036; stroke-width: 1.5;" width="33" x="1283.75" y="268"/><text fill="#000000" font-family="sans-serif" font-size="12" lengthAdjust="spacingAndGlyphs" textLength="27" x="1286.75" y="284.1387">Role</text></a><!--class DateTimePeriod--><a target="_top" xlink:actuate="onRequest" xlink:href="../DateTimePeriod.html" xlink:show="new" xlink:title="Time span defined by a start date and time, and an end date and time." xlink:type="simple"><rect fill="#EEEEEE" filter="url(#f4anf75s7tda5)" height="23.9688" id="DateTimePeriod" style="stroke: #A80036; stroke-width: 1.5;" width="105" x="1211.75" y="153"/><rect fill="#EEEEEE" height="23.9688" style="stroke: #A80036; stroke-width: 1.5;" width="105" x="1211.75" y="153"/><text fill="#000000" font-family="sans-serif" font-size="12" lengthAdjust="spacingAndGlyphs" textLength="99" x="1214.75" y="169.1387">DateTimePeriod</text></a><!--class ContactPoint--><a target="_top" xlink:actuate="onRequest" xlink:href="../ContactPoint.html" xlink:show="new" xlink:title="Number, physical or virtual address, used for communication." xlink:type="simple"><rect fill="#EEEEEE" filter="url(#f4anf75s7tda5)" height="23.9688" id="ContactPoint" style="stroke: #A80036; stroke-width: 1.5;" width="87" x="38.75" y="650"/><rect fill="#EEEEEE" height="23.9688" style="stroke: #A80036; stroke-width: 1.5;" width="87" x="38.75" y="650"/><text fill="#000000" font-family="sans-serif" font-size="12" lengthAdjust="spacingAndGlyphs" textLength="81" x="41.75" y="666.1387">ContactPoint</text></a><!--class PartyIdentificationInformation--><a target="_top" xlink:actuate="onRequest" xlink:href="../PartyIdentificationInformation.html" xlink:show="new" xlink:title="Unique and unambiguous way to identify a party" xlink:type="simple"><rect fill="#EEEEEE" filter="url(#f4anf75s7tda5)" height="23.9688" id="PartyIdentificationInformation" style="stroke: #A80036; stroke-width: 1.5;" width="190" x="47" y="562"/><rect fill="#EEEEEE" height="23.9688" style="stroke: #A80036; stroke-width: 1.5;" width="190" x="47" y="562"/><text fill="#000000" font-family="sans-serif" font-size="12" lengthAdjust="spacingAndGlyphs" textLength="184" x="50" y="578.1387">PartyIdentificationInformation</text></a><!--class Tax--><a target="_top" xlink:actuate="onRequest" xlink:href="../Tax.html" xlink:show="new" xlink:title="Amount of money due to the government or tax authority, according to various pre-defined parameters such as thresholds or income." xlink:type="simple"><rect fill="#EEEEEE" filter="url(#f4anf75s7tda5)" height="23.9688" id="Tax" style="stroke: #A80036; stroke-width: 1.5;" width="27" x="193.75" y="476"/><rect fill="#EEEEEE" height="23.9688" style="stroke: #A80036; stroke-width: 1.5;" width="27" x="193.75" y="476"/><text fill="#000000" font-family="sans-serif" font-size="12" lengthAdjust="spacingAndGlyphs" textLength="21" x="196.75" y="492.1387">Tax</text></a><!--class Location--><a target="_top" xlink:actuate="onRequest" xlink:href="../Location.html" xlink:show="new" xlink:title="Specifies a place." xlink:type="simple"><rect fill="#EEEEEE" filter="url(#f4anf75s7tda5)" height="23.9688" id="Location" style="stroke: #A80036; stroke-width: 1.5;" width="59" x="177.75" y="374"/><rect fill="#EEEEEE" height="23.9688" style="stroke: #A80036; stroke-width: 1.5;" width="59" x="177.75" y="374"/><text fill="#000000" font-family="sans-serif" font-size="12" lengthAdjust="spacingAndGlyphs" textLength="53" x="180.75" y="390.1387">Location</text></a><!--class PowerOfAttorney--><a target="_top" xlink:actuate="onRequest" xlink:href="../PowerOfAttorney.html" xlink:show="new" xlink:title="Document that transfers specific rights from a party to another party." xlink:type="simple"><rect fill="#EEEEEE" filter="url(#f4anf75s7tda5)" height="23.9688" id="PowerOfAttorney" style="stroke: #A80036; stroke-width: 1.5;" width="110" x="111" y="268"/><rect fill="#EEEEEE" height="23.9688" style="stroke: #A80036; stroke-width: 1.5;" width="110" x="111" y="268"/><text fill="#000000" font-family="sans-serif" font-size="12" lengthAdjust="spacingAndGlyphs" textLength="104" x="114" y="284.1387">PowerOfAttorney</text></a><!--class Security--><a target="_top" xlink:actuate="onRequest" xlink:href="../Security.html" xlink:show="new" xlink:title="Financial instruments representing a sum of rights of the investor vis-a-vis the issuer." xlink:type="simple"><rect fill="#EEEEEE" filter="url(#f4anf75s7tda5)" height="23.9688" id="Security" style="stroke: #A80036; stroke-width: 1.5;" width="56" x="87.5" y="153"/><rect fill="#EEEEEE" height="23.9688" style="stroke: #A80036; stroke-width: 1.5;" width="56" x="87.5" y="153"/><text fill="#000000" font-family="sans-serif" font-size="12" lengthAdjust="spacingAndGlyphs" textLength="50" x="90.5" y="169.1387">Security</text></a><!--link RolePlayer to Party--><path d="M562.489,77.158 C539.555,96.591 507.621,123.65 485.52,142.376 " fill="none" id="RolePlayer-Party" style="stroke: #A80036; stroke-width: 1.0;"/><polygon fill="none" points="558.176,71.638,577.96,64.049,567.227,82.319,558.176,71.638" style="stroke: #A80036; stroke-width: 1.0;"/><!--link Party to Organisation--><path d="M421.316,201.252 C396.181,224.157 365.062,252.516 348.219,267.865 " fill="none" id="Party-Organisation" style="stroke: #A80036; stroke-width: 1.0;"/><polygon fill="none" points="416.887,195.818,436.385,187.52,426.317,206.166,416.887,195.818" style="stroke: #A80036; stroke-width: 1.0;"/><!--link Party to Person--><path d="M500.727,200.602 C527.817,223.619 561.657,252.371 579.894,267.865 " fill="none" id="Party-Person" style="stroke: #A80036; stroke-width: 1.0;"/><polygon fill="none" points="496.039,205.805,485.329,187.52,505.103,195.136,496.039,205.805" style="stroke: #A80036; stroke-width: 1.0;"/><!--link DateTimePeriod to Role--><!--link PartyIdentificationInformation to ContactPoint--><!--link Tax to PartyIdentificationInformation--><!--link Location to Tax--><!--link PowerOfAttorney to Location--><!--link Security to PowerOfAttorney--><!--link RolePlayer to Role--><path d="M626.635,53.883 C768.222,57.757 1285.61,75.506 1333,129 C1367.24,167.65 1330.8,233.653 1311.01,263.515 " fill="none" id="RolePlayer-Role" style="stroke: #A80036; stroke-width: 1.0;"/><polygon fill="#A80036" points="1308,267.987,1316.3513,262.7662,1310.7979,263.8431,1309.721,258.2897,1308,267.987" style="stroke: #A80036; stroke-width: 1.0;"/><text fill="#000000" font-family="sans-serif" font-size="13" lengthAdjust="spacingAndGlyphs" textLength="27" x="1349" y="169.0669">Role</text><text fill="#000000" font-family="sans-serif" font-size="13" lengthAdjust="spacingAndGlyphs" textLength="23" x="1282.3672" y="257.0307">1..*</text><!--link RolePlayer to DateTimePeriod--><path d="M626.708,58.889 C736.71,77.032 1071.13,132.189 1206.35,154.491 " fill="none" id="RolePlayer-DateTimePeriod" style="stroke: #A80036; stroke-width: 1.0;"/><polygon fill="#A80036" points="1211.46,155.335,1203.2317,149.9226,1206.5268,154.5207,1201.9287,157.8158,1211.46,155.335" style="stroke: #A80036; stroke-width: 1.0;"/><text fill="#000000" font-family="sans-serif" font-size="13" lengthAdjust="spacingAndGlyphs" textLength="86" x="949" y="107.0669">ValidityPeriod</text><text fill="#000000" font-family="sans-serif" font-size="13" lengthAdjust="spacingAndGlyphs" textLength="24" x="1179.6754" y="149.5371">0..1</text><!--link Party to ContactPoint--><path d="M626.621,169.081 C900.305,176.388 1415,200.557 1415,279 C1415,279 1415,279 1415,575 C1415,640.6807 370.793,657.4654 130.774,660.4559 " fill="none" id="Party-ContactPoint" style="stroke: #A80036; stroke-width: 1.0;"/><polygon fill="#A80036" points="125.593,660.5199,134.6426,664.4064,130.5926,660.457,134.542,656.4071,125.593,660.5199" style="stroke: #A80036; stroke-width: 1.0;"/><text fill="#000000" font-family="sans-serif" font-size="13" lengthAdjust="spacingAndGlyphs" textLength="82" x="1416" y="441.0669">ContactPoint</text><text fill="#000000" font-family="sans-serif" font-size="13" lengthAdjust="spacingAndGlyphs" textLength="23" x="133.6481" y="655.133">1..*</text><!--link Party to PartyIdentificationInformation--><path d="M626.672,166.993 C822.697,174.248 1108.95,207.527 1004,344 C910.858,465.118 449.057,535.587 242.341,561.519 " fill="none" id="Party-PartyIdentificationInformation" style="stroke: #A80036; stroke-width: 1.0;"/><polygon fill="#A80036" points="237.204,562.161,246.6305,565.0141,242.1654,561.541,245.6385,557.0759,237.204,562.161" style="stroke: #A80036; stroke-width: 1.0;"/><text fill="#000000" font-family="sans-serif" font-size="13" lengthAdjust="spacingAndGlyphs" textLength="81" x="971" y="390.0669">Identification</text><text fill="#000000" font-family="sans-serif" font-size="13" lengthAdjust="spacingAndGlyphs" textLength="23" x="245.0401" y="556.7403">1..*</text><!--link Party to Tax--><path d="M626.625,172.729 C773.547,185.111 953.565,220.011 879,318 C795.712,427.452 325.086,476.208 225.508,485.374 " fill="none" id="Party-Tax" style="stroke: #A80036; stroke-width: 1.0;"/><polygon fill="#A80036" points="220.524,485.828,229.8493,488.9963,225.5034,485.3751,229.1246,481.0292,220.524,485.828" style="stroke: #A80036; stroke-width: 1.0;"/><text fill="#000000" font-family="sans-serif" font-size="13" lengthAdjust="spacingAndGlyphs" textLength="121" x="873" y="339.0669">TaxationConditions</text><text fill="#000000" font-family="sans-serif" font-size="13" lengthAdjust="spacingAndGlyphs" textLength="8" x="228.9451" y="476.7323">1</text><!--link Party to Location--><path d="M532.43,187.67 C570.131,203.045 612.87,227.866 635,266 C652.605,296.336 651.581,323.669 623,344 C592.203,365.908 336.077,379.31 241.723,383.543 " fill="none" id="Party-Location" style="stroke: #A80036; stroke-width: 1.0;"/><polygon fill="#A80036" points="236.547,383.773,245.7153,387.3706,241.5421,383.5516,245.3611,379.3784,236.547,383.773" style="stroke: #A80036; stroke-width: 1.0;"/><text fill="#000000" font-family="sans-serif" font-size="13" lengthAdjust="spacingAndGlyphs" textLength="55" x="648" y="284.0669">Domicile</text><text fill="#000000" font-family="sans-serif" font-size="13" lengthAdjust="spacingAndGlyphs" textLength="8" x="244.6631" y="377.2452">1</text><!--link Party to Location--><path d="M569.018,187.522 C655.417,210.006 755.155,251.444 713,318 C698.532,340.842 684.086,336.889 658,344 C579.459,365.41 332.869,379.01 241.502,383.426 " fill="none" id="Party-Location" style="stroke: #A80036; stroke-width: 1.0;"/><polygon fill="#A80036" points="236.489,383.667,245.6706,387.2304,241.4832,383.427,245.2866,379.2396,236.489,383.667" style="stroke: #A80036; stroke-width: 1.0;"/><text fill="#000000" font-family="sans-serif" font-size="13" lengthAdjust="spacingAndGlyphs" textLength="65" x="724" y="284.0669">Residence</text><text fill="#000000" font-family="sans-serif" font-size="13" lengthAdjust="spacingAndGlyphs" textLength="7" x="244.8784" y="397.079">*</text><!--link Party to Location--><path d="M626.77,184.638 C738.386,204.215 855.356,243.059 799,318 C765.271,362.852 363.272,379.809 241.644,383.933 " fill="none" id="Party-Location" style="stroke: #A80036; stroke-width: 1.0;"/><polygon fill="#A80036" points="236.408,384.108,245.5377,387.8023,241.4052,383.9394,245.268,379.8068,236.408,384.108" style="stroke: #A80036; stroke-width: 1.0;"/><text fill="#000000" font-family="sans-serif" font-size="13" lengthAdjust="spacingAndGlyphs" textLength="54" x="815" y="284.0669">Location</text><text fill="#000000" font-family="sans-serif" font-size="13" lengthAdjust="spacingAndGlyphs" textLength="8" x="244.6206" y="372.829">1</text><!--link Party to PowerOfAttorney--><path d="M357.962,187.516 C327.749,195.432 295.006,205.571 266,218 C236.283,230.733 204.91,251.176 185.398,264.842 " fill="none" id="Party-PowerOfAttorney" style="stroke: #A80036; stroke-width: 1.0;"/><polygon fill="#A80036" points="181.181,267.821,190.84,265.8967,185.2652,264.9367,186.2252,259.3619,181.181,267.821" style="stroke: #A80036; stroke-width: 1.0;"/><text fill="#000000" font-family="sans-serif" font-size="13" lengthAdjust="spacingAndGlyphs" textLength="107" x="267" y="231.0669">PowerOfAttorney</text><text fill="#000000" font-family="sans-serif" font-size="13" lengthAdjust="spacingAndGlyphs" textLength="24" x="156.9307" y="256.8077">0..1</text><!--link Party to Security--><path d="M293.23,165 C238.036,165 182.06,165 147.935,165 " fill="none" id="Party-Security" style="stroke: #A80036; stroke-width: 1.0;"/><polygon fill="#A80036" points="142.65,165,151.65,169,147.65,165,151.65,161,142.65,165" style="stroke: #A80036; stroke-width: 1.0;"/><text fill="#000000" font-family="sans-serif" font-size="13" lengthAdjust="spacingAndGlyphs" textLength="112" x="161" y="157.0669">CloseLinkSecurity</text><text fill="#000000" font-family="sans-serif" font-size="13" lengthAdjust="spacingAndGlyphs" textLength="8" x="151.4109" y="158.6993">1</text><!--link Organisation to Organisation--><path d="M379.314,270.367 C398.001,269.578 414,272.789 414,280 C414,286.535 400.86,289.785 384.488,289.75 " fill="none" id="Organisation-Organisation" style="stroke: #A80036; stroke-width: 1.0;"/><polygon fill="#A80036" points="379.314,289.633,388.2214,293.8351,384.3127,289.7459,388.402,285.8372,379.314,289.633" style="stroke: #A80036; stroke-width: 1.0;"/><text fill="#000000" font-family="sans-serif" font-size="13" lengthAdjust="spacingAndGlyphs" textLength="123" x="420" y="284.0669">ParentOrganisation</text><text fill="#000000" font-family="sans-serif" font-size="13" lengthAdjust="spacingAndGlyphs" textLength="8" x="386.8547" y="285.8935">1</text><!--link Organisation to Location--><path d="M315.08,292.139 C298.634,300.446 274.917,311.446 253,318 C242.43,321.161 211.145,317.593 204,326 C194.031,337.728 196.782,355.982 200.764,369.08 " fill="none" id="Organisation-Location" style="stroke: #A80036; stroke-width: 1.0;"/><polygon fill="#A80036" points="202.389,373.996,203.3642,364.1955,200.8207,369.2483,195.768,366.7048,202.389,373.996" style="stroke: #A80036; stroke-width: 1.0;"/><text fill="#000000" font-family="sans-serif" font-size="13" lengthAdjust="spacingAndGlyphs" textLength="111" x="205" y="339.0669">PlaceOfOperation</text><text fill="#000000" font-family="sans-serif" font-size="13" lengthAdjust="spacingAndGlyphs" textLength="7" x="191.1712" y="363.0428">*</text><!--link Organisation to Location--><path d="M336.588,292.232 C336.692,306.082 334.758,329.556 322,344 C301.61,367.085 267.314,377.173 241.47,381.581 " fill="none" id="Organisation-Location" style="stroke: #A80036; stroke-width: 1.0;"/><polygon fill="#A80036" points="236.42,382.389,245.939,384.9167,241.3572,381.599,244.6749,377.0172,236.42,382.389" style="stroke: #A80036; stroke-width: 1.0;"/><text fill="#000000" font-family="sans-serif" font-size="13" lengthAdjust="spacingAndGlyphs" textLength="124" x="333" y="339.0669">PlaceOfRegistration</text><text fill="#000000" font-family="sans-serif" font-size="13" lengthAdjust="spacingAndGlyphs" textLength="24" x="244.9113" y="395.2749">0..1</text><!--link Person to Location--><path d="M582.629,292.095 C574.453,300.267 562.397,311.113 550,318 C448.368,374.456 306.716,383.934 241.891,385.131 " fill="none" id="Person-Location" style="stroke: #A80036; stroke-width: 1.0;"/><polygon fill="#A80036" points="236.608,385.213,245.6687,389.0736,241.6074,385.1358,245.5452,381.0746,236.608,385.213" style="stroke: #A80036; stroke-width: 1.0;"/><text fill="#000000" font-family="sans-serif" font-size="13" lengthAdjust="spacingAndGlyphs" textLength="78" x="535" y="339.0669">PlaceOfBirth</text><text fill="#000000" font-family="sans-serif" font-size="13" lengthAdjust="spacingAndGlyphs" textLength="8" x="244.9631" y="402.1214">1</text><!--link DateTimePeriod to PartyIdentificationInformation--><path d="M1258.23,177.212 C1248.53,197.141 1230,240.28 1230,279 C1230,279 1230,279 1230,489 C1230,538.268 511.433,562.935 242.228,570.448 " fill="none" id="DateTimePeriod-PartyIdentificationInformation" style="stroke: #A80036; stroke-width: 1.0;"/><polygon fill="#A80036" points="237.124,570.59,246.2325,574.3364,242.122,570.45,246.0084,566.3395,237.124,570.59" style="stroke: #A80036; stroke-width: 1.0;"/><text fill="#000000" font-family="sans-serif" font-size="13" lengthAdjust="spacingAndGlyphs" textLength="129" x="1231" y="390.0669">RelatedIdentification</text><text fill="#000000" font-family="sans-serif" font-size="13" lengthAdjust="spacingAndGlyphs" textLength="7" x="244.9831" y="582.9894">*</text><!--link ContactPoint to ContactPoint--><path d="M125.314,653.8487 C144.001,653.1813 160,655.8984 160,662 C160,667.5295 146.86,670.2795 130.488,670.2498 " fill="none" id="ContactPoint-ContactPoint" style="stroke: #A80036; stroke-width: 1.0;"/><polygon fill="#A80036" points="125.314,670.1513,134.2358,674.3229,130.3131,670.247,134.3889,666.3243,125.314,670.1513" style="stroke: #A80036; stroke-width: 1.0;"/><text fill="#000000" font-family="sans-serif" font-size="13" lengthAdjust="spacingAndGlyphs" textLength="80" x="166" y="666.0669">MainContact</text><text fill="#000000" font-family="sans-serif" font-size="13" lengthAdjust="spacingAndGlyphs" textLength="8" x="133.6973" y="685.0207">1</text></g></svg>