<?xml version="1.0" encoding="UTF-8" standalone="no"?><svg xmlns="http://www.w3.org/2000/svg" xmlns:xlink="http://www.w3.org/1999/xlink" contentScriptType="application/ecmascript" contentStyleType="text/css" height="620px" preserveAspectRatio="none" style="width:1209px;height:620px;" version="1.1" viewBox="0 0 1209 620" width="1209px" zoomAndPan="magnify"><defs><filter height="300%" id="fynqixj7abh9j" width="300%" x="-1" y="-1"><feGaussianBlur result="blurOut" stdDeviation="2.0"/><feColorMatrix in="blurOut" result="blurOut2" type="matrix" values="0 0 0 0 0 0 0 0 0 0 0 0 0 0 0 0 0 0 .4 0"/><feOffset dx="4.0" dy="4.0" in="blurOut2" result="blurOut3"/><feBlend in="SourceGraphic" in2="blurOut3" mode="normal"/></filter></defs><g><!--cluster ##11802--><!--cluster ##11808--><!--cluster ##11811--><!--class InvestigationResolution--><a target="_top" xlink:actuate="onRequest" xlink:href="../InvestigationResolution.html" xlink:show="new" xlink:title="Specifies the actions taken as a result of an investigation." xlink:type="simple"><rect fill="#FEFEEE" filter="url(#fynqixj7abh9j)" height="44.7734" id="InvestigationResolution" style="stroke: #A80036; stroke-width: 1.5;" width="258" x="476.54" y="40.5"/><rect fill="#FEFEEE" height="23.9688" style="stroke: #A80036; stroke-width: 1.5;" width="258" x="476.54" y="40.5"/><text fill="#000000" font-family="sans-serif" font-size="12" lengthAdjust="spacingAndGlyphs" textLength="146" x="532.54" y="56.6387">InvestigationResolution</text><line style="stroke: #A80036; stroke-width: 1.5;" x1="477.54" x2="733.54" y1="64.4688" y2="64.4688"/><ellipse cx="487.54" cy="76.3711" fill="#84BE84" rx="3" ry="3" style="stroke: #038048; stroke-width: 1.0;"/><text fill="#000000" font-family="sans-serif" font-size="11" lengthAdjust="spacingAndGlyphs" textLength="158" x="496.54" y="78.6792">InvestigationCaseReference</text><text fill="#000000" font-family="sans-serif" font-size="11" font-style="italic" lengthAdjust="spacingAndGlyphs" textLength="70" x="658.54" y="78.6792">(Max35Text)</text></a><!--class PaymentInvestigationCaseResolution--><a target="_top" xlink:actuate="onRequest" xlink:href="../PaymentInvestigationCaseResolution.html" xlink:show="new" xlink:title="Specifies the status of an investigation case and the actions taken as a result of this status." xlink:type="simple"><rect fill="#FEFECE" filter="url(#fynqixj7abh9j)" height="44.7734" id="PaymentInvestigationCaseResolution" style="stroke: #A80036; stroke-width: 1.5;" width="376" x="447.54" y="164.5"/><rect fill="#FEFECE" height="23.9688" style="stroke: #A80036; stroke-width: 1.5;" width="376" x="447.54" y="164.5"/><text fill="#000000" font-family="sans-serif" font-size="12" lengthAdjust="spacingAndGlyphs" textLength="231" x="520.04" y="180.6387">PaymentInvestigationCaseResolution</text><line style="stroke: #A80036; stroke-width: 1.5;" x1="448.54" x2="822.54" y1="188.4688" y2="188.4688"/><ellipse cx="458.54" cy="200.3711" fill="#84BE84" rx="3" ry="3" style="stroke: #038048; stroke-width: 1.0;"/><text fill="#000000" font-family="sans-serif" font-size="11" lengthAdjust="spacingAndGlyphs" textLength="109" x="467.54" y="202.6792">InvestigationStatus</text><text fill="#000000" font-family="sans-serif" font-size="11" font-style="italic" lengthAdjust="spacingAndGlyphs" textLength="237" x="580.54" y="202.6792">(InvestigationExecutionConfirmationCode)</text></a><!--class InvestigationCase--><a target="_top" xlink:actuate="onRequest" xlink:href="../InvestigationCase.html" xlink:show="new" xlink:title="Set of activities performed to handle an exception to a normal transaction flow.." xlink:type="simple"><rect fill="#EEEEEE" filter="url(#fynqixj7abh9j)" height="23.9688" id="InvestigationCase" style="stroke: #A80036; stroke-width: 1.5;" width="117" x="82.2902" y="175"/><rect fill="#EEEEEE" height="23.9688" style="stroke: #A80036; stroke-width: 1.5;" width="117" x="82.2902" y="175"/><text fill="#000000" font-family="sans-serif" font-size="12" lengthAdjust="spacingAndGlyphs" textLength="111" x="85.2902" y="191.1387">InvestigationCase</text></a><!--class DebitAuthorisation--><a target="_top" xlink:actuate="onRequest" xlink:href="../DebitAuthorisation.html" xlink:show="new" xlink:title="Permission given by an account owner to debit its account as the result of a cancelled payment. The authoriser is the party whose account was credited as the result of a payment instruction." xlink:type="simple"><rect fill="#EEEEEE" filter="url(#fynqixj7abh9j)" height="23.9688" id="DebitAuthorisation" style="stroke: #A80036; stroke-width: 1.5;" width="123" x="135.29" y="292"/><rect fill="#EEEEEE" height="23.9688" style="stroke: #A80036; stroke-width: 1.5;" width="123" x="135.29" y="292"/><text fill="#000000" font-family="sans-serif" font-size="12" lengthAdjust="spacingAndGlyphs" textLength="117" x="138.29" y="308.1387">DebitAuthorisation</text></a><!--class CashSettlement--><a target="_top" xlink:actuate="onRequest" xlink:href="../CashSettlement.html" xlink:show="new" xlink:title="Instruction between two financial institutions stipulating the cash transfer characteristics between the two parties." xlink:type="simple"><rect fill="#EEEEEE" filter="url(#fynqixj7abh9j)" height="23.9688" id="CashSettlement" style="stroke: #A80036; stroke-width: 1.5;" width="106" x="188.04" y="586"/><rect fill="#EEEEEE" height="23.9688" style="stroke: #A80036; stroke-width: 1.5;" width="106" x="188.04" y="586"/><text fill="#000000" font-family="sans-serif" font-size="12" lengthAdjust="spacingAndGlyphs" textLength="100" x="191.04" y="602.1387">CashSettlement</text></a><!--class CashEntry--><a target="_top" xlink:actuate="onRequest" xlink:href="../CashEntry.html" xlink:show="new" xlink:title="Posting of an item to a cash account, in the context of a cash transaction, that results in an increase or decrease to the balance of the account." xlink:type="simple"><rect fill="#EEEEEE" filter="url(#fynqixj7abh9j)" height="23.9688" id="CashEntry" style="stroke: #A80036; stroke-width: 1.5;" width="69" x="135.29" y="500"/><rect fill="#EEEEEE" height="23.9688" style="stroke: #A80036; stroke-width: 1.5;" width="69" x="135.29" y="500"/><text fill="#000000" font-family="sans-serif" font-size="12" lengthAdjust="spacingAndGlyphs" textLength="63" x="138.29" y="516.1387">CashEntry</text></a><!--class Payment--><a target="_top" xlink:actuate="onRequest" xlink:href="../Payment.html" xlink:show="new" xlink:title="Payment information and processes required to transfer cash end to end from the debtor to the creditor." xlink:type="simple"><rect fill="#EEEEEE" filter="url(#fynqixj7abh9j)" height="23.9688" id="Payment" style="stroke: #A80036; stroke-width: 1.5;" width="60" x="172.04" y="396"/><rect fill="#EEEEEE" height="23.9688" style="stroke: #A80036; stroke-width: 1.5;" width="60" x="172.04" y="396"/><text fill="#000000" font-family="sans-serif" font-size="12" lengthAdjust="spacingAndGlyphs" textLength="54" x="175.04" y="412.1387">Payment</text></a><!--class PaymentExecution--><a target="_top" xlink:actuate="onRequest" xlink:href="../PaymentExecution.html" xlink:show="new" xlink:title="Process required for executing an end to end payment. It consists of a payment initiation which may be followed by a series of instructions." xlink:type="simple"><rect fill="#EEEEEE" filter="url(#fynqixj7abh9j)" height="23.9688" id="PaymentExecution" style="stroke: #A80036; stroke-width: 1.5;" width="121" x="379.29" y="500"/><rect fill="#EEEEEE" height="23.9688" style="stroke: #A80036; stroke-width: 1.5;" width="121" x="379.29" y="500"/><text fill="#000000" font-family="sans-serif" font-size="12" lengthAdjust="spacingAndGlyphs" textLength="115" x="382.29" y="516.1387">PaymentExecution</text></a><!--class PaymentInvestigationCaseRejection--><a target="_top" xlink:actuate="onRequest" xlink:href="../PaymentInvestigationCaseRejection.html" xlink:show="new" xlink:title="Specifies the rejection of an activity linked to a payment. The rejected activity may be the assignment of an investigation case, the cancellation or  the modification of a payment." xlink:type="simple"><rect fill="#EEEEEE" filter="url(#fynqixj7abh9j)" height="23.9688" id="PaymentInvestigationCaseRejection" style="stroke: #A80036; stroke-width: 1.5;" width="229" x="403.29" y="396"/><rect fill="#EEEEEE" height="23.9688" style="stroke: #A80036; stroke-width: 1.5;" width="229" x="403.29" y="396"/><text fill="#000000" font-family="sans-serif" font-size="12" lengthAdjust="spacingAndGlyphs" textLength="223" x="406.29" y="412.1387">PaymentInvestigationCaseRejection</text></a><!--class DuplicateCase--><a target="_top" xlink:actuate="onRequest" xlink:href="../DuplicateCase.html" xlink:show="new" xlink:title="Outcome that results in closing a case as duplicate because the same issue has been reported by another party." xlink:type="simple"><rect fill="#EEEEEE" filter="url(#fynqixj7abh9j)" height="23.9688" id="DuplicateCase" style="stroke: #A80036; stroke-width: 1.5;" width="96" x="293.54" y="292"/><rect fill="#EEEEEE" height="23.9688" style="stroke: #A80036; stroke-width: 1.5;" width="96" x="293.54" y="292"/><text fill="#000000" font-family="sans-serif" font-size="12" lengthAdjust="spacingAndGlyphs" textLength="90" x="296.54" y="308.1387">DuplicateCase</text></a><!--link InvestigationResolution to PaymentInvestigationCaseResolution--><path d="M615.622,105 C620.501,124.842 626.161,147.859 630.198,164.275 " fill="none" id="InvestigationResolution-PaymentInvestigationCaseResolution" style="stroke: #A80036; stroke-width: 1.0;"/><polygon fill="none" points="608.813,106.623,610.835,85.53,622.408,103.28,608.813,106.623" style="stroke: #A80036; stroke-width: 1.0;"/><!--link CashSettlement to DebitAuthorisation--><!--link CashEntry to CashSettlement--><!--link Payment to CashEntry--><!--link PaymentExecution to Payment--><!--link Payment to PaymentExecution--><path d="M210.369,420.322 C221.812,434.194 243.094,457.398 266.54,470 C299.574,487.755 340.22,497.892 373.812,503.643 " fill="none" id="Payment-PaymentExecution" style="stroke: #A80036; stroke-width: 1.0;"/><polygon fill="#A80036" points="379.141,504.529,370.9188,499.1073,374.2087,503.7091,369.6069,506.999,379.141,504.529" style="stroke: #A80036; stroke-width: 1.0;"/><text fill="#000000" font-family="sans-serif" font-size="13" lengthAdjust="spacingAndGlyphs" textLength="119" x="267.54" y="465.0669">PaymentExecution</text><text fill="#000000" font-family="sans-serif" font-size="13" lengthAdjust="spacingAndGlyphs" textLength="23" x="348.3976" y="499.1311">1..*</text><!--link PaymentInvestigationCaseRejection to PaymentExecution--><!--link DuplicateCase to PaymentInvestigationCaseRejection--><!--link InvestigationResolution to InvestigationCase--><path d="M523.478,85.53 C425.892,111.133 266.343,152.994 187.572,173.661 " fill="none" id="InvestigationResolution-InvestigationCase" style="stroke: #A80036; stroke-width: 1.0;"/><polygon fill="#A80036" points="182.501,174.991,192.2213,176.5771,187.3374,173.7226,190.1919,168.8387,182.501,174.991" style="stroke: #A80036; stroke-width: 1.0;"/><text fill="#000000" font-family="sans-serif" font-size="13" lengthAdjust="spacingAndGlyphs" textLength="113" x="402.54" y="129.0669">InvestigationCase</text><text fill="#000000" font-family="sans-serif" font-size="13" lengthAdjust="spacingAndGlyphs" textLength="24" x="167.3703" y="164.0361">0..1</text><!--link PaymentInvestigationCaseResolution to DebitAuthorisation--><path d="M547.598,209.528 C505.495,218.86 454.196,228.821 407.54,234 C397.516,235.113 51.5929,234.79 44.5402,242 C13.6725,273.555 76.1384,289.272 130.091,296.755 " fill="none" id="PaymentInvestigationCaseResolution-DebitAuthorisation" style="stroke: #A80036; stroke-width: 1.0;"/><polygon fill="#A80036" points="135.283,297.453,126.8971,292.288,130.3277,296.7859,125.8298,300.2165,135.283,297.453" style="stroke: #A80036; stroke-width: 1.0;"/><text fill="#000000" font-family="sans-serif" font-size="13" lengthAdjust="spacingAndGlyphs" textLength="201" x="45.5402" y="255.0669">DebitAuthorisationConfirmation</text><text fill="#000000" font-family="sans-serif" font-size="13" lengthAdjust="spacingAndGlyphs" textLength="24" x="103.1816" y="292.0935">0..1</text><!--link PaymentInvestigationCaseResolution to CashSettlement--><path d="M823.809,201.102 C950.132,215.268 1093.54,244.28 1093.54,303 C1093.54,303 1093.54,303 1093.54,513 C1093.54,593.1102 489.98,597.8834 298.258,597.3787 " fill="none" id="PaymentInvestigationCaseResolution-CashSettlement" style="stroke: #A80036; stroke-width: 1.0;"/><polygon fill="#A80036" points="293.255,597.3641,302.2424,601.3924,298.255,597.3798,302.2675,593.3924,293.255,597.3641" style="stroke: #A80036; stroke-width: 1.0;"/><text fill="#000000" font-family="sans-serif" font-size="13" lengthAdjust="spacingAndGlyphs" textLength="103" x="1094.54" y="412.0669">CoverCorrection</text><text fill="#000000" font-family="sans-serif" font-size="13" lengthAdjust="spacingAndGlyphs" textLength="24" x="301.8839" y="592.2144">0..1</text><!--link PaymentInvestigationCaseResolution to CashEntry--><path d="M547.601,209.547 C505.497,218.883 454.199,228.842 407.54,234 C397.074,235.157 35.9071,234.476 28.5402,242 C-49.4761,321.681 97.6434,453.299 151.16,496.659 " fill="none" id="PaymentInvestigationCaseResolution-CashEntry" style="stroke: #A80036; stroke-width: 1.0;"/><polygon fill="#A80036" points="155.147,499.865,150.6402,491.1078,151.2506,496.7316,145.6268,497.342,155.147,499.865" style="stroke: #A80036; stroke-width: 1.0;"/><text fill="#000000" font-family="sans-serif" font-size="13" lengthAdjust="spacingAndGlyphs" textLength="99" x="28.5402" y="359.0669">EntryCorrection</text><text fill="#000000" font-family="sans-serif" font-size="13" lengthAdjust="spacingAndGlyphs" textLength="7" x="140.5666" y="488.8668">*</text><!--link PaymentInvestigationCaseResolution to Payment--><path d="M628.851,209.625 C622.419,226.445 610.919,248.751 592.54,260 C569.556,274.067 496.844,258.733 471.54,268 C437.818,280.35 436.676,296.468 406.54,316 C370.133,339.597 360.993,345.951 321.54,364 C293.546,376.807 260.543,388.392 236.241,396.302 " fill="none" id="PaymentInvestigationCaseResolution-Payment" style="stroke: #A80036; stroke-width: 1.0;"/><polygon fill="#A80036" points="231.192,397.933,240.9859,398.972,235.9498,396.3956,238.5261,391.3595,231.192,397.933" style="stroke: #A80036; stroke-width: 1.0;"/><text fill="#000000" font-family="sans-serif" font-size="13" lengthAdjust="spacingAndGlyphs" textLength="123" x="472.54" y="308.0669">PaymentCorrection</text><text fill="#000000" font-family="sans-serif" font-size="13" lengthAdjust="spacingAndGlyphs" textLength="7" x="239.9672" y="389.0321">*</text><!--link PaymentInvestigationCaseResolution to PaymentExecution--><path d="M732.709,209.531 C763.555,221.446 794.345,239.808 812.54,268 C824.109,285.924 822.74,297.263 812.54,316 C750.307,430.324 594.083,479.963 504.803,499.583 " fill="none" id="PaymentInvestigationCaseResolution-PaymentExecution" style="stroke: #A80036; stroke-width: 1.0;"/><polygon fill="#A80036" points="499.812,500.664,509.4548,502.6681,504.6987,499.6055,507.7612,494.8494,499.812,500.664" style="stroke: #A80036; stroke-width: 1.0;"/><text fill="#000000" font-family="sans-serif" font-size="13" lengthAdjust="spacingAndGlyphs" textLength="185" x="792.54" y="359.0669">PaymentExecutionCorrection</text><text fill="#000000" font-family="sans-serif" font-size="13" lengthAdjust="spacingAndGlyphs" textLength="7" x="508.3478" y="494.0765">*</text><!--link PaymentInvestigationCaseResolution to PaymentInvestigationCaseRejection--><path d="M638.181,209.682 C639.184,224.281 638.994,243.76 633.54,260 C614.402,316.985 562.393,368.341 534.982,392.47 " fill="none" id="PaymentInvestigationCaseResolution-PaymentInvestigationCaseRejection" style="stroke: #A80036; stroke-width: 1.0;"/><polygon fill="#A80036" points="531.123,395.83,540.5377,392.938,534.8944,392.5472,535.2852,386.9039,531.123,395.83" style="stroke: #A80036; stroke-width: 1.0;"/><text fill="#000000" font-family="sans-serif" font-size="13" lengthAdjust="spacingAndGlyphs" textLength="171" x="631.54" y="308.0669">InvestigationCaseRejection</text><text fill="#000000" font-family="sans-serif" font-size="13" lengthAdjust="spacingAndGlyphs" textLength="8" x="524.9875" y="384.8198">1</text><!--link PaymentInvestigationCaseResolution to DuplicateCase--><path d="M576.902,209.543 C551.202,219.179 520.757,230.859 493.54,242 C475.123,249.539 471.455,253.812 452.54,260 C436.962,265.096 432.059,262.725 416.54,268 C399.428,273.816 381.026,282.366 366.732,289.56 " fill="none" id="PaymentInvestigationCaseResolution-DuplicateCase" style="stroke: #A80036; stroke-width: 1.0;"/><polygon fill="#A80036" points="362.05,291.941,371.8854,291.4272,366.5069,289.6747,368.2593,284.2961,362.05,291.941" style="stroke: #A80036; stroke-width: 1.0;"/><text fill="#000000" font-family="sans-serif" font-size="13" lengthAdjust="spacingAndGlyphs" textLength="92" x="494.54" y="255.0669">DuplicateCase</text><text fill="#000000" font-family="sans-serif" font-size="13" lengthAdjust="spacingAndGlyphs" textLength="7" x="359.5534" y="280.9689">*</text><!--link InvestigationCase to DuplicateCase--><path d="M167.987,199.057 C191.962,209.116 227.391,224.957 256.54,242 C280.825,256.199 306.836,275.544 323.597,288.611 " fill="none" id="InvestigationCase-DuplicateCase" style="stroke: #A80036; stroke-width: 1.0;"/><polygon fill="#A80036" points="327.652,291.791,323.0369,283.0904,323.717,288.7062,318.1012,289.3863,327.652,291.791" style="stroke: #A80036; stroke-width: 1.0;"/><text fill="#000000" font-family="sans-serif" font-size="13" lengthAdjust="spacingAndGlyphs" textLength="158" x="284.54" y="255.0669">DuplicateCaseResolution</text><text fill="#000000" font-family="sans-serif" font-size="13" lengthAdjust="spacingAndGlyphs" textLength="24" x="293.7454" y="281.0252">0..1</text><!--link InvestigationCase to InvestigationCase--><path d="M199.119,175.376 C218.281,175.436 233.54,179.311 233.54,187 C233.54,193.969 221.008,197.804 204.396,198.507 " fill="none" id="InvestigationCase-InvestigationCase" style="stroke: #A80036; stroke-width: 1.0;"/><polygon fill="#A80036" points="199.119,198.624,208.2059,202.4224,204.1178,198.5126,208.0276,194.4244,199.119,198.624" style="stroke: #A80036; stroke-width: 1.0;"/><text fill="#000000" font-family="sans-serif" font-size="13" lengthAdjust="spacingAndGlyphs" textLength="161" x="239.54" y="191.0669">OriginalInvestigationCase</text><text fill="#000000" font-family="sans-serif" font-size="13" lengthAdjust="spacingAndGlyphs" textLength="7" x="207.6041" y="216.5727">*</text><!--link DebitAuthorisation to Payment--><path d="M197.094,316.306 C197.981,334.399 199.723,369.936 200.744,390.75 " fill="none" id="DebitAuthorisation-Payment" style="stroke: #A80036; stroke-width: 1.0;"/><polygon fill="#A80036" points="200.999,395.954,204.5519,386.7683,200.7533,390.96,196.5616,387.1614,200.999,395.954" style="stroke: #A80036; stroke-width: 1.0;"/><text fill="#000000" font-family="sans-serif" font-size="13" lengthAdjust="spacingAndGlyphs" textLength="111" x="200.54" y="359.0669">AuthorisedReturn</text><text fill="#000000" font-family="sans-serif" font-size="13" lengthAdjust="spacingAndGlyphs" textLength="24" x="171.1724" y="384.9864">0..1</text><!--link Payment to Payment--><path d="M231.165,398.859 C248.874,396.828 265.54,399.875 265.54,408 C265.54,415.3 252.087,418.501 236.512,417.602 " fill="none" id="Payment-Payment" style="stroke: #A80036; stroke-width: 1.0;"/><polygon fill="#A80036" points="231.165,417.141,239.7877,421.9002,236.1465,417.571,240.4757,413.9298,231.165,417.141" style="stroke: #A80036; stroke-width: 1.0;"/><text fill="#000000" font-family="sans-serif" font-size="13" lengthAdjust="spacingAndGlyphs" textLength="105" x="271.54" y="412.0669">OriginalPayment</text><text fill="#000000" font-family="sans-serif" font-size="13" lengthAdjust="spacingAndGlyphs" textLength="8" x="240.0673" y="413.4022">1</text></g></svg>