<?xml version="1.0" encoding="UTF-8" standalone="no"?><svg xmlns="http://www.w3.org/2000/svg" xmlns:xlink="http://www.w3.org/1999/xlink" contentScriptType="application/ecmascript" contentStyleType="text/css" height="500px" preserveAspectRatio="none" style="width:1257px;height:500px;" version="1.1" viewBox="0 0 1257 500" width="1257px" zoomAndPan="magnify"><defs><filter height="300%" id="fw9svzkvl56l0" width="300%" x="-1" y="-1"><feGaussianBlur result="blurOut" stdDeviation="2.0"/><feColorMatrix in="blurOut" result="blurOut2" type="matrix" values="0 0 0 0 0 0 0 0 0 0 0 0 0 0 0 0 0 0 .4 0"/><feOffset dx="4.0" dy="4.0" in="blurOut2" result="blurOut3"/><feBlend in="SourceGraphic" in2="blurOut3" mode="normal"/></filter></defs><g><!--cluster ##4368--><!--cluster ##4386--><!--cluster ##4395--><!--class Role--><a target="_top" xlink:actuate="onRequest" xlink:href="../Role.html" xlink:show="new" xlink:title="Role of a party in an activity." xlink:type="simple"><rect fill="#FEFEEE" filter="url(#fw9svzkvl56l0)" height="44.7734" id="Role" style="stroke: #A80036; stroke-width: 1.5;" width="175" x="656.75" y="40.5"/><rect fill="#FEFEEE" height="23.9688" style="stroke: #A80036; stroke-width: 1.5;" width="175" x="656.75" y="40.5"/><text fill="#000000" font-family="sans-serif" font-size="12" lengthAdjust="spacingAndGlyphs" textLength="27" x="730.75" y="56.6387">Role</text><line style="stroke: #A80036; stroke-width: 1.5;" x1="657.75" x2="830.75" y1="64.4688" y2="64.4688"/><ellipse cx="667.75" cy="76.3711" fill="#84BE84" rx="3" ry="3" style="stroke: #038048; stroke-width: 1.0;"/><text fill="#000000" font-family="sans-serif" font-size="11" lengthAdjust="spacingAndGlyphs" textLength="53" x="676.75" y="78.6792">PartyRole</text><text fill="#000000" font-family="sans-serif" font-size="11" font-style="italic" lengthAdjust="spacingAndGlyphs" textLength="92" x="733.75" y="78.6792">(PartyRoleCode)</text></a><!--class PaymentPartyRole--><a target="_top" xlink:actuate="onRequest" xlink:href="../PaymentPartyRole.html" xlink:show="new" xlink:title="Role played by a party in the context of a payment." xlink:type="simple"><rect fill="#FEFECE" filter="url(#fw9svzkvl56l0)" height="23.9688" id="PaymentPartyRole" style="stroke: #A80036; stroke-width: 1.5;" width="119" x="420.75" y="166"/><rect fill="#FEFECE" height="23.9688" style="stroke: #A80036; stroke-width: 1.5;" width="119" x="420.75" y="166"/><text fill="#000000" font-family="sans-serif" font-size="12" lengthAdjust="spacingAndGlyphs" textLength="113" x="423.75" y="182.1387">PaymentPartyRole</text></a><!--class DebtorAgentRole--><a target="_top" xlink:actuate="onRequest" xlink:href="../DebtorAgentRole.html" xlink:show="new" xlink:title="Financial institution servicing an account for the debtor." xlink:type="simple"><rect fill="#FEFEEE" filter="url(#fw9svzkvl56l0)" height="23.9688" id="DebtorAgentRole" style="stroke: #A80036; stroke-width: 1.5;" width="113" x="290.75" y="270"/><rect fill="#FEFEEE" height="23.9688" style="stroke: #A80036; stroke-width: 1.5;" width="113" x="290.75" y="270"/><text fill="#000000" font-family="sans-serif" font-size="12" lengthAdjust="spacingAndGlyphs" textLength="107" x="293.75" y="286.1387">DebtorAgentRole</text></a><!--class CreditorRole--><a target="_top" xlink:actuate="onRequest" xlink:href="../CreditorRole.html" xlink:show="new" xlink:title="Party to which an amount of money is due." xlink:type="simple"><rect fill="#FEFEEE" filter="url(#fw9svzkvl56l0)" height="23.9688" id="CreditorRole" style="stroke: #A80036; stroke-width: 1.5;" width="83" x="438.75" y="270"/><rect fill="#FEFEEE" height="23.9688" style="stroke: #A80036; stroke-width: 1.5;" width="83" x="438.75" y="270"/><text fill="#000000" font-family="sans-serif" font-size="12" lengthAdjust="spacingAndGlyphs" textLength="77" x="441.75" y="286.1387">CreditorRole</text></a><!--class CreditorAgentRole--><a target="_top" xlink:actuate="onRequest" xlink:href="../CreditorAgentRole.html" xlink:show="new" xlink:title="Financial institution servicing an account for the creditor." xlink:type="simple"><rect fill="#FEFEEE" filter="url(#fw9svzkvl56l0)" height="23.9688" id="CreditorAgentRole" style="stroke: #A80036; stroke-width: 1.5;" width="120" x="557.5" y="270"/><rect fill="#FEFEEE" height="23.9688" style="stroke: #A80036; stroke-width: 1.5;" width="120" x="557.5" y="270"/><text fill="#000000" font-family="sans-serif" font-size="12" lengthAdjust="spacingAndGlyphs" textLength="114" x="560.5" y="286.1387">CreditorAgentRole</text></a><!--class InitiatingPartyRole--><a target="_top" xlink:actuate="onRequest" xlink:href="../InitiatingPartyRole.html" xlink:show="new" xlink:title="Party initiating the payment to an agent. In the payment context, this can either be the debtor (in a credit transfer), the creditor (in a direct debit), or a party that initiates the payment on behalf of the debtor or creditor. In the context of treasury, the party that instructs the trading party to execute a treasury deal on its behalf." xlink:type="simple"><rect fill="#FEFEEE" filter="url(#fw9svzkvl56l0)" height="23.9688" id="InitiatingPartyRole" style="stroke: #A80036; stroke-width: 1.5;" width="119" x="712.75" y="270"/><rect fill="#FEFEEE" height="23.9688" style="stroke: #A80036; stroke-width: 1.5;" width="119" x="712.75" y="270"/><text fill="#000000" font-family="sans-serif" font-size="12" lengthAdjust="spacingAndGlyphs" textLength="113" x="715.75" y="286.1387">InitiatingPartyRole</text></a><!--class RolePlayer--><a target="_top" xlink:actuate="onRequest" xlink:href="../RolePlayer.html" xlink:show="new" xlink:title="Type of entity that plays a specific role in a specific context." xlink:type="simple"><rect fill="#EEEEEE" filter="url(#fw9svzkvl56l0)" height="23.9688" id="RolePlayer" style="stroke: #A80036; stroke-width: 1.5;" width="71" x="1127.75" y="466"/><rect fill="#EEEEEE" height="23.9688" style="stroke: #A80036; stroke-width: 1.5;" width="71" x="1127.75" y="466"/><text fill="#000000" font-family="sans-serif" font-size="12" lengthAdjust="spacingAndGlyphs" textLength="65" x="1130.75" y="482.1387">RolePlayer</text></a><!--class ContactPersonRole--><a target="_top" xlink:actuate="onRequest" xlink:href="../ContactPersonRole.html" xlink:show="new" xlink:title="Person to be contacted in a given organisation. In the corporate action domain (including meeting notifications) , it is the contact person at the party organising the meeting, at the issuer or at an intermediary." xlink:type="simple"><rect fill="#EEEEEE" filter="url(#fw9svzkvl56l0)" height="23.9688" id="ContactPersonRole" style="stroke: #A80036; stroke-width: 1.5;" width="126" x="1120" y="376"/><rect fill="#EEEEEE" height="23.9688" style="stroke: #A80036; stroke-width: 1.5;" width="126" x="1120" y="376"/><text fill="#000000" font-family="sans-serif" font-size="12" lengthAdjust="spacingAndGlyphs" textLength="120" x="1123" y="392.1387">ContactPersonRole</text></a><!--class CounterpartyRisk--><a target="_top" xlink:actuate="onRequest" xlink:href="../CounterpartyRisk.html" xlink:show="new" xlink:title="Calculation of the exposure amount that one party has vis-a-vis one counterparty or a central system, based on its credit risk." xlink:type="simple"><rect fill="#EEEEEE" filter="url(#fw9svzkvl56l0)" height="23.9688" id="CounterpartyRisk" style="stroke: #A80036; stroke-width: 1.5;" width="113" x="1126.75" y="270"/><rect fill="#EEEEEE" height="23.9688" style="stroke: #A80036; stroke-width: 1.5;" width="113" x="1126.75" y="270"/><text fill="#000000" font-family="sans-serif" font-size="12" lengthAdjust="spacingAndGlyphs" textLength="107" x="1129.75" y="286.1387">CounterpartyRisk</text></a><!--class Entry--><a target="_top" xlink:actuate="onRequest" xlink:href="../Entry.html" xlink:show="new" xlink:title="Posting to an account that results in an increase or decrease to a balance." xlink:type="simple"><rect fill="#EEEEEE" filter="url(#fw9svzkvl56l0)" height="23.9688" id="Entry" style="stroke: #A80036; stroke-width: 1.5;" width="38" x="1208" y="166"/><rect fill="#EEEEEE" height="23.9688" style="stroke: #A80036; stroke-width: 1.5;" width="38" x="1208" y="166"/><text fill="#000000" font-family="sans-serif" font-size="12" lengthAdjust="spacingAndGlyphs" textLength="32" x="1211" y="182.1387">Entry</text></a><!--class CashAccount--><a target="_top" xlink:actuate="onRequest" xlink:href="../CashAccount.html" xlink:show="new" xlink:title="Account to or from which a cash entry is made." xlink:type="simple"><rect fill="#EEEEEE" filter="url(#fw9svzkvl56l0)" height="23.9688" id="CashAccount" style="stroke: #A80036; stroke-width: 1.5;" width="88" x="146.5" y="270"/><rect fill="#EEEEEE" height="23.9688" style="stroke: #A80036; stroke-width: 1.5;" width="88" x="146.5" y="270"/><text fill="#000000" font-family="sans-serif" font-size="12" lengthAdjust="spacingAndGlyphs" textLength="82" x="149.5" y="286.1387">CashAccount</text></a><!--class Payment--><a target="_top" xlink:actuate="onRequest" xlink:href="../Payment.html" xlink:show="new" xlink:title="Payment information and processes required to transfer cash end to end from the debtor to the creditor." xlink:type="simple"><rect fill="#EEEEEE" filter="url(#fw9svzkvl56l0)" height="23.9688" id="Payment" style="stroke: #A80036; stroke-width: 1.5;" width="60" x="38.5" y="376"/><rect fill="#EEEEEE" height="23.9688" style="stroke: #A80036; stroke-width: 1.5;" width="60" x="38.5" y="376"/><text fill="#000000" font-family="sans-serif" font-size="12" lengthAdjust="spacingAndGlyphs" textLength="54" x="41.5" y="392.1387">Payment</text></a><!--link Role to PaymentPartyRole--><path d="M675.031,93.521 C619.653,117.224 544.933,149.207 506.015,165.865 " fill="none" id="Role-PaymentPartyRole" style="stroke: #A80036; stroke-width: 1.0;"/><polygon fill="none" points="672.581,86.955,693.722,85.52,678.09,99.826,672.581,86.955" style="stroke: #A80036; stroke-width: 1.0;"/><!--link PaymentPartyRole to DebtorAgentRole--><path d="M449.394,202.472 C421.804,223.631 382.445,253.817 361.469,269.904 " fill="none" id="PaymentPartyRole-DebtorAgentRole" style="stroke: #A80036; stroke-width: 1.0;"/><polygon fill="none" points="445.383,196.727,465.513,190.11,453.903,207.836,445.383,196.727" style="stroke: #A80036; stroke-width: 1.0;"/><!--link PaymentPartyRole to CreditorRole--><path d="M480,210.595 C480,230.825 480,255.843 480,269.954 " fill="none" id="PaymentPartyRole-CreditorRole" style="stroke: #A80036; stroke-width: 1.0;"/><polygon fill="none" points="473,210.306,480,190.306,487,210.305,473,210.306" style="stroke: #A80036; stroke-width: 1.0;"/><!--link PaymentPartyRole to CreditorAgentRole--><path d="M511.121,202.17 C539.559,223.343 580.386,253.74 602.096,269.904 " fill="none" id="PaymentPartyRole-CreditorAgentRole" style="stroke: #A80036; stroke-width: 1.0;"/><polygon fill="none" points="506.784,207.668,494.922,190.11,515.145,196.439,506.784,207.668" style="stroke: #A80036; stroke-width: 1.0;"/><!--link PaymentPartyRole to InitiatingPartyRole--><path d="M539.136,195.66 C582.223,208.267 641.768,226.664 693,246 C712.087,253.204 733.19,262.632 748.78,269.887 " fill="none" id="PaymentPartyRole-InitiatingPartyRole" style="stroke: #A80036; stroke-width: 1.0;"/><polygon fill="none" points="536.977,202.323,519.709,190.042,540.867,188.874,536.977,202.323" style="stroke: #A80036; stroke-width: 1.0;"/><!--link ContactPersonRole to RolePlayer--><!--link CounterpartyRisk to ContactPersonRole--><!--link Entry to CounterpartyRisk--><!--link Payment to CashAccount--><!--link CashAccount to Payment--><path d="M163.978,294.088 C148.163,301.624 128.165,312.639 113,326 C98.0497,339.172 85.043,358.101 76.9103,371.369 " fill="none" id="CashAccount-Payment" style="stroke: #A80036; stroke-width: 1.0;"/><polygon fill="#A80036" points="74.14,375.98,82.203,370.3243,76.7145,371.6937,75.345,366.2051,74.14,375.98" style="stroke: #A80036; stroke-width: 1.0;"/><text fill="#000000" font-family="sans-serif" font-size="13" lengthAdjust="spacingAndGlyphs" textLength="57" x="114" y="339.0669">Payment</text><text fill="#000000" font-family="sans-serif" font-size="13" lengthAdjust="spacingAndGlyphs" textLength="8" x="65.36" y="365.0213">1</text><!--link Role to RolePlayer--><path d="M816.988,85.548 C858.386,102.753 902,131.641 902,177 C902,177 902,177 902,389 C902,434.9392 1049.02,461.4913 1122.38,471.8799 " fill="none" id="Role-RolePlayer" style="stroke: #A80036; stroke-width: 1.0;"/><polygon fill="#A80036" points="1127.53,472.6,1119.1785,467.3797,1122.5792,471.9002,1118.0587,475.3009,1127.53,472.6" style="stroke: #A80036; stroke-width: 1.0;"/><text fill="#000000" font-family="sans-serif" font-size="13" lengthAdjust="spacingAndGlyphs" textLength="39" x="903" y="286.0669">Player</text><text fill="#000000" font-family="sans-serif" font-size="13" lengthAdjust="spacingAndGlyphs" textLength="7" x="1112.8686" y="466.3783">*</text><!--link Role to ContactPersonRole--><path d="M831.256,72.588 C864.722,79.708 901.254,92.627 928,116 C972.515,154.901 944.171,191.756 981,238 C1031.29,301.148 1114.57,350.927 1156.77,373.619 " fill="none" id="Role-ContactPersonRole" style="stroke: #A80036; stroke-width: 1.0;"/><polygon fill="#A80036" points="1161.21,375.991,1155.1386,368.2361,1156.7944,373.6452,1151.3853,375.301,1161.21,375.991" style="stroke: #A80036; stroke-width: 1.0;"/><text fill="#000000" font-family="sans-serif" font-size="13" lengthAdjust="spacingAndGlyphs" textLength="121" x="982" y="233.0669">ContactPersonRole</text><text fill="#000000" font-family="sans-serif" font-size="13" lengthAdjust="spacingAndGlyphs" textLength="8" x="1143.0009" y="365.0361">1</text><!--link Role to CounterpartyRisk--><path d="M831.417,70.023 C882.542,76.359 947.036,89.354 999,116 C1042.1,138.1 1042.99,157.605 1079,190 C1109.43,217.379 1145.5,248.687 1166.17,266.523 " fill="none" id="Role-CounterpartyRisk" style="stroke: #A80036; stroke-width: 1.0;"/><polygon fill="#A80036" points="1170.09,269.906,1165.894,260.9957,1166.3062,266.6375,1160.6644,267.0497,1170.09,269.906" style="stroke: #A80036; stroke-width: 1.0;"/><text fill="#000000" font-family="sans-serif" font-size="13" lengthAdjust="spacingAndGlyphs" textLength="109" x="1080" y="182.0669">CounterpartyRisk</text><text fill="#000000" font-family="sans-serif" font-size="13" lengthAdjust="spacingAndGlyphs" textLength="24" x="1136.0975" y="258.9219">0..1</text><!--link Role to Entry--><path d="M831.571,74.345 C901.19,83.273 1000.853,97.625 1087,116 C1129.39,125.043 1142.16,122.751 1181,142 C1191.82,147.361 1202.63,155.414 1211.05,162.444 " fill="none" id="Role-Entry" style="stroke: #A80036; stroke-width: 1.0;"/><polygon fill="#A80036" points="1214.98,165.797,1210.7256,156.9144,1211.1749,162.5534,1205.5359,163.0027,1214.98,165.797" style="stroke: #A80036; stroke-width: 1.0;"/><text fill="#000000" font-family="sans-serif" font-size="13" lengthAdjust="spacingAndGlyphs" textLength="33" x="1163" y="129.0669">Entry</text><text fill="#000000" font-family="sans-serif" font-size="13" lengthAdjust="spacingAndGlyphs" textLength="8" x="1200.3421" y="155.0332">1</text><!--link PaymentPartyRole to CashAccount--><path d="M420.747,189.903 C387.871,196.81 346.561,206.919 311,220 C275.604,233.02 237.089,253.654 213.242,267.261 " fill="none" id="PaymentPartyRole-CashAccount" style="stroke: #A80036; stroke-width: 1.0;"/><polygon fill="#A80036" points="208.674,269.884,218.4706,268.8705,213.0098,267.3939,214.4865,261.9332,208.674,269.884" style="stroke: #A80036; stroke-width: 1.0;"/><text fill="#000000" font-family="sans-serif" font-size="13" lengthAdjust="spacingAndGlyphs" textLength="84" x="312" y="233.0669">CashAccount</text><text fill="#000000" font-family="sans-serif" font-size="13" lengthAdjust="spacingAndGlyphs" textLength="7" x="205.3744" y="258.8923">*</text><!--link PaymentPartyRole to Payment--><path d="M420.454,179.616 C317.405,182.084 112.544,193.627 68,246 C37.841,281.46 52.4879,342.041 62.0161,370.856 " fill="none" id="PaymentPartyRole-Payment" style="stroke: #A80036; stroke-width: 1.0;"/><polygon fill="#A80036" points="63.7237,375.853,64.598,366.043,62.1066,371.1217,57.0279,368.6304,63.7237,375.853" style="stroke: #A80036; stroke-width: 1.0;"/><text fill="#000000" font-family="sans-serif" font-size="13" lengthAdjust="spacingAndGlyphs" textLength="57" x="69" y="286.0669">Payment</text><text fill="#000000" font-family="sans-serif" font-size="13" lengthAdjust="spacingAndGlyphs" textLength="23" x="33.785" y="364.8507">1..*</text><!--link Payment to Payment--><path d="M97.625,379.914 C115.333,378.117 132,380.812 132,388 C132,394.458 118.547,397.289 102.9719,396.494 " fill="none" id="Payment-Payment" style="stroke: #A80036; stroke-width: 1.0;"/><polygon fill="#A80036" points="97.625,396.086,106.2941,400.7601,102.6105,396.467,106.9036,392.7834,97.625,396.086" style="stroke: #A80036; stroke-width: 1.0;"/><text fill="#000000" font-family="sans-serif" font-size="13" lengthAdjust="spacingAndGlyphs" textLength="105" x="138" y="392.0669">OriginalPayment</text><text fill="#000000" font-family="sans-serif" font-size="13" lengthAdjust="spacingAndGlyphs" textLength="8" x="106.5273" y="392.0637">1</text></g></svg>