<?xml version="1.0" encoding="UTF-8" standalone="no"?><svg xmlns="http://www.w3.org/2000/svg" xmlns:xlink="http://www.w3.org/1999/xlink" contentScriptType="application/ecmascript" contentStyleType="text/css" height="478px" preserveAspectRatio="none" style="width:921px;height:478px;" version="1.1" viewBox="0 0 921 478" width="921px" zoomAndPan="magnify"><defs><filter height="300%" id="fjeaox71r7tjl" width="300%" x="-1" y="-1"><feGaussianBlur result="blurOut" stdDeviation="2.0"/><feColorMatrix in="blurOut" result="blurOut2" type="matrix" values="0 0 0 0 0 0 0 0 0 0 0 0 0 0 0 0 0 0 .4 0"/><feOffset dx="4.0" dy="4.0" in="blurOut2" result="blurOut3"/><feBlend in="SourceGraphic" in2="blurOut3" mode="normal"/></filter></defs><g><!--cluster ##2857--><!--cluster ##2869--><!--cluster ##2878--><!--class Role--><a target="_top" xlink:actuate="onRequest" xlink:href="../Role.html" xlink:show="new" xlink:title="Role of a party in an activity." xlink:type="simple"><rect fill="#FEFEEE" filter="url(#fjeaox71r7tjl)" height="44.7734" id="Role" style="stroke: #A80036; stroke-width: 1.5;" width="175" x="161.75" y="40.5"/><rect fill="#FEFEEE" height="23.9688" style="stroke: #A80036; stroke-width: 1.5;" width="175" x="161.75" y="40.5"/><text fill="#000000" font-family="sans-serif" font-size="12" lengthAdjust="spacingAndGlyphs" textLength="27" x="235.75" y="56.6387">Role</text><line style="stroke: #A80036; stroke-width: 1.5;" x1="162.75" x2="335.75" y1="64.4688" y2="64.4688"/><ellipse cx="172.75" cy="76.3711" fill="#84BE84" rx="3" ry="3" style="stroke: #038048; stroke-width: 1.0;"/><text fill="#000000" font-family="sans-serif" font-size="11" lengthAdjust="spacingAndGlyphs" textLength="53" x="181.75" y="78.6792">PartyRole</text><text fill="#000000" font-family="sans-serif" font-size="11" font-style="italic" lengthAdjust="spacingAndGlyphs" textLength="92" x="238.75" y="78.6792">(PartyRoleCode)</text></a><!--class PaymentObligationPartyRole--><a target="_top" xlink:actuate="onRequest" xlink:href="../PaymentObligationPartyRole.html" xlink:show="new" xlink:title="Role played by a party in the context of a payment obligation." xlink:type="simple"><rect fill="#FEFECE" filter="url(#fjeaox71r7tjl)" height="23.9688" id="PaymentObligationPartyRole" style="stroke: #A80036; stroke-width: 1.5;" width="182" x="155" y="166"/><rect fill="#FEFECE" height="23.9688" style="stroke: #A80036; stroke-width: 1.5;" width="182" x="155" y="166"/><text fill="#000000" font-family="sans-serif" font-size="12" lengthAdjust="spacingAndGlyphs" textLength="176" x="158" y="182.1387">PaymentObligationPartyRole</text></a><!--class UltimateDebtorRole--><a target="_top" xlink:actuate="onRequest" xlink:href="../UltimateDebtorRole.html" xlink:show="new" xlink:title="Ultimate party that owes an amount of money to the (ultimate) creditor." xlink:type="simple"><rect fill="#FEFEEE" filter="url(#fjeaox71r7tjl)" height="23.9688" id="UltimateDebtorRole" style="stroke: #A80036; stroke-width: 1.5;" width="128" x="38" y="270"/><rect fill="#FEFEEE" height="23.9688" style="stroke: #A80036; stroke-width: 1.5;" width="128" x="38" y="270"/><text fill="#000000" font-family="sans-serif" font-size="12" lengthAdjust="spacingAndGlyphs" textLength="122" x="41" y="286.1387">UltimateDebtorRole</text></a><!--class UltimateCreditorRole--><a target="_top" xlink:actuate="onRequest" xlink:href="../UltimateCreditorRole.html" xlink:show="new" xlink:title="Ultimate party to which an amount of money is due." xlink:type="simple"><rect fill="#FEFEEE" filter="url(#fjeaox71r7tjl)" height="23.9688" id="UltimateCreditorRole" style="stroke: #A80036; stroke-width: 1.5;" width="135" x="201.75" y="270"/><rect fill="#FEFEEE" height="23.9688" style="stroke: #A80036; stroke-width: 1.5;" width="135" x="201.75" y="270"/><text fill="#000000" font-family="sans-serif" font-size="12" lengthAdjust="spacingAndGlyphs" textLength="129" x="204.75" y="286.1387">UltimateCreditorRole</text></a><!--class RolePlayer--><a target="_top" xlink:actuate="onRequest" xlink:href="../RolePlayer.html" xlink:show="new" xlink:title="Type of entity that plays a specific role in a specific context." xlink:type="simple"><rect fill="#EEEEEE" filter="url(#fjeaox71r7tjl)" height="23.9688" id="RolePlayer" style="stroke: #A80036; stroke-width: 1.5;" width="71" x="730.75" y="444"/><rect fill="#EEEEEE" height="23.9688" style="stroke: #A80036; stroke-width: 1.5;" width="71" x="730.75" y="444"/><text fill="#000000" font-family="sans-serif" font-size="12" lengthAdjust="spacingAndGlyphs" textLength="65" x="733.75" y="460.1387">RolePlayer</text></a><!--class ContactPersonRole--><a target="_top" xlink:actuate="onRequest" xlink:href="../ContactPersonRole.html" xlink:show="new" xlink:title="Person to be contacted in a given organisation. In the corporate action domain (including meeting notifications) , it is the contact person at the party organising the meeting, at the issuer or at an intermediary." xlink:type="simple"><rect fill="#EEEEEE" filter="url(#fjeaox71r7tjl)" height="23.9688" id="ContactPersonRole" style="stroke: #A80036; stroke-width: 1.5;" width="126" x="723" y="358"/><rect fill="#EEEEEE" height="23.9688" style="stroke: #A80036; stroke-width: 1.5;" width="126" x="723" y="358"/><text fill="#000000" font-family="sans-serif" font-size="12" lengthAdjust="spacingAndGlyphs" textLength="120" x="726" y="374.1387">ContactPersonRole</text></a><!--class CounterpartyRisk--><a target="_top" xlink:actuate="onRequest" xlink:href="../CounterpartyRisk.html" xlink:show="new" xlink:title="Calculation of the exposure amount that one party has vis-a-vis one counterparty or a central system, based on its credit risk." xlink:type="simple"><rect fill="#EEEEEE" filter="url(#fjeaox71r7tjl)" height="23.9688" id="CounterpartyRisk" style="stroke: #A80036; stroke-width: 1.5;" width="113" x="735.75" y="270"/><rect fill="#EEEEEE" height="23.9688" style="stroke: #A80036; stroke-width: 1.5;" width="113" x="735.75" y="270"/><text fill="#000000" font-family="sans-serif" font-size="12" lengthAdjust="spacingAndGlyphs" textLength="107" x="738.75" y="286.1387">CounterpartyRisk</text></a><!--class Entry--><a target="_top" xlink:actuate="onRequest" xlink:href="../Entry.html" xlink:show="new" xlink:title="Posting to an account that results in an increase or decrease to a balance." xlink:type="simple"><rect fill="#EEEEEE" filter="url(#fjeaox71r7tjl)" height="23.9688" id="Entry" style="stroke: #A80036; stroke-width: 1.5;" width="38" x="723" y="166"/><rect fill="#EEEEEE" height="23.9688" style="stroke: #A80036; stroke-width: 1.5;" width="38" x="723" y="166"/><text fill="#000000" font-family="sans-serif" font-size="12" lengthAdjust="spacingAndGlyphs" textLength="32" x="726" y="182.1387">Entry</text></a><!--class PaymentObligation--><a target="_top" xlink:actuate="onRequest" xlink:href="../PaymentObligation.html" xlink:show="new" xlink:title="Obligation for the debtor to pay the creditor an amount of cash." xlink:type="simple"><rect fill="#EEEEEE" filter="url(#fjeaox71r7tjl)" height="23.9688" id="PaymentObligation" style="stroke: #A80036; stroke-width: 1.5;" width="123" x="393.75" y="270"/><rect fill="#EEEEEE" height="23.9688" style="stroke: #A80036; stroke-width: 1.5;" width="123" x="393.75" y="270"/><text fill="#000000" font-family="sans-serif" font-size="12" lengthAdjust="spacingAndGlyphs" textLength="117" x="396.75" y="286.1387">PaymentObligation</text></a><!--link Role to PaymentObligationPartyRole--><path d="M247.897,105.559 C247.323,127.159 246.666,151.898 246.296,165.865 " fill="none" id="Role-PaymentObligationPartyRole" style="stroke: #A80036; stroke-width: 1.0;"/><polygon fill="none" points="240.9,105.328,248.429,85.52,254.895,105.699,240.9,105.328" style="stroke: #A80036; stroke-width: 1.0;"/><!--link PaymentObligationPartyRole to UltimateDebtorRole--><path d="M213.713,201.87 C183.805,223.055 140.593,253.664 117.665,269.904 " fill="none" id="PaymentObligationPartyRole-UltimateDebtorRole" style="stroke: #A80036; stroke-width: 1.0;"/><polygon fill="none" points="209.949,195.958,230.315,190.11,218.041,207.383,209.949,195.958" style="stroke: #A80036; stroke-width: 1.0;"/><!--link PaymentObligationPartyRole to UltimateCreditorRole--><path d="M252.977,209.94 C257.564,230.283 263.293,255.69 266.509,269.954 " fill="none" id="PaymentObligationPartyRole-UltimateCreditorRole" style="stroke: #A80036; stroke-width: 1.0;"/><polygon fill="none" points="246.12,211.355,248.549,190.306,259.777,208.276,246.12,211.355" style="stroke: #A80036; stroke-width: 1.0;"/><!--link ContactPersonRole to RolePlayer--><!--link CounterpartyRisk to ContactPersonRole--><!--link Entry to CounterpartyRisk--><!--link Role to RolePlayer--><path d="M336.483,75.674 C436.631,91.547 587,124.176 587,177 C587,177 587,177 587,371 C587,431.8572 672.842,448.7099 725.634,453.3199 " fill="none" id="Role-RolePlayer" style="stroke: #A80036; stroke-width: 1.0;"/><polygon fill="#A80036" points="730.635,453.7288,721.9919,449.0068,725.6517,453.3202,721.3382,456.98,730.635,453.7288" style="stroke: #A80036; stroke-width: 1.0;"/><text fill="#000000" font-family="sans-serif" font-size="13" lengthAdjust="spacingAndGlyphs" textLength="39" x="588" y="286.0669">Player</text><text fill="#000000" font-family="sans-serif" font-size="13" lengthAdjust="spacingAndGlyphs" textLength="7" x="715.7402" y="447.9585">*</text><!--link Role to ContactPersonRole--><path d="M336.413,66.667 C430.137,71.203 571.141,83.387 613,116 C659.226,152.015 635.131,186.452 663,238 C683.52,275.956 688.125,286.868 718,318 C731.704,332.281 749.714,345.597 763.757,355.039 " fill="none" id="Role-ContactPersonRole" style="stroke: #A80036; stroke-width: 1.0;"/><polygon fill="#A80036" points="767.978,357.842,762.6906,349.5328,763.8118,355.0774,758.2672,356.1987,767.978,357.842" style="stroke: #A80036; stroke-width: 1.0;"/><text fill="#000000" font-family="sans-serif" font-size="13" lengthAdjust="spacingAndGlyphs" textLength="121" x="664" y="233.0669">ContactPersonRole</text><text fill="#000000" font-family="sans-serif" font-size="13" lengthAdjust="spacingAndGlyphs" textLength="8" x="751.0642" y="346.8359">1</text><!--link Role to CounterpartyRisk--><path d="M336.328,64.431 C462.906,66.461 689.891,75.806 760,116 C790.995,133.77 805.713,218.295 806,220 C808.586,235.376 803.874,252.681 799.233,264.921 " fill="none" id="Role-CounterpartyRisk" style="stroke: #A80036; stroke-width: 1.0;"/><polygon fill="#A80036" points="797.27,269.837,804.322,262.9618,799.124,265.1934,796.8923,259.9954,797.27,269.837" style="stroke: #A80036; stroke-width: 1.0;"/><text fill="#000000" font-family="sans-serif" font-size="13" lengthAdjust="spacingAndGlyphs" textLength="109" x="800" y="182.0669">CounterpartyRisk</text><text fill="#000000" font-family="sans-serif" font-size="13" lengthAdjust="spacingAndGlyphs" textLength="24" x="769.5269" y="258.8292">0..1</text><!--link Role to Entry--><path d="M336.636,66.1 C449.045,70.162 636.598,81.969 696,116 C713.992,126.307 727.164,146.773 734.693,161.147 " fill="none" id="Role-Entry" style="stroke: #A80036; stroke-width: 1.0;"/><polygon fill="#A80036" points="737.029,165.765,736.5353,155.9285,734.7718,161.3035,729.3969,159.54,737.029,165.765" style="stroke: #A80036; stroke-width: 1.0;"/><text fill="#000000" font-family="sans-serif" font-size="13" lengthAdjust="spacingAndGlyphs" textLength="33" x="717" y="129.0669">Entry</text><text fill="#000000" font-family="sans-serif" font-size="13" lengthAdjust="spacingAndGlyphs" textLength="8" x="724.7261" y="154.9906">1</text><!--link PaymentObligationPartyRole to PaymentObligation--><path d="M268.765,190.11 C307.476,209.002 385.971,247.311 427.617,267.636 " fill="none" id="PaymentObligationPartyRole-PaymentObligation" style="stroke: #A80036; stroke-width: 1.0;"/><polygon fill="#A80036" points="432.264,269.904,425.9304,262.3617,427.7706,267.7109,422.4215,269.5511,432.264,269.904" style="stroke: #A80036; stroke-width: 1.0;"/><text fill="#000000" font-family="sans-serif" font-size="13" lengthAdjust="spacingAndGlyphs" textLength="121" x="365" y="233.0669">PaymentObligation</text><text fill="#000000" font-family="sans-serif" font-size="13" lengthAdjust="spacingAndGlyphs" textLength="7" x="414.8157" y="258.9192">*</text></g></svg>