<?xml version="1.0" encoding="UTF-8" standalone="no"?><svg xmlns="http://www.w3.org/2000/svg" xmlns:xlink="http://www.w3.org/1999/xlink" contentScriptType="application/ecmascript" contentStyleType="text/css" height="696px" preserveAspectRatio="none" style="width:1347px;height:696px;" version="1.1" viewBox="0 0 1347 696" width="1347px" zoomAndPan="magnify"><defs><filter height="300%" id="f6b4sxzn7k8rw" width="300%" x="-1" y="-1"><feGaussianBlur result="blurOut" stdDeviation="2.0"/><feColorMatrix in="blurOut" result="blurOut2" type="matrix" values="0 0 0 0 0 0 0 0 0 0 0 0 0 0 0 0 0 0 .4 0"/><feOffset dx="4.0" dy="4.0" in="blurOut2" result="blurOut3"/><feBlend in="SourceGraphic" in2="blurOut3" mode="normal"/></filter></defs><g><!--cluster ##2402--><!--cluster ##2408--><!--cluster ##2419--><!--class InvestigationCase--><a target="_top" xlink:actuate="onRequest" xlink:href="../InvestigationCase.html" xlink:show="new" xlink:title="Set of activities performed to handle an exception to a normal transaction flow.." xlink:type="simple"><rect fill="#FEFEEE" filter="url(#f6b4sxzn7k8rw)" height="70.3828" id="InvestigationCase" style="stroke: #A80036; stroke-width: 1.5;" width="239" x="223.379" y="40"/><rect fill="#FEFEEE" height="23.9688" style="stroke: #A80036; stroke-width: 1.5;" width="239" x="223.379" y="40"/><text fill="#000000" font-family="sans-serif" font-size="12" lengthAdjust="spacingAndGlyphs" textLength="111" x="287.379" y="56.1387">InvestigationCase</text><line style="stroke: #A80036; stroke-width: 1.5;" x1="224.379" x2="461.379" y1="63.9688" y2="63.9688"/><ellipse cx="234.379" cy="75.8711" fill="#84BE84" rx="3" ry="3" style="stroke: #038048; stroke-width: 1.0;"/><text fill="#000000" font-family="sans-serif" font-size="11" lengthAdjust="spacingAndGlyphs" textLength="139" x="243.379" y="78.1792">AssignmentIdentification</text><text fill="#000000" font-family="sans-serif" font-size="11" font-style="italic" lengthAdjust="spacingAndGlyphs" textLength="70" x="386.379" y="78.1792">(Max35Text)</text><ellipse cx="234.379" cy="88.6758" fill="#84BE84" rx="3" ry="3" style="stroke: #038048; stroke-width: 1.0;"/><text fill="#000000" font-family="sans-serif" font-size="11" lengthAdjust="spacingAndGlyphs" textLength="102" x="243.379" y="90.9839">CreationDateTime</text><text fill="#000000" font-family="sans-serif" font-size="11" font-style="italic" lengthAdjust="spacingAndGlyphs" textLength="81" x="349.379" y="90.9839">(ISODateTime)</text><ellipse cx="234.379" cy="101.4805" fill="#84BE84" rx="3" ry="3" style="stroke: #038048; stroke-width: 1.0;"/><text fill="#000000" font-family="sans-serif" font-size="11" lengthAdjust="spacingAndGlyphs" textLength="72" x="243.379" y="103.7886">Identification</text><text fill="#000000" font-family="sans-serif" font-size="11" font-style="italic" lengthAdjust="spacingAndGlyphs" textLength="70" x="319.379" y="103.7886">(Max35Text)</text></a><!--class PaymentInvestigationCase--><a target="_top" xlink:actuate="onRequest" xlink:href="../PaymentInvestigationCase.html" xlink:show="new" xlink:title="Set of activities performed to handle an exception to a normal payment transaction flow, such as: - a payment has not been received. - a payment has been received but is incorrect. - a payment must be corrected or cancelled (requested by the party which ordered the payment)." xlink:type="simple"><rect fill="#FEFECE" filter="url(#f6b4sxzn7k8rw)" height="95.9922" id="PaymentInvestigationCase" style="stroke: #A80036; stroke-width: 1.5;" width="423" x="224.379" y="188"/><rect fill="#FEFECE" height="23.9688" style="stroke: #A80036; stroke-width: 1.5;" width="423" x="224.379" y="188"/><text fill="#000000" font-family="sans-serif" font-size="12" lengthAdjust="spacingAndGlyphs" textLength="165" x="353.379" y="204.1387">PaymentInvestigationCase</text><line style="stroke: #A80036; stroke-width: 1.5;" x1="225.379" x2="646.379" y1="211.9688" y2="211.9688"/><ellipse cx="235.379" cy="223.8711" fill="#84BE84" rx="3" ry="3" style="stroke: #038048; stroke-width: 1.0;"/><text fill="#000000" font-family="sans-serif" font-size="11" lengthAdjust="spacingAndGlyphs" textLength="111" x="244.379" y="226.1792">CancellationReason</text><text fill="#000000" font-family="sans-serif" font-size="11" font-style="italic" lengthAdjust="spacingAndGlyphs" textLength="148" x="359.379" y="226.1792">(CancellationReasonCode)</text><ellipse cx="235.379" cy="236.6758" fill="#84BE84" rx="3" ry="3" style="stroke: #038048; stroke-width: 1.0;"/><text fill="#000000" font-family="sans-serif" font-size="11" lengthAdjust="spacingAndGlyphs" textLength="130" x="244.379" y="238.9839">MissingCoverIndication</text><text fill="#000000" font-family="sans-serif" font-size="11" font-style="italic" lengthAdjust="spacingAndGlyphs" textLength="92" x="378.379" y="238.9839">(YesNoIndicator)</text><ellipse cx="235.379" cy="249.4805" fill="#84BE84" rx="3" ry="3" style="stroke: #038048; stroke-width: 1.0;"/><text fill="#000000" font-family="sans-serif" font-size="11" lengthAdjust="spacingAndGlyphs" textLength="157" x="244.379" y="251.7886">IncorrectInformationReason</text><text fill="#000000" font-family="sans-serif" font-size="11" font-style="italic" lengthAdjust="spacingAndGlyphs" textLength="193" x="405.379" y="251.7886">(UnableToApplyIncorrectInfoCode)</text><ellipse cx="235.379" cy="262.2852" fill="#84BE84" rx="3" ry="3" style="stroke: #038048; stroke-width: 1.0;"/><text fill="#000000" font-family="sans-serif" font-size="11" lengthAdjust="spacingAndGlyphs" textLength="150" x="244.379" y="264.5933">MissingInformationReason</text><text fill="#000000" font-family="sans-serif" font-size="11" font-style="italic" lengthAdjust="spacingAndGlyphs" textLength="243" x="398.379" y="264.5933">(UnableToApplyMissingInformationV2Code)</text><ellipse cx="235.379" cy="275.0898" fill="#84BE84" rx="3" ry="3" style="stroke: #038048; stroke-width: 1.0;"/><text fill="#000000" font-family="sans-serif" font-size="11" lengthAdjust="spacingAndGlyphs" textLength="56" x="244.379" y="277.3979">CaseType</text><text fill="#000000" font-family="sans-serif" font-size="11" font-style="italic" lengthAdjust="spacingAndGlyphs" textLength="70" x="304.379" y="277.3979">(Max35Text)</text></a><!--class InvestigationCaseStatus--><a target="_top" xlink:actuate="onRequest" xlink:href="../InvestigationCaseStatus.html" xlink:show="new" xlink:title="Status of an investigation case." xlink:type="simple"><rect fill="#EEEEEE" filter="url(#f6b4sxzn7k8rw)" height="23.9688" id="InvestigationCaseStatus" style="stroke: #A80036; stroke-width: 1.5;" width="158" x="825.129" y="662"/><rect fill="#EEEEEE" height="23.9688" style="stroke: #A80036; stroke-width: 1.5;" width="158" x="825.129" y="662"/><text fill="#000000" font-family="sans-serif" font-size="12" lengthAdjust="spacingAndGlyphs" textLength="152" x="828.129" y="678.1387">InvestigationCaseStatus</text></a><!--class InvestigationPartyRole--><a target="_top" xlink:actuate="onRequest" xlink:href="../InvestigationPartyRole.html" xlink:show="new" xlink:title="Role played by a party in the context of an investigation process." xlink:type="simple"><rect fill="#EEEEEE" filter="url(#f6b4sxzn7k8rw)" height="23.9688" id="InvestigationPartyRole" style="stroke: #A80036; stroke-width: 1.5;" width="145" x="832.379" y="574"/><rect fill="#EEEEEE" height="23.9688" style="stroke: #A80036; stroke-width: 1.5;" width="145" x="832.379" y="574"/><text fill="#000000" font-family="sans-serif" font-size="12" lengthAdjust="spacingAndGlyphs" textLength="139" x="835.379" y="590.1387">InvestigationPartyRole</text></a><!--class DuplicateCase--><a target="_top" xlink:actuate="onRequest" xlink:href="../DuplicateCase.html" xlink:show="new" xlink:title="Outcome that results in closing a case as duplicate because the same issue has been reported by another party." xlink:type="simple"><rect fill="#EEEEEE" filter="url(#f6b4sxzn7k8rw)" height="23.9688" id="DuplicateCase" style="stroke: #A80036; stroke-width: 1.5;" width="96" x="856.629" y="470"/><rect fill="#EEEEEE" height="23.9688" style="stroke: #A80036; stroke-width: 1.5;" width="96" x="856.629" y="470"/><text fill="#000000" font-family="sans-serif" font-size="12" lengthAdjust="spacingAndGlyphs" textLength="90" x="859.629" y="486.1387">DuplicateCase</text></a><!--class InvestigationResolution--><a target="_top" xlink:actuate="onRequest" xlink:href="../InvestigationResolution.html" xlink:show="new" xlink:title="Specifies the actions taken as a result of an investigation." xlink:type="simple"><rect fill="#EEEEEE" filter="url(#f6b4sxzn7k8rw)" height="23.9688" id="InvestigationResolution" style="stroke: #A80036; stroke-width: 1.5;" width="152" x="830.629" y="366"/><rect fill="#EEEEEE" height="23.9688" style="stroke: #A80036; stroke-width: 1.5;" width="152" x="830.629" y="366"/><text fill="#000000" font-family="sans-serif" font-size="12" lengthAdjust="spacingAndGlyphs" textLength="146" x="833.629" y="382.1387">InvestigationResolution</text></a><!--class Reassignment--><a target="_top" xlink:actuate="onRequest" xlink:href="../Reassignment.html" xlink:show="new" xlink:title="Action that consists in forwarding an investigation case assignment to another party which becomes the new assignee." xlink:type="simple"><rect fill="#EEEEEE" filter="url(#f6b4sxzn7k8rw)" height="23.9688" id="Reassignment" style="stroke: #A80036; stroke-width: 1.5;" width="95" x="825.379" y="224"/><rect fill="#EEEEEE" height="23.9688" style="stroke: #A80036; stroke-width: 1.5;" width="95" x="825.379" y="224"/><text fill="#000000" font-family="sans-serif" font-size="12" lengthAdjust="spacingAndGlyphs" textLength="89" x="828.379" y="240.1387">Reassignment</text></a><!--class PaymentStatus--><a target="_top" xlink:actuate="onRequest" xlink:href="../PaymentStatus.html" xlink:show="new" xlink:title="Specifies the status of a payment at a specified time." xlink:type="simple"><rect fill="#EEEEEE" filter="url(#f6b4sxzn7k8rw)" height="23.9688" id="PaymentStatus" style="stroke: #A80036; stroke-width: 1.5;" width="101" x="170.379" y="366"/><rect fill="#EEEEEE" height="23.9688" style="stroke: #A80036; stroke-width: 1.5;" width="101" x="170.379" y="366"/><text fill="#000000" font-family="sans-serif" font-size="12" lengthAdjust="spacingAndGlyphs" textLength="95" x="173.379" y="382.1387">PaymentStatus</text></a><!--class Payment--><a target="_top" xlink:actuate="onRequest" xlink:href="../Payment.html" xlink:show="new" xlink:title="Payment information and processes required to transfer cash end to end from the debtor to the creditor." xlink:type="simple"><rect fill="#EEEEEE" filter="url(#f6b4sxzn7k8rw)" height="23.9688" id="Payment" style="stroke: #A80036; stroke-width: 1.5;" width="60" x="257.129" y="470"/><rect fill="#EEEEEE" height="23.9688" style="stroke: #A80036; stroke-width: 1.5;" width="60" x="257.129" y="470"/><text fill="#000000" font-family="sans-serif" font-size="12" lengthAdjust="spacingAndGlyphs" textLength="54" x="260.129" y="486.1387">Payment</text></a><!--class PaymentExecution--><a target="_top" xlink:actuate="onRequest" xlink:href="../PaymentExecution.html" xlink:show="new" xlink:title="Process required for executing an end to end payment. It consists of a payment initiation which may be followed by a series of instructions." xlink:type="simple"><rect fill="#EEEEEE" filter="url(#f6b4sxzn7k8rw)" height="23.9688" id="PaymentExecution" style="stroke: #A80036; stroke-width: 1.5;" width="121" x="249.379" y="574"/><rect fill="#EEEEEE" height="23.9688" style="stroke: #A80036; stroke-width: 1.5;" width="121" x="249.379" y="574"/><text fill="#000000" font-family="sans-serif" font-size="12" lengthAdjust="spacingAndGlyphs" textLength="115" x="252.379" y="590.1387">PaymentExecution</text></a><!--class CashEntry--><a target="_top" xlink:actuate="onRequest" xlink:href="../CashEntry.html" xlink:show="new" xlink:title="Posting of an item to a cash account, in the context of a cash transaction, that results in an increase or decrease to the balance of the account." xlink:type="simple"><rect fill="#EEEEEE" filter="url(#f6b4sxzn7k8rw)" height="23.9688" id="CashEntry" style="stroke: #A80036; stroke-width: 1.5;" width="69" x="152.379" y="470"/><rect fill="#EEEEEE" height="23.9688" style="stroke: #A80036; stroke-width: 1.5;" width="69" x="152.379" y="470"/><text fill="#000000" font-family="sans-serif" font-size="12" lengthAdjust="spacingAndGlyphs" textLength="63" x="155.379" y="486.1387">CashEntry</text></a><!--link InvestigationCase to PaymentInvestigationCase--><path d="M372.721,127.448 C384.104,146.91 396.993,168.945 408.126,187.98 " fill="none" id="InvestigationCase-PaymentInvestigationCase" style="stroke: #A80036; stroke-width: 1.0;"/><polygon fill="none" points="366.635,130.907,362.58,110.109,378.72,123.839,366.635,130.907" style="stroke: #A80036; stroke-width: 1.0;"/><!--link InvestigationPartyRole to InvestigationCaseStatus--><!--link DuplicateCase to InvestigationPartyRole--><!--link InvestigationResolution to DuplicateCase--><!--link Reassignment to InvestigationResolution--><!--link Payment to PaymentStatus--><!--link PaymentStatus to Payment--><path d="M215.491,390.237 C210.598,402.74 205.132,423.134 213.629,438 C221.957,452.571 237.363,462.695 251.883,469.442 " fill="none" id="PaymentStatus-Payment" style="stroke: #A80036; stroke-width: 1.0;"/><polygon fill="#A80036" points="256.762,471.602,250.1523,464.3005,252.1902,469.5775,246.9132,471.6154,256.762,471.602" style="stroke: #A80036; stroke-width: 1.0;"/><text fill="#000000" font-family="sans-serif" font-size="13" lengthAdjust="spacingAndGlyphs" textLength="57" x="214.629" y="433.0669">Payment</text><text fill="#000000" font-family="sans-serif" font-size="13" lengthAdjust="spacingAndGlyphs" textLength="24" x="229.4391" y="462.9231">0..1</text><!--link PaymentExecution to Payment--><!--link Payment to PaymentExecution--><path d="M272.402,494.048 C258.687,506.12 241.285,526.128 250.629,544 C256.802,555.808 268.096,564.9 279.163,571.487 " fill="none" id="Payment-PaymentExecution" style="stroke: #A80036; stroke-width: 1.0;"/><polygon fill="#A80036" points="283.545,573.979,277.696,566.0551,279.1977,571.5089,273.7439,573.0107,283.545,573.979" style="stroke: #A80036; stroke-width: 1.0;"/><text fill="#000000" font-family="sans-serif" font-size="13" lengthAdjust="spacingAndGlyphs" textLength="119" x="251.629" y="539.0669">PaymentExecution</text><text fill="#000000" font-family="sans-serif" font-size="13" lengthAdjust="spacingAndGlyphs" textLength="23" x="246.1958" y="563.02">1..*</text><!--link CashEntry to PaymentExecution--><!--link InvestigationCase to InvestigationCaseStatus--><path d="M462.335,81.097 C566.408,92.731 700.629,128.399 700.629,235 C700.629,235 700.629,235 700.629,587 C700.629,641.7091 763.914,662.1356 819.814,669.5069 " fill="none" id="InvestigationCase-InvestigationCaseStatus" style="stroke: #A80036; stroke-width: 1.0;"/><polygon fill="#A80036" points="824.853,670.1392,816.4214,665.0492,819.8919,669.5164,815.4248,672.9869,824.853,670.1392" style="stroke: #A80036; stroke-width: 1.0;"/><text fill="#000000" font-family="sans-serif" font-size="13" lengthAdjust="spacingAndGlyphs" textLength="42" x="701.629" y="433.0669">Status</text><text fill="#000000" font-family="sans-serif" font-size="13" lengthAdjust="spacingAndGlyphs" textLength="7" x="810.1771" y="665.2276">*</text><!--link InvestigationCase to InvestigationPartyRole--><path d="M462.08,82.376 C586.458,90.429 786.509,107.367 956.629,140 C1068.08,161.379 1193.63,121.519 1193.63,235 C1193.63,235 1193.63,235 1193.63,483 C1193.63,527.929 1067.85,557.97 982.249,573.213 " fill="none" id="InvestigationCase-InvestigationPartyRole" style="stroke: #A80036; stroke-width: 1.0;"/><polygon fill="#A80036" points="977.183,574.106,986.7403,576.4845,982.1072,573.2389,985.3529,568.6058,977.183,574.106" style="stroke: #A80036; stroke-width: 1.0;"/><text fill="#000000" font-family="sans-serif" font-size="13" lengthAdjust="spacingAndGlyphs" textLength="141" x="1194.63" y="382.0669">InvestigationPartyRole</text><text fill="#000000" font-family="sans-serif" font-size="13" lengthAdjust="spacingAndGlyphs" textLength="7" x="985.4741" y="567.9513">*</text><!--link InvestigationCase to DuplicateCase--><path d="M462.057,81.31 C560.482,88.243 689.677,104.078 726.629,140 C789.628,201.242 725.928,255.122 764.629,334 C793.302,392.441 853.48,443.076 884.774,466.745 " fill="none" id="InvestigationCase-DuplicateCase" style="stroke: #A80036; stroke-width: 1.0;"/><polygon fill="#A80036" points="888.809,469.769,884.0056,461.1709,884.8078,466.7706,879.2081,467.5728,888.809,469.769" style="stroke: #A80036; stroke-width: 1.0;"/><text fill="#000000" font-family="sans-serif" font-size="13" lengthAdjust="spacingAndGlyphs" textLength="158" x="765.629" y="329.0669">DuplicateCaseResolution</text><text fill="#000000" font-family="sans-serif" font-size="13" lengthAdjust="spacingAndGlyphs" textLength="24" x="854.2624" y="458.9959">0..1</text><!--link InvestigationCase to InvestigationResolution--><path d="M461.993,82.242 C621.391,91.623 887.853,111.362 922.629,140 C989.54,195.101 972.229,252.532 942.629,334 C938.743,344.695 930.901,354.587 923.526,362.18 " fill="none" id="InvestigationCase-InvestigationResolution" style="stroke: #A80036; stroke-width: 1.0;"/><polygon fill="#A80036" points="919.963,365.717,929.1689,362.2168,923.5121,362.1951,923.5338,356.5382,919.963,365.717" style="stroke: #A80036; stroke-width: 1.0;"/><text fill="#000000" font-family="sans-serif" font-size="13" lengthAdjust="spacingAndGlyphs" textLength="147" x="969.629" y="240.0669">InvestigationResolution</text><text fill="#000000" font-family="sans-serif" font-size="13" lengthAdjust="spacingAndGlyphs" textLength="7" x="914.8893" y="354.9267">*</text><!--link InvestigationCase to InvestigationCase--><path d="M462.084,62.047 C482.49,63.817 496.629,68.135 496.629,75 C496.629,81.275 484.816,85.422 467.201,87.44 " fill="none" id="InvestigationCase-InvestigationCase" style="stroke: #A80036; stroke-width: 1.0;"/><polygon fill="#A80036" points="462.084,87.953,471.4381,91.0355,467.0591,87.4543,470.6402,83.0754,462.084,87.953" style="stroke: #A80036; stroke-width: 1.0;"/><text fill="#000000" font-family="sans-serif" font-size="13" lengthAdjust="spacingAndGlyphs" textLength="161" x="502.629" y="79.0669">OriginalInvestigationCase</text><text fill="#000000" font-family="sans-serif" font-size="13" lengthAdjust="spacingAndGlyphs" textLength="7" x="470.3282" y="84.3107">*</text><!--link InvestigationCase to Reassignment--><path d="M461.898,82.749 C577.103,91.038 742.067,108.104 797.629,140 C830.159,158.674 853.788,197.494 865.114,219.286 " fill="none" id="InvestigationCase-Reassignment" style="stroke: #A80036; stroke-width: 1.0;"/><polygon fill="#A80036" points="867.471,223.922,866.9584,214.0865,865.2053,219.4648,859.8269,217.7117,867.471,223.922" style="stroke: #A80036; stroke-width: 1.0;"/><text fill="#000000" font-family="sans-serif" font-size="13" lengthAdjust="spacingAndGlyphs" textLength="91" x="821.629" y="153.0669">Reassignment</text><text fill="#000000" font-family="sans-serif" font-size="13" lengthAdjust="spacingAndGlyphs" textLength="24" x="836.1433" y="212.9434">0..1</text><!--link PaymentInvestigationCase to PaymentStatus--><path d="M245.853,284.017 C233.49,292.907 222.473,303.465 213.629,316 C204.406,329.072 208.402,347.782 213.288,361.026 " fill="none" id="PaymentInvestigationCase-PaymentStatus" style="stroke: #A80036; stroke-width: 1.0;"/><polygon fill="#A80036" points="215.252,365.986,215.6573,356.1455,213.4111,361.3372,208.2193,359.091,215.252,365.986" style="stroke: #A80036; stroke-width: 1.0;"/><text fill="#000000" font-family="sans-serif" font-size="13" lengthAdjust="spacingAndGlyphs" textLength="99" x="214.629" y="329.0669">PaymentStatus</text><text fill="#000000" font-family="sans-serif" font-size="13" lengthAdjust="spacingAndGlyphs" textLength="7" x="203.7708" y="355.0294">*</text><!--link PaymentInvestigationCase to Payment--><path d="M405.091,284.082 C393.528,302.111 380.336,322.925 368.629,342 C341.448,386.286 310.614,439.356 295.685,465.241 " fill="none" id="PaymentInvestigationCase-Payment" style="stroke: #A80036; stroke-width: 1.0;"/><polygon fill="#A80036" points="293.087,469.75,301.0452,463.9477,295.5826,465.4173,294.113,459.9547,293.087,469.75" style="stroke: #A80036; stroke-width: 1.0;"/><text fill="#000000" font-family="sans-serif" font-size="13" lengthAdjust="spacingAndGlyphs" textLength="125" x="369.629" y="382.0669">UnderlyingPayment</text><text fill="#000000" font-family="sans-serif" font-size="13" lengthAdjust="spacingAndGlyphs" textLength="7" x="285.57" y="458.9706">*</text><!--link PaymentInvestigationCase to PaymentExecution--><path d="M472.432,284.001 C483.785,301.257 494.821,321.585 500.629,342 C519.732,409.153 511.983,440.497 469.629,496 C440.102,534.693 388.653,558.94 352.072,572.18 " fill="none" id="PaymentInvestigationCase-PaymentExecution" style="stroke: #A80036; stroke-width: 1.0;"/><polygon fill="#A80036" points="347.238,573.896,357.0576,574.6541,351.9498,572.223,354.3809,567.1152,347.238,573.896" style="stroke: #A80036; stroke-width: 1.0;"/><text fill="#000000" font-family="sans-serif" font-size="13" lengthAdjust="spacingAndGlyphs" textLength="135" x="510.629" y="433.0669">UnderlyingInstruction</text><text fill="#000000" font-family="sans-serif" font-size="13" lengthAdjust="spacingAndGlyphs" textLength="8" x="349.3614" y="562.9085">1</text><!--link PaymentInvestigationCase to CashEntry--><path d="M224.208,265.445 C134.225,282.296 43.7328,307.266 16.6287,342 C-27.3727,398.389 84.424,446.782 147.295,468.613 " fill="none" id="PaymentInvestigationCase-CashEntry" style="stroke: #A80036; stroke-width: 1.0;"/><polygon fill="#A80036" points="152.105,470.265,144.892,463.5588,147.3761,468.6411,142.2938,471.1251,152.105,470.265" style="stroke: #A80036; stroke-width: 1.0;"/><text fill="#000000" font-family="sans-serif" font-size="13" lengthAdjust="spacingAndGlyphs" textLength="133" x="17.6287" y="382.0669">UnderlyingCashEntry</text><text fill="#000000" font-family="sans-serif" font-size="13" lengthAdjust="spacingAndGlyphs" textLength="7" x="137.3548" y="462.8681">*</text><!--link Payment to Payment--><path d="M316.254,472.859 C333.962,470.828 350.629,473.875 350.629,482 C350.629,489.3 337.176,492.501 321.601,491.602 " fill="none" id="Payment-Payment" style="stroke: #A80036; stroke-width: 1.0;"/><polygon fill="#A80036" points="316.254,491.141,324.8767,495.9002,321.2355,491.571,325.5647,487.9298,316.254,491.141" style="stroke: #A80036; stroke-width: 1.0;"/><text fill="#000000" font-family="sans-serif" font-size="13" lengthAdjust="spacingAndGlyphs" textLength="105" x="356.629" y="486.0669">OriginalPayment</text><text fill="#000000" font-family="sans-serif" font-size="13" lengthAdjust="spacingAndGlyphs" textLength="8" x="325.1563" y="487.4022">1</text></g></svg>