<?xml version="1.0" encoding="UTF-8" standalone="no"?><svg xmlns="http://www.w3.org/2000/svg" xmlns:xlink="http://www.w3.org/1999/xlink" contentScriptType="application/ecmascript" contentStyleType="text/css" height="672px" preserveAspectRatio="none" style="width:1815px;height:672px;" version="1.1" viewBox="0 0 1815 672" width="1815px" zoomAndPan="magnify"><defs><filter height="300%" id="f1hysgnhun1yom" width="300%" x="-1" y="-1"><feGaussianBlur result="blurOut" stdDeviation="2.0"/><feColorMatrix in="blurOut" result="blurOut2" type="matrix" values="0 0 0 0 0 0 0 0 0 0 0 0 0 0 0 0 0 0 .4 0"/><feOffset dx="4.0" dy="4.0" in="blurOut2" result="blurOut3"/><feBlend in="SourceGraphic" in2="blurOut3" mode="normal"/></filter></defs><g><!--cluster ##5339--><!--cluster ##5345--><!--cluster ##5356--><!--class PaymentExecution--><a target="_top" xlink:actuate="onRequest" xlink:href="../PaymentExecution.html" xlink:show="new" xlink:title="Process required for executing an end to end payment. It consists of a payment initiation which may be followed by a series of instructions." xlink:type="simple"><rect fill="#FEFEEE" filter="url(#f1hysgnhun1yom)" height="83.1875" id="PaymentExecution" style="stroke: #A80036; stroke-width: 1.5;" width="251" x="332.75" y="40.5"/><rect fill="#FEFEEE" height="23.9688" style="stroke: #A80036; stroke-width: 1.5;" width="251" x="332.75" y="40.5"/><text fill="#000000" font-family="sans-serif" font-size="12" lengthAdjust="spacingAndGlyphs" textLength="115" x="400.75" y="56.6387">PaymentExecution</text><line style="stroke: #A80036; stroke-width: 1.5;" x1="333.75" x2="582.75" y1="64.4688" y2="64.4688"/><ellipse cx="343.75" cy="76.3711" fill="#84BE84" rx="3" ry="3" style="stroke: #038048; stroke-width: 1.0;"/><text fill="#000000" font-family="sans-serif" font-size="11" lengthAdjust="spacingAndGlyphs" textLength="112" x="352.75" y="78.6792">CreditDebitIndicator</text><text fill="#000000" font-family="sans-serif" font-size="11" font-style="italic" lengthAdjust="spacingAndGlyphs" textLength="100" x="468.75" y="78.6792">(DebitCreditCode)</text><ellipse cx="343.75" cy="89.1758" fill="#84BE84" rx="3" ry="3" style="stroke: #038048; stroke-width: 1.0;"/><text fill="#000000" font-family="sans-serif" font-size="11" lengthAdjust="spacingAndGlyphs" textLength="74" x="352.75" y="91.4839">CreationDate</text><text fill="#000000" font-family="sans-serif" font-size="11" font-style="italic" lengthAdjust="spacingAndGlyphs" textLength="81" x="430.75" y="91.4839">(ISODateTime)</text><ellipse cx="343.75" cy="101.9805" fill="#84BE84" rx="3" ry="3" style="stroke: #038048; stroke-width: 1.0;"/><text fill="#000000" font-family="sans-serif" font-size="11" lengthAdjust="spacingAndGlyphs" textLength="118" x="352.75" y="104.2886">AcceptanceDateTime</text><text fill="#000000" font-family="sans-serif" font-size="11" font-style="italic" lengthAdjust="spacingAndGlyphs" textLength="81" x="474.75" y="104.2886">(ISODateTime)</text><ellipse cx="343.75" cy="114.7852" fill="#84BE84" rx="3" ry="3" style="stroke: #038048; stroke-width: 1.0;"/><text fill="#000000" font-family="sans-serif" font-size="11" lengthAdjust="spacingAndGlyphs" textLength="140" x="352.75" y="117.0933">RequestedExecutionDate</text><text fill="#000000" font-family="sans-serif" font-size="11" font-style="italic" lengthAdjust="spacingAndGlyphs" textLength="81" x="496.75" y="117.0933">(ISODateTime)</text></a><!--class PaymentInstruction--><a target="_top" xlink:actuate="onRequest" xlink:href="../PaymentInstruction.html" xlink:show="new" xlink:title="Instruction to pay an amount of money to an ultimate beneficiary, on behalf of an originator. This instruction may have to be forwarded several times to complete the settlement chain." xlink:type="simple"><rect fill="#FEFECE" filter="url(#f1hysgnhun1yom)" height="57.5781" id="PaymentInstruction" style="stroke: #A80036; stroke-width: 1.5;" width="287" x="296.75" y="202"/><rect fill="#FEFECE" height="23.9688" style="stroke: #A80036; stroke-width: 1.5;" width="287" x="296.75" y="202"/><text fill="#000000" font-family="sans-serif" font-size="12" lengthAdjust="spacingAndGlyphs" textLength="121" x="379.75" y="218.1387">PaymentInstruction</text><line style="stroke: #A80036; stroke-width: 1.5;" x1="297.75" x2="582.75" y1="225.9688" y2="225.9688"/><ellipse cx="307.75" cy="237.8711" fill="#84BE84" rx="3" ry="3" style="stroke: #038048; stroke-width: 1.0;"/><text fill="#000000" font-family="sans-serif" font-size="11" lengthAdjust="spacingAndGlyphs" textLength="135" x="316.75" y="240.1792">InstructionForNextAgent</text><text fill="#000000" font-family="sans-serif" font-size="11" font-style="italic" lengthAdjust="spacingAndGlyphs" textLength="96" x="455.75" y="240.1792">(InstructionCode)</text><ellipse cx="307.75" cy="250.6758" fill="#84BE84" rx="3" ry="3" style="stroke: #038048; stroke-width: 1.0;"/><text fill="#000000" font-family="sans-serif" font-size="11" lengthAdjust="spacingAndGlyphs" textLength="131" x="316.75" y="252.9839">ClearingChargeAmount</text><text fill="#000000" font-family="sans-serif" font-size="11" font-style="italic" lengthAdjust="spacingAndGlyphs" textLength="126" x="451.75" y="252.9839">(CurrencyAndAmount)</text></a><!--class Payment--><a target="_top" xlink:actuate="onRequest" xlink:href="../Payment.html" xlink:show="new" xlink:title="Payment information and processes required to transfer cash end to end from the debtor to the creditor." xlink:type="simple"><rect fill="#EEEEEE" filter="url(#f1hysgnhun1yom)" height="23.9688" id="Payment" style="stroke: #A80036; stroke-width: 1.5;" width="60" x="748.5" y="219"/><rect fill="#EEEEEE" height="23.9688" style="stroke: #A80036; stroke-width: 1.5;" width="60" x="748.5" y="219"/><text fill="#000000" font-family="sans-serif" font-size="12" lengthAdjust="spacingAndGlyphs" textLength="54" x="751.5" y="235.1387">Payment</text></a><!--class PaymentProcessing--><a target="_top" xlink:actuate="onRequest" xlink:href="../PaymentProcessing.html" xlink:show="new" xlink:title="Specifies how a payment must be processed, for instance through which specific clearing channel." xlink:type="simple"><rect fill="#EEEEEE" filter="url(#f1hysgnhun1yom)" height="23.9688" id="PaymentProcessing" style="stroke: #A80036; stroke-width: 1.5;" width="129" x="1006.75" y="638"/><rect fill="#EEEEEE" height="23.9688" style="stroke: #A80036; stroke-width: 1.5;" width="129" x="1006.75" y="638"/><text fill="#000000" font-family="sans-serif" font-size="12" lengthAdjust="spacingAndGlyphs" textLength="123" x="1009.75" y="654.1387">PaymentProcessing</text></a><!--class PaymentInvestigationCase--><a target="_top" xlink:actuate="onRequest" xlink:href="../PaymentInvestigationCase.html" xlink:show="new" xlink:title="Set of activities performed to handle an exception to a normal payment transaction flow, such as: - a payment has not been received. - a payment has been received but is incorrect. - a payment must be corrected or cancelled (requested by the party which ordered the payment)." xlink:type="simple"><rect fill="#EEEEEE" filter="url(#f1hysgnhun1yom)" height="23.9688" id="PaymentInvestigationCase" style="stroke: #A80036; stroke-width: 1.5;" width="171" x="903.75" y="550"/><rect fill="#EEEEEE" height="23.9688" style="stroke: #A80036; stroke-width: 1.5;" width="171" x="903.75" y="550"/><text fill="#000000" font-family="sans-serif" font-size="12" lengthAdjust="spacingAndGlyphs" textLength="165" x="906.75" y="566.1387">PaymentInvestigationCase</text></a><!--class PaymentInvestigationCaseResolution--><a target="_top" xlink:actuate="onRequest" xlink:href="../PaymentInvestigationCaseResolution.html" xlink:show="new" xlink:title="Specifies the status of an investigation case and the actions taken as a result of this status." xlink:type="simple"><rect fill="#EEEEEE" filter="url(#f1hysgnhun1yom)" height="23.9688" id="PaymentInvestigationCaseResolution" style="stroke: #A80036; stroke-width: 1.5;" width="237" x="691.75" y="446"/><rect fill="#EEEEEE" height="23.9688" style="stroke: #A80036; stroke-width: 1.5;" width="237" x="691.75" y="446"/><text fill="#000000" font-family="sans-serif" font-size="12" lengthAdjust="spacingAndGlyphs" textLength="231" x="694.75" y="462.1387">PaymentInvestigationCaseResolution</text></a><!--class CurrencyExchange--><a target="_top" xlink:actuate="onRequest" xlink:href="../CurrencyExchange.html" xlink:show="new" xlink:title="Information needed to process a currency exchange or conversion." xlink:type="simple"><rect fill="#EEEEEE" filter="url(#f1hysgnhun1yom)" height="23.9688" id="CurrencyExchange" style="stroke: #A80036; stroke-width: 1.5;" width="122" x="940" y="342"/><rect fill="#EEEEEE" height="23.9688" style="stroke: #A80036; stroke-width: 1.5;" width="122" x="940" y="342"/><text fill="#000000" font-family="sans-serif" font-size="12" lengthAdjust="spacingAndGlyphs" textLength="116" x="943" y="358.1387">CurrencyExchange</text></a><!--class DateTimePeriod--><a target="_top" xlink:actuate="onRequest" xlink:href="../DateTimePeriod.html" xlink:show="new" xlink:title="Time span defined by a start date and time, and an end date and time." xlink:type="simple"><rect fill="#EEEEEE" filter="url(#f1hysgnhun1yom)" height="23.9688" id="DateTimePeriod" style="stroke: #A80036; stroke-width: 1.5;" width="105" x="92.75" y="342"/><rect fill="#EEEEEE" height="23.9688" style="stroke: #A80036; stroke-width: 1.5;" width="105" x="92.75" y="342"/><text fill="#000000" font-family="sans-serif" font-size="12" lengthAdjust="spacingAndGlyphs" textLength="99" x="95.75" y="358.1387">DateTimePeriod</text></a><!--class CashSettlement--><a target="_top" xlink:actuate="onRequest" xlink:href="../CashSettlement.html" xlink:show="new" xlink:title="Instruction between two financial institutions stipulating the cash transfer characteristics between the two parties." xlink:type="simple"><rect fill="#EEEEEE" filter="url(#f1hysgnhun1yom)" height="23.9688" id="CashSettlement" style="stroke: #A80036; stroke-width: 1.5;" width="106" x="243.5" y="550"/><rect fill="#EEEEEE" height="23.9688" style="stroke: #A80036; stroke-width: 1.5;" width="106" x="243.5" y="550"/><text fill="#000000" font-family="sans-serif" font-size="12" lengthAdjust="spacingAndGlyphs" textLength="100" x="246.5" y="566.1387">CashSettlement</text></a><!--class StandingOrder--><a target="_top" xlink:actuate="onRequest" xlink:href="../StandingOrder.html" xlink:show="new" xlink:title="Instruction given by an account holder to an account servicer to make regular transfers on given dates to the same beneficiary." xlink:type="simple"><rect fill="#EEEEEE" filter="url(#f1hysgnhun1yom)" height="23.9688" id="StandingOrder" style="stroke: #A80036; stroke-width: 1.5;" width="97" x="37.75" y="446"/><rect fill="#EEEEEE" height="23.9688" style="stroke: #A80036; stroke-width: 1.5;" width="97" x="37.75" y="446"/><text fill="#000000" font-family="sans-serif" font-size="12" lengthAdjust="spacingAndGlyphs" textLength="91" x="40.75" y="462.1387">StandingOrder</text></a><!--link PaymentExecution to PaymentInstruction--><path d="M435.302,143.043 C434.399,146.718 433.617,150.389 433,154 C430.321,169.673 431.692,187.352 433.904,201.712 " fill="none" id="PaymentExecution-PaymentInstruction" style="stroke: #A80036; stroke-width: 1.0;"/><polygon fill="none" points="428.648,140.859,441.039,123.67,442.071,144.835,428.648,140.859" style="stroke: #A80036; stroke-width: 1.0;"/><!--link PaymentExecution to PaymentInstruction--><path d="M453.034,123.558 C450.221,146.531 446.745,174.918 444.09,196.597 " fill="none" id="PaymentExecution-PaymentInstruction" style="stroke: #A80036; stroke-width: 1.0;"/><polygon fill="#A80036" points="443.468,201.676,448.5337,193.2298,444.0766,196.7132,440.5932,192.2561,443.468,201.676" style="stroke: #A80036; stroke-width: 1.0;"/><text fill="#000000" font-family="sans-serif" font-size="13" lengthAdjust="spacingAndGlyphs" textLength="30" x="450" y="167.0669">Next</text><text fill="#000000" font-family="sans-serif" font-size="13" lengthAdjust="spacingAndGlyphs" textLength="24" x="416.6644" y="190.8202">0..1</text><!--link PaymentProcessing to Payment--><!--link PaymentInvestigationCase to PaymentProcessing--><!--link PaymentInvestigationCaseResolution to PaymentInvestigationCase--><!--link CurrencyExchange to PaymentInvestigationCaseResolution--><!--link CashSettlement to DateTimePeriod--><!--link StandingOrder to CashSettlement--><!--link PaymentExecution to Payment--><path d="M546.288,123.558 C614.116,154.716 703.621,195.832 748.976,216.667 " fill="none" id="PaymentExecution-Payment" style="stroke: #A80036; stroke-width: 1.0;"/><polygon fill="#A80036" points="753.755,218.863,747.2459,211.4717,749.2113,216.7761,743.9069,218.7416,753.755,218.863" style="stroke: #A80036; stroke-width: 1.0;"/><text fill="#000000" font-family="sans-serif" font-size="13" lengthAdjust="spacingAndGlyphs" textLength="57" x="648" y="167.0669">Payment</text><text fill="#000000" font-family="sans-serif" font-size="13" lengthAdjust="spacingAndGlyphs" textLength="7" x="735.702" y="207.8641">*</text><!--link PaymentExecution to PaymentProcessing--><path d="M583.411,85.394 C891.204,92.932 1659,122.507 1659,230 C1659,230 1659,230 1659,563 C1659,614.8405 1296.55,638.2906 1140.78,645.9748 " fill="none" id="PaymentExecution-PaymentProcessing" style="stroke: #A80036; stroke-width: 1.0;"/><polygon fill="#A80036" points="1135.33,646.2416,1144.5137,649.7997,1140.3241,645.9987,1144.1251,641.8092,1135.33,646.2416" style="stroke: #A80036; stroke-width: 1.0;"/><text fill="#000000" font-family="sans-serif" font-size="13" lengthAdjust="spacingAndGlyphs" textLength="143" x="1660" y="409.0669">ProcessingInstructions</text><text fill="#000000" font-family="sans-serif" font-size="13" lengthAdjust="spacingAndGlyphs" textLength="7" x="1143.5663" y="640.8245">*</text><!--link PaymentExecution to PaymentInvestigationCase--><path d="M583.374,88.877 C848.525,102.984 1442,144.148 1442,230 C1442,230 1442,230 1442,459 C1442,532.572 1211.71,553.084 1079.52,558.798 " fill="none" id="PaymentExecution-PaymentInvestigationCase" style="stroke: #A80036; stroke-width: 1.0;"/><polygon fill="#A80036" points="1074.47,559.011,1083.6332,562.6215,1079.4654,558.7967,1083.2903,554.6289,1074.47,559.011" style="stroke: #A80036; stroke-width: 1.0;"/><text fill="#000000" font-family="sans-serif" font-size="13" lengthAdjust="spacingAndGlyphs" textLength="161" x="1443" y="358.0669">RelatedInvestigationCase</text><text fill="#000000" font-family="sans-serif" font-size="13" lengthAdjust="spacingAndGlyphs" textLength="24" x="1082.8248" y="554.0976">0..1</text><!--link PaymentExecution to PaymentInvestigationCaseResolution--><path d="M583.459,83.613 C766.672,87.485 1093.66,106.669 1167,193 C1199.15,230.844 1171.1,380.995 1134,414 C1104.65,440.111 1012.27,450.556 933.625,454.643 " fill="none" id="PaymentExecution-PaymentInvestigationCaseResolution" style="stroke: #A80036; stroke-width: 1.0;"/><polygon fill="#A80036" points="928.466,454.903,937.6557,458.4454,933.4597,454.6516,937.2535,450.4555,928.466,454.903" style="stroke: #A80036; stroke-width: 1.0;"/><text fill="#000000" font-family="sans-serif" font-size="13" lengthAdjust="spacingAndGlyphs" textLength="227" x="1180" y="305.0669">RelatedInvestigationCaseResolution</text><text fill="#000000" font-family="sans-serif" font-size="13" lengthAdjust="spacingAndGlyphs" textLength="24" x="936.808" y="450.2322">0..1</text><!--link PaymentExecution to CurrencyExchange--><path d="M583.323,88.531 C690.259,98.151 844.719,124.019 961,193 C964.133,194.859 1045.72,288.588 1047,292 C1049.8,299.494 1050.19,302.662 1047,310 C1042.06,321.375 1032.47,331.113 1023.31,338.43 " fill="none" id="PaymentExecution-CurrencyExchange" style="stroke: #A80036; stroke-width: 1.0;"/><polygon fill="#A80036" points="1018.88,341.824,1028.4621,339.5472,1022.8558,338.7921,1023.611,333.1858,1018.88,341.824" style="stroke: #A80036; stroke-width: 1.0;"/><text fill="#000000" font-family="sans-serif" font-size="13" lengthAdjust="spacingAndGlyphs" textLength="119" x="1042" y="235.0669">CurrencyExchange</text><text fill="#000000" font-family="sans-serif" font-size="13" lengthAdjust="spacingAndGlyphs" textLength="7" x="1015.4794" y="330.8117">*</text><!--link PaymentInstruction to DateTimePeriod--><path d="M296.479,243.741 C230.467,252.418 162.31,267.193 142,292 C131.919,304.313 134.689,323.153 138.707,336.637 " fill="none" id="PaymentInstruction-DateTimePeriod" style="stroke: #A80036; stroke-width: 1.0;"/><polygon fill="#A80036" points="140.346,341.695,141.3761,331.9002,138.8044,336.9386,133.7659,334.3668,140.346,341.695" style="stroke: #A80036; stroke-width: 1.0;"/><text fill="#000000" font-family="sans-serif" font-size="13" lengthAdjust="spacingAndGlyphs" textLength="146" x="143" y="305.0669">ProcessingValidityTime</text><text fill="#000000" font-family="sans-serif" font-size="13" lengthAdjust="spacingAndGlyphs" textLength="8" x="128.0653" y="330.8974">1</text><!--link PaymentInstruction to CashSettlement--><path d="M446.198,260.219 C451.042,287.874 455.258,330.87 444,366 C418.699,444.951 346.023,516.805 312.861,546.537 " fill="none" id="PaymentInstruction-CashSettlement" style="stroke: #A80036; stroke-width: 1.0;"/><polygon fill="#A80036" points="309.018,549.951,318.4024,546.962,312.7553,546.6294,313.0879,540.9824,309.018,549.951" style="stroke: #A80036; stroke-width: 1.0;"/><text fill="#000000" font-family="sans-serif" font-size="13" lengthAdjust="spacingAndGlyphs" textLength="139" x="433" y="409.0669">SettlementInstruction</text><text fill="#000000" font-family="sans-serif" font-size="13" lengthAdjust="spacingAndGlyphs" textLength="8" x="302.6023" y="538.9824">1</text><!--link PaymentInstruction to StandingOrder--><path d="M405.105,260.264 C386.16,276.329 362.83,297.317 344,318 C308.274,357.241 317.389,384.917 273,414 C233.132,440.12 179.417,450.475 139.785,454.528 " fill="none" id="PaymentInstruction-StandingOrder" style="stroke: #A80036; stroke-width: 1.0;"/><polygon fill="#A80036" points="134.535,455.037,143.8793,458.149,139.5116,454.5541,143.1066,450.1864,134.535,455.037" style="stroke: #A80036; stroke-width: 1.0;"/><text fill="#000000" font-family="sans-serif" font-size="13" lengthAdjust="spacingAndGlyphs" textLength="93" x="345" y="358.0669">StandingOrder</text><text fill="#000000" font-family="sans-serif" font-size="13" lengthAdjust="spacingAndGlyphs" textLength="8" x="142.8679" y="449.2901">1</text><!--link Payment to CurrencyExchange--><path d="M798.58,243.167 C839.651,265.452 931.651,315.371 976.066,339.471 " fill="none" id="Payment-CurrencyExchange" style="stroke: #A80036; stroke-width: 1.0;"/><polygon fill="#A80036" points="980.47,341.86,974.4671,334.052,976.0752,339.4755,970.6518,341.0836,980.47,341.86" style="stroke: #A80036; stroke-width: 1.0;"/><text fill="#000000" font-family="sans-serif" font-size="13" lengthAdjust="spacingAndGlyphs" textLength="119" x="918" y="305.0669">CurrencyExchange</text><text fill="#000000" font-family="sans-serif" font-size="13" lengthAdjust="spacingAndGlyphs" textLength="7" x="963.8659" y="330.8601">*</text><!--link Payment to PaymentInvestigationCase--><path d="M807.58,242.811 C842.015,254.919 900.835,274.137 953,284 C994.199,291.79 1008.12,276.307 1047,292 C1063.99,298.858 1071.12,301.454 1079,318 C1088.17,337.263 1092.08,349.145 1079,366 C1046.09,408.412 994.909,353.588 962,396 C927.062,441.027 961.599,514.045 979.593,545.631 " fill="none" id="Payment-PaymentInvestigationCase" style="stroke: #A80036; stroke-width: 1.0;"/><polygon fill="#A80036" points="982.117,549.982,981.0598,540.19,979.6076,545.6573,974.1403,544.2051,982.117,549.982" style="stroke: #A80036; stroke-width: 1.0;"/><text fill="#000000" font-family="sans-serif" font-size="13" lengthAdjust="spacingAndGlyphs" textLength="161" x="963" y="409.0669">RelatedInvestigationCase</text><text fill="#000000" font-family="sans-serif" font-size="13" lengthAdjust="spacingAndGlyphs" textLength="24" x="950.1963" y="539.024">0..1</text><!--link Payment to PaymentInvestigationCaseResolution--><path d="M760.423,243.114 C739.547,257.476 705.817,284.642 692,318 C683.836,337.709 682.588,346.855 692,366 C710.127,402.87 751.175,429.016 779.73,443.554 " fill="none" id="Payment-PaymentInvestigationCaseResolution" style="stroke: #A80036; stroke-width: 1.0;"/><polygon fill="#A80036" points="784.554,445.96,778.2872,438.3622,780.0802,443.7274,774.715,445.5203,784.554,445.96" style="stroke: #A80036; stroke-width: 1.0;"/><text fill="#000000" font-family="sans-serif" font-size="13" lengthAdjust="spacingAndGlyphs" textLength="227" x="693" y="358.0669">RelatedInvestigationCaseResolution</text><text fill="#000000" font-family="sans-serif" font-size="13" lengthAdjust="spacingAndGlyphs" textLength="24" x="746.2523" y="434.9945">0..1</text><!--link Payment to Payment--><path d="M807.625,219.047 C825.333,216.391 842,220.375 842,231 C842,240.546 828.547,244.732 812.972,243.557 " fill="none" id="Payment-Payment" style="stroke: #A80036; stroke-width: 1.0;"/><polygon fill="#A80036" points="807.625,242.953,816.119,247.9382,812.5934,243.5144,817.0172,239.9888,807.625,242.953" style="stroke: #A80036; stroke-width: 1.0;"/><text fill="#000000" font-family="sans-serif" font-size="13" lengthAdjust="spacingAndGlyphs" textLength="105" x="848" y="235.0669">OriginalPayment</text><text fill="#000000" font-family="sans-serif" font-size="13" lengthAdjust="spacingAndGlyphs" textLength="8" x="808.5766" y="263.0781">1</text><!--link PaymentInvestigationCaseResolution to CashSettlement--><path d="M754.505,470.013 C656.35,489.491 453.105,529.824 353.523,549.585 " fill="none" id="PaymentInvestigationCaseResolution-CashSettlement" style="stroke: #A80036; stroke-width: 1.0;"/><polygon fill="#A80036" points="348.57,550.568,358.1769,552.7377,353.4742,549.5937,356.6181,544.891,348.57,550.568" style="stroke: #A80036; stroke-width: 1.0;"/><text fill="#000000" font-family="sans-serif" font-size="13" lengthAdjust="spacingAndGlyphs" textLength="103" x="585" y="515.0669">CoverCorrection</text><text fill="#000000" font-family="sans-serif" font-size="13" lengthAdjust="spacingAndGlyphs" textLength="24" x="357.5798" y="543.8435">0..1</text><!--link DateTimePeriod to StandingOrder--><path d="M138.461,366.306 C127.861,384.63 106.912,420.846 94.9428,441.54 " fill="none" id="DateTimePeriod-StandingOrder" style="stroke: #A80036; stroke-width: 1.0;"/><polygon fill="#A80036" points="92.3894,445.954,100.3575,440.1653,94.8924,441.6256,93.4321,436.1605,92.3894,445.954" style="stroke: #A80036; stroke-width: 1.0;"/><text fill="#000000" font-family="sans-serif" font-size="13" lengthAdjust="spacingAndGlyphs" textLength="141" x="122" y="409.0669">RelatedStandingOrder</text><text fill="#000000" font-family="sans-serif" font-size="13" lengthAdjust="spacingAndGlyphs" textLength="8" x="83.7811" y="434.9864">1</text><!--link StandingOrder to StandingOrder--><path d="M134.595,448.288 C153.383,447.856 169,451.094 169,458 C169,464.259 156.174,467.504 139.785,467.737 " fill="none" id="StandingOrder-StandingOrder" style="stroke: #A80036; stroke-width: 1.0;"/><polygon fill="#A80036" points="134.595,467.712,143.5755,471.7557,139.5949,467.7363,143.6143,463.7558,134.595,467.712" style="stroke: #A80036; stroke-width: 1.0;"/><text fill="#000000" font-family="sans-serif" font-size="13" lengthAdjust="spacingAndGlyphs" textLength="146" x="175" y="462.0669">IncludedStandingOrder</text><text fill="#000000" font-family="sans-serif" font-size="13" lengthAdjust="spacingAndGlyphs" textLength="8" x="142.6103" y="482.427">1</text></g></svg>