<?xml version="1.0" encoding="UTF-8" standalone="no"?><svg xmlns="http://www.w3.org/2000/svg" xmlns:xlink="http://www.w3.org/1999/xlink" contentScriptType="application/ecmascript" contentStyleType="text/css" height="645px" preserveAspectRatio="none" style="width:1184px;height:645px;" version="1.1" viewBox="0 0 1184 645" width="1184px" zoomAndPan="magnify"><defs><filter height="300%" id="f13zbhlkz4t00p" width="300%" x="-1" y="-1"><feGaussianBlur result="blurOut" stdDeviation="2.0"/><feColorMatrix in="blurOut" result="blurOut2" type="matrix" values="0 0 0 0 0 0 0 0 0 0 0 0 0 0 0 0 0 0 .4 0"/><feOffset dx="4.0" dy="4.0" in="blurOut2" result="blurOut3"/><feBlend in="SourceGraphic" in2="blurOut3" mode="normal"/></filter></defs><g><!--cluster ##15963--><!--cluster ##15975--><!--cluster ##15984--><!--cluster ##15987--><!--cluster ##15994--><!--class Role--><a target="_top" xlink:actuate="onRequest" xlink:href="../Role.html" xlink:show="new" xlink:title="Role of a party in an activity." xlink:type="simple"><rect fill="#FEFEEE" filter="url(#f13zbhlkz4t00p)" height="44.7734" id="Role" style="stroke: #A80036; stroke-width: 1.5;" width="175" x="383.601" y="40.5"/><rect fill="#FEFEEE" height="23.9688" style="stroke: #A80036; stroke-width: 1.5;" width="175" x="383.601" y="40.5"/><text fill="#000000" font-family="sans-serif" font-size="12" lengthAdjust="spacingAndGlyphs" textLength="27" x="457.601" y="56.6387">Role</text><line style="stroke: #A80036; stroke-width: 1.5;" x1="384.601" x2="557.601" y1="64.4688" y2="64.4688"/><ellipse cx="394.601" cy="76.3711" fill="#84BE84" rx="3" ry="3" style="stroke: #038048; stroke-width: 1.0;"/><text fill="#000000" font-family="sans-serif" font-size="11" lengthAdjust="spacingAndGlyphs" textLength="53" x="403.601" y="78.6792">PartyRole</text><text fill="#000000" font-family="sans-serif" font-size="11" font-style="italic" lengthAdjust="spacingAndGlyphs" textLength="92" x="460.601" y="78.6792">(PartyRoleCode)</text></a><!--class AssetPartyRole--><a target="_top" xlink:actuate="onRequest" xlink:href="../AssetPartyRole.html" xlink:show="new" xlink:title="Specifies roles played by a party that are linked to the handling of assets but not related to a specific process." xlink:type="simple"><rect fill="#FEFEEE" filter="url(#f13zbhlkz4t00p)" height="23.9688" id="AssetPartyRole" style="stroke: #A80036; stroke-width: 1.5;" width="100" x="420.851" y="166"/><rect fill="#FEFEEE" height="23.9688" style="stroke: #A80036; stroke-width: 1.5;" width="100" x="420.851" y="166"/><text fill="#000000" font-family="sans-serif" font-size="12" lengthAdjust="spacingAndGlyphs" textLength="94" x="423.851" y="182.1387">AssetPartyRole</text></a><!--class SecuritiesPartyRole--><a target="_top" xlink:actuate="onRequest" xlink:href="../SecuritiesPartyRole.html" xlink:show="new" xlink:title="Specifies roles played by a party that are linked to the handling of securities but not related to a specific process." xlink:type="simple"><rect fill="#FEFEEE" filter="url(#f13zbhlkz4t00p)" height="23.9688" id="SecuritiesPartyRole" style="stroke: #A80036; stroke-width: 1.5;" width="127" x="347.601" y="270"/><rect fill="#FEFEEE" height="23.9688" style="stroke: #A80036; stroke-width: 1.5;" width="127" x="347.601" y="270"/><text fill="#000000" font-family="sans-serif" font-size="12" lengthAdjust="spacingAndGlyphs" textLength="121" x="350.601" y="286.1387">SecuritiesPartyRole</text></a><!--class Pledgee--><a target="_top" xlink:actuate="onRequest" xlink:href="../Pledgee.html" xlink:show="new" xlink:title="Organisation used as the pledgee for the securities." xlink:type="simple"><rect fill="#FEFECE" filter="url(#f13zbhlkz4t00p)" height="44.7734" id="Pledgee" style="stroke: #A80036; stroke-width: 1.5;" width="212" x="347.351" y="374.5"/><rect fill="#FEFECE" height="23.9688" style="stroke: #A80036; stroke-width: 1.5;" width="212" x="347.351" y="374.5"/><text fill="#000000" font-family="sans-serif" font-size="12" lengthAdjust="spacingAndGlyphs" textLength="51" x="427.851" y="390.6387">Pledgee</text><line style="stroke: #A80036; stroke-width: 1.5;" x1="348.351" x2="558.351" y1="398.4688" y2="398.4688"/><ellipse cx="358.351" cy="410.3711" fill="#84BE84" rx="3" ry="3" style="stroke: #038048; stroke-width: 1.0;"/><text fill="#000000" font-family="sans-serif" font-size="11" lengthAdjust="spacingAndGlyphs" textLength="72" x="367.351" y="412.6792">PledgeeType</text><text fill="#000000" font-family="sans-serif" font-size="11" font-style="italic" lengthAdjust="spacingAndGlyphs" textLength="110" x="443.351" y="412.6792">(PledgeeTypeCode)</text></a><!--class RolePlayer--><a target="_top" xlink:actuate="onRequest" xlink:href="../RolePlayer.html" xlink:show="new" xlink:title="Type of entity that plays a specific role in a specific context." xlink:type="simple"><rect fill="#EEEEEE" filter="url(#f13zbhlkz4t00p)" height="23.9688" id="RolePlayer" style="stroke: #A80036; stroke-width: 1.5;" width="71" x="760.601" y="500"/><rect fill="#EEEEEE" height="23.9688" style="stroke: #A80036; stroke-width: 1.5;" width="71" x="760.601" y="500"/><text fill="#000000" font-family="sans-serif" font-size="12" lengthAdjust="spacingAndGlyphs" textLength="65" x="763.601" y="516.1387">RolePlayer</text></a><!--class ContactPersonRole--><a target="_top" xlink:actuate="onRequest" xlink:href="../ContactPersonRole.html" xlink:show="new" xlink:title="Person to be contacted in a given organisation. In the corporate action domain (including meeting notifications) , it is the contact person at the party organising the meeting, at the issuer or at an intermediary." xlink:type="simple"><rect fill="#EEEEEE" filter="url(#f13zbhlkz4t00p)" height="23.9688" id="ContactPersonRole" style="stroke: #A80036; stroke-width: 1.5;" width="126" x="712.851" y="385"/><rect fill="#EEEEEE" height="23.9688" style="stroke: #A80036; stroke-width: 1.5;" width="126" x="712.851" y="385"/><text fill="#000000" font-family="sans-serif" font-size="12" lengthAdjust="spacingAndGlyphs" textLength="120" x="715.851" y="401.1387">ContactPersonRole</text></a><!--class CounterpartyRisk--><a target="_top" xlink:actuate="onRequest" xlink:href="../CounterpartyRisk.html" xlink:show="new" xlink:title="Calculation of the exposure amount that one party has vis-a-vis one counterparty or a central system, based on its credit risk." xlink:type="simple"><rect fill="#EEEEEE" filter="url(#f13zbhlkz4t00p)" height="23.9688" id="CounterpartyRisk" style="stroke: #A80036; stroke-width: 1.5;" width="113" x="719.601" y="270"/><rect fill="#EEEEEE" height="23.9688" style="stroke: #A80036; stroke-width: 1.5;" width="113" x="719.601" y="270"/><text fill="#000000" font-family="sans-serif" font-size="12" lengthAdjust="spacingAndGlyphs" textLength="107" x="722.601" y="286.1387">CounterpartyRisk</text></a><!--class Entry--><a target="_top" xlink:actuate="onRequest" xlink:href="../Entry.html" xlink:show="new" xlink:title="Posting to an account that results in an increase or decrease to a balance." xlink:type="simple"><rect fill="#EEEEEE" filter="url(#f13zbhlkz4t00p)" height="23.9688" id="Entry" style="stroke: #A80036; stroke-width: 1.5;" width="38" x="712.851" y="166"/><rect fill="#EEEEEE" height="23.9688" style="stroke: #A80036; stroke-width: 1.5;" width="38" x="712.851" y="166"/><text fill="#000000" font-family="sans-serif" font-size="12" lengthAdjust="spacingAndGlyphs" textLength="32" x="715.851" y="182.1387">Entry</text></a><!--class Asset--><a target="_top" xlink:actuate="onRequest" xlink:href="../Asset.html" xlink:show="new" xlink:title="Tangible items of value to a business." xlink:type="simple"><rect fill="#EEEEEE" filter="url(#f13zbhlkz4t00p)" height="23.9688" id="Asset" style="stroke: #A80036; stroke-width: 1.5;" width="41" x="615.601" y="270"/><rect fill="#EEEEEE" height="23.9688" style="stroke: #A80036; stroke-width: 1.5;" width="41" x="615.601" y="270"/><text fill="#000000" font-family="sans-serif" font-size="12" lengthAdjust="spacingAndGlyphs" textLength="35" x="618.601" y="286.1387">Asset</text></a><!--class SecuritiesAccount--><a target="_top" xlink:actuate="onRequest" xlink:href="../SecuritiesAccount.html" xlink:show="new" xlink:title="Account to or from which a securities entry is made." xlink:type="simple"><rect fill="#EEEEEE" filter="url(#f13zbhlkz4t00p)" height="23.9688" id="SecuritiesAccount" style="stroke: #A80036; stroke-width: 1.5;" width="119" x="171.601" y="385"/><rect fill="#EEEEEE" height="23.9688" style="stroke: #A80036; stroke-width: 1.5;" width="119" x="171.601" y="385"/><text fill="#000000" font-family="sans-serif" font-size="12" lengthAdjust="spacingAndGlyphs" textLength="113" x="174.601" y="401.1387">SecuritiesAccount</text></a><!--class CashAccount--><a target="_top" xlink:actuate="onRequest" xlink:href="../CashAccount.html" xlink:show="new" xlink:title="Account to or from which a cash entry is made." xlink:type="simple"><rect fill="#EEEEEE" filter="url(#f13zbhlkz4t00p)" height="23.9688" id="CashAccount" style="stroke: #A80036; stroke-width: 1.5;" width="88" x="171.351" y="608"/><rect fill="#EEEEEE" height="23.9688" style="stroke: #A80036; stroke-width: 1.5;" width="88" x="171.351" y="608"/><text fill="#000000" font-family="sans-serif" font-size="12" lengthAdjust="spacingAndGlyphs" textLength="82" x="174.351" y="624.1387">CashAccount</text></a><!--class Security--><a target="_top" xlink:actuate="onRequest" xlink:href="../Security.html" xlink:show="new" xlink:title="Financial instruments representing a sum of rights of the investor vis-a-vis the issuer." xlink:type="simple"><rect fill="#EEEEEE" filter="url(#f13zbhlkz4t00p)" height="23.9688" id="Security" style="stroke: #A80036; stroke-width: 1.5;" width="56" x="175.351" y="500"/><rect fill="#EEEEEE" height="23.9688" style="stroke: #A80036; stroke-width: 1.5;" width="56" x="175.351" y="500"/><text fill="#000000" font-family="sans-serif" font-size="12" lengthAdjust="spacingAndGlyphs" textLength="50" x="178.351" y="516.1387">Security</text></a><!--class SecuritiesBalance--><a target="_top" xlink:actuate="onRequest" xlink:href="../SecuritiesBalance.html" xlink:show="new" xlink:title="Net position of a segregated holding, in a single security, within the overall position held in a securities account. A securities balance is calculated from the sum of securities' receipts minus the sum of securities' deliveries." xlink:type="simple"><rect fill="#EEEEEE" filter="url(#f13zbhlkz4t00p)" height="23.9688" id="SecuritiesBalance" style="stroke: #A80036; stroke-width: 1.5;" width="118" x="346.851" y="608"/><rect fill="#EEEEEE" height="23.9688" style="stroke: #A80036; stroke-width: 1.5;" width="118" x="346.851" y="608"/><text fill="#000000" font-family="sans-serif" font-size="12" lengthAdjust="spacingAndGlyphs" textLength="112" x="349.851" y="624.1387">SecuritiesBalance</text></a><!--link Role to AssetPartyRole--><path d="M470.851,105.559 C470.851,127.159 470.851,151.898 470.851,165.865 " fill="none" id="Role-AssetPartyRole" style="stroke: #A80036; stroke-width: 1.0;"/><polygon fill="none" points="463.852,105.52,470.851,85.52,477.852,105.52,463.852,105.52" style="stroke: #A80036; stroke-width: 1.0;"/><!--link AssetPartyRole to SecuritiesPartyRole--><path d="M453.982,207.678 C441.813,228.365 426.054,255.156 417.349,269.954 " fill="none" id="AssetPartyRole-SecuritiesPartyRole" style="stroke: #A80036; stroke-width: 1.0;"/><polygon fill="none" points="448.027,203.995,464.201,190.306,460.094,211.093,448.027,203.995" style="stroke: #A80036; stroke-width: 1.0;"/><!--link SecuritiesPartyRole to Pledgee--><path d="M422.05,313.131 C429.228,332.441 438.374,357.049 444.829,374.417 " fill="none" id="SecuritiesPartyRole-Pledgee" style="stroke: #A80036; stroke-width: 1.0;"/><polygon fill="none" points="415.439,315.434,415.032,294.248,428.562,310.556,415.439,315.434" style="stroke: #A80036; stroke-width: 1.0;"/><!--link ContactPersonRole to RolePlayer--><!--link CounterpartyRisk to ContactPersonRole--><!--link Entry to CounterpartyRisk--><!--link CashAccount to SecuritiesAccount--><!--link Security to CashAccount--><!--link Role to RolePlayer--><path d="M558.418,69.962 C738.338,83.388 1132.85,119.396 1132.85,177 C1132.85,177 1132.85,177 1132.85,398 C1132.85,459.865 926.121,494.14 836.494,506.093 " fill="none" id="Role-RolePlayer" style="stroke: #A80036; stroke-width: 1.0;"/><polygon fill="#A80036" points="831.279,506.781,840.7242,509.5716,836.2362,506.1281,839.6797,501.6401,831.279,506.781" style="stroke: #A80036; stroke-width: 1.0;"/><text fill="#000000" font-family="sans-serif" font-size="13" lengthAdjust="spacingAndGlyphs" textLength="39" x="1133.85" y="286.0669">Player</text><text fill="#000000" font-family="sans-serif" font-size="13" lengthAdjust="spacingAndGlyphs" textLength="7" x="839.7398" y="499.8648">*</text><!--link Role to ContactPersonRole--><path d="M558.357,66.773 C672.719,72.46 863.571,89.733 906.851,142 C973.028,221.916 843.673,340.761 794.078,381.607 " fill="none" id="Role-ContactPersonRole" style="stroke: #A80036; stroke-width: 1.0;"/><polygon fill="#A80036" points="790.091,384.864,799.5919,382.2693,793.9636,381.7013,794.5316,376.073,790.091,384.864" style="stroke: #A80036; stroke-width: 1.0;"/><text fill="#000000" font-family="sans-serif" font-size="13" lengthAdjust="spacingAndGlyphs" textLength="121" x="922.851" y="233.0669">ContactPersonRole</text><text fill="#000000" font-family="sans-serif" font-size="13" lengthAdjust="spacingAndGlyphs" textLength="8" x="784.2673" y="373.8655">1</text><!--link Role to CounterpartyRisk--><path d="M558.388,75.372 C636.256,87.463 741.742,109.38 767.851,142 C796.433,177.709 787.133,236.571 780.337,264.85 " fill="none" id="Role-CounterpartyRisk" style="stroke: #A80036; stroke-width: 1.0;"/><polygon fill="#A80036" points="779.106,269.761,785.1742,262.0036,780.3217,264.911,777.4143,260.0585,779.106,269.761" style="stroke: #A80036; stroke-width: 1.0;"/><text fill="#000000" font-family="sans-serif" font-size="13" lengthAdjust="spacingAndGlyphs" textLength="109" x="787.851" y="182.0669">CounterpartyRisk</text><text fill="#000000" font-family="sans-serif" font-size="13" lengthAdjust="spacingAndGlyphs" textLength="24" x="750.7952" y="258.9853">0..1</text><!--link Role to Entry--><path d="M520.558,85.52 C576.669,109.814 665.636,148.332 707.96,166.656 " fill="none" id="Role-Entry" style="stroke: #A80036; stroke-width: 1.0;"/><polygon fill="#A80036" points="712.641,168.683,705.9699,161.4376,708.0522,166.6972,702.7926,168.7796,712.641,168.683" style="stroke: #A80036; stroke-width: 1.0;"/><text fill="#000000" font-family="sans-serif" font-size="13" lengthAdjust="spacingAndGlyphs" textLength="33" x="633.851" y="129.0669">Entry</text><text fill="#000000" font-family="sans-serif" font-size="13" lengthAdjust="spacingAndGlyphs" textLength="8" x="696.8319" y="159.7619">1</text><!--link AssetPartyRole to Asset--><path d="M488.823,190.11 C519.199,208.887 580.602,246.846 613.63,267.263 " fill="none" id="AssetPartyRole-Asset" style="stroke: #A80036; stroke-width: 1.0;"/><polygon fill="#A80036" points="617.902,269.904,612.3513,261.7683,613.6495,267.2742,608.1436,268.5724,617.902,269.904" style="stroke: #A80036; stroke-width: 1.0;"/><text fill="#000000" font-family="sans-serif" font-size="13" lengthAdjust="spacingAndGlyphs" textLength="36" x="564.851" y="233.0669">Asset</text><text fill="#000000" font-family="sans-serif" font-size="13" lengthAdjust="spacingAndGlyphs" textLength="7" x="602.0992" y="258.9192">*</text><!--link SecuritiesPartyRole to SecuritiesAccount--><path d="M372.207,294.015 C350.499,301.213 323.504,311.906 301.851,326 C278.38,341.278 256.218,365.204 243.085,380.744 " fill="none" id="SecuritiesPartyRole-SecuritiesAccount" style="stroke: #A80036; stroke-width: 1.0;"/><polygon fill="#A80036" points="239.627,384.891,248.4635,380.5416,242.8296,381.0513,242.3199,375.4175,239.627,384.891" style="stroke: #A80036; stroke-width: 1.0;"/><text fill="#000000" font-family="sans-serif" font-size="13" lengthAdjust="spacingAndGlyphs" textLength="115" x="302.851" y="339.0669">SecuritiesAccount</text><text fill="#000000" font-family="sans-serif" font-size="13" lengthAdjust="spacingAndGlyphs" textLength="7" x="233.0109" y="373.9017">*</text><!--link SecuritiesPartyRole to CashAccount--><path d="M347.343,287.772 C272.732,294.143 154.018,306.891 113.851,326 C48.2816,357.194 32.2611,382.933 9.8514,452 C-16.4355,533.017 103.0741,584.3223 170.845,606.4251 " fill="none" id="SecuritiesPartyRole-CashAccount" style="stroke: #A80036; stroke-width: 1.0;"/><polygon fill="#A80036" points="175.632,607.9661,168.2897,601.4017,170.8723,606.4346,165.8394,609.0172,175.632,607.9661" style="stroke: #A80036; stroke-width: 1.0;"/><text fill="#000000" font-family="sans-serif" font-size="13" lengthAdjust="spacingAndGlyphs" textLength="84" x="10.8514" y="465.0669">CashAccount</text><text fill="#000000" font-family="sans-serif" font-size="13" lengthAdjust="spacingAndGlyphs" textLength="7" x="156.3009" y="598.7922">*</text><!--link SecuritiesPartyRole to Security--><path d="M347.347,289.745 C265.219,299.928 129.089,322.273 98.8514,361 C76.1496,390.076 81.1904,411.614 98.8514,444 C113.89,471.578 145.689,489.513 170.189,499.822 " fill="none" id="SecuritiesPartyRole-Security" style="stroke: #A80036; stroke-width: 1.0;"/><polygon fill="#A80036" points="174.985,501.783,168.1688,494.6739,170.357,499.8904,165.1406,502.0787,174.985,501.783" style="stroke: #A80036; stroke-width: 1.0;"/><text fill="#000000" font-family="sans-serif" font-size="13" lengthAdjust="spacingAndGlyphs" textLength="52" x="99.8514" y="401.0669">Security</text><text fill="#000000" font-family="sans-serif" font-size="13" lengthAdjust="spacingAndGlyphs" textLength="7" x="160.2064" y="494.0064">*</text><!--link Pledgee to SecuritiesBalance--><path d="M470.207,419.667 C491.901,449.57 523.682,504.701 501.851,548 C488.346,574.7853 459.435,593.9751 436.85,605.5979 " fill="none" id="Pledgee-SecuritiesBalance" style="stroke: #A80036; stroke-width: 1.0;"/><polygon fill="#A80036" points="432.134,607.9633,441.9721,607.5041,436.6034,605.7218,438.3858,600.3531,432.134,607.9633" style="stroke: #A80036; stroke-width: 1.0;"/><text fill="#000000" font-family="sans-serif" font-size="13" lengthAdjust="spacingAndGlyphs" textLength="114" x="510.851" y="516.0669">SecuritiesBalance</text><text fill="#000000" font-family="sans-serif" font-size="13" lengthAdjust="spacingAndGlyphs" textLength="24" x="411.7" y="596.9989">0..1</text><!--link SecuritiesAccount to Security--><path d="M222.893,409.362 C216.054,419.868 206.704,436.2 202.851,452 C199.4,466.153 199.784,482.79 200.806,494.783 " fill="none" id="SecuritiesAccount-Security" style="stroke: #A80036; stroke-width: 1.0;"/><polygon fill="#A80036" points="201.31,499.941,204.4169,490.595,200.8244,494.9646,196.4548,491.3721,201.31,499.941" style="stroke: #A80036; stroke-width: 1.0;"/><text fill="#000000" font-family="sans-serif" font-size="13" lengthAdjust="spacingAndGlyphs" textLength="52" x="203.851" y="465.0669">Security</text><text fill="#000000" font-family="sans-serif" font-size="13" lengthAdjust="spacingAndGlyphs" textLength="7" x="191.0615" y="488.9689">*</text><!--link SecuritiesAccount to SecuritiesBalance--><path d="M240.325,409.373 C261.765,435.179 315.511,500.263 358.851,556 C371.344,572.0661 385.233,590.7948 394.651,603.6309 " fill="none" id="SecuritiesAccount-SecuritiesBalance" style="stroke: #A80036; stroke-width: 1.0;"/><polygon fill="#A80036" points="397.665,607.7458,395.5744,598.1214,394.7107,603.7119,389.1202,602.8482,397.665,607.7458" style="stroke: #A80036; stroke-width: 1.0;"/><text fill="#000000" font-family="sans-serif" font-size="13" lengthAdjust="spacingAndGlyphs" textLength="114" x="352.851" y="516.0669">SecuritiesBalance</text><text fill="#000000" font-family="sans-serif" font-size="13" lengthAdjust="spacingAndGlyphs" textLength="7" x="385.4628" y="596.965">*</text><!--link Security to SecuritiesBalance--><path d="M219.049,524.148 C238.124,537.024 271.001,558.428 300.851,574 C323.967,586.0588 351.031,597.5993 371.892,605.9739 " fill="none" id="Security-SecuritiesBalance" style="stroke: #A80036; stroke-width: 1.0;"/><polygon fill="#A80036" points="376.785,607.9257,369.908,600.8754,372.141,606.0729,366.9435,608.3059,376.785,607.9257" style="stroke: #A80036; stroke-width: 1.0;"/><text fill="#000000" font-family="sans-serif" font-size="13" lengthAdjust="spacingAndGlyphs" textLength="51" x="301.851" y="569.0669">Balance</text><text fill="#000000" font-family="sans-serif" font-size="13" lengthAdjust="spacingAndGlyphs" textLength="8" x="356.0748" y="596.9484">1</text><!--link SecuritiesBalance to SecuritiesBalance--><path d="M465.06,609.8756 C484.429,609.9279 499.851,613.3027 499.851,620 C499.851,626.0694 487.185,629.4101 470.394,630.0221 " fill="none" id="SecuritiesBalance-SecuritiesBalance" style="stroke: #A80036; stroke-width: 1.0;"/><polygon fill="#A80036" points="465.06,630.1244,474.1349,633.9514,470.0591,630.0287,473.9818,625.9528,465.06,630.1244" style="stroke: #A80036; stroke-width: 1.0;"/><text fill="#000000" font-family="sans-serif" font-size="13" lengthAdjust="spacingAndGlyphs" textLength="144" x="505.851" y="624.0669">MainSecuritiesBalance</text><text fill="#000000" font-family="sans-serif" font-size="13" lengthAdjust="spacingAndGlyphs" textLength="24" x="472.8485" y="626.3779">0..1</text></g></svg>