<?xml version="1.0" encoding="UTF-8" standalone="no"?><svg xmlns="http://www.w3.org/2000/svg" xmlns:xlink="http://www.w3.org/1999/xlink" contentScriptType="application/ecmascript" contentStyleType="text/css" height="1132px" preserveAspectRatio="none" style="width:2343px;height:1132px;" version="1.1" viewBox="0 0 2343 1132" width="2343px" zoomAndPan="magnify"><defs><filter height="300%" id="f1njkkqlufx8cl" width="300%" x="-1" y="-1"><feGaussianBlur result="blurOut" stdDeviation="2.0"/><feColorMatrix in="blurOut" result="blurOut2" type="matrix" values="0 0 0 0 0 0 0 0 0 0 0 0 0 0 0 0 0 0 .4 0"/><feOffset dx="4.0" dy="4.0" in="blurOut2" result="blurOut3"/><feBlend in="SourceGraphic" in2="blurOut3" mode="normal"/></filter></defs><g><!--cluster ##10655--><!--cluster ##10664--><!--cluster ##10669--><!--cluster ##10696--><!--class RolePlayer--><a target="_top" xlink:actuate="onRequest" xlink:href="../RolePlayer.html" xlink:show="new" xlink:title="Type of entity that plays a specific role in a specific context." xlink:type="simple"><rect fill="#FEFEEE" filter="url(#f1njkkqlufx8cl)" height="23.9688" id="RolePlayer" style="stroke: #A80036; stroke-width: 1.5;" width="71" x="1031.75" y="40"/><rect fill="#FEFEEE" height="23.9688" style="stroke: #A80036; stroke-width: 1.5;" width="71" x="1031.75" y="40"/><text fill="#000000" font-family="sans-serif" font-size="12" lengthAdjust="spacingAndGlyphs" textLength="65" x="1034.75" y="56.1387">RolePlayer</text></a><!--class System--><a target="_top" xlink:actuate="onRequest" xlink:href="../System.html" xlink:show="new" xlink:title="Set of integrated applications that provides centralised services such as clearing, netting, reconciliation, trading and/or settlement." xlink:type="simple"><rect fill="#FEFEEE" filter="url(#f1njkkqlufx8cl)" height="57.5781" id="System" style="stroke: #A80036; stroke-width: 1.5;" width="254" x="849" y="126"/><rect fill="#FEFEEE" height="23.9688" style="stroke: #A80036; stroke-width: 1.5;" width="254" x="849" y="126"/><text fill="#000000" font-family="sans-serif" font-size="12" lengthAdjust="spacingAndGlyphs" textLength="45" x="953.5" y="142.1387">System</text><line style="stroke: #A80036; stroke-width: 1.5;" x1="850" x2="1102" y1="149.9688" y2="149.9688"/><ellipse cx="860" cy="161.8711" fill="#84BE84" rx="3" ry="3" style="stroke: #038048; stroke-width: 1.0;"/><text fill="#000000" font-family="sans-serif" font-size="11" lengthAdjust="spacingAndGlyphs" textLength="97" x="869" y="164.1792">SystemDateTime</text><text fill="#000000" font-family="sans-serif" font-size="11" font-style="italic" lengthAdjust="spacingAndGlyphs" textLength="81" x="970" y="164.1792">(ISODateTime)</text><ellipse cx="860" cy="174.6758" fill="#84BE84" rx="3" ry="3" style="stroke: #038048; stroke-width: 1.0;"/><text fill="#000000" font-family="sans-serif" font-size="11" lengthAdjust="spacingAndGlyphs" textLength="98" x="869" y="176.9839">SystemLanguage</text><text fill="#000000" font-family="sans-serif" font-size="11" font-style="italic" lengthAdjust="spacingAndGlyphs" textLength="126" x="971" y="176.9839">(ISO2ALanguageCode)</text></a><!--class PointOfInteraction--><a target="_top" xlink:actuate="onRequest" xlink:href="../PointOfInteraction.html" xlink:show="new" xlink:title="Point of interaction (POI) is the entry point to a card payment system. It could be a physical or logical card payment terminal containing software and hardware components, it could be a payment system including a set of card payment terminals linked to a local or remote server, or it could be just an interface to make payments as telephone or Internet browser." xlink:type="simple"><rect fill="#FEFECE" filter="url(#f1njkkqlufx8cl)" height="185.625" id="PointOfInteraction" style="stroke: #A80036; stroke-width: 1.5;" width="442" x="661.5" y="262"/><rect fill="#FEFECE" height="23.9688" style="stroke: #A80036; stroke-width: 1.5;" width="442" x="661.5" y="262"/><text fill="#000000" font-family="sans-serif" font-size="12" lengthAdjust="spacingAndGlyphs" textLength="113" x="826" y="278.1387">PointOfInteraction</text><line style="stroke: #A80036; stroke-width: 1.5;" x1="662.5" x2="1102.5" y1="285.9688" y2="285.9688"/><ellipse cx="672.5" cy="297.8711" fill="#84BE84" rx="3" ry="3" style="stroke: #038048; stroke-width: 1.0;"/><text fill="#000000" font-family="sans-serif" font-size="11" lengthAdjust="spacingAndGlyphs" textLength="138" x="681.5" y="300.1792">CardReadingCapabilities</text><text fill="#000000" font-family="sans-serif" font-size="11" font-style="italic" lengthAdjust="spacingAndGlyphs" textLength="136" x="823.5" y="300.1792">(CardDataReadingCode)</text><ellipse cx="672.5" cy="310.6758" fill="#84BE84" rx="3" ry="3" style="stroke: #038048; stroke-width: 1.0;"/><text fill="#000000" font-family="sans-serif" font-size="11" lengthAdjust="spacingAndGlyphs" textLength="192" x="681.5" y="312.9839">CardholderVerificationCapabilities</text><text fill="#000000" font-family="sans-serif" font-size="11" font-style="italic" lengthAdjust="spacingAndGlyphs" textLength="220" x="877.5" y="312.9839">(CardholderVerificationCapabilityCode)</text><ellipse cx="672.5" cy="323.4805" fill="#84BE84" rx="3" ry="3" style="stroke: #038048; stroke-width: 1.0;"/><text fill="#000000" font-family="sans-serif" font-size="11" lengthAdjust="spacingAndGlyphs" textLength="105" x="681.5" y="325.7886">OnLineCapabilities</text><text fill="#000000" font-family="sans-serif" font-size="11" font-style="italic" lengthAdjust="spacingAndGlyphs" textLength="132" x="790.5" y="325.7886">(OnLineCapabilityCode)</text><ellipse cx="672.5" cy="336.2852" fill="#84BE84" rx="3" ry="3" style="stroke: #038048; stroke-width: 1.0;"/><text fill="#000000" font-family="sans-serif" font-size="11" lengthAdjust="spacingAndGlyphs" textLength="107" x="681.5" y="338.5933">DisplayCapabilities</text><text fill="#000000" font-family="sans-serif" font-size="11" font-style="italic" lengthAdjust="spacingAndGlyphs" textLength="113" x="792.5" y="338.5933">(UserInterfaceCode)</text><ellipse cx="672.5" cy="349.0898" fill="#84BE84" rx="3" ry="3" style="stroke: #038048; stroke-width: 1.0;"/><text fill="#000000" font-family="sans-serif" font-size="11" lengthAdjust="spacingAndGlyphs" textLength="79" x="681.5" y="351.3979">PrintLineWidth</text><text fill="#000000" font-family="sans-serif" font-size="11" font-style="italic" lengthAdjust="spacingAndGlyphs" textLength="110" x="764.5" y="351.3979">(Max3NumericText)</text><ellipse cx="672.5" cy="361.8945" fill="#84BE84" rx="3" ry="3" style="stroke: #038048; stroke-width: 1.0;"/><text fill="#000000" font-family="sans-serif" font-size="11" lengthAdjust="spacingAndGlyphs" textLength="65" x="681.5" y="364.2026">Component</text><text fill="#000000" font-family="sans-serif" font-size="11" font-style="italic" lengthAdjust="spacingAndGlyphs" textLength="149" x="750.5" y="364.2026">(POIComponentTypeCode)</text><ellipse cx="672.5" cy="374.6992" fill="#84BE84" rx="3" ry="3" style="stroke: #038048; stroke-width: 1.0;"/><text fill="#000000" font-family="sans-serif" font-size="11" lengthAdjust="spacingAndGlyphs" textLength="137" x="681.5" y="377.0073">ComponentIdentification</text><text fill="#000000" font-family="sans-serif" font-size="11" font-style="italic" lengthAdjust="spacingAndGlyphs" textLength="70" x="822.5" y="377.0073">(Max35Text)</text><ellipse cx="672.5" cy="387.5039" fill="#84BE84" rx="3" ry="3" style="stroke: #038048; stroke-width: 1.0;"/><text fill="#000000" font-family="sans-serif" font-size="11" lengthAdjust="spacingAndGlyphs" textLength="85" x="681.5" y="389.812">GroupIdentifier</text><text fill="#000000" font-family="sans-serif" font-size="11" font-style="italic" lengthAdjust="spacingAndGlyphs" textLength="70" x="770.5" y="389.812">(Max35Text)</text><ellipse cx="672.5" cy="400.3086" fill="#84BE84" rx="3" ry="3" style="stroke: #038048; stroke-width: 1.0;"/><text fill="#000000" font-family="sans-serif" font-size="11" lengthAdjust="spacingAndGlyphs" textLength="53" x="681.5" y="402.6167">LineWidth</text><text fill="#000000" font-family="sans-serif" font-size="11" font-style="italic" lengthAdjust="spacingAndGlyphs" textLength="110" x="738.5" y="402.6167">(Max3NumericText)</text><ellipse cx="672.5" cy="413.1133" fill="#84BE84" rx="3" ry="3" style="stroke: #038048; stroke-width: 1.0;"/><text fill="#000000" font-family="sans-serif" font-size="11" lengthAdjust="spacingAndGlyphs" textLength="88" x="681.5" y="415.4214">NumberOfLines</text><text fill="#000000" font-family="sans-serif" font-size="11" font-style="italic" lengthAdjust="spacingAndGlyphs" textLength="110" x="773.5" y="415.4214">(Max2NumericText)</text><ellipse cx="672.5" cy="425.918" fill="#84BE84" rx="3" ry="3" style="stroke: #038048; stroke-width: 1.0;"/><text fill="#000000" font-family="sans-serif" font-size="11" lengthAdjust="spacingAndGlyphs" textLength="49" x="681.5" y="428.2261">ErrorLog</text><text fill="#000000" font-family="sans-serif" font-size="11" font-style="italic" lengthAdjust="spacingAndGlyphs" textLength="77" x="734.5" y="428.2261">(Max140Text)</text><ellipse cx="672.5" cy="438.7227" fill="#84BE84" rx="3" ry="3" style="stroke: #038048; stroke-width: 1.0;"/><text fill="#000000" font-family="sans-serif" font-size="11" lengthAdjust="spacingAndGlyphs" textLength="153" x="681.5" y="441.0308">ComponentVersionNumber</text><text fill="#000000" font-family="sans-serif" font-size="11" font-style="italic" lengthAdjust="spacingAndGlyphs" textLength="70" x="838.5" y="441.0308">(Max16Text)</text></a><!--class Role--><a target="_top" xlink:actuate="onRequest" xlink:href="../Role.html" xlink:show="new" xlink:title="Role of a party in an activity." xlink:type="simple"><rect fill="#EEEEEE" filter="url(#f1njkkqlufx8cl)" height="23.9688" id="Role" style="stroke: #A80036; stroke-width: 1.5;" width="33" x="2033.75" y="530"/><rect fill="#EEEEEE" height="23.9688" style="stroke: #A80036; stroke-width: 1.5;" width="33" x="2033.75" y="530"/><text fill="#000000" font-family="sans-serif" font-size="12" lengthAdjust="spacingAndGlyphs" textLength="27" x="2036.75" y="546.1387">Role</text></a><!--class DateTimePeriod--><a target="_top" xlink:actuate="onRequest" xlink:href="../DateTimePeriod.html" xlink:show="new" xlink:title="Time span defined by a start date and time, and an end date and time." xlink:type="simple"><rect fill="#EEEEEE" filter="url(#f1njkkqlufx8cl)" height="23.9688" id="DateTimePeriod" style="stroke: #A80036; stroke-width: 1.5;" width="105" x="2015.75" y="343"/><rect fill="#EEEEEE" height="23.9688" style="stroke: #A80036; stroke-width: 1.5;" width="105" x="2015.75" y="343"/><text fill="#000000" font-family="sans-serif" font-size="12" lengthAdjust="spacingAndGlyphs" textLength="99" x="2018.75" y="359.1387">DateTimePeriod</text></a><!--class SystemIdentification--><a target="_top" xlink:actuate="onRequest" xlink:href="../SystemIdentification.html" xlink:show="new" xlink:title="Parameters that identify a system." xlink:type="simple"><rect fill="#EEEEEE" filter="url(#f1njkkqlufx8cl)" height="23.9688" id="SystemIdentification" style="stroke: #A80036; stroke-width: 1.5;" width="132" x="1608" y="634"/><rect fill="#EEEEEE" height="23.9688" style="stroke: #A80036; stroke-width: 1.5;" width="132" x="1608" y="634"/><text fill="#000000" font-family="sans-serif" font-size="12" lengthAdjust="spacingAndGlyphs" textLength="126" x="1611" y="650.1387">SystemIdentification</text></a><!--class Location--><a target="_top" xlink:actuate="onRequest" xlink:href="../Location.html" xlink:show="new" xlink:title="Specifies a place." xlink:type="simple"><rect fill="#EEEEEE" filter="url(#f1njkkqlufx8cl)" height="23.9688" id="Location" style="stroke: #A80036; stroke-width: 1.5;" width="59" x="1680.75" y="530"/><rect fill="#EEEEEE" height="23.9688" style="stroke: #A80036; stroke-width: 1.5;" width="59" x="1680.75" y="530"/><text fill="#000000" font-family="sans-serif" font-size="12" lengthAdjust="spacingAndGlyphs" textLength="53" x="1683.75" y="546.1387">Location</text></a><!--class Reconciliation--><a target="_top" xlink:actuate="onRequest" xlink:href="../Reconciliation.html" xlink:show="new" xlink:title="Process of matching different documents submitted by parties to a trade." xlink:type="simple"><rect fill="#EEEEEE" filter="url(#f1njkkqlufx8cl)" height="23.9688" id="Reconciliation" style="stroke: #A80036; stroke-width: 1.5;" width="93" x="1405.75" y="343"/><rect fill="#EEEEEE" height="23.9688" style="stroke: #A80036; stroke-width: 1.5;" width="93" x="1405.75" y="343"/><text fill="#000000" font-family="sans-serif" font-size="12" lengthAdjust="spacingAndGlyphs" textLength="87" x="1408.75" y="359.1387">Reconciliation</text></a><!--class SystemAvailability--><a target="_top" xlink:actuate="onRequest" xlink:href="../SystemAvailability.html" xlink:show="new" xlink:title="information about the periods of activity and non-activity of a system." xlink:type="simple"><rect fill="#EEEEEE" filter="url(#f1njkkqlufx8cl)" height="23.9688" id="SystemAvailability" style="stroke: #A80036; stroke-width: 1.5;" width="115" x="1458.75" y="1098"/><rect fill="#EEEEEE" height="23.9688" style="stroke: #A80036; stroke-width: 1.5;" width="115" x="1458.75" y="1098"/><text fill="#000000" font-family="sans-serif" font-size="12" lengthAdjust="spacingAndGlyphs" textLength="109" x="1461.75" y="1114.1387">SystemAvailability</text></a><!--class SystemEventInformation--><a target="_top" xlink:actuate="onRequest" xlink:href="../SystemEventInformation.html" xlink:show="new" xlink:title="Detailed information about an event occurring on a system, whether planned, for example, cut-off time for a specific type of eligible transfer, or unplanned, for example, an unsolicited failure, as stipulated in the specifications of the system." xlink:type="simple"><rect fill="#EEEEEE" filter="url(#f1njkkqlufx8cl)" height="23.9688" id="SystemEventInformation" style="stroke: #A80036; stroke-width: 1.5;" width="157" x="1269.75" y="1012"/><rect fill="#EEEEEE" height="23.9688" style="stroke: #A80036; stroke-width: 1.5;" width="157" x="1269.75" y="1012"/><text fill="#000000" font-family="sans-serif" font-size="12" lengthAdjust="spacingAndGlyphs" textLength="151" x="1272.75" y="1028.1387">SystemEventInformation</text></a><!--class SystemPartyRole--><a target="_top" xlink:actuate="onRequest" xlink:href="../SystemPartyRole.html" xlink:show="new" xlink:title="Role played by a party in a system." xlink:type="simple"><rect fill="#EEEEEE" filter="url(#f1njkkqlufx8cl)" height="23.9688" id="SystemPartyRole" style="stroke: #A80036; stroke-width: 1.5;" width="110" x="1293" y="926"/><rect fill="#EEEEEE" height="23.9688" style="stroke: #A80036; stroke-width: 1.5;" width="110" x="1293" y="926"/><text fill="#000000" font-family="sans-serif" font-size="12" lengthAdjust="spacingAndGlyphs" textLength="104" x="1296" y="942.1387">SystemPartyRole</text></a><!--class SystemStatus--><a target="_top" xlink:actuate="onRequest" xlink:href="../SystemStatus.html" xlink:show="new" xlink:title="Status of a system and the period of time during which the status is valid." xlink:type="simple"><rect fill="#EEEEEE" filter="url(#f1njkkqlufx8cl)" height="23.9688" id="SystemStatus" style="stroke: #A80036; stroke-width: 1.5;" width="92" x="1309" y="840"/><rect fill="#EEEEEE" height="23.9688" style="stroke: #A80036; stroke-width: 1.5;" width="92" x="1309" y="840"/><text fill="#000000" font-family="sans-serif" font-size="12" lengthAdjust="spacingAndGlyphs" textLength="86" x="1312" y="856.1387">SystemStatus</text></a><!--class SystemBusinessInformation--><a target="_top" xlink:actuate="onRequest" xlink:href="../SystemBusinessInformation.html" xlink:show="new" xlink:title="Details about business information related to a system." xlink:type="simple"><rect fill="#EEEEEE" filter="url(#f1njkkqlufx8cl)" height="23.9688" id="SystemBusinessInformation" style="stroke: #A80036; stroke-width: 1.5;" width="178" x="1266.5" y="738"/><rect fill="#EEEEEE" height="23.9688" style="stroke: #A80036; stroke-width: 1.5;" width="178" x="1266.5" y="738"/><text fill="#000000" font-family="sans-serif" font-size="12" lengthAdjust="spacingAndGlyphs" textLength="172" x="1269.5" y="754.1387">SystemBusinessInformation</text></a><!--class Negotiation--><a target="_top" xlink:actuate="onRequest" xlink:href="../Negotiation.html" xlink:show="new" xlink:title="Decision making on the transfer of a financial instrument." xlink:type="simple"><rect fill="#EEEEEE" filter="url(#f1njkkqlufx8cl)" height="23.9688" id="Negotiation" style="stroke: #A80036; stroke-width: 1.5;" width="79" x="1265.75" y="634"/><rect fill="#EEEEEE" height="23.9688" style="stroke: #A80036; stroke-width: 1.5;" width="79" x="1265.75" y="634"/><text fill="#000000" font-family="sans-serif" font-size="12" lengthAdjust="spacingAndGlyphs" textLength="73" x="1268.75" y="650.1387">Negotiation</text></a><!--class Account--><a target="_top" xlink:actuate="onRequest" xlink:href="../Account.html" xlink:show="new" xlink:title="Record of transactions in specific types of assets, maintained by a servicing party on behalf of one or more owning parties. Business relationship between an account servicer and one or more account owners." xlink:type="simple"><rect fill="#EEEEEE" filter="url(#f1njkkqlufx8cl)" height="23.9688" id="Account" style="stroke: #A80036; stroke-width: 1.5;" width="57" x="1334.75" y="530"/><rect fill="#EEEEEE" height="23.9688" style="stroke: #A80036; stroke-width: 1.5;" width="57" x="1334.75" y="530"/><text fill="#000000" font-family="sans-serif" font-size="12" lengthAdjust="spacingAndGlyphs" textLength="51" x="1337.75" y="546.1387">Account</text></a><!--class Trade--><a target="_top" xlink:actuate="onRequest" xlink:href="../Trade.html" xlink:show="new" xlink:title="Result of an order between at least two parties. A trade relates to the delivery of goods and services, cash or securities." xlink:type="simple"><rect fill="#EEEEEE" filter="url(#f1njkkqlufx8cl)" height="23.9688" id="Trade" style="stroke: #A80036; stroke-width: 1.5;" width="42" x="1479.5" y="738"/><rect fill="#EEEEEE" height="23.9688" style="stroke: #A80036; stroke-width: 1.5;" width="42" x="1479.5" y="738"/><text fill="#000000" font-family="sans-serif" font-size="12" lengthAdjust="spacingAndGlyphs" textLength="36" x="1482.5" y="754.1387">Trade</text></a><!--class Assessment--><a target="_top" xlink:actuate="onRequest" xlink:href="../Assessment.html" xlink:show="new" xlink:title="Assessment for the components of a system." xlink:type="simple"><rect fill="#EEEEEE" filter="url(#f1njkkqlufx8cl)" height="23.9688" id="Assessment" style="stroke: #A80036; stroke-width: 1.5;" width="82" x="1417" y="634"/><rect fill="#EEEEEE" height="23.9688" style="stroke: #A80036; stroke-width: 1.5;" width="82" x="1417" y="634"/><text fill="#000000" font-family="sans-serif" font-size="12" lengthAdjust="spacingAndGlyphs" textLength="76" x="1420" y="650.1387">Assessment</text></a><!--class Position--><a target="_top" xlink:actuate="onRequest" xlink:href="../Position.html" xlink:show="new" xlink:title="Specifies the status of trades and their value inside a system." xlink:type="simple"><rect fill="#EEEEEE" filter="url(#f1njkkqlufx8cl)" height="23.9688" id="Position" style="stroke: #A80036; stroke-width: 1.5;" width="56" x="1589.5" y="530"/><rect fill="#EEEEEE" height="23.9688" style="stroke: #A80036; stroke-width: 1.5;" width="56" x="1589.5" y="530"/><text fill="#000000" font-family="sans-serif" font-size="12" lengthAdjust="spacingAndGlyphs" textLength="50" x="1592.5" y="546.1387">Position</text></a><!--class CardPaymentAcquiring--><a target="_top" xlink:actuate="onRequest" xlink:href="../CardPaymentAcquiring.html" xlink:show="new" xlink:title="Payment processes initiated by a payment card." xlink:type="simple"><rect fill="#EEEEEE" filter="url(#f1njkkqlufx8cl)" height="23.9688" id="CardPaymentAcquiring" style="stroke: #A80036; stroke-width: 1.5;" width="147" x="972.75" y="530"/><rect fill="#EEEEEE" height="23.9688" style="stroke: #A80036; stroke-width: 1.5;" width="147" x="972.75" y="530"/><text fill="#000000" font-family="sans-serif" font-size="12" lengthAdjust="spacingAndGlyphs" textLength="141" x="975.75" y="546.1387">CardPaymentAcquiring</text></a><!--class TerminalManagementSystem--><a target="_top" xlink:actuate="onRequest" xlink:href="../TerminalManagementSystem.html" xlink:show="new" xlink:title="Terminal management system (TMS), has in charge the maintenance of the terminal, including monitoring, software update, configuration parameters management." xlink:type="simple"><rect fill="#EEEEEE" filter="url(#f1njkkqlufx8cl)" height="23.9688" id="TerminalManagementSystem" style="stroke: #A80036; stroke-width: 1.5;" width="186" x="934.5" y="634"/><rect fill="#EEEEEE" height="23.9688" style="stroke: #A80036; stroke-width: 1.5;" width="186" x="934.5" y="634"/><text fill="#000000" font-family="sans-serif" font-size="12" lengthAdjust="spacingAndGlyphs" textLength="180" x="937.5" y="650.1387">TerminalManagementSystem</text></a><!--link RolePlayer to System--><path d="M1043.51,79.07 C1030.56,93.44 1014.48,111.29 1001.258,125.97 " fill="none" id="RolePlayer-System" style="stroke: #A80036; stroke-width: 1.0;"/><polygon fill="none" points="1038.33,74.37,1056.91,64.19,1048.73,83.74,1038.33,74.37" style="stroke: #A80036; stroke-width: 1.0;"/><!--link System to PointOfInteraction--><path d="M953.91,202.529 C945.492,220.261 935.574,241.152 925.838,261.66 " fill="none" id="System-PointOfInteraction" style="stroke: #A80036; stroke-width: 1.0;"/><polygon fill="none" points="947.631,199.434,962.532,184.369,960.278,205.438,947.631,199.434" style="stroke: #A80036; stroke-width: 1.0;"/><!--link DateTimePeriod to Role--><!--link Location to SystemIdentification--><!--link Reconciliation to Location--><!--link SystemAvailability to Reconciliation--><!--link SystemEventInformation to SystemAvailability--><!--link SystemPartyRole to SystemEventInformation--><!--link SystemStatus to SystemPartyRole--><!--link SystemBusinessInformation to SystemStatus--><!--link Negotiation to SystemBusinessInformation--><!--link Account to Negotiation--><!--link Trade to Account--><!--link Assessment to Trade--><!--link Position to Assessment--><!--link TerminalManagementSystem to CardPaymentAcquiring--><!--link CardPaymentAcquiring to TerminalManagementSystem--><path d="M1023.6,554.041 C1011.55,561.305 997.799,572.055 991,586 C983.375,601.639 995.937,618.49 1008.26,630.163 " fill="none" id="CardPaymentAcquiring-TerminalManagementSystem" style="stroke: #A80036; stroke-width: 1.0;"/><polygon fill="#A80036" points="1012.06,633.612,1008.1016,624.5936,1008.3642,630.2444,1002.7134,630.5069,1012.06,633.612" style="stroke: #A80036; stroke-width: 1.0;"/><text fill="#000000" font-family="sans-serif" font-size="13" lengthAdjust="spacingAndGlyphs" textLength="71" x="992" y="599.0669">TMSTrigger</text><text fill="#000000" font-family="sans-serif" font-size="13" lengthAdjust="spacingAndGlyphs" textLength="7" x="997.7041" y="623.047">*</text><!--link RolePlayer to Role--><path d="M1102.34,54.05 C1283.93,59.59 2105.09,86.78 2141,126 C2180.92,169.606 2331.97,78.64 2138,472 C2124.03,500.329 2092.27,520.519 2070.98,531.473 " fill="none" id="RolePlayer-Role" style="stroke: #A80036; stroke-width: 1.0;"/><polygon fill="#A80036" points="2066.34,533.8,2076.1781,533.339,2070.809,531.5576,2072.5903,526.1886,2066.34,533.8" style="stroke: #A80036; stroke-width: 1.0;"/><text fill="#000000" font-family="sans-serif" font-size="13" lengthAdjust="spacingAndGlyphs" textLength="27" x="2235" y="227.0669">Role</text><text fill="#000000" font-family="sans-serif" font-size="13" lengthAdjust="spacingAndGlyphs" textLength="23" x="2074.7894" y="524.7776">1..*</text><!--link RolePlayer to DateTimePeriod--><path d="M1102.31,52.8 C1266.37,52.66 1951.66,61.36 2082,214 C2112.29,249.472 2089.6,309.92 2076.12,338.348 " fill="none" id="RolePlayer-DateTimePeriod" style="stroke: #A80036; stroke-width: 1.0;"/><polygon fill="#A80036" points="2073.88,342.949,2081.4102,336.601,2076.0645,338.4515,2074.2141,333.1058,2073.88,342.949" style="stroke: #A80036; stroke-width: 1.0;"/><text fill="#000000" font-family="sans-serif" font-size="13" lengthAdjust="spacingAndGlyphs" textLength="86" x="2045" y="159.0669">ValidityPeriod</text><text fill="#000000" font-family="sans-serif" font-size="13" lengthAdjust="spacingAndGlyphs" textLength="24" x="2079.9403" y="331.9797">0..1</text><!--link System to SystemIdentification--><path d="M1103.35,162.722 C1324.13,175.756 1758.6,208.026 1801,262 C1858.66,335.394 1843.35,388.829 1801,472 C1798.26,477.387 1793.6,475.144 1790,480 C1762.54,517.034 1782.4,540.208 1756,578 C1740.47,600.228 1715.61,619.084 1697.33,631.075 " fill="none" id="System-SystemIdentification" style="stroke: #A80036; stroke-width: 1.0;"/><polygon fill="#A80036" points="1692.84,633.973,1702.5705,632.4505,1697.0402,631.2604,1698.2303,625.7302,1692.84,633.973" style="stroke: #A80036; stroke-width: 1.0;"/><text fill="#000000" font-family="sans-serif" font-size="13" lengthAdjust="spacingAndGlyphs" textLength="130" x="1791" y="493.0669">SystemIdentification</text><text fill="#000000" font-family="sans-serif" font-size="13" lengthAdjust="spacingAndGlyphs" textLength="8" x="1688.5975" y="623.0119">1</text><!--link System to Location--><path d="M1103.26,165.553 C1299.9,181.651 1658.92,216.887 1696,262 C1760.64,340.646 1728.69,477.901 1715.09,524.774 " fill="none" id="System-Location" style="stroke: #A80036; stroke-width: 1.0;"/><polygon fill="#A80036" points="1713.6,529.782,1719.9949,522.2916,1715.0223,524.9886,1712.3254,520.016,1713.6,529.782" style="stroke: #A80036; stroke-width: 1.0;"/><text fill="#000000" font-family="sans-serif" font-size="13" lengthAdjust="spacingAndGlyphs" textLength="54" x="1737" y="359.0669">Location</text><text fill="#000000" font-family="sans-serif" font-size="13" lengthAdjust="spacingAndGlyphs" textLength="8" x="1704.0534" y="519.0132">1</text><!--link System to Reconciliation--><path d="M1103.42,166.392 C1192.15,175.463 1301.39,190.847 1341,214 C1392.64,244.188 1429.47,308.339 1444.49,338.154 " fill="none" id="System-Reconciliation" style="stroke: #A80036; stroke-width: 1.0;"/><polygon fill="#A80036" points="1446.88,342.97,1446.4705,333.1297,1444.6611,338.4893,1439.3014,336.6799,1446.88,342.97" style="stroke: #A80036; stroke-width: 1.0;"/><text fill="#000000" font-family="sans-serif" font-size="13" lengthAdjust="spacingAndGlyphs" textLength="87" x="1366" y="227.0669">Reconciliation</text><text fill="#000000" font-family="sans-serif" font-size="13" lengthAdjust="spacingAndGlyphs" textLength="8" x="1434.3153" y="332.0079">1</text><!--link System to SystemAvailability--><path d="M848.691,155.688 C585.527,158.485 6,183.951 6,354 C6,354 6,354 6,1025 C6,1098.7018 1167.94,1107.7375 1453.29,1108.8452 " fill="none" id="System-SystemAvailability" style="stroke: #A80036; stroke-width: 1.0;"/><polygon fill="#A80036" points="1458.65,1108.8655,1449.673,1104.8141,1453.6501,1108.8369,1449.6273,1112.814,1458.65,1108.8655" style="stroke: #A80036; stroke-width: 1.0;"/><text fill="#000000" font-family="sans-serif" font-size="13" lengthAdjust="spacingAndGlyphs" textLength="67" x="7" y="754.0669">Availability</text><text fill="#000000" font-family="sans-serif" font-size="13" lengthAdjust="spacingAndGlyphs" textLength="8" x="1442.8031" y="1103.8876">1</text><!--link System to SystemEventInformation--><path d="M848.837,160.617 C658.789,169.65 311.96,195.017 209,262 C163.58,291.549 129,299.814 129,354 C129,354 129,354 129,939 C129,996.011 988.819,1016.51 1264.22,1021.613 " fill="none" id="System-SystemEventInformation" style="stroke: #A80036; stroke-width: 1.0;"/><polygon fill="#A80036" points="1269.43,1021.709,1260.5118,1017.5298,1264.431,1021.609,1260.3518,1025.5282,1269.43,1021.709" style="stroke: #A80036; stroke-width: 1.0;"/><text fill="#000000" font-family="sans-serif" font-size="13" lengthAdjust="spacingAndGlyphs" textLength="36" x="130" y="703.0669">Event</text><text fill="#000000" font-family="sans-serif" font-size="13" lengthAdjust="spacingAndGlyphs" textLength="8" x="1253.7506" y="1016.9225">1</text><!--link System to SystemPartyRole--><path d="M848.644,164.36 C678.176,177.481 386.724,207.248 296,262 C249.857,289.848 217,300.105 217,354 C217,354 217,354 217,853 C217,907.177 1053.23,930.291 1287.6,935.705 " fill="none" id="System-SystemPartyRole" style="stroke: #A80036; stroke-width: 1.0;"/><polygon fill="#A80036" points="1292.68,935.822,1283.7858,931.5919,1287.6817,935.6934,1283.5801,939.5893,1292.68,935.822" style="stroke: #A80036; stroke-width: 1.0;"/><text fill="#000000" font-family="sans-serif" font-size="13" lengthAdjust="spacingAndGlyphs" textLength="60" x="218" y="650.0669">PartyRole</text><text fill="#000000" font-family="sans-serif" font-size="13" lengthAdjust="spacingAndGlyphs" textLength="7" x="1278.1372" y="930.73">*</text><!--link System to SystemStatus--><path d="M1103,155.737 C1251.07,157.781 1502.38,168.57 1713,214 C1774.43,227.25 1801.36,217.773 1846,262 C1939.9,355.025 1949,408.82 1949,541 C1949,541 1949,541 1949,751 C1949,805.84 1550.19,837.949 1406.13,847.759 " fill="none" id="System-SystemStatus" style="stroke: #A80036; stroke-width: 1.0;"/><polygon fill="#A80036" points="1401.12,848.098,1410.3634,851.4978,1406.1092,847.7694,1409.8377,843.5151,1401.12,848.098" style="stroke: #A80036; stroke-width: 1.0;"/><text fill="#000000" font-family="sans-serif" font-size="13" lengthAdjust="spacingAndGlyphs" textLength="42" x="1950" y="599.0669">Status</text><text fill="#000000" font-family="sans-serif" font-size="13" lengthAdjust="spacingAndGlyphs" textLength="8" x="1409.1079" y="842.2014">1</text><!--link System to SystemBusinessInformation--><path d="M848.913,161.9 C739.775,168.954 592.324,183.828 542,214 C381.814,310.039 241.109,414.837 332,578 C385.419,673.895 437.209,675.315 542,708 C609.032,728.908 1061.96,742.063 1261.23,746.902 " fill="none" id="System-SystemBusinessInformation" style="stroke: #A80036; stroke-width: 1.0;"/><polygon fill="#A80036" points="1266.47,747.029,1257.5638,742.8243,1261.4713,746.9147,1257.3809,750.8222,1266.47,747.029" style="stroke: #A80036; stroke-width: 1.0;"/><text fill="#000000" font-family="sans-serif" font-size="13" lengthAdjust="spacingAndGlyphs" textLength="190" x="333" y="546.0669">SystemGeneratedInformation</text><text fill="#000000" font-family="sans-serif" font-size="13" lengthAdjust="spacingAndGlyphs" textLength="8" x="1250.5647" y="742.2595">1</text><!--link System to DateTimePeriod--><path d="M1103.05,159.448 C1340.15,166.54 1832.67,184.607 1905,214 C1972.53,241.441 2031.93,308.549 2056.27,338.788 " fill="none" id="System-DateTimePeriod" style="stroke: #A80036; stroke-width: 1.0;"/><polygon fill="#A80036" points="2059.61,342.973,2057.1346,333.4403,2056.4961,339.061,2050.8754,338.4225,2059.61,342.973" style="stroke: #A80036; stroke-width: 1.0;"/><text fill="#000000" font-family="sans-serif" font-size="13" lengthAdjust="spacingAndGlyphs" textLength="134" x="1938" y="227.0669">VersionValidityPeriod</text><text fill="#000000" font-family="sans-serif" font-size="13" lengthAdjust="spacingAndGlyphs" textLength="8" x="2045.9212" y="332.0119">1</text><!--link System to Negotiation--><path d="M1036.45,184.118 C1067.03,201.816 1101.33,227.821 1119,262 C1131.04,285.3 1111.38,475.008 1124,498 C1127.08,503.619 1131.23,501.721 1136,506 C1178.28,543.916 1173.04,569.305 1218,604 C1233.09,615.648 1252.03,625.062 1268.38,631.918 " fill="none" id="System-Negotiation" style="stroke: #A80036; stroke-width: 1.0;"/><polygon fill="#A80036" points="1273.37,633.963,1266.5459,626.8615,1268.7399,632.0755,1263.5259,634.2696,1273.37,633.963" style="stroke: #A80036; stroke-width: 1.0;"/><text fill="#000000" font-family="sans-serif" font-size="13" lengthAdjust="spacingAndGlyphs" textLength="74" x="1125" y="493.0669">Negotiation</text><text fill="#000000" font-family="sans-serif" font-size="13" lengthAdjust="spacingAndGlyphs" textLength="24" x="1233.5035" y="623.2542">0..1</text><!--link System to Account--><path d="M1103.02,170.007 C1164.78,179.25 1230.47,193.499 1253,214 C1341.8,294.796 1291.23,359.45 1333,472 C1339.88,490.541 1349.12,511.286 1355.51,525.143 " fill="none" id="System-Account" style="stroke: #A80036; stroke-width: 1.0;"/><polygon fill="#A80036" points="1357.73,529.919,1357.5598,520.0716,1355.6207,525.3857,1350.3066,523.4466,1357.73,529.919" style="stroke: #A80036; stroke-width: 1.0;"/><text fill="#000000" font-family="sans-serif" font-size="13" lengthAdjust="spacingAndGlyphs" textLength="52" x="1334" y="359.0669">Account</text><text fill="#000000" font-family="sans-serif" font-size="13" lengthAdjust="spacingAndGlyphs" textLength="8" x="1345.1138" y="518.9394">1</text><!--link System to Trade--><path d="M848.864,165.232 C729.123,181.677 568,227.337 568,354 C568,354 568,354 568,647 C568,746.626 1362.07,719.673 1460,738 C1464.68,738.876 1469.61,740.032 1474.35,741.267 " fill="none" id="System-Trade" style="stroke: #A80036; stroke-width: 1.0;"/><polygon fill="#A80036" points="1479.39,742.627,1471.7398,736.4242,1474.562,741.3268,1469.6595,744.149,1479.39,742.627" style="stroke: #A80036; stroke-width: 1.0;"/><text fill="#000000" font-family="sans-serif" font-size="13" lengthAdjust="spacingAndGlyphs" textLength="36" x="569" y="546.0669">Trade</text><text fill="#000000" font-family="sans-serif" font-size="13" lengthAdjust="spacingAndGlyphs" textLength="8" x="1463.3729" y="734.4501">1</text><!--link System to Assessment--><path d="M1064.82,184.098 C1082.51,192.083 1100.18,201.969 1115,214 C1266.39,336.903 1159.29,487.951 1316,604 C1343.97,624.715 1382.17,634.989 1411.91,640.07 " fill="none" id="System-Assessment" style="stroke: #A80036; stroke-width: 1.0;"/><polygon fill="#A80036" points="1416.98,640.901,1408.7514,635.489,1412.0467,640.0869,1407.4488,643.3822,1416.98,640.901" style="stroke: #A80036; stroke-width: 1.0;"/><text fill="#000000" font-family="sans-serif" font-size="13" lengthAdjust="spacingAndGlyphs" textLength="79" x="1236" y="493.0669">Assessment</text><text fill="#000000" font-family="sans-serif" font-size="13" lengthAdjust="spacingAndGlyphs" textLength="24" x="1385.0587" y="635.236">0..1</text><!--link System to Position--><path d="M1103.13,162.267 C1225.55,169.882 1401,185.415 1463,214 C1491.56,227.168 1497.56,235.829 1515,262 C1545.63,307.948 1596.39,472.253 1612.17,524.75 " fill="none" id="System-Position" style="stroke: #A80036; stroke-width: 1.0;"/><polygon fill="#A80036" points="1613.67,529.754,1614.9152,519.9842,1612.2333,524.9649,1607.2526,522.283,1613.67,529.754" style="stroke: #A80036; stroke-width: 1.0;"/><text fill="#000000" font-family="sans-serif" font-size="13" lengthAdjust="spacingAndGlyphs" textLength="93" x="1597" y="359.0669">TradesPosition</text><text fill="#000000" font-family="sans-serif" font-size="13" lengthAdjust="spacingAndGlyphs" textLength="8" x="1601.7451" y="518.976">1</text><!--link PointOfInteraction to CardPaymentAcquiring--><path d="M903.526,448.258 C911.115,466.436 921.316,484.146 935,498 C944.98,508.104 976.24,519.754 1003.053,528.377 " fill="none" id="PointOfInteraction-CardPaymentAcquiring" style="stroke: #A80036; stroke-width: 1.0;"/><polygon fill="#A80036" points="1008,529.95,1000.6357,523.4104,1003.2352,528.4346,998.211,531.0341,1008,529.95" style="stroke: #A80036; stroke-width: 1.0;"/><text fill="#000000" font-family="sans-serif" font-size="13" lengthAdjust="spacingAndGlyphs" textLength="146" x="936" y="493.0669">CardPaymentAcquiring</text><text fill="#000000" font-family="sans-serif" font-size="13" lengthAdjust="spacingAndGlyphs" textLength="24" x="965.3855" y="518.981">0..1</text><!--link PointOfInteraction to TerminalManagementSystem--><path d="M734.96,448.13 C689.618,487.867 659.814,535.004 695,578 C724.164,613.638 841.923,630.748 928.948,638.661 " fill="none" id="PointOfInteraction-TerminalManagementSystem" style="stroke: #A80036; stroke-width: 1.0;"/><polygon fill="#A80036" points="934.111,639.123,925.5034,634.3366,929.1309,638.6773,924.7903,642.3048,934.111,639.123" style="stroke: #A80036; stroke-width: 1.0;"/><text fill="#000000" font-family="sans-serif" font-size="13" lengthAdjust="spacingAndGlyphs" textLength="257" x="696" y="546.0669">ControllingTerminalManagementSystem</text><text fill="#000000" font-family="sans-serif" font-size="13" lengthAdjust="spacingAndGlyphs" textLength="24" x="902.6279" y="634.2579">0..1</text><!--link DateTimePeriod to Account--><path d="M2061.72,367.302 C2045.23,395.698 1997.5,469.78 1934,498 C1915.57,506.192 1591.08,504.099 1571,506 C1508.94,511.874 1437.45,525.41 1396.51,533.823 " fill="none" id="DateTimePeriod-Account" style="stroke: #A80036; stroke-width: 1.0;"/><polygon fill="#A80036" points="1391.43,534.873,1401.0542,536.9645,1396.3261,533.8589,1399.4317,529.1308,1391.43,534.873" style="stroke: #A80036; stroke-width: 1.0;"/><text fill="#000000" font-family="sans-serif" font-size="13" lengthAdjust="spacingAndGlyphs" textLength="52" x="1963" y="493.0669">Account</text><text fill="#000000" font-family="sans-serif" font-size="13" lengthAdjust="spacingAndGlyphs" textLength="24" x="1399.7171" y="527.7337">0..1</text><!--link DateTimePeriod to SystemAvailability--><path d="M2073.56,367.374 C2086.98,395.874 2120,472.94 2120,541 C2120,541 2120,541 2120,1025 C2120,1079.2112 1733.36,1100.4467 1578.77,1106.7706 " fill="none" id="DateTimePeriod-SystemAvailability" style="stroke: #A80036; stroke-width: 1.0;"/><polygon fill="#A80036" points="1573.37,1106.9893,1582.5228,1110.6261,1578.366,1106.7893,1582.2028,1102.6325,1573.37,1106.9893" style="stroke: #A80036; stroke-width: 1.0;"/><text fill="#000000" font-family="sans-serif" font-size="13" lengthAdjust="spacingAndGlyphs" textLength="164" x="2121" y="805.0669">RelatedSystemAvailability</text><text fill="#000000" font-family="sans-serif" font-size="13" lengthAdjust="spacingAndGlyphs" textLength="8" x="1581.583" y="1101.5205">1</text><!--link Reconciliation to Trade--><path d="M1449.43,367.134 C1443.67,389.793 1427.66,441.686 1396,472 C1394.27,473.652 1318.31,504.005 1317,506 C1299.4,532.728 1306.51,547.767 1317,578 C1317.15,578.434 1398.66,681.688 1399,682 C1402.43,685.163 1449.66,716.151 1478.3,734.857 " fill="none" id="Reconciliation-Trade" style="stroke: #A80036; stroke-width: 1.0;"/><polygon fill="#A80036" points="1482.73,737.748,1477.3736,729.4831,1478.541,735.0182,1473.0059,736.1856,1482.73,737.748" style="stroke: #A80036; stroke-width: 1.0;"/><text fill="#000000" font-family="sans-serif" font-size="13" lengthAdjust="spacingAndGlyphs" textLength="111" x="1339" y="599.0669">ReconciledTrades</text><text fill="#000000" font-family="sans-serif" font-size="13" lengthAdjust="spacingAndGlyphs" textLength="8" x="1478.1687" y="726.968">1</text><!--link Reconciliation to Account--><path d="M1446.7,367.019 C1431.59,398.434 1388.24,488.541 1370.6,525.201 " fill="none" id="Reconciliation-Account" style="stroke: #A80036; stroke-width: 1.0;"/><polygon fill="#A80036" points="1368.39,529.805,1375.8989,523.4319,1370.5595,525.3002,1368.6912,519.9607,1368.39,529.805" style="stroke: #A80036; stroke-width: 1.0;"/><text fill="#000000" font-family="sans-serif" font-size="13" lengthAdjust="spacingAndGlyphs" textLength="52" x="1393" y="493.0669">Account</text><text fill="#000000" font-family="sans-serif" font-size="13" lengthAdjust="spacingAndGlyphs" textLength="8" x="1359.4364" y="519.0438">1</text><!--link Negotiation to Trade--><path d="M1301.12,658.325 C1297.3,671.77 1293.54,694.113 1305,708 C1349.65,762.125 1391.68,722.019 1460,738 C1464.64,739.084 1469.54,740.342 1474.27,741.611 " fill="none" id="Negotiation-Trade" style="stroke: #A80036; stroke-width: 1.0;"/><polygon fill="#A80036" points="1479.32,742.985,1471.6879,736.76,1474.4958,741.6707,1469.5851,744.4787,1479.32,742.985" style="stroke: #A80036; stroke-width: 1.0;"/><text fill="#000000" font-family="sans-serif" font-size="13" lengthAdjust="spacingAndGlyphs" textLength="98" x="1306" y="703.0669">TradeExecution</text><text fill="#000000" font-family="sans-serif" font-size="13" lengthAdjust="spacingAndGlyphs" textLength="8" x="1463.6114" y="755.1972">1</text><!--link Account to Account--><path d="M1391.51,532.938 C1409.18,530.753 1426,533.773 1426,542 C1426,549.391 1412.42,552.58 1396.85,551.567 " fill="none" id="Account-Account" style="stroke: #A80036; stroke-width: 1.0;"/><polygon fill="#A80036" points="1391.51,551.062,1400.0928,555.8926,1396.4877,551.5333,1400.847,547.9282,1391.51,551.062" style="stroke: #A80036; stroke-width: 1.0;"/><text fill="#000000" font-family="sans-serif" font-size="13" lengthAdjust="spacingAndGlyphs" textLength="94" x="1432" y="546.0669">ParentAccount</text><text fill="#000000" font-family="sans-serif" font-size="13" lengthAdjust="spacingAndGlyphs" textLength="8" x="1399.7766" y="547.2939">1</text></g></svg>