<?xml version="1.0" encoding="UTF-8" standalone="no"?><svg xmlns="http://www.w3.org/2000/svg" xmlns:xlink="http://www.w3.org/1999/xlink" contentScriptType="application/ecmascript" contentStyleType="text/css" height="692px" preserveAspectRatio="none" style="width:924px;height:692px;" version="1.1" viewBox="0 0 924 692" width="924px" zoomAndPan="magnify"><defs><filter height="300%" id="f12helo5csfhmk" width="300%" x="-1" y="-1"><feGaussianBlur result="blurOut" stdDeviation="2.0"/><feColorMatrix in="blurOut" result="blurOut2" type="matrix" values="0 0 0 0 0 0 0 0 0 0 0 0 0 0 0 0 0 0 .4 0"/><feOffset dx="4.0" dy="4.0" in="blurOut2" result="blurOut3"/><feBlend in="SourceGraphic" in2="blurOut3" mode="normal"/></filter></defs><g><!--cluster ##483--><!--cluster ##486--><!--class Portfolio--><a target="_top" xlink:actuate="onRequest" xlink:href="../Portfolio.html" xlink:show="new" xlink:title="Wrapper for a specific product or a specific sub-product owned by a set of beneficial owners." xlink:type="simple"><rect fill="#FEFECE" filter="url(#f12helo5csfhmk)" height="57.5781" id="Portfolio" style="stroke: #A80036; stroke-width: 1.5;" width="172" x="404" y="40"/><rect fill="#FEFECE" height="23.9688" style="stroke: #A80036; stroke-width: 1.5;" width="172" x="404" y="40"/><text fill="#000000" font-family="sans-serif" font-size="12" lengthAdjust="spacingAndGlyphs" textLength="52" x="464" y="56.1387">Portfolio</text><line style="stroke: #A80036; stroke-width: 1.5;" x1="405" x2="575" y1="63.9688" y2="63.9688"/><ellipse cx="415" cy="75.8711" fill="#84BE84" rx="3" ry="3" style="stroke: #038048; stroke-width: 1.0;"/><text fill="#000000" font-family="sans-serif" font-size="11" lengthAdjust="spacingAndGlyphs" textLength="33" x="424" y="78.1792">Name</text><text fill="#000000" font-family="sans-serif" font-size="11" font-style="italic" lengthAdjust="spacingAndGlyphs" textLength="77" x="461" y="78.1792">(Max350Text)</text><ellipse cx="415" cy="88.6758" fill="#84BE84" rx="3" ry="3" style="stroke: #038048; stroke-width: 1.0;"/><text fill="#000000" font-family="sans-serif" font-size="11" lengthAdjust="spacingAndGlyphs" textLength="72" x="424" y="90.9839">Identification</text><text fill="#000000" font-family="sans-serif" font-size="11" font-style="italic" lengthAdjust="spacingAndGlyphs" textLength="70" x="500" y="90.9839">(Max35Text)</text></a><!--class PortfolioValuation--><a target="_top" xlink:actuate="onRequest" xlink:href="../PortfolioValuation.html" xlink:show="new" xlink:title="Valuation information of the portfolio." xlink:type="simple"><rect fill="#EEEEEE" filter="url(#f12helo5csfhmk)" height="23.9688" id="PortfolioValuation" style="stroke: #A80036; stroke-width: 1.5;" width="117" x="516.75" y="282"/><rect fill="#EEEEEE" height="23.9688" style="stroke: #A80036; stroke-width: 1.5;" width="117" x="516.75" y="282"/><text fill="#000000" font-family="sans-serif" font-size="12" lengthAdjust="spacingAndGlyphs" textLength="111" x="519.75" y="298.1387">PortfolioValuation</text></a><!--class PortfolioTransfer--><a target="_top" xlink:actuate="onRequest" xlink:href="../PortfolioTransfer.html" xlink:show="new" xlink:title="Transfer by the delivering account servicer to the receiving account servicer of a retail or institutional client portfolio. A portfolio can be any grouping of  investments, for example  stocks, bonds, options, warrants. held by an institution or an individual." xlink:type="simple"><rect fill="#EEEEEE" filter="url(#f12helo5csfhmk)" height="23.9688" id="PortfolioTransfer" style="stroke: #A80036; stroke-width: 1.5;" width="110" x="435" y="180"/><rect fill="#EEEEEE" height="23.9688" style="stroke: #A80036; stroke-width: 1.5;" width="110" x="435" y="180"/><text fill="#000000" font-family="sans-serif" font-size="12" lengthAdjust="spacingAndGlyphs" textLength="104" x="438" y="196.1387">PortfolioTransfer</text></a><!--class Asset--><a target="_top" xlink:actuate="onRequest" xlink:href="../Asset.html" xlink:show="new" xlink:title="Tangible items of value to a business." xlink:type="simple"><rect fill="#EEEEEE" filter="url(#f12helo5csfhmk)" height="23.9688" id="Asset" style="stroke: #A80036; stroke-width: 1.5;" width="41" x="288.75" y="658"/><rect fill="#EEEEEE" height="23.9688" style="stroke: #A80036; stroke-width: 1.5;" width="41" x="288.75" y="658"/><text fill="#000000" font-family="sans-serif" font-size="12" lengthAdjust="spacingAndGlyphs" textLength="35" x="291.75" y="674.1387">Asset</text></a><!--class PortfolioStrategy--><a target="_top" xlink:actuate="onRequest" xlink:href="../PortfolioStrategy.html" xlink:show="new" xlink:title="Rough allocation of the portfolio." xlink:type="simple"><rect fill="#EEEEEE" filter="url(#f12helo5csfhmk)" height="23.9688" id="PortfolioStrategy" style="stroke: #A80036; stroke-width: 1.5;" width="111" x="332.75" y="572"/><rect fill="#EEEEEE" height="23.9688" style="stroke: #A80036; stroke-width: 1.5;" width="111" x="332.75" y="572"/><text fill="#000000" font-family="sans-serif" font-size="12" lengthAdjust="spacingAndGlyphs" textLength="105" x="335.75" y="588.1387">PortfolioStrategy</text></a><!--class PortfolioBenchmark--><a target="_top" xlink:actuate="onRequest" xlink:href="../PortfolioBenchmark.html" xlink:show="new" xlink:title="Security or other price against which the performance of the portfolio is evaluated." xlink:type="simple"><rect fill="#EEEEEE" filter="url(#f12helo5csfhmk)" height="23.9688" id="PortfolioBenchmark" style="stroke: #A80036; stroke-width: 1.5;" width="128" x="316" y="470"/><rect fill="#EEEEEE" height="23.9688" style="stroke: #A80036; stroke-width: 1.5;" width="128" x="316" y="470"/><text fill="#000000" font-family="sans-serif" font-size="12" lengthAdjust="spacingAndGlyphs" textLength="122" x="319" y="486.1387">PortfolioBenchmark</text></a><!--class InvestmentPlan--><a target="_top" xlink:actuate="onRequest" xlink:href="../InvestmentPlan.html" xlink:show="new" xlink:title="Plan that allows investors to schedule periodical investments or divestments, according to pre-defined criteria." xlink:type="simple"><rect fill="#EEEEEE" filter="url(#f12helo5csfhmk)" height="23.9688" id="InvestmentPlan" style="stroke: #A80036; stroke-width: 1.5;" width="102" x="329.5" y="384"/><rect fill="#EEEEEE" height="23.9688" style="stroke: #A80036; stroke-width: 1.5;" width="102" x="329.5" y="384"/><text fill="#000000" font-family="sans-serif" font-size="12" lengthAdjust="spacingAndGlyphs" textLength="96" x="332.5" y="400.1387">InvestmentPlan</text></a><!--class InvestmentAccount--><a target="_top" xlink:actuate="onRequest" xlink:href="../InvestmentAccount.html" xlink:show="new" xlink:title="Account between an investor(s) and a fund manager or a fund. The account can contain holdings in any investment fund or investment fund class managed (or distributed) by the fund manager, within the same fund family." xlink:type="simple"><rect fill="#EEEEEE" filter="url(#f12helo5csfhmk)" height="23.9688" id="InvestmentAccount" style="stroke: #A80036; stroke-width: 1.5;" width="126" x="317" y="282"/><rect fill="#EEEEEE" height="23.9688" style="stroke: #A80036; stroke-width: 1.5;" width="126" x="317" y="282"/><text fill="#000000" font-family="sans-serif" font-size="12" lengthAdjust="spacingAndGlyphs" textLength="120" x="320" y="298.1387">InvestmentAccount</text></a><!--link PortfolioTransfer to PortfolioValuation--><!--link Asset to PortfolioTransfer--><!--link PortfolioStrategy to Asset--><!--link PortfolioBenchmark to PortfolioStrategy--><!--link InvestmentPlan to PortfolioBenchmark--><!--link InvestmentAccount to InvestmentPlan--><!--link Portfolio to PortfolioValuation--><path d="M528.149,98.203 C564.06,127.471 615.2,176.908 635,234 C637.621,241.558 638.734,244.925 635,252 C628.761,263.82 617.411,272.878 606.248,279.437 " fill="none" id="Portfolio-PortfolioValuation" style="stroke: #A80036; stroke-width: 1.0;"/><polygon fill="#A80036" points="601.825,281.917,611.6314,281.0039,606.1861,279.4715,607.7186,274.0261,601.825,281.917" style="stroke: #A80036; stroke-width: 1.0;"/><text fill="#000000" font-family="sans-serif" font-size="13" lengthAdjust="spacingAndGlyphs" textLength="60" x="622" y="196.0669">Valuation</text><text fill="#000000" font-family="sans-serif" font-size="13" lengthAdjust="spacingAndGlyphs" textLength="24" x="581.4914" y="270.9367">0..1</text><!--link Portfolio to PortfolioTransfer--><path d="M490,98.064 C490,121.803 490,155.001 490,174.624 " fill="none" id="Portfolio-PortfolioTransfer" style="stroke: #A80036; stroke-width: 1.0;"/><polygon fill="#A80036" points="490,179.779,494,170.779,490,174.779,486,170.779,490,179.779" style="stroke: #A80036; stroke-width: 1.0;"/><text fill="#000000" font-family="sans-serif" font-size="13" lengthAdjust="spacingAndGlyphs" textLength="52" x="491" y="143.0669">Transfer</text><text fill="#000000" font-family="sans-serif" font-size="13" lengthAdjust="spacingAndGlyphs" textLength="24" x="460.6938" y="169.0092">0..1</text><!--link Portfolio to Asset--><path d="M403.75,73.965 C264.6,82.744 6,109.962 6,191 C6,191 6,191 6,585 C6,642.4402 210.766,662.2077 283.635,667.4238 " fill="none" id="Portfolio-Asset" style="stroke: #A80036; stroke-width: 1.0;"/><polygon fill="#A80036" points="288.649,667.7745,279.9498,663.1568,283.6612,667.4259,279.392,671.1373,288.649,667.7745" style="stroke: #A80036; stroke-width: 1.0;"/><text fill="#000000" font-family="sans-serif" font-size="13" lengthAdjust="spacingAndGlyphs" textLength="108" x="7" y="400.0669">AssetDescription</text><text fill="#000000" font-family="sans-serif" font-size="13" lengthAdjust="spacingAndGlyphs" textLength="7" x="273.9031" y="660.981">*</text><!--link Portfolio to PortfolioStrategy--><path d="M576.273,81.018 C684.479,97.3 856,132.358 856,191 C856,191 856,191 856,483 C856,565.358 575.327,580.129 448.699,582.603 " fill="none" id="Portfolio-PortfolioStrategy" style="stroke: #A80036; stroke-width: 1.0;"/><polygon fill="#A80036" points="443.524,582.698,452.5967,586.5301,448.5231,582.6051,452.4482,578.5315,443.524,582.698" style="stroke: #A80036; stroke-width: 1.0;"/><text fill="#000000" font-family="sans-serif" font-size="13" lengthAdjust="spacingAndGlyphs" textLength="55" x="857" y="349.0669">Strategy</text><text fill="#000000" font-family="sans-serif" font-size="13" lengthAdjust="spacingAndGlyphs" textLength="23" x="451.6621" y="577.5803">1..*</text><!--link Portfolio to PortfolioBenchmark--><path d="M403.825,85.121 C309.046,104.264 170,140.886 170,191 C170,191 170,191 170,397 C170,429.273 256.583,454.734 318.558,468.825 " fill="none" id="Portfolio-PortfolioBenchmark" style="stroke: #A80036; stroke-width: 1.0;"/><polygon fill="#A80036" points="323.724,469.986,315.8193,464.111,318.8455,468.8903,314.0662,471.9165,323.724,469.986" style="stroke: #A80036; stroke-width: 1.0;"/><text fill="#000000" font-family="sans-serif" font-size="13" lengthAdjust="spacingAndGlyphs" textLength="73" x="171" y="298.0669">Benchmark</text><text fill="#000000" font-family="sans-serif" font-size="13" lengthAdjust="spacingAndGlyphs" textLength="23" x="284.6792" y="461.5834">1..*</text><!--link Portfolio to InvestmentPlan--><path d="M576.239,83.922 C618.697,95.598 666.198,116.971 692,156 C703.765,173.796 696.14,183.072 692,204 C682.486,252.094 685.895,272.607 650,306 C590.423,361.424 495.601,382.373 435.64,390.265 " fill="none" id="Portfolio-InvestmentPlan" style="stroke: #A80036; stroke-width: 1.0;"/><polygon fill="#A80036" points="430.667,390.9,440.1009,393.7287,435.6268,390.2672,439.0884,385.7931,430.667,390.9" style="stroke: #A80036; stroke-width: 1.0;"/><text fill="#000000" font-family="sans-serif" font-size="13" lengthAdjust="spacingAndGlyphs" textLength="99" x="688" y="247.0669">InvestmentPlan</text><text fill="#000000" font-family="sans-serif" font-size="13" lengthAdjust="spacingAndGlyphs" textLength="8" x="439.6384" y="384.728">1</text><!--link Portfolio to InvestmentAccount--><path d="M416.553,98.035 C360.28,123.917 286.743,168.361 253,234 C238.001,263.177 274.101,277.988 311.598,285.471 " fill="none" id="Portfolio-InvestmentAccount" style="stroke: #A80036; stroke-width: 1.0;"/><polygon fill="#A80036" points="316.653,286.435,308.5622,280.819,311.7416,285.4979,307.0628,288.6773,316.653,286.435" style="stroke: #A80036; stroke-width: 1.0;"/><text fill="#000000" font-family="sans-serif" font-size="13" lengthAdjust="spacingAndGlyphs" textLength="52" x="321" y="196.0669">Account</text><text fill="#000000" font-family="sans-serif" font-size="13" lengthAdjust="spacingAndGlyphs" textLength="8" x="300.9251" y="280.9286">1</text><!--link PortfolioTransfer to InvestmentAccount--><path d="M434.735,195.26 C375.489,198.98 287.074,208.719 266,234 C247.3,256.434 277.622,271.361 311.676,280.588 " fill="none" id="PortfolioTransfer-InvestmentAccount" style="stroke: #A80036; stroke-width: 1.0;"/><polygon fill="#A80036" points="316.722,281.908,309.0277,275.76,311.8849,280.6423,307.0026,283.4994,316.722,281.908" style="stroke: #A80036; stroke-width: 1.0;"/><text fill="#000000" font-family="sans-serif" font-size="13" lengthAdjust="spacingAndGlyphs" textLength="85" x="267" y="247.0669">AccountFrom</text><text fill="#000000" font-family="sans-serif" font-size="13" lengthAdjust="spacingAndGlyphs" textLength="7" x="302.1511" y="272.9756">*</text><!--link PortfolioTransfer to InvestmentAccount--><path d="M441.004,204.131 C423.916,210.298 406.026,219.724 394,234 C384.03,245.836 380.893,263.533 380.03,276.457 " fill="none" id="PortfolioTransfer-InvestmentAccount" style="stroke: #A80036; stroke-width: 1.0;"/><polygon fill="#A80036" points="379.786,281.673,384.2008,272.8691,380.0189,276.6784,376.2095,272.4965,379.786,281.673" style="stroke: #A80036; stroke-width: 1.0;"/><text fill="#000000" font-family="sans-serif" font-size="13" lengthAdjust="spacingAndGlyphs" textLength="67" x="395" y="247.0669">AccountTo</text><text fill="#000000" font-family="sans-serif" font-size="13" lengthAdjust="spacingAndGlyphs" textLength="7" x="370.2245" y="270.8681">*</text><!--link PortfolioTransfer to InvestmentAccount--><path d="M488.406,204.34 C486.043,217.317 480.463,238.51 468,252 C456.391,264.566 440.154,273.612 424.784,279.955 " fill="none" id="PortfolioTransfer-InvestmentAccount" style="stroke: #A80036; stroke-width: 1.0;"/><polygon fill="#A80036" points="420.048,281.838,429.8889,282.2334,424.6949,279.9924,426.9359,274.7984,420.048,281.838" style="stroke: #A80036; stroke-width: 1.0;"/><text fill="#000000" font-family="sans-serif" font-size="13" lengthAdjust="spacingAndGlyphs" textLength="110" x="481" y="247.0669">NomineeAccount</text><text fill="#000000" font-family="sans-serif" font-size="13" lengthAdjust="spacingAndGlyphs" textLength="8" x="423.0958" y="270.8305">1</text><!--link Asset to InvestmentPlan--><path d="M302.785,657.7677 C290.114,633.4678 263.356,574.158 274,524 C279.452,498.309 282.51,491.209 298,470 C315.307,446.304 341.454,424.707 359.549,411.255 " fill="none" id="Asset-InvestmentPlan" style="stroke: #A80036; stroke-width: 1.0;"/><polygon fill="#A80036" points="363.966,408.014,354.3436,410.1141,359.935,410.9722,359.0768,416.5636,363.966,408.014" style="stroke: #A80036; stroke-width: 1.0;"/><text fill="#000000" font-family="sans-serif" font-size="13" lengthAdjust="spacingAndGlyphs" textLength="99" x="275" y="537.0669">InvestmentPlan</text><text fill="#000000" font-family="sans-serif" font-size="13" lengthAdjust="spacingAndGlyphs" textLength="24" x="326.7832" y="428.1643">0..1</text></g></svg>