<?xml version="1.0" encoding="UTF-8" standalone="no"?><svg xmlns="http://www.w3.org/2000/svg" xmlns:xlink="http://www.w3.org/1999/xlink" contentScriptType="application/ecmascript" contentStyleType="text/css" height="488px" preserveAspectRatio="none" style="width:694px;height:488px;" version="1.1" viewBox="0 0 694 488" width="694px" zoomAndPan="magnify"><defs><filter height="300%" id="fj660ojpxyyt6" width="300%" x="-1" y="-1"><feGaussianBlur result="blurOut" stdDeviation="2.0"/><feColorMatrix in="blurOut" result="blurOut2" type="matrix" values="0 0 0 0 0 0 0 0 0 0 0 0 0 0 0 0 0 0 .4 0"/><feOffset dx="4.0" dy="4.0" in="blurOut2" result="blurOut3"/><feBlend in="SourceGraphic" in2="blurOut3" mode="normal"/></filter></defs><g><!--cluster ##15778--><!--cluster ##15781--><!--class Position--><a target="_top" xlink:actuate="onRequest" xlink:href="../Position.html" xlink:show="new" xlink:title="Specifies the status of trades and their value inside a system." xlink:type="simple"><rect fill="#FEFECE" filter="url(#fj660ojpxyyt6)" height="57.5781" id="Position" style="stroke: #A80036; stroke-width: 1.5;" width="274" x="38" y="40"/><rect fill="#FEFECE" height="23.9688" style="stroke: #A80036; stroke-width: 1.5;" width="274" x="38" y="40"/><text fill="#000000" font-family="sans-serif" font-size="12" lengthAdjust="spacingAndGlyphs" textLength="50" x="150" y="56.1387">Position</text><line style="stroke: #A80036; stroke-width: 1.5;" x1="39" x2="311" y1="63.9688" y2="63.9688"/><ellipse cx="49" cy="75.8711" fill="#84BE84" rx="3" ry="3" style="stroke: #038048; stroke-width: 1.0;"/><text fill="#000000" font-family="sans-serif" font-size="11" lengthAdjust="spacingAndGlyphs" textLength="107" x="58" y="78.1792">NetPositionAmount</text><text fill="#000000" font-family="sans-serif" font-size="11" font-style="italic" lengthAdjust="spacingAndGlyphs" textLength="126" x="169" y="78.1792">(CurrencyAndAmount)</text><ellipse cx="49" cy="88.6758" fill="#84BE84" rx="3" ry="3" style="stroke: #038048; stroke-width: 1.0;"/><text fill="#000000" font-family="sans-serif" font-size="11" lengthAdjust="spacingAndGlyphs" textLength="118" x="58" y="90.9839">InitialPositionAmount</text><text fill="#000000" font-family="sans-serif" font-size="11" font-style="italic" lengthAdjust="spacingAndGlyphs" textLength="126" x="180" y="90.9839">(CurrencyAndAmount)</text></a><!--class SecuritiesQuantity--><a target="_top" xlink:actuate="onRequest" xlink:href="../SecuritiesQuantity.html" xlink:show="new" xlink:title="Quantity of a security." xlink:type="simple"><rect fill="#EEEEEE" filter="url(#fj660ojpxyyt6)" height="23.9688" id="SecuritiesQuantity" style="stroke: #A80036; stroke-width: 1.5;" width="120" x="185.5" y="180"/><rect fill="#EEEEEE" height="23.9688" style="stroke: #A80036; stroke-width: 1.5;" width="120" x="185.5" y="180"/><text fill="#000000" font-family="sans-serif" font-size="12" lengthAdjust="spacingAndGlyphs" textLength="114" x="188.5" y="196.1387">SecuritiesQuantity</text></a><!--class System--><a target="_top" xlink:actuate="onRequest" xlink:href="../System.html" xlink:show="new" xlink:title="Set of integrated applications that provides centralised services such as clearing, netting, reconciliation, trading and/or settlement." xlink:type="simple"><rect fill="#EEEEEE" filter="url(#fj660ojpxyyt6)" height="23.9688" id="System" style="stroke: #A80036; stroke-width: 1.5;" width="51" x="185.75" y="454"/><rect fill="#EEEEEE" height="23.9688" style="stroke: #A80036; stroke-width: 1.5;" width="51" x="185.75" y="454"/><text fill="#000000" font-family="sans-serif" font-size="12" lengthAdjust="spacingAndGlyphs" textLength="45" x="188.75" y="470.1387">System</text></a><!--class SecuritiesPricing--><a target="_top" xlink:actuate="onRequest" xlink:href="../SecuritiesPricing.html" xlink:show="new" xlink:title="Characteristics related to the price of the security." xlink:type="simple"><rect fill="#EEEEEE" filter="url(#fj660ojpxyyt6)" height="23.9688" id="SecuritiesPricing" style="stroke: #A80036; stroke-width: 1.5;" width="110" x="222" y="368"/><rect fill="#EEEEEE" height="23.9688" style="stroke: #A80036; stroke-width: 1.5;" width="110" x="222" y="368"/><text fill="#000000" font-family="sans-serif" font-size="12" lengthAdjust="spacingAndGlyphs" textLength="104" x="225" y="384.1387">SecuritiesPricing</text></a><!--class SecuritiesSettlement--><a target="_top" xlink:actuate="onRequest" xlink:href="../SecuritiesSettlement.html" xlink:show="new" xlink:title="Settlement of the securities in a securities transaction, that is, the instruction to deliver or receive securities, involving the payment of an amount of money or not." xlink:type="simple"><rect fill="#EEEEEE" filter="url(#fj660ojpxyyt6)" height="23.9688" id="SecuritiesSettlement" style="stroke: #A80036; stroke-width: 1.5;" width="137" x="279.75" y="282"/><rect fill="#EEEEEE" height="23.9688" style="stroke: #A80036; stroke-width: 1.5;" width="137" x="279.75" y="282"/><text fill="#000000" font-family="sans-serif" font-size="12" lengthAdjust="spacingAndGlyphs" textLength="131" x="282.75" y="298.1387">SecuritiesSettlement</text></a><!--link System to SecuritiesQuantity--><!--link SecuritiesPricing to System--><!--link SecuritiesSettlement to SecuritiesPricing--><!--link Position to SecuritiesQuantity--><path d="M191.235,98.064 C205.086,122.006 224.503,155.569 235.816,175.124 " fill="none" id="Position-SecuritiesQuantity" style="stroke: #A80036; stroke-width: 1.0;"/><polygon fill="#A80036" points="238.509,179.779,237.4643,169.9857,236.0051,175.4511,230.5397,173.9919,238.509,179.779" style="stroke: #A80036; stroke-width: 1.0;"/><text fill="#000000" font-family="sans-serif" font-size="13" lengthAdjust="spacingAndGlyphs" textLength="77" x="220" y="143.0669">NetQuantity</text><text fill="#000000" font-family="sans-serif" font-size="13" lengthAdjust="spacingAndGlyphs" textLength="8" x="225.537" y="169.0092">1</text><!--link Position to System--><path d="M101.8672,98.181 C64.5804,117.796 27,148.186 27,191 C27,191 27,191 27,381 C27,447.5417 127.814,461.5983 180.196,464.4108 " fill="none" id="Position-System" style="stroke: #A80036; stroke-width: 1.0;"/><polygon fill="#A80036" points="185.416,464.6625,176.6196,460.2326,180.4218,464.4211,176.2334,468.2233,185.416,464.6625" style="stroke: #A80036; stroke-width: 1.0;"/><text fill="#000000" font-family="sans-serif" font-size="13" lengthAdjust="spacingAndGlyphs" textLength="49" x="28" y="298.0669">System</text><text fill="#000000" font-family="sans-serif" font-size="13" lengthAdjust="spacingAndGlyphs" textLength="8" x="169.6711" y="458.5954">1</text><!--link Position to SecuritiesPricing--><path d="M166.587,98.204 C157.149,134.924 145.533,200.494 165,252 C183.547,301.073 230.66,343.443 257.501,364.609 " fill="none" id="Position-SecuritiesPricing" style="stroke: #A80036; stroke-width: 1.0;"/><polygon fill="#A80036" points="261.627,367.821,256.9836,359.1354,257.682,364.749,252.0684,365.4474,261.627,367.821" style="stroke: #A80036; stroke-width: 1.0;"/><text fill="#000000" font-family="sans-serif" font-size="13" lengthAdjust="spacingAndGlyphs" textLength="31" x="166" y="247.0669">Price</text><text fill="#000000" font-family="sans-serif" font-size="13" lengthAdjust="spacingAndGlyphs" textLength="8" x="245.6238" y="356.8077">1</text><!--link Position to SecuritiesSettlement--><path d="M312.373,87.061 C403.545,106.31 516.779,147.205 575,234 C579.457,240.644 580.13,245.861 575,252 C555.62,275.194 480.175,285.29 421.518,289.671 " fill="none" id="Position-SecuritiesSettlement" style="stroke: #A80036; stroke-width: 1.0;"/><polygon fill="#A80036" points="416.255,290.052,425.5206,293.391,421.2419,289.6906,424.9423,285.4119,416.255,290.052" style="stroke: #A80036; stroke-width: 1.0;"/><text fill="#000000" font-family="sans-serif" font-size="13" lengthAdjust="spacingAndGlyphs" textLength="135" x="547" y="196.0669">SecuritiesSettlement</text><text fill="#000000" font-family="sans-serif" font-size="13" lengthAdjust="spacingAndGlyphs" textLength="8" x="424.5806" y="284.6891">1</text><!--link SecuritiesQuantity to SecuritiesSettlement--><path d="M235.119,204.325 C225.397,216.906 213.429,237.371 224,252 C235.998,268.603 254.97,278.594 274.501,284.572 " fill="none" id="SecuritiesQuantity-SecuritiesSettlement" style="stroke: #A80036; stroke-width: 1.0;"/><polygon fill="#A80036" points="279.475,286.007,271.9378,279.6674,274.6712,284.62,269.7186,287.3534,279.475,286.007" style="stroke: #A80036; stroke-width: 1.0;"/><text fill="#000000" font-family="sans-serif" font-size="13" lengthAdjust="spacingAndGlyphs" textLength="135" x="225" y="247.0669">SecuritiesSettlement</text><text fill="#000000" font-family="sans-serif" font-size="13" lengthAdjust="spacingAndGlyphs" textLength="24" x="247.703" y="280.7149">0..1</text><!--link SecuritiesQuantity to SecuritiesSettlement--><path d="M304.621,198.522 C327.665,203.908 351.848,214.262 366,234 C375.226,246.867 367.792,264.55 359.864,277.195 " fill="none" id="SecuritiesQuantity-SecuritiesSettlement" style="stroke: #A80036; stroke-width: 1.0;"/><polygon fill="#A80036" points="356.951,281.608,365.2472,276.3002,359.7054,277.435,358.5705,271.8932,356.951,281.608" style="stroke: #A80036; stroke-width: 1.0;"/><text fill="#000000" font-family="sans-serif" font-size="13" lengthAdjust="spacingAndGlyphs" textLength="193" x="372" y="247.0669">RelatedTurnaroundSettlement</text><text fill="#000000" font-family="sans-serif" font-size="13" lengthAdjust="spacingAndGlyphs" textLength="8" x="349.1307" y="271.0417">1</text></g></svg>