<?xml version="1.0" encoding="UTF-8" standalone="no"?><svg xmlns="http://www.w3.org/2000/svg" xmlns:xlink="http://www.w3.org/1999/xlink" contentScriptType="application/ecmascript" contentStyleType="text/css" height="872px" preserveAspectRatio="none" style="width:1226px;height:872px;" version="1.1" viewBox="0 0 1226 872" width="1226px" zoomAndPan="magnify"><defs><filter height="300%" id="f1rrhzuc3i4pi6" width="300%" x="-1" y="-1"><feGaussianBlur result="blurOut" stdDeviation="2.0"/><feColorMatrix in="blurOut" result="blurOut2" type="matrix" values="0 0 0 0 0 0 0 0 0 0 0 0 0 0 0 0 0 0 .4 0"/><feOffset dx="4.0" dy="4.0" in="blurOut2" result="blurOut3"/><feBlend in="SourceGraphic" in2="blurOut3" mode="normal"/></filter></defs><g><!--cluster ##8402--><!--cluster ##8414--><!--cluster ##8423--><!--cluster ##8426--><!--cluster ##8437--><!--class Agreement--><a target="_top" xlink:actuate="onRequest" xlink:href="../Agreement.html" xlink:show="new" xlink:title="Contractual details related to an agreement between parties." xlink:type="simple"><rect fill="#FEFEEE" filter="url(#f1rrhzuc3i4pi6)" height="70.3828" id="Agreement" style="stroke: #A80036; stroke-width: 1.5;" width="171" x="414.75" y="40"/><rect fill="#FEFEEE" height="23.9688" style="stroke: #A80036; stroke-width: 1.5;" width="171" x="414.75" y="40"/><text fill="#000000" font-family="sans-serif" font-size="12" lengthAdjust="spacingAndGlyphs" textLength="69" x="465.75" y="56.1387">Agreement</text><line style="stroke: #A80036; stroke-width: 1.5;" x1="415.75" x2="584.75" y1="63.9688" y2="63.9688"/><ellipse cx="425.75" cy="75.8711" fill="#84BE84" rx="3" ry="3" style="stroke: #038048; stroke-width: 1.0;"/><text fill="#000000" font-family="sans-serif" font-size="11" lengthAdjust="spacingAndGlyphs" textLength="65" x="434.75" y="78.1792">DateSigned</text><text fill="#000000" font-family="sans-serif" font-size="11" font-style="italic" lengthAdjust="spacingAndGlyphs" textLength="53" x="503.75" y="78.1792">(ISODate)</text><ellipse cx="425.75" cy="88.6758" fill="#84BE84" rx="3" ry="3" style="stroke: #038048; stroke-width: 1.0;"/><text fill="#000000" font-family="sans-serif" font-size="11" lengthAdjust="spacingAndGlyphs" textLength="64" x="434.75" y="90.9839">Description</text><text fill="#000000" font-family="sans-serif" font-size="11" font-style="italic" lengthAdjust="spacingAndGlyphs" textLength="77" x="502.75" y="90.9839">(Max350Text)</text><ellipse cx="425.75" cy="101.4805" fill="#84BE84" rx="3" ry="3" style="stroke: #038048; stroke-width: 1.0;"/><text fill="#000000" font-family="sans-serif" font-size="11" lengthAdjust="spacingAndGlyphs" textLength="43" x="434.75" y="103.7886">Version</text><text fill="#000000" font-family="sans-serif" font-size="11" font-style="italic" lengthAdjust="spacingAndGlyphs" textLength="70" x="481.75" y="103.7886">(Max35Text)</text></a><!--class Contract--><a target="_top" xlink:actuate="onRequest" xlink:href="../Contract.html" xlink:show="new" xlink:title="Document that contains the information of the contract agreed between both parties." xlink:type="simple"><rect fill="#FEFEEE" filter="url(#f1rrhzuc3i4pi6)" height="23.9688" id="Contract" style="stroke: #A80036; stroke-width: 1.5;" width="60" x="301.5" y="190"/><rect fill="#FEFEEE" height="23.9688" style="stroke: #A80036; stroke-width: 1.5;" width="60" x="301.5" y="190"/><text fill="#000000" font-family="sans-serif" font-size="12" lengthAdjust="spacingAndGlyphs" textLength="54" x="304.5" y="206.1387">Contract</text></a><!--class Mandate--><a target="_top" xlink:actuate="onRequest" xlink:href="../Mandate.html" xlink:show="new" xlink:title="Authorisation given by an issuing party to a holder party to act on the issuer's behalf." xlink:type="simple"><rect fill="#FEFEEE" filter="url(#f1rrhzuc3i4pi6)" height="83.1875" id="Mandate" style="stroke: #A80036; stroke-width: 1.5;" width="239" x="211.75" y="292.5"/><rect fill="#FEFEEE" height="23.9688" style="stroke: #A80036; stroke-width: 1.5;" width="239" x="211.75" y="292.5"/><text fill="#000000" font-family="sans-serif" font-size="12" lengthAdjust="spacingAndGlyphs" textLength="55" x="303.75" y="308.6387">Mandate</text><line style="stroke: #A80036; stroke-width: 1.5;" x1="212.75" x2="449.75" y1="316.4688" y2="316.4688"/><ellipse cx="222.75" cy="328.3711" fill="#84BE84" rx="3" ry="3" style="stroke: #038048; stroke-width: 1.0;"/><text fill="#000000" font-family="sans-serif" font-size="11" lengthAdjust="spacingAndGlyphs" textLength="120" x="231.75" y="330.6792">MandateIdentification</text><text fill="#000000" font-family="sans-serif" font-size="11" font-style="italic" lengthAdjust="spacingAndGlyphs" textLength="70" x="355.75" y="330.6792">(Max35Text)</text><ellipse cx="222.75" cy="341.1758" fill="#84BE84" rx="3" ry="3" style="stroke: #038048; stroke-width: 1.0;"/><text fill="#000000" font-family="sans-serif" font-size="11" lengthAdjust="spacingAndGlyphs" textLength="76" x="231.75" y="343.4839">TrackingDays</text><text fill="#000000" font-family="sans-serif" font-size="11" font-style="italic" lengthAdjust="spacingAndGlyphs" textLength="117" x="311.75" y="343.4839">(Max35NumericText)</text><ellipse cx="222.75" cy="353.9805" fill="#84BE84" rx="3" ry="3" style="stroke: #038048; stroke-width: 1.0;"/><text fill="#000000" font-family="sans-serif" font-size="11" lengthAdjust="spacingAndGlyphs" textLength="97" x="231.75" y="356.2886">TrackingIndicator</text><text fill="#000000" font-family="sans-serif" font-size="11" font-style="italic" lengthAdjust="spacingAndGlyphs" textLength="112" x="332.75" y="356.2886">(TrueFalseIndicator)</text><ellipse cx="222.75" cy="366.7852" fill="#84BE84" rx="3" ry="3" style="stroke: #038048; stroke-width: 1.0;"/><text fill="#000000" font-family="sans-serif" font-size="11" lengthAdjust="spacingAndGlyphs" textLength="25" x="231.75" y="369.0933">Rate</text><text fill="#000000" font-family="sans-serif" font-size="11" font-style="italic" lengthAdjust="spacingAndGlyphs" textLength="98" x="260.75" y="369.0933">(PercentageRate)</text></a><!--class PowerOfAttorney--><a target="_top" xlink:actuate="onRequest" xlink:href="../PowerOfAttorney.html" xlink:show="new" xlink:title="Document that transfers specific rights from a party to another party." xlink:type="simple"><rect fill="#FEFECE" filter="url(#f1rrhzuc3i4pi6)" height="23.9688" id="PowerOfAttorney" style="stroke: #A80036; stroke-width: 1.5;" width="110" x="228" y="456"/><rect fill="#FEFECE" height="23.9688" style="stroke: #A80036; stroke-width: 1.5;" width="110" x="228" y="456"/><text fill="#000000" font-family="sans-serif" font-size="12" lengthAdjust="spacingAndGlyphs" textLength="104" x="231" y="472.1387">PowerOfAttorney</text></a><!--class DateTimePeriod--><a target="_top" xlink:actuate="onRequest" xlink:href="../DateTimePeriod.html" xlink:show="new" xlink:title="Time span defined by a start date and time, and an end date and time." xlink:type="simple"><rect fill="#EEEEEE" filter="url(#f1rrhzuc3i4pi6)" height="23.9688" id="DateTimePeriod" style="stroke: #A80036; stroke-width: 1.5;" width="105" x="791.75" y="322"/><rect fill="#EEEEEE" height="23.9688" style="stroke: #A80036; stroke-width: 1.5;" width="105" x="791.75" y="322"/><text fill="#000000" font-family="sans-serif" font-size="12" lengthAdjust="spacingAndGlyphs" textLength="99" x="794.75" y="338.1387">DateTimePeriod</text></a><!--class Document--><a target="_top" xlink:actuate="onRequest" xlink:href="../Document.html" xlink:show="new" xlink:title="General information that unambiguously identifies a document, such as identification number and issue date time." xlink:type="simple"><rect fill="#EEEEEE" filter="url(#f1rrhzuc3i4pi6)" height="23.9688" id="Document" style="stroke: #A80036; stroke-width: 1.5;" width="70" x="751" y="190"/><rect fill="#EEEEEE" height="23.9688" style="stroke: #A80036; stroke-width: 1.5;" width="70" x="751" y="190"/><text fill="#000000" font-family="sans-serif" font-size="12" lengthAdjust="spacingAndGlyphs" textLength="64" x="754" y="206.1387">Document</text></a><!--class CommercialTrade--><a target="_top" xlink:actuate="onRequest" xlink:href="../CommercialTrade.html" xlink:show="new" xlink:title="Commercial details of a trade transaction between a buyer and a seller." xlink:type="simple"><rect fill="#EEEEEE" filter="url(#f1rrhzuc3i4pi6)" height="23.9688" id="CommercialTrade" style="stroke: #A80036; stroke-width: 1.5;" width="114" x="642" y="322"/><rect fill="#EEEEEE" height="23.9688" style="stroke: #A80036; stroke-width: 1.5;" width="114" x="642" y="322"/><text fill="#000000" font-family="sans-serif" font-size="12" lengthAdjust="spacingAndGlyphs" textLength="108" x="645" y="338.1387">CommercialTrade</text></a><!--class Jurisdiction--><a target="_top" xlink:actuate="onRequest" xlink:href="../Jurisdiction.html" xlink:show="new" xlink:title="Specifies the jurisdiction (country, county, state, province, city)." xlink:type="simple"><rect fill="#EEEEEE" filter="url(#f1rrhzuc3i4pi6)" height="23.9688" id="Jurisdiction" style="stroke: #A80036; stroke-width: 1.5;" width="74" x="642" y="190"/><rect fill="#EEEEEE" height="23.9688" style="stroke: #A80036; stroke-width: 1.5;" width="74" x="642" y="190"/><text fill="#000000" font-family="sans-serif" font-size="12" lengthAdjust="spacingAndGlyphs" textLength="68" x="645" y="206.1387">Jurisdiction</text></a><!--class MasterAgreement--><a target="_top" xlink:actuate="onRequest" xlink:href="../MasterAgreement.html" xlink:show="new" xlink:title="Agreement which defines the framework of a contract between two trading parties in different domains such as collateral, derivatives, trade.." xlink:type="simple"><rect fill="#EEEEEE" filter="url(#f1rrhzuc3i4pi6)" height="23.9688" id="MasterAgreement" style="stroke: #A80036; stroke-width: 1.5;" width="118" x="38" y="322"/><rect fill="#EEEEEE" height="23.9688" style="stroke: #A80036; stroke-width: 1.5;" width="118" x="38" y="322"/><text fill="#000000" font-family="sans-serif" font-size="12" lengthAdjust="spacingAndGlyphs" textLength="112" x="41" y="338.1387">MasterAgreement</text></a><!--class SignatureCondition--><a target="_top" xlink:actuate="onRequest" xlink:href="../SignatureCondition.html" xlink:show="new" xlink:title="Specifies the signature requirements for managing an account." xlink:type="simple"><rect fill="#EEEEEE" filter="url(#f1rrhzuc3i4pi6)" height="23.9688" id="SignatureCondition" style="stroke: #A80036; stroke-width: 1.5;" width="126" x="642" y="838"/><rect fill="#EEEEEE" height="23.9688" style="stroke: #A80036; stroke-width: 1.5;" width="126" x="642" y="838"/><text fill="#000000" font-family="sans-serif" font-size="12" lengthAdjust="spacingAndGlyphs" textLength="120" x="645" y="854.1387">SignatureCondition</text></a><!--class MandatePartyRole--><a target="_top" xlink:actuate="onRequest" xlink:href="../MandatePartyRole.html" xlink:show="new" xlink:title="Role played by a party in the context of a mandate." xlink:type="simple"><rect fill="#EEEEEE" filter="url(#f1rrhzuc3i4pi6)" height="23.9688" id="MandatePartyRole" style="stroke: #A80036; stroke-width: 1.5;" width="120" x="648.5" y="750"/><rect fill="#EEEEEE" height="23.9688" style="stroke: #A80036; stroke-width: 1.5;" width="120" x="648.5" y="750"/><text fill="#000000" font-family="sans-serif" font-size="12" lengthAdjust="spacingAndGlyphs" textLength="114" x="651.5" y="766.1387">MandatePartyRole</text></a><!--class MandateStatus--><a target="_top" xlink:actuate="onRequest" xlink:href="../MandateStatus.html" xlink:show="new" xlink:title="Specifies whether a mandate is accepted or rejected." xlink:type="simple"><rect fill="#EEEEEE" filter="url(#f1rrhzuc3i4pi6)" height="23.9688" id="MandateStatus" style="stroke: #A80036; stroke-width: 1.5;" width="102" x="664.5" y="664"/><rect fill="#EEEEEE" height="23.9688" style="stroke: #A80036; stroke-width: 1.5;" width="102" x="664.5" y="664"/><text fill="#000000" font-family="sans-serif" font-size="12" lengthAdjust="spacingAndGlyphs" textLength="96" x="667.5" y="680.1387">MandateStatus</text></a><!--class AccountContract--><a target="_top" xlink:actuate="onRequest" xlink:href="../AccountContract.html" xlink:show="new" xlink:title="Agreement between an account servicer and an account owner about the services linked to an account." xlink:type="simple"><rect fill="#EEEEEE" filter="url(#f1rrhzuc3i4pi6)" height="23.9688" id="AccountContract" style="stroke: #A80036; stroke-width: 1.5;" width="111" x="657.75" y="562"/><rect fill="#EEEEEE" height="23.9688" style="stroke: #A80036; stroke-width: 1.5;" width="111" x="657.75" y="562"/><text fill="#000000" font-family="sans-serif" font-size="12" lengthAdjust="spacingAndGlyphs" textLength="105" x="660.75" y="578.1387">AccountContract</text></a><!--class Authentication--><a target="_top" xlink:actuate="onRequest" xlink:href="../Authentication.html" xlink:show="new" xlink:title="Data related to the authentication of the cardholder." xlink:type="simple"><rect fill="#EEEEEE" filter="url(#f1rrhzuc3i4pi6)" height="23.9688" id="Authentication" style="stroke: #A80036; stroke-width: 1.5;" width="98" x="642.5" y="456"/><rect fill="#EEEEEE" height="23.9688" style="stroke: #A80036; stroke-width: 1.5;" width="98" x="642.5" y="456"/><text fill="#000000" font-family="sans-serif" font-size="12" lengthAdjust="spacingAndGlyphs" textLength="92" x="645.5" y="472.1387">Authentication</text></a><!--class Party--><a target="_top" xlink:actuate="onRequest" xlink:href="../Party.html" xlink:show="new" xlink:title="Entity involved in an activity." xlink:type="simple"><rect fill="#EEEEEE" filter="url(#f1rrhzuc3i4pi6)" height="23.9688" id="Party" style="stroke: #A80036; stroke-width: 1.5;" width="38" x="332" y="750"/><rect fill="#EEEEEE" height="23.9688" style="stroke: #A80036; stroke-width: 1.5;" width="38" x="332" y="750"/><text fill="#000000" font-family="sans-serif" font-size="12" lengthAdjust="spacingAndGlyphs" textLength="32" x="335" y="766.1387">Party</text></a><!--class PowerOfAttorneyRequirements--><a target="_top" xlink:actuate="onRequest" xlink:href="../PowerOfAttorneyRequirements.html" xlink:show="new" xlink:title="Specifies the conditions to be filled in to obtain a valid power of attorney." xlink:type="simple"><rect fill="#EEEEEE" filter="url(#f1rrhzuc3i4pi6)" height="23.9688" id="PowerOfAttorneyRequirements" style="stroke: #A80036; stroke-width: 1.5;" width="197" x="312.75" y="664"/><rect fill="#EEEEEE" height="23.9688" style="stroke: #A80036; stroke-width: 1.5;" width="197" x="312.75" y="664"/><text fill="#000000" font-family="sans-serif" font-size="12" lengthAdjust="spacingAndGlyphs" textLength="191" x="315.75" y="680.1387">PowerOfAttorneyRequirements</text></a><!--class SecuritiesAccount--><a target="_top" xlink:actuate="onRequest" xlink:href="../SecuritiesAccount.html" xlink:show="new" xlink:title="Account to or from which a securities entry is made." xlink:type="simple"><rect fill="#EEEEEE" filter="url(#f1rrhzuc3i4pi6)" height="23.9688" id="SecuritiesAccount" style="stroke: #A80036; stroke-width: 1.5;" width="119" x="390.75" y="562"/><rect fill="#EEEEEE" height="23.9688" style="stroke: #A80036; stroke-width: 1.5;" width="119" x="390.75" y="562"/><text fill="#000000" font-family="sans-serif" font-size="12" lengthAdjust="spacingAndGlyphs" textLength="113" x="393.75" y="578.1387">SecuritiesAccount</text></a><!--link Agreement to Contract--><path d="M437.597,122.156 C404.558,146.593 366.673,174.615 346.146,189.797 " fill="none" id="Agreement-Contract" style="stroke: #A80036; stroke-width: 1.0;"/><polygon fill="none" points="433.578,116.422,453.82,110.157,441.903,127.678,433.578,116.422" style="stroke: #A80036; stroke-width: 1.0;"/><!--link Contract to Mandate--><path d="M331,234.099 C331,251.592 331,273.635 331,292.469 " fill="none" id="Contract-Mandate" style="stroke: #A80036; stroke-width: 1.0;"/><polygon fill="none" points="324,234.084,331,214.084,338,234.084,324,234.084" style="stroke: #A80036; stroke-width: 1.0;"/><!--link Mandate to PowerOfAttorney--><path d="M309.316,394.631 C300.895,417.788 292.091,442 287.101,455.722 " fill="none" id="Mandate-PowerOfAttorney" style="stroke: #A80036; stroke-width: 1.0;"/><polygon fill="none" points="302.793,392.085,316.207,375.681,315.95,396.87,302.793,392.085" style="stroke: #A80036; stroke-width: 1.0;"/><!--link Document to DateTimePeriod--><!--link CommercialTrade to Document--><!--link Document to CommercialTrade--><path d="M750.831,209.377 C731.096,214.949 708.076,225.228 696,244 C681.856,265.987 687.706,297.76 693.308,316.797 " fill="none" id="Document-CommercialTrade" style="stroke: #A80036; stroke-width: 1.0;"/><polygon fill="#A80036" points="694.865,321.81,696.0155,312.0286,693.3819,317.035,688.3755,314.4015,694.865,321.81" style="stroke: #A80036; stroke-width: 1.0;"/><text fill="#000000" font-family="sans-serif" font-size="13" lengthAdjust="spacingAndGlyphs" textLength="113" x="697" y="257.0669">CommercialTrade</text><text fill="#000000" font-family="sans-serif" font-size="13" lengthAdjust="spacingAndGlyphs" textLength="7" x="684.0047" y="311.0505">*</text><!--link Jurisdiction to CommercialTrade--><!--link MandatePartyRole to SignatureCondition--><!--link MandateStatus to MandatePartyRole--><!--link AccountContract to MandateStatus--><!--link Authentication to AccountContract--><!--link PowerOfAttorneyRequirements to Party--><!--link SecuritiesAccount to PowerOfAttorneyRequirements--><!--link Agreement to DateTimePeriod--><path d="M585.272,85.259 C676.754,97.352 812.415,122.311 838,166 C866.411,214.515 855.247,285.275 848.143,316.802 " fill="none" id="Agreement-DateTimePeriod" style="stroke: #A80036; stroke-width: 1.0;"/><polygon fill="#A80036" points="846.959,321.868,852.9012,314.0137,848.0962,316.999,845.1109,312.1941,846.959,321.868" style="stroke: #A80036; stroke-width: 1.0;"/><text fill="#000000" font-family="sans-serif" font-size="13" lengthAdjust="spacingAndGlyphs" textLength="86" x="854" y="206.0669">ValidityPeriod</text><text fill="#000000" font-family="sans-serif" font-size="13" lengthAdjust="spacingAndGlyphs" textLength="7" x="838.3433" y="310.8708">*</text><!--link Agreement to Document--><path d="M585.66,100.854 C618.561,111.469 656.096,124.905 689,140 C709.646,149.471 713.739,153.96 733,166 C743.703,172.69 755.431,180.396 765.128,186.87 " fill="none" id="Agreement-Document" style="stroke: #A80036; stroke-width: 1.0;"/><polygon fill="#A80036" points="769.429,189.75,764.1758,181.4191,765.2743,186.9683,759.7251,188.0667,769.429,189.75" style="stroke: #A80036; stroke-width: 1.0;"/><text fill="#000000" font-family="sans-serif" font-size="13" lengthAdjust="spacingAndGlyphs" textLength="67" x="722" y="153.0669">Document</text><text fill="#000000" font-family="sans-serif" font-size="13" lengthAdjust="spacingAndGlyphs" textLength="8" x="753.2836" y="178.9706">1</text><!--link Agreement to CommercialTrade--><path d="M518.375,110.209 C534.442,138.966 559.189,180.605 585,214 C616.425,254.658 659.87,296.841 683,318.396 " fill="none" id="Agreement-CommercialTrade" style="stroke: #A80036; stroke-width: 1.0;"/><polygon fill="#A80036" points="686.804,321.926,682.9274,312.8722,683.1388,318.5251,677.4859,318.7365,686.804,321.926" style="stroke: #A80036; stroke-width: 1.0;"/><text fill="#000000" font-family="sans-serif" font-size="13" lengthAdjust="spacingAndGlyphs" textLength="36" x="586" y="206.0669">Trade</text><text fill="#000000" font-family="sans-serif" font-size="13" lengthAdjust="spacingAndGlyphs" textLength="8" x="671.8929" y="310.9488">1</text><!--link Agreement to Jurisdiction--><path d="M546.575,110.127 C567.116,125.016 591.626,142.561 614,158 C628.283,167.855 644.568,178.628 657.265,186.926 " fill="none" id="Agreement-Jurisdiction" style="stroke: #A80036; stroke-width: 1.0;"/><polygon fill="#A80036" points="661.771,189.864,656.4185,181.5965,657.5833,187.1322,652.0476,188.2969,661.771,189.864" style="stroke: #A80036; stroke-width: 1.0;"/><text fill="#000000" font-family="sans-serif" font-size="13" lengthAdjust="spacingAndGlyphs" textLength="68" x="615" y="153.0669">Jurisdiction</text><text fill="#000000" font-family="sans-serif" font-size="13" lengthAdjust="spacingAndGlyphs" textLength="24" x="626.3798" y="178.8655">0..1</text><!--link Contract to MasterAgreement--><path d="M301.47,209.148 C274.869,215.456 235.26,226.799 204,244 C166.888,264.422 130.426,298.612 111.128,318.135 " fill="none" id="Contract-MasterAgreement" style="stroke: #A80036; stroke-width: 1.0;"/><polygon fill="#A80036" points="107.502,321.836,116.6575,318.2059,111.0009,318.2642,110.9426,312.6077,107.502,321.836" style="stroke: #A80036; stroke-width: 1.0;"/><text fill="#000000" font-family="sans-serif" font-size="13" lengthAdjust="spacingAndGlyphs" textLength="116" x="205" y="257.0669">MasterAgreement</text><text fill="#000000" font-family="sans-serif" font-size="13" lengthAdjust="spacingAndGlyphs" textLength="7" x="101.5651" y="310.8278">*</text><!--link Mandate to SignatureCondition--><path d="M450.397,353.463 C513.074,370.683 577,403.749 577,467 C577,467 577,467 577,763 C577,801.817 618.059,824.2511 653.668,836.4083 " fill="none" id="Mandate-SignatureCondition" style="stroke: #A80036; stroke-width: 1.0;"/><polygon fill="#A80036" points="658.427,837.9842,651.142,831.3563,653.6808,836.4115,648.6256,838.9502,658.427,837.9842" style="stroke: #A80036; stroke-width: 1.0;"/><text fill="#000000" font-family="sans-serif" font-size="13" lengthAdjust="spacingAndGlyphs" textLength="129" x="578" y="629.0669">SignatureConditions</text><text fill="#000000" font-family="sans-serif" font-size="13" lengthAdjust="spacingAndGlyphs" textLength="7" x="632.8707" y="827.027">*</text><!--link Mandate to Mandate--><path d="M450.455,319.997 C470.862,321.91 485,326.578 485,334 C485,340.784 473.187,345.267 455.572,347.449 " fill="none" id="Mandate-Mandate" style="stroke: #A80036; stroke-width: 1.0;"/><polygon fill="#A80036" points="450.455,348.003,459.8336,351.0101,455.4259,347.4643,458.9717,343.0567,450.455,348.003" style="stroke: #A80036; stroke-width: 1.0;"/><text fill="#000000" font-family="sans-serif" font-size="13" lengthAdjust="spacingAndGlyphs" textLength="104" x="491" y="338.0669">OriginalMandate</text><text fill="#000000" font-family="sans-serif" font-size="13" lengthAdjust="spacingAndGlyphs" textLength="8" x="458.7328" y="344.4378">1</text><!--link Mandate to MandatePartyRole--><path d="M450.469,351.774 C504.124,359.263 568.23,368.151 626,376 C726.403,389.641 752.46,387.063 852,406 C962.236,426.971 1097,354.787 1097,467 C1097,467 1097,467 1097,677 C1097,742.546 883.312,757.075 772.693,760.204 " fill="none" id="Mandate-MandatePartyRole" style="stroke: #A80036; stroke-width: 1.0;"/><polygon fill="#A80036" points="767.504,760.345,776.6092,764.0993,772.5022,760.2093,776.3921,756.1022,767.504,760.345" style="stroke: #A80036; stroke-width: 1.0;"/><text fill="#000000" font-family="sans-serif" font-size="13" lengthAdjust="spacingAndGlyphs" textLength="116" x="1098" y="578.0669">MandatePartyRole</text><text fill="#000000" font-family="sans-serif" font-size="13" lengthAdjust="spacingAndGlyphs" textLength="7" x="776.6843" y="754.9324">*</text><!--link Mandate to MandateStatus--><path d="M450.315,351.839 C608.815,374.797 870.553,415.004 884,432 C950.034,515.461 798.617,622.922 738.367,660.926 " fill="none" id="Mandate-MandateStatus" style="stroke: #A80036; stroke-width: 1.0;"/><polygon fill="#A80036" points="733.849,663.753,743.6002,662.3697,738.0875,661.1007,739.3565,655.588,733.849,663.753" style="stroke: #A80036; stroke-width: 1.0;"/><text fill="#000000" font-family="sans-serif" font-size="13" lengthAdjust="spacingAndGlyphs" textLength="98" x="893" y="525.0669">MandateStatus</text><text fill="#000000" font-family="sans-serif" font-size="13" lengthAdjust="spacingAndGlyphs" textLength="7" x="730.4365" y="652.9746">*</text><!--link Mandate to AccountContract--><path d="M450.364,351.054 C561.604,366.784 713.886,390.578 738,406 C775.307,429.859 768.181,461.424 756,504 C750.21,524.239 736.572,544.315 726.195,557.549 " fill="none" id="Mandate-AccountContract" style="stroke: #A80036; stroke-width: 1.0;"/><polygon fill="#A80036" points="722.817,561.765,731.5662,557.2426,725.9434,557.863,725.323,552.2403,722.817,561.765" style="stroke: #A80036; stroke-width: 1.0;"/><text fill="#000000" font-family="sans-serif" font-size="13" lengthAdjust="spacingAndGlyphs" textLength="107" x="767" y="472.0669">AccountContract</text><text fill="#000000" font-family="sans-serif" font-size="13" lengthAdjust="spacingAndGlyphs" textLength="24" x="696.6798" y="550.9906">0..1</text><!--link Mandate to Authentication--><path d="M450.255,356.608 C498.953,367.842 554.995,383.941 603,406 C629.783,418.307 657.148,438.771 674.099,452.565 " fill="none" id="Mandate-Authentication" style="stroke: #A80036; stroke-width: 1.0;"/><polygon fill="#A80036" points="678.178,455.919,673.7676,447.1128,674.3162,452.743,668.6861,453.2916,678.178,455.919" style="stroke: #A80036; stroke-width: 1.0;"/><text fill="#000000" font-family="sans-serif" font-size="13" lengthAdjust="spacingAndGlyphs" textLength="93" x="635" y="419.0669">Authentication</text><text fill="#000000" font-family="sans-serif" font-size="13" lengthAdjust="spacingAndGlyphs" textLength="8" x="662.8798" y="444.9394">1</text><!--link PowerOfAttorney to Party--><path d="M238.845,480.02 C217.274,486.853 191.774,497.205 172,512 C120.083,550.844 57.698,578.976 92,634 C145,719.017 273.323,748.715 326.886,757.635 " fill="none" id="PowerOfAttorney-Party" style="stroke: #A80036; stroke-width: 1.0;"/><polygon fill="#A80036" points="331.831,758.435,323.5839,753.0512,326.895,757.6378,322.3084,760.9489,331.831,758.435" style="stroke: #A80036; stroke-width: 1.0;"/><text fill="#000000" font-family="sans-serif" font-size="13" lengthAdjust="spacingAndGlyphs" textLength="102" x="93" y="629.0669">AuthorisedParty</text><text fill="#000000" font-family="sans-serif" font-size="13" lengthAdjust="spacingAndGlyphs" textLength="8" x="316.0335" y="751.1317">1</text><!--link PowerOfAttorney to PowerOfAttorneyRequirements--><path d="M249.443,480.082 C223.689,490.563 189.931,509.06 174,538 C163.712,556.689 161.853,568.463 174,586 C204.183,629.576 258.531,651.847 307.574,663.216 " fill="none" id="PowerOfAttorney-PowerOfAttorneyRequirements" style="stroke: #A80036; stroke-width: 1.0;"/><polygon fill="#A80036" points="312.607,664.349,304.7056,658.4696,307.7291,663.2506,302.9481,666.2741,312.607,664.349" style="stroke: #A80036; stroke-width: 1.0;"/><text fill="#000000" font-family="sans-serif" font-size="13" lengthAdjust="spacingAndGlyphs" textLength="196" x="175" y="578.0669">PowerOfAttorneyRequirements</text><text fill="#000000" font-family="sans-serif" font-size="13" lengthAdjust="spacingAndGlyphs" textLength="8" x="296.6435" y="659.0675">1</text><!--link PowerOfAttorney to SecuritiesAccount--><path d="M300.872,480.13 C331.634,499.287 394.498,538.436 427.936,559.26 " fill="none" id="PowerOfAttorney-SecuritiesAccount" style="stroke: #A80036; stroke-width: 1.0;"/><polygon fill="#A80036" points="432.257,561.95,426.7314,553.7972,428.0126,559.3071,422.5027,560.5882,432.257,561.95" style="stroke: #A80036; stroke-width: 1.0;"/><text fill="#000000" font-family="sans-serif" font-size="13" lengthAdjust="spacingAndGlyphs" textLength="121" x="378" y="525.0669">AuthorisedAccount</text><text fill="#000000" font-family="sans-serif" font-size="13" lengthAdjust="spacingAndGlyphs" textLength="8" x="415.3532" y="550.981">1</text></g></svg>