<?xml version="1.0" encoding="UTF-8" standalone="no"?><svg xmlns="http://www.w3.org/2000/svg" xmlns:xlink="http://www.w3.org/1999/xlink" contentScriptType="application/ecmascript" contentStyleType="text/css" height="702px" preserveAspectRatio="none" style="width:944px;height:702px;" version="1.1" viewBox="0 0 944 702" width="944px" zoomAndPan="magnify"><defs><filter height="300%" id="f15w9iky6u4k5o" width="300%" x="-1" y="-1"><feGaussianBlur result="blurOut" stdDeviation="2.0"/><feColorMatrix in="blurOut" result="blurOut2" type="matrix" values="0 0 0 0 0 0 0 0 0 0 0 0 0 0 0 0 0 0 .4 0"/><feOffset dx="4.0" dy="4.0" in="blurOut2" result="blurOut3"/><feBlend in="SourceGraphic" in2="blurOut3" mode="normal"/></filter></defs><g><!--cluster ##6431--><!--cluster ##6434--><!--class Price--><a target="_top" xlink:actuate="onRequest" xlink:href="../Price.html" xlink:show="new" xlink:title="Amount of money for which goods, services or assets are offered, sold, or bought." xlink:type="simple"><rect fill="#FEFECE" filter="url(#f15w9iky6u4k5o)" height="83.1875" id="Price" style="stroke: #A80036; stroke-width: 1.5;" width="234" x="313" y="40.5"/><rect fill="#FEFECE" height="23.9688" style="stroke: #A80036; stroke-width: 1.5;" width="234" x="313" y="40.5"/><text fill="#000000" font-family="sans-serif" font-size="12" lengthAdjust="spacingAndGlyphs" textLength="31" x="414.5" y="56.6387">Price</text><line style="stroke: #A80036; stroke-width: 1.5;" x1="314" x2="546" y1="64.4688" y2="64.4688"/><ellipse cx="324" cy="76.3711" fill="#84BE84" rx="3" ry="3" style="stroke: #038048; stroke-width: 1.0;"/><text fill="#000000" font-family="sans-serif" font-size="11" lengthAdjust="spacingAndGlyphs" textLength="43" x="333" y="78.6792">Amount</text><text fill="#000000" font-family="sans-serif" font-size="11" font-style="italic" lengthAdjust="spacingAndGlyphs" textLength="126" x="380" y="78.6792">(CurrencyAndAmount)</text><ellipse cx="324" cy="89.1758" fill="#84BE84" rx="3" ry="3" style="stroke: #038048; stroke-width: 1.0;"/><text fill="#000000" font-family="sans-serif" font-size="11" lengthAdjust="spacingAndGlyphs" textLength="84" x="333" y="91.4839">UnitOfMeasure</text><text fill="#000000" font-family="sans-serif" font-size="11" font-style="italic" lengthAdjust="spacingAndGlyphs" textLength="120" x="421" y="91.4839">(UnitOfMeasureCode)</text><ellipse cx="324" cy="101.9805" fill="#84BE84" rx="3" ry="3" style="stroke: #038048; stroke-width: 1.0;"/><text fill="#000000" font-family="sans-serif" font-size="11" lengthAdjust="spacingAndGlyphs" textLength="51" x="333" y="104.2886">Currency</text><text fill="#000000" font-family="sans-serif" font-size="11" font-style="italic" lengthAdjust="spacingAndGlyphs" textLength="89" x="388" y="104.2886">(CurrencyCode)</text><ellipse cx="324" cy="114.7852" fill="#84BE84" rx="3" ry="3" style="stroke: #038048; stroke-width: 1.0;"/><text fill="#000000" font-family="sans-serif" font-size="11" lengthAdjust="spacingAndGlyphs" textLength="35" x="333" y="117.0933">Factor</text><text fill="#000000" font-family="sans-serif" font-size="11" font-style="italic" lengthAdjust="spacingAndGlyphs" textLength="117" x="372" y="117.0933">(Max15NumericText)</text></a><!--class Option--><a target="_top" xlink:actuate="onRequest" xlink:href="../Option.html" xlink:show="new" xlink:title="Contracts which grant to the holder either the privilege to purchase or the privilege to sell the assets specified at a predetermined price or formula at or within a time in the future." xlink:type="simple"><rect fill="#EEEEEE" filter="url(#f15w9iky6u4k5o)" height="23.9688" id="Option" style="stroke: #A80036; stroke-width: 1.5;" width="47" x="424.75" y="668"/><rect fill="#EEEEEE" height="23.9688" style="stroke: #A80036; stroke-width: 1.5;" width="47" x="424.75" y="668"/><text fill="#000000" font-family="sans-serif" font-size="12" lengthAdjust="spacingAndGlyphs" textLength="41" x="427.75" y="684.1387">Option</text></a><!--class Product--><a target="_top" xlink:actuate="onRequest" xlink:href="../Product.html" xlink:show="new" xlink:title="Item that is offered for sale. Products can be services or goods." xlink:type="simple"><rect fill="#EEEEEE" filter="url(#f15w9iky6u4k5o)" height="23.9688" id="Product" style="stroke: #A80036; stroke-width: 1.5;" width="55" x="423.75" y="582"/><rect fill="#EEEEEE" height="23.9688" style="stroke: #A80036; stroke-width: 1.5;" width="55" x="423.75" y="582"/><text fill="#000000" font-family="sans-serif" font-size="12" lengthAdjust="spacingAndGlyphs" textLength="49" x="426.75" y="598.1387">Product</text></a><!--class Adjustment--><a target="_top" xlink:actuate="onRequest" xlink:href="../Adjustment.html" xlink:show="new" xlink:title="Modification on the value of goods and / or services. For example: rebate, discount." xlink:type="simple"><rect fill="#EEEEEE" filter="url(#f15w9iky6u4k5o)" height="23.9688" id="Adjustment" style="stroke: #A80036; stroke-width: 1.5;" width="77" x="423.75" y="496"/><rect fill="#EEEEEE" height="23.9688" style="stroke: #A80036; stroke-width: 1.5;" width="77" x="423.75" y="496"/><text fill="#000000" font-family="sans-serif" font-size="12" lengthAdjust="spacingAndGlyphs" textLength="71" x="426.75" y="512.1387">Adjustment</text></a><!--class Tolerance--><a target="_top" xlink:actuate="onRequest" xlink:href="../Tolerance.html" xlink:show="new" xlink:title="Variance allowed on a quantity or on a price." xlink:type="simple"><rect fill="#EEEEEE" filter="url(#f15w9iky6u4k5o)" height="23.9688" id="Tolerance" style="stroke: #A80036; stroke-width: 1.5;" width="68" x="465" y="410"/><rect fill="#EEEEEE" height="23.9688" style="stroke: #A80036; stroke-width: 1.5;" width="68" x="465" y="410"/><text fill="#000000" font-family="sans-serif" font-size="12" lengthAdjust="spacingAndGlyphs" textLength="62" x="468" y="426.1387">Tolerance</text></a><!--class Netting--><a target="_top" xlink:actuate="onRequest" xlink:href="../Netting.html" xlink:show="new" xlink:title="Offset of payables against receivables to reduce credit exposure to a counterparty." xlink:type="simple"><rect fill="#EEEEEE" filter="url(#f15w9iky6u4k5o)" height="23.9688" id="Netting" style="stroke: #A80036; stroke-width: 1.5;" width="52" x="481" y="308"/><rect fill="#EEEEEE" height="23.9688" style="stroke: #A80036; stroke-width: 1.5;" width="52" x="481" y="308"/><text fill="#000000" font-family="sans-serif" font-size="12" lengthAdjust="spacingAndGlyphs" textLength="46" x="484" y="324.1387">Netting</text></a><!--class SecuritiesPricing--><a target="_top" xlink:actuate="onRequest" xlink:href="../SecuritiesPricing.html" xlink:show="new" xlink:title="Characteristics related to the price of the security." xlink:type="simple"><rect fill="#EEEEEE" filter="url(#f15w9iky6u4k5o)" height="23.9688" id="SecuritiesPricing" style="stroke: #A80036; stroke-width: 1.5;" width="110" x="423" y="206"/><rect fill="#EEEEEE" height="23.9688" style="stroke: #A80036; stroke-width: 1.5;" width="110" x="423" y="206"/><text fill="#000000" font-family="sans-serif" font-size="12" lengthAdjust="spacingAndGlyphs" textLength="104" x="426" y="222.1387">SecuritiesPricing</text></a><!--link Product to Option--><!--link Adjustment to Product--><!--link Tolerance to Adjustment--><!--link Netting to Tolerance--><!--link SecuritiesPricing to Netting--><!--link Price to Option--><path d="M312.737,96.831 C187.245,114.987 6,152.393 6,217 C6,217 6,217 6,595 C6,679.5061 321.77,681.1688 419.514,679.6592 " fill="none" id="Price-Option" style="stroke: #A80036; stroke-width: 1.0;"/><polygon fill="#A80036" points="424.548,679.5756,415.4829,675.7253,419.5487,679.6585,415.6155,683.7242,424.548,679.5756" style="stroke: #A80036; stroke-width: 1.0;"/><text fill="#000000" font-family="sans-serif" font-size="13" lengthAdjust="spacingAndGlyphs" textLength="42" x="7" y="426.0669">Option</text><text fill="#000000" font-family="sans-serif" font-size="13" lengthAdjust="spacingAndGlyphs" textLength="8" x="408.9107" y="673.5977">1</text><!--link Price to Product--><path d="M547.177,99.609 C663.632,119.502 825,157.755 825,217 C825,217 825,217 825,509 C825,578.653 574.934,590.561 483.758,592.587 " fill="none" id="Price-Product" style="stroke: #A80036; stroke-width: 1.0;"/><polygon fill="#A80036" points="478.501,592.697,487.5836,596.5058,483.4999,592.5913,487.4144,588.5076,478.501,592.697" style="stroke: #A80036; stroke-width: 1.0;"/><text fill="#000000" font-family="sans-serif" font-size="13" lengthAdjust="spacingAndGlyphs" textLength="106" x="826" y="375.0669">UnitPriceProduct</text><text fill="#000000" font-family="sans-serif" font-size="13" lengthAdjust="spacingAndGlyphs" textLength="24" x="486.5965" y="586.7589">0..1</text><!--link Price to Product--><path d="M312.767,108.235 C219.306,131.847 104,170.418 104,217 C104,217 104,217 104,509 C104,573.279 331.771,588.54 418.239,592.017 " fill="none" id="Price-Product" style="stroke: #A80036; stroke-width: 1.0;"/><polygon fill="#A80036" points="423.481,592.221,414.6432,587.8743,418.4848,592.0267,414.3324,595.8682,423.481,592.221" style="stroke: #A80036; stroke-width: 1.0;"/><text fill="#000000" font-family="sans-serif" font-size="13" lengthAdjust="spacingAndGlyphs" textLength="103" x="105" y="375.0669">NetPriceProduct</text><text fill="#000000" font-family="sans-serif" font-size="13" lengthAdjust="spacingAndGlyphs" textLength="24" x="391.7286" y="586.599">0..1</text><!--link Price to Product--><path d="M318.821,123.534 C281.888,144.642 250,175.022 250,217 C250,217 250,217 250,509 C250,580.995 361.139,592.366 418.132,593.464 " fill="none" id="Price-Product" style="stroke: #A80036; stroke-width: 1.0;"/><polygon fill="#A80036" points="423.473,593.54,414.5311,589.4118,418.4735,593.4686,414.4168,597.411,423.473,593.54" style="stroke: #A80036; stroke-width: 1.0;"/><text fill="#000000" font-family="sans-serif" font-size="13" lengthAdjust="spacingAndGlyphs" textLength="117" x="251" y="375.0669">GrossPriceProduct</text><text fill="#000000" font-family="sans-serif" font-size="13" lengthAdjust="spacingAndGlyphs" textLength="24" x="391.7193" y="606.7865">0..1</text><!--link Price to Adjustment--><path d="M402.996,123.844 C373.867,173.062 334.265,258.338 355,332 C357.503,340.891 426.248,450.345 452.204,491.496 " fill="none" id="Price-Adjustment" style="stroke: #A80036; stroke-width: 1.0;"/><polygon fill="#A80036" points="455.008,495.939,453.5875,486.1931,452.3395,491.7106,446.8221,490.4627,455.008,495.939" style="stroke: #A80036; stroke-width: 1.0;"/><text fill="#000000" font-family="sans-serif" font-size="13" lengthAdjust="spacingAndGlyphs" textLength="105" x="356" y="324.0669">PriceAdjustment</text><text fill="#000000" font-family="sans-serif" font-size="13" lengthAdjust="spacingAndGlyphs" textLength="7" x="442.9717" y="484.9662">*</text><!--link Price to Tolerance--><path d="M547.137,106.231 C586.773,120.713 626.033,144.145 646,182 C692.642,270.428 570.024,370.677 519.555,406.962 " fill="none" id="Price-Tolerance" style="stroke: #A80036; stroke-width: 1.0;"/><polygon fill="#A80036" points="515.475,409.869,525.1265,407.9072,519.548,406.9689,520.4863,401.3904,515.475,409.869" style="stroke: #A80036; stroke-width: 1.0;"/><text fill="#000000" font-family="sans-serif" font-size="13" lengthAdjust="spacingAndGlyphs" textLength="93" x="650" y="273.0669">PriceTolerance</text><text fill="#000000" font-family="sans-serif" font-size="13" lengthAdjust="spacingAndGlyphs" textLength="8" x="510.4195" y="398.8722">1</text><!--link Price to Netting--><path d="M547.245,123.472 C559.801,132.326 570.921,143.046 579,156 C610.804,206.998 552.87,274.467 523.085,304.037 " fill="none" id="Price-Netting" style="stroke: #A80036; stroke-width: 1.0;"/><polygon fill="#A80036" points="519.254,307.785,528.4837,304.3481,522.8272,304.2875,522.8878,298.631,519.254,307.785" style="stroke: #A80036; stroke-width: 1.0;"/><text fill="#000000" font-family="sans-serif" font-size="13" lengthAdjust="spacingAndGlyphs" textLength="47" x="589" y="222.0669">Netting</text><text fill="#000000" font-family="sans-serif" font-size="13" lengthAdjust="spacingAndGlyphs" textLength="24" x="494.0069" y="297.0172">0..1</text><!--link Price to SecuritiesPricing--><path d="M444.532,123.568 C453.813,149.479 465.345,181.672 472.164,200.708 " fill="none" id="Price-SecuritiesPricing" style="stroke: #A80036; stroke-width: 1.0;"/><polygon fill="#A80036" points="473.957,205.712,474.6884,195.8903,472.2712,201.0047,467.1568,198.5875,473.957,205.712" style="stroke: #A80036; stroke-width: 1.0;"/><text fill="#000000" font-family="sans-serif" font-size="13" lengthAdjust="spacingAndGlyphs" textLength="105" x="464" y="169.0669">SecuritiesPricing</text><text fill="#000000" font-family="sans-serif" font-size="13" lengthAdjust="spacingAndGlyphs" textLength="8" x="461.9615" y="194.92">1</text></g></svg>