<?xml version="1.0" encoding="UTF-8" standalone="no"?><svg xmlns="http://www.w3.org/2000/svg" xmlns:xlink="http://www.w3.org/1999/xlink" contentScriptType="application/ecmascript" contentStyleType="text/css" height="1360px" preserveAspectRatio="none" style="width:1670px;height:1360px;" version="1.1" viewBox="0 0 1670 1360" width="1670px" zoomAndPan="magnify"><defs><filter height="300%" id="fots9e1bz6bip" width="300%" x="-1" y="-1"><feGaussianBlur result="blurOut" stdDeviation="2.0"/><feColorMatrix in="blurOut" result="blurOut2" type="matrix" values="0 0 0 0 0 0 0 0 0 0 0 0 0 0 0 0 0 0 .4 0"/><feOffset dx="4.0" dy="4.0" in="blurOut2" result="blurOut3"/><feBlend in="SourceGraphic" in2="blurOut3" mode="normal"/></filter></defs><g><!--cluster ##2962--><!--cluster ##2968--><!--cluster ##2997--><!--class Document--><a target="_top" xlink:actuate="onRequest" xlink:href="../Document.html" xlink:show="new" xlink:title="General information that unambiguously identifies a document, such as identification number and issue date time." xlink:type="simple"><rect fill="#FEFEEE" filter="url(#fots9e1bz6bip)" height="172.8203" id="Document" style="stroke: #A80036; stroke-width: 1.5;" width="249" x="1264.9" y="40.5"/><rect fill="#FEFEEE" height="23.9688" style="stroke: #A80036; stroke-width: 1.5;" width="249" x="1264.9" y="40.5"/><text fill="#000000" font-family="sans-serif" font-size="12" lengthAdjust="spacingAndGlyphs" textLength="64" x="1357.4" y="56.6387">Document</text><line style="stroke: #A80036; stroke-width: 1.5;" x1="1265.9" x2="1512.9" y1="64.4688" y2="64.4688"/><ellipse cx="1275.9" cy="76.3711" fill="#84BE84" rx="3" ry="3" style="stroke: #038048; stroke-width: 1.0;"/><text fill="#000000" font-family="sans-serif" font-size="11" lengthAdjust="spacingAndGlyphs" textLength="57" x="1284.9" y="78.6792">IssueDate</text><text fill="#000000" font-family="sans-serif" font-size="11" font-style="italic" lengthAdjust="spacingAndGlyphs" textLength="81" x="1345.9" y="78.6792">(ISODateTime)</text><ellipse cx="1275.9" cy="89.1758" fill="#84BE84" rx="3" ry="3" style="stroke: #038048; stroke-width: 1.0;"/><text fill="#000000" font-family="sans-serif" font-size="11" lengthAdjust="spacingAndGlyphs" textLength="80" x="1284.9" y="91.4839">CopyDuplicate</text><text fill="#000000" font-family="sans-serif" font-size="11" font-style="italic" lengthAdjust="spacingAndGlyphs" textLength="118" x="1368.9" y="91.4839">(CopyDuplicateCode)</text><ellipse cx="1275.9" cy="101.9805" fill="#84BE84" rx="3" ry="3" style="stroke: #038048; stroke-width: 1.0;"/><text fill="#000000" font-family="sans-serif" font-size="11" lengthAdjust="spacingAndGlyphs" textLength="27" x="1284.9" y="104.2886">Type</text><text fill="#000000" font-family="sans-serif" font-size="11" font-style="italic" lengthAdjust="spacingAndGlyphs" textLength="122" x="1315.9" y="104.2886">(DocumentTypeCode)</text><ellipse cx="1275.9" cy="114.7852" fill="#84BE84" rx="3" ry="3" style="stroke: #038048; stroke-width: 1.0;"/><text fill="#000000" font-family="sans-serif" font-size="11" lengthAdjust="spacingAndGlyphs" textLength="43" x="1284.9" y="117.0933">Amount</text><text fill="#000000" font-family="sans-serif" font-size="11" font-style="italic" lengthAdjust="spacingAndGlyphs" textLength="161" x="1331.9" y="117.0933">(ActiveCurrencyAndAmount)</text><ellipse cx="1275.9" cy="127.5898" fill="#84BE84" rx="3" ry="3" style="stroke: #038048; stroke-width: 1.0;"/><text fill="#000000" font-family="sans-serif" font-size="11" lengthAdjust="spacingAndGlyphs" textLength="100" x="1284.9" y="129.8979">DocumentVersion</text><text fill="#000000" font-family="sans-serif" font-size="11" font-style="italic" lengthAdjust="spacingAndGlyphs" textLength="53" x="1388.9" y="129.8979">(Number)</text><ellipse cx="1275.9" cy="140.3945" fill="#84BE84" rx="3" ry="3" style="stroke: #038048; stroke-width: 1.0;"/><text fill="#000000" font-family="sans-serif" font-size="11" lengthAdjust="spacingAndGlyphs" textLength="37" x="1284.9" y="142.7026">Status</text><text fill="#000000" font-family="sans-serif" font-size="11" font-style="italic" lengthAdjust="spacingAndGlyphs" textLength="77" x="1325.9" y="142.7026">(Max140Text)</text><ellipse cx="1275.9" cy="153.1992" fill="#84BE84" rx="3" ry="3" style="stroke: #038048; stroke-width: 1.0;"/><text fill="#000000" font-family="sans-serif" font-size="11" lengthAdjust="spacingAndGlyphs" textLength="72" x="1284.9" y="155.5073">DataSetType</text><text fill="#000000" font-family="sans-serif" font-size="11" font-style="italic" lengthAdjust="spacingAndGlyphs" textLength="109" x="1360.9" y="155.5073">(DataSetTypeCode)</text><ellipse cx="1275.9" cy="166.0039" fill="#84BE84" rx="3" ry="3" style="stroke: #038048; stroke-width: 1.0;"/><text fill="#000000" font-family="sans-serif" font-size="11" lengthAdjust="spacingAndGlyphs" textLength="88" x="1284.9" y="168.312">SignedIndicator</text><text fill="#000000" font-family="sans-serif" font-size="11" font-style="italic" lengthAdjust="spacingAndGlyphs" textLength="92" x="1376.9" y="168.312">(YesNoIndicator)</text><ellipse cx="1275.9" cy="178.8086" fill="#84BE84" rx="3" ry="3" style="stroke: #038048; stroke-width: 1.0;"/><text fill="#000000" font-family="sans-serif" font-size="11" lengthAdjust="spacingAndGlyphs" textLength="93" x="1284.9" y="181.1167">RemittedAmount</text><text fill="#000000" font-family="sans-serif" font-size="11" font-style="italic" lengthAdjust="spacingAndGlyphs" textLength="126" x="1381.9" y="181.1167">(CurrencyAndAmount)</text><ellipse cx="1275.9" cy="191.6133" fill="#84BE84" rx="3" ry="3" style="stroke: #038048; stroke-width: 1.0;"/><text fill="#000000" font-family="sans-serif" font-size="11" lengthAdjust="spacingAndGlyphs" textLength="55" x="1284.9" y="193.9214">Language</text><text fill="#000000" font-family="sans-serif" font-size="11" font-style="italic" lengthAdjust="spacingAndGlyphs" textLength="92" x="1343.9" y="193.9214">(LanguageCode)</text><ellipse cx="1275.9" cy="204.418" fill="#84BE84" rx="3" ry="3" style="stroke: #038048; stroke-width: 1.0;"/><text fill="#000000" font-family="sans-serif" font-size="11" lengthAdjust="spacingAndGlyphs" textLength="47" x="1284.9" y="206.7261">Purpose</text><text fill="#000000" font-family="sans-serif" font-size="11" font-style="italic" lengthAdjust="spacingAndGlyphs" textLength="70" x="1335.9" y="206.7261">(Max35Text)</text></a><!--class PrivateCertificate--><a target="_top" xlink:actuate="onRequest" xlink:href="../PrivateCertificate.html" xlink:show="new" xlink:title="Specifies the parameters associated with the production of a certificate to identify the profile of a customer." xlink:type="simple"><rect fill="#FEFECE" filter="url(#fots9e1bz6bip)" height="95.9922" id="PrivateCertificate" style="stroke: #A80036; stroke-width: 1.5;" width="267" x="1264.9" y="292"/><rect fill="#FEFECE" height="23.9688" style="stroke: #A80036; stroke-width: 1.5;" width="267" x="1264.9" y="292"/><text fill="#000000" font-family="sans-serif" font-size="12" lengthAdjust="spacingAndGlyphs" textLength="107" x="1344.9" y="308.1387">PrivateCertificate</text><line style="stroke: #A80036; stroke-width: 1.5;" x1="1265.9" x2="1530.9" y1="315.9688" y2="315.9688"/><ellipse cx="1275.9" cy="327.8711" fill="#84BE84" rx="3" ry="3" style="stroke: #038048; stroke-width: 1.0;"/><text fill="#000000" font-family="sans-serif" font-size="11" lengthAdjust="spacingAndGlyphs" textLength="85" x="1284.9" y="330.1792">CertificateType</text><text fill="#000000" font-family="sans-serif" font-size="11" font-style="italic" lengthAdjust="spacingAndGlyphs" textLength="123" x="1373.9" y="330.1792">(CertificateTypeCode)</text><ellipse cx="1275.9" cy="340.6758" fill="#84BE84" rx="3" ry="3" style="stroke: #038048; stroke-width: 1.0;"/><text fill="#000000" font-family="sans-serif" font-size="11" lengthAdjust="spacingAndGlyphs" textLength="117" x="1284.9" y="342.9839">CertificationIndicator</text><text fill="#000000" font-family="sans-serif" font-size="11" font-style="italic" lengthAdjust="spacingAndGlyphs" textLength="92" x="1405.9" y="342.9839">(YesNoIndicator)</text><ellipse cx="1275.9" cy="353.4805" fill="#84BE84" rx="3" ry="3" style="stroke: #038048; stroke-width: 1.0;"/><text fill="#000000" font-family="sans-serif" font-size="11" lengthAdjust="spacingAndGlyphs" textLength="77" x="1284.9" y="355.7886">CheckingDate</text><text fill="#000000" font-family="sans-serif" font-size="11" font-style="italic" lengthAdjust="spacingAndGlyphs" textLength="53" x="1365.9" y="355.7886">(ISODate)</text><ellipse cx="1275.9" cy="366.2852" fill="#84BE84" rx="3" ry="3" style="stroke: #038048; stroke-width: 1.0;"/><text fill="#000000" font-family="sans-serif" font-size="11" lengthAdjust="spacingAndGlyphs" textLength="109" x="1284.9" y="368.5933">CheckingFrequency</text><text fill="#000000" font-family="sans-serif" font-size="11" font-style="italic" lengthAdjust="spacingAndGlyphs" textLength="128" x="1397.9" y="368.5933">(EventFrequencyCode)</text><ellipse cx="1275.9" cy="379.0898" fill="#84BE84" rx="3" ry="3" style="stroke: #038048; stroke-width: 1.0;"/><text fill="#000000" font-family="sans-serif" font-size="11" lengthAdjust="spacingAndGlyphs" textLength="98" x="1284.9" y="381.3979">NextRevisionDate</text><text fill="#000000" font-family="sans-serif" font-size="11" font-style="italic" lengthAdjust="spacingAndGlyphs" textLength="53" x="1386.9" y="381.3979">(ISODate)</text></a><!--class ContactPoint--><a target="_top" xlink:actuate="onRequest" xlink:href="../ContactPoint.html" xlink:show="new" xlink:title="Number, physical or virtual address, used for communication." xlink:type="simple"><rect fill="#EEEEEE" filter="url(#fots9e1bz6bip)" height="23.9688" id="ContactPoint" style="stroke: #A80036; stroke-width: 1.5;" width="87" x="76.9047" y="115"/><rect fill="#EEEEEE" height="23.9688" style="stroke: #A80036; stroke-width: 1.5;" width="87" x="76.9047" y="115"/><text fill="#000000" font-family="sans-serif" font-size="12" lengthAdjust="spacingAndGlyphs" textLength="81" x="79.9047" y="131.1387">ContactPoint</text></a><!--class PaymentObligation--><a target="_top" xlink:actuate="onRequest" xlink:href="../PaymentObligation.html" xlink:show="new" xlink:title="Obligation for the debtor to pay the creditor an amount of cash." xlink:type="simple"><rect fill="#EEEEEE" filter="url(#fots9e1bz6bip)" height="23.9688" id="PaymentObligation" style="stroke: #A80036; stroke-width: 1.5;" width="123" x="188.905" y="328"/><rect fill="#EEEEEE" height="23.9688" style="stroke: #A80036; stroke-width: 1.5;" width="123" x="188.905" y="328"/><text fill="#000000" font-family="sans-serif" font-size="12" lengthAdjust="spacingAndGlyphs" textLength="117" x="191.905" y="344.1387">PaymentObligation</text></a><!--class Agreement--><a target="_top" xlink:actuate="onRequest" xlink:href="../Agreement.html" xlink:show="new" xlink:title="Contractual details related to an agreement between parties." xlink:type="simple"><rect fill="#EEEEEE" filter="url(#fots9e1bz6bip)" height="23.9688" id="Agreement" style="stroke: #A80036; stroke-width: 1.5;" width="75" x="789.905" y="1326"/><rect fill="#EEEEEE" height="23.9688" style="stroke: #A80036; stroke-width: 1.5;" width="75" x="789.905" y="1326"/><text fill="#000000" font-family="sans-serif" font-size="12" lengthAdjust="spacingAndGlyphs" textLength="69" x="792.905" y="1342.1387">Agreement</text></a><!--class Location--><a target="_top" xlink:actuate="onRequest" xlink:href="../Location.html" xlink:show="new" xlink:title="Specifies a place." xlink:type="simple"><rect fill="#EEEEEE" filter="url(#fots9e1bz6bip)" height="23.9688" id="Location" style="stroke: #A80036; stroke-width: 1.5;" width="59" x="611.905" y="1240"/><rect fill="#EEEEEE" height="23.9688" style="stroke: #A80036; stroke-width: 1.5;" width="59" x="611.905" y="1240"/><text fill="#000000" font-family="sans-serif" font-size="12" lengthAdjust="spacingAndGlyphs" textLength="53" x="614.905" y="1256.1387">Location</text></a><!--class Reconciliation--><a target="_top" xlink:actuate="onRequest" xlink:href="../Reconciliation.html" xlink:show="new" xlink:title="Process of matching different documents submitted by parties to a trade." xlink:type="simple"><rect fill="#EEEEEE" filter="url(#fots9e1bz6bip)" height="23.9688" id="Reconciliation" style="stroke: #A80036; stroke-width: 1.5;" width="93" x="925.905" y="1154"/><rect fill="#EEEEEE" height="23.9688" style="stroke: #A80036; stroke-width: 1.5;" width="93" x="925.905" y="1154"/><text fill="#000000" font-family="sans-serif" font-size="12" lengthAdjust="spacingAndGlyphs" textLength="87" x="928.905" y="1170.1387">Reconciliation</text></a><!--class LetterOfCredit--><a target="_top" xlink:actuate="onRequest" xlink:href="../LetterOfCredit.html" xlink:show="new" xlink:title="Instrument issued by a bank substituting its name and credit standing for that of its customer. A letter of credit is a written undertaking of the bank, issued for the account of a customer (the applicant), to honour a demand for payment, upon the beneficiary's compliance with the terms and conditions set forth in the undertaking." xlink:type="simple"><rect fill="#EEEEEE" filter="url(#fots9e1bz6bip)" height="23.9688" id="LetterOfCredit" style="stroke: #A80036; stroke-width: 1.5;" width="93" x="925.905" y="1068"/><rect fill="#EEEEEE" height="23.9688" style="stroke: #A80036; stroke-width: 1.5;" width="93" x="925.905" y="1068"/><text fill="#000000" font-family="sans-serif" font-size="12" lengthAdjust="spacingAndGlyphs" textLength="87" x="928.905" y="1084.1387">LetterOfCredit</text></a><!--class DocumentPartyRole--><a target="_top" xlink:actuate="onRequest" xlink:href="../DocumentPartyRole.html" xlink:show="new" xlink:title="Role played by a party in the context of a document." xlink:type="simple"><rect fill="#EEEEEE" filter="url(#fots9e1bz6bip)" height="23.9688" id="DocumentPartyRole" style="stroke: #A80036; stroke-width: 1.5;" width="129" x="828.905" y="982"/><rect fill="#EEEEEE" height="23.9688" style="stroke: #A80036; stroke-width: 1.5;" width="129" x="828.905" y="982"/><text fill="#000000" font-family="sans-serif" font-size="12" lengthAdjust="spacingAndGlyphs" textLength="123" x="831.905" y="998.1387">DocumentPartyRole</text></a><!--class Transport--><a target="_top" xlink:actuate="onRequest" xlink:href="../Transport.html" xlink:show="new" xlink:title="Moving of goods or people from one place to another by vehicle." xlink:type="simple"><rect fill="#EEEEEE" filter="url(#fots9e1bz6bip)" height="23.9688" id="Transport" style="stroke: #A80036; stroke-width: 1.5;" width="67" x="402.905" y="880"/><rect fill="#EEEEEE" height="23.9688" style="stroke: #A80036; stroke-width: 1.5;" width="67" x="402.905" y="880"/><text fill="#000000" font-family="sans-serif" font-size="12" lengthAdjust="spacingAndGlyphs" textLength="61" x="405.905" y="896.1387">Transport</text></a><!--class Guarantee--><a target="_top" xlink:actuate="onRequest" xlink:href="../Guarantee.html" xlink:show="new" xlink:title="Partial or full coverage of amounts by a party other than the debtor." xlink:type="simple"><rect fill="#EEEEEE" filter="url(#fots9e1bz6bip)" height="23.9688" id="Guarantee" style="stroke: #A80036; stroke-width: 1.5;" width="73" x="113.905" y="778"/><rect fill="#EEEEEE" height="23.9688" style="stroke: #A80036; stroke-width: 1.5;" width="73" x="113.905" y="778"/><text fill="#000000" font-family="sans-serif" font-size="12" lengthAdjust="spacingAndGlyphs" textLength="67" x="116.905" y="794.1387">Guarantee</text></a><!--class GenericIdentification--><a target="_top" xlink:actuate="onRequest" xlink:href="../GenericIdentification.html" xlink:show="new" xlink:title="Information related to a non-standardised identification, such as a proprietary party identification or account identification." xlink:type="simple"><rect fill="#EEEEEE" filter="url(#fots9e1bz6bip)" height="23.9688" id="GenericIdentification" style="stroke: #A80036; stroke-width: 1.5;" width="135" x="228.905" y="676"/><rect fill="#EEEEEE" height="23.9688" style="stroke: #A80036; stroke-width: 1.5;" width="135" x="228.905" y="676"/><text fill="#000000" font-family="sans-serif" font-size="12" lengthAdjust="spacingAndGlyphs" textLength="129" x="231.905" y="692.1387">GenericIdentification</text></a><!--class Evidence--><a target="_top" xlink:actuate="onRequest" xlink:href="../Evidence.html" xlink:show="new" xlink:title="Element such as signature that can be used to prove a fact." xlink:type="simple"><rect fill="#EEEEEE" filter="url(#fots9e1bz6bip)" height="23.9688" id="Evidence" style="stroke: #A80036; stroke-width: 1.5;" width="62" x="558.655" y="574"/><rect fill="#EEEEEE" height="23.9688" style="stroke: #A80036; stroke-width: 1.5;" width="62" x="558.655" y="574"/><text fill="#000000" font-family="sans-serif" font-size="12" lengthAdjust="spacingAndGlyphs" textLength="56" x="561.655" y="590.1387">Evidence</text></a><!--class CommercialTrade--><a target="_top" xlink:actuate="onRequest" xlink:href="../CommercialTrade.html" xlink:show="new" xlink:title="Commercial details of a trade transaction between a buyer and a seller." xlink:type="simple"><rect fill="#EEEEEE" filter="url(#fots9e1bz6bip)" height="23.9688" id="CommercialTrade" style="stroke: #A80036; stroke-width: 1.5;" width="114" x="559.155" y="470"/><rect fill="#EEEEEE" height="23.9688" style="stroke: #A80036; stroke-width: 1.5;" width="114" x="559.155" y="470"/><text fill="#000000" font-family="sans-serif" font-size="12" lengthAdjust="spacingAndGlyphs" textLength="108" x="562.155" y="486.1387">CommercialTrade</text></a><!--class Presentation--><a target="_top" xlink:actuate="onRequest" xlink:href="../Presentation.html" xlink:show="new" xlink:title="Presentation of documents." xlink:type="simple"><rect fill="#EEEEEE" filter="url(#fots9e1bz6bip)" height="23.9688" id="Presentation" style="stroke: #A80036; stroke-width: 1.5;" width="87" x="612.905" y="880"/><rect fill="#EEEEEE" height="23.9688" style="stroke: #A80036; stroke-width: 1.5;" width="87" x="612.905" y="880"/><text fill="#000000" font-family="sans-serif" font-size="12" lengthAdjust="spacingAndGlyphs" textLength="81" x="615.905" y="896.1387">Presentation</text></a><!--class RegisteredContract--><a target="_top" xlink:actuate="onRequest" xlink:href="../RegisteredContract.html" xlink:show="new" xlink:title="Contract registered for regulatory purpose by a registration agent for the journaling of payments made against the contract." xlink:type="simple"><rect fill="#EEEEEE" filter="url(#fots9e1bz6bip)" height="23.9688" id="RegisteredContract" style="stroke: #A80036; stroke-width: 1.5;" width="128" x="259.155" y="778"/><rect fill="#EEEEEE" height="23.9688" style="stroke: #A80036; stroke-width: 1.5;" width="128" x="259.155" y="778"/><text fill="#000000" font-family="sans-serif" font-size="12" lengthAdjust="spacingAndGlyphs" textLength="122" x="262.155" y="794.1387">RegisteredContract</text></a><!--class PersonProfile--><a target="_top" xlink:actuate="onRequest" xlink:href="../PersonProfile.html" xlink:show="new" xlink:title="Information to support Know Your Customer (KYC) processes." xlink:type="simple"><rect fill="#EEEEEE" filter="url(#fots9e1bz6bip)" height="23.9688" id="PersonProfile" style="stroke: #A80036; stroke-width: 1.5;" width="89" x="1353.9" y="470"/><rect fill="#EEEEEE" height="23.9688" style="stroke: #A80036; stroke-width: 1.5;" width="89" x="1353.9" y="470"/><text fill="#000000" font-family="sans-serif" font-size="12" lengthAdjust="spacingAndGlyphs" textLength="83" x="1356.9" y="486.1387">PersonProfile</text></a><!--link Document to PrivateCertificate--><path d="M1393.67,233.79 C1394.54,254.16 1395.4,274.53 1396.14,291.83 " fill="none" id="Document-PrivateCertificate" style="stroke: #A80036; stroke-width: 1.0;"/><polygon fill="none" points="1386.66,233.8,1392.8,213.52,1400.65,233.2,1386.66,233.8" style="stroke: #A80036; stroke-width: 1.0;"/><!--link PaymentObligation to ContactPoint--><!--link ContactPoint to PaymentObligation--><path d="M116.061,139.01 C107.814,163.19 91.8858,221.94 115.155,262 C134.258,294.89 173.254,314.9 204.444,326.25 " fill="none" id="ContactPoint-PaymentObligation" style="stroke: #A80036; stroke-width: 1.0;"/><polygon fill="#A80036" points="209.378,328,202.2284,321.2263,204.6645,326.3317,199.5591,328.7679,209.378,328" style="stroke: #A80036; stroke-width: 1.0;"/><text fill="#000000" font-family="sans-serif" font-size="13" lengthAdjust="spacingAndGlyphs" textLength="178" x="116.155" y="257.0669">RemittanceRelatedPayment</text><text fill="#000000" font-family="sans-serif" font-size="13" lengthAdjust="spacingAndGlyphs" textLength="24" x="165.8062" y="317.0482">0..1</text><!--link Agreement to PaymentObligation--><!--link Location to Agreement--><!--link Reconciliation to Location--><!--link LetterOfCredit to Reconciliation--><!--link DocumentPartyRole to LetterOfCredit--><!--link Transport to DocumentPartyRole--><!--link Guarantee to Transport--><!--link GenericIdentification to Guarantee--><!--link Evidence to GenericIdentification--><!--link CommercialTrade to Evidence--><!--link Presentation to CommercialTrade--><!--link RegisteredContract to Presentation--><!--link Document to ContactPoint--><path d="M1264.84,127 C991.905,127 350.136,127 168.702,127 " fill="none" id="Document-ContactPoint" style="stroke: #A80036; stroke-width: 1.0;"/><polygon fill="#A80036" points="163.469,127,172.469,131,168.469,127,172.469,123,163.469,127" style="stroke: #A80036; stroke-width: 1.0;"/><text fill="#000000" font-family="sans-serif" font-size="13" lengthAdjust="spacingAndGlyphs" textLength="99" x="663.905" y="119.0669">PlaceOfStorage</text><text fill="#000000" font-family="sans-serif" font-size="13" lengthAdjust="spacingAndGlyphs" textLength="7" x="171.7633" y="121.5674">*</text><!--link Document to PaymentObligation--><path d="M1264.59,164.27 C1197.01,182.4 1111.67,202.8 1034.15,214 C900.049,233.37 555.624,207.43 425.155,244 C417.089,246.26 320.902,299.57 274.669,325.32 " fill="none" id="Document-PaymentObligation" style="stroke: #A80036; stroke-width: 1.0;"/><polygon fill="#A80036" points="270.087,327.87,279.8961,326.986,274.4554,325.4374,276.004,319.9967,270.087,327.87" style="stroke: #A80036; stroke-width: 1.0;"/><text fill="#000000" font-family="sans-serif" font-size="13" lengthAdjust="spacingAndGlyphs" textLength="121" x="426.155" y="257.0669">PaymentObligation</text><text fill="#000000" font-family="sans-serif" font-size="13" lengthAdjust="spacingAndGlyphs" textLength="24" x="247.3839" y="316.8735">0..1</text><!--link Document to Agreement--><path d="M1513.56,207.08 C1552.34,241.79 1585.15,286.63 1585.15,339 C1585.15,339 1585.15,339 1585.15,1253 C1585.15,1325.5714 1029.19,1335.4498 869.545,1336.7905 " fill="none" id="Document-Agreement" style="stroke: #A80036; stroke-width: 1.0;"/><polygon fill="#A80036" points="864.485,1336.8312,873.5167,1340.7591,869.4848,1336.7912,873.4527,1332.7593,864.485,1336.8312" style="stroke: #A80036; stroke-width: 1.0;"/><text fill="#000000" font-family="sans-serif" font-size="13" lengthAdjust="spacingAndGlyphs" textLength="72" x="1586.15" y="845.0669">Agreement</text><text fill="#000000" font-family="sans-serif" font-size="13" lengthAdjust="spacingAndGlyphs" textLength="7" x="872.8546" y="1330.9208">*</text><!--link Document to Location--><path d="M1296.23,213.82 C1276.54,237.15 1258.35,263.82 1247.15,292 C1173.91,476.388 1228.15,539.598 1228.15,738 C1228.15,738 1228.15,738 1228.15,1167 C1228.15,1223.165 801.607,1244.614 675.726,1249.722 " fill="none" id="Document-Location" style="stroke: #A80036; stroke-width: 1.0;"/><polygon fill="#A80036" points="670.666,1249.925,679.8198,1253.5593,675.6619,1249.7236,679.4976,1245.5658,670.666,1249.925" style="stroke: #A80036; stroke-width: 1.0;"/><text fill="#000000" font-family="sans-serif" font-size="13" lengthAdjust="spacingAndGlyphs" textLength="81" x="1229.15" y="794.0669">PlaceOfIssue</text><text fill="#000000" font-family="sans-serif" font-size="13" lengthAdjust="spacingAndGlyphs" textLength="24" x="678.7893" y="1243.9261">0..1</text><!--link Document to Reconciliation--><path d="M1264.71,175.12 C1234.24,192.36 1204.78,214.97 1185.15,244 C1070.61,413.445 1172.43,501.492 1123.15,700 C1119.73,713.783 1114.64,716.017 1112.15,730 C1110.15,741.304 1115.15,780.921 1115.15,789 C1115.15,789 1115.15,789 1115.15,1081 C1115.15,1124.854 1064.54,1146.259 1023.53,1156.405 " fill="none" id="Document-Reconciliation" style="stroke: #A80036; stroke-width: 1.0;"/><polygon fill="#A80036" points="1018.58,1157.587,1028.2615,1159.3949,1023.4442,1156.4295,1026.4096,1151.6122,1018.58,1157.587" style="stroke: #A80036; stroke-width: 1.0;"/><text fill="#000000" font-family="sans-serif" font-size="13" lengthAdjust="spacingAndGlyphs" textLength="87" x="1113.15" y="743.0669">Reconciliation</text><text fill="#000000" font-family="sans-serif" font-size="13" lengthAdjust="spacingAndGlyphs" textLength="7" x="1026.8074" y="1150.8663">*</text><!--link Document to LetterOfCredit--><path d="M1264.52,156.98 C1174.67,186.13 1069.15,241.18 1069.15,339 C1069.15,339 1069.15,339 1069.15,536 C1069.15,629.405 1011.15,644.595 1011.15,738 C1011.15,738 1011.15,738 1011.15,995 C1011.15,1020.866 995.753,1047.395 984.307,1063.539 " fill="none" id="Document-LetterOfCredit" style="stroke: #A80036; stroke-width: 1.0;"/><polygon fill="#A80036" points="981.2,1067.808,989.7294,1062.8837,984.1416,1063.7649,983.2604,1058.1771,981.2,1067.808" style="stroke: #A80036; stroke-width: 1.0;"/><text fill="#000000" font-family="sans-serif" font-size="13" lengthAdjust="spacingAndGlyphs" textLength="90" x="1023.15" y="692.0669">LetterOfCredit</text><text fill="#000000" font-family="sans-serif" font-size="13" lengthAdjust="spacingAndGlyphs" textLength="8" x="973.4571" y="1057.0478">1</text><!--link Document to DocumentPartyRole--><path d="M1264.9,142.8 C1150.41,164.18 998.155,215.78 998.155,339 C998.155,339 998.155,339 998.155,536 C998.155,579.908 977.493,586.858 962.155,628 C944.035,676.603 923.155,686.129 923.155,738 C923.155,738 923.155,738 923.155,893 C923.155,923.913 909.84,958.019 900.951,977.345 " fill="none" id="Document-DocumentPartyRole" style="stroke: #A80036; stroke-width: 1.0;"/><polygon fill="#A80036" points="898.797,981.929,906.2437,975.4834,900.9227,977.4034,899.0027,972.0823,898.797,981.929" style="stroke: #A80036; stroke-width: 1.0;"/><text fill="#000000" font-family="sans-serif" font-size="13" lengthAdjust="spacingAndGlyphs" textLength="60" x="963.155" y="641.0669">PartyRole</text><text fill="#000000" font-family="sans-serif" font-size="13" lengthAdjust="spacingAndGlyphs" textLength="7" x="891.1036" y="970.9528">*</text><!--link Document to Transport--><path d="M1264.84,157.66 C1144.32,186.88 975.614,229.25 947.155,244 C917.752,259.24 909.91,265.42 890.155,292 C847.999,348.72 857.098,373.98 827.155,438 C785.384,527.3 727.155,537.413 727.155,636 C727.155,636 727.155,636 727.155,791 C727.155,843.796 553.674,874.679 474.605,886.013 " fill="none" id="Document-Transport" style="stroke: #A80036; stroke-width: 1.0;"/><polygon fill="#A80036" points="469.536,886.731,479.0082,889.4287,474.4865,886.0295,477.8858,881.5079,469.536,886.731" style="stroke: #A80036; stroke-width: 1.0;"/><text fill="#000000" font-family="sans-serif" font-size="13" lengthAdjust="spacingAndGlyphs" textLength="61" x="739.155" y="590.0669">Transport</text><text fill="#000000" font-family="sans-serif" font-size="13" lengthAdjust="spacingAndGlyphs" textLength="8" x="478.1225" y="879.6328">1</text><!--link Document to Guarantee--><path d="M1264.62,164.43 C1197.04,182.61 1111.7,203.01 1034.15,214 C733.313,256.64 648.652,182.2 351.155,244 C329.254,248.55 325.812,256.4 304.155,262 C257.874,273.96 127.766,261.27 91.1547,292 C1.5565,367.21 -3.9162,428.582 15.1547,544 C27.0922,616.246 30.7585,637.044 68.1547,700 C85.8109,729.724 114.649,758.009 132.999,774.423 " fill="none" id="Document-Guarantee" style="stroke: #A80036; stroke-width: 1.0;"/><polygon fill="#A80036" points="136.973,777.939,132.8831,768.9795,133.2283,774.6258,127.582,774.971,136.973,777.939" style="stroke: #A80036; stroke-width: 1.0;"/><text fill="#000000" font-family="sans-serif" font-size="13" lengthAdjust="spacingAndGlyphs" textLength="68" x="16.1547" y="539.0669">Guarantee</text><text fill="#000000" font-family="sans-serif" font-size="13" lengthAdjust="spacingAndGlyphs" textLength="7" x="122.8089" y="766.9662">*</text><!--link Document to GenericIdentification--><path d="M1264.84,163.13 C1197.15,180.98 1111.63,201.49 1034.15,214 C874.341,239.8 823.492,189.23 671.155,244 C636,256.64 628.223,265.24 602.155,292 C547.964,347.63 573.988,400.19 506.155,438 C492.222,445.766 230.275,434.565 219.155,446 C186.662,479.411 260.951,623.036 287.315,671.192 " fill="none" id="Document-GenericIdentification" style="stroke: #A80036; stroke-width: 1.0;"/><polygon fill="#A80036" points="289.855,675.807,289.0184,665.9937,287.4435,671.4269,282.0103,669.8521,289.855,675.807" style="stroke: #A80036; stroke-width: 1.0;"/><text fill="#000000" font-family="sans-serif" font-size="13" lengthAdjust="spacingAndGlyphs" textLength="148" x="220.155" y="486.0669">DocumentIdentification</text><text fill="#000000" font-family="sans-serif" font-size="13" lengthAdjust="spacingAndGlyphs" textLength="8" x="277.0291" y="665.0465">1</text><!--link Document to Evidence--><path d="M1264.5,161.16 C1196.7,178.44 1111.19,199.04 1034.15,214 C989.174,222.74 866.108,215.59 830.155,244 C767.08,293.83 801.077,341.12 763.155,412 C736.169,462.437 730.953,477.905 690.155,518 C667.597,540.169 636.71,559.403 615.051,571.506 " fill="none" id="Document-Evidence" style="stroke: #A80036; stroke-width: 1.0;"/><polygon fill="#A80036" points="610.576,573.978,620.388,573.1264,614.9524,571.5599,616.5189,566.1242,610.576,573.978" style="stroke: #A80036; stroke-width: 1.0;"/><text fill="#000000" font-family="sans-serif" font-size="13" lengthAdjust="spacingAndGlyphs" textLength="57" x="760.155" y="433.0669">Evidence</text><text fill="#000000" font-family="sans-serif" font-size="13" lengthAdjust="spacingAndGlyphs" textLength="7" x="608.2207" y="563.0187">*</text><!--link Document to CommercialTrade--><path d="M1264.71,162.31 C1196.98,179.93 1111.46,200.48 1034.15,214 C913.046,235.18 878.265,213.52 759.155,244 C705.101,257.83 677.371,247.93 643.155,292 C602.829,343.94 608.789,428.881 613.514,464.483 " fill="none" id="Document-CommercialTrade" style="stroke: #A80036; stroke-width: 1.0;"/><polygon fill="#A80036" points="614.255,469.761,616.9665,460.2927,613.5607,464.8094,609.044,461.4036,614.255,469.761" style="stroke: #A80036; stroke-width: 1.0;"/><text fill="#000000" font-family="sans-serif" font-size="13" lengthAdjust="spacingAndGlyphs" textLength="113" x="644.155" y="344.0669">CommercialTrade</text><text fill="#000000" font-family="sans-serif" font-size="13" lengthAdjust="spacingAndGlyphs" textLength="7" x="604.135" y="458.9853">*</text><!--link Document to Presentation--><path d="M1264.89,156.47 C1150.1,183.74 994.092,223.66 972.155,244 C877.211,332.04 917.162,396.225 873.155,518 C819.83,665.559 861.116,736.152 753.155,850 C740.161,863.703 721.861,873.022 704.653,879.265 " fill="none" id="Document-Presentation" style="stroke: #A80036; stroke-width: 1.0;"/><polygon fill="#A80036" points="699.834,880.946,709.6491,881.7609,704.5554,879.3003,707.016,874.2066,699.834,880.946" style="stroke: #A80036; stroke-width: 1.0;"/><text fill="#000000" font-family="sans-serif" font-size="13" lengthAdjust="spacingAndGlyphs" textLength="81" x="857.155" y="590.0669">Presentation</text><text fill="#000000" font-family="sans-serif" font-size="13" lengthAdjust="spacingAndGlyphs" textLength="24" x="707.9751" y="874.1529">0..1</text><!--link Document to RegisteredContract--><path d="M1264.6,164.35 C1197.03,182.5 1111.68,202.9 1034.15,214 C751.393,254.48 671.069,182.36 392.155,244 C371.524,248.56 368.472,256.2 348.155,262 C271.432,283.9 231.386,239.67 171.155,292 C85.9519,366.03 94.1547,421.131 94.1547,534 C94.1547,534 94.1547,534 94.1547,689 C94.1547,726.947 201.096,759.73 268.818,776.685 " fill="none" id="Document-RegisteredContract" style="stroke: #A80036; stroke-width: 1.0;"/><polygon fill="#A80036" points="274.028,777.978,266.2564,771.9281,269.1752,776.7737,264.3295,779.6926,274.028,777.978" style="stroke: #A80036; stroke-width: 1.0;"/><text fill="#000000" font-family="sans-serif" font-size="13" lengthAdjust="spacingAndGlyphs" textLength="103" x="95.1547" y="539.0669">RelatedContract</text><text fill="#000000" font-family="sans-serif" font-size="13" lengthAdjust="spacingAndGlyphs" textLength="8" x="246.4218" y="767.0187">1</text><!--link PrivateCertificate to PersonProfile--><path d="M1398.15,388.007 C1398.15,414.356 1398.15,445.593 1398.15,464.327 " fill="none" id="PrivateCertificate-PersonProfile" style="stroke: #A80036; stroke-width: 1.0;"/><polygon fill="#A80036" points="1398.15,469.72,1402.15,460.72,1398.15,464.72,1394.15,460.72,1398.15,469.72" style="stroke: #A80036; stroke-width: 1.0;"/><text fill="#000000" font-family="sans-serif" font-size="13" lengthAdjust="spacingAndGlyphs" textLength="44" x="1399.15" y="433.0669">Person</text><text fill="#000000" font-family="sans-serif" font-size="13" lengthAdjust="spacingAndGlyphs" textLength="24" x="1368.7609" y="458.9307">0..1</text><!--link ContactPoint to GenericIdentification--><path d="M144.55,139.07 C181.746,156.89 253.255,194.97 300.155,244 C366.679,313.54 363.11,350.94 378.155,446 C392.682,537.789 358.331,562.689 317.155,646 C312.988,654.431 308.218,663.767 304.278,671.399 " fill="none" id="ContactPoint-GenericIdentification" style="stroke: #A80036; stroke-width: 1.0;"/><polygon fill="#A80036" points="301.945,675.906,309.6325,669.7495,304.242,671.4649,302.5267,666.0743,301.945,675.906" style="stroke: #A80036; stroke-width: 1.0;"/><text fill="#000000" font-family="sans-serif" font-size="13" lengthAdjust="spacingAndGlyphs" textLength="81" x="383.155" y="486.0669">Identification</text><text fill="#000000" font-family="sans-serif" font-size="13" lengthAdjust="spacingAndGlyphs" textLength="8" x="293.1306" y="664.9219">1</text><!--link ContactPoint to ContactPoint--><path d="M133.572,114.8 C160.792,96.23 198.155,100.3 198.155,127 C198.155,152.24 164.766,157.26 138.121,142.05 " fill="none" id="ContactPoint-ContactPoint" style="stroke: #A80036; stroke-width: 1.0;"/><polygon fill="#A80036" points="133.572,139.2,139.0865,147.3603,137.8128,141.8487,143.3244,140.575,133.572,139.2" style="stroke: #A80036; stroke-width: 1.0;"/><text fill="#000000" font-family="sans-serif" font-size="13" lengthAdjust="spacingAndGlyphs" textLength="80" x="204.155" y="131.0669">MainContact</text><text fill="#000000" font-family="sans-serif" font-size="13" lengthAdjust="spacingAndGlyphs" textLength="8" x="127.7879" y="159.0561">1</text><!--link PaymentObligation to CommercialTrade--><path d="M270.463,352.04 C308.976,372.47 395.798,416.073 474.155,438 C499.214,445.013 507.048,439.161 532.155,446 C551.771,451.343 572.892,460.159 589.048,467.605 " fill="none" id="PaymentObligation-CommercialTrade" style="stroke: #A80036; stroke-width: 1.0;"/><polygon fill="#A80036" points="593.895,469.867,587.4304,462.4367,589.3639,467.7529,584.0478,469.6864,593.895,469.867" style="stroke: #A80036; stroke-width: 1.0;"/><text fill="#000000" font-family="sans-serif" font-size="13" lengthAdjust="spacingAndGlyphs" textLength="113" x="475.155" y="433.0669">CommercialTrade</text><text fill="#000000" font-family="sans-serif" font-size="13" lengthAdjust="spacingAndGlyphs" textLength="8" x="575.5244" y="458.8695">1</text><!--link Agreement to CommercialTrade--><path d="M842.8,1325.873 C861.167,1311.3781 889.155,1284.1759 889.155,1253 C889.155,1122 889.155,1122 889.155,1122 C889.155,1094.965 879.549,1087.812 861.155,1068 C837.53,1042.555 614.705,932.695 595.155,904 C221.525,355.6 505.506,669.54 540.155,574 C551.637,542.338 579.489,513.974 598.095,497.627 " fill="none" id="Agreement-CommercialTrade" style="stroke: #A80036; stroke-width: 1.0;"/><polygon fill="#A80036" points="602.146,494.128,592.7203,496.9837,598.362,497.3963,597.9495,503.0381,602.146,494.128" style="stroke: #A80036; stroke-width: 1.0;"/><text fill="#000000" font-family="sans-serif" font-size="13" lengthAdjust="spacingAndGlyphs" textLength="36" x="665.155" y="947.0669">Trade</text><text fill="#000000" font-family="sans-serif" font-size="13" lengthAdjust="spacingAndGlyphs" textLength="8" x="585.6612" y="513.9557">1</text><!--link Location to Transport--><path d="M611.832,1248.292 C541.147,1240.958 367.155,1217.75 367.155,1167 C367.155,993 367.155,993 367.155,993 C367.155,957.406 397.136,925.286 417.573,907.526 " fill="none" id="Location-Transport" style="stroke: #A80036; stroke-width: 1.0;"/><polygon fill="#A80036" points="421.522,904.169,412.074,906.9502,417.7123,907.4073,417.2552,913.0456,421.522,904.169" style="stroke: #A80036; stroke-width: 1.0;"/><text fill="#000000" font-family="sans-serif" font-size="13" lengthAdjust="spacingAndGlyphs" textLength="201" x="368.155" y="1084.0669">DepartureTransportParameters</text><text fill="#000000" font-family="sans-serif" font-size="13" lengthAdjust="spacingAndGlyphs" textLength="24" x="385.5431" y="924.0129">0..1</text><!--link Location to Transport--><path d="M641.155,1239.858 C641.155,1223.771 641.155,1193.104 641.155,1167 C641.155,993 641.155,993 641.155,993 C641.155,919.774 534.191,900.159 474.792,894.911 " fill="none" id="Location-Transport" style="stroke: #A80036; stroke-width: 1.0;"/><polygon fill="#A80036" points="469.548,894.474,478.1842,899.2086,474.5307,894.8898,478.8495,891.2363,469.548,894.474" style="stroke: #A80036; stroke-width: 1.0;"/><text fill="#000000" font-family="sans-serif" font-size="13" lengthAdjust="spacingAndGlyphs" textLength="209" x="642.155" y="1084.0669">DestinationTransportParameters</text><text fill="#000000" font-family="sans-serif" font-size="13" lengthAdjust="spacingAndGlyphs" textLength="24" x="477.8712" y="908.395">0..1</text><!--link Location to Transport--><path d="M611.89,1251.535 C529.026,1251.213 293.538,1237.147 212.155,1092 C185.758,1044.921 349.349,943.404 412.257,906.642 " fill="none" id="Location-Transport" style="stroke: #A80036; stroke-width: 1.0;"/><polygon fill="#A80036" points="416.608,904.109,406.8176,905.1801,412.2869,906.6245,410.8424,912.0939,416.608,904.109" style="stroke: #A80036; stroke-width: 1.0;"/><text fill="#000000" font-family="sans-serif" font-size="13" lengthAdjust="spacingAndGlyphs" textLength="109" x="213.155" y="1084.0669">RelatedTransport</text><text fill="#000000" font-family="sans-serif" font-size="13" lengthAdjust="spacingAndGlyphs" textLength="8" x="410.3879" y="923.9292">1</text><!--link Location to GenericIdentification--><path d="M611.863,1248.879 C532.008,1242.572 312.76,1221.599 257.155,1178 C221.451,1150.005 221.34,1133.114 202.155,1092 C142.689,964.564 182.12,905.637 241.155,778 C253.807,750.644 273.166,721.358 285.221,704.138 " fill="none" id="Location-GenericIdentification" style="stroke: #A80036; stroke-width: 1.0;"/><polygon fill="#A80036" points="288.12,700.029,279.6641,705.0786,285.2383,704.1151,286.2018,709.6893,288.12,700.029" style="stroke: #A80036; stroke-width: 1.0;"/><text fill="#000000" font-family="sans-serif" font-size="13" lengthAdjust="spacingAndGlyphs" textLength="81" x="176.155" y="998.0669">Identification</text><text fill="#000000" font-family="sans-serif" font-size="13" lengthAdjust="spacingAndGlyphs" textLength="7" x="274.8462" y="720.1854">*</text><!--link GenericIdentification to RegisteredContract--><path d="M299.147,700.084 C303.932,717.804 313.324,752.591 318.836,773.005 " fill="none" id="GenericIdentification-RegisteredContract" style="stroke: #A80036; stroke-width: 1.0;"/><polygon fill="#A80036" points="320.149,777.867,321.6629,768.1352,318.8448,773.0401,313.9399,770.2219,320.149,777.867" style="stroke: #A80036; stroke-width: 1.0;"/><text fill="#000000" font-family="sans-serif" font-size="13" lengthAdjust="spacingAndGlyphs" textLength="113" x="313.155" y="743.0669">RelatedCertificate</text><text fill="#000000" font-family="sans-serif" font-size="13" lengthAdjust="spacingAndGlyphs" textLength="8" x="308.3969" y="766.8695">1</text></g></svg>