<?xml version="1.0" encoding="UTF-8" standalone="no"?><svg xmlns="http://www.w3.org/2000/svg" xmlns:xlink="http://www.w3.org/1999/xlink" contentScriptType="application/ecmascript" contentStyleType="text/css" height="398px" preserveAspectRatio="none" style="width:2844px;height:398px;" version="1.1" viewBox="0 0 2844 398" width="2844px" zoomAndPan="magnify"><defs><filter height="300%" id="f1jqkmhcetwfi2" width="300%" x="-1" y="-1"><feGaussianBlur result="blurOut" stdDeviation="2.0"/><feColorMatrix in="blurOut" result="blurOut2" type="matrix" values="0 0 0 0 0 0 0 0 0 0 0 0 0 0 0 0 0 0 .4 0"/><feOffset dx="4.0" dy="4.0" in="blurOut2" result="blurOut3"/><feBlend in="SourceGraphic" in2="blurOut3" mode="normal"/></filter></defs><g><!--cluster ##1740--><!--cluster ##1743--><!--class ProductQuantity--><a target="_top" xlink:actuate="onRequest" xlink:href="../ProductQuantity.html" xlink:show="new" xlink:title="Specifies the ordered quantity of a product." xlink:type="simple"><rect fill="#FEFECE" filter="url(#f1jqkmhcetwfi2)" height="70.3828" id="ProductQuantity" style="stroke: #A80036; stroke-width: 1.5;" width="234" x="1536" y="40"/><rect fill="#FEFECE" height="23.9688" style="stroke: #A80036; stroke-width: 1.5;" width="234" x="1536" y="40"/><text fill="#000000" font-family="sans-serif" font-size="12" lengthAdjust="spacingAndGlyphs" textLength="101" x="1602.5" y="56.1387">ProductQuantity</text><line style="stroke: #A80036; stroke-width: 1.5;" x1="1537" x2="1769" y1="63.9688" y2="63.9688"/><ellipse cx="1547" cy="75.8711" fill="#84BE84" rx="3" ry="3" style="stroke: #038048; stroke-width: 1.0;"/><text fill="#000000" font-family="sans-serif" font-size="11" lengthAdjust="spacingAndGlyphs" textLength="84" x="1556" y="78.1792">UnitOfMeasure</text><text fill="#000000" font-family="sans-serif" font-size="11" font-style="italic" lengthAdjust="spacingAndGlyphs" textLength="120" x="1644" y="78.1792">(UnitOfMeasureCode)</text><ellipse cx="1547" cy="88.6758" fill="#84BE84" rx="3" ry="3" style="stroke: #038048; stroke-width: 1.0;"/><text fill="#000000" font-family="sans-serif" font-size="11" lengthAdjust="spacingAndGlyphs" textLength="31" x="1556" y="90.9839">Value</text><text fill="#000000" font-family="sans-serif" font-size="11" font-style="italic" lengthAdjust="spacingAndGlyphs" textLength="98" x="1591" y="90.9839">(DecimalNumber)</text><ellipse cx="1547" cy="101.4805" fill="#84BE84" rx="3" ry="3" style="stroke: #038048; stroke-width: 1.0;"/><text fill="#000000" font-family="sans-serif" font-size="11" lengthAdjust="spacingAndGlyphs" textLength="35" x="1556" y="103.7886">Factor</text><text fill="#000000" font-family="sans-serif" font-size="11" font-style="italic" lengthAdjust="spacingAndGlyphs" textLength="117" x="1595" y="103.7886">(Max15NumericText)</text></a><!--class Product--><a target="_top" xlink:actuate="onRequest" xlink:href="../Product.html" xlink:show="new" xlink:title="Item that is offered for sale. Products can be services or goods." xlink:type="simple"><rect fill="#EEEEEE" filter="url(#f1jqkmhcetwfi2)" height="23.9688" id="Product" style="stroke: #A80036; stroke-width: 1.5;" width="55" x="77.75" y="63"/><rect fill="#EEEEEE" height="23.9688" style="stroke: #A80036; stroke-width: 1.5;" width="55" x="77.75" y="63"/><text fill="#000000" font-family="sans-serif" font-size="12" lengthAdjust="spacingAndGlyphs" textLength="49" x="80.75" y="79.1387">Product</text></a><!--class LineItem--><a target="_top" xlink:actuate="onRequest" xlink:href="../LineItem.html" xlink:show="new" xlink:title="Unit of information  showing the related  provision of products and/or services and monetary summations reported as a discrete line item." xlink:type="simple"><rect fill="#EEEEEE" filter="url(#f1jqkmhcetwfi2)" height="23.9688" id="LineItem" style="stroke: #A80036; stroke-width: 1.5;" width="58" x="38.5" y="190"/><rect fill="#EEEEEE" height="23.9688" style="stroke: #A80036; stroke-width: 1.5;" width="58" x="38.5" y="190"/><text fill="#000000" font-family="sans-serif" font-size="12" lengthAdjust="spacingAndGlyphs" textLength="52" x="41.5" y="206.1387">LineItem</text></a><!--class Packaging--><a target="_top" xlink:actuate="onRequest" xlink:href="../Packaging.html" xlink:show="new" xlink:title="Physical packaging of goods for transport." xlink:type="simple"><rect fill="#EEEEEE" filter="url(#f1jqkmhcetwfi2)" height="23.9688" id="Packaging" style="stroke: #A80036; stroke-width: 1.5;" width="71" x="127.75" y="292"/><rect fill="#EEEEEE" height="23.9688" style="stroke: #A80036; stroke-width: 1.5;" width="71" x="127.75" y="292"/><text fill="#000000" font-family="sans-serif" font-size="12" lengthAdjust="spacingAndGlyphs" textLength="65" x="130.75" y="308.1387">Packaging</text></a><!--class Tolerance--><a target="_top" xlink:actuate="onRequest" xlink:href="../Tolerance.html" xlink:show="new" xlink:title="Variance allowed on a quantity or on a price." xlink:type="simple"><rect fill="#EEEEEE" filter="url(#f1jqkmhcetwfi2)" height="23.9688" id="Tolerance" style="stroke: #A80036; stroke-width: 1.5;" width="68" x="131" y="190"/><rect fill="#EEEEEE" height="23.9688" style="stroke: #A80036; stroke-width: 1.5;" width="68" x="131" y="190"/><text fill="#000000" font-family="sans-serif" font-size="12" lengthAdjust="spacingAndGlyphs" textLength="62" x="134" y="206.1387">Tolerance</text></a><!--link LineItem to Product--><!--link Product to LineItem--><path d="M95.7397,87.288 C86.1426,99.781 71.7558,120.945 66,142 C62.158,156.054 62.8934,172.702 64.3061,184.724 " fill="none" id="Product-LineItem" style="stroke: #A80036; stroke-width: 1.0;"/><polygon fill="#A80036" points="64.9888,189.896,67.7767,180.45,64.3345,184.939,59.8455,181.4968,64.9888,189.896" style="stroke: #A80036; stroke-width: 1.0;"/><text fill="#000000" font-family="sans-serif" font-size="13" lengthAdjust="spacingAndGlyphs" textLength="55" x="67" y="155.0669">LineItem</text><text fill="#000000" font-family="sans-serif" font-size="13" lengthAdjust="spacingAndGlyphs" textLength="24" x="34.6568" y="178.9085">0..1</text><!--link Packaging to LineItem--><!--link LineItem to Packaging--><path d="M64.5922,214.109 C62.488,226.869 61.1245,247.859 71,262 C82.8972,279.0358 103.5717,289.0902 122.312,294.9739 " fill="none" id="LineItem-Packaging" style="stroke: #A80036; stroke-width: 1.0;"/><polygon fill="#A80036" points="127.537,296.5251,120.0474,290.1293,122.7437,295.1022,117.7708,297.7986,127.537,296.5251" style="stroke: #A80036; stroke-width: 1.0;"/><text fill="#000000" font-family="sans-serif" font-size="13" lengthAdjust="spacingAndGlyphs" textLength="65" x="72" y="257.0669">Packaging</text><text fill="#000000" font-family="sans-serif" font-size="13" lengthAdjust="spacingAndGlyphs" textLength="7" x="112.6254" y="289.8604">*</text><!--link Tolerance to Packaging--><!--link ProductQuantity to Product--><path d="M1535.8,75 C1212.48,75 319.846,75 137.706,75 " fill="none" id="ProductQuantity-Product" style="stroke: #A80036; stroke-width: 1.0;"/><polygon fill="#A80036" points="132.525,75,141.525,79,137.525,75,141.525,71,132.525,75" style="stroke: #A80036; stroke-width: 1.0;"/><text fill="#000000" font-family="sans-serif" font-size="13" lengthAdjust="spacingAndGlyphs" textLength="49" x="809" y="67.0669">Product</text><text fill="#000000" font-family="sans-serif" font-size="13" lengthAdjust="spacingAndGlyphs" textLength="7" x="140.7958" y="68.8046">*</text><!--link ProductQuantity to LineItem--><path d="M1535.79,78.189 C1209.2,84.718 304.376,105.872 175,142 C166.064,144.495 119.529,170.769 90.5351,187.403 " fill="none" id="ProductQuantity-LineItem" style="stroke: #A80036; stroke-width: 1.0;"/><polygon fill="#A80036" points="86.0407,189.985,95.8372,188.9706,90.3763,187.4945,91.8524,182.0336,86.0407,189.985" style="stroke: #A80036; stroke-width: 1.0;"/><text fill="#000000" font-family="sans-serif" font-size="13" lengthAdjust="spacingAndGlyphs" textLength="169" x="176" y="155.0669">NetWeightRelatedLineItem</text><text fill="#000000" font-family="sans-serif" font-size="13" lengthAdjust="spacingAndGlyphs" textLength="24" x="96.5391" y="179.0281">0..1</text><!--link ProductQuantity to LineItem--><path d="M1535.96,76.006 C1265.09,77.002 601.808,85.347 387,142 C369.703,146.562 368.118,154.807 351,160 C248.976,190.948 217.891,170.907 113,190 C108.935,190.74 104.6918,191.614 100.4965,192.54 " fill="none" id="ProductQuantity-LineItem" style="stroke: #A80036; stroke-width: 1.0;"/><polygon fill="#A80036" points="95.6072,193.648,105.2685,195.5609,100.4837,192.5434,103.5012,187.7586,95.6072,193.648" style="stroke: #A80036; stroke-width: 1.0;"/><text fill="#000000" font-family="sans-serif" font-size="13" lengthAdjust="spacingAndGlyphs" textLength="191" x="388" y="155.0669">BilledQuantityRelatedLineItem</text><text fill="#000000" font-family="sans-serif" font-size="13" lengthAdjust="spacingAndGlyphs" textLength="24" x="99.0629" y="205.4438">0..1</text><!--link ProductQuantity to LineItem--><path d="M1535.72,77.65 C1302.94,81.884 790.424,96.247 621,142 C603.73,146.664 602.271,155.34 585,160 C382.057,214.762 320.869,158.775 113,190 C108.915,190.614 104.6582,191.411 100.4559,192.296 " fill="none" id="ProductQuantity-LineItem" style="stroke: #A80036; stroke-width: 1.0;"/><polygon fill="#A80036" points="95.5611,193.37,105.2091,195.349,100.445,192.2988,103.4952,187.5347,95.5611,193.37" style="stroke: #A80036; stroke-width: 1.0;"/><text fill="#000000" font-family="sans-serif" font-size="13" lengthAdjust="spacingAndGlyphs" textLength="231" x="622" y="155.0669">ChargeFreeQuantityRelatedLineItem</text><text fill="#000000" font-family="sans-serif" font-size="13" lengthAdjust="spacingAndGlyphs" textLength="24" x="99.0006" y="183.4351">0..1</text><!--link ProductQuantity to LineItem--><path d="M1535.72,80.836 C1353.76,89.245 1012.19,108.903 895,142 C877.785,146.862 876.324,155.541 859,160 C698.325,201.356 277.347,167.266 113,190 C108.908,190.566 104.6471,191.335 100.4426,192.204 " fill="none" id="ProductQuantity-LineItem" style="stroke: #A80036; stroke-width: 1.0;"/><polygon fill="#A80036" points="95.5459,193.265,105.1889,195.2682,100.4325,192.2061,103.4946,187.4497,95.5459,193.265" style="stroke: #A80036; stroke-width: 1.0;"/><text fill="#000000" font-family="sans-serif" font-size="13" lengthAdjust="spacingAndGlyphs" textLength="141" x="896" y="155.0669">MeasureQuantityStart</text><text fill="#000000" font-family="sans-serif" font-size="13" lengthAdjust="spacingAndGlyphs" textLength="8" x="104.6945" y="204.4239">1</text><!--link ProductQuantity to LineItem--><path d="M1535.73,77.602 C1418.02,81.951 1232.6,96.322 1079,142 C1061.85,147.099 1060.34,155.61 1043,160 C842.549,210.745 317.935,162.481 113,190 C108.905,190.55 104.6436,191.308 100.4383,192.172 " fill="none" id="ProductQuantity-LineItem" style="stroke: #A80036; stroke-width: 1.0;"/><polygon fill="#A80036" points="95.5411,193.229,105.1823,195.2406,100.4286,192.1744,103.4949,187.4206,95.5411,193.229" style="stroke: #A80036; stroke-width: 1.0;"/><text fill="#000000" font-family="sans-serif" font-size="13" lengthAdjust="spacingAndGlyphs" textLength="133" x="1080" y="155.0669">MeasureQuantityEnd</text><text fill="#000000" font-family="sans-serif" font-size="13" lengthAdjust="spacingAndGlyphs" textLength="8" x="104.5527" y="204.9615">1</text><!--link ProductQuantity to LineItem--><path d="M1535.87,86.113 C1455.4,95.3 1346.93,112.147 1255,142 C1237.99,147.525 1236.35,155.654 1219,160 C980.497,219.728 356.764,157.903 113,190 C108.904,190.539 104.6413,191.292 100.4356,192.152 " fill="none" id="ProductQuantity-LineItem" style="stroke: #A80036; stroke-width: 1.0;"/><polygon fill="#A80036" points="95.538,193.206,105.178,195.2236,100.4262,192.1544,103.4954,187.4025,95.538,193.206" style="stroke: #A80036; stroke-width: 1.0;"/><text fill="#000000" font-family="sans-serif" font-size="13" lengthAdjust="spacingAndGlyphs" textLength="225" x="1256" y="155.0669">GrossPriceQuantityRelatedLineItem</text><text fill="#000000" font-family="sans-serif" font-size="13" lengthAdjust="spacingAndGlyphs" textLength="24" x="79.7488" y="178.7306">0..1</text><!--link ProductQuantity to LineItem--><path d="M1585.89,110.065 C1540.14,133.268 1487.71,159.824 1487,160 C1338.86,197.06 264.448,170.465 113,190 C108.903,190.528 104.6391,191.274 100.4328,192.131 " fill="none" id="ProductQuantity-LineItem" style="stroke: #A80036; stroke-width: 1.0;"/><polygon fill="#A80036" points="95.5349,193.182,105.1738,195.2047,100.4236,192.133,103.4954,187.3828,95.5349,193.182" style="stroke: #A80036; stroke-width: 1.0;"/><text fill="#000000" font-family="sans-serif" font-size="13" lengthAdjust="spacingAndGlyphs" textLength="211" x="1521" y="155.0669">NetPriceQuantityRelatedLineItem</text><text fill="#000000" font-family="sans-serif" font-size="13" lengthAdjust="spacingAndGlyphs" textLength="24" x="99.0438" y="202.0286">0..1</text><!--link ProductQuantity to LineItem--><path d="M1721.23,110.014 C1742.93,125.094 1757.5,143.195 1741,160 C1709.31,192.276 157.868,184.29 113,190 C108.902,190.522 104.6376,191.263 100.4311,192.118 " fill="none" id="ProductQuantity-LineItem" style="stroke: #A80036; stroke-width: 1.0;"/><polygon fill="#A80036" points="95.5329,193.167,105.171,195.1938,100.4221,192.12,103.4958,187.3711,95.5329,193.167" style="stroke: #A80036; stroke-width: 1.0;"/><text fill="#000000" font-family="sans-serif" font-size="13" lengthAdjust="spacingAndGlyphs" textLength="183" x="1750" y="155.0669">GrossWeightRelatedLineItem</text><text fill="#000000" font-family="sans-serif" font-size="13" lengthAdjust="spacingAndGlyphs" textLength="24" x="98.9625" y="183.1607">0..1</text><!--link ProductQuantity to Packaging--><path d="M1770.27,80.599 C1917.69,88.545 2146.19,109.198 2099,160 C2065.49,196.077 478.991,285.4989 203.549,300.766 " fill="none" id="ProductQuantity-Packaging" style="stroke: #A80036; stroke-width: 1.0;"/><polygon fill="#A80036" points="198.431,301.0494,207.6379,304.547,203.4234,300.7737,207.1967,296.5592,198.431,301.0494" style="stroke: #A80036; stroke-width: 1.0;"/><text fill="#000000" font-family="sans-serif" font-size="13" lengthAdjust="spacingAndGlyphs" textLength="113" x="1885" y="206.0669">RelatedPackaging</text><text fill="#000000" font-family="sans-serif" font-size="13" lengthAdjust="spacingAndGlyphs" textLength="24" x="206.8351" y="295.0913">0..1</text><!--link ProductQuantity to Packaging--><path d="M1770.28,77.201 C1923.99,81.232 2169.62,97.39 2129,160 C1982.31,386.0957 2641.73,185.288 1049,262 C722.839,277.7091 329.078,295.5261 203.518,301.1794 " fill="none" id="ProductQuantity-Packaging" style="stroke: #A80036; stroke-width: 1.0;"/><polygon fill="#A80036" points="198.452,301.4075,207.6224,304.9998,203.447,301.1832,207.2635,297.0078,198.452,301.4075" style="stroke: #A80036; stroke-width: 1.0;"/><text fill="#000000" font-family="sans-serif" font-size="13" lengthAdjust="spacingAndGlyphs" textLength="165" x="2113" y="206.0669">PackagingForUnitQuantity</text><text fill="#000000" font-family="sans-serif" font-size="13" lengthAdjust="spacingAndGlyphs" textLength="24" x="206.8599" y="314.3632">0..1</text><!--link ProductQuantity to Packaging--><path d="M1770.02,82.98 C1972.83,97.246 2361.34,135.264 2288,214 C2214.23,293.2026 492.525,301.9821 203.879,302.8981 " fill="none" id="ProductQuantity-Packaging" style="stroke: #A80036; stroke-width: 1.0;"/><polygon fill="#A80036" points="198.524,302.9147,207.5365,306.8864,203.524,302.899,207.5114,298.8864,198.524,302.9147" style="stroke: #A80036; stroke-width: 1.0;"/><text fill="#000000" font-family="sans-serif" font-size="13" lengthAdjust="spacingAndGlyphs" textLength="227" x="2299" y="206.0669">PackagingForConsignmentlQuantity</text><text fill="#000000" font-family="sans-serif" font-size="13" lengthAdjust="spacingAndGlyphs" textLength="24" x="206.3782" y="284.9643">0..1</text><!--link ProductQuantity to Packaging--><path d="M1770.23,76.291 C2033.43,78.995 2640.48,97.724 2536,214 C2454.8,304.3614 510.959,303.7732 203.727,303.1139 " fill="none" id="ProductQuantity-Packaging" style="stroke: #A80036; stroke-width: 1.0;"/><polygon fill="#A80036" points="198.466,303.1022,207.4568,307.1228,203.466,303.1136,207.4751,299.1228,198.466,303.1022" style="stroke: #A80036; stroke-width: 1.0;"/><text fill="#000000" font-family="sans-serif" font-size="13" lengthAdjust="spacingAndGlyphs" textLength="134" x="2548" y="206.0669">PackagingForVolume</text><text fill="#000000" font-family="sans-serif" font-size="13" lengthAdjust="spacingAndGlyphs" textLength="24" x="206.2346" y="325.0283">0..1</text><!--link ProductQuantity to Packaging--><path d="M1770.29,76.375 C1940.63,78.806 2265.78,90.565 2537,142 C2611.63,156.153 2741.71,156.564 2692,214 C2594.72,326.401 2509.16,249.9235 2361,262 C1918.5,298.0686 464.971,302.4415 203.483,302.9391 " fill="none" id="ProductQuantity-Packaging" style="stroke: #A80036; stroke-width: 1.0;"/><polygon fill="#A80036" points="198.254,302.9489,207.262,306.9309,203.254,302.9389,207.246,298.9309,198.254,302.9489" style="stroke: #A80036; stroke-width: 1.0;"/><text fill="#000000" font-family="sans-serif" font-size="13" lengthAdjust="spacingAndGlyphs" textLength="128" x="2704" y="206.0669">PackagingForWeight</text><text fill="#000000" font-family="sans-serif" font-size="13" lengthAdjust="spacingAndGlyphs" textLength="24" x="206.6266" y="316.1791">0..1</text><!--link ProductQuantity to Tolerance--><path d="M1770.48,89.624 C1872.05,103.75 1998.06,128.221 1967,160 C1935.11,192.625 465.134,199.836 204.343,200.859 " fill="none" id="ProductQuantity-Tolerance" style="stroke: #A80036; stroke-width: 1.0;"/><polygon fill="#A80036" points="199.131,200.88,208.1469,204.844,204.131,200.86,208.1149,196.844,199.131,200.88" style="stroke: #A80036; stroke-width: 1.0;"/><text fill="#000000" font-family="sans-serif" font-size="13" lengthAdjust="spacingAndGlyphs" textLength="116" x="1973" y="155.0669">QuantityTolerance</text><text fill="#000000" font-family="sans-serif" font-size="13" lengthAdjust="spacingAndGlyphs" textLength="8" x="206.9955" y="194.9797">1</text></g></svg>