<?xml version="1.0" encoding="UTF-8" standalone="no"?><svg xmlns="http://www.w3.org/2000/svg" xmlns:xlink="http://www.w3.org/1999/xlink" contentScriptType="application/ecmascript" contentStyleType="text/css" height="772px" preserveAspectRatio="none" style="width:884px;height:772px;" version="1.1" viewBox="0 0 884 772" width="884px" zoomAndPan="magnify"><defs><filter height="300%" id="fn1qaa2aor65i" width="300%" x="-1" y="-1"><feGaussianBlur result="blurOut" stdDeviation="2.0"/><feColorMatrix in="blurOut" result="blurOut2" type="matrix" values="0 0 0 0 0 0 0 0 0 0 0 0 0 0 0 0 0 0 .4 0"/><feOffset dx="4.0" dy="4.0" in="blurOut2" result="blurOut3"/><feBlend in="SourceGraphic" in2="blurOut3" mode="normal"/></filter></defs><g><!--cluster ##13234--><!--cluster ##13240--><!--cluster ##13243--><!--class ObligationFulfilment--><a target="_top" xlink:actuate="onRequest" xlink:href="../ObligationFulfilment.html" xlink:show="new" xlink:title="Processes by which an obligation is extinguished fully or partially." xlink:type="simple"><rect fill="#FEFEEE" filter="url(#fn1qaa2aor65i)" height="44.7734" id="ObligationFulfilment" style="stroke: #A80036; stroke-width: 1.5;" width="129" x="346.75" y="40.5"/><rect fill="#FEFEEE" height="23.9688" style="stroke: #A80036; stroke-width: 1.5;" width="129" x="346.75" y="40.5"/><text fill="#000000" font-family="sans-serif" font-size="12" lengthAdjust="spacingAndGlyphs" textLength="123" x="349.75" y="56.6387">ObligationFulfilment</text><line style="stroke: #A80036; stroke-width: 1.5;" x1="347.75" x2="474.75" y1="64.4688" y2="64.4688"/><ellipse cx="357.75" cy="76.3711" fill="#84BE84" rx="3" ry="3" style="stroke: #038048; stroke-width: 1.0;"/><text fill="#000000" font-family="sans-serif" font-size="11" lengthAdjust="spacingAndGlyphs" textLength="26" x="366.75" y="78.6792">Date</text><text fill="#000000" font-family="sans-serif" font-size="11" font-style="italic" lengthAdjust="spacingAndGlyphs" textLength="53" x="396.75" y="78.6792">(ISODate)</text></a><!--class ProductDelivery--><a target="_top" xlink:actuate="onRequest" xlink:href="../ProductDelivery.html" xlink:show="new" xlink:title="Arrangements for delivery of invoiced products and/or services." xlink:type="simple"><rect fill="#FEFECE" filter="url(#fn1qaa2aor65i)" height="23.9688" id="ProductDelivery" style="stroke: #A80036; stroke-width: 1.5;" width="103" x="346.75" y="168"/><rect fill="#FEFECE" height="23.9688" style="stroke: #A80036; stroke-width: 1.5;" width="103" x="346.75" y="168"/><text fill="#000000" font-family="sans-serif" font-size="12" lengthAdjust="spacingAndGlyphs" textLength="97" x="349.75" y="184.1387">ProductDelivery</text></a><!--class Obligation--><a target="_top" xlink:actuate="onRequest" xlink:href="../Obligation.html" xlink:show="new" xlink:title="Specifies the assets (quantity of securities, goods, services, and cash amounts) that have to be delivered." xlink:type="simple"><rect fill="#EEEEEE" filter="url(#fn1qaa2aor65i)" height="23.9688" id="Obligation" style="stroke: #A80036; stroke-width: 1.5;" width="69" x="551.75" y="168"/><rect fill="#EEEEEE" height="23.9688" style="stroke: #A80036; stroke-width: 1.5;" width="69" x="551.75" y="168"/><text fill="#000000" font-family="sans-serif" font-size="12" lengthAdjust="spacingAndGlyphs" textLength="63" x="554.75" y="184.1387">Obligation</text></a><!--class DateTimePeriod--><a target="_top" xlink:actuate="onRequest" xlink:href="../DateTimePeriod.html" xlink:show="new" xlink:title="Time span defined by a start date and time, and an end date and time." xlink:type="simple"><rect fill="#EEEEEE" filter="url(#fn1qaa2aor65i)" height="23.9688" id="DateTimePeriod" style="stroke: #A80036; stroke-width: 1.5;" width="105" x="477.75" y="378"/><rect fill="#EEEEEE" height="23.9688" style="stroke: #A80036; stroke-width: 1.5;" width="105" x="477.75" y="378"/><text fill="#000000" font-family="sans-serif" font-size="12" lengthAdjust="spacingAndGlyphs" textLength="99" x="480.75" y="394.1387">DateTimePeriod</text></a><!--class Transport--><a target="_top" xlink:actuate="onRequest" xlink:href="../Transport.html" xlink:show="new" xlink:title="Moving of goods or people from one place to another by vehicle." xlink:type="simple"><rect fill="#EEEEEE" filter="url(#fn1qaa2aor65i)" height="23.9688" id="Transport" style="stroke: #A80036; stroke-width: 1.5;" width="67" x="368.75" y="738"/><rect fill="#EEEEEE" height="23.9688" style="stroke: #A80036; stroke-width: 1.5;" width="67" x="368.75" y="738"/><text fill="#000000" font-family="sans-serif" font-size="12" lengthAdjust="spacingAndGlyphs" textLength="61" x="371.75" y="754.1387">Transport</text></a><!--class CommercialTradeSettlement--><a target="_top" xlink:actuate="onRequest" xlink:href="../CommercialTradeSettlement.html" xlink:show="new" xlink:title="Settlement of a commercial trade, that is, the instruction to deliver goods or services against the payment of an amount of money." xlink:type="simple"><rect fill="#EEEEEE" filter="url(#fn1qaa2aor65i)" height="23.9688" id="CommercialTradeSettlement" style="stroke: #A80036; stroke-width: 1.5;" width="183" x="310.75" y="652"/><rect fill="#EEEEEE" height="23.9688" style="stroke: #A80036; stroke-width: 1.5;" width="183" x="310.75" y="652"/><text fill="#000000" font-family="sans-serif" font-size="12" lengthAdjust="spacingAndGlyphs" textLength="177" x="313.75" y="668.1387">CommercialTradeSettlement</text></a><!--class ProductDeliveryObligation--><a target="_top" xlink:actuate="onRequest" xlink:href="../ProductDeliveryObligation.html" xlink:show="new" xlink:title="Obligation for the seller  to deliver goods or services to the buyer." xlink:type="simple"><rect fill="#EEEEEE" filter="url(#fn1qaa2aor65i)" height="23.9688" id="ProductDeliveryObligation" style="stroke: #A80036; stroke-width: 1.5;" width="166" x="319" y="566"/><rect fill="#EEEEEE" height="23.9688" style="stroke: #A80036; stroke-width: 1.5;" width="166" x="319" y="566"/><text fill="#000000" font-family="sans-serif" font-size="12" lengthAdjust="spacingAndGlyphs" textLength="160" x="322" y="582.1387">ProductDeliveryObligation</text></a><!--class TradeCertificate--><a target="_top" xlink:actuate="onRequest" xlink:href="../TradeCertificate.html" xlink:show="new" xlink:title="Formal document used to record a fact and used as proof of the fact, in the context of a commercial trade transaction." xlink:type="simple"><rect fill="#EEEEEE" filter="url(#fn1qaa2aor65i)" height="23.9688" id="TradeCertificate" style="stroke: #A80036; stroke-width: 1.5;" width="106" x="361.5" y="480"/><rect fill="#EEEEEE" height="23.9688" style="stroke: #A80036; stroke-width: 1.5;" width="106" x="361.5" y="480"/><text fill="#000000" font-family="sans-serif" font-size="12" lengthAdjust="spacingAndGlyphs" textLength="100" x="364.5" y="496.1387">TradeCertificate</text></a><!--class InsuranceCertificate--><a target="_top" xlink:actuate="onRequest" xlink:href="../InsuranceCertificate.html" xlink:show="new" xlink:title="Formal document used to record a fact and used as proof of the fact that goods have been insured under an insurance policy." xlink:type="simple"><rect fill="#EEEEEE" filter="url(#fn1qaa2aor65i)" height="23.9688" id="InsuranceCertificate" style="stroke: #A80036; stroke-width: 1.5;" width="132" x="310" y="378"/><rect fill="#EEEEEE" height="23.9688" style="stroke: #A80036; stroke-width: 1.5;" width="132" x="310" y="378"/><text fill="#000000" font-family="sans-serif" font-size="12" lengthAdjust="spacingAndGlyphs" textLength="126" x="313" y="394.1387">InsuranceCertificate</text></a><!--class Product--><a target="_top" xlink:actuate="onRequest" xlink:href="../Product.html" xlink:show="new" xlink:title="Item that is offered for sale. Products can be services or goods." xlink:type="simple"><rect fill="#EEEEEE" filter="url(#fn1qaa2aor65i)" height="23.9688" id="Product" style="stroke: #A80036; stroke-width: 1.5;" width="55" x="527.75" y="276"/><rect fill="#EEEEEE" height="23.9688" style="stroke: #A80036; stroke-width: 1.5;" width="55" x="527.75" y="276"/><text fill="#000000" font-family="sans-serif" font-size="12" lengthAdjust="spacingAndGlyphs" textLength="49" x="530.75" y="292.1387">Product</text></a><!--link ObligationFulfilment to ProductDelivery--><path d="M392.155,104.236 C390.879,108.148 389.789,112.109 389,116 C385.354,133.975 390.221,155.128 394.093,167.78 " fill="none" id="ObligationFulfilment-ProductDelivery" style="stroke: #A80036; stroke-width: 1.0;"/><polygon fill="none" points="385.656,101.637,399.553,85.641,398.664,106.812,385.656,101.637" style="stroke: #A80036; stroke-width: 1.0;"/><!--link Transport to DateTimePeriod--><!--link CommercialTradeSettlement to Transport--><!--link ProductDeliveryObligation to CommercialTradeSettlement--><!--link TradeCertificate to ProductDeliveryObligation--><!--link InsuranceCertificate to TradeCertificate--><!--link Product to InsuranceCertificate--><!--link ObligationFulfilment to Obligation--><path d="M475.265,77.531 C500.999,85.425 529.561,97.585 551,116 C565.54,128.489 575.211,148.59 580.634,162.721 " fill="none" id="ObligationFulfilment-Obligation" style="stroke: #A80036; stroke-width: 1.0;"/><polygon fill="#A80036" points="582.441,167.632,583.0864,157.8043,580.7141,162.9397,575.5787,160.5674,582.441,167.632" style="stroke: #A80036; stroke-width: 1.0;"/><text fill="#000000" font-family="sans-serif" font-size="13" lengthAdjust="spacingAndGlyphs" textLength="102" x="567" y="129.0669">ObligationOffset</text><text fill="#000000" font-family="sans-serif" font-size="13" lengthAdjust="spacingAndGlyphs" textLength="7" x="571.6886" y="156.8135">*</text><!--link ObligationFulfilment to Obligation--><path d="M406.698,85.628 C404.957,101.212 405.7,121.601 418,134 C429.649,145.743 475.939,138.047 492,142 C514.883,147.632 539.64,157.545 558.001,165.694 " fill="none" id="ObligationFulfilment-Obligation" style="stroke: #A80036; stroke-width: 1.0;"/><polygon fill="#A80036" points="563.003,167.94,556.4317,160.6039,558.4419,165.8916,553.1542,167.9017,563.003,167.94" style="stroke: #A80036; stroke-width: 1.0;"/><text fill="#000000" font-family="sans-serif" font-size="13" lengthAdjust="spacingAndGlyphs" textLength="122" x="419" y="129.0669">ResultingObligation</text><text fill="#000000" font-family="sans-serif" font-size="13" lengthAdjust="spacingAndGlyphs" textLength="7" x="545.465" y="156.9676">*</text><!--link ProductDelivery to DateTimePeriod--><path d="M397.076,192.058 C395.756,214.191 395.436,264.825 416,300 C436.245,334.63 475.619,360.698 502.362,375.405 " fill="none" id="ProductDelivery-DateTimePeriod" style="stroke: #A80036; stroke-width: 1.0;"/><polygon fill="#A80036" points="506.87,377.842,500.856,370.0425,502.4719,375.4637,497.0507,377.0795,506.87,377.842" style="stroke: #A80036; stroke-width: 1.0;"/><text fill="#000000" font-family="sans-serif" font-size="13" lengthAdjust="spacingAndGlyphs" textLength="91" x="417" y="292.0669">DeliveryPeriod</text><text fill="#000000" font-family="sans-serif" font-size="13" lengthAdjust="spacingAndGlyphs" textLength="8" x="488.1144" y="366.8359">1</text><!--link ProductDelivery to Transport--><path d="M346.35,184.14 C239.905,192.028 6,217.293 6,287 C6,287 6,287 6,665 C6,737.5828 263.8,747.7233 363.387,748.9327 " fill="none" id="ProductDelivery-Transport" style="stroke: #A80036; stroke-width: 1.0;"/><polygon fill="#A80036" points="368.579,748.9894,359.623,744.8919,363.5793,748.9351,359.5361,752.8915,368.579,748.9894" style="stroke: #A80036; stroke-width: 1.0;"/><text fill="#000000" font-family="sans-serif" font-size="13" lengthAdjust="spacingAndGlyphs" textLength="48" x="7" y="496.0669">Routing</text><text fill="#000000" font-family="sans-serif" font-size="13" lengthAdjust="spacingAndGlyphs" textLength="7" x="353.7798" y="743.3768">*</text><!--link ProductDelivery to CommercialTradeSettlement--><path d="M433.452,192.016 C460.928,200.201 500.075,211.1 535,218 C638.865,238.519 763,181.128 763,287 C763,287 763,287 763,579 C763,633.395 605.55,652.58 498.615,659.337 " fill="none" id="ProductDelivery-CommercialTradeSettlement" style="stroke: #A80036; stroke-width: 1.0;"/><polygon fill="#A80036" points="493.562,659.65,502.7917,663.0871,498.5525,659.3415,502.298,655.1023,493.562,659.65" style="stroke: #A80036; stroke-width: 1.0;"/><text fill="#000000" font-family="sans-serif" font-size="13" lengthAdjust="spacingAndGlyphs" textLength="108" x="764" y="445.0669">TradeSettlement</text><text fill="#000000" font-family="sans-serif" font-size="13" lengthAdjust="spacingAndGlyphs" textLength="24" x="501.7947" y="654.6994">0..1</text><!--link ProductDelivery to ProductDeliveryObligation--><path d="M346.511,189.094 C263.672,203.586 110,237.184 110,287 C110,287 110,287 110,493 C110,535.863 227.673,558.157 313.618,568.724 " fill="none" id="ProductDelivery-ProductDeliveryObligation" style="stroke: #A80036; stroke-width: 1.0;"/><polygon fill="#A80036" points="318.715,569.341,310.2614,564.2876,313.7513,568.7396,309.2992,572.2295,318.715,569.341" style="stroke: #A80036; stroke-width: 1.0;"/><text fill="#000000" font-family="sans-serif" font-size="13" lengthAdjust="spacingAndGlyphs" textLength="64" x="111" y="394.0669">Obligation</text><text fill="#000000" font-family="sans-serif" font-size="13" lengthAdjust="spacingAndGlyphs" textLength="24" x="286.945" y="564.2072">0..1</text><!--link ProductDelivery to TradeCertificate--><path d="M444.351,192.027 C475.128,199.978 516.129,211.79 551,226 C573.831,235.303 587.293,230.873 600,252 C634.36,309.13 631.267,343.12 600,402 C575.104,448.883 516.643,471.314 471.855,481.89 " fill="none" id="ProductDelivery-TradeCertificate" style="stroke: #A80036; stroke-width: 1.0;"/><polygon fill="#A80036" points="466.74,483.061,476.4056,484.952,471.6139,481.9454,474.6206,477.1537,466.74,483.061" style="stroke: #A80036; stroke-width: 1.0;"/><text fill="#000000" font-family="sans-serif" font-size="13" lengthAdjust="spacingAndGlyphs" textLength="101" x="625" y="343.0669">TradeCertificate</text><text fill="#000000" font-family="sans-serif" font-size="13" lengthAdjust="spacingAndGlyphs" textLength="7" x="475.6236" y="476.3616">*</text><!--link ProductDelivery to InsuranceCertificate--><path d="M346.715,186.785 C306.126,194.362 251.941,211.822 225,252 C188.45,306.508 284.044,353.922 339.546,375.926 " fill="none" id="ProductDelivery-InsuranceCertificate" style="stroke: #A80036; stroke-width: 1.0;"/><polygon fill="#A80036" points="344.457,377.849,337.5348,370.8431,339.8011,376.0261,334.6181,378.2924,344.457,377.849" style="stroke: #A80036; stroke-width: 1.0;"/><text fill="#000000" font-family="sans-serif" font-size="13" lengthAdjust="spacingAndGlyphs" textLength="127" x="226" y="292.0669">InsuranceCertificate</text><text fill="#000000" font-family="sans-serif" font-size="13" lengthAdjust="spacingAndGlyphs" textLength="7" x="324.0672" y="366.8453">*</text><!--link ProductDelivery to Product--><path d="M414.505,192.144 C443.17,211.497 502.114,251.293 533.777,272.671 " fill="none" id="ProductDelivery-Product" style="stroke: #A80036; stroke-width: 1.0;"/><polygon fill="#A80036" points="538.244,275.687,533.0252,267.3345,534.1008,272.8882,528.5471,273.9637,538.244,275.687" style="stroke: #A80036; stroke-width: 1.0;"/><text fill="#000000" font-family="sans-serif" font-size="13" lengthAdjust="spacingAndGlyphs" textLength="49" x="492" y="239.0669">Product</text><text fill="#000000" font-family="sans-serif" font-size="13" lengthAdjust="spacingAndGlyphs" textLength="8" x="521.9545" y="264.8868">1</text><!--link Obligation to Obligation--><path d="M620.437,170.261 C638.569,168.685 655,171.932 655,180 C655,187.312 641.505,190.664 625.48,190.055 " fill="none" id="Obligation-Obligation" style="stroke: #A80036; stroke-width: 1.0;"/><polygon fill="#A80036" points="620.437,189.739,629.1691,194.2943,625.4272,190.0519,629.6697,186.31,620.437,189.739" style="stroke: #A80036; stroke-width: 1.0;"/><text fill="#000000" font-family="sans-serif" font-size="13" lengthAdjust="spacingAndGlyphs" textLength="106" x="661" y="184.0669">ParentObligation</text><text fill="#000000" font-family="sans-serif" font-size="13" lengthAdjust="spacingAndGlyphs" textLength="8" x="628.7904" y="186.0949">1</text><!--link DateTimePeriod to TradeCertificate--><path d="M477.617,397.122 C455.312,402.559 431.208,412.787 417,432 C408.035,444.122 408.377,461.777 410.293,474.613 " fill="none" id="DateTimePeriod-TradeCertificate" style="stroke: #A80036; stroke-width: 1.0;"/><polygon fill="#A80036" points="411.188,479.789,413.5971,470.2393,410.3366,474.862,405.7139,471.6016,411.188,479.789" style="stroke: #A80036; stroke-width: 1.0;"/><text fill="#000000" font-family="sans-serif" font-size="13" lengthAdjust="spacingAndGlyphs" textLength="101" x="418" y="445.0669">TradeCertificate</text><text fill="#000000" font-family="sans-serif" font-size="13" lengthAdjust="spacingAndGlyphs" textLength="8" x="399.4347" y="469.0225">1</text></g></svg>