<?xml version="1.0" encoding="UTF-8" standalone="no"?><svg xmlns="http://www.w3.org/2000/svg" xmlns:xlink="http://www.w3.org/1999/xlink" contentScriptType="application/ecmascript" contentStyleType="text/css" height="702px" preserveAspectRatio="none" style="width:2463px;height:702px;" version="1.1" viewBox="0 0 2463 702" width="2463px" zoomAndPan="magnify"><defs><filter height="300%" id="f1qrhhg3a0bfl5" width="300%" x="-1" y="-1"><feGaussianBlur result="blurOut" stdDeviation="2.0"/><feColorMatrix in="blurOut" result="blurOut2" type="matrix" values="0 0 0 0 0 0 0 0 0 0 0 0 0 0 0 0 0 0 .4 0"/><feOffset dx="4.0" dy="4.0" in="blurOut2" result="blurOut3"/><feBlend in="SourceGraphic" in2="blurOut3" mode="normal"/></filter></defs><g><!--cluster ##15551--><!--cluster ##15560--><!--class Product--><a target="_top" xlink:actuate="onRequest" xlink:href="../Product.html" xlink:show="new" xlink:title="Item that is offered for sale. Products can be services or goods." xlink:type="simple"><rect fill="#FEFECE" filter="url(#f1qrhhg3a0bfl5)" height="70.3828" id="Product" style="stroke: #A80036; stroke-width: 1.5;" width="171" x="2180.75" y="40"/><rect fill="#FEFECE" height="23.9688" style="stroke: #A80036; stroke-width: 1.5;" width="171" x="2180.75" y="40"/><text fill="#000000" font-family="sans-serif" font-size="12" lengthAdjust="spacingAndGlyphs" textLength="49" x="2241.75" y="56.1387">Product</text><line style="stroke: #A80036; stroke-width: 1.5;" x1="2181.75" x2="2350.75" y1="63.9688" y2="63.9688"/><ellipse cx="2191.75" cy="75.8711" fill="#84BE84" rx="3" ry="3" style="stroke: #038048; stroke-width: 1.0;"/><text fill="#000000" font-family="sans-serif" font-size="11" lengthAdjust="spacingAndGlyphs" textLength="33" x="2200.75" y="78.1792">Name</text><text fill="#000000" font-family="sans-serif" font-size="11" font-style="italic" lengthAdjust="spacingAndGlyphs" textLength="70" x="2237.75" y="78.1792">(Max35Text)</text><ellipse cx="2191.75" cy="88.6758" fill="#84BE84" rx="3" ry="3" style="stroke: #038048; stroke-width: 1.0;"/><text fill="#000000" font-family="sans-serif" font-size="11" lengthAdjust="spacingAndGlyphs" textLength="64" x="2200.75" y="90.9839">Description</text><text fill="#000000" font-family="sans-serif" font-size="11" font-style="italic" lengthAdjust="spacingAndGlyphs" textLength="77" x="2268.75" y="90.9839">(Max140Text)</text><ellipse cx="2191.75" cy="101.4805" fill="#84BE84" rx="3" ry="3" style="stroke: #038048; stroke-width: 1.0;"/><text fill="#000000" font-family="sans-serif" font-size="11" lengthAdjust="spacingAndGlyphs" textLength="39" x="2200.75" y="103.7886">Quality</text><text fill="#000000" font-family="sans-serif" font-size="11" font-style="italic" lengthAdjust="spacingAndGlyphs" textLength="70" x="2243.75" y="103.7886">(Max70Text)</text></a><!--class Service--><a target="_top" xlink:actuate="onRequest" xlink:href="../Service.html" xlink:show="new" xlink:title="Service is the intangible equivalent of a good." xlink:type="simple"><rect fill="#FEFEEE" filter="url(#f1qrhhg3a0bfl5)" height="23.9688" id="Service" style="stroke: #A80036; stroke-width: 1.5;" width="51" x="2219.75" y="188"/><rect fill="#FEFEEE" height="23.9688" style="stroke: #A80036; stroke-width: 1.5;" width="51" x="2219.75" y="188"/><text fill="#000000" font-family="sans-serif" font-size="12" lengthAdjust="spacingAndGlyphs" textLength="45" x="2222.75" y="204.1387">Service</text></a><!--class Goods--><a target="_top" xlink:actuate="onRequest" xlink:href="../Goods.html" xlink:show="new" xlink:title="Good is a physical product that can be delivered to a purchaser and that involves the transfer of ownership from seller to customer." xlink:type="simple"><rect fill="#FEFEEE" filter="url(#f1qrhhg3a0bfl5)" height="23.9688" id="Goods" style="stroke: #A80036; stroke-width: 1.5;" width="46" x="2306" y="188"/><rect fill="#FEFEEE" height="23.9688" style="stroke: #A80036; stroke-width: 1.5;" width="46" x="2306" y="188"/><text fill="#000000" font-family="sans-serif" font-size="12" lengthAdjust="spacingAndGlyphs" textLength="40" x="2309" y="204.1387">Goods</text></a><!--class CardPayment--><a target="_top" xlink:actuate="onRequest" xlink:href="../CardPayment.html" xlink:show="new" xlink:title="Payment through an electronic money product." xlink:type="simple"><rect fill="#EEEEEE" filter="url(#f1qrhhg3a0bfl5)" height="23.9688" id="CardPayment" style="stroke: #A80036; stroke-width: 1.5;" width="89" x="1374.75" y="394"/><rect fill="#EEEEEE" height="23.9688" style="stroke: #A80036; stroke-width: 1.5;" width="89" x="1374.75" y="394"/><text fill="#000000" font-family="sans-serif" font-size="12" lengthAdjust="spacingAndGlyphs" textLength="83" x="1377.75" y="410.1387">CardPayment</text></a><!--class Price--><a target="_top" xlink:actuate="onRequest" xlink:href="../Price.html" xlink:show="new" xlink:title="Amount of money for which goods, services or assets are offered, sold, or bought." xlink:type="simple"><rect fill="#EEEEEE" filter="url(#f1qrhhg3a0bfl5)" height="23.9688" id="Price" style="stroke: #A80036; stroke-width: 1.5;" width="37" x="1425.75" y="292"/><rect fill="#EEEEEE" height="23.9688" style="stroke: #A80036; stroke-width: 1.5;" width="37" x="1425.75" y="292"/><text fill="#000000" font-family="sans-serif" font-size="12" lengthAdjust="spacingAndGlyphs" textLength="31" x="1428.75" y="308.1387">Price</text></a><!--class ProductCategory--><a target="_top" xlink:actuate="onRequest" xlink:href="../ProductCategory.html" xlink:show="new" xlink:title="Specifies the category of the product." xlink:type="simple"><rect fill="#EEEEEE" filter="url(#f1qrhhg3a0bfl5)" height="23.9688" id="ProductCategory" style="stroke: #A80036; stroke-width: 1.5;" width="111" x="1352.75" y="188"/><rect fill="#EEEEEE" height="23.9688" style="stroke: #A80036; stroke-width: 1.5;" width="111" x="1352.75" y="188"/><text fill="#000000" font-family="sans-serif" font-size="12" lengthAdjust="spacingAndGlyphs" textLength="105" x="1355.75" y="204.1387">ProductCategory</text></a><!--class LineItem--><a target="_top" xlink:actuate="onRequest" xlink:href="../LineItem.html" xlink:show="new" xlink:title="Unit of information  showing the related  provision of products and/or services and monetary summations reported as a discrete line item." xlink:type="simple"><rect fill="#EEEEEE" filter="url(#f1qrhhg3a0bfl5)" height="23.9688" id="LineItem" style="stroke: #A80036; stroke-width: 1.5;" width="58" x="657.5" y="63"/><rect fill="#EEEEEE" height="23.9688" style="stroke: #A80036; stroke-width: 1.5;" width="58" x="657.5" y="63"/><text fill="#000000" font-family="sans-serif" font-size="12" lengthAdjust="spacingAndGlyphs" textLength="52" x="660.5" y="79.1387">LineItem</text></a><!--class ProductIdentification--><a target="_top" xlink:actuate="onRequest" xlink:href="../ProductIdentification.html" xlink:show="new" xlink:title="Information used to identify a product." xlink:type="simple"><rect fill="#EEEEEE" filter="url(#f1qrhhg3a0bfl5)" height="23.9688" id="ProductIdentification" style="stroke: #A80036; stroke-width: 1.5;" width="136" x="1238" y="496"/><rect fill="#EEEEEE" height="23.9688" style="stroke: #A80036; stroke-width: 1.5;" width="136" x="1238" y="496"/><text fill="#000000" font-family="sans-serif" font-size="12" lengthAdjust="spacingAndGlyphs" textLength="130" x="1241" y="512.1387">ProductIdentification</text></a><!--class Country--><a target="_top" xlink:actuate="onRequest" xlink:href="../Country.html" xlink:show="new" xlink:title="Nation with its own government." xlink:type="simple"><rect fill="#EEEEEE" filter="url(#f1qrhhg3a0bfl5)" height="23.9688" id="Country" style="stroke: #A80036; stroke-width: 1.5;" width="54" x="1285" y="394"/><rect fill="#EEEEEE" height="23.9688" style="stroke: #A80036; stroke-width: 1.5;" width="54" x="1285" y="394"/><text fill="#000000" font-family="sans-serif" font-size="12" lengthAdjust="spacingAndGlyphs" textLength="48" x="1288" y="410.1387">Country</text></a><!--class ProductCharacteristics--><a target="_top" xlink:actuate="onRequest" xlink:href="../ProductCharacteristics.html" xlink:show="new" xlink:title="Identifies the characteristic of a product." xlink:type="simple"><rect fill="#EEEEEE" filter="url(#f1qrhhg3a0bfl5)" height="23.9688" id="ProductCharacteristics" style="stroke: #A80036; stroke-width: 1.5;" width="149" x="1131.75" y="292"/><rect fill="#EEEEEE" height="23.9688" style="stroke: #A80036; stroke-width: 1.5;" width="149" x="1131.75" y="292"/><text fill="#000000" font-family="sans-serif" font-size="12" lengthAdjust="spacingAndGlyphs" textLength="143" x="1134.75" y="308.1387">ProductCharacteristics</text></a><!--class ProductQuantity--><a target="_top" xlink:actuate="onRequest" xlink:href="../ProductQuantity.html" xlink:show="new" xlink:title="Specifies the ordered quantity of a product." xlink:type="simple"><rect fill="#EEEEEE" filter="url(#f1qrhhg3a0bfl5)" height="23.9688" id="ProductQuantity" style="stroke: #A80036; stroke-width: 1.5;" width="107" x="1071.75" y="188"/><rect fill="#EEEEEE" height="23.9688" style="stroke: #A80036; stroke-width: 1.5;" width="107" x="1071.75" y="188"/><text fill="#000000" font-family="sans-serif" font-size="12" lengthAdjust="spacingAndGlyphs" textLength="101" x="1074.75" y="204.1387">ProductQuantity</text></a><!--class ProductDelivery--><a target="_top" xlink:actuate="onRequest" xlink:href="../ProductDelivery.html" xlink:show="new" xlink:title="Arrangements for delivery of invoiced products and/or services." xlink:type="simple"><rect fill="#EEEEEE" filter="url(#f1qrhhg3a0bfl5)" height="23.9688" id="ProductDelivery" style="stroke: #A80036; stroke-width: 1.5;" width="103" x="1359.75" y="668"/><rect fill="#EEEEEE" height="23.9688" style="stroke: #A80036; stroke-width: 1.5;" width="103" x="1359.75" y="668"/><text fill="#000000" font-family="sans-serif" font-size="12" lengthAdjust="spacingAndGlyphs" textLength="97" x="1362.75" y="684.1387">ProductDelivery</text></a><!--class PurchaseOrder--><a target="_top" xlink:actuate="onRequest" xlink:href="../PurchaseOrder.html" xlink:show="new" xlink:title="Document issued by a buyer and containing the details of a purchase, including description of goods, transport information, payment terms, etc." xlink:type="simple"><rect fill="#EEEEEE" filter="url(#f1qrhhg3a0bfl5)" height="23.9688" id="PurchaseOrder" style="stroke: #A80036; stroke-width: 1.5;" width="100" x="1363" y="582"/><rect fill="#EEEEEE" height="23.9688" style="stroke: #A80036; stroke-width: 1.5;" width="100" x="1363" y="582"/><text fill="#000000" font-family="sans-serif" font-size="12" lengthAdjust="spacingAndGlyphs" textLength="94" x="1366" y="598.1387">PurchaseOrder</text></a><!--class Tax--><a target="_top" xlink:actuate="onRequest" xlink:href="../Tax.html" xlink:show="new" xlink:title="Amount of money due to the government or tax authority, according to various pre-defined parameters such as thresholds or income." xlink:type="simple"><rect fill="#EEEEEE" filter="url(#f1qrhhg3a0bfl5)" height="23.9688" id="Tax" style="stroke: #A80036; stroke-width: 1.5;" width="27" x="1409.75" y="496"/><rect fill="#EEEEEE" height="23.9688" style="stroke: #A80036; stroke-width: 1.5;" width="27" x="1409.75" y="496"/><text fill="#000000" font-family="sans-serif" font-size="12" lengthAdjust="spacingAndGlyphs" textLength="21" x="1412.75" y="512.1387">Tax</text></a><!--link Product to Service--><path d="M2256.74,130.245 C2253.05,151.843 2249.16,174.652 2246.91,187.815 " fill="none" id="Product-Service" style="stroke: #A80036; stroke-width: 1.0;"/><polygon fill="none" points="2249.88,128.799,2260.15,110.262,2263.68,131.155,2249.88,128.799" style="stroke: #A80036; stroke-width: 1.0;"/><!--link Product to Goods--><path d="M2292.76,128.244 C2304.12,150.423 2316.32,174.245 2323.27,187.815 " fill="none" id="Product-Goods" style="stroke: #A80036; stroke-width: 1.0;"/><polygon fill="none" points="2286.44,131.254,2283.55,110.262,2298.9,124.872,2286.44,131.254" style="stroke: #A80036; stroke-width: 1.0;"/><!--link Price to CardPayment--><!--link ProductCategory to Price--><!--link LineItem to ProductCategory--><!--link ProductIdentification to LineItem--><!--link Country to ProductIdentification--><!--link ProductCharacteristics to Country--><!--link ProductQuantity to ProductCharacteristics--><!--link ProductDelivery to ProductQuantity--><!--link PurchaseOrder to ProductDelivery--><!--link Tax to PurchaseOrder--><!--link Product to CardPayment--><path d="M2180.63,77.569 C2108.95,82.172 2005.88,96.689 1927,140 C1875.73,168.148 1879.24,195.553 1837,236 C1821.24,251.094 1707.83,354.892 1688,364 C1616.67,396.754 1524.63,404.262 1468.8,405.498 " fill="none" id="Product-CardPayment" style="stroke: #A80036; stroke-width: 1.0;"/><polygon fill="#A80036" points="1463.51,405.599,1472.5773,409.4441,1468.5093,405.5133,1472.4401,401.4453,1463.51,405.599" style="stroke: #A80036; stroke-width: 1.0;"/><text fill="#000000" font-family="sans-serif" font-size="13" lengthAdjust="spacingAndGlyphs" textLength="87" x="1829" y="257.0669">CardPayment</text><text fill="#000000" font-family="sans-serif" font-size="13" lengthAdjust="spacingAndGlyphs" textLength="8" x="1471.8047" y="400.1501">1</text><!--link Product to Price--><path d="M2180.67,81.113 C2085.51,88.309 1927.64,104.722 1796,140 C1775.59,145.469 1772.24,151.951 1752,158 C1685.19,177.964 1661.76,159.763 1598,188 C1540.95,213.267 1485.07,262.981 1459.1,287.946 " fill="none" id="Product-Price" style="stroke: #A80036; stroke-width: 1.0;"/><polygon fill="#A80036" points="1455.19,291.732,1464.4335,288.3323,1458.7773,288.249,1458.8606,282.5927,1455.19,291.732" style="stroke: #A80036; stroke-width: 1.0;"/><text fill="#000000" font-family="sans-serif" font-size="13" lengthAdjust="spacingAndGlyphs" textLength="57" x="1599" y="204.0669">UnitPrice</text><text fill="#000000" font-family="sans-serif" font-size="13" lengthAdjust="spacingAndGlyphs" textLength="7" x="1449.3233" y="280.9467">*</text><!--link Product to Price--><path d="M2180.73,81.987 C2093.12,89.694 1953.47,106.326 1837,140 C1824.29,143.676 1739.47,181.404 1728,188 C1696.56,206.079 1694.44,219.785 1662,236 C1595.09,269.442 1508.21,290.014 1467.28,298.498 " fill="none" id="Product-Price" style="stroke: #A80036; stroke-width: 1.0;"/><polygon fill="#A80036" points="1462.28,299.521,1471.8982,301.64,1467.179,298.5209,1470.2981,293.8017,1462.28,299.521" style="stroke: #A80036; stroke-width: 1.0;"/><text fill="#000000" font-family="sans-serif" font-size="13" lengthAdjust="spacingAndGlyphs" textLength="54" x="1729" y="204.0669">NetPrice</text><text fill="#000000" font-family="sans-serif" font-size="13" lengthAdjust="spacingAndGlyphs" textLength="24" x="1470.7259" y="291.9606">0..1</text><!--link Product to Price--><path d="M2314.14,110.251 C2356.45,144.391 2406.1,197.189 2370,236 C2338.3,270.081 1609.65,297.216 1467.81,302.185 " fill="none" id="Product-Price" style="stroke: #A80036; stroke-width: 1.0;"/><polygon fill="#A80036" points="1462.63,302.365,1471.7618,306.0541,1467.6271,302.1936,1471.4876,298.0588,1462.63,302.365" style="stroke: #A80036; stroke-width: 1.0;"/><text fill="#000000" font-family="sans-serif" font-size="13" lengthAdjust="spacingAndGlyphs" textLength="68" x="2383" y="204.0669">GrossPrice</text><text fill="#000000" font-family="sans-serif" font-size="13" lengthAdjust="spacingAndGlyphs" textLength="24" x="1470.7946" y="316.0302">0..1</text><!--link Product to ProductCategory--><path d="M2180.49,80.886 C2033.14,89.944 1737.59,111.082 1638,140 C1620.82,144.988 1618.89,152.103 1602,158 C1558.46,173.206 1507.35,183.726 1468.53,190.3 " fill="none" id="Product-ProductCategory" style="stroke: #A80036; stroke-width: 1.0;"/><polygon fill="#A80036" points="1463.37,191.161,1472.9013,193.6418,1468.3032,190.3467,1471.5983,185.7486,1463.37,191.161" style="stroke: #A80036; stroke-width: 1.0;"/><text fill="#000000" font-family="sans-serif" font-size="13" lengthAdjust="spacingAndGlyphs" textLength="107" x="1639" y="153.0669">ProductCategory</text><text fill="#000000" font-family="sans-serif" font-size="13" lengthAdjust="spacingAndGlyphs" textLength="7" x="1471.6134" y="184.8011">*</text><!--link Product to LineItem--><path d="M2180.57,75 C1885.16,75 914.324,75 720.026,75 " fill="none" id="Product-LineItem" style="stroke: #A80036; stroke-width: 1.0;"/><polygon fill="#A80036" points="714.773,75,723.773,79,719.773,75,723.773,71,714.773,75" style="stroke: #A80036; stroke-width: 1.0;"/><text fill="#000000" font-family="sans-serif" font-size="13" lengthAdjust="spacingAndGlyphs" textLength="55" x="1419.25" y="67.0669">LineItem</text><text fill="#000000" font-family="sans-serif" font-size="13" lengthAdjust="spacingAndGlyphs" textLength="24" x="723.5827" y="69.2255">0..1</text><!--link Product to ProductIdentification--><path d="M2180.49,86.087 C2132.72,94.762 2073.79,110.742 2028,140 C1968.44,178.054 1983.49,220.888 1926,262 C1895.79,283.606 1881.44,275.839 1848,292 C1791.31,319.395 1783.21,337.716 1726,364 C1595.01,424.178 1431.09,472.791 1352.38,494.589 " fill="none" id="Product-ProductIdentification" style="stroke: #A80036; stroke-width: 1.0;"/><polygon fill="#A80036" points="1347.32,495.986,1357.0595,497.4499,1352.1401,494.657,1354.933,489.7377,1347.32,495.986" style="stroke: #A80036; stroke-width: 1.0;"/><text fill="#000000" font-family="sans-serif" font-size="13" lengthAdjust="spacingAndGlyphs" textLength="130" x="1849" y="308.0669">ProductIdentification</text><text fill="#000000" font-family="sans-serif" font-size="13" lengthAdjust="spacingAndGlyphs" textLength="7" x="1351.9769" y="485.0294">*</text><!--link Product to Country--><path d="M2180.56,78.799 C2102.85,84.059 1986.51,98.851 1894,140 C1862.48,154.021 1858.29,164.541 1833,188 C1811.78,207.679 1813.54,220.665 1789,236 C1778.39,242.632 1773.9,240.113 1762,244 C1604.1,295.594 1417.97,364.952 1344.32,392.739 " fill="none" id="Product-Country" style="stroke: #A80036; stroke-width: 1.0;"/><polygon fill="#A80036" points="1339.21,394.667,1349.0433,395.22,1343.8859,392.8961,1346.2098,387.7386,1339.21,394.667" style="stroke: #A80036; stroke-width: 1.0;"/><text fill="#000000" font-family="sans-serif" font-size="13" lengthAdjust="spacingAndGlyphs" textLength="37" x="1763" y="257.0669">Origin</text><text fill="#000000" font-family="sans-serif" font-size="13" lengthAdjust="spacingAndGlyphs" textLength="8" x="1346.8174" y="385.9196">1</text><!--link Product to ProductCharacteristics--><path d="M2180.63,79.74 C2039.87,86.682 1750.52,104.225 1508,140 C1469.8,145.635 1461.26,152.749 1423,158 C1371.49,165.071 991.569,150.073 956,188 C899.469,248.28 1033.48,279.603 1126.34,293.58 " fill="none" id="Product-ProductCharacteristics" style="stroke: #A80036; stroke-width: 1.0;"/><polygon fill="#A80036" points="1131.56,294.354,1123.2388,289.0854,1126.6134,293.6255,1122.0732,297,1131.56,294.354" style="stroke: #A80036; stroke-width: 1.0;"/><text fill="#000000" font-family="sans-serif" font-size="13" lengthAdjust="spacingAndGlyphs" textLength="95" x="957" y="204.0669">Characteristics</text><text fill="#000000" font-family="sans-serif" font-size="13" lengthAdjust="spacingAndGlyphs" textLength="7" x="1116.7546" y="288.8685">*</text><!--link Product to ProductQuantity--><path d="M2180.43,78.985 C2014.52,85.514 1655.04,103.489 1537,140 C1521.41,144.822 1520.54,153.023 1505,158 C1446.62,176.696 1274.58,189.761 1183.35,195.585 " fill="none" id="Product-ProductQuantity" style="stroke: #A80036; stroke-width: 1.0;"/><polygon fill="#A80036" points="1178.26,195.908,1187.4936,199.3344,1183.2501,195.5937,1186.9908,191.3502,1178.26,195.908" style="stroke: #A80036; stroke-width: 1.0;"/><text fill="#000000" font-family="sans-serif" font-size="13" lengthAdjust="spacingAndGlyphs" textLength="54" x="1538" y="153.0669">Quantity</text><text fill="#000000" font-family="sans-serif" font-size="13" lengthAdjust="spacingAndGlyphs" textLength="7" x="1186.9131" y="190.0593">*</text><!--link Product to ProductDelivery--><path d="M2240.18,110.238 C2225.86,131.419 2209.47,159.862 2202,188 C2196.52,208.619 2198.77,214.912 2202,236 C2206.72,266.847 2223,271.794 2223,303 C2223,303 2223,303 2223,595 C2223,671.0845 1651.65,678.6305 1467.48,679.0865 " fill="none" id="Product-ProductDelivery" style="stroke: #A80036; stroke-width: 1.0;"/><polygon fill="#A80036" points="1462.41,679.0975,1471.41,683.0975,1467.41,679.0975,1471.41,675.0975,1462.41,679.0975" style="stroke: #A80036; stroke-width: 1.0;"/><text fill="#000000" font-family="sans-serif" font-size="13" lengthAdjust="spacingAndGlyphs" textLength="51" x="2224" y="410.0669">Delivery</text><text fill="#000000" font-family="sans-serif" font-size="13" lengthAdjust="spacingAndGlyphs" textLength="8" x="1470.8564" y="673.7372">1</text><!--link Product to PurchaseOrder--><path d="M2180.51,106.028 C2165.1,114.857 2150.6,126.02 2140,140 C2081.5,217.173 2099,257.159 2099,354 C2099,354 2099,354 2102,509 C2102,572.702 1631.92,588.48 1468.33,592.041 " fill="none" id="Product-PurchaseOrder" style="stroke: #A80036; stroke-width: 1.0;"/><polygon fill="#A80036" points="1463.11,592.153,1472.1882,595.9722,1468.109,592.053,1472.0282,587.9738,1463.11,592.153" style="stroke: #A80036; stroke-width: 1.0;"/><text fill="#000000" font-family="sans-serif" font-size="13" lengthAdjust="spacingAndGlyphs" textLength="95" x="2100" y="359.0669">PurchaseOrder</text><text fill="#000000" font-family="sans-serif" font-size="13" lengthAdjust="spacingAndGlyphs" textLength="7" x="1470.984" y="586.7122">*</text><!--link Product to Tax--><path d="M2180.68,84.573 C2111.01,96.846 2024,126.657 2024,199 C2024,199 2024,199 2024,407 C2024,467.596 1542.46,499.834 1441.45,505.93 " fill="none" id="Product-Tax" style="stroke: #A80036; stroke-width: 1.0;"/><polygon fill="#A80036" points="1436.4,506.232,1445.6238,509.6848,1441.391,505.932,1445.1438,501.6993,1436.4,506.232" style="stroke: #A80036; stroke-width: 1.0;"/><text fill="#000000" font-family="sans-serif" font-size="13" lengthAdjust="spacingAndGlyphs" textLength="22" x="2025" y="308.0669">Tax</text><text fill="#000000" font-family="sans-serif" font-size="13" lengthAdjust="spacingAndGlyphs" textLength="7" x="1444.9331" y="497.0786">*</text><!--link LineItem to ProductQuantity--><path d="M657.158,79.045 C596.003,86.531 462.582,108.906 509,158 C549.904,201.262 984.733,182.323 1044,188 C1051.23,188.693 1058.81,189.548 1066.31,190.474 " fill="none" id="LineItem-ProductQuantity" style="stroke: #A80036; stroke-width: 1.0;"/><polygon fill="#A80036" points="1071.48,191.124,1063.0543,186.0242,1066.5197,190.4954,1062.0485,193.9608,1071.48,191.124" style="stroke: #A80036; stroke-width: 1.0;"/><text fill="#000000" font-family="sans-serif" font-size="13" lengthAdjust="spacingAndGlyphs" textLength="66" x="510" y="153.0669">NetWeight</text><text fill="#000000" font-family="sans-serif" font-size="13" lengthAdjust="spacingAndGlyphs" textLength="8" x="1055.6847" y="185.1913">1</text><!--link LineItem to ProductQuantity--><path d="M665.119,87.22 C637.668,103.342 595.429,133.783 618,158 C650.353,192.711 996.799,183.138 1044,188 C1051.23,188.744 1058.8,189.631 1066.3,190.573 " fill="none" id="LineItem-ProductQuantity" style="stroke: #A80036; stroke-width: 1.0;"/><polygon fill="#A80036" points="1071.47,191.233,1063.0443,186.1332,1066.5097,190.6044,1062.0385,194.0698,1071.47,191.233" style="stroke: #A80036; stroke-width: 1.0;"/><text fill="#000000" font-family="sans-serif" font-size="13" lengthAdjust="spacingAndGlyphs" textLength="88" x="619" y="153.0669">BilledQuantity</text><text fill="#000000" font-family="sans-serif" font-size="13" lengthAdjust="spacingAndGlyphs" textLength="7" x="1056.7314" y="203.1629">*</text><!--link LineItem to ProductQuantity--><path d="M690.872,87.098 C699.577,105.435 719.677,141.655 749,158 C806.556,190.083 978.566,180.232 1044,188 C1051.21,188.856 1058.78,189.81 1066.27,190.788 " fill="none" id="LineItem-ProductQuantity" style="stroke: #A80036; stroke-width: 1.0;"/><polygon fill="#A80036" points="1071.44,191.468,1063.0292,186.3438,1066.4815,190.825,1062.0003,194.2773,1071.44,191.468" style="stroke: #A80036; stroke-width: 1.0;"/><text fill="#000000" font-family="sans-serif" font-size="13" lengthAdjust="spacingAndGlyphs" textLength="128" x="750" y="153.0669">ChargeFreeQuantity</text><text fill="#000000" font-family="sans-serif" font-size="13" lengthAdjust="spacingAndGlyphs" textLength="7" x="1056.6614" y="182.5558">*</text><!--link LineItem to ProductQuantity--><path d="M714.681,83.794 C753.631,94.71 825.148,115.936 884,140 C900.558,146.77 903.08,152.195 920,158 C968.165,174.526 1025.11,185.252 1066.74,191.572 " fill="none" id="LineItem-ProductQuantity" style="stroke: #A80036; stroke-width: 1.0;"/><polygon fill="#A80036" points="1071.74,192.321,1063.4342,187.0282,1066.7955,191.5781,1062.2456,194.9394,1071.74,192.321" style="stroke: #A80036; stroke-width: 1.0;"/><text fill="#000000" font-family="sans-serif" font-size="13" lengthAdjust="spacingAndGlyphs" textLength="244" x="921" y="153.0669">MeasureQuantityStartRelatedLineItem</text><text fill="#000000" font-family="sans-serif" font-size="13" lengthAdjust="spacingAndGlyphs" textLength="8" x="1055.6091" y="204.3761">1</text><!--link LineItem to ProductQuantity--><path d="M714.567,77.612 C814.016,83.509 1140.66,105.394 1171,140 C1183.95,154.766 1165.56,172.669 1148.33,184.854 " fill="none" id="LineItem-ProductQuantity" style="stroke: #A80036; stroke-width: 1.0;"/><polygon fill="#A80036" points="1143.99,187.823,1153.6745,186.0314,1148.1134,184.995,1149.1498,179.4339,1143.99,187.823" style="stroke: #A80036; stroke-width: 1.0;"/><text fill="#000000" font-family="sans-serif" font-size="13" lengthAdjust="spacingAndGlyphs" textLength="236" x="1177" y="153.0669">MeasureQuantityEndRelatedLineItem</text><text fill="#000000" font-family="sans-serif" font-size="13" lengthAdjust="spacingAndGlyphs" textLength="8" x="1139.7131" y="176.8104">1</text><!--link LineItem to ProductQuantity--><path d="M657.232,76.776 C540.927,80.204 109.821,95.827 70,140 C64.6434,145.942 64.4309,152.257 70,158 C107.687,196.865 990.049,183.518 1044,188 C1051.24,188.601 1058.82,189.402 1066.32,190.298 " fill="none" id="LineItem-ProductQuantity" style="stroke: #A80036; stroke-width: 1.0;"/><polygon fill="#A80036" points="1071.49,190.933,1063.0495,185.8577,1066.5279,190.3188,1062.0668,193.7972,1071.49,190.933" style="stroke: #A80036; stroke-width: 1.0;"/><text fill="#000000" font-family="sans-serif" font-size="13" lengthAdjust="spacingAndGlyphs" textLength="122" x="71" y="153.0669">GrossPriceQuantity</text><text fill="#000000" font-family="sans-serif" font-size="13" lengthAdjust="spacingAndGlyphs" textLength="7" x="1056.7537" y="184.9782">*</text><!--link LineItem to ProductQuantity--><path d="M657.414,76.69 C549.281,79.781 174.395,95.106 235,158 C266.208,190.386 999.191,184.136 1044,188 C1051.24,188.624 1058.82,189.438 1066.32,190.342 " fill="none" id="LineItem-ProductQuantity" style="stroke: #A80036; stroke-width: 1.0;"/><polygon fill="#A80036" points="1071.49,190.98,1063.0495,185.9047,1066.5279,190.3658,1062.0668,193.8442,1071.49,190.98" style="stroke: #A80036; stroke-width: 1.0;"/><text fill="#000000" font-family="sans-serif" font-size="13" lengthAdjust="spacingAndGlyphs" textLength="108" x="236" y="153.0669">NetPriceQuantity</text><text fill="#000000" font-family="sans-serif" font-size="13" lengthAdjust="spacingAndGlyphs" textLength="7" x="1056.7261" y="181.9245">*</text><!--link LineItem to ProductQuantity--><path d="M657.463,75.615 C573.176,75.332 335.699,81.154 409,158 C433.377,183.555 1008.83,184.787 1044,188 C1051.23,188.661 1058.81,189.497 1066.31,190.412 " fill="none" id="LineItem-ProductQuantity" style="stroke: #A80036; stroke-width: 1.0;"/><polygon fill="#A80036" points="1071.48,191.057,1063.0397,185.9814,1066.5179,190.4426,1062.0567,193.9208,1071.48,191.057" style="stroke: #A80036; stroke-width: 1.0;"/><text fill="#000000" font-family="sans-serif" font-size="13" lengthAdjust="spacingAndGlyphs" textLength="80" x="410" y="153.0669">GrossWeight</text><text fill="#000000" font-family="sans-serif" font-size="13" lengthAdjust="spacingAndGlyphs" textLength="7" x="1056.7132" y="202.7241">*</text><!--link Country to Tax--><path d="M1324.3,418.084 C1344.39,436.18 1384.23,472.073 1406.66,492.283 " fill="none" id="Country-Tax" style="stroke: #A80036; stroke-width: 1.0;"/><polygon fill="#A80036" points="1410.64,495.867,1406.6262,486.8731,1406.9235,492.5222,1401.2745,492.8195,1410.64,495.867" style="stroke: #A80036; stroke-width: 1.0;"/><text fill="#000000" font-family="sans-serif" font-size="13" lengthAdjust="spacingAndGlyphs" textLength="22" x="1379" y="461.0669">Tax</text><text fill="#000000" font-family="sans-serif" font-size="13" lengthAdjust="spacingAndGlyphs" textLength="8" x="1395.5866" y="484.8695">1</text></g></svg>