<?xml version="1.0" encoding="UTF-8" standalone="no"?><svg xmlns="http://www.w3.org/2000/svg" xmlns:xlink="http://www.w3.org/1999/xlink" contentScriptType="application/ecmascript" contentStyleType="text/css" height="982px" preserveAspectRatio="none" style="width:1994px;height:982px;" version="1.1" viewBox="0 0 1994 982" width="1994px" zoomAndPan="magnify"><defs><filter height="300%" id="f1jocx30ueord0" width="300%" x="-1" y="-1"><feGaussianBlur result="blurOut" stdDeviation="2.0"/><feColorMatrix in="blurOut" result="blurOut2" type="matrix" values="0 0 0 0 0 0 0 0 0 0 0 0 0 0 0 0 0 0 .4 0"/><feOffset dx="4.0" dy="4.0" in="blurOut2" result="blurOut3"/><feBlend in="SourceGraphic" in2="blurOut3" mode="normal"/></filter></defs><g><!--cluster ##14180--><!--cluster ##14183--><!--class Quote--><a target="_top" xlink:actuate="onRequest" xlink:href="../Quote.html" xlink:show="new" xlink:title="Indicates whether the quote details are indicated as an offer, a bid or a mid of a security, commodity, currency (the latter being an average of the offer and the bid)." xlink:type="simple"><rect fill="#FEFECE" filter="url(#f1jocx30ueord0)" height="57.5781" id="Quote" style="stroke: #A80036; stroke-width: 1.5;" width="217" x="789.75" y="40"/><rect fill="#FEFECE" height="23.9688" style="stroke: #A80036; stroke-width: 1.5;" width="217" x="789.75" y="40"/><text fill="#000000" font-family="sans-serif" font-size="12" lengthAdjust="spacingAndGlyphs" textLength="38" x="879.25" y="56.1387">Quote</text><line style="stroke: #A80036; stroke-width: 1.5;" x1="790.75" x2="1005.75" y1="63.9688" y2="63.9688"/><ellipse cx="800.75" cy="75.8711" fill="#84BE84" rx="3" ry="3" style="stroke: #038048; stroke-width: 1.0;"/><text fill="#000000" font-family="sans-serif" font-size="11" lengthAdjust="spacingAndGlyphs" textLength="106" x="809.75" y="78.1792">ValidUntilDateTime</text><text fill="#000000" font-family="sans-serif" font-size="11" font-style="italic" lengthAdjust="spacingAndGlyphs" textLength="81" x="919.75" y="78.1792">(ISODateTime)</text><ellipse cx="800.75" cy="88.6758" fill="#84BE84" rx="3" ry="3" style="stroke: #038048; stroke-width: 1.0;"/><text fill="#000000" font-family="sans-serif" font-size="11" lengthAdjust="spacingAndGlyphs" textLength="51" x="809.75" y="90.9839">Currency</text><text fill="#000000" font-family="sans-serif" font-size="11" font-style="italic" lengthAdjust="spacingAndGlyphs" textLength="89" x="864.75" y="90.9839">(CurrencyCode)</text></a><!--class SecuritiesQuantity--><a target="_top" xlink:actuate="onRequest" xlink:href="../SecuritiesQuantity.html" xlink:show="new" xlink:title="Quantity of a security." xlink:type="simple"><rect fill="#EEEEEE" filter="url(#f1jocx30ueord0)" height="23.9688" id="SecuritiesQuantity" style="stroke: #A80036; stroke-width: 1.5;" width="120" x="997.5" y="180"/><rect fill="#EEEEEE" height="23.9688" style="stroke: #A80036; stroke-width: 1.5;" width="120" x="997.5" y="180"/><text fill="#000000" font-family="sans-serif" font-size="12" lengthAdjust="spacingAndGlyphs" textLength="114" x="1000.5" y="196.1387">SecuritiesQuantity</text></a><!--class InformationPartyRole--><a target="_top" xlink:actuate="onRequest" xlink:href="../InformationPartyRole.html" xlink:show="new" xlink:title="Role played by a party as source of information." xlink:type="simple"><rect fill="#EEEEEE" filter="url(#f1jocx30ueord0)" height="23.9688" id="InformationPartyRole" style="stroke: #A80036; stroke-width: 1.5;" width="136" x="1099" y="948"/><rect fill="#EEEEEE" height="23.9688" style="stroke: #A80036; stroke-width: 1.5;" width="136" x="1099" y="948"/><text fill="#000000" font-family="sans-serif" font-size="12" lengthAdjust="spacingAndGlyphs" textLength="130" x="1102" y="964.1387">InformationPartyRole</text></a><!--class Negotiation--><a target="_top" xlink:actuate="onRequest" xlink:href="../Negotiation.html" xlink:show="new" xlink:title="Decision making on the transfer of a financial instrument." xlink:type="simple"><rect fill="#EEEEEE" filter="url(#f1jocx30ueord0)" height="23.9688" id="Negotiation" style="stroke: #A80036; stroke-width: 1.5;" width="79" x="1259.75" y="862"/><rect fill="#EEEEEE" height="23.9688" style="stroke: #A80036; stroke-width: 1.5;" width="79" x="1259.75" y="862"/><text fill="#000000" font-family="sans-serif" font-size="12" lengthAdjust="spacingAndGlyphs" textLength="73" x="1262.75" y="878.1387">Negotiation</text></a><!--class CurrencyExchange--><a target="_top" xlink:actuate="onRequest" xlink:href="../CurrencyExchange.html" xlink:show="new" xlink:title="Information needed to process a currency exchange or conversion." xlink:type="simple"><rect fill="#EEEEEE" filter="url(#f1jocx30ueord0)" height="23.9688" id="CurrencyExchange" style="stroke: #A80036; stroke-width: 1.5;" width="122" x="1238" y="760"/><rect fill="#EEEEEE" height="23.9688" style="stroke: #A80036; stroke-width: 1.5;" width="122" x="1238" y="760"/><text fill="#000000" font-family="sans-serif" font-size="12" lengthAdjust="spacingAndGlyphs" textLength="116" x="1241" y="776.1387">CurrencyExchange</text></a><!--class SecuritiesPricing--><a target="_top" xlink:actuate="onRequest" xlink:href="../SecuritiesPricing.html" xlink:show="new" xlink:title="Characteristics related to the price of the security." xlink:type="simple"><rect fill="#EEEEEE" filter="url(#f1jocx30ueord0)" height="23.9688" id="SecuritiesPricing" style="stroke: #A80036; stroke-width: 1.5;" width="110" x="1047" y="674"/><rect fill="#EEEEEE" height="23.9688" style="stroke: #A80036; stroke-width: 1.5;" width="110" x="1047" y="674"/><text fill="#000000" font-family="sans-serif" font-size="12" lengthAdjust="spacingAndGlyphs" textLength="104" x="1050" y="690.1387">SecuritiesPricing</text></a><!--class SecuritiesQuoteVariable--><a target="_top" xlink:actuate="onRequest" xlink:href="../SecuritiesQuoteVariable.html" xlink:show="new" xlink:title="Proposition of price for a financial instrument." xlink:type="simple"><rect fill="#EEEEEE" filter="url(#f1jocx30ueord0)" height="23.9688" id="SecuritiesQuoteVariable" style="stroke: #A80036; stroke-width: 1.5;" width="157" x="995.75" y="588"/><rect fill="#EEEEEE" height="23.9688" style="stroke: #A80036; stroke-width: 1.5;" width="157" x="995.75" y="588"/><text fill="#000000" font-family="sans-serif" font-size="12" lengthAdjust="spacingAndGlyphs" textLength="151" x="998.75" y="604.1387">SecuritiesQuoteVariable</text></a><!--class FinancialInstrumentSwap--><a target="_top" xlink:actuate="onRequest" xlink:href="../FinancialInstrumentSwap.html" xlink:show="new" xlink:title="Characteristics and conditions by which a borrower can exchange one type of financial instrument for another." xlink:type="simple"><rect fill="#EEEEEE" filter="url(#f1jocx30ueord0)" height="23.9688" id="FinancialInstrumentSwap" style="stroke: #A80036; stroke-width: 1.5;" width="162" x="1073" y="486"/><rect fill="#EEEEEE" height="23.9688" style="stroke: #A80036; stroke-width: 1.5;" width="162" x="1073" y="486"/><text fill="#000000" font-family="sans-serif" font-size="12" lengthAdjust="spacingAndGlyphs" textLength="156" x="1076" y="502.1387">FinancialInstrumentSwap</text></a><!--class QuoteStatus--><a target="_top" xlink:actuate="onRequest" xlink:href="../QuoteStatus.html" xlink:show="new" xlink:title="Status of a quote and if required, the rejection reason." xlink:type="simple"><rect fill="#EEEEEE" filter="url(#f1jocx30ueord0)" height="23.9688" id="QuoteStatus" style="stroke: #A80036; stroke-width: 1.5;" width="85" x="1182.75" y="384"/><rect fill="#EEEEEE" height="23.9688" style="stroke: #A80036; stroke-width: 1.5;" width="85" x="1182.75" y="384"/><text fill="#000000" font-family="sans-serif" font-size="12" lengthAdjust="spacingAndGlyphs" textLength="79" x="1185.75" y="400.1387">QuoteStatus</text></a><!--class Security--><a target="_top" xlink:actuate="onRequest" xlink:href="../Security.html" xlink:show="new" xlink:title="Financial instruments representing a sum of rights of the investor vis-a-vis the issuer." xlink:type="simple"><rect fill="#EEEEEE" filter="url(#f1jocx30ueord0)" height="23.9688" id="Security" style="stroke: #A80036; stroke-width: 1.5;" width="56" x="1197.5" y="282"/><rect fill="#EEEEEE" height="23.9688" style="stroke: #A80036; stroke-width: 1.5;" width="56" x="1197.5" y="282"/><text fill="#000000" font-family="sans-serif" font-size="12" lengthAdjust="spacingAndGlyphs" textLength="50" x="1200.5" y="298.1387">Security</text></a><!--link InformationPartyRole to SecuritiesQuantity--><!--link Negotiation to InformationPartyRole--><!--link CurrencyExchange to Negotiation--><!--link SecuritiesPricing to CurrencyExchange--><!--link SecuritiesQuoteVariable to SecuritiesPricing--><!--link FinancialInstrumentSwap to SecuritiesQuoteVariable--><!--link QuoteStatus to FinancialInstrumentSwap--><!--link Security to QuoteStatus--><!--link Quote to SecuritiesQuantity--><path d="M888.648,98.312 C885.187,114.446 884.342,134.143 895,148 C901.513,156.467 953.854,169.368 997.307,178.831 " fill="none" id="Quote-SecuritiesQuantity" style="stroke: #A80036; stroke-width: 1.0;"/><polygon fill="#A80036" points="1002.289,179.91,994.3381,174.0976,997.402,178.8529,992.6468,181.9168,1002.289,179.91" style="stroke: #A80036; stroke-width: 1.0;"/><text fill="#000000" font-family="sans-serif" font-size="13" lengthAdjust="spacingAndGlyphs" textLength="117" x="896" y="143.0669">MaximumQuantity</text><text fill="#000000" font-family="sans-serif" font-size="13" lengthAdjust="spacingAndGlyphs" textLength="8" x="981.435" y="171.9394">1</text><!--link Quote to SecuritiesQuantity--><path d="M970.924,98.047 C987.872,106.674 1005.023,117.314 1019,130 C1032.99,142.696 1043.72,161.712 1050.16,175.131 " fill="none" id="Quote-SecuritiesQuantity" style="stroke: #A80036; stroke-width: 1.0;"/><polygon fill="#A80036" points="1052.33,179.799,1052.1522,169.9517,1050.2171,175.2674,1044.9015,173.3323,1052.33,179.799" style="stroke: #A80036; stroke-width: 1.0;"/><text fill="#000000" font-family="sans-serif" font-size="13" lengthAdjust="spacingAndGlyphs" textLength="54" x="1036" y="143.0669">Quantity</text><text fill="#000000" font-family="sans-serif" font-size="13" lengthAdjust="spacingAndGlyphs" textLength="8" x="1039.9612" y="169.0359">1</text><!--link Quote to SecuritiesQuantity--><path d="M1006.49,90.077 C1047.73,100.104 1087.78,113.617 1100,130 C1111.79,145.796 1094.39,164.357 1078.32,176.82 " fill="none" id="Quote-SecuritiesQuantity" style="stroke: #A80036; stroke-width: 1.0;"/><polygon fill="#A80036" points="1074.28,179.852,1083.8792,177.6487,1078.279,176.8506,1079.077,171.2504,1074.28,179.852" style="stroke: #A80036; stroke-width: 1.0;"/><text fill="#000000" font-family="sans-serif" font-size="13" lengthAdjust="spacingAndGlyphs" textLength="113" x="1105" y="143.0669">MinimumQuantity</text><text fill="#000000" font-family="sans-serif" font-size="13" lengthAdjust="spacingAndGlyphs" textLength="8" x="1069.3294" y="168.8493">1</text><!--link Quote to InformationPartyRole--><path d="M789.515,73.585 C551.796,82.887 6,112.763 6,191 C6,191 6,191 6,875 C6,929.7556 838.344,952.0081 1093.52,957.5436 " fill="none" id="Quote-InformationPartyRole" style="stroke: #A80036; stroke-width: 1.0;"/><polygon fill="#A80036" points="1098.71,957.6555,1089.8038,953.4508,1093.7113,957.5412,1089.6209,961.4487,1098.71,957.6555" style="stroke: #A80036; stroke-width: 1.0;"/><text fill="#000000" font-family="sans-serif" font-size="13" lengthAdjust="spacingAndGlyphs" textLength="60" x="7" y="553.0669">PartyRole</text><text fill="#000000" font-family="sans-serif" font-size="13" lengthAdjust="spacingAndGlyphs" textLength="7" x="1083.9997" y="952.7302">*</text><!--link Quote to Negotiation--><path d="M1006.37,72.491 C1257.7,79.708 1859,105.87 1859,191 C1859,191 1859,191 1859,773 C1859,825.236 1476.52,859.432 1343.75,869.729 " fill="none" id="Quote-Negotiation" style="stroke: #A80036; stroke-width: 1.0;"/><polygon fill="#A80036" points="1338.38,870.143,1347.6617,873.4369,1343.3651,869.7573,1347.0447,865.4607,1338.38,870.143" style="stroke: #A80036; stroke-width: 1.0;"/><text fill="#000000" font-family="sans-serif" font-size="13" lengthAdjust="spacingAndGlyphs" textLength="122" x="1860" y="502.0669">RelatedNegotiation</text><text fill="#000000" font-family="sans-serif" font-size="13" lengthAdjust="spacingAndGlyphs" textLength="24" x="1346.8484" y="864.1769">0..1</text><!--link Quote to CurrencyExchange--><path d="M1006.36,74.162 C1237.29,84.479 1757,116.027 1757,191 C1757,191 1757,191 1757,687 C1757,726.319 1492.48,754.39 1365.49,765.601 " fill="none" id="Quote-CurrencyExchange" style="stroke: #A80036; stroke-width: 1.0;"/><polygon fill="#A80036" points="1360.29,766.057,1369.6089,769.2441,1365.2703,765.6141,1368.9003,761.2755,1360.29,766.057" style="stroke: #A80036; stroke-width: 1.0;"/><text fill="#000000" font-family="sans-serif" font-size="13" lengthAdjust="spacingAndGlyphs" textLength="76" x="1758" y="451.0669">QuotedRate</text><text fill="#000000" font-family="sans-serif" font-size="13" lengthAdjust="spacingAndGlyphs" textLength="7" x="1368.1863" y="760.3737">*</text><!--link Quote to SecuritiesPricing--><path d="M1006.49,74.402 C1146.6,81.31 1381.97,97.417 1462,130 C1599.46,185.967 1570,297.58 1570,446 C1570,446 1570,446 1570,601 C1570,641.964 1288.63,669.905 1162.23,680.39 " fill="none" id="Quote-SecuritiesPricing" style="stroke: #A80036; stroke-width: 1.0;"/><polygon fill="#A80036" points="1157.06,680.816,1166.3605,684.0565,1162.0428,680.4017,1165.6976,676.084,1157.06,680.816" style="stroke: #A80036; stroke-width: 1.0;"/><text fill="#000000" font-family="sans-serif" font-size="13" lengthAdjust="spacingAndGlyphs" textLength="131" x="1572" y="400.0669">PreviousClosingPrice</text><text fill="#000000" font-family="sans-serif" font-size="13" lengthAdjust="spacingAndGlyphs" textLength="8" x="1164.9962" y="675.0551">1</text><!--link Quote to SecuritiesPricing--><path d="M789.556,76.298 C652.518,85.202 424.886,103.404 345,130 C294.52,146.806 242,137.796 242,191 C242,191 242,191 242,601 C242,681.483 846.319,686.059 1041.79,685.435 " fill="none" id="Quote-SecuritiesPricing" style="stroke: #A80036; stroke-width: 1.0;"/><polygon fill="#A80036" points="1046.89,685.417,1037.8786,681.4427,1041.89,685.4313,1037.9015,689.4427,1046.89,685.417" style="stroke: #A80036; stroke-width: 1.0;"/><text fill="#000000" font-family="sans-serif" font-size="13" lengthAdjust="spacingAndGlyphs" textLength="99" x="243" y="400.0669">RequestedPrice</text><text fill="#000000" font-family="sans-serif" font-size="13" lengthAdjust="spacingAndGlyphs" textLength="8" x="1030.9398" y="698.2932">1</text><!--link Quote to SecuritiesPricing--><path d="M789.561,80.277 C678.198,92.767 514.383,117.129 465,156 C362.168,236.942 414,315.133 414,446 C414,446 414,446 414,601 C414,663.942 873.566,680.109 1041.49,683.916 " fill="none" id="Quote-SecuritiesPricing" style="stroke: #A80036; stroke-width: 1.0;"/><polygon fill="#A80036" points="1046.86,684.035,1037.9538,679.8303,1041.8613,683.9207,1037.7709,687.8282,1046.86,684.035" style="stroke: #A80036; stroke-width: 1.0;"/><text fill="#000000" font-family="sans-serif" font-size="13" lengthAdjust="spacingAndGlyphs" textLength="31" x="414" y="400.0669">Price</text><text fill="#000000" font-family="sans-serif" font-size="13" lengthAdjust="spacingAndGlyphs" textLength="8" x="1030.9063" y="678.9014">1</text><!--link Quote to SecuritiesPricing--><path d="M789.569,75.241 C570.111,87.303 94,121.481 94,191 C94,191 94,191 94,601 C94,698.012 211.744,631.911 308,644 C580.461,678.22 908.959,684.015 1041.86,684.898 " fill="none" id="Quote-SecuritiesPricing" style="stroke: #A80036; stroke-width: 1.0;"/><polygon fill="#A80036" points="1046.89,684.929,1037.913,680.8776,1041.8901,684.9004,1037.8673,688.8775,1046.89,684.929" style="stroke: #A80036; stroke-width: 1.0;"/><text fill="#000000" font-family="sans-serif" font-size="13" lengthAdjust="spacingAndGlyphs" textLength="75" x="95" y="400.0669">MarketPrice</text><text fill="#000000" font-family="sans-serif" font-size="13" lengthAdjust="spacingAndGlyphs" textLength="8" x="1031.2376" y="678.0899">1</text><!--link Quote to SecuritiesQuoteVariable--><path d="M789.394,74.21 C709.587,83.832 615,111.917 615,191 C615,191 615,191 615,499 C615,574.992 858.225,593.338 990.567,597.696 " fill="none" id="Quote-SecuritiesQuoteVariable" style="stroke: #A80036; stroke-width: 1.0;"/><polygon fill="#A80036" points="995.617,597.858,986.7496,593.572,990.6196,597.698,986.4936,601.5679,995.617,597.858" style="stroke: #A80036; stroke-width: 1.0;"/><text fill="#000000" font-family="sans-serif" font-size="13" lengthAdjust="spacingAndGlyphs" textLength="141" x="616" y="349.0669">MidSideQuoteVariable</text><text fill="#000000" font-family="sans-serif" font-size="13" lengthAdjust="spacingAndGlyphs" textLength="8" x="979.6911" y="610.3754">1</text><!--link Quote to SecuritiesQuoteVariable--><path d="M853.353,98.007 C841.591,107.065 829.756,117.927 821,130 C804.079,153.33 799,162.18 799,191 C799,191 799,191 799,499 C799,541.813 918.208,571.599 999.653,586.953 " fill="none" id="Quote-SecuritiesQuoteVariable" style="stroke: #A80036; stroke-width: 1.0;"/><polygon fill="#A80036" points="1004.961,587.943,996.8473,582.3602,1000.0458,587.026,995.38,590.2245,1004.961,587.943" style="stroke: #A80036; stroke-width: 1.0;"/><text fill="#000000" font-family="sans-serif" font-size="13" lengthAdjust="spacingAndGlyphs" textLength="139" x="800" y="349.0669">BidSideQuoteVariable</text><text fill="#000000" font-family="sans-serif" font-size="13" lengthAdjust="spacingAndGlyphs" textLength="8" x="979.7103" y="579.531">1</text><!--link Quote to SecuritiesQuoteVariable--><path d="M885.68,98.065 C880.665,112.869 876.73,131.363 880,148 C896.759,233.277 991.568,431.097 1028,510 C1040.06,536.126 1055.75,565.655 1065.33,583.277 " fill="none" id="Quote-SecuritiesQuoteVariable" style="stroke: #A80036; stroke-width: 1.0;"/><polygon fill="#A80036" points="1067.87,587.919,1067.0659,578.103,1065.473,583.531,1060.0451,581.9382,1067.87,587.919" style="stroke: #A80036; stroke-width: 1.0;"/><text fill="#000000" font-family="sans-serif" font-size="13" lengthAdjust="spacingAndGlyphs" textLength="150" x="958" y="349.0669">OfferSideQuoteVariable</text><text fill="#000000" font-family="sans-serif" font-size="13" lengthAdjust="spacingAndGlyphs" textLength="8" x="1054.9581" y="576.9394">1</text><!--link Quote to SecuritiesQuoteVariable--><path d="M789.621,86.537 C629.857,116.562 357.051,192.493 426,354 C427.608,357.767 635.275,556.296 639,558 C699.607,585.715 881.947,594.7 990.36,597.609 " fill="none" id="Quote-SecuritiesQuoteVariable" style="stroke: #A80036; stroke-width: 1.0;"/><polygon fill="#A80036" points="995.465,597.743,986.5733,593.5078,990.4667,597.6115,986.3629,601.505,995.465,597.743" style="stroke: #A80036; stroke-width: 1.0;"/><text fill="#000000" font-family="sans-serif" font-size="13" lengthAdjust="spacingAndGlyphs" textLength="143" x="427" y="349.0669">SecurityQuoteVariable</text><text fill="#000000" font-family="sans-serif" font-size="13" lengthAdjust="spacingAndGlyphs" textLength="24" x="963.7245" y="593.026">0..1</text><!--link Quote to FinancialInstrumentSwap--><path d="M1006.49,75.048 C1137.82,82.427 1350.41,98.807 1423,130 C1439.52,137.099 1443.89,141.132 1454,156 C1478.86,192.55 1499.2,212.183 1480,252 C1419.42,377.646 1258.99,455.009 1188.29,483.987 " fill="none" id="Quote-FinancialInstrumentSwap" style="stroke: #A80036; stroke-width: 1.0;"/><polygon fill="#A80036" points="1183.36,485.99,1193.2039,486.3019,1187.9911,484.105,1190.1879,478.8922,1183.36,485.99" style="stroke: #A80036; stroke-width: 1.0;"/><text fill="#000000" font-family="sans-serif" font-size="13" lengthAdjust="spacingAndGlyphs" textLength="73" x="1464" y="298.0669">QuoteSwap</text><text fill="#000000" font-family="sans-serif" font-size="13" lengthAdjust="spacingAndGlyphs" textLength="8" x="1182.7337" y="475.0348">1</text><!--link Quote to QuoteStatus--><path d="M1006.49,72.012 C1143.39,77.114 1367.26,94.854 1419,156 C1490.47,240.459 1319.46,344.623 1251.42,381.382 " fill="none" id="Quote-QuoteStatus" style="stroke: #A80036; stroke-width: 1.0;"/><polygon fill="#A80036" points="1246.71,383.911,1256.5327,383.1936,1251.119,381.5529,1252.7597,376.1392,1246.71,383.911" style="stroke: #A80036; stroke-width: 1.0;"/><text fill="#000000" font-family="sans-serif" font-size="13" lengthAdjust="spacingAndGlyphs" textLength="42" x="1428" y="247.0669">Status</text><text fill="#000000" font-family="sans-serif" font-size="13" lengthAdjust="spacingAndGlyphs" textLength="8" x="1243.3681" y="372.9286">1</text><!--link Quote to Security--><path d="M1006.53,75.108 C1073.18,81.723 1158.76,96.633 1228,130 C1228.49,130.238 1346.77,233.5 1347,234 C1364.17,271.8 1299.71,285.521 1257.99,290.399 " fill="none" id="Quote-Security" style="stroke: #A80036; stroke-width: 1.0;"/><polygon fill="#A80036" points="1252.77,290.978,1262.1512,293.9768,1257.7404,290.4349,1261.2823,286.0242,1252.77,290.978" style="stroke: #A80036; stroke-width: 1.0;"/><text fill="#000000" font-family="sans-serif" font-size="13" lengthAdjust="spacingAndGlyphs" textLength="99" x="1314" y="196.0669">QuotedSecurity</text><text fill="#000000" font-family="sans-serif" font-size="13" lengthAdjust="spacingAndGlyphs" textLength="8" x="1261.5647" y="283.8274">1</text><!--link SecuritiesQuantity to Security--><path d="M1116.62,203.382 C1139.61,209.512 1165.1,219.109 1185,234 C1200,245.227 1211.25,263.812 1217.94,277.124 " fill="none" id="SecuritiesQuantity-Security" style="stroke: #A80036; stroke-width: 1.0;"/><polygon fill="#A80036" points="1220.19,281.766,1219.8559,271.9228,1218.0055,277.2685,1212.6598,275.418,1220.19,281.766" style="stroke: #A80036; stroke-width: 1.0;"/><text fill="#000000" font-family="sans-serif" font-size="13" lengthAdjust="spacingAndGlyphs" textLength="133" x="1204" y="247.0669">SecurityIdentification</text><text fill="#000000" font-family="sans-serif" font-size="13" lengthAdjust="spacingAndGlyphs" textLength="8" x="1207.7748" y="270.9919">1</text><!--link SecuritiesQuantity to Security--><path d="M1044.97,204.366 C1033.07,216.983 1018.22,237.481 1030,252 C1050.08,276.736 1142.19,287.101 1192.3,290.97 " fill="none" id="SecuritiesQuantity-Security" style="stroke: #A80036; stroke-width: 1.0;"/><polygon fill="#A80036" points="1197.31,291.346,1188.632,286.6884,1192.3238,290.9745,1188.0377,294.6663,1197.31,291.346" style="stroke: #A80036; stroke-width: 1.0;"/><text fill="#000000" font-family="sans-serif" font-size="13" lengthAdjust="spacingAndGlyphs" textLength="144" x="1031" y="247.0669">MinimumQuantityDebt</text><text fill="#000000" font-family="sans-serif" font-size="13" lengthAdjust="spacingAndGlyphs" textLength="8" x="1181.4646" y="285.1293">1</text><!--link InformationPartyRole to SecuritiesPricing--><path d="M1164.35,947.9108 C1154.23,905.5608 1117.98,753.88 1105.93,703.441 " fill="none" id="InformationPartyRole-SecuritiesPricing" style="stroke: #A80036; stroke-width: 1.0;"/><polygon fill="#A80036" points="1104.71,698.341,1102.9127,708.0245,1105.8728,703.2039,1110.6934,706.164,1104.71,698.341" style="stroke: #A80036; stroke-width: 1.0;"/><text fill="#000000" font-family="sans-serif" font-size="13" lengthAdjust="spacingAndGlyphs" textLength="31" x="1137" y="827.0669">Price</text><text fill="#000000" font-family="sans-serif" font-size="13" lengthAdjust="spacingAndGlyphs" textLength="7" x="1096.0276" y="718.0036">*</text><!--link SecuritiesPricing to Security--><path d="M1114.95,673.659 C1143.86,647.647 1214.09,580.48 1252,510 C1262.78,489.96 1296.72,426.195 1284,384 C1275.27,355.037 1253.7,326.838 1239.2,310.196 " fill="none" id="SecuritiesPricing-Security" style="stroke: #A80036; stroke-width: 1.0;"/><polygon fill="#A80036" points="1235.68,306.22,1238.6518,315.6098,1238.9947,309.9633,1244.6412,310.3062,1235.68,306.22" style="stroke: #A80036; stroke-width: 1.0;"/><text fill="#000000" font-family="sans-serif" font-size="13" lengthAdjust="spacingAndGlyphs" textLength="52" x="1266" y="502.0669">Security</text><text fill="#000000" font-family="sans-serif" font-size="13" lengthAdjust="spacingAndGlyphs" textLength="7" x="1229.9165" y="326.0839">*</text></g></svg>