<?xml version="1.0" encoding="UTF-8" standalone="no"?><svg xmlns="http://www.w3.org/2000/svg" xmlns:xlink="http://www.w3.org/1999/xlink" contentScriptType="application/ecmascript" contentStyleType="text/css" height="707px" preserveAspectRatio="none" style="width:2830px;height:707px;" version="1.1" viewBox="0 0 2830 707" width="2830px" zoomAndPan="magnify"><defs><filter height="300%" id="f7iq7hkdkyuth" width="300%" x="-1" y="-1"><feGaussianBlur result="blurOut" stdDeviation="2.0"/><feColorMatrix in="blurOut" result="blurOut2" type="matrix" values="0 0 0 0 0 0 0 0 0 0 0 0 0 0 0 0 0 0 .4 0"/><feOffset dx="4.0" dy="4.0" in="blurOut2" result="blurOut3"/><feBlend in="SourceGraphic" in2="blurOut3" mode="normal"/></filter></defs><g><!--cluster ##8604--><!--cluster ##8607--><!--class RateAndAmount--><a target="_top" xlink:actuate="onRequest" xlink:href="../RateAndAmount.html" xlink:show="new" xlink:title="Specifies the value expressed as a rate or an amount. For example, the value of a tax or a commission." xlink:type="simple"><rect fill="#FEFECE" filter="url(#f7iq7hkdkyuth)" height="83.1875" id="RateAndAmount" style="stroke: #A80036; stroke-width: 1.5;" width="199" x="818.75" y="40.5"/><rect fill="#FEFECE" height="23.9688" style="stroke: #A80036; stroke-width: 1.5;" width="199" x="818.75" y="40.5"/><text fill="#000000" font-family="sans-serif" font-size="12" lengthAdjust="spacingAndGlyphs" textLength="101" x="867.75" y="56.6387">RateAndAmount</text><line style="stroke: #A80036; stroke-width: 1.5;" x1="819.75" x2="1016.75" y1="64.4688" y2="64.4688"/><ellipse cx="829.75" cy="76.3711" fill="#84BE84" rx="3" ry="3" style="stroke: #038048; stroke-width: 1.0;"/><text fill="#000000" font-family="sans-serif" font-size="11" lengthAdjust="spacingAndGlyphs" textLength="43" x="838.75" y="78.6792">Amount</text><text fill="#000000" font-family="sans-serif" font-size="11" font-style="italic" lengthAdjust="spacingAndGlyphs" textLength="126" x="885.75" y="78.6792">(CurrencyAndAmount)</text><ellipse cx="829.75" cy="89.1758" fill="#84BE84" rx="3" ry="3" style="stroke: #038048; stroke-width: 1.0;"/><text fill="#000000" font-family="sans-serif" font-size="11" lengthAdjust="spacingAndGlyphs" textLength="25" x="838.75" y="91.4839">Rate</text><text fill="#000000" font-family="sans-serif" font-size="11" font-style="italic" lengthAdjust="spacingAndGlyphs" textLength="98" x="867.75" y="91.4839">(PercentageRate)</text><ellipse cx="829.75" cy="101.9805" fill="#84BE84" rx="3" ry="3" style="stroke: #038048; stroke-width: 1.0;"/><text fill="#000000" font-family="sans-serif" font-size="11" lengthAdjust="spacingAndGlyphs" textLength="80" x="838.75" y="104.2886">AbsoluteValue</text><text fill="#000000" font-family="sans-serif" font-size="11" font-style="italic" lengthAdjust="spacingAndGlyphs" textLength="53" x="922.75" y="104.2886">(Number)</text><ellipse cx="829.75" cy="114.7852" fill="#84BE84" rx="3" ry="3" style="stroke: #038048; stroke-width: 1.0;"/><text fill="#000000" font-family="sans-serif" font-size="11" lengthAdjust="spacingAndGlyphs" textLength="51" x="838.75" y="117.0933">Operator</text><text fill="#000000" font-family="sans-serif" font-size="11" font-style="italic" lengthAdjust="spacingAndGlyphs" textLength="88" x="893.75" y="117.0933">(OperatorCode)</text></a><!--class Dividend--><a target="_top" xlink:actuate="onRequest" xlink:href="../Dividend.html" xlink:show="new" xlink:title="Distribution of earnings to shareholders, paid for in cash, stock, scrip issue or, rarely, in kind, for example, in company products or property. The dividend amount is decided by the board of directors." xlink:type="simple"><rect fill="#EEEEEE" filter="url(#f7iq7hkdkyuth)" height="23.9688" id="Dividend" style="stroke: #A80036; stroke-width: 1.5;" width="59" x="192.75" y="666"/><rect fill="#EEEEEE" height="23.9688" style="stroke: #A80036; stroke-width: 1.5;" width="59" x="192.75" y="666"/><text fill="#000000" font-family="sans-serif" font-size="12" lengthAdjust="spacingAndGlyphs" textLength="53" x="195.75" y="682.1387">Dividend</text></a><!--class Index--><a target="_top" xlink:actuate="onRequest" xlink:href="../Index.html" xlink:show="new" xlink:title="Identifies the index." xlink:type="simple"><rect fill="#EEEEEE" filter="url(#f7iq7hkdkyuth)" height="23.9688" id="Index" style="stroke: #A80036; stroke-width: 1.5;" width="39" x="202.75" y="580"/><rect fill="#EEEEEE" height="23.9688" style="stroke: #A80036; stroke-width: 1.5;" width="39" x="202.75" y="580"/><text fill="#000000" font-family="sans-serif" font-size="12" lengthAdjust="spacingAndGlyphs" textLength="33" x="205.75" y="596.1387">Index</text></a><!--class BiddingConditions--><a target="_top" xlink:actuate="onRequest" xlink:href="../BiddingConditions.html" xlink:show="new" xlink:title="Specifies the conditions under which securities can be acquired as part of a corporate action." xlink:type="simple"><rect fill="#EEEEEE" filter="url(#f7iq7hkdkyuth)" height="23.9688" id="BiddingConditions" style="stroke: #A80036; stroke-width: 1.5;" width="118" x="134" y="494"/><rect fill="#EEEEEE" height="23.9688" style="stroke: #A80036; stroke-width: 1.5;" width="118" x="134" y="494"/><text fill="#000000" font-family="sans-serif" font-size="12" lengthAdjust="spacingAndGlyphs" textLength="112" x="137" y="510.1387">BiddingConditions</text></a><!--class CorporateActionFeesAndCharges--><a target="_top" xlink:actuate="onRequest" xlink:href="../CorporateActionFeesAndCharges.html" xlink:show="new" xlink:title="The definition of all the charges related to a corporate action event." xlink:type="simple"><rect fill="#EEEEEE" filter="url(#f7iq7hkdkyuth)" height="23.9688" id="CorporateActionFeesAndCharges" style="stroke: #A80036; stroke-width: 1.5;" width="214" x="38.5" y="408"/><rect fill="#EEEEEE" height="23.9688" style="stroke: #A80036; stroke-width: 1.5;" width="214" x="38.5" y="408"/><text fill="#000000" font-family="sans-serif" font-size="12" lengthAdjust="spacingAndGlyphs" textLength="208" x="41.5" y="424.1387">CorporateActionFeesAndCharges</text></a><!--class SecuritiesTax--><a target="_top" xlink:actuate="onRequest" xlink:href="../SecuritiesTax.html" xlink:show="new" xlink:title="Amount of money due to the government or tax authority, according to various pre-defined parameters such as thresholds or income." xlink:type="simple"><rect fill="#EEEEEE" filter="url(#f7iq7hkdkyuth)" height="23.9688" id="SecuritiesTax" style="stroke: #A80036; stroke-width: 1.5;" width="89" x="37.75" y="306"/><rect fill="#EEEEEE" height="23.9688" style="stroke: #A80036; stroke-width: 1.5;" width="89" x="37.75" y="306"/><text fill="#000000" font-family="sans-serif" font-size="12" lengthAdjust="spacingAndGlyphs" textLength="83" x="40.75" y="322.1387">SecuritiesTax</text></a><!--class Issuance--><a target="_top" xlink:actuate="onRequest" xlink:href="../Issuance.html" xlink:show="new" xlink:title="Preparation/bringing to market of a security (also known as primary market or Initial Public Offering (IPO) issuance)." xlink:type="simple"><rect fill="#EEEEEE" filter="url(#f7iq7hkdkyuth)" height="23.9688" id="Issuance" style="stroke: #A80036; stroke-width: 1.5;" width="62" x="49.5" y="204"/><rect fill="#EEEEEE" height="23.9688" style="stroke: #A80036; stroke-width: 1.5;" width="62" x="49.5" y="204"/><text fill="#000000" font-family="sans-serif" font-size="12" lengthAdjust="spacingAndGlyphs" textLength="56" x="52.5" y="220.1387">Issuance</text></a><!--class YieldCalculation--><a target="_top" xlink:actuate="onRequest" xlink:href="../YieldCalculation.html" xlink:show="new" xlink:title="Characteristics related to the yield." xlink:type="simple"><rect fill="#EEEEEE" filter="url(#f7iq7hkdkyuth)" height="23.9688" id="YieldCalculation" style="stroke: #A80036; stroke-width: 1.5;" width="104" x="38" y="70"/><rect fill="#EEEEEE" height="23.9688" style="stroke: #A80036; stroke-width: 1.5;" width="104" x="38" y="70"/><text fill="#000000" font-family="sans-serif" font-size="12" lengthAdjust="spacingAndGlyphs" textLength="98" x="41" y="86.1387">YieldCalculation</text></a><!--link Index to Dividend--><!--link BiddingConditions to Index--><!--link CorporateActionFeesAndCharges to BiddingConditions--><!--link SecuritiesTax to CorporateActionFeesAndCharges--><!--link Issuance to SecuritiesTax--><!--link YieldCalculation to Issuance--><!--link RateAndAmount to Dividend--><path d="M944.863,123.574 C950.275,133.754 955.168,144.94 958,156 C971.25,207.755 964.623,224.342 951,276 C944.433,300.9 943.86,308.297 930,330 C917.057,350.266 868.868,388.356 855,408 C839.525,429.921 828,435.167 828,462 C828,462 828,462 828,593 C828,651.0775 385.653,671.2312 256.814,675.8696 " fill="none" id="RateAndAmount-Dividend" style="stroke: #A80036; stroke-width: 1.0;"/><polygon fill="#A80036" points="251.639,676.0535,260.7761,679.7295,256.6358,675.8749,260.4904,671.7346,251.639,676.0535" style="stroke: #A80036; stroke-width: 1.0;"/><text fill="#000000" font-family="sans-serif" font-size="13" lengthAdjust="spacingAndGlyphs" textLength="159" x="856" y="424.0669">FinalDividendParameters</text><text fill="#000000" font-family="sans-serif" font-size="13" lengthAdjust="spacingAndGlyphs" textLength="8" x="259.7776" y="669.5941">1</text><!--link RateAndAmount to Dividend--><path d="M999.367,123.507 C1031.1,145.458 1060,176.124 1060,215 C1060,215 1060,215 1060,593 C1060,675.095 415.04,677.7973 256.757,677.2244 " fill="none" id="RateAndAmount-Dividend" style="stroke: #A80036; stroke-width: 1.0;"/><polygon fill="#A80036" points="251.334,677.2027,260.3179,681.2387,256.334,677.2227,260.3499,673.2387,251.334,677.2027" style="stroke: #A80036; stroke-width: 1.0;"/><text fill="#000000" font-family="sans-serif" font-size="13" lengthAdjust="spacingAndGlyphs" textLength="314" x="1061" y="424.0669">FullyFrankedRateAndAmountDividendParameters</text><text fill="#000000" font-family="sans-serif" font-size="13" lengthAdjust="spacingAndGlyphs" textLength="24" x="259.8076" y="690.6689">0..1</text><!--link RateAndAmount to Dividend--><path d="M1017.5,87.624 C1170.74,97.499 1447,127.443 1447,215 C1447,215 1447,215 1447,593 C1447,654.3759 455.33,673.3077 256.474,676.487 " fill="none" id="RateAndAmount-Dividend" style="stroke: #A80036; stroke-width: 1.0;"/><polygon fill="#A80036" points="251.373,676.5679,260.4358,680.4234,256.3724,676.4879,260.3078,672.4244,251.373,676.5679" style="stroke: #A80036; stroke-width: 1.0;"/><text fill="#000000" font-family="sans-serif" font-size="13" lengthAdjust="spacingAndGlyphs" textLength="167" x="1448" y="424.0669">GrossDividendParameters</text><text fill="#000000" font-family="sans-serif" font-size="13" lengthAdjust="spacingAndGlyphs" textLength="8" x="259.5606" y="665.6166">1</text><!--link RateAndAmount to Dividend--><path d="M1017.35,89.842 C1225.24,105.494 1687,147.821 1687,215 C1687,215 1687,215 1687,593 C1687,667.0925 476.873,675.8918 256.289,676.8803 " fill="none" id="RateAndAmount-Dividend" style="stroke: #A80036; stroke-width: 1.0;"/><polygon fill="#A80036" points="251.264,676.9022,260.2822,680.861,256.2639,676.8793,260.2456,672.8611,251.264,676.9022" style="stroke: #A80036; stroke-width: 1.0;"/><text fill="#000000" font-family="sans-serif" font-size="13" lengthAdjust="spacingAndGlyphs" textLength="153" x="1688" y="424.0669">NetDividendParameters</text><text fill="#000000" font-family="sans-serif" font-size="13" lengthAdjust="spacingAndGlyphs" textLength="8" x="259.9743" y="693.7512">1</text><!--link RateAndAmount to Dividend--><path d="M1017.5,85.885 C1269.5,94.509 1913,125.312 1913,215 C1913,215 1913,215 1913,593 C1913,679.0767 496.872,677.9577 256.478,677.1476 " fill="none" id="RateAndAmount-Dividend" style="stroke: #A80036; stroke-width: 1.0;"/><polygon fill="#A80036" points="251.35,677.1298,260.3351,681.1632,256.35,677.1484,260.3648,673.1633,251.35,677.1298" style="stroke: #A80036; stroke-width: 1.0;"/><text fill="#000000" font-family="sans-serif" font-size="13" lengthAdjust="spacingAndGlyphs" textLength="198" x="1914" y="424.0669">ProvisionalDividendParameters</text><text fill="#000000" font-family="sans-serif" font-size="13" lengthAdjust="spacingAndGlyphs" textLength="8" x="259.8319" y="670.8166">1</text><!--link RateAndAmount to Dividend--><path d="M1017.34,82.978 C1315.79,84.215 2184,97.879 2184,215 C2184,215 2184,215 2184,593 C2184,680.1919 1880.99,630.0804 1794,636 C1178.97,677.852 425.92,677.7717 256.796,677.1702 " fill="none" id="RateAndAmount-Dividend" style="stroke: #A80036; stroke-width: 1.0;"/><polygon fill="#A80036" points="251.494,677.1505,260.4791,681.1839,256.494,677.1691,260.5088,673.184,251.494,677.1505" style="stroke: #A80036; stroke-width: 1.0;"/><text fill="#000000" font-family="sans-serif" font-size="13" lengthAdjust="spacingAndGlyphs" textLength="324" x="2185" y="424.0669">ConduitForeignIncomeAmountDividendParameters</text><text fill="#000000" font-family="sans-serif" font-size="13" lengthAdjust="spacingAndGlyphs" textLength="8" x="259.5972" y="690.8584">1</text><!--link RateAndAmount to Dividend--><path d="M1017.36,85.654 C1375.75,95.872 2581,136.1 2581,215 C2581,215 2581,215 2581,593 C2581,653.8583 548.798,674.1083 256.782,676.7039 " fill="none" id="RateAndAmount-Dividend" style="stroke: #A80036; stroke-width: 1.0;"/><polygon fill="#A80036" points="251.399,676.7515,260.4341,680.6716,256.3988,676.7072,260.3632,672.6719,251.399,676.7515" style="stroke: #A80036; stroke-width: 1.0;"/><text fill="#000000" font-family="sans-serif" font-size="13" lengthAdjust="spacingAndGlyphs" textLength="236" x="2582" y="424.0669">DeemedAmountDividendParameters</text><text fill="#000000" font-family="sans-serif" font-size="13" lengthAdjust="spacingAndGlyphs" textLength="8" x="259.6052" y="665.931">1</text><!--link RateAndAmount to Index--><path d="M926.465,123.91 C934.983,177.014 941.17,269.971 896,330 C874.673,358.342 365.095,540.273 246.503,582.331 " fill="none" id="RateAndAmount-Index" style="stroke: #A80036; stroke-width: 1.0;"/><polygon fill="#A80036" points="241.476,584.113,251.2952,584.8773,246.1889,582.443,248.6232,577.3367,241.476,584.113" style="stroke: #A80036; stroke-width: 1.0;"/><text fill="#000000" font-family="sans-serif" font-size="13" lengthAdjust="spacingAndGlyphs" textLength="34" x="839" y="373.0669">Index</text><text fill="#000000" font-family="sans-serif" font-size="13" lengthAdjust="spacingAndGlyphs" textLength="8" x="249.7503" y="574.3712">1</text><!--link RateAndAmount to BiddingConditions--><path d="M851.723,123.9 C840.259,133.311 829.359,144.1 821,156 C788.92,201.67 827.384,240.89 784,276 C725.728,323.159 517.731,278.483 448,306 C393.001,327.704 255.942,448.352 209.039,490.48 " fill="none" id="RateAndAmount-BiddingConditions" style="stroke: #A80036; stroke-width: 1.0;"/><polygon fill="#A80036" points="205.301,493.843,214.667,490.7971,209.018,490.4988,209.3163,484.8498,205.301,493.843" style="stroke: #A80036; stroke-width: 1.0;"/><text fill="#000000" font-family="sans-serif" font-size="13" lengthAdjust="spacingAndGlyphs" textLength="225" x="449" y="322.0669">MaximumAllowedBiddingConditions</text><text fill="#000000" font-family="sans-serif" font-size="13" lengthAdjust="spacingAndGlyphs" textLength="8" x="198.8107" y="482.8372">1</text><!--link RateAndAmount to BiddingConditions--><path d="M900.932,123.821 C879.401,173.7 842.262,254.162 818,276 C811.881,281.508 687.708,327.108 680,330 C512.71,392.774 311.42,463.633 229.927,492.128 " fill="none" id="RateAndAmount-BiddingConditions" style="stroke: #A80036; stroke-width: 1.0;"/><polygon fill="#A80036" points="224.734,493.943,234.5496,494.7516,229.4544,492.2943,231.9117,487.1991,224.734,493.943" style="stroke: #A80036; stroke-width: 1.0;"/><text fill="#000000" font-family="sans-serif" font-size="13" lengthAdjust="spacingAndGlyphs" textLength="143" x="745" y="322.0669">RateBiddingConditions</text><text fill="#000000" font-family="sans-serif" font-size="13" lengthAdjust="spacingAndGlyphs" textLength="8" x="224.9238" y="482.9716">1</text><!--link RateAndAmount to CorporateActionFeesAndCharges--><path d="M818.385,89.435 C731.423,97.576 603.055,115.768 498,156 C441.686,177.566 439.723,207.535 383,228 C335.759,245.044 193.679,221.673 159,258 C139.519,278.407 142.006,366.111 143.968,402.783 " fill="none" id="RateAndAmount-CorporateActionFeesAndCharges" style="stroke: #A80036; stroke-width: 1.0;"/><polygon fill="#A80036" points="144.251,407.809,147.738,398.5981,143.9695,402.8169,139.7507,399.0484,144.251,407.809" style="stroke: #A80036; stroke-width: 1.0;"/><text fill="#000000" font-family="sans-serif" font-size="13" lengthAdjust="spacingAndGlyphs" textLength="272" x="160" y="271.0669">SolicitationFeeCorporateActionParameters</text><text fill="#000000" font-family="sans-serif" font-size="13" lengthAdjust="spacingAndGlyphs" textLength="8" x="133.181" y="397.0492">1</text><!--link RateAndAmount to CorporateActionFeesAndCharges--><path d="M818.65,119.288 C727.978,153.082 590.719,205.94 474,258 C457.663,265.287 454.038,268.077 438,276 C340.462,324.185 224.228,380.622 172.35,405.76 " fill="none" id="RateAndAmount-CorporateActionFeesAndCharges" style="stroke: #A80036; stroke-width: 1.0;"/><polygon fill="#A80036" points="167.831,407.949,177.6745,407.625,172.3308,405.7691,174.1867,400.4254,167.831,407.949" style="stroke: #A80036; stroke-width: 1.0;"/><text fill="#000000" font-family="sans-serif" font-size="13" lengthAdjust="spacingAndGlyphs" textLength="303" x="475" y="271.0669">EarlySolicitationFeeCorporateActionParameters</text><text fill="#000000" font-family="sans-serif" font-size="13" lengthAdjust="spacingAndGlyphs" textLength="8" x="164.7885" y="396.9797">1</text><!--link RateAndAmount to SecuritiesTax--><path d="M818.56,92.033 C724.222,102.169 579.129,121.847 457,156 C436.652,161.69 433.091,167.46 413,174 C359.905,191.284 344.683,188.639 291,204 C216.817,225.228 188.658,212.969 126,258 C110.29,269.29 97.7719,287.864 90.1654,301.156 " fill="none" id="RateAndAmount-SecuritiesTax" style="stroke: #A80036; stroke-width: 1.0;"/><polygon fill="#A80036" points="87.5884,305.79,95.4581,299.8682,90.0183,301.4202,88.4664,295.9804,87.5884,305.79" style="stroke: #A80036; stroke-width: 1.0;"/><text fill="#000000" font-family="sans-serif" font-size="13" lengthAdjust="spacingAndGlyphs" textLength="85" x="292" y="220.0669">SecuritiesTax</text><text fill="#000000" font-family="sans-serif" font-size="13" lengthAdjust="spacingAndGlyphs" textLength="8" x="78.7005" y="295.0239">1</text><!--link RateAndAmount to Issuance--><path d="M818.491,94.756 C691.088,109.392 463.426,134.148 268,148 C257.406,148.751 84.351,148.335 77,156 C66.3461,167.11 69.2148,185.47 73.4125,198.762 " fill="none" id="RateAndAmount-Issuance" style="stroke: #A80036; stroke-width: 1.0;"/><polygon fill="#A80036" points="75.126,203.759,75.9912,193.9482,73.5045,199.0292,68.4236,196.5425,75.126,203.759" style="stroke: #A80036; stroke-width: 1.0;"/><text fill="#000000" font-family="sans-serif" font-size="13" lengthAdjust="spacingAndGlyphs" textLength="153" x="78" y="169.0669">InterestRelatedIssuance</text><text fill="#000000" font-family="sans-serif" font-size="13" lengthAdjust="spacingAndGlyphs" textLength="8" x="62.6896" y="192.9826">1</text><!--link RateAndAmount to Issuance--><path d="M818.622,83.545 C690.089,86.654 460.462,100.432 273,156 C255.849,161.084 253.745,167.706 237,174 C196.45,189.242 147.968,200.966 115.713,207.899 " fill="none" id="RateAndAmount-Issuance" style="stroke: #A80036; stroke-width: 1.0;"/><polygon fill="#A80036" points="110.679,208.971,120.3148,211.0086,115.5693,207.9295,118.6484,203.184,110.679,208.971" style="stroke: #A80036; stroke-width: 1.0;"/><text fill="#000000" font-family="sans-serif" font-size="13" lengthAdjust="spacingAndGlyphs" textLength="133" x="274" y="169.0669">LossRelatedIssuance</text><text fill="#000000" font-family="sans-serif" font-size="13" lengthAdjust="spacingAndGlyphs" textLength="8" x="119.4374" y="201.0796">1</text><!--link RateAndAmount to YieldCalculation--><path d="M818.507,82 C643.648,82 286.577,82 147.37,82 " fill="none" id="RateAndAmount-YieldCalculation" style="stroke: #A80036; stroke-width: 1.0;"/><polygon fill="#A80036" points="142.109,82,151.109,86,147.109,82,151.109,78,142.109,82" style="stroke: #A80036; stroke-width: 1.0;"/><text fill="#000000" font-family="sans-serif" font-size="13" lengthAdjust="spacingAndGlyphs" textLength="147" x="406.25" y="74.0669">RelatedYieldCalculation</text><text fill="#000000" font-family="sans-serif" font-size="13" lengthAdjust="spacingAndGlyphs" textLength="24" x="149.9223" y="77.041">0..1</text></g></svg>