<?xml version="1.0" encoding="UTF-8" standalone="no"?><svg xmlns="http://www.w3.org/2000/svg" xmlns:xlink="http://www.w3.org/1999/xlink" contentScriptType="application/ecmascript" contentStyleType="text/css" height="315px" preserveAspectRatio="none" style="width:610px;height:315px;" version="1.1" viewBox="0 0 610 315" width="610px" zoomAndPan="magnify"><defs><filter height="300%" id="f1jqq93fjp8nkc" width="300%" x="-1" y="-1"><feGaussianBlur result="blurOut" stdDeviation="2.0"/><feColorMatrix in="blurOut" result="blurOut2" type="matrix" values="0 0 0 0 0 0 0 0 0 0 0 0 0 0 0 0 0 0 .4 0"/><feOffset dx="4.0" dy="4.0" in="blurOut2" result="blurOut3"/><feBlend in="SourceGraphic" in2="blurOut3" mode="normal"/></filter></defs><g><!--cluster ##12212--><!--cluster ##12218--><!--class InvestigationResolution--><a target="_top" xlink:actuate="onRequest" xlink:href="../InvestigationResolution.html" xlink:show="new" xlink:title="Specifies the actions taken as a result of an investigation." xlink:type="simple"><rect fill="#FEFEEE" filter="url(#f1jqq93fjp8nkc)" height="44.7734" id="InvestigationResolution" style="stroke: #A80036; stroke-width: 1.5;" width="258" x="72" y="40.5"/><rect fill="#FEFEEE" height="23.9688" style="stroke: #A80036; stroke-width: 1.5;" width="258" x="72" y="40.5"/><text fill="#000000" font-family="sans-serif" font-size="12" lengthAdjust="spacingAndGlyphs" textLength="146" x="128" y="56.6387">InvestigationResolution</text><line style="stroke: #A80036; stroke-width: 1.5;" x1="73" x2="329" y1="64.4688" y2="64.4688"/><ellipse cx="83" cy="76.3711" fill="#84BE84" rx="3" ry="3" style="stroke: #038048; stroke-width: 1.0;"/><text fill="#000000" font-family="sans-serif" font-size="11" lengthAdjust="spacingAndGlyphs" textLength="158" x="92" y="78.6792">InvestigationCaseReference</text><text fill="#000000" font-family="sans-serif" font-size="11" font-style="italic" lengthAdjust="spacingAndGlyphs" textLength="70" x="254" y="78.6792">(Max35Text)</text></a><!--class Reassignment--><a target="_top" xlink:actuate="onRequest" xlink:href="../Reassignment.html" xlink:show="new" xlink:title="Action that consists in forwarding an investigation case assignment to another party which becomes the new assignee." xlink:type="simple"><rect fill="#FEFECE" filter="url(#f1jqq93fjp8nkc)" height="44.7734" id="Reassignment" style="stroke: #A80036; stroke-width: 1.5;" width="286" x="48" y="148.5"/><rect fill="#FEFECE" height="23.9688" style="stroke: #A80036; stroke-width: 1.5;" width="286" x="48" y="148.5"/><text fill="#000000" font-family="sans-serif" font-size="12" lengthAdjust="spacingAndGlyphs" textLength="89" x="146.5" y="164.6387">Reassignment</text><line style="stroke: #A80036; stroke-width: 1.5;" x1="49" x2="333" y1="172.4688" y2="172.4688"/><ellipse cx="59" cy="184.3711" fill="#84BE84" rx="3" ry="3" style="stroke: #038048; stroke-width: 1.0;"/><text fill="#000000" font-family="sans-serif" font-size="11" lengthAdjust="spacingAndGlyphs" textLength="65" x="68" y="186.6792">Justification</text><text fill="#000000" font-family="sans-serif" font-size="11" font-style="italic" lengthAdjust="spacingAndGlyphs" textLength="191" x="137" y="186.6792">(CaseForwardingNotificationCode)</text></a><!--class InvestigationCase--><a target="_top" xlink:actuate="onRequest" xlink:href="../InvestigationCase.html" xlink:show="new" xlink:title="Set of activities performed to handle an exception to a normal transaction flow.." xlink:type="simple"><rect fill="#EEEEEE" filter="url(#f1jqq93fjp8nkc)" height="23.9688" id="InvestigationCase" style="stroke: #A80036; stroke-width: 1.5;" width="117" x="279.75" y="278"/><rect fill="#EEEEEE" height="23.9688" style="stroke: #A80036; stroke-width: 1.5;" width="117" x="279.75" y="278"/><text fill="#000000" font-family="sans-serif" font-size="12" lengthAdjust="spacingAndGlyphs" textLength="111" x="282.75" y="294.1387">InvestigationCase</text></a><!--entity ##12221--><!--link InvestigationResolution to Reassignment--><path d="M197.069,105.668 C195.693,120.252 194.204,136.038 193.045,148.323 " fill="none" id="InvestigationResolution-Reassignment" style="stroke: #A80036; stroke-width: 1.0;"/><polygon fill="none" points="190.105,104.961,198.952,85.706,204.043,106.276,190.105,104.961" style="stroke: #A80036; stroke-width: 1.0;"/><!--link InvestigationResolution to InvestigationCase--><path d="M259.695,85.595 C290.37,99.415 326.517,120.046 351,148 C380.541,181.729 398.925,202.481 382,244 C377.092,256.0405 367.239,266.6107 358.099,274.4758 " fill="none" id="InvestigationResolution-InvestigationCase" style="stroke: #A80036; stroke-width: 1.0;"/><polygon fill="#A80036" points="354.243,277.6773,363.7226,275.0057,358.0899,274.4833,358.6122,268.8507,354.243,277.6773" style="stroke: #A80036; stroke-width: 1.0;"/><text fill="#000000" font-family="sans-serif" font-size="13" lengthAdjust="spacingAndGlyphs" textLength="113" x="390" y="175.0669">InvestigationCase</text><text fill="#000000" font-family="sans-serif" font-size="13" lengthAdjust="spacingAndGlyphs" textLength="24" x="330.2344" y="266.8738">0..1</text><!--link Reassignment to InvestigationCase--><path d="M213.004,193.758 C228.42,208.569 249.798,228.262 270,244 C284.448,255.2558 301.66,266.6279 315.152,275.124 " fill="none" id="Reassignment-InvestigationCase" style="stroke: #A80036; stroke-width: 1.0;"/><polygon fill="#A80036" points="319.576,277.8907,314.0667,269.7269,315.3369,275.2393,309.8245,276.5095,319.576,277.8907" style="stroke: #A80036; stroke-width: 1.0;"/><text fill="#000000" font-family="sans-serif" font-size="13" lengthAdjust="spacingAndGlyphs" textLength="105" x="271" y="239.0669">ReassignedCase</text><text fill="#000000" font-family="sans-serif" font-size="13" lengthAdjust="spacingAndGlyphs" textLength="24" x="283.6881" y="266.9013">0..1</text><!--link InvestigationCase to InvestigationCase--><path d="M396.578,279.8756 C415.741,279.9279 431,283.3027 431,290 C431,296.0694 418.468,299.4101 401.856,300.0221 " fill="none" id="InvestigationCase-InvestigationCase" style="stroke: #A80036; stroke-width: 1.0;"/><polygon fill="#A80036" points="396.578,300.1244,405.654,303.9488,401.5771,300.0273,405.4986,295.9503,396.578,300.1244" style="stroke: #A80036; stroke-width: 1.0;"/><text fill="#000000" font-family="sans-serif" font-size="13" lengthAdjust="spacingAndGlyphs" textLength="161" x="437" y="294.0669">OriginalInvestigationCase</text><text fill="#000000" font-family="sans-serif" font-size="13" lengthAdjust="spacingAndGlyphs" textLength="7" x="404.8861" y="296.4206">*</text></g></svg>