<?xml version="1.0" encoding="UTF-8" standalone="no"?><svg xmlns="http://www.w3.org/2000/svg" xmlns:xlink="http://www.w3.org/1999/xlink" contentScriptType="application/ecmascript" contentStyleType="text/css" height="458px" preserveAspectRatio="none" style="width:762px;height:458px;" version="1.1" viewBox="0 0 762 458" width="762px" zoomAndPan="magnify"><defs><filter height="300%" id="fu687d6vtatgy" width="300%" x="-1" y="-1"><feGaussianBlur result="blurOut" stdDeviation="2.0"/><feColorMatrix in="blurOut" result="blurOut2" type="matrix" values="0 0 0 0 0 0 0 0 0 0 0 0 0 0 0 0 0 0 .4 0"/><feOffset dx="4.0" dy="4.0" in="blurOut2" result="blurOut3"/><feBlend in="SourceGraphic" in2="blurOut3" mode="normal"/></filter></defs><g><!--cluster ##14081--><!--cluster ##14087--><!--class Reconciliation--><a target="_top" xlink:actuate="onRequest" xlink:href="../Reconciliation.html" xlink:show="new" xlink:title="Process of matching different documents submitted by parties to a trade." xlink:type="simple"><rect fill="#FEFECE" filter="url(#fu687d6vtatgy)" height="23.9688" id="Reconciliation" style="stroke: #A80036; stroke-width: 1.5;" width="93" x="111.75" y="40"/><rect fill="#FEFECE" height="23.9688" style="stroke: #A80036; stroke-width: 1.5;" width="93" x="111.75" y="40"/><text fill="#000000" font-family="sans-serif" font-size="12" lengthAdjust="spacingAndGlyphs" textLength="87" x="114.75" y="56.1387">Reconciliation</text></a><!--class ReconciliationTransaction--><a target="_top" xlink:actuate="onRequest" xlink:href="../ReconciliationTransaction.html" xlink:show="new" xlink:title="Totals performed during the reconciliation period, for a certain type of transaction." xlink:type="simple"><rect fill="#FEFEEE" filter="url(#fu687d6vtatgy)" height="23.9688" id="ReconciliationTransaction" style="stroke: #A80036; stroke-width: 1.5;" width="167" x="37.75" y="144"/><rect fill="#FEFEEE" height="23.9688" style="stroke: #A80036; stroke-width: 1.5;" width="167" x="37.75" y="144"/><text fill="#000000" font-family="sans-serif" font-size="12" lengthAdjust="spacingAndGlyphs" textLength="161" x="40.75" y="160.1387">ReconciliationTransaction</text></a><!--class System--><a target="_top" xlink:actuate="onRequest" xlink:href="../System.html" xlink:show="new" xlink:title="Set of integrated applications that provides centralised services such as clearing, netting, reconciliation, trading and/or settlement." xlink:type="simple"><rect fill="#EEEEEE" filter="url(#fu687d6vtatgy)" height="23.9688" id="System" style="stroke: #A80036; stroke-width: 1.5;" width="51" x="479.75" y="144"/><rect fill="#EEEEEE" height="23.9688" style="stroke: #A80036; stroke-width: 1.5;" width="51" x="479.75" y="144"/><text fill="#000000" font-family="sans-serif" font-size="12" lengthAdjust="spacingAndGlyphs" textLength="45" x="482.75" y="160.1387">System</text></a><!--class Document--><a target="_top" xlink:actuate="onRequest" xlink:href="../Document.html" xlink:show="new" xlink:title="General information that unambiguously identifies a document, such as identification number and issue date time." xlink:type="simple"><rect fill="#EEEEEE" filter="url(#fu687d6vtatgy)" height="23.9688" id="Document" style="stroke: #A80036; stroke-width: 1.5;" width="70" x="434" y="424"/><rect fill="#EEEEEE" height="23.9688" style="stroke: #A80036; stroke-width: 1.5;" width="70" x="434" y="424"/><text fill="#000000" font-family="sans-serif" font-size="12" lengthAdjust="spacingAndGlyphs" textLength="64" x="437" y="440.1387">Document</text></a><!--class Trade--><a target="_top" xlink:actuate="onRequest" xlink:href="../Trade.html" xlink:show="new" xlink:title="Result of an order between at least two parties. A trade relates to the delivery of goods and services, cash or securities." xlink:type="simple"><rect fill="#EEEEEE" filter="url(#fu687d6vtatgy)" height="23.9688" id="Trade" style="stroke: #A80036; stroke-width: 1.5;" width="42" x="448.5" y="338"/><rect fill="#EEEEEE" height="23.9688" style="stroke: #A80036; stroke-width: 1.5;" width="42" x="448.5" y="338"/><text fill="#000000" font-family="sans-serif" font-size="12" lengthAdjust="spacingAndGlyphs" textLength="36" x="451.5" y="354.1387">Trade</text></a><!--class Account--><a target="_top" xlink:actuate="onRequest" xlink:href="../Account.html" xlink:show="new" xlink:title="Record of transactions in specific types of assets, maintained by a servicing party on behalf of one or more owning parties. Business relationship between an account servicer and one or more account owners." xlink:type="simple"><rect fill="#EEEEEE" filter="url(#fu687d6vtatgy)" height="23.9688" id="Account" style="stroke: #A80036; stroke-width: 1.5;" width="57" x="543.75" y="250"/><rect fill="#EEEEEE" height="23.9688" style="stroke: #A80036; stroke-width: 1.5;" width="57" x="543.75" y="250"/><text fill="#000000" font-family="sans-serif" font-size="12" lengthAdjust="spacingAndGlyphs" textLength="51" x="546.75" y="266.1387">Account</text></a><!--link Reconciliation to ReconciliationTransaction--><path d="M147.013,83.289 C139.595,103.738 130.236,129.538 125.007,143.954 " fill="none" id="Reconciliation-ReconciliationTransaction" style="stroke: #A80036; stroke-width: 1.0;"/><polygon fill="none" points="140.498,80.72,153.899,64.306,153.659,85.494,140.498,80.72" style="stroke: #A80036; stroke-width: 1.0;"/><!--link Document to System--><!--link Trade to Document--><!--link Account to Trade--><!--link Reconciliation to System--><path d="M204.408,56.898 C252.022,61.886 327.729,72.58 390,94 C424.661,105.923 461.562,127.223 483.953,141.232 " fill="none" id="Reconciliation-System" style="stroke: #A80036; stroke-width: 1.0;"/><polygon fill="#A80036" points="488.232,143.932,482.7537,135.7474,484.003,141.2646,478.4858,142.5138,488.232,143.932" style="stroke: #A80036; stroke-width: 1.0;"/><text fill="#000000" font-family="sans-serif" font-size="13" lengthAdjust="spacingAndGlyphs" textLength="49" x="431" y="107.0669">System</text><text fill="#000000" font-family="sans-serif" font-size="13" lengthAdjust="spacingAndGlyphs" textLength="7" x="472.8352" y="132.9568">*</text><!--link Reconciliation to Document--><path d="M181.446,64.004 C211.003,79.691 258,111.478 258,155 C258,155 258,155 258,351 C258,387.3366 367.38,414.8938 428.635,427.4772 " fill="none" id="Reconciliation-Document" style="stroke: #A80036; stroke-width: 1.0;"/><polygon fill="#A80036" points="433.683,428.5029,425.6598,422.7907,428.7831,427.5072,424.0667,430.6305,433.683,428.5029" style="stroke: #A80036; stroke-width: 1.0;"/><text fill="#000000" font-family="sans-serif" font-size="13" lengthAdjust="spacingAndGlyphs" textLength="67" x="259" y="266.0669">Document</text><text fill="#000000" font-family="sans-serif" font-size="13" lengthAdjust="spacingAndGlyphs" textLength="8" x="418.0055" y="421.9339">1</text><!--link Reconciliation to Trade--><path d="M204.448,60.647 C229.808,66.564 260.696,76.765 284,94 C338.128,134.031 331.498,163.484 371,218 C401.593,260.221 438.703,309.252 457.253,333.615 " fill="none" id="Reconciliation-Trade" style="stroke: #A80036; stroke-width: 1.0;"/><polygon fill="#A80036" points="460.494,337.87,458.2195,328.2874,457.463,333.8934,451.857,333.137,460.494,337.87" style="stroke: #A80036; stroke-width: 1.0;"/><text fill="#000000" font-family="sans-serif" font-size="13" lengthAdjust="spacingAndGlyphs" textLength="111" x="372" y="213.0669">ReconciledTrades</text><text fill="#000000" font-family="sans-serif" font-size="13" lengthAdjust="spacingAndGlyphs" textLength="8" x="446.6794" y="326.8735">1</text><!--link Reconciliation to Account--><path d="M204.524,54.293 C269.554,57.097 390.799,65.967 490,94 C516.795,101.572 525.378,102.456 547,120 C581.307,147.836 592.198,158.032 606,200 C611.513,216.763 599.767,234.183 588.605,246.094 " fill="none" id="Reconciliation-Account" style="stroke: #A80036; stroke-width: 1.0;"/><polygon fill="#A80036" points="584.868,249.913,594.0213,246.2774,588.3648,246.3391,588.303,240.6826,584.868,249.913" style="stroke: #A80036; stroke-width: 1.0;"/><text fill="#000000" font-family="sans-serif" font-size="13" lengthAdjust="spacingAndGlyphs" textLength="52" x="603" y="160.0669">Account</text><text fill="#000000" font-family="sans-serif" font-size="13" lengthAdjust="spacingAndGlyphs" textLength="8" x="578.4867" y="238.9313">1</text><!--link System to Account--><path d="M512.17,168.13 C524.209,186.818 548.505,224.53 562.142,245.697 " fill="none" id="System-Account" style="stroke: #A80036; stroke-width: 1.0;"/><polygon fill="#A80036" points="564.881,249.95,563.3694,240.2178,562.1731,245.7468,556.6442,244.5505,564.881,249.95" style="stroke: #A80036; stroke-width: 1.0;"/><text fill="#000000" font-family="sans-serif" font-size="13" lengthAdjust="spacingAndGlyphs" textLength="52" x="544" y="213.0669">Account</text><text fill="#000000" font-family="sans-serif" font-size="13" lengthAdjust="spacingAndGlyphs" textLength="8" x="551.6292" y="238.981">1</text><!--link System to Trade--><path d="M502.715,168.194 C499.229,185.352 492.415,219.194 487,248 C481.381,277.887 475.25,312.836 471.79,332.799 " fill="none" id="System-Trade" style="stroke: #A80036; stroke-width: 1.0;"/><polygon fill="#A80036" points="470.929,337.778,476.4054,329.5921,471.7818,332.8513,468.5226,328.2276,470.929,337.778" style="stroke: #A80036; stroke-width: 1.0;"/><text fill="#000000" font-family="sans-serif" font-size="13" lengthAdjust="spacingAndGlyphs" textLength="36" x="488" y="266.0669">Trade</text><text fill="#000000" font-family="sans-serif" font-size="13" lengthAdjust="spacingAndGlyphs" textLength="8" x="460.7461" y="327.0079">1</text><!--link Account to Account--><path d="M600.508,254.332 C618.181,252.483 635,255.039 635,262 C635,268.254 621.424,270.952 605.85,270.095 " fill="none" id="Account-Account" style="stroke: #A80036; stroke-width: 1.0;"/><polygon fill="#A80036" points="600.508,269.668,609.1605,274.3727,605.4921,270.0666,609.7982,266.3981,600.508,269.668" style="stroke: #A80036; stroke-width: 1.0;"/><text fill="#000000" font-family="sans-serif" font-size="13" lengthAdjust="spacingAndGlyphs" textLength="94" x="641" y="266.0669">ParentAccount</text><text fill="#000000" font-family="sans-serif" font-size="13" lengthAdjust="spacingAndGlyphs" textLength="8" x="608.7741" y="265.5427">1</text></g></svg>