<?xml version="1.0" encoding="UTF-8" standalone="no"?><svg xmlns="http://www.w3.org/2000/svg" xmlns:xlink="http://www.w3.org/1999/xlink" contentScriptType="application/ecmascript" contentStyleType="text/css" height="542px" preserveAspectRatio="none" style="width:891px;height:542px;" version="1.1" viewBox="0 0 891 542" width="891px" zoomAndPan="magnify"><defs><filter height="300%" id="fd5f4f5ig68yf" width="300%" x="-1" y="-1"><feGaussianBlur result="blurOut" stdDeviation="2.0"/><feColorMatrix in="blurOut" result="blurOut2" type="matrix" values="0 0 0 0 0 0 0 0 0 0 0 0 0 0 0 0 0 0 .4 0"/><feOffset dx="4.0" dy="4.0" in="blurOut2" result="blurOut3"/><feBlend in="SourceGraphic" in2="blurOut3" mode="normal"/></filter></defs><g><!--cluster ##12996--><!--cluster ##13002--><!--cluster ##13011--><!--class Reconciliation--><a target="_top" xlink:actuate="onRequest" xlink:href="../Reconciliation.html" xlink:show="new" xlink:title="Process of matching different documents submitted by parties to a trade." xlink:type="simple"><rect fill="#FEFEEE" filter="url(#fd5f4f5ig68yf)" height="23.9688" id="Reconciliation" style="stroke: #A80036; stroke-width: 1.5;" width="93" x="249.75" y="40"/><rect fill="#FEFEEE" height="23.9688" style="stroke: #A80036; stroke-width: 1.5;" width="93" x="249.75" y="40"/><text fill="#000000" font-family="sans-serif" font-size="12" lengthAdjust="spacingAndGlyphs" textLength="87" x="252.75" y="56.1387">Reconciliation</text></a><!--class ReconciliationTransaction--><a target="_top" xlink:actuate="onRequest" xlink:href="../ReconciliationTransaction.html" xlink:show="new" xlink:title="Totals performed during the reconciliation period, for a certain type of transaction." xlink:type="simple"><rect fill="#FEFECE" filter="url(#fd5f4f5ig68yf)" height="108.7969" id="ReconciliationTransaction" style="stroke: #A80036; stroke-width: 1.5;" width="303" x="38.75" y="142.5"/><rect fill="#FEFECE" height="23.9688" style="stroke: #A80036; stroke-width: 1.5;" width="303" x="38.75" y="142.5"/><text fill="#000000" font-family="sans-serif" font-size="12" lengthAdjust="spacingAndGlyphs" textLength="161" x="109.75" y="158.6387">ReconciliationTransaction</text><line style="stroke: #A80036; stroke-width: 1.5;" x1="39.75" x2="340.75" y1="166.4688" y2="166.4688"/><ellipse cx="49.75" cy="178.3711" fill="#84BE84" rx="3" ry="3" style="stroke: #038048; stroke-width: 1.0;"/><text fill="#000000" font-family="sans-serif" font-size="11" lengthAdjust="spacingAndGlyphs" textLength="149" x="58.75" y="180.6792">ReconciliationIdentification</text><text fill="#000000" font-family="sans-serif" font-size="11" font-style="italic" lengthAdjust="spacingAndGlyphs" textLength="70" x="211.75" y="180.6792">(Max35Text)</text><ellipse cx="49.75" cy="191.1758" fill="#84BE84" rx="3" ry="3" style="stroke: #038048; stroke-width: 1.0;"/><text fill="#000000" font-family="sans-serif" font-size="11" lengthAdjust="spacingAndGlyphs" textLength="51" x="58.75" y="193.4839">Currency</text><text fill="#000000" font-family="sans-serif" font-size="11" font-style="italic" lengthAdjust="spacingAndGlyphs" textLength="89" x="113.75" y="193.4839">(CurrencyCode)</text><ellipse cx="49.75" cy="203.9805" fill="#84BE84" rx="3" ry="3" style="stroke: #038048; stroke-width: 1.0;"/><text fill="#000000" font-family="sans-serif" font-size="11" lengthAdjust="spacingAndGlyphs" textLength="94" x="58.75" y="206.2886">TransactionType</text><text fill="#000000" font-family="sans-serif" font-size="11" font-style="italic" lengthAdjust="spacingAndGlyphs" textLength="165" x="156.75" y="206.2886">(TypeTransactionTotalsCode)</text><ellipse cx="49.75" cy="216.7852" fill="#84BE84" rx="3" ry="3" style="stroke: #038048; stroke-width: 1.0;"/><text fill="#000000" font-family="sans-serif" font-size="11" lengthAdjust="spacingAndGlyphs" textLength="73" x="58.75" y="219.0933">TotalNumber</text><text fill="#000000" font-family="sans-serif" font-size="11" font-style="italic" lengthAdjust="spacingAndGlyphs" textLength="70" x="135.75" y="219.0933">(Max35Text)</text><ellipse cx="49.75" cy="229.5898" fill="#84BE84" rx="3" ry="3" style="stroke: #038048; stroke-width: 1.0;"/><text fill="#000000" font-family="sans-serif" font-size="11" lengthAdjust="spacingAndGlyphs" textLength="106" x="58.75" y="231.8979">CumulativeAmount</text><text fill="#000000" font-family="sans-serif" font-size="11" font-style="italic" lengthAdjust="spacingAndGlyphs" textLength="167" x="168.75" y="231.8979">(ImpliedCurrencyAndAmount)</text><ellipse cx="49.75" cy="242.3945" fill="#84BE84" rx="3" ry="3" style="stroke: #038048; stroke-width: 1.0;"/><text fill="#000000" font-family="sans-serif" font-size="11" lengthAdjust="spacingAndGlyphs" textLength="68" x="58.75" y="244.7026">ClosePeriod</text><text fill="#000000" font-family="sans-serif" font-size="11" font-style="italic" lengthAdjust="spacingAndGlyphs" textLength="112" x="130.75" y="244.7026">(TrueFalseIndicator)</text></a><!--class System--><a target="_top" xlink:actuate="onRequest" xlink:href="../System.html" xlink:show="new" xlink:title="Set of integrated applications that provides centralised services such as clearing, netting, reconciliation, trading and/or settlement." xlink:type="simple"><rect fill="#EEEEEE" filter="url(#fd5f4f5ig68yf)" height="23.9688" id="System" style="stroke: #A80036; stroke-width: 1.5;" width="51" x="771.75" y="185"/><rect fill="#EEEEEE" height="23.9688" style="stroke: #A80036; stroke-width: 1.5;" width="51" x="771.75" y="185"/><text fill="#000000" font-family="sans-serif" font-size="12" lengthAdjust="spacingAndGlyphs" textLength="45" x="774.75" y="201.1387">System</text></a><!--class Document--><a target="_top" xlink:actuate="onRequest" xlink:href="../Document.html" xlink:show="new" xlink:title="General information that unambiguously identifies a document, such as identification number and issue date time." xlink:type="simple"><rect fill="#EEEEEE" filter="url(#fd5f4f5ig68yf)" height="23.9688" id="Document" style="stroke: #A80036; stroke-width: 1.5;" width="70" x="571" y="508"/><rect fill="#EEEEEE" height="23.9688" style="stroke: #A80036; stroke-width: 1.5;" width="70" x="571" y="508"/><text fill="#000000" font-family="sans-serif" font-size="12" lengthAdjust="spacingAndGlyphs" textLength="64" x="574" y="524.1387">Document</text></a><!--class Trade--><a target="_top" xlink:actuate="onRequest" xlink:href="../Trade.html" xlink:show="new" xlink:title="Result of an order between at least two parties. A trade relates to the delivery of goods and services, cash or securities." xlink:type="simple"><rect fill="#EEEEEE" filter="url(#fd5f4f5ig68yf)" height="23.9688" id="Trade" style="stroke: #A80036; stroke-width: 1.5;" width="42" x="581.5" y="422"/><rect fill="#EEEEEE" height="23.9688" style="stroke: #A80036; stroke-width: 1.5;" width="42" x="581.5" y="422"/><text fill="#000000" font-family="sans-serif" font-size="12" lengthAdjust="spacingAndGlyphs" textLength="36" x="584.5" y="438.1387">Trade</text></a><!--class Account--><a target="_top" xlink:actuate="onRequest" xlink:href="../Account.html" xlink:show="new" xlink:title="Record of transactions in specific types of assets, maintained by a servicing party on behalf of one or more owning parties. Business relationship between an account servicer and one or more account owners." xlink:type="simple"><rect fill="#EEEEEE" filter="url(#fd5f4f5ig68yf)" height="23.9688" id="Account" style="stroke: #A80036; stroke-width: 1.5;" width="57" x="571.75" y="334"/><rect fill="#EEEEEE" height="23.9688" style="stroke: #A80036; stroke-width: 1.5;" width="57" x="571.75" y="334"/><text fill="#000000" font-family="sans-serif" font-size="12" lengthAdjust="spacingAndGlyphs" textLength="51" x="574.75" y="350.1387">Account</text></a><!--class CardPayment--><a target="_top" xlink:actuate="onRequest" xlink:href="../CardPayment.html" xlink:show="new" xlink:title="Payment through an electronic money product." xlink:type="simple"><rect fill="#EEEEEE" filter="url(#fd5f4f5ig68yf)" height="23.9688" id="CardPayment" style="stroke: #A80036; stroke-width: 1.5;" width="89" x="145.75" y="334"/><rect fill="#EEEEEE" height="23.9688" style="stroke: #A80036; stroke-width: 1.5;" width="89" x="145.75" y="334"/><text fill="#000000" font-family="sans-serif" font-size="12" lengthAdjust="spacingAndGlyphs" textLength="83" x="148.75" y="350.1387">CardPayment</text></a><!--link Reconciliation to ReconciliationTransaction--><path d="M275.746,80.324 C262.737,97.874 245.4,121.263 229.72,142.415 " fill="none" id="Reconciliation-ReconciliationTransaction" style="stroke: #A80036; stroke-width: 1.0;"/><polygon fill="none" points="270.149,76.12,287.682,64.221,281.396,84.457,270.149,76.12" style="stroke: #A80036; stroke-width: 1.0;"/><!--link Document to System--><!--link Trade to Document--><!--link Account to Trade--><!--link Reconciliation to System--><path d="M342.303,54.438 C430.984,57.759 621.298,67.79 681,94 C726.077,113.789 766.154,157.647 785.223,180.879 " fill="none" id="Reconciliation-System" style="stroke: #A80036; stroke-width: 1.0;"/><polygon fill="#A80036" points="788.536,184.966,785.9761,175.4557,785.3875,181.0818,779.7613,180.4932,788.536,184.966" style="stroke: #A80036; stroke-width: 1.0;"/><text fill="#000000" font-family="sans-serif" font-size="13" lengthAdjust="spacingAndGlyphs" textLength="49" x="711" y="107.0669">System</text><text fill="#000000" font-family="sans-serif" font-size="13" lengthAdjust="spacingAndGlyphs" textLength="7" x="775.9937" y="174.0025">*</text><!--link Reconciliation to Document--><path d="M311.036,64.13 C338.731,86.039 395,137.723 395,196 C395,196 395,196 395,435 C395,471.3366 504.38,498.8938 565.635,511.4772 " fill="none" id="Reconciliation-Document" style="stroke: #A80036; stroke-width: 1.0;"/><polygon fill="#A80036" points="570.683,512.5029,562.6598,506.7907,565.7831,511.5072,561.0667,514.6305,570.683,512.5029" style="stroke: #A80036; stroke-width: 1.0;"/><text fill="#000000" font-family="sans-serif" font-size="13" lengthAdjust="spacingAndGlyphs" textLength="67" x="396" y="350.0669">Document</text><text fill="#000000" font-family="sans-serif" font-size="13" lengthAdjust="spacingAndGlyphs" textLength="8" x="555.0055" y="505.9339">1</text><!--link Reconciliation to Trade--><path d="M342.304,58.721 C368.156,64.045 399.406,74.295 421,94 C495.405,161.896 467.116,211.335 511,302 C528.586,338.334 530.41,349.244 554,382 C563.41,395.065 575.928,408.26 585.821,417.955 " fill="none" id="Reconciliation-Trade" style="stroke: #A80036; stroke-width: 1.0;"/><polygon fill="#A80036" points="589.609,421.622,585.9254,412.4879,586.0168,418.1441,580.3607,418.2355,589.609,421.622" style="stroke: #A80036; stroke-width: 1.0;"/><text fill="#000000" font-family="sans-serif" font-size="13" lengthAdjust="spacingAndGlyphs" textLength="111" x="512" y="297.0669">ReconciledTrades</text><text fill="#000000" font-family="sans-serif" font-size="13" lengthAdjust="spacingAndGlyphs" textLength="8" x="574.9062" y="411.0602">1</text><!--link Reconciliation to Account--><path d="M342.417,55.568 C405.236,59.887 513.04,70.548 544,94 C618.331,150.306 612.738,192.978 633,284 C634.738,291.809 635.572,294.425 633,302 C629.478,312.375 622.333,322.208 615.589,329.846 " fill="none" id="Reconciliation-Account" style="stroke: #A80036; stroke-width: 1.0;"/><polygon fill="#A80036" points="611.909,333.852,620.9431,329.9295,615.2913,330.1696,615.0512,324.5179,611.909,333.852" style="stroke: #A80036; stroke-width: 1.0;"/><text fill="#000000" font-family="sans-serif" font-size="13" lengthAdjust="spacingAndGlyphs" textLength="52" x="633" y="201.0669">Account</text><text fill="#000000" font-family="sans-serif" font-size="13" lengthAdjust="spacingAndGlyphs" textLength="8" x="605.198" y="322.8493">1</text><!--link ReconciliationTransaction to CardPayment--><path d="M190,251.903 C190,279.081 190,310.117 190,328.606 " fill="none" id="ReconciliationTransaction-CardPayment" style="stroke: #A80036; stroke-width: 1.0;"/><polygon fill="#A80036" points="190,333.923,194,324.923,190,328.923,186,324.923,190,333.923" style="stroke: #A80036; stroke-width: 1.0;"/><text fill="#000000" font-family="sans-serif" font-size="13" lengthAdjust="spacingAndGlyphs" textLength="118" x="191" y="297.0669">CardPaymentTotal</text><text fill="#000000" font-family="sans-serif" font-size="13" lengthAdjust="spacingAndGlyphs" textLength="7" x="180.3672" y="322.9447">*</text><!--link System to Account--><path d="M786.801,209.186 C772.24,224.89 744.333,254.009 718,276 C702.573,288.883 698.131,291.49 681,302 C663.659,312.639 643.449,323.37 627.554,331.451 " fill="none" id="System-Account" style="stroke: #A80036; stroke-width: 1.0;"/><polygon fill="#A80036" points="622.767,333.871,632.6037,333.3811,627.2294,331.6155,628.9949,326.2412,622.767,333.871" style="stroke: #A80036; stroke-width: 1.0;"/><text fill="#000000" font-family="sans-serif" font-size="13" lengthAdjust="spacingAndGlyphs" textLength="52" x="708" y="297.0669">Account</text><text fill="#000000" font-family="sans-serif" font-size="13" lengthAdjust="spacingAndGlyphs" textLength="8" x="619.7885" y="322.8749">1</text><!--link System to Trade--><path d="M799.132,209.154 C804.45,240.569 814.902,330.824 771,382 C734.959,424.013 665.649,432.129 627.956,433.267 " fill="none" id="System-Trade" style="stroke: #A80036; stroke-width: 1.0;"/><polygon fill="#A80036" points="622.632,433.387,631.72,437.1828,627.6307,433.2741,631.5394,429.1849,622.632,433.387" style="stroke: #A80036; stroke-width: 1.0;"/><text fill="#000000" font-family="sans-serif" font-size="13" lengthAdjust="spacingAndGlyphs" textLength="36" x="801" y="350.0669">Trade</text><text fill="#000000" font-family="sans-serif" font-size="13" lengthAdjust="spacingAndGlyphs" textLength="8" x="631.5307" y="426.1237">1</text><!--link Account to Account--><path d="M628.508,338.332 C646.181,336.483 663,339.039 663,346 C663,352.254 649.424,354.952 633.85,354.095 " fill="none" id="Account-Account" style="stroke: #A80036; stroke-width: 1.0;"/><polygon fill="#A80036" points="628.508,353.668,637.1605,358.3727,633.4921,354.0666,637.7982,350.3981,628.508,353.668" style="stroke: #A80036; stroke-width: 1.0;"/><text fill="#000000" font-family="sans-serif" font-size="13" lengthAdjust="spacingAndGlyphs" textLength="94" x="669" y="350.0669">ParentAccount</text><text fill="#000000" font-family="sans-serif" font-size="13" lengthAdjust="spacingAndGlyphs" textLength="8" x="636.7741" y="349.5427">1</text></g></svg>