<?xml version="1.0" encoding="UTF-8" standalone="no"?><svg xmlns="http://www.w3.org/2000/svg" xmlns:xlink="http://www.w3.org/1999/xlink" contentScriptType="application/ecmascript" contentStyleType="text/css" height="508px" preserveAspectRatio="none" style="width:745px;height:508px;" version="1.1" viewBox="0 0 745 508" width="745px" zoomAndPan="magnify"><defs><filter height="300%" id="f7cwit7d14hbd" width="300%" x="-1" y="-1"><feGaussianBlur result="blurOut" stdDeviation="2.0"/><feColorMatrix in="blurOut" result="blurOut2" type="matrix" values="0 0 0 0 0 0 0 0 0 0 0 0 0 0 0 0 0 0 .4 0"/><feOffset dx="4.0" dy="4.0" in="blurOut2" result="blurOut3"/><feBlend in="SourceGraphic" in2="blurOut3" mode="normal"/></filter></defs><g><!--cluster ##8500--><!--cluster ##8503--><!--class RedemptionSchedule--><a target="_top" xlink:actuate="onRequest" xlink:href="../RedemptionSchedule.html" xlink:show="new" xlink:title="Describes the reason and terms for early partial or total redemption, amortisation or extension of an issue." xlink:type="simple"><rect fill="#FEFECE" filter="url(#f7cwit7d14hbd)" height="147.2109" id="RedemptionSchedule" style="stroke: #A80036; stroke-width: 1.5;" width="340" x="394" y="40.5"/><rect fill="#FEFECE" height="23.9688" style="stroke: #A80036; stroke-width: 1.5;" width="340" x="394" y="40.5"/><text fill="#000000" font-family="sans-serif" font-size="12" lengthAdjust="spacingAndGlyphs" textLength="133" x="497.5" y="56.6387">RedemptionSchedule</text><line style="stroke: #A80036; stroke-width: 1.5;" x1="395" x2="733" y1="64.4688" y2="64.4688"/><ellipse cx="405" cy="76.3711" fill="#84BE84" rx="3" ry="3" style="stroke: #038048; stroke-width: 1.0;"/><text fill="#000000" font-family="sans-serif" font-size="11" lengthAdjust="spacingAndGlyphs" textLength="137" x="414" y="78.6792">BusinessDayConvention</text><text fill="#000000" font-family="sans-serif" font-size="11" font-style="italic" lengthAdjust="spacingAndGlyphs" textLength="173" x="555" y="78.6792">(BusinessDayConventionCode)</text><ellipse cx="405" cy="89.1758" fill="#84BE84" rx="3" ry="3" style="stroke: #038048; stroke-width: 1.0;"/><text fill="#000000" font-family="sans-serif" font-size="11" lengthAdjust="spacingAndGlyphs" textLength="56" x="414" y="91.4839">PartyType</text><text fill="#000000" font-family="sans-serif" font-size="11" font-style="italic" lengthAdjust="spacingAndGlyphs" textLength="95" x="474" y="91.4839">(PartyTypeCode)</text><ellipse cx="405" cy="101.9805" fill="#84BE84" rx="3" ry="3" style="stroke: #038048; stroke-width: 1.0;"/><text fill="#000000" font-family="sans-serif" font-size="11" lengthAdjust="spacingAndGlyphs" textLength="96" x="414" y="104.2886">AmountFulfilType</text><text fill="#000000" font-family="sans-serif" font-size="11" font-style="italic" lengthAdjust="spacingAndGlyphs" textLength="138" x="514" y="104.2886">(AmountFullfilTypeCode)</text><ellipse cx="405" cy="114.7852" fill="#84BE84" rx="3" ry="3" style="stroke: #038048; stroke-width: 1.0;"/><text fill="#000000" font-family="sans-serif" font-size="11" lengthAdjust="spacingAndGlyphs" textLength="114" x="414" y="117.0933">MinimumNoticeDays</text><text fill="#000000" font-family="sans-serif" font-size="11" font-style="italic" lengthAdjust="spacingAndGlyphs" textLength="53" x="532" y="117.0933">(Number)</text><ellipse cx="405" cy="127.5898" fill="#84BE84" rx="3" ry="3" style="stroke: #038048; stroke-width: 1.0;"/><text fill="#000000" font-family="sans-serif" font-size="11" lengthAdjust="spacingAndGlyphs" textLength="117" x="414" y="129.8979">MaximumNoticeDays</text><text fill="#000000" font-family="sans-serif" font-size="11" font-style="italic" lengthAdjust="spacingAndGlyphs" textLength="53" x="535" y="129.8979">(Number)</text><ellipse cx="405" cy="140.3945" fill="#84BE84" rx="3" ry="3" style="stroke: #038048; stroke-width: 1.0;"/><text fill="#000000" font-family="sans-serif" font-size="11" lengthAdjust="spacingAndGlyphs" textLength="87" x="414" y="142.7026">FinancialCenter</text><text fill="#000000" font-family="sans-serif" font-size="11" font-style="italic" lengthAdjust="spacingAndGlyphs" textLength="124" x="505" y="142.7026">(FinancialCenterCode)</text><ellipse cx="405" cy="153.1992" fill="#84BE84" rx="3" ry="3" style="stroke: #038048; stroke-width: 1.0;"/><text fill="#000000" font-family="sans-serif" font-size="11" lengthAdjust="spacingAndGlyphs" textLength="98" x="414" y="155.5073">NoticePeriodType</text><text fill="#000000" font-family="sans-serif" font-size="11" font-style="italic" lengthAdjust="spacingAndGlyphs" textLength="136" x="516" y="155.5073">(NoticePeriodTypeCode)</text><ellipse cx="405" cy="166.0039" fill="#84BE84" rx="3" ry="3" style="stroke: #038048; stroke-width: 1.0;"/><text fill="#000000" font-family="sans-serif" font-size="11" lengthAdjust="spacingAndGlyphs" textLength="129" x="414" y="168.312">PriceChangeFrequency</text><text fill="#000000" font-family="sans-serif" font-size="11" font-style="italic" lengthAdjust="spacingAndGlyphs" textLength="96" x="547" y="168.312">(FrequencyCode)</text><ellipse cx="405" cy="178.8086" fill="#84BE84" rx="3" ry="3" style="stroke: #038048; stroke-width: 1.0;"/><text fill="#000000" font-family="sans-serif" font-size="11" lengthAdjust="spacingAndGlyphs" textLength="86" x="414" y="181.1167">PriceFrequency</text><text fill="#000000" font-family="sans-serif" font-size="11" font-style="italic" lengthAdjust="spacingAndGlyphs" textLength="96" x="504" y="181.1167">(FrequencyCode)</text></a><!--class DateTimePeriod--><a target="_top" xlink:actuate="onRequest" xlink:href="../DateTimePeriod.html" xlink:show="new" xlink:title="Time span defined by a start date and time, and an end date and time." xlink:type="simple"><rect fill="#EEEEEE" filter="url(#f7cwit7d14hbd)" height="23.9688" id="DateTimePeriod" style="stroke: #A80036; stroke-width: 1.5;" width="105" x="283.75" y="270"/><rect fill="#EEEEEE" height="23.9688" style="stroke: #A80036; stroke-width: 1.5;" width="105" x="283.75" y="270"/><text fill="#000000" font-family="sans-serif" font-size="12" lengthAdjust="spacingAndGlyphs" textLength="99" x="286.75" y="286.1387">DateTimePeriod</text></a><!--class SecuritiesPricing--><a target="_top" xlink:actuate="onRequest" xlink:href="../SecuritiesPricing.html" xlink:show="new" xlink:title="Characteristics related to the price of the security." xlink:type="simple"><rect fill="#EEEEEE" filter="url(#f7cwit7d14hbd)" height="23.9688" id="SecuritiesPricing" style="stroke: #A80036; stroke-width: 1.5;" width="110" x="355" y="372"/><rect fill="#EEEEEE" height="23.9688" style="stroke: #A80036; stroke-width: 1.5;" width="110" x="355" y="372"/><text fill="#000000" font-family="sans-serif" font-size="12" lengthAdjust="spacingAndGlyphs" textLength="104" x="358" y="388.1387">SecuritiesPricing</text></a><!--class Security--><a target="_top" xlink:actuate="onRequest" xlink:href="../Security.html" xlink:show="new" xlink:title="Financial instruments representing a sum of rights of the investor vis-a-vis the issuer." xlink:type="simple"><rect fill="#EEEEEE" filter="url(#f7cwit7d14hbd)" height="23.9688" id="Security" style="stroke: #A80036; stroke-width: 1.5;" width="56" x="409.5" y="474"/><rect fill="#EEEEEE" height="23.9688" style="stroke: #A80036; stroke-width: 1.5;" width="56" x="409.5" y="474"/><text fill="#000000" font-family="sans-serif" font-size="12" lengthAdjust="spacingAndGlyphs" textLength="50" x="412.5" y="490.1387">Security</text></a><!--link SecuritiesPricing to DateTimePeriod--><!--link DateTimePeriod to SecuritiesPricing--><path d="M283.626,283.329 C214.105,285.006 96.9594,292.567 70,324 C64.7918,330.072 64.6926,336.014 70,342 C88.1949,362.521 256.785,374.76 349.524,379.995 " fill="none" id="DateTimePeriod-SecuritiesPricing" style="stroke: #A80036; stroke-width: 1.0;"/><polygon fill="#A80036" points="354.701,380.284,345.9379,375.7887,349.7088,380.0054,345.4921,383.7763,354.701,380.284" style="stroke: #A80036; stroke-width: 1.0;"/><text fill="#000000" font-family="sans-serif" font-size="13" lengthAdjust="spacingAndGlyphs" textLength="191" x="71" y="337.0669">PriceCalculationRelatedPricing</text><text fill="#000000" font-family="sans-serif" font-size="13" lengthAdjust="spacingAndGlyphs" textLength="8" x="339.1058" y="375.0237">1</text><!--link DateTimePeriod to SecuritiesPricing--><path d="M321.044,294.12 C306.706,306.169 288.775,325.837 300,342 C311.575,358.667 330.784,368.571 349.939,374.452 " fill="none" id="DateTimePeriod-SecuritiesPricing" style="stroke: #A80036; stroke-width: 1.0;"/><polygon fill="#A80036" points="354.803,375.862,347.272,369.515,350.0006,374.4703,345.0453,377.1988,354.803,375.862" style="stroke: #A80036; stroke-width: 1.0;"/><text fill="#000000" font-family="sans-serif" font-size="13" lengthAdjust="spacingAndGlyphs" textLength="148" x="301" y="337.0669">PriceFactRelatedPricing</text><text fill="#000000" font-family="sans-serif" font-size="13" lengthAdjust="spacingAndGlyphs" textLength="8" x="339.1239" y="366.8586">1</text><!--link Security to SecuritiesPricing--><!--link SecuritiesPricing to Security--><path d="M398.471,396.411 C387.854,408.369 374.887,427.654 383,444 C388.678,455.44 399.243,464.5477 409.533,471.2451 " fill="none" id="SecuritiesPricing-Security" style="stroke: #A80036; stroke-width: 1.0;"/><polygon fill="#A80036" points="413.91,473.9676,408.381,465.8172,409.6645,471.3265,404.1552,472.61,413.91,473.9676" style="stroke: #A80036; stroke-width: 1.0;"/><text fill="#000000" font-family="sans-serif" font-size="13" lengthAdjust="spacingAndGlyphs" textLength="52" x="384" y="439.0669">Security</text><text fill="#000000" font-family="sans-serif" font-size="13" lengthAdjust="spacingAndGlyphs" textLength="7" x="396.2541" y="463.0047">*</text><!--link RedemptionSchedule to DateTimePeriod--><path d="M403.119,187.626 C389.343,197.378 376.357,208.159 365,220 C352.818,232.701 344.953,251.475 340.529,264.836 " fill="none" id="RedemptionSchedule-DateTimePeriod" style="stroke: #A80036; stroke-width: 1.0;"/><polygon fill="#A80036" points="338.948,269.844,345.4729,262.4667,340.4539,265.0762,337.8444,260.0572,338.948,269.844" style="stroke: #A80036; stroke-width: 1.0;"/><text fill="#000000" font-family="sans-serif" font-size="13" lengthAdjust="spacingAndGlyphs" textLength="94" x="366" y="233.0669">EffectivePeriod</text><text fill="#000000" font-family="sans-serif" font-size="13" lengthAdjust="spacingAndGlyphs" textLength="7" x="330.3286" y="258.8386">*</text><!--link RedemptionSchedule to SecuritiesPricing--><path d="M537.4,187.715 C515.866,244.201 485.939,316.997 466,342 C457.454,352.716 445.447,362.004 434.741,369.017 " fill="none" id="RedemptionSchedule-SecuritiesPricing" style="stroke: #A80036; stroke-width: 1.0;"/><polygon fill="#A80036" points="430.246,371.881,439.9859,370.4204,434.4634,369.1951,435.6886,363.6726,430.246,371.881" style="stroke: #A80036; stroke-width: 1.0;"/><text fill="#000000" font-family="sans-serif" font-size="13" lengthAdjust="spacingAndGlyphs" textLength="80" x="515" y="286.0669">PriceChange</text><text fill="#000000" font-family="sans-serif" font-size="13" lengthAdjust="spacingAndGlyphs" textLength="7" x="427.6587" y="360.8883">*</text><!--link RedemptionSchedule to SecuritiesPricing--><path d="M602.976,187.863 C615.735,222.25 622.092,262.54 602,294 C573.247,339.021 515.221,361.611 470.448,372.727 " fill="none" id="RedemptionSchedule-SecuritiesPricing" style="stroke: #A80036; stroke-width: 1.0;"/><polygon fill="#A80036" points="465.333,373.962,475.0201,375.7397,470.1935,372.7894,473.1439,367.9628,465.333,373.962" style="stroke: #A80036; stroke-width: 1.0;"/><text fill="#000000" font-family="sans-serif" font-size="13" lengthAdjust="spacingAndGlyphs" textLength="31" x="616" y="286.0669">Price</text><text fill="#000000" font-family="sans-serif" font-size="13" lengthAdjust="spacingAndGlyphs" textLength="7" x="472.871" y="367.6642">*</text><!--link RedemptionSchedule to Security--><path d="M634.93,187.752 C657.651,219.937 673.204,258.473 657,294 C616.84,382.049 513.824,445.1733 464.338,471.4479 " fill="none" id="RedemptionSchedule-Security" style="stroke: #A80036; stroke-width: 1.0;"/><polygon fill="#A80036" points="459.72,473.8751,469.5477,473.2296,464.1461,471.5493,465.8264,466.1478,459.72,473.8751" style="stroke: #A80036; stroke-width: 1.0;"/><text fill="#000000" font-family="sans-serif" font-size="13" lengthAdjust="spacingAndGlyphs" textLength="52" x="641" y="337.0669">Security</text><text fill="#000000" font-family="sans-serif" font-size="13" lengthAdjust="spacingAndGlyphs" textLength="24" x="437.8894" y="462.8804">0..1</text></g></svg>