<?xml version="1.0" encoding="UTF-8" standalone="no"?><svg xmlns="http://www.w3.org/2000/svg" xmlns:xlink="http://www.w3.org/1999/xlink" contentScriptType="application/ecmascript" contentStyleType="text/css" height="710px" preserveAspectRatio="none" style="width:837px;height:710px;" version="1.1" viewBox="0 0 837 710" width="837px" zoomAndPan="magnify"><defs><filter height="300%" id="fzl5qgxbl23m8" width="300%" x="-1" y="-1"><feGaussianBlur result="blurOut" stdDeviation="2.0"/><feColorMatrix in="blurOut" result="blurOut2" type="matrix" values="0 0 0 0 0 0 0 0 0 0 0 0 0 0 0 0 0 0 .4 0"/><feOffset dx="4.0" dy="4.0" in="blurOut2" result="blurOut3"/><feBlend in="SourceGraphic" in2="blurOut3" mode="normal"/></filter></defs><g><!--cluster ##8154--><!--cluster ##8166--><!--cluster ##8175--><!--cluster ##8178--><!--class Role--><a target="_top" xlink:actuate="onRequest" xlink:href="../Role.html" xlink:show="new" xlink:title="Role of a party in an activity." xlink:type="simple"><rect fill="#FEFEEE" filter="url(#fzl5qgxbl23m8)" height="44.7734" id="Role" style="stroke: #A80036; stroke-width: 1.5;" width="175" x="160.654" y="40.5"/><rect fill="#FEFEEE" height="23.9688" style="stroke: #A80036; stroke-width: 1.5;" width="175" x="160.654" y="40.5"/><text fill="#000000" font-family="sans-serif" font-size="12" lengthAdjust="spacingAndGlyphs" textLength="27" x="234.654" y="56.6387">Role</text><line style="stroke: #A80036; stroke-width: 1.5;" x1="161.654" x2="334.654" y1="64.4688" y2="64.4688"/><ellipse cx="171.654" cy="76.3711" fill="#84BE84" rx="3" ry="3" style="stroke: #038048; stroke-width: 1.0;"/><text fill="#000000" font-family="sans-serif" font-size="11" lengthAdjust="spacingAndGlyphs" textLength="53" x="180.654" y="78.6792">PartyRole</text><text fill="#000000" font-family="sans-serif" font-size="11" font-style="italic" lengthAdjust="spacingAndGlyphs" textLength="92" x="237.654" y="78.6792">(PartyRoleCode)</text></a><!--class AssetPartyRole--><a target="_top" xlink:actuate="onRequest" xlink:href="../AssetPartyRole.html" xlink:show="new" xlink:title="Specifies roles played by a party that are linked to the handling of assets but not related to a specific process." xlink:type="simple"><rect fill="#FEFEEE" filter="url(#fzl5qgxbl23m8)" height="23.9688" id="AssetPartyRole" style="stroke: #A80036; stroke-width: 1.5;" width="100" x="215.904" y="166"/><rect fill="#FEFEEE" height="23.9688" style="stroke: #A80036; stroke-width: 1.5;" width="100" x="215.904" y="166"/><text fill="#000000" font-family="sans-serif" font-size="12" lengthAdjust="spacingAndGlyphs" textLength="94" x="218.904" y="182.1387">AssetPartyRole</text></a><!--class SecuritiesPartyRole--><a target="_top" xlink:actuate="onRequest" xlink:href="../SecuritiesPartyRole.html" xlink:show="new" xlink:title="Specifies roles played by a party that are linked to the handling of securities but not related to a specific process." xlink:type="simple"><rect fill="#FEFEEE" filter="url(#fzl5qgxbl23m8)" height="23.9688" id="SecuritiesPartyRole" style="stroke: #A80036; stroke-width: 1.5;" width="127" x="202.654" y="270"/><rect fill="#FEFEEE" height="23.9688" style="stroke: #A80036; stroke-width: 1.5;" width="127" x="202.654" y="270"/><text fill="#000000" font-family="sans-serif" font-size="12" lengthAdjust="spacingAndGlyphs" textLength="121" x="205.654" y="286.1387">SecuritiesPartyRole</text></a><!--class RegistrarRole--><a target="_top" xlink:actuate="onRequest" xlink:href="../RegistrarRole.html" xlink:show="new" xlink:title="Party responsible for keeping track of the owners of securities." xlink:type="simple"><rect fill="#FEFECE" filter="url(#fzl5qgxbl23m8)" height="44.7734" id="RegistrarRole" style="stroke: #A80036; stroke-width: 1.5;" width="180" x="155.904" y="358.5"/><rect fill="#FEFECE" height="23.9688" style="stroke: #A80036; stroke-width: 1.5;" width="180" x="155.904" y="358.5"/><text fill="#000000" font-family="sans-serif" font-size="12" lengthAdjust="spacingAndGlyphs" textLength="84" x="203.904" y="374.6387">RegistrarRole</text><line style="stroke: #A80036; stroke-width: 1.5;" x1="156.904" x2="334.904" y1="382.4688" y2="382.4688"/><ellipse cx="166.904" cy="394.3711" fill="#84BE84" rx="3" ry="3" style="stroke: #038048; stroke-width: 1.0;"/><text fill="#000000" font-family="sans-serif" font-size="11" lengthAdjust="spacingAndGlyphs" textLength="80" x="175.904" y="396.6792">RegisterName</text><text fill="#000000" font-family="sans-serif" font-size="11" font-style="italic" lengthAdjust="spacingAndGlyphs" textLength="70" x="259.904" y="396.6792">(Max35Text)</text></a><!--class RolePlayer--><a target="_top" xlink:actuate="onRequest" xlink:href="../RolePlayer.html" xlink:show="new" xlink:title="Type of entity that plays a specific role in a specific context." xlink:type="simple"><rect fill="#EEEEEE" filter="url(#fzl5qgxbl23m8)" height="23.9688" id="RolePlayer" style="stroke: #A80036; stroke-width: 1.5;" width="71" x="647.654" y="486"/><rect fill="#EEEEEE" height="23.9688" style="stroke: #A80036; stroke-width: 1.5;" width="71" x="647.654" y="486"/><text fill="#000000" font-family="sans-serif" font-size="12" lengthAdjust="spacingAndGlyphs" textLength="65" x="650.654" y="502.1387">RolePlayer</text></a><!--class ContactPersonRole--><a target="_top" xlink:actuate="onRequest" xlink:href="../ContactPersonRole.html" xlink:show="new" xlink:title="Person to be contacted in a given organisation. In the corporate action domain (including meeting notifications) , it is the contact person at the party organising the meeting, at the issuer or at an intermediary." xlink:type="simple"><rect fill="#EEEEEE" filter="url(#fzl5qgxbl23m8)" height="23.9688" id="ContactPersonRole" style="stroke: #A80036; stroke-width: 1.5;" width="126" x="639.904" y="369"/><rect fill="#EEEEEE" height="23.9688" style="stroke: #A80036; stroke-width: 1.5;" width="126" x="639.904" y="369"/><text fill="#000000" font-family="sans-serif" font-size="12" lengthAdjust="spacingAndGlyphs" textLength="120" x="642.904" y="385.1387">ContactPersonRole</text></a><!--class CounterpartyRisk--><a target="_top" xlink:actuate="onRequest" xlink:href="../CounterpartyRisk.html" xlink:show="new" xlink:title="Calculation of the exposure amount that one party has vis-a-vis one counterparty or a central system, based on its credit risk." xlink:type="simple"><rect fill="#EEEEEE" filter="url(#fzl5qgxbl23m8)" height="23.9688" id="CounterpartyRisk" style="stroke: #A80036; stroke-width: 1.5;" width="113" x="652.654" y="270"/><rect fill="#EEEEEE" height="23.9688" style="stroke: #A80036; stroke-width: 1.5;" width="113" x="652.654" y="270"/><text fill="#000000" font-family="sans-serif" font-size="12" lengthAdjust="spacingAndGlyphs" textLength="107" x="655.654" y="286.1387">CounterpartyRisk</text></a><!--class Entry--><a target="_top" xlink:actuate="onRequest" xlink:href="../Entry.html" xlink:show="new" xlink:title="Posting to an account that results in an increase or decrease to a balance." xlink:type="simple"><rect fill="#EEEEEE" filter="url(#fzl5qgxbl23m8)" height="23.9688" id="Entry" style="stroke: #A80036; stroke-width: 1.5;" width="38" x="639.904" y="166"/><rect fill="#EEEEEE" height="23.9688" style="stroke: #A80036; stroke-width: 1.5;" width="38" x="639.904" y="166"/><text fill="#000000" font-family="sans-serif" font-size="12" lengthAdjust="spacingAndGlyphs" textLength="32" x="642.904" y="182.1387">Entry</text></a><!--class Asset--><a target="_top" xlink:actuate="onRequest" xlink:href="../Asset.html" xlink:show="new" xlink:title="Tangible items of value to a business." xlink:type="simple"><rect fill="#EEEEEE" filter="url(#fzl5qgxbl23m8)" height="23.9688" id="Asset" style="stroke: #A80036; stroke-width: 1.5;" width="41" x="392.654" y="270"/><rect fill="#EEEEEE" height="23.9688" style="stroke: #A80036; stroke-width: 1.5;" width="41" x="392.654" y="270"/><text fill="#000000" font-family="sans-serif" font-size="12" lengthAdjust="spacingAndGlyphs" textLength="35" x="395.654" y="286.1387">Asset</text></a><!--class SecuritiesAccount--><a target="_top" xlink:actuate="onRequest" xlink:href="../SecuritiesAccount.html" xlink:show="new" xlink:title="Account to or from which a securities entry is made." xlink:type="simple"><rect fill="#EEEEEE" filter="url(#fzl5qgxbl23m8)" height="23.9688" id="SecuritiesAccount" style="stroke: #A80036; stroke-width: 1.5;" width="119" x="189.654" y="486"/><rect fill="#EEEEEE" height="23.9688" style="stroke: #A80036; stroke-width: 1.5;" width="119" x="189.654" y="486"/><text fill="#000000" font-family="sans-serif" font-size="12" lengthAdjust="spacingAndGlyphs" textLength="113" x="192.654" y="502.1387">SecuritiesAccount</text></a><!--class CashAccount--><a target="_top" xlink:actuate="onRequest" xlink:href="../CashAccount.html" xlink:show="new" xlink:title="Account to or from which a cash entry is made." xlink:type="simple"><rect fill="#EEEEEE" filter="url(#fzl5qgxbl23m8)" height="23.9688" id="CashAccount" style="stroke: #A80036; stroke-width: 1.5;" width="88" x="221.404" y="676"/><rect fill="#EEEEEE" height="23.9688" style="stroke: #A80036; stroke-width: 1.5;" width="88" x="221.404" y="676"/><text fill="#000000" font-family="sans-serif" font-size="12" lengthAdjust="spacingAndGlyphs" textLength="82" x="224.404" y="692.1387">CashAccount</text></a><!--class Security--><a target="_top" xlink:actuate="onRequest" xlink:href="../Security.html" xlink:show="new" xlink:title="Financial instruments representing a sum of rights of the investor vis-a-vis the issuer." xlink:type="simple"><rect fill="#EEEEEE" filter="url(#fzl5qgxbl23m8)" height="23.9688" id="Security" style="stroke: #A80036; stroke-width: 1.5;" width="56" x="216.404" y="590"/><rect fill="#EEEEEE" height="23.9688" style="stroke: #A80036; stroke-width: 1.5;" width="56" x="216.404" y="590"/><text fill="#000000" font-family="sans-serif" font-size="12" lengthAdjust="spacingAndGlyphs" textLength="50" x="219.404" y="606.1387">Security</text></a><!--entity ##8185--><!--link Role to AssetPartyRole--><path d="M254.524,105.559 C257.965,127.159 261.906,151.898 264.131,165.865 " fill="none" id="Role-AssetPartyRole" style="stroke: #A80036; stroke-width: 1.0;"/><polygon fill="none" points="247.566,106.373,251.332,85.52,261.392,104.17,247.566,106.373" style="stroke: #A80036; stroke-width: 1.0;"/><!--link AssetPartyRole to SecuritiesPartyRole--><path d="M265.904,210.595 C265.904,230.825 265.904,255.843 265.904,269.954 " fill="none" id="AssetPartyRole-SecuritiesPartyRole" style="stroke: #A80036; stroke-width: 1.0;"/><polygon fill="none" points="258.904,210.306,265.904,190.306,272.904,210.305,258.904,210.306" style="stroke: #A80036; stroke-width: 1.0;"/><!--link SecuritiesPartyRole to RegistrarRole--><path d="M259.565,313.745 C256.569,328.277 253.064,345.275 250.355,358.416 " fill="none" id="SecuritiesPartyRole-RegistrarRole" style="stroke: #A80036; stroke-width: 1.0;"/><polygon fill="none" points="252.715,312.302,263.61,294.127,266.427,315.129,252.715,312.302" style="stroke: #A80036; stroke-width: 1.0;"/><!--link ContactPersonRole to RolePlayer--><!--link CounterpartyRisk to ContactPersonRole--><!--link Entry to CounterpartyRisk--><!--link CashAccount to SecuritiesAccount--><!--link Security to CashAccount--><!--link Role to RolePlayer--><path d="M273.441,85.716 C312.427,119.153 388.706,185.704 449.904,246 C537.152,331.96 634.853,442.101 669.694,481.85 " fill="none" id="Role-RolePlayer" style="stroke: #A80036; stroke-width: 1.0;"/><polygon fill="#A80036" points="673.248,485.91,670.3275,476.5041,669.9538,482.1486,664.3093,481.7749,673.248,485.91" style="stroke: #A80036; stroke-width: 1.0;"/><text fill="#000000" font-family="sans-serif" font-size="13" lengthAdjust="spacingAndGlyphs" textLength="39" x="520.904" y="286.0669">Player</text><text fill="#000000" font-family="sans-serif" font-size="13" lengthAdjust="spacingAndGlyphs" textLength="7" x="660.2959" y="474.9273">*</text><!--link Role to ContactPersonRole--><path d="M335.171,70.963 C406.625,78.288 500.534,92.148 529.904,116 C575.392,152.942 552.036,186.452 579.904,238 C600.425,275.956 606.554,285.473 634.904,318 C650.448,335.834 670.762,353.78 685.126,365.742 " fill="none" id="Role-ContactPersonRole" style="stroke: #A80036; stroke-width: 1.0;"/><polygon fill="#A80036" points="689.011,368.953,684.6203,360.137,685.1563,365.7684,679.5249,366.3045,689.011,368.953" style="stroke: #A80036; stroke-width: 1.0;"/><text fill="#000000" font-family="sans-serif" font-size="13" lengthAdjust="spacingAndGlyphs" textLength="121" x="580.904" y="233.0669">ContactPersonRole</text><text fill="#000000" font-family="sans-serif" font-size="13" lengthAdjust="spacingAndGlyphs" textLength="8" x="673.5165" y="357.9851">1</text><!--link Role to CounterpartyRisk--><path d="M335.356,66.467 C443.665,70.903 620.755,83.089 676.904,116 C707.973,134.211 722.808,219.427 722.904,220 C725.49,235.376 720.778,252.681 716.137,264.921 " fill="none" id="Role-CounterpartyRisk" style="stroke: #A80036; stroke-width: 1.0;"/><polygon fill="#A80036" points="714.174,269.837,721.2268,262.9625,716.0285,265.1936,713.7974,259.9953,714.174,269.837" style="stroke: #A80036; stroke-width: 1.0;"/><text fill="#000000" font-family="sans-serif" font-size="13" lengthAdjust="spacingAndGlyphs" textLength="109" x="716.904" y="182.0669">CounterpartyRisk</text><text fill="#000000" font-family="sans-serif" font-size="13" lengthAdjust="spacingAndGlyphs" textLength="24" x="686.4309" y="258.8292">0..1</text><!--link Role to Entry--><path d="M335.396,68.809 C428.103,75.235 567.288,89.082 612.904,116 C630.762,126.538 643.964,146.953 651.536,161.252 " fill="none" id="Role-Entry" style="stroke: #A80036; stroke-width: 1.0;"/><polygon fill="#A80036" points="653.887,165.844,653.3455,156.01,651.6082,161.3935,646.2247,159.6562,653.887,165.844" style="stroke: #A80036; stroke-width: 1.0;"/><text fill="#000000" font-family="sans-serif" font-size="13" lengthAdjust="spacingAndGlyphs" textLength="33" x="633.904" y="129.0669">Entry</text><text fill="#000000" font-family="sans-serif" font-size="13" lengthAdjust="spacingAndGlyphs" textLength="8" x="641.4437" y="154.8386">1</text><!--link AssetPartyRole to Asset--><path d="M281.916,190.11 C308.867,208.811 363.236,246.536 392.745,267.012 " fill="none" id="AssetPartyRole-Asset" style="stroke: #A80036; stroke-width: 1.0;"/><polygon fill="#A80036" points="396.913,269.904,391.7992,261.4868,392.8051,267.0535,387.2384,268.0594,396.913,269.904" style="stroke: #A80036; stroke-width: 1.0;"/><text fill="#000000" font-family="sans-serif" font-size="13" lengthAdjust="spacingAndGlyphs" textLength="36" x="349.904" y="233.0669">Asset</text><text fill="#000000" font-family="sans-serif" font-size="13" lengthAdjust="spacingAndGlyphs" textLength="7" x="381.7833" y="258.9192">*</text><!--link SecuritiesPartyRole to SecuritiesAccount--><path d="M202.466,293.584 C137.103,305.935 41.7601,328.488 19.9044,358 C1.389,383.002 1.3482,403.029 19.9044,428 C39.6873,454.622 123.962,474.889 184.532,486.364 " fill="none" id="SecuritiesPartyRole-SecuritiesAccount" style="stroke: #A80036; stroke-width: 1.0;"/><polygon fill="#A80036" points="189.582,487.311,181.4733,481.7209,184.6676,486.3896,179.999,489.5839,189.582,487.311" style="stroke: #A80036; stroke-width: 1.0;"/><text fill="#000000" font-family="sans-serif" font-size="13" lengthAdjust="spacingAndGlyphs" textLength="115" x="20.9044" y="385.0669">SecuritiesAccount</text><text fill="#000000" font-family="sans-serif" font-size="13" lengthAdjust="spacingAndGlyphs" textLength="7" x="174.5741" y="481.2881">*</text><!--link SecuritiesPartyRole to CashAccount--><path d="M298.204,294.15 C316.553,301.45 339.303,312.2 356.904,326 C406.2,364.651 432.602,393.625 415.904,454 C390.222,546.86 312.595,636.7512 279.792,671.703 " fill="none" id="SecuritiesPartyRole-CashAccount" style="stroke: #A80036; stroke-width: 1.0;"/><polygon fill="#A80036" points="276.021,675.6895,285.1123,671.9016,279.4576,672.0577,279.3015,666.403,276.021,675.6895" style="stroke: #A80036; stroke-width: 1.0;"/><text fill="#000000" font-family="sans-serif" font-size="13" lengthAdjust="spacingAndGlyphs" textLength="84" x="414.904" y="502.0669">CashAccount</text><text fill="#000000" font-family="sans-serif" font-size="13" lengthAdjust="spacingAndGlyphs" textLength="7" x="270.0473" y="664.8901">*</text><!--link SecuritiesPartyRole to Security--><path d="M287.037,294.031 C308.182,306.398 339.447,328.631 352.904,358 C365.864,386.283 356.425,397.089 352.904,428 C345.874,489.728 351.459,516.703 306.904,560 C295.902,570.692 281.719,580.21 269.596,587.378 " fill="none" id="SecuritiesPartyRole-Security" style="stroke: #A80036; stroke-width: 1.0;"/><polygon fill="#A80036" points="265.233,589.91,275.0248,588.8514,269.5573,587.4,271.0088,581.9325,265.233,589.91" style="stroke: #A80036; stroke-width: 1.0;"/><text fill="#000000" font-family="sans-serif" font-size="13" lengthAdjust="spacingAndGlyphs" textLength="52" x="353.904" y="449.0669">Security</text><text fill="#000000" font-family="sans-serif" font-size="13" lengthAdjust="spacingAndGlyphs" textLength="7" x="262.8461" y="578.9273">*</text><!--link RegistrarRole to SecuritiesAccount--><path d="M236.744,403.723 C231.867,418.002 227.51,437.1 230.904,454 C232.778,463.33 236.729,473.162 240.453,481.066 " fill="none" id="RegistrarRole-SecuritiesAccount" style="stroke: #A80036; stroke-width: 1.0;"/><polygon fill="#A80036" points="242.721,485.716,242.3693,475.8734,240.5285,481.2224,235.1795,479.3815,242.721,485.716" style="stroke: #A80036; stroke-width: 1.0;"/><text fill="#000000" font-family="sans-serif" font-size="13" lengthAdjust="spacingAndGlyphs" textLength="109" x="231.904" y="449.0669">RegistrarAccount</text><text fill="#000000" font-family="sans-serif" font-size="13" lengthAdjust="spacingAndGlyphs" textLength="8" x="229.9338" y="474.9254">1</text><!--link SecuritiesAccount to Security--><path d="M247.23,510.286 C246.034,518.941 244.53,531.196 243.904,542 C243.072,556.366 243.153,572.732 243.396,584.577 " fill="none" id="SecuritiesAccount-Security" style="stroke: #A80036; stroke-width: 1.0;"/><polygon fill="#A80036" points="243.516,589.678,247.3014,580.5857,243.3974,584.6794,239.3037,580.7754,243.516,589.678" style="stroke: #A80036; stroke-width: 1.0;"/><text fill="#000000" font-family="sans-serif" font-size="13" lengthAdjust="spacingAndGlyphs" textLength="52" x="244.904" y="555.0669">Security</text><text fill="#000000" font-family="sans-serif" font-size="13" lengthAdjust="spacingAndGlyphs" textLength="7" x="233.7312" y="578.8748">*</text></g></svg>