<?xml version="1.0" encoding="UTF-8" standalone="no"?><svg xmlns="http://www.w3.org/2000/svg" xmlns:xlink="http://www.w3.org/1999/xlink" contentScriptType="application/ecmascript" contentStyleType="text/css" height="904px" preserveAspectRatio="none" style="width:1779px;height:904px;" version="1.1" viewBox="0 0 1779 904" width="1779px" zoomAndPan="magnify"><defs><filter height="300%" id="f1tzl24qsxe2iw" width="300%" x="-1" y="-1"><feGaussianBlur result="blurOut" stdDeviation="2.0"/><feColorMatrix in="blurOut" result="blurOut2" type="matrix" values="0 0 0 0 0 0 0 0 0 0 0 0 0 0 0 0 0 0 .4 0"/><feOffset dx="4.0" dy="4.0" in="blurOut2" result="blurOut3"/><feBlend in="SourceGraphic" in2="blurOut3" mode="normal"/></filter></defs><g><!--cluster ##8080--><!--cluster ##8089--><!--cluster ##8098--><!--cluster ##8101--><!--class Agreement--><a target="_top" xlink:actuate="onRequest" xlink:href="../Agreement.html" xlink:show="new" xlink:title="Contractual details related to an agreement between parties." xlink:type="simple"><rect fill="#FEFEEE" filter="url(#f1tzl24qsxe2iw)" height="70.3828" id="Agreement" style="stroke: #A80036; stroke-width: 1.5;" width="171" x="934.75" y="40"/><rect fill="#FEFEEE" height="23.9688" style="stroke: #A80036; stroke-width: 1.5;" width="171" x="934.75" y="40"/><text fill="#000000" font-family="sans-serif" font-size="12" lengthAdjust="spacingAndGlyphs" textLength="69" x="985.75" y="56.1387">Agreement</text><line style="stroke: #A80036; stroke-width: 1.5;" x1="935.75" x2="1104.75" y1="63.9688" y2="63.9688"/><ellipse cx="945.75" cy="75.8711" fill="#84BE84" rx="3" ry="3" style="stroke: #038048; stroke-width: 1.0;"/><text fill="#000000" font-family="sans-serif" font-size="11" lengthAdjust="spacingAndGlyphs" textLength="65" x="954.75" y="78.1792">DateSigned</text><text fill="#000000" font-family="sans-serif" font-size="11" font-style="italic" lengthAdjust="spacingAndGlyphs" textLength="53" x="1023.75" y="78.1792">(ISODate)</text><ellipse cx="945.75" cy="88.6758" fill="#84BE84" rx="3" ry="3" style="stroke: #038048; stroke-width: 1.0;"/><text fill="#000000" font-family="sans-serif" font-size="11" lengthAdjust="spacingAndGlyphs" textLength="64" x="954.75" y="90.9839">Description</text><text fill="#000000" font-family="sans-serif" font-size="11" font-style="italic" lengthAdjust="spacingAndGlyphs" textLength="77" x="1022.75" y="90.9839">(Max350Text)</text><ellipse cx="945.75" cy="101.4805" fill="#84BE84" rx="3" ry="3" style="stroke: #038048; stroke-width: 1.0;"/><text fill="#000000" font-family="sans-serif" font-size="11" lengthAdjust="spacingAndGlyphs" textLength="43" x="954.75" y="103.7886">Version</text><text fill="#000000" font-family="sans-serif" font-size="11" font-style="italic" lengthAdjust="spacingAndGlyphs" textLength="70" x="1001.75" y="103.7886">(Max35Text)</text></a><!--class Contract--><a target="_top" xlink:actuate="onRequest" xlink:href="../Contract.html" xlink:show="new" xlink:title="Document that contains the information of the contract agreed between both parties." xlink:type="simple"><rect fill="#FEFEEE" filter="url(#f1tzl24qsxe2iw)" height="23.9688" id="Contract" style="stroke: #A80036; stroke-width: 1.5;" width="60" x="990.5" y="172"/><rect fill="#FEFEEE" height="23.9688" style="stroke: #A80036; stroke-width: 1.5;" width="60" x="990.5" y="172"/><text fill="#000000" font-family="sans-serif" font-size="12" lengthAdjust="spacingAndGlyphs" textLength="54" x="993.5" y="188.1387">Contract</text></a><!--class RegisteredContract--><a target="_top" xlink:actuate="onRequest" xlink:href="../RegisteredContract.html" xlink:show="new" xlink:title="Contract registered for regulatory purpose by a registration agent for the journaling of payments made against the contract." xlink:type="simple"><rect fill="#FEFECE" filter="url(#f1tzl24qsxe2iw)" height="134.4063" id="RegisteredContract" style="stroke: #A80036; stroke-width: 1.5;" width="304" x="802" y="274"/><rect fill="#FEFECE" height="23.9688" style="stroke: #A80036; stroke-width: 1.5;" width="304" x="802" y="274"/><text fill="#000000" font-family="sans-serif" font-size="12" lengthAdjust="spacingAndGlyphs" textLength="122" x="893" y="290.1387">RegisteredContract</text><line style="stroke: #A80036; stroke-width: 1.5;" x1="803" x2="1105" y1="297.9688" y2="297.9688"/><ellipse cx="813" cy="309.8711" fill="#84BE84" rx="3" ry="3" style="stroke: #038048; stroke-width: 1.0;"/><text fill="#000000" font-family="sans-serif" font-size="11" lengthAdjust="spacingAndGlyphs" textLength="72" x="822" y="312.1792">Identification</text><text fill="#000000" font-family="sans-serif" font-size="11" font-style="italic" lengthAdjust="spacingAndGlyphs" textLength="70" x="898" y="312.1792">(Max35Text)</text><ellipse cx="813" cy="322.6758" fill="#84BE84" rx="3" ry="3" style="stroke: #038048; stroke-width: 1.0;"/><text fill="#000000" font-family="sans-serif" font-size="11" lengthAdjust="spacingAndGlyphs" textLength="71" x="822" y="324.9839">DeliveryDate</text><text fill="#000000" font-family="sans-serif" font-size="11" font-style="italic" lengthAdjust="spacingAndGlyphs" textLength="53" x="897" y="324.9839">(ISODate)</text><ellipse cx="813" cy="335.4805" fill="#84BE84" rx="3" ry="3" style="stroke: #038048; stroke-width: 1.0;"/><text fill="#000000" font-family="sans-serif" font-size="11" lengthAdjust="spacingAndGlyphs" textLength="40" x="822" y="337.7886">Priority</text><text fill="#000000" font-family="sans-serif" font-size="11" font-style="italic" lengthAdjust="spacingAndGlyphs" textLength="78" x="866" y="337.7886">(PriorityCode)</text><ellipse cx="813" cy="348.2852" fill="#84BE84" rx="3" ry="3" style="stroke: #038048; stroke-width: 1.0;"/><text fill="#000000" font-family="sans-serif" font-size="11" lengthAdjust="spacingAndGlyphs" textLength="94" x="822" y="350.5933">RegistrationDate</text><text fill="#000000" font-family="sans-serif" font-size="11" font-style="italic" lengthAdjust="spacingAndGlyphs" textLength="53" x="920" y="350.5933">(ISODate)</text><ellipse cx="813" cy="361.0898" fill="#84BE84" rx="3" ry="3" style="stroke: #038048; stroke-width: 1.0;"/><text fill="#000000" font-family="sans-serif" font-size="11" lengthAdjust="spacingAndGlyphs" textLength="70" x="822" y="363.3979">ClosureDate</text><text fill="#000000" font-family="sans-serif" font-size="11" font-style="italic" lengthAdjust="spacingAndGlyphs" textLength="53" x="896" y="363.3979">(ISODate)</text><ellipse cx="813" cy="373.8945" fill="#84BE84" rx="3" ry="3" style="stroke: #038048; stroke-width: 1.0;"/><text fill="#000000" font-family="sans-serif" font-size="11" lengthAdjust="spacingAndGlyphs" textLength="93" x="822" y="376.2026">SubmissionDate</text><text fill="#000000" font-family="sans-serif" font-size="11" font-style="italic" lengthAdjust="spacingAndGlyphs" textLength="53" x="919" y="376.2026">(ISODate)</text><ellipse cx="813" cy="386.6992" fill="#84BE84" rx="3" ry="3" style="stroke: #038048; stroke-width: 1.0;"/><text fill="#000000" font-family="sans-serif" font-size="11" lengthAdjust="spacingAndGlyphs" textLength="86" x="822" y="389.0073">DeliveryMethod</text><text fill="#000000" font-family="sans-serif" font-size="11" font-style="italic" lengthAdjust="spacingAndGlyphs" textLength="166" x="912" y="389.0073">(CommunicationMethodCode)</text><ellipse cx="813" cy="399.5039" fill="#84BE84" rx="3" ry="3" style="stroke: #038048; stroke-width: 1.0;"/><text fill="#000000" font-family="sans-serif" font-size="11" lengthAdjust="spacingAndGlyphs" textLength="108" x="822" y="401.812">SubmissionMethod</text><text fill="#000000" font-family="sans-serif" font-size="11" font-style="italic" lengthAdjust="spacingAndGlyphs" textLength="166" x="934" y="401.812">(CommunicationMethodCode)</text></a><!--class DateTimePeriod--><a target="_top" xlink:actuate="onRequest" xlink:href="../DateTimePeriod.html" xlink:show="new" xlink:title="Time span defined by a start date and time, and an end date and time." xlink:type="simple"><rect fill="#EEEEEE" filter="url(#f1tzl24qsxe2iw)" height="23.9688" id="DateTimePeriod" style="stroke: #A80036; stroke-width: 1.5;" width="105" x="1596.75" y="492"/><rect fill="#EEEEEE" height="23.9688" style="stroke: #A80036; stroke-width: 1.5;" width="105" x="1596.75" y="492"/><text fill="#000000" font-family="sans-serif" font-size="12" lengthAdjust="spacingAndGlyphs" textLength="99" x="1599.75" y="508.1387">DateTimePeriod</text></a><!--class Document--><a target="_top" xlink:actuate="onRequest" xlink:href="../Document.html" xlink:show="new" xlink:title="General information that unambiguously identifies a document, such as identification number and issue date time." xlink:type="simple"><rect fill="#EEEEEE" filter="url(#f1tzl24qsxe2iw)" height="23.9688" id="Document" style="stroke: #A80036; stroke-width: 1.5;" width="70" x="1447" y="329"/><rect fill="#EEEEEE" height="23.9688" style="stroke: #A80036; stroke-width: 1.5;" width="70" x="1447" y="329"/><text fill="#000000" font-family="sans-serif" font-size="12" lengthAdjust="spacingAndGlyphs" textLength="64" x="1450" y="345.1387">Document</text></a><!--class CommercialTrade--><a target="_top" xlink:actuate="onRequest" xlink:href="../CommercialTrade.html" xlink:show="new" xlink:title="Commercial details of a trade transaction between a buyer and a seller." xlink:type="simple"><rect fill="#EEEEEE" filter="url(#f1tzl24qsxe2iw)" height="23.9688" id="CommercialTrade" style="stroke: #A80036; stroke-width: 1.5;" width="114" x="1447" y="492"/><rect fill="#EEEEEE" height="23.9688" style="stroke: #A80036; stroke-width: 1.5;" width="114" x="1447" y="492"/><text fill="#000000" font-family="sans-serif" font-size="12" lengthAdjust="spacingAndGlyphs" textLength="108" x="1450" y="508.1387">CommercialTrade</text></a><!--class Jurisdiction--><a target="_top" xlink:actuate="onRequest" xlink:href="../Jurisdiction.html" xlink:show="new" xlink:title="Specifies the jurisdiction (country, county, state, province, city)." xlink:type="simple"><rect fill="#EEEEEE" filter="url(#f1tzl24qsxe2iw)" height="23.9688" id="Jurisdiction" style="stroke: #A80036; stroke-width: 1.5;" width="74" x="1552" y="329"/><rect fill="#EEEEEE" height="23.9688" style="stroke: #A80036; stroke-width: 1.5;" width="74" x="1552" y="329"/><text fill="#000000" font-family="sans-serif" font-size="12" lengthAdjust="spacingAndGlyphs" textLength="68" x="1555" y="345.1387">Jurisdiction</text></a><!--class MasterAgreement--><a target="_top" xlink:actuate="onRequest" xlink:href="../MasterAgreement.html" xlink:show="new" xlink:title="Agreement which defines the framework of a contract between two trading parties in different domains such as collateral, derivatives, trade.." xlink:type="simple"><rect fill="#EEEEEE" filter="url(#f1tzl24qsxe2iw)" height="23.9688" id="MasterAgreement" style="stroke: #A80036; stroke-width: 1.5;" width="118" x="1162" y="329"/><rect fill="#EEEEEE" height="23.9688" style="stroke: #A80036; stroke-width: 1.5;" width="118" x="1162" y="329"/><text fill="#000000" font-family="sans-serif" font-size="12" lengthAdjust="spacingAndGlyphs" textLength="112" x="1165" y="345.1387">MasterAgreement</text></a><!--class GenericIdentification--><a target="_top" xlink:actuate="onRequest" xlink:href="../GenericIdentification.html" xlink:show="new" xlink:title="Information related to a non-standardised identification, such as a proprietary party identification or account identification." xlink:type="simple"><rect fill="#EEEEEE" filter="url(#f1tzl24qsxe2iw)" height="23.9688" id="GenericIdentification" style="stroke: #A80036; stroke-width: 1.5;" width="135" x="851.75" y="596"/><rect fill="#EEEEEE" height="23.9688" style="stroke: #A80036; stroke-width: 1.5;" width="135" x="851.75" y="596"/><text fill="#000000" font-family="sans-serif" font-size="12" lengthAdjust="spacingAndGlyphs" textLength="129" x="854.75" y="612.1387">GenericIdentification</text></a><!--class CashBalance--><a target="_top" xlink:actuate="onRequest" xlink:href="../CashBalance.html" xlink:show="new" xlink:title="Numerical representation of the net increases and decreases in an account at a specific point in time. A cash balance is calculated from a sum of cash credits minus a sum of cash debits." xlink:type="simple"><rect fill="#EEEEEE" filter="url(#f1tzl24qsxe2iw)" height="23.9688" id="CashBalance" style="stroke: #A80036; stroke-width: 1.5;" width="87" x="888.75" y="870"/><rect fill="#EEEEEE" height="23.9688" style="stroke: #A80036; stroke-width: 1.5;" width="87" x="888.75" y="870"/><text fill="#000000" font-family="sans-serif" font-size="12" lengthAdjust="spacingAndGlyphs" textLength="81" x="891.75" y="886.1387">CashBalance</text></a><!--class RegulatoryReportingRole--><a target="_top" xlink:actuate="onRequest" xlink:href="../RegulatoryReportingRole.html" xlink:show="new" xlink:title="Party which plays a role for regulatory reporting." xlink:type="simple"><rect fill="#EEEEEE" filter="url(#f1tzl24qsxe2iw)" height="23.9688" id="RegulatoryReportingRole" style="stroke: #A80036; stroke-width: 1.5;" width="161" x="851.75" y="784"/><rect fill="#EEEEEE" height="23.9688" style="stroke: #A80036; stroke-width: 1.5;" width="161" x="851.75" y="784"/><text fill="#000000" font-family="sans-serif" font-size="12" lengthAdjust="spacingAndGlyphs" textLength="155" x="854.75" y="800.1387">RegulatoryReportingRole</text></a><!--class StatusReason--><a target="_top" xlink:actuate="onRequest" xlink:href="../StatusReason.html" xlink:show="new" xlink:title="Specifies the underlying reason for the status of an object." xlink:type="simple"><rect fill="#EEEEEE" filter="url(#f1tzl24qsxe2iw)" height="23.9688" id="StatusReason" style="stroke: #A80036; stroke-width: 1.5;" width="94" x="1011" y="698"/><rect fill="#EEEEEE" height="23.9688" style="stroke: #A80036; stroke-width: 1.5;" width="94" x="1011" y="698"/><text fill="#000000" font-family="sans-serif" font-size="12" lengthAdjust="spacingAndGlyphs" textLength="88" x="1014" y="714.1387">StatusReason</text></a><!--class PaymentTerms--><a target="_top" xlink:actuate="onRequest" xlink:href="../PaymentTerms.html" xlink:show="new" xlink:title="Specifies the payment terms of the obligation." xlink:type="simple"><rect fill="#EEEEEE" filter="url(#f1tzl24qsxe2iw)" height="23.9688" id="PaymentTerms" style="stroke: #A80036; stroke-width: 1.5;" width="98" x="1022.5" y="596"/><rect fill="#EEEEEE" height="23.9688" style="stroke: #A80036; stroke-width: 1.5;" width="98" x="1022.5" y="596"/><text fill="#000000" font-family="sans-serif" font-size="12" lengthAdjust="spacingAndGlyphs" textLength="92" x="1025.5" y="612.1387">PaymentTerms</text></a><!--class Payment--><a target="_top" xlink:actuate="onRequest" xlink:href="../Payment.html" xlink:show="new" xlink:title="Payment information and processes required to transfer cash end to end from the debtor to the creditor." xlink:type="simple"><rect fill="#EEEEEE" filter="url(#f1tzl24qsxe2iw)" height="23.9688" id="Payment" style="stroke: #A80036; stroke-width: 1.5;" width="60" x="924.5" y="492"/><rect fill="#EEEEEE" height="23.9688" style="stroke: #A80036; stroke-width: 1.5;" width="60" x="924.5" y="492"/><text fill="#000000" font-family="sans-serif" font-size="12" lengthAdjust="spacingAndGlyphs" textLength="54" x="927.5" y="508.1387">Payment</text></a><!--link Agreement to Contract--><path d="M1020,130.194 C1020,146.035 1020,161.794 1020,171.916 " fill="none" id="Agreement-Contract" style="stroke: #A80036; stroke-width: 1.0;"/><polygon fill="none" points="1013,130.15,1020,110.15,1027,130.15,1013,130.15" style="stroke: #A80036; stroke-width: 1.0;"/><!--link Contract to RegisteredContract--><path d="M1007.38,214.643 C1000.209,231.479 990.932,253.267 982.128,273.943 " fill="none" id="Contract-RegisteredContract" style="stroke: #A80036; stroke-width: 1.0;"/><polygon fill="none" points="1000.978,211.806,1015.25,196.147,1013.86,217.291,1000.978,211.806" style="stroke: #A80036; stroke-width: 1.0;"/><!--link Document to DateTimePeriod--><!--link CommercialTrade to Document--><!--link Document to CommercialTrade--><path d="M1478.86,353.157 C1473.47,374.17 1464.06,420.839 1475,458 C1478.14,468.683 1484.7,479.223 1490.78,487.414 " fill="none" id="Document-CommercialTrade" style="stroke: #A80036; stroke-width: 1.0;"/><polygon fill="#A80036" points="1494.09,491.709,1491.7639,482.1388,1491.0376,487.7488,1485.4276,487.0225,1494.09,491.709" style="stroke: #A80036; stroke-width: 1.0;"/><text fill="#000000" font-family="sans-serif" font-size="13" lengthAdjust="spacingAndGlyphs" textLength="113" x="1476" y="453.0669">CommercialTrade</text><text fill="#000000" font-family="sans-serif" font-size="13" lengthAdjust="spacingAndGlyphs" textLength="7" x="1481.3167" y="480.916">*</text><!--link Jurisdiction to CommercialTrade--><!--link CashBalance to GenericIdentification--><!--link RegulatoryReportingRole to CashBalance--><!--link StatusReason to RegulatoryReportingRole--><!--link PaymentTerms to StatusReason--><!--link Payment to PaymentTerms--><!--link Agreement to DateTimePeriod--><path d="M1105.32,82.754 C1265.49,97.398 1601.39,138.083 1671,226 C1700.85,263.696 1695.87,355.973 1680,432 C1675.8,452.109 1665.58,473.496 1658.01,487.478 " fill="none" id="Agreement-DateTimePeriod" style="stroke: #A80036; stroke-width: 1.0;"/><polygon fill="#A80036" points="1655.56,491.923,1663.4044,485.9677,1657.9712,487.5428,1656.3961,482.1097,1655.56,491.923" style="stroke: #A80036; stroke-width: 1.0;"/><text fill="#000000" font-family="sans-serif" font-size="13" lengthAdjust="spacingAndGlyphs" textLength="86" x="1681" y="239.0669">ValidityPeriod</text><text fill="#000000" font-family="sans-serif" font-size="13" lengthAdjust="spacingAndGlyphs" textLength="7" x="1648.1822" y="480.9447">*</text><!--link Agreement to Document--><path d="M1099.02,110.11 C1162.02,138.391 1251.68,181.106 1326,226 C1378.82,257.906 1436.28,302.822 1464.44,325.576 " fill="none" id="Agreement-Document" style="stroke: #A80036; stroke-width: 1.0;"/><polygon fill="#A80036" points="1468.37,328.768,1463.8895,319.9973,1464.483,325.623,1458.8574,326.2165,1468.37,328.768" style="stroke: #A80036; stroke-width: 1.0;"/><text fill="#000000" font-family="sans-serif" font-size="13" lengthAdjust="spacingAndGlyphs" textLength="67" x="1274" y="188.0669">Document</text><text fill="#000000" font-family="sans-serif" font-size="13" lengthAdjust="spacingAndGlyphs" textLength="8" x="1453.1988" y="317.9946">1</text><!--link Agreement to CommercialTrade--><path d="M1105.45,83.342 C1202.13,93.911 1362.81,118.397 1491,172 C1566.06,203.385 1604.72,202.212 1643,274 C1676.04,335.963 1667.88,366.332 1643,432 C1637.53,446.427 1633.39,450.339 1620,458 C1603.88,467.219 1596.59,460.063 1579,466 C1561.08,472.049 1541.97,481.523 1527.53,489.37 " fill="none" id="Agreement-CommercialTrade" style="stroke: #A80036; stroke-width: 1.0;"/><polygon fill="#A80036" points="1522.82,491.961,1532.6328,491.1195,1527.1988,489.5474,1528.771,484.1134,1522.82,491.961" style="stroke: #A80036; stroke-width: 1.0;"/><text fill="#000000" font-family="sans-serif" font-size="13" lengthAdjust="spacingAndGlyphs" textLength="36" x="1625" y="239.0669">Trade</text><text fill="#000000" font-family="sans-serif" font-size="13" lengthAdjust="spacingAndGlyphs" textLength="8" x="1518.5706" y="480.9958">1</text><!--link Agreement to Jurisdiction--><path d="M1105.47,91.34 C1215.04,114.644 1406.1,167.946 1534,274 C1551.9,288.84 1568.39,310.077 1578.55,324.42 " fill="none" id="Agreement-Jurisdiction" style="stroke: #A80036; stroke-width: 1.0;"/><polygon fill="#A80036" points="1581.5,328.635,1579.6248,318.9663,1578.6365,324.5362,1573.0667,323.5479,1581.5,328.635" style="stroke: #A80036; stroke-width: 1.0;"/><text fill="#000000" font-family="sans-serif" font-size="13" lengthAdjust="spacingAndGlyphs" textLength="68" x="1413" y="188.0669">Jurisdiction</text><text fill="#000000" font-family="sans-serif" font-size="13" lengthAdjust="spacingAndGlyphs" textLength="24" x="1549.7094" y="317.8175">0..1</text><!--link Contract to MasterAgreement--><path d="M1034.46,196.147 C1070.24,223.74 1162.91,295.201 1202.56,325.778 " fill="none" id="Contract-MasterAgreement" style="stroke: #A80036; stroke-width: 1.0;"/><polygon fill="#A80036" points="1206.68,328.954,1201.9822,320.2977,1202.7158,325.9068,1197.1067,326.6404,1206.68,328.954" style="stroke: #A80036; stroke-width: 1.0;"/><text fill="#000000" font-family="sans-serif" font-size="13" lengthAdjust="spacingAndGlyphs" textLength="116" x="1092" y="239.0669">MasterAgreement</text><text fill="#000000" font-family="sans-serif" font-size="13" lengthAdjust="spacingAndGlyphs" textLength="7" x="1192.2106" y="317.9864">*</text><!--link RegisteredContract to GenericIdentification--><path d="M801.837,361.578 C737.375,378.241 668.223,409.053 629,466 C610.344,493.086 609.439,513.561 629,540 C654.562,574.551 769.352,592.489 846.617,600.816 " fill="none" id="RegisteredContract-GenericIdentification" style="stroke: #A80036; stroke-width: 1.0;"/><polygon fill="#A80036" points="851.65,601.351,843.1232,596.4221,846.678,600.8225,842.2776,604.3773,851.65,601.351" style="stroke: #A80036; stroke-width: 1.0;"/><text fill="#000000" font-family="sans-serif" font-size="13" lengthAdjust="spacingAndGlyphs" textLength="65" x="630" y="508.0669">Certificate</text><text fill="#000000" font-family="sans-serif" font-size="13" lengthAdjust="spacingAndGlyphs" textLength="8" x="835.7303" y="595.9818">1</text><!--link RegisteredContract to CashBalance--><path d="M801.95,352.43 C534.055,372.866 6,423.26 6,503 C6,503 6,503 6,797 C6,841.4795 692.587,871.6406 883.351,879.1623 " fill="none" id="RegisteredContract-CashBalance" style="stroke: #A80036; stroke-width: 1.0;"/><polygon fill="#A80036" points="888.579,879.3676,879.7437,875.0159,883.5829,879.1705,879.4283,883.0096,888.579,879.3676" style="stroke: #A80036; stroke-width: 1.0;"/><text fill="#000000" font-family="sans-serif" font-size="13" lengthAdjust="spacingAndGlyphs" textLength="106" x="7" y="663.0669">ContractBalance</text><text fill="#000000" font-family="sans-serif" font-size="13" lengthAdjust="spacingAndGlyphs" textLength="8" x="872.7346" y="873.8805">1</text><!--link RegisteredContract to RegulatoryReportingRole--><path d="M801.936,372.229 C715.334,393.627 621.256,425.662 607,466 C551.018,624.405 803.706,743.67 897.851,781.943 " fill="none" id="RegisteredContract-RegulatoryReportingRole" style="stroke: #A80036; stroke-width: 1.0;"/><polygon fill="#A80036" points="902.749,783.919,895.9,776.8415,898.1124,782.0478,892.9061,784.2601,902.749,783.919" style="stroke: #A80036; stroke-width: 1.0;"/><text fill="#000000" font-family="sans-serif" font-size="13" lengthAdjust="spacingAndGlyphs" textLength="94" x="646" y="612.0669">ReportingParty</text><text fill="#000000" font-family="sans-serif" font-size="13" lengthAdjust="spacingAndGlyphs" textLength="8" x="881.8893" y="772.9394">1</text><!--link RegisteredContract to RegulatoryReportingRole--><path d="M801.952,356.72 C565.871,381.656 138,436.081 138,503 C138,503 138,503 138,711 C138,781.623 641.181,793.037 846.407,794.756 " fill="none" id="RegisteredContract-RegulatoryReportingRole" style="stroke: #A80036; stroke-width: 1.0;"/><polygon fill="#A80036" points="851.498,794.797,842.5303,790.7251,846.4982,794.757,842.4663,798.7249,851.498,794.797" style="stroke: #A80036; stroke-width: 1.0;"/><text fill="#000000" font-family="sans-serif" font-size="13" lengthAdjust="spacingAndGlyphs" textLength="114" x="139" y="612.0669">RegistrationAgent</text><text fill="#000000" font-family="sans-serif" font-size="13" lengthAdjust="spacingAndGlyphs" textLength="8" x="835.6646" y="790.0972">1</text><!--link RegisteredContract to RegulatoryReportingRole--><path d="M801.737,350.788 C615.582,365.797 325,404.932 325,503 C325,503 325,503 325,711 C325,762.997 679.007,784.565 846.324,791.855 " fill="none" id="RegisteredContract-RegulatoryReportingRole" style="stroke: #A80036; stroke-width: 1.0;"/><polygon fill="#A80036" points="851.708,792.088,842.8902,787.7008,846.7127,791.8708,842.5427,795.6933,851.708,792.088" style="stroke: #A80036; stroke-width: 1.0;"/><text fill="#000000" font-family="sans-serif" font-size="13" lengthAdjust="spacingAndGlyphs" textLength="93" x="326" y="612.0669">ReceivingParty</text><text fill="#000000" font-family="sans-serif" font-size="13" lengthAdjust="spacingAndGlyphs" textLength="8" x="835.6241" y="804.4588">1</text><!--link RegisteredContract to RegulatoryReportingRole--><path d="M801.718,355.462 C734.385,368.211 658.153,392.788 603,440 C545.13,489.537 548.145,521.554 532,596 C501.863,734.97 720.038,776.955 846.325,789.592 " fill="none" id="RegisteredContract-RegulatoryReportingRole" style="stroke: #A80036; stroke-width: 1.0;"/><polygon fill="#A80036" points="851.523,790.101,842.9554,785.2433,846.5468,789.6139,842.1762,793.2053,851.523,790.101" style="stroke: #A80036; stroke-width: 1.0;"/><text fill="#000000" font-family="sans-serif" font-size="13" lengthAdjust="spacingAndGlyphs" textLength="85" x="533" y="612.0669">SendingParty</text><text fill="#000000" font-family="sans-serif" font-size="13" lengthAdjust="spacingAndGlyphs" textLength="8" x="835.6981" y="783.215">1</text><!--link RegisteredContract to StatusReason--><path d="M1081.6,408.01 C1102.72,417.121 1124.68,425.549 1146,432 C1194.61,446.709 1338.87,427.509 1372,466 C1463.97,572.837 1208.62,664.052 1102.17,696.427 " fill="none" id="RegisteredContract-StatusReason" style="stroke: #A80036; stroke-width: 1.0;"/><polygon fill="#A80036" points="1097.21,697.924,1106.9848,699.1299,1101.9933,696.468,1104.6552,691.4766,1097.21,697.924" style="stroke: #A80036; stroke-width: 1.0;"/><text fill="#000000" font-family="sans-serif" font-size="13" lengthAdjust="spacingAndGlyphs" textLength="95" x="1382" y="561.0669">ClosureReason</text><text fill="#000000" font-family="sans-serif" font-size="13" lengthAdjust="spacingAndGlyphs" textLength="8" x="1099.9697" y="686.9461">1</text><!--link RegisteredContract to PaymentTerms--><path d="M821.059,408.132 C764.398,445.148 719.102,493.162 757,540 C765.208,550.144 929.436,581.3 1017.03,597.298 " fill="none" id="RegisteredContract-PaymentTerms" style="stroke: #A80036; stroke-width: 1.0;"/><polygon fill="#A80036" points="1022.17,598.236,1014.0211,592.7047,1017.2491,597.3501,1012.6037,600.5781,1022.17,598.236" style="stroke: #A80036; stroke-width: 1.0;"/><text fill="#000000" font-family="sans-serif" font-size="13" lengthAdjust="spacingAndGlyphs" textLength="146" x="758" y="508.0669">PaymentScheduleType</text><text fill="#000000" font-family="sans-serif" font-size="13" lengthAdjust="spacingAndGlyphs" textLength="8" x="1006.5485" y="592.087">1</text><!--link RegisteredContract to Payment--><path d="M954,408.414 C954,436.988 954,468.005 954,486.457 " fill="none" id="RegisteredContract-Payment" style="stroke: #A80036; stroke-width: 1.0;"/><polygon fill="#A80036" points="954,491.763,958,482.763,954,486.763,950,482.763,954,491.763" style="stroke: #A80036; stroke-width: 1.0;"/><text fill="#000000" font-family="sans-serif" font-size="13" lengthAdjust="spacingAndGlyphs" textLength="105" x="955" y="453.0669">RelatedPayment</text><text fill="#000000" font-family="sans-serif" font-size="13" lengthAdjust="spacingAndGlyphs" textLength="8" x="943.1781" y="480.9879">1</text><!--link RegisteredContract to Document--><path d="M1072.71,273.92 C1144.02,242.052 1236.53,215.529 1318.5,239 C1377.67,255.942 1436.22,301.203 1464.5,325.336 " fill="none" id="RegisteredContract-Document" style="stroke: #A80036; stroke-width: 1.0;"/><polygon fill="#A80036" points="1468.45,328.738,1464.2348,319.8368,1464.6592,325.4777,1459.0183,325.9021,1468.45,328.738" style="stroke: #A80036; stroke-width: 1.0;"/><text fill="#000000" font-family="sans-serif" font-size="13" lengthAdjust="spacingAndGlyphs" textLength="76" x="1240.5" y="239.0669">Attachment</text><text fill="#000000" font-family="sans-serif" font-size="13" lengthAdjust="spacingAndGlyphs" textLength="8" x="1465.2866" y="317.9547">1</text><!--link DateTimePeriod to PaymentTerms--><path d="M1632.02,516.024 C1618.12,524.376 1597.62,535.205 1578,540 C1497.03,559.786 1283.91,527.985 1203,548 C1185.63,552.295 1183.23,558.484 1167,566 C1145.77,575.828 1121.55,586.167 1102.75,594.004 " fill="none" id="DateTimePeriod-PaymentTerms" style="stroke: #A80036; stroke-width: 1.0;"/><polygon fill="#A80036" points="1098.09,595.941,1107.9364,596.1631,1102.7037,594.0139,1104.8529,588.7812,1098.09,595.941" style="stroke: #A80036; stroke-width: 1.0;"/><text fill="#000000" font-family="sans-serif" font-size="13" lengthAdjust="spacingAndGlyphs" textLength="145" x="1204" y="561.0669">RelatedPaymentTerms</text><text fill="#000000" font-family="sans-serif" font-size="13" lengthAdjust="spacingAndGlyphs" textLength="8" x="1096.5116" y="584.9689">1</text><!--link Document to GenericIdentification--><path d="M1463.95,353.074 C1403.07,390.317 1205.26,510.367 1137,540 C1081.92,563.913 1015.59,583.007 970.676,594.599 " fill="none" id="Document-GenericIdentification" style="stroke: #A80036; stroke-width: 1.0;"/><polygon fill="#A80036" points="965.58,595.906,975.2918,597.5432,970.4231,594.6631,973.3032,589.7943,965.58,595.906" style="stroke: #A80036; stroke-width: 1.0;"/><text fill="#000000" font-family="sans-serif" font-size="13" lengthAdjust="spacingAndGlyphs" textLength="148" x="1274" y="508.0669">DocumentIdentification</text><text fill="#000000" font-family="sans-serif" font-size="13" lengthAdjust="spacingAndGlyphs" textLength="8" x="970.7872" y="584.9219">1</text><!--link GenericIdentification to StatusReason--><path d="M925.675,620.348 C933.797,633.333 948.602,654.534 966,668 C981.547,680.033 1001.183,689.405 1018.32,696.132 " fill="none" id="GenericIdentification-StatusReason" style="stroke: #A80036; stroke-width: 1.0;"/><polygon fill="#A80036" points="1023.08,697.959,1016.1215,690.9891,1018.4147,696.1603,1013.2436,698.4535,1023.08,697.959" style="stroke: #A80036; stroke-width: 1.0;"/><text fill="#000000" font-family="sans-serif" font-size="13" lengthAdjust="spacingAndGlyphs" textLength="137" x="967" y="663.0669">RelatedStatusReason</text><text fill="#000000" font-family="sans-serif" font-size="13" lengthAdjust="spacingAndGlyphs" textLength="8" x="1000.3575" y="686.9931">1</text><!--link Payment to Payment--><path d="M983.625,494.859 C1001.333,492.828 1018,495.875 1018,504 C1018,511.3 1004.547,514.501 988.972,513.602 " fill="none" id="Payment-Payment" style="stroke: #A80036; stroke-width: 1.0;"/><polygon fill="#A80036" points="983.625,513.141,992.2477,517.9002,988.6065,513.571,992.9357,509.9298,983.625,513.141" style="stroke: #A80036; stroke-width: 1.0;"/><text fill="#000000" font-family="sans-serif" font-size="13" lengthAdjust="spacingAndGlyphs" textLength="105" x="1024" y="508.0669">OriginalPayment</text><text fill="#000000" font-family="sans-serif" font-size="13" lengthAdjust="spacingAndGlyphs" textLength="8" x="992.5273" y="509.4022">1</text></g></svg>