<?xml version="1.0" encoding="UTF-8" standalone="no"?><svg xmlns="http://www.w3.org/2000/svg" xmlns:xlink="http://www.w3.org/1999/xlink" contentScriptType="application/ecmascript" contentStyleType="text/css" height="480px" preserveAspectRatio="none" style="width:699px;height:480px;" version="1.1" viewBox="0 0 699 480" width="699px" zoomAndPan="magnify"><defs><filter height="300%" id="f10k2oyltna6sv" width="300%" x="-1" y="-1"><feGaussianBlur result="blurOut" stdDeviation="2.0"/><feColorMatrix in="blurOut" result="blurOut2" type="matrix" values="0 0 0 0 0 0 0 0 0 0 0 0 0 0 0 0 0 0 .4 0"/><feOffset dx="4.0" dy="4.0" in="blurOut2" result="blurOut3"/><feBlend in="SourceGraphic" in2="blurOut3" mode="normal"/></filter></defs><g><!--cluster ##7289--><!--cluster ##7295--><!--cluster ##7304--><!--class Role--><a target="_top" xlink:actuate="onRequest" xlink:href="../Role.html" xlink:show="new" xlink:title="Role of a party in an activity." xlink:type="simple"><rect fill="#FEFEEE" filter="url(#f10k2oyltna6sv)" height="44.7734" id="Role" style="stroke: #A80036; stroke-width: 1.5;" width="175" x="151.75" y="40.5"/><rect fill="#FEFEEE" height="23.9688" style="stroke: #A80036; stroke-width: 1.5;" width="175" x="151.75" y="40.5"/><text fill="#000000" font-family="sans-serif" font-size="12" lengthAdjust="spacingAndGlyphs" textLength="27" x="225.75" y="56.6387">Role</text><line style="stroke: #A80036; stroke-width: 1.5;" x1="152.75" x2="325.75" y1="64.4688" y2="64.4688"/><ellipse cx="162.75" cy="76.3711" fill="#84BE84" rx="3" ry="3" style="stroke: #038048; stroke-width: 1.0;"/><text fill="#000000" font-family="sans-serif" font-size="11" lengthAdjust="spacingAndGlyphs" textLength="53" x="171.75" y="78.6792">PartyRole</text><text fill="#000000" font-family="sans-serif" font-size="11" font-style="italic" lengthAdjust="spacingAndGlyphs" textLength="92" x="228.75" y="78.6792">(PartyRoleCode)</text></a><!--class RegulatoryAuthorityRole--><a target="_top" xlink:actuate="onRequest" xlink:href="../RegulatoryAuthorityRole.html" xlink:show="new" xlink:title="Entity requiring the regulatory reporting information." xlink:type="simple"><rect fill="#FEFECE" filter="url(#f10k2oyltna6sv)" height="23.9688" id="RegulatoryAuthorityRole" style="stroke: #A80036; stroke-width: 1.5;" width="156" x="151" y="166"/><rect fill="#FEFECE" height="23.9688" style="stroke: #A80036; stroke-width: 1.5;" width="156" x="151" y="166"/><text fill="#000000" font-family="sans-serif" font-size="12" lengthAdjust="spacingAndGlyphs" textLength="150" x="154" y="182.1387">RegulatoryAuthorityRole</text></a><!--class RolePlayer--><a target="_top" xlink:actuate="onRequest" xlink:href="../RolePlayer.html" xlink:show="new" xlink:title="Type of entity that plays a specific role in a specific context." xlink:type="simple"><rect fill="#EEEEEE" filter="url(#f10k2oyltna6sv)" height="23.9688" id="RolePlayer" style="stroke: #A80036; stroke-width: 1.5;" width="71" x="503.75" y="446"/><rect fill="#EEEEEE" height="23.9688" style="stroke: #A80036; stroke-width: 1.5;" width="71" x="503.75" y="446"/><text fill="#000000" font-family="sans-serif" font-size="12" lengthAdjust="spacingAndGlyphs" textLength="65" x="506.75" y="462.1387">RolePlayer</text></a><!--class ContactPersonRole--><a target="_top" xlink:actuate="onRequest" xlink:href="../ContactPersonRole.html" xlink:show="new" xlink:title="Person to be contacted in a given organisation. In the corporate action domain (including meeting notifications) , it is the contact person at the party organising the meeting, at the issuer or at an intermediary." xlink:type="simple"><rect fill="#EEEEEE" filter="url(#f10k2oyltna6sv)" height="23.9688" id="ContactPersonRole" style="stroke: #A80036; stroke-width: 1.5;" width="126" x="496" y="358"/><rect fill="#EEEEEE" height="23.9688" style="stroke: #A80036; stroke-width: 1.5;" width="126" x="496" y="358"/><text fill="#000000" font-family="sans-serif" font-size="12" lengthAdjust="spacingAndGlyphs" textLength="120" x="499" y="374.1387">ContactPersonRole</text></a><!--class CounterpartyRisk--><a target="_top" xlink:actuate="onRequest" xlink:href="../CounterpartyRisk.html" xlink:show="new" xlink:title="Calculation of the exposure amount that one party has vis-a-vis one counterparty or a central system, based on its credit risk." xlink:type="simple"><rect fill="#EEEEEE" filter="url(#f10k2oyltna6sv)" height="23.9688" id="CounterpartyRisk" style="stroke: #A80036; stroke-width: 1.5;" width="113" x="508.75" y="272"/><rect fill="#EEEEEE" height="23.9688" style="stroke: #A80036; stroke-width: 1.5;" width="113" x="508.75" y="272"/><text fill="#000000" font-family="sans-serif" font-size="12" lengthAdjust="spacingAndGlyphs" textLength="107" x="511.75" y="288.1387">CounterpartyRisk</text></a><!--class Entry--><a target="_top" xlink:actuate="onRequest" xlink:href="../Entry.html" xlink:show="new" xlink:title="Posting to an account that results in an increase or decrease to a balance." xlink:type="simple"><rect fill="#EEEEEE" filter="url(#f10k2oyltna6sv)" height="23.9688" id="Entry" style="stroke: #A80036; stroke-width: 1.5;" width="38" x="496" y="166"/><rect fill="#EEEEEE" height="23.9688" style="stroke: #A80036; stroke-width: 1.5;" width="38" x="496" y="166"/><text fill="#000000" font-family="sans-serif" font-size="12" lengthAdjust="spacingAndGlyphs" textLength="32" x="499" y="182.1387">Entry</text></a><!--class RegulatoryReport--><a target="_top" xlink:actuate="onRequest" xlink:href="../RegulatoryReport.html" xlink:show="new" xlink:title="Information needed due to regulatory and statutory requirements." xlink:type="simple"><rect fill="#EEEEEE" filter="url(#f10k2oyltna6sv)" height="23.9688" id="RegulatoryReport" style="stroke: #A80036; stroke-width: 1.5;" width="115" x="38.75" y="358"/><rect fill="#EEEEEE" height="23.9688" style="stroke: #A80036; stroke-width: 1.5;" width="115" x="38.75" y="358"/><text fill="#000000" font-family="sans-serif" font-size="12" lengthAdjust="spacingAndGlyphs" textLength="109" x="41.75" y="374.1387">RegulatoryReport</text></a><!--class Country--><a target="_top" xlink:actuate="onRequest" xlink:href="../Country.html" xlink:show="new" xlink:title="Nation with its own government." xlink:type="simple"><rect fill="#EEEEEE" filter="url(#f10k2oyltna6sv)" height="23.9688" id="Country" style="stroke: #A80036; stroke-width: 1.5;" width="54" x="53" y="272"/><rect fill="#EEEEEE" height="23.9688" style="stroke: #A80036; stroke-width: 1.5;" width="54" x="53" y="272"/><text fill="#000000" font-family="sans-serif" font-size="12" lengthAdjust="spacingAndGlyphs" textLength="48" x="56" y="288.1387">Country</text></a><!--link Role to RegulatoryAuthorityRole--><path d="M235.322,105.559 C233.411,127.159 231.221,151.898 229.985,165.865 " fill="none" id="Role-RegulatoryAuthorityRole" style="stroke: #A80036; stroke-width: 1.0;"/><polygon fill="none" points="228.36,104.825,237.096,85.52,242.305,106.06,228.36,104.825" style="stroke: #A80036; stroke-width: 1.0;"/><!--link ContactPersonRole to RolePlayer--><!--link CounterpartyRisk to ContactPersonRole--><!--link Entry to CounterpartyRisk--><!--link Country to RegulatoryReport--><!--link Role to RolePlayer--><path d="M287.17,85.61 C320.913,104.394 360,135.179 360,177 C360,177 360,177 360,371 C360,432.1213 445.842,449.8314 498.634,454.9437 " fill="none" id="Role-RolePlayer" style="stroke: #A80036; stroke-width: 1.0;"/><polygon fill="#A80036" points="503.635,455.4002,495.0356,450.599,498.6557,454.9459,494.3088,458.566,503.635,455.4002" style="stroke: #A80036; stroke-width: 1.0;"/><text fill="#000000" font-family="sans-serif" font-size="13" lengthAdjust="spacingAndGlyphs" textLength="39" x="361" y="288.0669">Player</text><text fill="#000000" font-family="sans-serif" font-size="13" lengthAdjust="spacingAndGlyphs" textLength="7" x="488.7402" y="449.5734">*</text><!--link Role to ContactPersonRole--><path d="M326.282,81.442 C347.849,89.137 369.479,100.179 386,116 C428.918,157.099 403.812,190.05 436,240 C466.39,287.159 515.427,332.222 541.456,354.505 " fill="none" id="Role-ContactPersonRole" style="stroke: #A80036; stroke-width: 1.0;"/><polygon fill="#A80036" points="545.43,357.883,541.1632,349.0064,541.6203,354.6447,535.982,355.1018,545.43,357.883" style="stroke: #A80036; stroke-width: 1.0;"/><text fill="#000000" font-family="sans-serif" font-size="13" lengthAdjust="spacingAndGlyphs" textLength="121" x="437" y="235.0669">ContactPersonRole</text><text fill="#000000" font-family="sans-serif" font-size="13" lengthAdjust="spacingAndGlyphs" textLength="8" x="530.0466" y="346.891">1</text><!--link Role to CounterpartyRisk--><path d="M326.302,72.746 C399.412,81.298 497.089,95.957 531,116 C575.521,142.314 570.62,170.967 579,222 C581.526,237.386 576.821,254.69 572.198,266.927 " fill="none" id="Role-CounterpartyRisk" style="stroke: #A80036; stroke-width: 1.0;"/><polygon fill="#A80036" points="570.243,271.841,577.287,264.9576,572.0916,267.1953,569.8539,261.9998,570.243,271.841" style="stroke: #A80036; stroke-width: 1.0;"/><text fill="#000000" font-family="sans-serif" font-size="13" lengthAdjust="spacingAndGlyphs" textLength="109" x="578" y="182.0669">CounterpartyRisk</text><text fill="#000000" font-family="sans-serif" font-size="13" lengthAdjust="spacingAndGlyphs" textLength="24" x="542.4906" y="260.8346">0..1</text><!--link Role to Entry--><path d="M326.485,69.399 C371.955,75.607 426.702,88.678 469,116 C486.217,127.121 499.41,147.043 507.163,161.089 " fill="none" id="Role-Entry" style="stroke: #A80036; stroke-width: 1.0;"/><polygon fill="#A80036" points="509.582,165.605,508.8571,155.7829,507.2205,161.1978,501.8056,159.5612,509.582,165.605" style="stroke: #A80036; stroke-width: 1.0;"/><text fill="#000000" font-family="sans-serif" font-size="13" lengthAdjust="spacingAndGlyphs" textLength="33" x="488" y="129.0669">Entry</text><text fill="#000000" font-family="sans-serif" font-size="13" lengthAdjust="spacingAndGlyphs" textLength="8" x="497.2613" y="155.0378">1</text><!--link RegulatoryAuthorityRole to RegulatoryReport--><path d="M221.274,190.036 C198.686,222.306 132.717,316.547 106.714,353.694 " fill="none" id="RegulatoryAuthorityRole-RegulatoryReport" style="stroke: #A80036; stroke-width: 1.0;"/><polygon fill="#A80036" points="103.7468,357.933,112.1846,352.8533,106.6139,353.8367,105.6305,348.266,103.7468,357.933" style="stroke: #A80036; stroke-width: 1.0;"/><text fill="#000000" font-family="sans-serif" font-size="13" lengthAdjust="spacingAndGlyphs" textLength="110" x="182" y="288.0669">RegulatoryReport</text><text fill="#000000" font-family="sans-serif" font-size="13" lengthAdjust="spacingAndGlyphs" textLength="24" x="76.8551" y="346.9582">0..1</text><!--link RegulatoryAuthorityRole to Country--><path d="M154.794,190.079 C134.106,196.414 113.168,206.366 98,222 C86.4608,233.893 82.2649,252.806 80.7682,266.421 " fill="none" id="RegulatoryAuthorityRole-Country" style="stroke: #A80036; stroke-width: 1.0;"/><polygon fill="#A80036" points="80.304,271.534,85.1027,262.9333,80.7568,266.5545,77.1356,262.2087,80.304,271.534" style="stroke: #A80036; stroke-width: 1.0;"/><text fill="#000000" font-family="sans-serif" font-size="13" lengthAdjust="spacingAndGlyphs" textLength="50" x="99" y="235.0669">Country</text><text fill="#000000" font-family="sans-serif" font-size="13" lengthAdjust="spacingAndGlyphs" textLength="8" x="69.8072" y="260.9441">1</text></g></svg>