<?xml version="1.0" encoding="UTF-8" standalone="no"?><svg xmlns="http://www.w3.org/2000/svg" xmlns:xlink="http://www.w3.org/1999/xlink" contentScriptType="application/ecmascript" contentStyleType="text/css" height="480px" preserveAspectRatio="none" style="width:1085px;height:480px;" version="1.1" viewBox="0 0 1085 480" width="1085px" zoomAndPan="magnify"><defs><filter height="300%" id="fluaca9eacr6t" width="300%" x="-1" y="-1"><feGaussianBlur result="blurOut" stdDeviation="2.0"/><feColorMatrix in="blurOut" result="blurOut2" type="matrix" values="0 0 0 0 0 0 0 0 0 0 0 0 0 0 0 0 0 0 .4 0"/><feOffset dx="4.0" dy="4.0" in="blurOut2" result="blurOut3"/><feBlend in="SourceGraphic" in2="blurOut3" mode="normal"/></filter></defs><g><!--cluster ##6637--><!--cluster ##6643--><!--cluster ##6652--><!--class Role--><a target="_top" xlink:actuate="onRequest" xlink:href="../Role.html" xlink:show="new" xlink:title="Role of a party in an activity." xlink:type="simple"><rect fill="#FEFEEE" filter="url(#fluaca9eacr6t)" height="44.7734" id="Role" style="stroke: #A80036; stroke-width: 1.5;" width="175" x="519.78" y="40.5"/><rect fill="#FEFEEE" height="23.9688" style="stroke: #A80036; stroke-width: 1.5;" width="175" x="519.78" y="40.5"/><text fill="#000000" font-family="sans-serif" font-size="12" lengthAdjust="spacingAndGlyphs" textLength="27" x="593.78" y="56.6387">Role</text><line style="stroke: #A80036; stroke-width: 1.5;" x1="520.78" x2="693.78" y1="64.4688" y2="64.4688"/><ellipse cx="530.78" cy="76.3711" fill="#84BE84" rx="3" ry="3" style="stroke: #038048; stroke-width: 1.0;"/><text fill="#000000" font-family="sans-serif" font-size="11" lengthAdjust="spacingAndGlyphs" textLength="53" x="539.78" y="78.6792">PartyRole</text><text fill="#000000" font-family="sans-serif" font-size="11" font-style="italic" lengthAdjust="spacingAndGlyphs" textLength="92" x="596.78" y="78.6792">(PartyRoleCode)</text></a><!--class RegulatoryReportingRole--><a target="_top" xlink:actuate="onRequest" xlink:href="../RegulatoryReportingRole.html" xlink:show="new" xlink:title="Party which plays a role for regulatory reporting." xlink:type="simple"><rect fill="#FEFECE" filter="url(#fluaca9eacr6t)" height="23.9688" id="RegulatoryReportingRole" style="stroke: #A80036; stroke-width: 1.5;" width="161" x="519.78" y="166"/><rect fill="#FEFECE" height="23.9688" style="stroke: #A80036; stroke-width: 1.5;" width="161" x="519.78" y="166"/><text fill="#000000" font-family="sans-serif" font-size="12" lengthAdjust="spacingAndGlyphs" textLength="155" x="522.78" y="182.1387">RegulatoryReportingRole</text></a><!--class RolePlayer--><a target="_top" xlink:actuate="onRequest" xlink:href="../RolePlayer.html" xlink:show="new" xlink:title="Type of entity that plays a specific role in a specific context." xlink:type="simple"><rect fill="#EEEEEE" filter="url(#fluaca9eacr6t)" height="23.9688" id="RolePlayer" style="stroke: #A80036; stroke-width: 1.5;" width="71" x="889.78" y="446"/><rect fill="#EEEEEE" height="23.9688" style="stroke: #A80036; stroke-width: 1.5;" width="71" x="889.78" y="446"/><text fill="#000000" font-family="sans-serif" font-size="12" lengthAdjust="spacingAndGlyphs" textLength="65" x="892.78" y="462.1387">RolePlayer</text></a><!--class ContactPersonRole--><a target="_top" xlink:actuate="onRequest" xlink:href="../ContactPersonRole.html" xlink:show="new" xlink:title="Person to be contacted in a given organisation. In the corporate action domain (including meeting notifications) , it is the contact person at the party organising the meeting, at the issuer or at an intermediary." xlink:type="simple"><rect fill="#EEEEEE" filter="url(#fluaca9eacr6t)" height="23.9688" id="ContactPersonRole" style="stroke: #A80036; stroke-width: 1.5;" width="126" x="882.03" y="360"/><rect fill="#EEEEEE" height="23.9688" style="stroke: #A80036; stroke-width: 1.5;" width="126" x="882.03" y="360"/><text fill="#000000" font-family="sans-serif" font-size="12" lengthAdjust="spacingAndGlyphs" textLength="120" x="885.03" y="376.1387">ContactPersonRole</text></a><!--class CounterpartyRisk--><a target="_top" xlink:actuate="onRequest" xlink:href="../CounterpartyRisk.html" xlink:show="new" xlink:title="Calculation of the exposure amount that one party has vis-a-vis one counterparty or a central system, based on its credit risk." xlink:type="simple"><rect fill="#EEEEEE" filter="url(#fluaca9eacr6t)" height="23.9688" id="CounterpartyRisk" style="stroke: #A80036; stroke-width: 1.5;" width="113" x="894.78" y="272"/><rect fill="#EEEEEE" height="23.9688" style="stroke: #A80036; stroke-width: 1.5;" width="113" x="894.78" y="272"/><text fill="#000000" font-family="sans-serif" font-size="12" lengthAdjust="spacingAndGlyphs" textLength="107" x="897.78" y="288.1387">CounterpartyRisk</text></a><!--class Entry--><a target="_top" xlink:actuate="onRequest" xlink:href="../Entry.html" xlink:show="new" xlink:title="Posting to an account that results in an increase or decrease to a balance." xlink:type="simple"><rect fill="#EEEEEE" filter="url(#fluaca9eacr6t)" height="23.9688" id="Entry" style="stroke: #A80036; stroke-width: 1.5;" width="38" x="882.03" y="166"/><rect fill="#EEEEEE" height="23.9688" style="stroke: #A80036; stroke-width: 1.5;" width="38" x="882.03" y="166"/><text fill="#000000" font-family="sans-serif" font-size="12" lengthAdjust="spacingAndGlyphs" textLength="32" x="885.03" y="182.1387">Entry</text></a><!--class RegisteredContract--><a target="_top" xlink:actuate="onRequest" xlink:href="../RegisteredContract.html" xlink:show="new" xlink:title="Contract registered for regulatory purpose by a registration agent for the journaling of payments made against the contract." xlink:type="simple"><rect fill="#EEEEEE" filter="url(#fluaca9eacr6t)" height="23.9688" id="RegisteredContract" style="stroke: #A80036; stroke-width: 1.5;" width="128" x="237.03" y="272"/><rect fill="#EEEEEE" height="23.9688" style="stroke: #A80036; stroke-width: 1.5;" width="128" x="237.03" y="272"/><text fill="#000000" font-family="sans-serif" font-size="12" lengthAdjust="spacingAndGlyphs" textLength="122" x="240.03" y="288.1387">RegisteredContract</text></a><!--link Role to RegulatoryReportingRole--><path d="M604.456,105.559 C603.118,127.159 601.585,151.898 600.72,165.865 " fill="none" id="Role-RegulatoryReportingRole" style="stroke: #A80036; stroke-width: 1.0;"/><polygon fill="none" points="597.474,105.049,605.697,85.52,611.447,105.915,597.474,105.049" style="stroke: #A80036; stroke-width: 1.0;"/><!--link ContactPersonRole to RolePlayer--><!--link CounterpartyRisk to ContactPersonRole--><!--link Entry to CounterpartyRisk--><!--link Role to RolePlayer--><path d="M666.382,85.566 C704.162,103.534 746.03,133.304 746.03,177 C746.03,177 746.03,177 746.03,373 C746.03,433.8572 831.872,450.7099 884.664,455.3199 " fill="none" id="Role-RolePlayer" style="stroke: #A80036; stroke-width: 1.0;"/><polygon fill="#A80036" points="889.666,455.7288,881.0216,451.0092,884.6826,455.3217,880.3702,458.9827,889.666,455.7288" style="stroke: #A80036; stroke-width: 1.0;"/><text fill="#000000" font-family="sans-serif" font-size="13" lengthAdjust="spacingAndGlyphs" textLength="39" x="747.03" y="288.0669">Player</text><text fill="#000000" font-family="sans-serif" font-size="13" lengthAdjust="spacingAndGlyphs" textLength="7" x="874.7714" y="449.9585">*</text><!--link Role to ContactPersonRole--><path d="M694.59,76.485 C722.071,84.088 750.753,96.32 772.03,116 C815.655,156.348 793.919,187.647 822.03,240 C842.443,278.014 847.156,288.868 877.03,320 C890.735,334.281 908.745,347.597 922.787,357.039 " fill="none" id="Role-ContactPersonRole" style="stroke: #A80036; stroke-width: 1.0;"/><polygon fill="#A80036" points="927.008,359.842,921.7225,351.5315,922.8425,357.0764,917.2976,358.1964,927.008,359.842" style="stroke: #A80036; stroke-width: 1.0;"/><text fill="#000000" font-family="sans-serif" font-size="13" lengthAdjust="spacingAndGlyphs" textLength="121" x="823.03" y="235.0669">ContactPersonRole</text><text fill="#000000" font-family="sans-serif" font-size="13" lengthAdjust="spacingAndGlyphs" textLength="8" x="910.0942" y="348.8359">1</text><!--link Role to CounterpartyRisk--><path d="M694.431,71.434 C772.904,79.389 881.239,93.927 918.03,116 C962.222,142.513 956.68,171.147 965.03,222 C967.557,237.386 962.852,254.69 958.229,266.927 " fill="none" id="Role-CounterpartyRisk" style="stroke: #A80036; stroke-width: 1.0;"/><polygon fill="#A80036" points="956.274,271.841,963.318,264.9576,958.1226,267.1953,955.8849,261.9998,956.274,271.841" style="stroke: #A80036; stroke-width: 1.0;"/><text fill="#000000" font-family="sans-serif" font-size="13" lengthAdjust="spacingAndGlyphs" textLength="109" x="964.03" y="182.0669">CounterpartyRisk</text><text fill="#000000" font-family="sans-serif" font-size="13" lengthAdjust="spacingAndGlyphs" textLength="24" x="928.5219" y="260.8346">0..1</text><!--link Role to Entry--><path d="M694.497,67.269 C744.766,72.667 807.214,85.642 855.03,116 C872.334,126.986 885.509,146.936 893.235,161.025 " fill="none" id="Role-Entry" style="stroke: #A80036; stroke-width: 1.0;"/><polygon fill="#A80036" points="895.644,165.557,894.9518,155.7325,893.2972,161.142,887.8878,159.4874,895.644,165.557" style="stroke: #A80036; stroke-width: 1.0;"/><text fill="#000000" font-family="sans-serif" font-size="13" lengthAdjust="spacingAndGlyphs" textLength="33" x="875.03" y="129.0669">Entry</text><text fill="#000000" font-family="sans-serif" font-size="13" lengthAdjust="spacingAndGlyphs" textLength="8" x="883.3335" y="154.9745">1</text><!--link RegulatoryReportingRole to RegisteredContract--><path d="M519.535,178.923 C366.113,179.621 43.9913,185.474 10.0305,222 C4.5831,227.859 4.8034,233.944 10.0305,240 C38.1104,272.534 155.047,280.876 231.867,282.773 " fill="none" id="RegulatoryReportingRole-RegisteredContract" style="stroke: #A80036; stroke-width: 1.0;"/><polygon fill="#A80036" points="236.868,282.888,227.963,278.6808,231.8693,282.7723,227.7778,286.6786,236.868,282.888" style="stroke: #A80036; stroke-width: 1.0;"/><text fill="#000000" font-family="sans-serif" font-size="13" lengthAdjust="spacingAndGlyphs" textLength="142" x="11.0305" y="235.0669">RelatedReportingParty</text><text fill="#000000" font-family="sans-serif" font-size="13" lengthAdjust="spacingAndGlyphs" textLength="8" x="221.0599" y="278.0168">1</text><!--link RegulatoryReportingRole to RegisteredContract--><path d="M519.766,181.864 C407.89,186.695 216.309,198.343 195.03,222 C175.069,244.193 208.999,260.408 243.65,270.517 " fill="none" id="RegulatoryReportingRole-RegisteredContract" style="stroke: #A80036; stroke-width: 1.0;"/><polygon fill="#A80036" points="248.762,271.964,241.1933,265.662,243.9514,270.601,239.0124,273.359,248.762,271.964" style="stroke: #A80036; stroke-width: 1.0;"/><text fill="#000000" font-family="sans-serif" font-size="13" lengthAdjust="spacingAndGlyphs" textLength="162" x="196.03" y="235.0669">RelatedRegistrationAgent</text><text fill="#000000" font-family="sans-serif" font-size="13" lengthAdjust="spacingAndGlyphs" textLength="8" x="220.792" y="261.2555">1</text><!--link RegulatoryReportingRole to RegisteredContract--><path d="M519.34,189.908 C482.138,196.551 437.93,206.775 400.03,222 C384.159,228.376 345.922,253.038 321.883,268.985 " fill="none" id="RegulatoryReportingRole-RegisteredContract" style="stroke: #A80036; stroke-width: 1.0;"/><polygon fill="#A80036" points="317.568,271.854,327.2771,270.2007,321.7313,269.0851,322.8469,263.5393,317.568,271.854" style="stroke: #A80036; stroke-width: 1.0;"/><text fill="#000000" font-family="sans-serif" font-size="13" lengthAdjust="spacingAndGlyphs" textLength="141" x="401.03" y="235.0669">RelatedReceivingParty</text><text fill="#000000" font-family="sans-serif" font-size="13" lengthAdjust="spacingAndGlyphs" textLength="8" x="312.5342" y="260.852">1</text><!--link RegulatoryReportingRole to RegisteredContract--><path d="M593.916,190.072 C585.525,204.131 569.06,227.998 548.03,240 C518.431,256.893 432.619,269.209 370.443,276.226 " fill="none" id="RegulatoryReportingRole-RegisteredContract" style="stroke: #A80036; stroke-width: 1.0;"/><polygon fill="#A80036" points="365.257,276.806,374.6457,279.7811,370.226,276.2504,373.7568,271.8307,365.257,276.806" style="stroke: #A80036; stroke-width: 1.0;"/><text fill="#000000" font-family="sans-serif" font-size="13" lengthAdjust="spacingAndGlyphs" textLength="133" x="571.03" y="235.0669">RelatedSendingParty</text><text fill="#000000" font-family="sans-serif" font-size="13" lengthAdjust="spacingAndGlyphs" textLength="8" x="373.1457" y="271.0678">1</text></g></svg>