<?xml version="1.0" encoding="UTF-8" standalone="no"?><svg xmlns="http://www.w3.org/2000/svg" xmlns:xlink="http://www.w3.org/1999/xlink" contentScriptType="application/ecmascript" contentStyleType="text/css" height="480px" preserveAspectRatio="none" style="width:587px;height:480px;" version="1.1" viewBox="0 0 587 480" width="587px" zoomAndPan="magnify"><defs><filter height="300%" id="frlliay0fr68a" width="300%" x="-1" y="-1"><feGaussianBlur result="blurOut" stdDeviation="2.0"/><feColorMatrix in="blurOut" result="blurOut2" type="matrix" values="0 0 0 0 0 0 0 0 0 0 0 0 0 0 0 0 0 0 .4 0"/><feOffset dx="4.0" dy="4.0" in="blurOut2" result="blurOut3"/><feBlend in="SourceGraphic" in2="blurOut3" mode="normal"/></filter></defs><g><!--cluster ##4829--><!--cluster ##4835--><!--cluster ##4844--><!--class Role--><a target="_top" xlink:actuate="onRequest" xlink:href="../Role.html" xlink:show="new" xlink:title="Role of a party in an activity." xlink:type="simple"><rect fill="#FEFEEE" filter="url(#frlliay0fr68a)" height="44.7734" id="Role" style="stroke: #A80036; stroke-width: 1.5;" width="175" x="53.75" y="40.5"/><rect fill="#FEFEEE" height="23.9688" style="stroke: #A80036; stroke-width: 1.5;" width="175" x="53.75" y="40.5"/><text fill="#000000" font-family="sans-serif" font-size="12" lengthAdjust="spacingAndGlyphs" textLength="27" x="127.75" y="56.6387">Role</text><line style="stroke: #A80036; stroke-width: 1.5;" x1="54.75" x2="227.75" y1="64.4688" y2="64.4688"/><ellipse cx="64.75" cy="76.3711" fill="#84BE84" rx="3" ry="3" style="stroke: #038048; stroke-width: 1.0;"/><text fill="#000000" font-family="sans-serif" font-size="11" lengthAdjust="spacingAndGlyphs" textLength="53" x="73.75" y="78.6792">PartyRole</text><text fill="#000000" font-family="sans-serif" font-size="11" font-style="italic" lengthAdjust="spacingAndGlyphs" textLength="92" x="130.75" y="78.6792">(PartyRoleCode)</text></a><!--class ReportingPartyRole--><a target="_top" xlink:actuate="onRequest" xlink:href="../ReportingPartyRole.html" xlink:show="new" xlink:title="Party responsible for providing regulatory reports." xlink:type="simple"><rect fill="#FEFECE" filter="url(#frlliay0fr68a)" height="23.9688" id="ReportingPartyRole" style="stroke: #A80036; stroke-width: 1.5;" width="126" x="53" y="166"/><rect fill="#FEFECE" height="23.9688" style="stroke: #A80036; stroke-width: 1.5;" width="126" x="53" y="166"/><text fill="#000000" font-family="sans-serif" font-size="12" lengthAdjust="spacingAndGlyphs" textLength="120" x="56" y="182.1387">ReportingPartyRole</text></a><!--class RolePlayer--><a target="_top" xlink:actuate="onRequest" xlink:href="../RolePlayer.html" xlink:show="new" xlink:title="Type of entity that plays a specific role in a specific context." xlink:type="simple"><rect fill="#EEEEEE" filter="url(#frlliay0fr68a)" height="23.9688" id="RolePlayer" style="stroke: #A80036; stroke-width: 1.5;" width="71" x="457.75" y="446"/><rect fill="#EEEEEE" height="23.9688" style="stroke: #A80036; stroke-width: 1.5;" width="71" x="457.75" y="446"/><text fill="#000000" font-family="sans-serif" font-size="12" lengthAdjust="spacingAndGlyphs" textLength="65" x="460.75" y="462.1387">RolePlayer</text></a><!--class ContactPersonRole--><a target="_top" xlink:actuate="onRequest" xlink:href="../ContactPersonRole.html" xlink:show="new" xlink:title="Person to be contacted in a given organisation. In the corporate action domain (including meeting notifications) , it is the contact person at the party organising the meeting, at the issuer or at an intermediary." xlink:type="simple"><rect fill="#EEEEEE" filter="url(#frlliay0fr68a)" height="23.9688" id="ContactPersonRole" style="stroke: #A80036; stroke-width: 1.5;" width="126" x="450" y="360"/><rect fill="#EEEEEE" height="23.9688" style="stroke: #A80036; stroke-width: 1.5;" width="126" x="450" y="360"/><text fill="#000000" font-family="sans-serif" font-size="12" lengthAdjust="spacingAndGlyphs" textLength="120" x="453" y="376.1387">ContactPersonRole</text></a><!--class CounterpartyRisk--><a target="_top" xlink:actuate="onRequest" xlink:href="../CounterpartyRisk.html" xlink:show="new" xlink:title="Calculation of the exposure amount that one party has vis-a-vis one counterparty or a central system, based on its credit risk." xlink:type="simple"><rect fill="#EEEEEE" filter="url(#frlliay0fr68a)" height="23.9688" id="CounterpartyRisk" style="stroke: #A80036; stroke-width: 1.5;" width="113" x="456.75" y="272"/><rect fill="#EEEEEE" height="23.9688" style="stroke: #A80036; stroke-width: 1.5;" width="113" x="456.75" y="272"/><text fill="#000000" font-family="sans-serif" font-size="12" lengthAdjust="spacingAndGlyphs" textLength="107" x="459.75" y="288.1387">CounterpartyRisk</text></a><!--class Entry--><a target="_top" xlink:actuate="onRequest" xlink:href="../Entry.html" xlink:show="new" xlink:title="Posting to an account that results in an increase or decrease to a balance." xlink:type="simple"><rect fill="#EEEEEE" filter="url(#frlliay0fr68a)" height="23.9688" id="Entry" style="stroke: #A80036; stroke-width: 1.5;" width="38" x="538" y="166"/><rect fill="#EEEEEE" height="23.9688" style="stroke: #A80036; stroke-width: 1.5;" width="38" x="538" y="166"/><text fill="#000000" font-family="sans-serif" font-size="12" lengthAdjust="spacingAndGlyphs" textLength="32" x="541" y="182.1387">Entry</text></a><!--class RegulatoryReport--><a target="_top" xlink:actuate="onRequest" xlink:href="../RegulatoryReport.html" xlink:show="new" xlink:title="Information needed due to regulatory and statutory requirements." xlink:type="simple"><rect fill="#EEEEEE" filter="url(#frlliay0fr68a)" height="23.9688" id="RegulatoryReport" style="stroke: #A80036; stroke-width: 1.5;" width="115" x="38.75" y="272"/><rect fill="#EEEEEE" height="23.9688" style="stroke: #A80036; stroke-width: 1.5;" width="115" x="38.75" y="272"/><text fill="#000000" font-family="sans-serif" font-size="12" lengthAdjust="spacingAndGlyphs" textLength="109" x="41.75" y="288.1387">RegulatoryReport</text></a><!--link Role to ReportingPartyRole--><path d="M131.88,105.222 C127.084,126.901 121.57,151.825 118.464,165.865 " fill="none" id="Role-ReportingPartyRole" style="stroke: #A80036; stroke-width: 1.0;"/><polygon fill="none" points="125.084,103.536,136.239,85.52,138.753,106.56,125.084,103.536" style="stroke: #A80036; stroke-width: 1.0;"/><!--link ContactPersonRole to RolePlayer--><!--link CounterpartyRisk to ContactPersonRole--><!--link Entry to CounterpartyRisk--><!--link Role to RolePlayer--><path d="M173.596,85.64 C199.708,105.84 232,138.587 232,177 C232,177 232,177 232,373 C232,418.7304 379.025,443.1339 452.378,452.4635 " fill="none" id="Role-RolePlayer" style="stroke: #A80036; stroke-width: 1.0;"/><polygon fill="#A80036" points="457.529,453.1092,449.0959,448.0216,452.5678,452.4878,448.1016,455.9596,457.529,453.1092" style="stroke: #A80036; stroke-width: 1.0;"/><text fill="#000000" font-family="sans-serif" font-size="13" lengthAdjust="spacingAndGlyphs" textLength="39" x="233" y="288.0669">Player</text><text fill="#000000" font-family="sans-serif" font-size="13" lengthAdjust="spacingAndGlyphs" textLength="7" x="442.8674" y="446.9718">*</text><!--link Role to ContactPersonRole--><path d="M215.359,85.637 C231.15,93.125 246.503,103.022 258,116 C296.222,159.145 260.545,194.553 296,240 C343.236,300.548 426.907,339.421 475.391,358.034 " fill="none" id="Role-ContactPersonRole" style="stroke: #A80036; stroke-width: 1.0;"/><polygon fill="#A80036" points="480.259,359.88,473.2624,352.9483,475.584,358.1069,470.4254,360.4284,480.259,359.88" style="stroke: #A80036; stroke-width: 1.0;"/><text fill="#000000" font-family="sans-serif" font-size="13" lengthAdjust="spacingAndGlyphs" textLength="121" x="297" y="235.0669">ContactPersonRole</text><text fill="#000000" font-family="sans-serif" font-size="13" lengthAdjust="spacingAndGlyphs" textLength="8" x="458.2855" y="348.887">1</text><!--link Role to CounterpartyRisk--><path d="M228.504,76.546 C261.888,84.218 299.077,96.48 329,116 C376.091,146.719 363.981,180.317 409,214 C416.336,219.489 420.006,217.523 428,222 C452.691,235.827 478.81,255.417 495.475,268.634 " fill="none" id="Role-CounterpartyRisk" style="stroke: #A80036; stroke-width: 1.0;"/><polygon fill="#A80036" points="499.501,271.85,494.9642,263.1083,495.5939,268.73,489.9722,269.3597,499.501,271.85" style="stroke: #A80036; stroke-width: 1.0;"/><text fill="#000000" font-family="sans-serif" font-size="13" lengthAdjust="spacingAndGlyphs" textLength="109" x="410" y="182.0669">CounterpartyRisk</text><text fill="#000000" font-family="sans-serif" font-size="13" lengthAdjust="spacingAndGlyphs" textLength="24" x="465.306" y="260.8467">0..1</text><!--link Role to Entry--><path d="M228.405,70.018 C306.046,78.185 420.858,97.324 511,142 C521.818,147.361 532.627,155.414 541.047,162.444 " fill="none" id="Role-Entry" style="stroke: #A80036; stroke-width: 1.0;"/><polygon fill="#A80036" points="544.979,165.797,540.7265,156.9135,541.1746,162.5526,535.5355,163.0006,544.979,165.797" style="stroke: #A80036; stroke-width: 1.0;"/><text fill="#000000" font-family="sans-serif" font-size="13" lengthAdjust="spacingAndGlyphs" textLength="33" x="493" y="129.0669">Entry</text><text fill="#000000" font-family="sans-serif" font-size="13" lengthAdjust="spacingAndGlyphs" textLength="8" x="530.3408" y="155.0332">1</text><!--link ReportingPartyRole to RegulatoryReport--><path d="M108.118,190.049 C102.6797,198.384 95.9228,210.339 93,222 C89.3008,236.759 90.6914,254.139 92.628,266.564 " fill="none" id="ReportingPartyRole-RegulatoryReport" style="stroke: #A80036; stroke-width: 1.0;"/><polygon fill="#A80036" points="93.4781,271.563,95.9147,262.0203,92.6409,266.6336,88.0277,263.3598,93.4781,271.563" style="stroke: #A80036; stroke-width: 1.0;"/><text fill="#000000" font-family="sans-serif" font-size="13" lengthAdjust="spacingAndGlyphs" textLength="110" x="94" y="235.0669">RegulatoryReport</text><text fill="#000000" font-family="sans-serif" font-size="13" lengthAdjust="spacingAndGlyphs" textLength="8" x="82.0008" y="260.9824">1</text></g></svg>