<?xml version="1.0" encoding="UTF-8" standalone="no"?><svg xmlns="http://www.w3.org/2000/svg" xmlns:xlink="http://www.w3.org/1999/xlink" contentScriptType="application/ecmascript" contentStyleType="text/css" height="420px" preserveAspectRatio="none" style="width:940px;height:420px;" version="1.1" viewBox="0 0 940 420" width="940px" zoomAndPan="magnify"><defs><filter height="300%" id="ft0w420czfqhj" width="300%" x="-1" y="-1"><feGaussianBlur result="blurOut" stdDeviation="2.0"/><feColorMatrix in="blurOut" result="blurOut2" type="matrix" values="0 0 0 0 0 0 0 0 0 0 0 0 0 0 0 0 0 0 .4 0"/><feOffset dx="4.0" dy="4.0" in="blurOut2" result="blurOut3"/><feBlend in="SourceGraphic" in2="blurOut3" mode="normal"/></filter></defs><g><!--cluster ##2183--><!--cluster ##2189--><!--cluster ##2198--><!--class AccountService--><a target="_top" xlink:actuate="onRequest" xlink:href="../AccountService.html" xlink:show="new" xlink:title="Services linked to an account which are available to the account owner or to the holder of a mandate." xlink:type="simple"><rect fill="#FEFEEE" filter="url(#ft0w420czfqhj)" height="23.9688" id="AccountService" style="stroke: #A80036; stroke-width: 1.5;" width="102" x="344.5" y="40"/><rect fill="#FEFEEE" height="23.9688" style="stroke: #A80036; stroke-width: 1.5;" width="102" x="344.5" y="40"/><text fill="#000000" font-family="sans-serif" font-size="12" lengthAdjust="spacingAndGlyphs" textLength="96" x="347.5" y="56.1387">AccountService</text></a><!--class ReportingService--><a target="_top" xlink:actuate="onRequest" xlink:href="../ReportingService.html" xlink:show="new" xlink:title="Specifies the reporting parameters that are included in the account contract which specifies the services linked to the account.." xlink:type="simple"><rect fill="#FEFECE" filter="url(#ft0w420czfqhj)" height="70.3828" id="ReportingService" style="stroke: #A80036; stroke-width: 1.5;" width="300" x="146.5" y="142"/><rect fill="#FEFECE" height="23.9688" style="stroke: #A80036; stroke-width: 1.5;" width="300" x="146.5" y="142"/><text fill="#000000" font-family="sans-serif" font-size="12" lengthAdjust="spacingAndGlyphs" textLength="106" x="243.5" y="158.1387">ReportingService</text><line style="stroke: #A80036; stroke-width: 1.5;" x1="147.5" x2="445.5" y1="165.9688" y2="165.9688"/><ellipse cx="157.5" cy="177.8711" fill="#84BE84" rx="3" ry="3" style="stroke: #038048; stroke-width: 1.0;"/><text fill="#000000" font-family="sans-serif" font-size="11" lengthAdjust="spacingAndGlyphs" textLength="117" x="166.5" y="180.1792">StatementFrequency</text><text fill="#000000" font-family="sans-serif" font-size="11" font-style="italic" lengthAdjust="spacingAndGlyphs" textLength="96" x="287.5" y="180.1792">(FrequencyCode)</text><ellipse cx="157.5" cy="190.6758" fill="#84BE84" rx="3" ry="3" style="stroke: #038048; stroke-width: 1.0;"/><text fill="#000000" font-family="sans-serif" font-size="11" lengthAdjust="spacingAndGlyphs" textLength="134" x="166.5" y="192.9839">FloorNotificationAmount</text><text fill="#000000" font-family="sans-serif" font-size="11" font-style="italic" lengthAdjust="spacingAndGlyphs" textLength="126" x="304.5" y="192.9839">(CurrencyAndAmount)</text><ellipse cx="157.5" cy="203.4805" fill="#84BE84" rx="3" ry="3" style="stroke: #038048; stroke-width: 1.0;"/><text fill="#000000" font-family="sans-serif" font-size="11" lengthAdjust="spacingAndGlyphs" textLength="144" x="166.5" y="205.7886">CeilingNotificationAmount</text><text fill="#000000" font-family="sans-serif" font-size="11" font-style="italic" lengthAdjust="spacingAndGlyphs" textLength="126" x="314.5" y="205.7886">(CurrencyAndAmount)</text></a><!--class AccountContract--><a target="_top" xlink:actuate="onRequest" xlink:href="../AccountContract.html" xlink:show="new" xlink:title="Agreement between an account servicer and an account owner about the services linked to an account." xlink:type="simple"><rect fill="#EEEEEE" filter="url(#ft0w420czfqhj)" height="23.9688" id="AccountContract" style="stroke: #A80036; stroke-width: 1.5;" width="111" x="501.75" y="165"/><rect fill="#EEEEEE" height="23.9688" style="stroke: #A80036; stroke-width: 1.5;" width="111" x="501.75" y="165"/><text fill="#000000" font-family="sans-serif" font-size="12" lengthAdjust="spacingAndGlyphs" textLength="105" x="504.75" y="181.1387">AccountContract</text></a><!--class Reservation--><a target="_top" xlink:actuate="onRequest" xlink:href="../Reservation.html" xlink:show="new" xlink:title="Liquidity set aside by the payer for specific purposes." xlink:type="simple"><rect fill="#EEEEEE" filter="url(#ft0w420czfqhj)" height="23.9688" id="Reservation" style="stroke: #A80036; stroke-width: 1.5;" width="80" x="528" y="384"/><rect fill="#EEEEEE" height="23.9688" style="stroke: #A80036; stroke-width: 1.5;" width="80" x="528" y="384"/><text fill="#000000" font-family="sans-serif" font-size="12" lengthAdjust="spacingAndGlyphs" textLength="74" x="531" y="400.1387">Reservation</text></a><!--class Account--><a target="_top" xlink:actuate="onRequest" xlink:href="../Account.html" xlink:show="new" xlink:title="Record of transactions in specific types of assets, maintained by a servicing party on behalf of one or more owning parties. Business relationship between an account servicer and one or more account owners." xlink:type="simple"><rect fill="#EEEEEE" filter="url(#ft0w420czfqhj)" height="23.9688" id="Account" style="stroke: #A80036; stroke-width: 1.5;" width="57" x="539.75" y="294"/><rect fill="#EEEEEE" height="23.9688" style="stroke: #A80036; stroke-width: 1.5;" width="57" x="539.75" y="294"/><text fill="#000000" font-family="sans-serif" font-size="12" lengthAdjust="spacingAndGlyphs" textLength="51" x="542.75" y="310.1387">Account</text></a><!--class Charges--><a target="_top" xlink:actuate="onRequest" xlink:href="../Charges.html" xlink:show="new" xlink:title="Amount of money associated with a service." xlink:type="simple"><rect fill="#EEEEEE" filter="url(#ft0w420czfqhj)" height="23.9688" id="Charges" style="stroke: #A80036; stroke-width: 1.5;" width="58" x="647.5" y="165"/><rect fill="#EEEEEE" height="23.9688" style="stroke: #A80036; stroke-width: 1.5;" width="58" x="647.5" y="165"/><text fill="#000000" font-family="sans-serif" font-size="12" lengthAdjust="spacingAndGlyphs" textLength="52" x="650.5" y="181.1387">Charges</text></a><!--class ContactPoint--><a target="_top" xlink:actuate="onRequest" xlink:href="../ContactPoint.html" xlink:show="new" xlink:title="Number, physical or virtual address, used for communication." xlink:type="simple"><rect fill="#EEEEEE" filter="url(#ft0w420czfqhj)" height="23.9688" id="ContactPoint" style="stroke: #A80036; stroke-width: 1.5;" width="87" x="38.75" y="384"/><rect fill="#EEEEEE" height="23.9688" style="stroke: #A80036; stroke-width: 1.5;" width="87" x="38.75" y="384"/><text fill="#000000" font-family="sans-serif" font-size="12" lengthAdjust="spacingAndGlyphs" textLength="81" x="41.75" y="400.1387">ContactPoint</text></a><!--class InvestmentAccountService--><a target="_top" xlink:actuate="onRequest" xlink:href="../InvestmentAccountService.html" xlink:show="new" xlink:title="Services linked to an account which are available to the account owner or to the holder of a mandate. The exercise of these services may be submitted to a limit." xlink:type="simple"><rect fill="#EEEEEE" filter="url(#ft0w420czfqhj)" height="23.9688" id="InvestmentAccountService" style="stroke: #A80036; stroke-width: 1.5;" width="171" x="38.75" y="294"/><rect fill="#EEEEEE" height="23.9688" style="stroke: #A80036; stroke-width: 1.5;" width="171" x="38.75" y="294"/><text fill="#000000" font-family="sans-serif" font-size="12" lengthAdjust="spacingAndGlyphs" textLength="165" x="41.75" y="310.1387">InvestmentAccountService</text></a><!--link AccountService to ReportingService--><path d="M368.962,78.521 C364.182,83.53 359.336,88.835 355,94 C342.37,109.044 329.498,126.62 319.014,141.633 " fill="none" id="AccountService-ReportingService" style="stroke: #A80036; stroke-width: 1.0;"/><polygon fill="none" points="364.261,73.321,383.318,64.058,374.197,83.184,364.261,73.321" style="stroke: #A80036; stroke-width: 1.0;"/><!--link Reservation to AccountContract--><!--link Account to Reservation--><!--link Charges to Account--><!--link InvestmentAccountService to ContactPoint--><!--link AccountService to AccountContract--><path d="M392.507,64.17 C390.322,76.987 388.883,98.031 399,112 C402.852,117.319 477.346,146.039 522.652,163.146 " fill="none" id="AccountService-AccountContract" style="stroke: #A80036; stroke-width: 1.0;"/><polygon fill="#A80036" points="527.484,164.968,520.4749,158.049,522.8058,163.2033,517.6514,165.5341,527.484,164.968" style="stroke: #A80036; stroke-width: 1.0;"/><text fill="#000000" font-family="sans-serif" font-size="13" lengthAdjust="spacingAndGlyphs" textLength="107" x="400" y="107.0669">AccountContract</text><text fill="#000000" font-family="sans-serif" font-size="13" lengthAdjust="spacingAndGlyphs" textLength="7" x="507.7051" y="154.0052">*</text><!--link AccountService to Reservation--><path d="M445.804,54.144 C540.905,56.926 741.892,66.022 805,94 C833.479,106.626 844.356,112.529 857,141 C874.137,179.588 876.35,198.473 857,236 C808.977,329.135 681.953,370.3623 613.4,386.3038 " fill="none" id="AccountService-Reservation" style="stroke: #A80036; stroke-width: 1.0;"/><polygon fill="#A80036" points="608.164,387.4987,617.8285,389.3953,613.0386,386.3859,616.048,381.5959,608.164,387.4987" style="stroke: #A80036; stroke-width: 1.0;"/><text fill="#000000" font-family="sans-serif" font-size="13" lengthAdjust="spacingAndGlyphs" textLength="75" x="853" y="257.0669">Reservation</text><text fill="#000000" font-family="sans-serif" font-size="13" lengthAdjust="spacingAndGlyphs" textLength="8" x="616.0307" y="380.5518">1</text><!--link AccountService to Account--><path d="M445.722,55.134 C539.632,59.61 732.907,71.475 753,94 C780.52,124.852 874.144,54.365 722,236 C691.159,272.819 636.665,290.778 601.459,298.933 " fill="none" id="AccountService-Account" style="stroke: #A80036; stroke-width: 1.0;"/><polygon fill="#A80036" points="596.409,300.066,606.0663,301.9992,601.2878,298.9717,604.3153,294.1932,596.409,300.066" style="stroke: #A80036; stroke-width: 1.0;"/><text fill="#000000" font-family="sans-serif" font-size="13" lengthAdjust="spacingAndGlyphs" textLength="52" x="795" y="181.0669">Account</text><text fill="#000000" font-family="sans-serif" font-size="13" lengthAdjust="spacingAndGlyphs" textLength="8" x="604.6497" y="292.4552">1</text><!--link AccountService to Charges--><path d="M428.799,64.039 C452.518,71.957 484.891,83.109 513,94 C531.937,101.337 536.21,104.294 555,112 C587.683,125.404 598.116,123.854 629,141 C639.549,146.856 650.411,154.798 659.031,161.636 " fill="none" id="AccountService-Charges" style="stroke: #A80036; stroke-width: 1.0;"/><polygon fill="#A80036" points="663.072,164.89,658.5726,156.129,659.1783,161.7533,653.5539,162.3589,663.072,164.89" style="stroke: #A80036; stroke-width: 1.0;"/><text fill="#000000" font-family="sans-serif" font-size="13" lengthAdjust="spacingAndGlyphs" textLength="191" x="556" y="107.0669">AccountAdministrationCharge</text><text fill="#000000" font-family="sans-serif" font-size="13" lengthAdjust="spacingAndGlyphs" textLength="24" x="628.9874" y="153.9004">0..1</text><!--link ReportingService to ContactPoint--><path d="M306.169,212.25 C308.994,228.127 309.521,246.799 302,262 C268.762,329.177 184.462,365.4521 130.395,382.46 " fill="none" id="ReportingService-ContactPoint" style="stroke: #A80036; stroke-width: 1.0;"/><polygon fill="#A80036" points="125.584,383.9476,135.364,385.1101,130.3608,382.4704,133.0005,377.4672,125.584,383.9476" style="stroke: #A80036; stroke-width: 1.0;"/><text fill="#000000" font-family="sans-serif" font-size="13" lengthAdjust="spacingAndGlyphs" textLength="113" x="298" y="310.0669">ReportingChannel</text><text fill="#000000" font-family="sans-serif" font-size="13" lengthAdjust="spacingAndGlyphs" textLength="7" x="130.9332" y="372.9778">*</text><!--link ReportingService to InvestmentAccountService--><path d="M146.483,208.717 C113.932,218.49 86.1462,230.363 76,244 C63.8383,260.346 82.7828,278.66 100.3342,290.917 " fill="none" id="ReportingService-InvestmentAccountService" style="stroke: #A80036; stroke-width: 1.0;"/><polygon fill="#A80036" points="104.7466,293.898,99.5282,285.5452,100.6035,291.099,95.0498,292.1742,104.7466,293.898" style="stroke: #A80036; stroke-width: 1.0;"/><text fill="#000000" font-family="sans-serif" font-size="13" lengthAdjust="spacingAndGlyphs" textLength="219" x="77" y="257.0669">RelatedInvestmentAccountService</text><text fill="#000000" font-family="sans-serif" font-size="13" lengthAdjust="spacingAndGlyphs" textLength="8" x="87.3236" y="282.9112">1</text><!--link AccountContract to Account--><path d="M557.976,189.27 C559.93,211.827 564.327,262.596 566.592,288.748 " fill="none" id="AccountContract-Account" style="stroke: #A80036; stroke-width: 1.0;"/><polygon fill="#A80036" points="567.042,293.936,570.2505,284.6244,566.6106,288.9546,562.2804,285.3147,567.042,293.936" style="stroke: #A80036; stroke-width: 1.0;"/><text fill="#000000" font-family="sans-serif" font-size="13" lengthAdjust="spacingAndGlyphs" textLength="52" x="566" y="257.0669">Account</text><text fill="#000000" font-family="sans-serif" font-size="13" lengthAdjust="spacingAndGlyphs" textLength="7" x="557.0799" y="282.9622">*</text><!--link Account to Account--><path d="M596.508,298.332 C614.181,296.483 631,299.039 631,306 C631,312.254 617.424,314.952 601.85,314.095 " fill="none" id="Account-Account" style="stroke: #A80036; stroke-width: 1.0;"/><polygon fill="#A80036" points="596.508,313.668,605.1605,318.3727,601.4921,314.0666,605.7982,310.3981,596.508,313.668" style="stroke: #A80036; stroke-width: 1.0;"/><text fill="#000000" font-family="sans-serif" font-size="13" lengthAdjust="spacingAndGlyphs" textLength="94" x="637" y="310.0669">ParentAccount</text><text fill="#000000" font-family="sans-serif" font-size="13" lengthAdjust="spacingAndGlyphs" textLength="8" x="604.7741" y="329.6427">1</text><!--link ContactPoint to ContactPoint--><path d="M125.314,387.8487 C144.001,387.1813 160,389.8984 160,396 C160,401.5295 146.86,404.2795 130.488,404.2498 " fill="none" id="ContactPoint-ContactPoint" style="stroke: #A80036; stroke-width: 1.0;"/><polygon fill="#A80036" points="125.314,404.1513,134.2358,408.3229,130.3131,404.247,134.3889,400.3243,125.314,404.1513" style="stroke: #A80036; stroke-width: 1.0;"/><text fill="#000000" font-family="sans-serif" font-size="13" lengthAdjust="spacingAndGlyphs" textLength="80" x="166" y="400.0669">MainContact</text><text fill="#000000" font-family="sans-serif" font-size="13" lengthAdjust="spacingAndGlyphs" textLength="8" x="133.6973" y="400.1707">1</text></g></svg>