<?xml version="1.0" encoding="UTF-8" standalone="no"?><svg xmlns="http://www.w3.org/2000/svg" xmlns:xlink="http://www.w3.org/1999/xlink" contentScriptType="application/ecmascript" contentStyleType="text/css" height="506px" preserveAspectRatio="none" style="width:981px;height:506px;" version="1.1" viewBox="0 0 981 506" width="981px" zoomAndPan="magnify"><defs><filter height="300%" id="f3dnagmneyz4s" width="300%" x="-1" y="-1"><feGaussianBlur result="blurOut" stdDeviation="2.0"/><feColorMatrix in="blurOut" result="blurOut2" type="matrix" values="0 0 0 0 0 0 0 0 0 0 0 0 0 0 0 0 0 0 .4 0"/><feOffset dx="4.0" dy="4.0" in="blurOut2" result="blurOut3"/><feBlend in="SourceGraphic" in2="blurOut3" mode="normal"/></filter></defs><g><!--cluster ##9939--><!--cluster ##9948--><!--cluster ##9957--><!--cluster ##9960--><!--class Role--><a target="_top" xlink:actuate="onRequest" xlink:href="../Role.html" xlink:show="new" xlink:title="Role of a party in an activity." xlink:type="simple"><rect fill="#FEFEEE" filter="url(#f3dnagmneyz4s)" height="44.7734" id="Role" style="stroke: #A80036; stroke-width: 1.5;" width="175" x="38.75" y="40.5"/><rect fill="#FEFEEE" height="23.9688" style="stroke: #A80036; stroke-width: 1.5;" width="175" x="38.75" y="40.5"/><text fill="#000000" font-family="sans-serif" font-size="12" lengthAdjust="spacingAndGlyphs" textLength="27" x="112.75" y="56.6387">Role</text><line style="stroke: #A80036; stroke-width: 1.5;" x1="39.75" x2="212.75" y1="64.4688" y2="64.4688"/><ellipse cx="49.75" cy="76.3711" fill="#84BE84" rx="3" ry="3" style="stroke: #038048; stroke-width: 1.0;"/><text fill="#000000" font-family="sans-serif" font-size="11" lengthAdjust="spacingAndGlyphs" textLength="53" x="58.75" y="78.6792">PartyRole</text><text fill="#000000" font-family="sans-serif" font-size="11" font-style="italic" lengthAdjust="spacingAndGlyphs" textLength="92" x="115.75" y="78.6792">(PartyRoleCode)</text></a><!--class AccountPartyRole--><a target="_top" xlink:actuate="onRequest" xlink:href="../AccountPartyRole.html" xlink:show="new" xlink:title="Role played by a party in the context of account operations." xlink:type="simple"><rect fill="#FEFEEE" filter="url(#f3dnagmneyz4s)" height="23.9688" id="AccountPartyRole" style="stroke: #A80036; stroke-width: 1.5;" width="116" x="80.5" y="166"/><rect fill="#FEFEEE" height="23.9688" style="stroke: #A80036; stroke-width: 1.5;" width="116" x="80.5" y="166"/><text fill="#000000" font-family="sans-serif" font-size="12" lengthAdjust="spacingAndGlyphs" textLength="110" x="83.5" y="182.1387">AccountPartyRole</text></a><!--class RepresentativeOfficer--><a target="_top" xlink:actuate="onRequest" xlink:href="../RepresentativeOfficer.html" xlink:show="new" xlink:title="Officer who has some rights to represent a given organisation. In account management, it is the person to be contacted by the account servicer." xlink:type="simple"><rect fill="#FEFECE" filter="url(#f3dnagmneyz4s)" height="23.9688" id="RepresentativeOfficer" style="stroke: #A80036; stroke-width: 1.5;" width="141" x="67.75" y="272"/><rect fill="#FEFECE" height="23.9688" style="stroke: #A80036; stroke-width: 1.5;" width="141" x="67.75" y="272"/><text fill="#000000" font-family="sans-serif" font-size="12" lengthAdjust="spacingAndGlyphs" textLength="135" x="70.75" y="288.1387">RepresentativeOfficer</text></a><!--class RolePlayer--><a target="_top" xlink:actuate="onRequest" xlink:href="../RolePlayer.html" xlink:show="new" xlink:title="Type of entity that plays a specific role in a specific context." xlink:type="simple"><rect fill="#EEEEEE" filter="url(#f3dnagmneyz4s)" height="23.9688" id="RolePlayer" style="stroke: #A80036; stroke-width: 1.5;" width="71" x="556.75" y="472"/><rect fill="#EEEEEE" height="23.9688" style="stroke: #A80036; stroke-width: 1.5;" width="71" x="556.75" y="472"/><text fill="#000000" font-family="sans-serif" font-size="12" lengthAdjust="spacingAndGlyphs" textLength="65" x="559.75" y="488.1387">RolePlayer</text></a><!--class ContactPersonRole--><a target="_top" xlink:actuate="onRequest" xlink:href="../ContactPersonRole.html" xlink:show="new" xlink:title="Person to be contacted in a given organisation. In the corporate action domain (including meeting notifications) , it is the contact person at the party organising the meeting, at the issuer or at an intermediary." xlink:type="simple"><rect fill="#EEEEEE" filter="url(#f3dnagmneyz4s)" height="23.9688" id="ContactPersonRole" style="stroke: #A80036; stroke-width: 1.5;" width="126" x="509" y="382"/><rect fill="#EEEEEE" height="23.9688" style="stroke: #A80036; stroke-width: 1.5;" width="126" x="509" y="382"/><text fill="#000000" font-family="sans-serif" font-size="12" lengthAdjust="spacingAndGlyphs" textLength="120" x="512" y="398.1387">ContactPersonRole</text></a><!--class CounterpartyRisk--><a target="_top" xlink:actuate="onRequest" xlink:href="../CounterpartyRisk.html" xlink:show="new" xlink:title="Calculation of the exposure amount that one party has vis-a-vis one counterparty or a central system, based on its credit risk." xlink:type="simple"><rect fill="#EEEEEE" filter="url(#f3dnagmneyz4s)" height="23.9688" id="CounterpartyRisk" style="stroke: #A80036; stroke-width: 1.5;" width="113" x="515.75" y="272"/><rect fill="#EEEEEE" height="23.9688" style="stroke: #A80036; stroke-width: 1.5;" width="113" x="515.75" y="272"/><text fill="#000000" font-family="sans-serif" font-size="12" lengthAdjust="spacingAndGlyphs" textLength="107" x="518.75" y="288.1387">CounterpartyRisk</text></a><!--class Entry--><a target="_top" xlink:actuate="onRequest" xlink:href="../Entry.html" xlink:show="new" xlink:title="Posting to an account that results in an increase or decrease to a balance." xlink:type="simple"><rect fill="#EEEEEE" filter="url(#f3dnagmneyz4s)" height="23.9688" id="Entry" style="stroke: #A80036; stroke-width: 1.5;" width="38" x="509" y="166"/><rect fill="#EEEEEE" height="23.9688" style="stroke: #A80036; stroke-width: 1.5;" width="38" x="509" y="166"/><text fill="#000000" font-family="sans-serif" font-size="12" lengthAdjust="spacingAndGlyphs" textLength="32" x="512" y="182.1387">Entry</text></a><!--class Account--><a target="_top" xlink:actuate="onRequest" xlink:href="../Account.html" xlink:show="new" xlink:title="Record of transactions in specific types of assets, maintained by a servicing party on behalf of one or more owning parties. Business relationship between an account servicer and one or more account owners." xlink:type="simple"><rect fill="#EEEEEE" filter="url(#f3dnagmneyz4s)" height="23.9688" id="Account" style="stroke: #A80036; stroke-width: 1.5;" width="57" x="270.75" y="272"/><rect fill="#EEEEEE" height="23.9688" style="stroke: #A80036; stroke-width: 1.5;" width="57" x="270.75" y="272"/><text fill="#000000" font-family="sans-serif" font-size="12" lengthAdjust="spacingAndGlyphs" textLength="51" x="273.75" y="288.1387">Account</text></a><!--class Organisation--><a target="_top" xlink:actuate="onRequest" xlink:href="../Organisation.html" xlink:show="new" xlink:title="Organised structure that is set up for a particular purpose. For example, a business, government body, department, charity, or financial institution." xlink:type="simple"><rect fill="#EEEEEE" filter="url(#f3dnagmneyz4s)" height="23.9688" id="Organisation" style="stroke: #A80036; stroke-width: 1.5;" width="86" x="95" y="382"/><rect fill="#EEEEEE" height="23.9688" style="stroke: #A80036; stroke-width: 1.5;" width="86" x="95" y="382"/><text fill="#000000" font-family="sans-serif" font-size="12" lengthAdjust="spacingAndGlyphs" textLength="80" x="98" y="398.1387">Organisation</text></a><!--link Role to AccountPartyRole--><path d="M130.413,105.559 C132.707,127.159 135.334,151.898 136.817,165.865 " fill="none" id="Role-AccountPartyRole" style="stroke: #A80036; stroke-width: 1.0;"/><polygon fill="none" points="123.437,106.148,128.285,85.52,137.358,104.669,123.437,106.148" style="stroke: #A80036; stroke-width: 1.0;"/><!--link AccountPartyRole to RepresentativeOfficer--><path d="M138,210.217 C138,231.114 138,257.371 138,271.95 " fill="none" id="AccountPartyRole-RepresentativeOfficer" style="stroke: #A80036; stroke-width: 1.0;"/><polygon fill="none" points="131,210.13,138,190.13,145,210.13,131,210.13" style="stroke: #A80036; stroke-width: 1.0;"/><!--link ContactPersonRole to RolePlayer--><!--link CounterpartyRisk to ContactPersonRole--><!--link Entry to CounterpartyRisk--><!--link Role to RolePlayer--><path d="M213.464,67.271 C421.584,76.218 929,105.376 929,177 C929,177 929,177 929,395 C929,455.6217 722.27,475.2654 632.642,480.9332 " fill="none" id="Role-RolePlayer" style="stroke: #A80036; stroke-width: 1.0;"/><polygon fill="#A80036" points="627.428,481.2555,636.6577,484.6924,632.4185,480.9469,636.164,476.7077,627.428,481.2555" style="stroke: #A80036; stroke-width: 1.0;"/><text fill="#000000" font-family="sans-serif" font-size="13" lengthAdjust="spacingAndGlyphs" textLength="39" x="930" y="288.0669">Player</text><text fill="#000000" font-family="sans-serif" font-size="13" lengthAdjust="spacingAndGlyphs" textLength="7" x="635.8888" y="474.8806">*</text><!--link Role to ContactPersonRole--><path d="M213.506,69.37 C367.395,79.736 673.203,104.809 704,142 C769.514,221.117 640.57,337.989 590.612,378.528 " fill="none" id="Role-ContactPersonRole" style="stroke: #A80036; stroke-width: 1.0;"/><polygon fill="#A80036" points="586.592,381.763,596.1106,379.2341,590.4864,378.6272,591.0933,373.003,586.592,381.763" style="stroke: #A80036; stroke-width: 1.0;"/><text fill="#000000" font-family="sans-serif" font-size="13" lengthAdjust="spacingAndGlyphs" textLength="121" x="719" y="233.0669">ContactPersonRole</text><text fill="#000000" font-family="sans-serif" font-size="13" lengthAdjust="spacingAndGlyphs" textLength="8" x="580.7694" y="370.9879">1</text><!--link Role to CounterpartyRisk--><path d="M213.408,67.134 C327.724,73.236 518.798,90.981 564,142 C594.92,176.898 584.318,237.753 576.82,266.745 " fill="none" id="Role-CounterpartyRisk" style="stroke: #A80036; stroke-width: 1.0;"/><polygon fill="#A80036" points="575.466,271.774,581.6661,264.1216,576.7645,266.9456,573.9406,262.044,575.466,271.774" style="stroke: #A80036; stroke-width: 1.0;"/><text fill="#000000" font-family="sans-serif" font-size="13" lengthAdjust="spacingAndGlyphs" textLength="109" x="585" y="182.0669">CounterpartyRisk</text><text fill="#000000" font-family="sans-serif" font-size="13" lengthAdjust="spacingAndGlyphs" textLength="24" x="547.2251" y="261.0026">0..1</text><!--link Role to Entry--><path d="M202.559,85.52 C294.992,111.503 445.31,153.756 503.715,170.174 " fill="none" id="Role-Entry" style="stroke: #A80036; stroke-width: 1.0;"/><polygon fill="#A80036" points="508.748,171.588,501.1662,165.3018,503.9345,170.235,499.0014,173.0033,508.748,171.588" style="stroke: #A80036; stroke-width: 1.0;"/><text fill="#000000" font-family="sans-serif" font-size="13" lengthAdjust="spacingAndGlyphs" textLength="33" x="376" y="129.0669">Entry</text><text fill="#000000" font-family="sans-serif" font-size="13" lengthAdjust="spacingAndGlyphs" textLength="8" x="492.9271" y="163.484">1</text><!--link AccountPartyRole to Account--><path d="M155.23,190.13 C184.765,209.209 244.998,248.117 277.333,269.004 " fill="none" id="AccountPartyRole-Account" style="stroke: #A80036; stroke-width: 1.0;"/><polygon fill="#A80036" points="281.894,271.95,276.5042,263.7068,277.694,269.2371,272.1636,270.4268,281.894,271.95" style="stroke: #A80036; stroke-width: 1.0;"/><text fill="#000000" font-family="sans-serif" font-size="13" lengthAdjust="spacingAndGlyphs" textLength="52" x="230" y="233.0669">Account</text><text fill="#000000" font-family="sans-serif" font-size="13" lengthAdjust="spacingAndGlyphs" textLength="7" x="266.381" y="260.981">*</text><!--link RepresentativeOfficer to Organisation--><path d="M138,296.151 C138,315.23 138,354.224 138,376.474 " fill="none" id="RepresentativeOfficer-Organisation" style="stroke: #A80036; stroke-width: 1.0;"/><polygon fill="#A80036" points="138,381.748,142,372.748,138,376.748,134,372.748,138,381.748" style="stroke: #A80036; stroke-width: 1.0;"/><text fill="#000000" font-family="sans-serif" font-size="13" lengthAdjust="spacingAndGlyphs" textLength="81" x="139" y="343.0669">Organisation</text><text fill="#000000" font-family="sans-serif" font-size="13" lengthAdjust="spacingAndGlyphs" textLength="8" x="127.3438" y="370.968">1</text><!--link Entry to Account--><path d="M508.869,187.688 C468.754,205.907 375.622,248.202 328.07,269.798 " fill="none" id="Entry-Account" style="stroke: #A80036; stroke-width: 1.0;"/><polygon fill="#A80036" points="323.336,271.948,333.1845,271.8694,327.8887,269.8809,329.8772,264.5851,323.336,271.948" style="stroke: #A80036; stroke-width: 1.0;"/><text fill="#000000" font-family="sans-serif" font-size="13" lengthAdjust="spacingAndGlyphs" textLength="52" x="436" y="233.0669">Account</text><text fill="#000000" font-family="sans-serif" font-size="13" lengthAdjust="spacingAndGlyphs" textLength="7" x="322.0687" y="260.9783">*</text><!--link Account to Account--><path d="M327.508,274.589 C345.181,272.32 362,275.457 362,284 C362,291.675 348.424,294.987 332.85,293.935 " fill="none" id="Account-Account" style="stroke: #A80036; stroke-width: 1.0;"/><polygon fill="#A80036" points="327.508,293.411,336.0742,298.2711,332.4841,293.8995,336.8557,290.3094,327.508,293.411" style="stroke: #A80036; stroke-width: 1.0;"/><text fill="#000000" font-family="sans-serif" font-size="13" lengthAdjust="spacingAndGlyphs" textLength="94" x="368" y="288.0669">ParentAccount</text><text fill="#000000" font-family="sans-serif" font-size="13" lengthAdjust="spacingAndGlyphs" textLength="8" x="335.7741" y="289.7324">1</text><!--link Organisation to Organisation--><path d="M181.314,385.478 C200.001,384.78 216,387.621 216,394 C216,399.781 202.86,402.656 186.488,402.625 " fill="none" id="Organisation-Organisation" style="stroke: #A80036; stroke-width: 1.0;"/><polygon fill="#A80036" points="181.314,402.522,190.2322,406.7012,186.313,402.622,190.3922,398.7028,181.314,402.522" style="stroke: #A80036; stroke-width: 1.0;"/><text fill="#000000" font-family="sans-serif" font-size="13" lengthAdjust="spacingAndGlyphs" textLength="123" x="222" y="398.0669">ParentOrganisation</text><text fill="#000000" font-family="sans-serif" font-size="13" lengthAdjust="spacingAndGlyphs" textLength="8" x="188.8547" y="398.6055">1</text></g></svg>