<?xml version="1.0" encoding="UTF-8" standalone="no"?><svg xmlns="http://www.w3.org/2000/svg" xmlns:xlink="http://www.w3.org/1999/xlink" contentScriptType="application/ecmascript" contentStyleType="text/css" height="352px" preserveAspectRatio="none" style="width:349px;height:352px;" version="1.1" viewBox="0 0 349 352" width="349px" zoomAndPan="magnify"><defs><filter height="300%" id="fdszi2evlvl83" width="300%" x="-1" y="-1"><feGaussianBlur result="blurOut" stdDeviation="2.0"/><feColorMatrix in="blurOut" result="blurOut2" type="matrix" values="0 0 0 0 0 0 0 0 0 0 0 0 0 0 0 0 0 0 .4 0"/><feOffset dx="4.0" dy="4.0" in="blurOut2" result="blurOut3"/><feBlend in="SourceGraphic" in2="blurOut3" mode="normal"/></filter></defs><g><!--cluster ##9346--><!--cluster ##9355--><!--class RolePlayer--><a target="_top" xlink:actuate="onRequest" xlink:href="../RolePlayer.html" xlink:show="new" xlink:title="Type of entity that plays a specific role in a specific context." xlink:type="simple"><rect fill="#FEFECE" filter="url(#fdszi2evlvl83)" height="23.9688" id="RolePlayer" style="stroke: #A80036; stroke-width: 1.5;" width="71" x="91.75" y="40"/><rect fill="#FEFECE" height="23.9688" style="stroke: #A80036; stroke-width: 1.5;" width="71" x="91.75" y="40"/><text fill="#000000" font-family="sans-serif" font-size="12" lengthAdjust="spacingAndGlyphs" textLength="65" x="94.75" y="56.1387">RolePlayer</text></a><!--class Party--><a target="_top" xlink:actuate="onRequest" xlink:href="../Party.html" xlink:show="new" xlink:title="Entity involved in an activity." xlink:type="simple"><rect fill="#FEFEEE" filter="url(#fdszi2evlvl83)" height="23.9688" id="Party" style="stroke: #A80036; stroke-width: 1.5;" width="38" x="38" y="126"/><rect fill="#FEFEEE" height="23.9688" style="stroke: #A80036; stroke-width: 1.5;" width="38" x="38" y="126"/><text fill="#000000" font-family="sans-serif" font-size="12" lengthAdjust="spacingAndGlyphs" textLength="32" x="41" y="142.1387">Party</text></a><!--class System--><a target="_top" xlink:actuate="onRequest" xlink:href="../System.html" xlink:show="new" xlink:title="Set of integrated applications that provides centralised services such as clearing, netting, reconciliation, trading and/or settlement." xlink:type="simple"><rect fill="#FEFEEE" filter="url(#fdszi2evlvl83)" height="23.9688" id="System" style="stroke: #A80036; stroke-width: 1.5;" width="51" x="111.75" y="126"/><rect fill="#FEFEEE" height="23.9688" style="stroke: #A80036; stroke-width: 1.5;" width="51" x="111.75" y="126"/><text fill="#000000" font-family="sans-serif" font-size="12" lengthAdjust="spacingAndGlyphs" textLength="45" x="114.75" y="142.1387">System</text></a><!--class Role--><a target="_top" xlink:actuate="onRequest" xlink:href="../Role.html" xlink:show="new" xlink:title="Role of a party in an activity." xlink:type="simple"><rect fill="#EEEEEE" filter="url(#fdszi2evlvl83)" height="23.9688" id="Role" style="stroke: #A80036; stroke-width: 1.5;" width="33" x="243.75" y="318"/><rect fill="#EEEEEE" height="23.9688" style="stroke: #A80036; stroke-width: 1.5;" width="33" x="243.75" y="318"/><text fill="#000000" font-family="sans-serif" font-size="12" lengthAdjust="spacingAndGlyphs" textLength="27" x="246.75" y="334.1387">Role</text></a><!--class DateTimePeriod--><a target="_top" xlink:actuate="onRequest" xlink:href="../DateTimePeriod.html" xlink:show="new" xlink:title="Time span defined by a start date and time, and an end date and time." xlink:type="simple"><rect fill="#EEEEEE" filter="url(#fdszi2evlvl83)" height="23.9688" id="DateTimePeriod" style="stroke: #A80036; stroke-width: 1.5;" width="105" x="180.75" y="232"/><rect fill="#EEEEEE" height="23.9688" style="stroke: #A80036; stroke-width: 1.5;" width="105" x="180.75" y="232"/><text fill="#000000" font-family="sans-serif" font-size="12" lengthAdjust="spacingAndGlyphs" textLength="99" x="183.75" y="248.1387">DateTimePeriod</text></a><!--link RolePlayer to Party--><path d="M104.7229,79.732 C91.7362,95.317 76.0442,114.147 66.2909,125.851 " fill="none" id="RolePlayer-Party" style="stroke: #A80036; stroke-width: 1.0;"/><polygon fill="none" points="99.3782,75.212,117.559,64.329,110.133,84.174,99.3782,75.212" style="stroke: #A80036; stroke-width: 1.0;"/><!--link RolePlayer to System--><path d="M130.728,84.314 C132.461,98.876 134.414,115.274 135.673,125.851 " fill="none" id="RolePlayer-System" style="stroke: #A80036; stroke-width: 1.0;"/><polygon fill="none" points="123.762,85.016,128.349,64.329,137.664,83.361,123.762,85.016" style="stroke: #A80036; stroke-width: 1.0;"/><!--link DateTimePeriod to Role--><!--link RolePlayer to Role--><path d="M162.317,56.111 C204.453,61.93 273.185,78.566 305,126 C311.789,136.121 308.825,232.206 302,256 C295.789,277.6532 281.843,299.6828 271.721,313.7936 " fill="none" id="RolePlayer-Role" style="stroke: #A80036; stroke-width: 1.0;"/><polygon fill="#A80036" points="268.715,317.9094,277.2529,312.9998,271.6636,313.8714,270.7921,308.2821,268.715,317.9094" style="stroke: #A80036; stroke-width: 1.0;"/><text fill="#000000" font-family="sans-serif" font-size="13" lengthAdjust="spacingAndGlyphs" textLength="27" x="310" y="195.0669">Role</text><text fill="#000000" font-family="sans-serif" font-size="13" lengthAdjust="spacingAndGlyphs" textLength="23" x="243.328" y="306.9265">1..*</text><!--link RolePlayer to DateTimePeriod--><path d="M135.829,64.084 C152.613,85.632 189.374,135.172 211,182 C217.856,196.846 224.014,214.482 228.06,226.964 " fill="none" id="RolePlayer-DateTimePeriod" style="stroke: #A80036; stroke-width: 1.0;"/><polygon fill="#A80036" points="229.66,231.974,230.7344,222.1839,228.1399,227.2107,223.1131,224.6162,229.66,231.974" style="stroke: #A80036; stroke-width: 1.0;"/><text fill="#000000" font-family="sans-serif" font-size="13" lengthAdjust="spacingAndGlyphs" textLength="86" x="209" y="142.0669">ValidityPeriod</text><text fill="#000000" font-family="sans-serif" font-size="13" lengthAdjust="spacingAndGlyphs" textLength="24" x="198.9572" y="221.0133">0..1</text><!--link System to DateTimePeriod--><path d="M125.094,150.312 C116.663,157.84 104.7994,167.503 93,174 C83.5194,179.221 76.2711,173.179 70,182 C65.3646,188.52 65.1176,193.663 70,200 C83.0015,216.876 133.929,228.464 175.443,235.321 " fill="none" id="System-DateTimePeriod" style="stroke: #A80036; stroke-width: 1.0;"/><polygon fill="#A80036" points="180.456,236.133,172.2119,230.7446,175.5204,235.333,170.932,238.6415,180.456,236.133" style="stroke: #A80036; stroke-width: 1.0;"/><text fill="#000000" font-family="sans-serif" font-size="13" lengthAdjust="spacingAndGlyphs" textLength="134" x="71" y="195.0669">VersionValidityPeriod</text><text fill="#000000" font-family="sans-serif" font-size="13" lengthAdjust="spacingAndGlyphs" textLength="8" x="164.7736" y="230.3169">1</text></g></svg>