<?xml version="1.0" encoding="UTF-8" standalone="no"?><svg xmlns="http://www.w3.org/2000/svg" xmlns:xlink="http://www.w3.org/1999/xlink" contentScriptType="application/ecmascript" contentStyleType="text/css" height="390px" preserveAspectRatio="none" style="width:6042px;height:390px;" version="1.1" viewBox="0 0 6042 390" width="6042px" zoomAndPan="magnify"><defs><filter height="300%" id="f1ptapsjgcn27w" width="300%" x="-1" y="-1"><feGaussianBlur result="blurOut" stdDeviation="2.0"/><feColorMatrix in="blurOut" result="blurOut2" type="matrix" values="0 0 0 0 0 0 0 0 0 0 0 0 0 0 0 0 0 0 .4 0"/><feOffset dx="4.0" dy="4.0" in="blurOut2" result="blurOut3"/><feBlend in="SourceGraphic" in2="blurOut3" mode="normal"/></filter></defs><g><!--cluster ##11950--><!--cluster ##12055--><!--class Role--><a target="_top" xlink:actuate="onRequest" xlink:href="../Role.html" xlink:show="new" xlink:title="Role of a party in an activity." xlink:type="simple"><rect fill="#FEFECE" filter="url(#f1ptapsjgcn27w)" height="44.7734" id="Role" style="stroke: #A80036; stroke-width: 1.5;" width="175" x="2890.75" y="40.5"/><rect fill="#FEFECE" height="23.9688" style="stroke: #A80036; stroke-width: 1.5;" width="175" x="2890.75" y="40.5"/><text fill="#000000" font-family="sans-serif" font-size="12" lengthAdjust="spacingAndGlyphs" textLength="27" x="2964.75" y="56.6387">Role</text><line style="stroke: #A80036; stroke-width: 1.5;" x1="2891.75" x2="3064.75" y1="64.4688" y2="64.4688"/><ellipse cx="2901.75" cy="76.3711" fill="#84BE84" rx="3" ry="3" style="stroke: #038048; stroke-width: 1.0;"/><text fill="#000000" font-family="sans-serif" font-size="11" lengthAdjust="spacingAndGlyphs" textLength="53" x="2910.75" y="78.6792">PartyRole</text><text fill="#000000" font-family="sans-serif" font-size="11" font-style="italic" lengthAdjust="spacingAndGlyphs" textLength="92" x="2967.75" y="78.6792">(PartyRoleCode)</text></a><!--class InformationPartyRole--><a target="_top" xlink:actuate="onRequest" xlink:href="../InformationPartyRole.html" xlink:show="new" xlink:title="Role played by a party as source of information." xlink:type="simple"><rect fill="#FEFEEE" filter="url(#f1ptapsjgcn27w)" height="23.9688" id="InformationPartyRole" style="stroke: #A80036; stroke-width: 1.5;" width="136" x="38" y="166"/><rect fill="#FEFEEE" height="23.9688" style="stroke: #A80036; stroke-width: 1.5;" width="136" x="38" y="166"/><text fill="#000000" font-family="sans-serif" font-size="12" lengthAdjust="spacingAndGlyphs" textLength="130" x="41" y="182.1387">InformationPartyRole</text></a><!--class AccountPartyRole--><a target="_top" xlink:actuate="onRequest" xlink:href="../AccountPartyRole.html" xlink:show="new" xlink:title="Role played by a party in the context of account operations." xlink:type="simple"><rect fill="#FEFEEE" filter="url(#f1ptapsjgcn27w)" height="23.9688" id="AccountPartyRole" style="stroke: #A80036; stroke-width: 1.5;" width="116" x="209.5" y="166"/><rect fill="#FEFEEE" height="23.9688" style="stroke: #A80036; stroke-width: 1.5;" width="116" x="209.5" y="166"/><text fill="#000000" font-family="sans-serif" font-size="12" lengthAdjust="spacingAndGlyphs" textLength="110" x="212.5" y="182.1387">AccountPartyRole</text></a><!--class EmployingPartyRole--><a target="_top" xlink:actuate="onRequest" xlink:href="../EmployingPartyRole.html" xlink:show="new" xlink:title="Organisation represented by a person, or for which a person works." xlink:type="simple"><rect fill="#FEFEEE" filter="url(#f1ptapsjgcn27w)" height="23.9688" id="EmployingPartyRole" style="stroke: #A80036; stroke-width: 1.5;" width="128" x="360" y="166"/><rect fill="#FEFEEE" height="23.9688" style="stroke: #A80036; stroke-width: 1.5;" width="128" x="360" y="166"/><text fill="#000000" font-family="sans-serif" font-size="12" lengthAdjust="spacingAndGlyphs" textLength="122" x="363" y="182.1387">EmployingPartyRole</text></a><!--class DocumentPartyRole--><a target="_top" xlink:actuate="onRequest" xlink:href="../DocumentPartyRole.html" xlink:show="new" xlink:title="Role played by a party in the context of a document." xlink:type="simple"><rect fill="#FEFEEE" filter="url(#f1ptapsjgcn27w)" height="23.9688" id="DocumentPartyRole" style="stroke: #A80036; stroke-width: 1.5;" width="129" x="523.75" y="166"/><rect fill="#FEFEEE" height="23.9688" style="stroke: #A80036; stroke-width: 1.5;" width="129" x="523.75" y="166"/><text fill="#000000" font-family="sans-serif" font-size="12" lengthAdjust="spacingAndGlyphs" textLength="123" x="526.75" y="182.1387">DocumentPartyRole</text></a><!--class MandatePartyRole--><a target="_top" xlink:actuate="onRequest" xlink:href="../MandatePartyRole.html" xlink:show="new" xlink:title="Role played by a party in the context of a mandate." xlink:type="simple"><rect fill="#FEFEEE" filter="url(#f1ptapsjgcn27w)" height="23.9688" id="MandatePartyRole" style="stroke: #A80036; stroke-width: 1.5;" width="120" x="688.5" y="166"/><rect fill="#FEFEEE" height="23.9688" style="stroke: #A80036; stroke-width: 1.5;" width="120" x="688.5" y="166"/><text fill="#000000" font-family="sans-serif" font-size="12" lengthAdjust="spacingAndGlyphs" textLength="114" x="691.5" y="182.1387">MandatePartyRole</text></a><!--class CardPaymentPartyRole--><a target="_top" xlink:actuate="onRequest" xlink:href="../CardPaymentPartyRole.html" xlink:show="new" xlink:title="Role played by a party in the context of a payment by card." xlink:type="simple"><rect fill="#FEFEEE" filter="url(#f1ptapsjgcn27w)" height="23.9688" id="CardPaymentPartyRole" style="stroke: #A80036; stroke-width: 1.5;" width="148" x="843" y="166"/><rect fill="#FEFEEE" height="23.9688" style="stroke: #A80036; stroke-width: 1.5;" width="148" x="843" y="166"/><text fill="#000000" font-family="sans-serif" font-size="12" lengthAdjust="spacingAndGlyphs" textLength="142" x="846" y="182.1387">CardPaymentPartyRole</text></a><!--class InvestmentFundPartyRole--><a target="_top" xlink:actuate="onRequest" xlink:href="../InvestmentFundPartyRole.html" xlink:show="new" xlink:title="Specifies roles played by a party that are linked to the handling of investment funds but not related to a specific process." xlink:type="simple"><rect fill="#FEFEEE" filter="url(#f1ptapsjgcn27w)" height="23.9688" id="InvestmentFundPartyRole" style="stroke: #A80036; stroke-width: 1.5;" width="165" x="1026.75" y="166"/><rect fill="#FEFEEE" height="23.9688" style="stroke: #A80036; stroke-width: 1.5;" width="165" x="1026.75" y="166"/><text fill="#000000" font-family="sans-serif" font-size="12" lengthAdjust="spacingAndGlyphs" textLength="159" x="1029.75" y="182.1387">InvestmentFundPartyRole</text></a><!--class TradePartyRole--><a target="_top" xlink:actuate="onRequest" xlink:href="../TradePartyRole.html" xlink:show="new" xlink:title="Trading party in a commercial, securities, treasury trade. This role may also represent parties which play different intermediary roles in a trade." xlink:type="simple"><rect fill="#FEFEEE" filter="url(#f1ptapsjgcn27w)" height="23.9688" id="TradePartyRole" style="stroke: #A80036; stroke-width: 1.5;" width="101" x="1226.75" y="166"/><rect fill="#FEFEEE" height="23.9688" style="stroke: #A80036; stroke-width: 1.5;" width="101" x="1226.75" y="166"/><text fill="#000000" font-family="sans-serif" font-size="12" lengthAdjust="spacingAndGlyphs" textLength="95" x="1229.75" y="182.1387">TradePartyRole</text></a><!--class SystemPartyRole--><a target="_top" xlink:actuate="onRequest" xlink:href="../SystemPartyRole.html" xlink:show="new" xlink:title="Role played by a party in a system." xlink:type="simple"><rect fill="#FEFEEE" filter="url(#f1ptapsjgcn27w)" height="23.9688" id="SystemPartyRole" style="stroke: #A80036; stroke-width: 1.5;" width="110" x="1363" y="166"/><rect fill="#FEFEEE" height="23.9688" style="stroke: #A80036; stroke-width: 1.5;" width="110" x="1363" y="166"/><text fill="#000000" font-family="sans-serif" font-size="12" lengthAdjust="spacingAndGlyphs" textLength="104" x="1366" y="182.1387">SystemPartyRole</text></a><!--class PaymentPartyRole--><a target="_top" xlink:actuate="onRequest" xlink:href="../PaymentPartyRole.html" xlink:show="new" xlink:title="Role played by a party in the context of a payment." xlink:type="simple"><rect fill="#FEFEEE" filter="url(#f1ptapsjgcn27w)" height="23.9688" id="PaymentPartyRole" style="stroke: #A80036; stroke-width: 1.5;" width="119" x="1508.75" y="166"/><rect fill="#FEFEEE" height="23.9688" style="stroke: #A80036; stroke-width: 1.5;" width="119" x="1508.75" y="166"/><text fill="#000000" font-family="sans-serif" font-size="12" lengthAdjust="spacingAndGlyphs" textLength="113" x="1511.75" y="182.1387">PaymentPartyRole</text></a><!--class AssetPartyRole--><a target="_top" xlink:actuate="onRequest" xlink:href="../AssetPartyRole.html" xlink:show="new" xlink:title="Specifies roles played by a party that are linked to the handling of assets but not related to a specific process." xlink:type="simple"><rect fill="#FEFEEE" filter="url(#f1ptapsjgcn27w)" height="23.9688" id="AssetPartyRole" style="stroke: #A80036; stroke-width: 1.5;" width="100" x="1663" y="166"/><rect fill="#FEFEEE" height="23.9688" style="stroke: #A80036; stroke-width: 1.5;" width="100" x="1663" y="166"/><text fill="#000000" font-family="sans-serif" font-size="12" lengthAdjust="spacingAndGlyphs" textLength="94" x="1666" y="182.1387">AssetPartyRole</text></a><!--class SettlementPartyRole--><a target="_top" xlink:actuate="onRequest" xlink:href="../SettlementPartyRole.html" xlink:show="new" xlink:title="Role played by a party in a settlement process." xlink:type="simple"><rect fill="#FEFEEE" filter="url(#f1ptapsjgcn27w)" height="23.9688" id="SettlementPartyRole" style="stroke: #A80036; stroke-width: 1.5;" width="134" x="1798" y="166"/><rect fill="#FEFEEE" height="23.9688" style="stroke: #A80036; stroke-width: 1.5;" width="134" x="1798" y="166"/><text fill="#000000" font-family="sans-serif" font-size="12" lengthAdjust="spacingAndGlyphs" textLength="128" x="1801" y="182.1387">SettlementPartyRole</text></a><!--class ContactPersonRole--><a target="_top" xlink:actuate="onRequest" xlink:href="../ContactPersonRole.html" xlink:show="new" xlink:title="Person to be contacted in a given organisation. In the corporate action domain (including meeting notifications) , it is the contact person at the party organising the meeting, at the issuer or at an intermediary." xlink:type="simple"><rect fill="#FEFEEE" filter="url(#f1ptapsjgcn27w)" height="23.9688" id="ContactPersonRole" style="stroke: #A80036; stroke-width: 1.5;" width="126" x="1967" y="166"/><rect fill="#FEFEEE" height="23.9688" style="stroke: #A80036; stroke-width: 1.5;" width="126" x="1967" y="166"/><text fill="#000000" font-family="sans-serif" font-size="12" lengthAdjust="spacingAndGlyphs" textLength="120" x="1970" y="182.1387">ContactPersonRole</text></a><!--class SecuritiesOrderPartyRole--><a target="_top" xlink:actuate="onRequest" xlink:href="../SecuritiesOrderPartyRole.html" xlink:show="new" xlink:title="Role played by a party associated with an order to buy or sell securities." xlink:type="simple"><rect fill="#FEFEEE" filter="url(#f1ptapsjgcn27w)" height="23.9688" id="SecuritiesOrderPartyRole" style="stroke: #A80036; stroke-width: 1.5;" width="162" x="2128" y="166"/><rect fill="#FEFEEE" height="23.9688" style="stroke: #A80036; stroke-width: 1.5;" width="162" x="2128" y="166"/><text fill="#000000" font-family="sans-serif" font-size="12" lengthAdjust="spacingAndGlyphs" textLength="156" x="2131" y="182.1387">SecuritiesOrderPartyRole</text></a><!--class SecurityCertificatePartyRole--><a target="_top" xlink:actuate="onRequest" xlink:href="../SecurityCertificatePartyRole.html" xlink:show="new" xlink:title="Role played by a party in the context of a security certificate" xlink:type="simple"><rect fill="#FEFEEE" filter="url(#f1ptapsjgcn27w)" height="23.9688" id="SecurityCertificatePartyRole" style="stroke: #A80036; stroke-width: 1.5;" width="179" x="2325.75" y="166"/><rect fill="#FEFEEE" height="23.9688" style="stroke: #A80036; stroke-width: 1.5;" width="179" x="2325.75" y="166"/><text fill="#000000" font-family="sans-serif" font-size="12" lengthAdjust="spacingAndGlyphs" textLength="173" x="2328.75" y="182.1387">SecurityCertificatePartyRole</text></a><!--class InvoicePartyRole--><a target="_top" xlink:actuate="onRequest" xlink:href="../InvoicePartyRole.html" xlink:show="new" xlink:title="Role played by a party in the context of an invoice." xlink:type="simple"><rect fill="#FEFEEE" filter="url(#f1ptapsjgcn27w)" height="23.9688" id="InvoicePartyRole" style="stroke: #A80036; stroke-width: 1.5;" width="108" x="2540" y="166"/><rect fill="#FEFEEE" height="23.9688" style="stroke: #A80036; stroke-width: 1.5;" width="108" x="2540" y="166"/><text fill="#000000" font-family="sans-serif" font-size="12" lengthAdjust="spacingAndGlyphs" textLength="102" x="2543" y="182.1387">InvoicePartyRole</text></a><!--class TaxPartyRole--><a target="_top" xlink:actuate="onRequest" xlink:href="../TaxPartyRole.html" xlink:show="new" xlink:title="Role played by a party in the context of a tax due." xlink:type="simple"><rect fill="#FEFEEE" filter="url(#f1ptapsjgcn27w)" height="23.9688" id="TaxPartyRole" style="stroke: #A80036; stroke-width: 1.5;" width="86" x="2683" y="166"/><rect fill="#FEFEEE" height="23.9688" style="stroke: #A80036; stroke-width: 1.5;" width="86" x="2683" y="166"/><text fill="#000000" font-family="sans-serif" font-size="12" lengthAdjust="spacingAndGlyphs" textLength="80" x="2686" y="182.1387">TaxPartyRole</text></a><!--class InvestigationPartyRole--><a target="_top" xlink:actuate="onRequest" xlink:href="../InvestigationPartyRole.html" xlink:show="new" xlink:title="Role played by a party in the context of an investigation process." xlink:type="simple"><rect fill="#FEFEEE" filter="url(#f1ptapsjgcn27w)" height="23.9688" id="InvestigationPartyRole" style="stroke: #A80036; stroke-width: 1.5;" width="145" x="2804.75" y="166"/><rect fill="#FEFEEE" height="23.9688" style="stroke: #A80036; stroke-width: 1.5;" width="145" x="2804.75" y="166"/><text fill="#000000" font-family="sans-serif" font-size="12" lengthAdjust="spacingAndGlyphs" textLength="139" x="2807.75" y="182.1387">InvestigationPartyRole</text></a><!--class ChargePartyRole--><a target="_top" xlink:actuate="onRequest" xlink:href="../ChargePartyRole.html" xlink:show="new" xlink:title="Role played by a party in the context of a paymentof charges." xlink:type="simple"><rect fill="#FEFEEE" filter="url(#f1ptapsjgcn27w)" height="23.9688" id="ChargePartyRole" style="stroke: #A80036; stroke-width: 1.5;" width="110" x="2985" y="166"/><rect fill="#FEFEEE" height="23.9688" style="stroke: #A80036; stroke-width: 1.5;" width="110" x="2985" y="166"/><text fill="#000000" font-family="sans-serif" font-size="12" lengthAdjust="spacingAndGlyphs" textLength="104" x="2988" y="182.1387">ChargePartyRole</text></a><!--class RegulatoryAuthorityRole--><a target="_top" xlink:actuate="onRequest" xlink:href="../RegulatoryAuthorityRole.html" xlink:show="new" xlink:title="Entity requiring the regulatory reporting information." xlink:type="simple"><rect fill="#FEFEEE" filter="url(#f1ptapsjgcn27w)" height="23.9688" id="RegulatoryAuthorityRole" style="stroke: #A80036; stroke-width: 1.5;" width="156" x="3130" y="166"/><rect fill="#FEFEEE" height="23.9688" style="stroke: #A80036; stroke-width: 1.5;" width="156" x="3130" y="166"/><text fill="#000000" font-family="sans-serif" font-size="12" lengthAdjust="spacingAndGlyphs" textLength="150" x="3133" y="182.1387">RegulatoryAuthorityRole</text></a><!--class UndertakingPartyRole--><a target="_top" xlink:actuate="onRequest" xlink:href="../UndertakingPartyRole.html" xlink:show="new" xlink:title="Role played by a party in the context of an undertaking." xlink:type="simple"><rect fill="#FEFEEE" filter="url(#f1ptapsjgcn27w)" height="23.9688" id="UndertakingPartyRole" style="stroke: #A80036; stroke-width: 1.5;" width="142" x="3321" y="166"/><rect fill="#FEFEEE" height="23.9688" style="stroke: #A80036; stroke-width: 1.5;" width="142" x="3321" y="166"/><text fill="#000000" font-family="sans-serif" font-size="12" lengthAdjust="spacingAndGlyphs" textLength="136" x="3324" y="182.1387">UndertakingPartyRole</text></a><!--class CorporateActionPartyRole--><a target="_top" xlink:actuate="onRequest" xlink:href="../CorporateActionPartyRole.html" xlink:show="new" xlink:title="Role played by a party in the context of a corporate action." xlink:type="simple"><rect fill="#FEFEEE" filter="url(#f1ptapsjgcn27w)" height="23.9688" id="CorporateActionPartyRole" style="stroke: #A80036; stroke-width: 1.5;" width="167" x="3498.75" y="166"/><rect fill="#FEFEEE" height="23.9688" style="stroke: #A80036; stroke-width: 1.5;" width="167" x="3498.75" y="166"/><text fill="#000000" font-family="sans-serif" font-size="12" lengthAdjust="spacingAndGlyphs" textLength="161" x="3501.75" y="182.1387">CorporateActionPartyRole</text></a><!--class TransportPartyRole--><a target="_top" xlink:actuate="onRequest" xlink:href="../TransportPartyRole.html" xlink:show="new" xlink:title="Role played by a party in the context of transporting goods." xlink:type="simple"><rect fill="#FEFEEE" filter="url(#f1ptapsjgcn27w)" height="23.9688" id="TransportPartyRole" style="stroke: #A80036; stroke-width: 1.5;" width="126" x="3701" y="166"/><rect fill="#FEFEEE" height="23.9688" style="stroke: #A80036; stroke-width: 1.5;" width="126" x="3701" y="166"/><text fill="#000000" font-family="sans-serif" font-size="12" lengthAdjust="spacingAndGlyphs" textLength="120" x="3704" y="182.1387">TransportPartyRole</text></a><!--class InsurancePartyRole--><a target="_top" xlink:actuate="onRequest" xlink:href="../InsurancePartyRole.html" xlink:show="new" xlink:title="Role played by a party in the context of insurance." xlink:type="simple"><rect fill="#FEFEEE" filter="url(#f1ptapsjgcn27w)" height="23.9688" id="InsurancePartyRole" style="stroke: #A80036; stroke-width: 1.5;" width="127" x="3862.75" y="166"/><rect fill="#FEFEEE" height="23.9688" style="stroke: #A80036; stroke-width: 1.5;" width="127" x="3862.75" y="166"/><text fill="#000000" font-family="sans-serif" font-size="12" lengthAdjust="spacingAndGlyphs" textLength="121" x="3865.75" y="182.1387">InsurancePartyRole</text></a><!--class CollateralPartyRole--><a target="_top" xlink:actuate="onRequest" xlink:href="../CollateralPartyRole.html" xlink:show="new" xlink:title="Role played by a party in the context of collateral." xlink:type="simple"><rect fill="#FEFEEE" filter="url(#f1ptapsjgcn27w)" height="23.9688" id="CollateralPartyRole" style="stroke: #A80036; stroke-width: 1.5;" width="124" x="4025.5" y="166"/><rect fill="#FEFEEE" height="23.9688" style="stroke: #A80036; stroke-width: 1.5;" width="124" x="4025.5" y="166"/><text fill="#000000" font-family="sans-serif" font-size="12" lengthAdjust="spacingAndGlyphs" textLength="118" x="4028.5" y="182.1387">CollateralPartyRole</text></a><!--class ReportingPartyRole--><a target="_top" xlink:actuate="onRequest" xlink:href="../ReportingPartyRole.html" xlink:show="new" xlink:title="Party responsible for providing regulatory reports." xlink:type="simple"><rect fill="#FEFEEE" filter="url(#f1ptapsjgcn27w)" height="23.9688" id="ReportingPartyRole" style="stroke: #A80036; stroke-width: 1.5;" width="126" x="4184" y="166"/><rect fill="#FEFEEE" height="23.9688" style="stroke: #A80036; stroke-width: 1.5;" width="126" x="4184" y="166"/><text fill="#000000" font-family="sans-serif" font-size="12" lengthAdjust="spacingAndGlyphs" textLength="120" x="4187" y="182.1387">ReportingPartyRole</text></a><!--class ChequePartyRole--><a target="_top" xlink:actuate="onRequest" xlink:href="../ChequePartyRole.html" xlink:show="new" xlink:title="Role played by a party in the context of a payment by cheque." xlink:type="simple"><rect fill="#FEFEEE" filter="url(#f1ptapsjgcn27w)" height="23.9688" id="ChequePartyRole" style="stroke: #A80036; stroke-width: 1.5;" width="113" x="4345.75" y="166"/><rect fill="#FEFEEE" height="23.9688" style="stroke: #A80036; stroke-width: 1.5;" width="113" x="4345.75" y="166"/><text fill="#000000" font-family="sans-serif" font-size="12" lengthAdjust="spacingAndGlyphs" textLength="107" x="4348.75" y="182.1387">ChequePartyRole</text></a><!--class CommissionPartyRole--><a target="_top" xlink:actuate="onRequest" xlink:href="../CommissionPartyRole.html" xlink:show="new" xlink:title="Role played by a party in the context of a payment of commission." xlink:type="simple"><rect fill="#FEFEEE" filter="url(#f1ptapsjgcn27w)" height="23.9688" id="CommissionPartyRole" style="stroke: #A80036; stroke-width: 1.5;" width="139" x="4493.75" y="166"/><rect fill="#FEFEEE" height="23.9688" style="stroke: #A80036; stroke-width: 1.5;" width="139" x="4493.75" y="166"/><text fill="#000000" font-family="sans-serif" font-size="12" lengthAdjust="spacingAndGlyphs" textLength="133" x="4496.75" y="182.1387">CommissionPartyRole</text></a><!--class GoodsPartyRole--><a target="_top" xlink:actuate="onRequest" xlink:href="../GoodsPartyRole.html" xlink:show="new" xlink:title="Role played by a party in the context of handling goods." xlink:type="simple"><rect fill="#FEFEEE" filter="url(#f1ptapsjgcn27w)" height="23.9688" id="GoodsPartyRole" style="stroke: #A80036; stroke-width: 1.5;" width="105" x="4667.75" y="166"/><rect fill="#FEFEEE" height="23.9688" style="stroke: #A80036; stroke-width: 1.5;" width="105" x="4667.75" y="166"/><text fill="#000000" font-family="sans-serif" font-size="12" lengthAdjust="spacingAndGlyphs" textLength="99" x="4670.75" y="182.1387">GoodsPartyRole</text></a><!--class TradeCertificatePartyRole--><a target="_top" xlink:actuate="onRequest" xlink:href="../TradeCertificatePartyRole.html" xlink:show="new" xlink:title="Role played by a party in the context of issuing trade certificates." xlink:type="simple"><rect fill="#FEFEEE" filter="url(#f1ptapsjgcn27w)" height="23.9688" id="TradeCertificatePartyRole" style="stroke: #A80036; stroke-width: 1.5;" width="165" x="4807.75" y="166"/><rect fill="#FEFEEE" height="23.9688" style="stroke: #A80036; stroke-width: 1.5;" width="165" x="4807.75" y="166"/><text fill="#000000" font-family="sans-serif" font-size="12" lengthAdjust="spacingAndGlyphs" textLength="159" x="4810.75" y="182.1387">TradeCertificatePartyRole</text></a><!--class MarketInfrastructure--><a target="_top" xlink:actuate="onRequest" xlink:href="../MarketInfrastructure.html" xlink:show="new" xlink:title="Multilateral system among participating institutions, including the operator of the system, used for the purposes of clearing, settling, or recording payments, securities, derivatives or other financial transactions." xlink:type="simple"><rect fill="#FEFEEE" filter="url(#f1ptapsjgcn27w)" height="23.9688" id="MarketInfrastructure" style="stroke: #A80036; stroke-width: 1.5;" width="135" x="5007.75" y="166"/><rect fill="#FEFEEE" height="23.9688" style="stroke: #A80036; stroke-width: 1.5;" width="135" x="5007.75" y="166"/><text fill="#000000" font-family="sans-serif" font-size="12" lengthAdjust="spacingAndGlyphs" textLength="129" x="5010.75" y="182.1387">MarketInfrastructure</text></a><!--class GuaranteePartyRole--><a target="_top" xlink:actuate="onRequest" xlink:href="../GuaranteePartyRole.html" xlink:show="new" xlink:title="Role played by a party in the context of guarantees." xlink:type="simple"><rect fill="#FEFEEE" filter="url(#f1ptapsjgcn27w)" height="23.9688" id="GuaranteePartyRole" style="stroke: #A80036; stroke-width: 1.5;" width="132" x="5178" y="166"/><rect fill="#FEFEEE" height="23.9688" style="stroke: #A80036; stroke-width: 1.5;" width="132" x="5178" y="166"/><text fill="#000000" font-family="sans-serif" font-size="12" lengthAdjust="spacingAndGlyphs" textLength="126" x="5181" y="182.1387">GuaranteePartyRole</text></a><!--class PaymentObligationPartyRole--><a target="_top" xlink:actuate="onRequest" xlink:href="../PaymentObligationPartyRole.html" xlink:show="new" xlink:title="Role played by a party in the context of a payment obligation." xlink:type="simple"><rect fill="#FEFEEE" filter="url(#f1ptapsjgcn27w)" height="23.9688" id="PaymentObligationPartyRole" style="stroke: #A80036; stroke-width: 1.5;" width="182" x="5345" y="166"/><rect fill="#FEFEEE" height="23.9688" style="stroke: #A80036; stroke-width: 1.5;" width="182" x="5345" y="166"/><text fill="#000000" font-family="sans-serif" font-size="12" lengthAdjust="spacingAndGlyphs" textLength="176" x="5348" y="182.1387">PaymentObligationPartyRole</text></a><!--class RegulatoryReportingRole--><a target="_top" xlink:actuate="onRequest" xlink:href="../RegulatoryReportingRole.html" xlink:show="new" xlink:title="Party which plays a role for regulatory reporting." xlink:type="simple"><rect fill="#FEFEEE" filter="url(#f1ptapsjgcn27w)" height="23.9688" id="RegulatoryReportingRole" style="stroke: #A80036; stroke-width: 1.5;" width="161" x="5562.75" y="166"/><rect fill="#FEFEEE" height="23.9688" style="stroke: #A80036; stroke-width: 1.5;" width="161" x="5562.75" y="166"/><text fill="#000000" font-family="sans-serif" font-size="12" lengthAdjust="spacingAndGlyphs" textLength="155" x="5565.75" y="182.1387">RegulatoryReportingRole</text></a><!--class RolePlayer--><a target="_top" xlink:actuate="onRequest" xlink:href="../RolePlayer.html" xlink:show="new" xlink:title="Type of entity that plays a specific role in a specific context." xlink:type="simple"><rect fill="#EEEEEE" filter="url(#f1ptapsjgcn27w)" height="23.9688" id="RolePlayer" style="stroke: #A80036; stroke-width: 1.5;" width="71" x="5816.75" y="356"/><rect fill="#EEEEEE" height="23.9688" style="stroke: #A80036; stroke-width: 1.5;" width="71" x="5816.75" y="356"/><text fill="#000000" font-family="sans-serif" font-size="12" lengthAdjust="spacingAndGlyphs" textLength="65" x="5819.75" y="372.1387">RolePlayer</text></a><!--class CounterpartyRisk--><a target="_top" xlink:actuate="onRequest" xlink:href="../CounterpartyRisk.html" xlink:show="new" xlink:title="Calculation of the exposure amount that one party has vis-a-vis one counterparty or a central system, based on its credit risk." xlink:type="simple"><rect fill="#EEEEEE" filter="url(#f1ptapsjgcn27w)" height="23.9688" id="CounterpartyRisk" style="stroke: #A80036; stroke-width: 1.5;" width="113" x="5780.75" y="270"/><rect fill="#EEEEEE" height="23.9688" style="stroke: #A80036; stroke-width: 1.5;" width="113" x="5780.75" y="270"/><text fill="#000000" font-family="sans-serif" font-size="12" lengthAdjust="spacingAndGlyphs" textLength="107" x="5783.75" y="286.1387">CounterpartyRisk</text></a><!--class Entry--><a target="_top" xlink:actuate="onRequest" xlink:href="../Entry.html" xlink:show="new" xlink:title="Posting to an account that results in an increase or decrease to a balance." xlink:type="simple"><rect fill="#EEEEEE" filter="url(#f1ptapsjgcn27w)" height="23.9688" id="Entry" style="stroke: #A80036; stroke-width: 1.5;" width="38" x="5780" y="166"/><rect fill="#EEEEEE" height="23.9688" style="stroke: #A80036; stroke-width: 1.5;" width="38" x="5780" y="166"/><text fill="#000000" font-family="sans-serif" font-size="12" lengthAdjust="spacingAndGlyphs" textLength="32" x="5783" y="182.1387">Entry</text></a><!--link Role to InformationPartyRole--><path d="M2870.39,64.296 C2442.87,65.76 863.645,73.958 365,116 C287.085,122.569 266.37,121.184 191,142 C169.156,148.033 145.393,158.142 128.56,165.949 " fill="none" id="Role-InformationPartyRole" style="stroke: #A80036; stroke-width: 1.0;"/><polygon fill="none" points="2870.43,57.296,2890.45,64.23,2870.48,71.296,2870.43,57.296" style="stroke: #A80036; stroke-width: 1.0;"/><!--link Role to AccountPartyRole--><path d="M2870.51,64.62 C2460.53,67.242 994.792,79.049 530,116 C445.914,122.685 422.9,118.12 342,142 C322.293,147.817 301.2,158.056 286.419,165.962 " fill="none" id="Role-AccountPartyRole" style="stroke: #A80036; stroke-width: 1.0;"/><polygon fill="none" points="2870.6,57.619,2890.65,64.493,2870.69,71.619,2870.6,57.619" style="stroke: #A80036; stroke-width: 1.0;"/><!--link Role to EmployingPartyRole--><path d="M2870.46,64.845 C2478.55,68.174 1127.36,81.912 697,116 C611.596,122.765 588.583,119.202 506,142 C484.813,147.849 461.901,157.978 445.696,165.839 " fill="none" id="Role-EmployingPartyRole" style="stroke: #A80036; stroke-width: 1.0;"/><polygon fill="none" points="2870.51,57.844,2890.56,64.676,2870.62,71.844,2870.51,57.844" style="stroke: #A80036; stroke-width: 1.0;"/><!--link Role to DocumentPartyRole--><path d="M2870.72,64.968 C2496.66,68.602 1251.27,82.948 853,116 C771.131,122.794 749.124,119.908 670,142 C648.83,147.911 625.916,158.033 609.706,165.876 " fill="none" id="Role-DocumentPartyRole" style="stroke: #A80036; stroke-width: 1.0;"/><polygon fill="none" points="2870.66,57.968,2890.73,64.776,2870.79,71.968,2870.66,57.968" style="stroke: #A80036; stroke-width: 1.0;"/><!--link Role to MandatePartyRole--><path d="M2870.18,63.338 C2576.11,62.302 1735.51,64.464 1039,116 C943.451,123.07 917.243,116.097 825,142 C804.784,147.677 783.127,157.933 767.946,165.88 " fill="none" id="Role-MandatePartyRole" style="stroke: #A80036; stroke-width: 1.0;"/><polygon fill="none" points="2870.43,56.339,2890.4,63.418,2870.38,70.339,2870.43,56.339" style="stroke: #A80036; stroke-width: 1.0;"/><!--link Role to CardPaymentPartyRole--><path d="M2870.27,64.023 C2596.55,64.773 1852.28,71.142 1234,116 C1133.6,123.284 1106.8,118.141 1009,142 C985.259,147.792 959.335,158.034 941.074,165.948 " fill="none" id="Role-CardPaymentPartyRole" style="stroke: #A80036; stroke-width: 1.0;"/><polygon fill="none" points="2870.29,57.023,2890.31,63.976,2870.32,71.023,2870.29,57.023" style="stroke: #A80036; stroke-width: 1.0;"/><!--link Role to InvestmentFundPartyRole--><path d="M2870.61,65.598 C2559.02,70.53 1658.31,86.959 1365,116 C1295.05,122.925 1277.09,124.548 1209,142 C1184.06,148.394 1156.49,158.262 1136.62,165.892 " fill="none" id="Role-InvestmentFundPartyRole" style="stroke: #A80036; stroke-width: 1.0;"/><polygon fill="none" points="2870.6,58.597,2890.7,65.283,2870.82,72.595,2870.6,58.597" style="stroke: #A80036; stroke-width: 1.0;"/><!--link Role to TradePartyRole--><path d="M2870.31,63.443 C2627.4,63.143 2018.55,67.757 1512,116 C1437.22,123.122 1416.42,118.735 1345,142 C1326.95,147.881 1307.84,158.112 1294.5,165.999 " fill="none" id="Role-TradePartyRole" style="stroke: #A80036; stroke-width: 1.0;"/><polygon fill="none" points="2870.61,56.443,2890.6,63.481,2870.59,70.443,2870.61,56.443" style="stroke: #A80036; stroke-width: 1.0;"/><!--link Role to SystemPartyRole--><path d="M2870.57,64.34 C2646.26,65.912 2111.96,74.157 1666,116 C1587.71,123.345 1566.18,118.967 1491,142 C1471.92,147.846 1451.54,157.976 1437.18,165.838 " fill="none" id="Role-SystemPartyRole" style="stroke: #A80036; stroke-width: 1.0;"/><polygon fill="none" points="2870.61,57.34,2890.66,64.212,2870.7,71.34,2870.61,57.34" style="stroke: #A80036; stroke-width: 1.0;"/><!--link Role to PaymentPartyRole--><path d="M2870.39,64.364 C2662.8,66.036 2192.86,74.536 1800,116 C1730.53,123.332 1711.81,121.597 1645,142 C1625.06,148.091 1603.55,158.193 1588.34,165.983 " fill="none" id="Role-PaymentPartyRole" style="stroke: #A80036; stroke-width: 1.0;"/><polygon fill="none" points="2870.49,57.363,2890.54,64.217,2870.59,71.363,2870.49,57.363" style="stroke: #A80036; stroke-width: 1.0;"/><!--link Role to AssetPartyRole--><path d="M2870.42,66.79 C2686.86,72.176 2301.5,86.205 1977,116 C1889.06,124.075 1864.2,115.369 1780,142 C1762.11,147.659 1743.3,157.917 1730.18,165.87 " fill="none" id="Role-AssetPartyRole" style="stroke: #A80036; stroke-width: 1.0;"/><polygon fill="none" points="2870.27,59.791,2890.47,66.213,2870.68,73.785,2870.27,59.791" style="stroke: #A80036; stroke-width: 1.0;"/><!--link Role to SettlementPartyRole--><path d="M2870.37,68.187 C2710.83,74.959 2402.3,90.225 2141,116 C2055.3,124.453 2032.11,119.472 1949,142 C1927.35,147.869 1903.87,157.996 1887.26,165.851 " fill="none" id="Role-SettlementPartyRole" style="stroke: #A80036; stroke-width: 1.0;"/><polygon fill="none" points="2870.2,61.188,2890.47,67.345,2870.78,75.176,2870.2,61.188" style="stroke: #A80036; stroke-width: 1.0;"/><!--link Role to ContactPersonRole--><path d="M2870.41,69.264 C2670.89,79.755 2250.99,105.445 2110,142 C2088.87,147.479 2066.2,157.868 2050.4,165.91 " fill="none" id="Role-ContactPersonRole" style="stroke: #A80036; stroke-width: 1.0;"/><polygon fill="none" points="2870.12,62.27,2890.46,68.223,2870.85,76.251,2870.12,62.27" style="stroke: #A80036; stroke-width: 1.0;"/><!--link Role to ContactPersonRole--><path d="M2890.49,72.293 C2747.96,85.73 2456.79,112.882 2210,134 C2165.58,137.801 2153.24,131.137 2110,142 C2090.68,146.854 2070.11,155.946 2054.67,163.647 " fill="none" id="Role-ContactPersonRole" style="stroke: #A80036; stroke-width: 1.0;"/><polygon fill="#A80036" points="2050.05,165.987,2059.8851,165.467,2054.5055,163.7179,2056.2545,158.3382,2050.05,165.987" style="stroke: #A80036; stroke-width: 1.0;"/><text fill="#000000" font-family="sans-serif" font-size="13" lengthAdjust="spacingAndGlyphs" textLength="121" x="2401" y="129.0669">ContactPersonRole</text><text fill="#000000" font-family="sans-serif" font-size="13" lengthAdjust="spacingAndGlyphs" textLength="8" x="2046.2234" y="155.0307">1</text><!--link Role to SecuritiesOrderPartyRole--><path d="M2870.49,85.976 C2785.95,102.272 2664.98,123.421 2558,134 C2502.69,139.47 2362.63,131.726 2308,142 C2281.84,146.92 2253.32,157.612 2233.64,165.892 " fill="none" id="Role-SecuritiesOrderPartyRole" style="stroke: #A80036; stroke-width: 1.0;"/><polygon fill="none" points="2869.4,79.058,2890.37,82.105,2872.07,92.8,2869.4,79.058" style="stroke: #A80036; stroke-width: 1.0;"/><!--link Role to SecurityCertificatePartyRole--><path d="M2888.43,91.351 C2829.66,108.837 2758.12,129.122 2727,134 C2636.92,148.121 2611.75,125.894 2522,142 C2493.91,147.04 2463.06,157.716 2441.73,165.959 " fill="none" id="Role-SecurityCertificatePartyRole" style="stroke: #A80036; stroke-width: 1.0;"/><polygon fill="none" points="2886.63,84.584,2907.79,85.555,2890.64,97.996,2886.63,84.584" style="stroke: #A80036; stroke-width: 1.0;"/><!--link Role to InvoicePartyRole--><path d="M2909.66,93.665 C2866.21,112.472 2817.63,133.387 2815,134 C2749.99,149.185 2729.59,125.118 2665,142 C2645.59,147.074 2625.22,157.744 2611.31,165.977 " fill="none" id="Role-InvoicePartyRole" style="stroke: #A80036; stroke-width: 1.0;"/><polygon fill="none" points="2906.99,87.191,2928.13,85.663,2912.56,100.037,2906.99,87.191" style="stroke: #A80036; stroke-width: 1.0;"/><!--link Role to TaxPartyRole--><path d="M2933.7,97.01 C2912.97,110.763 2887.3,125.486 2862,134 C2830.23,144.692 2818.89,131.659 2787,142 C2770.28,147.424 2753.07,157.82 2741.21,165.878 " fill="none" id="Role-TaxPartyRole" style="stroke: #A80036; stroke-width: 1.0;"/><polygon fill="none" points="2929.75,91.23,2950.18,85.599,2937.72,102.74,2929.75,91.23" style="stroke: #A80036; stroke-width: 1.0;"/><!--link Role to InvestigationPartyRole--><path d="M2945.32,100.561 C2925.06,123.228 2900.41,150.807 2886.95,165.865 " fill="none" id="Role-InvestigationPartyRole" style="stroke: #A80036; stroke-width: 1.0;"/><polygon fill="none" points="2940.22,95.767,2958.76,85.52,2950.66,105.097,2940.22,95.767" style="stroke: #A80036; stroke-width: 1.0;"/><!--link Role to ChargePartyRole--><path d="M2999.51,103.21 C3011.66,125.341 3025.95,151.389 3033.89,165.865 " fill="none" id="Role-ChargePartyRole" style="stroke: #A80036; stroke-width: 1.0;"/><polygon fill="none" points="2993.29,106.422,2989.81,85.52,3005.57,99.687,2993.29,106.422" style="stroke: #A80036; stroke-width: 1.0;"/><!--link Role to RegulatoryAuthorityRole--><path d="M3039.99,94.456 C3088.03,118.06 3151.87,149.425 3185.34,165.865 " fill="none" id="Role-RegulatoryAuthorityRole" style="stroke: #A80036; stroke-width: 1.0;"/><polygon fill="none" points="3036.67,100.622,3021.8,85.52,3042.84,88.057,3036.67,100.622" style="stroke: #A80036; stroke-width: 1.0;"/><!--link Role to UndertakingPartyRole--><path d="M3085.08,85.766 C3148.95,99.719 3231.3,119.42 3303,142 C3324.85,148.883 3349.01,158.516 3366.63,165.934 " fill="none" id="Role-UndertakingPartyRole" style="stroke: #A80036; stroke-width: 1.0;"/><polygon fill="none" points="3083.53,92.593,3065.46,81.532,3086.49,78.908,3083.53,92.593" style="stroke: #A80036; stroke-width: 1.0;"/><!--link Role to CorporateActionPartyRole--><path d="M3085.57,75.147 C3187.96,87.063 3345.89,108.847 3480,142 C3505.63,148.335 3533.97,158.309 3554.26,165.992 " fill="none" id="Role-CorporateActionPartyRole" style="stroke: #A80036; stroke-width: 1.0;"/><polygon fill="none" points="3084.61,82.084,3065.54,72.86,3086.2,68.174,3084.61,82.084" style="stroke: #A80036; stroke-width: 1.0;"/><!--link Role to TransportPartyRole--><path d="M3085.57,66.179 C3225.21,71.207 3475.47,87.748 3682,142 C3703.41,147.624 3726.49,157.886 3742.69,165.849 " fill="none" id="Role-TransportPartyRole" style="stroke: #A80036; stroke-width: 1.0;"/><polygon fill="none" points="3085.13,73.169,3065.37,65.505,3085.59,59.176,3085.13,73.169" style="stroke: #A80036; stroke-width: 1.0;"/><!--link Role to InsurancePartyRole--><path d="M3085.39,71.657 C3212.44,80.966 3430.29,97.715 3617,116 C3718.07,125.897 3745.83,116.019 3844,142 C3865.4,147.663 3888.48,157.92 3904.68,165.872 " fill="none" id="Role-InsurancePartyRole" style="stroke: #A80036; stroke-width: 1.0;"/><polygon fill="none" points="3084.86,78.637,3065.42,70.2,3085.88,64.674,3084.86,78.637" style="stroke: #A80036; stroke-width: 1.0;"/><!--link Role to CollateralPartyRole--><path d="M3085.26,70.794 C3229.74,80.108 3494.88,97.775 3721,116 C3847.78,126.218 3882.74,110.603 4006,142 C4027.38,147.445 4050.33,157.839 4066.33,165.891 " fill="none" id="Role-CollateralPartyRole" style="stroke: #A80036; stroke-width: 1.0;"/><polygon fill="none" points="3084.77,77.777,3065.26,69.508,3085.67,63.806,3084.77,77.777" style="stroke: #A80036; stroke-width: 1.0;"/><!--link Role to ReportingPartyRole--><path d="M3085.37,69.5 C3250.9,78.173 3578.34,96.1 3856,116 C3993.47,125.853 4031.25,108.747 4165,142 C4186.63,147.378 4209.87,157.78 4226.07,165.852 " fill="none" id="Role-ReportingPartyRole" style="stroke: #A80036; stroke-width: 1.0;"/><polygon fill="none" points="3084.89,76.484,3065.28,68.451,3085.62,62.503,3084.89,76.484" style="stroke: #A80036; stroke-width: 1.0;"/><!--link Role to ChequePartyRole--><path d="M3085.35,68.438 C3271.74,76.372 3667.25,94.213 4001,116 C4146.04,125.468 4186.47,104.9 4327,142 C4347.14,147.318 4368.53,157.84 4383.29,165.965 " fill="none" id="Role-ChequePartyRole" style="stroke: #A80036; stroke-width: 1.0;"/><polygon fill="none" points="3084.97,75.429,3065.29,67.588,3085.57,61.441,3084.97,75.429" style="stroke: #A80036; stroke-width: 1.0;"/><!--link Role to CommissionPartyRole--><path d="M3085.56,67.437 C3292.55,74.344 3760.64,91.381 4154,116 C4296.85,124.941 4335.63,109.413 4475,142 C4498.05,147.39 4523.02,157.791 4540.45,165.859 " fill="none" id="Role-CommissionPartyRole" style="stroke: #A80036; stroke-width: 1.0;"/><polygon fill="none" points="3085.23,74.43,3065.47,66.771,3085.69,60.438,3085.23,74.43" style="stroke: #A80036; stroke-width: 1.0;"/><!--link Role to GoodsPartyRole--><path d="M3085.63,66.894 C3311.63,73.262 3852.16,90.023 4305,116 C4458.07,124.781 4501.1,101.589 4649,142 C4668.22,147.252 4688.45,157.783 4702.37,165.928 " fill="none" id="Role-GoodsPartyRole" style="stroke: #A80036; stroke-width: 1.0;"/><polygon fill="none" points="3085.19,73.884,3065.39,66.328,3085.58,59.89,3085.19,73.884" style="stroke: #A80036; stroke-width: 1.0;"/><!--link Role to TradeCertificatePartyRole--><path d="M3085.68,66.036 C3331.3,71.057 3951.81,85.869 4470,116 C4612.01,124.257 4649.8,112.701 4789,142 C4815.15,147.504 4843.84,157.89 4863.94,165.925 " fill="none" id="Role-TradeCertificatePartyRole" style="stroke: #A80036; stroke-width: 1.0;"/><polygon fill="none" points="3085.37,73.032,3065.51,65.629,3085.65,59.035,3085.37,73.032" style="stroke: #A80036; stroke-width: 1.0;"/><!--link Role to MarketInfrastructure--><path d="M3085.84,66.012 C3348,71.21 4039.51,86.768 4616,116 C4781.97,124.416 4827.12,104.43 4989,142 C5011.77,147.284 5036.33,157.811 5053.36,165.946 " fill="none" id="Role-MarketInfrastructure" style="stroke: #A80036; stroke-width: 1.0;"/><polygon fill="none" points="3085.36,73.004,3065.5,65.612,3085.63,59.006,3085.36,73.004" style="stroke: #A80036; stroke-width: 1.0;"/><!--link Role to GuaranteePartyRole--><path d="M3085.82,65.537 C3366.53,69.877 4143.08,84.046 4789,116 C4953.65,124.145 4998.51,104.357 5159,142 C5181.53,147.284 5205.81,157.811 5222.62,165.946 " fill="none" id="Role-GuaranteePartyRole" style="stroke: #A80036; stroke-width: 1.0;"/><polygon fill="none" points="3085.58,72.534,3065.69,65.23,3085.79,58.536,3085.58,72.534" style="stroke: #A80036; stroke-width: 1.0;"/><!--link Role to PaymentObligationPartyRole--><path d="M3085.58,65.131 C3383.69,68.632 4245.55,81.225 4961,116 C5123.88,123.917 5166.88,111.072 5327,142 C5355.1,147.428 5386.08,157.824 5407.8,165.881 " fill="none" id="Role-PaymentObligationPartyRole" style="stroke: #A80036; stroke-width: 1.0;"/><polygon fill="none" points="3085.44,72.13,3065.52,64.9,3085.6,58.131,3085.44,72.13" style="stroke: #A80036; stroke-width: 1.0;"/><!--link Role to RegulatoryReportingRole--><path d="M3085.71,65.127 C3400.58,68.739 4346.68,81.853 5131,116 C5314.74,124 5363.8,105.218 5544,142 C5569.9,147.286 5598.22,157.813 5617.91,165.947 " fill="none" id="Role-RegulatoryReportingRole" style="stroke: #A80036; stroke-width: 1.0;"/><polygon fill="none" points="3085.38,72.124,3065.46,64.898,3085.54,58.125,3085.38,72.124" style="stroke: #A80036; stroke-width: 1.0;"/><!--link CounterpartyRisk to RolePlayer--><!--link Entry to CounterpartyRisk--><!--link Role to RolePlayer--><path d="M3065.38,63.858 C3481.32,63.451 5263.39,64.782 5817,116 C5886.55,122.435 5926.88,88.678 5972,142 C6030.99,211.709 5917.01,315.1616 5870.5,352.7208 " fill="none" id="Role-RolePlayer" style="stroke: #A80036; stroke-width: 1.0;"/><polygon fill="#A80036" points="5866.48,355.9387,5876.0043,353.4313,5870.3815,352.8117,5871.0011,347.1889,5866.48,355.9387" style="stroke: #A80036; stroke-width: 1.0;"/><text fill="#000000" font-family="sans-serif" font-size="13" lengthAdjust="spacingAndGlyphs" textLength="39" x="5981" y="235.0669">Player</text><text fill="#000000" font-family="sans-serif" font-size="13" lengthAdjust="spacingAndGlyphs" textLength="7" x="5861.8247" y="344.9658">*</text><!--link Role to CounterpartyRisk--><path d="M3065.31,64.122 C3506.91,64.944 5483.93,71.122 5754,116 C5791.3,122.198 5812.5,111.612 5835,142 C5862.17,178.704 5850.27,237.09 5842.21,265.053 " fill="none" id="Role-CounterpartyRisk" style="stroke: #A80036; stroke-width: 1.0;"/><polygon fill="#A80036" points="5840.76,269.908,5847.1652,262.4264,5842.1889,265.1165,5839.4988,260.1402,5840.76,269.908" style="stroke: #A80036; stroke-width: 1.0;"/><text fill="#000000" font-family="sans-serif" font-size="13" lengthAdjust="spacingAndGlyphs" textLength="109" x="5853" y="182.0669">CounterpartyRisk</text><text fill="#000000" font-family="sans-serif" font-size="13" lengthAdjust="spacingAndGlyphs" textLength="24" x="5812.4978" y="258.9246">0..1</text><!--link Role to Entry--><path d="M3065.31,64.68 C3373.83,67.349 4441.53,78.866 5322,116 C5507.97,123.843 5562.11,87.212 5740,142 C5754.47,146.456 5769.12,155.118 5780.2,162.709 " fill="none" id="Role-Entry" style="stroke: #A80036; stroke-width: 1.0;"/><polygon fill="#A80036" points="5784.41,165.663,5779.3171,157.2331,5780.3092,162.8023,5774.74,163.7944,5784.41,165.663" style="stroke: #A80036; stroke-width: 1.0;"/><text fill="#000000" font-family="sans-serif" font-size="13" lengthAdjust="spacingAndGlyphs" textLength="33" x="5711" y="129.0669">Entry</text><text fill="#000000" font-family="sans-serif" font-size="13" lengthAdjust="spacingAndGlyphs" textLength="8" x="5768.9208" y="154.8548">1</text></g></svg>