<?xml version="1.0" encoding="UTF-8" standalone="no"?><svg xmlns="http://www.w3.org/2000/svg" xmlns:xlink="http://www.w3.org/1999/xlink" contentScriptType="application/ecmascript" contentStyleType="text/css" height="310px" preserveAspectRatio="none" style="width:486px;height:310px;" version="1.1" viewBox="0 0 486 310" width="486px" zoomAndPan="magnify"><defs><filter height="300%" id="f1r9m1oztuygjj" width="300%" x="-1" y="-1"><feGaussianBlur result="blurOut" stdDeviation="2.0"/><feColorMatrix in="blurOut" result="blurOut2" type="matrix" values="0 0 0 0 0 0 0 0 0 0 0 0 0 0 0 0 0 0 .4 0"/><feOffset dx="4.0" dy="4.0" in="blurOut2" result="blurOut3"/><feBlend in="SourceGraphic" in2="blurOut3" mode="normal"/></filter></defs><g><!--cluster ##14944--><!--cluster ##14950--><!--cluster ##14953--><!--class ObligationFulfilment--><a target="_top" xlink:actuate="onRequest" xlink:href="../ObligationFulfilment.html" xlink:show="new" xlink:title="Processes by which an obligation is extinguished fully or partially." xlink:type="simple"><rect fill="#FEFEEE" filter="url(#f1r9m1oztuygjj)" height="44.7734" id="ObligationFulfilment" style="stroke: #A80036; stroke-width: 1.5;" width="129" x="72.75" y="40.5"/><rect fill="#FEFEEE" height="23.9688" style="stroke: #A80036; stroke-width: 1.5;" width="129" x="72.75" y="40.5"/><text fill="#000000" font-family="sans-serif" font-size="12" lengthAdjust="spacingAndGlyphs" textLength="123" x="75.75" y="56.6387">ObligationFulfilment</text><line style="stroke: #A80036; stroke-width: 1.5;" x1="73.75" x2="200.75" y1="64.4688" y2="64.4688"/><ellipse cx="83.75" cy="76.3711" fill="#84BE84" rx="3" ry="3" style="stroke: #038048; stroke-width: 1.0;"/><text fill="#000000" font-family="sans-serif" font-size="11" lengthAdjust="spacingAndGlyphs" textLength="26" x="92.75" y="78.6792">Date</text><text fill="#000000" font-family="sans-serif" font-size="11" font-style="italic" lengthAdjust="spacingAndGlyphs" textLength="53" x="122.75" y="78.6792">(ISODate)</text></a><!--class Rollover--><a target="_top" xlink:actuate="onRequest" xlink:href="../Rollover.html" xlink:show="new" xlink:title="Process whereby a financial instrument is reinvested at maturity." xlink:type="simple"><rect fill="#FEFECE" filter="url(#f1r9m1oztuygjj)" height="23.9688" id="Rollover" style="stroke: #A80036; stroke-width: 1.5;" width="55" x="79.75" y="168"/><rect fill="#FEFECE" height="23.9688" style="stroke: #A80036; stroke-width: 1.5;" width="55" x="79.75" y="168"/><text fill="#000000" font-family="sans-serif" font-size="12" lengthAdjust="spacingAndGlyphs" textLength="49" x="82.75" y="184.1387">Rollover</text></a><!--class Obligation--><a target="_top" xlink:actuate="onRequest" xlink:href="../Obligation.html" xlink:show="new" xlink:title="Specifies the assets (quantity of securities, goods, services, and cash amounts) that have to be delivered." xlink:type="simple"><rect fill="#EEEEEE" filter="url(#f1r9m1oztuygjj)" height="23.9688" id="Obligation" style="stroke: #A80036; stroke-width: 1.5;" width="69" x="258.75" y="168"/><rect fill="#EEEEEE" height="23.9688" style="stroke: #A80036; stroke-width: 1.5;" width="69" x="258.75" y="168"/><text fill="#000000" font-family="sans-serif" font-size="12" lengthAdjust="spacingAndGlyphs" textLength="63" x="261.75" y="184.1387">Obligation</text></a><!--class SecuritiesSettlement--><a target="_top" xlink:actuate="onRequest" xlink:href="../SecuritiesSettlement.html" xlink:show="new" xlink:title="Settlement of the securities in a securities transaction, that is, the instruction to deliver or receive securities, involving the payment of an amount of money or not." xlink:type="simple"><rect fill="#EEEEEE" filter="url(#f1r9m1oztuygjj)" height="23.9688" id="SecuritiesSettlement" style="stroke: #A80036; stroke-width: 1.5;" width="137" x="38.75" y="276"/><rect fill="#EEEEEE" height="23.9688" style="stroke: #A80036; stroke-width: 1.5;" width="137" x="38.75" y="276"/><text fill="#000000" font-family="sans-serif" font-size="12" lengthAdjust="spacingAndGlyphs" textLength="131" x="41.75" y="292.1387">SecuritiesSettlement</text></a><!--link ObligationFulfilment to Rollover--><path d="M115.927,104.181 C114.406,108.104 113.057,112.083 112,116 C107.253,133.584 106.56,154.853 106.659,167.635 " fill="none" id="ObligationFulfilment-Rollover" style="stroke: #A80036; stroke-width: 1.0;"/><polygon fill="none" points="109.748,100.859,124.421,85.572,122.484,106.673,109.748,100.859" style="stroke: #A80036; stroke-width: 1.0;"/><!--link ObligationFulfilment to Obligation--><path d="M133.054,85.663 C131.559,101.264 132.603,121.66 145,134 C156.566,145.513 202.333,137.432 218,142 C236.409,147.368 255.785,157.045 270.231,165.156 " fill="none" id="ObligationFulfilment-Obligation" style="stroke: #A80036; stroke-width: 1.0;"/><polygon fill="#A80036" points="274.932,167.838,269.0962,159.9043,270.5889,165.3607,265.1325,166.8534,274.932,167.838" style="stroke: #A80036; stroke-width: 1.0;"/><text fill="#000000" font-family="sans-serif" font-size="13" lengthAdjust="spacingAndGlyphs" textLength="102" x="146" y="129.0669">ObligationOffset</text><text fill="#000000" font-family="sans-serif" font-size="13" lengthAdjust="spacingAndGlyphs" textLength="7" x="259.0883" y="156.8305">*</text><!--link ObligationFulfilment to Obligation--><path d="M201.466,84.518 C219.778,92.402 238.841,102.775 254,116 C268.849,128.954 279.892,148.964 286.367,162.946 " fill="none" id="ObligationFulfilment-Obligation" style="stroke: #A80036; stroke-width: 1.0;"/><polygon fill="#A80036" points="288.544,167.8,288.5083,157.9512,286.4968,163.2383,281.2096,161.2268,288.544,167.8" style="stroke: #A80036; stroke-width: 1.0;"/><text fill="#000000" font-family="sans-serif" font-size="13" lengthAdjust="spacingAndGlyphs" textLength="122" x="269" y="129.0669">ResultingObligation</text><text fill="#000000" font-family="sans-serif" font-size="13" lengthAdjust="spacingAndGlyphs" textLength="7" x="277.4945" y="157.0372">*</text><!--link Rollover to SecuritiesSettlement--><path d="M107,192.344 C107,211.152 107,248.867 107,270.5827 " fill="none" id="Rollover-SecuritiesSettlement" style="stroke: #A80036; stroke-width: 1.0;"/><polygon fill="#A80036" points="107,275.7377,111,266.7377,107,270.7377,103,266.7377,107,275.7377" style="stroke: #A80036; stroke-width: 1.0;"/><text fill="#000000" font-family="sans-serif" font-size="13" lengthAdjust="spacingAndGlyphs" textLength="135" x="108" y="239.0669">SecuritiesSettlement</text><text fill="#000000" font-family="sans-serif" font-size="13" lengthAdjust="spacingAndGlyphs" textLength="7" x="97.4266" y="264.9543">*</text><!--link Obligation to Obligation--><path d="M327.437,170.261 C345.569,168.685 362,171.932 362,180 C362,187.312 348.505,190.664 332.48,190.055 " fill="none" id="Obligation-Obligation" style="stroke: #A80036; stroke-width: 1.0;"/><polygon fill="#A80036" points="327.437,189.739,336.1691,194.2943,332.4272,190.0519,336.6697,186.31,327.437,189.739" style="stroke: #A80036; stroke-width: 1.0;"/><text fill="#000000" font-family="sans-serif" font-size="13" lengthAdjust="spacingAndGlyphs" textLength="106" x="368" y="184.0669">ParentObligation</text><text fill="#000000" font-family="sans-serif" font-size="13" lengthAdjust="spacingAndGlyphs" textLength="8" x="335.7904" y="186.0949">1</text></g></svg>