<?xml version="1.0" encoding="UTF-8" standalone="no"?><svg xmlns="http://www.w3.org/2000/svg" xmlns:xlink="http://www.w3.org/1999/xlink" contentScriptType="application/ecmascript" contentStyleType="text/css" height="906px" preserveAspectRatio="none" style="width:1393px;height:906px;" version="1.1" viewBox="0 0 1393 906" width="1393px" zoomAndPan="magnify"><defs><filter height="300%" id="f1srpi3vt5iaix" width="300%" x="-1" y="-1"><feGaussianBlur result="blurOut" stdDeviation="2.0"/><feColorMatrix in="blurOut" result="blurOut2" type="matrix" values="0 0 0 0 0 0 0 0 0 0 0 0 0 0 0 0 0 0 .4 0"/><feOffset dx="4.0" dy="4.0" in="blurOut2" result="blurOut3"/><feBlend in="SourceGraphic" in2="blurOut3" mode="normal"/></filter></defs><g><!--cluster ##4306--><!--cluster ##4318--><!--cluster ##4327--><!--cluster ##4330--><!--cluster ##4337--><!--class Role--><a target="_top" xlink:actuate="onRequest" xlink:href="../Role.html" xlink:show="new" xlink:title="Role of a party in an activity." xlink:type="simple"><rect fill="#FEFEEE" filter="url(#f1srpi3vt5iaix)" height="44.7734" id="Role" style="stroke: #A80036; stroke-width: 1.5;" width="175" x="522.75" y="40.5"/><rect fill="#FEFEEE" height="23.9688" style="stroke: #A80036; stroke-width: 1.5;" width="175" x="522.75" y="40.5"/><text fill="#000000" font-family="sans-serif" font-size="12" lengthAdjust="spacingAndGlyphs" textLength="27" x="596.75" y="56.6387">Role</text><line style="stroke: #A80036; stroke-width: 1.5;" x1="523.75" x2="696.75" y1="64.4688" y2="64.4688"/><ellipse cx="533.75" cy="76.3711" fill="#84BE84" rx="3" ry="3" style="stroke: #038048; stroke-width: 1.0;"/><text fill="#000000" font-family="sans-serif" font-size="11" lengthAdjust="spacingAndGlyphs" textLength="53" x="542.75" y="78.6792">PartyRole</text><text fill="#000000" font-family="sans-serif" font-size="11" font-style="italic" lengthAdjust="spacingAndGlyphs" textLength="92" x="599.75" y="78.6792">(PartyRoleCode)</text></a><!--class AssetPartyRole--><a target="_top" xlink:actuate="onRequest" xlink:href="../AssetPartyRole.html" xlink:show="new" xlink:title="Specifies roles played by a party that are linked to the handling of assets but not related to a specific process." xlink:type="simple"><rect fill="#FEFEEE" filter="url(#f1srpi3vt5iaix)" height="23.9688" id="AssetPartyRole" style="stroke: #A80036; stroke-width: 1.5;" width="100" x="560" y="166"/><rect fill="#FEFEEE" height="23.9688" style="stroke: #A80036; stroke-width: 1.5;" width="100" x="560" y="166"/><text fill="#000000" font-family="sans-serif" font-size="12" lengthAdjust="spacingAndGlyphs" textLength="94" x="563" y="182.1387">AssetPartyRole</text></a><!--class SecuritiesPartyRole--><a target="_top" xlink:actuate="onRequest" xlink:href="../SecuritiesPartyRole.html" xlink:show="new" xlink:title="Specifies roles played by a party that are linked to the handling of securities but not related to a specific process." xlink:type="simple"><rect fill="#FEFEEE" filter="url(#f1srpi3vt5iaix)" height="23.9688" id="SecuritiesPartyRole" style="stroke: #A80036; stroke-width: 1.5;" width="127" x="487.75" y="270"/><rect fill="#FEFEEE" height="23.9688" style="stroke: #A80036; stroke-width: 1.5;" width="127" x="487.75" y="270"/><text fill="#000000" font-family="sans-serif" font-size="12" lengthAdjust="spacingAndGlyphs" textLength="121" x="490.75" y="286.1387">SecuritiesPartyRole</text></a><!--class SafekeepingPlace--><a target="_top" xlink:actuate="onRequest" xlink:href="../SafekeepingPlace.html" xlink:show="new" xlink:title="Organisation used as the safekeeping place for the securities." xlink:type="simple"><rect fill="#FEFECE" filter="url(#f1srpi3vt5iaix)" height="44.7734" id="SafekeepingPlace" style="stroke: #A80036; stroke-width: 1.5;" width="293" x="404.75" y="358.5"/><rect fill="#FEFECE" height="23.9688" style="stroke: #A80036; stroke-width: 1.5;" width="293" x="404.75" y="358.5"/><text fill="#000000" font-family="sans-serif" font-size="12" lengthAdjust="spacingAndGlyphs" textLength="112" x="495.25" y="374.6387">SafekeepingPlace</text><line style="stroke: #A80036; stroke-width: 1.5;" x1="405.75" x2="696.75" y1="382.4688" y2="382.4688"/><ellipse cx="415.75" cy="394.3711" fill="#84BE84" rx="3" ry="3" style="stroke: #038048; stroke-width: 1.0;"/><text fill="#000000" font-family="sans-serif" font-size="11" lengthAdjust="spacingAndGlyphs" textLength="127" x="424.75" y="396.6792">SafekeepingPlaceType</text><text fill="#000000" font-family="sans-serif" font-size="11" font-style="italic" lengthAdjust="spacingAndGlyphs" textLength="136" x="555.75" y="396.6792">(SafekeepingPlaceCode)</text></a><!--class RolePlayer--><a target="_top" xlink:actuate="onRequest" xlink:href="../RolePlayer.html" xlink:show="new" xlink:title="Type of entity that plays a specific role in a specific context." xlink:type="simple"><rect fill="#EEEEEE" filter="url(#f1srpi3vt5iaix)" height="23.9688" id="RolePlayer" style="stroke: #A80036; stroke-width: 1.5;" width="71" x="968.75" y="486"/><rect fill="#EEEEEE" height="23.9688" style="stroke: #A80036; stroke-width: 1.5;" width="71" x="968.75" y="486"/><text fill="#000000" font-family="sans-serif" font-size="12" lengthAdjust="spacingAndGlyphs" textLength="65" x="971.75" y="502.1387">RolePlayer</text></a><!--class ContactPersonRole--><a target="_top" xlink:actuate="onRequest" xlink:href="../ContactPersonRole.html" xlink:show="new" xlink:title="Person to be contacted in a given organisation. In the corporate action domain (including meeting notifications) , it is the contact person at the party organising the meeting, at the issuer or at an intermediary." xlink:type="simple"><rect fill="#EEEEEE" filter="url(#f1srpi3vt5iaix)" height="23.9688" id="ContactPersonRole" style="stroke: #A80036; stroke-width: 1.5;" width="126" x="921" y="369"/><rect fill="#EEEEEE" height="23.9688" style="stroke: #A80036; stroke-width: 1.5;" width="126" x="921" y="369"/><text fill="#000000" font-family="sans-serif" font-size="12" lengthAdjust="spacingAndGlyphs" textLength="120" x="924" y="385.1387">ContactPersonRole</text></a><!--class CounterpartyRisk--><a target="_top" xlink:actuate="onRequest" xlink:href="../CounterpartyRisk.html" xlink:show="new" xlink:title="Calculation of the exposure amount that one party has vis-a-vis one counterparty or a central system, based on its credit risk." xlink:type="simple"><rect fill="#EEEEEE" filter="url(#f1srpi3vt5iaix)" height="23.9688" id="CounterpartyRisk" style="stroke: #A80036; stroke-width: 1.5;" width="113" x="927.75" y="270"/><rect fill="#EEEEEE" height="23.9688" style="stroke: #A80036; stroke-width: 1.5;" width="113" x="927.75" y="270"/><text fill="#000000" font-family="sans-serif" font-size="12" lengthAdjust="spacingAndGlyphs" textLength="107" x="930.75" y="286.1387">CounterpartyRisk</text></a><!--class Entry--><a target="_top" xlink:actuate="onRequest" xlink:href="../Entry.html" xlink:show="new" xlink:title="Posting to an account that results in an increase or decrease to a balance." xlink:type="simple"><rect fill="#EEEEEE" filter="url(#f1srpi3vt5iaix)" height="23.9688" id="Entry" style="stroke: #A80036; stroke-width: 1.5;" width="38" x="921" y="166"/><rect fill="#EEEEEE" height="23.9688" style="stroke: #A80036; stroke-width: 1.5;" width="38" x="921" y="166"/><text fill="#000000" font-family="sans-serif" font-size="12" lengthAdjust="spacingAndGlyphs" textLength="32" x="924" y="182.1387">Entry</text></a><!--class Asset--><a target="_top" xlink:actuate="onRequest" xlink:href="../Asset.html" xlink:show="new" xlink:title="Tangible items of value to a business." xlink:type="simple"><rect fill="#EEEEEE" filter="url(#f1srpi3vt5iaix)" height="23.9688" id="Asset" style="stroke: #A80036; stroke-width: 1.5;" width="41" x="754.75" y="270"/><rect fill="#EEEEEE" height="23.9688" style="stroke: #A80036; stroke-width: 1.5;" width="41" x="754.75" y="270"/><text fill="#000000" font-family="sans-serif" font-size="12" lengthAdjust="spacingAndGlyphs" textLength="35" x="757.75" y="286.1387">Asset</text></a><!--class SecuritiesAccount--><a target="_top" xlink:actuate="onRequest" xlink:href="../SecuritiesAccount.html" xlink:show="new" xlink:title="Account to or from which a securities entry is made." xlink:type="simple"><rect fill="#EEEEEE" filter="url(#f1srpi3vt5iaix)" height="23.9688" id="SecuritiesAccount" style="stroke: #A80036; stroke-width: 1.5;" width="119" x="387.75" y="486"/><rect fill="#EEEEEE" height="23.9688" style="stroke: #A80036; stroke-width: 1.5;" width="119" x="387.75" y="486"/><text fill="#000000" font-family="sans-serif" font-size="12" lengthAdjust="spacingAndGlyphs" textLength="113" x="390.75" y="502.1387">SecuritiesAccount</text></a><!--class CashAccount--><a target="_top" xlink:actuate="onRequest" xlink:href="../CashAccount.html" xlink:show="new" xlink:title="Account to or from which a cash entry is made." xlink:type="simple"><rect fill="#EEEEEE" filter="url(#f1srpi3vt5iaix)" height="23.9688" id="CashAccount" style="stroke: #A80036; stroke-width: 1.5;" width="88" x="387.5" y="694"/><rect fill="#EEEEEE" height="23.9688" style="stroke: #A80036; stroke-width: 1.5;" width="88" x="387.5" y="694"/><text fill="#000000" font-family="sans-serif" font-size="12" lengthAdjust="spacingAndGlyphs" textLength="82" x="390.5" y="710.1387">CashAccount</text></a><!--class Security--><a target="_top" xlink:actuate="onRequest" xlink:href="../Security.html" xlink:show="new" xlink:title="Financial instruments representing a sum of rights of the investor vis-a-vis the issuer." xlink:type="simple"><rect fill="#EEEEEE" filter="url(#f1srpi3vt5iaix)" height="23.9688" id="Security" style="stroke: #A80036; stroke-width: 1.5;" width="56" x="391.5" y="590"/><rect fill="#EEEEEE" height="23.9688" style="stroke: #A80036; stroke-width: 1.5;" width="56" x="391.5" y="590"/><text fill="#000000" font-family="sans-serif" font-size="12" lengthAdjust="spacingAndGlyphs" textLength="50" x="394.5" y="606.1387">Security</text></a><!--class Country--><a target="_top" xlink:actuate="onRequest" xlink:href="../Country.html" xlink:show="new" xlink:title="Nation with its own government." xlink:type="simple"><rect fill="#EEEEEE" filter="url(#f1srpi3vt5iaix)" height="23.9688" id="Country" style="stroke: #A80036; stroke-width: 1.5;" width="54" x="225" y="872"/><rect fill="#EEEEEE" height="23.9688" style="stroke: #A80036; stroke-width: 1.5;" width="54" x="225" y="872"/><text fill="#000000" font-family="sans-serif" font-size="12" lengthAdjust="spacingAndGlyphs" textLength="48" x="228" y="888.1387">Country</text></a><!--class SecuritiesBalance--><a target="_top" xlink:actuate="onRequest" xlink:href="../SecuritiesBalance.html" xlink:show="new" xlink:title="Net position of a segregated holding, in a single security, within the overall position held in a securities account. A securities balance is calculated from the sum of securities' receipts minus the sum of securities' deliveries." xlink:type="simple"><rect fill="#EEEEEE" filter="url(#f1srpi3vt5iaix)" height="23.9688" id="SecuritiesBalance" style="stroke: #A80036; stroke-width: 1.5;" width="118" x="38" y="784"/><rect fill="#EEEEEE" height="23.9688" style="stroke: #A80036; stroke-width: 1.5;" width="118" x="38" y="784"/><text fill="#000000" font-family="sans-serif" font-size="12" lengthAdjust="spacingAndGlyphs" textLength="112" x="41" y="800.1387">SecuritiesBalance</text></a><!--class SecuritiesSettlement--><a target="_top" xlink:actuate="onRequest" xlink:href="../SecuritiesSettlement.html" xlink:show="new" xlink:title="Settlement of the securities in a securities transaction, that is, the instruction to deliver or receive securities, involving the payment of an amount of money or not." xlink:type="simple"><rect fill="#EEEEEE" filter="url(#f1srpi3vt5iaix)" height="23.9688" id="SecuritiesSettlement" style="stroke: #A80036; stroke-width: 1.5;" width="137" x="119.75" y="694"/><rect fill="#EEEEEE" height="23.9688" style="stroke: #A80036; stroke-width: 1.5;" width="137" x="119.75" y="694"/><text fill="#000000" font-family="sans-serif" font-size="12" lengthAdjust="spacingAndGlyphs" textLength="131" x="122.75" y="710.1387">SecuritiesSettlement</text></a><!--link Role to AssetPartyRole--><path d="M610,105.559 C610,127.159 610,151.898 610,165.865 " fill="none" id="Role-AssetPartyRole" style="stroke: #A80036; stroke-width: 1.0;"/><polygon fill="none" points="603,105.52,610,85.52,617,105.52,603,105.52" style="stroke: #A80036; stroke-width: 1.0;"/><!--link AssetPartyRole to SecuritiesPartyRole--><path d="M593.412,207.678 C581.446,228.365 565.949,255.156 557.389,269.954 " fill="none" id="AssetPartyRole-SecuritiesPartyRole" style="stroke: #A80036; stroke-width: 1.0;"/><polygon fill="none" points="587.387,204.113,603.461,190.306,599.506,211.123,587.387,204.113" style="stroke: #A80036; stroke-width: 1.0;"/><!--link SecuritiesPartyRole to SafekeepingPlace--><path d="M551,314.262 C551,328.679 551,345.431 551,358.416 " fill="none" id="SecuritiesPartyRole-SafekeepingPlace" style="stroke: #A80036; stroke-width: 1.0;"/><polygon fill="none" points="544,314.127,551,294.127,558,314.127,544,314.127" style="stroke: #A80036; stroke-width: 1.0;"/><!--link ContactPersonRole to RolePlayer--><!--link CounterpartyRisk to ContactPersonRole--><!--link Entry to CounterpartyRisk--><!--link CashAccount to SecuritiesAccount--><!--link Security to CashAccount--><!--link SecuritiesBalance to Country--><!--link SecuritiesSettlement to SecuritiesBalance--><!--link Role to RolePlayer--><path d="M697.45,68.512 C891.48,79.693 1341,112.551 1341,177 C1341,177 1341,177 1341,382 C1341,443.976 1134.27,479.416 1044.64,491.868 " fill="none" id="Role-RolePlayer" style="stroke: #A80036; stroke-width: 1.0;"/><polygon fill="#A80036" points="1039.43,492.585,1048.8935,495.3129,1044.3828,491.8993,1047.7964,487.3885,1039.43,492.585" style="stroke: #A80036; stroke-width: 1.0;"/><text fill="#000000" font-family="sans-serif" font-size="13" lengthAdjust="spacingAndGlyphs" textLength="39" x="1342" y="286.0669">Player</text><text fill="#000000" font-family="sans-serif" font-size="13" lengthAdjust="spacingAndGlyphs" textLength="7" x="1047.8913" y="485.6259">*</text><!--link Role to ContactPersonRole--><path d="M697.42,64.155 C827.765,66.484 1063.31,79.488 1115,142 C1177.42,217.48 1052.37,327.111 1002.924,365.821 " fill="none" id="Role-ContactPersonRole" style="stroke: #A80036; stroke-width: 1.0;"/><polygon fill="#A80036" points="998.939,368.916,1008.5014,366.5578,1002.8889,365.8504,1003.5963,360.2379,998.939,368.916" style="stroke: #A80036; stroke-width: 1.0;"/><text fill="#000000" font-family="sans-serif" font-size="13" lengthAdjust="spacingAndGlyphs" textLength="121" x="1127" y="233.0669">ContactPersonRole</text><text fill="#000000" font-family="sans-serif" font-size="13" lengthAdjust="spacingAndGlyphs" textLength="8" x="993.3555" y="357.9353">1</text><!--link Role to CounterpartyRisk--><path d="M697.477,70.577 C794.069,79.828 940.642,100.429 976,142 C1005.634,176.841 995.831,236.118 988.7,264.672 " fill="none" id="Role-CounterpartyRisk" style="stroke: #A80036; stroke-width: 1.0;"/><polygon fill="#A80036" points="987.41,269.634,993.5468,261.9308,988.6687,264.795,985.8044,259.9169,987.41,269.634" style="stroke: #A80036; stroke-width: 1.0;"/><text fill="#000000" font-family="sans-serif" font-size="13" lengthAdjust="spacingAndGlyphs" textLength="109" x="996" y="182.0669">CounterpartyRisk</text><text fill="#000000" font-family="sans-serif" font-size="13" lengthAdjust="spacingAndGlyphs" textLength="24" x="959.1505" y="258.8162">0..1</text><!--link Role to Entry--><path d="M672.847,85.52 C746.612,110.779 865.284,151.415 915.886,168.743 " fill="none" id="Role-Entry" style="stroke: #A80036; stroke-width: 1.0;"/><polygon fill="#A80036" points="920.854,170.444,913.635,163.7443,916.1236,168.8244,911.0436,171.313,920.854,170.444" style="stroke: #A80036; stroke-width: 1.0;"/><text fill="#000000" font-family="sans-serif" font-size="13" lengthAdjust="spacingAndGlyphs" textLength="33" x="816" y="129.0669">Entry</text><text fill="#000000" font-family="sans-serif" font-size="13" lengthAdjust="spacingAndGlyphs" textLength="8" x="905.0629" y="162.0182">1</text><!--link AssetPartyRole to Asset--><path d="M627.972,190.11 C658.347,208.887 719.75,246.846 752.778,267.263 " fill="none" id="AssetPartyRole-Asset" style="stroke: #A80036; stroke-width: 1.0;"/><polygon fill="#A80036" points="757.05,269.904,751.4973,261.7697,752.7968,267.2752,747.2913,268.5748,757.05,269.904" style="stroke: #A80036; stroke-width: 1.0;"/><text fill="#000000" font-family="sans-serif" font-size="13" lengthAdjust="spacingAndGlyphs" textLength="36" x="704" y="233.0669">Asset</text><text fill="#000000" font-family="sans-serif" font-size="13" lengthAdjust="spacingAndGlyphs" textLength="7" x="741.2469" y="258.9192">*</text><!--link SecuritiesPartyRole to SecuritiesAccount--><path d="M611.84,294.031 C648.203,304.092 691.567,322.984 714,358 C730.783,384.196 731.152,402.044 714,428 C691.768,461.644 583.181,480.888 511.515,490.115 " fill="none" id="SecuritiesPartyRole-SecuritiesAccount" style="stroke: #A80036; stroke-width: 1.0;"/><polygon fill="#A80036" points="506.421,490.762,515.8533,493.5961,511.3811,490.132,514.8453,485.6598,506.421,490.762" style="stroke: #A80036; stroke-width: 1.0;"/><text fill="#000000" font-family="sans-serif" font-size="13" lengthAdjust="spacingAndGlyphs" textLength="115" x="728" y="385.0669">SecuritiesAccount</text><text fill="#000000" font-family="sans-serif" font-size="13" lengthAdjust="spacingAndGlyphs" textLength="7" x="514.8424" y="484.7251">*</text><!--link SecuritiesPartyRole to CashAccount--><path d="M487.604,284.881 C406.803,289.496 264.591,305.177 156,358 C90.0852,390.064 59.5021,395.815 28,462 C-29.2166,582.21 123.897,622.389 251,662 C291.876,674.739 305.402,659.866 347,670 C367.031,674.88 388.468,683.88 404.673,691.531 " fill="none" id="SecuritiesPartyRole-CashAccount" style="stroke: #A80036; stroke-width: 1.0;"/><polygon fill="#A80036" points="409.526,693.856,403.1377,686.3601,405.0168,691.6957,399.6812,693.5748,409.526,693.856" style="stroke: #A80036; stroke-width: 1.0;"/><text fill="#000000" font-family="sans-serif" font-size="13" lengthAdjust="spacingAndGlyphs" textLength="84" x="29" y="502.0669">CashAccount</text><text fill="#000000" font-family="sans-serif" font-size="13" lengthAdjust="spacingAndGlyphs" textLength="7" x="392.4256" y="682.8547">*</text><!--link SecuritiesPartyRole to Security--><path d="M487.391,286.536 C396.16,295.431 230.916,326.642 156,436 C133.827,468.367 82.0138,466.877 181,560 C210.125,587.4 327.976,596.73 386.167,599.707 " fill="none" id="SecuritiesPartyRole-Security" style="stroke: #A80036; stroke-width: 1.0;"/><polygon fill="#A80036" points="391.269,599.959,382.4777,595.5191,386.2751,599.7119,382.0823,603.5093,391.269,599.959" style="stroke: #A80036; stroke-width: 1.0;"/><text fill="#000000" font-family="sans-serif" font-size="13" lengthAdjust="spacingAndGlyphs" textLength="52" x="157" y="449.0669">Security</text><text fill="#000000" font-family="sans-serif" font-size="13" lengthAdjust="spacingAndGlyphs" textLength="7" x="376.5182" y="593.8687">*</text><!--link SafekeepingPlace to Country--><path d="M618.778,403.538 C639.757,411.899 662.262,422.71 681,436 C778.447,505.116 841,532.531 841,652 C841,652 841,652 841,797 C841,853.7051 408.035,876.3929 284.528,881.7112 " fill="none" id="SafekeepingPlace-Country" style="stroke: #A80036; stroke-width: 1.0;"/><polygon fill="#A80036" points="279.227,881.937,288.3891,885.5502,284.2225,881.7241,288.0486,877.5575,279.227,881.937" style="stroke: #A80036; stroke-width: 1.0;"/><text fill="#000000" font-family="sans-serif" font-size="13" lengthAdjust="spacingAndGlyphs" textLength="50" x="842" y="657.0669">Country</text><text fill="#000000" font-family="sans-serif" font-size="13" lengthAdjust="spacingAndGlyphs" textLength="8" x="286.8386" y="875.4492">1</text><!--link SafekeepingPlace to SecuritiesAccount--><path d="M515.766,403.677 C503.125,412.61 489.432,423.745 479,436 C467.503,449.506 458.587,467.837 453.12,480.869 " fill="none" id="SafekeepingPlace-SecuritiesAccount" style="stroke: #A80036; stroke-width: 1.0;"/><polygon fill="#A80036" points="451.128,485.755,458.2309,478.9323,453.0164,481.1253,450.8235,475.9109,451.128,485.755" style="stroke: #A80036; stroke-width: 1.0;"/><text fill="#000000" font-family="sans-serif" font-size="13" lengthAdjust="spacingAndGlyphs" textLength="163" x="480" y="449.0669">RelatedSecuritiesAccount</text><text fill="#000000" font-family="sans-serif" font-size="13" lengthAdjust="spacingAndGlyphs" textLength="8" x="441.7563" y="474.9773">1</text><!--link SafekeepingPlace to SecuritiesBalance--><path d="M608.493,403.605 C623.564,411.72 638.513,422.377 649,436 C678.064,473.753 695.179,596.712 701,644 C701.977,651.94 704.448,654.781 701,662 C671.652,723.448 643.227,736.149 577,752 C431.257,786.883 254.482,794.003 161.445,795.133 " fill="none" id="SafekeepingPlace-SecuritiesBalance" style="stroke: #A80036; stroke-width: 1.0;"/><polygon fill="#A80036" points="156.259,795.191,165.303,799.0905,161.2587,795.1353,165.2139,791.091,156.259,795.191" style="stroke: #A80036; stroke-width: 1.0;"/><text fill="#000000" font-family="sans-serif" font-size="13" lengthAdjust="spacingAndGlyphs" textLength="114" x="699" y="606.0669">SecuritiesBalance</text><text fill="#000000" font-family="sans-serif" font-size="13" lengthAdjust="spacingAndGlyphs" textLength="24" x="164.053" y="790.2487">0..1</text><!--link SafekeepingPlace to SecuritiesSettlement--><path d="M462.45,403.61 C389.751,426.016 289.836,468.372 233,542 C198.236,587.034 190.318,657.292 188.522,688.779 " fill="none" id="SafekeepingPlace-SecuritiesSettlement" style="stroke: #A80036; stroke-width: 1.0;"/><polygon fill="#A80036" points="188.268,693.842,192.7131,685.0533,188.518,688.8483,184.7231,684.6532,188.268,693.842" style="stroke: #A80036; stroke-width: 1.0;"/><text fill="#000000" font-family="sans-serif" font-size="13" lengthAdjust="spacingAndGlyphs" textLength="135" x="234" y="555.0669">SecuritiesSettlement</text><text fill="#000000" font-family="sans-serif" font-size="13" lengthAdjust="spacingAndGlyphs" textLength="8" x="177.5554" y="682.8359">1</text><!--link SecuritiesAccount to Security--><path d="M437.149,510.121 C430.591,518.305 422.55,530.044 419,542 C414.854,555.965 415.315,572.623 416.543,584.671 " fill="none" id="SecuritiesAccount-Security" style="stroke: #A80036; stroke-width: 1.0;"/><polygon fill="#A80036" points="417.148,589.857,420.0799,580.4546,416.5695,584.8906,412.1336,581.3802,417.148,589.857" style="stroke: #A80036; stroke-width: 1.0;"/><text fill="#000000" font-family="sans-serif" font-size="13" lengthAdjust="spacingAndGlyphs" textLength="52" x="420" y="555.0669">Security</text><text fill="#000000" font-family="sans-serif" font-size="13" lengthAdjust="spacingAndGlyphs" textLength="7" x="406.7926" y="578.8561">*</text><!--link SecuritiesAccount to SecuritiesBalance--><path d="M460.54,510.058 C503.726,546.605 631.608,665.526 566,742 C540.082,772.21 283.319,787.094 161.069,792.513 " fill="none" id="SecuritiesAccount-SecuritiesBalance" style="stroke: #A80036; stroke-width: 1.0;"/><polygon fill="#A80036" points="156.064,792.733,165.2302,796.3358,161.0592,792.5145,164.8806,788.3434,156.064,792.733" style="stroke: #A80036; stroke-width: 1.0;"/><text fill="#000000" font-family="sans-serif" font-size="13" lengthAdjust="spacingAndGlyphs" textLength="114" x="581" y="657.0669">SecuritiesBalance</text><text fill="#000000" font-family="sans-serif" font-size="13" lengthAdjust="spacingAndGlyphs" textLength="7" x="164.08" y="805.3528">*</text><!--link Security to SecuritiesBalance--><path d="M437.84,614.064 C455.328,625.541 480.229,645.265 491,670 C503.775,699.339 512.065,717.911 491,742 C469.665,766.397 267.537,783.525 161.399,790.917 " fill="none" id="Security-SecuritiesBalance" style="stroke: #A80036; stroke-width: 1.0;"/><polygon fill="#A80036" points="156.107,791.283,165.3621,794.651,161.095,790.9372,164.8088,786.6702,156.107,791.283" style="stroke: #A80036; stroke-width: 1.0;"/><text fill="#000000" font-family="sans-serif" font-size="13" lengthAdjust="spacingAndGlyphs" textLength="51" x="505" y="710.0669">Balance</text><text fill="#000000" font-family="sans-serif" font-size="13" lengthAdjust="spacingAndGlyphs" textLength="8" x="163.6773" y="783.3273">1</text><!--link Security to SecuritiesSettlement--><path d="M391.483,608.559 C362.793,614.936 316.943,626.781 280,644 C252.618,656.763 224.073,676.938 206.181,690.557 " fill="none" id="Security-SecuritiesSettlement" style="stroke: #A80036; stroke-width: 1.0;"/><polygon fill="#A80036" points="201.869,693.87,211.4428,691.5588,205.8339,690.8238,206.5689,685.2149,201.869,693.87" style="stroke: #A80036; stroke-width: 1.0;"/><text fill="#000000" font-family="sans-serif" font-size="13" lengthAdjust="spacingAndGlyphs" textLength="135" x="281" y="657.0669">SecuritiesSettlement</text><text fill="#000000" font-family="sans-serif" font-size="13" lengthAdjust="spacingAndGlyphs" textLength="7" x="197.0037" y="682.8735">*</text><!--link SecuritiesBalance to SecuritiesBalance--><path d="M156.208,787.751 C175.577,787.793 191,790.543 191,796 C191,800.945 178.333,803.667 161.542,804.166 " fill="none" id="SecuritiesBalance-SecuritiesBalance" style="stroke: #A80036; stroke-width: 1.0;"/><polygon fill="#A80036" points="156.208,804.249,165.2697,808.1071,161.2074,804.1704,165.144,800.1081,156.208,804.249" style="stroke: #A80036; stroke-width: 1.0;"/><text fill="#000000" font-family="sans-serif" font-size="13" lengthAdjust="spacingAndGlyphs" textLength="144" x="197" y="800.0669">MainSecuritiesBalance</text><text fill="#000000" font-family="sans-serif" font-size="13" lengthAdjust="spacingAndGlyphs" textLength="24" x="163.9964" y="818.0474">0..1</text></g></svg>