<?xml version="1.0" encoding="UTF-8" standalone="no"?><svg xmlns="http://www.w3.org/2000/svg" xmlns:xlink="http://www.w3.org/1999/xlink" contentScriptType="application/ecmascript" contentStyleType="text/css" height="756px" preserveAspectRatio="none" style="width:718px;height:756px;" version="1.1" viewBox="0 0 718 756" width="718px" zoomAndPan="magnify"><defs><filter height="300%" id="f1j6e0hk7t0btw" width="300%" x="-1" y="-1"><feGaussianBlur result="blurOut" stdDeviation="2.0"/><feColorMatrix in="blurOut" result="blurOut2" type="matrix" values="0 0 0 0 0 0 0 0 0 0 0 0 0 0 0 0 0 0 .4 0"/><feOffset dx="4.0" dy="4.0" in="blurOut2" result="blurOut3"/><feBlend in="SourceGraphic" in2="blurOut3" mode="normal"/></filter></defs><g><!--cluster ##5083--><!--cluster ##5086--><!--class Scheme--><a target="_top" xlink:actuate="onRequest" xlink:href="../Scheme.html" xlink:show="new" xlink:title="Information regarding an enumerated code list and its owner." xlink:type="simple"><rect fill="#FEFECE" filter="url(#f1j6e0hk7t0btw)" height="121.6016" id="Scheme" style="stroke: #A80036; stroke-width: 1.5;" width="207" x="159.75" y="40"/><rect fill="#FEFECE" height="23.9688" style="stroke: #A80036; stroke-width: 1.5;" width="207" x="159.75" y="40"/><text fill="#000000" font-family="sans-serif" font-size="12" lengthAdjust="spacingAndGlyphs" textLength="50" x="238.25" y="56.1387">Scheme</text><line style="stroke: #A80036; stroke-width: 1.5;" x1="160.75" x2="365.75" y1="63.9688" y2="63.9688"/><ellipse cx="170.75" cy="75.8711" fill="#84BE84" rx="3" ry="3" style="stroke: #038048; stroke-width: 1.0;"/><text fill="#000000" font-family="sans-serif" font-size="11" lengthAdjust="spacingAndGlyphs" textLength="64" x="179.75" y="78.1792">NameShort</text><text fill="#000000" font-family="sans-serif" font-size="11" font-style="italic" lengthAdjust="spacingAndGlyphs" textLength="70" x="247.75" y="78.1792">(Max35Text)</text><ellipse cx="170.75" cy="88.6758" fill="#84BE84" rx="3" ry="3" style="stroke: #038048; stroke-width: 1.0;"/><text fill="#000000" font-family="sans-serif" font-size="11" lengthAdjust="spacingAndGlyphs" textLength="29" x="179.75" y="90.9839">Code</text><text fill="#000000" font-family="sans-serif" font-size="11" font-style="italic" lengthAdjust="spacingAndGlyphs" textLength="70" x="212.75" y="90.9839">(Max35Text)</text><ellipse cx="170.75" cy="101.4805" fill="#84BE84" rx="3" ry="3" style="stroke: #038048; stroke-width: 1.0;"/><text fill="#000000" font-family="sans-serif" font-size="11" lengthAdjust="spacingAndGlyphs" textLength="43" x="179.75" y="103.7886">Version</text><text fill="#000000" font-family="sans-serif" font-size="11" font-style="italic" lengthAdjust="spacingAndGlyphs" textLength="70" x="226.75" y="103.7886">(Max35Text)</text><ellipse cx="170.75" cy="114.2852" fill="#84BE84" rx="3" ry="3" style="stroke: #038048; stroke-width: 1.0;"/><text fill="#000000" font-family="sans-serif" font-size="11" lengthAdjust="spacingAndGlyphs" textLength="60" x="179.75" y="116.5933">NameLong</text><text fill="#000000" font-family="sans-serif" font-size="11" font-style="italic" lengthAdjust="spacingAndGlyphs" textLength="70" x="243.75" y="116.5933">(Max70Text)</text><ellipse cx="170.75" cy="127.0898" fill="#84BE84" rx="3" ry="3" style="stroke: #038048; stroke-width: 1.0;"/><text fill="#000000" font-family="sans-serif" font-size="11" lengthAdjust="spacingAndGlyphs" textLength="64" x="179.75" y="129.3979">Description</text><text fill="#000000" font-family="sans-serif" font-size="11" font-style="italic" lengthAdjust="spacingAndGlyphs" textLength="77" x="247.75" y="129.3979">(Max350Text)</text><ellipse cx="170.75" cy="139.8945" fill="#84BE84" rx="3" ry="3" style="stroke: #038048; stroke-width: 1.0;"/><text fill="#000000" font-family="sans-serif" font-size="11" lengthAdjust="spacingAndGlyphs" textLength="103" x="179.75" y="142.2026">DomainValueCode</text><text fill="#000000" font-family="sans-serif" font-size="11" font-style="italic" lengthAdjust="spacingAndGlyphs" textLength="70" x="286.75" y="142.2026">(Max35Text)</text><ellipse cx="170.75" cy="152.6992" fill="#84BE84" rx="3" ry="3" style="stroke: #038048; stroke-width: 1.0;"/><text fill="#000000" font-family="sans-serif" font-size="11" lengthAdjust="spacingAndGlyphs" textLength="107" x="179.75" y="155.0073">DomainValueName</text><text fill="#000000" font-family="sans-serif" font-size="11" font-style="italic" lengthAdjust="spacingAndGlyphs" textLength="70" x="290.75" y="155.0073">(Max70Text)</text></a><!--class GenericIdentification--><a target="_top" xlink:actuate="onRequest" xlink:href="../GenericIdentification.html" xlink:show="new" xlink:title="Information related to a non-standardised identification, such as a proprietary party identification or account identification." xlink:type="simple"><rect fill="#EEEEEE" filter="url(#f1j6e0hk7t0btw)" height="23.9688" id="GenericIdentification" style="stroke: #A80036; stroke-width: 1.5;" width="135" x="403.75" y="448"/><rect fill="#EEEEEE" height="23.9688" style="stroke: #A80036; stroke-width: 1.5;" width="135" x="403.75" y="448"/><text fill="#000000" font-family="sans-serif" font-size="12" lengthAdjust="spacingAndGlyphs" textLength="129" x="406.75" y="464.1387">GenericIdentification</text></a><!--class Rating--><a target="_top" xlink:actuate="onRequest" xlink:href="../Rating.html" xlink:show="new" xlink:title="Assessment of securities credit and investment risk." xlink:type="simple"><rect fill="#EEEEEE" filter="url(#f1j6e0hk7t0btw)" height="23.9688" id="Rating" style="stroke: #A80036; stroke-width: 1.5;" width="46" x="355" y="722"/><rect fill="#EEEEEE" height="23.9688" style="stroke: #A80036; stroke-width: 1.5;" width="46" x="355" y="722"/><text fill="#000000" font-family="sans-serif" font-size="12" lengthAdjust="spacingAndGlyphs" textLength="40" x="358" y="738.1387">Rating</text></a><!--class CreditorRole--><a target="_top" xlink:actuate="onRequest" xlink:href="../CreditorRole.html" xlink:show="new" xlink:title="Party to which an amount of money is due." xlink:type="simple"><rect fill="#EEEEEE" filter="url(#f1j6e0hk7t0btw)" height="23.9688" id="CreditorRole" style="stroke: #A80036; stroke-width: 1.5;" width="83" x="336.75" y="636"/><rect fill="#EEEEEE" height="23.9688" style="stroke: #A80036; stroke-width: 1.5;" width="83" x="336.75" y="636"/><text fill="#000000" font-family="sans-serif" font-size="12" lengthAdjust="spacingAndGlyphs" textLength="77" x="339.75" y="652.1387">CreditorRole</text></a><!--class InformationPartyRole--><a target="_top" xlink:actuate="onRequest" xlink:href="../InformationPartyRole.html" xlink:show="new" xlink:title="Role played by a party as source of information." xlink:type="simple"><rect fill="#EEEEEE" filter="url(#f1j6e0hk7t0btw)" height="23.9688" id="InformationPartyRole" style="stroke: #A80036; stroke-width: 1.5;" width="136" x="276" y="550"/><rect fill="#EEEEEE" height="23.9688" style="stroke: #A80036; stroke-width: 1.5;" width="136" x="276" y="550"/><text fill="#000000" font-family="sans-serif" font-size="12" lengthAdjust="spacingAndGlyphs" textLength="130" x="279" y="566.1387">InformationPartyRole</text></a><!--class DateTimePeriod--><a target="_top" xlink:actuate="onRequest" xlink:href="../DateTimePeriod.html" xlink:show="new" xlink:title="Time span defined by a start date and time, and an end date and time." xlink:type="simple"><rect fill="#EEEEEE" filter="url(#f1j6e0hk7t0btw)" height="23.9688" id="DateTimePeriod" style="stroke: #A80036; stroke-width: 1.5;" width="105" x="263.75" y="448"/><rect fill="#EEEEEE" height="23.9688" style="stroke: #A80036; stroke-width: 1.5;" width="105" x="263.75" y="448"/><text fill="#000000" font-family="sans-serif" font-size="12" lengthAdjust="spacingAndGlyphs" textLength="99" x="266.75" y="464.1387">DateTimePeriod</text></a><!--class Sector--><a target="_top" xlink:actuate="onRequest" xlink:href="../Sector.html" xlink:show="new" xlink:title="Type of business of the organisation, for example, pharmaceutical." xlink:type="simple"><rect fill="#EEEEEE" filter="url(#f1j6e0hk7t0btw)" height="23.9688" id="Sector" style="stroke: #A80036; stroke-width: 1.5;" width="47" x="344.75" y="346"/><rect fill="#EEEEEE" height="23.9688" style="stroke: #A80036; stroke-width: 1.5;" width="47" x="344.75" y="346"/><text fill="#000000" font-family="sans-serif" font-size="12" lengthAdjust="spacingAndGlyphs" textLength="41" x="347.75" y="362.1387">Sector</text></a><!--class AssetClassification--><a target="_top" xlink:actuate="onRequest" xlink:href="../AssetClassification.html" xlink:show="new" xlink:title="Other classification type of the security, ie, other than ISO 10962." xlink:type="simple"><rect fill="#EEEEEE" filter="url(#f1j6e0hk7t0btw)" height="23.9688" id="AssetClassification" style="stroke: #A80036; stroke-width: 1.5;" width="123" x="343.75" y="244"/><rect fill="#EEEEEE" height="23.9688" style="stroke: #A80036; stroke-width: 1.5;" width="123" x="343.75" y="244"/><text fill="#000000" font-family="sans-serif" font-size="12" lengthAdjust="spacingAndGlyphs" textLength="117" x="346.75" y="260.1387">AssetClassification</text></a><!--link Rating to GenericIdentification--><!--link CreditorRole to Rating--><!--link InformationPartyRole to CreditorRole--><!--link DateTimePeriod to InformationPartyRole--><!--link Sector to DateTimePeriod--><!--link AssetClassification to Sector--><!--link Scheme to GenericIdentification--><path d="M366.488,116.47 C413.663,128.808 465.29,151.663 494,194 C521.633,234.749 487.276,391.466 475.025,442.694 " fill="none" id="Scheme-GenericIdentification" style="stroke: #A80036; stroke-width: 1.0;"/><polygon fill="#A80036" points="473.778,447.863,479.7777,440.0525,474.951,443.0025,472.001,438.1758,473.778,447.863" style="stroke: #A80036; stroke-width: 1.0;"/><text fill="#000000" font-family="sans-serif" font-size="13" lengthAdjust="spacingAndGlyphs" textLength="81" x="503" y="311.0669">Identification</text><text fill="#000000" font-family="sans-serif" font-size="13" lengthAdjust="spacingAndGlyphs" textLength="7" x="465.1001" y="436.8641">*</text><!--link Scheme to Rating--><path d="M159.579,120.986 C88.1657,140.757 6,179.837 6,255 C6,255 6,255 6,649 C6,719.3639 262.439,730.791 349.489,732.643 " fill="none" id="Scheme-Rating" style="stroke: #A80036; stroke-width: 1.0;"/><polygon fill="#A80036" points="354.73,732.7471,345.8118,728.5679,349.731,732.6471,345.6518,736.5663,354.73,732.7471" style="stroke: #A80036; stroke-width: 1.0;"/><text fill="#000000" font-family="sans-serif" font-size="13" lengthAdjust="spacingAndGlyphs" textLength="40" x="7" y="464.0669">Rating</text><text fill="#000000" font-family="sans-serif" font-size="13" lengthAdjust="spacingAndGlyphs" textLength="8" x="338.8392" y="726.4567">1</text><!--link Scheme to CreditorRole--><path d="M366.334,103.241 C473.948,110.657 627,141.207 627,255 C627,255 627,255 627,563 C627,605.27 496.538,630.358 424.481,640.991 " fill="none" id="Scheme-CreditorRole" style="stroke: #A80036; stroke-width: 1.0;"/><polygon fill="#A80036" points="419.397,641.731,428.88,644.3904,424.3447,641.0095,427.7256,636.4742,419.397,641.731" style="stroke: #A80036; stroke-width: 1.0;"/><text fill="#000000" font-family="sans-serif" font-size="13" lengthAdjust="spacingAndGlyphs" textLength="78" x="628" y="413.0669">CreditorRole</text><text fill="#000000" font-family="sans-serif" font-size="13" lengthAdjust="spacingAndGlyphs" textLength="8" x="427.721" y="635.09">1</text><!--link Scheme to InformationPartyRole--><path d="M159.67,157.709 C128.316,182.443 102,215.091 102,255 C102,255 102,255 102,461 C102,534.916 199.626,555.278 270.864,560.297 " fill="none" id="Scheme-InformationPartyRole" style="stroke: #A80036; stroke-width: 1.0;"/><polygon fill="#A80036" points="275.946,560.632,267.2297,556.0467,270.9569,560.302,266.7016,564.0292,275.946,560.632" style="stroke: #A80036; stroke-width: 1.0;"/><text fill="#000000" font-family="sans-serif" font-size="13" lengthAdjust="spacingAndGlyphs" textLength="133" x="103" y="362.0669">InformationPartyRole</text><text fill="#000000" font-family="sans-serif" font-size="13" lengthAdjust="spacingAndGlyphs" textLength="7" x="261.0307" y="555.7662">*</text><!--link Scheme to DateTimePeriod--><path d="M204.576,162.27 C168.591,206.926 135.091,268.084 168,316 C189.028,346.617 217.394,322.309 246,346 C278.357,372.797 300.093,418.627 309.951,442.868 " fill="none" id="Scheme-DateTimePeriod" style="stroke: #A80036; stroke-width: 1.0;"/><polygon fill="#A80036" points="311.874,447.699,312.2605,437.8577,310.0242,443.0538,304.8282,440.8174,311.874,447.699" style="stroke: #A80036; stroke-width: 1.0;"/><text fill="#000000" font-family="sans-serif" font-size="13" lengthAdjust="spacingAndGlyphs" textLength="165" x="169" y="311.0669">AssessmentValidityPeriod</text><text fill="#000000" font-family="sans-serif" font-size="13" lengthAdjust="spacingAndGlyphs" textLength="8" x="299.7682" y="436.9027">1</text><!--link Scheme to Sector--><path d="M255.894,162.305 C255.025,196.241 259.525,237.741 281,268 C298.948,293.291 322.717,275.443 344,298 C355.255,309.929 361.525,327.839 364.807,340.796 " fill="none" id="Scheme-Sector" style="stroke: #A80036; stroke-width: 1.0;"/><polygon fill="#A80036" points="365.961,345.668,367.7783,335.9883,364.8082,340.8027,359.9938,337.8327,365.961,345.668" style="stroke: #A80036; stroke-width: 1.0;"/><text fill="#000000" font-family="sans-serif" font-size="13" lengthAdjust="spacingAndGlyphs" textLength="42" x="282" y="260.0669">Sector</text><text fill="#000000" font-family="sans-serif" font-size="13" lengthAdjust="spacingAndGlyphs" textLength="8" x="354.5465" y="334.8615">1</text><!--link Scheme to AssetClassification--><path d="M318.715,162.031 C345.009,190.361 374.239,221.856 391.037,239.955 " fill="none" id="Scheme-AssetClassification" style="stroke: #A80036; stroke-width: 1.0;"/><polygon fill="#A80036" points="394.628,243.825,391.4385,234.5069,391.2271,240.1598,385.5742,239.9484,394.628,243.825" style="stroke: #A80036; stroke-width: 1.0;"/><text fill="#000000" font-family="sans-serif" font-size="13" lengthAdjust="spacingAndGlyphs" textLength="119" x="365" y="207.0669">AssetClassification</text><text fill="#000000" font-family="sans-serif" font-size="13" lengthAdjust="spacingAndGlyphs" textLength="8" x="380.2579" y="232.8131">1</text><!--link GenericIdentification to InformationPartyRole--><path d="M442.594,472.011 C426.459,479.098 406.459,489.348 391,502 C375.836,514.41 362.342,532.468 353.747,545.333 " fill="none" id="GenericIdentification-InformationPartyRole" style="stroke: #A80036; stroke-width: 1.0;"/><polygon fill="#A80036" points="350.807,549.818,359.0868,544.4845,353.5484,545.6366,352.3964,540.0982,350.807,549.818" style="stroke: #A80036; stroke-width: 1.0;"/><text fill="#000000" font-family="sans-serif" font-size="13" lengthAdjust="spacingAndGlyphs" textLength="60" x="392" y="515.0669">PartyRole</text><text fill="#000000" font-family="sans-serif" font-size="13" lengthAdjust="spacingAndGlyphs" textLength="7" x="343.5712" y="539.0612">*</text></g></svg>