<?xml version="1.0" encoding="UTF-8" standalone="no"?><svg xmlns="http://www.w3.org/2000/svg" xmlns:xlink="http://www.w3.org/1999/xlink" contentScriptType="application/ecmascript" contentStyleType="text/css" height="480px" preserveAspectRatio="none" style="width:429px;height:480px;" version="1.1" viewBox="0 0 429 480" width="429px" zoomAndPan="magnify"><defs><filter height="300%" id="fc0o05zchulw9" width="300%" x="-1" y="-1"><feGaussianBlur result="blurOut" stdDeviation="2.0"/><feColorMatrix in="blurOut" result="blurOut2" type="matrix" values="0 0 0 0 0 0 0 0 0 0 0 0 0 0 0 0 0 0 .4 0"/><feOffset dx="4.0" dy="4.0" in="blurOut2" result="blurOut3"/><feBlend in="SourceGraphic" in2="blurOut3" mode="normal"/></filter></defs><g><!--cluster ##9569--><!--cluster ##9572--><!--class Sector--><a target="_top" xlink:actuate="onRequest" xlink:href="../Sector.html" xlink:show="new" xlink:title="Type of business of the organisation, for example, pharmaceutical." xlink:type="simple"><rect fill="#FEFECE" filter="url(#fc0o05zchulw9)" height="44.7734" id="Sector" style="stroke: #A80036; stroke-width: 1.5;" width="172" x="58" y="40.5"/><rect fill="#FEFECE" height="23.9688" style="stroke: #A80036; stroke-width: 1.5;" width="172" x="58" y="40.5"/><text fill="#000000" font-family="sans-serif" font-size="12" lengthAdjust="spacingAndGlyphs" textLength="41" x="123.5" y="56.6387">Sector</text><line style="stroke: #A80036; stroke-width: 1.5;" x1="59" x2="229" y1="64.4688" y2="64.4688"/><ellipse cx="69" cy="76.3711" fill="#84BE84" rx="3" ry="3" style="stroke: #038048; stroke-width: 1.0;"/><text fill="#000000" font-family="sans-serif" font-size="11" lengthAdjust="spacingAndGlyphs" textLength="72" x="78" y="78.6792">Identification</text><text fill="#000000" font-family="sans-serif" font-size="11" font-style="italic" lengthAdjust="spacingAndGlyphs" textLength="70" x="154" y="78.6792">(Max35Text)</text></a><!--class Security--><a target="_top" xlink:actuate="onRequest" xlink:href="../Security.html" xlink:show="new" xlink:title="Financial instruments representing a sum of rights of the investor vis-a-vis the issuer." xlink:type="simple"><rect fill="#EEEEEE" filter="url(#fc0o05zchulw9)" height="23.9688" id="Security" style="stroke: #A80036; stroke-width: 1.5;" width="56" x="167.5" y="446"/><rect fill="#EEEEEE" height="23.9688" style="stroke: #A80036; stroke-width: 1.5;" width="56" x="167.5" y="446"/><text fill="#000000" font-family="sans-serif" font-size="12" lengthAdjust="spacingAndGlyphs" textLength="50" x="170.5" y="462.1387">Security</text></a><!--class Scheme--><a target="_top" xlink:actuate="onRequest" xlink:href="../Scheme.html" xlink:show="new" xlink:title="Information regarding an enumerated code list and its owner." xlink:type="simple"><rect fill="#EEEEEE" filter="url(#fc0o05zchulw9)" height="23.9688" id="Scheme" style="stroke: #A80036; stroke-width: 1.5;" width="56" x="167.5" y="360"/><rect fill="#EEEEEE" height="23.9688" style="stroke: #A80036; stroke-width: 1.5;" width="56" x="167.5" y="360"/><text fill="#000000" font-family="sans-serif" font-size="12" lengthAdjust="spacingAndGlyphs" textLength="50" x="170.5" y="376.1387">Scheme</text></a><!--class Organisation--><a target="_top" xlink:actuate="onRequest" xlink:href="../Organisation.html" xlink:show="new" xlink:title="Organised structure that is set up for a particular purpose. For example, a business, government body, department, charity, or financial institution." xlink:type="simple"><rect fill="#EEEEEE" filter="url(#fc0o05zchulw9)" height="23.9688" id="Organisation" style="stroke: #A80036; stroke-width: 1.5;" width="86" x="167" y="272"/><rect fill="#EEEEEE" height="23.9688" style="stroke: #A80036; stroke-width: 1.5;" width="86" x="167" y="272"/><text fill="#000000" font-family="sans-serif" font-size="12" lengthAdjust="spacingAndGlyphs" textLength="80" x="170" y="288.1387">Organisation</text></a><!--class SectorStrategy--><a target="_top" xlink:actuate="onRequest" xlink:href="../SectorStrategy.html" xlink:show="new" xlink:title="Strategy is sector based." xlink:type="simple"><rect fill="#EEEEEE" filter="url(#fc0o05zchulw9)" height="23.9688" id="SectorStrategy" style="stroke: #A80036; stroke-width: 1.5;" width="100" x="167" y="168"/><rect fill="#EEEEEE" height="23.9688" style="stroke: #A80036; stroke-width: 1.5;" width="100" x="167" y="168"/><text fill="#000000" font-family="sans-serif" font-size="12" lengthAdjust="spacingAndGlyphs" textLength="94" x="170" y="184.1387">SectorStrategy</text></a><!--link Scheme to Security--><!--link Organisation to Scheme--><!--link SectorStrategy to Organisation--><!--link Sector to Security--><path d="M86.6745,85.564 C48.7591,103.961 6,134.559 6,179 C6,179 6,179 6,373 C6,440.4833 107.861,454.1551 162.025,456.6548 " fill="none" id="Sector-Security" style="stroke: #A80036; stroke-width: 1.0;"/><polygon fill="#A80036" points="167.112,456.8632,158.2829,452.4988,162.1162,456.6589,157.9561,460.4921,167.112,456.8632" style="stroke: #A80036; stroke-width: 1.0;"/><text fill="#000000" font-family="sans-serif" font-size="13" lengthAdjust="spacingAndGlyphs" textLength="52" x="7" y="288.0669">Security</text><text fill="#000000" font-family="sans-serif" font-size="13" lengthAdjust="spacingAndGlyphs" textLength="8" x="151.5387" y="451.049">1</text><!--link Sector to Scheme--><path d="M140.704,85.567 C135.098,127.541 126.379,222.697 149,298 C155.562,319.843 170.589,341.525 181.691,355.511 " fill="none" id="Sector-Scheme" style="stroke: #A80036; stroke-width: 1.0;"/><polygon fill="#A80036" points="184.997,359.596,182.4447,350.0836,181.8516,355.7093,176.2259,355.1162,184.997,359.596" style="stroke: #A80036; stroke-width: 1.0;"/><text fill="#000000" font-family="sans-serif" font-size="13" lengthAdjust="spacingAndGlyphs" textLength="53" x="139" y="235.0669">Scheme</text><text fill="#000000" font-family="sans-serif" font-size="13" lengthAdjust="spacingAndGlyphs" textLength="8" x="171.0554" y="349.0259">1</text><!--link Sector to Organisation--><path d="M218.229,85.574 C245.306,97.791 272.374,116.35 285,144 C306.278,190.597 256.562,243.207 228.136,268.24 " fill="none" id="Sector-Organisation" style="stroke: #A80036; stroke-width: 1.0;"/><polygon fill="#A80036" points="224.107,271.729,233.5287,268.8598,227.8863,268.4553,228.2908,262.813,224.107,271.729" style="stroke: #A80036; stroke-width: 1.0;"/><text fill="#000000" font-family="sans-serif" font-size="13" lengthAdjust="spacingAndGlyphs" textLength="81" x="291" y="184.0669">Organisation</text><text fill="#000000" font-family="sans-serif" font-size="13" lengthAdjust="spacingAndGlyphs" textLength="8" x="218.1237" y="260.9427">1</text><!--link Sector to SectorStrategy--><path d="M157.731,85.631 C172.168,108.375 194.519,143.585 207.248,163.637 " fill="none" id="Sector-SectorStrategy" style="stroke: #A80036; stroke-width: 1.0;"/><polygon fill="#A80036" points="209.963,167.915,208.5162,158.173,207.2832,163.6938,201.7623,162.4607,209.963,167.915" style="stroke: #A80036; stroke-width: 1.0;"/><text fill="#000000" font-family="sans-serif" font-size="13" lengthAdjust="spacingAndGlyphs" textLength="55" x="190" y="131.0669">Strategy</text><text fill="#000000" font-family="sans-serif" font-size="13" lengthAdjust="spacingAndGlyphs" textLength="7" x="197.9972" y="156.934">*</text><!--link Organisation to Organisation--><path d="M253.314,275.849 C272.001,275.181 288,277.898 288,284 C288,289.53 274.86,292.279 258.488,292.25 " fill="none" id="Organisation-Organisation" style="stroke: #A80036; stroke-width: 1.0;"/><polygon fill="#A80036" points="253.314,292.151,262.2358,296.3226,258.3131,292.2467,262.3889,288.324,253.314,292.151" style="stroke: #A80036; stroke-width: 1.0;"/><text fill="#000000" font-family="sans-serif" font-size="13" lengthAdjust="spacingAndGlyphs" textLength="123" x="294" y="288.0669">ParentOrganisation</text><text fill="#000000" font-family="sans-serif" font-size="13" lengthAdjust="spacingAndGlyphs" textLength="8" x="260.8547" y="288.1753">1</text></g></svg>