<?xml version="1.0" encoding="UTF-8" standalone="no"?><svg xmlns="http://www.w3.org/2000/svg" xmlns:xlink="http://www.w3.org/1999/xlink" contentScriptType="application/ecmascript" contentStyleType="text/css" height="659px" preserveAspectRatio="none" style="width:3421px;height:659px;" version="1.1" viewBox="0 0 3421 659" width="3421px" zoomAndPan="magnify"><defs><filter height="300%" id="f1uyg7sxcy2zbb" width="300%" x="-1" y="-1"><feGaussianBlur result="blurOut" stdDeviation="2.0"/><feColorMatrix in="blurOut" result="blurOut2" type="matrix" values="0 0 0 0 0 0 0 0 0 0 0 0 0 0 0 0 0 0 .4 0"/><feOffset dx="4.0" dy="4.0" in="blurOut2" result="blurOut3"/><feBlend in="SourceGraphic" in2="blurOut3" mode="normal"/></filter></defs><g><!--cluster ##8442--><!--cluster ##8448--><!--cluster ##8453--><!--class ProceedsDefinition--><a target="_top" xlink:actuate="onRequest" xlink:href="../ProceedsDefinition.html" xlink:show="new" xlink:title="Definition of exchanges of cash and/or securities available in the processing of corporate actions." xlink:type="simple"><rect fill="#FEFEEE" filter="url(#f1uyg7sxcy2zbb)" height="134.4063" id="ProceedsDefinition" style="stroke: #A80036; stroke-width: 1.5;" width="394" x="1048" y="40"/><rect fill="#FEFEEE" height="23.9688" style="stroke: #A80036; stroke-width: 1.5;" width="394" x="1048" y="40"/><text fill="#000000" font-family="sans-serif" font-size="12" lengthAdjust="spacingAndGlyphs" textLength="118" x="1186" y="56.1387">ProceedsDefinition</text><line style="stroke: #A80036; stroke-width: 1.5;" x1="1049" x2="1441" y1="63.9688" y2="63.9688"/><ellipse cx="1059" cy="75.8711" fill="#84BE84" rx="3" ry="3" style="stroke: #038048; stroke-width: 1.0;"/><text fill="#000000" font-family="sans-serif" font-size="11" lengthAdjust="spacingAndGlyphs" textLength="150" x="1068" y="78.1792">SpecialConcessionAmount</text><text fill="#000000" font-family="sans-serif" font-size="11" font-style="italic" lengthAdjust="spacingAndGlyphs" textLength="126" x="1222" y="78.1792">(CurrencyAndAmount)</text><ellipse cx="1059" cy="88.6758" fill="#84BE84" rx="3" ry="3" style="stroke: #038048; stroke-width: 1.0;"/><text fill="#000000" font-family="sans-serif" font-size="11" lengthAdjust="spacingAndGlyphs" textLength="112" x="1068" y="90.9839">CreditDebitIndicator</text><text fill="#000000" font-family="sans-serif" font-size="11" font-style="italic" lengthAdjust="spacingAndGlyphs" textLength="100" x="1184" y="90.9839">(DebitCreditCode)</text><ellipse cx="1059" cy="101.4805" fill="#84BE84" rx="3" ry="3" style="stroke: #038048; stroke-width: 1.0;"/><text fill="#000000" font-family="sans-serif" font-size="11" lengthAdjust="spacingAndGlyphs" textLength="118" x="1068" y="103.7886">EarliestPaymentDate</text><text fill="#000000" font-family="sans-serif" font-size="11" font-style="italic" lengthAdjust="spacingAndGlyphs" textLength="81" x="1190" y="103.7886">(ISODateTime)</text><ellipse cx="1059" cy="114.2852" fill="#84BE84" rx="3" ry="3" style="stroke: #038048; stroke-width: 1.0;"/><text fill="#000000" font-family="sans-serif" font-size="11" lengthAdjust="spacingAndGlyphs" textLength="57" x="1068" y="116.5933">ValueDate</text><text fill="#000000" font-family="sans-serif" font-size="11" font-style="italic" lengthAdjust="spacingAndGlyphs" textLength="81" x="1129" y="116.5933">(ISODateTime)</text><ellipse cx="1059" cy="127.0898" fill="#84BE84" rx="3" ry="3" style="stroke: #038048; stroke-width: 1.0;"/><text fill="#000000" font-family="sans-serif" font-size="11" lengthAdjust="spacingAndGlyphs" textLength="164" x="1068" y="129.3979">NonEligibleProceedsIndicator</text><text fill="#000000" font-family="sans-serif" font-size="11" font-style="italic" lengthAdjust="spacingAndGlyphs" textLength="200" x="1236" y="129.3979">(NonEligibleProceedsIndicatorCode)</text><ellipse cx="1059" cy="139.8945" fill="#84BE84" rx="3" ry="3" style="stroke: #038048; stroke-width: 1.0;"/><text fill="#000000" font-family="sans-serif" font-size="11" lengthAdjust="spacingAndGlyphs" textLength="179" x="1068" y="142.2026">IssuerOfferorTaxabilityIndicator</text><text fill="#000000" font-family="sans-serif" font-size="11" font-style="italic" lengthAdjust="spacingAndGlyphs" textLength="70" x="1251" y="142.2026">(Max35Text)</text><ellipse cx="1059" cy="152.6992" fill="#84BE84" rx="3" ry="3" style="stroke: #038048; stroke-width: 1.0;"/><text fill="#000000" font-family="sans-serif" font-size="11" lengthAdjust="spacingAndGlyphs" textLength="115" x="1068" y="155.0073">OfferPriceFixingDate</text><text fill="#000000" font-family="sans-serif" font-size="11" font-style="italic" lengthAdjust="spacingAndGlyphs" textLength="81" x="1187" y="155.0073">(ISODateTime)</text><ellipse cx="1059" cy="165.5039" fill="#84BE84" rx="3" ry="3" style="stroke: #038048; stroke-width: 1.0;"/><text fill="#000000" font-family="sans-serif" font-size="11" lengthAdjust="spacingAndGlyphs" textLength="138" x="1068" y="167.812">CountryOfIncomeSource</text><text fill="#000000" font-family="sans-serif" font-size="11" font-style="italic" lengthAdjust="spacingAndGlyphs" textLength="82" x="1210" y="167.812">(CountryCode)</text></a><!--class SecuritiesProceedsDefinition--><a target="_top" xlink:actuate="onRequest" xlink:href="../SecuritiesProceedsDefinition.html" xlink:show="new" xlink:title="The definition of the securities proceeds for a corporate action in generic terms; that is, before applying it to specific securities holding. An example would be the definition of a  bonus rights issue where all the information will be given in general on a per share basis." xlink:type="simple"><rect fill="#FEFECE" filter="url(#f1uyg7sxcy2zbb)" height="95.9922" id="SecuritiesProceedsDefinition" style="stroke: #A80036; stroke-width: 1.5;" width="498" x="944.505" y="252"/><rect fill="#FEFECE" height="23.9688" style="stroke: #A80036; stroke-width: 1.5;" width="498" x="944.505" y="252"/><text fill="#000000" font-family="sans-serif" font-size="12" lengthAdjust="spacingAndGlyphs" textLength="180" x="1103.505" y="268.1387">SecuritiesProceedsDefinition</text><line style="stroke: #A80036; stroke-width: 1.5;" x1="945.505" x2="1441.505" y1="275.9688" y2="275.9688"/><ellipse cx="955.505" cy="287.8711" fill="#84BE84" rx="3" ry="3" style="stroke: #038048; stroke-width: 1.0;"/><text fill="#000000" font-family="sans-serif" font-size="11" lengthAdjust="spacingAndGlyphs" textLength="120" x="964.505" y="290.1792">ReinvestmentAmount</text><text fill="#000000" font-family="sans-serif" font-size="11" font-style="italic" lengthAdjust="spacingAndGlyphs" textLength="126" x="1088.505" y="290.1792">(CurrencyAndAmount)</text><ellipse cx="955.505" cy="300.6758" fill="#84BE84" rx="3" ry="3" style="stroke: #038048; stroke-width: 1.0;"/><text fill="#000000" font-family="sans-serif" font-size="11" lengthAdjust="spacingAndGlyphs" textLength="221" x="964.505" y="302.9839">IntermediateSecuritiesDistributionType</text><text fill="#000000" font-family="sans-serif" font-size="11" font-style="italic" lengthAdjust="spacingAndGlyphs" textLength="247" x="1189.505" y="302.9839">(IntermediateSecurityDistributionTypeCode)</text><ellipse cx="955.505" cy="313.4805" fill="#84BE84" rx="3" ry="3" style="stroke: #038048; stroke-width: 1.0;"/><text fill="#000000" font-family="sans-serif" font-size="11" lengthAdjust="spacingAndGlyphs" textLength="178" x="964.505" y="315.7886">ReinvestmentDiscountToMarket</text><text fill="#000000" font-family="sans-serif" font-size="11" font-style="italic" lengthAdjust="spacingAndGlyphs" textLength="98" x="1146.505" y="315.7886">(PercentageRate)</text><ellipse cx="955.505" cy="326.2852" fill="#84BE84" rx="3" ry="3" style="stroke: #038048; stroke-width: 1.0;"/><text fill="#000000" font-family="sans-serif" font-size="11" lengthAdjust="spacingAndGlyphs" textLength="93" x="964.505" y="328.5933">RedemptionDate</text><text fill="#000000" font-family="sans-serif" font-size="11" font-style="italic" lengthAdjust="spacingAndGlyphs" textLength="81" x="1061.505" y="328.5933">(ISODateTime)</text><ellipse cx="955.505" cy="339.0898" fill="#84BE84" rx="3" ry="3" style="stroke: #038048; stroke-width: 1.0;"/><text fill="#000000" font-family="sans-serif" font-size="11" lengthAdjust="spacingAndGlyphs" textLength="78" x="964.505" y="341.3979">ShareRanking</text><text fill="#000000" font-family="sans-serif" font-size="11" font-style="italic" lengthAdjust="spacingAndGlyphs" textLength="115" x="1046.505" y="341.3979">(ShareRankingCode)</text></a><!--class CorporateActionOption--><a target="_top" xlink:actuate="onRequest" xlink:href="../CorporateActionOption.html" xlink:show="new" xlink:title="Provides information about the alternatives available to an account owner when participating to a corporate action event. This is defined at a general level without looking at the specificities of the securities balances." xlink:type="simple"><rect fill="#EEEEEE" filter="url(#f1uyg7sxcy2zbb)" height="23.9688" id="CorporateActionOption" style="stroke: #A80036; stroke-width: 1.5;" width="149" x="2704.75" y="430"/><rect fill="#EEEEEE" height="23.9688" style="stroke: #A80036; stroke-width: 1.5;" width="149" x="2704.75" y="430"/><text fill="#000000" font-family="sans-serif" font-size="12" lengthAdjust="spacingAndGlyphs" textLength="143" x="2707.75" y="446.1387">CorporateActionOption</text></a><!--class CorporateActionEvent--><a target="_top" xlink:actuate="onRequest" xlink:href="../CorporateActionEvent.html" xlink:show="new" xlink:title="An event determined by a corporation's board of directors, that changes the existing corporate capital structure or financial condition." xlink:type="simple"><rect fill="#EEEEEE" filter="url(#f1uyg7sxcy2zbb)" height="23.9688" id="CorporateActionEvent" style="stroke: #A80036; stroke-width: 1.5;" width="143" x="2709.75" y="288"/><rect fill="#EEEEEE" height="23.9688" style="stroke: #A80036; stroke-width: 1.5;" width="143" x="2709.75" y="288"/><text fill="#000000" font-family="sans-serif" font-size="12" lengthAdjust="spacingAndGlyphs" textLength="137" x="2712.75" y="304.1387">CorporateActionEvent</text></a><!--class SecuritiesQuantity--><a target="_top" xlink:actuate="onRequest" xlink:href="../SecuritiesQuantity.html" xlink:show="new" xlink:title="Quantity of a security." xlink:type="simple"><rect fill="#EEEEEE" filter="url(#f1uyg7sxcy2zbb)" height="23.9688" id="SecuritiesQuantity" style="stroke: #A80036; stroke-width: 1.5;" width="120" x="1565.5" y="620"/><rect fill="#EEEEEE" height="23.9688" style="stroke: #A80036; stroke-width: 1.5;" width="120" x="1565.5" y="620"/><text fill="#000000" font-family="sans-serif" font-size="12" lengthAdjust="spacingAndGlyphs" textLength="114" x="1568.5" y="636.1387">SecuritiesQuantity</text></a><!--class DateTimePeriod--><a target="_top" xlink:actuate="onRequest" xlink:href="../DateTimePeriod.html" xlink:show="new" xlink:title="Time span defined by a start date and time, and an end date and time." xlink:type="simple"><rect fill="#EEEEEE" filter="url(#f1uyg7sxcy2zbb)" height="23.9688" id="DateTimePeriod" style="stroke: #A80036; stroke-width: 1.5;" width="105" x="1579.75" y="534"/><rect fill="#EEEEEE" height="23.9688" style="stroke: #A80036; stroke-width: 1.5;" width="105" x="1579.75" y="534"/><text fill="#000000" font-family="sans-serif" font-size="12" lengthAdjust="spacingAndGlyphs" textLength="99" x="1582.75" y="550.1387">DateTimePeriod</text></a><!--class QuantityRatio--><a target="_top" xlink:actuate="onRequest" xlink:href="../QuantityRatio.html" xlink:show="new" xlink:title="Ratio expressed as a quotient of quantities." xlink:type="simple"><rect fill="#EEEEEE" filter="url(#f1uyg7sxcy2zbb)" height="23.9688" id="QuantityRatio" style="stroke: #A80036; stroke-width: 1.5;" width="90" x="1595" y="430"/><rect fill="#EEEEEE" height="23.9688" style="stroke: #A80036; stroke-width: 1.5;" width="90" x="1595" y="430"/><text fill="#000000" font-family="sans-serif" font-size="12" lengthAdjust="spacingAndGlyphs" textLength="84" x="1598" y="446.1387">QuantityRatio</text></a><!--link ProceedsDefinition to SecuritiesProceedsDefinition--><path d="M1221.63,193.867 C1216.2,213.785 1210.63,234.268 1205.85,251.803 " fill="none" id="ProceedsDefinition-SecuritiesProceedsDefinition" style="stroke: #A80036; stroke-width: 1.0;"/><polygon fill="none" points="1214.96,191.725,1226.96,174.266,1228.46,195.403,1214.96,191.725" style="stroke: #A80036; stroke-width: 1.0;"/><!--link CorporateActionEvent to CorporateActionOption--><!--link DateTimePeriod to SecuritiesQuantity--><!--link QuantityRatio to DateTimePeriod--><!--link ProceedsDefinition to CorporateActionOption--><path d="M1442.08,136.185 C1723.85,179.242 2256.28,270.889 2695,406 C2714.16,411.899 2734.96,420.548 2751.07,427.772 " fill="none" id="ProceedsDefinition-CorporateActionOption" style="stroke: #A80036; stroke-width: 1.0;"/><polygon fill="#A80036" points="2755.91,429.964,2749.3536,422.6146,2751.353,427.9063,2746.0613,429.9057,2755.91,429.964" style="stroke: #A80036; stroke-width: 1.0;"/><text fill="#000000" font-family="sans-serif" font-size="13" lengthAdjust="spacingAndGlyphs" textLength="42" x="2568" y="304.0669">Option</text><text fill="#000000" font-family="sans-serif" font-size="13" lengthAdjust="spacingAndGlyphs" textLength="24" x="2718.4181" y="418.9998">0..1</text><!--link ProceedsDefinition to CorporateActionEvent--><path d="M1442.2,107.647 C1776.27,109.333 2438.34,123.184 2655,204 C2701.84,221.468 2745.91,262.289 2767.37,284.305 " fill="none" id="ProceedsDefinition-CorporateActionEvent" style="stroke: #A80036; stroke-width: 1.0;"/><polygon fill="#A80036" points="2770.87,287.929,2767.5041,278.6732,2767.4001,284.3291,2761.7442,284.2251,2770.87,287.929" style="stroke: #A80036; stroke-width: 1.0;"/><text fill="#000000" font-family="sans-serif" font-size="13" lengthAdjust="spacingAndGlyphs" textLength="104" x="2691" y="217.0669">CorporateAction</text><text fill="#000000" font-family="sans-serif" font-size="13" lengthAdjust="spacingAndGlyphs" textLength="8" x="2756.5831" y="276.9528">1</text><!--link SecuritiesProceedsDefinition to SecuritiesQuantity--><path d="M1168.04,348.361 C1150.59,388.74 1135.9,445.29 1170,478 C1181.09,488.631 1293.27,481.68 1308,486 C1323.66,490.59 1325.43,496.671 1340,504 C1430.21,549.344 1540.13,595.9775 1593.24,617.9897 " fill="none" id="SecuritiesProceedsDefinition-SecuritiesQuantity" style="stroke: #A80036; stroke-width: 1.0;"/><polygon fill="#A80036" points="1597.9,619.9148,1591.1166,612.7744,1593.2808,618.0009,1588.0543,620.1651,1597.9,619.9148" style="stroke: #A80036; stroke-width: 1.0;"/><text fill="#000000" font-family="sans-serif" font-size="13" lengthAdjust="spacingAndGlyphs" textLength="117" x="1341" y="499.0669">SecuritiesQuantity</text><text fill="#000000" font-family="sans-serif" font-size="13" lengthAdjust="spacingAndGlyphs" textLength="8" x="1577.6938" y="608.9337">1</text><!--link SecuritiesProceedsDefinition to SecuritiesQuantity--><path d="M944.277,304.451 C685.643,310.801 299.54,328.829 161.005,380 C81.4616,409.381 -25.9618,430.317 16.0045,504 C53.0866,569.107 89.0303,569.174 161.005,590 C296.308,629.1511 1294.21,631.2439 1560.08,631.099 " fill="none" id="SecuritiesProceedsDefinition-SecuritiesQuantity" style="stroke: #A80036; stroke-width: 1.0;"/><polygon fill="#A80036" points="1565.08,631.0959,1556.08,627.0959,1560.08,631.0959,1556.08,635.0959,1565.08,631.0959" style="stroke: #A80036; stroke-width: 1.0;"/><text fill="#000000" font-family="sans-serif" font-size="13" lengthAdjust="spacingAndGlyphs" textLength="125" x="17.0045" y="499.0669">ConditionalQuantity</text><text fill="#000000" font-family="sans-serif" font-size="13" lengthAdjust="spacingAndGlyphs" textLength="8" x="1549.3336" y="626.2015">1</text><!--link SecuritiesProceedsDefinition to SecuritiesQuantity--><path d="M944.269,310.989 C614.819,329.192 85.9824,378.277 184.005,504 C280.374,627.6034 370.846,567.846 526.005,590 C727.626,618.7875 1356.44,628.0683 1560.42,630.362 " fill="none" id="SecuritiesProceedsDefinition-SecuritiesQuantity" style="stroke: #A80036; stroke-width: 1.0;"/><polygon fill="#A80036" points="1565.45,630.4182,1556.4963,626.3156,1560.4503,630.3611,1556.4049,634.3151,1565.45,630.4182" style="stroke: #A80036; stroke-width: 1.0;"/><text fill="#000000" font-family="sans-serif" font-size="13" lengthAdjust="spacingAndGlyphs" textLength="322" x="185.005" y="499.0669">OverAndAboveNormalEnsuredEntitlementQuantity</text><text fill="#000000" font-family="sans-serif" font-size="13" lengthAdjust="spacingAndGlyphs" textLength="8" x="1549.3352" y="643.1414">1</text><!--link SecuritiesProceedsDefinition to SecuritiesQuantity--><path d="M944.208,314.905 C860.013,326.051 767.091,345.673 687.005,380 C611.217,412.484 508.985,431.906 549.005,504 C584.079,567.186 617.974,568.609 687.005,590 C769.716,615.63 1361.37,626.9598 1560.1,630.0706 " fill="none" id="SecuritiesProceedsDefinition-SecuritiesQuantity" style="stroke: #A80036; stroke-width: 1.0;"/><polygon fill="#A80036" points="1565.29,630.1515,1556.3599,625.9978,1560.2907,630.0658,1556.2228,633.9966,1565.29,630.1515" style="stroke: #A80036; stroke-width: 1.0;"/><text fill="#000000" font-family="sans-serif" font-size="13" lengthAdjust="spacingAndGlyphs" textLength="118" x="550.005" y="499.0669">QuantityToReceive</text><text fill="#000000" font-family="sans-serif" font-size="13" lengthAdjust="spacingAndGlyphs" textLength="8" x="1549.4809" y="623.331">1</text><!--link SecuritiesProceedsDefinition to SecuritiesQuantity--><path d="M944.164,319.107 C798.584,341.563 653.507,391.782 710.005,504 C738.865,561.324 765.599,568.318 826.005,590 C894.211,614.4819 1382.19,626.2951 1560.22,629.8252 " fill="none" id="SecuritiesProceedsDefinition-SecuritiesQuantity" style="stroke: #A80036; stroke-width: 1.0;"/><polygon fill="#A80036" points="1565.4,629.9272,1556.4818,625.748,1560.401,629.8272,1556.3218,633.7464,1565.4,629.9272" style="stroke: #A80036; stroke-width: 1.0;"/><text fill="#000000" font-family="sans-serif" font-size="13" lengthAdjust="spacingAndGlyphs" textLength="96" x="711.005" y="499.0669">StatusQuantity</text><text fill="#000000" font-family="sans-serif" font-size="13" lengthAdjust="spacingAndGlyphs" textLength="8" x="1549.6866" y="624.9122">1</text><!--link SecuritiesProceedsDefinition to SecuritiesQuantity--><path d="M980.632,348.061 C884.204,380.285 801.193,430.659 849.005,504 C926.335,622.6222 1387.93,632.3896 1560.21,631.8283 " fill="none" id="SecuritiesProceedsDefinition-SecuritiesQuantity" style="stroke: #A80036; stroke-width: 1.0;"/><polygon fill="#A80036" points="1565.23,631.8088,1556.2186,627.8345,1560.23,631.8231,1556.2415,635.8345,1565.23,631.8088" style="stroke: #A80036; stroke-width: 1.0;"/><text fill="#000000" font-family="sans-serif" font-size="13" lengthAdjust="spacingAndGlyphs" textLength="175" x="850.005" y="499.0669">BoardLotSecuritiesQuantity</text><text fill="#000000" font-family="sans-serif" font-size="13" lengthAdjust="spacingAndGlyphs" textLength="8" x="1549.4041" y="645.9544">1</text><!--link SecuritiesProceedsDefinition to SecuritiesQuantity--><path d="M1128.37,348.022 C1077.98,390.42 1022.77,453.655 1063,504 C1124.66,581.1471 1425.57,614.8412 1559.96,626.2168 " fill="none" id="SecuritiesProceedsDefinition-SecuritiesQuantity" style="stroke: #A80036; stroke-width: 1.0;"/><polygon fill="#A80036" points="1565.06,626.6445,1556.4224,621.9125,1560.0772,626.2302,1555.7595,629.885,1565.06,626.6445" style="stroke: #A80036; stroke-width: 1.0;"/><text fill="#000000" font-family="sans-serif" font-size="13" lengthAdjust="spacingAndGlyphs" textLength="234" x="1064" y="499.0669">NewDenominationSecuritiesQuantity</text><text fill="#000000" font-family="sans-serif" font-size="13" lengthAdjust="spacingAndGlyphs" textLength="8" x="1549.1863" y="618.8376">1</text><!--link SecuritiesProceedsDefinition to DateTimePeriod--><path d="M1441.74,307.498 C1807.89,318.295 2452.75,342.525 2488,380 C2521.38,415.471 2507.18,388.178 2367,406 C2108.74,438.836 1804.24,505.484 1684.29,532.852 " fill="none" id="SecuritiesProceedsDefinition-DateTimePeriod" style="stroke: #A80036; stroke-width: 1.0;"/><polygon fill="#A80036" points="1679.41,533.967,1689.0751,535.8607,1684.2843,532.8527,1687.2922,528.0619,1679.41,533.967" style="stroke: #A80036; stroke-width: 1.0;"/><text fill="#000000" font-family="sans-serif" font-size="13" lengthAdjust="spacingAndGlyphs" textLength="133" x="2368" y="446.0669">ParallelTradingPeriod</text><text fill="#000000" font-family="sans-serif" font-size="13" lengthAdjust="spacingAndGlyphs" textLength="8" x="1684.9025" y="523.0039">1</text><!--link SecuritiesProceedsDefinition to DateTimePeriod--><path d="M1172.89,348.036 C1168.75,364.292 1167.41,382.345 1174,398 C1193.78,444.919 1209.22,457.92 1256,478 C1277.67,487.296 1444.97,481.017 1468,486 C1488.66,490.467 1492.22,496.581 1512,504 C1538.85,514.068 1569.44,524.503 1593.01,532.326 " fill="none" id="SecuritiesProceedsDefinition-DateTimePeriod" style="stroke: #A80036; stroke-width: 1.0;"/><polygon fill="#A80036" points="1597.93,533.955,1590.643,527.3293,1593.1833,532.3837,1588.1289,534.9241,1597.93,533.955" style="stroke: #A80036; stroke-width: 1.0;"/><text fill="#000000" font-family="sans-serif" font-size="13" lengthAdjust="spacingAndGlyphs" textLength="126" x="1257" y="446.0669">AssentedLinePeriod</text><text fill="#000000" font-family="sans-serif" font-size="13" lengthAdjust="spacingAndGlyphs" textLength="8" x="1575.4138" y="522.9877">1</text><!--link SecuritiesProceedsDefinition to DateTimePeriod--><path d="M1194.71,348.215 C1197.94,366.592 1205.04,386.064 1220,398 C1234.7,409.723 1372.32,397.344 1389,406 C1424.99,424.667 1409.76,457.96 1445,478 C1469.92,492.17 1481.5,477.918 1509,486 C1545.65,496.767 1584.93,517.378 1608.99,531.161 " fill="none" id="SecuritiesProceedsDefinition-DateTimePeriod" style="stroke: #A80036; stroke-width: 1.0;"/><polygon fill="#A80036" points="1613.59,533.821,1607.7959,525.8568,1609.2599,531.3209,1603.7958,532.785,1613.59,533.821" style="stroke: #A80036; stroke-width: 1.0;"/><text fill="#000000" font-family="sans-serif" font-size="13" lengthAdjust="spacingAndGlyphs" textLength="129" x="1446" y="446.0669">SellThruIssuerPeriod</text><text fill="#000000" font-family="sans-serif" font-size="13" lengthAdjust="spacingAndGlyphs" textLength="8" x="1596.4569" y="522.8077">1</text><!--link SecuritiesProceedsDefinition to QuantityRatio--><path d="M1441.84,318.374 C1596.35,331.768 1770,352.631 1794,380 C1826.49,417.039 1746.52,431.823 1690.06,437.551 " fill="none" id="SecuritiesProceedsDefinition-QuantityRatio" style="stroke: #A80036; stroke-width: 1.0;"/><polygon fill="#A80036" points="1685.02,438.045,1694.3748,441.1251,1689.9949,437.5451,1693.575,433.1652,1685.02,438.045" style="stroke: #A80036; stroke-width: 1.0;"/><text fill="#000000" font-family="sans-serif" font-size="13" lengthAdjust="spacingAndGlyphs" textLength="331" x="1803" y="393.0669">AdditionalQuantityForSubscribedResultantSecurities</text><text fill="#000000" font-family="sans-serif" font-size="13" lengthAdjust="spacingAndGlyphs" textLength="8" x="1693.1389" y="432.0626">1</text><!--link SecuritiesProceedsDefinition to QuantityRatio--><path d="M1441.52,304.567 C1707.32,311.021 2097.2,329.144 2144,380 C2149.42,385.886 2149.42,392.108 2144,398 C2113.75,430.943 1812.48,438.686 1690.69,440.474 " fill="none" id="SecuritiesProceedsDefinition-QuantityRatio" style="stroke: #A80036; stroke-width: 1.0;"/><polygon fill="#A80036" points="1685.38,440.55,1694.4362,444.421,1690.3795,440.4786,1694.3219,436.4218,1685.38,440.55" style="stroke: #A80036; stroke-width: 1.0;"/><text fill="#000000" font-family="sans-serif" font-size="13" lengthAdjust="spacingAndGlyphs" textLength="249" x="2150" y="393.0669">AdditionalQuantityForExistingSecurities</text><text fill="#000000" font-family="sans-serif" font-size="13" lengthAdjust="spacingAndGlyphs" textLength="8" x="1692.9413" y="453.5559">1</text><!--link SecuritiesProceedsDefinition to QuantityRatio--><path d="M1441.56,308.546 C1787.69,320.287 2376.43,345.244 2409,380 C2414.47,385.837 2414.5,392.187 2409,398 C2405.9,401.279 1860.51,429.64 1690.21,438.42 " fill="none" id="SecuritiesProceedsDefinition-QuantityRatio" style="stroke: #A80036; stroke-width: 1.0;"/><polygon fill="#A80036" points="1685.03,438.687,1694.2238,442.2188,1690.0234,438.4298,1693.8124,434.2294,1685.03,438.687" style="stroke: #A80036; stroke-width: 1.0;"/><text fill="#000000" font-family="sans-serif" font-size="13" lengthAdjust="spacingAndGlyphs" textLength="63" x="2415" y="393.0669">NewToOld</text><text fill="#000000" font-family="sans-serif" font-size="13" lengthAdjust="spacingAndGlyphs" textLength="8" x="1692.5424" y="429.9149">1</text><!--link SecuritiesProceedsDefinition to QuantityRatio--><path d="M1208.1,348.219 C1216.67,367.071 1229.49,386.902 1248,398 C1263.26,407.143 1550.73,401.795 1568,406 C1585.84,410.341 1604.44,419.518 1618.26,427.386 " fill="none" id="SecuritiesProceedsDefinition-QuantityRatio" style="stroke: #A80036; stroke-width: 1.0;"/><polygon fill="#A80036" points="1622.76,429.996,1616.9901,422.0142,1618.4375,427.4828,1612.969,428.9302,1622.76,429.996" style="stroke: #A80036; stroke-width: 1.0;"/><text fill="#000000" font-family="sans-serif" font-size="13" lengthAdjust="spacingAndGlyphs" textLength="236" x="1249" y="393.0669">NewSecuritiesToUnderlyingSecurities</text><text fill="#000000" font-family="sans-serif" font-size="13" lengthAdjust="spacingAndGlyphs" textLength="8" x="1618.2088" y="419.0428">1</text><!--link SecuritiesProceedsDefinition to QuantityRatio--><path d="M1398.04,348.001 C1429.61,357.337 1461.5,368.017 1491,380 C1506.12,386.14 1507.64,392.494 1523,398 C1542.13,404.854 1548.69,399.722 1568,406 C1584.87,411.48 1602.81,420.191 1616.56,427.551 " fill="none" id="SecuritiesProceedsDefinition-QuantityRatio" style="stroke: #A80036; stroke-width: 1.0;"/><polygon fill="#A80036" points="1621.05,429.988,1615.048,422.1793,1616.6555,427.603,1611.2319,429.2105,1621.05,429.988" style="stroke: #A80036; stroke-width: 1.0;"/><text fill="#000000" font-family="sans-serif" font-size="13" lengthAdjust="spacingAndGlyphs" textLength="260" x="1524" y="393.0669">IntermediateSecuritiesToUnderlyingRatio</text><text fill="#000000" font-family="sans-serif" font-size="13" lengthAdjust="spacingAndGlyphs" textLength="8" x="1603.8172" y="419.0321">1</text><!--link CorporateActionOption to DateTimePeriod--><path d="M2751.12,454.013 C2711.89,468.856 2637.83,494.512 2572,504 C2400.3,528.751 1866.41,540.655 1689.56,543.991 " fill="none" id="CorporateActionOption-DateTimePeriod" style="stroke: #A80036; stroke-width: 1.0;"/><polygon fill="#A80036" points="1684.43,544.088,1693.4973,547.9331,1689.4293,544.0023,1693.3601,539.9343,1684.43,544.088" style="stroke: #A80036; stroke-width: 1.0;"/><text fill="#000000" font-family="sans-serif" font-size="13" lengthAdjust="spacingAndGlyphs" textLength="80" x="2654" y="499.0669">ActionPeriod</text><text fill="#000000" font-family="sans-serif" font-size="13" lengthAdjust="spacingAndGlyphs" textLength="8" x="1692.6814" y="538.6377">1</text><!--link CorporateActionEvent to SecuritiesQuantity--><path d="M2832.4,312.068 C2880.28,325.404 2948.95,352.972 2981,406 C2997.56,433.386 3001.64,453.539 2981,478 C2896.67,577.9885 1948.61,619.3282 1689.89,628.7944 " fill="none" id="CorporateActionEvent-SecuritiesQuantity" style="stroke: #A80036; stroke-width: 1.0;"/><polygon fill="#A80036" points="1684.65,628.9853,1693.7924,632.6483,1689.6466,628.7996,1693.4952,624.6538,1684.65,628.9853" style="stroke: #A80036; stroke-width: 1.0;"/><text fill="#000000" font-family="sans-serif" font-size="13" lengthAdjust="spacingAndGlyphs" textLength="116" x="2970" y="499.0669">FractionalQuantity</text><text fill="#000000" font-family="sans-serif" font-size="13" lengthAdjust="spacingAndGlyphs" textLength="7" x="1693.4602" y="623.4445">*</text><!--link CorporateActionEvent to SecuritiesQuantity--><path d="M2833.73,312.088 C2943.43,337.437 3179.38,405.165 3096,504 C3004.14,612.9004 1962.34,628.4358 1689.88,630.6386 " fill="none" id="CorporateActionEvent-SecuritiesQuantity" style="stroke: #A80036; stroke-width: 1.0;"/><polygon fill="#A80036" points="1684.76,630.6792,1693.794,634.6019,1689.7598,630.6363,1693.7254,626.6022,1684.76,630.6792" style="stroke: #A80036; stroke-width: 1.0;"/><text fill="#000000" font-family="sans-serif" font-size="13" lengthAdjust="spacingAndGlyphs" textLength="117" x="3108" y="499.0669">SecuritiesQuantity</text><text fill="#000000" font-family="sans-serif" font-size="13" lengthAdjust="spacingAndGlyphs" textLength="7" x="1693.5856" y="643.6266">*</text><!--link CorporateActionEvent to SecuritiesQuantity--><path d="M2852.51,306.415 C3005.27,320.696 3341.21,368.121 3235,504 C3138.34,627.6683 1978.9,632.1583 1689.92,631.3425 " fill="none" id="CorporateActionEvent-SecuritiesQuantity" style="stroke: #A80036; stroke-width: 1.0;"/><polygon fill="#A80036" points="1684.9,631.3275,1693.8885,635.3532,1689.9,631.3418,1693.9114,627.3532,1684.9,631.3275" style="stroke: #A80036; stroke-width: 1.0;"/><text fill="#000000" font-family="sans-serif" font-size="13" lengthAdjust="spacingAndGlyphs" textLength="163" x="3246" y="499.0669">SecuritiesQuantitySought</text><text fill="#000000" font-family="sans-serif" font-size="13" lengthAdjust="spacingAndGlyphs" textLength="8" x="1693.24" y="624.4968">1</text><!--link CorporateActionEvent to DateTimePeriod--><path d="M2768.47,312.184 C2750.51,327.668 2715.88,355.579 2682,372 C2632.89,395.806 2609.33,375.596 2564,406 C2530.11,428.736 2543.04,458.835 2507,478 C2435.08,516.251 1872.62,537.352 1689.45,543.262 " fill="none" id="CorporateActionEvent-DateTimePeriod" style="stroke: #A80036; stroke-width: 1.0;"/><polygon fill="#A80036" points="1684.4,543.424,1693.5213,547.1391,1689.3975,543.2668,1693.2698,539.1431,1684.4,543.424" style="stroke: #A80036; stroke-width: 1.0;"/><text fill="#000000" font-family="sans-serif" font-size="13" lengthAdjust="spacingAndGlyphs" textLength="120" x="2565" y="446.0669">BookClosurePeriod</text><text fill="#000000" font-family="sans-serif" font-size="13" lengthAdjust="spacingAndGlyphs" textLength="8" x="1692.647" y="556.2262">1</text><!--link CorporateActionEvent to DateTimePeriod--><path d="M2794.73,312.118 C2829.44,341.537 2914.87,422.936 2870,478 C2833.89,522.33 2800.77,497.145 2744,504 C2536.79,529.023 1887.12,541.014 1689.56,544.146 " fill="none" id="CorporateActionEvent-DateTimePeriod" style="stroke: #A80036; stroke-width: 1.0;"/><polygon fill="#A80036" points="1684.42,544.227,1693.4762,548.098,1689.4195,544.1556,1693.3619,540.0988,1684.42,544.227" style="stroke: #A80036; stroke-width: 1.0;"/><text fill="#000000" font-family="sans-serif" font-size="13" lengthAdjust="spacingAndGlyphs" textLength="87" x="2884" y="446.0669">TradingPeriod</text><text fill="#000000" font-family="sans-serif" font-size="13" lengthAdjust="spacingAndGlyphs" textLength="8" x="1692.8139" y="558.436">1</text></g></svg>