<?xml version="1.0" encoding="UTF-8" standalone="no"?><svg xmlns="http://www.w3.org/2000/svg" xmlns:xlink="http://www.w3.org/1999/xlink" contentScriptType="application/ecmascript" contentStyleType="text/css" height="530px" preserveAspectRatio="none" style="width:1661px;height:530px;" version="1.1" viewBox="0 0 1661 530" width="1661px" zoomAndPan="magnify"><defs><filter height="300%" id="fjbv18lgtreo4" width="300%" x="-1" y="-1"><feGaussianBlur result="blurOut" stdDeviation="2.0"/><feColorMatrix in="blurOut" result="blurOut2" type="matrix" values="0 0 0 0 0 0 0 0 0 0 0 0 0 0 0 0 0 0 .4 0"/><feOffset dx="4.0" dy="4.0" in="blurOut2" result="blurOut3"/><feBlend in="SourceGraphic" in2="blurOut3" mode="normal"/></filter></defs><g><!--cluster ##6301--><!--cluster ##6313--><!--cluster ##6322--><!--cluster ##6327--><!--class Role--><a target="_top" xlink:actuate="onRequest" xlink:href="../Role.html" xlink:show="new" xlink:title="Role of a party in an activity." xlink:type="simple"><rect fill="#FEFEEE" filter="url(#fjbv18lgtreo4)" height="44.7734" id="Role" style="stroke: #A80036; stroke-width: 1.5;" width="175" x="112.75" y="40.5"/><rect fill="#FEFEEE" height="23.9688" style="stroke: #A80036; stroke-width: 1.5;" width="175" x="112.75" y="40.5"/><text fill="#000000" font-family="sans-serif" font-size="12" lengthAdjust="spacingAndGlyphs" textLength="27" x="186.75" y="56.6387">Role</text><line style="stroke: #A80036; stroke-width: 1.5;" x1="113.75" x2="286.75" y1="64.4688" y2="64.4688"/><ellipse cx="123.75" cy="76.3711" fill="#84BE84" rx="3" ry="3" style="stroke: #038048; stroke-width: 1.0;"/><text fill="#000000" font-family="sans-serif" font-size="11" lengthAdjust="spacingAndGlyphs" textLength="53" x="132.75" y="78.6792">PartyRole</text><text fill="#000000" font-family="sans-serif" font-size="11" font-style="italic" lengthAdjust="spacingAndGlyphs" textLength="92" x="189.75" y="78.6792">(PartyRoleCode)</text></a><!--class SettlementPartyRole--><a target="_top" xlink:actuate="onRequest" xlink:href="../SettlementPartyRole.html" xlink:show="new" xlink:title="Role played by a party in a settlement process." xlink:type="simple"><rect fill="#FEFEEE" filter="url(#fjbv18lgtreo4)" height="23.9688" id="SettlementPartyRole" style="stroke: #A80036; stroke-width: 1.5;" width="134" x="149" y="166"/><rect fill="#FEFEEE" height="23.9688" style="stroke: #A80036; stroke-width: 1.5;" width="134" x="149" y="166"/><text fill="#000000" font-family="sans-serif" font-size="12" lengthAdjust="spacingAndGlyphs" textLength="128" x="152" y="182.1387">SettlementPartyRole</text></a><!--class SecuritiesSettlementPartyRole--><a target="_top" xlink:actuate="onRequest" xlink:href="../SecuritiesSettlementPartyRole.html" xlink:show="new" xlink:title="Role played by a party in the context of the settlement of securities." xlink:type="simple"><rect fill="#FEFECE" filter="url(#fjbv18lgtreo4)" height="57.5781" id="SecuritiesSettlementPartyRole" style="stroke: #A80036; stroke-width: 1.5;" width="249" x="38.75" y="268"/><rect fill="#FEFECE" height="23.9688" style="stroke: #A80036; stroke-width: 1.5;" width="249" x="38.75" y="268"/><text fill="#000000" font-family="sans-serif" font-size="12" lengthAdjust="spacingAndGlyphs" textLength="190" x="68.25" y="284.1387">SecuritiesSettlementPartyRole</text><line style="stroke: #A80036; stroke-width: 1.5;" x1="39.75" x2="286.75" y1="291.9688" y2="291.9688"/><ellipse cx="49.75" cy="303.8711" fill="#84BE84" rx="3" ry="3" style="stroke: #038048; stroke-width: 1.0;"/><text fill="#000000" font-family="sans-serif" font-size="11" lengthAdjust="spacingAndGlyphs" textLength="91" x="58.75" y="306.1792">SettlingCapacity</text><text fill="#000000" font-family="sans-serif" font-size="11" font-style="italic" lengthAdjust="spacingAndGlyphs" textLength="128" x="153.75" y="306.1792">(SettlingCapacityCode)</text><ellipse cx="49.75" cy="316.6758" fill="#84BE84" rx="3" ry="3" style="stroke: #038048; stroke-width: 1.0;"/><text fill="#000000" font-family="sans-serif" font-size="11" lengthAdjust="spacingAndGlyphs" textLength="68" x="58.75" y="318.9839">TaxCapacity</text><text fill="#000000" font-family="sans-serif" font-size="11" font-style="italic" lengthAdjust="spacingAndGlyphs" textLength="101" x="130.75" y="318.9839">(TaxLiabilityCode)</text></a><!--class PlaceOfSettlement--><a target="_top" xlink:actuate="onRequest" xlink:href="../PlaceOfSettlement.html" xlink:show="new" xlink:title="Place where settlement of securities occurs." xlink:type="simple"><rect fill="#FEFEEE" filter="url(#fjbv18lgtreo4)" height="23.9688" id="PlaceOfSettlement" style="stroke: #A80036; stroke-width: 1.5;" width="122" x="102" y="406"/><rect fill="#FEFEEE" height="23.9688" style="stroke: #A80036; stroke-width: 1.5;" width="122" x="102" y="406"/><text fill="#000000" font-family="sans-serif" font-size="12" lengthAdjust="spacingAndGlyphs" textLength="116" x="105" y="422.1387">PlaceOfSettlement</text></a><!--class RolePlayer--><a target="_top" xlink:actuate="onRequest" xlink:href="../RolePlayer.html" xlink:show="new" xlink:title="Type of entity that plays a specific role in a specific context." xlink:type="simple"><rect fill="#EEEEEE" filter="url(#fjbv18lgtreo4)" height="23.9688" id="RolePlayer" style="stroke: #A80036; stroke-width: 1.5;" width="71" x="1236.75" y="496"/><rect fill="#EEEEEE" height="23.9688" style="stroke: #A80036; stroke-width: 1.5;" width="71" x="1236.75" y="496"/><text fill="#000000" font-family="sans-serif" font-size="12" lengthAdjust="spacingAndGlyphs" textLength="65" x="1239.75" y="512.1387">RolePlayer</text></a><!--class ContactPersonRole--><a target="_top" xlink:actuate="onRequest" xlink:href="../ContactPersonRole.html" xlink:show="new" xlink:title="Person to be contacted in a given organisation. In the corporate action domain (including meeting notifications) , it is the contact person at the party organising the meeting, at the issuer or at an intermediary." xlink:type="simple"><rect fill="#EEEEEE" filter="url(#fjbv18lgtreo4)" height="23.9688" id="ContactPersonRole" style="stroke: #A80036; stroke-width: 1.5;" width="126" x="1189" y="406"/><rect fill="#EEEEEE" height="23.9688" style="stroke: #A80036; stroke-width: 1.5;" width="126" x="1189" y="406"/><text fill="#000000" font-family="sans-serif" font-size="12" lengthAdjust="spacingAndGlyphs" textLength="120" x="1192" y="422.1387">ContactPersonRole</text></a><!--class CounterpartyRisk--><a target="_top" xlink:actuate="onRequest" xlink:href="../CounterpartyRisk.html" xlink:show="new" xlink:title="Calculation of the exposure amount that one party has vis-a-vis one counterparty or a central system, based on its credit risk." xlink:type="simple"><rect fill="#EEEEEE" filter="url(#fjbv18lgtreo4)" height="23.9688" id="CounterpartyRisk" style="stroke: #A80036; stroke-width: 1.5;" width="113" x="1201.75" y="285"/><rect fill="#EEEEEE" height="23.9688" style="stroke: #A80036; stroke-width: 1.5;" width="113" x="1201.75" y="285"/><text fill="#000000" font-family="sans-serif" font-size="12" lengthAdjust="spacingAndGlyphs" textLength="107" x="1204.75" y="301.1387">CounterpartyRisk</text></a><!--class Entry--><a target="_top" xlink:actuate="onRequest" xlink:href="../Entry.html" xlink:show="new" xlink:title="Posting to an account that results in an increase or decrease to a balance." xlink:type="simple"><rect fill="#EEEEEE" filter="url(#fjbv18lgtreo4)" height="23.9688" id="Entry" style="stroke: #A80036; stroke-width: 1.5;" width="38" x="1189" y="166"/><rect fill="#EEEEEE" height="23.9688" style="stroke: #A80036; stroke-width: 1.5;" width="38" x="1189" y="166"/><text fill="#000000" font-family="sans-serif" font-size="12" lengthAdjust="spacingAndGlyphs" textLength="32" x="1192" y="182.1387">Entry</text></a><!--class Account--><a target="_top" xlink:actuate="onRequest" xlink:href="../Account.html" xlink:show="new" xlink:title="Record of transactions in specific types of assets, maintained by a servicing party on behalf of one or more owning parties. Business relationship between an account servicer and one or more account owners." xlink:type="simple"><rect fill="#EEEEEE" filter="url(#fjbv18lgtreo4)" height="23.9688" id="Account" style="stroke: #A80036; stroke-width: 1.5;" width="57" x="769.75" y="406"/><rect fill="#EEEEEE" height="23.9688" style="stroke: #A80036; stroke-width: 1.5;" width="57" x="769.75" y="406"/><text fill="#000000" font-family="sans-serif" font-size="12" lengthAdjust="spacingAndGlyphs" textLength="51" x="772.75" y="422.1387">Account</text></a><!--class Settlement--><a target="_top" xlink:actuate="onRequest" xlink:href="../Settlement.html" xlink:show="new" xlink:title="Process which consists in transferring the proceeds related to a trade from one party to the next one." xlink:type="simple"><rect fill="#EEEEEE" filter="url(#fjbv18lgtreo4)" height="23.9688" id="Settlement" style="stroke: #A80036; stroke-width: 1.5;" width="75" x="768.75" y="285"/><rect fill="#EEEEEE" height="23.9688" style="stroke: #A80036; stroke-width: 1.5;" width="75" x="768.75" y="285"/><text fill="#000000" font-family="sans-serif" font-size="12" lengthAdjust="spacingAndGlyphs" textLength="69" x="771.75" y="301.1387">Settlement</text></a><!--class SecuritiesSettlement--><a target="_top" xlink:actuate="onRequest" xlink:href="../SecuritiesSettlement.html" xlink:show="new" xlink:title="Settlement of the securities in a securities transaction, that is, the instruction to deliver or receive securities, involving the payment of an amount of money or not." xlink:type="simple"><rect fill="#EEEEEE" filter="url(#fjbv18lgtreo4)" height="23.9688" id="SecuritiesSettlement" style="stroke: #A80036; stroke-width: 1.5;" width="137" x="382.75" y="496"/><rect fill="#EEEEEE" height="23.9688" style="stroke: #A80036; stroke-width: 1.5;" width="137" x="382.75" y="496"/><text fill="#000000" font-family="sans-serif" font-size="12" lengthAdjust="spacingAndGlyphs" textLength="131" x="385.75" y="512.1387">SecuritiesSettlement</text></a><!--class SecuritiesSettlementSystem--><a target="_top" xlink:actuate="onRequest" xlink:href="../SecuritiesSettlementSystem.html" xlink:show="new" xlink:title="Specifies the system used in a settlement process." xlink:type="simple"><rect fill="#EEEEEE" filter="url(#fjbv18lgtreo4)" height="23.9688" id="SecuritiesSettlementSystem" style="stroke: #A80036; stroke-width: 1.5;" width="182" x="344" y="406"/><rect fill="#EEEEEE" height="23.9688" style="stroke: #A80036; stroke-width: 1.5;" width="182" x="344" y="406"/><text fill="#000000" font-family="sans-serif" font-size="12" lengthAdjust="spacingAndGlyphs" textLength="176" x="347" y="422.1387">SecuritiesSettlementSystem</text></a><!--link Role to SettlementPartyRole--><path d="M205.884,105.559 C208.943,127.159 212.446,151.898 214.423,165.865 " fill="none" id="Role-SettlementPartyRole" style="stroke: #A80036; stroke-width: 1.0;"/><polygon fill="none" points="198.92,106.304,203.047,85.52,212.782,104.342,198.92,106.304" style="stroke: #A80036; stroke-width: 1.0;"/><!--link SettlementPartyRole to SecuritiesSettlementPartyRole--><path d="M202.557,208.675 C194.322,226.855 183.843,249.987 175.74,267.876 " fill="none" id="SettlementPartyRole-SecuritiesSettlementPartyRole" style="stroke: #A80036; stroke-width: 1.0;"/><polygon fill="none" points="196.289,205.548,210.918,190.218,209.042,211.325,196.289,205.548" style="stroke: #A80036; stroke-width: 1.0;"/><!--link SecuritiesSettlementPartyRole to PlaceOfSettlement--><path d="M163,346.486 C163,368.304 163,392.171 163,405.79 " fill="none" id="SecuritiesSettlementPartyRole-PlaceOfSettlement" style="stroke: #A80036; stroke-width: 1.0;"/><polygon fill="none" points="156,346.201,163,326.201,170,346.201,156,346.201" style="stroke: #A80036; stroke-width: 1.0;"/><!--link ContactPersonRole to RolePlayer--><!--link CounterpartyRisk to ContactPersonRole--><!--link Entry to CounterpartyRisk--><!--link Settlement to Account--><!--link SecuritiesSettlementSystem to SecuritiesSettlement--><!--link Role to RolePlayer--><path d="M287.546,65.956 C518.163,71.434 1138.58,88.358 1342,116 C1462.62,132.39 1609,55.276 1609,177 C1609,177 1609,177 1609,419 C1609,479.6217 1402.27,499.2654 1312.64,504.9332 " fill="none" id="Role-RolePlayer" style="stroke: #A80036; stroke-width: 1.0;"/><polygon fill="#A80036" points="1307.43,505.2555,1316.6636,508.6819,1312.4201,504.9412,1316.1608,500.6977,1307.43,505.2555" style="stroke: #A80036; stroke-width: 1.0;"/><text fill="#000000" font-family="sans-serif" font-size="13" lengthAdjust="spacingAndGlyphs" textLength="39" x="1610" y="301.0669">Player</text><text fill="#000000" font-family="sans-serif" font-size="13" lengthAdjust="spacingAndGlyphs" textLength="7" x="1315.8913" y="498.8806">*</text><!--link Role to ContactPersonRole--><path d="M287.703,66.346 C556.452,73.976 1352.54,100.046 1388,142 C1460.57,227.854 1321.03,359.074 1269.81,402.493 " fill="none" id="Role-ContactPersonRole" style="stroke: #A80036; stroke-width: 1.0;"/><polygon fill="#A80036" points="1265.7,405.943,1275.1584,403.1972,1269.5217,402.719,1269.9999,397.0824,1265.7,405.943" style="stroke: #A80036; stroke-width: 1.0;"/><text fill="#000000" font-family="sans-serif" font-size="13" lengthAdjust="spacingAndGlyphs" textLength="121" x="1406" y="233.0669">ContactPersonRole</text><text fill="#000000" font-family="sans-serif" font-size="13" lengthAdjust="spacingAndGlyphs" textLength="8" x="1259.6906" y="394.9716">1</text><!--link Role to CounterpartyRisk--><path d="M287.515,64.196 C526.42,65.601 1176.47,75.55 1244,142 C1281.08,178.49 1270.05,247.982 1262.49,279.602 " fill="none" id="Role-CounterpartyRisk" style="stroke: #A80036; stroke-width: 1.0;"/><polygon fill="#A80036" points="1261.23,284.695,1267.2805,276.9238,1262.4346,279.8423,1259.5161,274.9964,1261.23,284.695" style="stroke: #A80036; stroke-width: 1.0;"/><text fill="#000000" font-family="sans-serif" font-size="13" lengthAdjust="spacingAndGlyphs" textLength="109" x="1269" y="182.0669">CounterpartyRisk</text><text fill="#000000" font-family="sans-serif" font-size="13" lengthAdjust="spacingAndGlyphs" textLength="24" x="1232.9109" y="273.8974">0..1</text><!--link Role to Entry--><path d="M287.252,73.781 C504.503,98.136 1061.01,160.522 1183.79,174.286 " fill="none" id="Role-Entry" style="stroke: #A80036; stroke-width: 1.0;"/><polygon fill="#A80036" points="1188.98,174.867,1180.4818,169.889,1184.0111,174.3098,1179.5903,177.8392,1188.98,174.867" style="stroke: #A80036; stroke-width: 1.0;"/><text fill="#000000" font-family="sans-serif" font-size="13" lengthAdjust="spacingAndGlyphs" textLength="33" x="825" y="129.0669">Entry</text><text fill="#000000" font-family="sans-serif" font-size="13" lengthAdjust="spacingAndGlyphs" textLength="8" x="1172.9241" y="167.5408">1</text><!--link SettlementPartyRole to Account--><path d="M283.173,182.539 C440.577,191.525 822.808,217.636 860,261 C897.043,304.19 841.525,372.235 813.083,402.105 " fill="none" id="SettlementPartyRole-Account" style="stroke: #A80036; stroke-width: 1.0;"/><polygon fill="#A80036" points="809.426,405.891,818.5548,402.1944,812.8988,402.2939,812.7994,396.6379,809.426,405.891" style="stroke: #A80036; stroke-width: 1.0;"/><text fill="#000000" font-family="sans-serif" font-size="13" lengthAdjust="spacingAndGlyphs" textLength="124" x="874" y="301.0669">SettlementAccount</text><text fill="#000000" font-family="sans-serif" font-size="13" lengthAdjust="spacingAndGlyphs" textLength="8" x="802.549" y="394.9017">1</text><!--link SettlementPartyRole to Settlement--><path d="M271.506,190.007 C388.576,213.223 658.608,266.771 763.372,287.547 " fill="none" id="SettlementPartyRole-Settlement" style="stroke: #A80036; stroke-width: 1.0;"/><polygon fill="#A80036" points="768.535,288.57,760.4853,282.8953,763.6306,287.5971,758.9287,290.7424,768.535,288.57" style="stroke: #A80036; stroke-width: 1.0;"/><text fill="#000000" font-family="sans-serif" font-size="13" lengthAdjust="spacingAndGlyphs" textLength="72" x="512" y="233.0669">Settlement</text><text fill="#000000" font-family="sans-serif" font-size="13" lengthAdjust="spacingAndGlyphs" textLength="8" x="752.7273" y="281.9517">1</text><!--link SecuritiesSettlementPartyRole to SecuritiesSettlement--><path d="M287.655,306.773 C377.145,315.109 488.479,330.288 527,356 C564.436,380.988 565.844,417.218 543,456 C532.405,473.9875 512.928,486.08 494.614,493.9555 " fill="none" id="SecuritiesSettlementPartyRole-SecuritiesSettlement" style="stroke: #A80036; stroke-width: 1.0;"/><polygon fill="#A80036" points="489.989,495.8679,499.8345,496.1265,494.6098,493.9579,496.7784,488.7332,489.989,495.8679" style="stroke: #A80036; stroke-width: 1.0;"/><text fill="#000000" font-family="sans-serif" font-size="13" lengthAdjust="spacingAndGlyphs" textLength="135" x="560" y="422.0669">SecuritiesSettlement</text><text fill="#000000" font-family="sans-serif" font-size="13" lengthAdjust="spacingAndGlyphs" textLength="7" x="493.7587" y="484.8707">*</text><!--link SecuritiesSettlementPartyRole to SecuritiesSettlementSystem--><path d="M227.116,326.051 C283.223,350.598 362.237,385.166 404.879,403.822 " fill="none" id="SecuritiesSettlementPartyRole-SecuritiesSettlementSystem" style="stroke: #A80036; stroke-width: 1.0;"/><polygon fill="#A80036" points="409.643,405.906,403.0007,398.6341,405.0622,403.902,399.7943,405.9634,409.643,405.906" style="stroke: #A80036; stroke-width: 1.0;"/><text fill="#000000" font-family="sans-serif" font-size="13" lengthAdjust="spacingAndGlyphs" textLength="184" x="333" y="369.0669">SecuritiesSettlementSystem</text><text fill="#000000" font-family="sans-serif" font-size="13" lengthAdjust="spacingAndGlyphs" textLength="7" x="391.3797" y="394.9219">*</text><!--link Entry to Account--><path d="M1196.77,190.304 C1166.22,220.916 1081.69,304.557 1049,326 C1004.738,355.031 989.644,355.629 940,374 C903.348,387.563 860.263,400.153 831.244,408.16 " fill="none" id="Entry-Account" style="stroke: #A80036; stroke-width: 1.0;"/><polygon fill="#A80036" points="826.353,409.503,836.091,410.9764,831.1744,408.1787,833.9722,403.2621,826.353,409.503" style="stroke: #A80036; stroke-width: 1.0;"/><text fill="#000000" font-family="sans-serif" font-size="13" lengthAdjust="spacingAndGlyphs" textLength="52" x="1124" y="301.0669">Account</text><text fill="#000000" font-family="sans-serif" font-size="13" lengthAdjust="spacingAndGlyphs" textLength="7" x="834.8463" y="401.024">*</text><!--link Account to Account--><path d="M826.508,409.984 C844.181,408.051 861,410.723 861,418 C861,424.538 847.424,427.359 831.85,426.463 " fill="none" id="Account-Account" style="stroke: #A80036; stroke-width: 1.0;"/><polygon fill="#A80036" points="826.508,426.016,835.1443,430.7504,831.4907,426.4317,835.8094,422.7781,826.508,426.016" style="stroke: #A80036; stroke-width: 1.0;"/><text fill="#000000" font-family="sans-serif" font-size="13" lengthAdjust="spacingAndGlyphs" textLength="94" x="867" y="422.0669">ParentAccount</text><text fill="#000000" font-family="sans-serif" font-size="13" lengthAdjust="spacingAndGlyphs" textLength="8" x="834.7741" y="421.9799">1</text></g></svg>