<?xml version="1.0" encoding="UTF-8" standalone="no"?><svg xmlns="http://www.w3.org/2000/svg" xmlns:xlink="http://www.w3.org/1999/xlink" contentScriptType="application/ecmascript" contentStyleType="text/css" height="764px" preserveAspectRatio="none" style="width:4056px;height:764px;" version="1.1" viewBox="0 0 4056 764" width="4056px" zoomAndPan="magnify"><defs><filter height="300%" id="fo83cgy065fbk" width="300%" x="-1" y="-1"><feGaussianBlur result="blurOut" stdDeviation="2.0"/><feColorMatrix in="blurOut" result="blurOut2" type="matrix" values="0 0 0 0 0 0 0 0 0 0 0 0 0 0 0 0 0 0 .4 0"/><feOffset dx="4.0" dy="4.0" in="blurOut2" result="blurOut3"/><feBlend in="SourceGraphic" in2="blurOut3" mode="normal"/></filter></defs><g><!--cluster ##15139--><!--cluster ##15145--><!--cluster ##15156--><!--class Distribution--><a target="_top" xlink:actuate="onRequest" xlink:href="../Distribution.html" xlink:show="new" xlink:title="Distributions in cash and/or securities following a corporate event." xlink:type="simple"><rect fill="#FEFEEE" filter="url(#fo83cgy065fbk)" height="211.2344" id="Distribution" style="stroke: #A80036; stroke-width: 1.5;" width="324" x="2699" y="40.5"/><rect fill="#FEFEEE" height="23.9688" style="stroke: #A80036; stroke-width: 1.5;" width="324" x="2699" y="40.5"/><text fill="#000000" font-family="sans-serif" font-size="12" lengthAdjust="spacingAndGlyphs" textLength="72" x="2825" y="56.6387">Distribution</text><line style="stroke: #A80036; stroke-width: 1.5;" x1="2700" x2="3022" y1="64.4688" y2="64.4688"/><ellipse cx="2710" cy="76.3711" fill="#84BE84" rx="3" ry="3" style="stroke: #038048; stroke-width: 1.0;"/><text fill="#000000" font-family="sans-serif" font-size="11" lengthAdjust="spacingAndGlyphs" textLength="74" x="2719" y="78.6792">EffectiveDate</text><text fill="#000000" font-family="sans-serif" font-size="11" font-style="italic" lengthAdjust="spacingAndGlyphs" textLength="81" x="2797" y="78.6792">(ISODateTime)</text><ellipse cx="2710" cy="89.1758" fill="#84BE84" rx="3" ry="3" style="stroke: #038048; stroke-width: 1.0;"/><text fill="#000000" font-family="sans-serif" font-size="11" lengthAdjust="spacingAndGlyphs" textLength="91" x="2719" y="91.4839">EventConditions</text><text fill="#000000" font-family="sans-serif" font-size="11" font-style="italic" lengthAdjust="spacingAndGlyphs" textLength="77" x="2814" y="91.4839">(Max350Text)</text><ellipse cx="2710" cy="101.9805" fill="#84BE84" rx="3" ry="3" style="stroke: #038048; stroke-width: 1.0;"/><text fill="#000000" font-family="sans-serif" font-size="11" lengthAdjust="spacingAndGlyphs" textLength="39" x="2719" y="104.2886">ExDate</text><text fill="#000000" font-family="sans-serif" font-size="11" font-style="italic" lengthAdjust="spacingAndGlyphs" textLength="81" x="2762" y="104.2886">(ISODateTime)</text><ellipse cx="2710" cy="114.7852" fill="#84BE84" rx="3" ry="3" style="stroke: #038048; stroke-width: 1.0;"/><text fill="#000000" font-family="sans-serif" font-size="11" lengthAdjust="spacingAndGlyphs" textLength="60" x="2719" y="117.0933">GrossRate</text><text fill="#000000" font-family="sans-serif" font-size="11" font-style="italic" lengthAdjust="spacingAndGlyphs" textLength="98" x="2783" y="117.0933">(PercentageRate)</text><ellipse cx="2710" cy="127.5898" fill="#84BE84" rx="3" ry="3" style="stroke: #038048; stroke-width: 1.0;"/><text fill="#000000" font-family="sans-serif" font-size="11" lengthAdjust="spacingAndGlyphs" textLength="70" x="2719" y="129.8979">MeetingDate</text><text fill="#000000" font-family="sans-serif" font-size="11" font-style="italic" lengthAdjust="spacingAndGlyphs" textLength="81" x="2793" y="129.8979">(ISODateTime)</text><ellipse cx="2710" cy="140.3945" fill="#84BE84" rx="3" ry="3" style="stroke: #038048; stroke-width: 1.0;"/><text fill="#000000" font-family="sans-serif" font-size="11" lengthAdjust="spacingAndGlyphs" textLength="44" x="2719" y="142.7026">NetRate</text><text fill="#000000" font-family="sans-serif" font-size="11" font-style="italic" lengthAdjust="spacingAndGlyphs" textLength="98" x="2767" y="142.7026">(PercentageRate)</text><ellipse cx="2710" cy="153.1992" fill="#84BE84" rx="3" ry="3" style="stroke: #038048; stroke-width: 1.0;"/><text fill="#000000" font-family="sans-serif" font-size="11" lengthAdjust="spacingAndGlyphs" textLength="81" x="2719" y="155.5073">NewFaceValue</text><text fill="#000000" font-family="sans-serif" font-size="11" font-style="italic" lengthAdjust="spacingAndGlyphs" textLength="126" x="2804" y="155.5073">(CurrencyAndAmount)</text><ellipse cx="2710" cy="166.0039" fill="#84BE84" rx="3" ry="3" style="stroke: #038048; stroke-width: 1.0;"/><text fill="#000000" font-family="sans-serif" font-size="11" lengthAdjust="spacingAndGlyphs" textLength="74" x="2719" y="168.312">NewParValue</text><text fill="#000000" font-family="sans-serif" font-size="11" font-style="italic" lengthAdjust="spacingAndGlyphs" textLength="126" x="2797" y="168.312">(CurrencyAndAmount)</text><ellipse cx="2710" cy="178.8086" fill="#84BE84" rx="3" ry="3" style="stroke: #038048; stroke-width: 1.0;"/><text fill="#000000" font-family="sans-serif" font-size="11" lengthAdjust="spacingAndGlyphs" textLength="75" x="2719" y="181.1167">PaymentDate</text><text fill="#000000" font-family="sans-serif" font-size="11" font-style="italic" lengthAdjust="spacingAndGlyphs" textLength="81" x="2798" y="181.1167">(ISODateTime)</text><ellipse cx="2710" cy="191.6133" fill="#84BE84" rx="3" ry="3" style="stroke: #038048; stroke-width: 1.0;"/><text fill="#000000" font-family="sans-serif" font-size="11" lengthAdjust="spacingAndGlyphs" textLength="128" x="2719" y="193.9214">CorporateActionOption</text><text fill="#000000" font-family="sans-serif" font-size="11" font-style="italic" lengthAdjust="spacingAndGlyphs" textLength="166" x="2851" y="193.9214">(CorporateActionOptionCode)</text><ellipse cx="2710" cy="204.418" fill="#84BE84" rx="3" ry="3" style="stroke: #038048; stroke-width: 1.0;"/><text fill="#000000" font-family="sans-serif" font-size="11" lengthAdjust="spacingAndGlyphs" textLength="88" x="2719" y="206.7261">CurrencyOption</text><text fill="#000000" font-family="sans-serif" font-size="11" font-style="italic" lengthAdjust="spacingAndGlyphs" textLength="89" x="2811" y="206.7261">(CurrencyCode)</text><ellipse cx="2710" cy="217.2227" fill="#84BE84" rx="3" ry="3" style="stroke: #038048; stroke-width: 1.0;"/><text fill="#000000" font-family="sans-serif" font-size="11" lengthAdjust="spacingAndGlyphs" textLength="97" x="2719" y="219.5308">DecreaseAmount</text><text fill="#000000" font-family="sans-serif" font-size="11" font-style="italic" lengthAdjust="spacingAndGlyphs" textLength="126" x="2820" y="219.5308">(CurrencyAndAmount)</text><ellipse cx="2710" cy="230.0273" fill="#84BE84" rx="3" ry="3" style="stroke: #038048; stroke-width: 1.0;"/><text fill="#000000" font-family="sans-serif" font-size="11" lengthAdjust="spacingAndGlyphs" textLength="79" x="2719" y="232.3354">DecreaseRate</text><text fill="#000000" font-family="sans-serif" font-size="11" font-style="italic" lengthAdjust="spacingAndGlyphs" textLength="98" x="2802" y="232.3354">(PercentageRate)</text><ellipse cx="2710" cy="242.832" fill="#84BE84" rx="3" ry="3" style="stroke: #038048; stroke-width: 1.0;"/><text fill="#000000" font-family="sans-serif" font-size="11" lengthAdjust="spacingAndGlyphs" textLength="115" x="2719" y="245.1401">OfferPriceFixingDate</text><text fill="#000000" font-family="sans-serif" font-size="11" font-style="italic" lengthAdjust="spacingAndGlyphs" textLength="81" x="2838" y="245.1401">(ISODateTime)</text></a><!--class SecuritiesAndCashDistribution--><a target="_top" xlink:actuate="onRequest" xlink:href="../SecuritiesAndCashDistribution.html" xlink:show="new" xlink:title="Characteristics for a mixed cash and securities distribution event." xlink:type="simple"><rect fill="#FEFECE" filter="url(#fo83cgy065fbk)" height="23.9688" id="SecuritiesAndCashDistribution" style="stroke: #A80036; stroke-width: 1.5;" width="195" x="2698.75" y="332"/><rect fill="#FEFECE" height="23.9688" style="stroke: #A80036; stroke-width: 1.5;" width="195" x="2698.75" y="332"/><text fill="#000000" font-family="sans-serif" font-size="12" lengthAdjust="spacingAndGlyphs" textLength="189" x="2701.75" y="348.1387">SecuritiesAndCashDistribution</text></a><!--class DateTimePeriod--><a target="_top" xlink:actuate="onRequest" xlink:href="../DateTimePeriod.html" xlink:show="new" xlink:title="Time span defined by a start date and time, and an end date and time." xlink:type="simple"><rect fill="#EEEEEE" filter="url(#fo83cgy065fbk)" height="23.9688" id="DateTimePeriod" style="stroke: #A80036; stroke-width: 1.5;" width="105" x="3188.75" y="332"/><rect fill="#EEEEEE" height="23.9688" style="stroke: #A80036; stroke-width: 1.5;" width="105" x="3188.75" y="332"/><text fill="#000000" font-family="sans-serif" font-size="12" lengthAdjust="spacingAndGlyphs" textLength="99" x="3191.75" y="348.1387">DateTimePeriod</text></a><!--class Tax--><a target="_top" xlink:actuate="onRequest" xlink:href="../Tax.html" xlink:show="new" xlink:title="Amount of money due to the government or tax authority, according to various pre-defined parameters such as thresholds or income." xlink:type="simple"><rect fill="#EEEEEE" filter="url(#fo83cgy065fbk)" height="23.9688" id="Tax" style="stroke: #A80036; stroke-width: 1.5;" width="27" x="3587.75" y="540"/><rect fill="#EEEEEE" height="23.9688" style="stroke: #A80036; stroke-width: 1.5;" width="27" x="3587.75" y="540"/><text fill="#000000" font-family="sans-serif" font-size="12" lengthAdjust="spacingAndGlyphs" textLength="21" x="3590.75" y="556.1387">Tax</text></a><!--class SecuritiesPricing--><a target="_top" xlink:actuate="onRequest" xlink:href="../SecuritiesPricing.html" xlink:show="new" xlink:title="Characteristics related to the price of the security." xlink:type="simple"><rect fill="#EEEEEE" filter="url(#fo83cgy065fbk)" height="23.9688" id="SecuritiesPricing" style="stroke: #A80036; stroke-width: 1.5;" width="110" x="3326" y="438"/><rect fill="#EEEEEE" height="23.9688" style="stroke: #A80036; stroke-width: 1.5;" width="110" x="3326" y="438"/><text fill="#000000" font-family="sans-serif" font-size="12" lengthAdjust="spacingAndGlyphs" textLength="104" x="3329" y="454.1387">SecuritiesPricing</text></a><!--class IncentivePremium--><a target="_top" xlink:actuate="onRequest" xlink:href="../IncentivePremium.html" xlink:show="new" xlink:title="Cash premium made available if the securities holder consents or participates to an event." xlink:type="simple"><rect fill="#EEEEEE" filter="url(#fo83cgy065fbk)" height="23.9688" id="IncentivePremium" style="stroke: #A80036; stroke-width: 1.5;" width="116" x="3499.5" y="730"/><rect fill="#EEEEEE" height="23.9688" style="stroke: #A80036; stroke-width: 1.5;" width="116" x="3499.5" y="730"/><text fill="#000000" font-family="sans-serif" font-size="12" lengthAdjust="spacingAndGlyphs" textLength="110" x="3502.5" y="746.1387">IncentivePremium</text></a><!--class Dividend--><a target="_top" xlink:actuate="onRequest" xlink:href="../Dividend.html" xlink:show="new" xlink:title="Distribution of earnings to shareholders, paid for in cash, stock, scrip issue or, rarely, in kind, for example, in company products or property. The dividend amount is decided by the board of directors." xlink:type="simple"><rect fill="#EEEEEE" filter="url(#fo83cgy065fbk)" height="23.9688" id="Dividend" style="stroke: #A80036; stroke-width: 1.5;" width="59" x="3552.75" y="644"/><rect fill="#EEEEEE" height="23.9688" style="stroke: #A80036; stroke-width: 1.5;" width="59" x="3552.75" y="644"/><text fill="#000000" font-family="sans-serif" font-size="12" lengthAdjust="spacingAndGlyphs" textLength="53" x="3555.75" y="660.1387">Dividend</text></a><!--class SecuritiesQuantity--><a target="_top" xlink:actuate="onRequest" xlink:href="../SecuritiesQuantity.html" xlink:show="new" xlink:title="Quantity of a security." xlink:type="simple"><rect fill="#EEEEEE" filter="url(#fo83cgy065fbk)" height="23.9688" id="SecuritiesQuantity" style="stroke: #A80036; stroke-width: 1.5;" width="120" x="1606.5" y="438"/><rect fill="#EEEEEE" height="23.9688" style="stroke: #A80036; stroke-width: 1.5;" width="120" x="1606.5" y="438"/><text fill="#000000" font-family="sans-serif" font-size="12" lengthAdjust="spacingAndGlyphs" textLength="114" x="1609.5" y="454.1387">SecuritiesQuantity</text></a><!--class SecuritiesDistribution--><a target="_top" xlink:actuate="onRequest" xlink:href="../SecuritiesDistribution.html" xlink:show="new" xlink:title="Characteristics for a securities distribution event." xlink:type="simple"><rect fill="#EEEEEE" filter="url(#fo83cgy065fbk)" height="23.9688" id="SecuritiesDistribution" style="stroke: #A80036; stroke-width: 1.5;" width="140" x="1427" y="540"/><rect fill="#EEEEEE" height="23.9688" style="stroke: #A80036; stroke-width: 1.5;" width="140" x="1427" y="540"/><text fill="#000000" font-family="sans-serif" font-size="12" lengthAdjust="spacingAndGlyphs" textLength="134" x="1430" y="556.1387">SecuritiesDistribution</text></a><!--class CashDistribution--><a target="_top" xlink:actuate="onRequest" xlink:href="../CashDistribution.html" xlink:show="new" xlink:title="Distribution of cash pay-out." xlink:type="simple"><rect fill="#EEEEEE" filter="url(#fo83cgy065fbk)" height="23.9688" id="CashDistribution" style="stroke: #A80036; stroke-width: 1.5;" width="109" x="2461.75" y="438"/><rect fill="#EEEEEE" height="23.9688" style="stroke: #A80036; stroke-width: 1.5;" width="109" x="2461.75" y="438"/><text fill="#000000" font-family="sans-serif" font-size="12" lengthAdjust="spacingAndGlyphs" textLength="103" x="2464.75" y="454.1387">CashDistribution</text></a><!--link Distribution to SecuritiesAndCashDistribution--><path d="M2804.17,270.612 C2803.02,274.424 2801.96,278.226 2801,282 C2796.69,298.885 2795.85,319.17 2795.8,331.57 " fill="none" id="Distribution-SecuritiesAndCashDistribution" style="stroke: #A80036; stroke-width: 1.0;"/><polygon fill="none" points="2797.55,268.316,2810.49,251.537,2810.84,272.724,2797.55,268.316" style="stroke: #A80036; stroke-width: 1.0;"/><!--link Tax to DateTimePeriod--><!--link SecuritiesPricing to Tax--><!--link IncentivePremium to SecuritiesPricing--><!--link Dividend to IncentivePremium--><!--link SecuritiesDistribution to SecuritiesQuantity--><!--link SecuritiesQuantity to SecuritiesDistribution--><path d="M1606.46,453.93 C1513.69,459.111 1343.32,471.341 1325,492 C1292.65,528.468 1361.9,542.408 1421.96,547.729 " fill="none" id="SecuritiesQuantity-SecuritiesDistribution" style="stroke: #A80036; stroke-width: 1.0;"/><polygon fill="#A80036" points="1427,548.158,1418.3624,543.426,1422.0172,547.7437,1417.6995,551.3985,1427,548.158" style="stroke: #A80036; stroke-width: 1.0;"/><text fill="#000000" font-family="sans-serif" font-size="13" lengthAdjust="spacingAndGlyphs" textLength="295" x="1326" y="505.0669">MaximumHoldingRelatedSecuritiesDistribution</text><text fill="#000000" font-family="sans-serif" font-size="13" lengthAdjust="spacingAndGlyphs" textLength="8" x="1411.0859" y="560.5697">1</text><!--link SecuritiesQuantity to SecuritiesDistribution--><path d="M1661.4,462.247 C1655.4,475.538 1643.67,497.432 1627,510 C1609.33,523.323 1587.23,532.383 1566.28,538.517 " fill="none" id="SecuritiesQuantity-SecuritiesDistribution" style="stroke: #A80036; stroke-width: 1.0;"/><polygon fill="#A80036" points="1561.27,539.937,1571.0179,541.3435,1566.0822,538.5796,1568.8461,533.644,1561.27,539.937" style="stroke: #A80036; stroke-width: 1.0;"/><text fill="#000000" font-family="sans-serif" font-size="13" lengthAdjust="spacingAndGlyphs" textLength="419" x="1646" y="505.0669">IntermediateToUnderlyingNumeratorRelatedSecuritiesDistribution</text><text fill="#000000" font-family="sans-serif" font-size="13" lengthAdjust="spacingAndGlyphs" textLength="8" x="1572.6441" y="528.9636">1</text><!--link SecuritiesQuantity to SecuritiesDistribution--><path d="M1725.51,450.706 C1850.21,451.106 2123.6,457.835 2075,510 C2041.43,546.032 1721.08,550.93 1572.28,551.242 " fill="none" id="SecuritiesQuantity-SecuritiesDistribution" style="stroke: #A80036; stroke-width: 1.0;"/><polygon fill="#A80036" points="1567.06,551.251,1576.06,555.251,1572.06,551.251,1576.06,547.251,1567.06,551.251" style="stroke: #A80036; stroke-width: 1.0;"/><text fill="#000000" font-family="sans-serif" font-size="13" lengthAdjust="spacingAndGlyphs" textLength="433" x="2082" y="505.0669">IntermediateToUnderlyingDenominatorRelatedSecuritiesDistribution</text><text fill="#000000" font-family="sans-serif" font-size="13" lengthAdjust="spacingAndGlyphs" textLength="8" x="1574.7316" y="565.0689">1</text><!--link SecuritiesQuantity to SecuritiesDistribution--><path d="M1606.03,451.406 C1318.91,453.487 97.311,463.978 70,492 C64.4163,497.729 64.425,504.262 70,510 C93.7437,534.436 1130.12,547.148 1421.5,550.244 " fill="none" id="SecuritiesQuantity-SecuritiesDistribution" style="stroke: #A80036; stroke-width: 1.0;"/><polygon fill="#A80036" points="1426.58,550.297,1417.6263,546.1944,1421.5803,550.2399,1417.5349,554.1939,1426.58,550.297" style="stroke: #A80036; stroke-width: 1.0;"/><text fill="#000000" font-family="sans-serif" font-size="13" lengthAdjust="spacingAndGlyphs" textLength="421" x="71" y="505.0669">DistributedToUnderlyingDenominatorRelatedSecuritiesDistribution</text><text fill="#000000" font-family="sans-serif" font-size="13" lengthAdjust="spacingAndGlyphs" textLength="8" x="1411.2204" y="544.0234">1</text><!--link SecuritiesQuantity to SecuritiesDistribution--><path d="M1606.2,450.894 C1377.81,450.78 571.478,453.14 534,492 C528.446,497.758 528.465,504.224 534,510 C564.568,541.897 1200.21,549.07 1421.69,550.603 " fill="none" id="SecuritiesQuantity-SecuritiesDistribution" style="stroke: #A80036; stroke-width: 1.0;"/><polygon fill="#A80036" points="1426.85,550.638,1417.8846,546.561,1421.8502,550.5951,1417.816,554.5607,1426.85,550.638" style="stroke: #A80036; stroke-width: 1.0;"/><text fill="#000000" font-family="sans-serif" font-size="13" lengthAdjust="spacingAndGlyphs" textLength="407" x="535" y="505.0669">DistributedToUnderlyingNumeratorRelatedSecuritiesDistribution</text><text fill="#000000" font-family="sans-serif" font-size="13" lengthAdjust="spacingAndGlyphs" textLength="8" x="1410.7259" y="564.221">1</text><!--link SecuritiesQuantity to SecuritiesDistribution--><path d="M1606.49,452.369 C1443.81,456.4 1002.302,469.384 981,492 C975.515,497.823 975.572,504.123 981,510 C1010.25,541.671 1285.62,548.899 1421.67,550.533 " fill="none" id="SecuritiesQuantity-SecuritiesDistribution" style="stroke: #A80036; stroke-width: 1.0;"/><polygon fill="#A80036" points="1426.84,550.593,1417.8863,546.4904,1421.8403,550.5358,1417.7949,554.4899,1426.84,550.593" style="stroke: #A80036; stroke-width: 1.0;"/><text fill="#000000" font-family="sans-serif" font-size="13" lengthAdjust="spacingAndGlyphs" textLength="291" x="982" y="505.0669">MinimumHoldingRelatedSecuritiesDistribution</text><text fill="#000000" font-family="sans-serif" font-size="13" lengthAdjust="spacingAndGlyphs" textLength="8" x="1410.9112" y="563.2292">1</text><!--link CashDistribution to SecuritiesDistribution--><!--link Distribution to DateTimePeriod--><path d="M3018.72,251.545 C3052.58,272.945 3083.67,291.529 3102,300 C3129.96,312.917 3162.81,323.283 3189.55,330.598 " fill="none" id="Distribution-DateTimePeriod" style="stroke: #A80036; stroke-width: 1.0;"/><polygon fill="#A80036" points="3194.47,331.929,3186.8198,325.7262,3189.642,330.6288,3184.7395,333.451,3194.47,331.929" style="stroke: #A80036; stroke-width: 1.0;"/><text fill="#000000" font-family="sans-serif" font-size="13" lengthAdjust="spacingAndGlyphs" textLength="93" x="3103" y="295.0669">ExercisePeriod</text><text fill="#000000" font-family="sans-serif" font-size="13" lengthAdjust="spacingAndGlyphs" textLength="8" x="3172.8486" y="323.0017">1</text><!--link Distribution to DateTimePeriod--><path d="M3023.12,188.109 C3083.78,209.119 3150.41,239.472 3202,282 C3216.68,294.106 3227.64,313.23 3234.14,326.835 " fill="none" id="Distribution-DateTimePeriod" style="stroke: #A80036; stroke-width: 1.0;"/><polygon fill="#A80036" points="3236.34,331.575,3236.1826,321.7274,3234.2365,327.039,3228.925,325.0929,3236.34,331.575" style="stroke: #A80036; stroke-width: 1.0;"/><text fill="#000000" font-family="sans-serif" font-size="13" lengthAdjust="spacingAndGlyphs" textLength="71" x="3218" y="295.0669">OfferPeriod</text><text fill="#000000" font-family="sans-serif" font-size="13" lengthAdjust="spacingAndGlyphs" textLength="8" x="3224.1812" y="320.9982">1</text><!--link Distribution to DateTimePeriod--><path d="M3023.09,176.181 C3133.43,199.725 3265.33,236.387 3299,282 C3311.99,299.598 3289.96,317.47 3269.42,329.281 " fill="none" id="Distribution-DateTimePeriod" style="stroke: #A80036; stroke-width: 1.0;"/><polygon fill="#A80036" points="3264.81,331.854,3274.6175,330.9527,3269.174,329.4137,3270.713,323.9702,3264.81,331.854" style="stroke: #A80036; stroke-width: 1.0;"/><text fill="#000000" font-family="sans-serif" font-size="13" lengthAdjust="spacingAndGlyphs" textLength="87" x="3303" y="295.0669">TradingPeriod</text><text fill="#000000" font-family="sans-serif" font-size="13" lengthAdjust="spacingAndGlyphs" textLength="8" x="3262.19" y="320.852">1</text><!--link Distribution to DateTimePeriod--><path d="M2818.15,251.567 C2817.17,269.538 2821.19,286.683 2834,300 C2841.9,308.215 3027.67,306.802 3039,308 C3087.95,313.173 3142.96,322.97 3183.2,330.887 " fill="none" id="Distribution-DateTimePeriod" style="stroke: #A80036; stroke-width: 1.0;"/><polygon fill="#A80036" points="3188.53,331.941,3180.4787,326.2685,3183.6253,330.9695,3178.9243,334.116,3188.53,331.941" style="stroke: #A80036; stroke-width: 1.0;"/><text fill="#000000" font-family="sans-serif" font-size="13" lengthAdjust="spacingAndGlyphs" textLength="93" x="2835" y="295.0669">BlockingPeriod</text><text fill="#000000" font-family="sans-serif" font-size="13" lengthAdjust="spacingAndGlyphs" textLength="8" x="3172.8561" y="343.4902">1</text><!--link Distribution to DateTimePeriod--><path d="M2918.03,251.583 C2932.88,270.472 2950.56,287.963 2971,300 C2984.11,307.722 3023.94,305.811 3039,308 C3087.71,315.08 3142.74,324.724 3183.05,332.096 " fill="none" id="Distribution-DateTimePeriod" style="stroke: #A80036; stroke-width: 1.0;"/><polygon fill="#A80036" points="3188.39,333.075,3180.2572,327.52,3183.4717,332.1748,3178.8169,335.3893,3188.39,333.075" style="stroke: #A80036; stroke-width: 1.0;"/><text fill="#000000" font-family="sans-serif" font-size="13" lengthAdjust="spacingAndGlyphs" textLength="89" x="2972" y="295.0669">InterestPeriod</text><text fill="#000000" font-family="sans-serif" font-size="13" lengthAdjust="spacingAndGlyphs" textLength="8" x="3172.6999" y="326.9054">1</text><!--link Distribution to Tax--><path d="M3023.24,156.723 C3229.97,172.89 3569.84,213.431 3647,308 C3703.31,377.011 3638.16,493.738 3611.42,535.537 " fill="none" id="Distribution-Tax" style="stroke: #A80036; stroke-width: 1.0;"/><polygon fill="#A80036" points="3608.65,539.802,3616.8971,534.4182,3611.3659,535.6039,3610.1802,530.0727,3608.65,539.802" style="stroke: #A80036; stroke-width: 1.0;"/><text fill="#000000" font-family="sans-serif" font-size="13" lengthAdjust="spacingAndGlyphs" textLength="95" x="3669" y="401.0669">DistributionTax</text><text fill="#000000" font-family="sans-serif" font-size="13" lengthAdjust="spacingAndGlyphs" textLength="8" x="3600.445" y="529.0399">1</text><!--link Distribution to SecuritiesPricing--><path d="M3023.21,175.796 C3217.65,214.34 3524.5,289.436 3581,388 C3584.98,394.941 3586.03,399.777 3581,406 C3563.65,427.478 3493.6,438.728 3441.26,444.252 " fill="none" id="Distribution-SecuritiesPricing" style="stroke: #A80036; stroke-width: 1.0;"/><polygon fill="#A80036" points="3436.25,444.769,3445.6136,447.8222,3441.2235,444.2548,3444.7909,439.8646,3436.25,444.769" style="stroke: #A80036; stroke-width: 1.0;"/><text fill="#000000" font-family="sans-serif" font-size="13" lengthAdjust="spacingAndGlyphs" textLength="62" x="3575" y="348.0669">OfferPrice</text><text fill="#000000" font-family="sans-serif" font-size="13" lengthAdjust="spacingAndGlyphs" textLength="8" x="3443.8414" y="439.0871">1</text><!--link Distribution to IncentivePremium--><path d="M3023.05,160.257 C3321.54,186.871 3928,252.125 3928,343 C3928,343 3928,343 3928,657 C3928,719.4271 3725.66,735.4615 3619.84,739.5786 " fill="none" id="Distribution-IncentivePremium" style="stroke: #A80036; stroke-width: 1.0;"/><polygon fill="#A80036" points="3614.56,739.777,3623.7024,743.4399,3619.5565,739.5913,3623.4052,735.4455,3614.56,739.777" style="stroke: #A80036; stroke-width: 1.0;"/><text fill="#000000" font-family="sans-serif" font-size="13" lengthAdjust="spacingAndGlyphs" textLength="115" x="3929" y="505.0669">IncentivePremium</text><text fill="#000000" font-family="sans-serif" font-size="13" lengthAdjust="spacingAndGlyphs" textLength="24" x="3623.4083" y="734.4805">0..1</text><!--link Distribution to Dividend--><path d="M3023.17,147.348 C3295.92,152.363 3817,182.894 3817,343 C3817,343 3817,343 3817,553 C3817,639.303 3681.98,653.377 3616.63,655.134 " fill="none" id="Distribution-Dividend" style="stroke: #A80036; stroke-width: 1.0;"/><polygon fill="#A80036" points="3611.29,655.254,3620.3791,659.0472,3616.2887,655.1397,3620.1962,651.0493,3611.29,655.254" style="stroke: #A80036; stroke-width: 1.0;"/><text fill="#000000" font-family="sans-serif" font-size="13" lengthAdjust="spacingAndGlyphs" textLength="55" x="3818" y="454.0669">Dividend</text><text fill="#000000" font-family="sans-serif" font-size="13" lengthAdjust="spacingAndGlyphs" textLength="8" x="3619.7565" y="648.9726">1</text><!--link SecuritiesAndCashDistribution to SecuritiesQuantity--><path d="M2698.65,346.514 C2539.77,349.78 2231.91,359.651 2127,388 C2109.73,392.666 2108.18,401.018 2091,406 C1967.16,441.91 1815.51,448.877 1730.94,449.651 " fill="none" id="SecuritiesAndCashDistribution-SecuritiesQuantity" style="stroke: #A80036; stroke-width: 1.0;"/><polygon fill="#A80036" points="1725.71,449.692,1734.744,453.6147,1730.7098,449.6491,1734.6754,445.615,1725.71,449.692" style="stroke: #A80036; stroke-width: 1.0;"/><text fill="#000000" font-family="sans-serif" font-size="13" lengthAdjust="spacingAndGlyphs" textLength="249" x="2128" y="401.0669">IntermediateToUnderlyingDenominator</text><text fill="#000000" font-family="sans-serif" font-size="13" lengthAdjust="spacingAndGlyphs" textLength="8" x="1734.5989" y="444.5318">1</text><!--link SecuritiesAndCashDistribution to SecuritiesQuantity--><path d="M2698.47,346.814 C2621.23,350.455 2511.36,360.579 2419,388 C2401.85,393.091 2400.28,401.371 2383,406 C2261.06,438.672 1883.49,446.561 1730.93,448.432 " fill="none" id="SecuritiesAndCashDistribution-SecuritiesQuantity" style="stroke: #A80036; stroke-width: 1.0;"/><polygon fill="#A80036" points="1725.6,448.496,1734.6451,452.3929,1730.5997,448.4388,1734.5537,444.3934,1725.6,448.496" style="stroke: #A80036; stroke-width: 1.0;"/><text fill="#000000" font-family="sans-serif" font-size="13" lengthAdjust="spacingAndGlyphs" textLength="111" x="2420" y="401.0669">MaximumHolding</text><text fill="#000000" font-family="sans-serif" font-size="13" lengthAdjust="spacingAndGlyphs" textLength="8" x="1734.4734" y="461.4176">1</text><!--link SecuritiesAndCashDistribution to SecuritiesQuantity--><path d="M2709.6,356.027 C2667.67,362.793 2616.97,373.085 2573,388 C2556.06,393.747 2554.3,401.462 2537,406 C2517.54,411.104 1929.61,437.39 1730.89,446.153 " fill="none" id="SecuritiesAndCashDistribution-SecuritiesQuantity" style="stroke: #A80036; stroke-width: 1.0;"/><polygon fill="#A80036" points="1725.7,446.382,1734.8632,449.9925,1730.6954,446.1677,1734.5203,441.9999,1725.7,446.382" style="stroke: #A80036; stroke-width: 1.0;"/><text fill="#000000" font-family="sans-serif" font-size="13" lengthAdjust="spacingAndGlyphs" textLength="189" x="2574" y="401.0669">MaximumExercisableQuantity</text><text fill="#000000" font-family="sans-serif" font-size="13" lengthAdjust="spacingAndGlyphs" textLength="8" x="1734.6538" y="438.462">1</text><!--link SecuritiesAndCashDistribution to SecuritiesQuantity--><path d="M2794.62,356.319 C2792.21,370.644 2785.75,394.799 2769,406 C2753.99,416.039 2462.05,413.372 2444,414 C2179.18,423.215 1863.87,438.833 1730.57,445.65 " fill="none" id="SecuritiesAndCashDistribution-SecuritiesQuantity" style="stroke: #A80036; stroke-width: 1.0;"/><polygon fill="#A80036" points="1725.52,445.909,1734.7138,449.4409,1730.5134,445.6519,1734.3024,441.4515,1725.52,445.909" style="stroke: #A80036; stroke-width: 1.0;"/><text fill="#000000" font-family="sans-serif" font-size="13" lengthAdjust="spacingAndGlyphs" textLength="185" x="2786" y="401.0669">MinimumExercisableQuantity</text><text fill="#000000" font-family="sans-serif" font-size="13" lengthAdjust="spacingAndGlyphs" textLength="8" x="1734.3822" y="440.2168">1</text><!--link SecuritiesAndCashDistribution to SecuritiesQuantity--><path d="M2698.74,345.73 C2349.8,348.577 1180.1,360.184 1153,388 C1147.42,393.73 1147.58,400.112 1153,406 C1182.76,438.361 1469.86,446.379 1601.11,448.357 " fill="none" id="SecuritiesAndCashDistribution-SecuritiesQuantity" style="stroke: #A80036; stroke-width: 1.0;"/><polygon fill="#A80036" points="1606.47,448.435,1597.5281,444.3068,1601.4705,448.3636,1597.4138,452.306,1606.47,448.435" style="stroke: #A80036; stroke-width: 1.0;"/><text fill="#000000" font-family="sans-serif" font-size="13" lengthAdjust="spacingAndGlyphs" textLength="237" x="1154" y="401.0669">DistributedToUnderlyingDenominator</text><text fill="#000000" font-family="sans-serif" font-size="13" lengthAdjust="spacingAndGlyphs" textLength="8" x="1590.3573" y="443.41">1</text><!--link SecuritiesAndCashDistribution to SecuritiesQuantity--><path d="M2698.61,344.406 C2393.99,343.025 1476.93,342.664 1433,388 C1427.43,393.745 1427.88,399.851 1433,406 C1454.05,431.293 1539.81,441.767 1601.16,446.065 " fill="none" id="SecuritiesAndCashDistribution-SecuritiesQuantity" style="stroke: #A80036; stroke-width: 1.0;"/><polygon fill="#A80036" points="1606.28,446.413,1597.5755,441.8051,1601.2918,446.0701,1597.0268,449.7863,1606.28,446.413" style="stroke: #A80036; stroke-width: 1.0;"/><text fill="#000000" font-family="sans-serif" font-size="13" lengthAdjust="spacingAndGlyphs" textLength="235" x="1434" y="401.0669">IntermediateToUnderlyingNumerator</text><text fill="#000000" font-family="sans-serif" font-size="13" lengthAdjust="spacingAndGlyphs" textLength="8" x="1590.5542" y="458.8919">1</text><!--link SecuritiesAndCashDistribution to SecuritiesQuantity--><path d="M2698.58,346.58 C2440.2,351.073 1754.2,365.1 1711,388 C1692.72,397.691 1679.92,418.487 1672.76,433.092 " fill="none" id="SecuritiesAndCashDistribution-SecuritiesQuantity" style="stroke: #A80036; stroke-width: 1.0;"/><polygon fill="#A80036" points="1670.55,437.783,1678.0018,431.3433,1672.6793,433.259,1670.7635,427.9365,1670.55,437.783" style="stroke: #A80036; stroke-width: 1.0;"/><text fill="#000000" font-family="sans-serif" font-size="13" lengthAdjust="spacingAndGlyphs" textLength="107" x="1712" y="401.0669">MinimumHolding</text><text fill="#000000" font-family="sans-serif" font-size="13" lengthAdjust="spacingAndGlyphs" textLength="8" x="1661.2353" y="427.0146">1</text><!--link SecuritiesAndCashDistribution to SecuritiesQuantity--><path d="M2698.44,346.911 C2474.4,351.667 1936.17,365.312 1857,388 C1841.31,392.495 1840.1,399.822 1825,406 C1792.85,419.15 1755.41,429.502 1724.94,436.751 " fill="none" id="SecuritiesAndCashDistribution-SecuritiesQuantity" style="stroke: #A80036; stroke-width: 1.0;"/><polygon fill="#A80036" points="1719.73,437.978,1729.4061,439.8147,1724.5976,436.835,1727.5773,432.0266,1719.73,437.978" style="stroke: #A80036; stroke-width: 1.0;"/><text fill="#000000" font-family="sans-serif" font-size="13" lengthAdjust="spacingAndGlyphs" textLength="223" x="1858" y="401.0669">DistributedToUnderlyingNumerator</text><text fill="#000000" font-family="sans-serif" font-size="13" lengthAdjust="spacingAndGlyphs" textLength="8" x="1727.3091" y="427.0187">1</text><!--link SecuritiesAndCashDistribution to SecuritiesDistribution--><path d="M2698.43,345.161 C2442.64,346.097 1731.64,352.012 1141,388 C899.674,402.704 220.584,313.056 58,492 C52.6203,497.921 52.4243,504.263 58,510 C81.9732,534.666 1129.4,547.234 1421.86,550.266 " fill="none" id="SecuritiesAndCashDistribution-SecuritiesDistribution" style="stroke: #A80036; stroke-width: 1.0;"/><polygon fill="#A80036" points="1426.95,550.319,1417.9846,546.242,1421.9502,550.2761,1417.916,554.2417,1426.95,550.319" style="stroke: #A80036; stroke-width: 1.0;"/><text fill="#000000" font-family="sans-serif" font-size="13" lengthAdjust="spacingAndGlyphs" textLength="136" x="200" y="454.0669">SecuritiesDistribution</text><text fill="#000000" font-family="sans-serif" font-size="13" lengthAdjust="spacingAndGlyphs" textLength="8" x="1411.0313" y="545.4549">1</text><!--link SecuritiesAndCashDistribution to CashDistribution--><path d="M2893.27,347.194 C2961.04,352.104 3033.3,366.308 2997,406 C2969.06,436.549 2697.91,445.555 2575.47,448.076 " fill="none" id="SecuritiesAndCashDistribution-CashDistribution" style="stroke: #A80036; stroke-width: 1.0;"/><polygon fill="#A80036" points="2570.47,448.177,2579.5482,451.9962,2575.469,448.077,2579.3882,443.9978,2570.47,448.177" style="stroke: #A80036; stroke-width: 1.0;"/><text fill="#000000" font-family="sans-serif" font-size="13" lengthAdjust="spacingAndGlyphs" textLength="105" x="3008" y="401.0669">CashDistribution</text><text fill="#000000" font-family="sans-serif" font-size="13" lengthAdjust="spacingAndGlyphs" textLength="7" x="2578.5869" y="442.8038">*</text><!--link DateTimePeriod to SecuritiesPricing--><path d="M3231.2,356.378 C3221.16,369.47 3208.54,391.077 3220,406 C3232.44,422.195 3280.11,433.604 3320.38,440.581 " fill="none" id="DateTimePeriod-SecuritiesPricing" style="stroke: #A80036; stroke-width: 1.0;"/><polygon fill="#A80036" points="3325.76,441.494,3317.5631,436.0341,3320.8315,440.6512,3316.2145,443.9197,3325.76,441.494" style="stroke: #A80036; stroke-width: 1.0;"/><text fill="#000000" font-family="sans-serif" font-size="13" lengthAdjust="spacingAndGlyphs" textLength="191" x="3221" y="401.0669">PriceCalculationRelatedPricing</text><text fill="#000000" font-family="sans-serif" font-size="13" lengthAdjust="spacingAndGlyphs" textLength="8" x="3310.1713" y="435.7098">1</text><!--link DateTimePeriod to SecuritiesPricing--><path d="M3293.5,350.622 C3339.96,356.808 3402.71,368.547 3418,388 C3429.69,402.864 3414.28,421.69 3399.94,434.469 " fill="none" id="DateTimePeriod-SecuritiesPricing" style="stroke: #A80036; stroke-width: 1.0;"/><polygon fill="#A80036" points="3395.94,437.904,3405.3733,435.0734,3399.7326,434.6458,3400.1602,429.0051,3395.94,437.904" style="stroke: #A80036; stroke-width: 1.0;"/><text fill="#000000" font-family="sans-serif" font-size="13" lengthAdjust="spacingAndGlyphs" textLength="148" x="3423" y="401.0669">PriceFactRelatedPricing</text><text fill="#000000" font-family="sans-serif" font-size="13" lengthAdjust="spacingAndGlyphs" textLength="8" x="3390.3569" y="426.9192">1</text><!--link Tax to Dividend--><path d="M3598.89,564.306 C3595.51,582.476 3588.85,618.239 3584.98,639.015 " fill="none" id="Tax-Dividend" style="stroke: #A80036; stroke-width: 1.0;"/><polygon fill="#A80036" points="3584.06,643.954,3589.641,635.839,3584.9759,639.0386,3581.7763,634.3736,3584.06,643.954" style="stroke: #A80036; stroke-width: 1.0;"/><text fill="#000000" font-family="sans-serif" font-size="13" lengthAdjust="spacingAndGlyphs" textLength="55" x="3593" y="609.0669">Dividend</text><text fill="#000000" font-family="sans-serif" font-size="13" lengthAdjust="spacingAndGlyphs" textLength="7" x="3575.1353" y="632.9864">*</text><!--link SecuritiesPricing to SecuritiesDistribution--><path d="M3325.62,453.79 C3226.41,459.207 3022.36,472.367 2954,492 C2936.81,496.938 2935.35,505.639 2918,510 C2787.49,542.804 1847.9,549.472 1572.61,550.727 " fill="none" id="SecuritiesPricing-SecuritiesDistribution" style="stroke: #A80036; stroke-width: 1.0;"/><polygon fill="#A80036" points="1567.41,550.751,1576.4327,554.6995,1572.4099,550.7224,1576.387,546.6996,1567.41,550.751" style="stroke: #A80036; stroke-width: 1.0;"/><text fill="#000000" font-family="sans-serif" font-size="13" lengthAdjust="spacingAndGlyphs" textLength="305" x="2955" y="505.0669">CashFractionsPriceRelatedSecuritiesDistribution</text><text fill="#000000" font-family="sans-serif" font-size="13" lengthAdjust="spacingAndGlyphs" textLength="8" x="1575.0835" y="545.821">1</text><!--link SecuritiesPricing to SecuritiesDistribution--><path d="M3359.69,462.087 C3327.13,478.999 3268.51,509.363 3266,510 C3100.52,552.007 1888.53,551.976 1572.29,551.239 " fill="none" id="SecuritiesPricing-SecuritiesDistribution" style="stroke: #A80036; stroke-width: 1.0;"/><polygon fill="#A80036" points="1567.25,551.227,1576.25,555.227,1572.25,551.227,1576.25,547.227,1567.25,551.227" style="stroke: #A80036; stroke-width: 1.0;"/><text fill="#000000" font-family="sans-serif" font-size="13" lengthAdjust="spacingAndGlyphs" textLength="286" x="3302" y="505.0669">SuscriptionPriceRelatedSecuritiesDistribution</text><text fill="#000000" font-family="sans-serif" font-size="13" lengthAdjust="spacingAndGlyphs" textLength="8" x="1574.907" y="563.9961">1</text><!--link SecuritiesPricing to SecuritiesDistribution--><path d="M3325.86,452.379 C3172.55,456.457 2743.29,469.595 2604,492 C2573.98,496.829 2568.05,505.372 2538,510 C2351.75,538.685 1778.97,547.837 1572.32,550.249 " fill="none" id="SecuritiesPricing-SecuritiesDistribution" style="stroke: #A80036; stroke-width: 1.0;"/><polygon fill="#A80036" points="1567.21,550.309,1576.2551,554.2059,1572.2097,550.2518,1576.1637,546.2064,1567.21,550.309" style="stroke: #A80036; stroke-width: 1.0;"/><text fill="#000000" font-family="sans-serif" font-size="13" lengthAdjust="spacingAndGlyphs" textLength="303" x="2605" y="505.0669">ReinvestmentPriceRelatedSecuritiesDistribution</text><text fill="#000000" font-family="sans-serif" font-size="13" lengthAdjust="spacingAndGlyphs" textLength="8" x="1574.9201" y="543.7855">1</text></g></svg>