<?xml version="1.0" encoding="UTF-8" standalone="no"?><svg xmlns="http://www.w3.org/2000/svg" xmlns:xlink="http://www.w3.org/1999/xlink" contentScriptType="application/ecmascript" contentStyleType="text/css" height="388px" preserveAspectRatio="none" style="width:746px;height:388px;" version="1.1" viewBox="0 0 746 388" width="746px" zoomAndPan="magnify"><defs><filter height="300%" id="f1p74pu7o8vw6c" width="300%" x="-1" y="-1"><feGaussianBlur result="blurOut" stdDeviation="2.0"/><feColorMatrix in="blurOut" result="blurOut2" type="matrix" values="0 0 0 0 0 0 0 0 0 0 0 0 0 0 0 0 0 0 .4 0"/><feOffset dx="4.0" dy="4.0" in="blurOut2" result="blurOut3"/><feBlend in="SourceGraphic" in2="blurOut3" mode="normal"/></filter></defs><g><!--cluster ##9808--><!--cluster ##9814--><!--cluster ##9823--><!--class Agreement--><a target="_top" xlink:actuate="onRequest" xlink:href="../Agreement.html" xlink:show="new" xlink:title="Contractual details related to an agreement between parties." xlink:type="simple"><rect fill="#FEFEEE" filter="url(#f1p74pu7o8vw6c)" height="70.3828" id="Agreement" style="stroke: #A80036; stroke-width: 1.5;" width="171" x="124.75" y="40"/><rect fill="#FEFEEE" height="23.9688" style="stroke: #A80036; stroke-width: 1.5;" width="171" x="124.75" y="40"/><text fill="#000000" font-family="sans-serif" font-size="12" lengthAdjust="spacingAndGlyphs" textLength="69" x="175.75" y="56.1387">Agreement</text><line style="stroke: #A80036; stroke-width: 1.5;" x1="125.75" x2="294.75" y1="63.9688" y2="63.9688"/><ellipse cx="135.75" cy="75.8711" fill="#84BE84" rx="3" ry="3" style="stroke: #038048; stroke-width: 1.0;"/><text fill="#000000" font-family="sans-serif" font-size="11" lengthAdjust="spacingAndGlyphs" textLength="65" x="144.75" y="78.1792">DateSigned</text><text fill="#000000" font-family="sans-serif" font-size="11" font-style="italic" lengthAdjust="spacingAndGlyphs" textLength="53" x="213.75" y="78.1792">(ISODate)</text><ellipse cx="135.75" cy="88.6758" fill="#84BE84" rx="3" ry="3" style="stroke: #038048; stroke-width: 1.0;"/><text fill="#000000" font-family="sans-serif" font-size="11" lengthAdjust="spacingAndGlyphs" textLength="64" x="144.75" y="90.9839">Description</text><text fill="#000000" font-family="sans-serif" font-size="11" font-style="italic" lengthAdjust="spacingAndGlyphs" textLength="77" x="212.75" y="90.9839">(Max350Text)</text><ellipse cx="135.75" cy="101.4805" fill="#84BE84" rx="3" ry="3" style="stroke: #038048; stroke-width: 1.0;"/><text fill="#000000" font-family="sans-serif" font-size="11" lengthAdjust="spacingAndGlyphs" textLength="43" x="144.75" y="103.7886">Version</text><text fill="#000000" font-family="sans-serif" font-size="11" font-style="italic" lengthAdjust="spacingAndGlyphs" textLength="70" x="191.75" y="103.7886">(Max35Text)</text></a><!--class SecuritiesFinancingAgreement--><a target="_top" xlink:actuate="onRequest" xlink:href="../SecuritiesFinancingAgreement.html" xlink:show="new" xlink:title="Contractual details related to the agreement between parties." xlink:type="simple"><rect fill="#FEFECE" filter="url(#f1p74pu7o8vw6c)" height="83.1875" id="SecuritiesFinancingAgreement" style="stroke: #A80036; stroke-width: 1.5;" width="258" x="38" y="188.5"/><rect fill="#FEFECE" height="23.9688" style="stroke: #A80036; stroke-width: 1.5;" width="258" x="38" y="188.5"/><text fill="#000000" font-family="sans-serif" font-size="12" lengthAdjust="spacingAndGlyphs" textLength="191" x="71.5" y="204.6387">SecuritiesFinancingAgreement</text><line style="stroke: #A80036; stroke-width: 1.5;" x1="39" x2="295" y1="212.4688" y2="212.4688"/><ellipse cx="49" cy="224.3711" fill="#84BE84" rx="3" ry="3" style="stroke: #038048; stroke-width: 1.0;"/><text fill="#000000" font-family="sans-serif" font-size="11" lengthAdjust="spacingAndGlyphs" textLength="51" x="58" y="226.6792">Currency</text><text fill="#000000" font-family="sans-serif" font-size="11" font-style="italic" lengthAdjust="spacingAndGlyphs" textLength="89" x="113" y="226.6792">(CurrencyCode)</text><ellipse cx="49" cy="237.1758" fill="#84BE84" rx="3" ry="3" style="stroke: #038048; stroke-width: 1.0;"/><text fill="#000000" font-family="sans-serif" font-size="11" lengthAdjust="spacingAndGlyphs" textLength="95" x="58" y="239.4839">TerminationType</text><text fill="#000000" font-family="sans-serif" font-size="11" font-style="italic" lengthAdjust="spacingAndGlyphs" textLength="133" x="157" y="239.4839">(TerminationTypeCode)</text><ellipse cx="49" cy="249.9805" fill="#84BE84" rx="3" ry="3" style="stroke: #038048; stroke-width: 1.0;"/><text fill="#000000" font-family="sans-serif" font-size="11" lengthAdjust="spacingAndGlyphs" textLength="72" x="58" y="252.2886">DeliveryType</text><text fill="#000000" font-family="sans-serif" font-size="11" font-style="italic" lengthAdjust="spacingAndGlyphs" textLength="112" x="134" y="252.2886">(DeliveryTypeCode)</text><ellipse cx="49" cy="262.7852" fill="#84BE84" rx="3" ry="3" style="stroke: #038048; stroke-width: 1.0;"/><text fill="#000000" font-family="sans-serif" font-size="11" lengthAdjust="spacingAndGlyphs" textLength="66" x="58" y="265.0933">MarginRatio</text><text fill="#000000" font-family="sans-serif" font-size="11" font-style="italic" lengthAdjust="spacingAndGlyphs" textLength="98" x="128" y="265.0933">(PercentageRate)</text></a><!--class DateTimePeriod--><a target="_top" xlink:actuate="onRequest" xlink:href="../DateTimePeriod.html" xlink:show="new" xlink:title="Time span defined by a start date and time, and an end date and time." xlink:type="simple"><rect fill="#EEEEEE" filter="url(#f1p74pu7o8vw6c)" height="23.9688" id="DateTimePeriod" style="stroke: #A80036; stroke-width: 1.5;" width="105" x="501.75" y="354"/><rect fill="#EEEEEE" height="23.9688" style="stroke: #A80036; stroke-width: 1.5;" width="105" x="501.75" y="354"/><text fill="#000000" font-family="sans-serif" font-size="12" lengthAdjust="spacingAndGlyphs" textLength="99" x="504.75" y="370.1387">DateTimePeriod</text></a><!--class Document--><a target="_top" xlink:actuate="onRequest" xlink:href="../Document.html" xlink:show="new" xlink:title="General information that unambiguously identifies a document, such as identification number and issue date time." xlink:type="simple"><rect fill="#EEEEEE" filter="url(#f1p74pu7o8vw6c)" height="23.9688" id="Document" style="stroke: #A80036; stroke-width: 1.5;" width="70" x="461" y="218"/><rect fill="#EEEEEE" height="23.9688" style="stroke: #A80036; stroke-width: 1.5;" width="70" x="461" y="218"/><text fill="#000000" font-family="sans-serif" font-size="12" lengthAdjust="spacingAndGlyphs" textLength="64" x="464" y="234.1387">Document</text></a><!--class CommercialTrade--><a target="_top" xlink:actuate="onRequest" xlink:href="../CommercialTrade.html" xlink:show="new" xlink:title="Commercial details of a trade transaction between a buyer and a seller." xlink:type="simple"><rect fill="#EEEEEE" filter="url(#f1p74pu7o8vw6c)" height="23.9688" id="CommercialTrade" style="stroke: #A80036; stroke-width: 1.5;" width="114" x="352" y="354"/><rect fill="#EEEEEE" height="23.9688" style="stroke: #A80036; stroke-width: 1.5;" width="114" x="352" y="354"/><text fill="#000000" font-family="sans-serif" font-size="12" lengthAdjust="spacingAndGlyphs" textLength="108" x="355" y="370.1387">CommercialTrade</text></a><!--class Jurisdiction--><a target="_top" xlink:actuate="onRequest" xlink:href="../Jurisdiction.html" xlink:show="new" xlink:title="Specifies the jurisdiction (country, county, state, province, city)." xlink:type="simple"><rect fill="#EEEEEE" filter="url(#f1p74pu7o8vw6c)" height="23.9688" id="Jurisdiction" style="stroke: #A80036; stroke-width: 1.5;" width="74" x="352" y="218"/><rect fill="#EEEEEE" height="23.9688" style="stroke: #A80036; stroke-width: 1.5;" width="74" x="352" y="218"/><text fill="#000000" font-family="sans-serif" font-size="12" lengthAdjust="spacingAndGlyphs" textLength="68" x="355" y="234.1387">Jurisdiction</text></a><!--class SecuritiesFinancing--><a target="_top" xlink:actuate="onRequest" xlink:href="../SecuritiesFinancing.html" xlink:show="new" xlink:title="Process of lending or borrowing cash or securities against securities or cash collateral. It aims at optimising liquidity, support a trading strategy, or increase settlement efficiency." xlink:type="simple"><rect fill="#EEEEEE" filter="url(#f1p74pu7o8vw6c)" height="23.9688" id="SecuritiesFinancing" style="stroke: #A80036; stroke-width: 1.5;" width="128" x="94" y="354"/><rect fill="#EEEEEE" height="23.9688" style="stroke: #A80036; stroke-width: 1.5;" width="128" x="94" y="354"/><text fill="#000000" font-family="sans-serif" font-size="12" lengthAdjust="spacingAndGlyphs" textLength="122" x="97" y="370.1387">SecuritiesFinancing</text></a><!--link Agreement to SecuritiesFinancingAgreement--><path d="M194.895,129.746 C189.491,148.975 183.493,170.314 178.449,188.264 " fill="none" id="Agreement-SecuritiesFinancingAgreement" style="stroke: #A80036; stroke-width: 1.0;"/><polygon fill="none" points="188.2,127.696,200.35,110.336,201.678,131.484,188.2,127.696" style="stroke: #A80036; stroke-width: 1.0;"/><!--link Document to DateTimePeriod--><!--link CommercialTrade to Document--><!--link Document to CommercialTrade--><path d="M486.917,242.089 C470.884,261.685 439.05,300.693 437,304 C428.001,318.5131 420.13,336.3998 415.043,349.0417 " fill="none" id="Document-CommercialTrade" style="stroke: #A80036; stroke-width: 1.0;"/><polygon fill="#A80036" points="413.169,353.7787,420.2,346.882,415.0088,349.1295,412.7613,343.9383,413.169,353.7787" style="stroke: #A80036; stroke-width: 1.0;"/><text fill="#000000" font-family="sans-serif" font-size="13" lengthAdjust="spacingAndGlyphs" textLength="113" x="438" y="317.0669">CommercialTrade</text><text fill="#000000" font-family="sans-serif" font-size="13" lengthAdjust="spacingAndGlyphs" textLength="7" x="405.0594" y="343.0088">*</text><!--link Jurisdiction to CommercialTrade--><!--link Agreement to DateTimePeriod--><path d="M295.496,85.404 C407.535,99.829 594.056,131.823 630,188 C655.87,228.432 649.433,252.11 630,296 C619.424,319.8854 596.044,339.0394 577.989,351.0496 " fill="none" id="Agreement-DateTimePeriod" style="stroke: #A80036; stroke-width: 1.0;"/><polygon fill="#A80036" points="573.524,353.9477,583.2508,352.4017,577.7177,351.225,578.8944,345.6919,573.524,353.9477" style="stroke: #A80036; stroke-width: 1.0;"/><text fill="#000000" font-family="sans-serif" font-size="13" lengthAdjust="spacingAndGlyphs" textLength="86" x="648" y="234.0669">ValidityPeriod</text><text fill="#000000" font-family="sans-serif" font-size="13" lengthAdjust="spacingAndGlyphs" textLength="7" x="570.6026" y="342.9779">*</text><!--link Agreement to Document--><path d="M295.296,106.443 C319.865,116.189 346.396,127.679 370,140 C404.422,157.968 411.398,165.437 443,188 C454.929,196.517 467.955,206.582 478.108,214.609 " fill="none" id="Agreement-Document" style="stroke: #A80036; stroke-width: 1.0;"/><polygon fill="#A80036" points="482.272,217.913,477.7087,209.1851,478.3554,214.8049,472.7357,215.4516,482.272,217.913" style="stroke: #A80036; stroke-width: 1.0;"/><text fill="#000000" font-family="sans-serif" font-size="13" lengthAdjust="spacingAndGlyphs" textLength="67" x="402" y="153.0669">Document</text><text fill="#000000" font-family="sans-serif" font-size="13" lengthAdjust="spacingAndGlyphs" textLength="8" x="466.8343" y="206.9313">1</text><!--link Agreement to CommercialTrade--><path d="M295.347,87.906 C349.597,97.487 420.392,113.779 479,140 C513.1,155.256 528.88,155.907 548,188 C578.625,239.404 601.064,277.558 561,322 C549.481,334.7776 500.58,325.4101 484,330 C466.084,334.9598 447.122,343.8455 432.746,351.4224 " fill="none" id="Agreement-CommercialTrade" style="stroke: #A80036; stroke-width: 1.0;"/><polygon fill="#A80036" points="428.055,353.9341,437.8774,353.2125,432.463,351.5741,434.1014,346.1597,428.055,353.9341" style="stroke: #A80036; stroke-width: 1.0;"/><text fill="#000000" font-family="sans-serif" font-size="13" lengthAdjust="spacingAndGlyphs" textLength="36" x="584" y="234.0669">Trade</text><text fill="#000000" font-family="sans-serif" font-size="13" lengthAdjust="spacingAndGlyphs" textLength="8" x="423.8864" y="342.9597">1</text><!--link Agreement to Jurisdiction--><path d="M243.448,110.083 C258.76,125.206 277.386,142.947 295,158 C319.572,179 349.632,201.132 369.038,214.994 " fill="none" id="Agreement-Jurisdiction" style="stroke: #A80036; stroke-width: 1.0;"/><polygon fill="#A80036" points="373.251,217.993,368.2397,209.5144,369.178,215.0929,363.5995,216.0312,373.251,217.993" style="stroke: #A80036; stroke-width: 1.0;"/><text fill="#000000" font-family="sans-serif" font-size="13" lengthAdjust="spacingAndGlyphs" textLength="68" x="296" y="153.0669">Jurisdiction</text><text fill="#000000" font-family="sans-serif" font-size="13" lengthAdjust="spacingAndGlyphs" textLength="24" x="338.3685" y="207.0388">0..1</text><!--link SecuritiesFinancingAgreement to SecuritiesFinancing--><path d="M164.275,271.568 C162.535,297.479 160.373,329.6717 159.094,348.7081 " fill="none" id="SecuritiesFinancingAgreement-SecuritiesFinancing" style="stroke: #A80036; stroke-width: 1.0;"/><polygon fill="#A80036" points="158.758,353.7123,163.3523,345.0007,159.0932,348.7235,155.3703,344.4644,158.758,353.7123" style="stroke: #A80036; stroke-width: 1.0;"/><text fill="#000000" font-family="sans-serif" font-size="13" lengthAdjust="spacingAndGlyphs" textLength="159" x="163" y="317.0669">SecuritiesFinancingTrade</text><text fill="#000000" font-family="sans-serif" font-size="13" lengthAdjust="spacingAndGlyphs" textLength="24" x="129.7028" y="342.9204">0..1</text></g></svg>