<?xml version="1.0" encoding="UTF-8" standalone="no"?><svg xmlns="http://www.w3.org/2000/svg" xmlns:xlink="http://www.w3.org/1999/xlink" contentScriptType="application/ecmascript" contentStyleType="text/css" height="430px" preserveAspectRatio="none" style="width:708px;height:430px;" version="1.1" viewBox="0 0 708 430" width="708px" zoomAndPan="magnify"><defs><filter height="300%" id="f19qi4orjqw2lk" width="300%" x="-1" y="-1"><feGaussianBlur result="blurOut" stdDeviation="2.0"/><feColorMatrix in="blurOut" result="blurOut2" type="matrix" values="0 0 0 0 0 0 0 0 0 0 0 0 0 0 0 0 0 0 .4 0"/><feOffset dx="4.0" dy="4.0" in="blurOut2" result="blurOut3"/><feBlend in="SourceGraphic" in2="blurOut3" mode="normal"/></filter></defs><g><!--cluster ##9036--><!--cluster ##9039--><!--class SecuritiesQuoteVariable--><a target="_top" xlink:actuate="onRequest" xlink:href="../SecuritiesQuoteVariable.html" xlink:show="new" xlink:title="Proposition of price for a financial instrument." xlink:type="simple"><rect fill="#FEFECE" filter="url(#f19qi4orjqw2lk)" height="83.1875" id="SecuritiesQuoteVariable" style="stroke: #A80036; stroke-width: 1.5;" width="223" x="176.182" y="40.5"/><rect fill="#FEFECE" height="23.9688" style="stroke: #A80036; stroke-width: 1.5;" width="223" x="176.182" y="40.5"/><text fill="#000000" font-family="sans-serif" font-size="12" lengthAdjust="spacingAndGlyphs" textLength="151" x="212.182" y="56.6387">SecuritiesQuoteVariable</text><line style="stroke: #A80036; stroke-width: 1.5;" x1="177.182" x2="398.182" y1="64.4688" y2="64.4688"/><ellipse cx="187.182" cy="76.3711" fill="#84BE84" rx="3" ry="3" style="stroke: #038048; stroke-width: 1.0;"/><text fill="#000000" font-family="sans-serif" font-size="11" lengthAdjust="spacingAndGlyphs" textLength="48" x="196.182" y="78.6792">Qualifier</text><text fill="#000000" font-family="sans-serif" font-size="11" font-style="italic" lengthAdjust="spacingAndGlyphs" textLength="85" x="248.182" y="78.6792">(QualifierCode)</text><ellipse cx="187.182" cy="89.1758" fill="#84BE84" rx="3" ry="3" style="stroke: #038048; stroke-width: 1.0;"/><text fill="#000000" font-family="sans-serif" font-size="11" lengthAdjust="spacingAndGlyphs" textLength="27" x="196.182" y="91.4839">Type</text><text fill="#000000" font-family="sans-serif" font-size="11" font-style="italic" lengthAdjust="spacingAndGlyphs" textLength="99" x="227.182" y="91.4839">(QuoteTypeCode)</text><ellipse cx="187.182" cy="101.9805" fill="#84BE84" rx="3" ry="3" style="stroke: #038048; stroke-width: 1.0;"/><text fill="#000000" font-family="sans-serif" font-size="11" lengthAdjust="spacingAndGlyphs" textLength="78" x="196.182" y="104.2886">LegSwapType</text><text fill="#000000" font-family="sans-serif" font-size="11" font-style="italic" lengthAdjust="spacingAndGlyphs" textLength="115" x="278.182" y="104.2886">(LegSwapTypeCode)</text><ellipse cx="187.182" cy="114.7852" fill="#84BE84" rx="3" ry="3" style="stroke: #038048; stroke-width: 1.0;"/><text fill="#000000" font-family="sans-serif" font-size="11" lengthAdjust="spacingAndGlyphs" textLength="55" x="196.182" y="117.0933">PriceType</text><text fill="#000000" font-family="sans-serif" font-size="11" font-style="italic" lengthAdjust="spacingAndGlyphs" textLength="125" x="255.182" y="117.0933">(PriceValueTypeCode)</text></a><!--class TradingSession--><a target="_top" xlink:actuate="onRequest" xlink:href="../TradingSession.html" xlink:show="new" xlink:title="Established constraints under which a market operates" xlink:type="simple"><rect fill="#EEEEEE" filter="url(#f19qi4orjqw2lk)" height="23.9688" id="TradingSession" style="stroke: #A80036; stroke-width: 1.5;" width="102" x="275.932" y="206"/><rect fill="#EEEEEE" height="23.9688" style="stroke: #A80036; stroke-width: 1.5;" width="102" x="275.932" y="206"/><text fill="#000000" font-family="sans-serif" font-size="12" lengthAdjust="spacingAndGlyphs" textLength="96" x="278.932" y="222.1387">TradingSession</text></a><!--class Quote--><a target="_top" xlink:actuate="onRequest" xlink:href="../Quote.html" xlink:show="new" xlink:title="Indicates whether the quote details are indicated as an offer, a bid or a mid of a security, commodity, currency (the latter being an average of the offer and the bid)." xlink:type="simple"><rect fill="#EEEEEE" filter="url(#f19qi4orjqw2lk)" height="23.9688" id="Quote" style="stroke: #A80036; stroke-width: 1.5;" width="44" x="312.932" y="394"/><rect fill="#EEEEEE" height="23.9688" style="stroke: #A80036; stroke-width: 1.5;" width="44" x="312.932" y="394"/><text fill="#000000" font-family="sans-serif" font-size="12" lengthAdjust="spacingAndGlyphs" textLength="38" x="315.932" y="410.1387">Quote</text></a><!--class SecuritiesOrder--><a target="_top" xlink:actuate="onRequest" xlink:href="../SecuritiesOrder.html" xlink:show="new" xlink:title="Intention to transfer an ownership of a financial instrument." xlink:type="simple"><rect fill="#EEEEEE" filter="url(#f19qi4orjqw2lk)" height="23.9688" id="SecuritiesOrder" style="stroke: #A80036; stroke-width: 1.5;" width="103" x="220.182" y="308"/><rect fill="#EEEEEE" height="23.9688" style="stroke: #A80036; stroke-width: 1.5;" width="103" x="220.182" y="308"/><text fill="#000000" font-family="sans-serif" font-size="12" lengthAdjust="spacingAndGlyphs" textLength="97" x="223.182" y="324.1387">SecuritiesOrder</text></a><!--class Commission--><a target="_top" xlink:actuate="onRequest" xlink:href="../Commission.html" xlink:show="new" xlink:title="Amount of money due to a party as compensation for a service." xlink:type="simple"><rect fill="#EEEEEE" filter="url(#f19qi4orjqw2lk)" height="23.9688" id="Commission" style="stroke: #A80036; stroke-width: 1.5;" width="80" x="160.432" y="206"/><rect fill="#EEEEEE" height="23.9688" style="stroke: #A80036; stroke-width: 1.5;" width="80" x="160.432" y="206"/><text fill="#000000" font-family="sans-serif" font-size="12" lengthAdjust="spacingAndGlyphs" textLength="74" x="163.432" y="222.1387">Commission</text></a><!--link Quote to TradingSession--><!--link SecuritiesOrder to Quote--><!--link Commission to SecuritiesOrder--><!--link SecuritiesQuoteVariable to TradingSession--><path d="M279.081,123.678 C277.528,139.869 278.051,158.336 284.432,174 C288.965,185.129 297.919,194.947 306.398,202.381 " fill="none" id="SecuritiesQuoteVariable-TradingSession" style="stroke: #A80036; stroke-width: 1.0;"/><polygon fill="#A80036" points="310.501,205.834,306.1927,196.9774,306.6762,202.6136,301.0401,203.0971,310.501,205.834" style="stroke: #A80036; stroke-width: 1.0;"/><text fill="#000000" font-family="sans-serif" font-size="13" lengthAdjust="spacingAndGlyphs" textLength="136" x="285.432" y="169.0669">QuoteTradingSession</text><text fill="#000000" font-family="sans-serif" font-size="13" lengthAdjust="spacingAndGlyphs" textLength="8" x="294.1341" y="194.8252">1</text><!--link SecuritiesQuoteVariable to Quote--><path d="M176.051,110.799 C86.8472,139.768 -18.7859,193.008 11.4318,278 C27.9412,324.436 38.7643,339.336 81.4317,364 C119.591,386.0583 250.203,398.5299 307.324,403.0424 " fill="none" id="SecuritiesQuoteVariable-Quote" style="stroke: #A80036; stroke-width: 1.0;"/><polygon fill="#A80036" points="312.617,403.4543,303.9551,398.767,307.6321,403.0657,303.3334,406.7428,312.617,403.4543" style="stroke: #A80036; stroke-width: 1.0;"/><text fill="#000000" font-family="sans-serif" font-size="13" lengthAdjust="spacingAndGlyphs" textLength="50" x="12.4318" y="273.0669">MidSide</text><text fill="#000000" font-family="sans-serif" font-size="13" lengthAdjust="spacingAndGlyphs" textLength="8" x="296.959" y="396.8488">1</text><!--link SecuritiesQuoteVariable to Quote--><path d="M198.789,123.689 C176.274,138.626 154.938,157.926 142.432,182 C132.597,200.931 136.827,209.416 142.432,230 C156.251,280.747 164.751,295.307 202.432,332 C233.292,362.0512 278.989,383.6221 307.717,395.2041 " fill="none" id="SecuritiesQuoteVariable-Quote" style="stroke: #A80036; stroke-width: 1.0;"/><polygon fill="#A80036" points="312.526,397.1136,305.6362,390.0758,307.8786,395.2692,302.6852,397.5116,312.526,397.1136" style="stroke: #A80036; stroke-width: 1.0;"/><text fill="#000000" font-family="sans-serif" font-size="13" lengthAdjust="spacingAndGlyphs" textLength="48" x="160.432" y="273.0669">BidSide</text><text fill="#000000" font-family="sans-serif" font-size="13" lengthAdjust="spacingAndGlyphs" textLength="8" x="301.7125" y="383.0142">1</text><!--link SecuritiesQuoteVariable to Quote--><path d="M398.863,98.724 C449.426,112.036 504.682,136.616 535.432,182 C595.816,271.122 427.924,361.5949 360.8,393.2257 " fill="none" id="SecuritiesQuoteVariable-Quote" style="stroke: #A80036; stroke-width: 1.0;"/><polygon fill="#A80036" points="356.146,395.4006,365.9931,395.2162,360.6762,393.2847,362.6077,387.9678,356.146,395.4006" style="stroke: #A80036; stroke-width: 1.0;"/><text fill="#000000" font-family="sans-serif" font-size="13" lengthAdjust="spacingAndGlyphs" textLength="59" x="537.432" y="273.0669">OfferSide</text><text fill="#000000" font-family="sans-serif" font-size="13" lengthAdjust="spacingAndGlyphs" textLength="8" x="364.8133" y="384.9303">1</text><!--link SecuritiesQuoteVariable to Quote--><path d="M398.892,97.323 C448.021,107.698 504.448,125.506 548.432,156 C573.837,173.613 603.097,245.875 606.432,260 C632.126,368.8423 434.603,396.6096 361.185,403.1377 " fill="none" id="SecuritiesQuoteVariable-Quote" style="stroke: #A80036; stroke-width: 1.0;"/><polygon fill="#A80036" points="356.118,403.5719,365.4268,406.7884,361.0997,403.1448,364.7434,398.8177,356.118,403.5719" style="stroke: #A80036; stroke-width: 1.0;"/><text fill="#000000" font-family="sans-serif" font-size="13" lengthAdjust="spacingAndGlyphs" textLength="87" x="609.432" y="273.0669">RelatedQuote</text><text fill="#000000" font-family="sans-serif" font-size="13" lengthAdjust="spacingAndGlyphs" textLength="8" x="364.7757" y="417.4105">1</text><!--link SecuritiesQuoteVariable to SecuritiesOrder--><path d="M398.697,117.966 C419.921,131.504 433.83,149.755 427.432,174 C413.872,225.383 408.126,242.667 368.432,278 C354.201,290.667 335.484,299.815 318.291,306.21 " fill="none" id="SecuritiesQuoteVariable-SecuritiesOrder" style="stroke: #A80036; stroke-width: 1.0;"/><polygon fill="#A80036" points="313.487,307.941,323.3102,308.6511,318.1906,306.245,320.5967,301.1254,313.487,307.941" style="stroke: #A80036; stroke-width: 1.0;"/><text fill="#000000" font-family="sans-serif" font-size="13" lengthAdjust="spacingAndGlyphs" textLength="99" x="426.432" y="222.0669">SecuritiesOrder</text><text fill="#000000" font-family="sans-serif" font-size="13" lengthAdjust="spacingAndGlyphs" textLength="8" x="317.1387" y="296.9689">1</text><!--link SecuritiesQuoteVariable to Commission--><path d="M216.231,123.8 C205.812,133.002 196.548,143.742 190.432,156 C183.41,170.072 187.704,188.023 192.66,200.8 " fill="none" id="SecuritiesQuoteVariable-Commission" style="stroke: #A80036; stroke-width: 1.0;"/><polygon fill="#A80036" points="194.644,205.594,194.8968,195.7484,192.7313,200.9743,187.5053,198.8088,194.644,205.594" style="stroke: #A80036; stroke-width: 1.0;"/><text fill="#000000" font-family="sans-serif" font-size="13" lengthAdjust="spacingAndGlyphs" textLength="79" x="191.432" y="169.0669">Commission</text><text fill="#000000" font-family="sans-serif" font-size="13" lengthAdjust="spacingAndGlyphs" textLength="7" x="183.3647" y="195.0233">*</text><!--link TradingSession to SecuritiesOrder--><path d="M294.365,230.05 C280.742,236.52 266.228,246.196 258.432,260 C250.873,273.384 256.228,290.779 262.189,303.207 " fill="none" id="TradingSession-SecuritiesOrder" style="stroke: #A80036; stroke-width: 1.0;"/><polygon fill="#A80036" points="264.566,307.872,264.0446,298.037,262.2963,303.4168,256.9164,301.6685,264.566,307.872" style="stroke: #A80036; stroke-width: 1.0;"/><text fill="#000000" font-family="sans-serif" font-size="13" lengthAdjust="spacingAndGlyphs" textLength="99" x="259.432" y="273.0669">SecuritiesOrder</text><text fill="#000000" font-family="sans-serif" font-size="13" lengthAdjust="spacingAndGlyphs" textLength="24" x="232.6511" y="296.8762">0..1</text></g></svg>