<?xml version="1.0" encoding="UTF-8" standalone="no"?><svg xmlns="http://www.w3.org/2000/svg" xmlns:xlink="http://www.w3.org/1999/xlink" contentScriptType="application/ecmascript" contentStyleType="text/css" height="688px" preserveAspectRatio="none" style="width:1549px;height:688px;" version="1.1" viewBox="0 0 1549 688" width="1549px" zoomAndPan="magnify"><defs><filter height="300%" id="f1ls7npbk7yq4z" width="300%" x="-1" y="-1"><feGaussianBlur result="blurOut" stdDeviation="2.0"/><feColorMatrix in="blurOut" result="blurOut2" type="matrix" values="0 0 0 0 0 0 0 0 0 0 0 0 0 0 0 0 0 0 .4 0"/><feOffset dx="4.0" dy="4.0" in="blurOut2" result="blurOut3"/><feBlend in="SourceGraphic" in2="blurOut3" mode="normal"/></filter></defs><g><!--cluster ##6204--><!--cluster ##6228--><!--cluster ##6237--><!--cluster ##6240--><!--class Role--><a target="_top" xlink:actuate="onRequest" xlink:href="../Role.html" xlink:show="new" xlink:title="Role of a party in an activity." xlink:type="simple"><rect fill="#FEFEEE" filter="url(#f1ls7npbk7yq4z)" height="44.7734" id="Role" style="stroke: #A80036; stroke-width: 1.5;" width="175" x="470.75" y="40.5"/><rect fill="#FEFEEE" height="23.9688" style="stroke: #A80036; stroke-width: 1.5;" width="175" x="470.75" y="40.5"/><text fill="#000000" font-family="sans-serif" font-size="12" lengthAdjust="spacingAndGlyphs" textLength="27" x="544.75" y="56.6387">Role</text><line style="stroke: #A80036; stroke-width: 1.5;" x1="471.75" x2="644.75" y1="64.4688" y2="64.4688"/><ellipse cx="481.75" cy="76.3711" fill="#84BE84" rx="3" ry="3" style="stroke: #038048; stroke-width: 1.0;"/><text fill="#000000" font-family="sans-serif" font-size="11" lengthAdjust="spacingAndGlyphs" textLength="53" x="490.75" y="78.6792">PartyRole</text><text fill="#000000" font-family="sans-serif" font-size="11" font-style="italic" lengthAdjust="spacingAndGlyphs" textLength="92" x="547.75" y="78.6792">(PartyRoleCode)</text></a><!--class AssetPartyRole--><a target="_top" xlink:actuate="onRequest" xlink:href="../AssetPartyRole.html" xlink:show="new" xlink:title="Specifies roles played by a party that are linked to the handling of assets but not related to a specific process." xlink:type="simple"><rect fill="#FEFEEE" filter="url(#f1ls7npbk7yq4z)" height="23.9688" id="AssetPartyRole" style="stroke: #A80036; stroke-width: 1.5;" width="100" x="526" y="166"/><rect fill="#FEFEEE" height="23.9688" style="stroke: #A80036; stroke-width: 1.5;" width="100" x="526" y="166"/><text fill="#000000" font-family="sans-serif" font-size="12" lengthAdjust="spacingAndGlyphs" textLength="94" x="529" y="182.1387">AssetPartyRole</text></a><!--class SecuritiesPartyRole--><a target="_top" xlink:actuate="onRequest" xlink:href="../SecuritiesPartyRole.html" xlink:show="new" xlink:title="Specifies roles played by a party that are linked to the handling of securities but not related to a specific process." xlink:type="simple"><rect fill="#FEFECE" filter="url(#f1ls7npbk7yq4z)" height="23.9688" id="SecuritiesPartyRole" style="stroke: #A80036; stroke-width: 1.5;" width="127" x="512.75" y="270"/><rect fill="#FEFECE" height="23.9688" style="stroke: #A80036; stroke-width: 1.5;" width="127" x="512.75" y="270"/><text fill="#000000" font-family="sans-serif" font-size="12" lengthAdjust="spacingAndGlyphs" textLength="121" x="515.75" y="286.1387">SecuritiesPartyRole</text></a><!--class SafekeepingPlace--><a target="_top" xlink:actuate="onRequest" xlink:href="../SafekeepingPlace.html" xlink:show="new" xlink:title="Organisation used as the safekeeping place for the securities." xlink:type="simple"><rect fill="#FEFEEE" filter="url(#f1ls7npbk7yq4z)" height="23.9688" id="SafekeepingPlace" style="stroke: #A80036; stroke-width: 1.5;" width="118" x="403" y="358"/><rect fill="#FEFEEE" height="23.9688" style="stroke: #A80036; stroke-width: 1.5;" width="118" x="403" y="358"/><text fill="#000000" font-family="sans-serif" font-size="12" lengthAdjust="spacingAndGlyphs" textLength="112" x="406" y="374.1387">SafekeepingPlace</text></a><!--class RegistrarRole--><a target="_top" xlink:actuate="onRequest" xlink:href="../RegistrarRole.html" xlink:show="new" xlink:title="Party responsible for keeping track of the owners of securities." xlink:type="simple"><rect fill="#FEFEEE" filter="url(#f1ls7npbk7yq4z)" height="23.9688" id="RegistrarRole" style="stroke: #A80036; stroke-width: 1.5;" width="90" x="556" y="358"/><rect fill="#FEFEEE" height="23.9688" style="stroke: #A80036; stroke-width: 1.5;" width="90" x="556" y="358"/><text fill="#000000" font-family="sans-serif" font-size="12" lengthAdjust="spacingAndGlyphs" textLength="84" x="559" y="374.1387">RegistrarRole</text></a><!--class BeneficialOwner--><a target="_top" xlink:actuate="onRequest" xlink:href="../BeneficialOwner.html" xlink:show="new" xlink:title="Characteristics of an individual or entity that is ultimately entitled to the benefit of income and rights in a security, as opposed to a nominal or legal owner." xlink:type="simple"><rect fill="#FEFEEE" filter="url(#f1ls7npbk7yq4z)" height="23.9688" id="BeneficialOwner" style="stroke: #A80036; stroke-width: 1.5;" width="105" x="38.75" y="358"/><rect fill="#FEFEEE" height="23.9688" style="stroke: #A80036; stroke-width: 1.5;" width="105" x="38.75" y="358"/><text fill="#000000" font-family="sans-serif" font-size="12" lengthAdjust="spacingAndGlyphs" textLength="99" x="41.75" y="374.1387">BeneficialOwner</text></a><!--class CustodianRole--><a target="_top" xlink:actuate="onRequest" xlink:href="../CustodianRole.html" xlink:show="new" xlink:title="The party that safekeeps and administers assets on behalf of the owner." xlink:type="simple"><rect fill="#FEFEEE" filter="url(#f1ls7npbk7yq4z)" height="23.9688" id="CustodianRole" style="stroke: #A80036; stroke-width: 1.5;" width="96" x="179" y="358"/><rect fill="#FEFEEE" height="23.9688" style="stroke: #A80036; stroke-width: 1.5;" width="96" x="179" y="358"/><text fill="#000000" font-family="sans-serif" font-size="12" lengthAdjust="spacingAndGlyphs" textLength="90" x="182" y="374.1387">CustodianRole</text></a><!--class Pledgee--><a target="_top" xlink:actuate="onRequest" xlink:href="../Pledgee.html" xlink:show="new" xlink:title="Organisation used as the pledgee for the securities." xlink:type="simple"><rect fill="#FEFEEE" filter="url(#f1ls7npbk7yq4z)" height="23.9688" id="Pledgee" style="stroke: #A80036; stroke-width: 1.5;" width="57" x="310.75" y="358"/><rect fill="#FEFEEE" height="23.9688" style="stroke: #A80036; stroke-width: 1.5;" width="57" x="310.75" y="358"/><text fill="#000000" font-family="sans-serif" font-size="12" lengthAdjust="spacingAndGlyphs" textLength="51" x="313.75" y="374.1387">Pledgee</text></a><!--class RolePlayer--><a target="_top" xlink:actuate="onRequest" xlink:href="../RolePlayer.html" xlink:show="new" xlink:title="Type of entity that plays a specific role in a specific context." xlink:type="simple"><rect fill="#EEEEEE" filter="url(#f1ls7npbk7yq4z)" height="23.9688" id="RolePlayer" style="stroke: #A80036; stroke-width: 1.5;" width="71" x="1124.75" y="464"/><rect fill="#EEEEEE" height="23.9688" style="stroke: #A80036; stroke-width: 1.5;" width="71" x="1124.75" y="464"/><text fill="#000000" font-family="sans-serif" font-size="12" lengthAdjust="spacingAndGlyphs" textLength="65" x="1127.75" y="480.1387">RolePlayer</text></a><!--class ContactPersonRole--><a target="_top" xlink:actuate="onRequest" xlink:href="../ContactPersonRole.html" xlink:show="new" xlink:title="Person to be contacted in a given organisation. In the corporate action domain (including meeting notifications) , it is the contact person at the party organising the meeting, at the issuer or at an intermediary." xlink:type="simple"><rect fill="#EEEEEE" filter="url(#f1ls7npbk7yq4z)" height="23.9688" id="ContactPersonRole" style="stroke: #A80036; stroke-width: 1.5;" width="126" x="1077" y="358"/><rect fill="#EEEEEE" height="23.9688" style="stroke: #A80036; stroke-width: 1.5;" width="126" x="1077" y="358"/><text fill="#000000" font-family="sans-serif" font-size="12" lengthAdjust="spacingAndGlyphs" textLength="120" x="1080" y="374.1387">ContactPersonRole</text></a><!--class CounterpartyRisk--><a target="_top" xlink:actuate="onRequest" xlink:href="../CounterpartyRisk.html" xlink:show="new" xlink:title="Calculation of the exposure amount that one party has vis-a-vis one counterparty or a central system, based on its credit risk." xlink:type="simple"><rect fill="#EEEEEE" filter="url(#f1ls7npbk7yq4z)" height="23.9688" id="CounterpartyRisk" style="stroke: #A80036; stroke-width: 1.5;" width="113" x="1083.75" y="270"/><rect fill="#EEEEEE" height="23.9688" style="stroke: #A80036; stroke-width: 1.5;" width="113" x="1083.75" y="270"/><text fill="#000000" font-family="sans-serif" font-size="12" lengthAdjust="spacingAndGlyphs" textLength="107" x="1086.75" y="286.1387">CounterpartyRisk</text></a><!--class Entry--><a target="_top" xlink:actuate="onRequest" xlink:href="../Entry.html" xlink:show="new" xlink:title="Posting to an account that results in an increase or decrease to a balance." xlink:type="simple"><rect fill="#EEEEEE" filter="url(#f1ls7npbk7yq4z)" height="23.9688" id="Entry" style="stroke: #A80036; stroke-width: 1.5;" width="38" x="1077" y="166"/><rect fill="#EEEEEE" height="23.9688" style="stroke: #A80036; stroke-width: 1.5;" width="38" x="1077" y="166"/><text fill="#000000" font-family="sans-serif" font-size="12" lengthAdjust="spacingAndGlyphs" textLength="32" x="1080" y="182.1387">Entry</text></a><!--class Asset--><a target="_top" xlink:actuate="onRequest" xlink:href="../Asset.html" xlink:show="new" xlink:title="Tangible items of value to a business." xlink:type="simple"><rect fill="#EEEEEE" filter="url(#f1ls7npbk7yq4z)" height="23.9688" id="Asset" style="stroke: #A80036; stroke-width: 1.5;" width="41" x="702.75" y="270"/><rect fill="#EEEEEE" height="23.9688" style="stroke: #A80036; stroke-width: 1.5;" width="41" x="702.75" y="270"/><text fill="#000000" font-family="sans-serif" font-size="12" lengthAdjust="spacingAndGlyphs" textLength="35" x="705.75" y="286.1387">Asset</text></a><!--class SecuritiesAccount--><a target="_top" xlink:actuate="onRequest" xlink:href="../SecuritiesAccount.html" xlink:show="new" xlink:title="Account to or from which a securities entry is made." xlink:type="simple"><rect fill="#EEEEEE" filter="url(#f1ls7npbk7yq4z)" height="23.9688" id="SecuritiesAccount" style="stroke: #A80036; stroke-width: 1.5;" width="119" x="666.75" y="464"/><rect fill="#EEEEEE" height="23.9688" style="stroke: #A80036; stroke-width: 1.5;" width="119" x="666.75" y="464"/><text fill="#000000" font-family="sans-serif" font-size="12" lengthAdjust="spacingAndGlyphs" textLength="113" x="669.75" y="480.1387">SecuritiesAccount</text></a><!--class CashAccount--><a target="_top" xlink:actuate="onRequest" xlink:href="../CashAccount.html" xlink:show="new" xlink:title="Account to or from which a cash entry is made." xlink:type="simple"><rect fill="#EEEEEE" filter="url(#f1ls7npbk7yq4z)" height="23.9688" id="CashAccount" style="stroke: #A80036; stroke-width: 1.5;" width="88" x="698.5" y="654"/><rect fill="#EEEEEE" height="23.9688" style="stroke: #A80036; stroke-width: 1.5;" width="88" x="698.5" y="654"/><text fill="#000000" font-family="sans-serif" font-size="12" lengthAdjust="spacingAndGlyphs" textLength="82" x="701.5" y="670.1387">CashAccount</text></a><!--class Security--><a target="_top" xlink:actuate="onRequest" xlink:href="../Security.html" xlink:show="new" xlink:title="Financial instruments representing a sum of rights of the investor vis-a-vis the issuer." xlink:type="simple"><rect fill="#EEEEEE" filter="url(#f1ls7npbk7yq4z)" height="23.9688" id="Security" style="stroke: #A80036; stroke-width: 1.5;" width="56" x="693.5" y="568"/><rect fill="#EEEEEE" height="23.9688" style="stroke: #A80036; stroke-width: 1.5;" width="56" x="693.5" y="568"/><text fill="#000000" font-family="sans-serif" font-size="12" lengthAdjust="spacingAndGlyphs" textLength="50" x="696.5" y="584.1387">Security</text></a><!--link Role to AssetPartyRole--><path d="M564.62,105.559 C568.061,127.159 572.001,151.898 574.226,165.865 " fill="none" id="Role-AssetPartyRole" style="stroke: #A80036; stroke-width: 1.0;"/><polygon fill="none" points="557.661,106.373,561.428,85.52,571.487,104.17,557.661,106.373" style="stroke: #A80036; stroke-width: 1.0;"/><!--link AssetPartyRole to SecuritiesPartyRole--><path d="M576,210.595 C576,230.825 576,255.843 576,269.954 " fill="none" id="AssetPartyRole-SecuritiesPartyRole" style="stroke: #A80036; stroke-width: 1.0;"/><polygon fill="none" points="569,210.306,576,190.306,583,210.305,569,210.306" style="stroke: #A80036; stroke-width: 1.0;"/><!--link SecuritiesPartyRole to SafekeepingPlace--><path d="M544.803,306.535 C522.71,323.201 494.063,344.812 476.907,357.754 " fill="none" id="SecuritiesPartyRole-SafekeepingPlace" style="stroke: #A80036; stroke-width: 1.0;"/><polygon fill="none" points="540.914,300.7,561.096,294.243,549.346,311.876,540.914,300.7" style="stroke: #A80036; stroke-width: 1.0;"/><!--link SecuritiesPartyRole to RegistrarRole--><path d="M584.862,313.486 C589.329,328.851 594.474,346.551 597.731,357.754 " fill="none" id="SecuritiesPartyRole-RegistrarRole" style="stroke: #A80036; stroke-width: 1.0;"/><polygon fill="none" points="578.129,315.402,579.268,294.243,591.573,311.494,578.129,315.402" style="stroke: #A80036; stroke-width: 1.0;"/><!--link SecuritiesPartyRole to BeneficialOwner--><path d="M493.587,297.613 C393.519,315.357 227.712,344.758 143.529,359.686 " fill="none" id="SecuritiesPartyRole-BeneficialOwner" style="stroke: #A80036; stroke-width: 1.0;"/><polygon fill="none" points="492.673,290.666,513.588,294.067,495.117,304.451,492.673,290.666" style="stroke: #A80036; stroke-width: 1.0;"/><!--link SecuritiesPartyRole to CustodianRole--><path d="M511.248,298.956 C441.542,316.133 332.509,343.001 271.739,357.976 " fill="none" id="SecuritiesPartyRole-CustodianRole" style="stroke: #A80036; stroke-width: 1.0;"/><polygon fill="none" points="509.995,292.056,531.089,294.067,513.345,305.649,509.995,292.056" style="stroke: #A80036; stroke-width: 1.0;"/><!--link SecuritiesPartyRole to Pledgee--><path d="M526.453,300.979 C478.301,318.452 406.855,344.377 367.532,358.647 " fill="none" id="SecuritiesPartyRole-Pledgee" style="stroke: #A80036; stroke-width: 1.0;"/><polygon fill="none" points="524.313,294.309,545.502,294.067,529.089,307.469,524.313,294.309" style="stroke: #A80036; stroke-width: 1.0;"/><!--link ContactPersonRole to RolePlayer--><!--link CounterpartyRisk to ContactPersonRole--><!--link Entry to CounterpartyRisk--><!--link CashAccount to SecuritiesAccount--><!--link Security to CashAccount--><!--link Role to RolePlayer--><path d="M645.496,65.441 C878.602,70.435 1497,91.72 1497,177 C1497,177 1497,177 1497,371 C1497,432.384 1290.27,461.411 1200.64,471.111 " fill="none" id="Role-RolePlayer" style="stroke: #A80036; stroke-width: 1.0;"/><polygon fill="#A80036" points="1195.43,471.668,1204.811,474.6674,1200.4005,471.1252,1203.9426,466.7147,1195.43,471.668" style="stroke: #A80036; stroke-width: 1.0;"/><text fill="#000000" font-family="sans-serif" font-size="13" lengthAdjust="spacingAndGlyphs" textLength="39" x="1498" y="286.0669">Player</text><text fill="#000000" font-family="sans-serif" font-size="13" lengthAdjust="spacingAndGlyphs" textLength="7" x="1203.8913" y="464.9458">*</text><!--link Role to ContactPersonRole--><path d="M645.543,66.958 C827.314,74.026 1232.13,94.933 1272,142 C1313.07,190.482 1246,278.54 1213,318 C1200.15,333.37 1181.6,346.248 1166.42,355.218 " fill="none" id="Role-ContactPersonRole" style="stroke: #A80036; stroke-width: 1.0;"/><polygon fill="#A80036" points="1161.82,357.875,1171.6141,356.8376,1166.1497,355.3743,1167.613,349.91,1161.82,357.875" style="stroke: #A80036; stroke-width: 1.0;"/><text fill="#000000" font-family="sans-serif" font-size="13" lengthAdjust="spacingAndGlyphs" textLength="121" x="1277" y="233.0669">ContactPersonRole</text><text fill="#000000" font-family="sans-serif" font-size="13" lengthAdjust="spacingAndGlyphs" textLength="8" x="1158.6019" y="346.8802">1</text><!--link Role to CounterpartyRisk--><path d="M645.412,69.823 C797.901,80.852 1099.49,106.868 1132,142 C1163.22,175.739 1152.47,236.053 1144.88,264.843 " fill="none" id="Role-CounterpartyRisk" style="stroke: #A80036; stroke-width: 1.0;"/><polygon fill="#A80036" points="1143.51,269.839,1149.7459,262.2158,1144.8311,265.0167,1142.0302,260.1019,1143.51,269.839" style="stroke: #A80036; stroke-width: 1.0;"/><text fill="#000000" font-family="sans-serif" font-size="13" lengthAdjust="spacingAndGlyphs" textLength="109" x="1153" y="182.0669">CounterpartyRisk</text><text fill="#000000" font-family="sans-serif" font-size="13" lengthAdjust="spacingAndGlyphs" textLength="24" x="1115.1619" y="258.8319">0..1</text><!--link Role to Entry--><path d="M645.336,82.344 C771.456,108.834 997.585,156.329 1071.73,171.902 " fill="none" id="Role-Entry" style="stroke: #A80036; stroke-width: 1.0;"/><polygon fill="#A80036" points="1076.8,172.967,1068.8154,167.2011,1071.9069,171.9384,1067.1696,175.0299,1076.8,172.967" style="stroke: #A80036; stroke-width: 1.0;"/><text fill="#000000" font-family="sans-serif" font-size="13" lengthAdjust="spacingAndGlyphs" textLength="33" x="893" y="129.0669">Entry</text><text fill="#000000" font-family="sans-serif" font-size="13" lengthAdjust="spacingAndGlyphs" textLength="8" x="1060.9937" y="165.2508">1</text><!--link AssetPartyRole to Asset--><path d="M592.011,190.11 C618.963,208.811 673.332,246.536 702.841,267.012 " fill="none" id="AssetPartyRole-Asset" style="stroke: #A80036; stroke-width: 1.0;"/><polygon fill="#A80036" points="707.008,269.904,701.8942,261.4868,702.9001,267.0535,697.3334,268.0594,707.008,269.904" style="stroke: #A80036; stroke-width: 1.0;"/><text fill="#000000" font-family="sans-serif" font-size="13" lengthAdjust="spacingAndGlyphs" textLength="36" x="660" y="233.0669">Asset</text><text fill="#000000" font-family="sans-serif" font-size="13" lengthAdjust="spacingAndGlyphs" textLength="7" x="691.8779" y="258.9192">*</text><!--link SecuritiesPartyRole to SecuritiesAccount--><path d="M591.912,294.321 C619.454,314.828 675.767,360.948 704,414 C711.682,428.435 717.729,446.127 721.523,458.733 " fill="none" id="SecuritiesPartyRole-SecuritiesAccount" style="stroke: #A80036; stroke-width: 1.0;"/><polygon fill="#A80036" points="723.01,463.8,724.3158,454.0381,721.603,459.002,716.6391,456.2892,723.01,463.8" style="stroke: #A80036; stroke-width: 1.0;"/><text fill="#000000" font-family="sans-serif" font-size="13" lengthAdjust="spacingAndGlyphs" textLength="115" x="700" y="374.0669">SecuritiesAccount</text><text fill="#000000" font-family="sans-serif" font-size="13" lengthAdjust="spacingAndGlyphs" textLength="7" x="712.4461" y="453.0372">*</text><!--link SecuritiesPartyRole to CashAccount--><path d="M604.464,294.127 C626.393,302.188 657.654,312.585 686,318 C746.406,329.539 958,307.502 958,369 C958,369 958,369 958,581 C958,616.6134 854.715,643.1399 790.988,656.1173 " fill="none" id="SecuritiesPartyRole-CashAccount" style="stroke: #A80036; stroke-width: 1.0;"/><polygon fill="#A80036" points="785.711,657.1796,795.3236,659.3241,790.6126,656.1925,793.7442,651.4815,785.711,657.1796" style="stroke: #A80036; stroke-width: 1.0;"/><text fill="#000000" font-family="sans-serif" font-size="13" lengthAdjust="spacingAndGlyphs" textLength="84" x="959" y="480.0669">CashAccount</text><text fill="#000000" font-family="sans-serif" font-size="13" lengthAdjust="spacingAndGlyphs" textLength="7" x="794.6153" y="649.9604">*</text><!--link SecuritiesPartyRole to Security--><path d="M610.112,294.124 C631.797,301.128 660.491,310.273 686,318 C747.524,336.636 786.337,306.642 825,358 C874.347,423.551 842.841,480.818 784,538 C772.998,548.692 758.815,558.21 746.692,565.378 " fill="none" id="SecuritiesPartyRole-Security" style="stroke: #A80036; stroke-width: 1.0;"/><polygon fill="#A80036" points="742.329,567.91,752.1208,566.8514,746.6533,565.4,748.1048,559.9325,742.329,567.91" style="stroke: #A80036; stroke-width: 1.0;"/><text fill="#000000" font-family="sans-serif" font-size="13" lengthAdjust="spacingAndGlyphs" textLength="52" x="851" y="427.0669">Security</text><text fill="#000000" font-family="sans-serif" font-size="13" lengthAdjust="spacingAndGlyphs" textLength="7" x="739.9421" y="556.9273">*</text><!--link SafekeepingPlace to SecuritiesAccount--><path d="M441.235,382.087 C420.865,394.363 394.898,414.704 410,432 C441.936,468.576 578.451,475.217 661.248,475.774 " fill="none" id="SafekeepingPlace-SecuritiesAccount" style="stroke: #A80036; stroke-width: 1.0;"/><polygon fill="#A80036" points="666.622,475.802,657.6438,471.7532,661.6221,475.7749,657.6004,479.7531,666.622,475.802" style="stroke: #A80036; stroke-width: 1.0;"/><text fill="#000000" font-family="sans-serif" font-size="13" lengthAdjust="spacingAndGlyphs" textLength="163" x="411" y="427.0669">RelatedSecuritiesAccount</text><text fill="#000000" font-family="sans-serif" font-size="13" lengthAdjust="spacingAndGlyphs" textLength="8" x="650.5533" y="470.9265">1</text><!--link RegistrarRole to SecuritiesAccount--><path d="M593.891,382.007 C586.403,395.139 577.09,417.174 588,432 C605.012,455.119 634.371,466.163 661.647,471.307 " fill="none" id="RegistrarRole-SecuritiesAccount" style="stroke: #A80036; stroke-width: 1.0;"/><polygon fill="#A80036" points="666.713,472.2,658.5446,466.6975,661.789,471.3315,657.155,474.5759,666.713,472.2" style="stroke: #A80036; stroke-width: 1.0;"/><text fill="#000000" font-family="sans-serif" font-size="13" lengthAdjust="spacingAndGlyphs" textLength="109" x="589" y="427.0669">RegistrarAccount</text><text fill="#000000" font-family="sans-serif" font-size="13" lengthAdjust="spacingAndGlyphs" textLength="8" x="650.6543" y="484.6806">1</text><!--link SecuritiesAccount to Security--><path d="M724.326,488.286 C723.13,496.941 721.626,509.196 721,520 C720.168,534.366 720.249,550.732 720.492,562.577 " fill="none" id="SecuritiesAccount-Security" style="stroke: #A80036; stroke-width: 1.0;"/><polygon fill="#A80036" points="720.612,567.678,724.3974,558.5857,720.4934,562.6794,716.3997,558.7754,720.612,567.678" style="stroke: #A80036; stroke-width: 1.0;"/><text fill="#000000" font-family="sans-serif" font-size="13" lengthAdjust="spacingAndGlyphs" textLength="52" x="722" y="533.0669">Security</text><text fill="#000000" font-family="sans-serif" font-size="13" lengthAdjust="spacingAndGlyphs" textLength="7" x="710.8272" y="556.8748">*</text></g></svg>