<?xml version="1.0" encoding="UTF-8" standalone="no"?><svg xmlns="http://www.w3.org/2000/svg" xmlns:xlink="http://www.w3.org/1999/xlink" contentScriptType="application/ecmascript" contentStyleType="text/css" height="480px" preserveAspectRatio="none" style="width:626px;height:480px;" version="1.1" viewBox="0 0 626 480" width="626px" zoomAndPan="magnify"><defs><filter height="300%" id="fa7hi5r8rvk1q" width="300%" x="-1" y="-1"><feGaussianBlur result="blurOut" stdDeviation="2.0"/><feColorMatrix in="blurOut" result="blurOut2" type="matrix" values="0 0 0 0 0 0 0 0 0 0 0 0 0 0 0 0 0 0 .4 0"/><feOffset dx="4.0" dy="4.0" in="blurOut2" result="blurOut3"/><feBlend in="SourceGraphic" in2="blurOut3" mode="normal"/></filter></defs><g><!--cluster ##14688--><!--cluster ##14694--><!--cluster ##14703--><!--class Role--><a target="_top" xlink:actuate="onRequest" xlink:href="../Role.html" xlink:show="new" xlink:title="Role of a party in an activity." xlink:type="simple"><rect fill="#FEFEEE" filter="url(#fa7hi5r8rvk1q)" height="44.7734" id="Role" style="stroke: #A80036; stroke-width: 1.5;" width="175" x="42.75" y="40.5"/><rect fill="#FEFEEE" height="23.9688" style="stroke: #A80036; stroke-width: 1.5;" width="175" x="42.75" y="40.5"/><text fill="#000000" font-family="sans-serif" font-size="12" lengthAdjust="spacingAndGlyphs" textLength="27" x="116.75" y="56.6387">Role</text><line style="stroke: #A80036; stroke-width: 1.5;" x1="43.75" x2="216.75" y1="64.4688" y2="64.4688"/><ellipse cx="53.75" cy="76.3711" fill="#84BE84" rx="3" ry="3" style="stroke: #038048; stroke-width: 1.0;"/><text fill="#000000" font-family="sans-serif" font-size="11" lengthAdjust="spacingAndGlyphs" textLength="53" x="62.75" y="78.6792">PartyRole</text><text fill="#000000" font-family="sans-serif" font-size="11" font-style="italic" lengthAdjust="spacingAndGlyphs" textLength="92" x="119.75" y="78.6792">(PartyRoleCode)</text></a><!--class SecurityCertificatePartyRole--><a target="_top" xlink:actuate="onRequest" xlink:href="../SecurityCertificatePartyRole.html" xlink:show="new" xlink:title="Role played by a party in the context of a security certificate" xlink:type="simple"><rect fill="#FEFECE" filter="url(#fa7hi5r8rvk1q)" height="23.9688" id="SecurityCertificatePartyRole" style="stroke: #A80036; stroke-width: 1.5;" width="179" x="38.75" y="166"/><rect fill="#FEFECE" height="23.9688" style="stroke: #A80036; stroke-width: 1.5;" width="179" x="38.75" y="166"/><text fill="#000000" font-family="sans-serif" font-size="12" lengthAdjust="spacingAndGlyphs" textLength="173" x="41.75" y="182.1387">SecurityCertificatePartyRole</text></a><!--class RolePlayer--><a target="_top" xlink:actuate="onRequest" xlink:href="../RolePlayer.html" xlink:show="new" xlink:title="Type of entity that plays a specific role in a specific context." xlink:type="simple"><rect fill="#EEEEEE" filter="url(#fa7hi5r8rvk1q)" height="23.9688" id="RolePlayer" style="stroke: #A80036; stroke-width: 1.5;" width="71" x="496.75" y="446"/><rect fill="#EEEEEE" height="23.9688" style="stroke: #A80036; stroke-width: 1.5;" width="71" x="496.75" y="446"/><text fill="#000000" font-family="sans-serif" font-size="12" lengthAdjust="spacingAndGlyphs" textLength="65" x="499.75" y="462.1387">RolePlayer</text></a><!--class ContactPersonRole--><a target="_top" xlink:actuate="onRequest" xlink:href="../ContactPersonRole.html" xlink:show="new" xlink:title="Person to be contacted in a given organisation. In the corporate action domain (including meeting notifications) , it is the contact person at the party organising the meeting, at the issuer or at an intermediary." xlink:type="simple"><rect fill="#EEEEEE" filter="url(#fa7hi5r8rvk1q)" height="23.9688" id="ContactPersonRole" style="stroke: #A80036; stroke-width: 1.5;" width="126" x="489" y="360"/><rect fill="#EEEEEE" height="23.9688" style="stroke: #A80036; stroke-width: 1.5;" width="126" x="489" y="360"/><text fill="#000000" font-family="sans-serif" font-size="12" lengthAdjust="spacingAndGlyphs" textLength="120" x="492" y="376.1387">ContactPersonRole</text></a><!--class CounterpartyRisk--><a target="_top" xlink:actuate="onRequest" xlink:href="../CounterpartyRisk.html" xlink:show="new" xlink:title="Calculation of the exposure amount that one party has vis-a-vis one counterparty or a central system, based on its credit risk." xlink:type="simple"><rect fill="#EEEEEE" filter="url(#fa7hi5r8rvk1q)" height="23.9688" id="CounterpartyRisk" style="stroke: #A80036; stroke-width: 1.5;" width="113" x="495.75" y="272"/><rect fill="#EEEEEE" height="23.9688" style="stroke: #A80036; stroke-width: 1.5;" width="113" x="495.75" y="272"/><text fill="#000000" font-family="sans-serif" font-size="12" lengthAdjust="spacingAndGlyphs" textLength="107" x="498.75" y="288.1387">CounterpartyRisk</text></a><!--class Entry--><a target="_top" xlink:actuate="onRequest" xlink:href="../Entry.html" xlink:show="new" xlink:title="Posting to an account that results in an increase or decrease to a balance." xlink:type="simple"><rect fill="#EEEEEE" filter="url(#fa7hi5r8rvk1q)" height="23.9688" id="Entry" style="stroke: #A80036; stroke-width: 1.5;" width="38" x="577" y="166"/><rect fill="#EEEEEE" height="23.9688" style="stroke: #A80036; stroke-width: 1.5;" width="38" x="577" y="166"/><text fill="#000000" font-family="sans-serif" font-size="12" lengthAdjust="spacingAndGlyphs" textLength="32" x="580" y="182.1387">Entry</text></a><!--class SecurityCertificate--><a target="_top" xlink:actuate="onRequest" xlink:href="../SecurityCertificate.html" xlink:show="new" xlink:title="Certificate linked to a digital signature." xlink:type="simple"><rect fill="#EEEEEE" filter="url(#fa7hi5r8rvk1q)" height="23.9688" id="SecurityCertificate" style="stroke: #A80036; stroke-width: 1.5;" width="120" x="68.5" y="272"/><rect fill="#EEEEEE" height="23.9688" style="stroke: #A80036; stroke-width: 1.5;" width="120" x="68.5" y="272"/><text fill="#000000" font-family="sans-serif" font-size="12" lengthAdjust="spacingAndGlyphs" textLength="114" x="71.5" y="288.1387">SecurityCertificate</text></a><!--link Role to SecurityCertificatePartyRole--><path d="M129.264,105.559 C128.882,127.159 128.444,151.898 128.197,165.865 " fill="none" id="Role-SecurityCertificatePartyRole" style="stroke: #A80036; stroke-width: 1.0;"/><polygon fill="none" points="122.266,105.393,129.619,85.52,136.264,105.641,122.266,105.393" style="stroke: #A80036; stroke-width: 1.0;"/><!--link ContactPersonRole to RolePlayer--><!--link CounterpartyRisk to ContactPersonRole--><!--link Entry to CounterpartyRisk--><!--link Role to RolePlayer--><path d="M190.615,85.526 C228.831,103.404 271,133.082 271,177 C271,177 271,177 271,373 C271,418.7304 418.025,443.1339 491.378,452.4635 " fill="none" id="Role-RolePlayer" style="stroke: #A80036; stroke-width: 1.0;"/><polygon fill="#A80036" points="496.529,453.1092,488.0959,448.0216,491.5678,452.4878,487.1016,455.9596,496.529,453.1092" style="stroke: #A80036; stroke-width: 1.0;"/><text fill="#000000" font-family="sans-serif" font-size="13" lengthAdjust="spacingAndGlyphs" textLength="39" x="272" y="288.0669">Player</text><text fill="#000000" font-family="sans-serif" font-size="13" lengthAdjust="spacingAndGlyphs" textLength="7" x="481.8674" y="446.9718">*</text><!--link Role to ContactPersonRole--><path d="M217.46,74.645 C246.01,82.091 275.791,94.695 297,116 C337.667,156.85 299.545,194.553 335,240 C382.236,300.548 465.907,339.421 514.391,358.034 " fill="none" id="Role-ContactPersonRole" style="stroke: #A80036; stroke-width: 1.0;"/><polygon fill="#A80036" points="519.259,359.88,512.2624,352.9483,514.584,358.1069,509.4254,360.4284,519.259,359.88" style="stroke: #A80036; stroke-width: 1.0;"/><text fill="#000000" font-family="sans-serif" font-size="13" lengthAdjust="spacingAndGlyphs" textLength="121" x="336" y="235.0669">ContactPersonRole</text><text fill="#000000" font-family="sans-serif" font-size="13" lengthAdjust="spacingAndGlyphs" textLength="8" x="497.2855" y="348.887">1</text><!--link Role to CounterpartyRisk--><path d="M217.506,69.147 C264.916,75.24 322.857,88.282 368,116 C415.915,145.419 402.981,180.317 448,214 C455.336,219.489 459.006,217.523 467,222 C491.691,235.827 517.81,255.417 534.475,268.634 " fill="none" id="Role-CounterpartyRisk" style="stroke: #A80036; stroke-width: 1.0;"/><polygon fill="#A80036" points="538.501,271.85,533.9642,263.1083,534.5939,268.73,528.9722,269.3597,538.501,271.85" style="stroke: #A80036; stroke-width: 1.0;"/><text fill="#000000" font-family="sans-serif" font-size="13" lengthAdjust="spacingAndGlyphs" textLength="109" x="449" y="182.0669">CounterpartyRisk</text><text fill="#000000" font-family="sans-serif" font-size="13" lengthAdjust="spacingAndGlyphs" textLength="24" x="504.306" y="260.8467">0..1</text><!--link Role to Entry--><path d="M217.321,75.228 C283.254,84.359 375.773,98.563 456,116 C498.358,125.206 511.162,122.751 550,142 C560.818,147.361 571.627,155.414 580.047,162.444 " fill="none" id="Role-Entry" style="stroke: #A80036; stroke-width: 1.0;"/><polygon fill="#A80036" points="583.979,165.797,579.7265,156.9135,580.1746,162.5526,574.5355,163.0006,583.979,165.797" style="stroke: #A80036; stroke-width: 1.0;"/><text fill="#000000" font-family="sans-serif" font-size="13" lengthAdjust="spacingAndGlyphs" textLength="33" x="532" y="129.0669">Entry</text><text fill="#000000" font-family="sans-serif" font-size="13" lengthAdjust="spacingAndGlyphs" textLength="8" x="569.3408" y="155.0332">1</text><!--link SecurityCertificatePartyRole to SecurityCertificate--><path d="M126.995,190.306 C126.278,198.971 125.375,211.23 125,222 C124.475,237.07 125.459,254.223 126.438,266.492 " fill="none" id="SecurityCertificatePartyRole-SecurityCertificate" style="stroke: #A80036; stroke-width: 1.0;"/><polygon fill="#A80036" points="126.882,271.761,130.1119,262.4568,126.462,266.7787,122.1402,263.1288,126.882,271.761" style="stroke: #A80036; stroke-width: 1.0;"/><text fill="#000000" font-family="sans-serif" font-size="13" lengthAdjust="spacingAndGlyphs" textLength="117" x="126" y="235.0669">SecurityCertificate</text><text fill="#000000" font-family="sans-serif" font-size="13" lengthAdjust="spacingAndGlyphs" textLength="7" x="116.8554" y="260.9853">*</text></g></svg>