<?xml version="1.0" encoding="UTF-8" standalone="no"?><svg xmlns="http://www.w3.org/2000/svg" xmlns:xlink="http://www.w3.org/1999/xlink" contentScriptType="application/ecmascript" contentStyleType="text/css" height="962px" preserveAspectRatio="none" style="width:4481px;height:962px;" version="1.1" viewBox="0 0 4481 962" width="4481px" zoomAndPan="magnify"><defs><filter height="300%" id="frjx1k0kohs51" width="300%" x="-1" y="-1"><feGaussianBlur result="blurOut" stdDeviation="2.0"/><feColorMatrix in="blurOut" result="blurOut2" type="matrix" values="0 0 0 0 0 0 0 0 0 0 0 0 0 0 0 0 0 0 .4 0"/><feOffset dx="4.0" dy="4.0" in="blurOut2" result="blurOut3"/><feBlend in="SourceGraphic" in2="blurOut3" mode="normal"/></filter></defs><g><!--cluster ##14299--><!--cluster ##14305--><!--cluster ##14316--><!--class Distribution--><a target="_top" xlink:actuate="onRequest" xlink:href="../Distribution.html" xlink:show="new" xlink:title="Distributions in cash and/or securities following a corporate event." xlink:type="simple"><rect fill="#FEFEEE" filter="url(#frjx1k0kohs51)" height="211.2344" id="Distribution" style="stroke: #A80036; stroke-width: 1.5;" width="324" x="3198" y="40.5"/><rect fill="#FEFEEE" height="23.9688" style="stroke: #A80036; stroke-width: 1.5;" width="324" x="3198" y="40.5"/><text fill="#000000" font-family="sans-serif" font-size="12" lengthAdjust="spacingAndGlyphs" textLength="72" x="3324" y="56.6387">Distribution</text><line style="stroke: #A80036; stroke-width: 1.5;" x1="3199" x2="3521" y1="64.4688" y2="64.4688"/><ellipse cx="3209" cy="76.3711" fill="#84BE84" rx="3" ry="3" style="stroke: #038048; stroke-width: 1.0;"/><text fill="#000000" font-family="sans-serif" font-size="11" lengthAdjust="spacingAndGlyphs" textLength="74" x="3218" y="78.6792">EffectiveDate</text><text fill="#000000" font-family="sans-serif" font-size="11" font-style="italic" lengthAdjust="spacingAndGlyphs" textLength="81" x="3296" y="78.6792">(ISODateTime)</text><ellipse cx="3209" cy="89.1758" fill="#84BE84" rx="3" ry="3" style="stroke: #038048; stroke-width: 1.0;"/><text fill="#000000" font-family="sans-serif" font-size="11" lengthAdjust="spacingAndGlyphs" textLength="91" x="3218" y="91.4839">EventConditions</text><text fill="#000000" font-family="sans-serif" font-size="11" font-style="italic" lengthAdjust="spacingAndGlyphs" textLength="77" x="3313" y="91.4839">(Max350Text)</text><ellipse cx="3209" cy="101.9805" fill="#84BE84" rx="3" ry="3" style="stroke: #038048; stroke-width: 1.0;"/><text fill="#000000" font-family="sans-serif" font-size="11" lengthAdjust="spacingAndGlyphs" textLength="39" x="3218" y="104.2886">ExDate</text><text fill="#000000" font-family="sans-serif" font-size="11" font-style="italic" lengthAdjust="spacingAndGlyphs" textLength="81" x="3261" y="104.2886">(ISODateTime)</text><ellipse cx="3209" cy="114.7852" fill="#84BE84" rx="3" ry="3" style="stroke: #038048; stroke-width: 1.0;"/><text fill="#000000" font-family="sans-serif" font-size="11" lengthAdjust="spacingAndGlyphs" textLength="60" x="3218" y="117.0933">GrossRate</text><text fill="#000000" font-family="sans-serif" font-size="11" font-style="italic" lengthAdjust="spacingAndGlyphs" textLength="98" x="3282" y="117.0933">(PercentageRate)</text><ellipse cx="3209" cy="127.5898" fill="#84BE84" rx="3" ry="3" style="stroke: #038048; stroke-width: 1.0;"/><text fill="#000000" font-family="sans-serif" font-size="11" lengthAdjust="spacingAndGlyphs" textLength="70" x="3218" y="129.8979">MeetingDate</text><text fill="#000000" font-family="sans-serif" font-size="11" font-style="italic" lengthAdjust="spacingAndGlyphs" textLength="81" x="3292" y="129.8979">(ISODateTime)</text><ellipse cx="3209" cy="140.3945" fill="#84BE84" rx="3" ry="3" style="stroke: #038048; stroke-width: 1.0;"/><text fill="#000000" font-family="sans-serif" font-size="11" lengthAdjust="spacingAndGlyphs" textLength="44" x="3218" y="142.7026">NetRate</text><text fill="#000000" font-family="sans-serif" font-size="11" font-style="italic" lengthAdjust="spacingAndGlyphs" textLength="98" x="3266" y="142.7026">(PercentageRate)</text><ellipse cx="3209" cy="153.1992" fill="#84BE84" rx="3" ry="3" style="stroke: #038048; stroke-width: 1.0;"/><text fill="#000000" font-family="sans-serif" font-size="11" lengthAdjust="spacingAndGlyphs" textLength="81" x="3218" y="155.5073">NewFaceValue</text><text fill="#000000" font-family="sans-serif" font-size="11" font-style="italic" lengthAdjust="spacingAndGlyphs" textLength="126" x="3303" y="155.5073">(CurrencyAndAmount)</text><ellipse cx="3209" cy="166.0039" fill="#84BE84" rx="3" ry="3" style="stroke: #038048; stroke-width: 1.0;"/><text fill="#000000" font-family="sans-serif" font-size="11" lengthAdjust="spacingAndGlyphs" textLength="74" x="3218" y="168.312">NewParValue</text><text fill="#000000" font-family="sans-serif" font-size="11" font-style="italic" lengthAdjust="spacingAndGlyphs" textLength="126" x="3296" y="168.312">(CurrencyAndAmount)</text><ellipse cx="3209" cy="178.8086" fill="#84BE84" rx="3" ry="3" style="stroke: #038048; stroke-width: 1.0;"/><text fill="#000000" font-family="sans-serif" font-size="11" lengthAdjust="spacingAndGlyphs" textLength="75" x="3218" y="181.1167">PaymentDate</text><text fill="#000000" font-family="sans-serif" font-size="11" font-style="italic" lengthAdjust="spacingAndGlyphs" textLength="81" x="3297" y="181.1167">(ISODateTime)</text><ellipse cx="3209" cy="191.6133" fill="#84BE84" rx="3" ry="3" style="stroke: #038048; stroke-width: 1.0;"/><text fill="#000000" font-family="sans-serif" font-size="11" lengthAdjust="spacingAndGlyphs" textLength="128" x="3218" y="193.9214">CorporateActionOption</text><text fill="#000000" font-family="sans-serif" font-size="11" font-style="italic" lengthAdjust="spacingAndGlyphs" textLength="166" x="3350" y="193.9214">(CorporateActionOptionCode)</text><ellipse cx="3209" cy="204.418" fill="#84BE84" rx="3" ry="3" style="stroke: #038048; stroke-width: 1.0;"/><text fill="#000000" font-family="sans-serif" font-size="11" lengthAdjust="spacingAndGlyphs" textLength="88" x="3218" y="206.7261">CurrencyOption</text><text fill="#000000" font-family="sans-serif" font-size="11" font-style="italic" lengthAdjust="spacingAndGlyphs" textLength="89" x="3310" y="206.7261">(CurrencyCode)</text><ellipse cx="3209" cy="217.2227" fill="#84BE84" rx="3" ry="3" style="stroke: #038048; stroke-width: 1.0;"/><text fill="#000000" font-family="sans-serif" font-size="11" lengthAdjust="spacingAndGlyphs" textLength="97" x="3218" y="219.5308">DecreaseAmount</text><text fill="#000000" font-family="sans-serif" font-size="11" font-style="italic" lengthAdjust="spacingAndGlyphs" textLength="126" x="3319" y="219.5308">(CurrencyAndAmount)</text><ellipse cx="3209" cy="230.0273" fill="#84BE84" rx="3" ry="3" style="stroke: #038048; stroke-width: 1.0;"/><text fill="#000000" font-family="sans-serif" font-size="11" lengthAdjust="spacingAndGlyphs" textLength="79" x="3218" y="232.3354">DecreaseRate</text><text fill="#000000" font-family="sans-serif" font-size="11" font-style="italic" lengthAdjust="spacingAndGlyphs" textLength="98" x="3301" y="232.3354">(PercentageRate)</text><ellipse cx="3209" cy="242.832" fill="#84BE84" rx="3" ry="3" style="stroke: #038048; stroke-width: 1.0;"/><text fill="#000000" font-family="sans-serif" font-size="11" lengthAdjust="spacingAndGlyphs" textLength="115" x="3218" y="245.1401">OfferPriceFixingDate</text><text fill="#000000" font-family="sans-serif" font-size="11" font-style="italic" lengthAdjust="spacingAndGlyphs" textLength="81" x="3337" y="245.1401">(ISODateTime)</text></a><!--class SecuritiesDistribution--><a target="_top" xlink:actuate="onRequest" xlink:href="../SecuritiesDistribution.html" xlink:show="new" xlink:title="Characteristics for a securities distribution event." xlink:type="simple"><rect fill="#FEFECE" filter="url(#frjx1k0kohs51)" height="224.0391" id="SecuritiesDistribution" style="stroke: #A80036; stroke-width: 1.5;" width="354" x="3168.5" y="330"/><rect fill="#FEFECE" height="23.9688" style="stroke: #A80036; stroke-width: 1.5;" width="354" x="3168.5" y="330"/><text fill="#000000" font-family="sans-serif" font-size="12" lengthAdjust="spacingAndGlyphs" textLength="134" x="3278.5" y="346.1387">SecuritiesDistribution</text><line style="stroke: #A80036; stroke-width: 1.5;" x1="3169.5" x2="3521.5" y1="353.9688" y2="353.9688"/><ellipse cx="3179.5" cy="365.8711" fill="#84BE84" rx="3" ry="3" style="stroke: #038048; stroke-width: 1.0;"/><text fill="#000000" font-family="sans-serif" font-size="11" lengthAdjust="spacingAndGlyphs" textLength="178" x="3188.5" y="368.1792">IntermediateSecurityExpiryDate</text><text fill="#000000" font-family="sans-serif" font-size="11" font-style="italic" lengthAdjust="spacingAndGlyphs" textLength="81" x="3370.5" y="368.1792">(ISODateTime)</text><ellipse cx="3179.5" cy="378.6758" fill="#84BE84" rx="3" ry="3" style="stroke: #038048; stroke-width: 1.0;"/><text fill="#000000" font-family="sans-serif" font-size="11" lengthAdjust="spacingAndGlyphs" textLength="128" x="3188.5" y="380.9839">TradingAvailabilityDate</text><text fill="#000000" font-family="sans-serif" font-size="11" font-style="italic" lengthAdjust="spacingAndGlyphs" textLength="81" x="3320.5" y="380.9839">(ISODateTime)</text><ellipse cx="3179.5" cy="391.4805" fill="#84BE84" rx="3" ry="3" style="stroke: #038048; stroke-width: 1.0;"/><text fill="#000000" font-family="sans-serif" font-size="11" lengthAdjust="spacingAndGlyphs" textLength="89" x="3188.5" y="393.7886">OfferExpiryDate</text><text fill="#000000" font-family="sans-serif" font-size="11" font-style="italic" lengthAdjust="spacingAndGlyphs" textLength="81" x="3281.5" y="393.7886">(ISODateTime)</text><ellipse cx="3179.5" cy="404.2852" fill="#84BE84" rx="3" ry="3" style="stroke: #038048; stroke-width: 1.0;"/><text fill="#000000" font-family="sans-serif" font-size="11" lengthAdjust="spacingAndGlyphs" textLength="122" x="3188.5" y="406.5933">OversubscriptionRate</text><text fill="#000000" font-family="sans-serif" font-size="11" font-style="italic" lengthAdjust="spacingAndGlyphs" textLength="98" x="3314.5" y="406.5933">(PercentageRate)</text><ellipse cx="3179.5" cy="417.0898" fill="#84BE84" rx="3" ry="3" style="stroke: #038048; stroke-width: 1.0;"/><text fill="#000000" font-family="sans-serif" font-size="11" lengthAdjust="spacingAndGlyphs" textLength="140" x="3188.5" y="419.3979">OversubscriptionAmount</text><text fill="#000000" font-family="sans-serif" font-size="11" font-style="italic" lengthAdjust="spacingAndGlyphs" textLength="126" x="3332.5" y="419.3979">(CurrencyAndAmount)</text><ellipse cx="3179.5" cy="429.8945" fill="#84BE84" rx="3" ry="3" style="stroke: #038048; stroke-width: 1.0;"/><text fill="#000000" font-family="sans-serif" font-size="11" lengthAdjust="spacingAndGlyphs" textLength="120" x="3188.5" y="432.2026">ReinvestmentAmount</text><text fill="#000000" font-family="sans-serif" font-size="11" font-style="italic" lengthAdjust="spacingAndGlyphs" textLength="126" x="3312.5" y="432.2026">(CurrencyAndAmount)</text><ellipse cx="3179.5" cy="442.6992" fill="#84BE84" rx="3" ry="3" style="stroke: #038048; stroke-width: 1.0;"/><text fill="#000000" font-family="sans-serif" font-size="11" lengthAdjust="spacingAndGlyphs" textLength="102" x="3188.5" y="445.0073">ReinvestmentRate</text><text fill="#000000" font-family="sans-serif" font-size="11" font-style="italic" lengthAdjust="spacingAndGlyphs" textLength="85" x="3294.5" y="445.0073">(BaseOneRate)</text><ellipse cx="3179.5" cy="455.5039" fill="#84BE84" rx="3" ry="3" style="stroke: #038048; stroke-width: 1.0;"/><text fill="#000000" font-family="sans-serif" font-size="11" lengthAdjust="spacingAndGlyphs" textLength="142" x="3188.5" y="457.812">LoyalityPremiumIndicator</text><text fill="#000000" font-family="sans-serif" font-size="11" font-style="italic" lengthAdjust="spacingAndGlyphs" textLength="92" x="3334.5" y="457.812">(YesNoIndicator)</text><ellipse cx="3179.5" cy="468.3086" fill="#84BE84" rx="3" ry="3" style="stroke: #038048; stroke-width: 1.0;"/><text fill="#000000" font-family="sans-serif" font-size="11" lengthAdjust="spacingAndGlyphs" textLength="146" x="3188.5" y="470.6167">OversubscriptionIndicator</text><text fill="#000000" font-family="sans-serif" font-size="11" font-style="italic" lengthAdjust="spacingAndGlyphs" textLength="92" x="3338.5" y="470.6167">(YesNoIndicator)</text><ellipse cx="3179.5" cy="481.1133" fill="#84BE84" rx="3" ry="3" style="stroke: #038048; stroke-width: 1.0;"/><text fill="#000000" font-family="sans-serif" font-size="11" lengthAdjust="spacingAndGlyphs" textLength="128" x="3188.5" y="483.4214">RenounceableIndicator</text><text fill="#000000" font-family="sans-serif" font-size="11" font-style="italic" lengthAdjust="spacingAndGlyphs" textLength="92" x="3320.5" y="483.4214">(YesNoIndicator)</text><ellipse cx="3179.5" cy="493.918" fill="#84BE84" rx="3" ry="3" style="stroke: #038048; stroke-width: 1.0;"/><text fill="#000000" font-family="sans-serif" font-size="11" lengthAdjust="spacingAndGlyphs" textLength="97" x="3188.5" y="496.2261">DecimalPrecision</text><text fill="#000000" font-family="sans-serif" font-size="11" font-style="italic" lengthAdjust="spacingAndGlyphs" textLength="53" x="3289.5" y="496.2261">(Number)</text><ellipse cx="3179.5" cy="506.7227" fill="#84BE84" rx="3" ry="3" style="stroke: #038048; stroke-width: 1.0;"/><text fill="#000000" font-family="sans-serif" font-size="11" lengthAdjust="spacingAndGlyphs" textLength="104" x="3188.5" y="509.0308">ReinvestmentType</text><text fill="#000000" font-family="sans-serif" font-size="11" font-style="italic" lengthAdjust="spacingAndGlyphs" textLength="115" x="3296.5" y="509.0308">(PaymentTypeCode)</text><ellipse cx="3179.5" cy="519.5273" fill="#84BE84" rx="3" ry="3" style="stroke: #038048; stroke-width: 1.0;"/><text fill="#000000" font-family="sans-serif" font-size="11" lengthAdjust="spacingAndGlyphs" textLength="106" x="3188.5" y="521.8354">RevocableIndicator</text><text fill="#000000" font-family="sans-serif" font-size="11" font-style="italic" lengthAdjust="spacingAndGlyphs" textLength="92" x="3298.5" y="521.8354">(YesNoIndicator)</text><ellipse cx="3179.5" cy="532.332" fill="#84BE84" rx="3" ry="3" style="stroke: #038048; stroke-width: 1.0;"/><text fill="#000000" font-family="sans-serif" font-size="11" lengthAdjust="spacingAndGlyphs" textLength="104" x="3188.5" y="534.6401">FractionTreatment</text><text fill="#000000" font-family="sans-serif" font-size="11" font-style="italic" lengthAdjust="spacingAndGlyphs" textLength="140" x="3296.5" y="534.6401">(RoundingDirectionCode)</text><ellipse cx="3179.5" cy="545.1367" fill="#84BE84" rx="3" ry="3" style="stroke: #038048; stroke-width: 1.0;"/><text fill="#000000" font-family="sans-serif" font-size="11" lengthAdjust="spacingAndGlyphs" textLength="232" x="3188.5" y="547.4448">IntermediateSecurityDistributionIndicator</text><text fill="#000000" font-family="sans-serif" font-size="11" font-style="italic" lengthAdjust="spacingAndGlyphs" textLength="92" x="3424.5" y="547.4448">(YesNoIndicator)</text></a><!--class DateTimePeriod--><a target="_top" xlink:actuate="onRequest" xlink:href="../DateTimePeriod.html" xlink:show="new" xlink:title="Time span defined by a start date and time, and an end date and time." xlink:type="simple"><rect fill="#EEEEEE" filter="url(#frjx1k0kohs51)" height="23.9688" id="DateTimePeriod" style="stroke: #A80036; stroke-width: 1.5;" width="105" x="3723.75" y="430"/><rect fill="#EEEEEE" height="23.9688" style="stroke: #A80036; stroke-width: 1.5;" width="105" x="3723.75" y="430"/><text fill="#000000" font-family="sans-serif" font-size="12" lengthAdjust="spacingAndGlyphs" textLength="99" x="3726.75" y="446.1387">DateTimePeriod</text></a><!--class Tax--><a target="_top" xlink:actuate="onRequest" xlink:href="../Tax.html" xlink:show="new" xlink:title="Amount of money due to the government or tax authority, according to various pre-defined parameters such as thresholds or income." xlink:type="simple"><rect fill="#EEEEEE" filter="url(#frjx1k0kohs51)" height="23.9688" id="Tax" style="stroke: #A80036; stroke-width: 1.5;" width="27" x="4031.75" y="738"/><rect fill="#EEEEEE" height="23.9688" style="stroke: #A80036; stroke-width: 1.5;" width="27" x="4031.75" y="738"/><text fill="#000000" font-family="sans-serif" font-size="12" lengthAdjust="spacingAndGlyphs" textLength="21" x="4034.75" y="754.1387">Tax</text></a><!--class SecuritiesPricing--><a target="_top" xlink:actuate="onRequest" xlink:href="../SecuritiesPricing.html" xlink:show="new" xlink:title="Characteristics related to the price of the security." xlink:type="simple"><rect fill="#EEEEEE" filter="url(#frjx1k0kohs51)" height="23.9688" id="SecuritiesPricing" style="stroke: #A80036; stroke-width: 1.5;" width="110" x="3654" y="636"/><rect fill="#EEEEEE" height="23.9688" style="stroke: #A80036; stroke-width: 1.5;" width="110" x="3654" y="636"/><text fill="#000000" font-family="sans-serif" font-size="12" lengthAdjust="spacingAndGlyphs" textLength="104" x="3657" y="652.1387">SecuritiesPricing</text></a><!--class IncentivePremium--><a target="_top" xlink:actuate="onRequest" xlink:href="../IncentivePremium.html" xlink:show="new" xlink:title="Cash premium made available if the securities holder consents or participates to an event." xlink:type="simple"><rect fill="#EEEEEE" filter="url(#frjx1k0kohs51)" height="23.9688" id="IncentivePremium" style="stroke: #A80036; stroke-width: 1.5;" width="116" x="3965.5" y="928"/><rect fill="#EEEEEE" height="23.9688" style="stroke: #A80036; stroke-width: 1.5;" width="116" x="3965.5" y="928"/><text fill="#000000" font-family="sans-serif" font-size="12" lengthAdjust="spacingAndGlyphs" textLength="110" x="3968.5" y="944.1387">IncentivePremium</text></a><!--class Dividend--><a target="_top" xlink:actuate="onRequest" xlink:href="../Dividend.html" xlink:show="new" xlink:title="Distribution of earnings to shareholders, paid for in cash, stock, scrip issue or, rarely, in kind, for example, in company products or property. The dividend amount is decided by the board of directors." xlink:type="simple"><rect fill="#EEEEEE" filter="url(#frjx1k0kohs51)" height="23.9688" id="Dividend" style="stroke: #A80036; stroke-width: 1.5;" width="59" x="3993.75" y="842"/><rect fill="#EEEEEE" height="23.9688" style="stroke: #A80036; stroke-width: 1.5;" width="59" x="3993.75" y="842"/><text fill="#000000" font-family="sans-serif" font-size="12" lengthAdjust="spacingAndGlyphs" textLength="53" x="3996.75" y="858.1387">Dividend</text></a><!--class SecuritiesQuantity--><a target="_top" xlink:actuate="onRequest" xlink:href="../SecuritiesQuantity.html" xlink:show="new" xlink:title="Quantity of a security." xlink:type="simple"><rect fill="#EEEEEE" filter="url(#frjx1k0kohs51)" height="23.9688" id="SecuritiesQuantity" style="stroke: #A80036; stroke-width: 1.5;" width="120" x="1929.5" y="636"/><rect fill="#EEEEEE" height="23.9688" style="stroke: #A80036; stroke-width: 1.5;" width="120" x="1929.5" y="636"/><text fill="#000000" font-family="sans-serif" font-size="12" lengthAdjust="spacingAndGlyphs" textLength="114" x="1932.5" y="652.1387">SecuritiesQuantity</text></a><!--class SecuritiesAndCashDistribution--><a target="_top" xlink:actuate="onRequest" xlink:href="../SecuritiesAndCashDistribution.html" xlink:show="new" xlink:title="Characteristics for a mixed cash and securities distribution event." xlink:type="simple"><rect fill="#EEEEEE" filter="url(#frjx1k0kohs51)" height="23.9688" id="SecuritiesAndCashDistribution" style="stroke: #A80036; stroke-width: 1.5;" width="195" x="1678.75" y="738"/><rect fill="#EEEEEE" height="23.9688" style="stroke: #A80036; stroke-width: 1.5;" width="195" x="1678.75" y="738"/><text fill="#000000" font-family="sans-serif" font-size="12" lengthAdjust="spacingAndGlyphs" textLength="189" x="1681.75" y="754.1387">SecuritiesAndCashDistribution</text></a><!--link Distribution to SecuritiesDistribution--><path d="M3350.57,271.709 C3350.37,275.176 3350.18,278.612 3350,282 C3349.19,297.445 3348.49,313.74 3347.9,329.776 " fill="none" id="Distribution-SecuritiesDistribution" style="stroke: #A80036; stroke-width: 1.0;"/><polygon fill="none" points="3343.59,271.158,3351.81,251.627,3357.56,272.02,3343.59,271.158" style="stroke: #A80036; stroke-width: 1.0;"/><!--link Tax to DateTimePeriod--><!--link SecuritiesPricing to Tax--><!--link IncentivePremium to SecuritiesPricing--><!--link Dividend to IncentivePremium--><!--link SecuritiesAndCashDistribution to SecuritiesQuantity--><!--link SecuritiesQuantity to SecuritiesAndCashDistribution--><path d="M1929.27,649.138 C1608.48,650.019 103.3173,655.963 70,690 C64.4039,695.717 64.4115,702.276 70,708 C98.1319,736.816 1309.76,746.262 1673.69,748.452 " fill="none" id="SecuritiesQuantity-SecuritiesAndCashDistribution" style="stroke: #A80036; stroke-width: 1.0;"/><polygon fill="#A80036" points="1678.72,748.482,1669.743,744.4306,1673.7201,748.4534,1669.6973,752.4305,1678.72,748.482" style="stroke: #A80036; stroke-width: 1.0;"/><text fill="#000000" font-family="sans-serif" font-size="13" lengthAdjust="spacingAndGlyphs" textLength="395" x="71" y="703.0669">IntermediateToUnderlyingDenominatorDistributionInformation</text><text fill="#000000" font-family="sans-serif" font-size="13" lengthAdjust="spacingAndGlyphs" textLength="8" x="1662.8313" y="743.8813">1</text><!--link SecuritiesQuantity to SecuritiesAndCashDistribution--><path d="M1929.31,649.526 C1655.65,652.076 533.192,664.101 508,690 C502.422,695.735 502.435,702.252 508,708 C548.29,749.614 1378.74,750.521 1673.41,749.522 " fill="none" id="SecuritiesQuantity-SecuritiesAndCashDistribution" style="stroke: #A80036; stroke-width: 1.0;"/><polygon fill="#A80036" points="1678.56,749.505,1669.5486,745.5307,1673.56,749.5193,1669.5715,753.5307,1678.56,749.505" style="stroke: #A80036; stroke-width: 1.0;"/><text fill="#000000" font-family="sans-serif" font-size="13" lengthAdjust="spacingAndGlyphs" textLength="257" x="509" y="703.0669">MaximumHoldingDistributionInformation</text><text fill="#000000" font-family="sans-serif" font-size="13" lengthAdjust="spacingAndGlyphs" textLength="8" x="1662.6605" y="762.0481">1</text><!--link SecuritiesQuantity to SecuritiesAndCashDistribution--><path d="M1929.43,648.8 C1695.06,648.302 847.285,649.328 808,690 C802.442,695.754 802.464,702.225 808,708 C837.572,738.851 1430.37,746.558 1673.41,748.425 " fill="none" id="SecuritiesQuantity-SecuritiesAndCashDistribution" style="stroke: #A80036; stroke-width: 1.0;"/><polygon fill="#A80036" points="1678.73,748.465,1669.753,744.4136,1673.7301,748.4364,1669.7073,752.4135,1678.73,748.465" style="stroke: #A80036; stroke-width: 1.0;"/><text fill="#000000" font-family="sans-serif" font-size="13" lengthAdjust="spacingAndGlyphs" textLength="335" x="809" y="703.0669">MaximumExercisableQuantityDistributionInformation</text><text fill="#000000" font-family="sans-serif" font-size="13" lengthAdjust="spacingAndGlyphs" textLength="8" x="1662.6563" y="742.8212">1</text><!--link SecuritiesQuantity to SecuritiesAndCashDistribution--><path d="M1929.21,649.826 C1747.34,652.628 1211.53,663.137 1186,690 C1180.49,695.799 1180.54,702.15 1186,708 C1218.46,742.792 1513.24,748.696 1673.44,749.305 " fill="none" id="SecuritiesQuantity-SecuritiesAndCashDistribution" style="stroke: #A80036; stroke-width: 1.0;"/><polygon fill="#A80036" points="1678.61,749.323,1669.6215,745.2973,1673.61,749.3087,1669.5986,753.2973,1678.61,749.323" style="stroke: #A80036; stroke-width: 1.0;"/><text fill="#000000" font-family="sans-serif" font-size="13" lengthAdjust="spacingAndGlyphs" textLength="331" x="1187" y="703.0669">MinimumExercisableQuantityDistributionInformation</text><text fill="#000000" font-family="sans-serif" font-size="13" lengthAdjust="spacingAndGlyphs" textLength="8" x="1662.5156" y="762.5767">1</text><!--link SecuritiesQuantity to SecuritiesAndCashDistribution--><path d="M1929.13,650.349 C1816.98,653.498 1584.34,663.218 1560,690 C1554.62,695.92 1554.9,701.838 1560,708 C1574.94,726.049 1625.24,736.216 1673.54,741.91 " fill="none" id="SecuritiesQuantity-SecuritiesAndCashDistribution" style="stroke: #A80036; stroke-width: 1.0;"/><polygon fill="#A80036" points="1678.51,742.481,1670.0261,737.4786,1673.5428,741.9096,1669.1118,745.4262,1678.51,742.481" style="stroke: #A80036; stroke-width: 1.0;"/><text fill="#000000" font-family="sans-serif" font-size="13" lengthAdjust="spacingAndGlyphs" textLength="383" x="1561" y="703.0669">DistributedToUnderlyingDenominatorDistributionInformation</text><text fill="#000000" font-family="sans-serif" font-size="13" lengthAdjust="spacingAndGlyphs" textLength="8" x="1662.6072" y="737.4771">1</text><!--link SecuritiesQuantity to SecuritiesAndCashDistribution--><path d="M1984.55,660.459 C1978.7,673.959 1967.12,696.058 1950,708 C1929,722.648 1903.46,732.113 1878.5,738.215 " fill="none" id="SecuritiesQuantity-SecuritiesAndCashDistribution" style="stroke: #A80036; stroke-width: 1.0;"/><polygon fill="#A80036" points="1873.51,739.391,1883.1861,741.2277,1878.3776,738.248,1881.3573,733.4396,1873.51,739.391" style="stroke: #A80036; stroke-width: 1.0;"/><text fill="#000000" font-family="sans-serif" font-size="13" lengthAdjust="spacingAndGlyphs" textLength="381" x="1969" y="703.0669">IntermediateToUnderlyingNumeratorDistributionInformation</text><text fill="#000000" font-family="sans-serif" font-size="13" lengthAdjust="spacingAndGlyphs" textLength="8" x="1881.8956" y="733.8822">1</text><!--link SecuritiesQuantity to SecuritiesAndCashDistribution--><path d="M2048.65,649.515 C2164.18,651.551 2403.47,661.369 2360,708 C2327.95,742.382 2037.26,748.483 1878.47,749.222 " fill="none" id="SecuritiesQuantity-SecuritiesAndCashDistribution" style="stroke: #A80036; stroke-width: 1.0;"/><polygon fill="#A80036" points="1873.35,749.245,1882.3614,753.2193,1878.35,749.2307,1882.3385,745.2193,1873.35,749.245" style="stroke: #A80036; stroke-width: 1.0;"/><text fill="#000000" font-family="sans-serif" font-size="13" lengthAdjust="spacingAndGlyphs" textLength="253" x="2367" y="703.0669">MinimumHoldingDistributionInformation</text><text fill="#000000" font-family="sans-serif" font-size="13" lengthAdjust="spacingAndGlyphs" textLength="8" x="1881.7223" y="744.5523">1</text><!--link SecuritiesQuantity to SecuritiesAndCashDistribution--><path d="M2048.58,648.286 C2200.06,647.092 2590.73,648.141 2630,690 C2635.47,695.835 2635.52,702.209 2630,708 C2604.45,734.802 2099.82,744.732 1878.52,747.808 " fill="none" id="SecuritiesQuantity-SecuritiesAndCashDistribution" style="stroke: #A80036; stroke-width: 1.0;"/><polygon fill="#A80036" points="1873.35,747.88,1882.4062,751.751,1878.3495,747.8086,1882.2919,743.7518,1873.35,747.88" style="stroke: #A80036; stroke-width: 1.0;"/><text fill="#000000" font-family="sans-serif" font-size="13" lengthAdjust="spacingAndGlyphs" textLength="369" x="2636" y="703.0669">DistributedToUnderlyingNumeratorDistributionInformation</text><text fill="#000000" font-family="sans-serif" font-size="13" lengthAdjust="spacingAndGlyphs" textLength="8" x="1881.9066" y="741.9381">1</text><!--link Distribution to DateTimePeriod--><path d="M3386.19,251.56 C3395.31,270.21 3407.56,287.613 3424,300 C3515.5,368.929 3578.77,276.37 3680,330 C3721.75,352.121 3753.39,400.446 3767.66,425.399 " fill="none" id="Distribution-DateTimePeriod" style="stroke: #A80036; stroke-width: 1.0;"/><polygon fill="#A80036" points="3770.12,429.774,3769.2067,419.9676,3767.6744,425.4129,3762.229,423.8806,3770.12,429.774" style="stroke: #A80036; stroke-width: 1.0;"/><text fill="#000000" font-family="sans-serif" font-size="13" lengthAdjust="spacingAndGlyphs" textLength="93" x="3425" y="295.0669">ExercisePeriod</text><text fill="#000000" font-family="sans-serif" font-size="13" lengthAdjust="spacingAndGlyphs" textLength="8" x="3757.4332" y="419.0026">1</text><!--link Distribution to DateTimePeriod--><path d="M3480.74,251.687 C3505.77,269.756 3532.83,286.906 3560,300 C3609.53,323.863 3633.17,301.202 3680,330 C3719.88,354.524 3751.97,401.03 3766.91,425.327 " fill="none" id="Distribution-DateTimePeriod" style="stroke: #A80036; stroke-width: 1.0;"/><polygon fill="#A80036" points="3769.66,429.877,3768.4284,420.1054,3767.0739,425.5977,3761.5816,424.2432,3769.66,429.877" style="stroke: #A80036; stroke-width: 1.0;"/><text fill="#000000" font-family="sans-serif" font-size="13" lengthAdjust="spacingAndGlyphs" textLength="71" x="3561" y="295.0669">OfferPeriod</text><text fill="#000000" font-family="sans-serif" font-size="13" lengthAdjust="spacingAndGlyphs" textLength="8" x="3768.7697" y="418.8829">1</text><!--link Distribution to DateTimePeriod--><path d="M3522.24,212.321 C3561.94,231.859 3603.03,255.304 3638,282 C3660.53,299.201 3661.39,308.613 3680,330 C3709.79,364.24 3744.6,404.571 3763.02,425.94 " fill="none" id="Distribution-DateTimePeriod" style="stroke: #A80036; stroke-width: 1.0;"/><polygon fill="#A80036" points="3766.48,429.953,3763.6321,420.5249,3763.2149,426.1663,3757.5734,425.7491,3766.48,429.953" style="stroke: #A80036; stroke-width: 1.0;"/><text fill="#000000" font-family="sans-serif" font-size="13" lengthAdjust="spacingAndGlyphs" textLength="87" x="3658" y="295.0669">TradingPeriod</text><text fill="#000000" font-family="sans-serif" font-size="13" lengthAdjust="spacingAndGlyphs" textLength="8" x="3752.4028" y="418.9851">1</text><!--link Distribution to DateTimePeriod--><path d="M3522.33,162.418 C3604.36,178.915 3698.28,212.767 3755,282 C3789.2,323.739 3783.65,393.398 3778.94,424.789 " fill="none" id="Distribution-DateTimePeriod" style="stroke: #A80036; stroke-width: 1.0;"/><polygon fill="#A80036" points="3778.14,429.84,3783.4986,421.5765,3778.9222,424.9016,3775.5971,420.3251,3778.14,429.84" style="stroke: #A80036; stroke-width: 1.0;"/><text fill="#000000" font-family="sans-serif" font-size="13" lengthAdjust="spacingAndGlyphs" textLength="93" x="3768" y="295.0669">BlockingPeriod</text><text fill="#000000" font-family="sans-serif" font-size="13" lengthAdjust="spacingAndGlyphs" textLength="8" x="3780.1647" y="418.8332">1</text><!--link Distribution to DateTimePeriod--><path d="M3522.11,168.174 C3655.15,189.271 3828.31,226.567 3871,282 C3909.18,331.575 3834.43,397.651 3796.37,426.499 " fill="none" id="Distribution-DateTimePeriod" style="stroke: #A80036; stroke-width: 1.0;"/><polygon fill="#A80036" points="3791.92,429.829,3801.5208,427.6323,3795.921,426.8304,3796.7229,421.2306,3791.92,429.829" style="stroke: #A80036; stroke-width: 1.0;"/><text fill="#000000" font-family="sans-serif" font-size="13" lengthAdjust="spacingAndGlyphs" textLength="89" x="3881" y="295.0669">InterestPeriod</text><text fill="#000000" font-family="sans-serif" font-size="13" lengthAdjust="spacingAndGlyphs" textLength="8" x="3798.6816" y="418.8184">1</text><!--link Distribution to Tax--><path d="M3522.33,163.445 C3683.23,182.971 3914.85,220.832 3980,282 C4091.18,386.379 4052.91,460.965 4074,612 C4079.91,654.314 4082.31,667.4 4069,708 C4066.06,716.957 4060.97,726.088 4056.22,733.452 " fill="none" id="Distribution-Tax" style="stroke: #A80036; stroke-width: 1.0;"/><polygon fill="#A80036" points="4053.34,737.792,4061.658,732.5184,4056.1115,733.6304,4054.9995,728.084,4053.34,737.792" style="stroke: #A80036; stroke-width: 1.0;"/><text fill="#000000" font-family="sans-serif" font-size="13" lengthAdjust="spacingAndGlyphs" textLength="95" x="4073" y="599.0669">DistributionTax</text><text fill="#000000" font-family="sans-serif" font-size="13" lengthAdjust="spacingAndGlyphs" textLength="8" x="4045.3636" y="727.0265">1</text><!--link Distribution to SecuritiesPricing--><path d="M3370.96,251.655 C3377.12,269.727 3386.33,286.886 3400,300 C3445.3,343.448 3489.82,289.776 3538,330 C3629.62,406.486 3575.01,478.554 3641,578 C3655.03,599.136 3676.13,619.317 3691.1,632.332 " fill="none" id="Distribution-SecuritiesPricing" style="stroke: #A80036; stroke-width: 1.0;"/><polygon fill="#A80036" points="3695.15,635.808,3690.9265,626.9107,3691.3561,632.5512,3685.7156,632.9809,3695.15,635.808" style="stroke: #A80036; stroke-width: 1.0;"/><text fill="#000000" font-family="sans-serif" font-size="13" lengthAdjust="spacingAndGlyphs" textLength="62" x="3642" y="446.0669">OfferPrice</text><text fill="#000000" font-family="sans-serif" font-size="13" lengthAdjust="spacingAndGlyphs" textLength="8" x="3679.9059" y="625.0478">1</text><!--link Distribution to IncentivePremium--><path d="M3522.03,161.287 C3803.49,190.618 4353,269.803 4353,441 C4353,441 4353,441 4353,855 C4353,909.522 4181.69,929.084 4085.93,935.7598 " fill="none" id="Distribution-IncentivePremium" style="stroke: #A80036; stroke-width: 1.0;"/><polygon fill="#A80036" points="4080.86,936.1059,4090.1131,939.4794,4085.8482,935.7631,4089.5645,931.4982,4080.86,936.1059" style="stroke: #A80036; stroke-width: 1.0;"/><text fill="#000000" font-family="sans-serif" font-size="13" lengthAdjust="spacingAndGlyphs" textLength="115" x="4354" y="703.0669">IncentivePremium</text><text fill="#000000" font-family="sans-serif" font-size="13" lengthAdjust="spacingAndGlyphs" textLength="24" x="4089.3133" y="930.6723">0..1</text><!--link Distribution to Dividend--><path d="M3522.03,167.291 C3776.71,203.767 4242,290.941 4242,441 C4242,441 4242,441 4242,751 C4242,831.367 4119.31,848.571 4057.59,852.14 " fill="none" id="Distribution-Dividend" style="stroke: #A80036; stroke-width: 1.0;"/><polygon fill="#A80036" points="4052.54,852.41,4061.7439,855.9156,4057.5326,852.1386,4061.3096,847.9273,4052.54,852.41" style="stroke: #A80036; stroke-width: 1.0;"/><text fill="#000000" font-family="sans-serif" font-size="13" lengthAdjust="spacingAndGlyphs" textLength="55" x="4243" y="652.0669">Dividend</text><text fill="#000000" font-family="sans-serif" font-size="13" lengthAdjust="spacingAndGlyphs" textLength="8" x="4060.6544" y="846.0375">1</text><!--link SecuritiesDistribution to SecuritiesQuantity--><path d="M3168.16,446.909 C2792.46,457.043 1941.86,490.405 1855,586 C1829.54,614.018 1878.39,630.034 1924.09,638.558 " fill="none" id="SecuritiesDistribution-SecuritiesQuantity" style="stroke: #A80036; stroke-width: 1.0;"/><polygon fill="#A80036" points="1929.07,639.46,1920.9367,633.9058,1924.1516,638.5603,1919.4971,641.7752,1929.07,639.46" style="stroke: #A80036; stroke-width: 1.0;"/><text fill="#000000" font-family="sans-serif" font-size="13" lengthAdjust="spacingAndGlyphs" textLength="111" x="1856" y="599.0669">MaximumHolding</text><text fill="#000000" font-family="sans-serif" font-size="13" lengthAdjust="spacingAndGlyphs" textLength="8" x="1913.3225" y="633.7781">1</text><!--link SecuritiesDistribution to SecuritiesQuantity--><path d="M3168.31,451.321 C2825.83,468.969 2097.37,514.491 2009,586 C1995.69,596.769 1991.15,616.577 1989.65,630.699 " fill="none" id="SecuritiesDistribution-SecuritiesQuantity" style="stroke: #A80036; stroke-width: 1.0;"/><polygon fill="#A80036" points="1989.2,635.988,1993.9487,627.3596,1989.624,631.006,1985.9776,626.6812,1989.2,635.988" style="stroke: #A80036; stroke-width: 1.0;"/><text fill="#000000" font-family="sans-serif" font-size="13" lengthAdjust="spacingAndGlyphs" textLength="235" x="2010" y="599.0669">IntermediateToUnderlyingNumerator</text><text fill="#000000" font-family="sans-serif" font-size="13" lengthAdjust="spacingAndGlyphs" textLength="7" x="1979.55" y="625.0321">*</text><!--link SecuritiesDistribution to SecuritiesQuantity--><path d="M3168.5,449.173 C2955.33,460.628 2587.89,493.253 2287,586 C2269.91,591.269 2268.02,598.489 2251,604 C2185.68,625.151 2107.68,636.246 2053.87,641.826 " fill="none" id="SecuritiesDistribution-SecuritiesQuantity" style="stroke: #A80036; stroke-width: 1.0;"/><polygon fill="#A80036" points="2048.73,642.349,2058.0936,645.4022,2053.7035,641.8348,2057.2709,637.4446,2048.73,642.349" style="stroke: #A80036; stroke-width: 1.0;"/><text fill="#000000" font-family="sans-serif" font-size="13" lengthAdjust="spacingAndGlyphs" textLength="249" x="2288" y="599.0669">IntermediateToUnderlyingDenominator</text><text fill="#000000" font-family="sans-serif" font-size="13" lengthAdjust="spacingAndGlyphs" textLength="7" x="2057.5514" y="636.4374">*</text><!--link SecuritiesDistribution to SecuritiesQuantity--><path d="M3168.45,461.758 C3010.88,481.817 2775.37,520.03 2579,586 C2562.04,591.697 2560.24,599.219 2543,604 C2452.57,629.081 2179.62,640.875 2053.8,645.092 " fill="none" id="SecuritiesDistribution-SecuritiesQuantity" style="stroke: #A80036; stroke-width: 1.0;"/><polygon fill="#A80036" points="2048.65,645.263,2057.7818,648.9521,2053.6471,645.0916,2057.5076,640.9568,2048.65,645.263" style="stroke: #A80036; stroke-width: 1.0;"/><text fill="#000000" font-family="sans-serif" font-size="13" lengthAdjust="spacingAndGlyphs" textLength="237" x="2580" y="599.0669">DistributedToUnderlyingDenominator</text><text fill="#000000" font-family="sans-serif" font-size="13" lengthAdjust="spacingAndGlyphs" textLength="7" x="2057.4602" y="658.0112">*</text><!--link SecuritiesDistribution to SecuritiesQuantity--><path d="M3168.43,486.841 C3075.08,512.038 2959.36,546.507 2859,586 C2842.35,592.551 2840.3,599.443 2823,604 C2678.17,642.154 2223.88,646.731 2053.98,647.076 " fill="none" id="SecuritiesDistribution-SecuritiesQuantity" style="stroke: #A80036; stroke-width: 1.0;"/><polygon fill="#A80036" points="2048.79,647.086,2057.79,651.086,2053.79,647.086,2057.79,643.086,2048.79,647.086" style="stroke: #A80036; stroke-width: 1.0;"/><text fill="#000000" font-family="sans-serif" font-size="13" lengthAdjust="spacingAndGlyphs" textLength="223" x="2860" y="599.0669">DistributedToUnderlyingNumerator</text><text fill="#000000" font-family="sans-serif" font-size="13" lengthAdjust="spacingAndGlyphs" textLength="7" x="2057.5694" y="640.295">*</text><!--link SecuritiesDistribution to SecuritiesQuantity--><path d="M3168.22,445.499 C2769.33,452.969 1826.56,481.599 1731,586 C1725.6,591.901 1725.83,597.896 1731,604 C1755.28,632.661 1855.93,642.236 1924.1,645.424 " fill="none" id="SecuritiesDistribution-SecuritiesQuantity" style="stroke: #A80036; stroke-width: 1.0;"/><polygon fill="#A80036" points="1929.36,645.66,1920.5397,641.2779,1924.3646,645.4457,1920.1968,649.2705,1929.36,645.66" style="stroke: #A80036; stroke-width: 1.0;"/><text fill="#000000" font-family="sans-serif" font-size="13" lengthAdjust="spacingAndGlyphs" textLength="107" x="1732" y="599.0669">MinimumHolding</text><text fill="#000000" font-family="sans-serif" font-size="13" lengthAdjust="spacingAndGlyphs" textLength="8" x="1913.6424" y="658.2675">1</text><!--link SecuritiesDistribution to SecuritiesPricing--><path d="M3421.02,554.039 C3438.68,573.215 3458.87,591.099 3481,604 C3532.37,633.953 3600.31,643.659 3648.63,646.51 " fill="none" id="SecuritiesDistribution-SecuritiesPricing" style="stroke: #A80036; stroke-width: 1.0;"/><polygon fill="#A80036" points="3653.83,646.795,3645.0604,642.3123,3648.8374,646.5236,3644.6261,650.3006,3653.83,646.795" style="stroke: #A80036; stroke-width: 1.0;"/><text fill="#000000" font-family="sans-serif" font-size="13" lengthAdjust="spacingAndGlyphs" textLength="121" x="3482" y="599.0669">CashFractionsPrice</text><text fill="#000000" font-family="sans-serif" font-size="13" lengthAdjust="spacingAndGlyphs" textLength="8" x="3637.8728" y="641.7492">1</text><!--link SecuritiesDistribution to SecuritiesPricing--><path d="M3168.43,539.106 C3150.4,559.866 3145.3,582.157 3166,604 C3171.7,610.017 3306.73,611.411 3315,612 C3433.47,620.44 3571.7,633.451 3648.91,641.004 " fill="none" id="SecuritiesDistribution-SecuritiesPricing" style="stroke: #A80036; stroke-width: 1.0;"/><polygon fill="#A80036" points="3653.91,641.494,3645.3412,636.6385,3648.9337,641.0082,3644.564,644.6007,3653.91,641.494" style="stroke: #A80036; stroke-width: 1.0;"/><text fill="#000000" font-family="sans-serif" font-size="13" lengthAdjust="spacingAndGlyphs" textLength="110" x="3167" y="599.0669">SubscriptionPrice</text><text fill="#000000" font-family="sans-serif" font-size="13" lengthAdjust="spacingAndGlyphs" textLength="8" x="3637.9621" y="653.6853">1</text><!--link SecuritiesDistribution to SecuritiesPricing--><path d="M3310.37,554.14 C3310.71,572.501 3315.55,590.062 3328,604 C3348.96,627.461 3546.76,639.722 3648.77,644.53 " fill="none" id="SecuritiesDistribution-SecuritiesPricing" style="stroke: #A80036; stroke-width: 1.0;"/><polygon fill="#A80036" points="3653.85,644.767,3645.0423,640.3597,3648.8552,644.5384,3644.6765,648.3513,3653.85,644.767" style="stroke: #A80036; stroke-width: 1.0;"/><text fill="#000000" font-family="sans-serif" font-size="13" lengthAdjust="spacingAndGlyphs" textLength="119" x="3329" y="599.0669">ReinvestmentPrice</text><text fill="#000000" font-family="sans-serif" font-size="13" lengthAdjust="spacingAndGlyphs" textLength="8" x="3638.1853" y="637.2658">1</text><!--link SecuritiesDistribution to SecuritiesAndCashDistribution--><path d="M3179.24,554.366 C3168.44,564.46 3158.21,575.035 3149,586 C3110.13,632.263 3139.79,675.267 3089,708 C3038.44,740.586 2179.2,747.309 1878.73,748.665 " fill="none" id="SecuritiesDistribution-SecuritiesAndCashDistribution" style="stroke: #A80036; stroke-width: 1.0;"/><polygon fill="#A80036" points="1873.48,748.689,1882.5027,752.6375,1878.4799,748.6604,1882.457,744.6376,1873.48,748.689" style="stroke: #A80036; stroke-width: 1.0;"/><text fill="#000000" font-family="sans-serif" font-size="13" lengthAdjust="spacingAndGlyphs" textLength="193" x="3134" y="652.0669">SecuritiesAndCashDistribution</text><text fill="#000000" font-family="sans-serif" font-size="13" lengthAdjust="spacingAndGlyphs" textLength="8" x="1881.8631" y="761.2752">1</text><!--link DateTimePeriod to SecuritiesPricing--><path d="M3765.81,454.127 C3745.78,476.837 3701.86,531.04 3686,586 C3681.42,601.884 3689.55,619.5 3697.38,631.701 " fill="none" id="DateTimePeriod-SecuritiesPricing" style="stroke: #A80036; stroke-width: 1.0;"/><polygon fill="#A80036" points="3700.23,635.938,3698.5228,626.2382,3697.438,631.7901,3691.8862,630.7054,3700.23,635.938" style="stroke: #A80036; stroke-width: 1.0;"/><text fill="#000000" font-family="sans-serif" font-size="13" lengthAdjust="spacingAndGlyphs" textLength="191" x="3687" y="599.0669">PriceCalculationRelatedPricing</text><text fill="#000000" font-family="sans-serif" font-size="13" lengthAdjust="spacingAndGlyphs" textLength="8" x="3698.5903" y="624.9649">1</text><!--link DateTimePeriod to SecuritiesPricing--><path d="M3793.69,454.128 C3834,480.843 3926.05,550.363 3884,604 C3869.78,622.136 3813.97,633.639 3769.15,640.137 " fill="none" id="DateTimePeriod-SecuritiesPricing" style="stroke: #A80036; stroke-width: 1.0;"/><polygon fill="#A80036" points="3764.02,640.866,3773.499,643.5396,3768.9687,640.1519,3772.3565,635.6216,3764.02,640.866" style="stroke: #A80036; stroke-width: 1.0;"/><text fill="#000000" font-family="sans-serif" font-size="13" lengthAdjust="spacingAndGlyphs" textLength="148" x="3894" y="599.0669">PriceFactRelatedPricing</text><text fill="#000000" font-family="sans-serif" font-size="13" lengthAdjust="spacingAndGlyphs" textLength="8" x="3771.9508" y="634.8431">1</text><!--link Tax to Dividend--><path d="M4042.56,762.306 C4038.64,780.476 4030.93,816.239 4026.45,837.015 " fill="none" id="Tax-Dividend" style="stroke: #A80036; stroke-width: 1.0;"/><polygon fill="#A80036" points="4025.38,841.954,4031.1884,834.0002,4026.4347,837.0665,4023.3684,832.3128,4025.38,841.954" style="stroke: #A80036; stroke-width: 1.0;"/><text fill="#000000" font-family="sans-serif" font-size="13" lengthAdjust="spacingAndGlyphs" textLength="55" x="4037" y="807.0669">Dividend</text><text fill="#000000" font-family="sans-serif" font-size="13" lengthAdjust="spacingAndGlyphs" textLength="7" x="4016.5653" y="830.9864">*</text></g></svg>