<?xml version="1.0" encoding="UTF-8" standalone="no"?><svg xmlns="http://www.w3.org/2000/svg" xmlns:xlink="http://www.w3.org/1999/xlink" contentScriptType="application/ecmascript" contentStyleType="text/css" height="1550px" preserveAspectRatio="none" style="width:2338px;height:1550px;" version="1.1" viewBox="0 0 2338 1550" width="2338px" zoomAndPan="magnify"><defs><filter height="300%" id="f11rw8qv4hktpu" width="300%" x="-1" y="-1"><feGaussianBlur result="blurOut" stdDeviation="2.0"/><feColorMatrix in="blurOut" result="blurOut2" type="matrix" values="0 0 0 0 0 0 0 0 0 0 0 0 0 0 0 0 0 0 .4 0"/><feOffset dx="4.0" dy="4.0" in="blurOut2" result="blurOut3"/><feBlend in="SourceGraphic" in2="blurOut3" mode="normal"/></filter></defs><g><!--cluster ##9363--><!--cluster ##9369--><!--cluster ##9376--><!--class Settlement--><a target="_top" xlink:actuate="onRequest" xlink:href="../Settlement.html" xlink:show="new" xlink:title="Process which consists in transferring the proceeds related to a trade from one party to the next one." xlink:type="simple"><rect fill="#FEFEEE" filter="url(#f11rw8qv4hktpu)" height="44.7734" id="Settlement" style="stroke: #A80036; stroke-width: 1.5;" width="335" x="1300.75" y="40.5"/><rect fill="#FEFEEE" height="23.9688" style="stroke: #A80036; stroke-width: 1.5;" width="335" x="1300.75" y="40.5"/><text fill="#000000" font-family="sans-serif" font-size="12" lengthAdjust="spacingAndGlyphs" textLength="69" x="1433.75" y="56.6387">Settlement</text><line style="stroke: #A80036; stroke-width: 1.5;" x1="1301.75" x2="1634.75" y1="64.4688" y2="64.4688"/><ellipse cx="1311.75" cy="76.3711" fill="#84BE84" rx="3" ry="3" style="stroke: #038048; stroke-width: 1.0;"/><text fill="#000000" font-family="sans-serif" font-size="11" lengthAdjust="spacingAndGlyphs" textLength="213" x="1320.75" y="78.6792">CentralCounterpartyEligibilityIndicator</text><text fill="#000000" font-family="sans-serif" font-size="11" font-style="italic" lengthAdjust="spacingAndGlyphs" textLength="92" x="1537.75" y="78.6792">(YesNoIndicator)</text></a><!--class SecuritiesSettlement--><a target="_top" xlink:actuate="onRequest" xlink:href="../SecuritiesSettlement.html" xlink:show="new" xlink:title="Settlement of the securities in a securities transaction, that is, the instruction to deliver or receive securities, involving the payment of an amount of money or not." xlink:type="simple"><rect fill="#FEFECE" filter="url(#f11rw8qv4hktpu)" height="326.4766" id="SecuritiesSettlement" style="stroke: #A80036; stroke-width: 1.5;" width="429" x="1206.75" y="164"/><rect fill="#FEFECE" height="23.9688" style="stroke: #A80036; stroke-width: 1.5;" width="429" x="1206.75" y="164"/><text fill="#000000" font-family="sans-serif" font-size="12" lengthAdjust="spacingAndGlyphs" textLength="131" x="1355.75" y="180.1387">SecuritiesSettlement</text><line style="stroke: #A80036; stroke-width: 1.5;" x1="1207.75" x2="1634.75" y1="187.9688" y2="187.9688"/><ellipse cx="1217.75" cy="199.8711" fill="#84BE84" rx="3" ry="3" style="stroke: #038048; stroke-width: 1.0;"/><text fill="#000000" font-family="sans-serif" font-size="11" lengthAdjust="spacingAndGlyphs" textLength="88" x="1226.75" y="202.1792">SettlementDate</text><text fill="#000000" font-family="sans-serif" font-size="11" font-style="italic" lengthAdjust="spacingAndGlyphs" textLength="81" x="1318.75" y="202.1792">(ISODateTime)</text><ellipse cx="1217.75" cy="212.6758" fill="#84BE84" rx="3" ry="3" style="stroke: #038048; stroke-width: 1.0;"/><text fill="#000000" font-family="sans-serif" font-size="11" lengthAdjust="spacingAndGlyphs" textLength="105" x="1226.75" y="214.9839">SettlementAmount</text><text fill="#000000" font-family="sans-serif" font-size="11" font-style="italic" lengthAdjust="spacingAndGlyphs" textLength="161" x="1335.75" y="214.9839">(ActiveCurrencyAndAmount)</text><ellipse cx="1217.75" cy="225.4805" fill="#84BE84" rx="3" ry="3" style="stroke: #038048; stroke-width: 1.0;"/><text fill="#000000" font-family="sans-serif" font-size="11" lengthAdjust="spacingAndGlyphs" textLength="100" x="1226.75" y="227.7886">HoldingsPlanType</text><text fill="#000000" font-family="sans-serif" font-size="11" font-style="italic" lengthAdjust="spacingAndGlyphs" textLength="70" x="1330.75" y="227.7886">(Max35Text)</text><ellipse cx="1217.75" cy="238.2852" fill="#84BE84" rx="3" ry="3" style="stroke: #038048; stroke-width: 1.0;"/><text fill="#000000" font-family="sans-serif" font-size="11" lengthAdjust="spacingAndGlyphs" textLength="142" x="1226.75" y="240.5933">SecuritiesMovementType</text><text fill="#000000" font-family="sans-serif" font-size="11" font-style="italic" lengthAdjust="spacingAndGlyphs" textLength="129" x="1372.75" y="240.5933">(ReceiveDeliveryCode)</text><ellipse cx="1217.75" cy="251.0898" fill="#84BE84" rx="3" ry="3" style="stroke: #038048; stroke-width: 1.0;"/><text fill="#000000" font-family="sans-serif" font-size="11" lengthAdjust="spacingAndGlyphs" textLength="86" x="1226.75" y="253.3979">CurrencyToBuy</text><text fill="#000000" font-family="sans-serif" font-size="11" font-style="italic" lengthAdjust="spacingAndGlyphs" textLength="89" x="1316.75" y="253.3979">(CurrencyCode)</text><ellipse cx="1217.75" cy="263.8945" fill="#84BE84" rx="3" ry="3" style="stroke: #038048; stroke-width: 1.0;"/><text fill="#000000" font-family="sans-serif" font-size="11" lengthAdjust="spacingAndGlyphs" textLength="86" x="1226.75" y="266.2026">CurrencyToSell</text><text fill="#000000" font-family="sans-serif" font-size="11" font-style="italic" lengthAdjust="spacingAndGlyphs" textLength="89" x="1316.75" y="266.2026">(CurrencyCode)</text><ellipse cx="1217.75" cy="276.6992" fill="#84BE84" rx="3" ry="3" style="stroke: #038048; stroke-width: 1.0;"/><text fill="#000000" font-family="sans-serif" font-size="11" lengthAdjust="spacingAndGlyphs" textLength="116" x="1226.75" y="279.0073">DenominationChoice</text><text fill="#000000" font-family="sans-serif" font-size="11" font-style="italic" lengthAdjust="spacingAndGlyphs" textLength="70" x="1346.75" y="279.0073">(Max35Text)</text><ellipse cx="1217.75" cy="289.5039" fill="#84BE84" rx="3" ry="3" style="stroke: #038048; stroke-width: 1.0;"/><text fill="#000000" font-family="sans-serif" font-size="11" lengthAdjust="spacingAndGlyphs" textLength="182" x="1226.75" y="291.812">SettlementTransactionCondition</text><text fill="#000000" font-family="sans-serif" font-size="11" font-style="italic" lengthAdjust="spacingAndGlyphs" textLength="217" x="1412.75" y="291.812">(SettlementTransactionConditionCode)</text><ellipse cx="1217.75" cy="302.3086" fill="#84BE84" rx="3" ry="3" style="stroke: #038048; stroke-width: 1.0;"/><text fill="#000000" font-family="sans-serif" font-size="11" lengthAdjust="spacingAndGlyphs" textLength="165" x="1226.75" y="304.6167">BeneficialOwnershipIndicator</text><text fill="#000000" font-family="sans-serif" font-size="11" font-style="italic" lengthAdjust="spacingAndGlyphs" textLength="92" x="1395.75" y="304.6167">(YesNoIndicator)</text><ellipse cx="1217.75" cy="315.1133" fill="#84BE84" rx="3" ry="3" style="stroke: #038048; stroke-width: 1.0;"/><text fill="#000000" font-family="sans-serif" font-size="11" lengthAdjust="spacingAndGlyphs" textLength="95" x="1226.75" y="317.4214">MarketClientSide</text><text fill="#000000" font-family="sans-serif" font-size="11" font-style="italic" lengthAdjust="spacingAndGlyphs" textLength="131" x="1325.75" y="317.4214">(MarketClientSideCode)</text><ellipse cx="1217.75" cy="327.918" fill="#84BE84" rx="3" ry="3" style="stroke: #038048; stroke-width: 1.0;"/><text fill="#000000" font-family="sans-serif" font-size="11" lengthAdjust="spacingAndGlyphs" textLength="48" x="1226.75" y="330.2261">Tracking</text><text fill="#000000" font-family="sans-serif" font-size="11" font-style="italic" lengthAdjust="spacingAndGlyphs" textLength="92" x="1278.75" y="330.2261">(YesNoIndicator)</text><ellipse cx="1217.75" cy="340.7227" fill="#84BE84" rx="3" ry="3" style="stroke: #038048; stroke-width: 1.0;"/><text fill="#000000" font-family="sans-serif" font-size="11" lengthAdjust="spacingAndGlyphs" textLength="106" x="1226.75" y="343.0308">LetterOfGuarantee</text><text fill="#000000" font-family="sans-serif" font-size="11" font-style="italic" lengthAdjust="spacingAndGlyphs" textLength="92" x="1336.75" y="343.0308">(YesNoIndicator)</text><ellipse cx="1217.75" cy="353.5273" fill="#84BE84" rx="3" ry="3" style="stroke: #038048; stroke-width: 1.0;"/><text fill="#000000" font-family="sans-serif" font-size="11" lengthAdjust="spacingAndGlyphs" textLength="112" x="1226.75" y="355.8354">EligibleForCollateral</text><text fill="#000000" font-family="sans-serif" font-size="11" font-style="italic" lengthAdjust="spacingAndGlyphs" textLength="92" x="1342.75" y="355.8354">(YesNoIndicator)</text><ellipse cx="1217.75" cy="366.332" fill="#84BE84" rx="3" ry="3" style="stroke: #038048; stroke-width: 1.0;"/><text fill="#000000" font-family="sans-serif" font-size="11" lengthAdjust="spacingAndGlyphs" textLength="138" x="1226.75" y="368.6401">AccruedInterestIndicator</text><text fill="#000000" font-family="sans-serif" font-size="11" font-style="italic" lengthAdjust="spacingAndGlyphs" textLength="92" x="1368.75" y="368.6401">(YesNoIndicator)</text><ellipse cx="1217.75" cy="379.1367" fill="#84BE84" rx="3" ry="3" style="stroke: #038048; stroke-width: 1.0;"/><text fill="#000000" font-family="sans-serif" font-size="11" lengthAdjust="spacingAndGlyphs" textLength="92" x="1226.75" y="381.4448">PreConfirmation</text><text fill="#000000" font-family="sans-serif" font-size="11" font-style="italic" lengthAdjust="spacingAndGlyphs" textLength="129" x="1322.75" y="381.4448">(PreConfirmationCode)</text><ellipse cx="1217.75" cy="391.9414" fill="#84BE84" rx="3" ry="3" style="stroke: #038048; stroke-width: 1.0;"/><text fill="#000000" font-family="sans-serif" font-size="11" lengthAdjust="spacingAndGlyphs" textLength="206" x="1226.75" y="394.2495">SecuritiesRealTimeGrossSettlement</text><text fill="#000000" font-family="sans-serif" font-size="11" font-style="italic" lengthAdjust="spacingAndGlyphs" textLength="92" x="1436.75" y="394.2495">(YesNoIndicator)</text><ellipse cx="1217.75" cy="404.7461" fill="#84BE84" rx="3" ry="3" style="stroke: #038048; stroke-width: 1.0;"/><text fill="#000000" font-family="sans-serif" font-size="11" lengthAdjust="spacingAndGlyphs" textLength="63" x="1226.75" y="407.0542">BlockTrade</text><text fill="#000000" font-family="sans-serif" font-size="11" font-style="italic" lengthAdjust="spacingAndGlyphs" textLength="100" x="1293.75" y="407.0542">(BlockTradeCode)</text><ellipse cx="1217.75" cy="417.5508" fill="#84BE84" rx="3" ry="3" style="stroke: #038048; stroke-width: 1.0;"/><text fill="#000000" font-family="sans-serif" font-size="11" lengthAdjust="spacingAndGlyphs" textLength="146" x="1226.75" y="419.8589">SettlementSystemMethod</text><text fill="#000000" font-family="sans-serif" font-size="11" font-style="italic" lengthAdjust="spacingAndGlyphs" textLength="181" x="1376.75" y="419.8589">(SettlementSystemMethodCode)</text><ellipse cx="1217.75" cy="430.3555" fill="#84BE84" rx="3" ry="3" style="stroke: #038048; stroke-width: 1.0;"/><text fill="#000000" font-family="sans-serif" font-size="11" lengthAdjust="spacingAndGlyphs" textLength="114" x="1226.75" y="432.6636">AutomaticBorrowing</text><text fill="#000000" font-family="sans-serif" font-size="11" font-style="italic" lengthAdjust="spacingAndGlyphs" textLength="121" x="1344.75" y="432.6636">(AutoBorrowingCode)</text><ellipse cx="1217.75" cy="443.1602" fill="#84BE84" rx="3" ry="3" style="stroke: #038048; stroke-width: 1.0;"/><text fill="#000000" font-family="sans-serif" font-size="11" lengthAdjust="spacingAndGlyphs" textLength="147" x="1226.75" y="445.4683">PartialSettlementIndicator</text><text fill="#000000" font-family="sans-serif" font-size="11" font-style="italic" lengthAdjust="spacingAndGlyphs" textLength="92" x="1377.75" y="445.4683">(YesNoIndicator)</text><ellipse cx="1217.75" cy="455.9648" fill="#84BE84" rx="3" ry="3" style="stroke: #038048; stroke-width: 1.0;"/><text fill="#000000" font-family="sans-serif" font-size="11" lengthAdjust="spacingAndGlyphs" textLength="74" x="1226.75" y="458.2729">HoldIndicator</text><text fill="#000000" font-family="sans-serif" font-size="11" font-style="italic" lengthAdjust="spacingAndGlyphs" textLength="92" x="1304.75" y="458.2729">(YesNoIndicator)</text><ellipse cx="1217.75" cy="468.7695" fill="#84BE84" rx="3" ry="3" style="stroke: #038048; stroke-width: 1.0;"/><text fill="#000000" font-family="sans-serif" font-size="11" lengthAdjust="spacingAndGlyphs" textLength="104" x="1226.75" y="471.0776">SettlementReason</text><text fill="#000000" font-family="sans-serif" font-size="11" font-style="italic" lengthAdjust="spacingAndGlyphs" textLength="122" x="1334.75" y="471.0776">(ObligationTypeCode)</text><ellipse cx="1217.75" cy="481.5742" fill="#84BE84" rx="3" ry="3" style="stroke: #038048; stroke-width: 1.0;"/><text fill="#000000" font-family="sans-serif" font-size="11" lengthAdjust="spacingAndGlyphs" textLength="89" x="1226.75" y="483.8823">SettlementType</text><text fill="#000000" font-family="sans-serif" font-size="11" font-style="italic" lengthAdjust="spacingAndGlyphs" textLength="154" x="1319.75" y="483.8823">(DeliveryReceiptTypeCode)</text></a><!--class StandingSettlementInstruction--><a target="_top" xlink:actuate="onRequest" xlink:href="../StandingSettlementInstruction.html" xlink:show="new" xlink:title="Settlement instruction database information." xlink:type="simple"><rect fill="#EEEEEE" filter="url(#f11rw8qv4hktpu)" height="23.9688" id="StandingSettlementInstruction" style="stroke: #A80036; stroke-width: 1.5;" width="198" x="1865" y="672"/><rect fill="#EEEEEE" height="23.9688" style="stroke: #A80036; stroke-width: 1.5;" width="198" x="1865" y="672"/><text fill="#000000" font-family="sans-serif" font-size="12" lengthAdjust="spacingAndGlyphs" textLength="192" x="1868" y="688.1387">StandingSettlementInstruction</text></a><!--class SettlementPartyRole--><a target="_top" xlink:actuate="onRequest" xlink:href="../SettlementPartyRole.html" xlink:show="new" xlink:title="Role played by a party in a settlement process." xlink:type="simple"><rect fill="#EEEEEE" filter="url(#f11rw8qv4hktpu)" height="23.9688" id="SettlementPartyRole" style="stroke: #A80036; stroke-width: 1.5;" width="134" x="1897" y="570"/><rect fill="#EEEEEE" height="23.9688" style="stroke: #A80036; stroke-width: 1.5;" width="134" x="1897" y="570"/><text fill="#000000" font-family="sans-serif" font-size="12" lengthAdjust="spacingAndGlyphs" textLength="128" x="1900" y="586.1387">SettlementPartyRole</text></a><!--class Trade--><a target="_top" xlink:actuate="onRequest" xlink:href="../Trade.html" xlink:show="new" xlink:title="Result of an order between at least two parties. A trade relates to the delivery of goods and services, cash or securities." xlink:type="simple"><rect fill="#EEEEEE" filter="url(#f11rw8qv4hktpu)" height="23.9688" id="Trade" style="stroke: #A80036; stroke-width: 1.5;" width="42" x="1865.5" y="315"/><rect fill="#EEEEEE" height="23.9688" style="stroke: #A80036; stroke-width: 1.5;" width="42" x="1865.5" y="315"/><text fill="#000000" font-family="sans-serif" font-size="12" lengthAdjust="spacingAndGlyphs" textLength="36" x="1868.5" y="331.1387">Trade</text></a><!--class SecuritiesTransfer--><a target="_top" xlink:actuate="onRequest" xlink:href="../SecuritiesTransfer.html" xlink:show="new" xlink:title="Completion of a securities settlement instruction, wherein securities are delivered/debited from a securities account and received/credited to the designated securities account." xlink:type="simple"><rect fill="#EEEEEE" filter="url(#f11rw8qv4hktpu)" height="23.9688" id="SecuritiesTransfer" style="stroke: #A80036; stroke-width: 1.5;" width="120" x="77.5" y="315"/><rect fill="#EEEEEE" height="23.9688" style="stroke: #A80036; stroke-width: 1.5;" width="120" x="77.5" y="315"/><text fill="#000000" font-family="sans-serif" font-size="12" lengthAdjust="spacingAndGlyphs" textLength="114" x="80.5" y="331.1387">SecuritiesTransfer</text></a><!--class SecuritiesSettlementPartyRole--><a target="_top" xlink:actuate="onRequest" xlink:href="../SecuritiesSettlementPartyRole.html" xlink:show="new" xlink:title="Role played by a party in the context of the settlement of securities." xlink:type="simple"><rect fill="#EEEEEE" filter="url(#f11rw8qv4hktpu)" height="23.9688" id="SecuritiesSettlementPartyRole" style="stroke: #A80036; stroke-width: 1.5;" width="196" x="112.5" y="672"/><rect fill="#EEEEEE" height="23.9688" style="stroke: #A80036; stroke-width: 1.5;" width="196" x="112.5" y="672"/><text fill="#000000" font-family="sans-serif" font-size="12" lengthAdjust="spacingAndGlyphs" textLength="190" x="115.5" y="688.1387">SecuritiesSettlementPartyRole</text></a><!--class SecuritiesQuantity--><a target="_top" xlink:actuate="onRequest" xlink:href="../SecuritiesQuantity.html" xlink:show="new" xlink:title="Quantity of a security." xlink:type="simple"><rect fill="#EEEEEE" filter="url(#f11rw8qv4hktpu)" height="23.9688" id="SecuritiesQuantity" style="stroke: #A80036; stroke-width: 1.5;" width="120" x="376.5" y="570"/><rect fill="#EEEEEE" height="23.9688" style="stroke: #A80036; stroke-width: 1.5;" width="120" x="376.5" y="570"/><text fill="#000000" font-family="sans-serif" font-size="12" lengthAdjust="spacingAndGlyphs" textLength="114" x="379.5" y="586.1387">SecuritiesQuantity</text></a><!--class SecuritiesTradeExecution--><a target="_top" xlink:actuate="onRequest" xlink:href="../SecuritiesTradeExecution.html" xlink:show="new" xlink:title="Transaction between two counterparties in which they agree to buy and sell a financial instrument. A trade transaction occurs with the matching of the two counterparties orders. There could be several trade transactions necessary to execute the trade." xlink:type="simple"><rect fill="#EEEEEE" filter="url(#f11rw8qv4hktpu)" height="23.9688" id="SecuritiesTradeExecution" style="stroke: #A80036; stroke-width: 1.5;" width="165" x="432.75" y="1516"/><rect fill="#EEEEEE" height="23.9688" style="stroke: #A80036; stroke-width: 1.5;" width="165" x="432.75" y="1516"/><text fill="#000000" font-family="sans-serif" font-size="12" lengthAdjust="spacingAndGlyphs" textLength="159" x="435.75" y="1532.1387">SecuritiesTradeExecution</text></a><!--class SafekeepingPlace--><a target="_top" xlink:actuate="onRequest" xlink:href="../SafekeepingPlace.html" xlink:show="new" xlink:title="Organisation used as the safekeeping place for the securities." xlink:type="simple"><rect fill="#EEEEEE" filter="url(#f11rw8qv4hktpu)" height="23.9688" id="SafekeepingPlace" style="stroke: #A80036; stroke-width: 1.5;" width="118" x="815" y="1430"/><rect fill="#EEEEEE" height="23.9688" style="stroke: #A80036; stroke-width: 1.5;" width="118" x="815" y="1430"/><text fill="#000000" font-family="sans-serif" font-size="12" lengthAdjust="spacingAndGlyphs" textLength="112" x="818" y="1446.1387">SafekeepingPlace</text></a><!--class PairOff--><a target="_top" xlink:actuate="onRequest" xlink:href="../PairOff.html" xlink:show="new" xlink:title="Transaction is paired off and netted against one or more previous transactions." xlink:type="simple"><rect fill="#EEEEEE" filter="url(#f11rw8qv4hktpu)" height="23.9688" id="PairOff" style="stroke: #A80036; stroke-width: 1.5;" width="47" x="850.75" y="1344"/><rect fill="#EEEEEE" height="23.9688" style="stroke: #A80036; stroke-width: 1.5;" width="47" x="850.75" y="1344"/><text fill="#000000" font-family="sans-serif" font-size="12" lengthAdjust="spacingAndGlyphs" textLength="41" x="853.75" y="1360.1387">PairOff</text></a><!--class Interest--><a target="_top" xlink:actuate="onRequest" xlink:href="../Interest.html" xlink:show="new" xlink:title="Consideration, such as amount of money,  paid or received in exchange for an asset that has been invested, loaned or borrowed for a certain period. The interest is expressed as a fixed amount or percentage of the amount upon which the interest is applied." xlink:type="simple"><rect fill="#EEEEEE" filter="url(#f11rw8qv4hktpu)" height="23.9688" id="Interest" style="stroke: #A80036; stroke-width: 1.5;" width="55" x="846.75" y="1258"/><rect fill="#EEEEEE" height="23.9688" style="stroke: #A80036; stroke-width: 1.5;" width="55" x="846.75" y="1258"/><text fill="#000000" font-family="sans-serif" font-size="12" lengthAdjust="spacingAndGlyphs" textLength="49" x="849.75" y="1274.1387">Interest</text></a><!--class SecuritiesClearing--><a target="_top" xlink:actuate="onRequest" xlink:href="../SecuritiesClearing.html" xlink:show="new" xlink:title="Process of settling securities through a central system." xlink:type="simple"><rect fill="#EEEEEE" filter="url(#f11rw8qv4hktpu)" height="23.9688" id="SecuritiesClearing" style="stroke: #A80036; stroke-width: 1.5;" width="119" x="813.75" y="1172"/><rect fill="#EEEEEE" height="23.9688" style="stroke: #A80036; stroke-width: 1.5;" width="119" x="813.75" y="1172"/><text fill="#000000" font-family="sans-serif" font-size="12" lengthAdjust="spacingAndGlyphs" textLength="113" x="816.75" y="1188.1387">SecuritiesClearing</text></a><!--class Payment--><a target="_top" xlink:actuate="onRequest" xlink:href="../Payment.html" xlink:show="new" xlink:title="Payment information and processes required to transfer cash end to end from the debtor to the creditor." xlink:type="simple"><rect fill="#EEEEEE" filter="url(#f11rw8qv4hktpu)" height="23.9688" id="Payment" style="stroke: #A80036; stroke-width: 1.5;" width="60" x="737.5" y="1084"/><rect fill="#EEEEEE" height="23.9688" style="stroke: #A80036; stroke-width: 1.5;" width="60" x="737.5" y="1084"/><text fill="#000000" font-family="sans-serif" font-size="12" lengthAdjust="spacingAndGlyphs" textLength="54" x="740.5" y="1100.1387">Payment</text></a><!--class Allocation--><a target="_top" xlink:actuate="onRequest" xlink:href="../Allocation.html" xlink:show="new" xlink:title="Distribution of the (block) trade (transactions) by the investor or investment manager to different underlying clients, ie, investment funds." xlink:type="simple"><rect fill="#EEEEEE" filter="url(#f11rw8qv4hktpu)" height="23.9688" id="Allocation" style="stroke: #A80036; stroke-width: 1.5;" width="67" x="770.75" y="980"/><rect fill="#EEEEEE" height="23.9688" style="stroke: #A80036; stroke-width: 1.5;" width="67" x="770.75" y="980"/><text fill="#000000" font-family="sans-serif" font-size="12" lengthAdjust="spacingAndGlyphs" textLength="61" x="773.75" y="996.1387">Allocation</text></a><!--class ForeignExchangeTrade--><a target="_top" xlink:actuate="onRequest" xlink:href="../ForeignExchangeTrade.html" xlink:show="new" xlink:title="Agreement between two parties in which one party buys a currency and the other party sells a different currency." xlink:type="simple"><rect fill="#EEEEEE" filter="url(#f11rw8qv4hktpu)" height="23.9688" id="ForeignExchangeTrade" style="stroke: #A80036; stroke-width: 1.5;" width="150" x="655.5" y="878"/><rect fill="#EEEEEE" height="23.9688" style="stroke: #A80036; stroke-width: 1.5;" width="150" x="655.5" y="878"/><text fill="#000000" font-family="sans-serif" font-size="12" lengthAdjust="spacingAndGlyphs" textLength="144" x="658.5" y="894.1387">ForeignExchangeTrade</text></a><!--class Security--><a target="_top" xlink:actuate="onRequest" xlink:href="../Security.html" xlink:show="new" xlink:title="Financial instruments representing a sum of rights of the investor vis-a-vis the issuer." xlink:type="simple"><rect fill="#EEEEEE" filter="url(#f11rw8qv4hktpu)" height="23.9688" id="Security" style="stroke: #A80036; stroke-width: 1.5;" width="56" x="648.5" y="776"/><rect fill="#EEEEEE" height="23.9688" style="stroke: #A80036; stroke-width: 1.5;" width="56" x="648.5" y="776"/><text fill="#000000" font-family="sans-serif" font-size="12" lengthAdjust="spacingAndGlyphs" textLength="50" x="651.5" y="792.1387">Security</text></a><!--class Position--><a target="_top" xlink:actuate="onRequest" xlink:href="../Position.html" xlink:show="new" xlink:title="Specifies the status of trades and their value inside a system." xlink:type="simple"><rect fill="#EEEEEE" filter="url(#f11rw8qv4hktpu)" height="23.9688" id="Position" style="stroke: #A80036; stroke-width: 1.5;" width="56" x="877.5" y="672"/><rect fill="#EEEEEE" height="23.9688" style="stroke: #A80036; stroke-width: 1.5;" width="56" x="877.5" y="672"/><text fill="#000000" font-family="sans-serif" font-size="12" lengthAdjust="spacingAndGlyphs" textLength="50" x="880.5" y="688.1387">Position</text></a><!--class Rollover--><a target="_top" xlink:actuate="onRequest" xlink:href="../Rollover.html" xlink:show="new" xlink:title="Process whereby a financial instrument is reinvested at maturity." xlink:type="simple"><rect fill="#EEEEEE" filter="url(#f11rw8qv4hktpu)" height="23.9688" id="Rollover" style="stroke: #A80036; stroke-width: 1.5;" width="55" x="696.75" y="570"/><rect fill="#EEEEEE" height="23.9688" style="stroke: #A80036; stroke-width: 1.5;" width="55" x="696.75" y="570"/><text fill="#000000" font-family="sans-serif" font-size="12" lengthAdjust="spacingAndGlyphs" textLength="49" x="699.75" y="586.1387">Rollover</text></a><!--link Settlement to SecuritiesSettlement--><path d="M1460.52,105.7 C1457.54,122.28 1453.92,142.51 1450.08,163.92 " fill="none" id="Settlement-SecuritiesSettlement" style="stroke: #A80036; stroke-width: 1.0;"/><polygon fill="none" points="1453.65,104.34,1464.07,85.89,1467.43,106.81,1453.65,104.34" style="stroke: #A80036; stroke-width: 1.0;"/><!--link SettlementPartyRole to StandingSettlementInstruction--><!--link Trade to SettlementPartyRole--><!--link SecuritiesSettlementPartyRole to SecuritiesTransfer--><!--link SecuritiesQuantity to SecuritiesSettlementPartyRole--><!--link SecuritiesTradeExecution to SecuritiesQuantity--><!--link SecuritiesQuantity to SecuritiesTradeExecution--><path d="M418.833,594.244 C408.048,601.834 394.283,612.529 384,624 C350.414,661.464 361.655,686.628 324,720 C271.474,766.552 181,716.814 181,787 C181,787 181,787 181,1443 C181,1493.8108 328.216,1514.1791 427.174,1522.131 " fill="none" id="SecuritiesQuantity-SecuritiesTradeExecution" style="stroke: #A80036; stroke-width: 1.0;"/><polygon fill="#A80036" points="432.438,1522.546,423.7801,1517.8512,427.4535,1522.1531,423.1515,1525.8265,432.438,1522.546" style="stroke: #A80036; stroke-width: 1.0;"/><text fill="#000000" font-family="sans-serif" font-size="13" lengthAdjust="spacingAndGlyphs" textLength="161" x="182" y="1100.0669">SecuritiesTradeExecution</text><text fill="#000000" font-family="sans-serif" font-size="13" lengthAdjust="spacingAndGlyphs" textLength="24" x="400.7012" y="1517.6375">0..1</text><!--link SafekeepingPlace to SecuritiesTradeExecution--><!--link PairOff to SafekeepingPlace--><!--link Interest to PairOff--><!--link SecuritiesClearing to Interest--><!--link Payment to SecuritiesClearing--><!--link Allocation to Payment--><!--link ForeignExchangeTrade to Allocation--><!--link Security to ForeignExchangeTrade--><!--link Position to Security--><!--link Rollover to Position--><!--link Settlement to StandingSettlementInstruction--><path d="M1635.27,64.74 C1811.55,69.55 2072.14,89.51 2134,164 C2233.39,283.67 2193.74,370.37 2134,514 C2103.9,586.371 2026.07,643.729 1987.04,668.992 " fill="none" id="Settlement-StandingSettlementInstruction" style="stroke: #A80036; stroke-width: 1.0;"/><polygon fill="#A80036" points="1982.48,671.912,1992.2153,670.4204,1986.6888,669.2128,1987.8965,663.6863,1982.48,671.912" style="stroke: #A80036; stroke-width: 1.0;"/><text fill="#000000" font-family="sans-serif" font-size="13" lengthAdjust="spacingAndGlyphs" textLength="196" x="2130" y="535.0669">StandingSettlementInstruction</text><text fill="#000000" font-family="sans-serif" font-size="13" lengthAdjust="spacingAndGlyphs" textLength="24" x="1959.3638" y="660.93">0..1</text><!--link Settlement to SettlementPartyRole--><path d="M1635.34,80.25 C1748.81,94.95 1884.83,121.03 1923,164 C2028.74,283.06 1983.63,503.39 1968.33,564.76 " fill="none" id="Settlement-SettlementPartyRole" style="stroke: #A80036; stroke-width: 1.0;"/><polygon fill="#A80036" points="1967.03,569.88,1973.1203,562.1399,1968.2595,565.0335,1965.3659,560.1727,1967.03,569.88" style="stroke: #A80036; stroke-width: 1.0;"/><text fill="#000000" font-family="sans-serif" font-size="13" lengthAdjust="spacingAndGlyphs" textLength="132" x="1992" y="331.0669">SettlementPartyRole</text><text fill="#000000" font-family="sans-serif" font-size="13" lengthAdjust="spacingAndGlyphs" textLength="7" x="1958.5247" y="558.887">*</text><!--link Settlement to Trade--><path d="M1510.75,85.57 C1548.52,105.02 1604.78,134.94 1652,164 C1734.42,214.72 1827.7,282.66 1866.97,311.78 " fill="none" id="Settlement-Trade" style="stroke: #A80036; stroke-width: 1.0;"/><polygon fill="#A80036" points="1871.05,314.8,1866.2157,306.2193,1867.038,311.816,1861.4413,312.6384,1871.05,314.8" style="stroke: #A80036; stroke-width: 1.0;"/><text fill="#000000" font-family="sans-serif" font-size="13" lengthAdjust="spacingAndGlyphs" textLength="36" x="1599" y="129.0669">Trade</text><text fill="#000000" font-family="sans-serif" font-size="13" lengthAdjust="spacingAndGlyphs" textLength="8" x="1855.2759" y="304.0372">1</text><!--link SecuritiesSettlement to SecuritiesTransfer--><path d="M1206.56,327 C908.292,327 384.267,327 201.816,327 " fill="none" id="SecuritiesSettlement-SecuritiesTransfer" style="stroke: #A80036; stroke-width: 1.0;"/><polygon fill="#A80036" points="196.781,327,205.781,331,201.781,327,205.781,323,196.781,327" style="stroke: #A80036; stroke-width: 1.0;"/><text fill="#000000" font-family="sans-serif" font-size="13" lengthAdjust="spacingAndGlyphs" textLength="115" x="643.25" y="319.0669">TransferOperation</text><text fill="#000000" font-family="sans-serif" font-size="13" lengthAdjust="spacingAndGlyphs" textLength="8" x="205.6799" y="321.8831">1</text><!--link SecuritiesSettlement to SecuritiesSettlementPartyRole--><path d="M1206.7,413.23 C1108.49,455.54 992.144,510.34 893,570 C847.909,597.133 848.222,623.384 799,642 C776.696,650.435 475.543,668.274 312.758,677.386 " fill="none" id="SecuritiesSettlement-SecuritiesSettlementPartyRole" style="stroke: #A80036; stroke-width: 1.0;"/><polygon fill="#A80036" points="307.505,677.68,316.7149,681.1696,312.4972,677.4,316.2668,673.1822,307.505,677.68" style="stroke: #A80036; stroke-width: 1.0;"/><text fill="#000000" font-family="sans-serif" font-size="13" lengthAdjust="spacingAndGlyphs" textLength="60" x="894" y="586.0669">PartyRole</text><text fill="#000000" font-family="sans-serif" font-size="13" lengthAdjust="spacingAndGlyphs" textLength="7" x="316.4562" y="672.4343">*</text><!--link SecuritiesSettlement to SecuritiesQuantity--><path d="M1206.52,431.36 C1127.46,464.37 1035.94,496.79 949,514 C934.938,516.78 443.058,511.79 433,522 C422.201,532.97 425.094,551.35 429.338,564.69 " fill="none" id="SecuritiesSettlement-SecuritiesQuantity" style="stroke: #A80036; stroke-width: 1.0;"/><polygon fill="#A80036" points="431.07,569.7,431.9203,559.8879,429.4414,564.9727,424.3566,562.4937,431.07,569.7" style="stroke: #A80036; stroke-width: 1.0;"/><text fill="#000000" font-family="sans-serif" font-size="13" lengthAdjust="spacingAndGlyphs" textLength="126" x="434" y="535.0669">SettlementQuantity</text><text fill="#000000" font-family="sans-serif" font-size="13" lengthAdjust="spacingAndGlyphs" textLength="8" x="418.6151" y="558.9041">1</text><!--link SecuritiesSettlement to SecuritiesQuantity--><path d="M1206.73,430.81 C1127.59,463.82 1035.97,496.38 949,514 C877.759,528.44 693.668,509.87 622,522 C596.224,526.36 590.911,532.07 566,540 C535.981,549.56 502.028,560.26 476.351,568.34 " fill="none" id="SecuritiesSettlement-SecuritiesQuantity" style="stroke: #A80036; stroke-width: 1.0;"/><polygon fill="#A80036" points="471.329,569.92,481.1143,571.0368,476.0989,568.4205,478.7151,563.405,471.329,569.92" style="stroke: #A80036; stroke-width: 1.0;"/><text fill="#000000" font-family="sans-serif" font-size="13" lengthAdjust="spacingAndGlyphs" textLength="98" x="623" y="535.0669">TurnedQuantity</text><text fill="#000000" font-family="sans-serif" font-size="13" lengthAdjust="spacingAndGlyphs" textLength="8" x="472.5827" y="558.9407">1</text><!--link SecuritiesSettlement to SecuritiesTradeExecution--><path d="M1635.56,423.88 C1679.81,450.88 1723.16,483.58 1757,522 C1777.7,545.51 1975,1010.675 1975,1042 C1975,1042 1975,1042 1975,1443 C1975,1512.1492 917.376,1524.4399 602.452,1526.5669 " fill="none" id="SecuritiesSettlement-SecuritiesTradeExecution" style="stroke: #A80036; stroke-width: 1.0;"/><polygon fill="#A80036" points="597.415,1526.6004,606.4411,1530.5412,602.4149,1526.5675,606.3885,1522.5413,597.415,1526.6004" style="stroke: #A80036; stroke-width: 1.0;"/><text fill="#000000" font-family="sans-serif" font-size="13" lengthAdjust="spacingAndGlyphs" textLength="161" x="1976" y="1047.0669">SecuritiesTradeExecution</text><text fill="#000000" font-family="sans-serif" font-size="13" lengthAdjust="spacingAndGlyphs" textLength="8" x="605.6276" y="1521.7316">1</text><!--link SecuritiesSettlement to SafekeepingPlace--><path d="M1635.52,420.21 C1692.25,459.56 1738,512.52 1738,581 C1738,581 1738,581 1738,1357 C1738,1437.34 1138.56,1442.121 938.279,1441.477 " fill="none" id="SecuritiesSettlement-SafekeepingPlace" style="stroke: #A80036; stroke-width: 1.0;"/><polygon fill="#A80036" points="933.046,1441.458,942.0322,1445.4888,938.046,1441.4751,942.0597,1437.4889,933.046,1441.458" style="stroke: #A80036; stroke-width: 1.0;"/><text fill="#000000" font-family="sans-serif" font-size="13" lengthAdjust="spacingAndGlyphs" textLength="181" x="1739" y="996.0669">RequestedSafekeepingPlace</text><text fill="#000000" font-family="sans-serif" font-size="13" lengthAdjust="spacingAndGlyphs" textLength="8" x="941.1238" y="1436.3769">1</text><!--link SecuritiesSettlement to PairOff--><path d="M1635.34,484.9 C1654.59,513.61 1667,545.77 1667,581 C1667,581 1667,581 1667,840 C1667,930.095 1650,951.905 1650,1042 C1650,1042 1650,1042 1650,1271 C1650,1347.678 1043.4,1354.431 902.837,1354.966 " fill="none" id="SecuritiesSettlement-PairOff" style="stroke: #A80036; stroke-width: 1.0;"/><polygon fill="#A80036" points="897.648,1354.984,906.6617,1358.9531,902.648,1354.9669,906.6342,1350.9532,897.648,1354.984" style="stroke: #A80036; stroke-width: 1.0;"/><text fill="#000000" font-family="sans-serif" font-size="13" lengthAdjust="spacingAndGlyphs" textLength="42" x="1661" y="945.0669">PairOff</text><text fill="#000000" font-family="sans-serif" font-size="13" lengthAdjust="spacingAndGlyphs" textLength="7" x="905.8855" y="1348.1617">*</text><!--link SecuritiesSettlement to Interest--><path d="M1542.2,490.22 C1554.74,519.08 1563,549.9 1563,581 C1563,581 1563,581 1563,789 C1563,860.125 1510,868.875 1510,940 C1510,940 1510,940 1510,1185 C1510,1246.518 1036.29,1264.417 906.524,1268.166 " fill="none" id="SecuritiesSettlement-Interest" style="stroke: #A80036; stroke-width: 1.0;"/><polygon fill="#A80036" points="901.328,1268.314,910.4386,1272.0552,906.326,1268.1711,910.21,1264.0584,901.328,1268.314" style="stroke: #A80036; stroke-width: 1.0;"/><text fill="#000000" font-family="sans-serif" font-size="13" lengthAdjust="spacingAndGlyphs" textLength="101" x="1529" y="894.0669">AccruedInterest</text><text fill="#000000" font-family="sans-serif" font-size="13" lengthAdjust="spacingAndGlyphs" textLength="7" x="909.9281" y="1261.5392">*</text><!--link SecuritiesSettlement to SecuritiesClearing--><path d="M1465.08,490.19 C1467.03,500.9 1468.7,511.57 1470,522 C1473.95,553.76 1471,562.02 1470,594 C1467.12,686.13 1484.63,716.312 1446,800 C1438.48,816.287 1425.43,813.253 1419,830 C1416.13,837.469 1418.71,840.005 1419,848 C1419.67,866.259 1422,870.729 1422,889 C1422,889 1422,889 1422,1097 C1422,1145.566 1082.34,1170.938 937.349,1179.557 " fill="none" id="SecuritiesSettlement-SecuritiesClearing" style="stroke: #A80036; stroke-width: 1.0;"/><polygon fill="#A80036" points="932.274,1179.856,941.4949,1183.3166,937.2652,1179.5602,941.0216,1175.3306,932.274,1179.856" style="stroke: #A80036; stroke-width: 1.0;"/><text fill="#000000" font-family="sans-serif" font-size="13" lengthAdjust="spacingAndGlyphs" textLength="115" x="1420" y="843.0669">SecuritiesClearing</text><text fill="#000000" font-family="sans-serif" font-size="13" lengthAdjust="spacingAndGlyphs" textLength="8" x="940.7429" y="1174.2349">1</text><!--link SecuritiesSettlement to Payment--><path d="M1447.92,490.17 C1453.24,572.604 1446,670.934 1399,746 C1257.08,972.664 912.713,1063.931 801.943,1088.044 " fill="none" id="SecuritiesSettlement-Payment" style="stroke: #A80036; stroke-width: 1.0;"/><polygon fill="#A80036" points="796.846,1089.142,806.4864,1091.1574,801.7339,1088.0893,804.8021,1083.3368,796.846,1089.142" style="stroke: #A80036; stroke-width: 1.0;"/><text fill="#000000" font-family="sans-serif" font-size="13" lengthAdjust="spacingAndGlyphs" textLength="57" x="1379" y="792.0669">Payment</text><text fill="#000000" font-family="sans-serif" font-size="13" lengthAdjust="spacingAndGlyphs" textLength="24" x="805.3736" y="1082.0582">0..1</text><!--link SecuritiesSettlement to Allocation--><path d="M1391.35,490.01 C1371.4,582.464 1342.79,686.462 1310,720 C1301.55,728.645 1295.14,723.293 1284,728 C1098.95,806.211 892.159,934.623 825.758,976.97 " fill="none" id="SecuritiesSettlement-Allocation" style="stroke: #A80036; stroke-width: 1.0;"/><polygon fill="#A80036" points="821.222,979.868,830.9597,978.3926,825.4353,977.1758,826.6522,971.6513,821.222,979.868" style="stroke: #A80036; stroke-width: 1.0;"/><text fill="#000000" font-family="sans-serif" font-size="13" lengthAdjust="spacingAndGlyphs" textLength="108" x="1285" y="741.0669">SettledAllocation</text><text fill="#000000" font-family="sans-serif" font-size="13" lengthAdjust="spacingAndGlyphs" textLength="24" x="831.1811" y="968.8708">0..1</text><!--link SecuritiesSettlement to ForeignExchangeTrade--><path d="M1274.03,490.06 C1178.44,588.72 1047.17,712.23 914,800 C864.661,832.518 801.655,860.389 763.639,875.9 " fill="none" id="SecuritiesSettlement-ForeignExchangeTrade" style="stroke: #A80036; stroke-width: 1.0;"/><polygon fill="#A80036" points="758.673,877.914,768.5165,878.24,763.3068,876.0356,765.5111,870.8259,758.673,877.914" style="stroke: #A80036; stroke-width: 1.0;"/><text fill="#000000" font-family="sans-serif" font-size="13" lengthAdjust="spacingAndGlyphs" textLength="220" x="1080" y="688.0669">RelatedForeignExchangeOperation</text><text fill="#000000" font-family="sans-serif" font-size="13" lengthAdjust="spacingAndGlyphs" textLength="7" x="758.8106" y="866.9327">*</text><!--link SecuritiesSettlement to Security--><path d="M1206.67,445.9 C1171.52,469.13 1136.61,494.81 1106,522 C1022.03,596.575 1043.52,659.346 949,720 C872.604,769.024 763.106,782.179 708.937,785.707 " fill="none" id="SecuritiesSettlement-Security" style="stroke: #A80036; stroke-width: 1.0;"/><polygon fill="#A80036" points="703.87,786.02,713.0987,789.4597,708.8606,785.7129,712.6073,781.4748,703.87,786.02" style="stroke: #A80036; stroke-width: 1.0;"/><text fill="#000000" font-family="sans-serif" font-size="13" lengthAdjust="spacingAndGlyphs" textLength="52" x="1034" y="637.0669">Security</text><text fill="#000000" font-family="sans-serif" font-size="13" lengthAdjust="spacingAndGlyphs" textLength="23" x="712.3728" y="779.8123">1..*</text><!--link SecuritiesSettlement to Position--><path d="M1206.74,408.79 C1127.46,447.49 1042.3,500.76 982,570 C954.053,602.09 927.492,644.642 914.077,667.273 " fill="none" id="SecuritiesSettlement-Position" style="stroke: #A80036; stroke-width: 1.0;"/><polygon fill="#A80036" points="911.418,671.789,919.4316,666.0634,913.9551,667.4805,912.538,662.004,911.418,671.789" style="stroke: #A80036; stroke-width: 1.0;"/><text fill="#000000" font-family="sans-serif" font-size="13" lengthAdjust="spacingAndGlyphs" textLength="50" x="983" y="586.0669">Position</text><text fill="#000000" font-family="sans-serif" font-size="13" lengthAdjust="spacingAndGlyphs" textLength="8" x="902.7221" y="661.0225">1</text><!--link SecuritiesSettlement to Rollover--><path d="M1206.59,430.12 C1127.44,463.06 1035.84,495.75 949,514 C926.583,518.71 761.249,508.16 743,522 C729.982,531.88 725.723,550.79 724.412,564.55 " fill="none" id="SecuritiesSettlement-Rollover" style="stroke: #A80036; stroke-width: 1.0;"/><polygon fill="#A80036" points="724.032,569.73,728.6896,561.052,724.4035,564.7438,720.7117,560.4577,724.032,569.73" style="stroke: #A80036; stroke-width: 1.0;"/><text fill="#000000" font-family="sans-serif" font-size="13" lengthAdjust="spacingAndGlyphs" textLength="50" x="744" y="535.0669">Rollover</text><text fill="#000000" font-family="sans-serif" font-size="13" lengthAdjust="spacingAndGlyphs" textLength="24" x="694.6535" y="558.944">0..1</text><!--link SecuritiesTransfer to SecuritiesQuantity--><path d="M140.25,339.36 C151.084,375.1 189.506,486.01 263,540 C294.177,562.91 336.295,573.21 371.166,577.762 " fill="none" id="SecuritiesTransfer-SecuritiesQuantity" style="stroke: #A80036; stroke-width: 1.0;"/><polygon fill="#A80036" points="376.257,578.392,367.8181,573.3141,371.2951,577.7762,366.8329,581.2532,376.257,578.392" style="stroke: #A80036; stroke-width: 1.0;"/><text fill="#000000" font-family="sans-serif" font-size="13" lengthAdjust="spacingAndGlyphs" textLength="127" x="264" y="535.0669">TransferredQuantity</text><text fill="#000000" font-family="sans-serif" font-size="13" lengthAdjust="spacingAndGlyphs" textLength="8" x="360.5288" y="573.2165">1</text><!--link SecuritiesTransfer to Security--><path d="M130.561,339.13 C101.8986,390.3 -8.2797,605.27 94,720 C130.846,761.332 526.131,780.827 643.392,785.729 " fill="none" id="SecuritiesTransfer-Security" style="stroke: #A80036; stroke-width: 1.0;"/><polygon fill="#A80036" points="648.435,785.938,639.6084,781.5686,643.4393,785.7309,639.277,789.5617,648.435,785.938" style="stroke: #A80036; stroke-width: 1.0;"/><text fill="#000000" font-family="sans-serif" font-size="13" lengthAdjust="spacingAndGlyphs" textLength="52" x="57" y="637.0669">Security</text><text fill="#000000" font-family="sans-serif" font-size="13" lengthAdjust="spacingAndGlyphs" textLength="7" x="633.3114" y="779.7124">*</text><!--link SecuritiesQuantity to Security--><path d="M436.254,594.29 C437.449,620.14 443.991,684.152 479,720 C523.385,765.449 599.748,780.073 643.213,784.775 " fill="none" id="SecuritiesQuantity-Security" style="stroke: #A80036; stroke-width: 1.0;"/><polygon fill="#A80036" points="648.347,785.301,639.8019,780.4039,643.3731,784.791,638.986,788.3622,648.347,785.301" style="stroke: #A80036; stroke-width: 1.0;"/><text fill="#000000" font-family="sans-serif" font-size="13" lengthAdjust="spacingAndGlyphs" textLength="133" x="480" y="688.0669">SecurityIdentification</text><text fill="#000000" font-family="sans-serif" font-size="13" lengthAdjust="spacingAndGlyphs" textLength="8" x="632.5092" y="798.375">1</text><!--link SecuritiesQuantity to Security--><path d="M476.221,594.119 C516.657,607.06 578.629,631.931 619,672 C647.792,700.577 664.46,746.667 671.687,770.91 " fill="none" id="SecuritiesQuantity-Security" style="stroke: #A80036; stroke-width: 1.0;"/><polygon fill="#A80036" points="673.086,775.737,674.4236,765.9794,671.6947,770.9345,666.7396,768.2055,673.086,775.737" style="stroke: #A80036; stroke-width: 1.0;"/><text fill="#000000" font-family="sans-serif" font-size="13" lengthAdjust="spacingAndGlyphs" textLength="144" x="653" y="688.0669">MinimumQuantityDebt</text><text fill="#000000" font-family="sans-serif" font-size="13" lengthAdjust="spacingAndGlyphs" textLength="8" x="661.2989" y="764.9533">1</text><!--link SecuritiesQuantity to Allocation--><path d="M486.981,594.068 C585.657,615.65 794.235,662.114 807,672 C832.466,691.721 841,703.791 841,736 C841,736 841,736 841,891 C841,922.4 824.756,956.092 813.794,975.254 " fill="none" id="SecuritiesQuantity-Allocation" style="stroke: #A80036; stroke-width: 1.0;"/><polygon fill="#A80036" points="811.134,979.802,819.1307,974.0528,813.6584,975.4861,812.2252,970.0138,811.134,979.802" style="stroke: #A80036; stroke-width: 1.0;"/><text fill="#000000" font-family="sans-serif" font-size="13" lengthAdjust="spacingAndGlyphs" textLength="62" x="842" y="792.0669">Allocation</text><text fill="#000000" font-family="sans-serif" font-size="13" lengthAdjust="spacingAndGlyphs" textLength="24" x="784.1081" y="969.0399">0..1</text><!--link SecuritiesQuantity to PairOff--><path d="M424.87,594.197 C408.799,611.609 381,646.939 381,683 C381,683 381,683 381,1271 C381,1318.441 740.343,1346.103 845.45,1353.18 " fill="none" id="SecuritiesQuantity-PairOff" style="stroke: #A80036; stroke-width: 1.0;"/><polygon fill="#A80036" points="850.553,1353.52,841.8393,1348.9297,845.5641,1353.1871,841.3067,1356.9119,850.553,1353.52" style="stroke: #A80036; stroke-width: 1.0;"/><text fill="#000000" font-family="sans-serif" font-size="13" lengthAdjust="spacingAndGlyphs" textLength="40" x="382" y="996.0669">Pairoff</text><text fill="#000000" font-family="sans-serif" font-size="13" lengthAdjust="spacingAndGlyphs" textLength="8" x="834.9168" y="1347.0667">1</text><!--link SecuritiesQuantity to Position--><path d="M495.553,587.32 C549.791,592.404 631.613,602.978 700,624 C717.863,629.491 720.392,635.74 738,642 C762.53,650.72 831.15,666.589 872.398,675.818 " fill="none" id="SecuritiesQuantity-Position" style="stroke: #A80036; stroke-width: 1.0;"/><polygon fill="#A80036" points="877.288,676.91,869.3748,671.0465,872.4079,675.8214,867.633,678.8546,877.288,676.91" style="stroke: #A80036; stroke-width: 1.0;"/><text fill="#000000" font-family="sans-serif" font-size="13" lengthAdjust="spacingAndGlyphs" textLength="50" x="739" y="637.0669">Position</text><text fill="#000000" font-family="sans-serif" font-size="13" lengthAdjust="spacingAndGlyphs" textLength="8" x="861.438" y="669.7784">1</text><!--link Payment to Payment--><path d="M796.625,1088.266 C814.333,1086.547 831,1089.125 831,1096 C831,1102.177 817.547,1104.885 801.972,1104.125 " fill="none" id="Payment-Payment" style="stroke: #A80036; stroke-width: 1.0;"/><polygon fill="#A80036" points="796.625,1103.734,805.3096,1108.3792,801.6117,1104.0984,805.8926,1100.4005,796.625,1103.734" style="stroke: #A80036; stroke-width: 1.0;"/><text fill="#000000" font-family="sans-serif" font-size="13" lengthAdjust="spacingAndGlyphs" textLength="105" x="837" y="1100.0669">OriginalPayment</text><text fill="#000000" font-family="sans-serif" font-size="13" lengthAdjust="spacingAndGlyphs" textLength="8" x="805.5273" y="1119.9171">1</text></g></svg>