<?xml version="1.0" encoding="UTF-8" standalone="no"?><svg xmlns="http://www.w3.org/2000/svg" xmlns:xlink="http://www.w3.org/1999/xlink" contentScriptType="application/ecmascript" contentStyleType="text/css" height="926px" preserveAspectRatio="none" style="width:3191px;height:926px;" version="1.1" viewBox="0 0 3191 926" width="3191px" zoomAndPan="magnify"><defs><filter height="300%" id="fu78bjrr7zri3" width="300%" x="-1" y="-1"><feGaussianBlur result="blurOut" stdDeviation="2.0"/><feColorMatrix in="blurOut" result="blurOut2" type="matrix" values="0 0 0 0 0 0 0 0 0 0 0 0 0 0 0 0 0 0 .4 0"/><feOffset dx="4.0" dy="4.0" in="blurOut2" result="blurOut3"/><feBlend in="SourceGraphic" in2="blurOut3" mode="normal"/></filter></defs><g><!--cluster ##2653--><!--cluster ##2659--><!--cluster ##2670--><!--class Balance--><a target="_top" xlink:actuate="onRequest" xlink:href="../Balance.html" xlink:show="new" xlink:title="Numerical representation of the net increases and decreases in an account at a specific point in time." xlink:type="simple"><rect fill="#FEFEEE" filter="url(#fu78bjrr7zri3)" height="108.7969" id="Balance" style="stroke: #A80036; stroke-width: 1.5;" width="279" x="1665.75" y="40.5"/><rect fill="#FEFEEE" height="23.9688" style="stroke: #A80036; stroke-width: 1.5;" width="279" x="1665.75" y="40.5"/><text fill="#000000" font-family="sans-serif" font-size="12" lengthAdjust="spacingAndGlyphs" textLength="50" x="1780.25" y="56.6387">Balance</text><line style="stroke: #A80036; stroke-width: 1.5;" x1="1666.75" x2="1943.75" y1="64.4688" y2="64.4688"/><ellipse cx="1676.75" cy="76.3711" fill="#84BE84" rx="3" ry="3" style="stroke: #038048; stroke-width: 1.0;"/><text fill="#000000" font-family="sans-serif" font-size="11" lengthAdjust="spacingAndGlyphs" textLength="27" x="1685.75" y="78.6792">Type</text><text fill="#000000" font-family="sans-serif" font-size="11" font-style="italic" lengthAdjust="spacingAndGlyphs" textLength="110" x="1716.75" y="78.6792">(BalanceTypeCode)</text><ellipse cx="1676.75" cy="89.1758" fill="#84BE84" rx="3" ry="3" style="stroke: #038048; stroke-width: 1.0;"/><text fill="#000000" font-family="sans-serif" font-size="11" lengthAdjust="spacingAndGlyphs" textLength="57" x="1685.75" y="91.4839">ValueDate</text><text fill="#000000" font-family="sans-serif" font-size="11" font-style="italic" lengthAdjust="spacingAndGlyphs" textLength="81" x="1746.75" y="91.4839">(ISODateTime)</text><ellipse cx="1676.75" cy="101.9805" fill="#84BE84" rx="3" ry="3" style="stroke: #038048; stroke-width: 1.0;"/><text fill="#000000" font-family="sans-serif" font-size="11" lengthAdjust="spacingAndGlyphs" textLength="112" x="1685.75" y="104.2886">CreditDebitIndicator</text><text fill="#000000" font-family="sans-serif" font-size="11" font-style="italic" lengthAdjust="spacingAndGlyphs" textLength="100" x="1801.75" y="104.2886">(DebitCreditCode)</text><ellipse cx="1676.75" cy="114.7852" fill="#84BE84" rx="3" ry="3" style="stroke: #038048; stroke-width: 1.0;"/><text fill="#000000" font-family="sans-serif" font-size="11" lengthAdjust="spacingAndGlyphs" textLength="88" x="1685.75" y="117.0933">CalculationDate</text><text fill="#000000" font-family="sans-serif" font-size="11" font-style="italic" lengthAdjust="spacingAndGlyphs" textLength="81" x="1777.75" y="117.0933">(ISODateTime)</text><ellipse cx="1676.75" cy="127.5898" fill="#84BE84" rx="3" ry="3" style="stroke: #038048; stroke-width: 1.0;"/><text fill="#000000" font-family="sans-serif" font-size="11" lengthAdjust="spacingAndGlyphs" textLength="123" x="1685.75" y="129.8979">ProcessingRestriction</text><text fill="#000000" font-family="sans-serif" font-size="11" font-style="italic" lengthAdjust="spacingAndGlyphs" textLength="126" x="1812.75" y="129.8979">(ProcessingTypeCode)</text><ellipse cx="1676.75" cy="140.3945" fill="#84BE84" rx="3" ry="3" style="stroke: #038048; stroke-width: 1.0;"/><text fill="#000000" font-family="sans-serif" font-size="11" lengthAdjust="spacingAndGlyphs" textLength="118" x="1685.75" y="142.7026">OpeningClosingCode</text><text fill="#000000" font-family="sans-serif" font-size="11" font-style="italic" lengthAdjust="spacingAndGlyphs" textLength="125" x="1807.75" y="142.7026">(OpeningClosingCode)</text></a><!--class SecuritiesBalance--><a target="_top" xlink:actuate="onRequest" xlink:href="../SecuritiesBalance.html" xlink:show="new" xlink:title="Net position of a segregated holding, in a single security, within the overall position held in a securities account. A securities balance is calculated from the sum of securities' receipts minus the sum of securities' deliveries." xlink:type="simple"><rect fill="#FEFECE" filter="url(#fu78bjrr7zri3)" height="95.9922" id="SecuritiesBalance" style="stroke: #A80036; stroke-width: 1.5;" width="339" x="1430.75" y="228"/><rect fill="#FEFECE" height="23.9688" style="stroke: #A80036; stroke-width: 1.5;" width="339" x="1430.75" y="228"/><text fill="#000000" font-family="sans-serif" font-size="12" lengthAdjust="spacingAndGlyphs" textLength="112" x="1544.25" y="244.1387">SecuritiesBalance</text><line style="stroke: #A80036; stroke-width: 1.5;" x1="1431.75" x2="1768.75" y1="251.9688" y2="251.9688"/><ellipse cx="1441.75" cy="263.8711" fill="#84BE84" rx="3" ry="3" style="stroke: #038048; stroke-width: 1.0;"/><text fill="#000000" font-family="sans-serif" font-size="11" lengthAdjust="spacingAndGlyphs" textLength="72" x="1450.75" y="266.1792">NetGainLoss</text><text fill="#000000" font-family="sans-serif" font-size="11" font-style="italic" lengthAdjust="spacingAndGlyphs" textLength="126" x="1526.75" y="266.1792">(CurrencyAndAmount)</text><ellipse cx="1441.75" cy="276.6758" fill="#84BE84" rx="3" ry="3" style="stroke: #038048; stroke-width: 1.0;"/><text fill="#000000" font-family="sans-serif" font-size="11" lengthAdjust="spacingAndGlyphs" textLength="58" x="1450.75" y="278.9839">ShortLong</text><text fill="#000000" font-family="sans-serif" font-size="11" font-style="italic" lengthAdjust="spacingAndGlyphs" textLength="94" x="1512.75" y="278.9839">(ShortLongCode)</text><ellipse cx="1441.75" cy="289.4805" fill="#84BE84" rx="3" ry="3" style="stroke: #038048; stroke-width: 1.0;"/><text fill="#000000" font-family="sans-serif" font-size="11" lengthAdjust="spacingAndGlyphs" textLength="129" x="1450.75" y="291.7886">SecuritiesBalanceType</text><text fill="#000000" font-family="sans-serif" font-size="11" font-style="italic" lengthAdjust="spacingAndGlyphs" textLength="180" x="1583.75" y="291.7886">(SecuritiesBalanceTypeV2Code)</text><ellipse cx="1441.75" cy="302.2852" fill="#84BE84" rx="3" ry="3" style="stroke: #038048; stroke-width: 1.0;"/><text fill="#000000" font-family="sans-serif" font-size="11" lengthAdjust="spacingAndGlyphs" textLength="108" x="1450.75" y="304.5933">AvailabilityIndicator</text><text fill="#000000" font-family="sans-serif" font-size="11" font-style="italic" lengthAdjust="spacingAndGlyphs" textLength="92" x="1562.75" y="304.5933">(YesNoIndicator)</text><ellipse cx="1441.75" cy="315.0898" fill="#84BE84" rx="3" ry="3" style="stroke: #038048; stroke-width: 1.0;"/><text fill="#000000" font-family="sans-serif" font-size="11" lengthAdjust="spacingAndGlyphs" textLength="90" x="1450.75" y="317.3979">CostAdjustment</text><text fill="#000000" font-family="sans-serif" font-size="11" font-style="italic" lengthAdjust="spacingAndGlyphs" textLength="126" x="1544.75" y="317.3979">(CurrencyAndAmount)</text></a><!--class AssetHolding--><a target="_top" xlink:actuate="onRequest" xlink:href="../AssetHolding.html" xlink:show="new" xlink:title="Specifies in terms of value and quantity the assets." xlink:type="simple"><rect fill="#EEEEEE" filter="url(#fu78bjrr7zri3)" height="23.9688" id="AssetHolding" style="stroke: #A80036; stroke-width: 1.5;" width="88" x="2637.5" y="264"/><rect fill="#EEEEEE" height="23.9688" style="stroke: #A80036; stroke-width: 1.5;" width="88" x="2637.5" y="264"/><text fill="#000000" font-family="sans-serif" font-size="12" lengthAdjust="spacingAndGlyphs" textLength="82" x="2640.5" y="280.1387">AssetHolding</text></a><!--class Adjustment--><a target="_top" xlink:actuate="onRequest" xlink:href="../Adjustment.html" xlink:show="new" xlink:title="Modification on the value of goods and / or services. For example: rebate, discount." xlink:type="simple"><rect fill="#EEEEEE" filter="url(#fu78bjrr7zri3)" height="23.9688" id="Adjustment" style="stroke: #A80036; stroke-width: 1.5;" width="77" x="2816.75" y="612"/><rect fill="#EEEEEE" height="23.9688" style="stroke: #A80036; stroke-width: 1.5;" width="77" x="2816.75" y="612"/><text fill="#000000" font-family="sans-serif" font-size="12" lengthAdjust="spacingAndGlyphs" textLength="71" x="2819.75" y="628.1387">Adjustment</text></a><!--class Account--><a target="_top" xlink:actuate="onRequest" xlink:href="../Account.html" xlink:show="new" xlink:title="Record of transactions in specific types of assets, maintained by a servicing party on behalf of one or more owning parties. Business relationship between an account servicer and one or more account owners." xlink:type="simple"><rect fill="#EEEEEE" filter="url(#fu78bjrr7zri3)" height="23.9688" id="Account" style="stroke: #A80036; stroke-width: 1.5;" width="57" x="2674.75" y="508"/><rect fill="#EEEEEE" height="23.9688" style="stroke: #A80036; stroke-width: 1.5;" width="57" x="2674.75" y="508"/><text fill="#000000" font-family="sans-serif" font-size="12" lengthAdjust="spacingAndGlyphs" textLength="51" x="2677.75" y="524.1387">Account</text></a><!--class Interest--><a target="_top" xlink:actuate="onRequest" xlink:href="../Interest.html" xlink:show="new" xlink:title="Consideration, such as amount of money,  paid or received in exchange for an asset that has been invested, loaned or borrowed for a certain period. The interest is expressed as a fixed amount or percentage of the amount upon which the interest is applied." xlink:type="simple"><rect fill="#EEEEEE" filter="url(#fu78bjrr7zri3)" height="23.9688" id="Interest" style="stroke: #A80036; stroke-width: 1.5;" width="55" x="2640.75" y="404"/><rect fill="#EEEEEE" height="23.9688" style="stroke: #A80036; stroke-width: 1.5;" width="55" x="2640.75" y="404"/><text fill="#000000" font-family="sans-serif" font-size="12" lengthAdjust="spacingAndGlyphs" textLength="49" x="2643.75" y="420.1387">Interest</text></a><!--class Entry--><a target="_top" xlink:actuate="onRequest" xlink:href="../Entry.html" xlink:show="new" xlink:title="Posting to an account that results in an increase or decrease to a balance." xlink:type="simple"><rect fill="#EEEEEE" filter="url(#fu78bjrr7zri3)" height="23.9688" id="Entry" style="stroke: #A80036; stroke-width: 1.5;" width="38" x="2743" y="612"/><rect fill="#EEEEEE" height="23.9688" style="stroke: #A80036; stroke-width: 1.5;" width="38" x="2743" y="612"/><text fill="#000000" font-family="sans-serif" font-size="12" lengthAdjust="spacingAndGlyphs" textLength="32" x="2746" y="628.1387">Entry</text></a><!--class SecuritiesAccount--><a target="_top" xlink:actuate="onRequest" xlink:href="../SecuritiesAccount.html" xlink:show="new" xlink:title="Account to or from which a securities entry is made." xlink:type="simple"><rect fill="#EEEEEE" filter="url(#fu78bjrr7zri3)" height="23.9688" id="SecuritiesAccount" style="stroke: #A80036; stroke-width: 1.5;" width="119" x="234.75" y="264"/><rect fill="#EEEEEE" height="23.9688" style="stroke: #A80036; stroke-width: 1.5;" width="119" x="234.75" y="264"/><text fill="#000000" font-family="sans-serif" font-size="12" lengthAdjust="spacingAndGlyphs" textLength="113" x="237.75" y="280.1387">SecuritiesAccount</text></a><!--class CorporateActionEntitlement--><a target="_top" xlink:actuate="onRequest" xlink:href="../CorporateActionEntitlement.html" xlink:show="new" xlink:title="Rights entitled to the account owner based on the terms of the corporate action event and the balance of underlying securities." xlink:type="simple"><rect fill="#EEEEEE" filter="url(#fu78bjrr7zri3)" height="23.9688" id="CorporateActionEntitlement" style="stroke: #A80036; stroke-width: 1.5;" width="180" x="625" y="612"/><rect fill="#EEEEEE" height="23.9688" style="stroke: #A80036; stroke-width: 1.5;" width="180" x="625" y="612"/><text fill="#000000" font-family="sans-serif" font-size="12" lengthAdjust="spacingAndGlyphs" textLength="174" x="628" y="628.1387">CorporateActionEntitlement</text></a><!--class SecuritiesQuantity--><a target="_top" xlink:actuate="onRequest" xlink:href="../SecuritiesQuantity.html" xlink:show="new" xlink:title="Quantity of a security." xlink:type="simple"><rect fill="#EEEEEE" filter="url(#fu78bjrr7zri3)" height="23.9688" id="SecuritiesQuantity" style="stroke: #A80036; stroke-width: 1.5;" width="120" x="512.5" y="508"/><rect fill="#EEEEEE" height="23.9688" style="stroke: #A80036; stroke-width: 1.5;" width="120" x="512.5" y="508"/><text fill="#000000" font-family="sans-serif" font-size="12" lengthAdjust="spacingAndGlyphs" textLength="114" x="515.5" y="524.1387">SecuritiesQuantity</text></a><!--class Security--><a target="_top" xlink:actuate="onRequest" xlink:href="../Security.html" xlink:show="new" xlink:title="Financial instruments representing a sum of rights of the investor vis-a-vis the issuer." xlink:type="simple"><rect fill="#EEEEEE" filter="url(#fu78bjrr7zri3)" height="23.9688" id="Security" style="stroke: #A80036; stroke-width: 1.5;" width="56" x="416.5" y="404"/><rect fill="#EEEEEE" height="23.9688" style="stroke: #A80036; stroke-width: 1.5;" width="56" x="416.5" y="404"/><text fill="#000000" font-family="sans-serif" font-size="12" lengthAdjust="spacingAndGlyphs" textLength="50" x="419.5" y="420.1387">Security</text></a><!--class CurrencyExchange--><a target="_top" xlink:actuate="onRequest" xlink:href="../CurrencyExchange.html" xlink:show="new" xlink:title="Information needed to process a currency exchange or conversion." xlink:type="simple"><rect fill="#EEEEEE" filter="url(#fu78bjrr7zri3)" height="23.9688" id="CurrencyExchange" style="stroke: #A80036; stroke-width: 1.5;" width="122" x="683" y="888"/><rect fill="#EEEEEE" height="23.9688" style="stroke: #A80036; stroke-width: 1.5;" width="122" x="683" y="888"/><text fill="#000000" font-family="sans-serif" font-size="12" lengthAdjust="spacingAndGlyphs" textLength="116" x="686" y="904.1387">CurrencyExchange</text></a><!--class MeetingEntitlement--><a target="_top" xlink:actuate="onRequest" xlink:href="../MeetingEntitlement.html" xlink:show="new" xlink:title="Notification of the entitlement that one party has in relation with a specific meeting." xlink:type="simple"><rect fill="#EEEEEE" filter="url(#fu78bjrr7zri3)" height="23.9688" id="MeetingEntitlement" style="stroke: #A80036; stroke-width: 1.5;" width="128" x="290" y="802"/><rect fill="#EEEEEE" height="23.9688" style="stroke: #A80036; stroke-width: 1.5;" width="128" x="290" y="802"/><text fill="#000000" font-family="sans-serif" font-size="12" lengthAdjust="spacingAndGlyphs" textLength="122" x="293" y="818.1387">MeetingEntitlement</text></a><!--class SafekeepingPlace--><a target="_top" xlink:actuate="onRequest" xlink:href="../SafekeepingPlace.html" xlink:show="new" xlink:title="Organisation used as the safekeeping place for the securities." xlink:type="simple"><rect fill="#EEEEEE" filter="url(#fu78bjrr7zri3)" height="23.9688" id="SafekeepingPlace" style="stroke: #A80036; stroke-width: 1.5;" width="118" x="255" y="700"/><rect fill="#EEEEEE" height="23.9688" style="stroke: #A80036; stroke-width: 1.5;" width="118" x="255" y="700"/><text fill="#000000" font-family="sans-serif" font-size="12" lengthAdjust="spacingAndGlyphs" textLength="112" x="258" y="716.1387">SafekeepingPlace</text></a><!--class SecuritiesEntry--><a target="_top" xlink:actuate="onRequest" xlink:href="../SecuritiesEntry.html" xlink:show="new" xlink:title="Posting to a securities account as a result of a securities creation, deletion or transfer in the context of a securities transaction." xlink:type="simple"><rect fill="#EEEEEE" filter="url(#fu78bjrr7zri3)" height="23.9688" id="SecuritiesEntry" style="stroke: #A80036; stroke-width: 1.5;" width="100" x="490" y="612"/><rect fill="#EEEEEE" height="23.9688" style="stroke: #A80036; stroke-width: 1.5;" width="100" x="490" y="612"/><text fill="#000000" font-family="sans-serif" font-size="12" lengthAdjust="spacingAndGlyphs" textLength="94" x="493" y="628.1387">SecuritiesEntry</text></a><!--class IntraPositionTransfer--><a target="_top" xlink:actuate="onRequest" xlink:href="../IntraPositionTransfer.html" xlink:show="new" xlink:title="Transfer of securities from one sub-balance to another or from one balance status to another." xlink:type="simple"><rect fill="#EEEEEE" filter="url(#fu78bjrr7zri3)" height="23.9688" id="IntraPositionTransfer" style="stroke: #A80036; stroke-width: 1.5;" width="137" x="667.75" y="508"/><rect fill="#EEEEEE" height="23.9688" style="stroke: #A80036; stroke-width: 1.5;" width="137" x="667.75" y="508"/><text fill="#000000" font-family="sans-serif" font-size="12" lengthAdjust="spacingAndGlyphs" textLength="131" x="670.75" y="524.1387">IntraPositionTransfer</text></a><!--class Pledgee--><a target="_top" xlink:actuate="onRequest" xlink:href="../Pledgee.html" xlink:show="new" xlink:title="Organisation used as the pledgee for the securities." xlink:type="simple"><rect fill="#EEEEEE" filter="url(#fu78bjrr7zri3)" height="23.9688" id="Pledgee" style="stroke: #A80036; stroke-width: 1.5;" width="57" x="507.75" y="404"/><rect fill="#EEEEEE" height="23.9688" style="stroke: #A80036; stroke-width: 1.5;" width="57" x="507.75" y="404"/><text fill="#000000" font-family="sans-serif" font-size="12" lengthAdjust="spacingAndGlyphs" textLength="51" x="510.75" y="420.1387">Pledgee</text></a><!--link Balance to SecuritiesBalance--><path d="M1728.1,163.149 C1703.49,184.633 1676.79,207.953 1654.16,227.712 " fill="none" id="Balance-SecuritiesBalance" style="stroke: #A80036; stroke-width: 1.0;"/><polygon fill="none" points="1723.82,157.588,1743.49,149.706,1733.03,168.133,1723.82,157.588" style="stroke: #A80036; stroke-width: 1.0;"/><!--link Adjustment to AssetHolding--><!--link Account to Adjustment--><!--link Interest to Account--><!--link Entry to Interest--><!--link CorporateActionEntitlement to SecuritiesAccount--><!--link SecuritiesQuantity to CorporateActionEntitlement--><!--link Security to SecuritiesQuantity--><!--link SecuritiesQuantity to Security--><path d="M517.866,507.946 C486.123,500.245 450.442,489.037 441,476 C432.077,463.68 434.5,445.833 438.118,432.997 " fill="none" id="SecuritiesQuantity-Security" style="stroke: #A80036; stroke-width: 1.0;"/><polygon fill="#A80036" points="439.597,428.175,433.1343,435.6069,438.1312,432.9553,440.7828,437.9522,439.597,428.175" style="stroke: #A80036; stroke-width: 1.0;"/><text fill="#000000" font-family="sans-serif" font-size="13" lengthAdjust="spacingAndGlyphs" textLength="133" x="442" y="471.0669">SecurityIdentification</text><text fill="#000000" font-family="sans-serif" font-size="13" lengthAdjust="spacingAndGlyphs" textLength="8" x="426.6977" y="448.0212">1</text><!--link SecuritiesQuantity to Security--><path d="M578.044,507.915 C584.333,494.707 591.868,472.597 581,458 C577.79,453.688 516.197,436.439 476.702,425.736 " fill="none" id="SecuritiesQuantity-Security" style="stroke: #A80036; stroke-width: 1.0;"/><polygon fill="#A80036" points="471.523,424.335,479.1681,430.5441,476.3499,425.6392,481.2548,422.8211,471.523,424.335" style="stroke: #A80036; stroke-width: 1.0;"/><text fill="#000000" font-family="sans-serif" font-size="13" lengthAdjust="spacingAndGlyphs" textLength="144" x="588" y="471.0669">MinimumQuantityDebt</text><text fill="#000000" font-family="sans-serif" font-size="13" lengthAdjust="spacingAndGlyphs" textLength="8" x="480.636" y="420.3775">1</text><!--link CurrencyExchange to Security--><!--link MeetingEntitlement to CurrencyExchange--><!--link SafekeepingPlace to MeetingEntitlement--><!--link SecuritiesEntry to SafekeepingPlace--><!--link IntraPositionTransfer to SecuritiesEntry--><!--link Pledgee to IntraPositionTransfer--><!--link Balance to AssetHolding--><path d="M1944.59,102.906 C2129.94,113.57 2446.4,137.404 2554,180 C2600.47,198.396 2644.88,238.46 2666.8,260.22 " fill="none" id="Balance-AssetHolding" style="stroke: #A80036; stroke-width: 1.0;"/><polygon fill="#A80036" points="2670.37,263.805,2666.8512,254.6062,2666.8409,260.263,2661.1841,260.2528,2670.37,263.805" style="stroke: #A80036; stroke-width: 1.0;"/><text fill="#000000" font-family="sans-serif" font-size="13" lengthAdjust="spacingAndGlyphs" textLength="84" x="2590" y="193.0669">AssetHolding</text><text fill="#000000" font-family="sans-serif" font-size="13" lengthAdjust="spacingAndGlyphs" textLength="7" x="2657.1926" y="253.0438">*</text><!--link Balance to Adjustment--><path d="M1944.44,103.252 C2164.86,115.631 2583.6,143.124 2728,180 C2830.8,206.251 2947,168.903 2947,275 C2947,275 2947,275 2947,521 C2947,560.901 2907.7,592.217 2880.47,609.125 " fill="none" id="Balance-Adjustment" style="stroke: #A80036; stroke-width: 1.0;"/><polygon fill="#A80036" points="2875.88,611.914,2885.6479,610.6542,2880.1518,609.3155,2881.4904,603.8193,2875.88,611.914" style="stroke: #A80036; stroke-width: 1.0;"/><text fill="#000000" font-family="sans-serif" font-size="13" lengthAdjust="spacingAndGlyphs" textLength="74" x="2948" y="420.0669">Adjustment</text><text fill="#000000" font-family="sans-serif" font-size="13" lengthAdjust="spacingAndGlyphs" textLength="7" x="2873.4247" y="600.9327">*</text><!--link Balance to Account--><path d="M1944.49,99.265 C2157.84,105.942 2554.14,125.466 2684,180 C2774.39,217.961 2814.93,279.45 2789,374 C2774.66,426.298 2736.03,478.848 2715.78,503.891 " fill="none" id="Balance-Account" style="stroke: #A80036; stroke-width: 1.0;"/><polygon fill="#A80036" points="2712.46,507.955,2721.2527,503.5179,2715.6242,504.0836,2715.0585,498.4551,2712.46,507.955" style="stroke: #A80036; stroke-width: 1.0;"/><text fill="#000000" font-family="sans-serif" font-size="13" lengthAdjust="spacingAndGlyphs" textLength="52" x="2795" y="369.0669">Account</text><text fill="#000000" font-family="sans-serif" font-size="13" lengthAdjust="spacingAndGlyphs" textLength="8" x="2704.9072" y="496.9877">1</text><!--link Balance to Interest--><path d="M1944.62,147.607 C2150.74,223.798 2524.14,361.822 2635.69,403.057 " fill="none" id="Balance-Interest" style="stroke: #A80036; stroke-width: 1.0;"/><polygon fill="#A80036" points="2640.49,404.831,2633.447,397.9465,2635.8032,403.0893,2630.6603,405.4454,2640.49,404.831" style="stroke: #A80036; stroke-width: 1.0;"/><text fill="#000000" font-family="sans-serif" font-size="13" lengthAdjust="spacingAndGlyphs" textLength="49" x="2483" y="280.0669">Interest</text><text fill="#000000" font-family="sans-serif" font-size="13" lengthAdjust="spacingAndGlyphs" textLength="7" x="2625.8364" y="396.8581">*</text><!--link Balance to Entry--><path d="M1944.46,95.886 C2212.4,97.32 2788.93,108.882 2973,180 C3036.78,204.642 3094,206.628 3094,275 C3094,275 3094,275 3094,521 C3094,523.014 2862.42,592.811 2786.08,615.765 " fill="none" id="Balance-Entry" style="stroke: #A80036; stroke-width: 1.0;"/><polygon fill="#A80036" points="2781.28,617.208,2791.0513,618.4414,2786.0674,615.7655,2788.7433,610.7816,2781.28,617.208" style="stroke: #A80036; stroke-width: 1.0;"/><text fill="#000000" font-family="sans-serif" font-size="13" lengthAdjust="spacingAndGlyphs" textLength="84" x="3095" y="420.0669">BalanceEntry</text><text fill="#000000" font-family="sans-serif" font-size="13" lengthAdjust="spacingAndGlyphs" textLength="7" x="2789.1106" y="608.0465">*</text><!--link SecuritiesBalance to SecuritiesAccount--><path d="M1430.53,276 C1138.54,276 553.224,276 358.594,276 " fill="none" id="SecuritiesBalance-SecuritiesAccount" style="stroke: #A80036; stroke-width: 1.0;"/><polygon fill="#A80036" points="353.51,276,362.51,280,358.51,276,362.51,272,353.51,276" style="stroke: #A80036; stroke-width: 1.0;"/><text fill="#000000" font-family="sans-serif" font-size="13" lengthAdjust="spacingAndGlyphs" textLength="115" x="833.75" y="268.0669">SecuritiesAccount</text><text fill="#000000" font-family="sans-serif" font-size="13" lengthAdjust="spacingAndGlyphs" textLength="24" x="361.7494" y="271.0936">0..1</text><!--link SecuritiesBalance to CorporateActionEntitlement--><path d="M1769.33,307.474 C1805.28,318.909 1841.53,334.572 1872,356 C1917.81,388.218 1928.71,404.728 1946,458 C1964.95,516.376 1904.82,564.14 1872,582 C1825.73,607.179 1079.2,618.616 810.457,621.931 " fill="none" id="SecuritiesBalance-CorporateActionEntitlement" style="stroke: #A80036; stroke-width: 1.0;"/><polygon fill="#A80036" points="805.366,621.994,814.4145,625.8831,810.3656,621.9326,814.3162,617.8837,805.366,621.994" style="stroke: #A80036; stroke-width: 1.0;"/><text fill="#000000" font-family="sans-serif" font-size="13" lengthAdjust="spacingAndGlyphs" textLength="217" x="1951" y="471.0669">EligibleBalanceRelatedEntitlement</text><text fill="#000000" font-family="sans-serif" font-size="13" lengthAdjust="spacingAndGlyphs" textLength="24" x="812.8835" y="617.2954">0..1</text><!--link SecuritiesBalance to CorporateActionEntitlement--><path d="M1769.6,278.041 C1975.17,285.886 2282,322.605 2178,476 C2106.58,581.336 2036.55,555.879 1912,582 C1805.65,604.304 1074.86,617.521 810.323,621.619 " fill="none" id="SecuritiesBalance-CorporateActionEntitlement" style="stroke: #A80036; stroke-width: 1.0;"/><polygon fill="#A80036" points="805.311,621.696,814.3716,625.5567,810.3104,621.6189,814.2482,617.5576,805.311,621.696" style="stroke: #A80036; stroke-width: 1.0;"/><text fill="#000000" font-family="sans-serif" font-size="13" lengthAdjust="spacingAndGlyphs" textLength="178" x="2189" y="471.0669">CorporateActionEntitlement</text><text fill="#000000" font-family="sans-serif" font-size="13" lengthAdjust="spacingAndGlyphs" textLength="8" x="813.1211" y="634.2">1</text><!--link SecuritiesBalance to CorporateActionEntitlement--><path d="M1539.4,324.206 C1527.08,334.389 1514.42,345.313 1503,356 C1471.09,385.873 1475.48,409.236 1436,428 C1344.68,471.402 1078.3,427.179 982,458 C954.94,466.661 794.749,570.729 736.316,608.997 " fill="none" id="SecuritiesBalance-CorporateActionEntitlement" style="stroke: #A80036; stroke-width: 1.0;"/><polygon fill="#A80036" points="731.96,611.851,741.6804,610.2654,736.1425,609.1112,737.2967,603.5734,731.96,611.851" style="stroke: #A80036; stroke-width: 1.0;"/><text fill="#000000" font-family="sans-serif" font-size="13" lengthAdjust="spacingAndGlyphs" textLength="237" x="983" y="471.0669">InstructedBalanceRelatedEntitlement</text><text fill="#000000" font-family="sans-serif" font-size="13" lengthAdjust="spacingAndGlyphs" textLength="24" x="708.3213" y="600.848">0..1</text><!--link SecuritiesBalance to CorporateActionEntitlement--><path d="M1574.86,324.341 C1553.8,359.01 1520.39,404.03 1478,428 C1393.63,475.705 1354.57,429.281 1262,458 C1244.91,463.301 1242.67,469.5 1226,476 C1064.2,539.106 864.234,588.85 769.583,610.79 " fill="none" id="SecuritiesBalance-CorporateActionEntitlement" style="stroke: #A80036; stroke-width: 1.0;"/><polygon fill="#A80036" points="764.605,611.941,774.2745,613.8119,769.4766,610.8152,772.4733,606.0173,764.605,611.941" style="stroke: #A80036; stroke-width: 1.0;"/><text fill="#000000" font-family="sans-serif" font-size="13" lengthAdjust="spacingAndGlyphs" textLength="255" x="1263" y="471.0669">UninstructedBalanceRelatedEntitlement</text><text fill="#000000" font-family="sans-serif" font-size="13" lengthAdjust="spacingAndGlyphs" textLength="24" x="752.188" y="600.9689">0..1</text><!--link SecuritiesBalance to CorporateActionEntitlement--><path d="M1595.86,324.379 C1589.07,370.902 1571.18,439.976 1524,476 C1413.07,560.707 999.591,601.776 810.485,616.45 " fill="none" id="SecuritiesBalance-CorporateActionEntitlement" style="stroke: #A80036; stroke-width: 1.0;"/><polygon fill="#A80036" points="805.232,616.855,814.5138,620.1487,810.2171,616.4692,813.8966,612.1725,805.232,616.855" style="stroke: #A80036; stroke-width: 1.0;"/><text fill="#000000" font-family="sans-serif" font-size="13" lengthAdjust="spacingAndGlyphs" textLength="240" x="1544" y="471.0669">NotEligibleBalanceRelatedEntitlement</text><text fill="#000000" font-family="sans-serif" font-size="13" lengthAdjust="spacingAndGlyphs" textLength="8" x="813.012" y="609.8579">1</text><!--link SecuritiesBalance to SecuritiesQuantity--><path d="M1430.43,295.841 C1272.79,312.551 1031.33,336.099 821,348 C740.886,352.533 539.386,344.314 460,356 C430.343,360.366 423.995,366.392 395,374 C341.408,388.061 316.993,369.051 274,404 C247.6,425.461 225.581,450.409 248,476 C264.789,495.164 417.498,508.603 507.145,514.918 " fill="none" id="SecuritiesBalance-SecuritiesQuantity" style="stroke: #A80036; stroke-width: 1.0;"/><polygon fill="#A80036" points="512.161,515.268,503.4618,510.6502,507.1732,514.9194,502.904,518.6308,512.161,515.268" style="stroke: #A80036; stroke-width: 1.0;"/><text fill="#000000" font-family="sans-serif" font-size="13" lengthAdjust="spacingAndGlyphs" textLength="121" x="275" y="420.0669">AggregateQuantity</text><text fill="#000000" font-family="sans-serif" font-size="13" lengthAdjust="spacingAndGlyphs" textLength="8" x="496.4229" y="509.9788">1</text><!--link SecuritiesBalance to SecuritiesQuantity--><path d="M1430.51,283.714 C1269.87,292.489 1022.51,312.272 812,356 C743.466,370.236 703.269,347.463 662,404 C655.711,412.616 655.461,419.573 662,428 C696.456,472.406 814.472,432.402 779,476 C774.395,481.66 695.63,496.881 636.62,507.601 " fill="none" id="SecuritiesBalance-SecuritiesQuantity" style="stroke: #A80036; stroke-width: 1.0;"/><polygon fill="#A80036" points="631.692,508.494,641.2609,510.8254,636.6119,507.6026,639.8347,502.9535,631.692,508.494" style="stroke: #A80036; stroke-width: 1.0;"/><text fill="#000000" font-family="sans-serif" font-size="13" lengthAdjust="spacingAndGlyphs" textLength="130" x="663" y="420.0669">SubBalanceQuantity</text><text fill="#000000" font-family="sans-serif" font-size="13" lengthAdjust="spacingAndGlyphs" textLength="8" x="640.5784" y="501.7591">1</text><!--link SecuritiesBalance to SecuritiesQuantity--><path d="M1430.54,289.078 C1308.44,300.215 1140.43,320.557 996,356 C935.779,370.778 915.086,367.444 865,404 C832.255,427.9 843.675,454.997 809,476 C805.274,478.257 705.956,495.799 637.087,507.768 " fill="none" id="SecuritiesBalance-SecuritiesQuantity" style="stroke: #A80036; stroke-width: 1.0;"/><polygon fill="#A80036" points="631.769,508.692,641.3207,511.093,636.6953,507.8364,639.9518,503.211,631.769,508.692" style="stroke: #A80036; stroke-width: 1.0;"/><text fill="#000000" font-family="sans-serif" font-size="13" lengthAdjust="spacingAndGlyphs" textLength="111" x="866" y="420.0669">AvailableQuantity</text><text fill="#000000" font-family="sans-serif" font-size="13" lengthAdjust="spacingAndGlyphs" textLength="8" x="640.6662" y="520.2349">1</text><!--link SecuritiesBalance to SecuritiesQuantity--><path d="M1430.5,298.913 C1312.86,317.777 1154.17,350.599 1022,404 C1003.13,411.624 1001.386,419.272 983,428 C953.668,441.924 876.509,468.166 845,476 C759.905,497.158 736.582,492.125 650,506 C645.62,506.702 641.103,507.434 636.553,508.177 " fill="none" id="SecuritiesBalance-SecuritiesQuantity" style="stroke: #A80036; stroke-width: 1.0;"/><polygon fill="#A80036" points="631.608,508.987,641.1364,511.479,636.5422,508.1784,639.8427,503.5842,631.608,508.987" style="stroke: #A80036; stroke-width: 1.0;"/><text fill="#000000" font-family="sans-serif" font-size="13" lengthAdjust="spacingAndGlyphs" textLength="128" x="1023" y="420.0669">UnavailableQuantity</text><text fill="#000000" font-family="sans-serif" font-size="13" lengthAdjust="spacingAndGlyphs" textLength="8" x="640.5313" y="498.6174">1</text><!--link SecuritiesBalance to SecuritiesBalance--><path d="M1769.62,262.049 C1790.38,264.547 1804,269.197 1804,276 C1804,282.218 1792.62,286.638 1774.81,289.259 " fill="none" id="SecuritiesBalance-SecuritiesBalance" style="stroke: #A80036; stroke-width: 1.0;"/><polygon fill="#A80036" points="1769.62,289.951,1779.0677,292.7332,1774.5766,289.2937,1778.0161,284.8026,1769.62,289.951" style="stroke: #A80036; stroke-width: 1.0;"/><text fill="#000000" font-family="sans-serif" font-size="13" lengthAdjust="spacingAndGlyphs" textLength="144" x="1810" y="280.0669">MainSecuritiesBalance</text><text fill="#000000" font-family="sans-serif" font-size="13" lengthAdjust="spacingAndGlyphs" textLength="24" x="1777.8383" y="286.2681">0..1</text><!--link SecuritiesBalance to Security--><path d="M1430.43,295.746 C1272.78,312.39 1031.32,335.895 821,348 C802.581,349.06 505.435,347.617 489,356 C471.06,365.15 458.25,385.126 450.994,399.294 " fill="none" id="SecuritiesBalance-Security" style="stroke: #A80036; stroke-width: 1.0;"/><polygon fill="#A80036" points="448.747,403.853,456.3143,397.5494,450.9579,399.3684,449.1389,394.0119,448.747,403.853" style="stroke: #A80036; stroke-width: 1.0;"/><text fill="#000000" font-family="sans-serif" font-size="13" lengthAdjust="spacingAndGlyphs" textLength="52" x="490" y="369.0669">Security</text><text fill="#000000" font-family="sans-serif" font-size="13" lengthAdjust="spacingAndGlyphs" textLength="7" x="440.66" y="392.8507">*</text><!--link SecuritiesBalance to CurrencyExchange--><path d="M1769.49,300.631 C1879.74,315.502 2026.72,334.386 2157,348 C2200.46,352.542 2212.2,347.159 2255,356 C2320.24,369.477 2349.64,357.146 2397,404 C2455.96,462.328 2492.86,509.272 2453,582 C2441.09,603.732 2422.45,593.467 2406,612 C2387.66,632.664 2379,640.369 2379,668 C2379,668 2379,668 2379,815 C2379,894.9124 1116.85,899.2454 810.428,899.1198 " fill="none" id="SecuritiesBalance-CurrencyExchange" style="stroke: #A80036; stroke-width: 1.0;"/><polygon fill="#A80036" points="805.11,899.1171,814.11,903.1171,810.11,899.1171,814.11,895.1171,805.11,899.1171" style="stroke: #A80036; stroke-width: 1.0;"/><text fill="#000000" font-family="sans-serif" font-size="13" lengthAdjust="spacingAndGlyphs" textLength="91" x="2407" y="628.0669">ExchangeRate</text><text fill="#000000" font-family="sans-serif" font-size="13" lengthAdjust="spacingAndGlyphs" textLength="7" x="812.9843" y="894.0505">*</text><!--link SecuritiesBalance to MeetingEntitlement--><path d="M1769.57,297.828 C1938.84,318.866 2176.74,349.206 2197,356 C2288.16,386.569 2435.03,399.342 2377,476 C2134.78,795.942 750.721,813.736 423.387,813.419 " fill="none" id="SecuritiesBalance-MeetingEntitlement" style="stroke: #A80036; stroke-width: 1.0;"/><polygon fill="#A80036" points="418.176,813.413,427.1703,817.4259,423.176,813.4201,427.1817,809.4259,418.176,813.413" style="stroke: #A80036; stroke-width: 1.0;"/><text fill="#000000" font-family="sans-serif" font-size="13" lengthAdjust="spacingAndGlyphs" textLength="173" x="2270" y="577.0669">RelatedMeetingEntitlement</text><text fill="#000000" font-family="sans-serif" font-size="13" lengthAdjust="spacingAndGlyphs" textLength="24" x="426.0317" y="808.5513">0..1</text><!--link SecuritiesBalance to SafekeepingPlace--><path d="M1430.44,296.091 C1272.82,312.973 1031.36,336.635 821,348 C716.914,353.623 455.787,346.322 352,356 C274.338,363.242 6,337.001 6,415 C6,415 6,415 6,625 C6,675.197 159.68,697.389 249.93,706.094 " fill="none" id="SecuritiesBalance-SafekeepingPlace" style="stroke: #A80036; stroke-width: 1.0;"/><polygon fill="#A80036" points="254.979,706.573,246.3975,701.7399,250.0014,706.1002,245.6411,709.7041,254.979,706.573" style="stroke: #A80036; stroke-width: 1.0;"/><text fill="#000000" font-family="sans-serif" font-size="13" lengthAdjust="spacingAndGlyphs" textLength="113" x="7" y="524.0669">SafekeepingPlace</text><text fill="#000000" font-family="sans-serif" font-size="13" lengthAdjust="spacingAndGlyphs" textLength="7" x="240.0314" y="701.1256">*</text><!--link SecuritiesBalance to SecuritiesEntry--><path d="M1698.42,324.116 C1768.28,363.739 1841.85,422.35 1794,476 C1617.27,674.137 869.965,575.371 607,612 C603.142,612.537 599.163,613.119 595.16,613.725 " fill="none" id="SecuritiesBalance-SecuritiesEntry" style="stroke: #A80036; stroke-width: 1.0;"/><polygon fill="#A80036" points="590.082,614.505,599.5846,617.0935,595.0241,613.7465,598.3711,609.1861,590.082,614.505" style="stroke: #A80036; stroke-width: 1.0;"/><text fill="#000000" font-family="sans-serif" font-size="13" lengthAdjust="spacingAndGlyphs" textLength="96" x="1807" y="471.0669">SecuritiesEntry</text><text fill="#000000" font-family="sans-serif" font-size="13" lengthAdjust="spacingAndGlyphs" textLength="7" x="597.9519" y="607.9409">*</text><!--link SecuritiesBalance to IntraPositionTransfer--><path d="M1483.03,324.071 C1395.61,357.561 1272.47,401.201 1161,428 C1068.48,450.244 1040.85,433.127 949,458 C928.606,463.523 925.064,469.379 905,476 C868.022,488.202 825.541,498.998 792.421,506.719 " fill="none" id="SecuritiesBalance-IntraPositionTransfer" style="stroke: #A80036; stroke-width: 1.0;"/><polygon fill="#A80036" points="787.188,507.932,796.8586,509.7975,792.059,506.8035,795.053,502.004,787.188,507.932" style="stroke: #A80036; stroke-width: 1.0;"/><text fill="#000000" font-family="sans-serif" font-size="13" lengthAdjust="spacingAndGlyphs" textLength="179" x="1251" y="420.0669">RelatedIntraPositionTransfer</text><text fill="#000000" font-family="sans-serif" font-size="13" lengthAdjust="spacingAndGlyphs" textLength="8" x="793.9792" y="496.9568">1</text><!--link SecuritiesBalance to Pledgee--><path d="M1430.4,295.384 C1272.75,311.778 1031.27,335.118 821,348 C806.908,348.863 578.967,348.51 567,356 C551.975,365.404 543.832,384.68 539.714,398.645 " fill="none" id="SecuritiesBalance-Pledgee" style="stroke: #A80036; stroke-width: 1.0;"/><polygon fill="#A80036" points="538.374,403.522,544.617,395.9046,539.6996,398.7009,536.9033,393.7836,538.374,403.522" style="stroke: #A80036; stroke-width: 1.0;"/><text fill="#000000" font-family="sans-serif" font-size="13" lengthAdjust="spacingAndGlyphs" textLength="51" x="568" y="369.0669">Pledgee</text><text fill="#000000" font-family="sans-serif" font-size="13" lengthAdjust="spacingAndGlyphs" textLength="7" x="529.6167" y="392.9283">*</text><!--link AssetHolding to CurrencyExchange--><path d="M2673.97,288.006 C2645.85,333.105 2543,508.911 2543,668 C2543,668 2543,668 2543,815 C2543,903.5099 1135.16,901.1588 810.313,899.4381 " fill="none" id="AssetHolding-CurrencyExchange" style="stroke: #A80036; stroke-width: 1.0;"/><polygon fill="#A80036" points="805.146,899.4103,814.1242,903.4591,810.1459,899.4374,814.1676,895.4592,805.146,899.4103" style="stroke: #A80036; stroke-width: 1.0;"/><text fill="#000000" font-family="sans-serif" font-size="13" lengthAdjust="spacingAndGlyphs" textLength="91" x="2548" y="628.0669">ExchangeRate</text><text fill="#000000" font-family="sans-serif" font-size="13" lengthAdjust="spacingAndGlyphs" textLength="8" x="813.0857" y="912.3294">1</text><!--link AssetHolding to Interest--><path d="M2679.94,288.293 C2677.64,312.674 2672.21,370.321 2669.54,398.675 " fill="none" id="AssetHolding-Interest" style="stroke: #A80036; stroke-width: 1.0;"/><polygon fill="#A80036" points="2669.04,403.937,2673.8693,395.3534,2669.5106,398.9592,2665.9048,394.6005,2669.04,403.937" style="stroke: #A80036; stroke-width: 1.0;"/><text fill="#000000" font-family="sans-serif" font-size="13" lengthAdjust="spacingAndGlyphs" textLength="49" x="2675" y="369.0669">Interest</text><text fill="#000000" font-family="sans-serif" font-size="13" lengthAdjust="spacingAndGlyphs" textLength="7" x="2659.7647" y="392.9636">*</text><!--link Adjustment to CurrencyExchange--><path d="M2852.72,636.102 C2843.87,675.973 2807.53,811.988 2716,858 C2629.15,901.6564 1144.68,900.1231 810.461,899.2198 " fill="none" id="Adjustment-CurrencyExchange" style="stroke: #A80036; stroke-width: 1.0;"/><polygon fill="#A80036" points="805.148,899.2052,814.1365,903.2309,810.148,899.2195,814.1594,895.2309,805.148,899.2052" style="stroke: #A80036; stroke-width: 1.0;"/><text fill="#000000" font-family="sans-serif" font-size="13" lengthAdjust="spacingAndGlyphs" textLength="119" x="2812" y="767.0669">CurrencyExchange</text><text fill="#000000" font-family="sans-serif" font-size="13" lengthAdjust="spacingAndGlyphs" textLength="8" x="813.3433" y="892.4507">1</text><!--link Account to Account--><path d="M2731.51,510.938 C2749.18,508.753 2766,511.773 2766,520 C2766,527.391 2752.42,530.58 2736.85,529.567 " fill="none" id="Account-Account" style="stroke: #A80036; stroke-width: 1.0;"/><polygon fill="#A80036" points="2731.51,529.062,2740.0928,533.8926,2736.4877,529.5333,2740.847,525.9282,2731.51,529.062" style="stroke: #A80036; stroke-width: 1.0;"/><text fill="#000000" font-family="sans-serif" font-size="13" lengthAdjust="spacingAndGlyphs" textLength="94" x="2772" y="524.0669">ParentAccount</text><text fill="#000000" font-family="sans-serif" font-size="13" lengthAdjust="spacingAndGlyphs" textLength="8" x="2739.7766" y="525.2939">1</text><!--link Account to Entry--><path d="M2709.54,532.306 C2720.14,550.63 2741.09,586.846 2753.06,607.54 " fill="none" id="Account-Entry" style="stroke: #A80036; stroke-width: 1.0;"/><polygon fill="#A80036" points="2755.61,611.954,2754.5677,602.1604,2753.1072,607.6255,2747.6421,606.165,2755.61,611.954" style="stroke: #A80036; stroke-width: 1.0;"/><text fill="#000000" font-family="sans-serif" font-size="13" lengthAdjust="spacingAndGlyphs" textLength="33" x="2739" y="577.0669">Entry</text><text fill="#000000" font-family="sans-serif" font-size="13" lengthAdjust="spacingAndGlyphs" textLength="7" x="2743.8666" y="600.9864">*</text><!--link Account to CurrencyExchange--><path d="M2700.62,532.261 C2696.86,550.997 2690,589.796 2690,623 C2690,623 2690,623 2690,815 C2690,872.0726 2625.13,847.6724 2569,858 C2393.73,890.2475 1117.63,897.4792 810.4,898.7598 " fill="none" id="Account-CurrencyExchange" style="stroke: #A80036; stroke-width: 1.0;"/><polygon fill="#A80036" points="805.069,898.7818,814.0861,902.7432,810.069,898.7604,814.0518,894.7433,805.069,898.7818" style="stroke: #A80036; stroke-width: 1.0;"/><text fill="#000000" font-family="sans-serif" font-size="13" lengthAdjust="spacingAndGlyphs" textLength="119" x="2691" y="716.0669">CurrencyExchange</text><text fill="#000000" font-family="sans-serif" font-size="13" lengthAdjust="spacingAndGlyphs" textLength="7" x="812.979" y="912.6385">*</text><!--link SecuritiesAccount to Security--><path d="M301.746,288.173 C315.394,307.324 345.295,346.963 377,374 C389.291,384.481 404.553,394.041 417.404,401.288 " fill="none" id="SecuritiesAccount-Security" style="stroke: #A80036; stroke-width: 1.0;"/><polygon fill="#A80036" points="422.02,403.851,416.0932,395.9851,417.6486,401.4239,412.2098,402.9793,422.02,403.851" style="stroke: #A80036; stroke-width: 1.0;"/><text fill="#000000" font-family="sans-serif" font-size="13" lengthAdjust="spacingAndGlyphs" textLength="52" x="378" y="369.0669">Security</text><text fill="#000000" font-family="sans-serif" font-size="13" lengthAdjust="spacingAndGlyphs" textLength="7" x="404.7456" y="392.848">*</text><!--link SecuritiesAccount to SafekeepingPlace--><path d="M287.994,288.123 C280.245,303.073 267.043,330.7 261,356 C251.794,394.547 243.159,494.964 250,534 C260.868,596.019 291.635,664.955 306.188,695.258 " fill="none" id="SecuritiesAccount-SafekeepingPlace" style="stroke: #A80036; stroke-width: 1.0;"/><polygon fill="#A80036" points="308.379,699.783,308.0588,689.9393,306.2008,695.2824,300.8578,693.4244,308.379,699.783" style="stroke: #A80036; stroke-width: 1.0;"/><text fill="#000000" font-family="sans-serif" font-size="13" lengthAdjust="spacingAndGlyphs" textLength="113" x="251" y="524.0669">SafekeepingPlace</text><text fill="#000000" font-family="sans-serif" font-size="13" lengthAdjust="spacingAndGlyphs" textLength="7" x="297.0264" y="689.0146">*</text><!--link SecuritiesAccount to SecuritiesEntry--><path d="M289.417,288.235 C276.932,320.824 245.969,416.823 288,476 C311.441,509.004 341.427,481.965 374,506 C407.761,530.912 396.504,556.733 430,582 C447.024,594.842 468.508,604.036 487.962,610.418 " fill="none" id="SecuritiesAccount-SecuritiesEntry" style="stroke: #A80036; stroke-width: 1.0;"/><polygon fill="#A80036" points="492.86,611.981,485.5022,605.4341,488.0967,610.4609,483.0699,613.0554,492.86,611.981" style="stroke: #A80036; stroke-width: 1.0;"/><text fill="#000000" font-family="sans-serif" font-size="13" lengthAdjust="spacingAndGlyphs" textLength="96" x="289" y="471.0669">SecuritiesEntry</text><text fill="#000000" font-family="sans-serif" font-size="13" lengthAdjust="spacingAndGlyphs" textLength="7" x="475.0161" y="604.1521">*</text><!--link SecuritiesQuantity to SecuritiesEntry--><path d="M568.453,532.306 C562.753,550.476 551.533,586.239 545.015,607.015 " fill="none" id="SecuritiesQuantity-SecuritiesEntry" style="stroke: #A80036; stroke-width: 1.0;"/><polygon fill="#A80036" points="543.465,611.954,549.976,604.5643,544.9619,607.1833,542.3429,602.1693,543.465,611.954" style="stroke: #A80036; stroke-width: 1.0;"/><text fill="#000000" font-family="sans-serif" font-size="13" lengthAdjust="spacingAndGlyphs" textLength="33" x="559" y="577.0669">Entry</text><text fill="#000000" font-family="sans-serif" font-size="13" lengthAdjust="spacingAndGlyphs" textLength="24" x="515.1873" y="600.9864">0..1</text></g></svg>