<?xml version="1.0" encoding="UTF-8" standalone="no"?><svg xmlns="http://www.w3.org/2000/svg" xmlns:xlink="http://www.w3.org/1999/xlink" contentScriptType="application/ecmascript" contentStyleType="text/css" height="556px" preserveAspectRatio="none" style="width:1353px;height:556px;" version="1.1" viewBox="0 0 1353 556" width="1353px" zoomAndPan="magnify"><defs><filter height="300%" id="f35p9ic4jo0i5" width="300%" x="-1" y="-1"><feGaussianBlur result="blurOut" stdDeviation="2.0"/><feColorMatrix in="blurOut" result="blurOut2" type="matrix" values="0 0 0 0 0 0 0 0 0 0 0 0 0 0 0 0 0 0 .4 0"/><feOffset dx="4.0" dy="4.0" in="blurOut2" result="blurOut3"/><feBlend in="SourceGraphic" in2="blurOut3" mode="normal"/></filter></defs><g><!--cluster ##7118--><!--cluster ##7124--><!--class SecuritiesTradeExecution--><a target="_top" xlink:actuate="onRequest" xlink:href="../SecuritiesTradeExecution.html" xlink:show="new" xlink:title="Transaction between two counterparties in which they agree to buy and sell a financial instrument. A trade transaction occurs with the matching of the two counterparties orders. There could be several trade transactions necessary to execute the trade." xlink:type="simple"><rect fill="#FEFECE" filter="url(#f35p9ic4jo0i5)" height="108.7969" id="SecuritiesTradeExecution" style="stroke: #A80036; stroke-width: 1.5;" width="280" x="38" y="40.5"/><rect fill="#FEFECE" height="23.9688" style="stroke: #A80036; stroke-width: 1.5;" width="280" x="38" y="40.5"/><text fill="#000000" font-family="sans-serif" font-size="12" lengthAdjust="spacingAndGlyphs" textLength="159" x="98.5" y="56.6387">SecuritiesTradeExecution</text><line style="stroke: #A80036; stroke-width: 1.5;" x1="39" x2="317" y1="64.4688" y2="64.4688"/><ellipse cx="49" cy="76.3711" fill="#84BE84" rx="3" ry="3" style="stroke: #038048; stroke-width: 1.0;"/><text fill="#000000" font-family="sans-serif" font-size="11" lengthAdjust="spacingAndGlyphs" textLength="111" x="58" y="78.6792">StampDutyIndicator</text><text fill="#000000" font-family="sans-serif" font-size="11" font-style="italic" lengthAdjust="spacingAndGlyphs" textLength="92" x="173" y="78.6792">(YesNoIndicator)</text><ellipse cx="49" cy="89.1758" fill="#84BE84" rx="3" ry="3" style="stroke: #038048; stroke-width: 1.0;"/><text fill="#000000" font-family="sans-serif" font-size="11" lengthAdjust="spacingAndGlyphs" textLength="108" x="58" y="91.4839">ProcessingPosition</text><text fill="#000000" font-family="sans-serif" font-size="11" font-style="italic" lengthAdjust="spacingAndGlyphs" textLength="142" x="170" y="91.4839">(ProcessingPositionCode)</text><ellipse cx="49" cy="101.9805" fill="#84BE84" rx="3" ry="3" style="stroke: #038048; stroke-width: 1.0;"/><text fill="#000000" font-family="sans-serif" font-size="11" lengthAdjust="spacingAndGlyphs" textLength="81" x="58" y="104.2886">MarginAmount</text><text fill="#000000" font-family="sans-serif" font-size="11" font-style="italic" lengthAdjust="spacingAndGlyphs" textLength="126" x="143" y="104.2886">(CurrencyAndAmount)</text><ellipse cx="49" cy="114.7852" fill="#84BE84" rx="3" ry="3" style="stroke: #038048; stroke-width: 1.0;"/><text fill="#000000" font-family="sans-serif" font-size="11" lengthAdjust="spacingAndGlyphs" textLength="97" x="58" y="117.0933">OffMarketReason</text><text fill="#000000" font-family="sans-serif" font-size="11" font-style="italic" lengthAdjust="spacingAndGlyphs" textLength="92" x="159" y="117.0933">(OffMarketCode)</text><ellipse cx="49" cy="127.5898" fill="#84BE84" rx="3" ry="3" style="stroke: #038048; stroke-width: 1.0;"/><text fill="#000000" font-family="sans-serif" font-size="11" lengthAdjust="spacingAndGlyphs" textLength="122" x="58" y="129.8979">DealExecutionAmount</text><text fill="#000000" font-family="sans-serif" font-size="11" font-style="italic" lengthAdjust="spacingAndGlyphs" textLength="126" x="184" y="129.8979">(CurrencyAndAmount)</text><ellipse cx="49" cy="140.3945" fill="#84BE84" rx="3" ry="3" style="stroke: #038048; stroke-width: 1.0;"/><text fill="#000000" font-family="sans-serif" font-size="11" lengthAdjust="spacingAndGlyphs" textLength="81" x="58" y="142.7026">ReportingType</text><text fill="#000000" font-family="sans-serif" font-size="11" font-style="italic" lengthAdjust="spacingAndGlyphs" textLength="92" x="143" y="142.7026">(ReportingCode)</text></a><!--class InvestmentFundOrderExecution--><a target="_top" xlink:actuate="onRequest" xlink:href="../InvestmentFundOrderExecution.html" xlink:show="new" xlink:title="Creation/cancellation of investment units on the books of the fund or its designated agent, as a result of executing an investment fund order." xlink:type="simple"><rect fill="#FEFEEE" filter="url(#f35p9ic4jo0i5)" height="23.9688" id="InvestmentFundOrderExecution" style="stroke: #A80036; stroke-width: 1.5;" width="202" x="101" y="230"/><rect fill="#FEFEEE" height="23.9688" style="stroke: #A80036; stroke-width: 1.5;" width="202" x="101" y="230"/><text fill="#000000" font-family="sans-serif" font-size="12" lengthAdjust="spacingAndGlyphs" textLength="196" x="104" y="246.1387">InvestmentFundOrderExecution</text></a><!--class SecuritiesSettlement--><a target="_top" xlink:actuate="onRequest" xlink:href="../SecuritiesSettlement.html" xlink:show="new" xlink:title="Settlement of the securities in a securities transaction, that is, the instruction to deliver or receive securities, involving the payment of an amount of money or not." xlink:type="simple"><rect fill="#EEEEEE" filter="url(#f35p9ic4jo0i5)" height="23.9688" id="SecuritiesSettlement" style="stroke: #A80036; stroke-width: 1.5;" width="137" x="374.75" y="230"/><rect fill="#EEEEEE" height="23.9688" style="stroke: #A80036; stroke-width: 1.5;" width="137" x="374.75" y="230"/><text fill="#000000" font-family="sans-serif" font-size="12" lengthAdjust="spacingAndGlyphs" textLength="131" x="377.75" y="246.1387">SecuritiesSettlement</text></a><!--class SecuritiesPricing--><a target="_top" xlink:actuate="onRequest" xlink:href="../SecuritiesPricing.html" xlink:show="new" xlink:title="Characteristics related to the price of the security." xlink:type="simple"><rect fill="#EEEEEE" filter="url(#f35p9ic4jo0i5)" height="23.9688" id="SecuritiesPricing" style="stroke: #A80036; stroke-width: 1.5;" width="110" x="374" y="420"/><rect fill="#EEEEEE" height="23.9688" style="stroke: #A80036; stroke-width: 1.5;" width="110" x="374" y="420"/><text fill="#000000" font-family="sans-serif" font-size="12" lengthAdjust="spacingAndGlyphs" textLength="104" x="377" y="436.1387">SecuritiesPricing</text></a><!--class SecuritiesQuantity--><a target="_top" xlink:actuate="onRequest" xlink:href="../SecuritiesQuantity.html" xlink:show="new" xlink:title="Quantity of a security." xlink:type="simple"><rect fill="#EEEEEE" filter="url(#f35p9ic4jo0i5)" height="23.9688" id="SecuritiesQuantity" style="stroke: #A80036; stroke-width: 1.5;" width="120" x="454.5" y="334"/><rect fill="#EEEEEE" height="23.9688" style="stroke: #A80036; stroke-width: 1.5;" width="120" x="454.5" y="334"/><text fill="#000000" font-family="sans-serif" font-size="12" lengthAdjust="spacingAndGlyphs" textLength="114" x="457.5" y="350.1387">SecuritiesQuantity</text></a><!--class SecuritiesTrade--><a target="_top" xlink:actuate="onRequest" xlink:href="../SecuritiesTrade.html" xlink:show="new" xlink:title="Specifies trades linked to securities operations such as the exchange of securities, the lending of securities and the transactions related to investment funds." xlink:type="simple"><rect fill="#EEEEEE" filter="url(#f35p9ic4jo0i5)" height="23.9688" id="SecuritiesTrade" style="stroke: #A80036; stroke-width: 1.5;" width="104" x="539" y="522"/><rect fill="#EEEEEE" height="23.9688" style="stroke: #A80036; stroke-width: 1.5;" width="104" x="539" y="522"/><text fill="#000000" font-family="sans-serif" font-size="12" lengthAdjust="spacingAndGlyphs" textLength="98" x="542" y="538.1387">SecuritiesTrade</text></a><!--class PaymentObligation--><a target="_top" xlink:actuate="onRequest" xlink:href="../PaymentObligation.html" xlink:show="new" xlink:title="Obligation for the debtor to pay the creditor an amount of cash." xlink:type="simple"><rect fill="#EEEEEE" filter="url(#f35p9ic4jo0i5)" height="23.9688" id="PaymentObligation" style="stroke: #A80036; stroke-width: 1.5;" width="123" x="665.75" y="420"/><rect fill="#EEEEEE" height="23.9688" style="stroke: #A80036; stroke-width: 1.5;" width="123" x="665.75" y="420"/><text fill="#000000" font-family="sans-serif" font-size="12" lengthAdjust="spacingAndGlyphs" textLength="117" x="668.75" y="436.1387">PaymentObligation</text></a><!--class SecuritiesDeliveryObligation--><a target="_top" xlink:actuate="onRequest" xlink:href="../SecuritiesDeliveryObligation.html" xlink:show="new" xlink:title="Obligation for one party to deliver securities to another party." xlink:type="simple"><rect fill="#EEEEEE" filter="url(#f35p9ic4jo0i5)" height="23.9688" id="SecuritiesDeliveryObligation" style="stroke: #A80036; stroke-width: 1.5;" width="179" x="609.75" y="334"/><rect fill="#EEEEEE" height="23.9688" style="stroke: #A80036; stroke-width: 1.5;" width="179" x="609.75" y="334"/><text fill="#000000" font-family="sans-serif" font-size="12" lengthAdjust="spacingAndGlyphs" textLength="173" x="612.75" y="350.1387">SecuritiesDeliveryObligation</text></a><!--link SecuritiesTradeExecution to InvestmentFundOrderExecution--><path d="M190.186,169.624 C194.084,193.177 197.957,216.571 200.156,229.861 " fill="none" id="SecuritiesTradeExecution-InvestmentFundOrderExecution" style="stroke: #A80036; stroke-width: 1.0;"/><polygon fill="none" points="183.228,170.455,186.869,149.581,197.041,168.169,183.228,170.455" style="stroke: #A80036; stroke-width: 1.0;"/><!--link SecuritiesPricing to SecuritiesSettlement--><!--link SecuritiesQuantity to SecuritiesPricing--><!--link SecuritiesTrade to SecuritiesQuantity--><!--link SecuritiesQuantity to SecuritiesTrade--><path d="M520.469,358.018 C525.205,366.205 531.702,377.692 537,388 C556.103,425.165 561.312,434.518 575,474 C579.944,488.2609 584.333,504.8857 587.258,516.8467 " fill="none" id="SecuritiesQuantity-SecuritiesTrade" style="stroke: #A80036; stroke-width: 1.0;"/><polygon fill="#A80036" points="588.495,521.9888,590.2783,512.3027,587.3252,517.1276,582.5004,514.1744,588.495,521.9888" style="stroke: #A80036; stroke-width: 1.0;"/><text fill="#000000" font-family="sans-serif" font-size="13" lengthAdjust="spacingAndGlyphs" textLength="36" x="565" y="436.0669">Trade</text><text fill="#000000" font-family="sans-serif" font-size="13" lengthAdjust="spacingAndGlyphs" textLength="24" x="558.1652" y="511.0332">0..1</text><!--link PaymentObligation to SecuritiesTrade--><!--link SecuritiesDeliveryObligation to PaymentObligation--><!--link SecuritiesTradeExecution to SecuritiesSettlement--><path d="M275.923,149.581 C327.075,177.57 385.62,209.603 418.051,227.349 " fill="none" id="SecuritiesTradeExecution-SecuritiesSettlement" style="stroke: #A80036; stroke-width: 1.0;"/><polygon fill="#A80036" points="422.642,229.861,416.6671,222.0316,418.2558,227.4607,412.8266,229.0495,422.642,229.861" style="stroke: #A80036; stroke-width: 1.0;"/><text fill="#000000" font-family="sans-serif" font-size="13" lengthAdjust="spacingAndGlyphs" textLength="135" x="359" y="193.0669">SecuritiesSettlement</text><text fill="#000000" font-family="sans-serif" font-size="13" lengthAdjust="spacingAndGlyphs" textLength="7" x="406.0111" y="218.8614">*</text><!--link SecuritiesTradeExecution to SecuritiesPricing--><path d="M318.024,105.654 C533.26,121.935 925.093,157.845 967,206 C1075.34,330.495 832.181,348.834 805,358 C696.854,394.467 564.713,414.849 489.36,424.322 " fill="none" id="SecuritiesTradeExecution-SecuritiesPricing" style="stroke: #A80036; stroke-width: 1.0;"/><polygon fill="#A80036" points="484.034,424.986,493.4597,427.8418,488.9956,424.3674,492.47,419.9033,484.034,424.986" style="stroke: #A80036; stroke-width: 1.0;"/><text fill="#000000" font-family="sans-serif" font-size="13" lengthAdjust="spacingAndGlyphs" textLength="60" x="990" y="299.0669">DealPrice</text><text fill="#000000" font-family="sans-serif" font-size="13" lengthAdjust="spacingAndGlyphs" textLength="8" x="491.9667" y="418.9792">1</text><!--link SecuritiesTradeExecution to SecuritiesQuantity--><path d="M318.13,116.213 C377.961,128.784 446.987,148.739 504,180 C559.972,210.691 551.611,250.047 609,278 C629.627,288.047 645.086,268.564 660,286 C665.2,292.079 664.832,297.624 660,304 C649.769,317.499 612.939,327.786 578.833,334.68 " fill="none" id="SecuritiesTradeExecution-SecuritiesQuantity" style="stroke: #A80036; stroke-width: 1.0;"/><polygon fill="#A80036" points="573.824,335.672,583.4303,337.8444,578.7284,334.6991,581.8737,329.9973,573.824,335.672" style="stroke: #A80036; stroke-width: 1.0;"/><text fill="#000000" font-family="sans-serif" font-size="13" lengthAdjust="spacingAndGlyphs" textLength="149" x="610" y="246.0669">ExecutedTradeQuantity</text><text fill="#000000" font-family="sans-serif" font-size="13" lengthAdjust="spacingAndGlyphs" textLength="7" x="582.6586" y="329.1027">*</text><!--link SecuritiesTradeExecution to SecuritiesTrade--><path d="M318.1,100.53 C609.912,111.837 1256,147.437 1256,241 C1256,241 1256,241 1256,433 C1256,494.2125 809.694,522.2445 648.336,530.3789 " fill="none" id="SecuritiesTradeExecution-SecuritiesTrade" style="stroke: #A80036; stroke-width: 1.0;"/><polygon fill="#A80036" points="643.181,530.6369,652.3697,534.1819,648.1747,530.3869,651.9697,526.1919,643.181,530.6369" style="stroke: #A80036; stroke-width: 1.0;"/><text fill="#000000" font-family="sans-serif" font-size="13" lengthAdjust="spacingAndGlyphs" textLength="84" x="1257" y="350.0669">RelatedTrade</text><text fill="#000000" font-family="sans-serif" font-size="13" lengthAdjust="spacingAndGlyphs" textLength="8" x="651.0815" y="525.0471">1</text><!--link SecuritiesTradeExecution to PaymentObligation--><path d="M318.403,95.756 C528.234,98.422 909.458,115.949 1007,206 C1043.38,239.589 1088.09,263.222 1060,304 C1000.15,390.88 872.303,418.367 793.587,427.037 " fill="none" id="SecuritiesTradeExecution-PaymentObligation" style="stroke: #A80036; stroke-width: 1.0;"/><polygon fill="#A80036" points="788.474,427.581,797.8465,430.607,793.446,427.0524,797.0007,422.6519,788.474,427.581" style="stroke: #A80036; stroke-width: 1.0;"/><text fill="#000000" font-family="sans-serif" font-size="13" lengthAdjust="spacingAndGlyphs" textLength="121" x="1069" y="299.0669">PaymentObligation</text><text fill="#000000" font-family="sans-serif" font-size="13" lengthAdjust="spacingAndGlyphs" textLength="7" x="796.7668" y="422.0032">*</text><!--link SecuritiesTradeExecution to SecuritiesDeliveryObligation--><path d="M318.335,102.278 C473.608,112.513 709.334,138.933 765,206 C785.438,230.623 777.135,248.39 765,278 C755.945,300.096 735.695,318.812 719.997,330.799 " fill="none" id="SecuritiesTradeExecution-SecuritiesDeliveryObligation" style="stroke: #A80036; stroke-width: 1.0;"/><polygon fill="#A80036" points="715.703,333.999,725.3097,331.8286,719.7122,331.0114,720.5295,325.4139,715.703,333.999" style="stroke: #A80036; stroke-width: 1.0;"/><text fill="#000000" font-family="sans-serif" font-size="13" lengthAdjust="spacingAndGlyphs" textLength="178" x="779" y="246.0669">SecuritiesDeliveryObligation</text><text fill="#000000" font-family="sans-serif" font-size="13" lengthAdjust="spacingAndGlyphs" textLength="7" x="711.8118" y="323.0469">*</text><!--link InvestmentFundOrderExecution to SecuritiesQuantity--><path d="M218.041,254.221 C238.467,267.987 275.287,291.083 310,304 C354.877,320.699 407.971,331.097 448.743,337.243 " fill="none" id="InvestmentFundOrderExecution-SecuritiesQuantity" style="stroke: #A80036; stroke-width: 1.0;"/><polygon fill="#A80036" points="454.158,338.045,445.8415,332.769,449.212,337.3121,444.6689,340.6826,454.158,338.045" style="stroke: #A80036; stroke-width: 1.0;"/><text fill="#000000" font-family="sans-serif" font-size="13" lengthAdjust="spacingAndGlyphs" textLength="85" x="311" y="299.0669">UnitsNumber</text><text fill="#000000" font-family="sans-serif" font-size="13" lengthAdjust="spacingAndGlyphs" textLength="8" x="438.4196" y="332.4234">1</text><!--link InvestmentFundOrderExecution to SecuritiesPricing--><path d="M204.372,254.054 C209.735,276.547 224.83,328.044 256,358 C288.392,389.13 336.044,407.899 373.139,418.594 " fill="none" id="InvestmentFundOrderExecution-SecuritiesPricing" style="stroke: #A80036; stroke-width: 1.0;"/><polygon fill="#A80036" points="378.069,419.986,370.4941,413.6915,373.257,418.6277,368.3208,421.3906,378.069,419.986" style="stroke: #A80036; stroke-width: 1.0;"/><text fill="#000000" font-family="sans-serif" font-size="13" lengthAdjust="spacingAndGlyphs" textLength="126" x="257" y="350.0669">ExecutedTradePrice</text><text fill="#000000" font-family="sans-serif" font-size="13" lengthAdjust="spacingAndGlyphs" textLength="8" x="358.0576" y="412.0304">1</text><!--link InvestmentFundOrderExecution to SecuritiesPricing--><path d="M184.253,254.125 C153.028,275.062 94.1817,321.498 123,358 C153.011,396.013 288.309,416.393 368.605,425.327 " fill="none" id="InvestmentFundOrderExecution-SecuritiesPricing" style="stroke: #A80036; stroke-width: 1.0;"/><polygon fill="#A80036" points="373.812,425.899,365.3024,420.9406,368.8419,425.3533,364.4292,428.8928,373.812,425.899" style="stroke: #A80036; stroke-width: 1.0;"/><text fill="#000000" font-family="sans-serif" font-size="13" lengthAdjust="spacingAndGlyphs" textLength="103" x="124" y="350.0669">InformativePrice</text><text fill="#000000" font-family="sans-serif" font-size="13" lengthAdjust="spacingAndGlyphs" textLength="8" x="357.8528" y="438.1371">1</text><!--link SecuritiesSettlement to SecuritiesQuantity--><path d="M478.319,254.172 C493.334,260.871 509.347,271.065 518,286 C525.476,298.903 523.18,316.158 519.795,328.672 " fill="none" id="SecuritiesSettlement-SecuritiesQuantity" style="stroke: #A80036; stroke-width: 1.0;"/><polygon fill="#A80036" points="518.303,333.719,524.6901,326.222,519.7203,328.9241,517.0183,323.9543,518.303,333.719" style="stroke: #A80036; stroke-width: 1.0;"/><text fill="#000000" font-family="sans-serif" font-size="13" lengthAdjust="spacingAndGlyphs" textLength="126" x="524" y="299.0669">SettlementQuantity</text><text fill="#000000" font-family="sans-serif" font-size="13" lengthAdjust="spacingAndGlyphs" textLength="8" x="508.9065" y="322.9294">1</text><!--link SecuritiesSettlement to SecuritiesQuantity--><path d="M429.139,254.155 C415.314,266.666 397.648,287.381 409,304 C418.553,317.986 433.648,327.201 449.445,333.273 " fill="none" id="SecuritiesSettlement-SecuritiesQuantity" style="stroke: #A80036; stroke-width: 1.0;"/><polygon fill="#A80036" points="454.365,335.058,447.2695,328.2276,449.6649,333.3523,444.5403,335.7477,454.365,335.058" style="stroke: #A80036; stroke-width: 1.0;"/><text fill="#000000" font-family="sans-serif" font-size="13" lengthAdjust="spacingAndGlyphs" textLength="98" x="410" y="299.0669">TurnedQuantity</text><text fill="#000000" font-family="sans-serif" font-size="13" lengthAdjust="spacingAndGlyphs" textLength="8" x="438.577" y="325.6799">1</text><!--link SecuritiesPricing to SecuritiesTrade--><path d="M419.512,444.092 C409.811,456.835 397.651,477.81 409,492 C424.469,511.341 486.404,522.2054 533.77,527.8187 " fill="none" id="SecuritiesPricing-SecuritiesTrade" style="stroke: #A80036; stroke-width: 1.0;"/><polygon fill="#A80036" points="538.886,528.4116,530.4064,523.4019,533.9193,527.8359,529.4853,531.3487,538.886,528.4116" style="stroke: #A80036; stroke-width: 1.0;"/><text fill="#000000" font-family="sans-serif" font-size="13" lengthAdjust="spacingAndGlyphs" textLength="99" x="410" y="487.0669">SecuritiesTrade</text><text fill="#000000" font-family="sans-serif" font-size="13" lengthAdjust="spacingAndGlyphs" textLength="24" x="507.1711" y="523.0341">0..1</text></g></svg>