<?xml version="1.0" encoding="UTF-8" standalone="no"?><svg xmlns="http://www.w3.org/2000/svg" xmlns:xlink="http://www.w3.org/1999/xlink" contentScriptType="application/ecmascript" contentStyleType="text/css" height="840px" preserveAspectRatio="none" style="width:2002px;height:840px;" version="1.1" viewBox="0 0 2002 840" width="2002px" zoomAndPan="magnify"><defs><filter height="300%" id="f1b3919xdv264x" width="300%" x="-1" y="-1"><feGaussianBlur result="blurOut" stdDeviation="2.0"/><feColorMatrix in="blurOut" result="blurOut2" type="matrix" values="0 0 0 0 0 0 0 0 0 0 0 0 0 0 0 0 0 0 .4 0"/><feOffset dx="4.0" dy="4.0" in="blurOut2" result="blurOut3"/><feBlend in="SourceGraphic" in2="blurOut3" mode="normal"/></filter></defs><g><!--cluster ##7865--><!--cluster ##7868--><!--class SecuritiesConversion--><a target="_top" xlink:actuate="onRequest" xlink:href="../SecuritiesConversion.html" xlink:show="new" xlink:title="Conversion exchange of securities, generally convertible bonds or preferred equities, into another form of securities, usually common equities." xlink:type="simple"><rect fill="#FEFECE" filter="url(#f1b3919xdv264x)" height="224.0391" id="SecuritiesConversion" style="stroke: #A80036; stroke-width: 1.5;" width="340" x="1062" y="40"/><rect fill="#FEFECE" height="23.9688" style="stroke: #A80036; stroke-width: 1.5;" width="340" x="1062" y="40"/><text fill="#000000" font-family="sans-serif" font-size="12" lengthAdjust="spacingAndGlyphs" textLength="131" x="1166.5" y="56.1387">SecuritiesConversion</text><line style="stroke: #A80036; stroke-width: 1.5;" x1="1063" x2="1401" y1="63.9688" y2="63.9688"/><ellipse cx="1073" cy="75.8711" fill="#84BE84" rx="3" ry="3" style="stroke: #038048; stroke-width: 1.0;"/><text fill="#000000" font-family="sans-serif" font-size="11" lengthAdjust="spacingAndGlyphs" textLength="90" x="1082" y="78.1792">ConversionDate</text><text fill="#000000" font-family="sans-serif" font-size="11" font-style="italic" lengthAdjust="spacingAndGlyphs" textLength="81" x="1176" y="78.1792">(ISODateTime)</text><ellipse cx="1073" cy="88.6758" fill="#84BE84" rx="3" ry="3" style="stroke: #038048; stroke-width: 1.0;"/><text fill="#000000" font-family="sans-serif" font-size="11" lengthAdjust="spacingAndGlyphs" textLength="91" x="1082" y="90.9839">ConversionType</text><text fill="#000000" font-family="sans-serif" font-size="11" font-style="italic" lengthAdjust="spacingAndGlyphs" textLength="129" x="1177" y="90.9839">(ConversionTypeCode)</text><ellipse cx="1073" cy="101.4805" fill="#84BE84" rx="3" ry="3" style="stroke: #038048; stroke-width: 1.0;"/><text fill="#000000" font-family="sans-serif" font-size="11" lengthAdjust="spacingAndGlyphs" textLength="137" x="1082" y="103.7886">BusinessDayConvention</text><text fill="#000000" font-family="sans-serif" font-size="11" font-style="italic" lengthAdjust="spacingAndGlyphs" textLength="173" x="1223" y="103.7886">(BusinessDayConventionCode)</text><ellipse cx="1073" cy="114.2852" fill="#84BE84" rx="3" ry="3" style="stroke: #038048; stroke-width: 1.0;"/><text fill="#000000" font-family="sans-serif" font-size="11" lengthAdjust="spacingAndGlyphs" textLength="102" x="1082" y="116.5933">ConversionChoice</text><text fill="#000000" font-family="sans-serif" font-size="11" font-style="italic" lengthAdjust="spacingAndGlyphs" textLength="75" x="1188" y="116.5933">(ChoiceCode)</text><ellipse cx="1073" cy="127.0898" fill="#84BE84" rx="3" ry="3" style="stroke: #038048; stroke-width: 1.0;"/><text fill="#000000" font-family="sans-serif" font-size="11" lengthAdjust="spacingAndGlyphs" textLength="172" x="1082" y="129.3979">ConversionFixedExchangeRate</text><text fill="#000000" font-family="sans-serif" font-size="11" font-style="italic" lengthAdjust="spacingAndGlyphs" textLength="85" x="1258" y="129.3979">(BaseOneRate)</text><ellipse cx="1073" cy="139.8945" fill="#84BE84" rx="3" ry="3" style="stroke: #038048; stroke-width: 1.0;"/><text fill="#000000" font-family="sans-serif" font-size="11" lengthAdjust="spacingAndGlyphs" textLength="145" x="1082" y="142.2026">ConversionMarginAmount</text><text fill="#000000" font-family="sans-serif" font-size="11" font-style="italic" lengthAdjust="spacingAndGlyphs" textLength="126" x="1231" y="142.2026">(CurrencyAndAmount)</text><ellipse cx="1073" cy="152.6992" fill="#84BE84" rx="3" ry="3" style="stroke: #038048; stroke-width: 1.0;"/><text fill="#000000" font-family="sans-serif" font-size="11" lengthAdjust="spacingAndGlyphs" textLength="101" x="1082" y="155.0073">ConversionOption</text><text fill="#000000" font-family="sans-serif" font-size="11" font-style="italic" lengthAdjust="spacingAndGlyphs" textLength="166" x="1187" y="155.0073">(CorporateActionOptionCode)</text><ellipse cx="1073" cy="165.5039" fill="#84BE84" rx="3" ry="3" style="stroke: #038048; stroke-width: 1.0;"/><text fill="#000000" font-family="sans-serif" font-size="11" lengthAdjust="spacingAndGlyphs" textLength="156" x="1082" y="167.812">ConversionQuotedCurrency</text><text fill="#000000" font-family="sans-serif" font-size="11" font-style="italic" lengthAdjust="spacingAndGlyphs" textLength="89" x="1242" y="167.812">(CurrencyCode)</text><ellipse cx="1073" cy="178.3086" fill="#84BE84" rx="3" ry="3" style="stroke: #038048; stroke-width: 1.0;"/><text fill="#000000" font-family="sans-serif" font-size="11" lengthAdjust="spacingAndGlyphs" textLength="87" x="1082" y="180.6167">FinancialCenter</text><text fill="#000000" font-family="sans-serif" font-size="11" font-style="italic" lengthAdjust="spacingAndGlyphs" textLength="124" x="1173" y="180.6167">(FinancialCenterCode)</text><ellipse cx="1073" cy="191.1133" fill="#84BE84" rx="3" ry="3" style="stroke: #038048; stroke-width: 1.0;"/><text fill="#000000" font-family="sans-serif" font-size="11" lengthAdjust="spacingAndGlyphs" textLength="114" x="1082" y="193.4214">MinimumNoticeDays</text><text fill="#000000" font-family="sans-serif" font-size="11" font-style="italic" lengthAdjust="spacingAndGlyphs" textLength="53" x="1200" y="193.4214">(Number)</text><ellipse cx="1073" cy="203.918" fill="#84BE84" rx="3" ry="3" style="stroke: #038048; stroke-width: 1.0;"/><text fill="#000000" font-family="sans-serif" font-size="11" lengthAdjust="spacingAndGlyphs" textLength="98" x="1082" y="206.2261">NoticePeriodType</text><text fill="#000000" font-family="sans-serif" font-size="11" font-style="italic" lengthAdjust="spacingAndGlyphs" textLength="136" x="1184" y="206.2261">(NoticePeriodTypeCode)</text><ellipse cx="1073" cy="216.7227" fill="#84BE84" rx="3" ry="3" style="stroke: #038048; stroke-width: 1.0;"/><text fill="#000000" font-family="sans-serif" font-size="11" lengthAdjust="spacingAndGlyphs" textLength="190" x="1082" y="219.0308">ProtectionAgainstDilutionIndicator</text><text fill="#000000" font-family="sans-serif" font-size="11" font-style="italic" lengthAdjust="spacingAndGlyphs" textLength="92" x="1276" y="219.0308">(YesNoIndicator)</text><ellipse cx="1073" cy="229.5273" fill="#84BE84" rx="3" ry="3" style="stroke: #038048; stroke-width: 1.0;"/><text fill="#000000" font-family="sans-serif" font-size="11" lengthAdjust="spacingAndGlyphs" textLength="159" x="1082" y="231.8354">ReverseConversionIndicator</text><text fill="#000000" font-family="sans-serif" font-size="11" font-style="italic" lengthAdjust="spacingAndGlyphs" textLength="92" x="1245" y="231.8354">(YesNoIndicator)</text><ellipse cx="1073" cy="242.332" fill="#84BE84" rx="3" ry="3" style="stroke: #038048; stroke-width: 1.0;"/><text fill="#000000" font-family="sans-serif" font-size="11" lengthAdjust="spacingAndGlyphs" textLength="56" x="1082" y="244.6401">PartyType</text><text fill="#000000" font-family="sans-serif" font-size="11" font-style="italic" lengthAdjust="spacingAndGlyphs" textLength="95" x="1142" y="244.6401">(PartyTypeCode)</text><ellipse cx="1073" cy="255.1367" fill="#84BE84" rx="3" ry="3" style="stroke: #038048; stroke-width: 1.0;"/><text fill="#000000" font-family="sans-serif" font-size="11" lengthAdjust="spacingAndGlyphs" textLength="71" x="1082" y="257.4448">ContractSize</text><text fill="#000000" font-family="sans-serif" font-size="11" font-style="italic" lengthAdjust="spacingAndGlyphs" textLength="85" x="1157" y="257.4448">(BaseOneRate)</text></a><!--class SecuritiesPricing--><a target="_top" xlink:actuate="onRequest" xlink:href="../SecuritiesPricing.html" xlink:show="new" xlink:title="Characteristics related to the price of the security." xlink:type="simple"><rect fill="#EEEEEE" filter="url(#f1b3919xdv264x)" height="23.9688" id="SecuritiesPricing" style="stroke: #A80036; stroke-width: 1.5;" width="110" x="52" y="140"/><rect fill="#EEEEEE" height="23.9688" style="stroke: #A80036; stroke-width: 1.5;" width="110" x="52" y="140"/><text fill="#000000" font-family="sans-serif" font-size="12" lengthAdjust="spacingAndGlyphs" textLength="104" x="55" y="156.1387">SecuritiesPricing</text></a><!--class SecuritiesQuantity--><a target="_top" xlink:actuate="onRequest" xlink:href="../SecuritiesQuantity.html" xlink:show="new" xlink:title="Quantity of a security." xlink:type="simple"><rect fill="#EEEEEE" filter="url(#f1b3919xdv264x)" height="23.9688" id="SecuritiesQuantity" style="stroke: #A80036; stroke-width: 1.5;" width="120" x="255.5" y="446"/><rect fill="#EEEEEE" height="23.9688" style="stroke: #A80036; stroke-width: 1.5;" width="120" x="255.5" y="446"/><text fill="#000000" font-family="sans-serif" font-size="12" lengthAdjust="spacingAndGlyphs" textLength="114" x="258.5" y="462.1387">SecuritiesQuantity</text></a><!--class DateTimePeriod--><a target="_top" xlink:actuate="onRequest" xlink:href="../DateTimePeriod.html" xlink:show="new" xlink:title="Time span defined by a start date and time, and an end date and time." xlink:type="simple"><rect fill="#EEEEEE" filter="url(#f1b3919xdv264x)" height="23.9688" id="DateTimePeriod" style="stroke: #A80036; stroke-width: 1.5;" width="105" x="139.75" y="344"/><rect fill="#EEEEEE" height="23.9688" style="stroke: #A80036; stroke-width: 1.5;" width="105" x="139.75" y="344"/><text fill="#000000" font-family="sans-serif" font-size="12" lengthAdjust="spacingAndGlyphs" textLength="99" x="142.75" y="360.1387">DateTimePeriod</text></a><!--class UnderlyingRatio--><a target="_top" xlink:actuate="onRequest" xlink:href="../UnderlyingRatio.html" xlink:show="new" xlink:title="Related financial instrument into which the security can be converted." xlink:type="simple"><rect fill="#EEEEEE" filter="url(#f1b3919xdv264x)" height="23.9688" id="UnderlyingRatio" style="stroke: #A80036; stroke-width: 1.5;" width="104" x="247" y="806"/><rect fill="#EEEEEE" height="23.9688" style="stroke: #A80036; stroke-width: 1.5;" width="104" x="247" y="806"/><text fill="#000000" font-family="sans-serif" font-size="12" lengthAdjust="spacingAndGlyphs" textLength="98" x="250" y="822.1387">UnderlyingRatio</text></a><!--class CurrencyExchange--><a target="_top" xlink:actuate="onRequest" xlink:href="../CurrencyExchange.html" xlink:show="new" xlink:title="Information needed to process a currency exchange or conversion." xlink:type="simple"><rect fill="#EEEEEE" filter="url(#f1b3919xdv264x)" height="23.9688" id="CurrencyExchange" style="stroke: #A80036; stroke-width: 1.5;" width="122" x="365" y="720"/><rect fill="#EEEEEE" height="23.9688" style="stroke: #A80036; stroke-width: 1.5;" width="122" x="365" y="720"/><text fill="#000000" font-family="sans-serif" font-size="12" lengthAdjust="spacingAndGlyphs" textLength="116" x="368" y="736.1387">CurrencyExchange</text></a><!--class Option--><a target="_top" xlink:actuate="onRequest" xlink:href="../Option.html" xlink:show="new" xlink:title="Contracts which grant to the holder either the privilege to purchase or the privilege to sell the assets specified at a predetermined price or formula at or within a time in the future." xlink:type="simple"><rect fill="#EEEEEE" filter="url(#f1b3919xdv264x)" height="23.9688" id="Option" style="stroke: #A80036; stroke-width: 1.5;" width="47" x="439.75" y="634"/><rect fill="#EEEEEE" height="23.9688" style="stroke: #A80036; stroke-width: 1.5;" width="47" x="439.75" y="634"/><text fill="#000000" font-family="sans-serif" font-size="12" lengthAdjust="spacingAndGlyphs" textLength="41" x="442.75" y="650.1387">Option</text></a><!--class Security--><a target="_top" xlink:actuate="onRequest" xlink:href="../Security.html" xlink:show="new" xlink:title="Financial instruments representing a sum of rights of the investor vis-a-vis the issuer." xlink:type="simple"><rect fill="#EEEEEE" filter="url(#f1b3919xdv264x)" height="23.9688" id="Security" style="stroke: #A80036; stroke-width: 1.5;" width="56" x="312.5" y="548"/><rect fill="#EEEEEE" height="23.9688" style="stroke: #A80036; stroke-width: 1.5;" width="56" x="312.5" y="548"/><text fill="#000000" font-family="sans-serif" font-size="12" lengthAdjust="spacingAndGlyphs" textLength="50" x="315.5" y="564.1387">Security</text></a><!--link SecuritiesQuantity to SecuritiesPricing--><!--link DateTimePeriod to SecuritiesQuantity--><!--link UnderlyingRatio to DateTimePeriod--><!--link CurrencyExchange to UnderlyingRatio--><!--link Option to CurrencyExchange--><!--link Security to Option--><!--link SecuritiesConversion to SecuritiesPricing--><path d="M1061.85,152 C805.928,152 334.139,152 167.348,152 " fill="none" id="SecuritiesConversion-SecuritiesPricing" style="stroke: #A80036; stroke-width: 1.0;"/><polygon fill="#A80036" points="162.023,152,171.023,156,167.023,152,171.023,148,162.023,152" style="stroke: #A80036; stroke-width: 1.0;"/><text fill="#000000" font-family="sans-serif" font-size="13" lengthAdjust="spacingAndGlyphs" textLength="102" x="560.5" y="144.0669">ConversionPrice</text><text fill="#000000" font-family="sans-serif" font-size="13" lengthAdjust="spacingAndGlyphs" textLength="8" x="169.9542" y="146.9357">1</text><!--link SecuritiesConversion to SecuritiesQuantity--><path d="M1061.97,243.209 C937.948,304.142 763.779,379.828 601,416 C525.9,432.688 438.133,444.096 379.831,450.561 " fill="none" id="SecuritiesConversion-SecuritiesQuantity" style="stroke: #A80036; stroke-width: 1.0;"/><polygon fill="#A80036" points="374.634,451.133,384.0177,454.1241,379.604,450.5859,383.1422,446.1722,374.634,451.133" style="stroke: #A80036; stroke-width: 1.0;"/><text fill="#000000" font-family="sans-serif" font-size="13" lengthAdjust="spacingAndGlyphs" textLength="185" x="831" y="360.0669">MinimumExercisableQuantity</text><text fill="#000000" font-family="sans-serif" font-size="13" lengthAdjust="spacingAndGlyphs" textLength="8" x="383.5122" y="445.0504">1</text><!--link SecuritiesConversion to SecuritiesQuantity--><path d="M1151.58,264.121 C1117.36,303.278 1074.19,343.586 1026,368 C913.519,424.987 533.332,447.53 379.954,454.445 " fill="none" id="SecuritiesConversion-SecuritiesQuantity" style="stroke: #A80036; stroke-width: 1.0;"/><polygon fill="#A80036" points="374.595,454.684,383.7654,458.2762,379.59,454.4597,383.4065,450.2843,374.595,454.684" style="stroke: #A80036; stroke-width: 1.0;"/><text fill="#000000" font-family="sans-serif" font-size="13" lengthAdjust="spacingAndGlyphs" textLength="234" x="1066" y="360.0669">MinimumExercisableMultipleQuantity</text><text fill="#000000" font-family="sans-serif" font-size="13" lengthAdjust="spacingAndGlyphs" textLength="8" x="383.4677" y="467.3508">1</text><!--link SecuritiesConversion to SecuritiesQuantity--><path d="M1313.85,264.064 C1330.42,300.371 1335.89,338.821 1310,368 C1248.25,437.587 590.952,453.048 379.867,456.229 " fill="none" id="SecuritiesConversion-SecuritiesQuantity" style="stroke: #A80036; stroke-width: 1.0;"/><polygon fill="#A80036" points="374.66,456.307,383.7184,460.1729,379.6594,456.2327,383.5996,452.1737,374.66,456.307" style="stroke: #A80036; stroke-width: 1.0;"/><text fill="#000000" font-family="sans-serif" font-size="13" lengthAdjust="spacingAndGlyphs" textLength="189" x="1325" y="360.0669">MaximumExercisableQuantity</text><text fill="#000000" font-family="sans-serif" font-size="13" lengthAdjust="spacingAndGlyphs" textLength="8" x="383.6005" y="449.0246">1</text><!--link SecuritiesConversion to SecuritiesQuantity--><path d="M1061.77,183.399 C932.95,208.322 752.441,247.365 598,296 C577.847,302.346 574.394,308.477 554,314 C508.074,326.436 377.187,311.973 342,344 C314.819,368.74 312.653,415.512 313.662,440.417 " fill="none" id="SecuritiesConversion-SecuritiesQuantity" style="stroke: #A80036; stroke-width: 1.0;"/><polygon fill="#A80036" points="313.936,445.673,317.4626,436.4772,313.676,440.6798,309.4734,436.8932,313.936,445.673" style="stroke: #A80036; stroke-width: 1.0;"/><text fill="#000000" font-family="sans-serif" font-size="13" lengthAdjust="spacingAndGlyphs" textLength="187" x="343" y="360.0669">ConversionRatioDenominator</text><text fill="#000000" font-family="sans-serif" font-size="13" lengthAdjust="spacingAndGlyphs" textLength="8" x="302.7617" y="434.8681">1</text><!--link SecuritiesConversion to SecuritiesQuantity--><path d="M1061.95,195.776 C930.52,230.645 744.979,283.837 587,344 C563.589,352.916 558.961,357.984 536,368 C470.29,396.664 392.255,427.311 348.704,444.116 " fill="none" id="SecuritiesConversion-SecuritiesQuantity" style="stroke: #A80036; stroke-width: 1.0;"/><polygon fill="#A80036" points="343.825,445.996,353.6614,446.4911,348.4904,444.1976,350.7839,439.0265,343.825,445.996" style="stroke: #A80036; stroke-width: 1.0;"/><text fill="#000000" font-family="sans-serif" font-size="13" lengthAdjust="spacingAndGlyphs" textLength="173" x="588" y="360.0669">ConversionRatioNumerator</text><text fill="#000000" font-family="sans-serif" font-size="13" lengthAdjust="spacingAndGlyphs" textLength="8" x="342.843" y="435.0428">1</text><!--link SecuritiesConversion to DateTimePeriod--><path d="M1061.66,187.749 C914.252,217.052 695.148,258.768 503,288 C473.352,292.51 465.435,290.261 436,296 C406.157,301.818 399.487,306.586 370,314 C329.108,324.281 282.677,334.943 247.491,342.816 " fill="none" id="SecuritiesConversion-DateTimePeriod" style="stroke: #A80036; stroke-width: 1.0;"/><polygon fill="#A80036" points="242.383,343.957,252.0385,345.8989,247.2628,342.8671,250.2946,338.0913,242.383,343.957" style="stroke: #A80036; stroke-width: 1.0;"/><text fill="#000000" font-family="sans-serif" font-size="13" lengthAdjust="spacingAndGlyphs" textLength="111" x="437" y="309.0669">ConversionPeriod</text><text fill="#000000" font-family="sans-serif" font-size="13" lengthAdjust="spacingAndGlyphs" textLength="8" x="248.8975" y="332.9904">1</text><!--link SecuritiesConversion to UnderlyingRatio--><path d="M1402.44,166.394 C1616.75,188.032 1957,240.426 1957,355 C1957,355 1957,355 1957,733 C1957,814.929 648.655,817.5851 356.42,817.1565 " fill="none" id="SecuritiesConversion-UnderlyingRatio" style="stroke: #A80036; stroke-width: 1.0;"/><polygon fill="#A80036" points="351.359,817.1486,360.3521,821.164,356.359,817.1572,360.3658,813.164,351.359,817.1486" style="stroke: #A80036; stroke-width: 1.0;"/><text fill="#000000" font-family="sans-serif" font-size="13" lengthAdjust="spacingAndGlyphs" textLength="32" x="1958" y="564.0669">Ratio</text><text fill="#000000" font-family="sans-serif" font-size="13" lengthAdjust="spacingAndGlyphs" textLength="7" x="358.8651" y="811.9699">*</text><!--link SecuritiesConversion to CurrencyExchange--><path d="M1402.2,182.4 C1562.11,214.999 1777,273.895 1777,355 C1777,355 1777,355 1777,647 C1777,712.127 763.694,727.451 492.228,730.388 " fill="none" id="SecuritiesConversion-CurrencyExchange" style="stroke: #A80036; stroke-width: 1.0;"/><polygon fill="#A80036" points="487.117,730.443,496.1599,734.3451,492.1167,730.3887,496.073,726.3455,487.117,730.443" style="stroke: #A80036; stroke-width: 1.0;"/><text fill="#000000" font-family="sans-serif" font-size="13" lengthAdjust="spacingAndGlyphs" textLength="154" x="1778" y="513.0669">ConversionUnitCurrency</text><text fill="#000000" font-family="sans-serif" font-size="13" lengthAdjust="spacingAndGlyphs" textLength="8" x="495.0531" y="725.2942">1</text><!--link SecuritiesConversion to Option--><path d="M1402.34,194.924 C1545.64,238.384 1715.05,314.249 1633,416 C1483.42,601.49 656.445,638.564 491.592,644.145 " fill="none" id="SecuritiesConversion-Option" style="stroke: #A80036; stroke-width: 1.0;"/><polygon fill="#A80036" points="486.457,644.316,495.5857,648.0129,491.4542,644.1489,495.3183,640.0174,486.457,644.316" style="stroke: #A80036; stroke-width: 1.0;"/><text fill="#000000" font-family="sans-serif" font-size="13" lengthAdjust="spacingAndGlyphs" textLength="90" x="1600" y="462.0669">RelatedOption</text><text fill="#000000" font-family="sans-serif" font-size="13" lengthAdjust="spacingAndGlyphs" textLength="24" x="494.5986" y="638.0468">0..1</text><!--link SecuritiesConversion to Security--><path d="M1402.2,208.003 C1494.42,246.732 1579.26,303.116 1524,368 C1369.84,549.017 548.411,559.069 372.98,559.131 " fill="none" id="SecuritiesConversion-Security" style="stroke: #A80036; stroke-width: 1.0;"/><polygon fill="#A80036" points="367.738,559.13,376.738,563.13,372.738,559.13,376.738,555.13,367.738,559.13" style="stroke: #A80036; stroke-width: 1.0;"/><text fill="#000000" font-family="sans-serif" font-size="13" lengthAdjust="spacingAndGlyphs" textLength="133" x="1490" y="411.0669">SecurityIdentification</text><text fill="#000000" font-family="sans-serif" font-size="13" lengthAdjust="spacingAndGlyphs" textLength="8" x="376.5237" y="552.5847">1</text><!--link SecuritiesPricing to Security--><path d="M103.606,164.14 C88.8134,215.201 35.5597,428.209 147,518 C171.32,537.596 258.923,550.078 307.312,555.638 " fill="none" id="SecuritiesPricing-Security" style="stroke: #A80036; stroke-width: 1.0;"/><polygon fill="#A80036" points="312.44,556.218,303.946,551.2328,307.4716,555.6566,303.0478,559.1822,312.44,556.218" style="stroke: #A80036; stroke-width: 1.0;"/><text fill="#000000" font-family="sans-serif" font-size="13" lengthAdjust="spacingAndGlyphs" textLength="52" x="88" y="411.0669">Security</text><text fill="#000000" font-family="sans-serif" font-size="13" lengthAdjust="spacingAndGlyphs" textLength="7" x="297.3175" y="549.6162">*</text><!--link SecuritiesPricing to DateTimePeriod--><path d="M119.674,164.004 C144.019,186.086 196.626,238.623 216,296 C221.104,311.116 212.832,327.934 204.639,339.735 " fill="none" id="SecuritiesPricing-DateTimePeriod" style="stroke: #A80036; stroke-width: 1.0;"/><polygon fill="#A80036" points="201.649,343.843,210.1796,338.9206,204.5916,339.8006,203.7116,334.2126,201.649,343.843" style="stroke: #A80036; stroke-width: 1.0;"/><text fill="#000000" font-family="sans-serif" font-size="13" lengthAdjust="spacingAndGlyphs" textLength="141" x="219" y="309.0669">PriceCalculationPeriod</text><text fill="#000000" font-family="sans-serif" font-size="13" lengthAdjust="spacingAndGlyphs" textLength="8" x="194.1612" y="332.8372">1</text><!--link SecuritiesPricing to DateTimePeriod--><path d="M103.2468,164.252 C94.6818,192.145 76.6783,265.71 107,314 C115.062,326.84 128.403,335.755 142.152,341.904 " fill="none" id="SecuritiesPricing-DateTimePeriod" style="stroke: #A80036; stroke-width: 1.0;"/><polygon fill="#A80036" points="146.823,343.885,140.0982,336.6893,142.2196,341.9334,136.9756,344.0547,146.823,343.885" style="stroke: #A80036; stroke-width: 1.0;"/><text fill="#000000" font-family="sans-serif" font-size="13" lengthAdjust="spacingAndGlyphs" textLength="98" x="108" y="309.0669">PriceFactPeriod</text><text fill="#000000" font-family="sans-serif" font-size="13" lengthAdjust="spacingAndGlyphs" textLength="8" x="123.6404" y="334.177">1</text><!--link SecuritiesQuantity to Security--><path d="M255.25,462.451 C200.59,467.908 132.273,481.95 161,518 C178.935,540.508 260.602,551.661 307.187,556.28 " fill="none" id="SecuritiesQuantity-Security" style="stroke: #A80036; stroke-width: 1.0;"/><polygon fill="#A80036" points="312.411,556.785,303.8379,551.9371,307.4342,556.3036,303.0677,559.8999,312.411,556.785" style="stroke: #A80036; stroke-width: 1.0;"/><text fill="#000000" font-family="sans-serif" font-size="13" lengthAdjust="spacingAndGlyphs" textLength="133" x="162" y="513.0669">SecurityIdentification</text><text fill="#000000" font-family="sans-serif" font-size="13" lengthAdjust="spacingAndGlyphs" textLength="8" x="296.5864" y="569.7526">1</text><!--link SecuritiesQuantity to Security--><path d="M317.771,470.084 C322.201,487.804 330.898,522.591 336.001,543.005 " fill="none" id="SecuritiesQuantity-Security" style="stroke: #A80036; stroke-width: 1.0;"/><polygon fill="#A80036" points="337.217,547.867,338.9147,538.1656,336.0043,543.0163,331.1536,540.1059,337.217,547.867" style="stroke: #A80036; stroke-width: 1.0;"/><text fill="#000000" font-family="sans-serif" font-size="13" lengthAdjust="spacingAndGlyphs" textLength="144" x="331" y="513.0669">MinimumQuantityDebt</text><text fill="#000000" font-family="sans-serif" font-size="13" lengthAdjust="spacingAndGlyphs" textLength="8" x="325.3697" y="536.8695">1</text><!--link SecuritiesQuantity to UnderlyingRatio--><path d="M255.437,463.167 C202.919,468.204 132.018,478.798 114,500 C84.6211,534.571 110,556.632 110,602 C110,602 110,602 110,733 C110,791.2652 185.934,809.4159 241.54,814.8963 " fill="none" id="SecuritiesQuantity-UnderlyingRatio" style="stroke: #A80036; stroke-width: 1.0;"/><polygon fill="#A80036" points="246.855,815.3881,238.2612,810.5771,241.8762,814.9281,237.5252,818.5431,246.855,815.3881" style="stroke: #A80036; stroke-width: 1.0;"/><text fill="#000000" font-family="sans-serif" font-size="13" lengthAdjust="spacingAndGlyphs" textLength="116" x="111" y="650.0669">DenominatorRatio</text><text fill="#000000" font-family="sans-serif" font-size="13" lengthAdjust="spacingAndGlyphs" textLength="8" x="230.8905" y="810.1107">1</text><!--link SecuritiesQuantity to UnderlyingRatio--><path d="M255.218,465.785 C212.555,472.001 160.443,482.881 147,500 C142.059,506.292 144.408,510.431 147,518 C168.14,579.734 206.103,576.525 237,634 C268.058,691.774 287.843,768.0569 295.456,800.8667 " fill="none" id="SecuritiesQuantity-UnderlyingRatio" style="stroke: #A80036; stroke-width: 1.0;"/><polygon fill="#A80036" points="296.573,805.7497,298.4651,796.0843,295.4579,800.8756,290.6666,797.8684,296.573,805.7497" style="stroke: #A80036; stroke-width: 1.0;"/><text fill="#000000" font-family="sans-serif" font-size="13" lengthAdjust="spacingAndGlyphs" textLength="102" x="250" y="650.0669">NumeratorRatio</text><text fill="#000000" font-family="sans-serif" font-size="13" lengthAdjust="spacingAndGlyphs" textLength="8" x="285.1128" y="794.9702">1</text></g></svg>