<?xml version="1.0" encoding="UTF-8" standalone="no"?><svg xmlns="http://www.w3.org/2000/svg" xmlns:xlink="http://www.w3.org/1999/xlink" contentScriptType="application/ecmascript" contentStyleType="text/css" height="970px" preserveAspectRatio="none" style="width:2063px;height:970px;" version="1.1" viewBox="0 0 2063 970" width="2063px" zoomAndPan="magnify"><defs><filter height="300%" id="fan102e2jpwc4" width="300%" x="-1" y="-1"><feGaussianBlur result="blurOut" stdDeviation="2.0"/><feColorMatrix in="blurOut" result="blurOut2" type="matrix" values="0 0 0 0 0 0 0 0 0 0 0 0 0 0 0 0 0 0 .4 0"/><feOffset dx="4.0" dy="4.0" in="blurOut2" result="blurOut3"/><feBlend in="SourceGraphic" in2="blurOut3" mode="normal"/></filter></defs><g><!--cluster ##7174--><!--cluster ##7183--><!--cluster ##7188--><!--cluster ##7215--><!--class RolePlayer--><a target="_top" xlink:actuate="onRequest" xlink:href="../RolePlayer.html" xlink:show="new" xlink:title="Type of entity that plays a specific role in a specific context." xlink:type="simple"><rect fill="#FEFEEE" filter="url(#fan102e2jpwc4)" height="23.9688" id="RolePlayer" style="stroke: #A80036; stroke-width: 1.5;" width="71" x="697.75" y="40"/><rect fill="#FEFEEE" height="23.9688" style="stroke: #A80036; stroke-width: 1.5;" width="71" x="697.75" y="40"/><text fill="#000000" font-family="sans-serif" font-size="12" lengthAdjust="spacingAndGlyphs" textLength="65" x="700.75" y="56.1387">RolePlayer</text></a><!--class System--><a target="_top" xlink:actuate="onRequest" xlink:href="../System.html" xlink:show="new" xlink:title="Set of integrated applications that provides centralised services such as clearing, netting, reconciliation, trading and/or settlement." xlink:type="simple"><rect fill="#FEFEEE" filter="url(#fan102e2jpwc4)" height="57.5781" id="System" style="stroke: #A80036; stroke-width: 1.5;" width="254" x="515" y="126"/><rect fill="#FEFEEE" height="23.9688" style="stroke: #A80036; stroke-width: 1.5;" width="254" x="515" y="126"/><text fill="#000000" font-family="sans-serif" font-size="12" lengthAdjust="spacingAndGlyphs" textLength="45" x="619.5" y="142.1387">System</text><line style="stroke: #A80036; stroke-width: 1.5;" x1="516" x2="768" y1="149.9688" y2="149.9688"/><ellipse cx="526" cy="161.8711" fill="#84BE84" rx="3" ry="3" style="stroke: #038048; stroke-width: 1.0;"/><text fill="#000000" font-family="sans-serif" font-size="11" lengthAdjust="spacingAndGlyphs" textLength="97" x="535" y="164.1792">SystemDateTime</text><text fill="#000000" font-family="sans-serif" font-size="11" font-style="italic" lengthAdjust="spacingAndGlyphs" textLength="81" x="636" y="164.1792">(ISODateTime)</text><ellipse cx="526" cy="174.6758" fill="#84BE84" rx="3" ry="3" style="stroke: #038048; stroke-width: 1.0;"/><text fill="#000000" font-family="sans-serif" font-size="11" lengthAdjust="spacingAndGlyphs" textLength="98" x="535" y="176.9839">SystemLanguage</text><text fill="#000000" font-family="sans-serif" font-size="11" font-style="italic" lengthAdjust="spacingAndGlyphs" textLength="126" x="637" y="176.9839">(ISO2ALanguageCode)</text></a><!--class SecuritiesSettlementSystem--><a target="_top" xlink:actuate="onRequest" xlink:href="../SecuritiesSettlementSystem.html" xlink:show="new" xlink:title="Specifies the system used in a settlement process." xlink:type="simple"><rect fill="#FEFECE" filter="url(#fan102e2jpwc4)" height="23.9688" id="SecuritiesSettlementSystem" style="stroke: #A80036; stroke-width: 1.5;" width="182" x="515" y="264"/><rect fill="#FEFECE" height="23.9688" style="stroke: #A80036; stroke-width: 1.5;" width="182" x="515" y="264"/><text fill="#000000" font-family="sans-serif" font-size="12" lengthAdjust="spacingAndGlyphs" textLength="176" x="518" y="280.1387">SecuritiesSettlementSystem</text></a><!--class Role--><a target="_top" xlink:actuate="onRequest" xlink:href="../Role.html" xlink:show="new" xlink:title="Role of a party in an activity." xlink:type="simple"><rect fill="#EEEEEE" filter="url(#fan102e2jpwc4)" height="23.9688" id="Role" style="stroke: #A80036; stroke-width: 1.5;" width="33" x="1798.75" y="370"/><rect fill="#EEEEEE" height="23.9688" style="stroke: #A80036; stroke-width: 1.5;" width="33" x="1798.75" y="370"/><text fill="#000000" font-family="sans-serif" font-size="12" lengthAdjust="spacingAndGlyphs" textLength="27" x="1801.75" y="386.1387">Role</text></a><!--class DateTimePeriod--><a target="_top" xlink:actuate="onRequest" xlink:href="../DateTimePeriod.html" xlink:show="new" xlink:title="Time span defined by a start date and time, and an end date and time." xlink:type="simple"><rect fill="#EEEEEE" filter="url(#fan102e2jpwc4)" height="23.9688" id="DateTimePeriod" style="stroke: #A80036; stroke-width: 1.5;" width="105" x="1796.75" y="264"/><rect fill="#EEEEEE" height="23.9688" style="stroke: #A80036; stroke-width: 1.5;" width="105" x="1796.75" y="264"/><text fill="#000000" font-family="sans-serif" font-size="12" lengthAdjust="spacingAndGlyphs" textLength="99" x="1799.75" y="280.1387">DateTimePeriod</text></a><!--class SystemIdentification--><a target="_top" xlink:actuate="onRequest" xlink:href="../SystemIdentification.html" xlink:show="new" xlink:title="Parameters that identify a system." xlink:type="simple"><rect fill="#EEEEEE" filter="url(#fan102e2jpwc4)" height="23.9688" id="SystemIdentification" style="stroke: #A80036; stroke-width: 1.5;" width="132" x="1416" y="474"/><rect fill="#EEEEEE" height="23.9688" style="stroke: #A80036; stroke-width: 1.5;" width="132" x="1416" y="474"/><text fill="#000000" font-family="sans-serif" font-size="12" lengthAdjust="spacingAndGlyphs" textLength="126" x="1419" y="490.1387">SystemIdentification</text></a><!--class Location--><a target="_top" xlink:actuate="onRequest" xlink:href="../Location.html" xlink:show="new" xlink:title="Specifies a place." xlink:type="simple"><rect fill="#EEEEEE" filter="url(#fan102e2jpwc4)" height="23.9688" id="Location" style="stroke: #A80036; stroke-width: 1.5;" width="59" x="1432.75" y="370"/><rect fill="#EEEEEE" height="23.9688" style="stroke: #A80036; stroke-width: 1.5;" width="59" x="1432.75" y="370"/><text fill="#000000" font-family="sans-serif" font-size="12" lengthAdjust="spacingAndGlyphs" textLength="53" x="1435.75" y="386.1387">Location</text></a><!--class Reconciliation--><a target="_top" xlink:actuate="onRequest" xlink:href="../Reconciliation.html" xlink:show="new" xlink:title="Process of matching different documents submitted by parties to a trade." xlink:type="simple"><rect fill="#EEEEEE" filter="url(#fan102e2jpwc4)" height="23.9688" id="Reconciliation" style="stroke: #A80036; stroke-width: 1.5;" width="93" x="1434.75" y="264"/><rect fill="#EEEEEE" height="23.9688" style="stroke: #A80036; stroke-width: 1.5;" width="93" x="1434.75" y="264"/><text fill="#000000" font-family="sans-serif" font-size="12" lengthAdjust="spacingAndGlyphs" textLength="87" x="1437.75" y="280.1387">Reconciliation</text></a><!--class SystemAvailability--><a target="_top" xlink:actuate="onRequest" xlink:href="../SystemAvailability.html" xlink:show="new" xlink:title="information about the periods of activity and non-activity of a system." xlink:type="simple"><rect fill="#EEEEEE" filter="url(#fan102e2jpwc4)" height="23.9688" id="SystemAvailability" style="stroke: #A80036; stroke-width: 1.5;" width="115" x="1265.75" y="936"/><rect fill="#EEEEEE" height="23.9688" style="stroke: #A80036; stroke-width: 1.5;" width="115" x="1265.75" y="936"/><text fill="#000000" font-family="sans-serif" font-size="12" lengthAdjust="spacingAndGlyphs" textLength="109" x="1268.75" y="952.1387">SystemAvailability</text></a><!--class SystemEventInformation--><a target="_top" xlink:actuate="onRequest" xlink:href="../SystemEventInformation.html" xlink:show="new" xlink:title="Detailed information about an event occurring on a system, whether planned, for example, cut-off time for a specific type of eligible transfer, or unplanned, for example, an unsolicited failure, as stipulated in the specifications of the system." xlink:type="simple"><rect fill="#EEEEEE" filter="url(#fan102e2jpwc4)" height="23.9688" id="SystemEventInformation" style="stroke: #A80036; stroke-width: 1.5;" width="157" x="1074.75" y="850"/><rect fill="#EEEEEE" height="23.9688" style="stroke: #A80036; stroke-width: 1.5;" width="157" x="1074.75" y="850"/><text fill="#000000" font-family="sans-serif" font-size="12" lengthAdjust="spacingAndGlyphs" textLength="151" x="1077.75" y="866.1387">SystemEventInformation</text></a><!--class SystemPartyRole--><a target="_top" xlink:actuate="onRequest" xlink:href="../SystemPartyRole.html" xlink:show="new" xlink:title="Role played by a party in a system." xlink:type="simple"><rect fill="#EEEEEE" filter="url(#fan102e2jpwc4)" height="23.9688" id="SystemPartyRole" style="stroke: #A80036; stroke-width: 1.5;" width="110" x="1080" y="764"/><rect fill="#EEEEEE" height="23.9688" style="stroke: #A80036; stroke-width: 1.5;" width="110" x="1080" y="764"/><text fill="#000000" font-family="sans-serif" font-size="12" lengthAdjust="spacingAndGlyphs" textLength="104" x="1083" y="780.1387">SystemPartyRole</text></a><!--class SystemStatus--><a target="_top" xlink:actuate="onRequest" xlink:href="../SystemStatus.html" xlink:show="new" xlink:title="Status of a system and the period of time during which the status is valid." xlink:type="simple"><rect fill="#EEEEEE" filter="url(#fan102e2jpwc4)" height="23.9688" id="SystemStatus" style="stroke: #A80036; stroke-width: 1.5;" width="92" x="1089" y="678"/><rect fill="#EEEEEE" height="23.9688" style="stroke: #A80036; stroke-width: 1.5;" width="92" x="1089" y="678"/><text fill="#000000" font-family="sans-serif" font-size="12" lengthAdjust="spacingAndGlyphs" textLength="86" x="1092" y="694.1387">SystemStatus</text></a><!--class SystemBusinessInformation--><a target="_top" xlink:actuate="onRequest" xlink:href="../SystemBusinessInformation.html" xlink:show="new" xlink:title="Details about business information related to a system." xlink:type="simple"><rect fill="#EEEEEE" filter="url(#fan102e2jpwc4)" height="23.9688" id="SystemBusinessInformation" style="stroke: #A80036; stroke-width: 1.5;" width="178" x="1074.5" y="576"/><rect fill="#EEEEEE" height="23.9688" style="stroke: #A80036; stroke-width: 1.5;" width="178" x="1074.5" y="576"/><text fill="#000000" font-family="sans-serif" font-size="12" lengthAdjust="spacingAndGlyphs" textLength="172" x="1077.5" y="592.1387">SystemBusinessInformation</text></a><!--class Negotiation--><a target="_top" xlink:actuate="onRequest" xlink:href="../Negotiation.html" xlink:show="new" xlink:title="Decision making on the transfer of a financial instrument." xlink:type="simple"><rect fill="#EEEEEE" filter="url(#fan102e2jpwc4)" height="23.9688" id="Negotiation" style="stroke: #A80036; stroke-width: 1.5;" width="79" x="1073.75" y="474"/><rect fill="#EEEEEE" height="23.9688" style="stroke: #A80036; stroke-width: 1.5;" width="79" x="1073.75" y="474"/><text fill="#000000" font-family="sans-serif" font-size="12" lengthAdjust="spacingAndGlyphs" textLength="73" x="1076.75" y="490.1387">Negotiation</text></a><!--class Account--><a target="_top" xlink:actuate="onRequest" xlink:href="../Account.html" xlink:show="new" xlink:title="Record of transactions in specific types of assets, maintained by a servicing party on behalf of one or more owning parties. Business relationship between an account servicer and one or more account owners." xlink:type="simple"><rect fill="#EEEEEE" filter="url(#fan102e2jpwc4)" height="23.9688" id="Account" style="stroke: #A80036; stroke-width: 1.5;" width="57" x="1177.75" y="370"/><rect fill="#EEEEEE" height="23.9688" style="stroke: #A80036; stroke-width: 1.5;" width="57" x="1177.75" y="370"/><text fill="#000000" font-family="sans-serif" font-size="12" lengthAdjust="spacingAndGlyphs" textLength="51" x="1180.75" y="386.1387">Account</text></a><!--class Trade--><a target="_top" xlink:actuate="onRequest" xlink:href="../Trade.html" xlink:show="new" xlink:title="Result of an order between at least two parties. A trade relates to the delivery of goods and services, cash or securities." xlink:type="simple"><rect fill="#EEEEEE" filter="url(#fan102e2jpwc4)" height="23.9688" id="Trade" style="stroke: #A80036; stroke-width: 1.5;" width="42" x="1287.5" y="576"/><rect fill="#EEEEEE" height="23.9688" style="stroke: #A80036; stroke-width: 1.5;" width="42" x="1287.5" y="576"/><text fill="#000000" font-family="sans-serif" font-size="12" lengthAdjust="spacingAndGlyphs" textLength="36" x="1290.5" y="592.1387">Trade</text></a><!--class Assessment--><a target="_top" xlink:actuate="onRequest" xlink:href="../Assessment.html" xlink:show="new" xlink:title="Assessment for the components of a system." xlink:type="simple"><rect fill="#EEEEEE" filter="url(#fan102e2jpwc4)" height="23.9688" id="Assessment" style="stroke: #A80036; stroke-width: 1.5;" width="82" x="1188" y="474"/><rect fill="#EEEEEE" height="23.9688" style="stroke: #A80036; stroke-width: 1.5;" width="82" x="1188" y="474"/><text fill="#000000" font-family="sans-serif" font-size="12" lengthAdjust="spacingAndGlyphs" textLength="76" x="1191" y="490.1387">Assessment</text></a><!--class Position--><a target="_top" xlink:actuate="onRequest" xlink:href="../Position.html" xlink:show="new" xlink:title="Specifies the status of trades and their value inside a system." xlink:type="simple"><rect fill="#EEEEEE" filter="url(#fan102e2jpwc4)" height="23.9688" id="Position" style="stroke: #A80036; stroke-width: 1.5;" width="56" x="1086.5" y="370"/><rect fill="#EEEEEE" height="23.9688" style="stroke: #A80036; stroke-width: 1.5;" width="56" x="1086.5" y="370"/><text fill="#000000" font-family="sans-serif" font-size="12" lengthAdjust="spacingAndGlyphs" textLength="50" x="1089.5" y="386.1387">Position</text></a><!--class SecuritiesSettlementPartyRole--><a target="_top" xlink:actuate="onRequest" xlink:href="../SecuritiesSettlementPartyRole.html" xlink:show="new" xlink:title="Role played by a party in the context of the settlement of securities." xlink:type="simple"><rect fill="#EEEEEE" filter="url(#fan102e2jpwc4)" height="23.9688" id="SecuritiesSettlementPartyRole" style="stroke: #A80036; stroke-width: 1.5;" width="196" x="341.5" y="370"/><rect fill="#EEEEEE" height="23.9688" style="stroke: #A80036; stroke-width: 1.5;" width="196" x="341.5" y="370"/><text fill="#000000" font-family="sans-serif" font-size="12" lengthAdjust="spacingAndGlyphs" textLength="190" x="344.5" y="386.1387">SecuritiesSettlementPartyRole</text></a><!--link RolePlayer to System--><path d="M709.511,79.071 C696.561,93.443 680.478,111.294 667.258,125.966 " fill="none" id="RolePlayer-System" style="stroke: #A80036; stroke-width: 1.0;"/><polygon fill="none" points="704.326,74.368,722.914,64.195,714.727,83.739,704.326,74.368" style="stroke: #A80036; stroke-width: 1.0;"/><!--link System to SecuritiesSettlementSystem--><path d="M627.639,203.47 C620.957,225.56 613.575,249.959 609.391,263.79 " fill="none" id="System-SecuritiesSettlementSystem" style="stroke: #A80036; stroke-width: 1.0;"/><polygon fill="none" points="620.977,201.318,633.469,184.201,634.377,205.371,620.977,201.318" style="stroke: #A80036; stroke-width: 1.0;"/><!--link DateTimePeriod to Role--><!--link Location to SystemIdentification--><!--link Reconciliation to Location--><!--link SystemAvailability to Reconciliation--><!--link SystemEventInformation to SystemAvailability--><!--link SystemPartyRole to SystemEventInformation--><!--link SystemStatus to SystemPartyRole--><!--link SystemBusinessInformation to SystemStatus--><!--link Negotiation to SystemBusinessInformation--><!--link Account to Negotiation--><!--link Trade to Account--><!--link Assessment to Trade--><!--link Position to Assessment--><!--link RolePlayer to Role--><path d="M768.311,54.449 C925.029,61.52 1556.64,96.957 1709,214 C1756.95,250.838 1728.77,289.582 1765,338 C1773.16,348.909 1784.54,358.967 1794.38,366.609 " fill="none" id="RolePlayer-Role" style="stroke: #A80036; stroke-width: 1.0;"/><polygon fill="#A80036" points="1798.49,369.731,1793.7486,361.0986,1794.5105,366.7039,1788.9052,367.4658,1798.49,369.731" style="stroke: #A80036; stroke-width: 1.0;"/><text fill="#000000" font-family="sans-serif" font-size="13" lengthAdjust="spacingAndGlyphs" textLength="27" x="1728" y="227.0669">Role</text><text fill="#000000" font-family="sans-serif" font-size="13" lengthAdjust="spacingAndGlyphs" textLength="23" x="1767.7236" y="361.014">1..*</text><!--link RolePlayer to DateTimePeriod--><path d="M768.429,53.33 C945.953,55.115 1731.9,64.656 1774,94 C1830.12,133.113 1844.35,222.476 1847.87,258.999 " fill="none" id="RolePlayer-DateTimePeriod" style="stroke: #A80036; stroke-width: 1.0;"/><polygon fill="#A80036" points="1848.32,263.992,1851.5054,254.6725,1847.8762,259.0117,1843.5369,255.3826,1848.32,263.992" style="stroke: #A80036; stroke-width: 1.0;"/><text fill="#000000" font-family="sans-serif" font-size="13" lengthAdjust="spacingAndGlyphs" textLength="86" x="1834" y="159.0669">ValidityPeriod</text><text fill="#000000" font-family="sans-serif" font-size="13" lengthAdjust="spacingAndGlyphs" textLength="24" x="1818.5316" y="253.0375">0..1</text><!--link System to SystemIdentification--><path d="M769.179,158.683 C971.81,163.968 1358.56,178.465 1491,214 C1503.67,217.4 1537.06,228.867 1544,240 C1554.66,257.098 1541.28,405.189 1537,418 C1530,438.955 1512.94,457.911 1499.66,470.268 " fill="none" id="System-SystemIdentification" style="stroke: #A80036; stroke-width: 1.0;"/><polygon fill="#A80036" points="1495.68,473.886,1505.0337,470.8025,1499.3836,470.5269,1499.6592,464.8768,1495.68,473.886" style="stroke: #A80036; stroke-width: 1.0;"/><text fill="#000000" font-family="sans-serif" font-size="13" lengthAdjust="spacingAndGlyphs" textLength="130" x="1548" y="333.0669">SystemIdentification</text><text fill="#000000" font-family="sans-serif" font-size="13" lengthAdjust="spacingAndGlyphs" textLength="8" x="1489.6638" y="462.895">1</text><!--link System to Location--><path d="M769.012,161.077 C927.863,169.441 1188.96,190.433 1271,240 C1322.39,271.052 1314.87,303.477 1364,338 C1383.48,351.688 1408.01,362.447 1427.66,369.779 " fill="none" id="System-Location" style="stroke: #A80036; stroke-width: 1.0;"/><polygon fill="#A80036" points="1432.54,371.569,1425.4582,364.7244,1427.8434,369.8539,1422.714,372.239,1432.54,371.569" style="stroke: #A80036; stroke-width: 1.0;"/><text fill="#000000" font-family="sans-serif" font-size="13" lengthAdjust="spacingAndGlyphs" textLength="54" x="1337" y="280.0669">Location</text><text fill="#000000" font-family="sans-serif" font-size="13" lengthAdjust="spacingAndGlyphs" textLength="8" x="1416.7065" y="363.925">1</text><!--link System to Reconciliation--><path d="M769.107,160.328 C945.023,167.332 1253.22,183.543 1361,214 C1362.25,214.354 1419.78,243.709 1454.72,261.563 " fill="none" id="System-Reconciliation" style="stroke: #A80036; stroke-width: 1.0;"/><polygon fill="#A80036" points="1459.28,263.895,1453.1009,256.2257,1454.8321,261.6111,1449.4467,263.3423,1459.28,263.895" style="stroke: #A80036; stroke-width: 1.0;"/><text fill="#000000" font-family="sans-serif" font-size="13" lengthAdjust="spacingAndGlyphs" textLength="87" x="1395" y="227.0669">Reconciliation</text><text fill="#000000" font-family="sans-serif" font-size="13" lengthAdjust="spacingAndGlyphs" textLength="8" x="1441.0091" y="252.9071">1</text><!--link System to SystemAvailability--><path d="M514.952,161.982 C416.114,168.834 276.197,183.377 157,214 C86.8963,232.011 6,202.62 6,275 C6,275 6,275 6,863 C6,926.6413 998.371,943.0898 1260.26,946.3226 " fill="none" id="System-SystemAvailability" style="stroke: #A80036; stroke-width: 1.0;"/><polygon fill="#A80036" points="1265.56,946.3874,1256.6181,942.2592,1260.5605,946.316,1256.5038,950.2584,1265.56,946.3874" style="stroke: #A80036; stroke-width: 1.0;"/><text fill="#000000" font-family="sans-serif" font-size="13" lengthAdjust="spacingAndGlyphs" textLength="67" x="7" y="592.0669">Availability</text><text fill="#000000" font-family="sans-serif" font-size="13" lengthAdjust="spacingAndGlyphs" textLength="8" x="1249.7033" y="941.3572">1</text><!--link System to SystemEventInformation--><path d="M514.862,160.495 C362.939,169.412 129,195.973 129,275 C129,275 129,275 129,777 C129,824.034 824.269,850.59 1069.01,858.481 " fill="none" id="System-SystemEventInformation" style="stroke: #A80036; stroke-width: 1.0;"/><polygon fill="#A80036" points="1074.35,858.652,1065.4802,854.3711,1069.3525,858.4948,1065.2287,862.3671,1074.35,858.652" style="stroke: #A80036; stroke-width: 1.0;"/><text fill="#000000" font-family="sans-serif" font-size="13" lengthAdjust="spacingAndGlyphs" textLength="36" x="130" y="541.0669">Event</text><text fill="#000000" font-family="sans-serif" font-size="13" lengthAdjust="spacingAndGlyphs" textLength="8" x="1058.6642" y="853.7813">1</text><!--link System to SystemPartyRole--><path d="M514.774,166.947 C389.564,181.336 217,212.505 217,275 C217,275 217,275 217,691 C217,734.224 870.939,764.323 1074.96,772.661 " fill="none" id="System-SystemPartyRole" style="stroke: #A80036; stroke-width: 1.0;"/><polygon fill="#A80036" points="1079.98,772.866,1071.1472,768.5092,1074.984,772.666,1070.8272,776.5028,1079.98,772.866" style="stroke: #A80036; stroke-width: 1.0;"/><text fill="#000000" font-family="sans-serif" font-size="13" lengthAdjust="spacingAndGlyphs" textLength="60" x="218" y="490.0669">PartyRole</text><text fill="#000000" font-family="sans-serif" font-size="13" lengthAdjust="spacingAndGlyphs" textLength="7" x="1065.098" y="767.5972">*</text><!--link System to SystemStatus--><path d="M554.428,184.163 C436.617,226.785 250.016,313.844 325,418 C417.617,546.65 920.514,649.436 1083.78,679.825 " fill="none" id="System-SystemStatus" style="stroke: #A80036; stroke-width: 1.0;"/><polygon fill="#A80036" points="1088.98,680.789,1080.8475,675.2336,1084.0618,679.8885,1079.4068,683.1028,1088.98,680.789" style="stroke: #A80036; stroke-width: 1.0;"/><text fill="#000000" font-family="sans-serif" font-size="13" lengthAdjust="spacingAndGlyphs" textLength="42" x="349" y="439.0669">Status</text><text fill="#000000" font-family="sans-serif" font-size="13" lengthAdjust="spacingAndGlyphs" textLength="8" x="1073.1242" y="674.487">1</text><!--link System to SystemBusinessInformation--><path d="M674.977,184.004 C689.955,198.905 706.07,218.563 714,240 C725.102,270.012 731.656,285.312 714,312 C708.671,320.055 639.329,337.945 634,346 C616.344,372.688 618.331,390.099 634,418 C687.522,513.304 740.866,509.795 844,546 C917.042,571.641 1004.529,581.535 1069.39,585.217 " fill="none" id="System-SystemBusinessInformation" style="stroke: #A80036; stroke-width: 1.0;"/><polygon fill="#A80036" points="1074.42,585.492,1065.6504,581.0093,1069.4274,585.2206,1065.2161,588.9976,1074.42,585.492" style="stroke: #A80036; stroke-width: 1.0;"/><text fill="#000000" font-family="sans-serif" font-size="13" lengthAdjust="spacingAndGlyphs" textLength="190" x="635" y="386.0669">SystemGeneratedInformation</text><text fill="#000000" font-family="sans-serif" font-size="13" lengthAdjust="spacingAndGlyphs" textLength="8" x="1058.511" y="580.7565">1</text><!--link System to DateTimePeriod--><path d="M769.39,158.098 C980.13,162.606 1391.97,176.095 1532,214 C1549.27,218.674 1550.95,226.581 1568,232 C1588.81,238.615 1715.18,256.639 1791.19,267.133 " fill="none" id="System-DateTimePeriod" style="stroke: #A80036; stroke-width: 1.0;"/><polygon fill="#A80036" points="1796.57,267.875,1788.1889,262.7022,1791.6153,267.2033,1787.1142,270.6297,1796.57,267.875" style="stroke: #A80036; stroke-width: 1.0;"/><text fill="#000000" font-family="sans-serif" font-size="13" lengthAdjust="spacingAndGlyphs" textLength="134" x="1569" y="227.0669">VersionValidityPeriod</text><text fill="#000000" font-family="sans-serif" font-size="13" lengthAdjust="spacingAndGlyphs" textLength="8" x="1780.9008" y="262.0291">1</text><!--link System to Negotiation--><path d="M769.04,171.643 C797.489,180.307 825.552,193.616 847,214 C889.177,254.085 846.875,297.861 889,338 C898.37,346.928 905.987,339.201 917,346 C967.319,377.066 958.143,410.683 1007,444 C1025.63,456.708 1048.76,466.242 1068.66,472.902 " fill="none" id="System-Negotiation" style="stroke: #A80036; stroke-width: 1.0;"/><polygon fill="#A80036" points="1073.64,474.534,1066.3333,467.9301,1068.8886,472.9769,1063.8419,475.5323,1073.64,474.534" style="stroke: #A80036; stroke-width: 1.0;"/><text fill="#000000" font-family="sans-serif" font-size="13" lengthAdjust="spacingAndGlyphs" textLength="74" x="890" y="333.0669">Negotiation</text><text fill="#000000" font-family="sans-serif" font-size="13" lengthAdjust="spacingAndGlyphs" textLength="24" x="1041.8993" y="468.0533">0..1</text><!--link System to Account--><path d="M769.016,159.393 C908.868,165.889 1121.46,184.822 1178,240 C1212.13,273.311 1210.91,335.464 1208.09,364.834 " fill="none" id="System-Account" style="stroke: #A80036; stroke-width: 1.0;"/><polygon fill="#A80036" points="1207.56,369.922,1212.4818,361.3911,1208.0844,364.9496,1204.526,360.5521,1207.56,369.922" style="stroke: #A80036; stroke-width: 1.0;"/><text fill="#000000" font-family="sans-serif" font-size="13" lengthAdjust="spacingAndGlyphs" textLength="52" x="1209" y="280.0669">Account</text><text fill="#000000" font-family="sans-serif" font-size="13" lengthAdjust="spacingAndGlyphs" textLength="8" x="1197.2916" y="358.9434">1</text><!--link System to Trade--><path d="M692.409,184.047 C705.981,192.749 720.166,202.978 732,214 C785.663,263.98 791.429,284.259 831,346 C850.638,376.64 843.676,392.871 870,418 C964.611,508.315 1011.51,502.885 1135,546 C1192.21,565.974 1209.21,561.296 1268,576 C1272.62,577.155 1277.52,578.447 1282.25,579.728 " fill="none" id="System-Trade" style="stroke: #A80036; stroke-width: 1.0;"/><polygon fill="#A80036" points="1287.29,581.107,1279.6755,574.8604,1282.4696,579.7791,1277.5509,582.5731,1287.29,581.107" style="stroke: #A80036; stroke-width: 1.0;"/><text fill="#000000" font-family="sans-serif" font-size="13" lengthAdjust="spacingAndGlyphs" textLength="36" x="871" y="386.0669">Trade</text><text fill="#000000" font-family="sans-serif" font-size="13" lengthAdjust="spacingAndGlyphs" textLength="8" x="1271.5737" y="573.2505">1</text><!--link System to Assessment--><path d="M769.302,172.662 C806.731,181.267 846.568,194.294 880,214 C986.218,276.608 966.96,347.34 1068,418 C1104.06,443.219 1151.08,461.399 1184.98,472.404 " fill="none" id="System-Assessment" style="stroke: #A80036; stroke-width: 1.0;"/><polygon fill="#A80036" points="1189.88,473.975,1182.5334,467.4154,1185.1193,472.4467,1180.0881,475.0326,1189.88,473.975" style="stroke: #A80036; stroke-width: 1.0;"/><text fill="#000000" font-family="sans-serif" font-size="13" lengthAdjust="spacingAndGlyphs" textLength="79" x="992" y="333.0669">Assessment</text><text fill="#000000" font-family="sans-serif" font-size="13" lengthAdjust="spacingAndGlyphs" textLength="24" x="1155.9219" y="466.5283">0..1</text><!--link System to Position--><path d="M769.393,168.476 C852.282,178.258 951.671,193.629 989,214 C1040.65,242.185 1032.11,275.173 1078,312 C1083.59,316.486 1087.39,314.514 1092,320 C1102.87,332.935 1108.56,351.668 1111.4,364.956 " fill="none" id="System-Position" style="stroke: #A80036; stroke-width: 1.0;"/><polygon fill="#A80036" points="1112.39,369.933,1114.5581,360.3257,1111.4149,365.029,1106.7117,361.8859,1112.39,369.933" style="stroke: #A80036; stroke-width: 1.0;"/><text fill="#000000" font-family="sans-serif" font-size="13" lengthAdjust="spacingAndGlyphs" textLength="93" x="1079" y="280.0669">TradesPosition</text><text fill="#000000" font-family="sans-serif" font-size="13" lengthAdjust="spacingAndGlyphs" textLength="8" x="1100.9459" y="358.9582">1</text><!--link SecuritiesSettlementSystem to SecuritiesSettlementPartyRole--><path d="M588.128,288.13 C557.366,307.287 494.502,346.436 461.064,367.26 " fill="none" id="SecuritiesSettlementSystem-SecuritiesSettlementPartyRole" style="stroke: #A80036; stroke-width: 1.0;"/><polygon fill="#A80036" points="456.743,369.95,466.4973,368.5882,460.9874,367.3071,462.2686,361.7972,456.743,369.95" style="stroke: #A80036; stroke-width: 1.0;"/><text fill="#000000" font-family="sans-serif" font-size="13" lengthAdjust="spacingAndGlyphs" textLength="105" x="534" y="333.0669">SettlementParty</text><text fill="#000000" font-family="sans-serif" font-size="13" lengthAdjust="spacingAndGlyphs" textLength="24" x="433.2015" y="358.981">0..1</text><!--link DateTimePeriod to Account--><path d="M1831.95,288.188 C1808.53,302.854 1764.56,327.898 1723,338 C1656.47,354.17 1483.15,339.441 1415,346 C1352.66,351.999 1280.82,365.495 1239.68,373.865 " fill="none" id="DateTimePeriod-Account" style="stroke: #A80036; stroke-width: 1.0;"/><polygon fill="#A80036" points="1234.57,374.91,1244.1882,377.029,1239.469,373.9099,1242.5881,369.1907,1234.57,374.91" style="stroke: #A80036; stroke-width: 1.0;"/><text fill="#000000" font-family="sans-serif" font-size="13" lengthAdjust="spacingAndGlyphs" textLength="52" x="1771" y="333.0669">Account</text><text fill="#000000" font-family="sans-serif" font-size="13" lengthAdjust="spacingAndGlyphs" textLength="24" x="1242.886" y="367.7784">0..1</text><!--link DateTimePeriod to SystemAvailability--><path d="M1855.79,288.08 C1866.47,306.606 1886,345.355 1886,381 C1886,381 1886,381 1886,863 C1886,913.1458 1532.1,936.5786 1385.47,944.1351 " fill="none" id="DateTimePeriod-SystemAvailability" style="stroke: #A80036; stroke-width: 1.0;"/><polygon fill="#A80036" points="1380.34,944.3972,1389.5338,947.9291,1385.3334,944.1401,1389.1224,939.9397,1380.34,944.3972" style="stroke: #A80036; stroke-width: 1.0;"/><text fill="#000000" font-family="sans-serif" font-size="13" lengthAdjust="spacingAndGlyphs" textLength="164" x="1887" y="643.0669">RelatedSystemAvailability</text><text fill="#000000" font-family="sans-serif" font-size="13" lengthAdjust="spacingAndGlyphs" textLength="8" x="1388.9308" y="938.7737">1</text><!--link Reconciliation to Trade--><path d="M1478.18,288.323 C1474.11,302.194 1465.26,325.399 1449,338 C1436.73,347.51 1427.33,336.571 1415,346 C1386.09,368.104 1404.27,395.082 1376,418 C1366.28,425.882 1357.68,416.981 1349,426 C1338.85,436.55 1319.01,531.619 1311.24,570.52 " fill="none" id="Reconciliation-Trade" style="stroke: #A80036; stroke-width: 1.0;"/><polygon fill="#A80036" points="1310.18,575.836,1315.8606,567.7905,1311.1565,570.9323,1308.0146,566.2281,1310.18,575.836" style="stroke: #A80036; stroke-width: 1.0;"/><text fill="#000000" font-family="sans-serif" font-size="13" lengthAdjust="spacingAndGlyphs" textLength="111" x="1350" y="439.0669">ReconciledTrades</text><text fill="#000000" font-family="sans-serif" font-size="13" lengthAdjust="spacingAndGlyphs" textLength="8" x="1300.0388" y="564.8278">1</text><!--link Reconciliation to Account--><path d="M1459.27,288.062 C1444.67,295.296 1424.9,304.719 1407,312 C1349.11,335.543 1279.82,358.141 1239.57,370.736 " fill="none" id="Reconciliation-Account" style="stroke: #A80036; stroke-width: 1.0;"/><polygon fill="#A80036" points="1234.33,372.371,1244.1121,373.5161,1239.1042,370.8853,1241.735,365.8774,1234.33,372.371" style="stroke: #A80036; stroke-width: 1.0;"/><text fill="#000000" font-family="sans-serif" font-size="13" lengthAdjust="spacingAndGlyphs" textLength="52" x="1387" y="333.0669">Account</text><text fill="#000000" font-family="sans-serif" font-size="13" lengthAdjust="spacingAndGlyphs" textLength="8" x="1242.5505" y="383.9134">1</text><!--link Negotiation to Trade--><path d="M1119.83,498.312 C1128.47,511.667 1144.59,533.624 1164,546 C1166.54,547.622 1241.14,568.457 1281.94,579.783 " fill="none" id="Negotiation-Trade" style="stroke: #A80036; stroke-width: 1.0;"/><polygon fill="#A80036" points="1287.22,581.249,1279.6242,574.9797,1282.4035,579.9067,1277.4766,582.6861,1287.22,581.249" style="stroke: #A80036; stroke-width: 1.0;"/><text fill="#000000" font-family="sans-serif" font-size="13" lengthAdjust="spacingAndGlyphs" textLength="98" x="1165" y="541.0669">TradeExecution</text><text fill="#000000" font-family="sans-serif" font-size="13" lengthAdjust="spacingAndGlyphs" textLength="8" x="1271.4858" y="593.5288">1</text><!--link Account to Account--><path d="M1234.51,372.938 C1252.18,370.753 1269,373.773 1269,382 C1269,389.391 1255.42,392.58 1239.85,391.567 " fill="none" id="Account-Account" style="stroke: #A80036; stroke-width: 1.0;"/><polygon fill="#A80036" points="1234.51,391.062,1243.0928,395.8926,1239.4877,391.5333,1243.847,387.9282,1234.51,391.062" style="stroke: #A80036; stroke-width: 1.0;"/><text fill="#000000" font-family="sans-serif" font-size="13" lengthAdjust="spacingAndGlyphs" textLength="94" x="1275" y="386.0669">ParentAccount</text><text fill="#000000" font-family="sans-serif" font-size="13" lengthAdjust="spacingAndGlyphs" textLength="8" x="1242.7766" y="407.3939">1</text></g></svg>