<?xml version="1.0" encoding="UTF-8" standalone="no"?><svg xmlns="http://www.w3.org/2000/svg" xmlns:xlink="http://www.w3.org/1999/xlink" contentScriptType="application/ecmascript" contentStyleType="text/css" height="762px" preserveAspectRatio="none" style="width:2632px;height:762px;" version="1.1" viewBox="0 0 2632 762" width="2632px" zoomAndPan="magnify"><defs><filter height="300%" id="f1xqlzrzftkjxd" width="300%" x="-1" y="-1"><feGaussianBlur result="blurOut" stdDeviation="2.0"/><feColorMatrix in="blurOut" result="blurOut2" type="matrix" values="0 0 0 0 0 0 0 0 0 0 0 0 0 0 0 0 0 0 .4 0"/><feOffset dx="4.0" dy="4.0" in="blurOut2" result="blurOut3"/><feBlend in="SourceGraphic" in2="blurOut3" mode="normal"/></filter></defs><g><!--cluster ##341--><!--cluster ##347--><!--class Product--><a target="_top" xlink:actuate="onRequest" xlink:href="../Product.html" xlink:show="new" xlink:title="Item that is offered for sale. Products can be services or goods." xlink:type="simple"><rect fill="#FEFEEE" filter="url(#f1xqlzrzftkjxd)" height="70.3828" id="Product" style="stroke: #A80036; stroke-width: 1.5;" width="171" x="2229.75" y="40"/><rect fill="#FEFEEE" height="23.9688" style="stroke: #A80036; stroke-width: 1.5;" width="171" x="2229.75" y="40"/><text fill="#000000" font-family="sans-serif" font-size="12" lengthAdjust="spacingAndGlyphs" textLength="49" x="2290.75" y="56.1387">Product</text><line style="stroke: #A80036; stroke-width: 1.5;" x1="2230.75" x2="2399.75" y1="63.9688" y2="63.9688"/><ellipse cx="2240.75" cy="75.8711" fill="#84BE84" rx="3" ry="3" style="stroke: #038048; stroke-width: 1.0;"/><text fill="#000000" font-family="sans-serif" font-size="11" lengthAdjust="spacingAndGlyphs" textLength="33" x="2249.75" y="78.1792">Name</text><text fill="#000000" font-family="sans-serif" font-size="11" font-style="italic" lengthAdjust="spacingAndGlyphs" textLength="70" x="2286.75" y="78.1792">(Max35Text)</text><ellipse cx="2240.75" cy="88.6758" fill="#84BE84" rx="3" ry="3" style="stroke: #038048; stroke-width: 1.0;"/><text fill="#000000" font-family="sans-serif" font-size="11" lengthAdjust="spacingAndGlyphs" textLength="64" x="2249.75" y="90.9839">Description</text><text fill="#000000" font-family="sans-serif" font-size="11" font-style="italic" lengthAdjust="spacingAndGlyphs" textLength="77" x="2317.75" y="90.9839">(Max140Text)</text><ellipse cx="2240.75" cy="101.4805" fill="#84BE84" rx="3" ry="3" style="stroke: #038048; stroke-width: 1.0;"/><text fill="#000000" font-family="sans-serif" font-size="11" lengthAdjust="spacingAndGlyphs" textLength="39" x="2249.75" y="103.7886">Quality</text><text fill="#000000" font-family="sans-serif" font-size="11" font-style="italic" lengthAdjust="spacingAndGlyphs" textLength="70" x="2292.75" y="103.7886">(Max70Text)</text></a><!--class Service--><a target="_top" xlink:actuate="onRequest" xlink:href="../Service.html" xlink:show="new" xlink:title="Service is the intangible equivalent of a good." xlink:type="simple"><rect fill="#FEFECE" filter="url(#f1xqlzrzftkjxd)" height="83.1875" id="Service" style="stroke: #A80036; stroke-width: 1.5;" width="283" x="2229.75" y="188.5"/><rect fill="#FEFECE" height="23.9688" style="stroke: #A80036; stroke-width: 1.5;" width="283" x="2229.75" y="188.5"/><text fill="#000000" font-family="sans-serif" font-size="12" lengthAdjust="spacingAndGlyphs" textLength="45" x="2348.75" y="204.6387">Service</text><line style="stroke: #A80036; stroke-width: 1.5;" x1="2230.75" x2="2511.75" y1="212.4688" y2="212.4688"/><ellipse cx="2240.75" cy="224.3711" fill="#84BE84" rx="3" ry="3" style="stroke: #038048; stroke-width: 1.0;"/><text fill="#000000" font-family="sans-serif" font-size="11" lengthAdjust="spacingAndGlyphs" textLength="43" x="2249.75" y="226.6792">Amount</text><text fill="#000000" font-family="sans-serif" font-size="11" font-style="italic" lengthAdjust="spacingAndGlyphs" textLength="126" x="2296.75" y="226.6792">(CurrencyAndAmount)</text><ellipse cx="2240.75" cy="237.1758" fill="#84BE84" rx="3" ry="3" style="stroke: #038048; stroke-width: 1.0;"/><text fill="#000000" font-family="sans-serif" font-size="11" lengthAdjust="spacingAndGlyphs" textLength="27" x="2249.75" y="239.4839">Type</text><text fill="#000000" font-family="sans-serif" font-size="11" font-style="italic" lengthAdjust="spacingAndGlyphs" textLength="70" x="2280.75" y="239.4839">(Max35Text)</text><ellipse cx="2240.75" cy="249.9805" fill="#84BE84" rx="3" ry="3" style="stroke: #038048; stroke-width: 1.0;"/><text fill="#000000" font-family="sans-serif" font-size="11" lengthAdjust="spacingAndGlyphs" textLength="87" x="2249.75" y="252.2886">TaxDesignation</text><text fill="#000000" font-family="sans-serif" font-size="11" font-style="italic" lengthAdjust="spacingAndGlyphs" textLength="166" x="2340.75" y="252.2886">(ServiceTaxDesignationCode)</text><ellipse cx="2240.75" cy="262.7852" fill="#84BE84" rx="3" ry="3" style="stroke: #038048; stroke-width: 1.0;"/><text fill="#000000" font-family="sans-serif" font-size="11" lengthAdjust="spacingAndGlyphs" textLength="25" x="2249.75" y="265.0933">Rate</text><text fill="#000000" font-family="sans-serif" font-size="11" font-style="italic" lengthAdjust="spacingAndGlyphs" textLength="98" x="2278.75" y="265.0933">(PercentageRate)</text></a><!--class CardPayment--><a target="_top" xlink:actuate="onRequest" xlink:href="../CardPayment.html" xlink:show="new" xlink:title="Payment through an electronic money product." xlink:type="simple"><rect fill="#EEEEEE" filter="url(#f1xqlzrzftkjxd)" height="23.9688" id="CardPayment" style="stroke: #A80036; stroke-width: 1.5;" width="89" x="1384.75" y="454"/><rect fill="#EEEEEE" height="23.9688" style="stroke: #A80036; stroke-width: 1.5;" width="89" x="1384.75" y="454"/><text fill="#000000" font-family="sans-serif" font-size="12" lengthAdjust="spacingAndGlyphs" textLength="83" x="1387.75" y="470.1387">CardPayment</text></a><!--class Price--><a target="_top" xlink:actuate="onRequest" xlink:href="../Price.html" xlink:show="new" xlink:title="Amount of money for which goods, services or assets are offered, sold, or bought." xlink:type="simple"><rect fill="#EEEEEE" filter="url(#f1xqlzrzftkjxd)" height="23.9688" id="Price" style="stroke: #A80036; stroke-width: 1.5;" width="37" x="1435.75" y="352"/><rect fill="#EEEEEE" height="23.9688" style="stroke: #A80036; stroke-width: 1.5;" width="37" x="1435.75" y="352"/><text fill="#000000" font-family="sans-serif" font-size="12" lengthAdjust="spacingAndGlyphs" textLength="31" x="1438.75" y="368.1387">Price</text></a><!--class ProductCategory--><a target="_top" xlink:actuate="onRequest" xlink:href="../ProductCategory.html" xlink:show="new" xlink:title="Specifies the category of the product." xlink:type="simple"><rect fill="#EEEEEE" filter="url(#f1xqlzrzftkjxd)" height="23.9688" id="ProductCategory" style="stroke: #A80036; stroke-width: 1.5;" width="111" x="1362.75" y="218"/><rect fill="#EEEEEE" height="23.9688" style="stroke: #A80036; stroke-width: 1.5;" width="111" x="1362.75" y="218"/><text fill="#000000" font-family="sans-serif" font-size="12" lengthAdjust="spacingAndGlyphs" textLength="105" x="1365.75" y="234.1387">ProductCategory</text></a><!--class LineItem--><a target="_top" xlink:actuate="onRequest" xlink:href="../LineItem.html" xlink:show="new" xlink:title="Unit of information  showing the related  provision of products and/or services and monetary summations reported as a discrete line item." xlink:type="simple"><rect fill="#EEEEEE" filter="url(#f1xqlzrzftkjxd)" height="23.9688" id="LineItem" style="stroke: #A80036; stroke-width: 1.5;" width="58" x="1031.5" y="63"/><rect fill="#EEEEEE" height="23.9688" style="stroke: #A80036; stroke-width: 1.5;" width="58" x="1031.5" y="63"/><text fill="#000000" font-family="sans-serif" font-size="12" lengthAdjust="spacingAndGlyphs" textLength="52" x="1034.5" y="79.1387">LineItem</text></a><!--class ProductIdentification--><a target="_top" xlink:actuate="onRequest" xlink:href="../ProductIdentification.html" xlink:show="new" xlink:title="Information used to identify a product." xlink:type="simple"><rect fill="#EEEEEE" filter="url(#f1xqlzrzftkjxd)" height="23.9688" id="ProductIdentification" style="stroke: #A80036; stroke-width: 1.5;" width="136" x="1248" y="556"/><rect fill="#EEEEEE" height="23.9688" style="stroke: #A80036; stroke-width: 1.5;" width="136" x="1248" y="556"/><text fill="#000000" font-family="sans-serif" font-size="12" lengthAdjust="spacingAndGlyphs" textLength="130" x="1251" y="572.1387">ProductIdentification</text></a><!--class Country--><a target="_top" xlink:actuate="onRequest" xlink:href="../Country.html" xlink:show="new" xlink:title="Nation with its own government." xlink:type="simple"><rect fill="#EEEEEE" filter="url(#f1xqlzrzftkjxd)" height="23.9688" id="Country" style="stroke: #A80036; stroke-width: 1.5;" width="54" x="1295" y="454"/><rect fill="#EEEEEE" height="23.9688" style="stroke: #A80036; stroke-width: 1.5;" width="54" x="1295" y="454"/><text fill="#000000" font-family="sans-serif" font-size="12" lengthAdjust="spacingAndGlyphs" textLength="48" x="1298" y="470.1387">Country</text></a><!--class ProductCharacteristics--><a target="_top" xlink:actuate="onRequest" xlink:href="../ProductCharacteristics.html" xlink:show="new" xlink:title="Identifies the characteristic of a product." xlink:type="simple"><rect fill="#EEEEEE" filter="url(#f1xqlzrzftkjxd)" height="23.9688" id="ProductCharacteristics" style="stroke: #A80036; stroke-width: 1.5;" width="149" x="1141.75" y="352"/><rect fill="#EEEEEE" height="23.9688" style="stroke: #A80036; stroke-width: 1.5;" width="149" x="1141.75" y="352"/><text fill="#000000" font-family="sans-serif" font-size="12" lengthAdjust="spacingAndGlyphs" textLength="143" x="1144.75" y="368.1387">ProductCharacteristics</text></a><!--class ProductQuantity--><a target="_top" xlink:actuate="onRequest" xlink:href="../ProductQuantity.html" xlink:show="new" xlink:title="Specifies the ordered quantity of a product." xlink:type="simple"><rect fill="#EEEEEE" filter="url(#f1xqlzrzftkjxd)" height="23.9688" id="ProductQuantity" style="stroke: #A80036; stroke-width: 1.5;" width="107" x="1177.75" y="218"/><rect fill="#EEEEEE" height="23.9688" style="stroke: #A80036; stroke-width: 1.5;" width="107" x="1177.75" y="218"/><text fill="#000000" font-family="sans-serif" font-size="12" lengthAdjust="spacingAndGlyphs" textLength="101" x="1180.75" y="234.1387">ProductQuantity</text></a><!--class ProductDelivery--><a target="_top" xlink:actuate="onRequest" xlink:href="../ProductDelivery.html" xlink:show="new" xlink:title="Arrangements for delivery of invoiced products and/or services." xlink:type="simple"><rect fill="#EEEEEE" filter="url(#f1xqlzrzftkjxd)" height="23.9688" id="ProductDelivery" style="stroke: #A80036; stroke-width: 1.5;" width="103" x="1369.75" y="728"/><rect fill="#EEEEEE" height="23.9688" style="stroke: #A80036; stroke-width: 1.5;" width="103" x="1369.75" y="728"/><text fill="#000000" font-family="sans-serif" font-size="12" lengthAdjust="spacingAndGlyphs" textLength="97" x="1372.75" y="744.1387">ProductDelivery</text></a><!--class PurchaseOrder--><a target="_top" xlink:actuate="onRequest" xlink:href="../PurchaseOrder.html" xlink:show="new" xlink:title="Document issued by a buyer and containing the details of a purchase, including description of goods, transport information, payment terms, etc." xlink:type="simple"><rect fill="#EEEEEE" filter="url(#f1xqlzrzftkjxd)" height="23.9688" id="PurchaseOrder" style="stroke: #A80036; stroke-width: 1.5;" width="100" x="1373" y="642"/><rect fill="#EEEEEE" height="23.9688" style="stroke: #A80036; stroke-width: 1.5;" width="100" x="1373" y="642"/><text fill="#000000" font-family="sans-serif" font-size="12" lengthAdjust="spacingAndGlyphs" textLength="94" x="1376" y="658.1387">PurchaseOrder</text></a><!--class Tax--><a target="_top" xlink:actuate="onRequest" xlink:href="../Tax.html" xlink:show="new" xlink:title="Amount of money due to the government or tax authority, according to various pre-defined parameters such as thresholds or income." xlink:type="simple"><rect fill="#EEEEEE" filter="url(#f1xqlzrzftkjxd)" height="23.9688" id="Tax" style="stroke: #A80036; stroke-width: 1.5;" width="27" x="1419.75" y="556"/><rect fill="#EEEEEE" height="23.9688" style="stroke: #A80036; stroke-width: 1.5;" width="27" x="1419.75" y="556"/><text fill="#000000" font-family="sans-serif" font-size="12" lengthAdjust="spacingAndGlyphs" textLength="21" x="1422.75" y="572.1387">Tax</text></a><!--entity ##370--><!--link Product to Service--><path d="M2334.45,129.136 C2341.54,148.523 2349.45,170.125 2356.09,188.264 " fill="none" id="Product-Service" style="stroke: #A80036; stroke-width: 1.0;"/><polygon fill="none" points="2327.87,131.524,2327.57,110.336,2341.02,126.712,2327.87,131.524" style="stroke: #A80036; stroke-width: 1.0;"/><!--link Price to CardPayment--><!--link ProductCategory to Price--><!--link LineItem to ProductCategory--><!--link ProductIdentification to LineItem--><!--link Country to ProductIdentification--><!--link ProductCharacteristics to Country--><!--link ProductQuantity to ProductCharacteristics--><!--link ProductDelivery to ProductQuantity--><!--link PurchaseOrder to ProductDelivery--><!--link Tax to PurchaseOrder--><!--link Product to CardPayment--><path d="M2229.7,82.025 C2133.12,90.284 1983.18,107.89 1937,140 C1871.28,185.699 1898.09,234.377 1847,296 C1833.07,312.803 1717.83,414.892 1698,424 C1626.67,456.754 1534.63,464.262 1478.8,465.498 " fill="none" id="Product-CardPayment" style="stroke: #A80036; stroke-width: 1.0;"/><polygon fill="#A80036" points="1473.51,465.599,1482.5773,469.4441,1478.5093,465.5133,1482.4401,461.4453,1473.51,465.599" style="stroke: #A80036; stroke-width: 1.0;"/><text fill="#000000" font-family="sans-serif" font-size="13" lengthAdjust="spacingAndGlyphs" textLength="87" x="1841" y="317.0669">CardPayment</text><text fill="#000000" font-family="sans-serif" font-size="13" lengthAdjust="spacingAndGlyphs" textLength="8" x="1481.8047" y="460.1501">1</text><!--link Product to Price--><path d="M2229.49,79.883 C2127.3,86.088 1951.8,101.729 1806,140 C1785.56,145.364 1782.24,151.951 1762,158 C1695.19,177.964 1668.49,153.306 1608,188 C1537.78,228.276 1483.28,312.447 1462.8,347.333 " fill="none" id="Product-Price" style="stroke: #A80036; stroke-width: 1.0;"/><polygon fill="#A80036" points="1460.25,351.725,1468.2347,345.9592,1462.7654,347.4038,1461.3209,341.9345,1460.25,351.725" style="stroke: #A80036; stroke-width: 1.0;"/><text fill="#000000" font-family="sans-serif" font-size="13" lengthAdjust="spacingAndGlyphs" textLength="57" x="1609" y="234.0669">UnitPrice</text><text fill="#000000" font-family="sans-serif" font-size="13" lengthAdjust="spacingAndGlyphs" textLength="7" x="1452.7469" y="340.9373">*</text><!--link Product to Price--><path d="M2229.43,80.535 C2134.47,87.209 1977.41,103.154 1847,140 C1840.63,141.799 1742.98,183.644 1738,188 C1695.65,225.03 1716.43,261.501 1672,296 C1612.32,342.34 1520.47,356.824 1477.58,361.194 " fill="none" id="Product-Price" style="stroke: #A80036; stroke-width: 1.0;"/><polygon fill="#A80036" points="1472.35,361.701,1481.696,364.8077,1477.3263,361.2152,1480.9188,356.8455,1472.35,361.701" style="stroke: #A80036; stroke-width: 1.0;"/><text fill="#000000" font-family="sans-serif" font-size="13" lengthAdjust="spacingAndGlyphs" textLength="54" x="1739" y="234.0669">NetPrice</text><text fill="#000000" font-family="sans-serif" font-size="13" lengthAdjust="spacingAndGlyphs" textLength="24" x="1480.8156" y="354.7537">0..1</text><!--link Product to Price--><path d="M2400.45,97.071 C2447.47,113.504 2501.84,141.581 2530,188 C2554.9,229.039 2562.87,261.02 2530,296 C2511.32,315.883 1633.54,355.15 1477.57,361.976 " fill="none" id="Product-Price" style="stroke: #A80036; stroke-width: 1.0;"/><polygon fill="#A80036" points="1472.33,362.205,1481.4932,365.8155,1477.3254,361.9907,1481.1503,357.8229,1472.33,362.205" style="stroke: #A80036; stroke-width: 1.0;"/><text fill="#000000" font-family="sans-serif" font-size="13" lengthAdjust="spacingAndGlyphs" textLength="68" x="2552" y="234.0669">GrossPrice</text><text fill="#000000" font-family="sans-serif" font-size="13" lengthAdjust="spacingAndGlyphs" textLength="24" x="1480.79" y="375.8995">0..1</text><!--link Product to ProductCategory--><path d="M2229.7,80.286 C2075.18,88.695 1755.06,109.255 1648,140 C1630.81,144.938 1628.43,150.915 1612,158 C1559.21,180.772 1496.46,202.864 1456.93,216.2 " fill="none" id="Product-ProductCategory" style="stroke: #A80036; stroke-width: 1.0;"/><polygon fill="#A80036" points="1451.75,217.942,1461.5541,218.8801,1456.4917,216.3557,1459.016,211.2933,1451.75,217.942" style="stroke: #A80036; stroke-width: 1.0;"/><text fill="#000000" font-family="sans-serif" font-size="13" lengthAdjust="spacingAndGlyphs" textLength="107" x="1649" y="153.0669">ProductCategory</text><text fill="#000000" font-family="sans-serif" font-size="13" lengthAdjust="spacingAndGlyphs" textLength="7" x="1453.7188" y="206.9703">*</text><!--link Product to LineItem--><path d="M2229.36,75 C1979.44,75 1258.35,75 1093.73,75 " fill="none" id="Product-LineItem" style="stroke: #A80036; stroke-width: 1.0;"/><polygon fill="#A80036" points="1088.57,75,1097.57,79,1093.57,75,1097.57,71,1088.57,75" style="stroke: #A80036; stroke-width: 1.0;"/><text fill="#000000" font-family="sans-serif" font-size="13" lengthAdjust="spacingAndGlyphs" textLength="55" x="1630.75" y="67.0669">LineItem</text><text fill="#000000" font-family="sans-serif" font-size="13" lengthAdjust="spacingAndGlyphs" textLength="24" x="1097.3353" y="69.2255">0..1</text><!--link Product to ProductIdentification--><path d="M2229.67,80.393 C2174.56,86.941 2103.73,102.678 2052,140 C1974.59,195.843 2011.92,261.614 1938,322 C1908.59,346.024 1892.23,335.559 1858,352 C1801.59,379.094 1793.83,397.793 1737,424 C1605.99,484.417 1441.88,532.835 1362.83,554.573 " fill="none" id="Product-ProductIdentification" style="stroke: #A80036; stroke-width: 1.0;"/><polygon fill="#A80036" points="1357.75,555.966,1367.4852,557.4582,1362.574,554.651,1365.3812,549.7398,1357.75,555.966" style="stroke: #A80036; stroke-width: 1.0;"/><text fill="#000000" font-family="sans-serif" font-size="13" lengthAdjust="spacingAndGlyphs" textLength="130" x="1859" y="368.0669">ProductIdentification</text><text fill="#000000" font-family="sans-serif" font-size="13" lengthAdjust="spacingAndGlyphs" textLength="7" x="1362.5547" y="545.0025">*</text><!--link Product to Country--><path d="M2229.45,77.907 C2145.06,82.419 2013.83,96.595 1909,140 C1875.49,153.876 1865.37,159.445 1843,188 C1811.04,228.804 1837.04,260.791 1799,296 C1790.44,303.925 1785.05,300.264 1774,304 C1615.82,357.464 1428.25,425.906 1354.28,453.096 " fill="none" id="Product-Country" style="stroke: #A80036; stroke-width: 1.0;"/><polygon fill="#A80036" points="1349.15,454.981,1358.9779,455.6237,1353.8418,453.2528,1356.2128,448.1168,1349.15,454.981" style="stroke: #A80036; stroke-width: 1.0;"/><text fill="#000000" font-family="sans-serif" font-size="13" lengthAdjust="spacingAndGlyphs" textLength="37" x="1775" y="317.0669">Origin</text><text fill="#000000" font-family="sans-serif" font-size="13" lengthAdjust="spacingAndGlyphs" textLength="8" x="1357.1322" y="446.0672">1</text><!--link Product to ProductCharacteristics--><path d="M2229.54,80.43 C2083.36,88.55 1776.12,107.986 1518,140 C1470.14,145.936 1458.84,151.93 1411,158 C1372.39,162.899 1088.32,159.325 1062,188 C1029.54,223.365 1035.69,255.855 1062,296 C1080.74,324.586 1114.61,341.041 1145.82,350.481 " fill="none" id="Product-ProductCharacteristics" style="stroke: #A80036; stroke-width: 1.0;"/><polygon fill="#A80036" points="1150.81,351.937,1143.29,345.577,1146.01,350.537,1141.05,353.257,1150.81,351.937" style="stroke: #A80036; stroke-width: 1.0;"/><text fill="#000000" font-family="sans-serif" font-size="13" lengthAdjust="spacingAndGlyphs" textLength="95" x="1063" y="234.0669">Characteristics</text><text fill="#000000" font-family="sans-serif" font-size="13" lengthAdjust="spacingAndGlyphs" textLength="7" x="1126.6364" y="343.2677">*</text><!--link Product to ProductQuantity--><path d="M2229.53,78.537 C2056.92,84.409 1672.51,101.482 1547,140 C1531.4,144.787 1530.36,152.504 1515,158 C1442.76,183.841 1419.15,168.279 1345,188 C1316.54,195.571 1285.1,207.128 1262.46,216.044 " fill="none" id="Product-ProductQuantity" style="stroke: #A80036; stroke-width: 1.0;"/><polygon fill="#A80036" points="1257.77,217.904,1267.6107,218.3057,1262.4181,216.0613,1264.6624,210.8688,1257.77,217.904" style="stroke: #A80036; stroke-width: 1.0;"/><text fill="#000000" font-family="sans-serif" font-size="13" lengthAdjust="spacingAndGlyphs" textLength="54" x="1548" y="153.0669">Quantity</text><text fill="#000000" font-family="sans-serif" font-size="13" lengthAdjust="spacingAndGlyphs" textLength="7" x="1268.0894" y="206.9192">*</text><!--link Product to ProductDelivery--><path d="M2270.85,110.041 C2248.64,130.03 2223.95,157.358 2212,188 C2194.56,232.721 2204.74,248.552 2212,296 C2216.72,326.847 2233,331.794 2233,363 C2233,363 2233,363 2233,655 C2233,731.0845 1661.65,738.6305 1477.48,739.0865 " fill="none" id="Product-ProductDelivery" style="stroke: #A80036; stroke-width: 1.0;"/><polygon fill="#A80036" points="1472.41,739.0975,1481.41,743.0975,1477.41,739.0975,1481.41,735.0975,1472.41,739.0975" style="stroke: #A80036; stroke-width: 1.0;"/><text fill="#000000" font-family="sans-serif" font-size="13" lengthAdjust="spacingAndGlyphs" textLength="51" x="2234" y="470.0669">Delivery</text><text fill="#000000" font-family="sans-serif" font-size="13" lengthAdjust="spacingAndGlyphs" textLength="8" x="1480.8564" y="733.7372">1</text><!--link Product to PurchaseOrder--><path d="M2229.45,90.956 C2200.11,100.299 2169.73,115.449 2150,140 C2072.88,235.988 2109,290.866 2109,414 C2109,414 2109,414 2112,569 C2112,632.702 1641.92,648.48 1478.33,652.041 " fill="none" id="Product-PurchaseOrder" style="stroke: #A80036; stroke-width: 1.0;"/><polygon fill="#A80036" points="1473.11,652.153,1482.1882,655.9722,1478.109,652.053,1482.0282,647.9738,1473.11,652.153" style="stroke: #A80036; stroke-width: 1.0;"/><text fill="#000000" font-family="sans-serif" font-size="13" lengthAdjust="spacingAndGlyphs" textLength="95" x="2110" y="419.0669">PurchaseOrder</text><text fill="#000000" font-family="sans-serif" font-size="13" lengthAdjust="spacingAndGlyphs" textLength="7" x="1480.984" y="646.7122">*</text><!--link Product to Tax--><path d="M2229.73,82.083 C2181.05,89.426 2121.45,105.406 2079,140 C2044.64,168 2034,184.676 2034,229 C2034,229 2034,229 2034,467 C2034,527.596 1552.46,559.834 1451.45,565.93 " fill="none" id="Product-Tax" style="stroke: #A80036; stroke-width: 1.0;"/><polygon fill="#A80036" points="1446.4,566.232,1455.6238,569.6848,1451.391,565.932,1455.1438,561.6993,1446.4,566.232" style="stroke: #A80036; stroke-width: 1.0;"/><text fill="#000000" font-family="sans-serif" font-size="13" lengthAdjust="spacingAndGlyphs" textLength="22" x="2035" y="368.0669">Tax</text><text fill="#000000" font-family="sans-serif" font-size="13" lengthAdjust="spacingAndGlyphs" textLength="7" x="1454.9331" y="557.0786">*</text><!--link LineItem to ProductQuantity--><path d="M1088.63,78.757 C1125.37,83.935 1188.13,98.65 1220,140 C1236.16,160.965 1235.71,193.338 1233.58,212.719 " fill="none" id="LineItem-ProductQuantity" style="stroke: #A80036; stroke-width: 1.0;"/><polygon fill="#A80036" points="1232.95,217.821,1238.0264,209.3812,1233.5649,212.859,1230.0872,208.3974,1232.95,217.821" style="stroke: #A80036; stroke-width: 1.0;"/><text fill="#000000" font-family="sans-serif" font-size="13" lengthAdjust="spacingAndGlyphs" textLength="66" x="1230" y="153.0669">NetWeight</text><text fill="#000000" font-family="sans-serif" font-size="13" lengthAdjust="spacingAndGlyphs" textLength="8" x="1222.8156" y="206.8077">1</text><!--link LineItem to ProductQuantity--><path d="M1088.94,79.152 C1148.07,86.249 1279.41,105.611 1306,140 C1327.12,167.313 1286.64,197.813 1257.38,215.078 " fill="none" id="LineItem-ProductQuantity" style="stroke: #A80036; stroke-width: 1.0;"/><polygon fill="#A80036" points="1252.79,217.733,1262.5839,216.6942,1257.1194,215.2317,1258.5819,209.7672,1252.79,217.733" style="stroke: #A80036; stroke-width: 1.0;"/><text fill="#000000" font-family="sans-serif" font-size="13" lengthAdjust="spacingAndGlyphs" textLength="88" x="1313" y="153.0669">BilledQuantity</text><text fill="#000000" font-family="sans-serif" font-size="13" lengthAdjust="spacingAndGlyphs" textLength="7" x="1250.4345" y="206.948">*</text><!--link LineItem to ProductQuantity--><path d="M1031.49,76.775 C873.705,81.199 113.422,104.324 80,140 C74.5306,145.838 74.423,152.264 80,158 C121.457,200.635 1092.36,173.385 1150,188 C1171.79,193.523 1194.43,205.614 1210.22,215.242 " fill="none" id="LineItem-ProductQuantity" style="stroke: #A80036; stroke-width: 1.0;"/><polygon fill="#A80036" points="1214.49,217.885,1208.9397,209.749,1210.2376,215.2549,1204.7317,216.5528,1214.49,217.885" style="stroke: #A80036; stroke-width: 1.0;"/><text fill="#000000" font-family="sans-serif" font-size="13" lengthAdjust="spacingAndGlyphs" textLength="128" x="81" y="153.0669">ChargeFreeQuantity</text><text fill="#000000" font-family="sans-serif" font-size="13" lengthAdjust="spacingAndGlyphs" textLength="7" x="1209.9319" y="206.8937">*</text><!--link LineItem to ProductQuantity--><path d="M1031.5,76.022 C894.162,76.418 305.023,81.535 251,140 C245.571,145.876 245.438,152.25 251,158 C285.741,193.92 1101.59,175.59 1150,188 C1171.77,193.581 1194.42,205.666 1210.21,215.277 " fill="none" id="LineItem-ProductQuantity" style="stroke: #A80036; stroke-width: 1.0;"/><polygon fill="#A80036" points="1214.48,217.914,1208.9273,209.7797,1210.2268,215.2852,1204.7213,216.5848,1214.48,217.914" style="stroke: #A80036; stroke-width: 1.0;"/><text fill="#000000" font-family="sans-serif" font-size="13" lengthAdjust="spacingAndGlyphs" textLength="244" x="252" y="153.0669">MeasureQuantityStartRelatedLineItem</text><text fill="#000000" font-family="sans-serif" font-size="13" lengthAdjust="spacingAndGlyphs" textLength="8" x="1197.9966" y="206.9327">1</text><!--link LineItem to ProductQuantity--><path d="M1031.11,76.053 C911.9,76.746 467.782,84.256 538,158 C584.948,207.305 1084.19,170.578 1150,188 C1171.73,193.751 1194.38,205.816 1210.19,215.377 " fill="none" id="LineItem-ProductQuantity" style="stroke: #A80036; stroke-width: 1.0;"/><polygon fill="#A80036" points="1214.46,218,1208.8802,209.8842,1210.1981,215.3854,1204.6969,216.7033,1214.46,218" style="stroke: #A80036; stroke-width: 1.0;"/><text fill="#000000" font-family="sans-serif" font-size="13" lengthAdjust="spacingAndGlyphs" textLength="236" x="539" y="153.0669">MeasureQuantityEndRelatedLineItem</text><text fill="#000000" font-family="sans-serif" font-size="13" lengthAdjust="spacingAndGlyphs" textLength="8" x="1210.0634" y="207.0482">1</text><!--link LineItem to ProductQuantity--><path d="M1031.26,76.351 C954.468,78.204 754.446,89.557 817,158 C867.125,212.844 1078.58,167.523 1150,188 C1171.15,194.062 1193.31,205.7 1209.1,215.033 " fill="none" id="LineItem-ProductQuantity" style="stroke: #A80036; stroke-width: 1.0;"/><polygon fill="#A80036" points="1213.78,217.846,1208.1391,209.7726,1209.4985,215.2637,1204.0074,216.623,1213.78,217.846" style="stroke: #A80036; stroke-width: 1.0;"/><text fill="#000000" font-family="sans-serif" font-size="13" lengthAdjust="spacingAndGlyphs" textLength="122" x="818" y="153.0669">GrossPriceQuantity</text><text fill="#000000" font-family="sans-serif" font-size="13" lengthAdjust="spacingAndGlyphs" textLength="7" x="1198.2278" y="206.8413">*</text><!--link LineItem to ProductQuantity--><path d="M1035.66,87.12 C1005.25,102.507 959.738,131.41 982,158 C1030.69,216.156 1078.07,163.951 1150,188 C1170.59,194.884 1192.48,206.231 1208.3,215.244 " fill="none" id="LineItem-ProductQuantity" style="stroke: #A80036; stroke-width: 1.0;"/><polygon fill="#A80036" points="1213.01,217.959,1207.2147,209.9957,1208.6795,215.4596,1203.2156,216.9244,1213.01,217.959" style="stroke: #A80036; stroke-width: 1.0;"/><text fill="#000000" font-family="sans-serif" font-size="13" lengthAdjust="spacingAndGlyphs" textLength="108" x="983" y="153.0669">NetPriceQuantity</text><text fill="#000000" font-family="sans-serif" font-size="13" lengthAdjust="spacingAndGlyphs" textLength="7" x="1162.941" y="221.7768">*</text><!--link LineItem to ProductQuantity--><path d="M1067.89,87.146 C1079.93,103.708 1104.12,135.3 1129,158 C1153.7,180.539 1185.88,201.809 1207.42,215.086 " fill="none" id="LineItem-ProductQuantity" style="stroke: #A80036; stroke-width: 1.0;"/><polygon fill="#A80036" points="1211.85,217.796,1206.2468,209.6963,1207.5806,215.1937,1202.0832,216.5275,1211.85,217.796" style="stroke: #A80036; stroke-width: 1.0;"/><text fill="#000000" font-family="sans-serif" font-size="13" lengthAdjust="spacingAndGlyphs" textLength="80" x="1130" y="153.0669">GrossWeight</text><text fill="#000000" font-family="sans-serif" font-size="13" lengthAdjust="spacingAndGlyphs" textLength="7" x="1195.9331" y="207.0319">*</text><!--link Country to Tax--><path d="M1334.3,478.084 C1354.39,496.18 1394.23,532.073 1416.66,552.283 " fill="none" id="Country-Tax" style="stroke: #A80036; stroke-width: 1.0;"/><polygon fill="#A80036" points="1420.64,555.867,1416.6262,546.8731,1416.9235,552.5222,1411.2745,552.8195,1420.64,555.867" style="stroke: #A80036; stroke-width: 1.0;"/><text fill="#000000" font-family="sans-serif" font-size="13" lengthAdjust="spacingAndGlyphs" textLength="22" x="1389" y="521.0669">Tax</text><text fill="#000000" font-family="sans-serif" font-size="13" lengthAdjust="spacingAndGlyphs" textLength="8" x="1405.5866" y="544.8695">1</text></g></svg>