<?xml version="1.0" encoding="UTF-8" standalone="no"?><svg xmlns="http://www.w3.org/2000/svg" xmlns:xlink="http://www.w3.org/1999/xlink" contentScriptType="application/ecmascript" contentStyleType="text/css" height="516px" preserveAspectRatio="none" style="width:1553px;height:516px;" version="1.1" viewBox="0 0 1553 516" width="1553px" zoomAndPan="magnify"><defs><filter height="300%" id="f17yhuhbszwtnl" width="300%" x="-1" y="-1"><feGaussianBlur result="blurOut" stdDeviation="2.0"/><feColorMatrix in="blurOut" result="blurOut2" type="matrix" values="0 0 0 0 0 0 0 0 0 0 0 0 0 0 0 0 0 0 .4 0"/><feOffset dx="4.0" dy="4.0" in="blurOut2" result="blurOut3"/><feBlend in="SourceGraphic" in2="blurOut3" mode="normal"/></filter></defs><g><!--cluster ##7915--><!--cluster ##7927--><!--cluster ##7936--><!--cluster ##7941--><!--cluster ##7946--><!--class Role--><a target="_top" xlink:actuate="onRequest" xlink:href="../Role.html" xlink:show="new" xlink:title="Role of a party in an activity." xlink:type="simple"><rect fill="#FEFEEE" filter="url(#f17yhuhbszwtnl)" height="44.7734" id="Role" style="stroke: #A80036; stroke-width: 1.5;" width="175" x="94.75" y="40.5"/><rect fill="#FEFEEE" height="23.9688" style="stroke: #A80036; stroke-width: 1.5;" width="175" x="94.75" y="40.5"/><text fill="#000000" font-family="sans-serif" font-size="12" lengthAdjust="spacingAndGlyphs" textLength="27" x="168.75" y="56.6387">Role</text><line style="stroke: #A80036; stroke-width: 1.5;" x1="95.75" x2="268.75" y1="64.4688" y2="64.4688"/><ellipse cx="105.75" cy="76.3711" fill="#84BE84" rx="3" ry="3" style="stroke: #038048; stroke-width: 1.0;"/><text fill="#000000" font-family="sans-serif" font-size="11" lengthAdjust="spacingAndGlyphs" textLength="53" x="114.75" y="78.6792">PartyRole</text><text fill="#000000" font-family="sans-serif" font-size="11" font-style="italic" lengthAdjust="spacingAndGlyphs" textLength="92" x="171.75" y="78.6792">(PartyRoleCode)</text></a><!--class SettlementPartyRole--><a target="_top" xlink:actuate="onRequest" xlink:href="../SettlementPartyRole.html" xlink:show="new" xlink:title="Role played by a party in a settlement process." xlink:type="simple"><rect fill="#FEFEEE" filter="url(#f17yhuhbszwtnl)" height="23.9688" id="SettlementPartyRole" style="stroke: #A80036; stroke-width: 1.5;" width="134" x="132" y="166"/><rect fill="#FEFEEE" height="23.9688" style="stroke: #A80036; stroke-width: 1.5;" width="134" x="132" y="166"/><text fill="#000000" font-family="sans-serif" font-size="12" lengthAdjust="spacingAndGlyphs" textLength="128" x="135" y="182.1387">SettlementPartyRole</text></a><!--class CashSettlementInstructionPartyRole--><a target="_top" xlink:actuate="onRequest" xlink:href="../CashSettlementInstructionPartyRole.html" xlink:show="new" xlink:title="Role played by a party in cash settlement." xlink:type="simple"><rect fill="#FEFEEE" filter="url(#f17yhuhbszwtnl)" height="23.9688" id="CashSettlementInstructionPartyRole" style="stroke: #A80036; stroke-width: 1.5;" width="232" x="38.5" y="270"/><rect fill="#FEFEEE" height="23.9688" style="stroke: #A80036; stroke-width: 1.5;" width="232" x="38.5" y="270"/><text fill="#000000" font-family="sans-serif" font-size="12" lengthAdjust="spacingAndGlyphs" textLength="226" x="41.5" y="286.1387">CashSettlementInstructionPartyRole</text></a><!--class SettlementInstructionSystemRole--><a target="_top" xlink:actuate="onRequest" xlink:href="../SettlementInstructionSystemRole.html" xlink:show="new" xlink:title="Identification of a specific system or set of rules and/or processes to be applied at the settlement place." xlink:type="simple"><rect fill="#FEFECE" filter="url(#f17yhuhbszwtnl)" height="23.9688" id="SettlementInstructionSystemRole" style="stroke: #A80036; stroke-width: 1.5;" width="214" x="47.5" y="374"/><rect fill="#FEFECE" height="23.9688" style="stroke: #A80036; stroke-width: 1.5;" width="214" x="47.5" y="374"/><text fill="#000000" font-family="sans-serif" font-size="12" lengthAdjust="spacingAndGlyphs" textLength="208" x="50.5" y="390.1387">SettlementInstructionSystemRole</text></a><!--class RolePlayer--><a target="_top" xlink:actuate="onRequest" xlink:href="../RolePlayer.html" xlink:show="new" xlink:title="Type of entity that plays a specific role in a specific context." xlink:type="simple"><rect fill="#EEEEEE" filter="url(#f17yhuhbszwtnl)" height="23.9688" id="RolePlayer" style="stroke: #A80036; stroke-width: 1.5;" width="71" x="1128.75" y="482"/><rect fill="#EEEEEE" height="23.9688" style="stroke: #A80036; stroke-width: 1.5;" width="71" x="1128.75" y="482"/><text fill="#000000" font-family="sans-serif" font-size="12" lengthAdjust="spacingAndGlyphs" textLength="65" x="1131.75" y="498.1387">RolePlayer</text></a><!--class ContactPersonRole--><a target="_top" xlink:actuate="onRequest" xlink:href="../ContactPersonRole.html" xlink:show="new" xlink:title="Person to be contacted in a given organisation. In the corporate action domain (including meeting notifications) , it is the contact person at the party organising the meeting, at the issuer or at an intermediary." xlink:type="simple"><rect fill="#EEEEEE" filter="url(#f17yhuhbszwtnl)" height="23.9688" id="ContactPersonRole" style="stroke: #A80036; stroke-width: 1.5;" width="126" x="1081" y="374"/><rect fill="#EEEEEE" height="23.9688" style="stroke: #A80036; stroke-width: 1.5;" width="126" x="1081" y="374"/><text fill="#000000" font-family="sans-serif" font-size="12" lengthAdjust="spacingAndGlyphs" textLength="120" x="1084" y="390.1387">ContactPersonRole</text></a><!--class CounterpartyRisk--><a target="_top" xlink:actuate="onRequest" xlink:href="../CounterpartyRisk.html" xlink:show="new" xlink:title="Calculation of the exposure amount that one party has vis-a-vis one counterparty or a central system, based on its credit risk." xlink:type="simple"><rect fill="#EEEEEE" filter="url(#f17yhuhbszwtnl)" height="23.9688" id="CounterpartyRisk" style="stroke: #A80036; stroke-width: 1.5;" width="113" x="1093.75" y="270"/><rect fill="#EEEEEE" height="23.9688" style="stroke: #A80036; stroke-width: 1.5;" width="113" x="1093.75" y="270"/><text fill="#000000" font-family="sans-serif" font-size="12" lengthAdjust="spacingAndGlyphs" textLength="107" x="1096.75" y="286.1387">CounterpartyRisk</text></a><!--class Entry--><a target="_top" xlink:actuate="onRequest" xlink:href="../Entry.html" xlink:show="new" xlink:title="Posting to an account that results in an increase or decrease to a balance." xlink:type="simple"><rect fill="#EEEEEE" filter="url(#f17yhuhbszwtnl)" height="23.9688" id="Entry" style="stroke: #A80036; stroke-width: 1.5;" width="38" x="1081" y="166"/><rect fill="#EEEEEE" height="23.9688" style="stroke: #A80036; stroke-width: 1.5;" width="38" x="1081" y="166"/><text fill="#000000" font-family="sans-serif" font-size="12" lengthAdjust="spacingAndGlyphs" textLength="32" x="1084" y="182.1387">Entry</text></a><!--class Account--><a target="_top" xlink:actuate="onRequest" xlink:href="../Account.html" xlink:show="new" xlink:title="Record of transactions in specific types of assets, maintained by a servicing party on behalf of one or more owning parties. Business relationship between an account servicer and one or more account owners." xlink:type="simple"><rect fill="#EEEEEE" filter="url(#f17yhuhbszwtnl)" height="23.9688" id="Account" style="stroke: #A80036; stroke-width: 1.5;" width="57" x="661.75" y="374"/><rect fill="#EEEEEE" height="23.9688" style="stroke: #A80036; stroke-width: 1.5;" width="57" x="661.75" y="374"/><text fill="#000000" font-family="sans-serif" font-size="12" lengthAdjust="spacingAndGlyphs" textLength="51" x="664.75" y="390.1387">Account</text></a><!--class Settlement--><a target="_top" xlink:actuate="onRequest" xlink:href="../Settlement.html" xlink:show="new" xlink:title="Process which consists in transferring the proceeds related to a trade from one party to the next one." xlink:type="simple"><rect fill="#EEEEEE" filter="url(#f17yhuhbszwtnl)" height="23.9688" id="Settlement" style="stroke: #A80036; stroke-width: 1.5;" width="75" x="660.75" y="270"/><rect fill="#EEEEEE" height="23.9688" style="stroke: #A80036; stroke-width: 1.5;" width="75" x="660.75" y="270"/><text fill="#000000" font-family="sans-serif" font-size="12" lengthAdjust="spacingAndGlyphs" textLength="69" x="663.75" y="286.1387">Settlement</text></a><!--class CashAccount--><a target="_top" xlink:actuate="onRequest" xlink:href="../CashAccount.html" xlink:show="new" xlink:title="Account to or from which a cash entry is made." xlink:type="simple"><rect fill="#EEEEEE" filter="url(#f17yhuhbszwtnl)" height="23.9688" id="CashAccount" style="stroke: #A80036; stroke-width: 1.5;" width="88" x="326.5" y="374"/><rect fill="#EEEEEE" height="23.9688" style="stroke: #A80036; stroke-width: 1.5;" width="88" x="326.5" y="374"/><text fill="#000000" font-family="sans-serif" font-size="12" lengthAdjust="spacingAndGlyphs" textLength="82" x="329.5" y="390.1387">CashAccount</text></a><!--class CashSettlement--><a target="_top" xlink:actuate="onRequest" xlink:href="../CashSettlement.html" xlink:show="new" xlink:title="Instruction between two financial institutions stipulating the cash transfer characteristics between the two parties." xlink:type="simple"><rect fill="#EEEEEE" filter="url(#f17yhuhbszwtnl)" height="23.9688" id="CashSettlement" style="stroke: #A80036; stroke-width: 1.5;" width="106" x="452.5" y="482"/><rect fill="#EEEEEE" height="23.9688" style="stroke: #A80036; stroke-width: 1.5;" width="106" x="452.5" y="482"/><text fill="#000000" font-family="sans-serif" font-size="12" lengthAdjust="spacingAndGlyphs" textLength="100" x="455.5" y="498.1387">CashSettlement</text></a><!--class CashClearingSystem--><a target="_top" xlink:actuate="onRequest" xlink:href="../CashClearingSystem.html" xlink:show="new" xlink:title="Clearing system that processes only cash transfers." xlink:type="simple"><rect fill="#EEEEEE" filter="url(#f17yhuhbszwtnl)" height="23.9688" id="CashClearingSystem" style="stroke: #A80036; stroke-width: 1.5;" width="133" x="87.75" y="482"/><rect fill="#EEEEEE" height="23.9688" style="stroke: #A80036; stroke-width: 1.5;" width="133" x="87.75" y="482"/><text fill="#000000" font-family="sans-serif" font-size="12" lengthAdjust="spacingAndGlyphs" textLength="127" x="90.75" y="498.1387">CashClearingSystem</text></a><!--link Role to SettlementPartyRole--><path d="M188.252,105.559 C191.502,127.159 195.224,151.898 197.325,165.865 " fill="none" id="Role-SettlementPartyRole" style="stroke: #A80036; stroke-width: 1.0;"/><polygon fill="none" points="181.291,106.339,185.238,85.52,195.135,104.256,181.291,106.339" style="stroke: #A80036; stroke-width: 1.0;"/><!--link SettlementPartyRole to CashSettlementInstructionPartyRole--><path d="M185.923,208.642 C176.857,229.191 165.301,255.385 158.873,269.954 " fill="none" id="SettlementPartyRole-CashSettlementInstructionPartyRole" style="stroke: #A80036; stroke-width: 1.0;"/><polygon fill="none" points="179.535,205.778,194.012,190.306,192.344,211.429,179.535,205.778" style="stroke: #A80036; stroke-width: 1.0;"/><!--link CashSettlementInstructionPartyRole to SettlementInstructionSystemRole--><path d="M154,314.595 C154,334.825 154,359.843 154,373.954 " fill="none" id="CashSettlementInstructionPartyRole-SettlementInstructionSystemRole" style="stroke: #A80036; stroke-width: 1.0;"/><polygon fill="none" points="147,314.306,154,294.306,161,314.305,147,314.306" style="stroke: #A80036; stroke-width: 1.0;"/><!--link ContactPersonRole to RolePlayer--><!--link CounterpartyRisk to ContactPersonRole--><!--link Entry to CounterpartyRisk--><!--link Settlement to Account--><!--link CashSettlement to CashAccount--><!--link CashAccount to CashSettlement--><path d="M361.883,398.369 C353.289,411.932 342.441,434.69 354,450 C365.514,465.25 409.708,476.6937 447.333,483.9261 " fill="none" id="CashAccount-CashSettlement" style="stroke: #A80036; stroke-width: 1.0;"/><polygon fill="#A80036" points="452.357,484.8747,444.2564,479.2729,447.444,483.9462,442.7707,487.1337,452.357,484.8747" style="stroke: #A80036; stroke-width: 1.0;"/><text fill="#000000" font-family="sans-serif" font-size="13" lengthAdjust="spacingAndGlyphs" textLength="187" x="355" y="445.0669">RelatedSettlementInstruction</text><text fill="#000000" font-family="sans-serif" font-size="13" lengthAdjust="spacingAndGlyphs" textLength="24" x="420.536" y="479.1324">0..1</text><!--link Role to RolePlayer--><path d="M269.488,65.724 C493.179,70.522 1081.93,85.716 1275,116 C1377.78,132.122 1501,72.961 1501,177 C1501,177 1501,177 1501,387 C1501,448.488 1294.27,478.683 1204.64,488.8845 " fill="none" id="Role-RolePlayer" style="stroke: #A80036; stroke-width: 1.0;"/><polygon fill="#A80036" points="1199.43,489.4705,1208.8197,492.4427,1204.3989,488.9133,1207.9282,484.4925,1199.43,489.4705" style="stroke: #A80036; stroke-width: 1.0;"/><text fill="#000000" font-family="sans-serif" font-size="13" lengthAdjust="spacingAndGlyphs" textLength="39" x="1502" y="286.0669">Player</text><text fill="#000000" font-family="sans-serif" font-size="13" lengthAdjust="spacingAndGlyphs" textLength="7" x="1207.8913" y="482.7051">*</text><!--link Role to ContactPersonRole--><path d="M269.261,63.235 C517.559,62.002 1214.29,65.447 1279,142 C1343.85,218.717 1214,331.327 1163.18,370.745 " fill="none" id="Role-ContactPersonRole" style="stroke: #A80036; stroke-width: 1.0;"/><polygon fill="#A80036" points="1159.09,373.893,1168.6645,371.5844,1163.0558,370.8479,1163.7923,365.2392,1159.09,373.893" style="stroke: #A80036; stroke-width: 1.0;"/><text fill="#000000" font-family="sans-serif" font-size="13" lengthAdjust="spacingAndGlyphs" textLength="121" x="1292" y="233.0669">ContactPersonRole</text><text fill="#000000" font-family="sans-serif" font-size="13" lengthAdjust="spacingAndGlyphs" textLength="8" x="1153.5584" y="362.9044">1</text><!--link Role to CounterpartyRisk--><path d="M269.563,64.898 C493.699,68.061 1074.88,82.02 1136,142 C1168.92,174.305 1160.66,235.315 1154.23,264.559 " fill="none" id="Role-CounterpartyRisk" style="stroke: #A80036; stroke-width: 1.0;"/><polygon fill="#A80036" points="1153.06,269.636,1158.9771,261.7627,1154.1817,264.7634,1151.181,259.968,1153.06,269.636" style="stroke: #A80036; stroke-width: 1.0;"/><text fill="#000000" font-family="sans-serif" font-size="13" lengthAdjust="spacingAndGlyphs" textLength="109" x="1160" y="182.0669">CounterpartyRisk</text><text fill="#000000" font-family="sans-serif" font-size="13" lengthAdjust="spacingAndGlyphs" textLength="24" x="1124.6846" y="258.8189">0..1</text><!--link Role to Entry--><path d="M269.606,74.784 C471.436,99.628 960.672,159.85 1075.56,173.992 " fill="none" id="Role-Entry" style="stroke: #A80036; stroke-width: 1.0;"/><polygon fill="#A80036" points="1080.75,174.63,1072.3095,169.5547,1075.7879,174.0158,1071.3268,177.4942,1080.75,174.63" style="stroke: #A80036; stroke-width: 1.0;"/><text fill="#000000" font-family="sans-serif" font-size="13" lengthAdjust="spacingAndGlyphs" textLength="33" x="752" y="129.0669">Entry</text><text fill="#000000" font-family="sans-serif" font-size="13" lengthAdjust="spacingAndGlyphs" textLength="8" x="1064.9297" y="167.3815">1</text><!--link SettlementPartyRole to Account--><path d="M266.183,182.19 C406.536,189.55 720.508,209.906 752,246 C785.25,284.11 734.12,342.937 706.2,370.196 " fill="none" id="SettlementPartyRole-Account" style="stroke: #A80036; stroke-width: 1.0;"/><polygon fill="#A80036" points="702.59,373.672,711.8472,370.3098,706.1913,370.2035,706.2976,364.5477,702.59,373.672" style="stroke: #A80036; stroke-width: 1.0;"/><text fill="#000000" font-family="sans-serif" font-size="13" lengthAdjust="spacingAndGlyphs" textLength="124" x="764" y="286.0669">SettlementAccount</text><text fill="#000000" font-family="sans-serif" font-size="13" lengthAdjust="spacingAndGlyphs" textLength="8" x="696.0214" y="362.8668">1</text><!--link SettlementPartyRole to Settlement--><path d="M252.876,190.013 C352.8,210.438 564.911,253.795 655.522,272.317 " fill="none" id="SettlementPartyRole-Settlement" style="stroke: #A80036; stroke-width: 1.0;"/><polygon fill="#A80036" points="660.529,273.341,652.5125,267.6194,655.6303,272.3395,650.9102,275.4573,660.529,273.341" style="stroke: #A80036; stroke-width: 1.0;"/><text fill="#000000" font-family="sans-serif" font-size="13" lengthAdjust="spacingAndGlyphs" textLength="72" x="480" y="233.0669">Settlement</text><text fill="#000000" font-family="sans-serif" font-size="13" lengthAdjust="spacingAndGlyphs" textLength="8" x="644.7203" y="266.6863">1</text><!--link CashSettlementInstructionPartyRole to CashAccount--><path d="M177.527,294.11 C217.616,313.041 298.988,351.467 341.961,371.76 " fill="none" id="CashSettlementInstructionPartyRole-CashAccount" style="stroke: #A80036; stroke-width: 1.0;"/><polygon fill="#A80036" points="346.502,373.904,340.0707,366.4449,341.9804,371.7696,336.6557,373.6794,346.502,373.904" style="stroke: #A80036; stroke-width: 1.0;"/><text fill="#000000" font-family="sans-serif" font-size="13" lengthAdjust="spacingAndGlyphs" textLength="84" x="276" y="337.0669">CashAccount</text><text fill="#000000" font-family="sans-serif" font-size="13" lengthAdjust="spacingAndGlyphs" textLength="7" x="328.7058" y="362.9192">*</text><!--link CashSettlementInstructionPartyRole to CashSettlement--><path d="M269.692,292.31 C322.244,301.036 383.014,317.817 430,350 C468.115,376.107 461.749,403.199 503,424 C514.224,429.66 550.764,422.503 559,432 C573.129,448.2912 551.274,466.8146 531.285,479.1326 " fill="none" id="CashSettlementInstructionPartyRole-CashSettlement" style="stroke: #A80036; stroke-width: 1.0;"/><polygon fill="#A80036" points="526.798,481.8173,536.5749,480.6289,531.0886,479.2501,532.4674,473.7639,526.798,481.8173" style="stroke: #A80036; stroke-width: 1.0;"/><text fill="#000000" font-family="sans-serif" font-size="13" lengthAdjust="spacingAndGlyphs" textLength="139" x="504" y="390.0669">SettlementInstruction</text><text fill="#000000" font-family="sans-serif" font-size="13" lengthAdjust="spacingAndGlyphs" textLength="7" x="524.3623" y="471.0602">*</text><!--link SettlementInstructionSystemRole to CashClearingSystem--><path d="M154,398.344 C154,417.152 154,454.867 154,476.5827 " fill="none" id="SettlementInstructionSystemRole-CashClearingSystem" style="stroke: #A80036; stroke-width: 1.0;"/><polygon fill="#A80036" points="154,481.7377,158,472.7377,154,476.7377,150,472.7377,154,481.7377" style="stroke: #A80036; stroke-width: 1.0;"/><text fill="#000000" font-family="sans-serif" font-size="13" lengthAdjust="spacingAndGlyphs" textLength="49" x="155" y="445.0669">System</text><text fill="#000000" font-family="sans-serif" font-size="13" lengthAdjust="spacingAndGlyphs" textLength="7" x="144.4266" y="470.9543">*</text><!--link Entry to Account--><path d="M1086.63,190.185 C1060.08,212.038 998.339,261.132 941,294 C895.076,320.324 881.644,323.629 832,342 C795.348,355.563 752.263,368.153 723.244,376.16 " fill="none" id="Entry-Account" style="stroke: #A80036; stroke-width: 1.0;"/><polygon fill="#A80036" points="718.353,377.503,728.091,378.9764,723.1744,376.1787,725.9722,371.2621,718.353,377.503" style="stroke: #A80036; stroke-width: 1.0;"/><text fill="#000000" font-family="sans-serif" font-size="13" lengthAdjust="spacingAndGlyphs" textLength="52" x="1015" y="286.0669">Account</text><text fill="#000000" font-family="sans-serif" font-size="13" lengthAdjust="spacingAndGlyphs" textLength="7" x="726.8463" y="369.024">*</text><!--link Account to Account--><path d="M718.508,376.938 C736.181,374.753 753,377.773 753,386 C753,393.391 739.424,396.58 723.85,395.567 " fill="none" id="Account-Account" style="stroke: #A80036; stroke-width: 1.0;"/><polygon fill="#A80036" points="718.508,395.062,727.0922,399.8902,723.4859,395.5319,727.8441,391.9256,718.508,395.062" style="stroke: #A80036; stroke-width: 1.0;"/><text fill="#000000" font-family="sans-serif" font-size="13" lengthAdjust="spacingAndGlyphs" textLength="94" x="759" y="390.0669">ParentAccount</text><text fill="#000000" font-family="sans-serif" font-size="13" lengthAdjust="spacingAndGlyphs" textLength="8" x="726.7741" y="391.2939">1</text></g></svg>