<?xml version="1.0" encoding="UTF-8" standalone="no"?><svg xmlns="http://www.w3.org/2000/svg" xmlns:xlink="http://www.w3.org/1999/xlink" contentScriptType="application/ecmascript" contentStyleType="text/css" height="484px" preserveAspectRatio="none" style="width:2091px;height:484px;" version="1.1" viewBox="0 0 2091 484" width="2091px" zoomAndPan="magnify"><defs><filter height="300%" id="f1g2baemplosh1" width="300%" x="-1" y="-1"><feGaussianBlur result="blurOut" stdDeviation="2.0"/><feColorMatrix in="blurOut" result="blurOut2" type="matrix" values="0 0 0 0 0 0 0 0 0 0 0 0 0 0 0 0 0 0 .4 0"/><feOffset dx="4.0" dy="4.0" in="blurOut2" result="blurOut3"/><feBlend in="SourceGraphic" in2="blurOut3" mode="normal"/></filter></defs><g><!--cluster ##6258--><!--cluster ##6279--><!--cluster ##6288--><!--class Role--><a target="_top" xlink:actuate="onRequest" xlink:href="../Role.html" xlink:show="new" xlink:title="Role of a party in an activity." xlink:type="simple"><rect fill="#FEFEEE" filter="url(#f1g2baemplosh1)" height="44.7734" id="Role" style="stroke: #A80036; stroke-width: 1.5;" width="175" x="967.75" y="40.5"/><rect fill="#FEFEEE" height="23.9688" style="stroke: #A80036; stroke-width: 1.5;" width="175" x="967.75" y="40.5"/><text fill="#000000" font-family="sans-serif" font-size="12" lengthAdjust="spacingAndGlyphs" textLength="27" x="1041.75" y="56.6387">Role</text><line style="stroke: #A80036; stroke-width: 1.5;" x1="968.75" x2="1141.75" y1="64.4688" y2="64.4688"/><ellipse cx="978.75" cy="76.3711" fill="#84BE84" rx="3" ry="3" style="stroke: #038048; stroke-width: 1.0;"/><text fill="#000000" font-family="sans-serif" font-size="11" lengthAdjust="spacingAndGlyphs" textLength="53" x="987.75" y="78.6792">PartyRole</text><text fill="#000000" font-family="sans-serif" font-size="11" font-style="italic" lengthAdjust="spacingAndGlyphs" textLength="92" x="1044.75" y="78.6792">(PartyRoleCode)</text></a><!--class SettlementPartyRole--><a target="_top" xlink:actuate="onRequest" xlink:href="../SettlementPartyRole.html" xlink:show="new" xlink:title="Role played by a party in a settlement process." xlink:type="simple"><rect fill="#FEFECE" filter="url(#f1g2baemplosh1)" height="23.9688" id="SettlementPartyRole" style="stroke: #A80036; stroke-width: 1.5;" width="134" x="815" y="166"/><rect fill="#FEFECE" height="23.9688" style="stroke: #A80036; stroke-width: 1.5;" width="134" x="815" y="166"/><text fill="#000000" font-family="sans-serif" font-size="12" lengthAdjust="spacingAndGlyphs" textLength="128" x="818" y="182.1387">SettlementPartyRole</text></a><!--class SecuritiesSettlementPartyRole--><a target="_top" xlink:actuate="onRequest" xlink:href="../SecuritiesSettlementPartyRole.html" xlink:show="new" xlink:title="Role played by a party in the context of the settlement of securities." xlink:type="simple"><rect fill="#FEFEEE" filter="url(#f1g2baemplosh1)" height="23.9688" id="SecuritiesSettlementPartyRole" style="stroke: #A80036; stroke-width: 1.5;" width="196" x="38.5" y="270"/><rect fill="#FEFEEE" height="23.9688" style="stroke: #A80036; stroke-width: 1.5;" width="196" x="38.5" y="270"/><text fill="#000000" font-family="sans-serif" font-size="12" lengthAdjust="spacingAndGlyphs" textLength="190" x="41.5" y="286.1387">SecuritiesSettlementPartyRole</text></a><!--class CashSettlementInstructionPartyRole--><a target="_top" xlink:actuate="onRequest" xlink:href="../CashSettlementInstructionPartyRole.html" xlink:show="new" xlink:title="Role played by a party in cash settlement." xlink:type="simple"><rect fill="#FEFEEE" filter="url(#f1g2baemplosh1)" height="23.9688" id="CashSettlementInstructionPartyRole" style="stroke: #A80036; stroke-width: 1.5;" width="232" x="269.5" y="270"/><rect fill="#FEFEEE" height="23.9688" style="stroke: #A80036; stroke-width: 1.5;" width="232" x="269.5" y="270"/><text fill="#000000" font-family="sans-serif" font-size="12" lengthAdjust="spacingAndGlyphs" textLength="226" x="272.5" y="286.1387">CashSettlementInstructionPartyRole</text></a><!--class TreasurySettlementPartyRole--><a target="_top" xlink:actuate="onRequest" xlink:href="../TreasurySettlementPartyRole.html" xlink:show="new" xlink:title="Role played by a party in the context of the settlement of a treasury trade." xlink:type="simple"><rect fill="#FEFEEE" filter="url(#f1g2baemplosh1)" height="23.9688" id="TreasurySettlementPartyRole" style="stroke: #A80036; stroke-width: 1.5;" width="188" x="536" y="270"/><rect fill="#FEFEEE" height="23.9688" style="stroke: #A80036; stroke-width: 1.5;" width="188" x="536" y="270"/><text fill="#000000" font-family="sans-serif" font-size="12" lengthAdjust="spacingAndGlyphs" textLength="182" x="539" y="286.1387">TreasurySettlementPartyRole</text></a><!--class SSIDatabaseProvider--><a target="_top" xlink:actuate="onRequest" xlink:href="../SSIDatabaseProvider.html" xlink:show="new" xlink:title="Provider of a standing settlement instruction (SSI) database." xlink:type="simple"><rect fill="#FEFEEE" filter="url(#f1g2baemplosh1)" height="23.9688" id="SSIDatabaseProvider" style="stroke: #A80036; stroke-width: 1.5;" width="137" x="759.75" y="270"/><rect fill="#FEFEEE" height="23.9688" style="stroke: #A80036; stroke-width: 1.5;" width="137" x="759.75" y="270"/><text fill="#000000" font-family="sans-serif" font-size="12" lengthAdjust="spacingAndGlyphs" textLength="131" x="762.75" y="286.1387">SSIDatabaseProvider</text></a><!--class CentralClearingCounterpartyRole--><a target="_top" xlink:actuate="onRequest" xlink:href="../CentralClearingCounterpartyRole.html" xlink:show="new" xlink:title="Infrastructure that may be a component of a clearing house and which facilitates clearing and settlement for its members by standing between the buyer and the seller. It may net transactions and it substitutes itself as settlement counterparty for each position." xlink:type="simple"><rect fill="#FEFEEE" filter="url(#f1g2baemplosh1)" height="23.9688" id="CentralClearingCounterpartyRole" style="stroke: #A80036; stroke-width: 1.5;" width="211" x="931.75" y="270"/><rect fill="#FEFEEE" height="23.9688" style="stroke: #A80036; stroke-width: 1.5;" width="211" x="931.75" y="270"/><text fill="#000000" font-family="sans-serif" font-size="12" lengthAdjust="spacingAndGlyphs" textLength="205" x="934.75" y="286.1387">CentralClearingCounterpartyRole</text></a><!--class RolePlayer--><a target="_top" xlink:actuate="onRequest" xlink:href="../RolePlayer.html" xlink:show="new" xlink:title="Type of entity that plays a specific role in a specific context." xlink:type="simple"><rect fill="#EEEEEE" filter="url(#f1g2baemplosh1)" height="23.9688" id="RolePlayer" style="stroke: #A80036; stroke-width: 1.5;" width="71" x="1666.75" y="450"/><rect fill="#EEEEEE" height="23.9688" style="stroke: #A80036; stroke-width: 1.5;" width="71" x="1666.75" y="450"/><text fill="#000000" font-family="sans-serif" font-size="12" lengthAdjust="spacingAndGlyphs" textLength="65" x="1669.75" y="466.1387">RolePlayer</text></a><!--class ContactPersonRole--><a target="_top" xlink:actuate="onRequest" xlink:href="../ContactPersonRole.html" xlink:show="new" xlink:title="Person to be contacted in a given organisation. In the corporate action domain (including meeting notifications) , it is the contact person at the party organising the meeting, at the issuer or at an intermediary." xlink:type="simple"><rect fill="#EEEEEE" filter="url(#f1g2baemplosh1)" height="23.9688" id="ContactPersonRole" style="stroke: #A80036; stroke-width: 1.5;" width="126" x="1619" y="360"/><rect fill="#EEEEEE" height="23.9688" style="stroke: #A80036; stroke-width: 1.5;" width="126" x="1619" y="360"/><text fill="#000000" font-family="sans-serif" font-size="12" lengthAdjust="spacingAndGlyphs" textLength="120" x="1622" y="376.1387">ContactPersonRole</text></a><!--class CounterpartyRisk--><a target="_top" xlink:actuate="onRequest" xlink:href="../CounterpartyRisk.html" xlink:show="new" xlink:title="Calculation of the exposure amount that one party has vis-a-vis one counterparty or a central system, based on its credit risk." xlink:type="simple"><rect fill="#EEEEEE" filter="url(#f1g2baemplosh1)" height="23.9688" id="CounterpartyRisk" style="stroke: #A80036; stroke-width: 1.5;" width="113" x="1631.75" y="270"/><rect fill="#EEEEEE" height="23.9688" style="stroke: #A80036; stroke-width: 1.5;" width="113" x="1631.75" y="270"/><text fill="#000000" font-family="sans-serif" font-size="12" lengthAdjust="spacingAndGlyphs" textLength="107" x="1634.75" y="286.1387">CounterpartyRisk</text></a><!--class Entry--><a target="_top" xlink:actuate="onRequest" xlink:href="../Entry.html" xlink:show="new" xlink:title="Posting to an account that results in an increase or decrease to a balance." xlink:type="simple"><rect fill="#EEEEEE" filter="url(#f1g2baemplosh1)" height="23.9688" id="Entry" style="stroke: #A80036; stroke-width: 1.5;" width="38" x="1619" y="166"/><rect fill="#EEEEEE" height="23.9688" style="stroke: #A80036; stroke-width: 1.5;" width="38" x="1619" y="166"/><text fill="#000000" font-family="sans-serif" font-size="12" lengthAdjust="spacingAndGlyphs" textLength="32" x="1622" y="182.1387">Entry</text></a><!--class Account--><a target="_top" xlink:actuate="onRequest" xlink:href="../Account.html" xlink:show="new" xlink:title="Record of transactions in specific types of assets, maintained by a servicing party on behalf of one or more owning parties. Business relationship between an account servicer and one or more account owners." xlink:type="simple"><rect fill="#EEEEEE" filter="url(#f1g2baemplosh1)" height="23.9688" id="Account" style="stroke: #A80036; stroke-width: 1.5;" width="57" x="1199.75" y="360"/><rect fill="#EEEEEE" height="23.9688" style="stroke: #A80036; stroke-width: 1.5;" width="57" x="1199.75" y="360"/><text fill="#000000" font-family="sans-serif" font-size="12" lengthAdjust="spacingAndGlyphs" textLength="51" x="1202.75" y="376.1387">Account</text></a><!--class Settlement--><a target="_top" xlink:actuate="onRequest" xlink:href="../Settlement.html" xlink:show="new" xlink:title="Process which consists in transferring the proceeds related to a trade from one party to the next one." xlink:type="simple"><rect fill="#EEEEEE" filter="url(#f1g2baemplosh1)" height="23.9688" id="Settlement" style="stroke: #A80036; stroke-width: 1.5;" width="75" x="1198.75" y="270"/><rect fill="#EEEEEE" height="23.9688" style="stroke: #A80036; stroke-width: 1.5;" width="75" x="1198.75" y="270"/><text fill="#000000" font-family="sans-serif" font-size="12" lengthAdjust="spacingAndGlyphs" textLength="69" x="1201.75" y="286.1387">Settlement</text></a><!--link Role to SettlementPartyRole--><path d="M1004.981,96.671 C969.284,119.988 923.437,149.934 899.048,165.865 " fill="none" id="Role-SettlementPartyRole" style="stroke: #A80036; stroke-width: 1.0;"/><polygon fill="none" points="1001.48,90.597,1022.05,85.52,1009.14,102.318,1001.48,90.597" style="stroke: #A80036; stroke-width: 1.0;"/><!--link SettlementPartyRole to SecuritiesSettlementPartyRole--><path d="M794.408,183.047 C671.823,189.896 442.601,207.038 251,246 C221.96,251.905 189.753,262.028 166.828,269.873 " fill="none" id="SettlementPartyRole-SecuritiesSettlementPartyRole" style="stroke: #A80036; stroke-width: 1.0;"/><polygon fill="none" points="794.237,176.046,814.585,181.959,794.99,190.025,794.237,176.046" style="stroke: #A80036; stroke-width: 1.0;"/><!--link SettlementPartyRole to CashSettlementInstructionPartyRole--><path d="M795.042,193.112 C721.065,205.569 612.152,224.978 518,246 C486.075,253.128 450.23,262.651 423.803,269.963 " fill="none" id="SettlementPartyRole-CashSettlementInstructionPartyRole" style="stroke: #A80036; stroke-width: 1.0;"/><polygon fill="none" points="794.06,186.179,814.94,189.787,796.367,199.988,794.06,186.179" style="stroke: #A80036; stroke-width: 1.0;"/><!--link SettlementPartyRole to TreasurySettlementPartyRole--><path d="M835.891,197.663 C783.669,218.801 700.281,252.553 657.414,269.904 " fill="none" id="SettlementPartyRole-TreasurySettlementPartyRole" style="stroke: #A80036; stroke-width: 1.0;"/><polygon fill="none" points="833.387,191.125,854.552,190.11,838.639,204.103,833.387,191.125" style="stroke: #A80036; stroke-width: 1.0;"/><!--link SettlementPartyRole to SSIDatabaseProvider--><path d="M866.648,207.999 C855.72,228.641 841.642,255.232 833.848,269.954 " fill="none" id="SettlementPartyRole-SSIDatabaseProvider" style="stroke: #A80036; stroke-width: 1.0;"/><polygon fill="none" points="860.47,204.706,876.015,190.306,872.843,211.257,860.47,204.706" style="stroke: #A80036; stroke-width: 1.0;"/><!--link SettlementPartyRole to CentralClearingCounterpartyRole--><path d="M915.846,201.273 C948.067,222.476 995.226,253.51 1020.14,269.904 " fill="none" id="SettlementPartyRole-CentralClearingCounterpartyRole" style="stroke: #A80036; stroke-width: 1.0;"/><polygon fill="none" points="911.742,206.952,898.883,190.11,919.438,195.257,911.742,206.952" style="stroke: #A80036; stroke-width: 1.0;"/><!--link ContactPersonRole to RolePlayer--><!--link CounterpartyRisk to ContactPersonRole--><!--link Entry to CounterpartyRisk--><!--link Settlement to Account--><!--link Role to RolePlayer--><path d="M1142.32,64.943 C1383.15,68.693 2039,87.153 2039,177 C2039,177 2039,177 2039,373 C2039,433.6217 1832.27,453.2654 1742.64,458.9332 " fill="none" id="Role-RolePlayer" style="stroke: #A80036; stroke-width: 1.0;"/><polygon fill="#A80036" points="1737.43,459.2555,1746.6636,462.6819,1742.4201,458.9412,1746.1608,454.6977,1737.43,459.2555" style="stroke: #A80036; stroke-width: 1.0;"/><text fill="#000000" font-family="sans-serif" font-size="13" lengthAdjust="spacingAndGlyphs" textLength="39" x="2040" y="286.0669">Player</text><text fill="#000000" font-family="sans-serif" font-size="13" lengthAdjust="spacingAndGlyphs" textLength="7" x="1745.8913" y="452.8806">*</text><!--link Role to ContactPersonRole--><path d="M1142.49,66.314 C1333.25,72.287 1773,91.45 1816,142 C1855.24,188.127 1795.27,277.891 1762,318 C1748.1,334.761 1727.54,348.223 1710.74,357.386 " fill="none" id="Role-ContactPersonRole" style="stroke: #A80036; stroke-width: 1.0;"/><polygon fill="#A80036" points="1706.11,359.855,1715.933,359.1415,1710.5199,357.4986,1712.1628,352.0856,1706.11,359.855" style="stroke: #A80036; stroke-width: 1.0;"/><text fill="#000000" font-family="sans-serif" font-size="13" lengthAdjust="spacingAndGlyphs" textLength="121" x="1821" y="233.0669">ContactPersonRole</text><text fill="#000000" font-family="sans-serif" font-size="13" lengthAdjust="spacingAndGlyphs" textLength="8" x="1703.6791" y="348.8534">1</text><!--link Role to CounterpartyRisk--><path d="M1142.38,69.049 C1304.22,79.252 1637.51,104.587 1674,142 C1706.2,175.018 1698.29,235.682 1692.09,264.7 " fill="none" id="Role-CounterpartyRisk" style="stroke: #A80036; stroke-width: 1.0;"/><polygon fill="#A80036" points="1690.96,269.737,1696.8331,261.8309,1692.0545,264.8583,1689.0271,260.0797,1690.96,269.737" style="stroke: #A80036; stroke-width: 1.0;"/><text fill="#000000" font-family="sans-serif" font-size="13" lengthAdjust="spacingAndGlyphs" textLength="109" x="1697" y="182.0669">CounterpartyRisk</text><text fill="#000000" font-family="sans-serif" font-size="13" lengthAdjust="spacingAndGlyphs" textLength="24" x="1662.5514" y="258.9533">0..1</text><!--link Role to Entry--><path d="M1142.28,80.917 C1278.42,107.305 1534,156.842 1613.66,172.282 " fill="none" id="Role-Entry" style="stroke: #A80036; stroke-width: 1.0;"/><polygon fill="#A80036" points="1618.65,173.249,1610.5661,167.6231,1613.7398,172.3058,1609.057,175.4795,1618.65,173.249" style="stroke: #A80036; stroke-width: 1.0;"/><text fill="#000000" font-family="sans-serif" font-size="13" lengthAdjust="spacingAndGlyphs" textLength="33" x="1417" y="129.0669">Entry</text><text fill="#000000" font-family="sans-serif" font-size="13" lengthAdjust="spacingAndGlyphs" textLength="8" x="1603.1059" y="165.7767">1</text><!--link SettlementPartyRole to Account--><path d="M949.379,179.147 C1054.92,181.061 1251.23,191.986 1290,246 C1308.66,271.996 1303.39,288.936 1290,318 C1282.39,334.524 1266.8,347.811 1253.16,356.949 " fill="none" id="SettlementPartyRole-Account" style="stroke: #A80036; stroke-width: 1.0;"/><polygon fill="#A80036" points="1248.62,359.887,1258.3495,358.3585,1252.8185,357.1718,1254.0052,351.6408,1248.62,359.887" style="stroke: #A80036; stroke-width: 1.0;"/><text fill="#000000" font-family="sans-serif" font-size="13" lengthAdjust="spacingAndGlyphs" textLength="124" x="1304" y="286.0669">SettlementAccount</text><text fill="#000000" font-family="sans-serif" font-size="13" lengthAdjust="spacingAndGlyphs" textLength="8" x="1244.9034" y="348.8964">1</text><!--link SettlementPartyRole to Settlement--><path d="M941.56,190.006 C998.296,201.282 1085.68,220.724 1159,246 C1176.34,251.977 1195.08,260.451 1209.74,267.564 " fill="none" id="SettlementPartyRole-Settlement" style="stroke: #A80036; stroke-width: 1.0;"/><polygon fill="#A80036" points="1214.54,269.919,1208.218,262.367,1210.05,267.719,1204.698,269.551,1214.54,269.919" style="stroke: #A80036; stroke-width: 1.0;"/><text fill="#000000" font-family="sans-serif" font-size="13" lengthAdjust="spacingAndGlyphs" textLength="72" x="1131" y="233.0669">Settlement</text><text fill="#000000" font-family="sans-serif" font-size="13" lengthAdjust="spacingAndGlyphs" textLength="8" x="1196.3584" y="258.9394">1</text><!--link Entry to Account--><path d="M1625.43,190.22 C1595.32,216.523 1515.74,282.604 1438,318 C1378.97,344.878 1304.15,359.597 1261.62,366.34 " fill="none" id="Entry-Account" style="stroke: #A80036; stroke-width: 1.0;"/><polygon fill="#A80036" points="1256.59,367.123,1266.0921,369.7133,1261.5323,366.3655,1264.8801,361.8057,1256.59,367.123" style="stroke: #A80036; stroke-width: 1.0;"/><text fill="#000000" font-family="sans-serif" font-size="13" lengthAdjust="spacingAndGlyphs" textLength="52" x="1555" y="286.0669">Account</text><text fill="#000000" font-family="sans-serif" font-size="13" lengthAdjust="spacingAndGlyphs" textLength="7" x="1264.749" y="359.7831">*</text><!--link Account to Account--><path d="M1256.51,364.332 C1274.18,362.483 1291,365.039 1291,372 C1291,378.254 1277.42,380.952 1261.85,380.095 " fill="none" id="Account-Account" style="stroke: #A80036; stroke-width: 1.0;"/><polygon fill="#A80036" points="1256.51,379.668,1265.1612,384.3751,1261.494,380.068,1265.8011,376.4008,1256.51,379.668" style="stroke: #A80036; stroke-width: 1.0;"/><text fill="#000000" font-family="sans-serif" font-size="13" lengthAdjust="spacingAndGlyphs" textLength="94" x="1297" y="376.0669">ParentAccount</text><text fill="#000000" font-family="sans-serif" font-size="13" lengthAdjust="spacingAndGlyphs" textLength="8" x="1264.7766" y="395.6427">1</text></g></svg>