<?xml version="1.0" encoding="UTF-8" standalone="no"?><svg xmlns="http://www.w3.org/2000/svg" xmlns:xlink="http://www.w3.org/1999/xlink" contentScriptType="application/ecmascript" contentStyleType="text/css" height="626px" preserveAspectRatio="none" style="width:1749px;height:626px;" version="1.1" viewBox="0 0 1749 626" width="1749px" zoomAndPan="magnify"><defs><filter height="300%" id="f1xn93wsx4qaxn" width="300%" x="-1" y="-1"><feGaussianBlur result="blurOut" stdDeviation="2.0"/><feColorMatrix in="blurOut" result="blurOut2" type="matrix" values="0 0 0 0 0 0 0 0 0 0 0 0 0 0 0 0 0 0 .4 0"/><feOffset dx="4.0" dy="4.0" in="blurOut2" result="blurOut3"/><feBlend in="SourceGraphic" in2="blurOut3" mode="normal"/></filter></defs><g><!--cluster ##3455--><!--cluster ##3464--><!--cluster ##3473--><!--cluster ##3486--><!--class Role--><a target="_top" xlink:actuate="onRequest" xlink:href="../Role.html" xlink:show="new" xlink:title="Role of a party in an activity." xlink:type="simple"><rect fill="#FEFEEE" filter="url(#f1xn93wsx4qaxn)" height="44.7734" id="Role" style="stroke: #A80036; stroke-width: 1.5;" width="175" x="994.75" y="40.5"/><rect fill="#FEFEEE" height="23.9688" style="stroke: #A80036; stroke-width: 1.5;" width="175" x="994.75" y="40.5"/><text fill="#000000" font-family="sans-serif" font-size="12" lengthAdjust="spacingAndGlyphs" textLength="27" x="1068.75" y="56.6387">Role</text><line style="stroke: #A80036; stroke-width: 1.5;" x1="995.75" x2="1168.75" y1="64.4688" y2="64.4688"/><ellipse cx="1005.75" cy="76.3711" fill="#84BE84" rx="3" ry="3" style="stroke: #038048; stroke-width: 1.0;"/><text fill="#000000" font-family="sans-serif" font-size="11" lengthAdjust="spacingAndGlyphs" textLength="53" x="1014.75" y="78.6792">PartyRole</text><text fill="#000000" font-family="sans-serif" font-size="11" font-style="italic" lengthAdjust="spacingAndGlyphs" textLength="92" x="1071.75" y="78.6792">(PartyRoleCode)</text></a><!--class InformationPartyRole--><a target="_top" xlink:actuate="onRequest" xlink:href="../InformationPartyRole.html" xlink:show="new" xlink:title="Role played by a party as source of information." xlink:type="simple"><rect fill="#FEFEEE" filter="url(#f1xn93wsx4qaxn)" height="23.9688" id="InformationPartyRole" style="stroke: #A80036; stroke-width: 1.5;" width="136" x="998" y="166"/><rect fill="#FEFEEE" height="23.9688" style="stroke: #A80036; stroke-width: 1.5;" width="136" x="998" y="166"/><text fill="#000000" font-family="sans-serif" font-size="12" lengthAdjust="spacingAndGlyphs" textLength="130" x="1001" y="182.1387">InformationPartyRole</text></a><!--class SourceOfPrice--><a target="_top" xlink:actuate="onRequest" xlink:href="../SourceOfPrice.html" xlink:show="new" xlink:title="Place from which the price was obtained." xlink:type="simple"><rect fill="#FEFECE" filter="url(#f1xn93wsx4qaxn)" height="44.7734" id="SourceOfPrice" style="stroke: #A80036; stroke-width: 1.5;" width="161" x="994.75" y="268.5"/><rect fill="#FEFECE" height="23.9688" style="stroke: #A80036; stroke-width: 1.5;" width="161" x="994.75" y="268.5"/><text fill="#000000" font-family="sans-serif" font-size="12" lengthAdjust="spacingAndGlyphs" textLength="88" x="1031.25" y="284.6387">SourceOfPrice</text><line style="stroke: #A80036; stroke-width: 1.5;" x1="995.75" x2="1154.75" y1="292.4688" y2="292.4688"/><ellipse cx="1005.75" cy="304.3711" fill="#84BE84" rx="3" ry="3" style="stroke: #038048; stroke-width: 1.0;"/><text fill="#000000" font-family="sans-serif" font-size="11" lengthAdjust="spacingAndGlyphs" textLength="27" x="1014.75" y="306.6792">Type</text><text fill="#000000" font-family="sans-serif" font-size="11" font-style="italic" lengthAdjust="spacingAndGlyphs" textLength="104" x="1045.75" y="306.6792">(PriceSourceCode)</text></a><!--class RolePlayer--><a target="_top" xlink:actuate="onRequest" xlink:href="../RolePlayer.html" xlink:show="new" xlink:title="Type of entity that plays a specific role in a specific context." xlink:type="simple"><rect fill="#EEEEEE" filter="url(#f1xn93wsx4qaxn)" height="23.9688" id="RolePlayer" style="stroke: #A80036; stroke-width: 1.5;" width="71" x="1471.75" y="484"/><rect fill="#EEEEEE" height="23.9688" style="stroke: #A80036; stroke-width: 1.5;" width="71" x="1471.75" y="484"/><text fill="#000000" font-family="sans-serif" font-size="12" lengthAdjust="spacingAndGlyphs" textLength="65" x="1474.75" y="500.1387">RolePlayer</text></a><!--class ContactPersonRole--><a target="_top" xlink:actuate="onRequest" xlink:href="../ContactPersonRole.html" xlink:show="new" xlink:title="Person to be contacted in a given organisation. In the corporate action domain (including meeting notifications) , it is the contact person at the party organising the meeting, at the issuer or at an intermediary." xlink:type="simple"><rect fill="#EEEEEE" filter="url(#f1xn93wsx4qaxn)" height="23.9688" id="ContactPersonRole" style="stroke: #A80036; stroke-width: 1.5;" width="126" x="1424" y="396"/><rect fill="#EEEEEE" height="23.9688" style="stroke: #A80036; stroke-width: 1.5;" width="126" x="1424" y="396"/><text fill="#000000" font-family="sans-serif" font-size="12" lengthAdjust="spacingAndGlyphs" textLength="120" x="1427" y="412.1387">ContactPersonRole</text></a><!--class CounterpartyRisk--><a target="_top" xlink:actuate="onRequest" xlink:href="../CounterpartyRisk.html" xlink:show="new" xlink:title="Calculation of the exposure amount that one party has vis-a-vis one counterparty or a central system, based on its credit risk." xlink:type="simple"><rect fill="#EEEEEE" filter="url(#f1xn93wsx4qaxn)" height="23.9688" id="CounterpartyRisk" style="stroke: #A80036; stroke-width: 1.5;" width="113" x="1430.75" y="279"/><rect fill="#EEEEEE" height="23.9688" style="stroke: #A80036; stroke-width: 1.5;" width="113" x="1430.75" y="279"/><text fill="#000000" font-family="sans-serif" font-size="12" lengthAdjust="spacingAndGlyphs" textLength="107" x="1433.75" y="295.1387">CounterpartyRisk</text></a><!--class Entry--><a target="_top" xlink:actuate="onRequest" xlink:href="../Entry.html" xlink:show="new" xlink:title="Posting to an account that results in an increase or decrease to a balance." xlink:type="simple"><rect fill="#EEEEEE" filter="url(#f1xn93wsx4qaxn)" height="23.9688" id="Entry" style="stroke: #A80036; stroke-width: 1.5;" width="38" x="1424" y="166"/><rect fill="#EEEEEE" height="23.9688" style="stroke: #A80036; stroke-width: 1.5;" width="38" x="1424" y="166"/><text fill="#000000" font-family="sans-serif" font-size="12" lengthAdjust="spacingAndGlyphs" textLength="32" x="1427" y="182.1387">Entry</text></a><!--class GenericIdentification--><a target="_top" xlink:actuate="onRequest" xlink:href="../GenericIdentification.html" xlink:show="new" xlink:title="Information related to a non-standardised identification, such as a proprietary party identification or account identification." xlink:type="simple"><rect fill="#EEEEEE" filter="url(#f1xn93wsx4qaxn)" height="23.9688" id="GenericIdentification" style="stroke: #A80036; stroke-width: 1.5;" width="135" x="679.75" y="279"/><rect fill="#EEEEEE" height="23.9688" style="stroke: #A80036; stroke-width: 1.5;" width="135" x="679.75" y="279"/><text fill="#000000" font-family="sans-serif" font-size="12" lengthAdjust="spacingAndGlyphs" textLength="129" x="682.75" y="295.1387">GenericIdentification</text></a><!--class HaircutValuation--><a target="_top" xlink:actuate="onRequest" xlink:href="../HaircutValuation.html" xlink:show="new" xlink:title="Basic valuation details of an asset's market value." xlink:type="simple"><rect fill="#EEEEEE" filter="url(#f1xn93wsx4qaxn)" height="23.9688" id="HaircutValuation" style="stroke: #A80036; stroke-width: 1.5;" width="110" x="828" y="588"/><rect fill="#EEEEEE" height="23.9688" style="stroke: #A80036; stroke-width: 1.5;" width="110" x="828" y="588"/><text fill="#000000" font-family="sans-serif" font-size="12" lengthAdjust="spacingAndGlyphs" textLength="104" x="831" y="604.1387">HaircutValuation</text></a><!--class SecuritiesPricing--><a target="_top" xlink:actuate="onRequest" xlink:href="../SecuritiesPricing.html" xlink:show="new" xlink:title="Characteristics related to the price of the security." xlink:type="simple"><rect fill="#EEEEEE" filter="url(#f1xn93wsx4qaxn)" height="23.9688" id="SecuritiesPricing" style="stroke: #A80036; stroke-width: 1.5;" width="110" x="680" y="484"/><rect fill="#EEEEEE" height="23.9688" style="stroke: #A80036; stroke-width: 1.5;" width="110" x="680" y="484"/><text fill="#000000" font-family="sans-serif" font-size="12" lengthAdjust="spacingAndGlyphs" textLength="104" x="683" y="500.1387">SecuritiesPricing</text></a><!--class Scheme--><a target="_top" xlink:actuate="onRequest" xlink:href="../Scheme.html" xlink:show="new" xlink:title="Information regarding an enumerated code list and its owner." xlink:type="simple"><rect fill="#EEEEEE" filter="url(#f1xn93wsx4qaxn)" height="23.9688" id="Scheme" style="stroke: #A80036; stroke-width: 1.5;" width="56" x="715.5" y="396"/><rect fill="#EEEEEE" height="23.9688" style="stroke: #A80036; stroke-width: 1.5;" width="56" x="715.5" y="396"/><text fill="#000000" font-family="sans-serif" font-size="12" lengthAdjust="spacingAndGlyphs" textLength="50" x="718.5" y="412.1387">Scheme</text></a><!--class Quote--><a target="_top" xlink:actuate="onRequest" xlink:href="../Quote.html" xlink:show="new" xlink:title="Indicates whether the quote details are indicated as an offer, a bid or a mid of a security, commodity, currency (the latter being an average of the offer and the bid)." xlink:type="simple"><rect fill="#EEEEEE" filter="url(#f1xn93wsx4qaxn)" height="23.9688" id="Quote" style="stroke: #A80036; stroke-width: 1.5;" width="44" x="86.5" y="588"/><rect fill="#EEEEEE" height="23.9688" style="stroke: #A80036; stroke-width: 1.5;" width="44" x="86.5" y="588"/><text fill="#000000" font-family="sans-serif" font-size="12" lengthAdjust="spacingAndGlyphs" textLength="38" x="89.5" y="604.1387">Quote</text></a><!--class TreasuryTrade--><a target="_top" xlink:actuate="onRequest" xlink:href="../TreasuryTrade.html" xlink:show="new" xlink:title="Specifies trades linked to treasury operations such as the exchange of currencies, the lending of cash amounts and the related derivatives trades (options and non deliverable trades)." xlink:type="simple"><rect fill="#EEEEEE" filter="url(#f1xn93wsx4qaxn)" height="23.9688" id="TreasuryTrade" style="stroke: #A80036; stroke-width: 1.5;" width="96" x="59" y="484"/><rect fill="#EEEEEE" height="23.9688" style="stroke: #A80036; stroke-width: 1.5;" width="96" x="59" y="484"/><text fill="#000000" font-family="sans-serif" font-size="12" lengthAdjust="spacingAndGlyphs" textLength="90" x="62" y="500.1387">TreasuryTrade</text></a><!--class TradingMarket--><a target="_top" xlink:actuate="onRequest" xlink:href="../TradingMarket.html" xlink:show="new" xlink:title="Context or geographic environment in which trading parties may meet in order to negotiate and execute trades among themselves. It also identifies the primary market where an asset is issued." xlink:type="simple"><rect fill="#EEEEEE" filter="url(#f1xn93wsx4qaxn)" height="23.9688" id="TradingMarket" style="stroke: #A80036; stroke-width: 1.5;" width="96" x="994" y="396"/><rect fill="#EEEEEE" height="23.9688" style="stroke: #A80036; stroke-width: 1.5;" width="96" x="994" y="396"/><text fill="#000000" font-family="sans-serif" font-size="12" lengthAdjust="spacingAndGlyphs" textLength="90" x="997" y="412.1387">TradingMarket</text></a><!--link Role to InformationPartyRole--><path d="M1076.12,105.559 C1073.06,127.159 1069.55,151.898 1067.58,165.865 " fill="none" id="Role-InformationPartyRole" style="stroke: #A80036; stroke-width: 1.0;"/><polygon fill="none" points="1069.22,104.342,1078.95,85.52,1083.08,106.304,1069.22,104.342" style="stroke: #A80036; stroke-width: 1.0;"/><!--link InformationPartyRole to SourceOfPrice--><path d="M1068.51,209.999 C1070.02,228.586 1071.9,251.761 1073.25,268.376 " fill="none" id="InformationPartyRole-SourceOfPrice" style="stroke: #A80036; stroke-width: 1.0;"/><polygon fill="none" points="1061.54,210.549,1066.9,190.049,1075.49,209.418,1061.54,210.549" style="stroke: #A80036; stroke-width: 1.0;"/><!--link ContactPersonRole to RolePlayer--><!--link CounterpartyRisk to ContactPersonRole--><!--link Entry to CounterpartyRisk--><!--link HaircutValuation to GenericIdentification--><!--link SecuritiesPricing to HaircutValuation--><!--link Scheme to SecuritiesPricing--><!--link Quote to Scheme--><!--link TreasuryTrade to Quote--><!--link Role to RolePlayer--><path d="M1169.46,71.118 C1339.25,86.118 1697,124.01 1697,177 C1697,177 1697,177 1697,409 C1697,474.067 1603.38,490.161 1547.57,493.975 " fill="none" id="Role-RolePlayer" style="stroke: #A80036; stroke-width: 1.0;"/><polygon fill="#A80036" points="1542.29,494.307,1551.5236,497.7334,1547.2801,493.9927,1551.0208,489.7492,1542.29,494.307" style="stroke: #A80036; stroke-width: 1.0;"/><text fill="#000000" font-family="sans-serif" font-size="13" lengthAdjust="spacingAndGlyphs" textLength="39" x="1698" y="295.0669">Player</text><text fill="#000000" font-family="sans-serif" font-size="13" lengthAdjust="spacingAndGlyphs" textLength="7" x="1550.7206" y="488.1621">*</text><!--link Role to ContactPersonRole--><path d="M1118.35,85.734 C1164.25,113.954 1244.61,166.017 1306,220 C1359.16,266.75 1363.29,287.594 1413,338 C1432.05,357.32 1455.06,378.448 1470.31,392.167 " fill="none" id="Role-ContactPersonRole" style="stroke: #A80036; stroke-width: 1.0;"/><polygon fill="#A80036" points="1474.39,395.833,1470.3676,386.843,1470.6703,392.4917,1465.0216,392.7944,1474.39,395.833" style="stroke: #A80036; stroke-width: 1.0;"/><text fill="#000000" font-family="sans-serif" font-size="13" lengthAdjust="spacingAndGlyphs" textLength="121" x="1326" y="233.0669">ContactPersonRole</text><text fill="#000000" font-family="sans-serif" font-size="13" lengthAdjust="spacingAndGlyphs" textLength="8" x="1459.3366" y="384.8238">1</text><!--link Role to CounterpartyRisk--><path d="M1169.35,70.81 C1261.65,78.984 1400.44,94.352 1449,116 C1501.51,139.407 1494.75,180.574 1492,238 C1491.42,250.034 1490.1,263.581 1488.96,273.831 " fill="none" id="Role-CounterpartyRisk" style="stroke: #A80036; stroke-width: 1.0;"/><polygon fill="#A80036" points="1488.38,278.864,1493.3743,270.3754,1488.9467,273.8962,1485.4259,269.4686,1488.38,278.864" style="stroke: #A80036; stroke-width: 1.0;"/><text fill="#000000" font-family="sans-serif" font-size="13" lengthAdjust="spacingAndGlyphs" textLength="109" x="1494" y="182.0669">CounterpartyRisk</text><text fill="#000000" font-family="sans-serif" font-size="13" lengthAdjust="spacingAndGlyphs" textLength="24" x="1459.2997" y="267.8655">0..1</text><!--link Role to Entry--><path d="M1169.38,66.017 C1230.88,70.526 1313.57,82.982 1379,116 C1400.61,126.905 1419.88,147.52 1431.49,161.746 " fill="none" id="Role-Entry" style="stroke: #A80036; stroke-width: 1.0;"/><polygon fill="#A80036" points="1434.85,165.937,1432.347,156.4115,1431.7248,162.0341,1426.1022,161.4119,1434.85,165.937" style="stroke: #A80036; stroke-width: 1.0;"/><text fill="#000000" font-family="sans-serif" font-size="13" lengthAdjust="spacingAndGlyphs" textLength="33" x="1406" y="129.0669">Entry</text><text fill="#000000" font-family="sans-serif" font-size="13" lengthAdjust="spacingAndGlyphs" textLength="8" x="1421.3297" y="154.9636">1</text><!--link InformationPartyRole to GenericIdentification--><path d="M997.642,182.957 C908.102,188.851 760.482,201.287 744,220 C731.143,234.598 735.52,258.275 740.617,273.99 " fill="none" id="InformationPartyRole-GenericIdentification" style="stroke: #A80036; stroke-width: 1.0;"/><polygon fill="#A80036" points="742.349,278.99,743.1842,269.1766,740.7131,274.2652,735.6245,271.7941,742.349,278.99" style="stroke: #A80036; stroke-width: 1.0;"/><text fill="#000000" font-family="sans-serif" font-size="13" lengthAdjust="spacingAndGlyphs" textLength="130" x="745" y="233.0669">GenericIdentification</text><text fill="#000000" font-family="sans-serif" font-size="13" lengthAdjust="spacingAndGlyphs" textLength="7" x="731.1174" y="268.0348">*</text><!--link InformationPartyRole to HaircutValuation--><path d="M1134,185.92 C1196.67,196.5 1280,223.139 1280,290 C1280,290 1280,290 1280,497 C1280,565.6492 1054.5,588.7585 943.404,595.9781 " fill="none" id="InformationPartyRole-HaircutValuation" style="stroke: #A80036; stroke-width: 1.0;"/><polygon fill="#A80036" points="938.201,596.31,947.4366,599.7311,943.1909,595.9929,946.9292,591.7472,938.201,596.31" style="stroke: #A80036; stroke-width: 1.0;"/><text fill="#000000" font-family="sans-serif" font-size="13" lengthAdjust="spacingAndGlyphs" textLength="106" x="1281" y="412.0669">HaircutValuation</text><text fill="#000000" font-family="sans-serif" font-size="13" lengthAdjust="spacingAndGlyphs" textLength="7" x="946.0889" y="590.7499">*</text><!--link InformationPartyRole to SecuritiesPricing--><path d="M1094.01,190.118 C1119.57,201.955 1155.76,223.374 1172,255 C1212.64,334.149 1183.38,400.074 1106,444 C1054.19,473.415 886.393,486.853 795.252,492.113 " fill="none" id="InformationPartyRole-SecuritiesPricing" style="stroke: #A80036; stroke-width: 1.0;"/><polygon fill="#A80036" points="790.166,492.403,799.3789,495.8848,795.1579,492.1187,798.924,487.8977,790.166,492.403" style="stroke: #A80036; stroke-width: 1.0;"/><text fill="#000000" font-family="sans-serif" font-size="13" lengthAdjust="spacingAndGlyphs" textLength="31" x="1190" y="359.0669">Price</text><text fill="#000000" font-family="sans-serif" font-size="13" lengthAdjust="spacingAndGlyphs" textLength="7" x="798.0492" y="486.8554">*</text><!--link InformationPartyRole to Scheme--><path d="M1039.52,190.037 C1009.38,203.227 959.366,227.054 921,255 C865.112,295.709 864.047,320.877 810,364 C796.411,374.843 780.001,385.411 766.823,393.357 " fill="none" id="InformationPartyRole-Scheme" style="stroke: #A80036; stroke-width: 1.0;"/><polygon fill="#A80036" points="762.486,395.948,772.2638,394.7667,766.7785,393.3839,768.1612,387.8987,762.486,395.948" style="stroke: #A80036; stroke-width: 1.0;"/><text fill="#000000" font-family="sans-serif" font-size="13" lengthAdjust="spacingAndGlyphs" textLength="53" x="922" y="295.0669">Scheme</text><text fill="#000000" font-family="sans-serif" font-size="13" lengthAdjust="spacingAndGlyphs" textLength="24" x="773.1374" y="384.9783">0..1</text><!--link InformationPartyRole to Quote--><path d="M997.674,178.961 C763.251,179.717 6,189.908 6,290 C6,290 6,290 6,497 C6,539.789 51.4358,570.8973 81.6579,586.8565 " fill="none" id="InformationPartyRole-Quote" style="stroke: #A80036; stroke-width: 1.0;"/><polygon fill="#A80036" points="86.3684,589.2873,80.2048,581.6055,81.9251,586.9944,76.5362,588.7148,86.3684,589.2873" style="stroke: #A80036; stroke-width: 1.0;"/><text fill="#000000" font-family="sans-serif" font-size="13" lengthAdjust="spacingAndGlyphs" textLength="39" x="7" y="412.0669">Quote</text><text fill="#000000" font-family="sans-serif" font-size="13" lengthAdjust="spacingAndGlyphs" textLength="24" x="54.4519" y="581.5878">0..1</text><!--link InformationPartyRole to TreasuryTrade--><path d="M997.727,181.412 C928.829,185.21 819.918,194.967 729,220 C484.295,287.375 211.968,435.508 130.956,481.263 " fill="none" id="InformationPartyRole-TreasuryTrade" style="stroke: #A80036; stroke-width: 1.0;"/><polygon fill="#A80036" points="126.344,483.874,136.1466,482.9206,130.695,481.4106,132.2051,475.959,126.344,483.874" style="stroke: #A80036; stroke-width: 1.0;"/><text fill="#000000" font-family="sans-serif" font-size="13" lengthAdjust="spacingAndGlyphs" textLength="91" x="392" y="359.0669">TreasuryTrade</text><text fill="#000000" font-family="sans-serif" font-size="13" lengthAdjust="spacingAndGlyphs" textLength="7" x="123.4466" y="472.8789">*</text><!--link SourceOfPrice to TradingMarket--><path d="M1055.84,313.521 C1048.78,322.833 1041.63,334.276 1038,346 C1033.44,360.725 1035.34,378.378 1037.84,390.896 " fill="none" id="SourceOfPrice-TradingMarket" style="stroke: #A80036; stroke-width: 1.0;"/><polygon fill="#A80036" points="1038.93,395.923,1040.9308,386.2795,1037.8699,391.0367,1033.1127,387.9757,1038.93,395.923" style="stroke: #A80036; stroke-width: 1.0;"/><text fill="#000000" font-family="sans-serif" font-size="13" lengthAdjust="spacingAndGlyphs" textLength="125" x="1039" y="359.0669">MarketIdentification</text><text fill="#000000" font-family="sans-serif" font-size="13" lengthAdjust="spacingAndGlyphs" textLength="8" x="1027.1559" y="384.9447">1</text><!--link GenericIdentification to Scheme--><path d="M746.616,303.027 C745.907,323.41 744.389,367.066 743.563,390.811 " fill="none" id="GenericIdentification-Scheme" style="stroke: #A80036; stroke-width: 1.0;"/><polygon fill="#A80036" points="743.388,395.838,747.6993,386.9829,743.5623,390.841,739.7041,386.704,743.388,395.838" style="stroke: #A80036; stroke-width: 1.0;"/><text fill="#000000" font-family="sans-serif" font-size="13" lengthAdjust="spacingAndGlyphs" textLength="53" x="747" y="359.0669">Scheme</text><text fill="#000000" font-family="sans-serif" font-size="13" lengthAdjust="spacingAndGlyphs" textLength="8" x="732.6308" y="384.8305">1</text><!--link SecuritiesPricing to Quote--><path d="M679.764,501.112 C625.549,506.277 541.037,517.368 471,540 C453.978,545.5006 452.12,552.813 435,558 C327.051,590.7064 191.442,597.3537 134.79,598.6814 " fill="none" id="SecuritiesPricing-Quote" style="stroke: #A80036; stroke-width: 1.0;"/><polygon fill="#A80036" points="129.558,598.794,138.6416,602.6002,134.5569,598.6869,138.4702,594.6021,129.558,598.794" style="stroke: #A80036; stroke-width: 1.0;"/><text fill="#000000" font-family="sans-serif" font-size="13" lengthAdjust="spacingAndGlyphs" textLength="218" x="472" y="553.0669">PreviousClosingPriceRelatedQuote</text><text fill="#000000" font-family="sans-serif" font-size="13" lengthAdjust="spacingAndGlyphs" textLength="24" x="138.4423" y="612.5745">0..1</text><!--link SecuritiesPricing to Quote--><path d="M731.348,508.33 C726.065,522.667 714.806,546.8344 696,558 C647.326,586.898 243.532,596.4707 134.85,598.5364 " fill="none" id="SecuritiesPricing-Quote" style="stroke: #A80036; stroke-width: 1.0;"/><polygon fill="#A80036" points="129.601,598.6347,138.6737,602.4669,134.6001,598.5418,138.5252,594.4682,129.601,598.6347" style="stroke: #A80036; stroke-width: 1.0;"/><text fill="#000000" font-family="sans-serif" font-size="13" lengthAdjust="spacingAndGlyphs" textLength="186" x="716" y="553.0669">RequestedPriceRelatedQuote</text><text fill="#000000" font-family="sans-serif" font-size="13" lengthAdjust="spacingAndGlyphs" textLength="24" x="138.4969" y="592.0723">0..1</text><!--link SecuritiesPricing to Quote--><path d="M679.889,500.516 C526.806,510.314 107.447,537.381 105,540 C94.493,551.2486 97.3364,569.5855 101.488,582.8339 " fill="none" id="SecuritiesPricing-Quote" style="stroke: #A80036; stroke-width: 1.0;"/><polygon fill="#A80036" points="103.1823,587.8123,104.0692,578.0035,101.5713,583.0789,96.4958,580.581,103.1823,587.8123" style="stroke: #A80036; stroke-width: 1.0;"/><text fill="#000000" font-family="sans-serif" font-size="13" lengthAdjust="spacingAndGlyphs" textLength="118" x="106" y="553.0669">PriceRelatedQuote</text><text fill="#000000" font-family="sans-serif" font-size="13" lengthAdjust="spacingAndGlyphs" textLength="24" x="105.3958" y="577.0536">0..1</text><!--link SecuritiesPricing to Quote--><path d="M679.894,499.112 C572.426,503.705 338.67,516.155 262,540 C246.418,544.846 244.911,551.3716 230,558 C198.033,572.2104 159.536,584.3743 134.452,591.6799 " fill="none" id="SecuritiesPricing-Quote" style="stroke: #A80036; stroke-width: 1.0;"/><polygon fill="#A80036" points="129.62,593.0754,139.3764,594.4214,134.4237,591.6882,137.1569,586.7355,129.62,593.0754" style="stroke: #A80036; stroke-width: 1.0;"/><text fill="#000000" font-family="sans-serif" font-size="13" lengthAdjust="spacingAndGlyphs" textLength="162" x="263" y="553.0669">MarketPriceRelatedQuote</text><text fill="#000000" font-family="sans-serif" font-size="13" lengthAdjust="spacingAndGlyphs" textLength="24" x="138.521" y="585.019">0..1</text></g></svg>