<?xml version="1.0" encoding="UTF-8" standalone="no"?><svg xmlns="http://www.w3.org/2000/svg" xmlns:xlink="http://www.w3.org/1999/xlink" contentScriptType="application/ecmascript" contentStyleType="text/css" height="621px" preserveAspectRatio="none" style="width:1034px;height:621px;" version="1.1" viewBox="0 0 1034 621" width="1034px" zoomAndPan="magnify"><defs><filter height="300%" id="f1gv1dzr3jzyjz" width="300%" x="-1" y="-1"><feGaussianBlur result="blurOut" stdDeviation="2.0"/><feColorMatrix in="blurOut" result="blurOut2" type="matrix" values="0 0 0 0 0 0 0 0 0 0 0 0 0 0 0 0 0 0 .4 0"/><feOffset dx="4.0" dy="4.0" in="blurOut2" result="blurOut3"/><feBlend in="SourceGraphic" in2="blurOut3" mode="normal"/></filter></defs><g><!--cluster ##8995--><!--cluster ##8998--><!--class Spread--><a target="_top" xlink:actuate="onRequest" xlink:href="../Spread.html" xlink:show="new" xlink:title="Margin over or under an index which determines a rate." xlink:type="simple"><rect fill="#FEFECE" filter="url(#f1gv1dzr3jzyjz)" height="70.3828" id="Spread" style="stroke: #A80036; stroke-width: 1.5;" width="194" x="307.5" y="40"/><rect fill="#FEFECE" height="23.9688" style="stroke: #A80036; stroke-width: 1.5;" width="194" x="307.5" y="40"/><text fill="#000000" font-family="sans-serif" font-size="12" lengthAdjust="spacingAndGlyphs" textLength="45" x="382" y="56.1387">Spread</text><line style="stroke: #A80036; stroke-width: 1.5;" x1="308.5" x2="500.5" y1="63.9688" y2="63.9688"/><ellipse cx="318.5" cy="75.8711" fill="#84BE84" rx="3" ry="3" style="stroke: #038048; stroke-width: 1.0;"/><text fill="#000000" font-family="sans-serif" font-size="11" lengthAdjust="spacingAndGlyphs" textLength="66" x="327.5" y="78.1792">SpreadRate</text><text fill="#000000" font-family="sans-serif" font-size="11" font-style="italic" lengthAdjust="spacingAndGlyphs" textLength="98" x="397.5" y="78.1792">(PercentageRate)</text><ellipse cx="318.5" cy="88.6758" fill="#84BE84" rx="3" ry="3" style="stroke: #038048; stroke-width: 1.0;"/><text fill="#000000" font-family="sans-serif" font-size="11" lengthAdjust="spacingAndGlyphs" textLength="101" x="327.5" y="90.9839">BasisPointSpread</text><text fill="#000000" font-family="sans-serif" font-size="11" font-style="italic" lengthAdjust="spacingAndGlyphs" textLength="53" x="432.5" y="90.9839">(Number)</text><ellipse cx="318.5" cy="101.4805" fill="#84BE84" rx="3" ry="3" style="stroke: #038048; stroke-width: 1.0;"/><text fill="#000000" font-family="sans-serif" font-size="11" lengthAdjust="spacingAndGlyphs" textLength="63" x="327.5" y="103.7886">PriceOffset</text><text fill="#000000" font-family="sans-serif" font-size="11" font-style="italic" lengthAdjust="spacingAndGlyphs" textLength="98" x="394.5" y="103.7886">(DecimalNumber)</text></a><!--class Security--><a target="_top" xlink:actuate="onRequest" xlink:href="../Security.html" xlink:show="new" xlink:title="Financial instruments representing a sum of rights of the investor vis-a-vis the issuer." xlink:type="simple"><rect fill="#EEEEEE" filter="url(#f1gv1dzr3jzyjz)" height="23.9688" id="Security" style="stroke: #A80036; stroke-width: 1.5;" width="56" x="258.5" y="192"/><rect fill="#EEEEEE" height="23.9688" style="stroke: #A80036; stroke-width: 1.5;" width="56" x="258.5" y="192"/><text fill="#000000" font-family="sans-serif" font-size="12" lengthAdjust="spacingAndGlyphs" textLength="50" x="261.5" y="208.1387">Security</text></a><!--class SecuritiesFinancing--><a target="_top" xlink:actuate="onRequest" xlink:href="../SecuritiesFinancing.html" xlink:show="new" xlink:title="Process of lending or borrowing cash or securities against securities or cash collateral. It aims at optimising liquidity, support a trading strategy, or increase settlement efficiency." xlink:type="simple"><rect fill="#EEEEEE" filter="url(#f1gv1dzr3jzyjz)" height="23.9688" id="SecuritiesFinancing" style="stroke: #A80036; stroke-width: 1.5;" width="128" x="146" y="482"/><rect fill="#EEEEEE" height="23.9688" style="stroke: #A80036; stroke-width: 1.5;" width="128" x="146" y="482"/><text fill="#000000" font-family="sans-serif" font-size="12" lengthAdjust="spacingAndGlyphs" textLength="122" x="149" y="498.1387">SecuritiesFinancing</text></a><!--class Index--><a target="_top" xlink:actuate="onRequest" xlink:href="../Index.html" xlink:show="new" xlink:title="Identifies the index." xlink:type="simple"><rect fill="#EEEEEE" filter="url(#f1gv1dzr3jzyjz)" height="23.9688" id="Index" style="stroke: #A80036; stroke-width: 1.5;" width="39" x="274.75" y="396"/><rect fill="#EEEEEE" height="23.9688" style="stroke: #A80036; stroke-width: 1.5;" width="39" x="274.75" y="396"/><text fill="#000000" font-family="sans-serif" font-size="12" lengthAdjust="spacingAndGlyphs" textLength="33" x="277.75" y="412.1387">Index</text></a><!--class SecuritiesPricing--><a target="_top" xlink:actuate="onRequest" xlink:href="../SecuritiesPricing.html" xlink:show="new" xlink:title="Characteristics related to the price of the security." xlink:type="simple"><rect fill="#EEEEEE" filter="url(#f1gv1dzr3jzyjz)" height="23.9688" id="SecuritiesPricing" style="stroke: #A80036; stroke-width: 1.5;" width="110" x="167" y="294"/><rect fill="#EEEEEE" height="23.9688" style="stroke: #A80036; stroke-width: 1.5;" width="110" x="167" y="294"/><text fill="#000000" font-family="sans-serif" font-size="12" lengthAdjust="spacingAndGlyphs" textLength="104" x="170" y="310.1387">SecuritiesPricing</text></a><!--class BuyOrSellIndicationOfInterest--><a target="_top" xlink:actuate="onRequest" xlink:href="../BuyOrSellIndicationOfInterest.html" xlink:show="new" xlink:title="Intention to buy or sell a financial Instrument." xlink:type="simple"><rect fill="#EEEEEE" filter="url(#f1gv1dzr3jzyjz)" height="23.9688" id="BuyOrSellIndicationOfInterest" style="stroke: #A80036; stroke-width: 1.5;" width="187" x="246.75" y="584"/><rect fill="#EEEEEE" height="23.9688" style="stroke: #A80036; stroke-width: 1.5;" width="187" x="246.75" y="584"/><text fill="#000000" font-family="sans-serif" font-size="12" lengthAdjust="spacingAndGlyphs" textLength="181" x="249.75" y="600.1387">BuyOrSellIndicationOfInterest</text></a><!--class InterestCalculation--><a target="_top" xlink:actuate="onRequest" xlink:href="../InterestCalculation.html" xlink:show="new" xlink:title="Set of parameters used to calculate an interest amount." xlink:type="simple"><rect fill="#EEEEEE" filter="url(#f1gv1dzr3jzyjz)" height="23.9688" id="InterestCalculation" style="stroke: #A80036; stroke-width: 1.5;" width="124" x="309.5" y="482"/><rect fill="#EEEEEE" height="23.9688" style="stroke: #A80036; stroke-width: 1.5;" width="124" x="309.5" y="482"/><text fill="#000000" font-family="sans-serif" font-size="12" lengthAdjust="spacingAndGlyphs" textLength="118" x="312.5" y="498.1387">InterestCalculation</text></a><!--class Curve--><a target="_top" xlink:actuate="onRequest" xlink:href="../Curve.html" xlink:show="new" xlink:title="Describes a benchmark curve." xlink:type="simple"><rect fill="#EEEEEE" filter="url(#f1gv1dzr3jzyjz)" height="23.9688" id="Curve" style="stroke: #A80036; stroke-width: 1.5;" width="41" x="389.75" y="396"/><rect fill="#EEEEEE" height="23.9688" style="stroke: #A80036; stroke-width: 1.5;" width="41" x="389.75" y="396"/><text fill="#000000" font-family="sans-serif" font-size="12" lengthAdjust="spacingAndGlyphs" textLength="35" x="392.75" y="412.1387">Curve</text></a><!--link SecuritiesFinancing to Security--><!--link Index to SecuritiesFinancing--><!--link SecuritiesPricing to Index--><!--link Index to SecuritiesPricing--><path d="M274.42,402.941 C255.489,397.862 227.839,387.129 215,366 C207.15,353.082 210.581,335.62 214.951,323.049 " fill="none" id="Index-SecuritiesPricing" style="stroke: #A80036; stroke-width: 1.0;"/><polygon fill="#A80036" points="216.716,318.324,209.8186,325.3543,214.9657,323.0076,217.3124,328.1548,216.716,318.324" style="stroke: #A80036; stroke-width: 1.0;"/><text fill="#000000" font-family="sans-serif" font-size="13" lengthAdjust="spacingAndGlyphs" textLength="105" x="216" y="361.0669">SecuritiesPricing</text><text fill="#000000" font-family="sans-serif" font-size="13" lengthAdjust="spacingAndGlyphs" textLength="8" x="216.2265" y="337.9801">1</text><!--link BuyOrSellIndicationOfInterest to SecuritiesPricing--><!--link InterestCalculation to BuyOrSellIndicationOfInterest--><!--link Curve to InterestCalculation--><!--link Spread to Security--><path d="M307.346,85.977 C271.724,94.881 234.783,111.427 213,142 C208.358,148.515 208.641,153.292 213,160 C217.77,167.341 223.286,163.861 231,168 C242.868,174.368 255.587,182.379 265.801,189.129 " fill="none" id="Spread-Security" style="stroke: #A80036; stroke-width: 1.0;"/><polygon fill="#A80036" points="270.015,191.936,264.7414,183.618,265.8534,189.1645,260.307,190.2765,270.015,191.936" style="stroke: #A80036; stroke-width: 1.0;"/><text fill="#000000" font-family="sans-serif" font-size="13" lengthAdjust="spacingAndGlyphs" textLength="125" x="214" y="155.0669">BenchmarkSecurity</text><text fill="#000000" font-family="sans-serif" font-size="13" lengthAdjust="spacingAndGlyphs" textLength="8" x="253.6295" y="180.9622">1</text><!--link Spread to SecuritiesFinancing--><path d="M307.401,87.356 C189.602,103.957 6,139.944 6,203 C6,203 6,203 6,409 C6,468.58 81.3215,486.769 140.428,491.87 " fill="none" id="Spread-SecuritiesFinancing" style="stroke: #A80036; stroke-width: 1.0;"/><polygon fill="#A80036" points="145.733,492.296,137.0832,487.5864,140.7491,491.8946,136.4409,495.5606,145.733,492.296" style="stroke: #A80036; stroke-width: 1.0;"/><text fill="#000000" font-family="sans-serif" font-size="13" lengthAdjust="spacingAndGlyphs" textLength="123" x="7" y="310.0669">SecuritiesFinancing</text><text fill="#000000" font-family="sans-serif" font-size="13" lengthAdjust="spacingAndGlyphs" textLength="24" x="114.0929" y="487.493">0..1</text><!--link Spread to Index--><path d="M395.116,110.046 C386.346,144.265 372.855,198.589 363,246 C351.981,299.011 368.836,318.974 342,366 C335.876,376.731 325.838,385.962 316.52,392.932 " fill="none" id="Spread-Index" style="stroke: #A80036; stroke-width: 1.0;"/><polygon fill="#A80036" points="312.306,395.973,321.9449,393.95,316.3605,393.0471,317.2634,387.4628,312.306,395.973" style="stroke: #A80036; stroke-width: 1.0;"/><text fill="#000000" font-family="sans-serif" font-size="13" lengthAdjust="spacingAndGlyphs" textLength="34" x="364" y="259.0669">Index</text><text fill="#000000" font-family="sans-serif" font-size="13" lengthAdjust="spacingAndGlyphs" textLength="24" x="289.044" y="385.0119">0..1</text><!--link Spread to SecuritiesPricing--><path d="M307.201,80.965 C246.071,89.773 171.586,112.225 133,168 C102.4521,212.155 165.75,265.922 200.805,290.94 " fill="none" id="Spread-SecuritiesPricing" style="stroke: #A80036; stroke-width: 1.0;"/><polygon fill="#A80036" points="204.931,293.846,199.8747,285.3942,200.8426,290.9676,195.2692,291.9355,204.931,293.846" style="stroke: #A80036; stroke-width: 1.0;"/><text fill="#000000" font-family="sans-serif" font-size="13" lengthAdjust="spacingAndGlyphs" textLength="104" x="134" y="208.0669">BenchmarkPrice</text><text fill="#000000" font-family="sans-serif" font-size="13" lengthAdjust="spacingAndGlyphs" textLength="8" x="188.3448" y="282.8413">1</text><!--link Spread to BuyOrSellIndicationOfInterest--><path d="M500.558,84.041 C631.436,97.653 849,131.094 849,203 C849,203 849,203 849,495 C849,577.7718 586.563,593.2347 438.574,595.3741 " fill="none" id="Spread-BuyOrSellIndicationOfInterest" style="stroke: #A80036; stroke-width: 1.0;"/><polygon fill="#A80036" points="433.358,595.4447,442.412,599.3209,438.3575,595.3761,442.3023,591.3216,433.358,595.4447" style="stroke: #A80036; stroke-width: 1.0;"/><text fill="#000000" font-family="sans-serif" font-size="13" lengthAdjust="spacingAndGlyphs" textLength="172" x="850" y="361.0669">RelatedIndicationOfInterest</text><text fill="#000000" font-family="sans-serif" font-size="13" lengthAdjust="spacingAndGlyphs" textLength="7" x="441.6603" y="608.1155">*</text><!--link Spread to BuyOrSellIndicationOfInterest--><path d="M500.841,81.45 C581.071,91.83 682,121.152 682,203 C682,203 682,203 682,495 C682,546.1007 539.563,572.8935 438.533,585.4703 " fill="none" id="Spread-BuyOrSellIndicationOfInterest" style="stroke: #A80036; stroke-width: 1.0;"/><polygon fill="#A80036" points="433.453,586.0952,442.8738,588.9673,438.4156,585.4852,441.8978,581.0271,433.453,586.0952" style="stroke: #A80036; stroke-width: 1.0;"/><text fill="#000000" font-family="sans-serif" font-size="13" lengthAdjust="spacingAndGlyphs" textLength="124" x="683" y="361.0669">IndicationOfInterest</text><text fill="#000000" font-family="sans-serif" font-size="13" lengthAdjust="spacingAndGlyphs" textLength="24" x="441.8364" y="580.702">0..1</text><!--link Spread to InterestCalculation--><path d="M450.28,110.128 C491.77,145.263 543.98,203.305 529,264 C510.231,340.046 494.074,357.396 447,420 C429.87,442.781 405.442,464.871 388.943,478.674 " fill="none" id="Spread-InterestCalculation" style="stroke: #A80036; stroke-width: 1.0;"/><polygon fill="#A80036" points="384.928,482,394.4103,479.3379,388.7781,478.8099,389.3061,473.1778,384.928,482" style="stroke: #A80036; stroke-width: 1.0;"/><text fill="#000000" font-family="sans-serif" font-size="13" lengthAdjust="spacingAndGlyphs" textLength="97" x="522" y="310.0669">RelatedInterest</text><text fill="#000000" font-family="sans-serif" font-size="13" lengthAdjust="spacingAndGlyphs" textLength="8" x="378.8251" y="471.0482">1</text><!--link Spread to Curve--><path d="M404.62,110.176 C405.896,180.617 408.779,339.642 409.707,390.812 " fill="none" id="Spread-Curve" style="stroke: #A80036; stroke-width: 1.0;"/><polygon fill="#A80036" points="409.8,395.966,413.6347,386.8944,409.7086,390.9668,405.6361,387.0407,409.8,395.966" style="stroke: #A80036; stroke-width: 1.0;"/><text fill="#000000" font-family="sans-serif" font-size="13" lengthAdjust="spacingAndGlyphs" textLength="110" x="409" y="259.0669">BenchmarkCurve</text><text fill="#000000" font-family="sans-serif" font-size="13" lengthAdjust="spacingAndGlyphs" textLength="8" x="398.9266" y="385.0025">1</text><!--link Security to SecuritiesPricing--><path d="M278.599,216.093 C273.135,224.318 265.543,235.819 259,246 C249.651,260.546 239.2,277.253 231.796,289.167 " fill="none" id="Security-SecuritiesPricing" style="stroke: #A80036; stroke-width: 1.0;"/><polygon fill="#A80036" points="229.019,293.642,237.1639,288.1048,231.6559,289.3938,230.3669,283.8858,229.019,293.642" style="stroke: #A80036; stroke-width: 1.0;"/><text fill="#000000" font-family="sans-serif" font-size="13" lengthAdjust="spacingAndGlyphs" textLength="42" x="260" y="259.0669">Pricing</text><text fill="#000000" font-family="sans-serif" font-size="13" lengthAdjust="spacingAndGlyphs" textLength="7" x="221.8534" y="282.8269">*</text><!--link SecuritiesFinancing to SecuritiesPricing--><path d="M207.206,481.847 C201.52,457.21 190.177,396.487 203,348 C205.282,339.373 209.287,330.317 213.034,322.918 " fill="none" id="SecuritiesFinancing-SecuritiesPricing" style="stroke: #A80036; stroke-width: 1.0;"/><polygon fill="#A80036" points="215.562,318.085,207.8455,324.2051,213.244,322.5152,214.9339,327.9138,215.562,318.085" style="stroke: #A80036; stroke-width: 1.0;"/><text fill="#000000" font-family="sans-serif" font-size="13" lengthAdjust="spacingAndGlyphs" textLength="55" x="199" y="412.0669">EndPrice</text><text fill="#000000" font-family="sans-serif" font-size="13" lengthAdjust="spacingAndGlyphs" textLength="7" x="203.0501" y="338.2645">*</text><!--link SecuritiesFinancing to BuyOrSellIndicationOfInterest--><path d="M201.516,506.066 C192.876,518.785 182.171,539.737 193,554 C202.429,566.4187 234.263,576.085 265.905,582.9045 " fill="none" id="SecuritiesFinancing-BuyOrSellIndicationOfInterest" style="stroke: #A80036; stroke-width: 1.0;"/><polygon fill="#A80036" points="270.979,583.9746,262.9993,578.2018,266.0868,582.9418,261.3469,586.0293,270.979,583.9746" style="stroke: #A80036; stroke-width: 1.0;"/><text fill="#000000" font-family="sans-serif" font-size="13" lengthAdjust="spacingAndGlyphs" textLength="172" x="194" y="549.0669">RelatedIndicationOfInterest</text><text fill="#000000" font-family="sans-serif" font-size="13" lengthAdjust="spacingAndGlyphs" textLength="24" x="217.6983" y="573.0141">0..1</text></g></svg>