<?xml version="1.0" encoding="UTF-8" standalone="no"?><svg xmlns="http://www.w3.org/2000/svg" xmlns:xlink="http://www.w3.org/1999/xlink" contentScriptType="application/ecmascript" contentStyleType="text/css" height="500px" preserveAspectRatio="none" style="width:1283px;height:500px;" version="1.1" viewBox="0 0 1283 500" width="1283px" zoomAndPan="magnify"><defs><filter height="300%" id="f1e8s8412nziim" width="300%" x="-1" y="-1"><feGaussianBlur result="blurOut" stdDeviation="2.0"/><feColorMatrix in="blurOut" result="blurOut2" type="matrix" values="0 0 0 0 0 0 0 0 0 0 0 0 0 0 0 0 0 0 .4 0"/><feOffset dx="4.0" dy="4.0" in="blurOut2" result="blurOut3"/><feBlend in="SourceGraphic" in2="blurOut3" mode="normal"/></filter></defs><g><!--cluster ##14103--><!--cluster ##14112--><!--cluster ##14121--><!--cluster ##14126--><!--class Role--><a target="_top" xlink:actuate="onRequest" xlink:href="../Role.html" xlink:show="new" xlink:title="Role of a party in an activity." xlink:type="simple"><rect fill="#FEFEEE" filter="url(#f1e8s8412nziim)" height="44.7734" id="Role" style="stroke: #A80036; stroke-width: 1.5;" width="175" x="159.75" y="40.5"/><rect fill="#FEFEEE" height="23.9688" style="stroke: #A80036; stroke-width: 1.5;" width="175" x="159.75" y="40.5"/><text fill="#000000" font-family="sans-serif" font-size="12" lengthAdjust="spacingAndGlyphs" textLength="27" x="233.75" y="56.6387">Role</text><line style="stroke: #A80036; stroke-width: 1.5;" x1="160.75" x2="333.75" y1="64.4688" y2="64.4688"/><ellipse cx="170.75" cy="76.3711" fill="#84BE84" rx="3" ry="3" style="stroke: #038048; stroke-width: 1.0;"/><text fill="#000000" font-family="sans-serif" font-size="11" lengthAdjust="spacingAndGlyphs" textLength="53" x="179.75" y="78.6792">PartyRole</text><text fill="#000000" font-family="sans-serif" font-size="11" font-style="italic" lengthAdjust="spacingAndGlyphs" textLength="92" x="236.75" y="78.6792">(PartyRoleCode)</text></a><!--class SettlementPartyRole--><a target="_top" xlink:actuate="onRequest" xlink:href="../SettlementPartyRole.html" xlink:show="new" xlink:title="Role played by a party in a settlement process." xlink:type="simple"><rect fill="#FEFEEE" filter="url(#f1e8s8412nziim)" height="23.9688" id="SettlementPartyRole" style="stroke: #A80036; stroke-width: 1.5;" width="134" x="191" y="166"/><rect fill="#FEFEEE" height="23.9688" style="stroke: #A80036; stroke-width: 1.5;" width="134" x="191" y="166"/><text fill="#000000" font-family="sans-serif" font-size="12" lengthAdjust="spacingAndGlyphs" textLength="128" x="194" y="182.1387">SettlementPartyRole</text></a><!--class SSIDatabaseProvider--><a target="_top" xlink:actuate="onRequest" xlink:href="../SSIDatabaseProvider.html" xlink:show="new" xlink:title="Provider of a standing settlement instruction (SSI) database." xlink:type="simple"><rect fill="#FEFECE" filter="url(#f1e8s8412nziim)" height="23.9688" id="SSIDatabaseProvider" style="stroke: #A80036; stroke-width: 1.5;" width="137" x="166.75" y="270"/><rect fill="#FEFECE" height="23.9688" style="stroke: #A80036; stroke-width: 1.5;" width="137" x="166.75" y="270"/><text fill="#000000" font-family="sans-serif" font-size="12" lengthAdjust="spacingAndGlyphs" textLength="131" x="169.75" y="286.1387">SSIDatabaseProvider</text></a><!--class RolePlayer--><a target="_top" xlink:actuate="onRequest" xlink:href="../RolePlayer.html" xlink:show="new" xlink:title="Type of entity that plays a specific role in a specific context." xlink:type="simple"><rect fill="#EEEEEE" filter="url(#f1e8s8412nziim)" height="23.9688" id="RolePlayer" style="stroke: #A80036; stroke-width: 1.5;" width="71" x="858.75" y="466"/><rect fill="#EEEEEE" height="23.9688" style="stroke: #A80036; stroke-width: 1.5;" width="71" x="858.75" y="466"/><text fill="#000000" font-family="sans-serif" font-size="12" lengthAdjust="spacingAndGlyphs" textLength="65" x="861.75" y="482.1387">RolePlayer</text></a><!--class ContactPersonRole--><a target="_top" xlink:actuate="onRequest" xlink:href="../ContactPersonRole.html" xlink:show="new" xlink:title="Person to be contacted in a given organisation. In the corporate action domain (including meeting notifications) , it is the contact person at the party organising the meeting, at the issuer or at an intermediary." xlink:type="simple"><rect fill="#EEEEEE" filter="url(#f1e8s8412nziim)" height="23.9688" id="ContactPersonRole" style="stroke: #A80036; stroke-width: 1.5;" width="126" x="811" y="376"/><rect fill="#EEEEEE" height="23.9688" style="stroke: #A80036; stroke-width: 1.5;" width="126" x="811" y="376"/><text fill="#000000" font-family="sans-serif" font-size="12" lengthAdjust="spacingAndGlyphs" textLength="120" x="814" y="392.1387">ContactPersonRole</text></a><!--class CounterpartyRisk--><a target="_top" xlink:actuate="onRequest" xlink:href="../CounterpartyRisk.html" xlink:show="new" xlink:title="Calculation of the exposure amount that one party has vis-a-vis one counterparty or a central system, based on its credit risk." xlink:type="simple"><rect fill="#EEEEEE" filter="url(#f1e8s8412nziim)" height="23.9688" id="CounterpartyRisk" style="stroke: #A80036; stroke-width: 1.5;" width="113" x="823.75" y="270"/><rect fill="#EEEEEE" height="23.9688" style="stroke: #A80036; stroke-width: 1.5;" width="113" x="823.75" y="270"/><text fill="#000000" font-family="sans-serif" font-size="12" lengthAdjust="spacingAndGlyphs" textLength="107" x="826.75" y="286.1387">CounterpartyRisk</text></a><!--class Entry--><a target="_top" xlink:actuate="onRequest" xlink:href="../Entry.html" xlink:show="new" xlink:title="Posting to an account that results in an increase or decrease to a balance." xlink:type="simple"><rect fill="#EEEEEE" filter="url(#f1e8s8412nziim)" height="23.9688" id="Entry" style="stroke: #A80036; stroke-width: 1.5;" width="38" x="811" y="166"/><rect fill="#EEEEEE" height="23.9688" style="stroke: #A80036; stroke-width: 1.5;" width="38" x="811" y="166"/><text fill="#000000" font-family="sans-serif" font-size="12" lengthAdjust="spacingAndGlyphs" textLength="32" x="814" y="182.1387">Entry</text></a><!--class Account--><a target="_top" xlink:actuate="onRequest" xlink:href="../Account.html" xlink:show="new" xlink:title="Record of transactions in specific types of assets, maintained by a servicing party on behalf of one or more owning parties. Business relationship between an account servicer and one or more account owners." xlink:type="simple"><rect fill="#EEEEEE" filter="url(#f1e8s8412nziim)" height="23.9688" id="Account" style="stroke: #A80036; stroke-width: 1.5;" width="57" x="391.75" y="376"/><rect fill="#EEEEEE" height="23.9688" style="stroke: #A80036; stroke-width: 1.5;" width="57" x="391.75" y="376"/><text fill="#000000" font-family="sans-serif" font-size="12" lengthAdjust="spacingAndGlyphs" textLength="51" x="394.75" y="392.1387">Account</text></a><!--class Settlement--><a target="_top" xlink:actuate="onRequest" xlink:href="../Settlement.html" xlink:show="new" xlink:title="Process which consists in transferring the proceeds related to a trade from one party to the next one." xlink:type="simple"><rect fill="#EEEEEE" filter="url(#f1e8s8412nziim)" height="23.9688" id="Settlement" style="stroke: #A80036; stroke-width: 1.5;" width="75" x="390.75" y="270"/><rect fill="#EEEEEE" height="23.9688" style="stroke: #A80036; stroke-width: 1.5;" width="75" x="390.75" y="270"/><text fill="#000000" font-family="sans-serif" font-size="12" lengthAdjust="spacingAndGlyphs" textLength="69" x="393.75" y="286.1387">Settlement</text></a><!--class StandingSettlementInstruction--><a target="_top" xlink:actuate="onRequest" xlink:href="../StandingSettlementInstruction.html" xlink:show="new" xlink:title="Settlement instruction database information." xlink:type="simple"><rect fill="#EEEEEE" filter="url(#f1e8s8412nziim)" height="23.9688" id="StandingSettlementInstruction" style="stroke: #A80036; stroke-width: 1.5;" width="198" x="38" y="376"/><rect fill="#EEEEEE" height="23.9688" style="stroke: #A80036; stroke-width: 1.5;" width="198" x="38" y="376"/><text fill="#000000" font-family="sans-serif" font-size="12" lengthAdjust="spacingAndGlyphs" textLength="192" x="41" y="392.1387">StandingSettlementInstruction</text></a><!--link Role to SettlementPartyRole--><path d="M251.046,105.559 C253.148,127.159 255.556,151.898 256.916,165.865 " fill="none" id="Role-SettlementPartyRole" style="stroke: #A80036; stroke-width: 1.0;"/><polygon fill="none" points="244.066,106.105,249.095,85.52,258,104.748,244.066,106.105" style="stroke: #A80036; stroke-width: 1.0;"/><!--link SettlementPartyRole to SSIDatabaseProvider--><path d="M251.023,209.94 C246.436,230.283 240.707,255.69 237.491,269.954 " fill="none" id="SettlementPartyRole-SSIDatabaseProvider" style="stroke: #A80036; stroke-width: 1.0;"/><polygon fill="none" points="244.223,208.276,255.451,190.306,257.88,211.355,244.223,208.276" style="stroke: #A80036; stroke-width: 1.0;"/><!--link ContactPersonRole to RolePlayer--><!--link CounterpartyRisk to ContactPersonRole--><!--link Entry to CounterpartyRisk--><!--link Settlement to Account--><!--link Role to RolePlayer--><path d="M334.323,64.943 C575.145,68.693 1231,87.153 1231,177 C1231,177 1231,177 1231,389 C1231,449.6217 1024.27,469.2654 934.642,474.9332 " fill="none" id="Role-RolePlayer" style="stroke: #A80036; stroke-width: 1.0;"/><polygon fill="#A80036" points="929.428,475.2555,938.6577,478.6924,934.4185,474.9469,938.164,470.7077,929.428,475.2555" style="stroke: #A80036; stroke-width: 1.0;"/><text fill="#000000" font-family="sans-serif" font-size="13" lengthAdjust="spacingAndGlyphs" textLength="39" x="1232" y="286.0669">Player</text><text fill="#000000" font-family="sans-serif" font-size="13" lengthAdjust="spacingAndGlyphs" textLength="7" x="937.8888" y="468.8806">*</text><!--link Role to ContactPersonRole--><path d="M334.495,66.314 C525.249,72.287 965.002,91.45 1008,142 C1073.38,218.866 943.856,332.705 893.149,372.577 " fill="none" id="Role-ContactPersonRole" style="stroke: #A80036; stroke-width: 1.0;"/><polygon fill="#A80036" points="889.065,375.762,898.6211,373.3786,893.0068,372.686,893.6995,367.0717,889.065,375.762" style="stroke: #A80036; stroke-width: 1.0;"/><text fill="#000000" font-family="sans-serif" font-size="13" lengthAdjust="spacingAndGlyphs" textLength="121" x="1021" y="233.0669">ContactPersonRole</text><text fill="#000000" font-family="sans-serif" font-size="13" lengthAdjust="spacingAndGlyphs" textLength="8" x="883.399" y="364.9866">1</text><!--link Role to CounterpartyRisk--><path d="M334.383,69.049 C496.216,79.252 829.509,104.587 866,142 C898.204,175.018 890.289,235.682 884.088,264.7 " fill="none" id="Role-CounterpartyRisk" style="stroke: #A80036; stroke-width: 1.0;"/><polygon fill="#A80036" points="882.96,269.737,888.8301,261.8287,884.0527,264.8579,881.0235,260.0804,882.96,269.737" style="stroke: #A80036; stroke-width: 1.0;"/><text fill="#000000" font-family="sans-serif" font-size="13" lengthAdjust="spacingAndGlyphs" textLength="109" x="889" y="182.0669">CounterpartyRisk</text><text fill="#000000" font-family="sans-serif" font-size="13" lengthAdjust="spacingAndGlyphs" textLength="24" x="854.5514" y="258.9533">0..1</text><!--link Role to Entry--><path d="M334.281,80.917 C470.423,107.305 725.999,156.842 805.657,172.282 " fill="none" id="Role-Entry" style="stroke: #A80036; stroke-width: 1.0;"/><polygon fill="#A80036" points="810.647,173.249,802.5726,167.6095,805.7384,172.2976,801.0503,175.4633,810.647,173.249" style="stroke: #A80036; stroke-width: 1.0;"/><text fill="#000000" font-family="sans-serif" font-size="13" lengthAdjust="spacingAndGlyphs" textLength="33" x="609" y="129.0669">Entry</text><text fill="#000000" font-family="sans-serif" font-size="13" lengthAdjust="spacingAndGlyphs" textLength="8" x="795.1021" y="165.7767">1</text><!--link SettlementPartyRole to Account--><path d="M325.079,188.923 C385.041,199.472 465.875,218.459 482,246 C504.008,283.589 503.343,305.485 483,344 C476.225,356.827 463.712,366.55 451.613,373.477 " fill="none" id="SettlementPartyRole-Account" style="stroke: #A80036; stroke-width: 1.0;"/><polygon fill="#A80036" points="447.185,375.903,456.9998,375.0852,451.5697,373.4999,453.1549,368.0698,447.185,375.903" style="stroke: #A80036; stroke-width: 1.0;"/><text fill="#000000" font-family="sans-serif" font-size="13" lengthAdjust="spacingAndGlyphs" textLength="124" x="500" y="286.0669">SettlementAccount</text><text fill="#000000" font-family="sans-serif" font-size="13" lengthAdjust="spacingAndGlyphs" textLength="8" x="445.7252" y="364.9179">1</text><!--link SettlementPartyRole to Settlement--><path d="M276.517,190.11 C307.812,208.887 371.076,246.846 405.105,267.263 " fill="none" id="SettlementPartyRole-Settlement" style="stroke: #A80036; stroke-width: 1.0;"/><polygon fill="#A80036" points="409.506,269.904,403.8473,261.843,405.2188,267.3311,399.7307,268.7026,409.506,269.904" style="stroke: #A80036; stroke-width: 1.0;"/><text fill="#000000" font-family="sans-serif" font-size="13" lengthAdjust="spacingAndGlyphs" textLength="72" x="355" y="233.0669">Settlement</text><text fill="#000000" font-family="sans-serif" font-size="13" lengthAdjust="spacingAndGlyphs" textLength="8" x="392.344" y="258.9192">1</text><!--link SSIDatabaseProvider to StandingSettlementInstruction--><path d="M166.545,288.645 C115.347,294.454 51.4599,305.625 35,326 C16.8948,348.412 48.8858,364.523 81.7104,374.539 " fill="none" id="SSIDatabaseProvider-StandingSettlementInstruction" style="stroke: #A80036; stroke-width: 1.0;"/><polygon fill="#A80036" points="86.5535,375.972,79.0591,369.5818,81.7592,374.5527,76.7883,377.2527,86.5535,375.972" style="stroke: #A80036; stroke-width: 1.0;"/><text fill="#000000" font-family="sans-serif" font-size="13" lengthAdjust="spacingAndGlyphs" textLength="191" x="36" y="339.0669">StandingSettlementDatabase</text><text fill="#000000" font-family="sans-serif" font-size="13" lengthAdjust="spacingAndGlyphs" textLength="7" x="59.6656" y="365.0106">*</text><!--link Entry to Account--><path d="M817.128,190.291 C787.042,216.174 708.97,280.446 634,318 C573.462,348.325 496.72,369.232 453.521,379.562 " fill="none" id="Entry-Account" style="stroke: #A80036; stroke-width: 1.0;"/><polygon fill="#A80036" points="448.423,380.77,458.1027,382.5873,453.2883,379.6172,456.2583,374.8028,448.423,380.77" style="stroke: #A80036; stroke-width: 1.0;"/><text fill="#000000" font-family="sans-serif" font-size="13" lengthAdjust="spacingAndGlyphs" textLength="52" x="748" y="286.0669">Account</text><text fill="#000000" font-family="sans-serif" font-size="13" lengthAdjust="spacingAndGlyphs" textLength="7" x="456.9351" y="372.6315">*</text><!--link Account to Account--><path d="M448.508,379.984 C466.181,378.051 483,380.723 483,388 C483,394.538 469.424,397.359 453.85,396.463 " fill="none" id="Account-Account" style="stroke: #A80036; stroke-width: 1.0;"/><polygon fill="#A80036" points="448.508,396.016,457.1443,400.7504,453.4907,396.4317,457.8094,392.7781,448.508,396.016" style="stroke: #A80036; stroke-width: 1.0;"/><text fill="#000000" font-family="sans-serif" font-size="13" lengthAdjust="spacingAndGlyphs" textLength="94" x="489" y="392.0669">ParentAccount</text><text fill="#000000" font-family="sans-serif" font-size="13" lengthAdjust="spacingAndGlyphs" textLength="8" x="456.7741" y="391.9799">1</text><!--link Settlement to StandingSettlementInstruction--><path d="M408.416,294.118 C393.245,302.175 371.436,312.57 351,318 C313.9,327.857 301.643,314.561 265,326 C249.423,330.862 247.572,336.657 233,344 C211.651,354.758 187.033,365.757 168.072,373.938 " fill="none" id="Settlement-StandingSettlementInstruction" style="stroke: #A80036; stroke-width: 1.0;"/><polygon fill="#A80036" points="163.379,375.955,173.2271,376.0767,167.9728,373.9809,170.0686,368.7266,163.379,375.955" style="stroke: #A80036; stroke-width: 1.0;"/><text fill="#000000" font-family="sans-serif" font-size="13" lengthAdjust="spacingAndGlyphs" textLength="196" x="266" y="339.0669">StandingSettlementInstruction</text><text fill="#000000" font-family="sans-serif" font-size="13" lengthAdjust="spacingAndGlyphs" textLength="24" x="142.978" y="364.9877">0..1</text></g></svg>