<?xml version="1.0" encoding="UTF-8" standalone="no"?><svg xmlns="http://www.w3.org/2000/svg" xmlns:xlink="http://www.w3.org/1999/xlink" contentScriptType="application/ecmascript" contentStyleType="text/css" height="492px" preserveAspectRatio="none" style="width:953px;height:492px;" version="1.1" viewBox="0 0 953 492" width="953px" zoomAndPan="magnify"><defs><filter height="300%" id="f1gv4po82f7209" width="300%" x="-1" y="-1"><feGaussianBlur result="blurOut" stdDeviation="2.0"/><feColorMatrix in="blurOut" result="blurOut2" type="matrix" values="0 0 0 0 0 0 0 0 0 0 0 0 0 0 0 0 0 0 .4 0"/><feOffset dx="4.0" dy="4.0" in="blurOut2" result="blurOut3"/><feBlend in="SourceGraphic" in2="blurOut3" mode="normal"/></filter></defs><g><!--cluster ##6086--><!--cluster ##6092--><!--class StandingOrder--><a target="_top" xlink:actuate="onRequest" xlink:href="../StandingOrder.html" xlink:show="new" xlink:title="Instruction given by an account holder to an account servicer to make regular transfers on given dates to the same beneficiary." xlink:type="simple"><rect fill="#FEFECE" filter="url(#f1gv4po82f7209)" height="147.2109" id="StandingOrder" style="stroke: #A80036; stroke-width: 1.5;" width="222" x="38.5" y="40.5"/><rect fill="#FEFECE" height="23.9688" style="stroke: #A80036; stroke-width: 1.5;" width="222" x="38.5" y="40.5"/><text fill="#000000" font-family="sans-serif" font-size="12" lengthAdjust="spacingAndGlyphs" textLength="91" x="104" y="56.6387">StandingOrder</text><line style="stroke: #A80036; stroke-width: 1.5;" x1="39.5" x2="259.5" y1="64.4688" y2="64.4688"/><ellipse cx="49.5" cy="76.3711" fill="#84BE84" rx="3" ry="3" style="stroke: #038048; stroke-width: 1.0;"/><text fill="#000000" font-family="sans-serif" font-size="11" lengthAdjust="spacingAndGlyphs" textLength="72" x="58.5" y="78.6792">Identification</text><text fill="#000000" font-family="sans-serif" font-size="11" font-style="italic" lengthAdjust="spacingAndGlyphs" textLength="70" x="134.5" y="78.6792">(Max35Text)</text><ellipse cx="49.5" cy="89.1758" fill="#84BE84" rx="3" ry="3" style="stroke: #038048; stroke-width: 1.0;"/><text fill="#000000" font-family="sans-serif" font-size="11" lengthAdjust="spacingAndGlyphs" textLength="27" x="58.5" y="91.4839">Type</text><text fill="#000000" font-family="sans-serif" font-size="11" font-style="italic" lengthAdjust="spacingAndGlyphs" textLength="147" x="89.5" y="91.4839">(StandingOrderTypeCode)</text><ellipse cx="49.5" cy="101.9805" fill="#84BE84" rx="3" ry="3" style="stroke: #038048; stroke-width: 1.0;"/><text fill="#000000" font-family="sans-serif" font-size="11" lengthAdjust="spacingAndGlyphs" textLength="113" x="58.5" y="104.2886">LinkSetIdentification</text><text fill="#000000" font-family="sans-serif" font-size="11" font-style="italic" lengthAdjust="spacingAndGlyphs" textLength="70" x="175.5" y="104.2886">(Max35Text)</text><ellipse cx="49.5" cy="114.7852" fill="#84BE84" rx="3" ry="3" style="stroke: #038048; stroke-width: 1.0;"/><text fill="#000000" font-family="sans-serif" font-size="11" lengthAdjust="spacingAndGlyphs" textLength="139" x="58.5" y="117.0933">StandingOrderSequence</text><text fill="#000000" font-family="sans-serif" font-size="11" font-style="italic" lengthAdjust="spacingAndGlyphs" textLength="53" x="201.5" y="117.0933">(Number)</text><ellipse cx="49.5" cy="127.5898" fill="#84BE84" rx="3" ry="3" style="stroke: #038048; stroke-width: 1.0;"/><text fill="#000000" font-family="sans-serif" font-size="11" lengthAdjust="spacingAndGlyphs" textLength="43" x="58.5" y="129.8979">Amount</text><text fill="#000000" font-family="sans-serif" font-size="11" font-style="italic" lengthAdjust="spacingAndGlyphs" textLength="126" x="105.5" y="129.8979">(CurrencyAndAmount)</text><ellipse cx="49.5" cy="140.3945" fill="#84BE84" rx="3" ry="3" style="stroke: #038048; stroke-width: 1.0;"/><text fill="#000000" font-family="sans-serif" font-size="11" lengthAdjust="spacingAndGlyphs" textLength="58" x="58.5" y="142.7026">Frequency</text><text fill="#000000" font-family="sans-serif" font-size="11" font-style="italic" lengthAdjust="spacingAndGlyphs" textLength="96" x="120.5" y="142.7026">(FrequencyCode)</text><ellipse cx="49.5" cy="153.1992" fill="#84BE84" rx="3" ry="3" style="stroke: #038048; stroke-width: 1.0;"/><text fill="#000000" font-family="sans-serif" font-size="11" lengthAdjust="spacingAndGlyphs" textLength="95" x="58.5" y="155.5073">EventDescription</text><text fill="#000000" font-family="sans-serif" font-size="11" font-style="italic" lengthAdjust="spacingAndGlyphs" textLength="77" x="157.5" y="155.5073">(Max140Text)</text><ellipse cx="49.5" cy="166.0039" fill="#84BE84" rx="3" ry="3" style="stroke: #038048; stroke-width: 1.0;"/><text fill="#000000" font-family="sans-serif" font-size="11" lengthAdjust="spacingAndGlyphs" textLength="21" x="58.5" y="168.312">Day</text><text fill="#000000" font-family="sans-serif" font-size="11" font-style="italic" lengthAdjust="spacingAndGlyphs" textLength="53" x="83.5" y="168.312">(Number)</text><ellipse cx="49.5" cy="178.8086" fill="#84BE84" rx="3" ry="3" style="stroke: #038048; stroke-width: 1.0;"/><text fill="#000000" font-family="sans-serif" font-size="11" lengthAdjust="spacingAndGlyphs" textLength="100" x="58.5" y="181.1167">TimeSpecification</text><text fill="#000000" font-family="sans-serif" font-size="11" font-style="italic" lengthAdjust="spacingAndGlyphs" textLength="70" x="162.5" y="181.1167">(Max35Text)</text></a><!--class CashStandingOrder--><a target="_top" xlink:actuate="onRequest" xlink:href="../CashStandingOrder.html" xlink:show="new" xlink:title="Instruction given by a party that has explicit authority to instruct a debit on the account, ie, either the debit account owner or originating party, to a first agent, to process cash transfers at specified intervals during an implicit or explicit period of time. A standing order is given once and is valid for an open or closed period of time." xlink:type="simple"><rect fill="#FEFEEE" filter="url(#f1gv4po82f7209)" height="23.9688" id="CashStandingOrder" style="stroke: #A80036; stroke-width: 1.5;" width="128" x="160" y="268"/><rect fill="#FEFEEE" height="23.9688" style="stroke: #A80036; stroke-width: 1.5;" width="128" x="160" y="268"/><text fill="#000000" font-family="sans-serif" font-size="12" lengthAdjust="spacingAndGlyphs" textLength="122" x="163" y="284.1387">CashStandingOrder</text></a><!--class DateTimePeriod--><a target="_top" xlink:actuate="onRequest" xlink:href="../DateTimePeriod.html" xlink:show="new" xlink:title="Time span defined by a start date and time, and an end date and time." xlink:type="simple"><rect fill="#EEEEEE" filter="url(#f1gv4po82f7209)" height="23.9688" id="DateTimePeriod" style="stroke: #A80036; stroke-width: 1.5;" width="105" x="493.75" y="268"/><rect fill="#EEEEEE" height="23.9688" style="stroke: #A80036; stroke-width: 1.5;" width="105" x="493.75" y="268"/><text fill="#000000" font-family="sans-serif" font-size="12" lengthAdjust="spacingAndGlyphs" textLength="99" x="496.75" y="284.1387">DateTimePeriod</text></a><!--class CashAccount--><a target="_top" xlink:actuate="onRequest" xlink:href="../CashAccount.html" xlink:show="new" xlink:title="Account to or from which a cash entry is made." xlink:type="simple"><rect fill="#EEEEEE" filter="url(#f1gv4po82f7209)" height="23.9688" id="CashAccount" style="stroke: #A80036; stroke-width: 1.5;" width="88" x="493.5" y="458"/><rect fill="#EEEEEE" height="23.9688" style="stroke: #A80036; stroke-width: 1.5;" width="88" x="493.5" y="458"/><text fill="#000000" font-family="sans-serif" font-size="12" lengthAdjust="spacingAndGlyphs" textLength="82" x="496.5" y="474.1387">CashAccount</text></a><!--class PaymentInstruction--><a target="_top" xlink:actuate="onRequest" xlink:href="../PaymentInstruction.html" xlink:show="new" xlink:title="Instruction to pay an amount of money to an ultimate beneficiary, on behalf of an originator. This instruction may have to be forwarded several times to complete the settlement chain." xlink:type="simple"><rect fill="#EEEEEE" filter="url(#f1gv4po82f7209)" height="23.9688" id="PaymentInstruction" style="stroke: #A80036; stroke-width: 1.5;" width="127" x="530.75" y="372"/><rect fill="#EEEEEE" height="23.9688" style="stroke: #A80036; stroke-width: 1.5;" width="127" x="530.75" y="372"/><text fill="#000000" font-family="sans-serif" font-size="12" lengthAdjust="spacingAndGlyphs" textLength="121" x="533.75" y="388.1387">PaymentInstruction</text></a><!--link StandingOrder to CashStandingOrder--><path d="M190.781,206.361 C202.056,231.015 212.807,254.526 218.887,267.82 " fill="none" id="StandingOrder-CashStandingOrder" style="stroke: #A80036; stroke-width: 1.0;"/><polygon fill="none" points="184.285,208.987,182.333,187.888,197.017,203.165,184.285,208.987" style="stroke: #A80036; stroke-width: 1.0;"/><!--link CashAccount to DateTimePeriod--><!--link PaymentInstruction to CashAccount--><!--link StandingOrder to DateTimePeriod--><path d="M259.648,157.942 C305.687,176.085 359.587,197.682 408,218 C445.902,233.907 489.19,253.233 517.02,265.809 " fill="none" id="StandingOrder-DateTimePeriod" style="stroke: #A80036; stroke-width: 1.0;"/><polygon fill="#A80036" points="521.691,267.922,515.1385,260.5692,517.1351,265.8619,511.8423,267.8586,521.691,267.922" style="stroke: #A80036; stroke-width: 1.0;"/><text fill="#000000" font-family="sans-serif" font-size="13" lengthAdjust="spacingAndGlyphs" textLength="86" x="451" y="231.0669">ValidityPeriod</text><text fill="#000000" font-family="sans-serif" font-size="13" lengthAdjust="spacingAndGlyphs" textLength="8" x="502.5301" y="256.9434">1</text><!--link StandingOrder to CashAccount--><path d="M239.535,187.82 C261.26,205.853 284.19,225.357 305,244 C390.08,320.218 486.561,417.5049 522.504,454.1497 " fill="none" id="StandingOrder-CashAccount" style="stroke: #A80036; stroke-width: 1.0;"/><polygon fill="#A80036" points="526.189,457.91,522.7472,448.6821,522.6896,454.3387,517.0331,454.2811,526.189,457.91" style="stroke: #A80036; stroke-width: 1.0;"/><text fill="#000000" font-family="sans-serif" font-size="13" lengthAdjust="spacingAndGlyphs" textLength="90" x="411" y="337.0669">CreditAccount</text><text fill="#000000" font-family="sans-serif" font-size="13" lengthAdjust="spacingAndGlyphs" textLength="8" x="511.5821" y="446.9273">1</text><!--link StandingOrder to CashAccount--><path d="M259.618,118.755 C437.86,127.389 776.157,155.329 850,244 C936.211,347.524 693.298,427.363 585.564,456.7534 " fill="none" id="StandingOrder-CashAccount" style="stroke: #A80036; stroke-width: 1.0;"/><polygon fill="#A80036" points="580.538,458.1147,590.2707,459.6227,585.3641,456.8076,588.1793,451.901,580.538,458.1147" style="stroke: #A80036; stroke-width: 1.0;"/><text fill="#000000" font-family="sans-serif" font-size="13" lengthAdjust="spacingAndGlyphs" textLength="86" x="855" y="337.0669">DebitAccount</text><text fill="#000000" font-family="sans-serif" font-size="13" lengthAdjust="spacingAndGlyphs" textLength="8" x="589.5046" y="450.3113">1</text><!--link StandingOrder to PaymentInstruction--><path d="M259.845,120.059 C362.592,130.173 514.332,159.589 615,244 C652.163,275.162 686.986,299.847 663,342 C656.003,354.296 643.703,363.288 631.406,369.663 " fill="none" id="StandingOrder-PaymentInstruction" style="stroke: #A80036; stroke-width: 1.0;"/><polygon fill="#A80036" points="626.886,371.894,636.7269,371.4971,631.3695,369.6808,633.1858,364.3235,626.886,371.894" style="stroke: #A80036; stroke-width: 1.0;"/><text fill="#000000" font-family="sans-serif" font-size="13" lengthAdjust="spacingAndGlyphs" textLength="168" x="672" y="284.0669">PaymentInstructionTrigger</text><text fill="#000000" font-family="sans-serif" font-size="13" lengthAdjust="spacingAndGlyphs" textLength="8" x="627.3859" y="360.9058">1</text><!--link StandingOrder to StandingOrder--><path d="M259.636,94.154 C279.834,96.666 294,103.281 294,114 C294,123.798 282.164,130.167 264.705,133.108 " fill="none" id="StandingOrder-StandingOrder" style="stroke: #A80036; stroke-width: 1.0;"/><polygon fill="#A80036" points="259.636,133.846,269.1183,136.5081,264.5839,133.1259,267.9661,128.5915,259.636,133.846" style="stroke: #A80036; stroke-width: 1.0;"/><text fill="#000000" font-family="sans-serif" font-size="13" lengthAdjust="spacingAndGlyphs" textLength="146" x="300" y="118.0669">IncludedStandingOrder</text><text fill="#000000" font-family="sans-serif" font-size="13" lengthAdjust="spacingAndGlyphs" textLength="8" x="268.3745" y="130.7786">1</text><!--link CashStandingOrder to CashAccount--><path d="M225.31,292.144 C228.551,314.805 238.983,366.593 269,396 C328.018,453.8184 428.077,466.9432 487.81,469.3002 " fill="none" id="CashStandingOrder-CashAccount" style="stroke: #A80036; stroke-width: 1.0;"/><polygon fill="#A80036" points="493.106,469.4851,484.2509,465.1738,488.109,469.3108,483.972,473.169,493.106,469.4851" style="stroke: #A80036; stroke-width: 1.0;"/><text fill="#000000" font-family="sans-serif" font-size="13" lengthAdjust="spacingAndGlyphs" textLength="84" x="270" y="388.0669">CashAccount</text><text fill="#000000" font-family="sans-serif" font-size="13" lengthAdjust="spacingAndGlyphs" textLength="8" x="477.4687" y="464.3516">1</text><!--link DateTimePeriod to PaymentInstruction--><path d="M538.859,292.426 C531.882,305.181 523.459,326.113 532,342 C538.419,353.941 550.011,362.986 561.449,369.501 " fill="none" id="DateTimePeriod-PaymentInstruction" style="stroke: #A80036; stroke-width: 1.0;"/><polygon fill="#A80036" points="565.983,371.963,559.982,364.1535,561.5888,369.5774,556.165,371.1842,565.983,371.963" style="stroke: #A80036; stroke-width: 1.0;"/><text fill="#000000" font-family="sans-serif" font-size="13" lengthAdjust="spacingAndGlyphs" textLength="124" x="533" y="337.0669">PaymentInstruction</text><text fill="#000000" font-family="sans-serif" font-size="13" lengthAdjust="spacingAndGlyphs" textLength="8" x="545.5475" y="360.9985">1</text></g></svg>