<?xml version="1.0" encoding="UTF-8" standalone="no"?><svg xmlns="http://www.w3.org/2000/svg" xmlns:xlink="http://www.w3.org/1999/xlink" contentScriptType="application/ecmascript" contentStyleType="text/css" height="466px" preserveAspectRatio="none" style="width:3357px;height:466px;" version="1.1" viewBox="0 0 3357 466" width="3357px" zoomAndPan="magnify"><defs><filter height="300%" id="f12n90gg6wfywe" width="300%" x="-1" y="-1"><feGaussianBlur result="blurOut" stdDeviation="2.0"/><feColorMatrix in="blurOut" result="blurOut2" type="matrix" values="0 0 0 0 0 0 0 0 0 0 0 0 0 0 0 0 0 0 .4 0"/><feOffset dx="4.0" dy="4.0" in="blurOut2" result="blurOut3"/><feBlend in="SourceGraphic" in2="blurOut3" mode="normal"/></filter></defs><g><!--cluster ##2444--><!--cluster ##2504--><!--class Status--><a target="_top" xlink:actuate="onRequest" xlink:href="../Status.html" xlink:show="new" xlink:title="The status of an instruction, advice or request." xlink:type="simple"><rect fill="#FEFECE" filter="url(#f12n90gg6wfywe)" height="121.6016" id="Status" style="stroke: #A80036; stroke-width: 1.5;" width="401" x="1500.75" y="40"/><rect fill="#FEFECE" height="23.9688" style="stroke: #A80036; stroke-width: 1.5;" width="401" x="1500.75" y="40"/><text fill="#000000" font-family="sans-serif" font-size="12" lengthAdjust="spacingAndGlyphs" textLength="41" x="1680.75" y="56.1387">Status</text><line style="stroke: #A80036; stroke-width: 1.5;" x1="1501.75" x2="1900.75" y1="63.9688" y2="63.9688"/><ellipse cx="1511.75" cy="75.8711" fill="#84BE84" rx="3" ry="3" style="stroke: #038048; stroke-width: 1.0;"/><text fill="#000000" font-family="sans-serif" font-size="11" lengthAdjust="spacingAndGlyphs" textLength="91" x="1520.75" y="78.1792">StatusDateTime</text><text fill="#000000" font-family="sans-serif" font-size="11" font-style="italic" lengthAdjust="spacingAndGlyphs" textLength="81" x="1615.75" y="78.1792">(ISODateTime)</text><ellipse cx="1511.75" cy="88.6758" fill="#84BE84" rx="3" ry="3" style="stroke: #038048; stroke-width: 1.0;"/><text fill="#000000" font-family="sans-serif" font-size="11" lengthAdjust="spacingAndGlyphs" textLength="101" x="1520.75" y="90.9839">StatusDescription</text><text fill="#000000" font-family="sans-serif" font-size="11" font-style="italic" lengthAdjust="spacingAndGlyphs" textLength="77" x="1625.75" y="90.9839">(Max350Text)</text><ellipse cx="1511.75" cy="101.4805" fill="#84BE84" rx="3" ry="3" style="stroke: #038048; stroke-width: 1.0;"/><text fill="#000000" font-family="sans-serif" font-size="11" lengthAdjust="spacingAndGlyphs" textLength="160" x="1520.75" y="103.7886">InstructionProcessingStatus</text><text fill="#000000" font-family="sans-serif" font-size="11" font-style="italic" lengthAdjust="spacingAndGlyphs" textLength="72" x="1684.75" y="103.7886">(StatusCode)</text><ellipse cx="1511.75" cy="114.2852" fill="#84BE84" rx="3" ry="3" style="stroke: #038048; stroke-width: 1.0;"/><text fill="#000000" font-family="sans-serif" font-size="11" lengthAdjust="spacingAndGlyphs" textLength="99" x="1520.75" y="116.5933">SettlementStatus</text><text fill="#000000" font-family="sans-serif" font-size="11" font-style="italic" lengthAdjust="spacingAndGlyphs" textLength="188" x="1623.75" y="116.5933">(SecuritiesSettlementStatusCode)</text><ellipse cx="1511.75" cy="127.0898" fill="#84BE84" rx="3" ry="3" style="stroke: #038048; stroke-width: 1.0;"/><text fill="#000000" font-family="sans-serif" font-size="11" lengthAdjust="spacingAndGlyphs" textLength="169" x="1520.75" y="129.3979">CancellationProcessingStatus</text><text fill="#000000" font-family="sans-serif" font-size="11" font-style="italic" lengthAdjust="spacingAndGlyphs" textLength="202" x="1693.75" y="129.3979">(CancellationProcessingStatusCode)</text><ellipse cx="1511.75" cy="139.8945" fill="#84BE84" rx="3" ry="3" style="stroke: #038048; stroke-width: 1.0;"/><text fill="#000000" font-family="sans-serif" font-size="11" lengthAdjust="spacingAndGlyphs" textLength="167" x="1520.75" y="142.2026">TransactionProcessingStatus</text><text fill="#000000" font-family="sans-serif" font-size="11" font-style="italic" lengthAdjust="spacingAndGlyphs" textLength="192" x="1691.75" y="142.2026">(InstructionProcessingStatusCode)</text><ellipse cx="1511.75" cy="152.6992" fill="#84BE84" rx="3" ry="3" style="stroke: #038048; stroke-width: 1.0;"/><text fill="#000000" font-family="sans-serif" font-size="11" lengthAdjust="spacingAndGlyphs" textLength="167" x="1520.75" y="155.0073">ModificationProcessingStatus</text><text fill="#000000" font-family="sans-serif" font-size="11" font-style="italic" lengthAdjust="spacingAndGlyphs" textLength="200" x="1691.75" y="155.0073">(ModificationProcessingStatusCode)</text></a><!--class AccountStatus--><a target="_top" xlink:actuate="onRequest" xlink:href="../AccountStatus.html" xlink:show="new" xlink:title="Specifies the status of an account or the status of the processing of the actions linked to the management of an account." xlink:type="simple"><rect fill="#FEFEEE" filter="url(#f12n90gg6wfywe)" height="23.9688" id="AccountStatus" style="stroke: #A80036; stroke-width: 1.5;" width="98" x="38.5" y="242"/><rect fill="#FEFEEE" height="23.9688" style="stroke: #A80036; stroke-width: 1.5;" width="98" x="38.5" y="242"/><text fill="#000000" font-family="sans-serif" font-size="12" lengthAdjust="spacingAndGlyphs" textLength="92" x="41.5" y="258.1387">AccountStatus</text></a><!--class PaymentStatus--><a target="_top" xlink:actuate="onRequest" xlink:href="../PaymentStatus.html" xlink:show="new" xlink:title="Specifies the status of a payment at a specified time." xlink:type="simple"><rect fill="#FEFEEE" filter="url(#f12n90gg6wfywe)" height="23.9688" id="PaymentStatus" style="stroke: #A80036; stroke-width: 1.5;" width="101" x="171.75" y="242"/><rect fill="#FEFEEE" height="23.9688" style="stroke: #A80036; stroke-width: 1.5;" width="101" x="171.75" y="242"/><text fill="#000000" font-family="sans-serif" font-size="12" lengthAdjust="spacingAndGlyphs" textLength="95" x="174.75" y="258.1387">PaymentStatus</text></a><!--class SystemStatus--><a target="_top" xlink:actuate="onRequest" xlink:href="../SystemStatus.html" xlink:show="new" xlink:title="Status of a system and the period of time during which the status is valid." xlink:type="simple"><rect fill="#FEFEEE" filter="url(#f12n90gg6wfywe)" height="23.9688" id="SystemStatus" style="stroke: #A80036; stroke-width: 1.5;" width="92" x="308" y="242"/><rect fill="#FEFEEE" height="23.9688" style="stroke: #A80036; stroke-width: 1.5;" width="92" x="308" y="242"/><text fill="#000000" font-family="sans-serif" font-size="12" lengthAdjust="spacingAndGlyphs" textLength="86" x="311" y="258.1387">SystemStatus</text></a><!--class LimitStatus--><a target="_top" xlink:actuate="onRequest" xlink:href="../LimitStatus.html" xlink:show="new" xlink:title="Current status of the limit." xlink:type="simple"><rect fill="#FEFEEE" filter="url(#f12n90gg6wfywe)" height="23.9688" id="LimitStatus" style="stroke: #A80036; stroke-width: 1.5;" width="75" x="435.75" y="242"/><rect fill="#FEFEEE" height="23.9688" style="stroke: #A80036; stroke-width: 1.5;" width="75" x="435.75" y="242"/><text fill="#000000" font-family="sans-serif" font-size="12" lengthAdjust="spacingAndGlyphs" textLength="69" x="438.75" y="258.1387">LimitStatus</text></a><!--class SecuritiesTradeStatus--><a target="_top" xlink:actuate="onRequest" xlink:href="../SecuritiesTradeStatus.html" xlink:show="new" xlink:title="Status of a securities trade." xlink:type="simple"><rect fill="#FEFEEE" filter="url(#f12n90gg6wfywe)" height="23.9688" id="SecuritiesTradeStatus" style="stroke: #A80036; stroke-width: 1.5;" width="145" x="545.75" y="242"/><rect fill="#FEFEEE" height="23.9688" style="stroke: #A80036; stroke-width: 1.5;" width="145" x="545.75" y="242"/><text fill="#000000" font-family="sans-serif" font-size="12" lengthAdjust="spacingAndGlyphs" textLength="139" x="548.75" y="258.1387">SecuritiesTradeStatus</text></a><!--class CorporateActionStatus--><a target="_top" xlink:actuate="onRequest" xlink:href="../CorporateActionStatus.html" xlink:show="new" xlink:title="Status of the corporate action process." xlink:type="simple"><rect fill="#FEFEEE" filter="url(#f12n90gg6wfywe)" height="23.9688" id="CorporateActionStatus" style="stroke: #A80036; stroke-width: 1.5;" width="149" x="725.75" y="242"/><rect fill="#FEFEEE" height="23.9688" style="stroke: #A80036; stroke-width: 1.5;" width="149" x="725.75" y="242"/><text fill="#000000" font-family="sans-serif" font-size="12" lengthAdjust="spacingAndGlyphs" textLength="143" x="728.75" y="258.1387">CorporateActionStatus</text></a><!--class SecuritiesStatus--><a target="_top" xlink:actuate="onRequest" xlink:href="../SecuritiesStatus.html" xlink:show="new" xlink:title="Specifies the status of the security within its lifecycle." xlink:type="simple"><rect fill="#FEFEEE" filter="url(#f12n90gg6wfywe)" height="23.9688" id="SecuritiesStatus" style="stroke: #A80036; stroke-width: 1.5;" width="109" x="909.75" y="242"/><rect fill="#FEFEEE" height="23.9688" style="stroke: #A80036; stroke-width: 1.5;" width="109" x="909.75" y="242"/><text fill="#000000" font-family="sans-serif" font-size="12" lengthAdjust="spacingAndGlyphs" textLength="103" x="912.75" y="258.1387">SecuritiesStatus</text></a><!--class UndertakingStatus--><a target="_top" xlink:actuate="onRequest" xlink:href="../UndertakingStatus.html" xlink:show="new" xlink:title="Status of the undertaking." xlink:type="simple"><rect fill="#FEFEEE" filter="url(#f12n90gg6wfywe)" height="23.9688" id="UndertakingStatus" style="stroke: #A80036; stroke-width: 1.5;" width="124" x="1054.5" y="242"/><rect fill="#FEFEEE" height="23.9688" style="stroke: #A80036; stroke-width: 1.5;" width="124" x="1054.5" y="242"/><text fill="#000000" font-family="sans-serif" font-size="12" lengthAdjust="spacingAndGlyphs" textLength="118" x="1057.5" y="258.1387">UndertakingStatus</text></a><!--class MandateStatus--><a target="_top" xlink:actuate="onRequest" xlink:href="../MandateStatus.html" xlink:show="new" xlink:title="Specifies whether a mandate is accepted or rejected." xlink:type="simple"><rect fill="#FEFEEE" filter="url(#f12n90gg6wfywe)" height="23.9688" id="MandateStatus" style="stroke: #A80036; stroke-width: 1.5;" width="102" x="1213.5" y="242"/><rect fill="#FEFEEE" height="23.9688" style="stroke: #A80036; stroke-width: 1.5;" width="102" x="1213.5" y="242"/><text fill="#000000" font-family="sans-serif" font-size="12" lengthAdjust="spacingAndGlyphs" textLength="96" x="1216.5" y="258.1387">MandateStatus</text></a><!--class TreasuryTradeSettlementStatus--><a target="_top" xlink:actuate="onRequest" xlink:href="../TreasuryTradeSettlementStatus.html" xlink:show="new" xlink:title="Specifies the status of a treasury trade at a specified time." xlink:type="simple"><rect fill="#FEFEEE" filter="url(#f12n90gg6wfywe)" height="23.9688" id="TreasuryTradeSettlementStatus" style="stroke: #A80036; stroke-width: 1.5;" width="206" x="1350" y="242"/><rect fill="#FEFEEE" height="23.9688" style="stroke: #A80036; stroke-width: 1.5;" width="206" x="1350" y="242"/><text fill="#000000" font-family="sans-serif" font-size="12" lengthAdjust="spacingAndGlyphs" textLength="200" x="1353" y="258.1387">TreasuryTradeSettlementStatus</text></a><!--class CardPaymentStatus--><a target="_top" xlink:actuate="onRequest" xlink:href="../CardPaymentStatus.html" xlink:show="new" xlink:title="Status of a payment by card." xlink:type="simple"><rect fill="#FEFEEE" filter="url(#f12n90gg6wfywe)" height="23.9688" id="CardPaymentStatus" style="stroke: #A80036; stroke-width: 1.5;" width="130" x="1591" y="242"/><rect fill="#FEFEEE" height="23.9688" style="stroke: #A80036; stroke-width: 1.5;" width="130" x="1591" y="242"/><text fill="#000000" font-family="sans-serif" font-size="12" lengthAdjust="spacingAndGlyphs" textLength="124" x="1594" y="258.1387">CardPaymentStatus</text></a><!--class SecuritiesOrderStatus--><a target="_top" xlink:actuate="onRequest" xlink:href="../SecuritiesOrderStatus.html" xlink:show="new" xlink:title="Status of a securities order or of the processing of a securities order." xlink:type="simple"><rect fill="#FEFEEE" filter="url(#f12n90gg6wfywe)" height="23.9688" id="SecuritiesOrderStatus" style="stroke: #A80036; stroke-width: 1.5;" width="144" x="1756" y="242"/><rect fill="#FEFEEE" height="23.9688" style="stroke: #A80036; stroke-width: 1.5;" width="144" x="1756" y="242"/><text fill="#000000" font-family="sans-serif" font-size="12" lengthAdjust="spacingAndGlyphs" textLength="138" x="1759" y="258.1387">SecuritiesOrderStatus</text></a><!--class InvestigationCaseStatus--><a target="_top" xlink:actuate="onRequest" xlink:href="../InvestigationCaseStatus.html" xlink:show="new" xlink:title="Status of an investigation case." xlink:type="simple"><rect fill="#FEFEEE" filter="url(#f12n90gg6wfywe)" height="23.9688" id="InvestigationCaseStatus" style="stroke: #A80036; stroke-width: 1.5;" width="158" x="1935.5" y="242"/><rect fill="#FEFEEE" height="23.9688" style="stroke: #A80036; stroke-width: 1.5;" width="158" x="1935.5" y="242"/><text fill="#000000" font-family="sans-serif" font-size="12" lengthAdjust="spacingAndGlyphs" textLength="152" x="1938.5" y="258.1387">InvestigationCaseStatus</text></a><!--class MeetingStatus--><a target="_top" xlink:actuate="onRequest" xlink:href="../MeetingStatus.html" xlink:show="new" xlink:title="Status of the instructions related to a meeting." xlink:type="simple"><rect fill="#FEFEEE" filter="url(#f12n90gg6wfywe)" height="23.9688" id="MeetingStatus" style="stroke: #A80036; stroke-width: 1.5;" width="97" x="2127.75" y="242"/><rect fill="#FEFEEE" height="23.9688" style="stroke: #A80036; stroke-width: 1.5;" width="97" x="2127.75" y="242"/><text fill="#000000" font-family="sans-serif" font-size="12" lengthAdjust="spacingAndGlyphs" textLength="91" x="2130.75" y="258.1387">MeetingStatus</text></a><!--class CollateralStatus--><a target="_top" xlink:actuate="onRequest" xlink:href="../CollateralStatus.html" xlink:show="new" xlink:title="Specifies the status of the collateral or of an event related to collateral." xlink:type="simple"><rect fill="#FEFEEE" filter="url(#f12n90gg6wfywe)" height="23.9688" id="CollateralStatus" style="stroke: #A80036; stroke-width: 1.5;" width="106" x="2260.5" y="242"/><rect fill="#FEFEEE" height="23.9688" style="stroke: #A80036; stroke-width: 1.5;" width="106" x="2260.5" y="242"/><text fill="#000000" font-family="sans-serif" font-size="12" lengthAdjust="spacingAndGlyphs" textLength="100" x="2263.5" y="258.1387">CollateralStatus</text></a><!--class InvoiceFinancingStatus--><a target="_top" xlink:actuate="onRequest" xlink:href="../InvoiceFinancingStatus.html" xlink:show="new" xlink:title="Status of an invoice financing transaction and of the instructions related to the invoice financing." xlink:type="simple"><rect fill="#FEFEEE" filter="url(#f12n90gg6wfywe)" height="23.9688" id="InvoiceFinancingStatus" style="stroke: #A80036; stroke-width: 1.5;" width="150" x="2401.5" y="242"/><rect fill="#FEFEEE" height="23.9688" style="stroke: #A80036; stroke-width: 1.5;" width="150" x="2401.5" y="242"/><text fill="#000000" font-family="sans-serif" font-size="12" lengthAdjust="spacingAndGlyphs" textLength="144" x="2404.5" y="258.1387">InvoiceFinancingStatus</text></a><!--class BaselineStatus--><a target="_top" xlink:actuate="onRequest" xlink:href="../BaselineStatus.html" xlink:show="new" xlink:title="Indicates the status of a baseline." xlink:type="simple"><rect fill="#FEFEEE" filter="url(#f12n90gg6wfywe)" height="23.9688" id="BaselineStatus" style="stroke: #A80036; stroke-width: 1.5;" width="100" x="2586" y="242"/><rect fill="#FEFEEE" height="23.9688" style="stroke: #A80036; stroke-width: 1.5;" width="100" x="2586" y="242"/><text fill="#000000" font-family="sans-serif" font-size="12" lengthAdjust="spacingAndGlyphs" textLength="94" x="2589" y="258.1387">BaselineStatus</text></a><!--class QuoteStatus--><a target="_top" xlink:actuate="onRequest" xlink:href="../QuoteStatus.html" xlink:show="new" xlink:title="Status of a quote and if required, the rejection reason." xlink:type="simple"><rect fill="#FEFEEE" filter="url(#f12n90gg6wfywe)" height="23.9688" id="QuoteStatus" style="stroke: #A80036; stroke-width: 1.5;" width="85" x="2721.75" y="242"/><rect fill="#FEFEEE" height="23.9688" style="stroke: #A80036; stroke-width: 1.5;" width="85" x="2721.75" y="242"/><text fill="#000000" font-family="sans-serif" font-size="12" lengthAdjust="spacingAndGlyphs" textLength="79" x="2724.75" y="258.1387">QuoteStatus</text></a><!--class InvoiceStatus--><a target="_top" xlink:actuate="onRequest" xlink:href="../InvoiceStatus.html" xlink:show="new" xlink:title="Status of the invoice or of the billing process." xlink:type="simple"><rect fill="#FEFEEE" filter="url(#f12n90gg6wfywe)" height="23.9688" id="InvoiceStatus" style="stroke: #A80036; stroke-width: 1.5;" width="90" x="2842" y="242"/><rect fill="#FEFEEE" height="23.9688" style="stroke: #A80036; stroke-width: 1.5;" width="90" x="2842" y="242"/><text fill="#000000" font-family="sans-serif" font-size="12" lengthAdjust="spacingAndGlyphs" textLength="84" x="2845" y="258.1387">InvoiceStatus</text></a><!--class StatusReason--><a target="_top" xlink:actuate="onRequest" xlink:href="../StatusReason.html" xlink:show="new" xlink:title="Specifies the underlying reason for the status of an object." xlink:type="simple"><rect fill="#EEEEEE" filter="url(#f12n90gg6wfywe)" height="23.9688" id="StatusReason" style="stroke: #A80036; stroke-width: 1.5;" width="94" x="3038" y="432"/><rect fill="#EEEEEE" height="23.9688" style="stroke: #A80036; stroke-width: 1.5;" width="94" x="3038" y="432"/><text fill="#000000" font-family="sans-serif" font-size="12" lengthAdjust="spacingAndGlyphs" textLength="88" x="3041" y="448.1387">StatusReason</text></a><!--class DateTimePeriod--><a target="_top" xlink:actuate="onRequest" xlink:href="../DateTimePeriod.html" xlink:show="new" xlink:title="Time span defined by a start date and time, and an end date and time." xlink:type="simple"><rect fill="#EEEEEE" filter="url(#f12n90gg6wfywe)" height="23.9688" id="DateTimePeriod" style="stroke: #A80036; stroke-width: 1.5;" width="105" x="3028.75" y="346"/><rect fill="#EEEEEE" height="23.9688" style="stroke: #A80036; stroke-width: 1.5;" width="105" x="3028.75" y="346"/><text fill="#000000" font-family="sans-serif" font-size="12" lengthAdjust="spacingAndGlyphs" textLength="99" x="3031.75" y="362.1387">DateTimePeriod</text></a><!--class InvestigationPartyRole--><a target="_top" xlink:actuate="onRequest" xlink:href="../InvestigationPartyRole.html" xlink:show="new" xlink:title="Role played by a party in the context of an investigation process." xlink:type="simple"><rect fill="#EEEEEE" filter="url(#f12n90gg6wfywe)" height="23.9688" id="InvestigationPartyRole" style="stroke: #A80036; stroke-width: 1.5;" width="145" x="2988.75" y="242"/><rect fill="#EEEEEE" height="23.9688" style="stroke: #A80036; stroke-width: 1.5;" width="145" x="2988.75" y="242"/><text fill="#000000" font-family="sans-serif" font-size="12" lengthAdjust="spacingAndGlyphs" textLength="139" x="2991.75" y="258.1387">InvestigationPartyRole</text></a><!--link Status to AccountStatus--><path d="M1480.5,109.335 C1205.5,120.072 721.318,144.215 309,192 C239.613,200.042 220.221,195.776 154,218 C136.333,223.929 117.651,234.049 104.5156,241.887 " fill="none" id="Status-AccountStatus" style="stroke: #A80036; stroke-width: 1.0;"/><polygon fill="none" points="1480.49,102.33,1500.74,108.553,1481.03,116.319,1480.49,102.33" style="stroke: #A80036; stroke-width: 1.0;"/><!--link Status to PaymentStatus--><path d="M1480.56,110.646 C1227.61,122.198 800.702,146.681 436,192 C370.593,200.128 352.443,196.905 290,218 C272.138,224.034 253.169,234.143 239.818,241.95 " fill="none" id="Status-PaymentStatus" style="stroke: #A80036; stroke-width: 1.0;"/><polygon fill="none" points="1480.42,103.645,1500.72,109.736,1481.05,117.631,1480.42,103.645" style="stroke: #A80036; stroke-width: 1.0;"/><!--link Status to SystemStatus--><path d="M1480.71,111.001 C1247.46,122.433 868.95,146.409 545,192 C487.947,200.029 472.099,198.18 418,218 C401.233,224.143 383.521,234.137 370.991,241.876 " fill="none" id="Status-SystemStatus" style="stroke: #A80036; stroke-width: 1.0;"/><polygon fill="none" points="1480.42,104.007,1500.73,110.033,1481.09,117.991,1480.42,104.007" style="stroke: #A80036; stroke-width: 1.0;"/><!--link Status to LimitStatus--><path d="M1480.64,120.572 C1284.92,137.539 991.179,164.159 736,192 C643.386,202.105 615.657,186.445 528,218 C512.665,223.52 497.18,233.904 486.565,241.934 " fill="none" id="Status-LimitStatus" style="stroke: #A80036; stroke-width: 1.0;"/><polygon fill="none" points="1480.22,113.582,1500.75,118.833,1481.43,127.53,1480.22,113.582" style="stroke: #A80036; stroke-width: 1.0;"/><!--link Status to SecuritiesTradeStatus--><path d="M1480.48,126.977 C1324.02,144.805 1109.08,169.511 920,192 C825.736,203.212 800.06,194.84 708,218 C684.751,223.849 659.393,234.085 641.536,241.981 " fill="none" id="Status-SecuritiesTradeStatus" style="stroke: #A80036; stroke-width: 1.0;"/><polygon fill="none" points="1480.05,119.981,1500.71,124.673,1481.63,133.891,1480.05,119.981" style="stroke: #A80036; stroke-width: 1.0;"/><!--link Status to CorporateActionStatus--><path d="M1480.66,132.488 C1357.71,149.65 1201.8,171.659 1063,192 C986.939,203.147 966.345,198.445 892,218 C868.697,224.129 843.155,234.125 824.909,241.868 " fill="none" id="Status-CorporateActionStatus" style="stroke: #A80036; stroke-width: 1.0;"/><polygon fill="none" points="1479.72,125.552,1500.49,129.722,1481.65,139.418,1479.72,125.552" style="stroke: #A80036; stroke-width: 1.0;"/><!--link Status to SecuritiesStatus--><path d="M1480.79,124.705 C1349.45,142.095 1180.65,171.251 1036,218 C1017.22,224.069 997.121,234.174 982.945,241.97 " fill="none" id="Status-SecuritiesStatus" style="stroke: #A80036; stroke-width: 1.0;"/><polygon fill="none" points="1479.97,117.752,1500.71,122.12,1481.78,131.636,1479.97,117.752" style="stroke: #A80036; stroke-width: 1.0;"/><!--link Status to UndertakingStatus--><path d="M1480.81,142.88 C1391.09,162.008 1287.02,187.382 1195,218 C1175.21,224.583 1153.62,234.336 1138.02,241.875 " fill="none" id="Status-UndertakingStatus" style="stroke: #A80036; stroke-width: 1.0;"/><polygon fill="none" points="1479.6,135.981,1500.62,138.709,1482.49,149.68,1479.6,135.981" style="stroke: #A80036; stroke-width: 1.0;"/><!--link Status to MandateStatus--><path d="M1481.3,164.291 C1431.63,180.239 1379.54,198.462 1332,218 C1315.05,224.966 1296.62,234.592 1283.22,241.986 " fill="none" id="Status-MandateStatus" style="stroke: #A80036; stroke-width: 1.0;"/><polygon fill="none" points="1479.4,157.552,1500.58,158.177,1483.63,170.897,1479.4,157.552" style="stroke: #A80036; stroke-width: 1.0;"/><!--link Status to TreasuryTradeSettlementStatus--><path d="M1584.91,172.686 C1541,199.421 1495.76,226.965 1471.34,241.834 " fill="none" id="Status-TreasuryTradeSettlementStatus" style="stroke: #A80036; stroke-width: 1.0;"/><polygon fill="none" points="1581.55,166.535,1602.27,162.113,1588.83,178.493,1581.55,166.535" style="stroke: #A80036; stroke-width: 1.0;"/><!--link Status to CardPaymentStatus--><path d="M1677.29,181.57 C1670.2,205.36 1663.27,228.61 1659.33,241.834 " fill="none" id="Status-CardPaymentStatus" style="stroke: #A80036; stroke-width: 1.0;"/><polygon fill="none" points="1670.66,179.281,1683.09,162.113,1684.08,183.279,1670.66,179.281" style="stroke: #A80036; stroke-width: 1.0;"/><!--link Status to SecuritiesOrderStatus--><path d="M1764.63,177.66 C1785.77,202.785 1806.88,227.886 1818.61,241.834 " fill="none" id="Status-SecuritiesOrderStatus" style="stroke: #A80036; stroke-width: 1.0;"/><polygon fill="none" points="1759.07,181.925,1751.56,162.113,1769.79,172.914,1759.07,181.925" style="stroke: #A80036; stroke-width: 1.0;"/><!--link Status to InvestigationCaseStatus--><path d="M1843.9,170.937 C1900.61,198.297 1959.72,226.815 1991.14,241.974 " fill="none" id="Status-InvestigationCaseStatus" style="stroke: #A80036; stroke-width: 1.0;"/><polygon fill="none" points="1840.58,177.108,1825.61,162.113,1846.66,164.499,1840.58,177.108" style="stroke: #A80036; stroke-width: 1.0;"/><!--link Status to MeetingStatus--><path d="M1920.81,155.613 C1982.55,173.053 2049.15,194.15 2109,218 C2125.95,224.753 2144.24,234.491 2157.43,241.982 " fill="none" id="Status-MeetingStatus" style="stroke: #A80036; stroke-width: 1.0;"/><polygon fill="none" points="1918.77,162.312,1901.39,150.2,1922.53,148.826,1918.77,162.312" style="stroke: #A80036; stroke-width: 1.0;"/><!--link Status to CollateralStatus--><path d="M1921.21,136.868 C2020.44,155.733 2138.17,182.543 2241,218 C2259.4,224.343 2279.2,234.216 2293.38,241.861 " fill="none" id="Status-CollateralStatus" style="stroke: #A80036; stroke-width: 1.0;"/><polygon fill="none" points="1919.67,143.701,1901.3,133.141,1922.24,129.94,1919.67,143.701" style="stroke: #A80036; stroke-width: 1.0;"/><!--link Status to InvoiceFinancingStatus--><path d="M1921.25,128.827 C2055.72,147.835 2230.37,177.243 2382,218 C2405.54,224.328 2431.45,234.202 2450.09,241.852 " fill="none" id="Status-InvoiceFinancingStatus" style="stroke: #A80036; stroke-width: 1.0;"/><polygon fill="none" points="1920.13,135.738,1901.29,126.04,1922.07,121.873,1920.13,135.738" style="stroke: #A80036; stroke-width: 1.0;"/><!--link Status to BaselineStatus--><path d="M1921.76,111.142 C2099.43,123.324 2353.77,151.738 2567,218 C2585.34,223.7 2604.72,233.953 2618.26,241.894 " fill="none" id="Status-BaselineStatus" style="stroke: #A80036; stroke-width: 1.0;"/><polygon fill="none" points="1921.05,118.111,1901.56,109.804,1921.98,104.142,1921.05,118.111" style="stroke: #A80036; stroke-width: 1.0;"/><!--link Status to QuoteStatus--><path d="M1921.34,125.282 C2083.65,142.747 2309.7,167.725 2508,192 C2594.79,202.624 2620.19,189.938 2703,218 C2719.54,223.604 2736.63,233.868 2748.5,241.838 " fill="none" id="Status-QuoteStatus" style="stroke: #A80036; stroke-width: 1.0;"/><polygon fill="none" points="1920.51,132.233,1901.37,123.136,1922,118.313,1920.51,132.233" style="stroke: #A80036; stroke-width: 1.0;"/><!--link Status to InvoiceStatus--><path d="M1921.42,122.992 C2103.69,140.604 2369.27,166.846 2601,192 C2699.76,202.721 2728.35,187.836 2823,218 C2840.38,223.537 2858.45,233.919 2870.95,241.944 " fill="none" id="Status-InvoiceStatus" style="stroke: #A80036; stroke-width: 1.0;"/><polygon fill="none" points="1920.51,129.938,1901.28,121.049,1921.86,116.002,1920.51,129.938" style="stroke: #A80036; stroke-width: 1.0;"/><!--link DateTimePeriod to StatusReason--><!--link InvestigationPartyRole to DateTimePeriod--><!--link Status to StatusReason--><path d="M1901.61,109.193 C2311.54,124.949 3210.29,165.349 3251,218 C3311.92,296.783 3168.59,393.7947 3109.25,429.2222 " fill="none" id="Status-StatusReason" style="stroke: #A80036; stroke-width: 1.0;"/><polygon fill="#A80036" points="3104.79,431.8643,3114.5703,430.7044,3109.0881,429.3096,3110.4829,423.8274,3104.79,431.8643" style="stroke: #A80036; stroke-width: 1.0;"/><text fill="#000000" font-family="sans-serif" font-size="13" lengthAdjust="spacingAndGlyphs" textLength="89" x="3256" y="311.0669">StatusReason</text><text fill="#000000" font-family="sans-serif" font-size="13" lengthAdjust="spacingAndGlyphs" textLength="7" x="3102.0459" y="420.8659">*</text><!--link Status to DateTimePeriod--><path d="M1901.6,102.814 C2280.53,106.512 3070.98,125.372 3151,218 C3171.92,242.216 3163.57,260.572 3151,290 C3141.38,312.534 3120.04,331.115 3103.44,342.947 " fill="none" id="Status-DateTimePeriod" style="stroke: #A80036; stroke-width: 1.0;"/><polygon fill="#A80036" points="3099.33,345.808,3109.0015,343.9473,3103.4331,342.9507,3104.4298,337.3823,3099.33,345.808" style="stroke: #A80036; stroke-width: 1.0;"/><text fill="#000000" font-family="sans-serif" font-size="13" lengthAdjust="spacingAndGlyphs" textLength="77" x="3164" y="258.0669">ValidityTime</text><text fill="#000000" font-family="sans-serif" font-size="13" lengthAdjust="spacingAndGlyphs" textLength="8" x="3094.6628" y="335.0478">1</text><!--link Status to InvestigationPartyRole--><path d="M1901.31,118.887 C2104.22,136.24 2427.07,164.529 2706,192 C2813.65,202.603 2842.06,196.117 2948,218 C2974.55,223.485 3003.77,232.62 3025.84,240.183 " fill="none" id="Status-InvestigationPartyRole" style="stroke: #A80036; stroke-width: 1.0;"/><polygon fill="#A80036" points="3030.72,241.869,3023.5144,235.1549,3025.9928,240.2399,3020.9078,242.7184,3030.72,241.869" style="stroke: #A80036; stroke-width: 1.0;"/><text fill="#000000" font-family="sans-serif" font-size="13" lengthAdjust="spacingAndGlyphs" textLength="60" x="2904" y="205.0669">PartyRole</text><text fill="#000000" font-family="sans-serif" font-size="13" lengthAdjust="spacingAndGlyphs" textLength="8" x="3009.5066" y="230.8722">1</text></g></svg>