<?xml version="1.0" encoding="UTF-8" standalone="no"?><svg xmlns="http://www.w3.org/2000/svg" xmlns:xlink="http://www.w3.org/1999/xlink" contentScriptType="application/ecmascript" contentStyleType="text/css" height="282px" preserveAspectRatio="none" style="width:3576px;height:282px;" version="1.1" viewBox="0 0 3576 282" width="3576px" zoomAndPan="magnify"><defs><filter height="300%" id="fssnofv414jnn" width="300%" x="-1" y="-1"><feGaussianBlur result="blurOut" stdDeviation="2.0"/><feColorMatrix in="blurOut" result="blurOut2" type="matrix" values="0 0 0 0 0 0 0 0 0 0 0 0 0 0 0 0 0 0 .4 0"/><feOffset dx="4.0" dy="4.0" in="blurOut2" result="blurOut3"/><feBlend in="SourceGraphic" in2="blurOut3" mode="normal"/></filter></defs><g><!--cluster ##8877--><!--cluster ##8880--><!--class SuspensionPeriod--><a target="_top" xlink:actuate="onRequest" xlink:href="../SuspensionPeriod.html" xlink:show="new" xlink:title="Period defining the last date for which an action will be accepted and the date on which the suspension will be released and normal processing will resume." xlink:type="simple"><rect fill="#FEFECE" filter="url(#fssnofv414jnn)" height="23.9688" id="SuspensionPeriod" style="stroke: #A80036; stroke-width: 1.5;" width="119" x="1547.94" y="40"/><rect fill="#FEFECE" height="23.9688" style="stroke: #A80036; stroke-width: 1.5;" width="119" x="1547.94" y="40"/><text fill="#000000" font-family="sans-serif" font-size="12" lengthAdjust="spacingAndGlyphs" textLength="113" x="1550.94" y="56.1387">SuspensionPeriod</text></a><!--class DateTimePeriod--><a target="_top" xlink:actuate="onRequest" xlink:href="../DateTimePeriod.html" xlink:show="new" xlink:title="Time span defined by a start date and time, and an end date and time." xlink:type="simple"><rect fill="#EEEEEE" filter="url(#fssnofv414jnn)" height="23.9688" id="DateTimePeriod" style="stroke: #A80036; stroke-width: 1.5;" width="105" x="1590.94" y="146"/><rect fill="#EEEEEE" height="23.9688" style="stroke: #A80036; stroke-width: 1.5;" width="105" x="1590.94" y="146"/><text fill="#000000" font-family="sans-serif" font-size="12" lengthAdjust="spacingAndGlyphs" textLength="99" x="1593.94" y="162.1387">DateTimePeriod</text></a><!--class CorporateActionEvent--><a target="_top" xlink:actuate="onRequest" xlink:href="../CorporateActionEvent.html" xlink:show="new" xlink:title="An event determined by a corporation's board of directors, that changes the existing corporate capital structure or financial condition." xlink:type="simple"><rect fill="#EEEEEE" filter="url(#fssnofv414jnn)" height="23.9688" id="CorporateActionEvent" style="stroke: #A80036; stroke-width: 1.5;" width="143" x="1759.94" y="248"/><rect fill="#EEEEEE" height="23.9688" style="stroke: #A80036; stroke-width: 1.5;" width="143" x="1759.94" y="248"/><text fill="#000000" font-family="sans-serif" font-size="12" lengthAdjust="spacingAndGlyphs" textLength="137" x="1762.94" y="264.1387">CorporateActionEvent</text></a><!--link CorporateActionEvent to DateTimePeriod--><!--link DateTimePeriod to CorporateActionEvent--><path d="M1602.2,170.1 C1571.7,180.35 1538.19,197.127 1556.19,218 C1581.38,247.2341 1682.41,255.9437 1754.69,258.3633 " fill="none" id="DateTimePeriod-CorporateActionEvent" style="stroke: #A80036; stroke-width: 1.0;"/><polygon fill="#A80036" points="1759.85,258.5268,1750.9802,254.2459,1754.8525,258.3697,1750.7287,262.242,1759.85,258.5268" style="stroke: #A80036; stroke-width: 1.0;"/><text fill="#000000" font-family="sans-serif" font-size="13" lengthAdjust="spacingAndGlyphs" textLength="184" x="1557.19" y="213.0669">BookClosureCorporateAction</text><text fill="#000000" font-family="sans-serif" font-size="13" lengthAdjust="spacingAndGlyphs" textLength="8" x="1744.0287" y="253.7128">1</text><!--link DateTimePeriod to CorporateActionEvent--><path d="M1677.35,170.158 C1698.09,177.493 1724.8,187.947 1747.19,200 C1771.49,213.0849 1797.13,231.9317 1813.6,244.7796 " fill="none" id="DateTimePeriod-CorporateActionEvent" style="stroke: #A80036; stroke-width: 1.0;"/><polygon fill="#A80036" points="1817.58,247.9096,1812.99,239.1957,1813.6539,244.8135,1808.0362,245.4775,1817.58,247.9096" style="stroke: #A80036; stroke-width: 1.0;"/><text fill="#000000" font-family="sans-serif" font-size="13" lengthAdjust="spacingAndGlyphs" textLength="152" x="1776.19" y="213.0669">RelatedCorporateAction</text><text fill="#000000" font-family="sans-serif" font-size="13" lengthAdjust="spacingAndGlyphs" textLength="8" x="1802.0969" y="236.9267">1</text><!--link SuspensionPeriod to DateTimePeriod--><path d="M1547.66,53.477 C1261.23,55.908 37.5128,67.928 10.186,96 C4.6058,101.732 4.6041,108.269 10.186,114 C38.2359,142.798 1298.32,154.32 1585.39,156.573 " fill="none" id="SuspensionPeriod-DateTimePeriod" style="stroke: #A80036; stroke-width: 1.0;"/><polygon fill="#A80036" points="1590.78,156.615,1581.8146,152.538,1585.7802,156.5721,1581.746,160.5377,1590.78,156.615" style="stroke: #A80036; stroke-width: 1.0;"/><text fill="#000000" font-family="sans-serif" font-size="13" lengthAdjust="spacingAndGlyphs" textLength="167" x="11.186" y="109.0669">PrivilegeSuspensionPeriod</text><text fill="#000000" font-family="sans-serif" font-size="13" lengthAdjust="spacingAndGlyphs" textLength="8" x="1575.1131" y="169.3984">1</text><!--link SuspensionPeriod to DateTimePeriod--><path d="M1547.81,53.724 C1285.65,57.057 243.637,71.811 220.186,96 C214.617,101.744 214.615,108.258 220.186,114 C244.344,138.899 1321.24,153.204 1585.23,156.341 " fill="none" id="SuspensionPeriod-DateTimePeriod" style="stroke: #A80036; stroke-width: 1.0;"/><polygon fill="#A80036" points="1590.56,156.404,1581.6181,152.2758,1585.5605,156.3326,1581.5038,160.275,1590.56,156.404" style="stroke: #A80036; stroke-width: 1.0;"/><text fill="#000000" font-family="sans-serif" font-size="13" lengthAdjust="spacingAndGlyphs" textLength="271" x="221.186" y="109.0669">DepositorySuspensionPeriodForWithdrawal</text><text fill="#000000" font-family="sans-serif" font-size="13" lengthAdjust="spacingAndGlyphs" textLength="8" x="1574.8676" y="151.313">1</text><!--link SuspensionPeriod to DateTimePeriod--><path d="M1547.89,53.131 C1327.92,53.905 569.504,59.238 534.186,96 C528.644,101.769 528.64,108.235 534.186,114 C570.923,152.189 1363.67,156.497 1585.79,156.954 " fill="none" id="SuspensionPeriod-DateTimePeriod" style="stroke: #A80036; stroke-width: 1.0;"/><polygon fill="#A80036" points="1590.93,156.964,1581.9415,152.9383,1585.93,156.9497,1581.9186,160.9383,1590.93,156.964" style="stroke: #A80036; stroke-width: 1.0;"/><text fill="#000000" font-family="sans-serif" font-size="13" lengthAdjust="spacingAndGlyphs" textLength="320" x="535.186" y="109.0669">DepositorySuspensionPeriodForBookEntryTransfer</text><text fill="#000000" font-family="sans-serif" font-size="13" lengthAdjust="spacingAndGlyphs" textLength="8" x="1574.8611" y="149.8993">1</text><!--link SuspensionPeriod to DateTimePeriod--><path d="M1547.91,54.402 C1381.28,58.631 919.364,72.438 897.186,96 C891.703,101.825 891.694,108.183 897.186,114 C920.736,138.947 1414.83,152.028 1585.67,155.818 " fill="none" id="SuspensionPeriod-DateTimePeriod" style="stroke: #A80036; stroke-width: 1.0;"/><polygon fill="#A80036" points="1590.88,155.933,1581.9738,151.7283,1585.8813,155.8187,1581.7909,159.7262,1590.88,155.933" style="stroke: #A80036; stroke-width: 1.0;"/><text fill="#000000" font-family="sans-serif" font-size="13" lengthAdjust="spacingAndGlyphs" textLength="304" x="898.186" y="109.0669">DepositorySuspensionPeriodForDepositAtAgent</text><text fill="#000000" font-family="sans-serif" font-size="13" lengthAdjust="spacingAndGlyphs" textLength="8" x="1574.8649" y="150.722">1</text><!--link SuspensionPeriod to DateTimePeriod--><path d="M1547.65,53.854 C1434.37,56.543 1202.61,67.702 1244.19,114 C1266.56,138.915 1480.36,150.66 1585.45,154.964 " fill="none" id="SuspensionPeriod-DateTimePeriod" style="stroke: #A80036; stroke-width: 1.0;"/><polygon fill="#A80036" points="1590.68,155.175,1581.8472,150.8182,1585.684,154.975,1581.5272,158.8118,1590.68,155.175" style="stroke: #A80036; stroke-width: 1.0;"/><text fill="#000000" font-family="sans-serif" font-size="13" lengthAdjust="spacingAndGlyphs" textLength="252" x="1245.19" y="109.0669">DepositorySuspensionPeriodForDeposit</text><text fill="#000000" font-family="sans-serif" font-size="13" lengthAdjust="spacingAndGlyphs" textLength="8" x="1575.1378" y="168.7582">1</text><!--link SuspensionPeriod to DateTimePeriod--><path d="M1578.33,64.026 C1554.06,75.048 1525.35,93.301 1539.19,114 C1549.91,130.034 1567.82,140.096 1585.79,146.408 " fill="none" id="SuspensionPeriod-DateTimePeriod" style="stroke: #A80036; stroke-width: 1.0;"/><polygon fill="#A80036" points="1590.86,148.09,1583.5742,141.463,1586.1136,146.5179,1581.0588,149.0573,1590.86,148.09" style="stroke: #A80036; stroke-width: 1.0;"/><text fill="#000000" font-family="sans-serif" font-size="13" lengthAdjust="spacingAndGlyphs" textLength="246" x="1540.19" y="109.0669">DepositorySuspensionPeriodForPledge</text><text fill="#000000" font-family="sans-serif" font-size="13" lengthAdjust="spacingAndGlyphs" textLength="8" x="1574.7679" y="138.0858">1</text><!--link SuspensionPeriod to DateTimePeriod--><path d="M1666.73,58.868 C1714.71,64.972 1776.65,76.44 1792.19,96 C1820.23,131.305 1753.78,146.337 1700.78,152.627 " fill="none" id="SuspensionPeriod-DateTimePeriod" style="stroke: #A80036; stroke-width: 1.0;"/><polygon fill="#A80036" points="1695.7,153.209,1705.0982,156.1542,1700.6672,152.6376,1704.1839,148.2066,1695.7,153.209" style="stroke: #A80036; stroke-width: 1.0;"/><text fill="#000000" font-family="sans-serif" font-size="13" lengthAdjust="spacingAndGlyphs" textLength="281" x="1799.19" y="109.0669">DepositorySuspensionPeriodForSegregation</text><text fill="#000000" font-family="sans-serif" font-size="13" lengthAdjust="spacingAndGlyphs" textLength="8" x="1703.9632" y="147.3358">1</text><!--link SuspensionPeriod to DateTimePeriod--><path d="M1666.46,53.896 C1789.2,56.368 2062.09,65.294 2090.19,96 C2143.69,154.479 1833.18,158.619 1700.81,157.788 " fill="none" id="SuspensionPeriod-DateTimePeriod" style="stroke: #A80036; stroke-width: 1.0;"/><polygon fill="#A80036" points="1695.79,157.754,1704.767,161.8054,1700.7899,157.7826,1704.8127,153.8055,1695.79,157.754" style="stroke: #A80036; stroke-width: 1.0;"/><text fill="#000000" font-family="sans-serif" font-size="13" lengthAdjust="spacingAndGlyphs" textLength="323" x="2097.19" y="109.0669">DepositorySuspensionPeriodForWithdrawalAtAgent</text><text fill="#000000" font-family="sans-serif" font-size="13" lengthAdjust="spacingAndGlyphs" textLength="8" x="1704.0664" y="170.8984">1</text><!--link SuspensionPeriod to DateTimePeriod--><path d="M1666.5,53.888 C1850.98,56.937 2403.95,68.353 2430.19,96 C2435.69,101.803 2435.69,108.191 2430.19,114 C2405.16,140.427 1878.06,152.63 1700.78,155.997 " fill="none" id="SuspensionPeriod-DateTimePeriod" style="stroke: #A80036; stroke-width: 1.0;"/><polygon fill="#A80036" points="1695.63,156.094,1704.7082,159.9132,1700.629,155.994,1704.5482,151.9148,1695.63,156.094" style="stroke: #A80036; stroke-width: 1.0;"/><text fill="#000000" font-family="sans-serif" font-size="13" lengthAdjust="spacingAndGlyphs" textLength="379" x="2435.19" y="109.0669">DepositorySuspensionPeriodForWithdrawalInNomineeName</text><text fill="#000000" font-family="sans-serif" font-size="13" lengthAdjust="spacingAndGlyphs" textLength="8" x="1704.0313" y="148.3539">1</text><!--link SuspensionPeriod to DateTimePeriod--><path d="M1666.53,52.836 C1905.13,52.462 2783.6,53.956 2824.19,96 C2829.74,101.756 2829.74,108.241 2824.19,114 C2784.82,154.822 1932.37,157.205 1700.8,157.096 " fill="none" id="SuspensionPeriod-DateTimePeriod" style="stroke: #A80036; stroke-width: 1.0;"/><polygon fill="#A80036" points="1695.77,157.093,1704.77,161.093,1700.77,157.093,1704.77,153.093,1695.77,157.093" style="stroke: #A80036; stroke-width: 1.0;"/><text fill="#000000" font-family="sans-serif" font-size="13" lengthAdjust="spacingAndGlyphs" textLength="361" x="2829.19" y="109.0669">DepositorySuspensionPeriodForWithdrawalInStreetName</text><text fill="#000000" font-family="sans-serif" font-size="13" lengthAdjust="spacingAndGlyphs" textLength="8" x="1704.0435" y="151.7903">1</text><!--link SuspensionPeriod to DateTimePeriod--><path d="M1666.57,53.479 C1952.28,55.924 3172.93,67.997 3200.19,96 C3205.77,101.733 3205.76,108.266 3200.19,114 C3173.55,141.386 1979.89,153.936 1701.02,156.497 " fill="none" id="SuspensionPeriod-DateTimePeriod" style="stroke: #A80036; stroke-width: 1.0;"/><polygon fill="#A80036" points="1695.78,156.545,1704.814,160.4677,1700.7798,156.5021,1704.7454,152.468,1695.78,156.545" style="stroke: #A80036; stroke-width: 1.0;"/><text fill="#000000" font-family="sans-serif" font-size="13" lengthAdjust="spacingAndGlyphs" textLength="211" x="3205.19" y="109.0669">CoDepositoriesSuspensionPeriod</text><text fill="#000000" font-family="sans-serif" font-size="13" lengthAdjust="spacingAndGlyphs" textLength="8" x="1703.6449" y="170.7946">1</text><!--link SuspensionPeriod to CorporateActionEvent--><path d="M1666.58,53.275 C1976.45,54.847 3394.73,63.796 3426.19,96 C3534.75,207.1652 2240.44,248.4159 1907.95,257.1417 " fill="none" id="SuspensionPeriod-CorporateActionEvent" style="stroke: #A80036; stroke-width: 1.0;"/><polygon fill="#A80036" points="1902.65,257.2802,1911.7499,261.0474,1907.6483,257.1516,1911.5442,253.0501,1902.65,257.2802" style="stroke: #A80036; stroke-width: 1.0;"/><text fill="#000000" font-family="sans-serif" font-size="13" lengthAdjust="spacingAndGlyphs" textLength="140" x="3424.19" y="162.0669">CorporateActionEvent</text><text fill="#000000" font-family="sans-serif" font-size="13" lengthAdjust="spacingAndGlyphs" textLength="24" x="1910.841" y="252.2507">0..1</text></g></svg>