<?xml version="1.0" encoding="UTF-8" standalone="no"?><svg xmlns="http://www.w3.org/2000/svg" xmlns:xlink="http://www.w3.org/1999/xlink" contentScriptType="application/ecmascript" contentStyleType="text/css" height="710px" preserveAspectRatio="none" style="width:1045px;height:710px;" version="1.1" viewBox="0 0 1045 710" width="1045px" zoomAndPan="magnify"><defs><filter height="300%" id="fcb9pcb9wfyqy" width="300%" x="-1" y="-1"><feGaussianBlur result="blurOut" stdDeviation="2.0"/><feColorMatrix in="blurOut" result="blurOut2" type="matrix" values="0 0 0 0 0 0 0 0 0 0 0 0 0 0 0 0 0 0 .4 0"/><feOffset dx="4.0" dy="4.0" in="blurOut2" result="blurOut3"/><feBlend in="SourceGraphic" in2="blurOut3" mode="normal"/></filter></defs><g><!--cluster ##5666--><!--cluster ##5675--><!--cluster ##5684--><!--cluster ##5687--><!--class Role--><a target="_top" xlink:actuate="onRequest" xlink:href="../Role.html" xlink:show="new" xlink:title="Role of a party in an activity." xlink:type="simple"><rect fill="#FEFEEE" filter="url(#fcb9pcb9wfyqy)" height="44.7734" id="Role" style="stroke: #A80036; stroke-width: 1.5;" width="175" x="134.364" y="40.5"/><rect fill="#FEFEEE" height="23.9688" style="stroke: #A80036; stroke-width: 1.5;" width="175" x="134.364" y="40.5"/><text fill="#000000" font-family="sans-serif" font-size="12" lengthAdjust="spacingAndGlyphs" textLength="27" x="208.364" y="56.6387">Role</text><line style="stroke: #A80036; stroke-width: 1.5;" x1="135.364" x2="308.364" y1="64.4688" y2="64.4688"/><ellipse cx="145.364" cy="76.3711" fill="#84BE84" rx="3" ry="3" style="stroke: #038048; stroke-width: 1.0;"/><text fill="#000000" font-family="sans-serif" font-size="11" lengthAdjust="spacingAndGlyphs" textLength="53" x="154.364" y="78.6792">PartyRole</text><text fill="#000000" font-family="sans-serif" font-size="11" font-style="italic" lengthAdjust="spacingAndGlyphs" textLength="92" x="211.364" y="78.6792">(PartyRoleCode)</text></a><!--class SystemPartyRole--><a target="_top" xlink:actuate="onRequest" xlink:href="../SystemPartyRole.html" xlink:show="new" xlink:title="Role played by a party in a system." xlink:type="simple"><rect fill="#FEFEEE" filter="url(#fcb9pcb9wfyqy)" height="23.9688" id="SystemPartyRole" style="stroke: #A80036; stroke-width: 1.5;" width="110" x="166.614" y="166"/><rect fill="#FEFEEE" height="23.9688" style="stroke: #A80036; stroke-width: 1.5;" width="110" x="166.614" y="166"/><text fill="#000000" font-family="sans-serif" font-size="12" lengthAdjust="spacingAndGlyphs" textLength="104" x="169.614" y="182.1387">SystemPartyRole</text></a><!--class SystemMemberRole--><a target="_top" xlink:actuate="onRequest" xlink:href="../SystemMemberRole.html" xlink:show="new" xlink:title="Information about the members of a system." xlink:type="simple"><rect fill="#FEFECE" filter="url(#fcb9pcb9wfyqy)" height="44.7734" id="SystemMemberRole" style="stroke: #A80036; stroke-width: 1.5;" width="168" x="134.114" y="268.5"/><rect fill="#FEFECE" height="23.9688" style="stroke: #A80036; stroke-width: 1.5;" width="168" x="134.114" y="268.5"/><text fill="#000000" font-family="sans-serif" font-size="12" lengthAdjust="spacingAndGlyphs" textLength="122" x="157.114" y="284.6387">SystemMemberRole</text><line style="stroke: #A80036; stroke-width: 1.5;" x1="135.114" x2="301.114" y1="292.4688" y2="292.4688"/><ellipse cx="145.114" cy="304.3711" fill="#84BE84" rx="3" ry="3" style="stroke: #038048; stroke-width: 1.0;"/><text fill="#000000" font-family="sans-serif" font-size="11" lengthAdjust="spacingAndGlyphs" textLength="27" x="154.114" y="306.6792">Type</text><text fill="#000000" font-family="sans-serif" font-size="11" font-style="italic" lengthAdjust="spacingAndGlyphs" textLength="111" x="185.114" y="306.6792">(MemberTypeCode)</text></a><!--class RolePlayer--><a target="_top" xlink:actuate="onRequest" xlink:href="../RolePlayer.html" xlink:show="new" xlink:title="Type of entity that plays a specific role in a specific context." xlink:type="simple"><rect fill="#EEEEEE" filter="url(#fcb9pcb9wfyqy)" height="23.9688" id="RolePlayer" style="stroke: #A80036; stroke-width: 1.5;" width="71" x="621.364" y="502"/><rect fill="#EEEEEE" height="23.9688" style="stroke: #A80036; stroke-width: 1.5;" width="71" x="621.364" y="502"/><text fill="#000000" font-family="sans-serif" font-size="12" lengthAdjust="spacingAndGlyphs" textLength="65" x="624.364" y="518.1387">RolePlayer</text></a><!--class ContactPersonRole--><a target="_top" xlink:actuate="onRequest" xlink:href="../ContactPersonRole.html" xlink:show="new" xlink:title="Person to be contacted in a given organisation. In the corporate action domain (including meeting notifications) , it is the contact person at the party organising the meeting, at the issuer or at an intermediary." xlink:type="simple"><rect fill="#EEEEEE" filter="url(#fcb9pcb9wfyqy)" height="23.9688" id="ContactPersonRole" style="stroke: #A80036; stroke-width: 1.5;" width="126" x="573.614" y="398"/><rect fill="#EEEEEE" height="23.9688" style="stroke: #A80036; stroke-width: 1.5;" width="126" x="573.614" y="398"/><text fill="#000000" font-family="sans-serif" font-size="12" lengthAdjust="spacingAndGlyphs" textLength="120" x="576.614" y="414.1387">ContactPersonRole</text></a><!--class CounterpartyRisk--><a target="_top" xlink:actuate="onRequest" xlink:href="../CounterpartyRisk.html" xlink:show="new" xlink:title="Calculation of the exposure amount that one party has vis-a-vis one counterparty or a central system, based on its credit risk." xlink:type="simple"><rect fill="#EEEEEE" filter="url(#fcb9pcb9wfyqy)" height="23.9688" id="CounterpartyRisk" style="stroke: #A80036; stroke-width: 1.5;" width="113" x="586.364" y="279"/><rect fill="#EEEEEE" height="23.9688" style="stroke: #A80036; stroke-width: 1.5;" width="113" x="586.364" y="279"/><text fill="#000000" font-family="sans-serif" font-size="12" lengthAdjust="spacingAndGlyphs" textLength="107" x="589.364" y="295.1387">CounterpartyRisk</text></a><!--class Entry--><a target="_top" xlink:actuate="onRequest" xlink:href="../Entry.html" xlink:show="new" xlink:title="Posting to an account that results in an increase or decrease to a balance." xlink:type="simple"><rect fill="#EEEEEE" filter="url(#fcb9pcb9wfyqy)" height="23.9688" id="Entry" style="stroke: #A80036; stroke-width: 1.5;" width="38" x="573.614" y="166"/><rect fill="#EEEEEE" height="23.9688" style="stroke: #A80036; stroke-width: 1.5;" width="38" x="573.614" y="166"/><text fill="#000000" font-family="sans-serif" font-size="12" lengthAdjust="spacingAndGlyphs" textLength="32" x="576.614" y="182.1387">Entry</text></a><!--class System--><a target="_top" xlink:actuate="onRequest" xlink:href="../System.html" xlink:show="new" xlink:title="Set of integrated applications that provides centralised services such as clearing, netting, reconciliation, trading and/or settlement." xlink:type="simple"><rect fill="#EEEEEE" filter="url(#fcb9pcb9wfyqy)" height="23.9688" id="System" style="stroke: #A80036; stroke-width: 1.5;" width="51" x="366.364" y="279"/><rect fill="#EEEEEE" height="23.9688" style="stroke: #A80036; stroke-width: 1.5;" width="51" x="366.364" y="279"/><text fill="#000000" font-family="sans-serif" font-size="12" lengthAdjust="spacingAndGlyphs" textLength="45" x="369.364" y="295.1387">System</text></a><!--class CashBalance--><a target="_top" xlink:actuate="onRequest" xlink:href="../CashBalance.html" xlink:show="new" xlink:title="Numerical representation of the net increases and decreases in an account at a specific point in time. A cash balance is calculated from a sum of cash credits minus a sum of cash debits." xlink:type="simple"><rect fill="#EEEEEE" filter="url(#fcb9pcb9wfyqy)" height="23.9688" id="CashBalance" style="stroke: #A80036; stroke-width: 1.5;" width="87" x="235.364" y="676"/><rect fill="#EEEEEE" height="23.9688" style="stroke: #A80036; stroke-width: 1.5;" width="87" x="235.364" y="676"/><text fill="#000000" font-family="sans-serif" font-size="12" lengthAdjust="spacingAndGlyphs" textLength="81" x="238.364" y="692.1387">CashBalance</text></a><!--class SystemStatus--><a target="_top" xlink:actuate="onRequest" xlink:href="../SystemStatus.html" xlink:show="new" xlink:title="Status of a system and the period of time during which the status is valid." xlink:type="simple"><rect fill="#EEEEEE" filter="url(#fcb9pcb9wfyqy)" height="23.9688" id="SystemStatus" style="stroke: #A80036; stroke-width: 1.5;" width="92" x="206.614" y="590"/><rect fill="#EEEEEE" height="23.9688" style="stroke: #A80036; stroke-width: 1.5;" width="92" x="206.614" y="590"/><text fill="#000000" font-family="sans-serif" font-size="12" lengthAdjust="spacingAndGlyphs" textLength="86" x="209.614" y="606.1387">SystemStatus</text></a><!--class RiskManagementLimit--><a target="_top" xlink:actuate="onRequest" xlink:href="../RiskManagementLimit.html" xlink:show="new" xlink:title="Cash management feature limiting the maximum risk that a party accepts to take with respect to a counterparty or a set of counterparties. A risk management limit is either bilateral, for a counterparty, or multilateral, for a set of counterparties or all other members in a system.The limit may also apply to sponsored or indirect members. In principle, a risk management limit is calculated on the net position between two members and is expressed as a credit or debit limit, from the point of view of the party setting the limit." xlink:type="simple"><rect fill="#EEEEEE" filter="url(#fcb9pcb9wfyqy)" height="23.9688" id="RiskManagementLimit" style="stroke: #A80036; stroke-width: 1.5;" width="141" x="149.364" y="502"/><rect fill="#EEEEEE" height="23.9688" style="stroke: #A80036; stroke-width: 1.5;" width="141" x="149.364" y="502"/><text fill="#000000" font-family="sans-serif" font-size="12" lengthAdjust="spacingAndGlyphs" textLength="135" x="152.364" y="518.1387">RiskManagementLimit</text></a><!--class Account--><a target="_top" xlink:actuate="onRequest" xlink:href="../Account.html" xlink:show="new" xlink:title="Record of transactions in specific types of assets, maintained by a servicing party on behalf of one or more owning parties. Business relationship between an account servicer and one or more account owners." xlink:type="simple"><rect fill="#EEEEEE" filter="url(#fcb9pcb9wfyqy)" height="23.9688" id="Account" style="stroke: #A80036; stroke-width: 1.5;" width="57" x="149.364" y="398"/><rect fill="#EEEEEE" height="23.9688" style="stroke: #A80036; stroke-width: 1.5;" width="57" x="149.364" y="398"/><text fill="#000000" font-family="sans-serif" font-size="12" lengthAdjust="spacingAndGlyphs" textLength="51" x="152.364" y="414.1387">Account</text></a><!--link Role to SystemPartyRole--><path d="M221.614,105.559 C221.614,127.159 221.614,151.898 221.614,165.865 " fill="none" id="Role-SystemPartyRole" style="stroke: #A80036; stroke-width: 1.0;"/><polygon fill="none" points="214.614,105.52,221.614,85.52,228.614,105.52,214.614,105.52" style="stroke: #A80036; stroke-width: 1.0;"/><!--link SystemPartyRole to SystemMemberRole--><path d="M220.486,210.307 C219.818,228.842 218.989,251.853 218.393,268.376 " fill="none" id="SystemPartyRole-SystemMemberRole" style="stroke: #A80036; stroke-width: 1.0;"/><polygon fill="none" points="213.5,209.784,221.216,190.049,227.491,210.288,213.5,209.784" style="stroke: #A80036; stroke-width: 1.0;"/><!--link ContactPersonRole to RolePlayer--><!--link CounterpartyRisk to ContactPersonRole--><!--link Entry to CounterpartyRisk--><!--link SystemStatus to CashBalance--><!--link RiskManagementLimit to SystemStatus--><!--link Account to RiskManagementLimit--><!--link Role to RolePlayer--><path d="M309.046,67.776 C511.165,77.671 993.614,108.468 993.614,177 C993.614,177 993.614,177 993.614,411 C993.614,472.283 786.884,500.14 697.256,509.338 " fill="none" id="Role-RolePlayer" style="stroke: #A80036; stroke-width: 1.0;"/><polygon fill="#A80036" points="692.042,509.866,701.3996,512.9378,697.0165,509.3617,700.5927,504.9786,692.042,509.866" style="stroke: #A80036; stroke-width: 1.0;"/><text fill="#000000" font-family="sans-serif" font-size="13" lengthAdjust="spacingAndGlyphs" textLength="39" x="994.614" y="295.0669">Player</text><text fill="#000000" font-family="sans-serif" font-size="13" lengthAdjust="spacingAndGlyphs" textLength="7" x="700.5028" y="503.1872">*</text><!--link Role to ContactPersonRole--><path d="M309.061,70.066 C456.532,81.211 741.553,107.045 770.614,142 C809.595,188.887 763.073,268.217 715.614,338 C699.935,361.053 675.222,381.641 657.614,394.634 " fill="none" id="Role-ContactPersonRole" style="stroke: #A80036; stroke-width: 1.0;"/><polygon fill="#A80036" points="653.3,397.771,662.9317,395.7144,657.3443,394.831,658.2277,389.2435,653.3,397.771" style="stroke: #A80036; stroke-width: 1.0;"/><text fill="#000000" font-family="sans-serif" font-size="13" lengthAdjust="spacingAndGlyphs" textLength="121" x="780.614" y="233.0669">ContactPersonRole</text><text fill="#000000" font-family="sans-serif" font-size="13" lengthAdjust="spacingAndGlyphs" textLength="8" x="648.171" y="386.9986">1</text><!--link Role to CounterpartyRisk--><path d="M309.045,68.736 C415.653,76.471 586.834,95.877 628.614,142 C661.89,178.735 653.119,243.645 646.659,273.783 " fill="none" id="Role-CounterpartyRisk" style="stroke: #A80036; stroke-width: 1.0;"/><polygon fill="#A80036" points="645.491,278.991,651.3638,271.0847,646.5853,274.1122,643.5578,269.3337,645.491,278.991" style="stroke: #A80036; stroke-width: 1.0;"/><text fill="#000000" font-family="sans-serif" font-size="13" lengthAdjust="spacingAndGlyphs" textLength="109" x="651.614" y="182.0669">CounterpartyRisk</text><text fill="#000000" font-family="sans-serif" font-size="13" lengthAdjust="spacingAndGlyphs" textLength="24" x="616.9253" y="268.0361">0..1</text><!--link Role to Entry--><path d="M292.269,85.52 C376.588,111.202 513.1,152.781 568.298,169.594 " fill="none" id="Role-Entry" style="stroke: #A80036; stroke-width: 1.0;"/><polygon fill="#A80036" points="573.382,171.142,565.9384,164.6927,568.599,169.6848,563.6069,172.3455,573.382,171.142" style="stroke: #A80036; stroke-width: 1.0;"/><text fill="#000000" font-family="sans-serif" font-size="13" lengthAdjust="spacingAndGlyphs" textLength="33" x="452.614" y="129.0669">Entry</text><text fill="#000000" font-family="sans-serif" font-size="13" lengthAdjust="spacingAndGlyphs" textLength="8" x="557.5668" y="162.9125">1</text><!--link SystemPartyRole to System--><path d="M238.536,190.049 C269.721,210.411 336.189,253.811 370.36,276.122 " fill="none" id="SystemPartyRole-System" style="stroke: #A80036; stroke-width: 1.0;"/><polygon fill="#A80036" points="374.761,278.996,369.4138,270.7251,370.575,276.2615,365.0386,277.4227,374.761,278.996" style="stroke: #A80036; stroke-width: 1.0;"/><text fill="#000000" font-family="sans-serif" font-size="13" lengthAdjust="spacingAndGlyphs" textLength="97" x="313.614" y="233.0669">RelatedSystem</text><text fill="#000000" font-family="sans-serif" font-size="13" lengthAdjust="spacingAndGlyphs" textLength="23" x="340.585" y="268.0428">1..*</text><!--link SystemMemberRole to CashBalance--><path d="M279.696,313.61 C318.847,327.385 362.743,343.166 366.614,346 C419.043,384.39 455.614,397.018 455.614,462 C455.614,462 455.614,462 455.614,603 C455.614,660.1702 379.315,678.479 326.907,684.3117 " fill="none" id="SystemMemberRole-CashBalance" style="stroke: #A80036; stroke-width: 1.0;"/><polygon fill="#A80036" points="321.913,684.8381,331.2828,687.8724,326.8854,684.3138,330.444,679.9165,321.913,684.8381" style="stroke: #A80036; stroke-width: 1.0;"/><text fill="#000000" font-family="sans-serif" font-size="13" lengthAdjust="spacingAndGlyphs" textLength="83" x="456.614" y="518.0669">CashBalance</text><text fill="#000000" font-family="sans-serif" font-size="13" lengthAdjust="spacingAndGlyphs" textLength="7" x="330.4955" y="678.77">*</text><!--link SystemMemberRole to SystemStatus--><path d="M155.94,313.584 C83.0026,342.881 -23.9476,399.947 14.6139,472 C51.9632,541.788 143.177,575.584 201.218,590.54 " fill="none" id="SystemMemberRole-SystemStatus" style="stroke: #A80036; stroke-width: 1.0;"/><polygon fill="#A80036" points="206.381,591.843,198.6342,585.7613,201.5332,590.6189,196.6756,593.5179,206.381,591.843" style="stroke: #A80036; stroke-width: 1.0;"/><text fill="#000000" font-family="sans-serif" font-size="13" lengthAdjust="spacingAndGlyphs" textLength="95" x="15.6139" y="467.0669">MemberStatus</text><text fill="#000000" font-family="sans-serif" font-size="13" lengthAdjust="spacingAndGlyphs" textLength="7" x="191.5638" y="585.4139">*</text><!--link SystemMemberRole to RiskManagementLimit--><path d="M163.376,313.641 C138.591,326.596 111.673,345.73 97.6139,372 C86.7088,392.376 87.1416,403.398 97.6139,424 C116.277,460.716 157.976,485.885 187.412,499.852 " fill="none" id="SystemMemberRole-RiskManagementLimit" style="stroke: #A80036; stroke-width: 1.0;"/><polygon fill="#A80036" points="192.025,501.998,185.5518,494.5752,187.4915,499.8891,182.1776,501.8288,192.025,501.998" style="stroke: #A80036; stroke-width: 1.0;"/><text fill="#000000" font-family="sans-serif" font-size="13" lengthAdjust="spacingAndGlyphs" textLength="31" x="98.6139" y="414.0669">Limit</text><text fill="#000000" font-family="sans-serif" font-size="13" lengthAdjust="spacingAndGlyphs" textLength="8" x="171.7366" y="491.0455">1</text><!--link SystemMemberRole to Account--><path d="M205.812,313.584 C200.885,323.277 195.431,334.989 191.614,346 C186.283,361.377 182.495,379.585 180.215,392.463 " fill="none" id="SystemMemberRole-Account" style="stroke: #A80036; stroke-width: 1.0;"/><polygon fill="#A80036" points="179.329,397.631,184.7893,389.4343,180.1721,392.7026,176.9038,388.0854,179.329,397.631" style="stroke: #A80036; stroke-width: 1.0;"/><text fill="#000000" font-family="sans-serif" font-size="13" lengthAdjust="spacingAndGlyphs" textLength="52" x="192.614" y="359.0669">Account</text><text fill="#000000" font-family="sans-serif" font-size="13" lengthAdjust="spacingAndGlyphs" textLength="8" x="169.158" y="386.8122">1</text><!--link Entry to Account--><path d="M580.701,190.193 C565.118,204.896 537.041,231.595 513.614,255 C477.368,291.211 476.273,309.623 433.614,338 C363.444,384.677 263.021,400.893 211.282,406.352 " fill="none" id="Entry-Account" style="stroke: #A80036; stroke-width: 1.0;"/><polygon fill="#A80036" points="206.126,406.877,215.4853,409.9435,211.1002,406.3699,214.6739,401.9848,206.126,406.877" style="stroke: #A80036; stroke-width: 1.0;"/><text fill="#000000" font-family="sans-serif" font-size="13" lengthAdjust="spacingAndGlyphs" textLength="52" x="514.614" y="295.0669">Account</text><text fill="#000000" font-family="sans-serif" font-size="13" lengthAdjust="spacingAndGlyphs" textLength="7" x="214.265" y="399.9865">*</text><!--link System to SystemStatus--><path d="M389.956,303.148 C383.987,340.612 360.997,464.424 306.614,550 C297.62,564.152 283.831,577.085 272.439,586.387 " fill="none" id="System-SystemStatus" style="stroke: #A80036; stroke-width: 1.0;"/><polygon fill="#A80036" points="268.363,589.645,277.8908,587.1509,272.2689,586.5234,272.8963,580.9015,268.363,589.645" style="stroke: #A80036; stroke-width: 1.0;"/><text fill="#000000" font-family="sans-serif" font-size="13" lengthAdjust="spacingAndGlyphs" textLength="42" x="353.614" y="467.0669">Status</text><text fill="#000000" font-family="sans-serif" font-size="13" lengthAdjust="spacingAndGlyphs" textLength="8" x="262.9236" y="578.8308">1</text><!--link System to Account--><path d="M377.622,303.37 C364.711,313.458 344.705,328.092 325.614,338 C316.379,342.793 313.171,341.889 303.614,346 C267.87,361.375 227.889,381.972 202.742,395.362 " fill="none" id="System-Account" style="stroke: #A80036; stroke-width: 1.0;"/><polygon fill="#A80036" points="198.224,397.776,208.0472,397.065,202.6345,395.4208,204.2788,390.0081,198.224,397.776" style="stroke: #A80036; stroke-width: 1.0;"/><text fill="#000000" font-family="sans-serif" font-size="13" lengthAdjust="spacingAndGlyphs" textLength="52" x="304.614" y="359.0669">Account</text><text fill="#000000" font-family="sans-serif" font-size="13" lengthAdjust="spacingAndGlyphs" textLength="8" x="194.312" y="387.0052">1</text><!--link Account to Account--><path d="M206.122,400.938 C223.795,398.753 240.614,401.773 240.614,410 C240.614,417.391 227.038,420.58 211.463,419.567 " fill="none" id="Account-Account" style="stroke: #A80036; stroke-width: 1.0;"/><polygon fill="#A80036" points="206.122,419.062,214.7062,423.8902,211.0999,419.5319,215.4581,415.9256,206.122,419.062" style="stroke: #A80036; stroke-width: 1.0;"/><text fill="#000000" font-family="sans-serif" font-size="13" lengthAdjust="spacingAndGlyphs" textLength="94" x="246.614" y="414.0669">ParentAccount</text><text fill="#000000" font-family="sans-serif" font-size="13" lengthAdjust="spacingAndGlyphs" textLength="8" x="214.3881" y="435.3939">1</text></g></svg>