<?xml version="1.0" encoding="UTF-8" standalone="no"?><svg xmlns="http://www.w3.org/2000/svg" xmlns:xlink="http://www.w3.org/1999/xlink" contentScriptType="application/ecmascript" contentStyleType="text/css" height="480px" preserveAspectRatio="none" style="width:1365px;height:480px;" version="1.1" viewBox="0 0 1365 480" width="1365px" zoomAndPan="magnify"><defs><filter height="300%" id="f1aqy3mqenkyii" width="300%" x="-1" y="-1"><feGaussianBlur result="blurOut" stdDeviation="2.0"/><feColorMatrix in="blurOut" result="blurOut2" type="matrix" values="0 0 0 0 0 0 0 0 0 0 0 0 0 0 0 0 0 0 .4 0"/><feOffset dx="4.0" dy="4.0" in="blurOut2" result="blurOut3"/><feBlend in="SourceGraphic" in2="blurOut3" mode="normal"/></filter></defs><g><!--cluster ##8314--><!--cluster ##8332--><!--cluster ##8341--><!--class Role--><a target="_top" xlink:actuate="onRequest" xlink:href="../Role.html" xlink:show="new" xlink:title="Role of a party in an activity." xlink:type="simple"><rect fill="#FEFEEE" filter="url(#f1aqy3mqenkyii)" height="44.7734" id="Role" style="stroke: #A80036; stroke-width: 1.5;" width="175" x="677.75" y="40.5"/><rect fill="#FEFEEE" height="23.9688" style="stroke: #A80036; stroke-width: 1.5;" width="175" x="677.75" y="40.5"/><text fill="#000000" font-family="sans-serif" font-size="12" lengthAdjust="spacingAndGlyphs" textLength="27" x="751.75" y="56.6387">Role</text><line style="stroke: #A80036; stroke-width: 1.5;" x1="678.75" x2="851.75" y1="64.4688" y2="64.4688"/><ellipse cx="688.75" cy="76.3711" fill="#84BE84" rx="3" ry="3" style="stroke: #038048; stroke-width: 1.0;"/><text fill="#000000" font-family="sans-serif" font-size="11" lengthAdjust="spacingAndGlyphs" textLength="53" x="697.75" y="78.6792">PartyRole</text><text fill="#000000" font-family="sans-serif" font-size="11" font-style="italic" lengthAdjust="spacingAndGlyphs" textLength="92" x="754.75" y="78.6792">(PartyRoleCode)</text></a><!--class SystemPartyRole--><a target="_top" xlink:actuate="onRequest" xlink:href="../SystemPartyRole.html" xlink:show="new" xlink:title="Role played by a party in a system." xlink:type="simple"><rect fill="#FEFECE" filter="url(#f1aqy3mqenkyii)" height="23.9688" id="SystemPartyRole" style="stroke: #A80036; stroke-width: 1.5;" width="110" x="461" y="166"/><rect fill="#FEFECE" height="23.9688" style="stroke: #A80036; stroke-width: 1.5;" width="110" x="461" y="166"/><text fill="#000000" font-family="sans-serif" font-size="12" lengthAdjust="spacingAndGlyphs" textLength="104" x="464" y="182.1387">SystemPartyRole</text></a><!--class SystemMemberRole--><a target="_top" xlink:actuate="onRequest" xlink:href="../SystemMemberRole.html" xlink:show="new" xlink:title="Information about the members of a system." xlink:type="simple"><rect fill="#FEFEEE" filter="url(#f1aqy3mqenkyii)" height="23.9688" id="SystemMemberRole" style="stroke: #A80036; stroke-width: 1.5;" width="128" x="38" y="270"/><rect fill="#FEFEEE" height="23.9688" style="stroke: #A80036; stroke-width: 1.5;" width="128" x="38" y="270"/><text fill="#000000" font-family="sans-serif" font-size="12" lengthAdjust="spacingAndGlyphs" textLength="122" x="41" y="286.1387">SystemMemberRole</text></a><!--class TransactionAdministrator--><a target="_top" xlink:actuate="onRequest" xlink:href="../TransactionAdministrator.html" xlink:show="new" xlink:title="Set of integrated applications that provides centralised services such as clearing and settlement." xlink:type="simple"><rect fill="#FEFEEE" filter="url(#f1aqy3mqenkyii)" height="23.9688" id="TransactionAdministrator" style="stroke: #A80036; stroke-width: 1.5;" width="164" x="201" y="270"/><rect fill="#FEFEEE" height="23.9688" style="stroke: #A80036; stroke-width: 1.5;" width="164" x="201" y="270"/><text fill="#000000" font-family="sans-serif" font-size="12" lengthAdjust="spacingAndGlyphs" textLength="158" x="204" y="286.1387">TransactionAdministrator</text></a><!--class TerminalManagerRole--><a target="_top" xlink:actuate="onRequest" xlink:href="../TerminalManagerRole.html" xlink:show="new" xlink:title="Identifies the party which is the terminal manager (TM) to contact for the maintenance." xlink:type="simple"><rect fill="#FEFEEE" filter="url(#f1aqy3mqenkyii)" height="23.9688" id="TerminalManagerRole" style="stroke: #A80036; stroke-width: 1.5;" width="141" x="400.75" y="270"/><rect fill="#FEFEEE" height="23.9688" style="stroke: #A80036; stroke-width: 1.5;" width="141" x="400.75" y="270"/><text fill="#000000" font-family="sans-serif" font-size="12" lengthAdjust="spacingAndGlyphs" textLength="135" x="403.75" y="286.1387">TerminalManagerRole</text></a><!--class ClearingMemberRole--><a target="_top" xlink:actuate="onRequest" xlink:href="../ClearingMemberRole.html" xlink:show="new" xlink:title="Member of an exchange's clearing corporation, responsible for executing client trades and involved in the clearing of trades." xlink:type="simple"><rect fill="#FEFEEE" filter="url(#f1aqy3mqenkyii)" height="23.9688" id="ClearingMemberRole" style="stroke: #A80036; stroke-width: 1.5;" width="134" x="577" y="270"/><rect fill="#FEFEEE" height="23.9688" style="stroke: #A80036; stroke-width: 1.5;" width="134" x="577" y="270"/><text fill="#000000" font-family="sans-serif" font-size="12" lengthAdjust="spacingAndGlyphs" textLength="128" x="580" y="286.1387">ClearingMemberRole</text></a><!--class RolePlayer--><a target="_top" xlink:actuate="onRequest" xlink:href="../RolePlayer.html" xlink:show="new" xlink:title="Type of entity that plays a specific role in a specific context." xlink:type="simple"><rect fill="#EEEEEE" filter="url(#f1aqy3mqenkyii)" height="23.9688" id="RolePlayer" style="stroke: #A80036; stroke-width: 1.5;" width="71" x="1174.75" y="446"/><rect fill="#EEEEEE" height="23.9688" style="stroke: #A80036; stroke-width: 1.5;" width="71" x="1174.75" y="446"/><text fill="#000000" font-family="sans-serif" font-size="12" lengthAdjust="spacingAndGlyphs" textLength="65" x="1177.75" y="462.1387">RolePlayer</text></a><!--class ContactPersonRole--><a target="_top" xlink:actuate="onRequest" xlink:href="../ContactPersonRole.html" xlink:show="new" xlink:title="Person to be contacted in a given organisation. In the corporate action domain (including meeting notifications) , it is the contact person at the party organising the meeting, at the issuer or at an intermediary." xlink:type="simple"><rect fill="#EEEEEE" filter="url(#f1aqy3mqenkyii)" height="23.9688" id="ContactPersonRole" style="stroke: #A80036; stroke-width: 1.5;" width="126" x="1167" y="360"/><rect fill="#EEEEEE" height="23.9688" style="stroke: #A80036; stroke-width: 1.5;" width="126" x="1167" y="360"/><text fill="#000000" font-family="sans-serif" font-size="12" lengthAdjust="spacingAndGlyphs" textLength="120" x="1170" y="376.1387">ContactPersonRole</text></a><!--class CounterpartyRisk--><a target="_top" xlink:actuate="onRequest" xlink:href="../CounterpartyRisk.html" xlink:show="new" xlink:title="Calculation of the exposure amount that one party has vis-a-vis one counterparty or a central system, based on its credit risk." xlink:type="simple"><rect fill="#EEEEEE" filter="url(#f1aqy3mqenkyii)" height="23.9688" id="CounterpartyRisk" style="stroke: #A80036; stroke-width: 1.5;" width="113" x="1179.75" y="270"/><rect fill="#EEEEEE" height="23.9688" style="stroke: #A80036; stroke-width: 1.5;" width="113" x="1179.75" y="270"/><text fill="#000000" font-family="sans-serif" font-size="12" lengthAdjust="spacingAndGlyphs" textLength="107" x="1182.75" y="286.1387">CounterpartyRisk</text></a><!--class Entry--><a target="_top" xlink:actuate="onRequest" xlink:href="../Entry.html" xlink:show="new" xlink:title="Posting to an account that results in an increase or decrease to a balance." xlink:type="simple"><rect fill="#EEEEEE" filter="url(#f1aqy3mqenkyii)" height="23.9688" id="Entry" style="stroke: #A80036; stroke-width: 1.5;" width="38" x="1167" y="166"/><rect fill="#EEEEEE" height="23.9688" style="stroke: #A80036; stroke-width: 1.5;" width="38" x="1167" y="166"/><text fill="#000000" font-family="sans-serif" font-size="12" lengthAdjust="spacingAndGlyphs" textLength="32" x="1170" y="182.1387">Entry</text></a><!--class System--><a target="_top" xlink:actuate="onRequest" xlink:href="../System.html" xlink:show="new" xlink:title="Set of integrated applications that provides centralised services such as clearing, netting, reconciliation, trading and/or settlement." xlink:type="simple"><rect fill="#EEEEEE" filter="url(#f1aqy3mqenkyii)" height="23.9688" id="System" style="stroke: #A80036; stroke-width: 1.5;" width="51" x="909.75" y="270"/><rect fill="#EEEEEE" height="23.9688" style="stroke: #A80036; stroke-width: 1.5;" width="51" x="909.75" y="270"/><text fill="#000000" font-family="sans-serif" font-size="12" lengthAdjust="spacingAndGlyphs" textLength="45" x="912.75" y="286.1387">System</text></a><!--link Role to SystemPartyRole--><path d="M699.265,93.832 C647.103,117.503 577.084,149.279 540.537,165.865 " fill="none" id="Role-SystemPartyRole" style="stroke: #A80036; stroke-width: 1.0;"/><polygon fill="none" points="696.474,87.411,717.579,85.52,702.259,100.16,696.474,87.411" style="stroke: #A80036; stroke-width: 1.0;"/><!--link SystemPartyRole to SystemMemberRole--><path d="M440.894,189.506 C372.656,200.131 269.708,218.873 183,246 C162.532,252.404 140.226,262.271 124.213,269.898 " fill="none" id="SystemPartyRole-SystemMemberRole" style="stroke: #A80036; stroke-width: 1.0;"/><polygon fill="none" points="440.077,182.55,460.901,186.469,442.178,196.392,440.077,182.55" style="stroke: #A80036; stroke-width: 1.0;"/><!--link SystemPartyRole to TransactionAdministrator--><path d="M472.082,198.226 C423.724,219.395 347.632,252.706 308.347,269.904 " fill="none" id="SystemPartyRole-TransactionAdministrator" style="stroke: #A80036; stroke-width: 1.0;"/><polygon fill="none" points="469.493,191.718,490.621,190.11,475.107,204.543,469.493,191.718" style="stroke: #A80036; stroke-width: 1.0;"/><!--link SystemPartyRole to TerminalManagerRole--><path d="M502.923,208.642 C493.857,229.191 482.301,255.385 475.873,269.954 " fill="none" id="SystemPartyRole-TerminalManagerRole" style="stroke: #A80036; stroke-width: 1.0;"/><polygon fill="none" points="496.535,205.778,511.012,190.306,509.344,211.429,496.535,205.778" style="stroke: #A80036; stroke-width: 1.0;"/><!--link SystemPartyRole to ClearingMemberRole--><path d="M546.114,202.997 C572.659,224.15 610.133,254.012 630.138,269.954 " fill="none" id="SystemPartyRole-ClearingMemberRole" style="stroke: #A80036; stroke-width: 1.0;"/><polygon fill="none" points="541.466,208.244,530.187,190.306,550.191,197.295,541.466,208.244" style="stroke: #A80036; stroke-width: 1.0;"/><!--link ContactPersonRole to RolePlayer--><!--link CounterpartyRisk to ContactPersonRole--><!--link Entry to CounterpartyRisk--><!--link Role to RolePlayer--><path d="M852.467,66.182 C929.996,73.338 1031,97.849 1031,177 C1031,177 1031,177 1031,373 C1031,433.8572 1116.84,450.7099 1169.63,455.3199 " fill="none" id="Role-RolePlayer" style="stroke: #A80036; stroke-width: 1.0;"/><polygon fill="#A80036" points="1174.64,455.7288,1165.9889,451.0215,1169.656,455.3288,1165.3488,458.9959,1174.64,455.7288" style="stroke: #A80036; stroke-width: 1.0;"/><text fill="#000000" font-family="sans-serif" font-size="13" lengthAdjust="spacingAndGlyphs" textLength="39" x="1032" y="286.0669">Player</text><text fill="#000000" font-family="sans-serif" font-size="13" lengthAdjust="spacingAndGlyphs" textLength="7" x="1159.7461" y="449.9585">*</text><!--link Role to ContactPersonRole--><path d="M852.433,70.328 C926.745,77.339 1026.15,91.099 1057,116 C1102.6,152.803 1079.43,186.293 1107,238 C1127.65,276.722 1131.8,288.163 1162,320 C1175.62,334.359 1193.64,347.672 1207.7,357.092 " fill="none" id="Role-ContactPersonRole" style="stroke: #A80036; stroke-width: 1.0;"/><polygon fill="#A80036" points="1211.93,359.888,1206.6274,351.5884,1207.7588,357.131,1202.2162,358.2624,1211.93,359.888" style="stroke: #A80036; stroke-width: 1.0;"/><text fill="#000000" font-family="sans-serif" font-size="13" lengthAdjust="spacingAndGlyphs" textLength="121" x="1108" y="233.0669">ContactPersonRole</text><text fill="#000000" font-family="sans-serif" font-size="13" lengthAdjust="spacingAndGlyphs" textLength="8" x="1194.9997" y="348.8977">1</text><!--link Role to CounterpartyRisk--><path d="M852.572,66.183 C963.213,70.329 1146.18,82.217 1204,116 C1235.06,134.148 1249.88,219.265 1250,220 C1252.59,235.376 1247.87,252.681 1243.23,264.921 " fill="none" id="Role-CounterpartyRisk" style="stroke: #A80036; stroke-width: 1.0;"/><polygon fill="#A80036" points="1241.27,269.837,1248.3228,262.9625,1243.1245,265.1936,1240.8934,259.9953,1241.27,269.837" style="stroke: #A80036; stroke-width: 1.0;"/><text fill="#000000" font-family="sans-serif" font-size="13" lengthAdjust="spacingAndGlyphs" textLength="109" x="1244" y="182.0669">CounterpartyRisk</text><text fill="#000000" font-family="sans-serif" font-size="13" lengthAdjust="spacingAndGlyphs" textLength="24" x="1213.5269" y="258.8292">0..1</text><!--link Role to Entry--><path d="M852.301,68.404 C947.517,74.539 1092.68,88.197 1140,116 C1157.88,126.504 1171.07,146.927 1178.64,161.237 " fill="none" id="Role-Entry" style="stroke: #A80036; stroke-width: 1.0;"/><polygon fill="#A80036" points="1180.99,165.832,1180.4471,155.9981,1178.7105,161.3818,1173.3268,159.6453,1180.99,165.832" style="stroke: #A80036; stroke-width: 1.0;"/><text fill="#000000" font-family="sans-serif" font-size="13" lengthAdjust="spacingAndGlyphs" textLength="33" x="1161" y="129.0669">Entry</text><text fill="#000000" font-family="sans-serif" font-size="13" lengthAdjust="spacingAndGlyphs" textLength="8" x="1168.5491" y="154.8225">1</text><!--link SystemPartyRole to System--><path d="M571.148,184.29 C641.765,192.226 767.176,210.258 869,246 C884.477,251.433 900.77,260.04 913.295,267.359 " fill="none" id="SystemPartyRole-System" style="stroke: #A80036; stroke-width: 1.0;"/><polygon fill="#A80036" points="917.731,269.989,912.029,261.9586,913.43,267.4392,907.9494,268.8403,917.731,269.989" style="stroke: #A80036; stroke-width: 1.0;"/><text fill="#000000" font-family="sans-serif" font-size="13" lengthAdjust="spacingAndGlyphs" textLength="97" x="843" y="233.0669">RelatedSystem</text><text fill="#000000" font-family="sans-serif" font-size="13" lengthAdjust="spacingAndGlyphs" textLength="23" x="883.412" y="259.0334">1..*</text><!--link ClearingMemberRole to ClearingMemberRole--><path d="M711.196,273.401 C730.809,273.698 746,276.564 746,282 C746,286.926 733.523,289.742 716.587,290.448 " fill="none" id="ClearingMemberRole-ClearingMemberRole" style="stroke: #A80036; stroke-width: 1.0;"/><polygon fill="#A80036" points="711.196,290.599,720.3045,294.3455,716.194,290.459,720.0805,286.3486,711.196,290.599" style="stroke: #A80036; stroke-width: 1.0;"/><text fill="#000000" font-family="sans-serif" font-size="13" lengthAdjust="spacingAndGlyphs" textLength="111" x="752" y="286.0669">ClearingSegment</text><text fill="#000000" font-family="sans-serif" font-size="13" lengthAdjust="spacingAndGlyphs" textLength="8" x="718.9831" y="286.6857">1</text></g></svg>