<?xml version="1.0" encoding="UTF-8" standalone="no"?><svg xmlns="http://www.w3.org/2000/svg" xmlns:xlink="http://www.w3.org/1999/xlink" contentScriptType="application/ecmascript" contentStyleType="text/css" height="390px" preserveAspectRatio="none" style="width:529px;height:390px;" version="1.1" viewBox="0 0 529 390" width="529px" zoomAndPan="magnify"><defs><filter height="300%" id="f1np2b35p32dbr" width="300%" x="-1" y="-1"><feGaussianBlur result="blurOut" stdDeviation="2.0"/><feColorMatrix in="blurOut" result="blurOut2" type="matrix" values="0 0 0 0 0 0 0 0 0 0 0 0 0 0 0 0 0 0 .4 0"/><feOffset dx="4.0" dy="4.0" in="blurOut2" result="blurOut3"/><feBlend in="SourceGraphic" in2="blurOut3" mode="normal"/></filter></defs><g><!--cluster ##2893--><!--cluster ##2896--><!--class SystemAvailability--><a target="_top" xlink:actuate="onRequest" xlink:href="../SystemAvailability.html" xlink:show="new" xlink:title="information about the periods of activity and non-activity of a system." xlink:type="simple"><rect fill="#FEFECE" filter="url(#f1np2b35p32dbr)" height="44.7734" id="SystemAvailability" style="stroke: #A80036; stroke-width: 1.5;" width="115" x="185.408" y="40.5"/><rect fill="#FEFECE" height="23.9688" style="stroke: #A80036; stroke-width: 1.5;" width="115" x="185.408" y="40.5"/><text fill="#000000" font-family="sans-serif" font-size="12" lengthAdjust="spacingAndGlyphs" textLength="109" x="188.408" y="56.6387">SystemAvailability</text><line style="stroke: #A80036; stroke-width: 1.5;" x1="186.408" x2="299.408" y1="64.4688" y2="64.4688"/><ellipse cx="196.408" cy="76.3711" fill="#84BE84" rx="3" ry="3" style="stroke: #038048; stroke-width: 1.0;"/><text fill="#000000" font-family="sans-serif" font-size="11" lengthAdjust="spacingAndGlyphs" textLength="26" x="205.408" y="78.6792">Date</text><text fill="#000000" font-family="sans-serif" font-size="11" font-style="italic" lengthAdjust="spacingAndGlyphs" textLength="53" x="235.408" y="78.6792">(ISODate)</text></a><!--class TimePeriod--><a target="_top" xlink:actuate="onRequest" xlink:href="../TimePeriod.html" xlink:show="new" xlink:title="Particular time span specified between a start time and an end time. The time period cannot exceed 24 hours." xlink:type="simple"><rect fill="#EEEEEE" filter="url(#f1np2b35p32dbr)" height="23.9688" id="TimePeriod" style="stroke: #A80036; stroke-width: 1.5;" width="75" x="59.4082" y="270"/><rect fill="#EEEEEE" height="23.9688" style="stroke: #A80036; stroke-width: 1.5;" width="75" x="59.4082" y="270"/><text fill="#000000" font-family="sans-serif" font-size="12" lengthAdjust="spacingAndGlyphs" textLength="69" x="62.4082" y="286.1387">TimePeriod</text></a><!--class System--><a target="_top" xlink:actuate="onRequest" xlink:href="../System.html" xlink:show="new" xlink:title="Set of integrated applications that provides centralised services such as clearing, netting, reconciliation, trading and/or settlement." xlink:type="simple"><rect fill="#EEEEEE" filter="url(#f1np2b35p32dbr)" height="23.9688" id="System" style="stroke: #A80036; stroke-width: 1.5;" width="51" x="182.408" y="168"/><rect fill="#EEEEEE" height="23.9688" style="stroke: #A80036; stroke-width: 1.5;" width="51" x="182.408" y="168"/><text fill="#000000" font-family="sans-serif" font-size="12" lengthAdjust="spacingAndGlyphs" textLength="45" x="185.408" y="184.1387">System</text></a><!--class SystemClosureInformation--><a target="_top" xlink:actuate="onRequest" xlink:href="../SystemClosureInformation.html" xlink:show="new" xlink:title="Information about inactivity of a system." xlink:type="simple"><rect fill="#EEEEEE" filter="url(#f1np2b35p32dbr)" height="23.9688" id="SystemClosureInformation" style="stroke: #A80036; stroke-width: 1.5;" width="169" x="144.408" y="356"/><rect fill="#EEEEEE" height="23.9688" style="stroke: #A80036; stroke-width: 1.5;" width="169" x="144.408" y="356"/><text fill="#000000" font-family="sans-serif" font-size="12" lengthAdjust="spacingAndGlyphs" textLength="163" x="147.408" y="372.1387">SystemClosureInformation</text></a><!--class DateTimePeriod--><a target="_top" xlink:actuate="onRequest" xlink:href="../DateTimePeriod.html" xlink:show="new" xlink:title="Time span defined by a start date and time, and an end date and time." xlink:type="simple"><rect fill="#EEEEEE" filter="url(#f1np2b35p32dbr)" height="23.9688" id="DateTimePeriod" style="stroke: #A80036; stroke-width: 1.5;" width="105" x="207.408" y="270"/><rect fill="#EEEEEE" height="23.9688" style="stroke: #A80036; stroke-width: 1.5;" width="105" x="207.408" y="270"/><text fill="#000000" font-family="sans-serif" font-size="12" lengthAdjust="spacingAndGlyphs" textLength="99" x="210.408" y="286.1387">DateTimePeriod</text></a><!--link System to TimePeriod--><!--link SystemClosureInformation to System--><!--link DateTimePeriod to SystemClosureInformation--><!--link SystemAvailability to TimePeriod--><path d="M185.366,66.369 C131.348,72.015 53.1106,89.757 14.6582,144 C-15.7191,186.852 43.8023,241.328 76.7795,266.741 " fill="none" id="SystemAvailability-TimePeriod" style="stroke: #A80036; stroke-width: 1.0;"/><polygon fill="#A80036" points="81.0502,269.985,76.3027,261.3559,77.0685,266.9607,71.4638,267.7266,81.0502,269.985" style="stroke: #A80036; stroke-width: 1.0;"/><text fill="#000000" font-family="sans-serif" font-size="13" lengthAdjust="spacingAndGlyphs" textLength="147" x="15.6582" y="184.0669">AvailableSessionPeriod</text><text fill="#000000" font-family="sans-serif" font-size="13" lengthAdjust="spacingAndGlyphs" textLength="8" x="64.8803" y="259.0281">1</text><!--link SystemAvailability to System--><path d="M236.075,85.631 C229.211,108.183 218.617,142.994 212.489,163.128 " fill="none" id="SystemAvailability-System" style="stroke: #A80036; stroke-width: 1.0;"/><polygon fill="#A80036" points="211.032,167.915,217.4792,160.4697,212.4879,163.1316,209.8259,158.1403,211.032,167.915" style="stroke: #A80036; stroke-width: 1.0;"/><text fill="#000000" font-family="sans-serif" font-size="13" lengthAdjust="spacingAndGlyphs" textLength="49" x="227.658" y="131.0669">System</text><text fill="#000000" font-family="sans-serif" font-size="13" lengthAdjust="spacingAndGlyphs" textLength="24" x="182.6371" y="156.934">0..1</text><!--link SystemAvailability to SystemClosureInformation--><path d="M300.087,75.047 C338.318,85.706 385.759,106.052 409.658,144 C421.027,162.052 416.623,171.835 409.658,192 C382.743,269.93 297.225,328.0281 254.076,353.2102 " fill="none" id="SystemAvailability-SystemClosureInformation" style="stroke: #A80036; stroke-width: 1.0;"/><polygon fill="#A80036" points="249.533,355.8312,259.3273,354.7962,253.8633,353.3316,255.3279,347.8676,249.533,355.8312" style="stroke: #A80036; stroke-width: 1.0;"/><text fill="#000000" font-family="sans-serif" font-size="13" lengthAdjust="spacingAndGlyphs" textLength="121" x="396.658" y="235.0669">ClosureInformation</text><text fill="#000000" font-family="sans-serif" font-size="13" lengthAdjust="spacingAndGlyphs" textLength="8" x="245.9041" y="344.8214">1</text><!--link SystemAvailability to DateTimePeriod--><path d="M263.855,85.594 C272.003,94.918 280.757,106.349 286.658,118 C308.237,160.601 307.609,174.63 313.658,222 C314.671,229.936 317.215,232.834 313.658,240 C307.98,251.44 297.415,260.548 287.126,267.245 " fill="none" id="SystemAvailability-DateTimePeriod" style="stroke: #A80036; stroke-width: 1.0;"/><polygon fill="#A80036" points="282.748,269.968,292.5028,268.6101,286.9934,267.3267,288.2768,261.8174,282.748,269.968" style="stroke: #A80036; stroke-width: 1.0;"/><text fill="#000000" font-family="sans-serif" font-size="13" lengthAdjust="spacingAndGlyphs" textLength="88" x="311.658" y="184.0669">ClosurePeriod</text><text fill="#000000" font-family="sans-serif" font-size="13" lengthAdjust="spacingAndGlyphs" textLength="8" x="279.8805" y="259.0052">1</text><!--link System to DateTimePeriod--><path d="M193.041,192.211 C179.293,204.17 162.261,223.606 172.658,240 C180.853,252.922 194.33,261.846 208.256,267.979 " fill="none" id="System-DateTimePeriod" style="stroke: #A80036; stroke-width: 1.0;"/><polygon fill="#A80036" points="212.989,269.954,206.2239,262.7963,208.3747,268.0283,203.1427,270.1791,212.989,269.954" style="stroke: #A80036; stroke-width: 1.0;"/><text fill="#000000" font-family="sans-serif" font-size="13" lengthAdjust="spacingAndGlyphs" textLength="134" x="173.658" y="235.0669">VersionValidityPeriod</text><text fill="#000000" font-family="sans-serif" font-size="13" lengthAdjust="spacingAndGlyphs" textLength="8" x="191.3337" y="261.0328">1</text></g></svg>