<?xml version="1.0" encoding="UTF-8" standalone="no"?><svg xmlns="http://www.w3.org/2000/svg" xmlns:xlink="http://www.w3.org/1999/xlink" contentScriptType="application/ecmascript" contentStyleType="text/css" height="1306px" preserveAspectRatio="none" style="width:1968px;height:1306px;" version="1.1" viewBox="0 0 1968 1306" width="1968px" zoomAndPan="magnify"><defs><filter height="300%" id="flnpw7x3zt7xr" width="300%" x="-1" y="-1"><feGaussianBlur result="blurOut" stdDeviation="2.0"/><feColorMatrix in="blurOut" result="blurOut2" type="matrix" values="0 0 0 0 0 0 0 0 0 0 0 0 0 0 0 0 0 0 .4 0"/><feOffset dx="4.0" dy="4.0" in="blurOut2" result="blurOut3"/><feBlend in="SourceGraphic" in2="blurOut3" mode="normal"/></filter></defs><g><!--cluster ##2345--><!--cluster ##2351--><!--class Tax--><a target="_top" xlink:actuate="onRequest" xlink:href="../Tax.html" xlink:show="new" xlink:title="Amount of money due to the government or tax authority, according to various pre-defined parameters such as thresholds or income." xlink:type="simple"><rect fill="#FEFECE" filter="url(#flnpw7x3zt7xr)" height="262.4531" id="Tax" style="stroke: #A80036; stroke-width: 1.5;" width="352" x="1150.5" y="40"/><rect fill="#FEFECE" height="23.9688" style="stroke: #A80036; stroke-width: 1.5;" width="352" x="1150.5" y="40"/><text fill="#000000" font-family="sans-serif" font-size="12" lengthAdjust="spacingAndGlyphs" textLength="21" x="1316" y="56.1387">Tax</text><line style="stroke: #A80036; stroke-width: 1.5;" x1="1151.5" x2="1501.5" y1="63.9688" y2="63.9688"/><ellipse cx="1161.5" cy="75.8711" fill="#84BE84" rx="3" ry="3" style="stroke: #038048; stroke-width: 1.0;"/><text fill="#000000" font-family="sans-serif" font-size="11" lengthAdjust="spacingAndGlyphs" textLength="101" x="1170.5" y="78.1792">ExemptionReason</text><text fill="#000000" font-family="sans-serif" font-size="11" font-style="italic" lengthAdjust="spacingAndGlyphs" textLength="143" x="1275.5" y="78.1792">(TaxExemptReasonCode)</text><ellipse cx="1161.5" cy="88.6758" fill="#84BE84" rx="3" ry="3" style="stroke: #038048; stroke-width: 1.0;"/><text fill="#000000" font-family="sans-serif" font-size="11" lengthAdjust="spacingAndGlyphs" textLength="27" x="1170.5" y="90.9839">Type</text><text fill="#000000" font-family="sans-serif" font-size="11" font-style="italic" lengthAdjust="spacingAndGlyphs" textLength="86" x="1201.5" y="90.9839">(TaxTypeCode)</text><ellipse cx="1161.5" cy="101.4805" fill="#84BE84" rx="3" ry="3" style="stroke: #038048; stroke-width: 1.0;"/><text fill="#000000" font-family="sans-serif" font-size="11" lengthAdjust="spacingAndGlyphs" textLength="43" x="1170.5" y="103.7886">Amount</text><text fill="#000000" font-family="sans-serif" font-size="11" font-style="italic" lengthAdjust="spacingAndGlyphs" textLength="126" x="1217.5" y="103.7886">(CurrencyAndAmount)</text><ellipse cx="1161.5" cy="114.2852" fill="#84BE84" rx="3" ry="3" style="stroke: #038048; stroke-width: 1.0;"/><text fill="#000000" font-family="sans-serif" font-size="11" lengthAdjust="spacingAndGlyphs" textLength="25" x="1170.5" y="116.5933">Rate</text><text fill="#000000" font-family="sans-serif" font-size="11" font-style="italic" lengthAdjust="spacingAndGlyphs" textLength="98" x="1199.5" y="116.5933">(PercentageRate)</text><ellipse cx="1161.5" cy="127.0898" fill="#84BE84" rx="3" ry="3" style="stroke: #038048; stroke-width: 1.0;"/><text fill="#000000" font-family="sans-serif" font-size="11" lengthAdjust="spacingAndGlyphs" textLength="32" x="1170.5" y="129.3979">Basis</text><text fill="#000000" font-family="sans-serif" font-size="11" font-style="italic" lengthAdjust="spacingAndGlyphs" textLength="116" x="1206.5" y="129.3979">(TaxationBasisCode)</text><ellipse cx="1161.5" cy="139.8945" fill="#84BE84" rx="3" ry="3" style="stroke: #038048; stroke-width: 1.0;"/><text fill="#000000" font-family="sans-serif" font-size="11" lengthAdjust="spacingAndGlyphs" textLength="72" x="1170.5" y="142.2026">TaxRateType</text><text fill="#000000" font-family="sans-serif" font-size="11" font-style="italic" lengthAdjust="spacingAndGlyphs" textLength="91" x="1246.5" y="142.2026">(RateTypeCode)</text><ellipse cx="1161.5" cy="152.6992" fill="#84BE84" rx="3" ry="3" style="stroke: #038048; stroke-width: 1.0;"/><text fill="#000000" font-family="sans-serif" font-size="11" lengthAdjust="spacingAndGlyphs" textLength="108" x="1170.5" y="155.0073">TaxationConditions</text><text fill="#000000" font-family="sans-serif" font-size="11" font-style="italic" lengthAdjust="spacingAndGlyphs" textLength="77" x="1282.5" y="155.0073">(Max350Text)</text><ellipse cx="1161.5" cy="165.5039" fill="#84BE84" rx="3" ry="3" style="stroke: #038048; stroke-width: 1.0;"/><text fill="#000000" font-family="sans-serif" font-size="11" lengthAdjust="spacingAndGlyphs" textLength="72" x="1170.5" y="167.812">Identification</text><text fill="#000000" font-family="sans-serif" font-size="11" font-style="italic" lengthAdjust="spacingAndGlyphs" textLength="70" x="1246.5" y="167.812">(Max35Text)</text><ellipse cx="1161.5" cy="178.3086" fill="#84BE84" rx="3" ry="3" style="stroke: #038048; stroke-width: 1.0;"/><text fill="#000000" font-family="sans-serif" font-size="11" lengthAdjust="spacingAndGlyphs" textLength="116" x="1170.5" y="180.6167">TaxableBaseAmount</text><text fill="#000000" font-family="sans-serif" font-size="11" font-style="italic" lengthAdjust="spacingAndGlyphs" textLength="126" x="1290.5" y="180.6167">(CurrencyAndAmount)</text><ellipse cx="1161.5" cy="191.1133" fill="#84BE84" rx="3" ry="3" style="stroke: #038048; stroke-width: 1.0;"/><text fill="#000000" font-family="sans-serif" font-size="11" lengthAdjust="spacingAndGlyphs" textLength="46" x="1170.5" y="193.4214">TaxDate</text><text fill="#000000" font-family="sans-serif" font-size="11" font-style="italic" lengthAdjust="spacingAndGlyphs" textLength="53" x="1220.5" y="193.4214">(ISODate)</text><ellipse cx="1161.5" cy="203.918" fill="#84BE84" rx="3" ry="3" style="stroke: #038048; stroke-width: 1.0;"/><text fill="#000000" font-family="sans-serif" font-size="11" lengthAdjust="spacingAndGlyphs" textLength="130" x="1170.5" y="206.2261">CertificateIdentification</text><text fill="#000000" font-family="sans-serif" font-size="11" font-style="italic" lengthAdjust="spacingAndGlyphs" textLength="70" x="1304.5" y="206.2261">(Max35Text)</text><ellipse cx="1161.5" cy="216.7227" fill="#84BE84" rx="3" ry="3" style="stroke: #038048; stroke-width: 1.0;"/><text fill="#000000" font-family="sans-serif" font-size="11" lengthAdjust="spacingAndGlyphs" textLength="112" x="1170.5" y="219.0308">AdministrationZone</text><text fill="#000000" font-family="sans-serif" font-size="11" font-style="italic" lengthAdjust="spacingAndGlyphs" textLength="77" x="1286.5" y="219.0308">(Max140Text)</text><ellipse cx="1161.5" cy="229.5273" fill="#84BE84" rx="3" ry="3" style="stroke: #038048; stroke-width: 1.0;"/><text fill="#000000" font-family="sans-serif" font-size="11" lengthAdjust="spacingAndGlyphs" textLength="41" x="1170.5" y="231.8354">Method</text><text fill="#000000" font-family="sans-serif" font-size="11" font-style="italic" lengthAdjust="spacingAndGlyphs" textLength="70" x="1215.5" y="231.8354">(Max35Text)</text><ellipse cx="1161.5" cy="242.332" fill="#84BE84" rx="3" ry="3" style="stroke: #038048; stroke-width: 1.0;"/><text fill="#000000" font-family="sans-serif" font-size="11" lengthAdjust="spacingAndGlyphs" textLength="51" x="1170.5" y="244.6401">Currency</text><text fill="#000000" font-family="sans-serif" font-size="11" font-style="italic" lengthAdjust="spacingAndGlyphs" textLength="89" x="1225.5" y="244.6401">(CurrencyCode)</text><ellipse cx="1161.5" cy="255.1367" fill="#84BE84" rx="3" ry="3" style="stroke: #038048; stroke-width: 1.0;"/><text fill="#000000" font-family="sans-serif" font-size="11" lengthAdjust="spacingAndGlyphs" textLength="76" x="1170.5" y="257.4448">TaxDeduction</text><text fill="#000000" font-family="sans-serif" font-size="11" font-style="italic" lengthAdjust="spacingAndGlyphs" textLength="126" x="1250.5" y="257.4448">(CurrencyAndAmount)</text><ellipse cx="1161.5" cy="267.9414" fill="#84BE84" rx="3" ry="3" style="stroke: #038048; stroke-width: 1.0;"/><text fill="#000000" font-family="sans-serif" font-size="11" lengthAdjust="spacingAndGlyphs" textLength="88" x="1170.5" y="270.2495">CalculationDate</text><text fill="#000000" font-family="sans-serif" font-size="11" font-style="italic" lengthAdjust="spacingAndGlyphs" textLength="53" x="1262.5" y="270.2495">(ISODate)</text><ellipse cx="1161.5" cy="280.7461" fill="#84BE84" rx="3" ry="3" style="stroke: #038048; stroke-width: 1.0;"/><text fill="#000000" font-family="sans-serif" font-size="11" lengthAdjust="spacingAndGlyphs" textLength="111" x="1170.5" y="283.0542">WithholdingTaxType</text><text fill="#000000" font-family="sans-serif" font-size="11" font-style="italic" lengthAdjust="spacingAndGlyphs" textLength="178" x="1285.5" y="283.0542">(WithholdingTaxRateTypeCode)</text><ellipse cx="1161.5" cy="293.5508" fill="#84BE84" rx="3" ry="3" style="stroke: #038048; stroke-width: 1.0;"/><text fill="#000000" font-family="sans-serif" font-size="11" lengthAdjust="spacingAndGlyphs" textLength="119" x="1170.5" y="295.8589">TaxIdentificationType</text><text fill="#000000" font-family="sans-serif" font-size="11" font-style="italic" lengthAdjust="spacingAndGlyphs" textLength="203" x="1293.5" y="295.8589">(TaxIdentificationNumberTypeCode)</text></a><!--class SecuritiesTax--><a target="_top" xlink:actuate="onRequest" xlink:href="../SecuritiesTax.html" xlink:show="new" xlink:title="Amount of money due to the government or tax authority, according to various pre-defined parameters such as thresholds or income." xlink:type="simple"><rect fill="#FEFEEE" filter="url(#flnpw7x3zt7xr)" height="23.9688" id="SecuritiesTax" style="stroke: #A80036; stroke-width: 1.5;" width="89" x="1413.75" y="380"/><rect fill="#FEFEEE" height="23.9688" style="stroke: #A80036; stroke-width: 1.5;" width="89" x="1413.75" y="380"/><text fill="#000000" font-family="sans-serif" font-size="12" lengthAdjust="spacingAndGlyphs" textLength="83" x="1416.75" y="396.1387">SecuritiesTax</text></a><!--class Country--><a target="_top" xlink:actuate="onRequest" xlink:href="../Country.html" xlink:show="new" xlink:title="Nation with its own government." xlink:type="simple"><rect fill="#EEEEEE" filter="url(#flnpw7x3zt7xr)" height="23.9688" id="Country" style="stroke: #A80036; stroke-width: 1.5;" width="54" x="427" y="159"/><rect fill="#EEEEEE" height="23.9688" style="stroke: #A80036; stroke-width: 1.5;" width="54" x="427" y="159"/><text fill="#000000" font-family="sans-serif" font-size="12" lengthAdjust="spacingAndGlyphs" textLength="48" x="430" y="175.1387">Country</text></a><!--class NetAssetValueCalculation--><a target="_top" xlink:actuate="onRequest" xlink:href="../NetAssetValueCalculation.html" xlink:show="new" xlink:title="Calculation of the net asset value for an investment fund/fund class." xlink:type="simple"><rect fill="#EEEEEE" filter="url(#flnpw7x3zt7xr)" height="23.9688" id="NetAssetValueCalculation" style="stroke: #A80036; stroke-width: 1.5;" width="167" x="419.75" y="1186"/><rect fill="#EEEEEE" height="23.9688" style="stroke: #A80036; stroke-width: 1.5;" width="167" x="419.75" y="1186"/><text fill="#000000" font-family="sans-serif" font-size="12" lengthAdjust="spacingAndGlyphs" textLength="161" x="422.75" y="1202.1387">NetAssetValueCalculation</text></a><!--class Party--><a target="_top" xlink:actuate="onRequest" xlink:href="../Party.html" xlink:show="new" xlink:title="Entity involved in an activity." xlink:type="simple"><rect fill="#EEEEEE" filter="url(#flnpw7x3zt7xr)" height="23.9688" id="Party" style="stroke: #A80036; stroke-width: 1.5;" width="38" x="535" y="1084"/><rect fill="#EEEEEE" height="23.9688" style="stroke: #A80036; stroke-width: 1.5;" width="38" x="535" y="1084"/><text fill="#000000" font-family="sans-serif" font-size="12" lengthAdjust="spacingAndGlyphs" textLength="32" x="538" y="1100.1387">Party</text></a><!--class SecuritiesTransfer--><a target="_top" xlink:actuate="onRequest" xlink:href="../SecuritiesTransfer.html" xlink:show="new" xlink:title="Completion of a securities settlement instruction, wherein securities are delivered/debited from a securities account and received/credited to the designated securities account." xlink:type="simple"><rect fill="#EEEEEE" filter="url(#flnpw7x3zt7xr)" height="23.9688" id="SecuritiesTransfer" style="stroke: #A80036; stroke-width: 1.5;" width="120" x="494.5" y="998"/><rect fill="#EEEEEE" height="23.9688" style="stroke: #A80036; stroke-width: 1.5;" width="120" x="494.5" y="998"/><text fill="#000000" font-family="sans-serif" font-size="12" lengthAdjust="spacingAndGlyphs" textLength="114" x="497.5" y="1014.1387">SecuritiesTransfer</text></a><!--class CashAccount--><a target="_top" xlink:actuate="onRequest" xlink:href="../CashAccount.html" xlink:show="new" xlink:title="Account to or from which a cash entry is made." xlink:type="simple"><rect fill="#EEEEEE" filter="url(#flnpw7x3zt7xr)" height="23.9688" id="CashAccount" style="stroke: #A80036; stroke-width: 1.5;" width="88" x="507.5" y="896"/><rect fill="#EEEEEE" height="23.9688" style="stroke: #A80036; stroke-width: 1.5;" width="88" x="507.5" y="896"/><text fill="#000000" font-family="sans-serif" font-size="12" lengthAdjust="spacingAndGlyphs" textLength="82" x="510.5" y="912.1387">CashAccount</text></a><!--class Adjustment--><a target="_top" xlink:actuate="onRequest" xlink:href="../Adjustment.html" xlink:show="new" xlink:title="Modification on the value of goods and / or services. For example: rebate, discount." xlink:type="simple"><rect fill="#EEEEEE" filter="url(#flnpw7x3zt7xr)" height="23.9688" id="Adjustment" style="stroke: #A80036; stroke-width: 1.5;" width="77" x="618.75" y="794"/><rect fill="#EEEEEE" height="23.9688" style="stroke: #A80036; stroke-width: 1.5;" width="77" x="618.75" y="794"/><text fill="#000000" font-family="sans-serif" font-size="12" lengthAdjust="spacingAndGlyphs" textLength="71" x="621.75" y="810.1387">Adjustment</text></a><!--class Interest--><a target="_top" xlink:actuate="onRequest" xlink:href="../Interest.html" xlink:show="new" xlink:title="Consideration, such as amount of money,  paid or received in exchange for an asset that has been invested, loaned or borrowed for a certain period. The interest is expressed as a fixed amount or percentage of the amount upon which the interest is applied." xlink:type="simple"><rect fill="#EEEEEE" filter="url(#flnpw7x3zt7xr)" height="23.9688" id="Interest" style="stroke: #A80036; stroke-width: 1.5;" width="55" x="457.75" y="692"/><rect fill="#EEEEEE" height="23.9688" style="stroke: #A80036; stroke-width: 1.5;" width="55" x="457.75" y="692"/><text fill="#000000" font-family="sans-serif" font-size="12" lengthAdjust="spacingAndGlyphs" textLength="49" x="460.75" y="708.1387">Interest</text></a><!--class Payment--><a target="_top" xlink:actuate="onRequest" xlink:href="../Payment.html" xlink:show="new" xlink:title="Payment information and processes required to transfer cash end to end from the debtor to the creditor." xlink:type="simple"><rect fill="#EEEEEE" filter="url(#flnpw7x3zt7xr)" height="23.9688" id="Payment" style="stroke: #A80036; stroke-width: 1.5;" width="60" x="559.5" y="588"/><rect fill="#EEEEEE" height="23.9688" style="stroke: #A80036; stroke-width: 1.5;" width="60" x="559.5" y="588"/><text fill="#000000" font-family="sans-serif" font-size="12" lengthAdjust="spacingAndGlyphs" textLength="54" x="562.5" y="604.1387">Payment</text></a><!--class TaxRecord--><a target="_top" xlink:actuate="onRequest" xlink:href="../TaxRecord.html" xlink:show="new" xlink:title="Record of tax details." xlink:type="simple"><rect fill="#EEEEEE" filter="url(#flnpw7x3zt7xr)" height="23.9688" id="TaxRecord" style="stroke: #A80036; stroke-width: 1.5;" width="71" x="553.75" y="484"/><rect fill="#EEEEEE" height="23.9688" style="stroke: #A80036; stroke-width: 1.5;" width="71" x="553.75" y="484"/><text fill="#000000" font-family="sans-serif" font-size="12" lengthAdjust="spacingAndGlyphs" textLength="65" x="556.75" y="500.1387">TaxRecord</text></a><!--class Product--><a target="_top" xlink:actuate="onRequest" xlink:href="../Product.html" xlink:show="new" xlink:title="Item that is offered for sale. Products can be services or goods." xlink:type="simple"><rect fill="#EEEEEE" filter="url(#flnpw7x3zt7xr)" height="23.9688" id="Product" style="stroke: #A80036; stroke-width: 1.5;" width="55" x="507.75" y="380"/><rect fill="#EEEEEE" height="23.9688" style="stroke: #A80036; stroke-width: 1.5;" width="55" x="507.75" y="380"/><text fill="#000000" font-family="sans-serif" font-size="12" lengthAdjust="spacingAndGlyphs" textLength="49" x="510.75" y="396.1387">Product</text></a><!--class CurrencyExchange--><a target="_top" xlink:actuate="onRequest" xlink:href="../CurrencyExchange.html" xlink:show="new" xlink:title="Information needed to process a currency exchange or conversion." xlink:type="simple"><rect fill="#EEEEEE" filter="url(#flnpw7x3zt7xr)" height="23.9688" id="CurrencyExchange" style="stroke: #A80036; stroke-width: 1.5;" width="122" x="630" y="896"/><rect fill="#EEEEEE" height="23.9688" style="stroke: #A80036; stroke-width: 1.5;" width="122" x="630" y="896"/><text fill="#000000" font-family="sans-serif" font-size="12" lengthAdjust="spacingAndGlyphs" textLength="116" x="633" y="912.1387">CurrencyExchange</text></a><!--class TaxPartyRole--><a target="_top" xlink:actuate="onRequest" xlink:href="../TaxPartyRole.html" xlink:show="new" xlink:title="Role played by a party in the context of a tax due." xlink:type="simple"><rect fill="#EEEEEE" filter="url(#flnpw7x3zt7xr)" height="23.9688" id="TaxPartyRole" style="stroke: #A80036; stroke-width: 1.5;" width="86" x="682" y="1272"/><rect fill="#EEEEEE" height="23.9688" style="stroke: #A80036; stroke-width: 1.5;" width="86" x="682" y="1272"/><text fill="#000000" font-family="sans-serif" font-size="12" lengthAdjust="spacingAndGlyphs" textLength="80" x="685" y="1288.1387">TaxPartyRole</text></a><!--class Distribution--><a target="_top" xlink:actuate="onRequest" xlink:href="../Distribution.html" xlink:show="new" xlink:title="Distributions in cash and/or securities following a corporate event." xlink:type="simple"><rect fill="#EEEEEE" filter="url(#flnpw7x3zt7xr)" height="23.9688" id="Distribution" style="stroke: #A80036; stroke-width: 1.5;" width="78" x="686" y="1186"/><rect fill="#EEEEEE" height="23.9688" style="stroke: #A80036; stroke-width: 1.5;" width="78" x="686" y="1186"/><text fill="#000000" font-family="sans-serif" font-size="12" lengthAdjust="spacingAndGlyphs" textLength="72" x="689" y="1202.1387">Distribution</text></a><!--class Dividend--><a target="_top" xlink:actuate="onRequest" xlink:href="../Dividend.html" xlink:show="new" xlink:title="Distribution of earnings to shareholders, paid for in cash, stock, scrip issue or, rarely, in kind, for example, in company products or property. The dividend amount is decided by the board of directors." xlink:type="simple"><rect fill="#EEEEEE" filter="url(#flnpw7x3zt7xr)" height="23.9688" id="Dividend" style="stroke: #A80036; stroke-width: 1.5;" width="59" x="734.75" y="1084"/><rect fill="#EEEEEE" height="23.9688" style="stroke: #A80036; stroke-width: 1.5;" width="59" x="734.75" y="1084"/><text fill="#000000" font-family="sans-serif" font-size="12" lengthAdjust="spacingAndGlyphs" textLength="53" x="737.75" y="1100.1387">Dividend</text></a><!--class CorporateActionEvent--><a target="_top" xlink:actuate="onRequest" xlink:href="../CorporateActionEvent.html" xlink:show="new" xlink:title="An event determined by a corporation's board of directors, that changes the existing corporate capital structure or financial condition." xlink:type="simple"><rect fill="#EEEEEE" filter="url(#flnpw7x3zt7xr)" height="23.9688" id="CorporateActionEvent" style="stroke: #A80036; stroke-width: 1.5;" width="143" x="686.75" y="998"/><rect fill="#EEEEEE" height="23.9688" style="stroke: #A80036; stroke-width: 1.5;" width="143" x="686.75" y="998"/><text fill="#000000" font-family="sans-serif" font-size="12" lengthAdjust="spacingAndGlyphs" textLength="137" x="689.75" y="1014.1387">CorporateActionEvent</text></a><!--link Tax to SecuritiesTax--><path d="M1415.04,319.72 C1430.3,345.042 1443.68,367.244 1451.3,379.886 " fill="none" id="Tax-SecuritiesTax" style="stroke: #A80036; stroke-width: 1.0;"/><polygon fill="none" points="1408.83,322.98,1404.5,302.24,1420.82,315.76,1408.83,322.98" style="stroke: #A80036; stroke-width: 1.0;"/><!--link NetAssetValueCalculation to Country--><!--link Party to NetAssetValueCalculation--><!--link SecuritiesTransfer to Party--><!--link CashAccount to SecuritiesTransfer--><!--link Adjustment to CashAccount--><!--link Interest to Adjustment--><!--link Payment to Interest--><!--link TaxRecord to Payment--><!--link Product to TaxRecord--><!--link CurrencyExchange to Product--><!--link TaxPartyRole to CurrencyExchange--><!--link Distribution to TaxPartyRole--><!--link Dividend to Distribution--><!--link Distribution to Dividend--><path d="M729.342,1185.867 C736.265,1168.114 749.833,1133.325 757.784,1112.938 " fill="none" id="Distribution-Dividend" style="stroke: #A80036; stroke-width: 1.0;"/><polygon fill="#A80036" points="759.677,1108.084,752.6799,1115.0151,757.86,1112.7422,760.133,1117.9223,759.677,1108.084" style="stroke: #A80036; stroke-width: 1.0;"/><text fill="#000000" font-family="sans-serif" font-size="13" lengthAdjust="spacingAndGlyphs" textLength="55" x="749" y="1151.0669">Dividend</text><text fill="#000000" font-family="sans-serif" font-size="13" lengthAdjust="spacingAndGlyphs" textLength="8" x="746.7281" y="1128.2631">1</text><!--link CorporateActionEvent to Dividend--><!--link Tax to Country--><path d="M1150.38,171 C937.052,171 592.477,171 486.229,171 " fill="none" id="Tax-Country" style="stroke: #A80036; stroke-width: 1.0;"/><polygon fill="#A80036" points="481.053,171,490.053,175,486.053,171,490.053,167,481.053,171" style="stroke: #A80036; stroke-width: 1.0;"/><text fill="#000000" font-family="sans-serif" font-size="13" lengthAdjust="spacingAndGlyphs" textLength="50" x="790" y="163.0669">Country</text><text fill="#000000" font-family="sans-serif" font-size="13" lengthAdjust="spacingAndGlyphs" textLength="8" x="489.0103" y="164.9098">1</text><!--link Tax to NetAssetValueCalculation--><path d="M1501.65,207.38 C1596.35,237.81 1694,292.96 1694,391 C1694,391 1694,391 1694,1097 C1694,1110.829 867.465,1171.016 591.497,1190.726 " fill="none" id="Tax-NetAssetValueCalculation" style="stroke: #A80036; stroke-width: 1.0;"/><polygon fill="#A80036" points="586.275,1191.099,595.5368,1194.4486,591.2623,1190.7433,594.9676,1186.4688,586.275,1191.099" style="stroke: #A80036; stroke-width: 1.0;"/><text fill="#000000" font-family="sans-serif" font-size="13" lengthAdjust="spacingAndGlyphs" textLength="175" x="1695" y="759.0669">TaxLiabilityValueCalculation</text><text fill="#000000" font-family="sans-serif" font-size="13" lengthAdjust="spacingAndGlyphs" textLength="24" x="594.7382" y="1185.8015">0..1</text><!--link Tax to NetAssetValueCalculation--><path d="M1150.34,225.42 C1060.05,251.38 947.855,281.35 846,302 C749.285,321.61 721.317,306.45 626,332 C605.592,337.471 602.294,344.12 582,350 C508.728,371.229 481.041,345.506 413,380 C179.73,498.257 6,543.466 6,805 C6,805 6,805 6,1097 C6,1179.362 271.634,1194.745 414.503,1197.063 " fill="none" id="Tax-NetAssetValueCalculation" style="stroke: #A80036; stroke-width: 1.0;"/><polygon fill="#A80036" points="419.533,1197.14,410.5958,1193.0016,414.5336,1197.0629,410.4724,1201.0007,419.533,1197.14" style="stroke: #A80036; stroke-width: 1.0;"/><text fill="#000000" font-family="sans-serif" font-size="13" lengthAdjust="spacingAndGlyphs" textLength="172" x="10" y="759.0669">TaxRefundValueCalculation</text><text fill="#000000" font-family="sans-serif" font-size="13" lengthAdjust="spacingAndGlyphs" textLength="24" x="387.7326" y="1192.5545">0..1</text><!--link Tax to Party--><path d="M1501.78,276.78 C1533.12,308.25 1556,346.477 1556,391 C1556,391 1556,391 1556,654 C1556,846.399 1440.07,905.808 1258,968 C1001.032,1055.777 669.472,1086.257 578.181,1093.284 " fill="none" id="Tax-Party" style="stroke: #A80036; stroke-width: 1.0;"/><polygon fill="#A80036" points="573.014,1093.676,582.291,1096.9831,577.9996,1093.2974,581.6853,1089.0061,573.014,1093.676" style="stroke: #A80036; stroke-width: 1.0;"/><text fill="#000000" font-family="sans-serif" font-size="13" lengthAdjust="spacingAndGlyphs" textLength="82" x="1556" y="708.0669">TaxableParty</text><text fill="#000000" font-family="sans-serif" font-size="13" lengthAdjust="spacingAndGlyphs" textLength="24" x="580.9613" y="1086.9903">0..1</text><!--link Tax to SecuritiesTransfer--><path d="M1238.57,302.06 C1226.42,330.226 1218,360.689 1218,391 C1218,391 1218,391 1218,548 C1218,630.959 1114,620.041 1114,703 C1114,703 1114,703 1114,909 C1114,994.879 1014,950.144 930,968 C900.422,974.288 718.736,992.754 619.154,1002.618 " fill="none" id="Tax-SecuritiesTransfer" style="stroke: #A80036; stroke-width: 1.0;"/><polygon fill="#A80036" points="613.889,1003.139,623.2395,1006.2324,618.8647,1002.6461,622.4509,998.2713,613.889,1003.139" style="stroke: #A80036; stroke-width: 1.0;"/><text fill="#000000" font-family="sans-serif" font-size="13" lengthAdjust="spacingAndGlyphs" textLength="115" x="1142" y="657.0669">SecuritiesTransfer</text><text fill="#000000" font-family="sans-serif" font-size="13" lengthAdjust="spacingAndGlyphs" textLength="24" x="622.5895" y="997.3438">0..1</text><!--link Tax to CashAccount--><path d="M1185.5,302.36 C1174.82,312.37 1164.23,322.34 1154,332 C1131.61,353.158 1124.53,357.031 1104,380 C1053.29,436.736 896,575.908 896,652 C896,652 896,652 896,807 C896,837.479 694.794,879.726 599.695,897.992 " fill="none" id="Tax-CashAccount" style="stroke: #A80036; stroke-width: 1.0;"/><polygon fill="#A80036" points="594.694,898.949,604.2855,901.1859,599.6049,898.0091,602.7816,893.3285,594.694,898.949" style="stroke: #A80036; stroke-width: 1.0;"/><text fill="#000000" font-family="sans-serif" font-size="13" lengthAdjust="spacingAndGlyphs" textLength="74" x="922" y="604.0669">TaxAccount</text><text fill="#000000" font-family="sans-serif" font-size="13" lengthAdjust="spacingAndGlyphs" textLength="7" x="603.595" y="891.6859">*</text><!--link Tax to Adjustment--><path d="M1150.23,228.93 C1097.64,253.42 1043.95,287.02 1006,332 C969.463,375.307 1001.196,407.375 969,454 C934.247,504.328 890.893,485.215 860,538 C808.848,625.4 898.621,688.617 831,764 C813.889,783.075 746.451,794.601 700.734,800.38 " fill="none" id="Tax-Adjustment" style="stroke: #A80036; stroke-width: 1.0;"/><polygon fill="#A80036" points="695.549,801.023,704.973,803.8845,700.511,800.4074,703.988,795.9453,695.549,801.023" style="stroke: #A80036; stroke-width: 1.0;"/><text fill="#000000" font-family="sans-serif" font-size="13" lengthAdjust="spacingAndGlyphs" textLength="74" x="861" y="551.0669">Adjustment</text><text fill="#000000" font-family="sans-serif" font-size="13" lengthAdjust="spacingAndGlyphs" textLength="8" x="703.8766" y="794.4528">1</text><!--link Tax to Interest--><path d="M1150.29,216.78 C1044.54,249.78 911.396,302.55 811,380 C788.086,397.678 788.767,408.928 767,428 C720.91,468.383 580.642,539.271 541,586 C514.59,617.132 497.501,662.845 489.777,686.876 " fill="none" id="Tax-Interest" style="stroke: #A80036; stroke-width: 1.0;"/><polygon fill="#A80036" points="488.185,691.941,494.6992,684.5542,489.684,687.171,487.0672,682.1558,488.185,691.941" style="stroke: #A80036; stroke-width: 1.0;"/><text fill="#000000" font-family="sans-serif" font-size="13" lengthAdjust="spacingAndGlyphs" textLength="49" x="685" y="500.0669">Interest</text><text fill="#000000" font-family="sans-serif" font-size="13" lengthAdjust="spacingAndGlyphs" textLength="24" x="459.7252" y="680.9689">0..1</text><!--link Tax to Payment--><path d="M1150.11,231.64 C1080.94,258.22 1002.176,292.5 935,332 C876.125,366.621 875.966,397.21 815,428 C802.682,434.221 795.39,426.919 785,436 C758.899,458.814 777.283,481.444 755,508 C720.023,549.684 660.854,575.513 623.415,588.561 " fill="none" id="Tax-Payment" style="stroke: #A80036; stroke-width: 1.0;"/><polygon fill="#A80036" points="618.508,590.241,628.3184,591.11,623.2384,588.6214,625.727,583.5413,618.508,590.241" style="stroke: #A80036; stroke-width: 1.0;"/><text fill="#000000" font-family="sans-serif" font-size="13" lengthAdjust="spacingAndGlyphs" textLength="177" x="786" y="449.0669">RelatedPaymentSettlement</text><text fill="#000000" font-family="sans-serif" font-size="13" lengthAdjust="spacingAndGlyphs" textLength="24" x="627.4785" y="582.3317">0..1</text><!--link Tax to TaxRecord--><path d="M1150.42,202.82 C1020.99,232.07 845.635,285.98 716,380 C671.843,412.027 625.777,457.184 603.198,480.223 " fill="none" id="Tax-TaxRecord" style="stroke: #A80036; stroke-width: 1.0;"/><polygon fill="#A80036" points="599.52,483.993,608.6681,480.3444,603.0117,480.4142,602.942,474.7577,599.52,483.993" style="stroke: #A80036; stroke-width: 1.0;"/><text fill="#000000" font-family="sans-serif" font-size="13" lengthAdjust="spacingAndGlyphs" textLength="44" x="717" y="396.0669">Record</text><text fill="#000000" font-family="sans-serif" font-size="13" lengthAdjust="spacingAndGlyphs" textLength="23" x="574.7534" y="473.0388">1..*</text><!--link Tax to Product--><path d="M1150.27,222.39 C1059.72,247.64 947.314,277.9 846,302 C781.554,317.33 762.602,310.34 700,332 C683.095,337.85 680.574,343.27 664,350 C631.85,363.054 593.872,374.689 567.484,382.199 " fill="none" id="Tax-Product" style="stroke: #A80036; stroke-width: 1.0;"/><polygon fill="#A80036" points="562.366,383.646,572.1147,385.0472,567.1775,382.286,569.9387,377.3488,562.366,383.646" style="stroke: #A80036; stroke-width: 1.0;"/><text fill="#000000" font-family="sans-serif" font-size="13" lengthAdjust="spacingAndGlyphs" textLength="49" x="701" y="345.0669">Product</text><text fill="#000000" font-family="sans-serif" font-size="13" lengthAdjust="spacingAndGlyphs" textLength="8" x="570.7284" y="375.2054">1</text><!--link Tax to CurrencyExchange--><path d="M1198.16,302.31 C1123.16,392.721 1043,520.193 1043,652 C1043,652 1043,652 1043,807 C1043,865.726 859.415,891.785 757.409,901.732 " fill="none" id="Tax-CurrencyExchange" style="stroke: #A80036; stroke-width: 1.0;"/><polygon fill="#A80036" points="752.314,902.222,761.6555,905.3422,757.291,901.7434,760.8898,897.379,752.314,902.222" style="stroke: #A80036; stroke-width: 1.0;"/><text fill="#000000" font-family="sans-serif" font-size="13" lengthAdjust="spacingAndGlyphs" textLength="119" x="1051" y="604.0669">CurrencyExchange</text><text fill="#000000" font-family="sans-serif" font-size="13" lengthAdjust="spacingAndGlyphs" textLength="7" x="759.8081" y="896.6475">*</text><!--link Tax to TaxPartyRole--><path d="M1501.75,204.64 C1668.9,240.84 1895,305.59 1895,391 C1895,391 1895,391 1895,1199 C1895,1256.2073 993.367,1277.708 773.104,1282.1069 " fill="none" id="Tax-TaxPartyRole" style="stroke: #A80036; stroke-width: 1.0;"/><polygon fill="#A80036" points="768.029,1282.2077,777.1061,1286.0295,773.028,1282.1091,776.9484,1278.031,768.029,1282.2077" style="stroke: #A80036; stroke-width: 1.0;"/><text fill="#000000" font-family="sans-serif" font-size="13" lengthAdjust="spacingAndGlyphs" textLength="60" x="1896" y="810.0669">PartyRole</text><text fill="#000000" font-family="sans-serif" font-size="13" lengthAdjust="spacingAndGlyphs" textLength="7" x="776.0262" y="1276.5197">*</text><!--link Tax to Distribution--><path d="M1150.35,224.03 C1059.94,249.67 947.633,279.78 846,302 C767.197,319.23 744.586,309.93 667,332 C646.678,337.782 643.153,343.653 623,350 C565.202,368.202 540.909,347.134 490,380 C318.836,490.501 278.679,552.805 214,746 C209.378,759.805 221,801.279 221,805 C221,805 221,805 221,1097 C221,1143.688 558.046,1180.89 680.888,1192.899 " fill="none" id="Tax-Distribution" style="stroke: #A80036; stroke-width: 1.0;"/><polygon fill="#A80036" points="685.871,1193.384,677.3008,1188.531,680.8945,1192.8996,676.5258,1196.4933,685.871,1193.384" style="stroke: #A80036; stroke-width: 1.0;"/><text fill="#000000" font-family="sans-serif" font-size="13" lengthAdjust="spacingAndGlyphs" textLength="225" x="215" y="759.0669">RelatedCorporateActionDistribution</text><text fill="#000000" font-family="sans-serif" font-size="13" lengthAdjust="spacingAndGlyphs" textLength="24" x="653.8662" y="1187.6995">0..1</text><!--link Tax to Dividend--><path d="M1362.1,302.03 C1391.45,419.239 1428,596.794 1428,754 C1428,754 1428,754 1428,1011 C1428,1075.101 934.661,1091.107 798.463,1094.304 " fill="none" id="Tax-Dividend" style="stroke: #A80036; stroke-width: 1.0;"/><polygon fill="#A80036" points="793.388,1094.421,802.4781,1098.2117,798.3867,1094.3053,802.293,1090.2138,793.388,1094.421" style="stroke: #A80036; stroke-width: 1.0;"/><text fill="#000000" font-family="sans-serif" font-size="13" lengthAdjust="spacingAndGlyphs" textLength="55" x="1429" y="708.0669">Dividend</text><text fill="#000000" font-family="sans-serif" font-size="13" lengthAdjust="spacingAndGlyphs" textLength="7" x="801.7515" y="1087.9262">*</text><!--link Tax to CorporateActionEvent--><path d="M1296.67,302.25 C1292.18,331.309 1289,362.08 1289,391 C1289,391 1289,391 1289,548 C1289,591.583 1273.47,600.647 1269,644 C1268.18,651.958 1268.71,654.005 1269,662 C1269.67,680.259 1272,684.729 1272,703 C1272,703 1272,703 1272,909 C1272,997.047 977.723,1009.104 834.5,1009.759 " fill="none" id="Tax-CorporateActionEvent" style="stroke: #A80036; stroke-width: 1.0;"/><polygon fill="#A80036" points="829.469,1009.777,838.4838,1013.7435,834.469,1009.7584,838.4541,1005.7436,829.469,1009.777" style="stroke: #A80036; stroke-width: 1.0;"/><text fill="#000000" font-family="sans-serif" font-size="13" lengthAdjust="spacingAndGlyphs" textLength="140" x="1270" y="657.0669">CorporateActionEvent</text><text fill="#000000" font-family="sans-serif" font-size="13" lengthAdjust="spacingAndGlyphs" textLength="8" x="837.6961" y="1004.8988">1</text><!--link Country to Product--><path d="M458.128,183.16 C471.48,219.26 513.531,332.955 529.115,375.088 " fill="none" id="Country-Product" style="stroke: #A80036; stroke-width: 1.0;"/><polygon fill="#A80036" points="530.88,379.861,531.5102,370.0323,529.1458,375.1714,524.0068,372.807,530.88,379.861" style="stroke: #A80036; stroke-width: 1.0;"/><text fill="#000000" font-family="sans-serif" font-size="13" lengthAdjust="spacingAndGlyphs" textLength="116" x="521" y="345.0669">ProducedProducts</text><text fill="#000000" font-family="sans-serif" font-size="13" lengthAdjust="spacingAndGlyphs" textLength="7" x="519.8309" y="368.8614">*</text><!--link NetAssetValueCalculation to Interest--><path d="M500.621,1185.604 C494.953,1157.804 480.772,1084.222 476,1022 C467.183,907.033 478.815,768.016 483.339,721.242 " fill="none" id="NetAssetValueCalculation-Interest" style="stroke: #A80036; stroke-width: 1.0;"/><polygon fill="#A80036" points="483.829,716.251,478.9687,724.817,483.3404,721.2271,486.9304,725.5988,483.829,716.251" style="stroke: #A80036; stroke-width: 1.0;"/><text fill="#000000" font-family="sans-serif" font-size="13" lengthAdjust="spacingAndGlyphs" textLength="49" x="475" y="963.0669">Interest</text><text fill="#000000" font-family="sans-serif" font-size="13" lengthAdjust="spacingAndGlyphs" textLength="7" x="473.4976" y="736.1272">*</text><!--link CashAccount to Payment--><path d="M552.37,895.967 C558.092,849.889 580.1,672.671 586.951,617.496 " fill="none" id="CashAccount-Payment" style="stroke: #A80036; stroke-width: 1.0;"/><polygon fill="#A80036" points="587.602,612.254,582.5241,620.6929,586.9862,617.2159,590.4632,621.6781,587.602,612.254" style="stroke: #A80036; stroke-width: 1.0;"/><text fill="#000000" font-family="sans-serif" font-size="13" lengthAdjust="spacingAndGlyphs" textLength="57" x="572" y="759.0669">Payment</text><text fill="#000000" font-family="sans-serif" font-size="13" lengthAdjust="spacingAndGlyphs" textLength="8" x="575.8859" y="632.1313">1</text><!--link Adjustment to Payment--><path d="M657.641,793.953 C658.059,781.968 657.935,762.354 654,746 C642.032,696.257 613.291,642.488 598.36,616.631 " fill="none" id="Adjustment-Payment" style="stroke: #A80036; stroke-width: 1.0;"/><polygon fill="#A80036" points="595.74,612.136,596.8173,621.9258,598.2583,616.4555,603.7285,617.8965,595.74,612.136" style="stroke: #A80036; stroke-width: 1.0;"/><text fill="#000000" font-family="sans-serif" font-size="13" lengthAdjust="spacingAndGlyphs" textLength="57" x="646" y="708.0669">Payment</text><text fill="#000000" font-family="sans-serif" font-size="13" lengthAdjust="spacingAndGlyphs" textLength="7" x="588.4251" y="631.9669">*</text><!--link Adjustment to CurrencyExchange--><path d="M633.356,818.069 C613.089,829.158 588.928,847.234 601,866 C609.346,878.973 622.919,887.891 637.022,894.001 " fill="none" id="Adjustment-CurrencyExchange" style="stroke: #A80036; stroke-width: 1.0;"/><polygon fill="#A80036" points="641.819,895.967,635.0092,888.8518,637.1927,894.0702,631.9743,896.2538,641.819,895.967" style="stroke: #A80036; stroke-width: 1.0;"/><text fill="#000000" font-family="sans-serif" font-size="13" lengthAdjust="spacingAndGlyphs" textLength="119" x="602" y="861.0669">CurrencyExchange</text><text fill="#000000" font-family="sans-serif" font-size="13" lengthAdjust="spacingAndGlyphs" textLength="8" x="614.1943" y="885.0039">1</text><!--link Payment to CurrencyExchange--><path d="M615.07,612.015 C644.445,625.947 690.959,652.927 713,692 C751.118,759.574 754.351,793.398 727,866 C723.281,875.873 715.984,884.915 708.926,891.981 " fill="none" id="Payment-CurrencyExchange" style="stroke: #A80036; stroke-width: 1.0;"/><polygon fill="#A80036" points="705.054,895.696,714.318,892.3525,708.6623,892.2348,708.78,886.5792,705.054,895.696" style="stroke: #A80036; stroke-width: 1.0;"/><text fill="#000000" font-family="sans-serif" font-size="13" lengthAdjust="spacingAndGlyphs" textLength="119" x="744" y="759.0669">CurrencyExchange</text><text fill="#000000" font-family="sans-serif" font-size="13" lengthAdjust="spacingAndGlyphs" textLength="7" x="700.2188" y="884.8987">*</text><!--link Payment to Payment--><path d="M618.625,590.859 C636.333,588.828 653,591.875 653,600 C653,607.3 639.547,610.501 623.972,609.602 " fill="none" id="Payment-Payment" style="stroke: #A80036; stroke-width: 1.0;"/><polygon fill="#A80036" points="618.625,609.141,627.2477,613.9002,623.6065,609.571,627.9357,605.9298,618.625,609.141" style="stroke: #A80036; stroke-width: 1.0;"/><text fill="#000000" font-family="sans-serif" font-size="13" lengthAdjust="spacingAndGlyphs" textLength="105" x="659" y="604.0669">OriginalPayment</text><text fill="#000000" font-family="sans-serif" font-size="13" lengthAdjust="spacingAndGlyphs" textLength="8" x="627.5273" y="605.4022">1</text><!--link CurrencyExchange to CorporateActionEvent--><path d="M698.426,920.084 C710.399,937.954 734.002,973.182 747.629,993.521 " fill="none" id="CurrencyExchange-CorporateActionEvent" style="stroke: #A80036; stroke-width: 1.0;"/><polygon fill="#A80036" points="750.541,997.867,748.8538,988.1637,747.7576,993.7134,742.208,992.6171,750.541,997.867" style="stroke: #A80036; stroke-width: 1.0;"/><text fill="#000000" font-family="sans-serif" font-size="13" lengthAdjust="spacingAndGlyphs" textLength="188" x="732" y="963.0669">RelatedCorporateActionEvent</text><text fill="#000000" font-family="sans-serif" font-size="13" lengthAdjust="spacingAndGlyphs" textLength="8" x="737.1723" y="986.8695">1</text></g></svg>