<?xml version="1.0" encoding="UTF-8" standalone="no"?><svg xmlns="http://www.w3.org/2000/svg" xmlns:xlink="http://www.w3.org/1999/xlink" contentScriptType="application/ecmascript" contentStyleType="text/css" height="1320px" preserveAspectRatio="none" style="width:1968px;height:1320px;" version="1.1" viewBox="0 0 1968 1320" width="1968px" zoomAndPan="magnify"><defs><filter height="300%" id="fgzypb2dmz0ei" width="300%" x="-1" y="-1"><feGaussianBlur result="blurOut" stdDeviation="2.0"/><feColorMatrix in="blurOut" result="blurOut2" type="matrix" values="0 0 0 0 0 0 0 0 0 0 0 0 0 0 0 0 0 0 .4 0"/><feOffset dx="4.0" dy="4.0" in="blurOut2" result="blurOut3"/><feBlend in="SourceGraphic" in2="blurOut3" mode="normal"/></filter></defs><g><!--cluster ##7947--><!--cluster ##7953--><!--class Tax--><a target="_top" xlink:actuate="onRequest" xlink:href="../Tax.html" xlink:show="new" xlink:title="Amount of money due to the government or tax authority, according to various pre-defined parameters such as thresholds or income." xlink:type="simple"><rect fill="#FEFECE" filter="url(#fgzypb2dmz0ei)" height="275.2578" id="Tax" style="stroke: #A80036; stroke-width: 1.5;" width="352" x="1150.5" y="40.5"/><rect fill="#FEFECE" height="23.9688" style="stroke: #A80036; stroke-width: 1.5;" width="352" x="1150.5" y="40.5"/><text fill="#000000" font-family="sans-serif" font-size="12" lengthAdjust="spacingAndGlyphs" textLength="21" x="1316" y="56.6387">Tax</text><line style="stroke: #A80036; stroke-width: 1.5;" x1="1151.5" x2="1501.5" y1="64.4688" y2="64.4688"/><ellipse cx="1161.5" cy="76.3711" fill="#84BE84" rx="3" ry="3" style="stroke: #038048; stroke-width: 1.0;"/><text fill="#000000" font-family="sans-serif" font-size="11" lengthAdjust="spacingAndGlyphs" textLength="101" x="1170.5" y="78.6792">ExemptionReason</text><text fill="#000000" font-family="sans-serif" font-size="11" font-style="italic" lengthAdjust="spacingAndGlyphs" textLength="143" x="1275.5" y="78.6792">(TaxExemptReasonCode)</text><ellipse cx="1161.5" cy="89.1758" fill="#84BE84" rx="3" ry="3" style="stroke: #038048; stroke-width: 1.0;"/><text fill="#000000" font-family="sans-serif" font-size="11" lengthAdjust="spacingAndGlyphs" textLength="27" x="1170.5" y="91.4839">Type</text><text fill="#000000" font-family="sans-serif" font-size="11" font-style="italic" lengthAdjust="spacingAndGlyphs" textLength="86" x="1201.5" y="91.4839">(TaxTypeCode)</text><ellipse cx="1161.5" cy="101.9805" fill="#84BE84" rx="3" ry="3" style="stroke: #038048; stroke-width: 1.0;"/><text fill="#000000" font-family="sans-serif" font-size="11" lengthAdjust="spacingAndGlyphs" textLength="43" x="1170.5" y="104.2886">Amount</text><text fill="#000000" font-family="sans-serif" font-size="11" font-style="italic" lengthAdjust="spacingAndGlyphs" textLength="126" x="1217.5" y="104.2886">(CurrencyAndAmount)</text><ellipse cx="1161.5" cy="114.7852" fill="#84BE84" rx="3" ry="3" style="stroke: #038048; stroke-width: 1.0;"/><text fill="#000000" font-family="sans-serif" font-size="11" lengthAdjust="spacingAndGlyphs" textLength="25" x="1170.5" y="117.0933">Rate</text><text fill="#000000" font-family="sans-serif" font-size="11" font-style="italic" lengthAdjust="spacingAndGlyphs" textLength="98" x="1199.5" y="117.0933">(PercentageRate)</text><ellipse cx="1161.5" cy="127.5898" fill="#84BE84" rx="3" ry="3" style="stroke: #038048; stroke-width: 1.0;"/><text fill="#000000" font-family="sans-serif" font-size="11" lengthAdjust="spacingAndGlyphs" textLength="32" x="1170.5" y="129.8979">Basis</text><text fill="#000000" font-family="sans-serif" font-size="11" font-style="italic" lengthAdjust="spacingAndGlyphs" textLength="116" x="1206.5" y="129.8979">(TaxationBasisCode)</text><ellipse cx="1161.5" cy="140.3945" fill="#84BE84" rx="3" ry="3" style="stroke: #038048; stroke-width: 1.0;"/><text fill="#000000" font-family="sans-serif" font-size="11" lengthAdjust="spacingAndGlyphs" textLength="72" x="1170.5" y="142.7026">TaxRateType</text><text fill="#000000" font-family="sans-serif" font-size="11" font-style="italic" lengthAdjust="spacingAndGlyphs" textLength="91" x="1246.5" y="142.7026">(RateTypeCode)</text><ellipse cx="1161.5" cy="153.1992" fill="#84BE84" rx="3" ry="3" style="stroke: #038048; stroke-width: 1.0;"/><text fill="#000000" font-family="sans-serif" font-size="11" lengthAdjust="spacingAndGlyphs" textLength="108" x="1170.5" y="155.5073">TaxationConditions</text><text fill="#000000" font-family="sans-serif" font-size="11" font-style="italic" lengthAdjust="spacingAndGlyphs" textLength="77" x="1282.5" y="155.5073">(Max350Text)</text><ellipse cx="1161.5" cy="166.0039" fill="#84BE84" rx="3" ry="3" style="stroke: #038048; stroke-width: 1.0;"/><text fill="#000000" font-family="sans-serif" font-size="11" lengthAdjust="spacingAndGlyphs" textLength="72" x="1170.5" y="168.312">Identification</text><text fill="#000000" font-family="sans-serif" font-size="11" font-style="italic" lengthAdjust="spacingAndGlyphs" textLength="70" x="1246.5" y="168.312">(Max35Text)</text><ellipse cx="1161.5" cy="178.8086" fill="#84BE84" rx="3" ry="3" style="stroke: #038048; stroke-width: 1.0;"/><text fill="#000000" font-family="sans-serif" font-size="11" lengthAdjust="spacingAndGlyphs" textLength="116" x="1170.5" y="181.1167">TaxableBaseAmount</text><text fill="#000000" font-family="sans-serif" font-size="11" font-style="italic" lengthAdjust="spacingAndGlyphs" textLength="126" x="1290.5" y="181.1167">(CurrencyAndAmount)</text><ellipse cx="1161.5" cy="191.6133" fill="#84BE84" rx="3" ry="3" style="stroke: #038048; stroke-width: 1.0;"/><text fill="#000000" font-family="sans-serif" font-size="11" lengthAdjust="spacingAndGlyphs" textLength="46" x="1170.5" y="193.9214">TaxDate</text><text fill="#000000" font-family="sans-serif" font-size="11" font-style="italic" lengthAdjust="spacingAndGlyphs" textLength="53" x="1220.5" y="193.9214">(ISODate)</text><ellipse cx="1161.5" cy="204.418" fill="#84BE84" rx="3" ry="3" style="stroke: #038048; stroke-width: 1.0;"/><text fill="#000000" font-family="sans-serif" font-size="11" lengthAdjust="spacingAndGlyphs" textLength="130" x="1170.5" y="206.7261">CertificateIdentification</text><text fill="#000000" font-family="sans-serif" font-size="11" font-style="italic" lengthAdjust="spacingAndGlyphs" textLength="70" x="1304.5" y="206.7261">(Max35Text)</text><ellipse cx="1161.5" cy="217.2227" fill="#84BE84" rx="3" ry="3" style="stroke: #038048; stroke-width: 1.0;"/><text fill="#000000" font-family="sans-serif" font-size="11" lengthAdjust="spacingAndGlyphs" textLength="112" x="1170.5" y="219.5308">AdministrationZone</text><text fill="#000000" font-family="sans-serif" font-size="11" font-style="italic" lengthAdjust="spacingAndGlyphs" textLength="77" x="1286.5" y="219.5308">(Max140Text)</text><ellipse cx="1161.5" cy="230.0273" fill="#84BE84" rx="3" ry="3" style="stroke: #038048; stroke-width: 1.0;"/><text fill="#000000" font-family="sans-serif" font-size="11" lengthAdjust="spacingAndGlyphs" textLength="41" x="1170.5" y="232.3354">Method</text><text fill="#000000" font-family="sans-serif" font-size="11" font-style="italic" lengthAdjust="spacingAndGlyphs" textLength="70" x="1215.5" y="232.3354">(Max35Text)</text><ellipse cx="1161.5" cy="242.832" fill="#84BE84" rx="3" ry="3" style="stroke: #038048; stroke-width: 1.0;"/><text fill="#000000" font-family="sans-serif" font-size="11" lengthAdjust="spacingAndGlyphs" textLength="51" x="1170.5" y="245.1401">Currency</text><text fill="#000000" font-family="sans-serif" font-size="11" font-style="italic" lengthAdjust="spacingAndGlyphs" textLength="89" x="1225.5" y="245.1401">(CurrencyCode)</text><ellipse cx="1161.5" cy="255.6367" fill="#84BE84" rx="3" ry="3" style="stroke: #038048; stroke-width: 1.0;"/><text fill="#000000" font-family="sans-serif" font-size="11" lengthAdjust="spacingAndGlyphs" textLength="76" x="1170.5" y="257.9448">TaxDeduction</text><text fill="#000000" font-family="sans-serif" font-size="11" font-style="italic" lengthAdjust="spacingAndGlyphs" textLength="126" x="1250.5" y="257.9448">(CurrencyAndAmount)</text><ellipse cx="1161.5" cy="268.4414" fill="#84BE84" rx="3" ry="3" style="stroke: #038048; stroke-width: 1.0;"/><text fill="#000000" font-family="sans-serif" font-size="11" lengthAdjust="spacingAndGlyphs" textLength="88" x="1170.5" y="270.7495">CalculationDate</text><text fill="#000000" font-family="sans-serif" font-size="11" font-style="italic" lengthAdjust="spacingAndGlyphs" textLength="53" x="1262.5" y="270.7495">(ISODate)</text><ellipse cx="1161.5" cy="281.2461" fill="#84BE84" rx="3" ry="3" style="stroke: #038048; stroke-width: 1.0;"/><text fill="#000000" font-family="sans-serif" font-size="11" lengthAdjust="spacingAndGlyphs" textLength="111" x="1170.5" y="283.5542">WithholdingTaxType</text><text fill="#000000" font-family="sans-serif" font-size="11" font-style="italic" lengthAdjust="spacingAndGlyphs" textLength="178" x="1285.5" y="283.5542">(WithholdingTaxRateTypeCode)</text><ellipse cx="1161.5" cy="294.0508" fill="#84BE84" rx="3" ry="3" style="stroke: #038048; stroke-width: 1.0;"/><text fill="#000000" font-family="sans-serif" font-size="11" lengthAdjust="spacingAndGlyphs" textLength="119" x="1170.5" y="296.3589">TaxIdentificationType</text><text fill="#000000" font-family="sans-serif" font-size="11" font-style="italic" lengthAdjust="spacingAndGlyphs" textLength="203" x="1293.5" y="296.3589">(TaxIdentificationNumberTypeCode)</text><ellipse cx="1161.5" cy="306.8555" fill="#84BE84" rx="3" ry="3" style="stroke: #038048; stroke-width: 1.0;"/><text fill="#000000" font-family="sans-serif" font-size="11" lengthAdjust="spacingAndGlyphs" textLength="84" x="1170.5" y="309.1636">TaxRateMarker</text><text fill="#000000" font-family="sans-serif" font-size="11" font-style="italic" lengthAdjust="spacingAndGlyphs" textLength="123" x="1258.5" y="309.1636">(TaxRateMarkerCode)</text></a><!--class SecuritiesTax--><a target="_top" xlink:actuate="onRequest" xlink:href="../SecuritiesTax.html" xlink:show="new" xlink:title="Amount of money due to the government or tax authority, according to various pre-defined parameters such as thresholds or income." xlink:type="simple"><rect fill="#FEFEEE" filter="url(#fgzypb2dmz0ei)" height="23.9688" id="SecuritiesTax" style="stroke: #A80036; stroke-width: 1.5;" width="89" x="1413.75" y="394"/><rect fill="#FEFEEE" height="23.9688" style="stroke: #A80036; stroke-width: 1.5;" width="89" x="1413.75" y="394"/><text fill="#000000" font-family="sans-serif" font-size="12" lengthAdjust="spacingAndGlyphs" textLength="83" x="1416.75" y="410.1387">SecuritiesTax</text></a><!--class Country--><a target="_top" xlink:actuate="onRequest" xlink:href="../Country.html" xlink:show="new" xlink:title="Nation with its own government." xlink:type="simple"><rect fill="#EEEEEE" filter="url(#fgzypb2dmz0ei)" height="23.9688" id="Country" style="stroke: #A80036; stroke-width: 1.5;" width="54" x="427" y="166"/><rect fill="#EEEEEE" height="23.9688" style="stroke: #A80036; stroke-width: 1.5;" width="54" x="427" y="166"/><text fill="#000000" font-family="sans-serif" font-size="12" lengthAdjust="spacingAndGlyphs" textLength="48" x="430" y="182.1387">Country</text></a><!--class NetAssetValueCalculation--><a target="_top" xlink:actuate="onRequest" xlink:href="../NetAssetValueCalculation.html" xlink:show="new" xlink:title="Calculation of the net asset value for an investment fund/fund class." xlink:type="simple"><rect fill="#EEEEEE" filter="url(#fgzypb2dmz0ei)" height="23.9688" id="NetAssetValueCalculation" style="stroke: #A80036; stroke-width: 1.5;" width="167" x="419.75" y="1200"/><rect fill="#EEEEEE" height="23.9688" style="stroke: #A80036; stroke-width: 1.5;" width="167" x="419.75" y="1200"/><text fill="#000000" font-family="sans-serif" font-size="12" lengthAdjust="spacingAndGlyphs" textLength="161" x="422.75" y="1216.1387">NetAssetValueCalculation</text></a><!--class Party--><a target="_top" xlink:actuate="onRequest" xlink:href="../Party.html" xlink:show="new" xlink:title="Entity involved in an activity." xlink:type="simple"><rect fill="#EEEEEE" filter="url(#fgzypb2dmz0ei)" height="23.9688" id="Party" style="stroke: #A80036; stroke-width: 1.5;" width="38" x="535" y="1098"/><rect fill="#EEEEEE" height="23.9688" style="stroke: #A80036; stroke-width: 1.5;" width="38" x="535" y="1098"/><text fill="#000000" font-family="sans-serif" font-size="12" lengthAdjust="spacingAndGlyphs" textLength="32" x="538" y="1114.1387">Party</text></a><!--class SecuritiesTransfer--><a target="_top" xlink:actuate="onRequest" xlink:href="../SecuritiesTransfer.html" xlink:show="new" xlink:title="Completion of a securities settlement instruction, wherein securities are delivered/debited from a securities account and received/credited to the designated securities account." xlink:type="simple"><rect fill="#EEEEEE" filter="url(#fgzypb2dmz0ei)" height="23.9688" id="SecuritiesTransfer" style="stroke: #A80036; stroke-width: 1.5;" width="120" x="494.5" y="1012"/><rect fill="#EEEEEE" height="23.9688" style="stroke: #A80036; stroke-width: 1.5;" width="120" x="494.5" y="1012"/><text fill="#000000" font-family="sans-serif" font-size="12" lengthAdjust="spacingAndGlyphs" textLength="114" x="497.5" y="1028.1387">SecuritiesTransfer</text></a><!--class CashAccount--><a target="_top" xlink:actuate="onRequest" xlink:href="../CashAccount.html" xlink:show="new" xlink:title="Account to or from which a cash entry is made." xlink:type="simple"><rect fill="#EEEEEE" filter="url(#fgzypb2dmz0ei)" height="23.9688" id="CashAccount" style="stroke: #A80036; stroke-width: 1.5;" width="88" x="507.5" y="910"/><rect fill="#EEEEEE" height="23.9688" style="stroke: #A80036; stroke-width: 1.5;" width="88" x="507.5" y="910"/><text fill="#000000" font-family="sans-serif" font-size="12" lengthAdjust="spacingAndGlyphs" textLength="82" x="510.5" y="926.1387">CashAccount</text></a><!--class Adjustment--><a target="_top" xlink:actuate="onRequest" xlink:href="../Adjustment.html" xlink:show="new" xlink:title="Modification on the value of goods and / or services. For example: rebate, discount." xlink:type="simple"><rect fill="#EEEEEE" filter="url(#fgzypb2dmz0ei)" height="23.9688" id="Adjustment" style="stroke: #A80036; stroke-width: 1.5;" width="77" x="618.75" y="808"/><rect fill="#EEEEEE" height="23.9688" style="stroke: #A80036; stroke-width: 1.5;" width="77" x="618.75" y="808"/><text fill="#000000" font-family="sans-serif" font-size="12" lengthAdjust="spacingAndGlyphs" textLength="71" x="621.75" y="824.1387">Adjustment</text></a><!--class Interest--><a target="_top" xlink:actuate="onRequest" xlink:href="../Interest.html" xlink:show="new" xlink:title="Consideration, such as amount of money,  paid or received in exchange for an asset that has been invested, loaned or borrowed for a certain period. The interest is expressed as a fixed amount or percentage of the amount upon which the interest is applied." xlink:type="simple"><rect fill="#EEEEEE" filter="url(#fgzypb2dmz0ei)" height="23.9688" id="Interest" style="stroke: #A80036; stroke-width: 1.5;" width="55" x="457.75" y="706"/><rect fill="#EEEEEE" height="23.9688" style="stroke: #A80036; stroke-width: 1.5;" width="55" x="457.75" y="706"/><text fill="#000000" font-family="sans-serif" font-size="12" lengthAdjust="spacingAndGlyphs" textLength="49" x="460.75" y="722.1387">Interest</text></a><!--class Payment--><a target="_top" xlink:actuate="onRequest" xlink:href="../Payment.html" xlink:show="new" xlink:title="Payment information and processes required to transfer cash end to end from the debtor to the creditor." xlink:type="simple"><rect fill="#EEEEEE" filter="url(#fgzypb2dmz0ei)" height="23.9688" id="Payment" style="stroke: #A80036; stroke-width: 1.5;" width="60" x="559.5" y="602"/><rect fill="#EEEEEE" height="23.9688" style="stroke: #A80036; stroke-width: 1.5;" width="60" x="559.5" y="602"/><text fill="#000000" font-family="sans-serif" font-size="12" lengthAdjust="spacingAndGlyphs" textLength="54" x="562.5" y="618.1387">Payment</text></a><!--class TaxRecord--><a target="_top" xlink:actuate="onRequest" xlink:href="../TaxRecord.html" xlink:show="new" xlink:title="Record of tax details." xlink:type="simple"><rect fill="#EEEEEE" filter="url(#fgzypb2dmz0ei)" height="23.9688" id="TaxRecord" style="stroke: #A80036; stroke-width: 1.5;" width="71" x="553.75" y="498"/><rect fill="#EEEEEE" height="23.9688" style="stroke: #A80036; stroke-width: 1.5;" width="71" x="553.75" y="498"/><text fill="#000000" font-family="sans-serif" font-size="12" lengthAdjust="spacingAndGlyphs" textLength="65" x="556.75" y="514.1387">TaxRecord</text></a><!--class Product--><a target="_top" xlink:actuate="onRequest" xlink:href="../Product.html" xlink:show="new" xlink:title="Item that is offered for sale. Products can be services or goods." xlink:type="simple"><rect fill="#EEEEEE" filter="url(#fgzypb2dmz0ei)" height="23.9688" id="Product" style="stroke: #A80036; stroke-width: 1.5;" width="55" x="507.75" y="394"/><rect fill="#EEEEEE" height="23.9688" style="stroke: #A80036; stroke-width: 1.5;" width="55" x="507.75" y="394"/><text fill="#000000" font-family="sans-serif" font-size="12" lengthAdjust="spacingAndGlyphs" textLength="49" x="510.75" y="410.1387">Product</text></a><!--class CurrencyExchange--><a target="_top" xlink:actuate="onRequest" xlink:href="../CurrencyExchange.html" xlink:show="new" xlink:title="Information needed to process a currency exchange or conversion." xlink:type="simple"><rect fill="#EEEEEE" filter="url(#fgzypb2dmz0ei)" height="23.9688" id="CurrencyExchange" style="stroke: #A80036; stroke-width: 1.5;" width="122" x="630" y="910"/><rect fill="#EEEEEE" height="23.9688" style="stroke: #A80036; stroke-width: 1.5;" width="122" x="630" y="910"/><text fill="#000000" font-family="sans-serif" font-size="12" lengthAdjust="spacingAndGlyphs" textLength="116" x="633" y="926.1387">CurrencyExchange</text></a><!--class TaxPartyRole--><a target="_top" xlink:actuate="onRequest" xlink:href="../TaxPartyRole.html" xlink:show="new" xlink:title="Role played by a party in the context of a tax due." xlink:type="simple"><rect fill="#EEEEEE" filter="url(#fgzypb2dmz0ei)" height="23.9688" id="TaxPartyRole" style="stroke: #A80036; stroke-width: 1.5;" width="86" x="682" y="1286"/><rect fill="#EEEEEE" height="23.9688" style="stroke: #A80036; stroke-width: 1.5;" width="86" x="682" y="1286"/><text fill="#000000" font-family="sans-serif" font-size="12" lengthAdjust="spacingAndGlyphs" textLength="80" x="685" y="1302.1387">TaxPartyRole</text></a><!--class Distribution--><a target="_top" xlink:actuate="onRequest" xlink:href="../Distribution.html" xlink:show="new" xlink:title="Distributions in cash and/or securities following a corporate event." xlink:type="simple"><rect fill="#EEEEEE" filter="url(#fgzypb2dmz0ei)" height="23.9688" id="Distribution" style="stroke: #A80036; stroke-width: 1.5;" width="78" x="686" y="1200"/><rect fill="#EEEEEE" height="23.9688" style="stroke: #A80036; stroke-width: 1.5;" width="78" x="686" y="1200"/><text fill="#000000" font-family="sans-serif" font-size="12" lengthAdjust="spacingAndGlyphs" textLength="72" x="689" y="1216.1387">Distribution</text></a><!--class Dividend--><a target="_top" xlink:actuate="onRequest" xlink:href="../Dividend.html" xlink:show="new" xlink:title="Distribution of earnings to shareholders, paid for in cash, stock, scrip issue or, rarely, in kind, for example, in company products or property. The dividend amount is decided by the board of directors." xlink:type="simple"><rect fill="#EEEEEE" filter="url(#fgzypb2dmz0ei)" height="23.9688" id="Dividend" style="stroke: #A80036; stroke-width: 1.5;" width="59" x="734.75" y="1098"/><rect fill="#EEEEEE" height="23.9688" style="stroke: #A80036; stroke-width: 1.5;" width="59" x="734.75" y="1098"/><text fill="#000000" font-family="sans-serif" font-size="12" lengthAdjust="spacingAndGlyphs" textLength="53" x="737.75" y="1114.1387">Dividend</text></a><!--class CorporateActionEvent--><a target="_top" xlink:actuate="onRequest" xlink:href="../CorporateActionEvent.html" xlink:show="new" xlink:title="An event determined by a corporation's board of directors, that changes the existing corporate capital structure or financial condition." xlink:type="simple"><rect fill="#EEEEEE" filter="url(#fgzypb2dmz0ei)" height="23.9688" id="CorporateActionEvent" style="stroke: #A80036; stroke-width: 1.5;" width="143" x="686.75" y="1012"/><rect fill="#EEEEEE" height="23.9688" style="stroke: #A80036; stroke-width: 1.5;" width="143" x="686.75" y="1012"/><text fill="#000000" font-family="sans-serif" font-size="12" lengthAdjust="spacingAndGlyphs" textLength="137" x="689.75" y="1028.1387">CorporateActionEvent</text></a><!--link Tax to SecuritiesTax--><path d="M1415.94,332.98 C1430.96,358.697 1444.06,381.137 1451.5,393.87 " fill="none" id="Tax-SecuritiesTax" style="stroke: #A80036; stroke-width: 1.0;"/><polygon fill="none" points="1409.87,336.48,1405.83,315.68,1421.96,329.42,1409.87,336.48" style="stroke: #A80036; stroke-width: 1.0;"/><!--link NetAssetValueCalculation to Country--><!--link Party to NetAssetValueCalculation--><!--link SecuritiesTransfer to Party--><!--link CashAccount to SecuritiesTransfer--><!--link Adjustment to CashAccount--><!--link Interest to Adjustment--><!--link Payment to Interest--><!--link TaxRecord to Payment--><!--link Product to TaxRecord--><!--link CurrencyExchange to Product--><!--link TaxPartyRole to CurrencyExchange--><!--link Distribution to TaxPartyRole--><!--link Dividend to Distribution--><!--link Distribution to Dividend--><path d="M729.342,1199.867 C736.265,1182.114 749.833,1147.325 757.784,1126.938 " fill="none" id="Distribution-Dividend" style="stroke: #A80036; stroke-width: 1.0;"/><polygon fill="#A80036" points="759.677,1122.084,752.6799,1129.0151,757.86,1126.7422,760.133,1131.9223,759.677,1122.084" style="stroke: #A80036; stroke-width: 1.0;"/><text fill="#000000" font-family="sans-serif" font-size="13" lengthAdjust="spacingAndGlyphs" textLength="55" x="749" y="1165.0669">Dividend</text><text fill="#000000" font-family="sans-serif" font-size="13" lengthAdjust="spacingAndGlyphs" textLength="8" x="746.7281" y="1142.2631">1</text><!--link CorporateActionEvent to Dividend--><!--link Tax to Country--><path d="M1150.38,178 C937.052,178 592.477,178 486.229,178 " fill="none" id="Tax-Country" style="stroke: #A80036; stroke-width: 1.0;"/><polygon fill="#A80036" points="481.053,178,490.053,182,486.053,178,490.053,174,481.053,178" style="stroke: #A80036; stroke-width: 1.0;"/><text fill="#000000" font-family="sans-serif" font-size="13" lengthAdjust="spacingAndGlyphs" textLength="50" x="790" y="170.0669">Country</text><text fill="#000000" font-family="sans-serif" font-size="13" lengthAdjust="spacingAndGlyphs" textLength="8" x="489.0103" y="171.9098">1</text><!--link Tax to NetAssetValueCalculation--><path d="M1501.65,217.14 C1596.35,249.15 1694,306.13 1694,405 C1694,405 1694,405 1694,1111 C1694,1124.829 867.465,1185.016 591.497,1204.726 " fill="none" id="Tax-NetAssetValueCalculation" style="stroke: #A80036; stroke-width: 1.0;"/><polygon fill="#A80036" points="586.275,1205.099,595.5368,1208.4486,591.2623,1204.7433,594.9676,1200.4688,586.275,1205.099" style="stroke: #A80036; stroke-width: 1.0;"/><text fill="#000000" font-family="sans-serif" font-size="13" lengthAdjust="spacingAndGlyphs" textLength="175" x="1695" y="773.0669">TaxLiabilityValueCalculation</text><text fill="#000000" font-family="sans-serif" font-size="13" lengthAdjust="spacingAndGlyphs" textLength="24" x="594.7382" y="1199.8015">0..1</text><!--link Tax to NetAssetValueCalculation--><path d="M1150.27,235.67 C1060.07,263.08 947.99,294.61 846,316 C749.419,336.26 721.317,320.45 626,346 C605.592,351.471 602.294,358.12 582,364 C508.728,385.229 481.041,359.506 413,394 C179.73,512.257 6,557.466 6,819 C6,819 6,819 6,1111 C6,1193.362 271.634,1208.745 414.503,1211.063 " fill="none" id="Tax-NetAssetValueCalculation" style="stroke: #A80036; stroke-width: 1.0;"/><polygon fill="#A80036" points="419.533,1211.14,410.5958,1207.0016,414.5336,1211.0629,410.4724,1215.0007,419.533,1211.14" style="stroke: #A80036; stroke-width: 1.0;"/><text fill="#000000" font-family="sans-serif" font-size="13" lengthAdjust="spacingAndGlyphs" textLength="172" x="10" y="773.0669">TaxRefundValueCalculation</text><text fill="#000000" font-family="sans-serif" font-size="13" lengthAdjust="spacingAndGlyphs" textLength="24" x="387.7326" y="1206.5545">0..1</text><!--link Tax to Party--><path d="M1501.78,288.17 C1533.12,320.62 1556,359.795 1556,405 C1556,405 1556,405 1556,668 C1556,860.399 1440.07,919.808 1258,982 C1001.032,1069.777 669.472,1100.257 578.181,1107.284 " fill="none" id="Tax-Party" style="stroke: #A80036; stroke-width: 1.0;"/><polygon fill="#A80036" points="573.014,1107.676,582.291,1110.9831,577.9996,1107.2974,581.6853,1103.0061,573.014,1107.676" style="stroke: #A80036; stroke-width: 1.0;"/><text fill="#000000" font-family="sans-serif" font-size="13" lengthAdjust="spacingAndGlyphs" textLength="82" x="1556" y="722.0669">TaxableParty</text><text fill="#000000" font-family="sans-serif" font-size="13" lengthAdjust="spacingAndGlyphs" textLength="24" x="580.9613" y="1100.9903">0..1</text><!--link Tax to SecuritiesTransfer--><path d="M1237.68,315.65 C1226.02,344.088 1218,374.668 1218,405 C1218,405 1218,405 1218,562 C1218,644.959 1114,634.041 1114,717 C1114,717 1114,717 1114,923 C1114,1008.879 1014,964.144 930,982 C900.422,988.288 718.736,1006.754 619.154,1016.618 " fill="none" id="Tax-SecuritiesTransfer" style="stroke: #A80036; stroke-width: 1.0;"/><polygon fill="#A80036" points="613.889,1017.139,623.2395,1020.2324,618.8647,1016.6461,622.4509,1012.2713,613.889,1017.139" style="stroke: #A80036; stroke-width: 1.0;"/><text fill="#000000" font-family="sans-serif" font-size="13" lengthAdjust="spacingAndGlyphs" textLength="115" x="1142" y="671.0669">SecuritiesTransfer</text><text fill="#000000" font-family="sans-serif" font-size="13" lengthAdjust="spacingAndGlyphs" textLength="24" x="622.5895" y="1011.3438">0..1</text><!--link Tax to CashAccount--><path d="M1176.13,315.64 C1150.33,340.98 1124.34,367.76 1101,394 C1050.7,450.553 896,590.311 896,666 C896,666 896,666 896,821 C896,851.479 694.794,893.726 599.695,911.992 " fill="none" id="Tax-CashAccount" style="stroke: #A80036; stroke-width: 1.0;"/><polygon fill="#A80036" points="594.694,912.949,604.2855,915.1859,599.6049,912.0091,602.7816,907.3285,594.694,912.949" style="stroke: #A80036; stroke-width: 1.0;"/><text fill="#000000" font-family="sans-serif" font-size="13" lengthAdjust="spacingAndGlyphs" textLength="74" x="922" y="618.0669">TaxAccount</text><text fill="#000000" font-family="sans-serif" font-size="13" lengthAdjust="spacingAndGlyphs" textLength="7" x="603.595" y="905.6859">*</text><!--link Tax to Adjustment--><path d="M1150.16,239.89 C1097.57,265.54 1043.89,300.29 1006,346 C969.84,389.623 1001.196,421.375 969,468 C934.247,518.328 890.893,499.215 860,552 C808.848,639.4 898.621,702.617 831,778 C813.889,797.075 746.451,808.601 700.734,814.38 " fill="none" id="Tax-Adjustment" style="stroke: #A80036; stroke-width: 1.0;"/><polygon fill="#A80036" points="695.549,815.023,704.973,817.8845,700.511,814.4074,703.988,809.9453,695.549,815.023" style="stroke: #A80036; stroke-width: 1.0;"/><text fill="#000000" font-family="sans-serif" font-size="13" lengthAdjust="spacingAndGlyphs" textLength="74" x="861" y="565.0669">Adjustment</text><text fill="#000000" font-family="sans-serif" font-size="13" lengthAdjust="spacingAndGlyphs" textLength="8" x="703.8766" y="808.4528">1</text><!--link Tax to Interest--><path d="M1150.33,226.97 C1044.75,261.68 911.78,316.25 811,394 C788.086,411.678 788.767,422.928 767,442 C720.91,482.383 580.642,553.271 541,600 C514.59,631.132 497.501,676.845 489.777,700.876 " fill="none" id="Tax-Interest" style="stroke: #A80036; stroke-width: 1.0;"/><polygon fill="#A80036" points="488.185,705.941,494.6992,698.5542,489.684,701.171,487.0672,696.1558,488.185,705.941" style="stroke: #A80036; stroke-width: 1.0;"/><text fill="#000000" font-family="sans-serif" font-size="13" lengthAdjust="spacingAndGlyphs" textLength="49" x="685" y="514.0669">Interest</text><text fill="#000000" font-family="sans-serif" font-size="13" lengthAdjust="spacingAndGlyphs" textLength="24" x="459.7252" y="694.9689">0..1</text><!--link Tax to Payment--><path d="M1150.24,242.24 C1081.09,270.12 1002.3,305.73 935,346 C876.39,381.069 875.966,411.21 815,442 C802.682,448.221 795.39,440.919 785,450 C758.899,472.814 777.283,495.444 755,522 C720.023,563.684 660.854,589.513 623.415,602.561 " fill="none" id="Tax-Payment" style="stroke: #A80036; stroke-width: 1.0;"/><polygon fill="#A80036" points="618.508,604.241,628.3184,605.11,623.2384,602.6214,625.727,597.5413,618.508,604.241" style="stroke: #A80036; stroke-width: 1.0;"/><text fill="#000000" font-family="sans-serif" font-size="13" lengthAdjust="spacingAndGlyphs" textLength="177" x="786" y="463.0669">RelatedPaymentSettlement</text><text fill="#000000" font-family="sans-serif" font-size="13" lengthAdjust="spacingAndGlyphs" textLength="24" x="627.4785" y="596.3317">0..1</text><!--link Tax to TaxRecord--><path d="M1150.35,212.58 C1021.09,243.69 845.983,299.72 716,394 C671.843,426.027 625.777,471.184 603.198,494.223 " fill="none" id="Tax-TaxRecord" style="stroke: #A80036; stroke-width: 1.0;"/><polygon fill="#A80036" points="599.52,497.993,608.6681,494.3444,603.0117,494.4142,602.942,488.7577,599.52,497.993" style="stroke: #A80036; stroke-width: 1.0;"/><text fill="#000000" font-family="sans-serif" font-size="13" lengthAdjust="spacingAndGlyphs" textLength="44" x="717" y="410.0669">Record</text><text fill="#000000" font-family="sans-serif" font-size="13" lengthAdjust="spacingAndGlyphs" textLength="23" x="574.7534" y="487.0388">1..*</text><!--link Tax to Product--><path d="M1150.46,232.54 C1059.95,259.27 947.53,291.12 846,316 C781.659,331.77 762.602,324.34 700,346 C683.095,351.85 680.574,357.27 664,364 C631.85,377.054 593.872,388.689 567.484,396.199 " fill="none" id="Tax-Product" style="stroke: #A80036; stroke-width: 1.0;"/><polygon fill="#A80036" points="562.366,397.646,572.1147,399.0472,567.1775,396.286,569.9387,391.3488,562.366,397.646" style="stroke: #A80036; stroke-width: 1.0;"/><text fill="#000000" font-family="sans-serif" font-size="13" lengthAdjust="spacingAndGlyphs" textLength="49" x="701" y="359.0669">Product</text><text fill="#000000" font-family="sans-serif" font-size="13" lengthAdjust="spacingAndGlyphs" textLength="8" x="570.7284" y="389.2054">1</text><!--link Tax to CurrencyExchange--><path d="M1194.86,315.6 C1120.83,407.2 1043,534.72 1043,666 C1043,666 1043,666 1043,821 C1043,879.726 859.415,905.785 757.409,915.732 " fill="none" id="Tax-CurrencyExchange" style="stroke: #A80036; stroke-width: 1.0;"/><polygon fill="#A80036" points="752.314,916.222,761.6555,919.3422,757.291,915.7434,760.8898,911.379,752.314,916.222" style="stroke: #A80036; stroke-width: 1.0;"/><text fill="#000000" font-family="sans-serif" font-size="13" lengthAdjust="spacingAndGlyphs" textLength="119" x="1051" y="618.0669">CurrencyExchange</text><text fill="#000000" font-family="sans-serif" font-size="13" lengthAdjust="spacingAndGlyphs" textLength="7" x="759.8081" y="910.6475">*</text><!--link Tax to TaxPartyRole--><path d="M1501.75,213.65 C1668.9,251.79 1895,319.24 1895,405 C1895,405 1895,405 1895,1213 C1895,1270.2073 993.367,1291.708 773.104,1296.1069 " fill="none" id="Tax-TaxPartyRole" style="stroke: #A80036; stroke-width: 1.0;"/><polygon fill="#A80036" points="768.029,1296.2077,777.1061,1300.0295,773.028,1296.1091,776.9484,1292.031,768.029,1296.2077" style="stroke: #A80036; stroke-width: 1.0;"/><text fill="#000000" font-family="sans-serif" font-size="13" lengthAdjust="spacingAndGlyphs" textLength="60" x="1896" y="824.0669">PartyRole</text><text fill="#000000" font-family="sans-serif" font-size="13" lengthAdjust="spacingAndGlyphs" textLength="7" x="776.0262" y="1290.5197">*</text><!--link Tax to Distribution--><path d="M1150.26,234.27 C1059.95,261.37 947.757,293.03 846,316 C767.315,333.76 744.586,323.93 667,346 C646.678,351.782 643.153,357.653 623,364 C565.202,382.202 540.909,361.134 490,394 C318.836,504.501 278.679,566.805 214,760 C209.378,773.805 221,815.279 221,819 C221,819 221,819 221,1111 C221,1157.688 558.046,1194.89 680.888,1206.899 " fill="none" id="Tax-Distribution" style="stroke: #A80036; stroke-width: 1.0;"/><polygon fill="#A80036" points="685.871,1207.384,677.3008,1202.531,680.8945,1206.8996,676.5258,1210.4933,685.871,1207.384" style="stroke: #A80036; stroke-width: 1.0;"/><text fill="#000000" font-family="sans-serif" font-size="13" lengthAdjust="spacingAndGlyphs" textLength="225" x="215" y="773.0669">RelatedCorporateActionDistribution</text><text fill="#000000" font-family="sans-serif" font-size="13" lengthAdjust="spacingAndGlyphs" textLength="24" x="653.8662" y="1201.6995">0..1</text><!--link Tax to Dividend--><path d="M1363.33,315.6 C1392.45,434.237 1428,611.164 1428,768 C1428,768 1428,768 1428,1025 C1428,1089.101 934.661,1105.107 798.463,1108.304 " fill="none" id="Tax-Dividend" style="stroke: #A80036; stroke-width: 1.0;"/><polygon fill="#A80036" points="793.388,1108.421,802.4781,1112.2117,798.3867,1108.3053,802.293,1104.2138,793.388,1108.421" style="stroke: #A80036; stroke-width: 1.0;"/><text fill="#000000" font-family="sans-serif" font-size="13" lengthAdjust="spacingAndGlyphs" textLength="55" x="1429" y="722.0669">Dividend</text><text fill="#000000" font-family="sans-serif" font-size="13" lengthAdjust="spacingAndGlyphs" textLength="7" x="801.7515" y="1101.9262">*</text><!--link Tax to CorporateActionEvent--><path d="M1296.35,315.56 C1292.03,344.917 1289,375.877 1289,405 C1289,405 1289,405 1289,562 C1289,605.583 1273.47,614.647 1269,658 C1268.18,665.958 1268.71,668.005 1269,676 C1269.67,694.259 1272,698.729 1272,717 C1272,717 1272,717 1272,923 C1272,1011.047 977.723,1023.104 834.5,1023.759 " fill="none" id="Tax-CorporateActionEvent" style="stroke: #A80036; stroke-width: 1.0;"/><polygon fill="#A80036" points="829.469,1023.777,838.4838,1027.7435,834.469,1023.7584,838.4541,1019.7436,829.469,1023.777" style="stroke: #A80036; stroke-width: 1.0;"/><text fill="#000000" font-family="sans-serif" font-size="13" lengthAdjust="spacingAndGlyphs" textLength="140" x="1270" y="671.0669">CorporateActionEvent</text><text fill="#000000" font-family="sans-serif" font-size="13" lengthAdjust="spacingAndGlyphs" textLength="8" x="837.6961" y="1018.8988">1</text><!--link Country to Product--><path d="M458.017,190.21 C471.299,227.27 513.835,345.947 529.306,389.112 " fill="none" id="Country-Product" style="stroke: #A80036; stroke-width: 1.0;"/><polygon fill="#A80036" points="531.054,393.991,531.7828,384.1691,529.367,389.2842,524.2519,386.8684,531.054,393.991" style="stroke: #A80036; stroke-width: 1.0;"/><text fill="#000000" font-family="sans-serif" font-size="13" lengthAdjust="spacingAndGlyphs" textLength="116" x="521" y="359.0669">ProducedProducts</text><text fill="#000000" font-family="sans-serif" font-size="13" lengthAdjust="spacingAndGlyphs" textLength="7" x="520.0648" y="383.0361">*</text><!--link NetAssetValueCalculation to Interest--><path d="M500.621,1199.604 C494.953,1171.804 480.772,1098.222 476,1036 C467.183,921.033 478.815,782.016 483.339,735.242 " fill="none" id="NetAssetValueCalculation-Interest" style="stroke: #A80036; stroke-width: 1.0;"/><polygon fill="#A80036" points="483.829,730.251,478.9687,738.817,483.3404,735.2271,486.9304,739.5988,483.829,730.251" style="stroke: #A80036; stroke-width: 1.0;"/><text fill="#000000" font-family="sans-serif" font-size="13" lengthAdjust="spacingAndGlyphs" textLength="49" x="475" y="977.0669">Interest</text><text fill="#000000" font-family="sans-serif" font-size="13" lengthAdjust="spacingAndGlyphs" textLength="7" x="473.4976" y="750.1272">*</text><!--link CashAccount to Payment--><path d="M552.37,909.967 C558.092,863.889 580.1,686.671 586.951,631.496 " fill="none" id="CashAccount-Payment" style="stroke: #A80036; stroke-width: 1.0;"/><polygon fill="#A80036" points="587.602,626.254,582.5241,634.6929,586.9862,631.2159,590.4632,635.6781,587.602,626.254" style="stroke: #A80036; stroke-width: 1.0;"/><text fill="#000000" font-family="sans-serif" font-size="13" lengthAdjust="spacingAndGlyphs" textLength="57" x="572" y="773.0669">Payment</text><text fill="#000000" font-family="sans-serif" font-size="13" lengthAdjust="spacingAndGlyphs" textLength="8" x="575.8859" y="646.1313">1</text><!--link Adjustment to Payment--><path d="M657.641,807.953 C658.059,795.968 657.935,776.354 654,760 C642.032,710.257 613.291,656.488 598.36,630.631 " fill="none" id="Adjustment-Payment" style="stroke: #A80036; stroke-width: 1.0;"/><polygon fill="#A80036" points="595.74,626.136,596.8173,635.9258,598.2583,630.4555,603.7285,631.8965,595.74,626.136" style="stroke: #A80036; stroke-width: 1.0;"/><text fill="#000000" font-family="sans-serif" font-size="13" lengthAdjust="spacingAndGlyphs" textLength="57" x="646" y="722.0669">Payment</text><text fill="#000000" font-family="sans-serif" font-size="13" lengthAdjust="spacingAndGlyphs" textLength="7" x="588.4251" y="645.9669">*</text><!--link Adjustment to CurrencyExchange--><path d="M633.356,832.069 C613.089,843.158 588.928,861.234 601,880 C609.346,892.973 622.919,901.891 637.022,908.001 " fill="none" id="Adjustment-CurrencyExchange" style="stroke: #A80036; stroke-width: 1.0;"/><polygon fill="#A80036" points="641.819,909.967,635.0092,902.8518,637.1927,908.0702,631.9743,910.2538,641.819,909.967" style="stroke: #A80036; stroke-width: 1.0;"/><text fill="#000000" font-family="sans-serif" font-size="13" lengthAdjust="spacingAndGlyphs" textLength="119" x="602" y="875.0669">CurrencyExchange</text><text fill="#000000" font-family="sans-serif" font-size="13" lengthAdjust="spacingAndGlyphs" textLength="8" x="614.1943" y="899.0039">1</text><!--link Payment to CurrencyExchange--><path d="M615.07,626.015 C644.445,639.947 690.959,666.927 713,706 C751.118,773.574 754.351,807.398 727,880 C723.281,889.873 715.984,898.915 708.926,905.981 " fill="none" id="Payment-CurrencyExchange" style="stroke: #A80036; stroke-width: 1.0;"/><polygon fill="#A80036" points="705.054,909.696,714.318,906.3525,708.6623,906.2348,708.78,900.5792,705.054,909.696" style="stroke: #A80036; stroke-width: 1.0;"/><text fill="#000000" font-family="sans-serif" font-size="13" lengthAdjust="spacingAndGlyphs" textLength="119" x="744" y="773.0669">CurrencyExchange</text><text fill="#000000" font-family="sans-serif" font-size="13" lengthAdjust="spacingAndGlyphs" textLength="7" x="700.2188" y="898.8987">*</text><!--link Payment to Payment--><path d="M618.625,604.859 C636.333,602.828 653,605.875 653,614 C653,621.3 639.547,624.501 623.972,623.602 " fill="none" id="Payment-Payment" style="stroke: #A80036; stroke-width: 1.0;"/><polygon fill="#A80036" points="618.625,623.141,627.2477,627.9002,623.6065,623.571,627.9357,619.9298,618.625,623.141" style="stroke: #A80036; stroke-width: 1.0;"/><text fill="#000000" font-family="sans-serif" font-size="13" lengthAdjust="spacingAndGlyphs" textLength="105" x="659" y="618.0669">OriginalPayment</text><text fill="#000000" font-family="sans-serif" font-size="13" lengthAdjust="spacingAndGlyphs" textLength="8" x="627.5273" y="619.4022">1</text><!--link CurrencyExchange to CorporateActionEvent--><path d="M698.426,934.084 C710.399,951.954 734.002,987.182 747.629,1007.521 " fill="none" id="CurrencyExchange-CorporateActionEvent" style="stroke: #A80036; stroke-width: 1.0;"/><polygon fill="#A80036" points="750.541,1011.867,748.8538,1002.1637,747.7576,1007.7134,742.208,1006.6171,750.541,1011.867" style="stroke: #A80036; stroke-width: 1.0;"/><text fill="#000000" font-family="sans-serif" font-size="13" lengthAdjust="spacingAndGlyphs" textLength="188" x="732" y="977.0669">RelatedCorporateActionEvent</text><text fill="#000000" font-family="sans-serif" font-size="13" lengthAdjust="spacingAndGlyphs" textLength="8" x="737.1723" y="1000.8695">1</text></g></svg>