<?xml version="1.0" encoding="UTF-8" standalone="no"?><svg xmlns="http://www.w3.org/2000/svg" xmlns:xlink="http://www.w3.org/1999/xlink" contentScriptType="application/ecmascript" contentStyleType="text/css" height="498px" preserveAspectRatio="none" style="width:922px;height:498px;" version="1.1" viewBox="0 0 922 498" width="922px" zoomAndPan="magnify"><defs><filter height="300%" id="f1sjuvhdhoo0xn" width="300%" x="-1" y="-1"><feGaussianBlur result="blurOut" stdDeviation="2.0"/><feColorMatrix in="blurOut" result="blurOut2" type="matrix" values="0 0 0 0 0 0 0 0 0 0 0 0 0 0 0 0 0 0 .4 0"/><feOffset dx="4.0" dy="4.0" in="blurOut2" result="blurOut3"/><feBlend in="SourceGraphic" in2="blurOut3" mode="normal"/></filter></defs><g><!--cluster ##9210--><!--cluster ##9225--><!--cluster ##9234--><!--class Role--><a target="_top" xlink:actuate="onRequest" xlink:href="../Role.html" xlink:show="new" xlink:title="Role of a party in an activity." xlink:type="simple"><rect fill="#FEFEEE" filter="url(#f1sjuvhdhoo0xn)" height="44.7734" id="Role" style="stroke: #A80036; stroke-width: 1.5;" width="175" x="258.75" y="40.5"/><rect fill="#FEFEEE" height="23.9688" style="stroke: #A80036; stroke-width: 1.5;" width="175" x="258.75" y="40.5"/><text fill="#000000" font-family="sans-serif" font-size="12" lengthAdjust="spacingAndGlyphs" textLength="27" x="332.75" y="56.6387">Role</text><line style="stroke: #A80036; stroke-width: 1.5;" x1="259.75" x2="432.75" y1="64.4688" y2="64.4688"/><ellipse cx="269.75" cy="76.3711" fill="#84BE84" rx="3" ry="3" style="stroke: #038048; stroke-width: 1.0;"/><text fill="#000000" font-family="sans-serif" font-size="11" lengthAdjust="spacingAndGlyphs" textLength="53" x="278.75" y="78.6792">PartyRole</text><text fill="#000000" font-family="sans-serif" font-size="11" font-style="italic" lengthAdjust="spacingAndGlyphs" textLength="92" x="335.75" y="78.6792">(PartyRoleCode)</text></a><!--class TaxPartyRole--><a target="_top" xlink:actuate="onRequest" xlink:href="../TaxPartyRole.html" xlink:show="new" xlink:title="Role played by a party in the context of a tax due." xlink:type="simple"><rect fill="#FEFECE" filter="url(#f1sjuvhdhoo0xn)" height="44.7734" id="TaxPartyRole" style="stroke: #A80036; stroke-width: 1.5;" width="234" x="200" y="164.5"/><rect fill="#FEFECE" height="23.9688" style="stroke: #A80036; stroke-width: 1.5;" width="234" x="200" y="164.5"/><text fill="#000000" font-family="sans-serif" font-size="12" lengthAdjust="spacingAndGlyphs" textLength="80" x="277" y="180.6387">TaxPartyRole</text><line style="stroke: #A80036; stroke-width: 1.5;" x1="201" x2="433" y1="188.4688" y2="188.4688"/><ellipse cx="211" cy="200.3711" fill="#84BE84" rx="3" ry="3" style="stroke: #038048; stroke-width: 1.0;"/><text fill="#000000" font-family="sans-serif" font-size="11" lengthAdjust="spacingAndGlyphs" textLength="134" x="220" y="202.6792">VATRegistrationNumber</text><text fill="#000000" font-family="sans-serif" font-size="11" font-style="italic" lengthAdjust="spacingAndGlyphs" textLength="70" x="358" y="202.6792">(Max35Text)</text></a><!--class CreditSideTaxDebtor--><a target="_top" xlink:actuate="onRequest" xlink:href="../CreditSideTaxDebtor.html" xlink:show="new" xlink:title="Party on the credit side of the transaction to which the tax applies." xlink:type="simple"><rect fill="#FEFEEE" filter="url(#f1sjuvhdhoo0xn)" height="23.9688" id="CreditSideTaxDebtor" style="stroke: #A80036; stroke-width: 1.5;" width="134" x="38" y="290"/><rect fill="#FEFEEE" height="23.9688" style="stroke: #A80036; stroke-width: 1.5;" width="134" x="38" y="290"/><text fill="#000000" font-family="sans-serif" font-size="12" lengthAdjust="spacingAndGlyphs" textLength="128" x="41" y="306.1387">CreditSideTaxDebtor</text></a><!--class TaxPayer--><a target="_top" xlink:actuate="onRequest" xlink:href="../TaxPayer.html" xlink:show="new" xlink:title="Party that settles tax amounts. May be different from the tax debtor and tax creditor." xlink:type="simple"><rect fill="#FEFEEE" filter="url(#f1sjuvhdhoo0xn)" height="23.9688" id="TaxPayer" style="stroke: #A80036; stroke-width: 1.5;" width="62" x="207.5" y="290"/><rect fill="#FEFEEE" height="23.9688" style="stroke: #A80036; stroke-width: 1.5;" width="62" x="207.5" y="290"/><text fill="#000000" font-family="sans-serif" font-size="12" lengthAdjust="spacingAndGlyphs" textLength="56" x="210.5" y="306.1387">TaxPayer</text></a><!--class DebitSideTaxDebtor--><a target="_top" xlink:actuate="onRequest" xlink:href="../DebitSideTaxDebtor.html" xlink:show="new" xlink:title="Party on the debit side of the transaction to which the tax applies." xlink:type="simple"><rect fill="#FEFEEE" filter="url(#f1sjuvhdhoo0xn)" height="23.9688" id="DebitSideTaxDebtor" style="stroke: #A80036; stroke-width: 1.5;" width="130" x="304" y="290"/><rect fill="#FEFEEE" height="23.9688" style="stroke: #A80036; stroke-width: 1.5;" width="130" x="304" y="290"/><text fill="#000000" font-family="sans-serif" font-size="12" lengthAdjust="spacingAndGlyphs" textLength="124" x="307" y="306.1387">DebitSideTaxDebtor</text></a><!--class RolePlayer--><a target="_top" xlink:actuate="onRequest" xlink:href="../RolePlayer.html" xlink:show="new" xlink:title="Type of entity that plays a specific role in a specific context." xlink:type="simple"><rect fill="#EEEEEE" filter="url(#f1sjuvhdhoo0xn)" height="23.9688" id="RolePlayer" style="stroke: #A80036; stroke-width: 1.5;" width="71" x="731.75" y="464"/><rect fill="#EEEEEE" height="23.9688" style="stroke: #A80036; stroke-width: 1.5;" width="71" x="731.75" y="464"/><text fill="#000000" font-family="sans-serif" font-size="12" lengthAdjust="spacingAndGlyphs" textLength="65" x="734.75" y="480.1387">RolePlayer</text></a><!--class ContactPersonRole--><a target="_top" xlink:actuate="onRequest" xlink:href="../ContactPersonRole.html" xlink:show="new" xlink:title="Person to be contacted in a given organisation. In the corporate action domain (including meeting notifications) , it is the contact person at the party organising the meeting, at the issuer or at an intermediary." xlink:type="simple"><rect fill="#EEEEEE" filter="url(#f1sjuvhdhoo0xn)" height="23.9688" id="ContactPersonRole" style="stroke: #A80036; stroke-width: 1.5;" width="126" x="724" y="378"/><rect fill="#EEEEEE" height="23.9688" style="stroke: #A80036; stroke-width: 1.5;" width="126" x="724" y="378"/><text fill="#000000" font-family="sans-serif" font-size="12" lengthAdjust="spacingAndGlyphs" textLength="120" x="727" y="394.1387">ContactPersonRole</text></a><!--class CounterpartyRisk--><a target="_top" xlink:actuate="onRequest" xlink:href="../CounterpartyRisk.html" xlink:show="new" xlink:title="Calculation of the exposure amount that one party has vis-a-vis one counterparty or a central system, based on its credit risk." xlink:type="simple"><rect fill="#EEEEEE" filter="url(#f1sjuvhdhoo0xn)" height="23.9688" id="CounterpartyRisk" style="stroke: #A80036; stroke-width: 1.5;" width="113" x="736.75" y="290"/><rect fill="#EEEEEE" height="23.9688" style="stroke: #A80036; stroke-width: 1.5;" width="113" x="736.75" y="290"/><text fill="#000000" font-family="sans-serif" font-size="12" lengthAdjust="spacingAndGlyphs" textLength="107" x="739.75" y="306.1387">CounterpartyRisk</text></a><!--class Entry--><a target="_top" xlink:actuate="onRequest" xlink:href="../Entry.html" xlink:show="new" xlink:title="Posting to an account that results in an increase or decrease to a balance." xlink:type="simple"><rect fill="#EEEEEE" filter="url(#f1sjuvhdhoo0xn)" height="23.9688" id="Entry" style="stroke: #A80036; stroke-width: 1.5;" width="38" x="724" y="175"/><rect fill="#EEEEEE" height="23.9688" style="stroke: #A80036; stroke-width: 1.5;" width="38" x="724" y="175"/><text fill="#000000" font-family="sans-serif" font-size="12" lengthAdjust="spacingAndGlyphs" textLength="32" x="727" y="191.1387">Entry</text></a><!--class Tax--><a target="_top" xlink:actuate="onRequest" xlink:href="../Tax.html" xlink:show="new" xlink:title="Amount of money due to the government or tax authority, according to various pre-defined parameters such as thresholds or income." xlink:type="simple"><rect fill="#EEEEEE" filter="url(#f1sjuvhdhoo0xn)" height="23.9688" id="Tax" style="stroke: #A80036; stroke-width: 1.5;" width="27" x="490.75" y="290"/><rect fill="#EEEEEE" height="23.9688" style="stroke: #A80036; stroke-width: 1.5;" width="27" x="490.75" y="290"/><text fill="#000000" font-family="sans-serif" font-size="12" lengthAdjust="spacingAndGlyphs" textLength="21" x="493.75" y="306.1387">Tax</text></a><!--link Role to TaxPartyRole--><path d="M336.254,105 C331.538,124.842 326.066,147.859 322.164,164.275 " fill="none" id="Role-TaxPartyRole" style="stroke: #A80036; stroke-width: 1.0;"/><polygon fill="none" points="329.447,103.369,340.882,85.53,343.067,106.607,329.447,103.369" style="stroke: #A80036; stroke-width: 1.0;"/><!--link TaxPartyRole to CreditSideTaxDebtor--><path d="M258.681,219.085 C214.539,242.614 156.461,273.57 125.891,289.865 " fill="none" id="TaxPartyRole-CreditSideTaxDebtor" style="stroke: #A80036; stroke-width: 1.0;"/><polygon fill="none" points="255.683,212.751,276.625,209.52,262.269,225.105,255.683,212.751" style="stroke: #A80036; stroke-width: 1.0;"/><!--link TaxPartyRole to TaxPayer--><path d="M290.286,226.211 C274.667,248.553 256.058,275.171 245.785,289.865 " fill="none" id="TaxPartyRole-TaxPayer" style="stroke: #A80036; stroke-width: 1.0;"/><polygon fill="none" points="284.758,221.901,301.955,209.52,296.232,229.923,284.758,221.901" style="stroke: #A80036; stroke-width: 1.0;"/><!--link TaxPartyRole to DebitSideTaxDebtor--><path d="M335.351,227.878 C345.468,249.863 357.281,275.534 363.876,289.865 " fill="none" id="TaxPartyRole-DebitSideTaxDebtor" style="stroke: #A80036; stroke-width: 1.0;"/><polygon fill="none" points="328.905,230.615,326.903,209.52,341.623,224.763,328.905,230.615" style="stroke: #A80036; stroke-width: 1.0;"/><!--link ContactPersonRole to RolePlayer--><!--link CounterpartyRisk to ContactPersonRole--><!--link Entry to CounterpartyRisk--><!--link Role to RolePlayer--><path d="M433.368,72.635 C502.686,84.882 588,114.483 588,186 C588,186 588,186 588,391 C588,451.8572 673.842,468.7099 726.634,473.3199 " fill="none" id="Role-RolePlayer" style="stroke: #A80036; stroke-width: 1.0;"/><polygon fill="#A80036" points="731.635,473.7288,722.9919,469.0068,726.6517,473.3202,722.3382,476.98,731.635,473.7288" style="stroke: #A80036; stroke-width: 1.0;"/><text fill="#000000" font-family="sans-serif" font-size="13" lengthAdjust="spacingAndGlyphs" textLength="39" x="589" y="306.0669">Player</text><text fill="#000000" font-family="sans-serif" font-size="13" lengthAdjust="spacingAndGlyphs" textLength="7" x="716.7402" y="467.9585">*</text><!--link Role to ContactPersonRole--><path d="M433.309,71.569 C500.865,79.101 587.267,92.932 614,116 C664.656,159.712 633.673,198.359 664,258 C683.557,296.461 689.125,306.868 719,338 C732.704,352.281 750.714,365.597 764.757,375.039 " fill="none" id="Role-ContactPersonRole" style="stroke: #A80036; stroke-width: 1.0;"/><polygon fill="#A80036" points="768.978,377.842,763.6906,369.5328,764.8118,375.0774,759.2672,376.1987,768.978,377.842" style="stroke: #A80036; stroke-width: 1.0;"/><text fill="#000000" font-family="sans-serif" font-size="13" lengthAdjust="spacingAndGlyphs" textLength="121" x="665" y="253.0669">ContactPersonRole</text><text fill="#000000" font-family="sans-serif" font-size="13" lengthAdjust="spacingAndGlyphs" textLength="8" x="752.0642" y="366.8359">1</text><!--link Role to CounterpartyRisk--><path d="M433.402,66.157 C538.4,70.249 706.939,82.054 759,116 C790.476,136.524 805.488,236.423 806,240 C808.201,255.382 803.85,272.686 799.6,284.924 " fill="none" id="Role-CounterpartyRisk" style="stroke: #A80036; stroke-width: 1.0;"/><polygon fill="#A80036" points="797.805,289.839,804.6508,282.7584,799.5209,285.1427,797.1366,280.0128,797.805,289.839" style="stroke: #A80036; stroke-width: 1.0;"/><text fill="#000000" font-family="sans-serif" font-size="13" lengthAdjust="spacingAndGlyphs" textLength="109" x="801" y="191.0669">CounterpartyRisk</text><text fill="#000000" font-family="sans-serif" font-size="13" lengthAdjust="spacingAndGlyphs" textLength="24" x="769.902" y="278.8319">0..1</text><!--link Role to Entry--><path d="M433.326,68.817 C522.751,75.162 654.489,88.857 697,116 C716.994,128.766 730.185,153.685 737.124,170.086 " fill="none" id="Role-Entry" style="stroke: #A80036; stroke-width: 1.0;"/><polygon fill="#A80036" points="739.078,174.879,739.3852,165.0349,737.1908,170.2488,731.9769,168.0545,739.078,174.879" style="stroke: #A80036; stroke-width: 1.0;"/><text fill="#000000" font-family="sans-serif" font-size="13" lengthAdjust="spacingAndGlyphs" textLength="33" x="716" y="129.0669">Entry</text><text fill="#000000" font-family="sans-serif" font-size="13" lengthAdjust="spacingAndGlyphs" textLength="8" x="727.0111" y="163.8856">1</text><!--link TaxPartyRole to Tax--><path d="M354.817,209.578 C381.581,224.995 418.219,246.395 450,266 C462.147,273.493 475.618,282.224 486.067,289.091 " fill="none" id="TaxPartyRole-Tax" style="stroke: #A80036; stroke-width: 1.0;"/><polygon fill="#A80036" points="490.347,291.91,485.0306,283.6193,486.1712,289.1599,480.6305,290.3005,490.347,291.91" style="stroke: #A80036; stroke-width: 1.0;"/><text fill="#000000" font-family="sans-serif" font-size="13" lengthAdjust="spacingAndGlyphs" textLength="22" x="437" y="253.0669">Tax</text><text fill="#000000" font-family="sans-serif" font-size="13" lengthAdjust="spacingAndGlyphs" textLength="7" x="475.7909" y="281.3834">*</text></g></svg>