<?xml version="1.0" encoding="UTF-8" standalone="no"?><svg xmlns="http://www.w3.org/2000/svg" xmlns:xlink="http://www.w3.org/1999/xlink" contentScriptType="application/ecmascript" contentStyleType="text/css" height="498px" preserveAspectRatio="none" style="width:752px;height:498px;" version="1.1" viewBox="0 0 752 498" width="752px" zoomAndPan="magnify"><defs><filter height="300%" id="f12iwk62odchbk" width="300%" x="-1" y="-1"><feGaussianBlur result="blurOut" stdDeviation="2.0"/><feColorMatrix in="blurOut" result="blurOut2" type="matrix" values="0 0 0 0 0 0 0 0 0 0 0 0 0 0 0 0 0 0 .4 0"/><feOffset dx="4.0" dy="4.0" in="blurOut2" result="blurOut3"/><feBlend in="SourceGraphic" in2="blurOut3" mode="normal"/></filter></defs><g><!--cluster ##13873--><!--cluster ##13882--><!--cluster ##13891--><!--cluster ##13894--><!--class Role--><a target="_top" xlink:actuate="onRequest" xlink:href="../Role.html" xlink:show="new" xlink:title="Role of a party in an activity." xlink:type="simple"><rect fill="#FEFEEE" filter="url(#f12iwk62odchbk)" height="44.7734" id="Role" style="stroke: #A80036; stroke-width: 1.5;" width="175" x="38.75" y="40.5"/><rect fill="#FEFEEE" height="23.9688" style="stroke: #A80036; stroke-width: 1.5;" width="175" x="38.75" y="40.5"/><text fill="#000000" font-family="sans-serif" font-size="12" lengthAdjust="spacingAndGlyphs" textLength="27" x="112.75" y="56.6387">Role</text><line style="stroke: #A80036; stroke-width: 1.5;" x1="39.75" x2="212.75" y1="64.4688" y2="64.4688"/><ellipse cx="49.75" cy="76.3711" fill="#84BE84" rx="3" ry="3" style="stroke: #038048; stroke-width: 1.0;"/><text fill="#000000" font-family="sans-serif" font-size="11" lengthAdjust="spacingAndGlyphs" textLength="53" x="58.75" y="78.6792">PartyRole</text><text fill="#000000" font-family="sans-serif" font-size="11" font-style="italic" lengthAdjust="spacingAndGlyphs" textLength="92" x="115.75" y="78.6792">(PartyRoleCode)</text></a><!--class SystemPartyRole--><a target="_top" xlink:actuate="onRequest" xlink:href="../SystemPartyRole.html" xlink:show="new" xlink:title="Role played by a party in a system." xlink:type="simple"><rect fill="#FEFEEE" filter="url(#f12iwk62odchbk)" height="23.9688" id="SystemPartyRole" style="stroke: #A80036; stroke-width: 1.5;" width="110" x="84" y="166"/><rect fill="#FEFEEE" height="23.9688" style="stroke: #A80036; stroke-width: 1.5;" width="110" x="84" y="166"/><text fill="#000000" font-family="sans-serif" font-size="12" lengthAdjust="spacingAndGlyphs" textLength="104" x="87" y="182.1387">SystemPartyRole</text></a><!--class TerminalManagerRole--><a target="_top" xlink:actuate="onRequest" xlink:href="../TerminalManagerRole.html" xlink:show="new" xlink:title="Identifies the party which is the terminal manager (TM) to contact for the maintenance." xlink:type="simple"><rect fill="#FEFECE" filter="url(#f12iwk62odchbk)" height="23.9688" id="TerminalManagerRole" style="stroke: #A80036; stroke-width: 1.5;" width="141" x="68.75" y="270"/><rect fill="#FEFECE" height="23.9688" style="stroke: #A80036; stroke-width: 1.5;" width="141" x="68.75" y="270"/><text fill="#000000" font-family="sans-serif" font-size="12" lengthAdjust="spacingAndGlyphs" textLength="135" x="71.75" y="286.1387">TerminalManagerRole</text></a><!--class RolePlayer--><a target="_top" xlink:actuate="onRequest" xlink:href="../RolePlayer.html" xlink:show="new" xlink:title="Type of entity that plays a specific role in a specific context." xlink:type="simple"><rect fill="#EEEEEE" filter="url(#f12iwk62odchbk)" height="23.9688" id="RolePlayer" style="stroke: #A80036; stroke-width: 1.5;" width="71" x="470.75" y="464"/><rect fill="#EEEEEE" height="23.9688" style="stroke: #A80036; stroke-width: 1.5;" width="71" x="470.75" y="464"/><text fill="#000000" font-family="sans-serif" font-size="12" lengthAdjust="spacingAndGlyphs" textLength="65" x="473.75" y="480.1387">RolePlayer</text></a><!--class ContactPersonRole--><a target="_top" xlink:actuate="onRequest" xlink:href="../ContactPersonRole.html" xlink:show="new" xlink:title="Person to be contacted in a given organisation. In the corporate action domain (including meeting notifications) , it is the contact person at the party organising the meeting, at the issuer or at an intermediary." xlink:type="simple"><rect fill="#EEEEEE" filter="url(#f12iwk62odchbk)" height="23.9688" id="ContactPersonRole" style="stroke: #A80036; stroke-width: 1.5;" width="126" x="463" y="376"/><rect fill="#EEEEEE" height="23.9688" style="stroke: #A80036; stroke-width: 1.5;" width="126" x="463" y="376"/><text fill="#000000" font-family="sans-serif" font-size="12" lengthAdjust="spacingAndGlyphs" textLength="120" x="466" y="392.1387">ContactPersonRole</text></a><!--class CounterpartyRisk--><a target="_top" xlink:actuate="onRequest" xlink:href="../CounterpartyRisk.html" xlink:show="new" xlink:title="Calculation of the exposure amount that one party has vis-a-vis one counterparty or a central system, based on its credit risk." xlink:type="simple"><rect fill="#EEEEEE" filter="url(#f12iwk62odchbk)" height="23.9688" id="CounterpartyRisk" style="stroke: #A80036; stroke-width: 1.5;" width="113" x="469.75" y="270"/><rect fill="#EEEEEE" height="23.9688" style="stroke: #A80036; stroke-width: 1.5;" width="113" x="469.75" y="270"/><text fill="#000000" font-family="sans-serif" font-size="12" lengthAdjust="spacingAndGlyphs" textLength="107" x="472.75" y="286.1387">CounterpartyRisk</text></a><!--class Entry--><a target="_top" xlink:actuate="onRequest" xlink:href="../Entry.html" xlink:show="new" xlink:title="Posting to an account that results in an increase or decrease to a balance." xlink:type="simple"><rect fill="#EEEEEE" filter="url(#f12iwk62odchbk)" height="23.9688" id="Entry" style="stroke: #A80036; stroke-width: 1.5;" width="38" x="545" y="166"/><rect fill="#EEEEEE" height="23.9688" style="stroke: #A80036; stroke-width: 1.5;" width="38" x="545" y="166"/><text fill="#000000" font-family="sans-serif" font-size="12" lengthAdjust="spacingAndGlyphs" textLength="32" x="548" y="182.1387">Entry</text></a><!--class System--><a target="_top" xlink:actuate="onRequest" xlink:href="../System.html" xlink:show="new" xlink:title="Set of integrated applications that provides centralised services such as clearing, netting, reconciliation, trading and/or settlement." xlink:type="simple"><rect fill="#EEEEEE" filter="url(#f12iwk62odchbk)" height="23.9688" id="System" style="stroke: #A80036; stroke-width: 1.5;" width="51" x="270.75" y="270"/><rect fill="#EEEEEE" height="23.9688" style="stroke: #A80036; stroke-width: 1.5;" width="51" x="270.75" y="270"/><text fill="#000000" font-family="sans-serif" font-size="12" lengthAdjust="spacingAndGlyphs" textLength="45" x="273.75" y="286.1387">System</text></a><!--class TerminalManagementSystem--><a target="_top" xlink:actuate="onRequest" xlink:href="../TerminalManagementSystem.html" xlink:show="new" xlink:title="Terminal management system (TMS), has in charge the maintenance of the terminal, including monitoring, software update, configuration parameters management." xlink:type="simple"><rect fill="#EEEEEE" filter="url(#f12iwk62odchbk)" height="23.9688" id="TerminalManagementSystem" style="stroke: #A80036; stroke-width: 1.5;" width="186" x="46.5" y="376"/><rect fill="#EEEEEE" height="23.9688" style="stroke: #A80036; stroke-width: 1.5;" width="186" x="46.5" y="376"/><text fill="#000000" font-family="sans-serif" font-size="12" lengthAdjust="spacingAndGlyphs" textLength="180" x="49.5" y="392.1387">TerminalManagementSystem</text></a><!--link Role to SystemPartyRole--><path d="M130.781,105.559 C133.266,127.159 136.112,151.898 137.719,165.865 " fill="none" id="Role-SystemPartyRole" style="stroke: #A80036; stroke-width: 1.0;"/><polygon fill="none" points="123.808,106.189,128.476,85.52,137.716,104.589,123.808,106.189" style="stroke: #A80036; stroke-width: 1.0;"/><!--link SystemPartyRole to TerminalManagerRole--><path d="M139,210.595 C139,230.825 139,255.843 139,269.954 " fill="none" id="SystemPartyRole-TerminalManagerRole" style="stroke: #A80036; stroke-width: 1.0;"/><polygon fill="none" points="132,210.306,139,190.306,146,210.305,132,210.306" style="stroke: #A80036; stroke-width: 1.0;"/><!--link ContactPersonRole to RolePlayer--><!--link CounterpartyRisk to ContactPersonRole--><!--link Entry to CounterpartyRisk--><!--link Role to RolePlayer--><path d="M160.43,85.654 C202.369,113.21 273.708,164.004 323,220 C392.954,299.469 377.436,343.328 446,424 C457.852,437.9451 473.715,451.2516 486.154,460.7741 " fill="none" id="Role-RolePlayer" style="stroke: #A80036; stroke-width: 1.0;"/><polygon fill="#A80036" points="490.23,463.8538,485.4606,455.2368,486.2407,460.8396,480.6379,461.6197,490.23,463.8538" style="stroke: #A80036; stroke-width: 1.0;"/><text fill="#000000" font-family="sans-serif" font-size="13" lengthAdjust="spacingAndGlyphs" textLength="39" x="385" y="286.0669">Player</text><text fill="#000000" font-family="sans-serif" font-size="13" lengthAdjust="spacingAndGlyphs" textLength="7" x="475.1763" y="452.8518">*</text><!--link Role to ContactPersonRole--><path d="M213.263,63.841 C338.735,65.854 559.631,78.562 601,142 C614.173,162.2 633.629,241.483 600,318 C589.641,341.571 566.884,360.771 549.323,372.878 " fill="none" id="Role-ContactPersonRole" style="stroke: #A80036; stroke-width: 1.0;"/><polygon fill="#A80036" points="544.981,375.801,554.6804,374.0915,549.1282,373.0081,550.2117,367.456,544.981,375.801" style="stroke: #A80036; stroke-width: 1.0;"/><text fill="#000000" font-family="sans-serif" font-size="13" lengthAdjust="spacingAndGlyphs" textLength="121" x="619" y="233.0669">ContactPersonRole</text><text fill="#000000" font-family="sans-serif" font-size="13" lengthAdjust="spacingAndGlyphs" textLength="8" x="540.6122" y="365.0385">1</text><!--link Role to CounterpartyRisk--><path d="M213.372,75.488 C252.548,83.141 298.314,95.675 336,116 C378.63,138.991 379.549,158.107 416,190 C447.784,217.809 485.99,248.914 507.988,266.607 " fill="none" id="Role-CounterpartyRisk" style="stroke: #A80036; stroke-width: 1.0;"/><polygon fill="#A80036" points="511.901,269.751,507.3891,260.9964,508.0028,266.6199,502.3793,267.2335,511.901,269.751" style="stroke: #A80036; stroke-width: 1.0;"/><text fill="#000000" font-family="sans-serif" font-size="13" lengthAdjust="spacingAndGlyphs" textLength="109" x="417" y="182.0669">CounterpartyRisk</text><text fill="#000000" font-family="sans-serif" font-size="13" lengthAdjust="spacingAndGlyphs" textLength="24" x="477.8416" y="258.972">0..1</text><!--link Role to Entry--><path d="M213.525,68.335 C295.865,75.363 420.7,93.776 518,142 C528.818,147.361 539.627,155.414 548.047,162.444 " fill="none" id="Role-Entry" style="stroke: #A80036; stroke-width: 1.0;"/><polygon fill="#A80036" points="551.979,165.797,547.7265,156.9135,548.1746,162.5526,542.5355,163.0006,551.979,165.797" style="stroke: #A80036; stroke-width: 1.0;"/><text fill="#000000" font-family="sans-serif" font-size="13" lengthAdjust="spacingAndGlyphs" textLength="33" x="499" y="129.0669">Entry</text><text fill="#000000" font-family="sans-serif" font-size="13" lengthAdjust="spacingAndGlyphs" textLength="8" x="537.3408" y="155.0332">1</text><!--link SystemPartyRole to System--><path d="M153.066,190.219 C168.749,202.525 195.064,222.577 219,238 C235.447,248.597 254.659,259.328 269.778,267.42 " fill="none" id="SystemPartyRole-System" style="stroke: #A80036; stroke-width: 1.0;"/><polygon fill="#A80036" points="274.332,269.843,268.2653,262.0844,269.9179,267.4945,264.5078,269.147,274.332,269.843" style="stroke: #A80036; stroke-width: 1.0;"/><text fill="#000000" font-family="sans-serif" font-size="13" lengthAdjust="spacingAndGlyphs" textLength="97" x="220" y="233.0669">RelatedSystem</text><text fill="#000000" font-family="sans-serif" font-size="13" lengthAdjust="spacingAndGlyphs" textLength="23" x="239.7915" y="259.6088">1..*</text><!--link TerminalManagerRole to TerminalManagementSystem--><path d="M139,294.13 C139,312.583 139,349.586 139,370.892 " fill="none" id="TerminalManagerRole-TerminalManagementSystem" style="stroke: #A80036; stroke-width: 1.0;"/><polygon fill="#A80036" points="139,375.95,143,366.95,139,370.95,135,366.95,139,375.95" style="stroke: #A80036; stroke-width: 1.0;"/><text fill="#000000" font-family="sans-serif" font-size="13" lengthAdjust="spacingAndGlyphs" textLength="189" x="140" y="339.0669">TerminalManagementSystem</text><text fill="#000000" font-family="sans-serif" font-size="13" lengthAdjust="spacingAndGlyphs" textLength="7" x="129.2813" y="364.981">*</text></g></svg>