<?xml version="1.0" encoding="UTF-8" standalone="no"?><svg xmlns="http://www.w3.org/2000/svg" xmlns:xlink="http://www.w3.org/1999/xlink" contentScriptType="application/ecmascript" contentStyleType="text/css" height="1004px" preserveAspectRatio="none" style="width:2948px;height:1004px;" version="1.1" viewBox="0 0 2948 1004" width="2948px" zoomAndPan="magnify"><defs><filter height="300%" id="f9nh09wiw1psd" width="300%" x="-1" y="-1"><feGaussianBlur result="blurOut" stdDeviation="2.0"/><feColorMatrix in="blurOut" result="blurOut2" type="matrix" values="0 0 0 0 0 0 0 0 0 0 0 0 0 0 0 0 0 0 .4 0"/><feOffset dx="4.0" dy="4.0" in="blurOut2" result="blurOut3"/><feBlend in="SourceGraphic" in2="blurOut3" mode="normal"/></filter></defs><g><!--cluster ##6430--><!--cluster ##6439--><!--cluster ##6444--><!--cluster ##6471--><!--class RolePlayer--><a target="_top" xlink:actuate="onRequest" xlink:href="../RolePlayer.html" xlink:show="new" xlink:title="Type of entity that plays a specific role in a specific context." xlink:type="simple"><rect fill="#FEFEEE" filter="url(#f9nh09wiw1psd)" height="23.9688" id="RolePlayer" style="stroke: #A80036; stroke-width: 1.5;" width="71" x="1235.75" y="40"/><rect fill="#FEFEEE" height="23.9688" style="stroke: #A80036; stroke-width: 1.5;" width="71" x="1235.75" y="40"/><text fill="#000000" font-family="sans-serif" font-size="12" lengthAdjust="spacingAndGlyphs" textLength="65" x="1238.75" y="56.1387">RolePlayer</text></a><!--class System--><a target="_top" xlink:actuate="onRequest" xlink:href="../System.html" xlink:show="new" xlink:title="Set of integrated applications that provides centralised services such as clearing, netting, reconciliation, trading and/or settlement." xlink:type="simple"><rect fill="#FEFEEE" filter="url(#f9nh09wiw1psd)" height="57.5781" id="System" style="stroke: #A80036; stroke-width: 1.5;" width="254" x="1053" y="126"/><rect fill="#FEFEEE" height="23.9688" style="stroke: #A80036; stroke-width: 1.5;" width="254" x="1053" y="126"/><text fill="#000000" font-family="sans-serif" font-size="12" lengthAdjust="spacingAndGlyphs" textLength="45" x="1157.5" y="142.1387">System</text><line style="stroke: #A80036; stroke-width: 1.5;" x1="1054" x2="1306" y1="149.9688" y2="149.9688"/><ellipse cx="1064" cy="161.8711" fill="#84BE84" rx="3" ry="3" style="stroke: #038048; stroke-width: 1.0;"/><text fill="#000000" font-family="sans-serif" font-size="11" lengthAdjust="spacingAndGlyphs" textLength="97" x="1073" y="164.1792">SystemDateTime</text><text fill="#000000" font-family="sans-serif" font-size="11" font-style="italic" lengthAdjust="spacingAndGlyphs" textLength="81" x="1174" y="164.1792">(ISODateTime)</text><ellipse cx="1064" cy="174.6758" fill="#84BE84" rx="3" ry="3" style="stroke: #038048; stroke-width: 1.0;"/><text fill="#000000" font-family="sans-serif" font-size="11" lengthAdjust="spacingAndGlyphs" textLength="98" x="1073" y="176.9839">SystemLanguage</text><text fill="#000000" font-family="sans-serif" font-size="11" font-style="italic" lengthAdjust="spacingAndGlyphs" textLength="126" x="1175" y="176.9839">(ISO2ALanguageCode)</text></a><!--class TerminalManagementSystem--><a target="_top" xlink:actuate="onRequest" xlink:href="../TerminalManagementSystem.html" xlink:show="new" xlink:title="Terminal management system (TMS), has in charge the maintenance of the terminal, including monitoring, software update, configuration parameters management." xlink:type="simple"><rect fill="#FEFECE" filter="url(#f9nh09wiw1psd)" height="57.5781" id="TerminalManagementSystem" style="stroke: #A80036; stroke-width: 1.5;" width="235" x="1053.75" y="262"/><rect fill="#FEFECE" height="23.9688" style="stroke: #A80036; stroke-width: 1.5;" width="235" x="1053.75" y="262"/><text fill="#000000" font-family="sans-serif" font-size="12" lengthAdjust="spacingAndGlyphs" textLength="180" x="1081.25" y="278.1387">TerminalManagementSystem</text><line style="stroke: #A80036; stroke-width: 1.5;" x1="1054.75" x2="1287.75" y1="285.9688" y2="285.9688"/><ellipse cx="1064.75" cy="297.8711" fill="#84BE84" rx="3" ry="3" style="stroke: #038048; stroke-width: 1.0;"/><text fill="#000000" font-family="sans-serif" font-size="11" lengthAdjust="spacingAndGlyphs" textLength="72" x="1073.75" y="300.1792">ContactLevel</text><text fill="#000000" font-family="sans-serif" font-size="11" font-style="italic" lengthAdjust="spacingAndGlyphs" textLength="133" x="1149.75" y="300.1792">(TMSContactLevelCode)</text><ellipse cx="1064.75" cy="310.6758" fill="#84BE84" rx="3" ry="3" style="stroke: #038048; stroke-width: 1.0;"/><text fill="#000000" font-family="sans-serif" font-size="11" lengthAdjust="spacingAndGlyphs" textLength="97" x="1073.75" y="312.9839">ContactDateTime</text><text fill="#000000" font-family="sans-serif" font-size="11" font-style="italic" lengthAdjust="spacingAndGlyphs" textLength="81" x="1174.75" y="312.9839">(ISODateTime)</text></a><!--class Role--><a target="_top" xlink:actuate="onRequest" xlink:href="../Role.html" xlink:show="new" xlink:title="Role of a party in an activity." xlink:type="simple"><rect fill="#EEEEEE" filter="url(#f9nh09wiw1psd)" height="23.9688" id="Role" style="stroke: #A80036; stroke-width: 1.5;" width="33" x="2625.75" y="402"/><rect fill="#EEEEEE" height="23.9688" style="stroke: #A80036; stroke-width: 1.5;" width="33" x="2625.75" y="402"/><text fill="#000000" font-family="sans-serif" font-size="12" lengthAdjust="spacingAndGlyphs" textLength="27" x="2628.75" y="418.1387">Role</text></a><!--class DateTimePeriod--><a target="_top" xlink:actuate="onRequest" xlink:href="../DateTimePeriod.html" xlink:show="new" xlink:title="Time span defined by a start date and time, and an end date and time." xlink:type="simple"><rect fill="#EEEEEE" filter="url(#f9nh09wiw1psd)" height="23.9688" id="DateTimePeriod" style="stroke: #A80036; stroke-width: 1.5;" width="105" x="2571.75" y="279"/><rect fill="#EEEEEE" height="23.9688" style="stroke: #A80036; stroke-width: 1.5;" width="105" x="2571.75" y="279"/><text fill="#000000" font-family="sans-serif" font-size="12" lengthAdjust="spacingAndGlyphs" textLength="99" x="2574.75" y="295.1387">DateTimePeriod</text></a><!--class SystemIdentification--><a target="_top" xlink:actuate="onRequest" xlink:href="../SystemIdentification.html" xlink:show="new" xlink:title="Parameters that identify a system." xlink:type="simple"><rect fill="#EEEEEE" filter="url(#f9nh09wiw1psd)" height="23.9688" id="SystemIdentification" style="stroke: #A80036; stroke-width: 1.5;" width="132" x="1907" y="506"/><rect fill="#EEEEEE" height="23.9688" style="stroke: #A80036; stroke-width: 1.5;" width="132" x="1907" y="506"/><text fill="#000000" font-family="sans-serif" font-size="12" lengthAdjust="spacingAndGlyphs" textLength="126" x="1910" y="522.1387">SystemIdentification</text></a><!--class Location--><a target="_top" xlink:actuate="onRequest" xlink:href="../Location.html" xlink:show="new" xlink:title="Specifies a place." xlink:type="simple"><rect fill="#EEEEEE" filter="url(#f9nh09wiw1psd)" height="23.9688" id="Location" style="stroke: #A80036; stroke-width: 1.5;" width="59" x="1844.75" y="402"/><rect fill="#EEEEEE" height="23.9688" style="stroke: #A80036; stroke-width: 1.5;" width="59" x="1844.75" y="402"/><text fill="#000000" font-family="sans-serif" font-size="12" lengthAdjust="spacingAndGlyphs" textLength="53" x="1847.75" y="418.1387">Location</text></a><!--class Reconciliation--><a target="_top" xlink:actuate="onRequest" xlink:href="../Reconciliation.html" xlink:show="new" xlink:title="Process of matching different documents submitted by parties to a trade." xlink:type="simple"><rect fill="#EEEEEE" filter="url(#f9nh09wiw1psd)" height="23.9688" id="Reconciliation" style="stroke: #A80036; stroke-width: 1.5;" width="93" x="1884.75" y="279"/><rect fill="#EEEEEE" height="23.9688" style="stroke: #A80036; stroke-width: 1.5;" width="93" x="1884.75" y="279"/><text fill="#000000" font-family="sans-serif" font-size="12" lengthAdjust="spacingAndGlyphs" textLength="87" x="1887.75" y="295.1387">Reconciliation</text></a><!--class SystemAvailability--><a target="_top" xlink:actuate="onRequest" xlink:href="../SystemAvailability.html" xlink:show="new" xlink:title="information about the periods of activity and non-activity of a system." xlink:type="simple"><rect fill="#EEEEEE" filter="url(#f9nh09wiw1psd)" height="23.9688" id="SystemAvailability" style="stroke: #A80036; stroke-width: 1.5;" width="115" x="1786.75" y="970"/><rect fill="#EEEEEE" height="23.9688" style="stroke: #A80036; stroke-width: 1.5;" width="115" x="1786.75" y="970"/><text fill="#000000" font-family="sans-serif" font-size="12" lengthAdjust="spacingAndGlyphs" textLength="109" x="1789.75" y="986.1387">SystemAvailability</text></a><!--class SystemEventInformation--><a target="_top" xlink:actuate="onRequest" xlink:href="../SystemEventInformation.html" xlink:show="new" xlink:title="Detailed information about an event occurring on a system, whether planned, for example, cut-off time for a specific type of eligible transfer, or unplanned, for example, an unsolicited failure, as stipulated in the specifications of the system." xlink:type="simple"><rect fill="#EEEEEE" filter="url(#f9nh09wiw1psd)" height="23.9688" id="SystemEventInformation" style="stroke: #A80036; stroke-width: 1.5;" width="157" x="1679.75" y="884"/><rect fill="#EEEEEE" height="23.9688" style="stroke: #A80036; stroke-width: 1.5;" width="157" x="1679.75" y="884"/><text fill="#000000" font-family="sans-serif" font-size="12" lengthAdjust="spacingAndGlyphs" textLength="151" x="1682.75" y="900.1387">SystemEventInformation</text></a><!--class SystemPartyRole--><a target="_top" xlink:actuate="onRequest" xlink:href="../SystemPartyRole.html" xlink:show="new" xlink:title="Role played by a party in a system." xlink:type="simple"><rect fill="#EEEEEE" filter="url(#f9nh09wiw1psd)" height="23.9688" id="SystemPartyRole" style="stroke: #A80036; stroke-width: 1.5;" width="110" x="1703" y="798"/><rect fill="#EEEEEE" height="23.9688" style="stroke: #A80036; stroke-width: 1.5;" width="110" x="1703" y="798"/><text fill="#000000" font-family="sans-serif" font-size="12" lengthAdjust="spacingAndGlyphs" textLength="104" x="1706" y="814.1387">SystemPartyRole</text></a><!--class SystemStatus--><a target="_top" xlink:actuate="onRequest" xlink:href="../SystemStatus.html" xlink:show="new" xlink:title="Status of a system and the period of time during which the status is valid." xlink:type="simple"><rect fill="#EEEEEE" filter="url(#f9nh09wiw1psd)" height="23.9688" id="SystemStatus" style="stroke: #A80036; stroke-width: 1.5;" width="92" x="1956" y="712"/><rect fill="#EEEEEE" height="23.9688" style="stroke: #A80036; stroke-width: 1.5;" width="92" x="1956" y="712"/><text fill="#000000" font-family="sans-serif" font-size="12" lengthAdjust="spacingAndGlyphs" textLength="86" x="1959" y="728.1387">SystemStatus</text></a><!--class SystemBusinessInformation--><a target="_top" xlink:actuate="onRequest" xlink:href="../SystemBusinessInformation.html" xlink:show="new" xlink:title="Details about business information related to a system." xlink:type="simple"><rect fill="#EEEEEE" filter="url(#f9nh09wiw1psd)" height="23.9688" id="SystemBusinessInformation" style="stroke: #A80036; stroke-width: 1.5;" width="178" x="1913.5" y="608"/><rect fill="#EEEEEE" height="23.9688" style="stroke: #A80036; stroke-width: 1.5;" width="178" x="1913.5" y="608"/><text fill="#000000" font-family="sans-serif" font-size="12" lengthAdjust="spacingAndGlyphs" textLength="172" x="1916.5" y="624.1387">SystemBusinessInformation</text></a><!--class Negotiation--><a target="_top" xlink:actuate="onRequest" xlink:href="../Negotiation.html" xlink:show="new" xlink:title="Decision making on the transfer of a financial instrument." xlink:type="simple"><rect fill="#EEEEEE" filter="url(#f9nh09wiw1psd)" height="23.9688" id="Negotiation" style="stroke: #A80036; stroke-width: 1.5;" width="79" x="2074.75" y="506"/><rect fill="#EEEEEE" height="23.9688" style="stroke: #A80036; stroke-width: 1.5;" width="79" x="2074.75" y="506"/><text fill="#000000" font-family="sans-serif" font-size="12" lengthAdjust="spacingAndGlyphs" textLength="73" x="2077.75" y="522.1387">Negotiation</text></a><!--class Account--><a target="_top" xlink:actuate="onRequest" xlink:href="../Account.html" xlink:show="new" xlink:title="Record of transactions in specific types of assets, maintained by a servicing party on behalf of one or more owning parties. Business relationship between an account servicer and one or more account owners." xlink:type="simple"><rect fill="#EEEEEE" filter="url(#f9nh09wiw1psd)" height="23.9688" id="Account" style="stroke: #A80036; stroke-width: 1.5;" width="57" x="1938.75" y="402"/><rect fill="#EEEEEE" height="23.9688" style="stroke: #A80036; stroke-width: 1.5;" width="57" x="1938.75" y="402"/><text fill="#000000" font-family="sans-serif" font-size="12" lengthAdjust="spacingAndGlyphs" textLength="51" x="1941.75" y="418.1387">Account</text></a><!--class Trade--><a target="_top" xlink:actuate="onRequest" xlink:href="../Trade.html" xlink:show="new" xlink:title="Result of an order between at least two parties. A trade relates to the delivery of goods and services, cash or securities." xlink:type="simple"><rect fill="#EEEEEE" filter="url(#f9nh09wiw1psd)" height="23.9688" id="Trade" style="stroke: #A80036; stroke-width: 1.5;" width="42" x="1773.5" y="608"/><rect fill="#EEEEEE" height="23.9688" style="stroke: #A80036; stroke-width: 1.5;" width="42" x="1773.5" y="608"/><text fill="#000000" font-family="sans-serif" font-size="12" lengthAdjust="spacingAndGlyphs" textLength="36" x="1776.5" y="624.1387">Trade</text></a><!--class Assessment--><a target="_top" xlink:actuate="onRequest" xlink:href="../Assessment.html" xlink:show="new" xlink:title="Assessment for the components of a system." xlink:type="simple"><rect fill="#EEEEEE" filter="url(#f9nh09wiw1psd)" height="23.9688" id="Assessment" style="stroke: #A80036; stroke-width: 1.5;" width="82" x="1753" y="506"/><rect fill="#EEEEEE" height="23.9688" style="stroke: #A80036; stroke-width: 1.5;" width="82" x="1753" y="506"/><text fill="#000000" font-family="sans-serif" font-size="12" lengthAdjust="spacingAndGlyphs" textLength="76" x="1756" y="522.1387">Assessment</text></a><!--class Position--><a target="_top" xlink:actuate="onRequest" xlink:href="../Position.html" xlink:show="new" xlink:title="Specifies the status of trades and their value inside a system." xlink:type="simple"><rect fill="#EEEEEE" filter="url(#f9nh09wiw1psd)" height="23.9688" id="Position" style="stroke: #A80036; stroke-width: 1.5;" width="56" x="1679.5" y="402"/><rect fill="#EEEEEE" height="23.9688" style="stroke: #A80036; stroke-width: 1.5;" width="56" x="1679.5" y="402"/><text fill="#000000" font-family="sans-serif" font-size="12" lengthAdjust="spacingAndGlyphs" textLength="50" x="1682.5" y="418.1387">Position</text></a><!--class AcceptorConfiguration--><a target="_top" xlink:actuate="onRequest" xlink:href="../AcceptorConfiguration.html" xlink:show="new" xlink:title="Acceptor parameters to be downloaded from the terminal management system." xlink:type="simple"><rect fill="#EEEEEE" filter="url(#f9nh09wiw1psd)" height="23.9688" id="AcceptorConfiguration" style="stroke: #A80036; stroke-width: 1.5;" width="146" x="704" y="608"/><rect fill="#EEEEEE" height="23.9688" style="stroke: #A80036; stroke-width: 1.5;" width="146" x="704" y="608"/><text fill="#000000" font-family="sans-serif" font-size="12" lengthAdjust="spacingAndGlyphs" textLength="140" x="707" y="624.1387">AcceptorConfiguration</text></a><!--class NetworkAccess--><a target="_top" xlink:actuate="onRequest" xlink:href="../NetworkAccess.html" xlink:show="new" xlink:title="Parameters used to access a network." xlink:type="simple"><rect fill="#EEEEEE" filter="url(#f9nh09wiw1psd)" height="23.9688" id="NetworkAccess" style="stroke: #A80036; stroke-width: 1.5;" width="101" x="748.75" y="506"/><rect fill="#EEEEEE" height="23.9688" style="stroke: #A80036; stroke-width: 1.5;" width="101" x="748.75" y="506"/><text fill="#000000" font-family="sans-serif" font-size="12" lengthAdjust="spacingAndGlyphs" textLength="95" x="751.75" y="522.1387">NetworkAccess</text></a><!--class CardPaymentAcquiring--><a target="_top" xlink:actuate="onRequest" xlink:href="../CardPaymentAcquiring.html" xlink:show="new" xlink:title="Payment processes initiated by a payment card." xlink:type="simple"><rect fill="#EEEEEE" filter="url(#f9nh09wiw1psd)" height="23.9688" id="CardPaymentAcquiring" style="stroke: #A80036; stroke-width: 1.5;" width="147" x="702.75" y="402"/><rect fill="#EEEEEE" height="23.9688" style="stroke: #A80036; stroke-width: 1.5;" width="147" x="702.75" y="402"/><text fill="#000000" font-family="sans-serif" font-size="12" lengthAdjust="spacingAndGlyphs" textLength="141" x="705.75" y="418.1387">CardPaymentAcquiring</text></a><!--class TerminalManagerRole--><a target="_top" xlink:actuate="onRequest" xlink:href="../TerminalManagerRole.html" xlink:show="new" xlink:title="Identifies the party which is the terminal manager (TM) to contact for the maintenance." xlink:type="simple"><rect fill="#EEEEEE" filter="url(#f9nh09wiw1psd)" height="23.9688" id="TerminalManagerRole" style="stroke: #A80036; stroke-width: 1.5;" width="141" x="527.75" y="608"/><rect fill="#EEEEEE" height="23.9688" style="stroke: #A80036; stroke-width: 1.5;" width="141" x="527.75" y="608"/><text fill="#000000" font-family="sans-serif" font-size="12" lengthAdjust="spacingAndGlyphs" textLength="135" x="530.75" y="624.1387">TerminalManagerRole</text></a><!--class PointOfInteraction--><a target="_top" xlink:actuate="onRequest" xlink:href="../PointOfInteraction.html" xlink:show="new" xlink:title="Point of interaction (POI) is the entry point to a card payment system. It could be a physical or logical card payment terminal containing software and hardware components, it could be a payment system including a set of card payment terminals linked to a local or remote server, or it could be just an interface to make payments as telephone or Internet browser." xlink:type="simple"><rect fill="#EEEEEE" filter="url(#f9nh09wiw1psd)" height="23.9688" id="PointOfInteraction" style="stroke: #A80036; stroke-width: 1.5;" width="119" x="554.75" y="506"/><rect fill="#EEEEEE" height="23.9688" style="stroke: #A80036; stroke-width: 1.5;" width="119" x="554.75" y="506"/><text fill="#000000" font-family="sans-serif" font-size="12" lengthAdjust="spacingAndGlyphs" textLength="113" x="557.75" y="522.1387">PointOfInteraction</text></a><!--class TerminalManagementAction--><a target="_top" xlink:actuate="onRequest" xlink:href="../TerminalManagementAction.html" xlink:show="new" xlink:title="Terminal management action to be performed by the point of interaction." xlink:type="simple"><rect fill="#EEEEEE" filter="url(#f9nh09wiw1psd)" height="23.9688" id="TerminalManagementAction" style="stroke: #A80036; stroke-width: 1.5;" width="180" x="487" y="402"/><rect fill="#EEEEEE" height="23.9688" style="stroke: #A80036; stroke-width: 1.5;" width="180" x="487" y="402"/><text fill="#000000" font-family="sans-serif" font-size="12" lengthAdjust="spacingAndGlyphs" textLength="174" x="490" y="418.1387">TerminalManagementAction</text></a><!--link RolePlayer to System--><path d="M1247.51,79.071 C1234.56,93.443 1218.48,111.294 1205.26,125.966 " fill="none" id="RolePlayer-System" style="stroke: #A80036; stroke-width: 1.0;"/><polygon fill="none" points="1242.33,74.368,1260.91,64.195,1252.73,83.739,1242.33,74.368" style="stroke: #A80036; stroke-width: 1.0;"/><!--link System to TerminalManagementSystem--><path d="M1176.76,204.238 C1175.46,223.605 1174.01,245.248 1172.88,261.946 " fill="none" id="System-TerminalManagementSystem" style="stroke: #A80036; stroke-width: 1.0;"/><polygon fill="none" points="1169.79,203.577,1178.11,184.091,1183.76,204.515,1169.79,203.577" style="stroke: #A80036; stroke-width: 1.0;"/><!--link DateTimePeriod to Role--><!--link Location to SystemIdentification--><!--link Reconciliation to Location--><!--link SystemAvailability to Reconciliation--><!--link SystemEventInformation to SystemAvailability--><!--link SystemPartyRole to SystemEventInformation--><!--link SystemStatus to SystemPartyRole--><!--link SystemBusinessInformation to SystemStatus--><!--link Negotiation to SystemBusinessInformation--><!--link Account to Negotiation--><!--link Trade to Account--><!--link Assessment to Trade--><!--link Position to Assessment--><!--link NetworkAccess to AcceptorConfiguration--><!--link CardPaymentAcquiring to NetworkAccess--><!--link TerminalManagerRole to CardPaymentAcquiring--><!--link PointOfInteraction to TerminalManagerRole--><!--link TerminalManagementAction to PointOfInteraction--><!--link RolePlayer to Role--><path d="M1306.36,52.917 C1507.78,52.709 2505.17,55.277 2620,126 C2707.12,179.657 2726.47,246.969 2694,344 C2686.93,365.142 2670.54,384.992 2658.04,397.924 " fill="none" id="RolePlayer-Role" style="stroke: #A80036; stroke-width: 1.0;"/><polygon fill="#A80036" points="2654.3,401.71,2663.4708,398.1188,2657.814,398.1531,2657.7798,392.4964,2654.3,401.71" style="stroke: #A80036; stroke-width: 1.0;"/><text fill="#000000" font-family="sans-serif" font-size="13" lengthAdjust="spacingAndGlyphs" textLength="27" x="2706" y="227.0669">Role</text><text fill="#000000" font-family="sans-serif" font-size="13" lengthAdjust="spacingAndGlyphs" textLength="23" x="2630.1509" y="390.9174">1..*</text><!--link RolePlayer to DateTimePeriod--><path d="M1306.4,55.065 C1506.87,67.047 2494.38,130.04 2598,214 C2615.97,228.559 2621.57,256.151 2623.28,273.778 " fill="none" id="RolePlayer-DateTimePeriod" style="stroke: #A80036; stroke-width: 1.0;"/><polygon fill="#A80036" points="2623.7,278.904,2626.9569,269.6092,2623.2945,273.9205,2618.9832,270.2581,2623.7,278.904" style="stroke: #A80036; stroke-width: 1.0;"/><text fill="#000000" font-family="sans-serif" font-size="13" lengthAdjust="spacingAndGlyphs" textLength="86" x="2524" y="159.0669">ValidityPeriod</text><text fill="#000000" font-family="sans-serif" font-size="13" lengthAdjust="spacingAndGlyphs" textLength="24" x="2594.0422" y="267.9192">0..1</text><!--link System to SystemIdentification--><path d="M1307.26,160.188 C1520.64,167.932 1933.26,186.273 1994,214 C2083.2,254.72 2067.7,316.701 2150,370 C2158.38,375.429 2165.33,369.776 2171,378 C2189.16,404.349 2187.82,422.779 2171,450 C2156.35,473.7 2088.05,493.073 2035.72,504.784 " fill="none" id="System-SystemIdentification" style="stroke: #A80036; stroke-width: 1.0;"/><polygon fill="#A80036" points="2030.71,505.893,2040.3638,507.8436,2035.5907,504.8074,2038.6269,500.0344,2030.71,505.893" style="stroke: #A80036; stroke-width: 1.0;"/><text fill="#000000" font-family="sans-serif" font-size="13" lengthAdjust="spacingAndGlyphs" textLength="130" x="2151" y="365.0669">SystemIdentification</text><text fill="#000000" font-family="sans-serif" font-size="13" lengthAdjust="spacingAndGlyphs" textLength="8" x="2039.8291" y="494.9044">1</text><!--link System to Location--><path d="M1307.29,159.14 C1402.86,167.084 1533.04,190.303 1628,255 C1668.7,282.728 1655.72,313.022 1694,344 C1737.45,379.158 1800.81,397.809 1839.62,406.528 " fill="none" id="System-Location" style="stroke: #A80036; stroke-width: 1.0;"/><polygon fill="#A80036" points="1844.69,407.643,1836.7565,401.807,1839.8062,406.5714,1835.0418,409.6211,1844.69,407.643" style="stroke: #A80036; stroke-width: 1.0;"/><text fill="#000000" font-family="sans-serif" font-size="13" lengthAdjust="spacingAndGlyphs" textLength="54" x="1695" y="295.0669">Location</text><text fill="#000000" font-family="sans-serif" font-size="13" lengthAdjust="spacingAndGlyphs" textLength="8" x="1828.562" y="400.6626">1</text><!--link System to Reconciliation--><path d="M1307.16,159.939 C1466.2,166.176 1728.73,181.163 1820,214 C1857.91,227.639 1895.13,257.405 1915.38,275.371 " fill="none" id="System-Reconciliation" style="stroke: #A80036; stroke-width: 1.0;"/><polygon fill="#A80036" points="1919.19,278.799,1915.1693,269.8082,1915.471,275.457,1909.8222,275.7587,1919.19,278.799" style="stroke: #A80036; stroke-width: 1.0;"/><text fill="#000000" font-family="sans-serif" font-size="13" lengthAdjust="spacingAndGlyphs" textLength="87" x="1858" y="227.0669">Reconciliation</text><text fill="#000000" font-family="sans-serif" font-size="13" lengthAdjust="spacingAndGlyphs" textLength="8" x="1904.5389" y="268.0359">1</text><!--link System to SystemAvailability--><path d="M1052.97,157.413 C749.219,162.476 6,185.537 6,290 C6,290 6,290 6,897 C6,942.4605 1460.19,973.5075 1781.61,979.8146 " fill="none" id="System-SystemAvailability" style="stroke: #A80036; stroke-width: 1.0;"/><polygon fill="#A80036" points="1786.72,979.9146,1777.8018,975.7354,1781.721,979.8146,1777.6418,983.7338,1786.72,979.9146" style="stroke: #A80036; stroke-width: 1.0;"/><text fill="#000000" font-family="sans-serif" font-size="13" lengthAdjust="spacingAndGlyphs" textLength="67" x="7" y="624.0669">Availability</text><text fill="#000000" font-family="sans-serif" font-size="13" lengthAdjust="spacingAndGlyphs" textLength="8" x="1770.8808" y="974.8327">1</text><!--link System to SystemEventInformation--><path d="M1052.96,159.171 C773.289,167.844 129,197.828 129,290 C129,290 129,290 129,811 C129,889.185 1341.59,894.986 1674.39,895.106 " fill="none" id="System-SystemEventInformation" style="stroke: #A80036; stroke-width: 1.0;"/><polygon fill="#A80036" points="1679.7,895.107,1670.7115,891.0813,1674.7,895.0927,1670.6886,899.0813,1679.7,895.107" style="stroke: #A80036; stroke-width: 1.0;"/><text fill="#000000" font-family="sans-serif" font-size="13" lengthAdjust="spacingAndGlyphs" textLength="36" x="130" y="573.0669">Event</text><text fill="#000000" font-family="sans-serif" font-size="13" lengthAdjust="spacingAndGlyphs" textLength="8" x="1663.781" y="890.4028">1</text><!--link System to SystemPartyRole--><path d="M1052.62,160.716 C790.892,172.11 217,206.603 217,290 C217,290 217,290 217,725 C217,800.501 1411.99,808.168 1697.34,808.922 " fill="none" id="System-SystemPartyRole" style="stroke: #A80036; stroke-width: 1.0;"/><polygon fill="#A80036" points="1702.7,808.936,1693.7115,804.9103,1697.7,808.9217,1693.6886,812.9103,1702.7,808.936" style="stroke: #A80036; stroke-width: 1.0;"/><text fill="#000000" font-family="sans-serif" font-size="13" lengthAdjust="spacingAndGlyphs" textLength="60" x="218" y="522.0669">PartyRole</text><text fill="#000000" font-family="sans-serif" font-size="13" lengthAdjust="spacingAndGlyphs" textLength="7" x="1688.1594" y="803.9658">*</text><!--link System to SystemStatus--><path d="M1307.13,155.894 C1483.45,157.612 1811.61,167.561 2087,214 C2154.3,225.349 2170.02,234.101 2235,255 C2373.24,299.463 2521,267.782 2521,413 C2521,413 2521,413 2521,621 C2521,715.648 2184.47,724.005 2053.39,723.67 " fill="none" id="System-SystemStatus" style="stroke: #A80036; stroke-width: 1.0;"/><polygon fill="#A80036" points="2048.06,723.652,2057.0485,727.6777,2053.06,723.6663,2057.0714,719.6777,2048.06,723.652" style="stroke: #A80036; stroke-width: 1.0;"/><text fill="#000000" font-family="sans-serif" font-size="13" lengthAdjust="spacingAndGlyphs" textLength="42" x="2522" y="471.0669">Status</text><text fill="#000000" font-family="sans-serif" font-size="13" lengthAdjust="spacingAndGlyphs" textLength="8" x="2056.0383" y="718.3218">1</text><!--link System to SystemBusinessInformation--><path d="M1284.04,184.055 C1302.77,191.908 1321.31,201.753 1337,214 C1431.57,287.813 1375.91,373.114 1468,450 C1596.16,557.005 1792.62,596.496 1908.11,610.901 " fill="none" id="System-SystemBusinessInformation" style="stroke: #A80036; stroke-width: 1.0;"/><polygon fill="#A80036" points="1913.21,611.527,1904.7695,606.4517,1908.2479,610.9128,1903.7868,614.3912,1913.21,611.527" style="stroke: #A80036; stroke-width: 1.0;"/><text fill="#000000" font-family="sans-serif" font-size="13" lengthAdjust="spacingAndGlyphs" textLength="190" x="1469" y="418.0669">SystemGeneratedInformation</text><text fill="#000000" font-family="sans-serif" font-size="13" lengthAdjust="spacingAndGlyphs" textLength="8" x="1897.5802" y="606.4062">1</text><!--link System to DateTimePeriod--><path d="M1307.06,155.288 C1579.83,154.839 2213.54,159.881 2421,214 C2438.31,218.515 2440.52,225.051 2457,232 C2499.19,249.784 2548.91,266.535 2583.06,277.419 " fill="none" id="System-DateTimePeriod" style="stroke: #A80036; stroke-width: 1.0;"/><polygon fill="#A80036" points="2587.99,278.982,2580.6239,272.4444,2583.2248,277.4679,2578.2013,280.0687,2587.99,278.982" style="stroke: #A80036; stroke-width: 1.0;"/><text fill="#000000" font-family="sans-serif" font-size="13" lengthAdjust="spacingAndGlyphs" textLength="134" x="2458" y="227.0669">VersionValidityPeriod</text><text fill="#000000" font-family="sans-serif" font-size="13" lengthAdjust="spacingAndGlyphs" textLength="8" x="2564.8069" y="268.024">1</text><!--link System to Negotiation--><path d="M1307.18,157.933 C1511.4,162.158 1903.02,175.19 2036,214 C2089.06,229.485 2260.32,306.824 2287,352 C2327.53,420.613 2209.95,479.118 2148.63,504.083 " fill="none" id="System-Negotiation" style="stroke: #A80036; stroke-width: 1.0;"/><polygon fill="#A80036" points="2143.96,505.966,2153.8029,506.3082,2148.5968,504.0953,2150.8097,498.8892,2143.96,505.966" style="stroke: #A80036; stroke-width: 1.0;"/><text fill="#000000" font-family="sans-serif" font-size="13" lengthAdjust="spacingAndGlyphs" textLength="74" x="2295" y="365.0669">Negotiation</text><text fill="#000000" font-family="sans-serif" font-size="13" lengthAdjust="spacingAndGlyphs" textLength="24" x="2124.7041" y="495.0025">0..1</text><!--link System to Account--><path d="M1307.17,164.85 C1454.3,177.301 1685.29,204.355 1755,255 C1793,282.609 1774.69,315.458 1812,344 C1851.97,374.578 1875.19,355.096 1920,378 C1930.9,383.571 1941.93,391.636 1950.57,398.621 " fill="none" id="System-Account" style="stroke: #A80036; stroke-width: 1.0;"/><polygon fill="#A80036" points="1954.61,401.947,1950.197,393.1422,1950.7473,398.7722,1945.1173,399.3225,1954.61,401.947" style="stroke: #A80036; stroke-width: 1.0;"/><text fill="#000000" font-family="sans-serif" font-size="13" lengthAdjust="spacingAndGlyphs" textLength="52" x="1813" y="295.0669">Account</text><text fill="#000000" font-family="sans-serif" font-size="13" lengthAdjust="spacingAndGlyphs" textLength="8" x="1939.5462" y="390.977">1</text><!--link System to Trade--><path d="M1253.42,184.006 C1296.28,205.645 1342,240.36 1342,290 C1342,290 1342,290 1342,519 C1342,606.95 1672.37,617.608 1768.22,618.85 " fill="none" id="System-Trade" style="stroke: #A80036; stroke-width: 1.0;"/><polygon fill="#A80036" points="1773.4,618.911,1764.4463,614.8084,1768.4003,618.8539,1764.3549,622.8079,1773.4,618.911" style="stroke: #A80036; stroke-width: 1.0;"/><text fill="#000000" font-family="sans-serif" font-size="13" lengthAdjust="spacingAndGlyphs" textLength="36" x="1343" y="418.0669">Trade</text><text fill="#000000" font-family="sans-serif" font-size="13" lengthAdjust="spacingAndGlyphs" textLength="8" x="1757.3856" y="612.4229">1</text><!--link System to Assessment--><path d="M1307.36,160.53 C1512.3,168.565 1898.11,187.042 1955,214 C1977.73,224.77 1981.42,233.224 1994,255 C2020.66,301.149 1986.5,336.557 2028,370 C2046.91,385.24 2120.47,360.209 2137,378 C2158.78,401.441 2157.34,425.299 2137,450 C2118.23,472.788 1929.76,499.651 1840.46,511.223 " fill="none" id="System-Assessment" style="stroke: #A80036; stroke-width: 1.0;"/><polygon fill="#A80036" points="1835.24,511.896,1844.6716,514.7324,1840.2003,511.2672,1843.6655,506.7959,1835.24,511.896" style="stroke: #A80036; stroke-width: 1.0;"/><text fill="#000000" font-family="sans-serif" font-size="13" lengthAdjust="spacingAndGlyphs" textLength="79" x="2029" y="365.0669">Assessment</text><text fill="#000000" font-family="sans-serif" font-size="13" lengthAdjust="spacingAndGlyphs" textLength="24" x="1843.0596" y="505.83">0..1</text><!--link System to Position--><path d="M1307.16,165.275 C1351.79,173.294 1400.37,187.835 1439,214 C1496.97,253.27 1470.97,303.37 1528,344 C1574.54,377.159 1599.76,354.846 1652,378 C1664.68,383.618 1677.81,391.873 1688.07,398.956 " fill="none" id="System-Position" style="stroke: #A80036; stroke-width: 1.0;"/><polygon fill="#A80036" points="1692.28,401.908,1687.2083,393.4654,1688.1864,399.037,1682.6147,400.0152,1692.28,401.908" style="stroke: #A80036; stroke-width: 1.0;"/><text fill="#000000" font-family="sans-serif" font-size="13" lengthAdjust="spacingAndGlyphs" textLength="93" x="1529" y="295.0669">TradesPosition</text><text fill="#000000" font-family="sans-serif" font-size="13" lengthAdjust="spacingAndGlyphs" textLength="8" x="1676.3294" y="390.9246">1</text><!--link TerminalManagementSystem to AcceptorConfiguration--><path d="M1053.68,298.676 C864.75,310.551 509.986,337.92 469,378 C437.543,408.761 434.13,437.267 455,476 C482.894,527.769 650.537,582.443 732.266,606.453 " fill="none" id="TerminalManagementSystem-AcceptorConfiguration" style="stroke: #A80036; stroke-width: 1.0;"/><polygon fill="#A80036" points="737.522,607.99,730.0055,601.6259,732.7228,606.5874,727.7613,609.3046,737.522,607.99" style="stroke: #A80036; stroke-width: 1.0;"/><text fill="#000000" font-family="sans-serif" font-size="13" lengthAdjust="spacingAndGlyphs" textLength="142" x="456" y="471.0669">AcceptorConfiguration</text><text fill="#000000" font-family="sans-serif" font-size="13" lengthAdjust="spacingAndGlyphs" textLength="7" x="714.4046" y="597.0348">*</text><!--link TerminalManagementSystem to NetworkAccess--><path d="M1168.2,320.015 C1163.09,355.711 1148.89,416.756 1110,450 C1072.15,482.351 933.363,502.366 854.582,511.375 " fill="none" id="TerminalManagementSystem-NetworkAccess" style="stroke: #A80036; stroke-width: 1.0;"/><polygon fill="#A80036" points="849.481,511.952,858.8732,514.9162,854.4494,511.3906,857.975,506.9668,849.481,511.952" style="stroke: #A80036; stroke-width: 1.0;"/><text fill="#000000" font-family="sans-serif" font-size="13" lengthAdjust="spacingAndGlyphs" textLength="97" x="1155" y="418.0669">NetworkAccess</text><text fill="#000000" font-family="sans-serif" font-size="13" lengthAdjust="spacingAndGlyphs" textLength="7" x="857.7086" y="505.8038">*</text><!--link TerminalManagementSystem to CardPaymentAcquiring--><path d="M1053.53,291.938 C941.536,294.68 784.285,306.794 745,352 C733.034,365.769 746.578,384.969 759.334,398.129 " fill="none" id="TerminalManagementSystem-CardPaymentAcquiring" style="stroke: #A80036; stroke-width: 1.0;"/><polygon fill="#A80036" points="762.888,401.672,759.3376,392.4853,759.3468,398.1422,753.6899,398.1513,762.888,401.672" style="stroke: #A80036; stroke-width: 1.0;"/><text fill="#000000" font-family="sans-serif" font-size="13" lengthAdjust="spacingAndGlyphs" textLength="146" x="746" y="365.0669">CardPaymentAcquiring</text><text fill="#000000" font-family="sans-serif" font-size="13" lengthAdjust="spacingAndGlyphs" textLength="24" x="729.1556" y="390.8668">0..1</text><!--link TerminalManagementSystem to TerminalManagerRole--><path d="M1053.5,295.76 C884.109,302.263 580.211,318.29 476,352 C388.756,380.221 344.211,378.226 299,458 C246.348,550.903 417.875,592.939 522.716,609.58 " fill="none" id="TerminalManagementSystem-TerminalManagerRole" style="stroke: #A80036; stroke-width: 1.0;"/><polygon fill="#A80036" points="527.657,610.354,519.3852,605.0083,522.7173,609.5795,518.1461,612.9117,527.657,610.354" style="stroke: #A80036; stroke-width: 1.0;"/><text fill="#000000" font-family="sans-serif" font-size="13" lengthAdjust="spacingAndGlyphs" textLength="138" x="300" y="471.0669">TerminalManagerRole</text><text fill="#000000" font-family="sans-serif" font-size="13" lengthAdjust="spacingAndGlyphs" textLength="7" x="512.7344" y="604.7556">*</text><!--link TerminalManagementSystem to PointOfInteraction--><path d="M1053.5,316.589 C1008.84,329.791 959.305,349.421 920,378 C887.648,401.524 898.917,427.274 866,450 C831.737,473.656 816.187,465.113 776,476 C738.787,486.081 696.555,496.744 664.543,504.668 " fill="none" id="TerminalManagementSystem-PointOfInteraction" style="stroke: #A80036; stroke-width: 1.0;"/><polygon fill="#A80036" points="659.495,505.916,669.1919,507.6393,664.3489,504.7161,667.2721,499.8731,659.495,505.916" style="stroke: #A80036; stroke-width: 1.0;"/><text fill="#000000" font-family="sans-serif" font-size="13" lengthAdjust="spacingAndGlyphs" textLength="179" x="921" y="418.0669">ControlledPointOfInteraction</text><text fill="#000000" font-family="sans-serif" font-size="13" lengthAdjust="spacingAndGlyphs" textLength="7" x="665.5011" y="494.9353">*</text><!--link TerminalManagementSystem to TerminalManagementAction--><path d="M1053.73,294.563 C954.705,299.556 810.232,313.546 690,352 C655.506,363.032 619.288,384.625 597.424,398.934 " fill="none" id="TerminalManagementSystem-TerminalManagementAction" style="stroke: #A80036; stroke-width: 1.0;"/><polygon fill="#A80036" points="592.982,401.871,602.6955,400.2438,597.1528,399.1133,598.2833,393.5706,592.982,401.871" style="stroke: #A80036; stroke-width: 1.0;"/><text fill="#000000" font-family="sans-serif" font-size="13" lengthAdjust="spacingAndGlyphs" textLength="40" x="691" y="365.0669">Action</text><text fill="#000000" font-family="sans-serif" font-size="13" lengthAdjust="spacingAndGlyphs" textLength="7" x="588.9289" y="390.8749">*</text><!--link DateTimePeriod to Account--><path d="M2599.18,303.047 C2559.03,320.396 2476.97,353.727 2404,370 C2256.13,402.973 2074.49,410.666 2000.62,412.457 " fill="none" id="DateTimePeriod-Account" style="stroke: #A80036; stroke-width: 1.0;"/><polygon fill="#A80036" points="1995.49,412.577,2004.5791,416.3702,2000.4887,412.4627,2004.3962,408.3723,1995.49,412.577" style="stroke: #A80036; stroke-width: 1.0;"/><text fill="#000000" font-family="sans-serif" font-size="13" lengthAdjust="spacingAndGlyphs" textLength="52" x="2467" y="365.0669">Account</text><text fill="#000000" font-family="sans-serif" font-size="13" lengthAdjust="spacingAndGlyphs" textLength="24" x="2003.7895" y="406.6142">0..1</text><!--link DateTimePeriod to SystemAvailability--><path d="M2658.09,303.02 C2701.52,319.449 2771,354.824 2771,413 C2771,413 2771,413 2771,897 C2771,940.5194 2114.43,970.2827 1906.42,978.6203 " fill="none" id="DateTimePeriod-SystemAvailability" style="stroke: #A80036; stroke-width: 1.0;"/><polygon fill="#A80036" points="1901.29,978.8252,1910.4428,982.462,1906.286,978.6252,1910.1228,974.4684,1901.29,978.8252" style="stroke: #A80036; stroke-width: 1.0;"/><text fill="#000000" font-family="sans-serif" font-size="13" lengthAdjust="spacingAndGlyphs" textLength="164" x="2772" y="677.0669">RelatedSystemAvailability</text><text fill="#000000" font-family="sans-serif" font-size="13" lengthAdjust="spacingAndGlyphs" textLength="8" x="1909.8738" y="973.2619">1</text><!--link Reconciliation to Trade--><path d="M1919.82,303.215 C1908.79,314.071 1891.27,330.781 1875,344 C1854.71,360.486 1845.13,359.166 1827,378 C1800.5,405.53 1802.44,419.068 1780,450 C1761.25,475.844 1745.6,475.882 1735,506 C1721.93,543.143 1755.53,583.241 1777.24,604.244 " fill="none" id="Reconciliation-Trade" style="stroke: #A80036; stroke-width: 1.0;"/><polygon fill="#A80036" points="1781.14,607.939,1777.3626,598.8433,1777.5122,604.4982,1771.8573,604.6478,1781.14,607.939" style="stroke: #A80036; stroke-width: 1.0;"/><text fill="#000000" font-family="sans-serif" font-size="13" lengthAdjust="spacingAndGlyphs" textLength="111" x="1775" y="471.0669">ReconciledTrades</text><text fill="#000000" font-family="sans-serif" font-size="13" lengthAdjust="spacingAndGlyphs" textLength="8" x="1777.9225" y="596.9662">1</text><!--link Reconciliation to Account--><path d="M1929.12,303.259 C1927.01,318.798 1924.84,347.455 1933,370 C1936.77,380.42 1944.15,390.256 1951.07,397.885 " fill="none" id="Reconciliation-Account" style="stroke: #A80036; stroke-width: 1.0;"/><polygon fill="#A80036" points="1954.84,401.886,1951.5826,392.5914,1951.4124,398.2457,1945.7581,398.0755,1954.84,401.886" style="stroke: #A80036; stroke-width: 1.0;"/><text fill="#000000" font-family="sans-serif" font-size="13" lengthAdjust="spacingAndGlyphs" textLength="52" x="1934" y="365.0669">Account</text><text fill="#000000" font-family="sans-serif" font-size="13" lengthAdjust="spacingAndGlyphs" textLength="8" x="1951.9491" y="390.895">1</text><!--link Negotiation to Trade--><path d="M2074.6,526.395 C2038.82,533.544 1984.79,545.419 1939,560 C1896.16,573.642 1848.14,594.29 1819.52,607.193 " fill="none" id="Negotiation-Trade" style="stroke: #A80036; stroke-width: 1.0;"/><polygon fill="#A80036" points="1814.75,609.352,1824.5985,609.2681,1819.3016,607.2824,1821.2872,601.9855,1814.75,609.352" style="stroke: #A80036; stroke-width: 1.0;"/><text fill="#000000" font-family="sans-serif" font-size="13" lengthAdjust="spacingAndGlyphs" textLength="98" x="1940" y="573.0669">TradeExecution</text><text fill="#000000" font-family="sans-serif" font-size="13" lengthAdjust="spacingAndGlyphs" textLength="8" x="1823.3891" y="598.6266">1</text><!--link Account to Account--><path d="M1995.51,404.938 C2013.18,402.753 2030,405.773 2030,414 C2030,421.391 2016.42,424.58 2000.85,423.567 " fill="none" id="Account-Account" style="stroke: #A80036; stroke-width: 1.0;"/><polygon fill="#A80036" points="1995.51,423.062,2004.0928,427.8926,2000.4877,423.5333,2004.847,419.9282,1995.51,423.062" style="stroke: #A80036; stroke-width: 1.0;"/><text fill="#000000" font-family="sans-serif" font-size="13" lengthAdjust="spacingAndGlyphs" textLength="94" x="2036" y="418.0669">ParentAccount</text><text fill="#000000" font-family="sans-serif" font-size="13" lengthAdjust="spacingAndGlyphs" textLength="8" x="2003.7766" y="439.3939">1</text><!--link CardPaymentAcquiring to PointOfInteraction--><path d="M749.737,426.002 C731.499,433.391 706.525,443.015 684,450 C669.586,454.47 663.245,449.179 651,458 C636.147,468.7 625.92,487.381 620.044,500.86 " fill="none" id="CardPaymentAcquiring-PointOfInteraction" style="stroke: #A80036; stroke-width: 1.0;"/><polygon fill="#A80036" points="618.075,505.566,625.2388,498.8073,620.0049,500.9535,617.8587,495.7195,618.075,505.566" style="stroke: #A80036; stroke-width: 1.0;"/><text fill="#000000" font-family="sans-serif" font-size="13" lengthAdjust="spacingAndGlyphs" textLength="114" x="652" y="471.0669">PointOfInteraction</text><text fill="#000000" font-family="sans-serif" font-size="13" lengthAdjust="spacingAndGlyphs" textLength="24" x="590.1505" y="494.9863">0..1</text></g></svg>