<?xml version="1.0" encoding="UTF-8" standalone="no"?><svg xmlns="http://www.w3.org/2000/svg" xmlns:xlink="http://www.w3.org/1999/xlink" contentScriptType="application/ecmascript" contentStyleType="text/css" height="444px" preserveAspectRatio="none" style="width:669px;height:444px;" version="1.1" viewBox="0 0 669 444" width="669px" zoomAndPan="magnify"><defs><filter height="300%" id="f1511w274zjzag" width="300%" x="-1" y="-1"><feGaussianBlur result="blurOut" stdDeviation="2.0"/><feColorMatrix in="blurOut" result="blurOut2" type="matrix" values="0 0 0 0 0 0 0 0 0 0 0 0 0 0 0 0 0 0 .4 0"/><feOffset dx="4.0" dy="4.0" in="blurOut2" result="blurOut3"/><feBlend in="SourceGraphic" in2="blurOut3" mode="normal"/></filter></defs><g><!--cluster ##9465--><!--cluster ##9468--><!--class TradingSession--><a target="_top" xlink:actuate="onRequest" xlink:href="../TradingSession.html" xlink:show="new" xlink:title="Established constraints under which a market operates" xlink:type="simple"><rect fill="#FEFECE" filter="url(#f1511w274zjzag)" height="83.1875" id="TradingSession" style="stroke: #A80036; stroke-width: 1.5;" width="322" x="215" y="40.5"/><rect fill="#FEFECE" height="23.9688" style="stroke: #A80036; stroke-width: 1.5;" width="322" x="215" y="40.5"/><text fill="#000000" font-family="sans-serif" font-size="12" lengthAdjust="spacingAndGlyphs" textLength="96" x="328" y="56.6387">TradingSession</text><line style="stroke: #A80036; stroke-width: 1.5;" x1="216" x2="536" y1="64.4688" y2="64.4688"/><ellipse cx="226" cy="76.3711" fill="#84BE84" rx="3" ry="3" style="stroke: #038048; stroke-width: 1.0;"/><text fill="#000000" font-family="sans-serif" font-size="11" lengthAdjust="spacingAndGlyphs" textLength="122" x="235" y="78.6792">TradingSessionName</text><text fill="#000000" font-family="sans-serif" font-size="11" font-style="italic" lengthAdjust="spacingAndGlyphs" textLength="77" x="361" y="78.6792">(Max140Text)</text><ellipse cx="226" cy="89.1758" fill="#84BE84" rx="3" ry="3" style="stroke: #038048; stroke-width: 1.0;"/><text fill="#000000" font-family="sans-serif" font-size="11" lengthAdjust="spacingAndGlyphs" textLength="138" x="235" y="91.4839">TradingSessionIndicator</text><text fill="#000000" font-family="sans-serif" font-size="11" font-style="italic" lengthAdjust="spacingAndGlyphs" textLength="123" x="377" y="91.4839">(TradingSessionCode)</text><ellipse cx="226" cy="101.9805" fill="#84BE84" rx="3" ry="3" style="stroke: #038048; stroke-width: 1.0;"/><text fill="#000000" font-family="sans-serif" font-size="11" lengthAdjust="spacingAndGlyphs" textLength="124" x="235" y="104.2886">TradingSessionPhase</text><text fill="#000000" font-family="sans-serif" font-size="11" font-style="italic" lengthAdjust="spacingAndGlyphs" textLength="168" x="363" y="104.2886">(TradeExecutionSessionCode)</text><ellipse cx="226" cy="114.7852" fill="#84BE84" rx="3" ry="3" style="stroke: #038048; stroke-width: 1.0;"/><text fill="#000000" font-family="sans-serif" font-size="11" lengthAdjust="spacingAndGlyphs" textLength="148" x="235" y="117.0933">USFuturesTradingSession</text><text fill="#000000" font-family="sans-serif" font-size="11" font-style="italic" lengthAdjust="spacingAndGlyphs" textLength="77" x="387" y="117.0933">(Max140Text)</text></a><!--class DateTimePeriod--><a target="_top" xlink:actuate="onRequest" xlink:href="../DateTimePeriod.html" xlink:show="new" xlink:title="Time span defined by a start date and time, and an end date and time." xlink:type="simple"><rect fill="#EEEEEE" filter="url(#f1511w274zjzag)" height="23.9688" id="DateTimePeriod" style="stroke: #A80036; stroke-width: 1.5;" width="105" x="213.75" y="308"/><rect fill="#EEEEEE" height="23.9688" style="stroke: #A80036; stroke-width: 1.5;" width="105" x="213.75" y="308"/><text fill="#000000" font-family="sans-serif" font-size="12" lengthAdjust="spacingAndGlyphs" textLength="99" x="216.75" y="324.1387">DateTimePeriod</text></a><!--class TradingMarket--><a target="_top" xlink:actuate="onRequest" xlink:href="../TradingMarket.html" xlink:show="new" xlink:title="Context or geographic environment in which trading parties may meet in order to negotiate and execute trades among themselves. It also identifies the primary market where an asset is issued." xlink:type="simple"><rect fill="#EEEEEE" filter="url(#f1511w274zjzag)" height="23.9688" id="TradingMarket" style="stroke: #A80036; stroke-width: 1.5;" width="96" x="38" y="206"/><rect fill="#EEEEEE" height="23.9688" style="stroke: #A80036; stroke-width: 1.5;" width="96" x="38" y="206"/><text fill="#000000" font-family="sans-serif" font-size="12" lengthAdjust="spacingAndGlyphs" textLength="90" x="41" y="222.1387">TradingMarket</text></a><!--class SecuritiesQuoteVariable--><a target="_top" xlink:actuate="onRequest" xlink:href="../SecuritiesQuoteVariable.html" xlink:show="new" xlink:title="Proposition of price for a financial instrument." xlink:type="simple"><rect fill="#EEEEEE" filter="url(#f1511w274zjzag)" height="23.9688" id="SecuritiesQuoteVariable" style="stroke: #A80036; stroke-width: 1.5;" width="157" x="38.75" y="410"/><rect fill="#EEEEEE" height="23.9688" style="stroke: #A80036; stroke-width: 1.5;" width="157" x="38.75" y="410"/><text fill="#000000" font-family="sans-serif" font-size="12" lengthAdjust="spacingAndGlyphs" textLength="151" x="41.75" y="426.1387">SecuritiesQuoteVariable</text></a><!--class SecuritiesOrder--><a target="_top" xlink:actuate="onRequest" xlink:href="../SecuritiesOrder.html" xlink:show="new" xlink:title="Intention to transfer an ownership of a financial instrument." xlink:type="simple"><rect fill="#EEEEEE" filter="url(#f1511w274zjzag)" height="23.9688" id="SecuritiesOrder" style="stroke: #A80036; stroke-width: 1.5;" width="103" x="75.75" y="308"/><rect fill="#EEEEEE" height="23.9688" style="stroke: #A80036; stroke-width: 1.5;" width="103" x="75.75" y="308"/><text fill="#000000" font-family="sans-serif" font-size="12" lengthAdjust="spacingAndGlyphs" textLength="97" x="78.75" y="324.1387">SecuritiesOrder</text></a><!--class ListTrading--><a target="_top" xlink:actuate="onRequest" xlink:href="../ListTrading.html" xlink:show="new" xlink:title="Provides the details for negotiating and trading a large number of securities contained in or comprising a portfolio. One example is index arbitrage, which consists in the purchase or sale of a basket of stocks in conjunction with the sale or purchase of a derivative product (for example index futures) to profit from price differences between the basket and the derivative product. Other examples include liquidation of EFP (Exchange for Physical) stock positions, portfolio realignment and portfolio liquidation." xlink:type="simple"><rect fill="#EEEEEE" filter="url(#f1511w274zjzag)" height="23.9688" id="ListTrading" style="stroke: #A80036; stroke-width: 1.5;" width="74" x="231" y="410"/><rect fill="#EEEEEE" height="23.9688" style="stroke: #A80036; stroke-width: 1.5;" width="74" x="231" y="410"/><text fill="#000000" font-family="sans-serif" font-size="12" lengthAdjust="spacingAndGlyphs" textLength="68" x="234" y="426.1387">ListTrading</text></a><!--link TradingMarket to DateTimePeriod--><!--link SecuritiesQuoteVariable to TradingMarket--><!--link SecuritiesOrder to SecuritiesQuoteVariable--><!--link SecuritiesQuoteVariable to SecuritiesOrder--><path d="M100.0074,409.9683 C84.8222,398.6225 66.2213,380.1009 75,362 C80.4871,350.686 90.7775,341.556 100.7653,334.808 " fill="none" id="SecuritiesQuoteVariable-SecuritiesOrder" style="stroke: #A80036; stroke-width: 1.0;"/><polygon fill="#A80036" points="105.0123,332.063,95.2825,333.59,100.8133,334.7775,99.6258,340.3083,105.0123,332.063" style="stroke: #A80036; stroke-width: 1.0;"/><text fill="#000000" font-family="sans-serif" font-size="13" lengthAdjust="spacingAndGlyphs" textLength="99" x="76" y="375.0669">SecuritiesOrder</text><text fill="#000000" font-family="sans-serif" font-size="13" lengthAdjust="spacingAndGlyphs" textLength="8" x="84.7767" y="352.2335">1</text><!--link ListTrading to SecuritiesOrder--><!--link SecuritiesOrder to ListTrading--><path d="M151.157,332.153 C166.548,339.705 186.602,350.395 203,362 C221.714,375.2446 240.88,393.2973 253.504,405.9334 " fill="none" id="SecuritiesOrder-ListTrading" style="stroke: #A80036; stroke-width: 1.0;"/><polygon fill="#A80036" points="257.204,409.6697,253.7135,400.4601,253.6858,406.1169,248.029,406.0893,257.204,409.6697" style="stroke: #A80036; stroke-width: 1.0;"/><text fill="#000000" font-family="sans-serif" font-size="13" lengthAdjust="spacingAndGlyphs" textLength="69" x="227" y="375.0669">ListTrading</text><text fill="#000000" font-family="sans-serif" font-size="13" lengthAdjust="spacingAndGlyphs" textLength="24" x="224.3216" y="398.8637">0..1</text><!--link TradingSession to DateTimePeriod--><path d="M360.051,123.704 C348.093,153.473 330.937,194.656 314,230 C301.449,256.192 285.072,285.702 275.057,303.302 " fill="none" id="TradingSession-DateTimePeriod" style="stroke: #A80036; stroke-width: 1.0;"/><polygon fill="#A80036" points="272.41,307.938,280.3474,302.1072,274.8901,303.5964,273.4009,298.1391,272.41,307.938" style="stroke: #A80036; stroke-width: 1.0;"/><text fill="#000000" font-family="sans-serif" font-size="13" lengthAdjust="spacingAndGlyphs" textLength="80" x="337" y="222.0669">TimeBracket</text><text fill="#000000" font-family="sans-serif" font-size="13" lengthAdjust="spacingAndGlyphs" textLength="8" x="263.8088" y="296.9649">1</text><!--link TradingSession to TradingMarket--><path d="M214.914,114.77 C185.408,124.979 156.059,138.396 131,156 C114.359,167.69 101.4114,187.494 93.7617,201.357 " fill="none" id="TradingSession-TradingMarket" style="stroke: #A80036; stroke-width: 1.0;"/><polygon fill="#A80036" points="91.3728,205.81,99.1528,199.7708,93.7369,201.4042,92.1035,195.9883,91.3728,205.81" style="stroke: #A80036; stroke-width: 1.0;"/><text fill="#000000" font-family="sans-serif" font-size="13" lengthAdjust="spacingAndGlyphs" textLength="44" x="132" y="169.0669">Market</text><text fill="#000000" font-family="sans-serif" font-size="13" lengthAdjust="spacingAndGlyphs" textLength="24" x="63.8463" y="195.0505">0..1</text><!--link TradingSession to SecuritiesQuoteVariable--><path d="M405.305,123.598 C422.921,153.138 439.68,194.084 427,230 C398.484,310.767 378.895,335.025 306,380 C287.565,391.3738 239.702,401.6977 196.757,409.1407 " fill="none" id="TradingSession-SecuritiesQuoteVariable" style="stroke: #A80036; stroke-width: 1.0;"/><polygon fill="#A80036" points="191.816,409.9884,201.3629,412.4085,196.744,409.1427,200.0098,404.5238,191.816,409.9884" style="stroke: #A80036; stroke-width: 1.0;"/><text fill="#000000" font-family="sans-serif" font-size="13" lengthAdjust="spacingAndGlyphs" textLength="39" x="417" y="273.0669">Quote</text><text fill="#000000" font-family="sans-serif" font-size="13" lengthAdjust="spacingAndGlyphs" textLength="24" x="187.9793" y="399.0326">0..1</text><!--link TradingSession to SecuritiesOrder--><path d="M275.206,123.549 C248.756,138.443 222.493,157.756 204,182 C177.26,217.055 203.123,241.095 179,278 C171.9,288.862 160.952,298.116 150.929,305.069 " fill="none" id="TradingSession-SecuritiesOrder" style="stroke: #A80036; stroke-width: 1.0;"/><polygon fill="#A80036" points="146.704,307.906,156.4058,306.2104,150.8552,305.119,151.9466,299.5684,146.704,307.906" style="stroke: #A80036; stroke-width: 1.0;"/><text fill="#000000" font-family="sans-serif" font-size="13" lengthAdjust="spacingAndGlyphs" textLength="99" x="205" y="222.0669">SecuritiesOrder</text><text fill="#000000" font-family="sans-serif" font-size="13" lengthAdjust="spacingAndGlyphs" textLength="24" x="123.9226" y="296.9219">0..1</text><!--link TradingSession to ListTrading--><path d="M501.659,123.696 C515.507,132.506 528.138,143.154 538,156 C598.624,234.969 608.903,310.114 538,380 C506.571,410.9778 378.088,418.5832 310.314,420.4273 " fill="none" id="TradingSession-ListTrading" style="stroke: #A80036; stroke-width: 1.0;"/><polygon fill="#A80036" points="305.143,420.56,314.2429,424.3272,310.1413,420.4314,314.0372,416.3299,305.143,420.56" style="stroke: #A80036; stroke-width: 1.0;"/><text fill="#000000" font-family="sans-serif" font-size="13" lengthAdjust="spacingAndGlyphs" textLength="69" x="588" y="273.0669">ListTrading</text><text fill="#000000" font-family="sans-serif" font-size="13" lengthAdjust="spacingAndGlyphs" textLength="24" x="312.9752" y="415.0558">0..1</text><!--link TradingMarket to SecuritiesOrder--><path d="M82.8471,230.396 C80.0651,242.681 77.3834,262.549 84,278 C88.5363,288.593 97.3025,297.749 105.7428,304.704 " fill="none" id="TradingMarket-SecuritiesOrder" style="stroke: #A80036; stroke-width: 1.0;"/><polygon fill="#A80036" points="109.84,307.939,105.2549,299.2226,105.9157,304.8407,100.2975,305.5015,109.84,307.939" style="stroke: #A80036; stroke-width: 1.0;"/><text fill="#000000" font-family="sans-serif" font-size="13" lengthAdjust="spacingAndGlyphs" textLength="84" x="85" y="273.0669">RelatedOrder</text><text fill="#000000" font-family="sans-serif" font-size="13" lengthAdjust="spacingAndGlyphs" textLength="24" x="74.3867" y="296.9662">0..1</text></g></svg>