<?xml version="1.0" encoding="UTF-8" standalone="no"?><svg xmlns="http://www.w3.org/2000/svg" xmlns:xlink="http://www.w3.org/1999/xlink" contentScriptType="application/ecmascript" contentStyleType="text/css" height="1648px" preserveAspectRatio="none" style="width:2433px;height:1648px;" version="1.1" viewBox="0 0 2433 1648" width="2433px" zoomAndPan="magnify"><defs><filter height="300%" id="fn6rdmlwog5o" width="300%" x="-1" y="-1"><feGaussianBlur result="blurOut" stdDeviation="2.0"/><feColorMatrix in="blurOut" result="blurOut2" type="matrix" values="0 0 0 0 0 0 0 0 0 0 0 0 0 0 0 0 0 0 .4 0"/><feOffset dx="4.0" dy="4.0" in="blurOut2" result="blurOut3"/><feBlend in="SourceGraphic" in2="blurOut3" mode="normal"/></filter></defs><g><!--cluster ##13421--><!--cluster ##13427--><!--cluster ##13456--><!--class Document--><a target="_top" xlink:actuate="onRequest" xlink:href="../Document.html" xlink:show="new" xlink:title="General information that unambiguously identifies a document, such as identification number and issue date time." xlink:type="simple"><rect fill="#FEFEEE" filter="url(#fn6rdmlwog5o)" height="172.8203" id="Document" style="stroke: #A80036; stroke-width: 1.5;" width="249" x="1058.75" y="40.5"/><rect fill="#FEFEEE" height="23.9688" style="stroke: #A80036; stroke-width: 1.5;" width="249" x="1058.75" y="40.5"/><text fill="#000000" font-family="sans-serif" font-size="12" lengthAdjust="spacingAndGlyphs" textLength="64" x="1151.25" y="56.6387">Document</text><line style="stroke: #A80036; stroke-width: 1.5;" x1="1059.75" x2="1306.75" y1="64.4688" y2="64.4688"/><ellipse cx="1069.75" cy="76.3711" fill="#84BE84" rx="3" ry="3" style="stroke: #038048; stroke-width: 1.0;"/><text fill="#000000" font-family="sans-serif" font-size="11" lengthAdjust="spacingAndGlyphs" textLength="57" x="1078.75" y="78.6792">IssueDate</text><text fill="#000000" font-family="sans-serif" font-size="11" font-style="italic" lengthAdjust="spacingAndGlyphs" textLength="81" x="1139.75" y="78.6792">(ISODateTime)</text><ellipse cx="1069.75" cy="89.1758" fill="#84BE84" rx="3" ry="3" style="stroke: #038048; stroke-width: 1.0;"/><text fill="#000000" font-family="sans-serif" font-size="11" lengthAdjust="spacingAndGlyphs" textLength="80" x="1078.75" y="91.4839">CopyDuplicate</text><text fill="#000000" font-family="sans-serif" font-size="11" font-style="italic" lengthAdjust="spacingAndGlyphs" textLength="118" x="1162.75" y="91.4839">(CopyDuplicateCode)</text><ellipse cx="1069.75" cy="101.9805" fill="#84BE84" rx="3" ry="3" style="stroke: #038048; stroke-width: 1.0;"/><text fill="#000000" font-family="sans-serif" font-size="11" lengthAdjust="spacingAndGlyphs" textLength="27" x="1078.75" y="104.2886">Type</text><text fill="#000000" font-family="sans-serif" font-size="11" font-style="italic" lengthAdjust="spacingAndGlyphs" textLength="122" x="1109.75" y="104.2886">(DocumentTypeCode)</text><ellipse cx="1069.75" cy="114.7852" fill="#84BE84" rx="3" ry="3" style="stroke: #038048; stroke-width: 1.0;"/><text fill="#000000" font-family="sans-serif" font-size="11" lengthAdjust="spacingAndGlyphs" textLength="43" x="1078.75" y="117.0933">Amount</text><text fill="#000000" font-family="sans-serif" font-size="11" font-style="italic" lengthAdjust="spacingAndGlyphs" textLength="161" x="1125.75" y="117.0933">(ActiveCurrencyAndAmount)</text><ellipse cx="1069.75" cy="127.5898" fill="#84BE84" rx="3" ry="3" style="stroke: #038048; stroke-width: 1.0;"/><text fill="#000000" font-family="sans-serif" font-size="11" lengthAdjust="spacingAndGlyphs" textLength="100" x="1078.75" y="129.8979">DocumentVersion</text><text fill="#000000" font-family="sans-serif" font-size="11" font-style="italic" lengthAdjust="spacingAndGlyphs" textLength="53" x="1182.75" y="129.8979">(Number)</text><ellipse cx="1069.75" cy="140.3945" fill="#84BE84" rx="3" ry="3" style="stroke: #038048; stroke-width: 1.0;"/><text fill="#000000" font-family="sans-serif" font-size="11" lengthAdjust="spacingAndGlyphs" textLength="37" x="1078.75" y="142.7026">Status</text><text fill="#000000" font-family="sans-serif" font-size="11" font-style="italic" lengthAdjust="spacingAndGlyphs" textLength="77" x="1119.75" y="142.7026">(Max140Text)</text><ellipse cx="1069.75" cy="153.1992" fill="#84BE84" rx="3" ry="3" style="stroke: #038048; stroke-width: 1.0;"/><text fill="#000000" font-family="sans-serif" font-size="11" lengthAdjust="spacingAndGlyphs" textLength="72" x="1078.75" y="155.5073">DataSetType</text><text fill="#000000" font-family="sans-serif" font-size="11" font-style="italic" lengthAdjust="spacingAndGlyphs" textLength="109" x="1154.75" y="155.5073">(DataSetTypeCode)</text><ellipse cx="1069.75" cy="166.0039" fill="#84BE84" rx="3" ry="3" style="stroke: #038048; stroke-width: 1.0;"/><text fill="#000000" font-family="sans-serif" font-size="11" lengthAdjust="spacingAndGlyphs" textLength="88" x="1078.75" y="168.312">SignedIndicator</text><text fill="#000000" font-family="sans-serif" font-size="11" font-style="italic" lengthAdjust="spacingAndGlyphs" textLength="92" x="1170.75" y="168.312">(YesNoIndicator)</text><ellipse cx="1069.75" cy="178.8086" fill="#84BE84" rx="3" ry="3" style="stroke: #038048; stroke-width: 1.0;"/><text fill="#000000" font-family="sans-serif" font-size="11" lengthAdjust="spacingAndGlyphs" textLength="93" x="1078.75" y="181.1167">RemittedAmount</text><text fill="#000000" font-family="sans-serif" font-size="11" font-style="italic" lengthAdjust="spacingAndGlyphs" textLength="126" x="1175.75" y="181.1167">(CurrencyAndAmount)</text><ellipse cx="1069.75" cy="191.6133" fill="#84BE84" rx="3" ry="3" style="stroke: #038048; stroke-width: 1.0;"/><text fill="#000000" font-family="sans-serif" font-size="11" lengthAdjust="spacingAndGlyphs" textLength="55" x="1078.75" y="193.9214">Language</text><text fill="#000000" font-family="sans-serif" font-size="11" font-style="italic" lengthAdjust="spacingAndGlyphs" textLength="92" x="1137.75" y="193.9214">(LanguageCode)</text><ellipse cx="1069.75" cy="204.418" fill="#84BE84" rx="3" ry="3" style="stroke: #038048; stroke-width: 1.0;"/><text fill="#000000" font-family="sans-serif" font-size="11" lengthAdjust="spacingAndGlyphs" textLength="47" x="1078.75" y="206.7261">Purpose</text><text fill="#000000" font-family="sans-serif" font-size="11" font-style="italic" lengthAdjust="spacingAndGlyphs" textLength="70" x="1129.75" y="206.7261">(Max35Text)</text></a><!--class TradeCertificate--><a target="_top" xlink:actuate="onRequest" xlink:href="../TradeCertificate.html" xlink:show="new" xlink:title="Formal document used to record a fact and used as proof of the fact, in the context of a commercial trade transaction." xlink:type="simple"><rect fill="#FEFECE" filter="url(#fn6rdmlwog5o)" height="44.7734" id="TradeCertificate" style="stroke: #A80036; stroke-width: 1.5;" width="271" x="1036.75" y="292.5"/><rect fill="#FEFECE" height="23.9688" style="stroke: #A80036; stroke-width: 1.5;" width="271" x="1036.75" y="292.5"/><text fill="#000000" font-family="sans-serif" font-size="12" lengthAdjust="spacingAndGlyphs" textLength="100" x="1122.25" y="308.6387">TradeCertificate</text><line style="stroke: #A80036; stroke-width: 1.5;" x1="1037.75" x2="1306.75" y1="316.4688" y2="316.4688"/><ellipse cx="1047.75" cy="328.3711" fill="#84BE84" rx="3" ry="3" style="stroke: #038048; stroke-width: 1.0;"/><text fill="#000000" font-family="sans-serif" font-size="11" lengthAdjust="spacingAndGlyphs" textLength="85" x="1056.75" y="330.6792">CertificateType</text><text fill="#000000" font-family="sans-serif" font-size="11" font-style="italic" lengthAdjust="spacingAndGlyphs" textLength="156" x="1145.75" y="330.6792">(TradeCertificateTypeCode)</text></a><!--class ContactPoint--><a target="_top" xlink:actuate="onRequest" xlink:href="../ContactPoint.html" xlink:show="new" xlink:title="Number, physical or virtual address, used for communication." xlink:type="simple"><rect fill="#EEEEEE" filter="url(#fn6rdmlwog5o)" height="23.9688" id="ContactPoint" style="stroke: #A80036; stroke-width: 1.5;" width="87" x="633.75" y="115"/><rect fill="#EEEEEE" height="23.9688" style="stroke: #A80036; stroke-width: 1.5;" width="87" x="633.75" y="115"/><text fill="#000000" font-family="sans-serif" font-size="12" lengthAdjust="spacingAndGlyphs" textLength="81" x="636.75" y="131.1387">ContactPoint</text></a><!--class PaymentObligation--><a target="_top" xlink:actuate="onRequest" xlink:href="../PaymentObligation.html" xlink:show="new" xlink:title="Obligation for the debtor to pay the creditor an amount of cash." xlink:type="simple"><rect fill="#EEEEEE" filter="url(#fn6rdmlwog5o)" height="23.9688" id="PaymentObligation" style="stroke: #A80036; stroke-width: 1.5;" width="123" x="595.75" y="303"/><rect fill="#EEEEEE" height="23.9688" style="stroke: #A80036; stroke-width: 1.5;" width="123" x="595.75" y="303"/><text fill="#000000" font-family="sans-serif" font-size="12" lengthAdjust="spacingAndGlyphs" textLength="117" x="598.75" y="319.1387">PaymentObligation</text></a><!--class Agreement--><a target="_top" xlink:actuate="onRequest" xlink:href="../Agreement.html" xlink:show="new" xlink:title="Contractual details related to an agreement between parties." xlink:type="simple"><rect fill="#EEEEEE" filter="url(#fn6rdmlwog5o)" height="23.9688" id="Agreement" style="stroke: #A80036; stroke-width: 1.5;" width="75" x="561.75" y="1320"/><rect fill="#EEEEEE" height="23.9688" style="stroke: #A80036; stroke-width: 1.5;" width="75" x="561.75" y="1320"/><text fill="#000000" font-family="sans-serif" font-size="12" lengthAdjust="spacingAndGlyphs" textLength="69" x="564.75" y="1336.1387">Agreement</text></a><!--class Location--><a target="_top" xlink:actuate="onRequest" xlink:href="../Location.html" xlink:show="new" xlink:title="Specifies a place." xlink:type="simple"><rect fill="#EEEEEE" filter="url(#fn6rdmlwog5o)" height="23.9688" id="Location" style="stroke: #A80036; stroke-width: 1.5;" width="59" x="569.75" y="1234"/><rect fill="#EEEEEE" height="23.9688" style="stroke: #A80036; stroke-width: 1.5;" width="59" x="569.75" y="1234"/><text fill="#000000" font-family="sans-serif" font-size="12" lengthAdjust="spacingAndGlyphs" textLength="53" x="572.75" y="1250.1387">Location</text></a><!--class Reconciliation--><a target="_top" xlink:actuate="onRequest" xlink:href="../Reconciliation.html" xlink:show="new" xlink:title="Process of matching different documents submitted by parties to a trade." xlink:type="simple"><rect fill="#EEEEEE" filter="url(#fn6rdmlwog5o)" height="23.9688" id="Reconciliation" style="stroke: #A80036; stroke-width: 1.5;" width="93" x="887.75" y="1132"/><rect fill="#EEEEEE" height="23.9688" style="stroke: #A80036; stroke-width: 1.5;" width="93" x="887.75" y="1132"/><text fill="#000000" font-family="sans-serif" font-size="12" lengthAdjust="spacingAndGlyphs" textLength="87" x="890.75" y="1148.1387">Reconciliation</text></a><!--class LetterOfCredit--><a target="_top" xlink:actuate="onRequest" xlink:href="../LetterOfCredit.html" xlink:show="new" xlink:title="Instrument issued by a bank substituting its name and credit standing for that of its customer. A letter of credit is a written undertaking of the bank, issued for the account of a customer (the applicant), to honour a demand for payment, upon the beneficiary's compliance with the terms and conditions set forth in the undertaking." xlink:type="simple"><rect fill="#EEEEEE" filter="url(#fn6rdmlwog5o)" height="23.9688" id="LetterOfCredit" style="stroke: #A80036; stroke-width: 1.5;" width="93" x="887.75" y="1030"/><rect fill="#EEEEEE" height="23.9688" style="stroke: #A80036; stroke-width: 1.5;" width="93" x="887.75" y="1030"/><text fill="#000000" font-family="sans-serif" font-size="12" lengthAdjust="spacingAndGlyphs" textLength="87" x="890.75" y="1046.1387">LetterOfCredit</text></a><!--class DocumentPartyRole--><a target="_top" xlink:actuate="onRequest" xlink:href="../DocumentPartyRole.html" xlink:show="new" xlink:title="Role played by a party in the context of a document." xlink:type="simple"><rect fill="#EEEEEE" filter="url(#fn6rdmlwog5o)" height="23.9688" id="DocumentPartyRole" style="stroke: #A80036; stroke-width: 1.5;" width="129" x="850.75" y="928"/><rect fill="#EEEEEE" height="23.9688" style="stroke: #A80036; stroke-width: 1.5;" width="129" x="850.75" y="928"/><text fill="#000000" font-family="sans-serif" font-size="12" lengthAdjust="spacingAndGlyphs" textLength="123" x="853.75" y="944.1387">DocumentPartyRole</text></a><!--class Transport--><a target="_top" xlink:actuate="onRequest" xlink:href="../Transport.html" xlink:show="new" xlink:title="Moving of goods or people from one place to another by vehicle." xlink:type="simple"><rect fill="#EEEEEE" filter="url(#fn6rdmlwog5o)" height="23.9688" id="Transport" style="stroke: #A80036; stroke-width: 1.5;" width="67" x="882.75" y="826"/><rect fill="#EEEEEE" height="23.9688" style="stroke: #A80036; stroke-width: 1.5;" width="67" x="882.75" y="826"/><text fill="#000000" font-family="sans-serif" font-size="12" lengthAdjust="spacingAndGlyphs" textLength="61" x="885.75" y="842.1387">Transport</text></a><!--class Guarantee--><a target="_top" xlink:actuate="onRequest" xlink:href="../Guarantee.html" xlink:show="new" xlink:title="Partial or full coverage of amounts by a party other than the debtor." xlink:type="simple"><rect fill="#EEEEEE" filter="url(#fn6rdmlwog5o)" height="23.9688" id="Guarantee" style="stroke: #A80036; stroke-width: 1.5;" width="73" x="906.75" y="724"/><rect fill="#EEEEEE" height="23.9688" style="stroke: #A80036; stroke-width: 1.5;" width="73" x="906.75" y="724"/><text fill="#000000" font-family="sans-serif" font-size="12" lengthAdjust="spacingAndGlyphs" textLength="67" x="909.75" y="740.1387">Guarantee</text></a><!--class GenericIdentification--><a target="_top" xlink:actuate="onRequest" xlink:href="../GenericIdentification.html" xlink:show="new" xlink:title="Information related to a non-standardised identification, such as a proprietary party identification or account identification." xlink:type="simple"><rect fill="#EEEEEE" filter="url(#fn6rdmlwog5o)" height="23.9688" id="GenericIdentification" style="stroke: #A80036; stroke-width: 1.5;" width="135" x="820.75" y="622"/><rect fill="#EEEEEE" height="23.9688" style="stroke: #A80036; stroke-width: 1.5;" width="135" x="820.75" y="622"/><text fill="#000000" font-family="sans-serif" font-size="12" lengthAdjust="spacingAndGlyphs" textLength="129" x="823.75" y="638.1387">GenericIdentification</text></a><!--class Evidence--><a target="_top" xlink:actuate="onRequest" xlink:href="../Evidence.html" xlink:show="new" xlink:title="Element such as signature that can be used to prove a fact." xlink:type="simple"><rect fill="#EEEEEE" filter="url(#fn6rdmlwog5o)" height="23.9688" id="Evidence" style="stroke: #A80036; stroke-width: 1.5;" width="62" x="900.5" y="520"/><rect fill="#EEEEEE" height="23.9688" style="stroke: #A80036; stroke-width: 1.5;" width="62" x="900.5" y="520"/><text fill="#000000" font-family="sans-serif" font-size="12" lengthAdjust="spacingAndGlyphs" textLength="56" x="903.5" y="536.1387">Evidence</text></a><!--class CommercialTrade--><a target="_top" xlink:actuate="onRequest" xlink:href="../CommercialTrade.html" xlink:show="new" xlink:title="Commercial details of a trade transaction between a buyer and a seller." xlink:type="simple"><rect fill="#EEEEEE" filter="url(#fn6rdmlwog5o)" height="23.9688" id="CommercialTrade" style="stroke: #A80036; stroke-width: 1.5;" width="114" x="600" y="418"/><rect fill="#EEEEEE" height="23.9688" style="stroke: #A80036; stroke-width: 1.5;" width="114" x="600" y="418"/><text fill="#000000" font-family="sans-serif" font-size="12" lengthAdjust="spacingAndGlyphs" textLength="108" x="603" y="434.1387">CommercialTrade</text></a><!--class Presentation--><a target="_top" xlink:actuate="onRequest" xlink:href="../Presentation.html" xlink:show="new" xlink:title="Presentation of documents." xlink:type="simple"><rect fill="#EEEEEE" filter="url(#fn6rdmlwog5o)" height="23.9688" id="Presentation" style="stroke: #A80036; stroke-width: 1.5;" width="87" x="760.75" y="826"/><rect fill="#EEEEEE" height="23.9688" style="stroke: #A80036; stroke-width: 1.5;" width="87" x="760.75" y="826"/><text fill="#000000" font-family="sans-serif" font-size="12" lengthAdjust="spacingAndGlyphs" textLength="81" x="763.75" y="842.1387">Presentation</text></a><!--class RegisteredContract--><a target="_top" xlink:actuate="onRequest" xlink:href="../RegisteredContract.html" xlink:show="new" xlink:title="Contract registered for regulatory purpose by a registration agent for the journaling of payments made against the contract." xlink:type="simple"><rect fill="#EEEEEE" filter="url(#fn6rdmlwog5o)" height="23.9688" id="RegisteredContract" style="stroke: #A80036; stroke-width: 1.5;" width="128" x="743" y="724"/><rect fill="#EEEEEE" height="23.9688" style="stroke: #A80036; stroke-width: 1.5;" width="128" x="743" y="724"/><text fill="#000000" font-family="sans-serif" font-size="12" lengthAdjust="spacingAndGlyphs" textLength="122" x="746" y="740.1387">RegisteredContract</text></a><!--class DateTimePeriod--><a target="_top" xlink:actuate="onRequest" xlink:href="../DateTimePeriod.html" xlink:show="new" xlink:title="Time span defined by a start date and time, and an end date and time." xlink:type="simple"><rect fill="#EEEEEE" filter="url(#fn6rdmlwog5o)" height="23.9688" id="DateTimePeriod" style="stroke: #A80036; stroke-width: 1.5;" width="105" x="1668.75" y="1426"/><rect fill="#EEEEEE" height="23.9688" style="stroke: #A80036; stroke-width: 1.5;" width="105" x="1668.75" y="1426"/><text fill="#000000" font-family="sans-serif" font-size="12" lengthAdjust="spacingAndGlyphs" textLength="99" x="1671.75" y="1442.1387">DateTimePeriod</text></a><!--class TradeCertificatePartyRole--><a target="_top" xlink:actuate="onRequest" xlink:href="../TradeCertificatePartyRole.html" xlink:show="new" xlink:title="Role played by a party in the context of issuing trade certificates." xlink:type="simple"><rect fill="#EEEEEE" filter="url(#fn6rdmlwog5o)" height="23.9688" id="TradeCertificatePartyRole" style="stroke: #A80036; stroke-width: 1.5;" width="165" x="1695.75" y="1614"/><rect fill="#EEEEEE" height="23.9688" style="stroke: #A80036; stroke-width: 1.5;" width="165" x="1695.75" y="1614"/><text fill="#000000" font-family="sans-serif" font-size="12" lengthAdjust="spacingAndGlyphs" textLength="159" x="1698.75" y="1630.1387">TradeCertificatePartyRole</text></a><!--class ProductDelivery--><a target="_top" xlink:actuate="onRequest" xlink:href="../ProductDelivery.html" xlink:show="new" xlink:title="Arrangements for delivery of invoiced products and/or services." xlink:type="simple"><rect fill="#EEEEEE" filter="url(#fn6rdmlwog5o)" height="23.9688" id="ProductDelivery" style="stroke: #A80036; stroke-width: 1.5;" width="103" x="1749.75" y="1528"/><rect fill="#EEEEEE" height="23.9688" style="stroke: #A80036; stroke-width: 1.5;" width="103" x="1749.75" y="1528"/><text fill="#000000" font-family="sans-serif" font-size="12" lengthAdjust="spacingAndGlyphs" textLength="97" x="1752.75" y="1544.1387">ProductDelivery</text></a><!--link Document to TradeCertificate--><path d="M1176.75,233.7 C1175.44,255.88 1174.18,277.08 1173.29,292.12 " fill="none" id="Document-TradeCertificate" style="stroke: #A80036; stroke-width: 1.0;"/><polygon fill="none" points="1169.77,233.2,1177.93,213.65,1183.74,234.03,1169.77,233.2" style="stroke: #A80036; stroke-width: 1.0;"/><!--link PaymentObligation to ContactPoint--><!--link ContactPoint to PaymentObligation--><path d="M675.809,139.08 C672.426,170.53 662.751,260.52 658.757,297.66 " fill="none" id="ContactPoint-PaymentObligation" style="stroke: #A80036; stroke-width: 1.0;"/><polygon fill="#A80036" points="658.21,302.74,663.1391,294.2133,658.7386,297.768,655.184,293.3675,658.21,302.74" style="stroke: #A80036; stroke-width: 1.0;"/><text fill="#000000" font-family="sans-serif" font-size="13" lengthAdjust="spacingAndGlyphs" textLength="178" x="666" y="257.0669">RemittanceRelatedPayment</text><text fill="#000000" font-family="sans-serif" font-size="13" lengthAdjust="spacingAndGlyphs" textLength="24" x="629.2218" y="291.9573">0..1</text><!--link Agreement to PaymentObligation--><!--link Location to Agreement--><!--link Reconciliation to Location--><!--link LetterOfCredit to Reconciliation--><!--link DocumentPartyRole to LetterOfCredit--><!--link Transport to DocumentPartyRole--><!--link Guarantee to Transport--><!--link GenericIdentification to Guarantee--><!--link Evidence to GenericIdentification--><!--link CommercialTrade to Evidence--><!--link Presentation to CommercialTrade--><!--link RegisteredContract to Presentation--><!--link TradeCertificatePartyRole to DateTimePeriod--><!--link ProductDelivery to TradeCertificatePartyRole--><!--link Document to ContactPoint--><path d="M1058.56,127 C951.311,127 802.08,127 725.934,127 " fill="none" id="Document-ContactPoint" style="stroke: #A80036; stroke-width: 1.0;"/><polygon fill="#A80036" points="720.579,127,729.579,131,725.579,127,729.579,123,720.579,127" style="stroke: #A80036; stroke-width: 1.0;"/><text fill="#000000" font-family="sans-serif" font-size="13" lengthAdjust="spacingAndGlyphs" textLength="99" x="839.25" y="119.0669">PlaceOfStorage</text><text fill="#000000" font-family="sans-serif" font-size="13" lengthAdjust="spacingAndGlyphs" textLength="7" x="728.6277" y="121.6201">*</text><!--link Document to PaymentObligation--><path d="M1058.55,187.43 C1037.82,196.7 1016.42,205.88 996,214 C897.224,253.28 776.894,285.19 709.414,301.72 " fill="none" id="Document-PaymentObligation" style="stroke: #A80036; stroke-width: 1.0;"/><polygon fill="#A80036" points="704.249,302.98,713.9404,304.7342,709.1067,301.7956,712.0453,296.9619,704.249,302.98" style="stroke: #A80036; stroke-width: 1.0;"/><text fill="#000000" font-family="sans-serif" font-size="13" lengthAdjust="spacingAndGlyphs" textLength="121" x="906" y="257.0669">PaymentObligation</text><text fill="#000000" font-family="sans-serif" font-size="13" lengthAdjust="spacingAndGlyphs" textLength="24" x="690.9362" y="292.0213">0..1</text><!--link Document to Agreement--><path d="M1307.26,134.04 C1617.81,150.78 2403,203.99 2403,314 C2403,314 2403,314 2403,584 C2403,663.43 2377.11,682.628 2332,748 C2281.3,821.467 2188,798.739 2188,888 C2188,888 2188,888 2188,1247 C2188,1326.78 893.808,1330.976 641.388,1331.035 " fill="none" id="Document-Agreement" style="stroke: #A80036; stroke-width: 1.0;"/><polygon fill="#A80036" points="636.324,1331.036,645.324,1335.036,641.324,1331.036,645.324,1327.036,636.324,1331.036" style="stroke: #A80036; stroke-width: 1.0;"/><text fill="#000000" font-family="sans-serif" font-size="13" lengthAdjust="spacingAndGlyphs" textLength="72" x="2304" y="791.0669">Agreement</text><text fill="#000000" font-family="sans-serif" font-size="13" lengthAdjust="spacingAndGlyphs" textLength="7" x="644.6924" y="1325.1679">*</text><!--link Document to Location--><path d="M1307.33,135.24 C1604.61,154.2 2332,211.1 2332,314 C2332,314 2332,314 2332,584 C2332,638.27 2319.75,658.17 2279,694 C2082.05,867.173 1965.99,791.822 1719,880 C1395.46,995.505 1325.7,1056.147 997,1156 C864.947,1196.115 703.247,1226.74 633.605,1239.069 " fill="none" id="Document-Location" style="stroke: #A80036; stroke-width: 1.0;"/><polygon fill="#A80036" points="628.352,1239.996,637.91,1242.3719,633.276,1239.1275,636.5204,1234.4935,628.352,1239.996" style="stroke: #A80036; stroke-width: 1.0;"/><text fill="#000000" font-family="sans-serif" font-size="13" lengthAdjust="spacingAndGlyphs" textLength="81" x="2241" y="740.0669">PlaceOfIssue</text><text fill="#000000" font-family="sans-serif" font-size="13" lengthAdjust="spacingAndGlyphs" textLength="24" x="636.8293" y="1233.0884">0..1</text><!--link Document to Reconciliation--><path d="M1307.45,136.59 C1591.06,157.84 2261,218.18 2261,314 C2261,314 2261,314 2261,584 C2261,616.55 2246.67,624.76 2222,646 C2136.34,719.769 2092.73,703.068 1989,748 C1939.31,769.526 1927.38,776.141 1877,796 C1774.59,836.365 1747.39,842.214 1644,880 C1383.92,975.049 1071.11,1091.755 968.455,1130.116 " fill="none" id="Document-Reconciliation" style="stroke: #A80036; stroke-width: 1.0;"/><polygon fill="#A80036" points="963.727,1131.883,973.5577,1132.4804,968.4108,1130.1332,970.758,1124.9863,963.727,1131.883" style="stroke: #A80036; stroke-width: 1.0;"/><text fill="#000000" font-family="sans-serif" font-size="13" lengthAdjust="spacingAndGlyphs" textLength="87" x="2182" y="689.0669">Reconciliation</text><text fill="#000000" font-family="sans-serif" font-size="13" lengthAdjust="spacingAndGlyphs" textLength="7" x="964.3128" y="1120.891">*</text><!--link Document to LetterOfCredit--><path d="M1307.55,134.57 C1521.92,147.43 1950.64,180.38 2086,244 C2127.27,263.39 2161,268.4 2161,314 C2161,314 2161,314 2161,482 C2161,635.7 2075.65,675.72 1940,748 C1766.04,840.697 1165.64,986.431 985.497,1028.97 " fill="none" id="Document-LetterOfCredit" style="stroke: #A80036; stroke-width: 1.0;"/><polygon fill="#A80036" points="980.547,1030.138,990.2246,1031.9667,985.4137,1028.991,988.3894,1024.18,980.547,1030.138" style="stroke: #A80036; stroke-width: 1.0;"/><text fill="#000000" font-family="sans-serif" font-size="13" lengthAdjust="spacingAndGlyphs" textLength="90" x="2122" y="638.0669">LetterOfCredit</text><text fill="#000000" font-family="sans-serif" font-size="13" lengthAdjust="spacingAndGlyphs" textLength="8" x="988.8774" y="1022.846">1</text><!--link Document to DocumentPartyRole--><path d="M1307.69,127.88 C1556.3,131.03 2090,156.17 2090,314 C2090,314 2090,314 2090,482 C2090,495.22 1991.93,685.279 1982,694 C1830.45,827.069 1196.89,907.883 984.637,931.631 " fill="none" id="Document-DocumentPartyRole" style="stroke: #A80036; stroke-width: 1.0;"/><polygon fill="#A80036" points="979.396,932.215,988.784,935.1925,984.3652,931.6606,987.897,927.2418,979.396,932.215" style="stroke: #A80036; stroke-width: 1.0;"/><text fill="#000000" font-family="sans-serif" font-size="13" lengthAdjust="spacingAndGlyphs" textLength="60" x="2048" y="587.0669">PartyRole</text><text fill="#000000" font-family="sans-serif" font-size="13" lengthAdjust="spacingAndGlyphs" textLength="7" x="987.6404" y="926.3072">*</text><!--link Document to Transport--><path d="M1307.33,137.43 C1476.64,152.27 1768.77,185.57 1857,244 C1887.84,264.42 1902,277.01 1902,314 C1902,314 1902,314 1902,482 C1902,580.17 1903.22,618.9 1840,694 C1773.69,772.77 1731.59,769.873 1632,796 C1502.37,830.007 1084.48,835.813 954.769,836.799 " fill="none" id="Document-Transport" style="stroke: #A80036; stroke-width: 1.0;"/><polygon fill="#A80036" points="949.543,836.837,958.5713,840.7726,954.5429,836.8013,958.5142,832.7728,949.543,836.837" style="stroke: #A80036; stroke-width: 1.0;"/><text fill="#000000" font-family="sans-serif" font-size="13" lengthAdjust="spacingAndGlyphs" textLength="61" x="1903" y="536.0669">Transport</text><text fill="#000000" font-family="sans-serif" font-size="13" lengthAdjust="spacingAndGlyphs" textLength="8" x="957.7008" y="830.8081">1</text><!--link Document to Guarantee--><path d="M1307.27,137.44 C1448.14,151.03 1664.78,181.65 1715,244 C1747.9,284.84 1748.96,322.04 1715,362 C1700.71,378.81 1685.34,359.38 1666,370 C1612.75,399.24 1609.64,422.09 1575,472 C1511.41,563.62 1551.13,632.64 1458,694 C1418.84,719.802 1099.94,730.81 984.512,733.975 " fill="none" id="Document-Guarantee" style="stroke: #A80036; stroke-width: 1.0;"/><polygon fill="#A80036" points="979.501,734.111,988.6062,737.8653,984.4992,733.9753,988.3891,729.8682,979.501,734.111" style="stroke: #A80036; stroke-width: 1.0;"/><text fill="#000000" font-family="sans-serif" font-size="13" lengthAdjust="spacingAndGlyphs" textLength="68" x="1576" y="485.0669">Guarantee</text><text fill="#000000" font-family="sans-serif" font-size="13" lengthAdjust="spacingAndGlyphs" textLength="7" x="987.6996" y="728.0521">*</text><!--link Document to GenericIdentification--><path d="M1307.45,165.55 C1436.1,210.63 1607.66,292.24 1527,388 C1476.44,448.02 1427.92,394.67 1353,418 C1175.95,473.14 978.854,581.07 911.803,619.23 " fill="none" id="Document-GenericIdentification" style="stroke: #A80036; stroke-width: 1.0;"/><polygon fill="#A80036" points="907.202,621.86,917.0015,620.8754,911.5451,619.3827,913.0378,613.9263,907.202,621.86" style="stroke: #A80036; stroke-width: 1.0;"/><text fill="#000000" font-family="sans-serif" font-size="13" lengthAdjust="spacingAndGlyphs" textLength="148" x="1354" y="434.0669">DocumentIdentification</text><text fill="#000000" font-family="sans-serif" font-size="13" lengthAdjust="spacingAndGlyphs" textLength="8" x="902.998" y="610.8601">1</text><!--link Document to Evidence--><path d="M1307.35,171.23 C1408.25,213.31 1524.86,282.43 1466,362 C1415.42,430.38 1364.16,392.56 1283,418 C1166.91,454.4 1029.74,498.85 966.361,519.47 " fill="none" id="Document-Evidence" style="stroke: #A80036; stroke-width: 1.0;"/><polygon fill="#A80036" points="961.56,521.03,971.3559,522.0504,966.3149,519.4836,968.8816,514.4426,961.56,521.03" style="stroke: #A80036; stroke-width: 1.0;"/><text fill="#000000" font-family="sans-serif" font-size="13" lengthAdjust="spacingAndGlyphs" textLength="57" x="1460" y="383.0669">Evidence</text><text fill="#000000" font-family="sans-serif" font-size="13" lengthAdjust="spacingAndGlyphs" textLength="7" x="970.5792" y="511.8864">*</text><!--link Document to CommercialTrade--><path d="M1286.43,213.73 C1330.69,260.53 1364.01,317.77 1324,362 C1313.89,373.18 882.996,410.17 719.252,423.85 " fill="none" id="Document-CommercialTrade" style="stroke: #A80036; stroke-width: 1.0;"/><polygon fill="#A80036" points="714.013,424.29,723.3152,427.5257,718.9956,423.8731,722.6482,419.5535,714.013,424.29" style="stroke: #A80036; stroke-width: 1.0;"/><text fill="#000000" font-family="sans-serif" font-size="13" lengthAdjust="spacingAndGlyphs" textLength="113" x="1343" y="319.0669">CommercialTrade</text><text fill="#000000" font-family="sans-serif" font-size="13" lengthAdjust="spacingAndGlyphs" textLength="7" x="722.1444" y="418.4584">*</text><!--link Document to Presentation--><path d="M1307.33,136.91 C1455.26,150.23 1689.62,180.87 1748,244 C1760.53,257.55 1754.97,359.15 1754,362 C1725.61,445.77 1677.88,443.78 1633,520 C1617.75,545.9 1606,551.94 1606,582 C1606,582 1606,582 1606,737 C1606,819.925 947.007,813.692 865,826 C860.87,826.62 856.59,827.305 852.3,828.02 " fill="none" id="Document-Presentation" style="stroke: #A80036; stroke-width: 1.0;"/><polygon fill="#A80036" points="847.269,828.873,856.8109,831.3126,852.1987,828.0373,855.4739,823.4251,847.269,828.873" style="stroke: #A80036; stroke-width: 1.0;"/><text fill="#000000" font-family="sans-serif" font-size="13" lengthAdjust="spacingAndGlyphs" textLength="81" x="1634" y="536.0669">Presentation</text><text fill="#000000" font-family="sans-serif" font-size="13" lengthAdjust="spacingAndGlyphs" textLength="24" x="855.6938" y="822.2533">0..1</text><!--link Document to RegisteredContract--><path d="M1307.53,158.07 C1372.3,176.96 1451.07,205.19 1515,244 C1541.61,260.15 1553.65,263.43 1566,292 C1582.96,331.24 1580.37,350.42 1560,388 C1544.12,417.29 1535.35,422.97 1508,442 C1479.29,461.98 963.668,681.496 931,694 C903.817,704.405 872.716,714.684 848.462,722.347 " fill="none" id="Document-RegisteredContract" style="stroke: #A80036; stroke-width: 1.0;"/><polygon fill="#A80036" points="843.394,723.942,853.1798,725.0544,848.1632,722.4404,850.7772,717.4237,843.394,723.942" style="stroke: #A80036; stroke-width: 1.0;"/><text fill="#000000" font-family="sans-serif" font-size="13" lengthAdjust="spacingAndGlyphs" textLength="103" x="1447" y="485.0669">RelatedContract</text><text fill="#000000" font-family="sans-serif" font-size="13" lengthAdjust="spacingAndGlyphs" textLength="8" x="845.1857" y="712.9703">1</text><!--link TradeCertificate to DateTimePeriod--><path d="M1227.19,337.51 C1253.64,346.81 1286.01,356.74 1316,362 C1410.61,378.59 1743,332.95 1743,429 C1743,429 1743,429 1743,686 C1743,869.107 1813,908.893 1813,1092 C1813,1092 1813,1092 1813,1333 C1813,1373.73 1772.92,1405.999 1745.67,1423.233 " fill="none" id="TradeCertificate-DateTimePeriod" style="stroke: #A80036; stroke-width: 1.0;"/><polygon fill="#A80036" points="1741.42,1425.869,1751.1783,1424.5368,1745.6724,1423.2389,1746.9703,1417.733,1741.42,1425.869" style="stroke: #A80036; stroke-width: 1.0;"/><text fill="#000000" font-family="sans-serif" font-size="13" lengthAdjust="spacingAndGlyphs" textLength="96" x="1782" y="893.0669">InspectionDate</text><text fill="#000000" font-family="sans-serif" font-size="13" lengthAdjust="spacingAndGlyphs" textLength="8" x="1737.6347" y="1414.8722">1</text><!--link TradeCertificate to TradeCertificatePartyRole--><path d="M1226.46,337.54 C1253.02,346.97 1285.7,357.01 1316,362 C1366,370.24 1723.56,355.11 1772,370 C1878.88,402.87 1931.12,416.73 1974,520 C2003.66,591.44 1941.27,625.92 1978,694 C2050.06,827.562 2259,736.239 2259,888 C2259,888 2259,888 2259,1541 C2259,1580.4672 2004.45,1606.9655 1865.71,1618.4776 " fill="none" id="TradeCertificate-TradeCertificatePartyRole" style="stroke: #A80036; stroke-width: 1.0;"/><polygon fill="#A80036" points="1860.41,1618.9143,1869.7105,1622.1549,1865.3928,1618.5,1869.0476,1614.1824,1860.41,1618.9143" style="stroke: #A80036; stroke-width: 1.0;"/><text fill="#000000" font-family="sans-serif" font-size="13" lengthAdjust="spacingAndGlyphs" textLength="161" x="2260" y="995.0669">TradeCertificatePartyRole</text><text fill="#000000" font-family="sans-serif" font-size="13" lengthAdjust="spacingAndGlyphs" textLength="7" x="1868.8422" y="1613.4551">*</text><!--link TradeCertificate to ProductDelivery--><path d="M1226.81,337.62 C1253.31,347 1285.84,356.98 1316,362 C1358.21,369.03 1659.55,359.37 1701,370 C1755.88,384.07 1814,372.34 1814,429 C1814,429 1814,429 1814,686 C1814,779.782 1864.64,791.976 1897,880 C1955.59,1039.391 2010,1075.182 2010,1245 C2010,1245 2010,1245 2010,1439 C2010,1506.783 1919.44,1528.659 1857.54,1535.695 " fill="none" id="TradeCertificate-ProductDelivery" style="stroke: #A80036; stroke-width: 1.0;"/><polygon fill="#A80036" points="1852.39,1536.253,1861.7625,1539.279,1857.362,1535.7244,1860.9167,1531.3239,1852.39,1536.253" style="stroke: #A80036; stroke-width: 1.0;"/><text fill="#000000" font-family="sans-serif" font-size="13" lengthAdjust="spacingAndGlyphs" textLength="100" x="1928" y="944.0669">ProductDelivery</text><text fill="#000000" font-family="sans-serif" font-size="13" lengthAdjust="spacingAndGlyphs" textLength="24" x="1860.8744" y="1530.6852">0..1</text><!--link ContactPoint to GenericIdentification--><path d="M708.237,139.06 C749.059,155.26 819.407,189.59 854,244 C870.86,270.52 864,282.57 864,314 C864,314 864,314 864,533 C864,563.19 874.472,597.13 881.581,616.69 " fill="none" id="ContactPoint-GenericIdentification" style="stroke: #A80036; stroke-width: 1.0;"/><polygon fill="#A80036" points="883.486,621.81,884.0975,611.9801,881.7429,617.1237,876.5994,614.7691,883.486,621.81" style="stroke: #A80036; stroke-width: 1.0;"/><text fill="#000000" font-family="sans-serif" font-size="13" lengthAdjust="spacingAndGlyphs" textLength="81" x="865" y="434.0669">Identification</text><text fill="#000000" font-family="sans-serif" font-size="13" lengthAdjust="spacingAndGlyphs" textLength="8" x="871.2517" y="611.0505">1</text><!--link ContactPoint to ContactPoint--><path d="M690.417,114.8 C717.637,96.23 755,100.3 755,127 C755,152.24 721.612,157.26 694.966,142.05 " fill="none" id="ContactPoint-ContactPoint" style="stroke: #A80036; stroke-width: 1.0;"/><polygon fill="#A80036" points="690.417,139.2,695.9315,147.3603,694.6578,141.8487,700.1694,140.575,690.417,139.2" style="stroke: #A80036; stroke-width: 1.0;"/><text fill="#000000" font-family="sans-serif" font-size="13" lengthAdjust="spacingAndGlyphs" textLength="80" x="761" y="131.0669">MainContact</text><text fill="#000000" font-family="sans-serif" font-size="13" lengthAdjust="spacingAndGlyphs" textLength="8" x="684.6328" y="159.0561">1</text><!--link PaymentObligation to CommercialTrade--><path d="M657,327.25 C657,347.3 657,389.3 657,412.58 " fill="none" id="PaymentObligation-CommercialTrade" style="stroke: #A80036; stroke-width: 1.0;"/><polygon fill="#A80036" points="657,417.8,661,408.8,657,412.8,653,408.8,657,417.8" style="stroke: #A80036; stroke-width: 1.0;"/><text fill="#000000" font-family="sans-serif" font-size="13" lengthAdjust="spacingAndGlyphs" textLength="113" x="658" y="383.0669">CommercialTrade</text><text fill="#000000" font-family="sans-serif" font-size="13" lengthAdjust="spacingAndGlyphs" textLength="8" x="646.3438" y="407.0372">1</text><!--link Agreement to DateTimePeriod--><path d="M636.331,1336.46 C801.037,1351.727 1463.4,1413.122 1663.48,1431.668 " fill="none" id="Agreement-DateTimePeriod" style="stroke: #A80036; stroke-width: 1.0;"/><polygon fill="#A80036" points="1668.69,1432.151,1660.0935,1427.3448,1663.7109,1431.6938,1659.362,1435.3113,1668.69,1432.151" style="stroke: #A80036; stroke-width: 1.0;"/><text fill="#000000" font-family="sans-serif" font-size="13" lengthAdjust="spacingAndGlyphs" textLength="86" x="1229" y="1389.0669">ValidityPeriod</text><text fill="#000000" font-family="sans-serif" font-size="13" lengthAdjust="spacingAndGlyphs" textLength="7" x="1653.7358" y="1426.4791">*</text><!--link Agreement to CommercialTrade--><path d="M561.387,1328.932 C441.468,1321.842 76,1296.2 76,1247 C76,990 76,990 76,990 C76,922.865 80,906.135 80,839 C80,531 80,531 80,531 C80,471.57 142.773,488.04 200,472 C272.58,451.66 487.593,438.99 594.79,433.76 " fill="none" id="Agreement-CommercialTrade" style="stroke: #A80036; stroke-width: 1.0;"/><polygon fill="#A80036" points="599.812,433.52,590.6285,429.9613,594.8179,433.7626,591.0167,437.9519,599.812,433.52" style="stroke: #A80036; stroke-width: 1.0;"/><text fill="#000000" font-family="sans-serif" font-size="13" lengthAdjust="spacingAndGlyphs" textLength="36" x="81" y="893.0669">Trade</text><text fill="#000000" font-family="sans-serif" font-size="13" lengthAdjust="spacingAndGlyphs" textLength="8" x="584.0102" y="429.0512">1</text><!--link Location to Transport--><path d="M569.466,1241.782 C465.959,1229.185 130.17,1176.487 211,1030 C271.406,920.526 330.207,919.007 449,880 C624.696,822.309 680.892,875.863 864,850 C868.429,849.375 873.044,848.592 877.617,847.733 " fill="none" id="Location-Transport" style="stroke: #A80036; stroke-width: 1.0;"/><polygon fill="#A80036" points="882.552,846.776,872.9547,844.5644,877.6436,847.7288,874.4792,852.4178,882.552,846.776" style="stroke: #A80036; stroke-width: 1.0;"/><text fill="#000000" font-family="sans-serif" font-size="13" lengthAdjust="spacingAndGlyphs" textLength="201" x="212" y="1046.0669">DepartureTransportParameters</text><text fill="#000000" font-family="sans-serif" font-size="13" lengthAdjust="spacingAndGlyphs" textLength="24" x="855.7157" y="842.9308">0..1</text><!--link Location to Transport--><path d="M569.442,1238.171 C528.096,1226.665 458,1199.169 458,1145 C458,939 458,939 458,939 C458,936.324 767.399,870.493 877.598,847.13 " fill="none" id="Location-Transport" style="stroke: #A80036; stroke-width: 1.0;"/><polygon fill="#A80036" points="882.693,846.05,873.0596,844.0011,877.8015,847.0857,874.7168,851.8276,882.693,846.05" style="stroke: #A80036; stroke-width: 1.0;"/><text fill="#000000" font-family="sans-serif" font-size="13" lengthAdjust="spacingAndGlyphs" textLength="209" x="459" y="1046.0669">DestinationTransportParameters</text><text fill="#000000" font-family="sans-serif" font-size="13" lengthAdjust="spacingAndGlyphs" textLength="24" x="855.7082" y="861.8975">0..1</text><!--link Location to Transport--><path d="M628.558,1238.171 C669.904,1226.665 740,1199.169 740,1145 C740,939 740,939 740,939 C740,907.338 827.193,870.706 878.836,851.785 " fill="none" id="Location-Transport" style="stroke: #A80036; stroke-width: 1.0;"/><polygon fill="#A80036" points="883.719,850.011,873.894,849.3266,879.0199,851.7193,876.6272,856.8452,883.719,850.011" style="stroke: #A80036; stroke-width: 1.0;"/><text fill="#000000" font-family="sans-serif" font-size="13" lengthAdjust="spacingAndGlyphs" textLength="109" x="741" y="1046.0669">RelatedTransport</text><text fill="#000000" font-family="sans-serif" font-size="13" lengthAdjust="spacingAndGlyphs" textLength="8" x="871.95" y="870.16">1</text><!--link Location to GenericIdentification--><path d="M569.496,1243.797 C517.406,1240.999 406.216,1231.991 317,1204 C271.485,1189.72 255.22,1189.235 221,1156 C147.198,1084.322 123.85,1013.548 181,928 C326.245,710.583 665.97,654.29 815.346,639.88 " fill="none" id="Location-GenericIdentification" style="stroke: #A80036; stroke-width: 1.0;"/><polygon fill="#A80036" points="820.578,639.38,811.2414,636.245,815.6002,639.8507,811.9945,644.2095,820.578,639.38" style="stroke: #A80036; stroke-width: 1.0;"/><text fill="#000000" font-family="sans-serif" font-size="13" lengthAdjust="spacingAndGlyphs" textLength="81" x="182" y="944.0669">Identification</text><text fill="#000000" font-family="sans-serif" font-size="13" lengthAdjust="spacingAndGlyphs" textLength="7" x="805.6991" y="635.1573">*</text><!--link Transport to ProductDelivery--><path d="M949.291,839.418 C1112.79,841.597 1824.35,852.632 1862,880 C1884.64,896.456 1884,911.014 1884,939 C1884,939 1884,939 1884,1439 C1884,1466.986 1879.33,1476.029 1862,1498 C1853.14,1509.232 1840.34,1518.489 1828.75,1525.348 " fill="none" id="Transport-ProductDelivery" style="stroke: #A80036; stroke-width: 1.0;"/><polygon fill="#A80036" points="1824.21,1527.951,1834.0075,1526.9462,1828.548,1525.4648,1830.0295,1520.0053,1824.21,1527.951" style="stroke: #A80036; stroke-width: 1.0;"/><text fill="#000000" font-family="sans-serif" font-size="13" lengthAdjust="spacingAndGlyphs" textLength="100" x="1885" y="1199.0669">ProductDelivery</text><text fill="#000000" font-family="sans-serif" font-size="13" lengthAdjust="spacingAndGlyphs" textLength="24" x="1802.6338" y="1516.9824">0..1</text><!--link Guarantee to DateTimePeriod--><path d="M979.253,737.413 C1097.54,740.86 1475.2,768.811 1659,982 C1674.64,1000.14 1698,1170.049 1698,1194 C1698,1194 1698,1194 1698,1333 C1698,1364.878 1708.43,1400.984 1715.24,1421.167 " fill="none" id="Guarantee-DateTimePeriod" style="stroke: #A80036; stroke-width: 1.0;"/><polygon fill="#A80036" points="1716.89,1425.943,1717.7412,1416.131,1715.2618,1421.2155,1710.1773,1418.7361,1716.89,1425.943" style="stroke: #A80036; stroke-width: 1.0;"/><text fill="#000000" font-family="sans-serif" font-size="13" lengthAdjust="spacingAndGlyphs" textLength="94" x="1688" y="1097.0669">EffectivePeriod</text><text fill="#000000" font-family="sans-serif" font-size="13" lengthAdjust="spacingAndGlyphs" textLength="8" x="1704.6725" y="1414.9716">1</text><!--link GenericIdentification to RegisteredContract--><path d="M846.172,646.07 C831.139,652.29 815.748,661.77 807,676 C799.209,688.675 800.259,705.961 802.626,718.544 " fill="none" id="GenericIdentification-RegisteredContract" style="stroke: #A80036; stroke-width: 1.0;"/><polygon fill="#A80036" points="803.699,723.622,805.7506,713.9892,802.6646,718.7302,797.9237,715.6442,803.699,723.622" style="stroke: #A80036; stroke-width: 1.0;"/><text fill="#000000" font-family="sans-serif" font-size="13" lengthAdjust="spacingAndGlyphs" textLength="113" x="808" y="689.0669">RelatedCertificate</text><text fill="#000000" font-family="sans-serif" font-size="13" lengthAdjust="spacingAndGlyphs" textLength="8" x="792.0531" y="713.0602">1</text><!--link DateTimePeriod to ProductDelivery--><path d="M1713.48,1450.328 C1706.16,1462.912 1697.43,1483.38 1707,1498 C1715.76,1511.382 1729.95,1520.421 1744.68,1526.517 " fill="none" id="DateTimePeriod-ProductDelivery" style="stroke: #A80036; stroke-width: 1.0;"/><polygon fill="#A80036" points="1749.69,1528.474,1742.7552,1521.4806,1745.0309,1526.6595,1739.8519,1528.9352,1749.69,1528.474" style="stroke: #A80036; stroke-width: 1.0;"/><text fill="#000000" font-family="sans-serif" font-size="13" lengthAdjust="spacingAndGlyphs" textLength="148" x="1708" y="1493.0669">RelatedProductDelivery</text><text fill="#000000" font-family="sans-serif" font-size="13" lengthAdjust="spacingAndGlyphs" textLength="8" x="1733.7968" y="1522.1102">1</text></g></svg>