<?xml version="1.0" encoding="UTF-8" standalone="no"?><svg xmlns="http://www.w3.org/2000/svg" xmlns:xlink="http://www.w3.org/1999/xlink" contentScriptType="application/ecmascript" contentStyleType="text/css" height="858px" preserveAspectRatio="none" style="width:2131px;height:858px;" version="1.1" viewBox="0 0 2131 858" width="2131px" zoomAndPan="magnify"><defs><filter height="300%" id="fdnbm3hqayb8w" width="300%" x="-1" y="-1"><feGaussianBlur result="blurOut" stdDeviation="2.0"/><feColorMatrix in="blurOut" result="blurOut2" type="matrix" values="0 0 0 0 0 0 0 0 0 0 0 0 0 0 0 0 0 0 .4 0"/><feOffset dx="4.0" dy="4.0" in="blurOut2" result="blurOut3"/><feBlend in="SourceGraphic" in2="blurOut3" mode="normal"/></filter></defs><g><!--cluster ##1519--><!--cluster ##1525--><!--cluster ##1534--><!--class Market--><a target="_top" xlink:actuate="onRequest" xlink:href="../Market.html" xlink:show="new" xlink:title="Context or geographic environment in which trading parties execute trades." xlink:type="simple"><rect fill="#FEFEEE" filter="url(#fdnbm3hqayb8w)" height="44.7734" id="Market" style="stroke: #A80036; stroke-width: 1.5;" width="360" x="1281" y="40.5"/><rect fill="#FEFEEE" height="23.9688" style="stroke: #A80036; stroke-width: 1.5;" width="360" x="1281" y="40.5"/><text fill="#000000" font-family="sans-serif" font-size="12" lengthAdjust="spacingAndGlyphs" textLength="43" x="1439.5" y="56.6387">Market</text><line style="stroke: #A80036; stroke-width: 1.5;" x1="1282" x2="1640" y1="64.4688" y2="64.4688"/><ellipse cx="1292" cy="76.3711" fill="#84BE84" rx="3" ry="3" style="stroke: #038048; stroke-width: 1.0;"/><text fill="#000000" font-family="sans-serif" font-size="11" lengthAdjust="spacingAndGlyphs" textLength="146" x="1301" y="78.6792">GeographicalEnvironment</text><text fill="#000000" font-family="sans-serif" font-size="11" font-style="italic" lengthAdjust="spacingAndGlyphs" textLength="184" x="1451" y="78.6792">(GeographicalEnvironmentCode)</text></a><!--class TradingMarket--><a target="_top" xlink:actuate="onRequest" xlink:href="../TradingMarket.html" xlink:show="new" xlink:title="Context or geographic environment in which trading parties may meet in order to negotiate and execute trades among themselves. It also identifies the primary market where an asset is issued." xlink:type="simple"><rect fill="#FEFECE" filter="url(#fdnbm3hqayb8w)" height="108.7969" id="TradingMarket" style="stroke: #A80036; stroke-width: 1.5;" width="213" x="1280.75" y="164.5"/><rect fill="#FEFECE" height="23.9688" style="stroke: #A80036; stroke-width: 1.5;" width="213" x="1280.75" y="164.5"/><text fill="#000000" font-family="sans-serif" font-size="12" lengthAdjust="spacingAndGlyphs" textLength="90" x="1342.25" y="180.6387">TradingMarket</text><line style="stroke: #A80036; stroke-width: 1.5;" x1="1281.75" x2="1492.75" y1="188.4688" y2="188.4688"/><ellipse cx="1291.75" cy="200.3711" fill="#84BE84" rx="3" ry="3" style="stroke: #038048; stroke-width: 1.0;"/><text fill="#000000" font-family="sans-serif" font-size="11" lengthAdjust="spacingAndGlyphs" textLength="27" x="1300.75" y="202.6792">Type</text><text fill="#000000" font-family="sans-serif" font-size="11" font-style="italic" lengthAdjust="spacingAndGlyphs" textLength="103" x="1331.75" y="202.6792">(MarketTypeCode)</text><ellipse cx="1291.75" cy="213.1758" fill="#84BE84" rx="3" ry="3" style="stroke: #038048; stroke-width: 1.0;"/><text fill="#000000" font-family="sans-serif" font-size="11" lengthAdjust="spacingAndGlyphs" textLength="63" x="1300.75" y="215.4839">ListingDate</text><text fill="#000000" font-family="sans-serif" font-size="11" font-style="italic" lengthAdjust="spacingAndGlyphs" textLength="81" x="1367.75" y="215.4839">(ISODateTime)</text><ellipse cx="1291.75" cy="225.9805" fill="#84BE84" rx="3" ry="3" style="stroke: #038048; stroke-width: 1.0;"/><text fill="#000000" font-family="sans-serif" font-size="11" lengthAdjust="spacingAndGlyphs" textLength="94" x="1300.75" y="228.2886">TradingCurrency</text><text fill="#000000" font-family="sans-serif" font-size="11" font-style="italic" lengthAdjust="spacingAndGlyphs" textLength="89" x="1398.75" y="228.2886">(CurrencyCode)</text><ellipse cx="1291.75" cy="238.7852" fill="#84BE84" rx="3" ry="3" style="stroke: #038048; stroke-width: 1.0;"/><text fill="#000000" font-family="sans-serif" font-size="11" lengthAdjust="spacingAndGlyphs" textLength="91" x="1300.75" y="241.0933">DefaultCurrency</text><text fill="#000000" font-family="sans-serif" font-size="11" font-style="italic" lengthAdjust="spacingAndGlyphs" textLength="89" x="1395.75" y="241.0933">(CurrencyCode)</text><ellipse cx="1291.75" cy="251.5898" fill="#84BE84" rx="3" ry="3" style="stroke: #038048; stroke-width: 1.0;"/><text fill="#000000" font-family="sans-serif" font-size="11" lengthAdjust="spacingAndGlyphs" textLength="94" x="1300.75" y="253.8979">FirstTradingDate</text><text fill="#000000" font-family="sans-serif" font-size="11" font-style="italic" lengthAdjust="spacingAndGlyphs" textLength="81" x="1398.75" y="253.8979">(ISODateTime)</text><ellipse cx="1291.75" cy="264.3945" fill="#84BE84" rx="3" ry="3" style="stroke: #038048; stroke-width: 1.0;"/><text fill="#000000" font-family="sans-serif" font-size="11" lengthAdjust="spacingAndGlyphs" textLength="93" x="1300.75" y="266.7026">LastTradingDate</text><text fill="#000000" font-family="sans-serif" font-size="11" font-style="italic" lengthAdjust="spacingAndGlyphs" textLength="81" x="1397.75" y="266.7026">(ISODateTime)</text></a><!--class Trade--><a target="_top" xlink:actuate="onRequest" xlink:href="../Trade.html" xlink:show="new" xlink:title="Result of an order between at least two parties. A trade relates to the delivery of goods and services, cash or securities." xlink:type="simple"><rect fill="#EEEEEE" filter="url(#fdnbm3hqayb8w)" height="23.9688" id="Trade" style="stroke: #A80036; stroke-width: 1.5;" width="42" x="1936.5" y="458"/><rect fill="#EEEEEE" height="23.9688" style="stroke: #A80036; stroke-width: 1.5;" width="42" x="1936.5" y="458"/><text fill="#000000" font-family="sans-serif" font-size="12" lengthAdjust="spacingAndGlyphs" textLength="36" x="1939.5" y="474.1387">Trade</text></a><!--class Jurisdiction--><a target="_top" xlink:actuate="onRequest" xlink:href="../Jurisdiction.html" xlink:show="new" xlink:title="Specifies the jurisdiction (country, county, state, province, city)." xlink:type="simple"><rect fill="#EEEEEE" filter="url(#fdnbm3hqayb8w)" height="23.9688" id="Jurisdiction" style="stroke: #A80036; stroke-width: 1.5;" width="74" x="1930" y="356"/><rect fill="#EEEEEE" height="23.9688" style="stroke: #A80036; stroke-width: 1.5;" width="74" x="1930" y="356"/><text fill="#000000" font-family="sans-serif" font-size="12" lengthAdjust="spacingAndGlyphs" textLength="68" x="1933" y="372.1387">Jurisdiction</text></a><!--class Country--><a target="_top" xlink:actuate="onRequest" xlink:href="../Country.html" xlink:show="new" xlink:title="Nation with its own government." xlink:type="simple"><rect fill="#EEEEEE" filter="url(#fdnbm3hqayb8w)" height="23.9688" id="Country" style="stroke: #A80036; stroke-width: 1.5;" width="54" x="2051" y="207"/><rect fill="#EEEEEE" height="23.9688" style="stroke: #A80036; stroke-width: 1.5;" width="54" x="2051" y="207"/><text fill="#000000" font-family="sans-serif" font-size="12" lengthAdjust="spacingAndGlyphs" textLength="48" x="2054" y="223.1387">Country</text></a><!--class PartyIdentificationInformation--><a target="_top" xlink:actuate="onRequest" xlink:href="../PartyIdentificationInformation.html" xlink:show="new" xlink:title="Unique and unambiguous way to identify a party" xlink:type="simple"><rect fill="#EEEEEE" filter="url(#fdnbm3hqayb8w)" height="23.9688" id="PartyIdentificationInformation" style="stroke: #A80036; stroke-width: 1.5;" width="190" x="1930" y="51"/><rect fill="#EEEEEE" height="23.9688" style="stroke: #A80036; stroke-width: 1.5;" width="190" x="1930" y="51"/><text fill="#000000" font-family="sans-serif" font-size="12" lengthAdjust="spacingAndGlyphs" textLength="184" x="1933" y="67.1387">PartyIdentificationInformation</text></a><!--class Security--><a target="_top" xlink:actuate="onRequest" xlink:href="../Security.html" xlink:show="new" xlink:title="Financial instruments representing a sum of rights of the investor vis-a-vis the issuer." xlink:type="simple"><rect fill="#EEEEEE" filter="url(#fdnbm3hqayb8w)" height="23.9688" id="Security" style="stroke: #A80036; stroke-width: 1.5;" width="56" x="708.5" y="356"/><rect fill="#EEEEEE" height="23.9688" style="stroke: #A80036; stroke-width: 1.5;" width="56" x="708.5" y="356"/><text fill="#000000" font-family="sans-serif" font-size="12" lengthAdjust="spacingAndGlyphs" textLength="50" x="711.5" y="372.1387">Security</text></a><!--class SourceOfPrice--><a target="_top" xlink:actuate="onRequest" xlink:href="../SourceOfPrice.html" xlink:show="new" xlink:title="Place from which the price was obtained." xlink:type="simple"><rect fill="#EEEEEE" filter="url(#fdnbm3hqayb8w)" height="23.9688" id="SourceOfPrice" style="stroke: #A80036; stroke-width: 1.5;" width="94" x="1177" y="650"/><rect fill="#EEEEEE" height="23.9688" style="stroke: #A80036; stroke-width: 1.5;" width="94" x="1177" y="650"/><text fill="#000000" font-family="sans-serif" font-size="12" lengthAdjust="spacingAndGlyphs" textLength="88" x="1180" y="666.1387">SourceOfPrice</text></a><!--class LotBreakdown--><a target="_top" xlink:actuate="onRequest" xlink:href="../LotBreakdown.html" xlink:show="new" xlink:title="Number of securities purchased or sold in one transaction. In terms of options, a lot represents the number of contracts contained in one derivative security." xlink:type="simple"><rect fill="#EEEEEE" filter="url(#fdnbm3hqayb8w)" height="23.9688" id="LotBreakdown" style="stroke: #A80036; stroke-width: 1.5;" width="94" x="1177" y="562"/><rect fill="#EEEEEE" height="23.9688" style="stroke: #A80036; stroke-width: 1.5;" width="94" x="1177" y="562"/><text fill="#000000" font-family="sans-serif" font-size="12" lengthAdjust="spacingAndGlyphs" textLength="88" x="1180" y="578.1387">LotBreakdown</text></a><!--class SecuritiesQuantity--><a target="_top" xlink:actuate="onRequest" xlink:href="../SecuritiesQuantity.html" xlink:show="new" xlink:title="Quantity of a security." xlink:type="simple"><rect fill="#EEEEEE" filter="url(#fdnbm3hqayb8w)" height="23.9688" id="SecuritiesQuantity" style="stroke: #A80036; stroke-width: 1.5;" width="120" x="912.5" y="458"/><rect fill="#EEEEEE" height="23.9688" style="stroke: #A80036; stroke-width: 1.5;" width="120" x="912.5" y="458"/><text fill="#000000" font-family="sans-serif" font-size="12" lengthAdjust="spacingAndGlyphs" textLength="114" x="915.5" y="474.1387">SecuritiesQuantity</text></a><!--class SecuritiesOrder--><a target="_top" xlink:actuate="onRequest" xlink:href="../SecuritiesOrder.html" xlink:show="new" xlink:title="Intention to transfer an ownership of a financial instrument." xlink:type="simple"><rect fill="#EEEEEE" filter="url(#fdnbm3hqayb8w)" height="23.9688" id="SecuritiesOrder" style="stroke: #A80036; stroke-width: 1.5;" width="103" x="920.75" y="562"/><rect fill="#EEEEEE" height="23.9688" style="stroke: #A80036; stroke-width: 1.5;" width="103" x="920.75" y="562"/><text fill="#000000" font-family="sans-serif" font-size="12" lengthAdjust="spacingAndGlyphs" textLength="97" x="923.75" y="578.1387">SecuritiesOrder</text></a><!--class StockExchange--><a target="_top" xlink:actuate="onRequest" xlink:href="../StockExchange.html" xlink:show="new" xlink:title="Party that identifies the stock exchange." xlink:type="simple"><rect fill="#EEEEEE" filter="url(#fdnbm3hqayb8w)" height="23.9688" id="StockExchange" style="stroke: #A80036; stroke-width: 1.5;" width="102" x="978.5" y="824"/><rect fill="#EEEEEE" height="23.9688" style="stroke: #A80036; stroke-width: 1.5;" width="102" x="978.5" y="824"/><text fill="#000000" font-family="sans-serif" font-size="12" lengthAdjust="spacingAndGlyphs" textLength="96" x="981.5" y="840.1387">StockExchange</text></a><!--class TradingSession--><a target="_top" xlink:actuate="onRequest" xlink:href="../TradingSession.html" xlink:show="new" xlink:title="Established constraints under which a market operates" xlink:type="simple"><rect fill="#EEEEEE" filter="url(#fdnbm3hqayb8w)" height="23.9688" id="TradingSession" style="stroke: #A80036; stroke-width: 1.5;" width="102" x="596.5" y="738"/><rect fill="#EEEEEE" height="23.9688" style="stroke: #A80036; stroke-width: 1.5;" width="102" x="596.5" y="738"/><text fill="#000000" font-family="sans-serif" font-size="12" lengthAdjust="spacingAndGlyphs" textLength="96" x="599.5" y="754.1387">TradingSession</text></a><!--class SecuritiesIdentification--><a target="_top" xlink:actuate="onRequest" xlink:href="../SecuritiesIdentification.html" xlink:show="new" xlink:title="Unique and unambiguous identifier of a security, assigned under a formal or proprietary identification scheme." xlink:type="simple"><rect fill="#EEEEEE" filter="url(#fdnbm3hqayb8w)" height="23.9688" id="SecuritiesIdentification" style="stroke: #A80036; stroke-width: 1.5;" width="149" x="425.75" y="650"/><rect fill="#EEEEEE" height="23.9688" style="stroke: #A80036; stroke-width: 1.5;" width="149" x="425.75" y="650"/><text fill="#000000" font-family="sans-serif" font-size="12" lengthAdjust="spacingAndGlyphs" textLength="143" x="428.75" y="666.1387">SecuritiesIdentification</text></a><!--class Issuance--><a target="_top" xlink:actuate="onRequest" xlink:href="../Issuance.html" xlink:show="new" xlink:title="Preparation/bringing to market of a security (also known as primary market or Initial Public Offering (IPO) issuance)." xlink:type="simple"><rect fill="#EEEEEE" filter="url(#fdnbm3hqayb8w)" height="23.9688" id="Issuance" style="stroke: #A80036; stroke-width: 1.5;" width="62" x="504.5" y="562"/><rect fill="#EEEEEE" height="23.9688" style="stroke: #A80036; stroke-width: 1.5;" width="62" x="504.5" y="562"/><text fill="#000000" font-family="sans-serif" font-size="12" lengthAdjust="spacingAndGlyphs" textLength="56" x="507.5" y="578.1387">Issuance</text></a><!--class PlaceOfSettlement--><a target="_top" xlink:actuate="onRequest" xlink:href="../PlaceOfSettlement.html" xlink:show="new" xlink:title="Place where settlement of securities occurs." xlink:type="simple"><rect fill="#EEEEEE" filter="url(#fdnbm3hqayb8w)" height="23.9688" id="PlaceOfSettlement" style="stroke: #A80036; stroke-width: 1.5;" width="122" x="456" y="458"/><rect fill="#EEEEEE" height="23.9688" style="stroke: #A80036; stroke-width: 1.5;" width="122" x="456" y="458"/><text fill="#000000" font-family="sans-serif" font-size="12" lengthAdjust="spacingAndGlyphs" textLength="116" x="459" y="474.1387">PlaceOfSettlement</text></a><!--link Market to TradingMarket--><path d="M1441.81,103.939 C1432.98,122.308 1422.38,144.373 1412.86,164.181 " fill="none" id="Market-TradingMarket" style="stroke: #A80036; stroke-width: 1.0;"/><polygon fill="none" points="1435.58,100.733,1450.55,85.738,1448.2,106.796,1435.58,100.733" style="stroke: #A80036; stroke-width: 1.0;"/><!--link Jurisdiction to Trade--><!--link Country to Jurisdiction--><!--link PartyIdentificationInformation to Country--><!--link SourceOfPrice to Security--><!--link LotBreakdown to SourceOfPrice--><!--link SecuritiesQuantity to LotBreakdown--><!--link LotBreakdown to SecuritiesQuantity--><path d="M1200.64,561.983 C1165.65,545.488 1103.14,516.073 1098,514 C1069.87,502.652 1037.46,491.637 1012.56,483.597 " fill="none" id="LotBreakdown-SecuritiesQuantity" style="stroke: #A80036; stroke-width: 1.0;"/><polygon fill="#A80036" points="1007.68,482.029,1015.026,488.5892,1012.4406,483.5578,1017.472,480.9723,1007.68,482.029" style="stroke: #A80036; stroke-width: 1.0;"/><text fill="#000000" font-family="sans-serif" font-size="13" lengthAdjust="spacingAndGlyphs" textLength="117" x="1136" y="527.0669">SecuritiesQuantity</text><text fill="#000000" font-family="sans-serif" font-size="13" lengthAdjust="spacingAndGlyphs" textLength="8" x="1011.1307" y="502.1854">1</text><!--link SecuritiesOrder to SecuritiesQuantity--><!--link SecuritiesQuantity to SecuritiesOrder--><path d="M937.756,482.061 C899.489,494.46 842.737,512.979 842,514 C837.315,520.485 837.27,525.548 842,532 C858.861,554.998 888.652,565.429 915.465,570.029 " fill="none" id="SecuritiesQuantity-SecuritiesOrder" style="stroke: #A80036; stroke-width: 1.0;"/><polygon fill="#A80036" points="920.433,570.822,912.175,565.4549,915.4954,570.0348,910.9155,573.3551,920.433,570.822" style="stroke: #A80036; stroke-width: 1.0;"/><text fill="#000000" font-family="sans-serif" font-size="13" lengthAdjust="spacingAndGlyphs" textLength="84" x="843" y="527.0669">RelatedOrder</text><text fill="#000000" font-family="sans-serif" font-size="13" lengthAdjust="spacingAndGlyphs" textLength="24" x="888.7487" y="583.3431">0..1</text><!--link SecuritiesQuantity to SecuritiesOrder--><path d="M969.366,482.223 C966.812,494.445 963.524,514.58 965,532 C965.704,540.302 967.195,549.448 968.621,556.992 " fill="none" id="SecuritiesQuantity-SecuritiesOrder" style="stroke: #A80036; stroke-width: 1.0;"/><polygon fill="#A80036" points="969.587,561.928,971.7819,552.3268,968.6257,557.0213,963.9312,553.865,969.587,561.928" style="stroke: #A80036; stroke-width: 1.0;"/><text fill="#000000" font-family="sans-serif" font-size="13" lengthAdjust="spacingAndGlyphs" textLength="115" x="966" y="527.0669">PreviousDayOrder</text><text fill="#000000" font-family="sans-serif" font-size="13" lengthAdjust="spacingAndGlyphs" textLength="24" x="939.2028" y="550.9515">0..1</text><!--link StockExchange to SecuritiesOrder--><!--link TradingSession to StockExchange--><!--link SecuritiesIdentification to TradingSession--><!--link Issuance to SecuritiesIdentification--><!--link PlaceOfSettlement to Issuance--><!--link Market to Trade--><path d="M1503.3,85.575 C1575.55,123.685 1725.16,208.195 1831,306 C1881.87,353.007 1927.87,422.162 1947.27,453.064 " fill="none" id="Market-Trade" style="stroke: #A80036; stroke-width: 1.0;"/><polygon fill="#A80036" points="1950.15,457.686,1948.7844,447.9323,1947.5054,453.4426,1941.995,452.1636,1950.15,457.686" style="stroke: #A80036; stroke-width: 1.0;"/><text fill="#000000" font-family="sans-serif" font-size="13" lengthAdjust="spacingAndGlyphs" textLength="36" x="1849" y="319.0669">Trade</text><text fill="#000000" font-family="sans-serif" font-size="13" lengthAdjust="spacingAndGlyphs" textLength="8" x="1937.0591" y="446.8854">1</text><!--link Market to Jurisdiction--><path d="M1641.18,67.385 C1738.44,72.8 1845.99,85.752 1883,116 C1920.85,146.934 1953.8,299.803 1963.86,350.576 " fill="none" id="Market-Jurisdiction" style="stroke: #A80036; stroke-width: 1.0;"/><polygon fill="#A80036" points="1964.87,355.708,1967.0649,346.1068,1963.9086,350.8013,1959.2142,347.645,1964.87,355.708" style="stroke: #A80036; stroke-width: 1.0;"/><text fill="#000000" font-family="sans-serif" font-size="13" lengthAdjust="spacingAndGlyphs" textLength="68" x="1953" y="223.0669">Jurisdiction</text><text fill="#000000" font-family="sans-serif" font-size="13" lengthAdjust="spacingAndGlyphs" textLength="8" x="1953.5082" y="344.9147">1</text><!--link Market to Country--><path d="M1641.31,71.158 C1762.69,78.121 1910.68,91.397 1968,116 C2011.93,134.856 2049.42,179.119 2067.12,202.655 " fill="none" id="Market-Country" style="stroke: #A80036; stroke-width: 1.0;"/><polygon fill="#A80036" points="2070.19,206.798,2068.0416,197.1863,2067.2115,202.7819,2061.6159,201.9519,2070.19,206.798" style="stroke: #A80036; stroke-width: 1.0;"/><text fill="#000000" font-family="sans-serif" font-size="13" lengthAdjust="spacingAndGlyphs" textLength="50" x="1997" y="129.0669">Country</text><text fill="#000000" font-family="sans-serif" font-size="13" lengthAdjust="spacingAndGlyphs" textLength="8" x="2056.9467" y="196.0345">1</text><!--link Market to PartyIdentificationInformation--><path d="M1641,63 C1734.85,63 1846.12,63 1924.65,63 " fill="none" id="Market-PartyIdentificationInformation" style="stroke: #A80036; stroke-width: 1.0;"/><polygon fill="#A80036" points="1929.78,63,1920.78,59,1924.78,63,1920.78,67,1929.78,63" style="stroke: #A80036; stroke-width: 1.0;"/><text fill="#000000" font-family="sans-serif" font-size="13" lengthAdjust="spacingAndGlyphs" textLength="81" x="1744.5" y="55.0669">Identification</text><text fill="#000000" font-family="sans-serif" font-size="13" lengthAdjust="spacingAndGlyphs" textLength="8" x="1914.0465" y="58.5013">1</text><!--link TradingMarket to Security--><path d="M1280.59,226.415 C1104.56,238.123 768.492,265.536 733,306 C722.414,318.069 725.399,337.199 729.606,350.817 " fill="none" id="TradingMarket-Security" style="stroke: #A80036; stroke-width: 1.0;"/><polygon fill="#A80036" points="731.188,355.561,732.1358,345.7579,729.6064,350.8177,724.5466,348.2884,731.188,355.561" style="stroke: #A80036; stroke-width: 1.0;"/><text fill="#000000" font-family="sans-serif" font-size="13" lengthAdjust="spacingAndGlyphs" textLength="96" x="734" y="319.0669">TradedSecurity</text><text fill="#000000" font-family="sans-serif" font-size="13" lengthAdjust="spacingAndGlyphs" textLength="7" x="720.0604" y="344.9797">*</text><!--link TradingMarket to Security--><path d="M1280.59,224.288 C1081.3,233.416 667.91,257.975 625,306 C619.67,311.966 619.758,317.956 625,324 C633.236,333.497 669.21,327.639 681,332 C694.189,336.879 707.532,345.267 717.772,352.608 " fill="none" id="TradingMarket-Security" style="stroke: #A80036; stroke-width: 1.0;"/><polygon fill="#A80036" points="721.961,355.677,717.065,347.1313,717.9277,352.722,712.337,353.5846,721.961,355.677" style="stroke: #A80036; stroke-width: 1.0;"/><text fill="#000000" font-family="sans-serif" font-size="13" lengthAdjust="spacingAndGlyphs" textLength="90" x="626" y="319.0669">ListedSecurity</text><text fill="#000000" font-family="sans-serif" font-size="13" lengthAdjust="spacingAndGlyphs" textLength="7" x="707.6543" y="344.8734">*</text><!--link TradingMarket to SourceOfPrice--><path d="M1493.54,253.424 C1568.31,276.964 1655.3,304.546 1657,306 C1699.86,342.673 1717.46,377.661 1692,428 C1611.84,586.504 1380.75,638.832 1276.33,654.69 " fill="none" id="TradingMarket-SourceOfPrice" style="stroke: #A80036; stroke-width: 1.0;"/><polygon fill="#A80036" points="1271.15,655.462,1280.6369,658.1076,1276.0966,654.7333,1279.4709,650.193,1271.15,655.462" style="stroke: #A80036; stroke-width: 1.0;"/><text fill="#000000" font-family="sans-serif" font-size="13" lengthAdjust="spacingAndGlyphs" textLength="90" x="1675" y="474.0669">SourceOfPrice</text><text fill="#000000" font-family="sans-serif" font-size="13" lengthAdjust="spacingAndGlyphs" textLength="24" x="1279.0983" y="649.5192">0..1</text><!--link TradingMarket to LotBreakdown--><path d="M1407.22,273.629 C1416.21,305.015 1422.8,345.192 1413,380 C1391.53,456.231 1379.92,480.216 1320,532 C1305.46,544.565 1286.5,553.755 1269.27,560.21 " fill="none" id="TradingMarket-LotBreakdown" style="stroke: #A80036; stroke-width: 1.0;"/><polygon fill="#A80036" points="1264.46,561.959,1274.2858,562.6319,1269.1571,560.2452,1271.5438,555.1165,1264.46,561.959" style="stroke: #A80036; stroke-width: 1.0;"/><text fill="#000000" font-family="sans-serif" font-size="13" lengthAdjust="spacingAndGlyphs" textLength="83" x="1406" y="423.0669">TradeLotSize</text><text fill="#000000" font-family="sans-serif" font-size="13" lengthAdjust="spacingAndGlyphs" textLength="8" x="1267.6494" y="550.9931">1</text><!--link TradingMarket to LotBreakdown--><path d="M1493.56,235.362 C1549.7,249.297 1603.63,275.45 1586,324 C1538.96,453.547 1479.69,471.203 1356,532 C1330.76,544.405 1300.97,554.044 1276.08,560.85 " fill="none" id="TradingMarket-LotBreakdown" style="stroke: #A80036; stroke-width: 1.0;"/><polygon fill="#A80036" points="1271.17,562.174,1280.9047,563.6691,1275.9944,560.8605,1278.8031,555.9501,1271.17,562.174" style="stroke: #A80036; stroke-width: 1.0;"/><text fill="#000000" font-family="sans-serif" font-size="13" lengthAdjust="spacingAndGlyphs" textLength="59" x="1543" y="423.0669">QuoteLot</text><text fill="#000000" font-family="sans-serif" font-size="13" lengthAdjust="spacingAndGlyphs" textLength="8" x="1279.0054" y="555.141">1</text><!--link TradingMarket to LotBreakdown--><path d="M1493.26,233.384 C1538.28,244.901 1586.58,266.293 1614,306 C1628.86,327.521 1690.28,292.873 1610,428 C1541.17,543.855 1364.84,567.729 1276.33,572.252 " fill="none" id="TradingMarket-LotBreakdown" style="stroke: #A80036; stroke-width: 1.0;"/><polygon fill="#A80036" points="1271.15,572.499,1280.3337,576.0572,1276.1441,572.2562,1279.9451,568.0666,1271.15,572.499" style="stroke: #A80036; stroke-width: 1.0;"/><text fill="#000000" font-family="sans-serif" font-size="13" lengthAdjust="spacingAndGlyphs" textLength="60" x="1622" y="423.0669">RoundLot</text><text fill="#000000" font-family="sans-serif" font-size="13" lengthAdjust="spacingAndGlyphs" textLength="8" x="1278.9823" y="585.4971">1</text><!--link TradingMarket to SecuritiesQuantity--><path d="M1280.53,252.464 C1235.48,270.315 1184.98,296.247 1148,332 C1113.56,365.297 1135.47,396.937 1099,428 C1081.45,442.946 1058.37,452.467 1036.7,458.523 " fill="none" id="TradingMarket-SecuritiesQuantity" style="stroke: #A80036; stroke-width: 1.0;"/><polygon fill="#A80036" points="1031.81,459.838,1041.5404,461.3607,1036.6381,458.5381,1039.4606,453.6358,1031.81,459.838" style="stroke: #A80036; stroke-width: 1.0;"/><text fill="#000000" font-family="sans-serif" font-size="13" lengthAdjust="spacingAndGlyphs" textLength="210" x="1149" y="372.0669">MinimumTradedNominalQuantity</text><text fill="#000000" font-family="sans-serif" font-size="13" lengthAdjust="spacingAndGlyphs" textLength="8" x="1040.3173" y="453.4082">1</text><!--link TradingMarket to SecuritiesQuantity--><path d="M1280.52,229.26 C1151.82,242.914 946.639,273.417 900,332 C818.561,434.294 1010.03,363.564 1048,410 C1063.38,428.808 1036.75,445.29 1010.88,456.017 " fill="none" id="TradingMarket-SecuritiesQuantity" style="stroke: #A80036; stroke-width: 1.0;"/><polygon fill="#A80036" points="1006.07,457.952,1015.912,458.3203,1010.7118,456.0936,1012.9385,450.8934,1006.07,457.952" style="stroke: #A80036; stroke-width: 1.0;"/><text fill="#000000" font-family="sans-serif" font-size="13" lengthAdjust="spacingAndGlyphs" textLength="214" x="901" y="372.0669">MaximumTradedNominalQuantity</text><text fill="#000000" font-family="sans-serif" font-size="13" lengthAdjust="spacingAndGlyphs" textLength="8" x="1006.8936" y="446.9837">1</text><!--link TradingMarket to SecuritiesOrder--><path d="M1391.75,273.622 C1391.99,307.124 1386.99,349.534 1365,380 C1347.32,404.498 1323.9,387.266 1304,410 C1266.33,453.044 1307,495.444 1263,532 C1245.31,546.696 1108.21,561.028 1028.66,568.219 " fill="none" id="TradingMarket-SecuritiesOrder" style="stroke: #A80036; stroke-width: 1.0;"/><polygon fill="#A80036" points="1023.5,568.683,1032.8189,571.8701,1028.4803,568.2401,1032.1103,563.9015,1023.5,568.683" style="stroke: #A80036; stroke-width: 1.0;"/><text fill="#000000" font-family="sans-serif" font-size="13" lengthAdjust="spacingAndGlyphs" textLength="84" x="1305" y="423.0669">RelatedOrder</text><text fill="#000000" font-family="sans-serif" font-size="13" lengthAdjust="spacingAndGlyphs" textLength="24" x="1031.6039" y="562.9901">0..1</text><!--link TradingMarket to StockExchange--><path d="M1493.35,257.758 C1536.82,272.056 1587.88,287.419 1635,298 C1660.39,303.701 1669.59,294.639 1693,306 C1774.71,345.652 1880,313.655 1880,522 C1880,522 1880,522 1880,751 C1880,831.1606 1274.29,835.8526 1084.9,835.3604 " fill="none" id="TradingMarket-StockExchange" style="stroke: #A80036; stroke-width: 1.0;"/><polygon fill="#A80036" points="1079.69,835.3453,1088.6785,839.371,1084.69,835.3596,1088.7014,831.371,1079.69,835.3453" style="stroke: #A80036; stroke-width: 1.0;"/><text fill="#000000" font-family="sans-serif" font-size="13" lengthAdjust="spacingAndGlyphs" textLength="98" x="1881" y="578.0669">StockExchange</text><text fill="#000000" font-family="sans-serif" font-size="13" lengthAdjust="spacingAndGlyphs" textLength="24" x="1088.4355" y="830.1364">0..1</text><!--link TradingMarket to TradingSession--><path d="M1280.64,220.197 C956.99,222.192 6,238.947 6,367 C6,367 6,367 6,663 C6,721.777 434.843,741.938 590.996,747.331 " fill="none" id="TradingMarket-TradingSession" style="stroke: #A80036; stroke-width: 1.0;"/><polygon fill="#A80036" points="596.434,747.517,587.5764,743.2108,591.4369,747.3456,587.3022,751.2061,596.434,747.517" style="stroke: #A80036; stroke-width: 1.0;"/><text fill="#000000" font-family="sans-serif" font-size="13" lengthAdjust="spacingAndGlyphs" textLength="97" x="7" y="527.0669">TradingSession</text><text fill="#000000" font-family="sans-serif" font-size="13" lengthAdjust="spacingAndGlyphs" textLength="23" x="565.4815" y="742.3916">1..*</text><!--link TradingMarket to SecuritiesIdentification--><path d="M1280.56,221.337 C977.036,226.551 129,251.455 129,367 C129,367 129,367 129,575 C129,634.308 311.201,652.726 420.233,658.439 " fill="none" id="TradingMarket-SecuritiesIdentification" style="stroke: #A80036; stroke-width: 1.0;"/><polygon fill="#A80036" points="425.369,658.701,416.5854,654.2459,420.3755,658.4453,416.1762,662.2354,425.369,658.701" style="stroke: #A80036; stroke-width: 1.0;"/><text fill="#000000" font-family="sans-serif" font-size="13" lengthAdjust="spacingAndGlyphs" textLength="218" x="130" y="474.0669">ListedSecurityTradingIdentification</text><text fill="#000000" font-family="sans-serif" font-size="13" lengthAdjust="spacingAndGlyphs" textLength="8" x="409.7539" y="653.7976">1</text><!--link TradingMarket to Issuance--><path d="M1280.47,222.404 C1080.5,228.254 657.044,247.364 524,306 C423.654,350.225 362.449,441.931 425,532 C441.621,555.933 473.985,565.921 499.324,570.076 " fill="none" id="TradingMarket-Issuance" style="stroke: #A80036; stroke-width: 1.0;"/><polygon fill="#A80036" points="504.292,570.832,495.9969,565.5224,499.349,570.0791,494.7923,573.4312,504.292,570.832" style="stroke: #A80036; stroke-width: 1.0;"/><text fill="#000000" font-family="sans-serif" font-size="13" lengthAdjust="spacingAndGlyphs" textLength="56" x="411" y="423.0669">Issuance</text><text fill="#000000" font-family="sans-serif" font-size="13" lengthAdjust="spacingAndGlyphs" textLength="8" x="488.3898" y="564.6903">1</text><!--link TradingMarket to PlaceOfSettlement--><path d="M1280.62,225.486 C1059.11,238.059 565.062,272.543 519,332 C491.434,367.582 503.526,425.412 511.71,453.161 " fill="none" id="TradingMarket-PlaceOfSettlement" style="stroke: #A80036; stroke-width: 1.0;"/><polygon fill="#A80036" points="513.183,457.98,514.3776,448.2039,511.7215,453.1984,506.727,450.5422,513.183,457.98" style="stroke: #A80036; stroke-width: 1.0;"/><text fill="#000000" font-family="sans-serif" font-size="13" lengthAdjust="spacingAndGlyphs" textLength="168" x="520" y="372.0669">RelatedPlaceOfSettlement</text><text fill="#000000" font-family="sans-serif" font-size="13" lengthAdjust="spacingAndGlyphs" textLength="8" x="501.1522" y="447.0213">1</text><!--link Jurisdiction to Security--><path d="M1929.75,361.483 C1861.59,349.927 1712.15,326.286 1585,318 C1496.95,312.262 875.285,305.892 791,332 C777.455,336.196 764.102,344.799 753.946,352.543 " fill="none" id="Jurisdiction-Security" style="stroke: #A80036; stroke-width: 1.0;"/><polygon fill="#A80036" points="749.797,355.794,759.3482,353.391,753.7325,352.7099,754.4136,347.0942,749.797,355.794" style="stroke: #A80036; stroke-width: 1.0;"/><text fill="#000000" font-family="sans-serif" font-size="13" lengthAdjust="spacingAndGlyphs" textLength="131" x="1452" y="319.0669">RegisteredSecurities</text><text fill="#000000" font-family="sans-serif" font-size="13" lengthAdjust="spacingAndGlyphs" textLength="24" x="758.1766" y="345.0292">0..1</text><!--link Security to SecuritiesIdentification--><path d="M728.783,380.154 C710.375,407.494 658.603,477.668 595,506 C582.895,511.392 485.051,504.32 476,514 C441.969,550.396 472.766,615.285 490.079,645.154 " fill="none" id="Security-SecuritiesIdentification" style="stroke: #A80036; stroke-width: 1.0;"/><polygon fill="#A80036" points="492.73,649.637,491.5899,639.8544,490.184,645.3337,484.7047,643.9279,492.73,649.637" style="stroke: #A80036; stroke-width: 1.0;"/><text fill="#000000" font-family="sans-serif" font-size="13" lengthAdjust="spacingAndGlyphs" textLength="81" x="477" y="527.0669">Identification</text><text fill="#000000" font-family="sans-serif" font-size="13" lengthAdjust="spacingAndGlyphs" textLength="7" x="480.7484" y="638.8202">*</text><!--link Security to SecuritiesQuantity--><path d="M763.527,374.992 C801.686,383.516 868.504,399.297 891,410 C915.412,421.614 940.032,440.867 955.613,454.206 " fill="none" id="Security-SecuritiesQuantity" style="stroke: #A80036; stroke-width: 1.0;"/><polygon fill="#A80036" points="959.76,457.8,955.5779,448.8832,955.9813,454.5256,950.3389,454.9291,959.76,457.8" style="stroke: #A80036; stroke-width: 1.0;"/><text fill="#000000" font-family="sans-serif" font-size="13" lengthAdjust="spacingAndGlyphs" textLength="117" x="921" y="423.0669">SecuritiesQuantity</text><text fill="#000000" font-family="sans-serif" font-size="13" lengthAdjust="spacingAndGlyphs" textLength="7" x="946.0493" y="447.0372">*</text><!--link Security to SecuritiesQuantity--><path d="M738.675,380.038 C742.547,393.544 751.063,416.079 767,428 C788.847,444.341 855.732,455.629 907.224,462.163 " fill="none" id="Security-SecuritiesQuantity" style="stroke: #A80036; stroke-width: 1.0;"/><polygon fill="#A80036" points="912.472,462.82,904.0389,457.7325,907.5108,462.1986,903.0447,465.6705,912.472,462.82" style="stroke: #A80036; stroke-width: 1.0;"/><text fill="#000000" font-family="sans-serif" font-size="13" lengthAdjust="spacingAndGlyphs" textLength="113" x="768" y="423.0669">MinimumQuantity</text><text fill="#000000" font-family="sans-serif" font-size="13" lengthAdjust="spacingAndGlyphs" textLength="8" x="896.3596" y="457.1809">1</text><!--link Security to SecuritiesOrder--><path d="M736.147,380.198 C736.617,392.313 738.295,412.036 744,428 C757.698,466.331 763.745,476.699 792,506 C824.562,539.768 875.696,556.656 915.155,565.019 " fill="none" id="Security-SecuritiesOrder" style="stroke: #A80036; stroke-width: 1.0;"/><polygon fill="#A80036" points="920.397,566.094,912.3857,560.3653,915.4992,565.0882,910.7763,568.2017,920.397,566.094" style="stroke: #A80036; stroke-width: 1.0;"/><text fill="#000000" font-family="sans-serif" font-size="13" lengthAdjust="spacingAndGlyphs" textLength="99" x="793" y="474.0669">SecuritiesOrder</text><text fill="#000000" font-family="sans-serif" font-size="13" lengthAdjust="spacingAndGlyphs" textLength="8" x="904.8234" y="560.2734">1</text><!--link SecuritiesQuantity to Issuance--><path d="M944.538,482.065 C923.008,490.207 892.091,500.736 864,506 C802.742,517.479 785.319,502.853 724,514 C694.306,519.398 616.421,545.151 570.429,560.795 " fill="none" id="SecuritiesQuantity-Issuance" style="stroke: #A80036; stroke-width: 1.0;"/><polygon fill="#A80036" points="565.532,562.463,575.3412,563.3461,570.2647,560.8502,572.7607,555.7737,565.532,562.463" style="stroke: #A80036; stroke-width: 1.0;"/><text fill="#000000" font-family="sans-serif" font-size="13" lengthAdjust="spacingAndGlyphs" textLength="104" x="725" y="527.0669">RelatedIssuance</text><text fill="#000000" font-family="sans-serif" font-size="13" lengthAdjust="spacingAndGlyphs" textLength="8" x="574.6781" y="553.167">1</text><!--link SecuritiesQuantity to Issuance--><path d="M945.021,482.113 C923.495,490.397 892.355,501.09 864,506 C834.317,511.14 620.607,501.944 593,514 C572.243,523.064 555.051,543.347 544.908,557.589 " fill="none" id="SecuritiesQuantity-Issuance" style="stroke: #A80036; stroke-width: 1.0;"/><polygon fill="#A80036" points="541.99,561.796,550.4064,556.6809,544.8398,557.6877,543.833,552.1211,541.99,561.796" style="stroke: #A80036; stroke-width: 1.0;"/><text fill="#000000" font-family="sans-serif" font-size="13" lengthAdjust="spacingAndGlyphs" textLength="56" x="594" y="527.0669">Issuance</text><text fill="#000000" font-family="sans-serif" font-size="13" lengthAdjust="spacingAndGlyphs" textLength="8" x="533.4836" y="551.0319">1</text><!--link SecuritiesOrder to TradingSession--><path d="M947.658,586.076 C917.577,599.922 864.977,624.649 821,648 C765.722,677.352 702.579,715.097 669.665,735.105 " fill="none" id="SecuritiesOrder-TradingSession" style="stroke: #A80036; stroke-width: 1.0;"/><polygon fill="#A80036" points="665.032,737.926,674.7994,736.6618,669.3026,735.3256,670.6388,729.8289,665.032,737.926" style="stroke: #A80036; stroke-width: 1.0;"/><text fill="#000000" font-family="sans-serif" font-size="13" lengthAdjust="spacingAndGlyphs" textLength="196" x="822" y="666.0669">SecuritiesOrderTradingSession</text><text fill="#000000" font-family="sans-serif" font-size="13" lengthAdjust="spacingAndGlyphs" textLength="8" x="660.3399" y="726.9488">1</text><!--link SecuritiesIdentification to SecuritiesIdentification--><path d="M574.381,653.823 C594.08,654.29 609,657.016 609,662 C609,666.517 596.746,669.179 579.787,669.987 " fill="none" id="SecuritiesIdentification-SecuritiesIdentification" style="stroke: #A80036; stroke-width: 1.0;"/><polygon fill="#A80036" points="574.381,670.177,583.516,673.8583,579.3779,670.0013,583.2349,665.8632,574.381,670.177" style="stroke: #A80036; stroke-width: 1.0;"/><text fill="#000000" font-family="sans-serif" font-size="13" lengthAdjust="spacingAndGlyphs" textLength="118" x="615" y="666.0669">PrimeIdentification</text><text fill="#000000" font-family="sans-serif" font-size="13" lengthAdjust="spacingAndGlyphs" textLength="8" x="582.9266" y="666.2175">1</text></g></svg>