<?xml version="1.0" encoding="UTF-8" standalone="no"?><svg xmlns="http://www.w3.org/2000/svg" xmlns:xlink="http://www.w3.org/1999/xlink" contentScriptType="application/ecmascript" contentStyleType="text/css" height="712px" preserveAspectRatio="none" style="width:1278px;height:712px;" version="1.1" viewBox="0 0 1278 712" width="1278px" zoomAndPan="magnify"><defs><filter height="300%" id="fmqx5yeuw2rug" width="300%" x="-1" y="-1"><feGaussianBlur result="blurOut" stdDeviation="2.0"/><feColorMatrix in="blurOut" result="blurOut2" type="matrix" values="0 0 0 0 0 0 0 0 0 0 0 0 0 0 0 0 0 0 .4 0"/><feOffset dx="4.0" dy="4.0" in="blurOut2" result="blurOut3"/><feBlend in="SourceGraphic" in2="blurOut3" mode="normal"/></filter></defs><g><!--cluster ##13127--><!--cluster ##13130--><!--class Transport--><a target="_top" xlink:actuate="onRequest" xlink:href="../Transport.html" xlink:show="new" xlink:title="Moving of goods or people from one place to another by vehicle." xlink:type="simple"><rect fill="#FEFECE" filter="url(#fmqx5yeuw2rug)" height="95.9922" id="Transport" style="stroke: #A80036; stroke-width: 1.5;" width="335" x="513.75" y="40"/><rect fill="#FEFECE" height="23.9688" style="stroke: #A80036; stroke-width: 1.5;" width="335" x="513.75" y="40"/><text fill="#000000" font-family="sans-serif" font-size="12" lengthAdjust="spacingAndGlyphs" textLength="61" x="650.75" y="56.1387">Transport</text><line style="stroke: #A80036; stroke-width: 1.5;" x1="514.75" x2="847.75" y1="63.9688" y2="63.9688"/><ellipse cx="524.75" cy="75.8711" fill="#84BE84" rx="3" ry="3" style="stroke: #038048; stroke-width: 1.0;"/><text fill="#000000" font-family="sans-serif" font-size="11" lengthAdjust="spacingAndGlyphs" textLength="72" x="533.75" y="78.1792">Identification</text><text fill="#000000" font-family="sans-serif" font-size="11" font-style="italic" lengthAdjust="spacingAndGlyphs" textLength="70" x="609.75" y="78.1792">(Max35Text)</text><ellipse cx="524.75" cy="88.6758" fill="#84BE84" rx="3" ry="3" style="stroke: #038048; stroke-width: 1.0;"/><text fill="#000000" font-family="sans-serif" font-size="11" lengthAdjust="spacingAndGlyphs" textLength="90" x="533.75" y="90.9839">ArrivalDateTime</text><text fill="#000000" font-family="sans-serif" font-size="11" font-style="italic" lengthAdjust="spacingAndGlyphs" textLength="81" x="627.75" y="90.9839">(ISODateTime)</text><ellipse cx="524.75" cy="101.4805" fill="#84BE84" rx="3" ry="3" style="stroke: #038048; stroke-width: 1.0;"/><text fill="#000000" font-family="sans-serif" font-size="11" lengthAdjust="spacingAndGlyphs" textLength="90" x="533.75" y="103.7886">PartialShipment</text><text fill="#000000" font-family="sans-serif" font-size="11" font-style="italic" lengthAdjust="spacingAndGlyphs" textLength="92" x="627.75" y="103.7886">(YesNoIndicator)</text><ellipse cx="524.75" cy="114.2852" fill="#84BE84" rx="3" ry="3" style="stroke: #038048; stroke-width: 1.0;"/><text fill="#000000" font-family="sans-serif" font-size="11" lengthAdjust="spacingAndGlyphs" textLength="87" x="533.75" y="116.5933">TransShipment</text><text fill="#000000" font-family="sans-serif" font-size="11" font-style="italic" lengthAdjust="spacingAndGlyphs" textLength="92" x="624.75" y="116.5933">(YesNoIndicator)</text><ellipse cx="524.75" cy="127.0898" fill="#84BE84" rx="3" ry="3" style="stroke: #038048; stroke-width: 1.0;"/><text fill="#000000" font-family="sans-serif" font-size="11" lengthAdjust="spacingAndGlyphs" textLength="182" x="533.75" y="129.3979">FreightChargesPrepaidOrCollect</text><text fill="#000000" font-family="sans-serif" font-size="11" font-style="italic" lengthAdjust="spacingAndGlyphs" textLength="123" x="719.75" y="129.3979">(FreightChargesCode)</text></a><!--class Incoterms--><a target="_top" xlink:actuate="onRequest" xlink:href="../Incoterms.html" xlink:show="new" xlink:title="International commerce terms are a series of international sales terms, published by International Chamber of Commerce (ICC) and widely used in international commercial transactions. These are accepted by governments, legal authorities and practitioners worldwide for the interpretation of most commonly used terms in international trade. Scope of this is limited to matters relating to rights and obligations of the parties to the contract of sale with respect to the delivery of goods sold. They are used to divide transaction costs and responsibilities between buyer and seller and reflect state-of-the-art transportation practices." xlink:type="simple"><rect fill="#EEEEEE" filter="url(#fmqx5yeuw2rug)" height="23.9688" id="Incoterms" style="stroke: #A80036; stroke-width: 1.5;" width="68" x="42" y="76"/><rect fill="#EEEEEE" height="23.9688" style="stroke: #A80036; stroke-width: 1.5;" width="68" x="42" y="76"/><text fill="#000000" font-family="sans-serif" font-size="12" lengthAdjust="spacingAndGlyphs" textLength="62" x="45" y="92.1387">Incoterms</text></a><!--class Packaging--><a target="_top" xlink:actuate="onRequest" xlink:href="../Packaging.html" xlink:show="new" xlink:title="Physical packaging of goods for transport." xlink:type="simple"><rect fill="#EEEEEE" filter="url(#fmqx5yeuw2rug)" height="23.9688" id="Packaging" style="stroke: #A80036; stroke-width: 1.5;" width="71" x="88.75" y="420"/><rect fill="#EEEEEE" height="23.9688" style="stroke: #A80036; stroke-width: 1.5;" width="71" x="88.75" y="420"/><text fill="#000000" font-family="sans-serif" font-size="12" lengthAdjust="spacingAndGlyphs" textLength="65" x="91.75" y="436.1387">Packaging</text></a><!--class ProductDelivery--><a target="_top" xlink:actuate="onRequest" xlink:href="../ProductDelivery.html" xlink:show="new" xlink:title="Arrangements for delivery of invoiced products and/or services." xlink:type="simple"><rect fill="#EEEEEE" filter="url(#fmqx5yeuw2rug)" height="23.9688" id="ProductDelivery" style="stroke: #A80036; stroke-width: 1.5;" width="103" x="112.75" y="318"/><rect fill="#EEEEEE" height="23.9688" style="stroke: #A80036; stroke-width: 1.5;" width="103" x="112.75" y="318"/><text fill="#000000" font-family="sans-serif" font-size="12" lengthAdjust="spacingAndGlyphs" textLength="97" x="115.75" y="334.1387">ProductDelivery</text></a><!--class Location--><a target="_top" xlink:actuate="onRequest" xlink:href="../Location.html" xlink:show="new" xlink:title="Specifies a place." xlink:type="simple"><rect fill="#EEEEEE" filter="url(#fmqx5yeuw2rug)" height="23.9688" id="Location" style="stroke: #A80036; stroke-width: 1.5;" width="59" x="147.75" y="216"/><rect fill="#EEEEEE" height="23.9688" style="stroke: #A80036; stroke-width: 1.5;" width="59" x="147.75" y="216"/><text fill="#000000" font-family="sans-serif" font-size="12" lengthAdjust="spacingAndGlyphs" textLength="53" x="150.75" y="232.1387">Location</text></a><!--class Charges--><a target="_top" xlink:actuate="onRequest" xlink:href="../Charges.html" xlink:show="new" xlink:title="Amount of money associated with a service." xlink:type="simple"><rect fill="#EEEEEE" filter="url(#fmqx5yeuw2rug)" height="23.9688" id="Charges" style="stroke: #A80036; stroke-width: 1.5;" width="58" x="224.5" y="678"/><rect fill="#EEEEEE" height="23.9688" style="stroke: #A80036; stroke-width: 1.5;" width="58" x="224.5" y="678"/><text fill="#000000" font-family="sans-serif" font-size="12" lengthAdjust="spacingAndGlyphs" textLength="52" x="227.5" y="694.1387">Charges</text></a><!--class ShipmentDateRange--><a target="_top" xlink:actuate="onRequest" xlink:href="../ShipmentDateRange.html" xlink:show="new" xlink:title="Specifies a shipment period or a shipment date." xlink:type="simple"><rect fill="#EEEEEE" filter="url(#fmqx5yeuw2rug)" height="23.9688" id="ShipmentDateRange" style="stroke: #A80036; stroke-width: 1.5;" width="135" x="185.75" y="592"/><rect fill="#EEEEEE" height="23.9688" style="stroke: #A80036; stroke-width: 1.5;" width="135" x="185.75" y="592"/><text fill="#000000" font-family="sans-serif" font-size="12" lengthAdjust="spacingAndGlyphs" textLength="129" x="188.75" y="608.1387">ShipmentDateRange</text></a><!--class Goods--><a target="_top" xlink:actuate="onRequest" xlink:href="../Goods.html" xlink:show="new" xlink:title="Good is a physical product that can be delivered to a purchaser and that involves the transfer of ownership from seller to customer." xlink:type="simple"><rect fill="#EEEEEE" filter="url(#fmqx5yeuw2rug)" height="23.9688" id="Goods" style="stroke: #A80036; stroke-width: 1.5;" width="46" x="235" y="506"/><rect fill="#EEEEEE" height="23.9688" style="stroke: #A80036; stroke-width: 1.5;" width="46" x="235" y="506"/><text fill="#000000" font-family="sans-serif" font-size="12" lengthAdjust="spacingAndGlyphs" textLength="40" x="238" y="522.1387">Goods</text></a><!--class TransportPartyRole--><a target="_top" xlink:actuate="onRequest" xlink:href="../TransportPartyRole.html" xlink:show="new" xlink:title="Role played by a party in the context of transporting goods." xlink:type="simple"><rect fill="#EEEEEE" filter="url(#fmqx5yeuw2rug)" height="23.9688" id="TransportPartyRole" style="stroke: #A80036; stroke-width: 1.5;" width="126" x="195" y="420"/><rect fill="#EEEEEE" height="23.9688" style="stroke: #A80036; stroke-width: 1.5;" width="126" x="195" y="420"/><text fill="#000000" font-family="sans-serif" font-size="12" lengthAdjust="spacingAndGlyphs" textLength="120" x="198" y="436.1387">TransportPartyRole</text></a><!--class Document--><a target="_top" xlink:actuate="onRequest" xlink:href="../Document.html" xlink:show="new" xlink:title="General information that unambiguously identifies a document, such as identification number and issue date time." xlink:type="simple"><rect fill="#EEEEEE" filter="url(#fmqx5yeuw2rug)" height="23.9688" id="Document" style="stroke: #A80036; stroke-width: 1.5;" width="70" x="251" y="318"/><rect fill="#EEEEEE" height="23.9688" style="stroke: #A80036; stroke-width: 1.5;" width="70" x="251" y="318"/><text fill="#000000" font-family="sans-serif" font-size="12" lengthAdjust="spacingAndGlyphs" textLength="64" x="254" y="334.1387">Document</text></a><!--link Packaging to Incoterms--><!--link ProductDelivery to Packaging--><!--link Location to ProductDelivery--><!--link Charges to Location--><!--link ShipmentDateRange to Charges--><!--link Goods to ShipmentDateRange--><!--link TransportPartyRole to Goods--><!--link Document to TransportPartyRole--><!--link Transport to Incoterms--><path d="M513.605,88 C377.131,88 194.482,88 115.324,88 " fill="none" id="Transport-Incoterms" style="stroke: #A80036; stroke-width: 1.0;"/><polygon fill="#A80036" points="110.261,88,119.261,92,115.261,88,119.261,84,110.261,88" style="stroke: #A80036; stroke-width: 1.0;"/><text fill="#000000" font-family="sans-serif" font-size="13" lengthAdjust="spacingAndGlyphs" textLength="64" x="279.25" y="80.0669">Incoterms</text><text fill="#000000" font-family="sans-serif" font-size="13" lengthAdjust="spacingAndGlyphs" textLength="8" x="118.1523" y="82.3307">1</text><!--link Transport to Packaging--><path d="M693.893,136.25 C699.737,168.437 701.27,210.411 680,240 C648.38,283.987 286.801,386.381 164.297,420.052 " fill="none" id="Transport-Packaging" style="stroke: #A80036; stroke-width: 1.0;"/><polygon fill="#A80036" points="159.342,421.412,169.08,422.8854,164.1634,420.0877,166.9612,415.1711,159.342,421.412" style="stroke: #A80036; stroke-width: 1.0;"/><text fill="#000000" font-family="sans-serif" font-size="13" lengthAdjust="spacingAndGlyphs" textLength="65" x="630" y="283.0669">Packaging</text><text fill="#000000" font-family="sans-serif" font-size="13" lengthAdjust="spacingAndGlyphs" textLength="8" x="167.8934" y="413.3213">1</text><!--link Transport to ProductDelivery--><path d="M651.909,136.076 C637.94,154.663 619.532,174.331 598,186 C507.754,234.909 457.396,163.82 369,216 C334.782,236.199 348.798,265.569 316,288 C300.357,298.699 257.056,309.838 220.654,317.801 " fill="none" id="Transport-ProductDelivery" style="stroke: #A80036; stroke-width: 1.0;"/><polygon fill="#A80036" points="215.337,318.952,224.9798,320.9561,220.2237,317.8935,223.2862,313.1374,215.337,318.952" style="stroke: #A80036; stroke-width: 1.0;"/><text fill="#000000" font-family="sans-serif" font-size="13" lengthAdjust="spacingAndGlyphs" textLength="100" x="370" y="232.0669">ProductDelivery</text><text fill="#000000" font-family="sans-serif" font-size="13" lengthAdjust="spacingAndGlyphs" textLength="24" x="219.031" y="310.2985">0..1</text><!--link Transport to Location--><path d="M554.638,136.088 C529.091,146.192 502.545,157.115 478,168 C461.647,175.252 459.044,180.567 442,186 C399.72,199.477 273.452,215.619 211.733,222.983 " fill="none" id="Transport-Location" style="stroke: #A80036; stroke-width: 1.0;"/><polygon fill="#A80036" points="206.684,223.582,216.0932,226.4919,211.6491,222.9919,215.149,218.5478,206.684,223.582" style="stroke: #A80036; stroke-width: 1.0;"/><text fill="#000000" font-family="sans-serif" font-size="13" lengthAdjust="spacingAndGlyphs" textLength="113" x="479" y="181.0669">PlaceOfDeparture</text><text fill="#000000" font-family="sans-serif" font-size="13" lengthAdjust="spacingAndGlyphs" textLength="8" x="214.8335" y="216.5201">1</text><!--link Transport to Location--><path d="M513.464,128.987 C457.642,140.86 394.924,152.646 337,160 C328.006,161.142 180.252,161.434 174,168 C163.386,179.148 166.248,197.502 170.433,210.782 " fill="none" id="Transport-Location" style="stroke: #A80036; stroke-width: 1.0;"/><polygon fill="#A80036" points="172.141,215.774,173.009,205.9635,170.5209,211.0437,165.4406,208.5556,172.141,215.774" style="stroke: #A80036; stroke-width: 1.0;"/><text fill="#000000" font-family="sans-serif" font-size="13" lengthAdjust="spacingAndGlyphs" textLength="121" x="175" y="181.0669">PlaceOfDestination</text><text fill="#000000" font-family="sans-serif" font-size="13" lengthAdjust="spacingAndGlyphs" textLength="8" x="159.7924" y="205.0026">1</text><!--link Transport to Location--><path d="M513.499,116.951 C455.566,129.272 390.925,146.044 334,168 C318.775,173.872 316.935,179.426 302,186 C272.213,199.112 236.856,210.331 211.36,217.701 " fill="none" id="Transport-Location" style="stroke: #A80036; stroke-width: 1.0;"/><polygon fill="#A80036" points="206.396,219.123,216.1496,220.4897,211.2026,217.746,213.9464,212.7991,206.396,219.123" style="stroke: #A80036; stroke-width: 1.0;"/><text fill="#000000" font-family="sans-serif" font-size="13" lengthAdjust="spacingAndGlyphs" textLength="97" x="335" y="181.0669">TransitLocation</text><text fill="#000000" font-family="sans-serif" font-size="13" lengthAdjust="spacingAndGlyphs" textLength="7" x="212.8755" y="205.0291">*</text><!--link Transport to Charges--><path d="M848.359,106.494 C983.393,125.417 1151,161.996 1151,227 C1151,227 1151,227 1151,605 C1151,693.5358 450.089,691.1977 286.739,689.4506 " fill="none" id="Transport-Charges" style="stroke: #A80036; stroke-width: 1.0;"/><polygon fill="#A80036" points="281.609,689.394,290.565,693.4915,286.6087,689.4483,290.6519,685.492,281.609,689.394" style="stroke: #A80036; stroke-width: 1.0;"/><text fill="#000000" font-family="sans-serif" font-size="13" lengthAdjust="spacingAndGlyphs" textLength="114" x="1152" y="436.0669">TransportCharges</text><text fill="#000000" font-family="sans-serif" font-size="13" lengthAdjust="spacingAndGlyphs" textLength="7" x="290.499" y="682.9229">*</text><!--link Transport to ShipmentDateRange--><path d="M848.465,125.846 C935.95,150.106 1025,185.093 1025,227 C1025,227 1025,227 1025,519 C1025,588.949 517.637,600.69 325.531,602.629 " fill="none" id="Transport-ShipmentDateRange" style="stroke: #A80036; stroke-width: 1.0;"/><polygon fill="#A80036" points="320.496,602.678,329.5344,606.5904,325.4958,602.6294,329.4567,598.5908,320.496,602.678" style="stroke: #A80036; stroke-width: 1.0;"/><text fill="#000000" font-family="sans-serif" font-size="13" lengthAdjust="spacingAndGlyphs" textLength="100" x="1026" y="385.0669">ShipmentDates</text><text fill="#000000" font-family="sans-serif" font-size="13" lengthAdjust="spacingAndGlyphs" textLength="8" x="328.7338" y="597.6187">1</text><!--link Transport to Goods--><path d="M790.586,136.001 C823.48,157.859 851,187.845 851,227 C851,227 851,227 851,433 C851,490.76 404.265,511.535 286.287,516.014 " fill="none" id="Transport-Goods" style="stroke: #A80036; stroke-width: 1.0;"/><polygon fill="#A80036" points="281.246,516.203,290.3894,519.8634,286.2425,516.0159,290.09,511.869,281.246,516.203" style="stroke: #A80036; stroke-width: 1.0;"/><text fill="#000000" font-family="sans-serif" font-size="13" lengthAdjust="spacingAndGlyphs" textLength="118" x="852" y="334.0669">TransportedGoods</text><text fill="#000000" font-family="sans-serif" font-size="13" lengthAdjust="spacingAndGlyphs" textLength="23" x="288.8467" y="510.0354">1..*</text><!--link Transport to TransportPartyRole--><path d="M714.453,136.024 C720.043,146.133 724.996,157.075 728,168 C754.692,265.07 764.109,330.364 683,390 C654.965,410.613 439.412,423.045 326.503,428.208 " fill="none" id="Transport-TransportPartyRole" style="stroke: #A80036; stroke-width: 1.0;"/><polygon fill="#A80036" points="321.205,428.448,330.3774,432.0351,326.1998,428.2209,330.014,424.0433,321.205,428.448" style="stroke: #A80036; stroke-width: 1.0;"/><text fill="#000000" font-family="sans-serif" font-size="13" lengthAdjust="spacingAndGlyphs" textLength="60" x="749" y="283.0669">PartyRole</text><text fill="#000000" font-family="sans-serif" font-size="13" lengthAdjust="spacingAndGlyphs" textLength="24" x="328.9605" y="423.2805">0..1</text><!--link Transport to Document--><path d="M669.809,136.089 C663.439,153.889 653.691,172.972 639,186 C603.964,217.069 581.905,199.718 538,216 C453.9,247.189 358.143,293.138 312.676,315.62 " fill="none" id="Transport-Document" style="stroke: #A80036; stroke-width: 1.0;"/><polygon fill="#A80036" points="308.172,317.851,318.0122,317.439,312.6521,315.6309,314.4602,310.2708,308.172,317.851" style="stroke: #A80036; stroke-width: 1.0;"/><text fill="#000000" font-family="sans-serif" font-size="13" lengthAdjust="spacingAndGlyphs" textLength="135" x="539" y="232.0669">TransportDocuments</text><text fill="#000000" font-family="sans-serif" font-size="13" lengthAdjust="spacingAndGlyphs" textLength="8" x="305.0749" y="306.848">1</text><!--link Incoterms to Location--><path d="M72.4981,100.042 C67.1025,119.341 59.1327,159.658 77,186 C91.5904,207.511 119.671,217.747 142.37,222.612 " fill="none" id="Incoterms-Location" style="stroke: #A80036; stroke-width: 1.0;"/><polygon fill="#A80036" points="147.419,223.626,139.3827,217.9323,142.5169,222.6416,137.8076,225.7757,147.419,223.626" style="stroke: #A80036; stroke-width: 1.0;"/><text fill="#000000" font-family="sans-serif" font-size="13" lengthAdjust="spacingAndGlyphs" textLength="54" x="78" y="181.0669">Location</text><text fill="#000000" font-family="sans-serif" font-size="13" lengthAdjust="spacingAndGlyphs" textLength="8" x="131.7793" y="217.2544">1</text><!--link Location to Document--><path d="M189.081,240.084 C208.806,258.18 247.93,294.073 269.959,314.283 " fill="none" id="Location-Document" style="stroke: #A80036; stroke-width: 1.0;"/><polygon fill="#A80036" points="273.865,317.867,269.9372,308.8353,270.1806,314.4869,264.529,314.7303,273.865,317.867" style="stroke: #A80036; stroke-width: 1.0;"/><text fill="#000000" font-family="sans-serif" font-size="13" lengthAdjust="spacingAndGlyphs" textLength="108" x="243" y="283.0669">IssuedDocument</text><text fill="#000000" font-family="sans-serif" font-size="13" lengthAdjust="spacingAndGlyphs" textLength="7" x="260.1467" y="306.8695">*</text></g></svg>