<?xml version="1.0" encoding="UTF-8" standalone="no"?><svg xmlns="http://www.w3.org/2000/svg" xmlns:xlink="http://www.w3.org/1999/xlink" contentScriptType="application/ecmascript" contentStyleType="text/css" height="706px" preserveAspectRatio="none" style="width:987px;height:706px;" version="1.1" viewBox="0 0 987 706" width="987px" zoomAndPan="magnify"><defs><filter height="300%" id="f6d2b1ya83yz5" width="300%" x="-1" y="-1"><feGaussianBlur result="blurOut" stdDeviation="2.0"/><feColorMatrix in="blurOut" result="blurOut2" type="matrix" values="0 0 0 0 0 0 0 0 0 0 0 0 0 0 0 0 0 0 .4 0"/><feOffset dx="4.0" dy="4.0" in="blurOut2" result="blurOut3"/><feBlend in="SourceGraphic" in2="blurOut3" mode="normal"/></filter></defs><g><!--cluster ##2201--><!--cluster ##2210--><!--cluster ##2219--><!--cluster ##2222--><!--class Role--><a target="_top" xlink:actuate="onRequest" xlink:href="../Role.html" xlink:show="new" xlink:title="Role of a party in an activity." xlink:type="simple"><rect fill="#FEFEEE" filter="url(#f6d2b1ya83yz5)" height="44.7734" id="Role" style="stroke: #A80036; stroke-width: 1.5;" width="175" x="290.75" y="40.5"/><rect fill="#FEFEEE" height="23.9688" style="stroke: #A80036; stroke-width: 1.5;" width="175" x="290.75" y="40.5"/><text fill="#000000" font-family="sans-serif" font-size="12" lengthAdjust="spacingAndGlyphs" textLength="27" x="364.75" y="56.6387">Role</text><line style="stroke: #A80036; stroke-width: 1.5;" x1="291.75" x2="464.75" y1="64.4688" y2="64.4688"/><ellipse cx="301.75" cy="76.3711" fill="#84BE84" rx="3" ry="3" style="stroke: #038048; stroke-width: 1.0;"/><text fill="#000000" font-family="sans-serif" font-size="11" lengthAdjust="spacingAndGlyphs" textLength="53" x="310.75" y="78.6792">PartyRole</text><text fill="#000000" font-family="sans-serif" font-size="11" font-style="italic" lengthAdjust="spacingAndGlyphs" textLength="92" x="367.75" y="78.6792">(PartyRoleCode)</text></a><!--class SystemPartyRole--><a target="_top" xlink:actuate="onRequest" xlink:href="../SystemPartyRole.html" xlink:show="new" xlink:title="Role played by a party in a system." xlink:type="simple"><rect fill="#FEFEEE" filter="url(#f6d2b1ya83yz5)" height="23.9688" id="SystemPartyRole" style="stroke: #A80036; stroke-width: 1.5;" width="110" x="323" y="166"/><rect fill="#FEFEEE" height="23.9688" style="stroke: #A80036; stroke-width: 1.5;" width="110" x="323" y="166"/><text fill="#000000" font-family="sans-serif" font-size="12" lengthAdjust="spacingAndGlyphs" textLength="104" x="326" y="182.1387">SystemPartyRole</text></a><!--class TransactionAdministrator--><a target="_top" xlink:actuate="onRequest" xlink:href="../TransactionAdministrator.html" xlink:show="new" xlink:title="Set of integrated applications that provides centralised services such as clearing and settlement." xlink:type="simple"><rect fill="#FEFECE" filter="url(#f6d2b1ya83yz5)" height="44.7734" id="TransactionAdministrator" style="stroke: #A80036; stroke-width: 1.5;" width="170" x="290" y="268.5"/><rect fill="#FEFECE" height="23.9688" style="stroke: #A80036; stroke-width: 1.5;" width="170" x="290" y="268.5"/><text fill="#000000" font-family="sans-serif" font-size="12" lengthAdjust="spacingAndGlyphs" textLength="158" x="296" y="284.6387">TransactionAdministrator</text><line style="stroke: #A80036; stroke-width: 1.5;" x1="291" x2="459" y1="292.4688" y2="292.4688"/><ellipse cx="301" cy="304.3711" fill="#84BE84" rx="3" ry="3" style="stroke: #038048; stroke-width: 1.0;"/><text fill="#000000" font-family="sans-serif" font-size="11" lengthAdjust="spacingAndGlyphs" textLength="51" x="310" y="306.6792">Currency</text><text fill="#000000" font-family="sans-serif" font-size="11" font-style="italic" lengthAdjust="spacingAndGlyphs" textLength="89" x="365" y="306.6792">(CurrencyCode)</text></a><!--class RolePlayer--><a target="_top" xlink:actuate="onRequest" xlink:href="../RolePlayer.html" xlink:show="new" xlink:title="Type of entity that plays a specific role in a specific context." xlink:type="simple"><rect fill="#EEEEEE" filter="url(#f6d2b1ya83yz5)" height="23.9688" id="RolePlayer" style="stroke: #A80036; stroke-width: 1.5;" width="71" x="787.75" y="498"/><rect fill="#EEEEEE" height="23.9688" style="stroke: #A80036; stroke-width: 1.5;" width="71" x="787.75" y="498"/><text fill="#000000" font-family="sans-serif" font-size="12" lengthAdjust="spacingAndGlyphs" textLength="65" x="790.75" y="514.1387">RolePlayer</text></a><!--class ContactPersonRole--><a target="_top" xlink:actuate="onRequest" xlink:href="../ContactPersonRole.html" xlink:show="new" xlink:title="Person to be contacted in a given organisation. In the corporate action domain (including meeting notifications) , it is the contact person at the party organising the meeting, at the issuer or at an intermediary." xlink:type="simple"><rect fill="#EEEEEE" filter="url(#f6d2b1ya83yz5)" height="23.9688" id="ContactPersonRole" style="stroke: #A80036; stroke-width: 1.5;" width="126" x="780" y="396"/><rect fill="#EEEEEE" height="23.9688" style="stroke: #A80036; stroke-width: 1.5;" width="126" x="780" y="396"/><text fill="#000000" font-family="sans-serif" font-size="12" lengthAdjust="spacingAndGlyphs" textLength="120" x="783" y="412.1387">ContactPersonRole</text></a><!--class CounterpartyRisk--><a target="_top" xlink:actuate="onRequest" xlink:href="../CounterpartyRisk.html" xlink:show="new" xlink:title="Calculation of the exposure amount that one party has vis-a-vis one counterparty or a central system, based on its credit risk." xlink:type="simple"><rect fill="#EEEEEE" filter="url(#f6d2b1ya83yz5)" height="23.9688" id="CounterpartyRisk" style="stroke: #A80036; stroke-width: 1.5;" width="113" x="792.75" y="279"/><rect fill="#EEEEEE" height="23.9688" style="stroke: #A80036; stroke-width: 1.5;" width="113" x="792.75" y="279"/><text fill="#000000" font-family="sans-serif" font-size="12" lengthAdjust="spacingAndGlyphs" textLength="107" x="795.75" y="295.1387">CounterpartyRisk</text></a><!--class Entry--><a target="_top" xlink:actuate="onRequest" xlink:href="../Entry.html" xlink:show="new" xlink:title="Posting to an account that results in an increase or decrease to a balance." xlink:type="simple"><rect fill="#EEEEEE" filter="url(#f6d2b1ya83yz5)" height="23.9688" id="Entry" style="stroke: #A80036; stroke-width: 1.5;" width="38" x="780" y="166"/><rect fill="#EEEEEE" height="23.9688" style="stroke: #A80036; stroke-width: 1.5;" width="38" x="780" y="166"/><text fill="#000000" font-family="sans-serif" font-size="12" lengthAdjust="spacingAndGlyphs" textLength="32" x="783" y="182.1387">Entry</text></a><!--class System--><a target="_top" xlink:actuate="onRequest" xlink:href="../System.html" xlink:show="new" xlink:title="Set of integrated applications that provides centralised services such as clearing, netting, reconciliation, trading and/or settlement." xlink:type="simple"><rect fill="#EEEEEE" filter="url(#f6d2b1ya83yz5)" height="23.9688" id="System" style="stroke: #A80036; stroke-width: 1.5;" width="51" x="522.75" y="279"/><rect fill="#EEEEEE" height="23.9688" style="stroke: #A80036; stroke-width: 1.5;" width="51" x="522.75" y="279"/><text fill="#000000" font-family="sans-serif" font-size="12" lengthAdjust="spacingAndGlyphs" textLength="45" x="525.75" y="295.1387">System</text></a><!--class CashClearingSystem--><a target="_top" xlink:actuate="onRequest" xlink:href="../CashClearingSystem.html" xlink:show="new" xlink:title="Clearing system that processes only cash transfers." xlink:type="simple"><rect fill="#EEEEEE" filter="url(#f6d2b1ya83yz5)" height="23.9688" id="CashClearingSystem" style="stroke: #A80036; stroke-width: 1.5;" width="133" x="248.75" y="672"/><rect fill="#EEEEEE" height="23.9688" style="stroke: #A80036; stroke-width: 1.5;" width="133" x="248.75" y="672"/><text fill="#000000" font-family="sans-serif" font-size="12" lengthAdjust="spacingAndGlyphs" textLength="127" x="251.75" y="688.1387">CashClearingSystem</text></a><!--class CurrencyExchange--><a target="_top" xlink:actuate="onRequest" xlink:href="../CurrencyExchange.html" xlink:show="new" xlink:title="Information needed to process a currency exchange or conversion." xlink:type="simple"><rect fill="#EEEEEE" filter="url(#f6d2b1ya83yz5)" height="23.9688" id="CurrencyExchange" style="stroke: #A80036; stroke-width: 1.5;" width="122" x="254" y="586"/><rect fill="#EEEEEE" height="23.9688" style="stroke: #A80036; stroke-width: 1.5;" width="122" x="254" y="586"/><text fill="#000000" font-family="sans-serif" font-size="12" lengthAdjust="spacingAndGlyphs" textLength="116" x="257" y="602.1387">CurrencyExchange</text></a><!--class CashManagementService--><a target="_top" xlink:actuate="onRequest" xlink:href="../CashManagementService.html" xlink:show="new" xlink:title="Set of applications that provides services which facilitate the management of cash positions on an account." xlink:type="simple"><rect fill="#EEEEEE" filter="url(#f6d2b1ya83yz5)" height="23.9688" id="CashManagementService" style="stroke: #A80036; stroke-width: 1.5;" width="164" x="248" y="498"/><rect fill="#EEEEEE" height="23.9688" style="stroke: #A80036; stroke-width: 1.5;" width="164" x="248" y="498"/><text fill="#000000" font-family="sans-serif" font-size="12" lengthAdjust="spacingAndGlyphs" textLength="158" x="251" y="514.1387">CashManagementService</text></a><!--class CashSettlement--><a target="_top" xlink:actuate="onRequest" xlink:href="../CashSettlement.html" xlink:show="new" xlink:title="Instruction between two financial institutions stipulating the cash transfer characteristics between the two parties." xlink:type="simple"><rect fill="#EEEEEE" filter="url(#f6d2b1ya83yz5)" height="23.9688" id="CashSettlement" style="stroke: #A80036; stroke-width: 1.5;" width="106" x="248.5" y="396"/><rect fill="#EEEEEE" height="23.9688" style="stroke: #A80036; stroke-width: 1.5;" width="106" x="248.5" y="396"/><text fill="#000000" font-family="sans-serif" font-size="12" lengthAdjust="spacingAndGlyphs" textLength="100" x="251.5" y="412.1387">CashSettlement</text></a><!--link Role to SystemPartyRole--><path d="M378,105.559 C378,127.159 378,151.898 378,165.865 " fill="none" id="Role-SystemPartyRole" style="stroke: #A80036; stroke-width: 1.0;"/><polygon fill="none" points="371,105.52,378,85.52,385,105.52,371,105.52" style="stroke: #A80036; stroke-width: 1.0;"/><!--link SystemPartyRole to TransactionAdministrator--><path d="M377.154,210.307 C376.653,228.842 376.031,251.853 375.584,268.376 " fill="none" id="SystemPartyRole-TransactionAdministrator" style="stroke: #A80036; stroke-width: 1.0;"/><polygon fill="none" points="370.163,209.852,377.701,190.049,384.158,210.231,370.163,209.852" style="stroke: #A80036; stroke-width: 1.0;"/><!--link ContactPersonRole to RolePlayer--><!--link CounterpartyRisk to ContactPersonRole--><!--link Entry to CounterpartyRisk--><!--link CurrencyExchange to CashClearingSystem--><!--link CashManagementService to CurrencyExchange--><!--link CashSettlement to CashManagementService--><!--link Role to RolePlayer--><path d="M465.467,66.182 C542.996,73.338 644,97.849 644,177 C644,177 644,177 644,409 C644,472.107 729.842,495.766 782.634,504.35 " fill="none" id="Role-RolePlayer" style="stroke: #A80036; stroke-width: 1.0;"/><polygon fill="#A80036" points="787.635,505.134,779.3632,499.7883,782.6953,504.3595,778.1241,507.6917,787.635,505.134" style="stroke: #A80036; stroke-width: 1.0;"/><text fill="#000000" font-family="sans-serif" font-size="13" lengthAdjust="spacingAndGlyphs" textLength="39" x="645" y="295.0669">Player</text><text fill="#000000" font-family="sans-serif" font-size="13" lengthAdjust="spacingAndGlyphs" textLength="7" x="772.7402" y="498.9177">*</text><!--link Role to ContactPersonRole--><path d="M465.433,70.328 C539.745,77.339 639.146,91.099 670,116 C715.601,152.803 694.728,185.13 720,238 C741.875,283.764 744.689,297.329 775,338 C790.342,358.585 811.565,379.155 826.201,392.408 " fill="none" id="Role-ContactPersonRole" style="stroke: #A80036; stroke-width: 1.0;"/><polygon fill="#A80036" points="830.144,395.946,826.1159,386.9585,826.4222,392.6071,820.7737,392.9134,830.144,395.946" style="stroke: #A80036; stroke-width: 1.0;"/><text fill="#000000" font-family="sans-serif" font-size="13" lengthAdjust="spacingAndGlyphs" textLength="121" x="721" y="233.0669">ContactPersonRole</text><text fill="#000000" font-family="sans-serif" font-size="13" lengthAdjust="spacingAndGlyphs" textLength="8" x="815.006" y="384.9757">1</text><!--link Role to CounterpartyRisk--><path d="M465.572,66.183 C576.213,70.329 759.184,82.217 817,116 C867.033,145.235 870.598,180.552 863,238 C861.392,250.155 857.758,263.502 854.595,273.631 " fill="none" id="Role-CounterpartyRisk" style="stroke: #A80036; stroke-width: 1.0;"/><polygon fill="#A80036" points="852.997,278.611,859.5552,271.2632,854.5245,273.85,851.9376,268.8193,852.997,278.611" style="stroke: #A80036; stroke-width: 1.0;"/><text fill="#000000" font-family="sans-serif" font-size="13" lengthAdjust="spacingAndGlyphs" textLength="109" x="866" y="182.0669">CounterpartyRisk</text><text fill="#000000" font-family="sans-serif" font-size="13" lengthAdjust="spacingAndGlyphs" textLength="24" x="825.0476" y="268.0457">0..1</text><!--link Role to Entry--><path d="M465.301,68.404 C560.517,74.539 705.682,88.197 753,116 C770.878,126.504 784.075,146.927 791.641,161.237 " fill="none" id="Role-Entry" style="stroke: #A80036; stroke-width: 1.0;"/><polygon fill="#A80036" points="793.989,165.832,793.4538,155.9977,791.713,161.38,786.3307,159.6393,793.989,165.832" style="stroke: #A80036; stroke-width: 1.0;"/><text fill="#000000" font-family="sans-serif" font-size="13" lengthAdjust="spacingAndGlyphs" textLength="33" x="774" y="129.0669">Entry</text><text fill="#000000" font-family="sans-serif" font-size="13" lengthAdjust="spacingAndGlyphs" textLength="8" x="781.5477" y="154.8225">1</text><!--link SystemPartyRole to System--><path d="M394.922,190.049 C426.107,210.411 492.575,253.811 526.746,276.122 " fill="none" id="SystemPartyRole-System" style="stroke: #A80036; stroke-width: 1.0;"/><polygon fill="#A80036" points="531.147,278.996,525.7998,270.7251,526.961,276.2615,521.4246,277.4227,531.147,278.996" style="stroke: #A80036; stroke-width: 1.0;"/><text fill="#000000" font-family="sans-serif" font-size="13" lengthAdjust="spacingAndGlyphs" textLength="97" x="470" y="233.0669">RelatedSystem</text><text fill="#000000" font-family="sans-serif" font-size="13" lengthAdjust="spacingAndGlyphs" textLength="23" x="496.971" y="268.0428">1..*</text><!--link TransactionAdministrator to CashClearingSystem--><path d="M289.881,301.312 C180.906,315.647 6,347.867 6,407 C6,407 6,407 6,599 C6,647.9687 152.332,669.3202 243.596,677.8748 " fill="none" id="TransactionAdministrator-CashClearingSystem" style="stroke: #A80036; stroke-width: 1.0;"/><polygon fill="#A80036" points="248.712,678.3464,240.1182,673.5354,243.7332,677.8864,239.3822,681.5014,248.712,678.3464" style="stroke: #A80036; stroke-width: 1.0;"/><text fill="#000000" font-family="sans-serif" font-size="13" lengthAdjust="spacingAndGlyphs" textLength="133" x="7" y="514.0669">CashClearingSystem</text><text fill="#000000" font-family="sans-serif" font-size="13" lengthAdjust="spacingAndGlyphs" textLength="8" x="232.67" y="673.0281">1</text><!--link TransactionAdministrator to CurrencyExchange--><path d="M299.71,313.605 C280.415,321.611 260.701,332.212 245,346 C228.352,360.62 200.88,411.498 192,450 C181.688,494.714 198.996,512.171 230,546 C244.774,562.119 265.82,574.801 283.274,583.486 " fill="none" id="TransactionAdministrator-CurrencyExchange" style="stroke: #A80036; stroke-width: 1.0;"/><polygon fill="#A80036" points="288.093,585.83,281.7489,578.2966,283.5966,583.6432,278.25,585.4909,288.093,585.83" style="stroke: #A80036; stroke-width: 1.0;"/><text fill="#000000" font-family="sans-serif" font-size="13" lengthAdjust="spacingAndGlyphs" textLength="119" x="193" y="463.0669">CurrencyExchange</text><text fill="#000000" font-family="sans-serif" font-size="13" lengthAdjust="spacingAndGlyphs" textLength="7" x="269.2968" y="574.8198">*</text><!--link TransactionAdministrator to CashManagementService--><path d="M390.335,313.604 C398.497,327.673 406.086,346.584 402,364 C390.105,414.699 357.713,467.965 340.725,493.525 " fill="none" id="TransactionAdministrator-CashManagementService" style="stroke: #A80036; stroke-width: 1.0;"/><polygon fill="#A80036" points="337.938,497.677,346.2743,492.4324,340.724,493.5251,339.6313,487.9748,337.938,497.677" style="stroke: #A80036; stroke-width: 1.0;"/><text fill="#000000" font-family="sans-serif" font-size="13" lengthAdjust="spacingAndGlyphs" textLength="164" x="401" y="412.0669">CashManagementService</text><text fill="#000000" font-family="sans-serif" font-size="13" lengthAdjust="spacingAndGlyphs" textLength="7" x="331.0768" y="486.8734">*</text><!--link TransactionAdministrator to CashSettlement--><path d="M294.174,313.517 C279.06,321.28 265.155,331.792 256,346 C245.289,362.623 262.656,380.748 278.83,392.885 " fill="none" id="TransactionAdministrator-CashSettlement" style="stroke: #A80036; stroke-width: 1.0;"/><polygon fill="#A80036" points="282.898,395.837,277.9615,387.3146,278.8507,392.9012,273.2641,393.7903,282.898,395.837" style="stroke: #A80036; stroke-width: 1.0;"/><text fill="#000000" font-family="sans-serif" font-size="13" lengthAdjust="spacingAndGlyphs" textLength="139" x="257" y="359.0669">SettlementInstruction</text><text fill="#000000" font-family="sans-serif" font-size="13" lengthAdjust="spacingAndGlyphs" textLength="7" x="266.9567" y="384.8292">*</text></g></svg>