<?xml version="1.0" encoding="UTF-8" standalone="no"?><svg xmlns="http://www.w3.org/2000/svg" xmlns:xlink="http://www.w3.org/1999/xlink" contentScriptType="application/ecmascript" contentStyleType="text/css" height="1064px" preserveAspectRatio="none" style="width:2613px;height:1064px;" version="1.1" viewBox="0 0 2613 1064" width="2613px" zoomAndPan="magnify"><defs><filter height="300%" id="f1bcw8tqj4jsyw" width="300%" x="-1" y="-1"><feGaussianBlur result="blurOut" stdDeviation="2.0"/><feColorMatrix in="blurOut" result="blurOut2" type="matrix" values="0 0 0 0 0 0 0 0 0 0 0 0 0 0 0 0 0 0 .4 0"/><feOffset dx="4.0" dy="4.0" in="blurOut2" result="blurOut3"/><feBlend in="SourceGraphic" in2="blurOut3" mode="normal"/></filter></defs><g><!--cluster ##1095--><!--cluster ##1110--><!--cluster ##1141--><!--class Trade--><a target="_top" xlink:actuate="onRequest" xlink:href="../Trade.html" xlink:show="new" xlink:title="Result of an order between at least two parties. A trade relates to the delivery of goods and services, cash or securities." xlink:type="simple"><rect fill="#FEFEEE" filter="url(#f1bcw8tqj4jsyw)" height="134.4063" id="Trade" style="stroke: #A80036; stroke-width: 1.5;" width="249" x="1444.75" y="40"/><rect fill="#FEFEEE" height="23.9688" style="stroke: #A80036; stroke-width: 1.5;" width="249" x="1444.75" y="40"/><text fill="#000000" font-family="sans-serif" font-size="12" lengthAdjust="spacingAndGlyphs" textLength="36" x="1551.25" y="56.1387">Trade</text><line style="stroke: #A80036; stroke-width: 1.5;" x1="1445.75" x2="1692.75" y1="63.9688" y2="63.9688"/><ellipse cx="1455.75" cy="75.8711" fill="#84BE84" rx="3" ry="3" style="stroke: #038048; stroke-width: 1.0;"/><text fill="#000000" font-family="sans-serif" font-size="11" lengthAdjust="spacingAndGlyphs" textLength="87" x="1464.75" y="78.1792">TradeDateTime</text><text fill="#000000" font-family="sans-serif" font-size="11" font-style="italic" lengthAdjust="spacingAndGlyphs" textLength="81" x="1555.75" y="78.1792">(ISODateTime)</text><ellipse cx="1455.75" cy="88.6758" fill="#84BE84" rx="3" ry="3" style="stroke: #038048; stroke-width: 1.0;"/><text fill="#000000" font-family="sans-serif" font-size="11" lengthAdjust="spacingAndGlyphs" textLength="57" x="1464.75" y="90.9839">ValueDate</text><text fill="#000000" font-family="sans-serif" font-size="11" font-style="italic" lengthAdjust="spacingAndGlyphs" textLength="53" x="1525.75" y="90.9839">(ISODate)</text><ellipse cx="1455.75" cy="101.4805" fill="#84BE84" rx="3" ry="3" style="stroke: #038048; stroke-width: 1.0;"/><text fill="#000000" font-family="sans-serif" font-size="11" lengthAdjust="spacingAndGlyphs" textLength="47" x="1464.75" y="103.7886">EndDate</text><text fill="#000000" font-family="sans-serif" font-size="11" font-style="italic" lengthAdjust="spacingAndGlyphs" textLength="81" x="1515.75" y="103.7886">(ISODateTime)</text><ellipse cx="1455.75" cy="114.2852" fill="#84BE84" rx="3" ry="3" style="stroke: #038048; stroke-width: 1.0;"/><text fill="#000000" font-family="sans-serif" font-size="11" lengthAdjust="spacingAndGlyphs" textLength="103" x="1464.75" y="116.5933">AllocationIndicator</text><text fill="#000000" font-family="sans-serif" font-size="11" font-style="italic" lengthAdjust="spacingAndGlyphs" textLength="70" x="1571.75" y="116.5933">(Max35Text)</text><ellipse cx="1455.75" cy="127.0898" fill="#84BE84" rx="3" ry="3" style="stroke: #038048; stroke-width: 1.0;"/><text fill="#000000" font-family="sans-serif" font-size="11" lengthAdjust="spacingAndGlyphs" textLength="119" x="1464.75" y="129.3979">CollateralisationType</text><text fill="#000000" font-family="sans-serif" font-size="11" font-style="italic" lengthAdjust="spacingAndGlyphs" textLength="70" x="1587.75" y="129.3979">(Max35Text)</text><ellipse cx="1455.75" cy="139.8945" fill="#84BE84" rx="3" ry="3" style="stroke: #038048; stroke-width: 1.0;"/><text fill="#000000" font-family="sans-serif" font-size="11" lengthAdjust="spacingAndGlyphs" textLength="79" x="1464.75" y="142.2026">BlockIndicator</text><text fill="#000000" font-family="sans-serif" font-size="11" font-style="italic" lengthAdjust="spacingAndGlyphs" textLength="92" x="1547.75" y="142.2026">(YesNoIndicator)</text><ellipse cx="1455.75" cy="152.6992" fill="#84BE84" rx="3" ry="3" style="stroke: #038048; stroke-width: 1.0;"/><text fill="#000000" font-family="sans-serif" font-size="11" lengthAdjust="spacingAndGlyphs" textLength="102" x="1464.75" y="155.0073">SettlementNetting</text><text fill="#000000" font-family="sans-serif" font-size="11" font-style="italic" lengthAdjust="spacingAndGlyphs" textLength="117" x="1570.75" y="155.0073">(NettingEligibleCode)</text><ellipse cx="1455.75" cy="165.5039" fill="#84BE84" rx="3" ry="3" style="stroke: #038048; stroke-width: 1.0;"/><text fill="#000000" font-family="sans-serif" font-size="11" lengthAdjust="spacingAndGlyphs" textLength="54" x="1464.75" y="167.812">StartDate</text><text fill="#000000" font-family="sans-serif" font-size="11" font-style="italic" lengthAdjust="spacingAndGlyphs" textLength="81" x="1522.75" y="167.812">(ISODateTime)</text></a><!--class TreasuryTrade--><a target="_top" xlink:actuate="onRequest" xlink:href="../TreasuryTrade.html" xlink:show="new" xlink:title="Specifies trades linked to treasury operations such as the exchange of currencies, the lending of cash amounts and the related derivatives trades (options and non deliverable trades)." xlink:type="simple"><rect fill="#FEFECE" filter="url(#f1bcw8tqj4jsyw)" height="23.9688" id="TreasuryTrade" style="stroke: #A80036; stroke-width: 1.5;" width="96" x="1633" y="254"/><rect fill="#FEFECE" height="23.9688" style="stroke: #A80036; stroke-width: 1.5;" width="96" x="1633" y="254"/><text fill="#000000" font-family="sans-serif" font-size="12" lengthAdjust="spacingAndGlyphs" textLength="90" x="1636" y="270.1387">TreasuryTrade</text></a><!--class ForeignExchangeTrade--><a target="_top" xlink:actuate="onRequest" xlink:href="../ForeignExchangeTrade.html" xlink:show="new" xlink:title="Agreement between two parties in which one party buys a currency and the other party sells a different currency." xlink:type="simple"><rect fill="#FEFEEE" filter="url(#f1bcw8tqj4jsyw)" height="23.9688" id="ForeignExchangeTrade" style="stroke: #A80036; stroke-width: 1.5;" width="150" x="1542.5" y="360"/><rect fill="#FEFEEE" height="23.9688" style="stroke: #A80036; stroke-width: 1.5;" width="150" x="1542.5" y="360"/><text fill="#000000" font-family="sans-serif" font-size="12" lengthAdjust="spacingAndGlyphs" textLength="144" x="1545.5" y="376.1387">ForeignExchangeTrade</text></a><!--class ForeignExchangeSwap--><a target="_top" xlink:actuate="onRequest" xlink:href="../ForeignExchangeSwap.html" xlink:show="new" xlink:title="Combination of two foreign exchange trades, in opposite directions, for different value dates and for the same pair(s) of currencies." xlink:type="simple"><rect fill="#FEFEEE" filter="url(#f1bcw8tqj4jsyw)" height="23.9688" id="ForeignExchangeSwap" style="stroke: #A80036; stroke-width: 1.5;" width="147" x="1444.75" y="462"/><rect fill="#FEFEEE" height="23.9688" style="stroke: #A80036; stroke-width: 1.5;" width="147" x="1444.75" y="462"/><text fill="#000000" font-family="sans-serif" font-size="12" lengthAdjust="spacingAndGlyphs" textLength="141" x="1447.75" y="478.1387">ForeignExchangeSwap</text></a><!--class CurrencyOption--><a target="_top" xlink:actuate="onRequest" xlink:href="../CurrencyOption.html" xlink:show="new" xlink:title="Right to buy (call) or sell (put) an underlying amount in one currency against another amount in another currency at a predetermined exchange rate, within a specified period of time or at a specified date and time." xlink:type="simple"><rect fill="#FEFEEE" filter="url(#f1bcw8tqj4jsyw)" height="23.9688" id="CurrencyOption" style="stroke: #A80036; stroke-width: 1.5;" width="102" x="1627.5" y="462"/><rect fill="#FEFEEE" height="23.9688" style="stroke: #A80036; stroke-width: 1.5;" width="102" x="1627.5" y="462"/><text fill="#000000" font-family="sans-serif" font-size="12" lengthAdjust="spacingAndGlyphs" textLength="96" x="1630.5" y="478.1387">CurrencyOption</text></a><!--class Commission--><a target="_top" xlink:actuate="onRequest" xlink:href="../Commission.html" xlink:show="new" xlink:title="Amount of money due to a party as compensation for a service." xlink:type="simple"><rect fill="#EEEEEE" filter="url(#f1bcw8tqj4jsyw)" height="23.9688" id="Commission" style="stroke: #A80036; stroke-width: 1.5;" width="80" x="561" y="566"/><rect fill="#EEEEEE" height="23.9688" style="stroke: #A80036; stroke-width: 1.5;" width="80" x="561" y="566"/><text fill="#000000" font-family="sans-serif" font-size="12" lengthAdjust="spacingAndGlyphs" textLength="74" x="564" y="582.1387">Commission</text></a><!--class TradeIdentification--><a target="_top" xlink:actuate="onRequest" xlink:href="../TradeIdentification.html" xlink:show="new" xlink:title="Specifies the different identifications associated with a trade." xlink:type="simple"><rect fill="#EEEEEE" filter="url(#f1bcw8tqj4jsyw)" height="23.9688" id="TradeIdentification" style="stroke: #A80036; stroke-width: 1.5;" width="123" x="522.75" y="462"/><rect fill="#EEEEEE" height="23.9688" style="stroke: #A80036; stroke-width: 1.5;" width="123" x="522.75" y="462"/><text fill="#000000" font-family="sans-serif" font-size="12" lengthAdjust="spacingAndGlyphs" textLength="117" x="525.75" y="478.1387">TradeIdentification</text></a><!--class TradePartyRole--><a target="_top" xlink:actuate="onRequest" xlink:href="../TradePartyRole.html" xlink:show="new" xlink:title="Trading party in a commercial, securities, treasury trade. This role may also represent parties which play different intermediary roles in a trade." xlink:type="simple"><rect fill="#EEEEEE" filter="url(#f1bcw8tqj4jsyw)" height="23.9688" id="TradePartyRole" style="stroke: #A80036; stroke-width: 1.5;" width="101" x="544.75" y="360"/><rect fill="#EEEEEE" height="23.9688" style="stroke: #A80036; stroke-width: 1.5;" width="101" x="544.75" y="360"/><text fill="#000000" font-family="sans-serif" font-size="12" lengthAdjust="spacingAndGlyphs" textLength="95" x="547.75" y="376.1387">TradePartyRole</text></a><!--class Obligation--><a target="_top" xlink:actuate="onRequest" xlink:href="../Obligation.html" xlink:show="new" xlink:title="Specifies the assets (quantity of securities, goods, services, and cash amounts) that have to be delivered." xlink:type="simple"><rect fill="#EEEEEE" filter="url(#f1bcw8tqj4jsyw)" height="23.9688" id="Obligation" style="stroke: #A80036; stroke-width: 1.5;" width="69" x="349.75" y="254"/><rect fill="#EEEEEE" height="23.9688" style="stroke: #A80036; stroke-width: 1.5;" width="69" x="349.75" y="254"/><text fill="#000000" font-family="sans-serif" font-size="12" lengthAdjust="spacingAndGlyphs" textLength="63" x="352.75" y="270.1387">Obligation</text></a><!--class Negotiation--><a target="_top" xlink:actuate="onRequest" xlink:href="../Negotiation.html" xlink:show="new" xlink:title="Decision making on the transfer of a financial instrument." xlink:type="simple"><rect fill="#EEEEEE" filter="url(#f1bcw8tqj4jsyw)" height="23.9688" id="Negotiation" style="stroke: #A80036; stroke-width: 1.5;" width="79" x="228.75" y="95"/><rect fill="#EEEEEE" height="23.9688" style="stroke: #A80036; stroke-width: 1.5;" width="79" x="228.75" y="95"/><text fill="#000000" font-family="sans-serif" font-size="12" lengthAdjust="spacingAndGlyphs" textLength="73" x="231.75" y="111.1387">Negotiation</text></a><!--class MasterAgreement--><a target="_top" xlink:actuate="onRequest" xlink:href="../MasterAgreement.html" xlink:show="new" xlink:title="Agreement which defines the framework of a contract between two trading parties in different domains such as collateral, derivatives, trade.." xlink:type="simple"><rect fill="#EEEEEE" filter="url(#f1bcw8tqj4jsyw)" height="23.9688" id="MasterAgreement" style="stroke: #A80036; stroke-width: 1.5;" width="118" x="263" y="360"/><rect fill="#EEEEEE" height="23.9688" style="stroke: #A80036; stroke-width: 1.5;" width="118" x="263" y="360"/><text fill="#000000" font-family="sans-serif" font-size="12" lengthAdjust="spacingAndGlyphs" textLength="112" x="266" y="376.1387">MasterAgreement</text></a><!--class System--><a target="_top" xlink:actuate="onRequest" xlink:href="../System.html" xlink:show="new" xlink:title="Set of integrated applications that provides centralised services such as clearing, netting, reconciliation, trading and/or settlement." xlink:type="simple"><rect fill="#EEEEEE" filter="url(#f1bcw8tqj4jsyw)" height="23.9688" id="System" style="stroke: #A80036; stroke-width: 1.5;" width="51" x="263.75" y="254"/><rect fill="#EEEEEE" height="23.9688" style="stroke: #A80036; stroke-width: 1.5;" width="51" x="263.75" y="254"/><text fill="#000000" font-family="sans-serif" font-size="12" lengthAdjust="spacingAndGlyphs" textLength="45" x="266.75" y="270.1387">System</text></a><!--class Asset--><a target="_top" xlink:actuate="onRequest" xlink:href="../Asset.html" xlink:show="new" xlink:title="Tangible items of value to a business." xlink:type="simple"><rect fill="#EEEEEE" filter="url(#f1bcw8tqj4jsyw)" height="23.9688" id="Asset" style="stroke: #A80036; stroke-width: 1.5;" width="41" x="425.75" y="1030"/><rect fill="#EEEEEE" height="23.9688" style="stroke: #A80036; stroke-width: 1.5;" width="41" x="425.75" y="1030"/><text fill="#000000" font-family="sans-serif" font-size="12" lengthAdjust="spacingAndGlyphs" textLength="35" x="428.75" y="1046.1387">Asset</text></a><!--class Market--><a target="_top" xlink:actuate="onRequest" xlink:href="../Market.html" xlink:show="new" xlink:title="Context or geographic environment in which trading parties execute trades." xlink:type="simple"><rect fill="#EEEEEE" filter="url(#f1bcw8tqj4jsyw)" height="23.9688" id="Market" style="stroke: #A80036; stroke-width: 1.5;" width="49" x="465.75" y="944"/><rect fill="#EEEEEE" height="23.9688" style="stroke: #A80036; stroke-width: 1.5;" width="49" x="465.75" y="944"/><text fill="#000000" font-family="sans-serif" font-size="12" lengthAdjust="spacingAndGlyphs" textLength="43" x="468.75" y="960.1387">Market</text></a><!--class Guarantee--><a target="_top" xlink:actuate="onRequest" xlink:href="../Guarantee.html" xlink:show="new" xlink:title="Partial or full coverage of amounts by a party other than the debtor." xlink:type="simple"><rect fill="#EEEEEE" filter="url(#f1bcw8tqj4jsyw)" height="23.9688" id="Guarantee" style="stroke: #A80036; stroke-width: 1.5;" width="73" x="319.75" y="858"/><rect fill="#EEEEEE" height="23.9688" style="stroke: #A80036; stroke-width: 1.5;" width="73" x="319.75" y="858"/><text fill="#000000" font-family="sans-serif" font-size="12" lengthAdjust="spacingAndGlyphs" textLength="67" x="322.75" y="874.1387">Guarantee</text></a><!--class Settlement--><a target="_top" xlink:actuate="onRequest" xlink:href="../Settlement.html" xlink:show="new" xlink:title="Process which consists in transferring the proceeds related to a trade from one party to the next one." xlink:type="simple"><rect fill="#EEEEEE" filter="url(#f1bcw8tqj4jsyw)" height="23.9688" id="Settlement" style="stroke: #A80036; stroke-width: 1.5;" width="75" x="528.75" y="756"/><rect fill="#EEEEEE" height="23.9688" style="stroke: #A80036; stroke-width: 1.5;" width="75" x="528.75" y="756"/><text fill="#000000" font-family="sans-serif" font-size="12" lengthAdjust="spacingAndGlyphs" textLength="69" x="531.75" y="772.1387">Settlement</text></a><!--class Order--><a target="_top" xlink:actuate="onRequest" xlink:href="../Order.html" xlink:show="new" xlink:title="Order placed by an investor to buy or sell an asset at a price specified or not." xlink:type="simple"><rect fill="#EEEEEE" filter="url(#f1bcw8tqj4jsyw)" height="23.9688" id="Order" style="stroke: #A80036; stroke-width: 1.5;" width="41" x="545.75" y="668"/><rect fill="#EEEEEE" height="23.9688" style="stroke: #A80036; stroke-width: 1.5;" width="41" x="545.75" y="668"/><text fill="#000000" font-family="sans-serif" font-size="12" lengthAdjust="spacingAndGlyphs" textLength="35" x="548.75" y="684.1387">Order</text></a><!--class Leg--><a target="_top" xlink:actuate="onRequest" xlink:href="../Leg.html" xlink:show="new" xlink:title="Separate transactions which combined together form a trade." xlink:type="simple"><rect fill="#EEEEEE" filter="url(#f1bcw8tqj4jsyw)" height="23.9688" id="Leg" style="stroke: #A80036; stroke-width: 1.5;" width="28" x="257.5" y="566"/><rect fill="#EEEEEE" height="23.9688" style="stroke: #A80036; stroke-width: 1.5;" width="28" x="257.5" y="566"/><text fill="#000000" font-family="sans-serif" font-size="12" lengthAdjust="spacingAndGlyphs" textLength="22" x="260.5" y="582.1387">Leg</text></a><!--class FinancialTransaction--><a target="_top" xlink:actuate="onRequest" xlink:href="../FinancialTransaction.html" xlink:show="new" xlink:title="Process which includes the order, the execution, the settlement of trades in the financial domain." xlink:type="simple"><rect fill="#EEEEEE" filter="url(#f1bcw8tqj4jsyw)" height="23.9688" id="FinancialTransaction" style="stroke: #A80036; stroke-width: 1.5;" width="135" x="226.75" y="462"/><rect fill="#EEEEEE" height="23.9688" style="stroke: #A80036; stroke-width: 1.5;" width="135" x="226.75" y="462"/><text fill="#000000" font-family="sans-serif" font-size="12" lengthAdjust="spacingAndGlyphs" textLength="129" x="229.75" y="478.1387">FinancialTransaction</text></a><!--class Reconciliation--><a target="_top" xlink:actuate="onRequest" xlink:href="../Reconciliation.html" xlink:show="new" xlink:title="Process of matching different documents submitted by parties to a trade." xlink:type="simple"><rect fill="#EEEEEE" filter="url(#f1bcw8tqj4jsyw)" height="23.9688" id="Reconciliation" style="stroke: #A80036; stroke-width: 1.5;" width="93" x="416.75" y="360"/><rect fill="#EEEEEE" height="23.9688" style="stroke: #A80036; stroke-width: 1.5;" width="93" x="416.75" y="360"/><text fill="#000000" font-family="sans-serif" font-size="12" lengthAdjust="spacingAndGlyphs" textLength="87" x="419.75" y="376.1387">Reconciliation</text></a><!--class TreasuryTradeSettlementStatus--><a target="_top" xlink:actuate="onRequest" xlink:href="../TreasuryTradeSettlementStatus.html" xlink:show="new" xlink:title="Specifies the status of a treasury trade at a specified time." xlink:type="simple"><rect fill="#EEEEEE" filter="url(#f1bcw8tqj4jsyw)" height="23.9688" id="TreasuryTradeSettlementStatus" style="stroke: #A80036; stroke-width: 1.5;" width="206" x="2095" y="668"/><rect fill="#EEEEEE" height="23.9688" style="stroke: #A80036; stroke-width: 1.5;" width="206" x="2095" y="668"/><text fill="#000000" font-family="sans-serif" font-size="12" lengthAdjust="spacingAndGlyphs" textLength="200" x="2098" y="684.1387">TreasuryTradeSettlementStatus</text></a><!--class InformationPartyRole--><a target="_top" xlink:actuate="onRequest" xlink:href="../InformationPartyRole.html" xlink:show="new" xlink:title="Role played by a party as source of information." xlink:type="simple"><rect fill="#EEEEEE" filter="url(#f1bcw8tqj4jsyw)" height="23.9688" id="InformationPartyRole" style="stroke: #A80036; stroke-width: 1.5;" width="136" x="2130" y="566"/><rect fill="#EEEEEE" height="23.9688" style="stroke: #A80036; stroke-width: 1.5;" width="136" x="2130" y="566"/><text fill="#000000" font-family="sans-serif" font-size="12" lengthAdjust="spacingAndGlyphs" textLength="130" x="2133" y="582.1387">InformationPartyRole</text></a><!--class TreasurySettlementPartyRole--><a target="_top" xlink:actuate="onRequest" xlink:href="../TreasurySettlementPartyRole.html" xlink:show="new" xlink:title="Role played by a party in the context of the settlement of a treasury trade." xlink:type="simple"><rect fill="#EEEEEE" filter="url(#f1bcw8tqj4jsyw)" height="23.9688" id="TreasurySettlementPartyRole" style="stroke: #A80036; stroke-width: 1.5;" width="188" x="2113" y="462"/><rect fill="#EEEEEE" height="23.9688" style="stroke: #A80036; stroke-width: 1.5;" width="188" x="2113" y="462"/><text fill="#000000" font-family="sans-serif" font-size="12" lengthAdjust="spacingAndGlyphs" textLength="182" x="2116" y="478.1387">TreasurySettlementPartyRole</text></a><!--class TreasuryTradePartyRole--><a target="_top" xlink:actuate="onRequest" xlink:href="../TreasuryTradePartyRole.html" xlink:show="new" xlink:title="Role played by a party in the context of a treasury trade." xlink:type="simple"><rect fill="#EEEEEE" filter="url(#f1bcw8tqj4jsyw)" height="23.9688" id="TreasuryTradePartyRole" style="stroke: #A80036; stroke-width: 1.5;" width="155" x="2095.75" y="360"/><rect fill="#EEEEEE" height="23.9688" style="stroke: #A80036; stroke-width: 1.5;" width="155" x="2095.75" y="360"/><text fill="#000000" font-family="sans-serif" font-size="12" lengthAdjust="spacingAndGlyphs" textLength="149" x="2098.75" y="376.1387">TreasuryTradePartyRole</text></a><!--link Trade to TreasuryTrade--><path d="M1627.94,190.617 C1645.87,215.751 1663.4,240.322 1673.14,253.983 " fill="none" id="Trade-TreasuryTrade" style="stroke: #A80036; stroke-width: 1.0;"/><polygon fill="none" points="1622.09,194.474,1616.17,174.127,1633.49,186.344,1622.09,194.474" style="stroke: #A80036; stroke-width: 1.0;"/><!--link TreasuryTrade to ForeignExchangeTrade--><path d="M1663.62,295.239 C1650.5,316.559 1633.2,344.669 1623.8,359.95 " fill="none" id="TreasuryTrade-ForeignExchangeTrade" style="stroke: #A80036; stroke-width: 1.0;"/><polygon fill="none" points="1657.71,291.494,1674.15,278.13,1669.63,298.832,1657.71,291.494" style="stroke: #A80036; stroke-width: 1.0;"/><!--link TreasuryTrade to ForeignExchangeSwap--><path d="M1613.18,280.857 C1581.32,290.865 1545.67,307.775 1524,336 C1495.01,373.77 1507.65,436.143 1514.57,461.623 " fill="none" id="TreasuryTrade-ForeignExchangeSwap" style="stroke: #A80036; stroke-width: 1.0;"/><polygon fill="none" points="1611.73,273.995,1632.87,275.353,1615.5,287.478,1611.73,273.995" style="stroke: #A80036; stroke-width: 1.0;"/><!--link TreasuryTrade to CurrencyOption--><path d="M1699.28,295.443 C1718.44,329.099 1743.17,386.33 1723,432 C1717.53,444.375 1706.28,454.625 1696.4,461.781 " fill="none" id="TreasuryTrade-CurrencyOption" style="stroke: #A80036; stroke-width: 1.0;"/><polygon fill="none" points="1693.22,298.948,1688.77,278.23,1705.17,291.652,1693.22,298.948" style="stroke: #A80036; stroke-width: 1.0;"/><!--link TradeIdentification to Commission--><!--link TradePartyRole to TradeIdentification--><!--link Obligation to TradePartyRole--><!--link Negotiation to Obligation--><!--link MasterAgreement to Negotiation--><!--link System to MasterAgreement--><!--link Asset to System--><!--link Market to Asset--><!--link Guarantee to Market--><!--link Settlement to Guarantee--><!--link Order to Settlement--><!--link Leg to Order--><!--link FinancialTransaction to Leg--><!--link Reconciliation to FinancialTransaction--><!--link InformationPartyRole to TreasuryTradeSettlementStatus--><!--link TreasurySettlementPartyRole to InformationPartyRole--><!--link TreasuryTradePartyRole to TreasurySettlementPartyRole--><!--link Trade to Commission--><path d="M1444.48,123.987 C1383.21,137.101 1311.45,160.897 1259,204 C1210.6,243.77 1243.6,292.48 1192,328 C1169.48,343.505 1157.29,328.481 1131,336 C925.119,394.887 697.035,521.352 624.485,563.222 " fill="none" id="Trade-Commission" style="stroke: #A80036; stroke-width: 1.0;"/><polygon fill="#A80036" points="619.933,565.856,629.7261,564.8099,624.2605,563.3515,625.7189,557.8859,619.933,565.856" style="stroke: #A80036; stroke-width: 1.0;"/><text fill="#000000" font-family="sans-serif" font-size="13" lengthAdjust="spacingAndGlyphs" textLength="115" x="1132" y="376.0669">TradeCommission</text><text fill="#000000" font-family="sans-serif" font-size="13" lengthAdjust="spacingAndGlyphs" textLength="7" x="616.8943" y="554.8547">*</text><!--link Trade to TradeIdentification--><path d="M1444.53,120.926 C1366.51,133.336 1266.26,157.442 1188,204 C1148.53,227.478 1157.09,255.904 1118,280 C1076.68,305.467 1059.06,294.7 1013,310 C862.367,360.036 686.38,430.908 615.721,459.885 " fill="none" id="Trade-TradeIdentification" style="stroke: #A80036; stroke-width: 1.0;"/><polygon fill="#A80036" points="610.818,461.898,620.6628,462.1811,615.4435,459.9995,617.6252,454.7803,610.818,461.898" style="stroke: #A80036; stroke-width: 1.0;"/><text fill="#000000" font-family="sans-serif" font-size="13" lengthAdjust="spacingAndGlyphs" textLength="172" x="1014" y="323.0669">TradeRelatedIdentifications</text><text fill="#000000" font-family="sans-serif" font-size="13" lengthAdjust="spacingAndGlyphs" textLength="7" x="610.4039" y="450.9112">*</text><!--link Trade to TradePartyRole--><path d="M1444.59,126.297 C1352.59,141.771 1225.06,167.329 1117,204 C995.765,245.14 979.16,289.696 857,328 C787.761,349.71 704.604,360.98 650.828,366.44 " fill="none" id="Trade-TradePartyRole" style="stroke: #A80036; stroke-width: 1.0;"/><polygon fill="#A80036" points="645.717,366.95,655.0701,370.0354,650.6922,366.4529,654.2747,362.075,645.717,366.95" style="stroke: #A80036; stroke-width: 1.0;"/><text fill="#000000" font-family="sans-serif" font-size="13" lengthAdjust="spacingAndGlyphs" textLength="96" x="1012" y="270.0669">TradePartyRole</text><text fill="#000000" font-family="sans-serif" font-size="13" lengthAdjust="spacingAndGlyphs" textLength="8" x="653.7168" y="361.0388">1</text><!--link Trade to Obligation--><path d="M1444.52,115.082 C1224.62,128.519 776.431,160.327 626,204 C608.821,208.987 606.896,216.124 590,222 C533.629,241.606 465.318,253.699 423.26,259.885 " fill="none" id="Trade-Obligation" style="stroke: #A80036; stroke-width: 1.0;"/><polygon fill="#A80036" points="418.263,260.61,427.7444,263.2752,423.2111,259.8915,426.5948,255.3582,418.263,260.61" style="stroke: #A80036; stroke-width: 1.0;"/><text fill="#000000" font-family="sans-serif" font-size="13" lengthAdjust="spacingAndGlyphs" textLength="64" x="627" y="217.0669">Obligation</text><text fill="#000000" font-family="sans-serif" font-size="13" lengthAdjust="spacingAndGlyphs" textLength="7" x="426.9379" y="253.4838">*</text><!--link Trade to Negotiation--><path d="M1444.52,107 C1163.7,107 491.485,107 312.443,107 " fill="none" id="Trade-Negotiation" style="stroke: #A80036; stroke-width: 1.0;"/><polygon fill="#A80036" points="307.291,107,316.291,111,312.291,107,316.291,103,307.291,107" style="stroke: #A80036; stroke-width: 1.0;"/><text fill="#000000" font-family="sans-serif" font-size="13" lengthAdjust="spacingAndGlyphs" textLength="122" x="814.25" y="99.0669">RelatedNegotiation</text><text fill="#000000" font-family="sans-serif" font-size="13" lengthAdjust="spacingAndGlyphs" textLength="24" x="315.7447" y="101.6727">0..1</text><!--link Trade to MasterAgreement--><path d="M1444.48,116.68 C1265.68,131.565 927.314,168.8 651,252 C573.303,275.395 563.393,307.057 485,328 C447.913,337.908 436.1,326.143 399,336 C380.48,340.921 360.832,349.92 346.019,357.56 " fill="none" id="Trade-MasterAgreement" style="stroke: #A80036; stroke-width: 1.0;"/><polygon fill="#A80036" points="341.584,359.882,351.4127,359.2526,346.0139,357.5635,347.7031,352.1647,341.584,359.882" style="stroke: #A80036; stroke-width: 1.0;"/><text fill="#000000" font-family="sans-serif" font-size="13" lengthAdjust="spacingAndGlyphs" textLength="132" x="652" y="270.0669">GoverningDocument</text><text fill="#000000" font-family="sans-serif" font-size="13" lengthAdjust="spacingAndGlyphs" textLength="24" x="318.8473" y="348.8897">0..1</text><!--link Trade to System--><path d="M1444.29,113.002 C1206.62,123.605 697.534,151.76 530,204 C514.422,208.858 513.353,216.472 498,222 C427.46,247.397 404.891,234.456 332,252 C327.858,252.997 323.526,254.16 319.273,255.374 " fill="none" id="Trade-System" style="stroke: #A80036; stroke-width: 1.0;"/><polygon fill="#A80036" points="314.334,256.814,324.094,258.134,319.134,255.414,321.854,250.454,314.334,256.814" style="stroke: #A80036; stroke-width: 1.0;"/><text fill="#000000" font-family="sans-serif" font-size="13" lengthAdjust="spacingAndGlyphs" textLength="49" x="531" y="217.0669">System</text><text fill="#000000" font-family="sans-serif" font-size="13" lengthAdjust="spacingAndGlyphs" textLength="8" x="322.8774" y="247.7097">1</text><!--link Trade to Asset--><path d="M1693.26,114.836 C1960.11,131.182 2564,177.806 2564,265 C2564,265 2564,265 2564,957 C2564,1012.0807 710.487,1037.618 471.312,1040.684 " fill="none" id="Trade-Asset" style="stroke: #A80036; stroke-width: 1.0;"/><polygon fill="#A80036" points="466.283,1040.7482,475.3326,1044.6347,471.2826,1040.6853,475.232,1036.6354,466.283,1040.7482" style="stroke: #A80036; stroke-width: 1.0;"/><text fill="#000000" font-family="sans-serif" font-size="13" lengthAdjust="spacingAndGlyphs" textLength="36" x="2565" y="633.0669">Asset</text><text fill="#000000" font-family="sans-serif" font-size="13" lengthAdjust="spacingAndGlyphs" textLength="23" x="474.7575" y="1034.2163">1..*</text><!--link Trade to Market--><path d="M1521.07,174.183 C1468.34,253.644 1391,392.898 1391,526 C1391,526 1391,526 1391,871 C1391,915.783 676.027,947.437 519.884,953.816 " fill="none" id="Trade-Market" style="stroke: #A80036; stroke-width: 1.0;"/><polygon fill="#A80036" points="514.567,954.032,523.7219,957.6636,519.5629,953.8291,523.3973,949.6701,514.567,954.032" style="stroke: #A80036; stroke-width: 1.0;"/><text fill="#000000" font-family="sans-serif" font-size="13" lengthAdjust="spacingAndGlyphs" textLength="44" x="1392" y="582.0669">Market</text><text fill="#000000" font-family="sans-serif" font-size="13" lengthAdjust="spacingAndGlyphs" textLength="8" x="522.8851" y="947.048">1</text><!--link Trade to Guarantee--><path d="M1444.61,116.392 C1167.68,135.361 516.965,181.628 419,204 C397.193,208.98 393.694,216.551 372,222 C269.453,247.758 227.642,199.262 136,252 C53.5611,299.442 6,326.885 6,422 C6,422 6,422 6,769 C6,832.496 221.659,857.925 314.408,865.925 " fill="none" id="Trade-Guarantee" style="stroke: #A80036; stroke-width: 1.0;"/><polygon fill="#A80036" points="319.534,866.36,310.9045,861.6133,314.5519,865.9372,310.228,869.5846,319.534,866.36" style="stroke: #A80036; stroke-width: 1.0;"/><text fill="#000000" font-family="sans-serif" font-size="13" lengthAdjust="spacingAndGlyphs" textLength="68" x="7" y="531.0669">Guarantee</text><text fill="#000000" font-family="sans-serif" font-size="13" lengthAdjust="spacingAndGlyphs" textLength="8" x="303.6248" y="860.4298">1</text><!--link Trade to Settlement--><path d="M1444.54,166.537 C1428.62,177.483 1413.53,189.969 1401,204 C1349.14,262.065 1263,448.15 1263,526 C1263,526 1263,526 1263,681 C1263,747.273 760.242,763.007 608.714,766.245 " fill="none" id="Trade-Settlement" style="stroke: #A80036; stroke-width: 1.0;"/><polygon fill="#A80036" points="603.474,766.355,612.5555,770.1664,608.4729,766.2507,612.3886,762.1681,603.474,766.355" style="stroke: #A80036; stroke-width: 1.0;"/><text fill="#000000" font-family="sans-serif" font-size="13" lengthAdjust="spacingAndGlyphs" textLength="72" x="1275" y="478.0669">Settlement</text><text fill="#000000" font-family="sans-serif" font-size="13" lengthAdjust="spacingAndGlyphs" textLength="8" x="611.9765" y="760.3464">1</text><!--link Trade to Order--><path d="M1444.68,137.331 C1404.13,151.895 1361.49,173.205 1330,204 C1267.79,264.838 1314.48,322.431 1253,384 C1051.61,585.669 690.292,658.412 591.54,675.03 " fill="none" id="Trade-Order" style="stroke: #A80036; stroke-width: 1.0;"/><polygon fill="#A80036" points="586.494,675.869,596.0274,678.3417,591.4265,675.0505,594.7178,670.4496,586.494,675.869" style="stroke: #A80036; stroke-width: 1.0;"/><text fill="#000000" font-family="sans-serif" font-size="13" lengthAdjust="spacingAndGlyphs" textLength="36" x="1220" y="427.0669">Order</text><text fill="#000000" font-family="sans-serif" font-size="13" lengthAdjust="spacingAndGlyphs" textLength="8" x="594.8279" y="667.6222">1</text><!--link Trade to Leg--><path d="M1444.73,116.635 C1175.24,135.667 553.713,181.331 460,204 C439.464,208.968 436.442,216.659 416,222 C363.357,235.755 216.981,219.967 173,252 C123.551,288.014 117.774,325.017 134,384 C155.174,460.97 223.112,532.269 254.641,562.175 " fill="none" id="Trade-Leg" style="stroke: #A80036; stroke-width: 1.0;"/><polygon fill="#A80036" points="258.66,565.95,254.8383,556.8728,255.0155,562.5269,249.3614,562.7041,258.66,565.95" style="stroke: #A80036; stroke-width: 1.0;"/><text fill="#000000" font-family="sans-serif" font-size="13" lengthAdjust="spacingAndGlyphs" textLength="23" x="135" y="376.0669">Leg</text><text fill="#000000" font-family="sans-serif" font-size="13" lengthAdjust="spacingAndGlyphs" textLength="7" x="244.6994" y="554.981">*</text><!--link Trade to FinancialTransaction--><path d="M1444.62,114.513 C1202.69,127.951 677.012,161.117 501,204 C480.472,209.001 477.392,216.471 457,222 C365.58,246.788 334.019,217.005 246,252 C199.825,270.359 146.242,281.591 164,328 C186.111,385.786 243.041,435.051 273.71,458.449 " fill="none" id="Trade-FinancialTransaction" style="stroke: #A80036; stroke-width: 1.0;"/><polygon fill="#A80036" points="278.037,461.711,273.2581,453.0992,274.0444,458.7012,268.4424,459.4874,278.037,461.711" style="stroke: #A80036; stroke-width: 1.0;"/><text fill="#000000" font-family="sans-serif" font-size="13" lengthAdjust="spacingAndGlyphs" textLength="129" x="165" y="323.0669">FinancialTransaction</text><text fill="#000000" font-family="sans-serif" font-size="13" lengthAdjust="spacingAndGlyphs" textLength="8" x="262.0102" y="450.9187">1</text><!--link Trade to Reconciliation--><path d="M1444.46,127.036 C1303.25,150.133 1066.93,193.38 869,252 C771.019,281.019 752.143,307.659 652,328 C597.445,339.081 580.468,320.499 527,336 C511.292,340.554 495.146,349.42 483.001,357.089 " fill="none" id="Trade-Reconciliation" style="stroke: #A80036; stroke-width: 1.0;"/><polygon fill="#A80036" points="478.715,359.85,488.4475,358.3407,482.9189,357.1431,484.1165,351.6145,478.715,359.85" style="stroke: #A80036; stroke-width: 1.0;"/><text fill="#000000" font-family="sans-serif" font-size="13" lengthAdjust="spacingAndGlyphs" textLength="87" x="870" y="270.0669">Reconciliation</text><text fill="#000000" font-family="sans-serif" font-size="13" lengthAdjust="spacingAndGlyphs" textLength="8" x="473.3123" y="348.8467">1</text><!--link TreasuryTrade to TreasuryTradeSettlementStatus--><path d="M1718.77,278.123 C1773.09,296.405 1871.18,338.528 1912,414 C1915.81,421.037 1914.72,424.478 1912,432 C1906.09,448.319 1892.91,445.681 1887,462 C1879.74,482.059 1876.1,491.664 1887,510 C1941.91,602.325 2066.83,647.363 2140.56,666.645 " fill="none" id="TreasuryTrade-TreasuryTradeSettlementStatus" style="stroke: #A80036; stroke-width: 1.0;"/><polygon fill="#A80036" points="2145.78,667.989,2138.0573,661.8768,2140.937,666.7457,2136.0681,669.6255,2145.78,667.989" style="stroke: #A80036; stroke-width: 1.0;"/><text fill="#000000" font-family="sans-serif" font-size="13" lengthAdjust="spacingAndGlyphs" textLength="205" x="1888" y="478.0669">TreasuryTradeSettlementStatus</text><text fill="#000000" font-family="sans-serif" font-size="13" lengthAdjust="spacingAndGlyphs" textLength="7" x="2118.2825" y="657.0334">*</text><!--link TreasuryTrade to InformationPartyRole--><path d="M1693.18,278.261 C1701.66,286.511 1712.86,298.271 1721,310 C1778.34,392.662 1743.91,453.287 1827,510 C1874.4,542.352 2030.95,561.82 2124.87,570.875 " fill="none" id="TreasuryTrade-InformationPartyRole" style="stroke: #A80036; stroke-width: 1.0;"/><polygon fill="#A80036" points="2129.85,571.351,2121.2811,566.4958,2124.8736,570.8654,2120.504,574.4579,2129.85,571.351" style="stroke: #A80036; stroke-width: 1.0;"/><text fill="#000000" font-family="sans-serif" font-size="13" lengthAdjust="spacingAndGlyphs" textLength="133" x="1769" y="427.0669">InformationPartyRole</text><text fill="#000000" font-family="sans-serif" font-size="13" lengthAdjust="spacingAndGlyphs" textLength="8" x="2114.1065" y="566.0289">1</text><!--link TreasuryTrade to TreasurySettlementPartyRole--><path d="M1729.02,268.979 C1862.8,274.992 2232.28,295.181 2267,336 C2299.07,373.702 2250.11,431.219 2223.01,458.136 " fill="none" id="TreasuryTrade-TreasurySettlementPartyRole" style="stroke: #A80036; stroke-width: 1.0;"/><polygon fill="#A80036" points="2219.19,461.88,2228.419,458.4412,2222.7625,458.3818,2222.8219,452.7252,2219.19,461.88" style="stroke: #A80036; stroke-width: 1.0;"/><text fill="#000000" font-family="sans-serif" font-size="13" lengthAdjust="spacingAndGlyphs" textLength="187" x="2279" y="376.0669">TreasurySettlementPartyRole</text><text fill="#000000" font-family="sans-serif" font-size="13" lengthAdjust="spacingAndGlyphs" textLength="7" x="2213.8334" y="450.887">*</text><!--link TreasuryTrade to TreasuryTradePartyRole--><path d="M1729.19,272.178 C1786.35,278.793 1884.28,291.628 1967,310 C2027.01,323.328 2095.12,344.776 2136.04,358.365 " fill="none" id="TreasuryTrade-TreasuryTradePartyRole" style="stroke: #A80036; stroke-width: 1.0;"/><polygon fill="#A80036" points="2140.9,359.983,2133.6328,353.3356,2136.158,358.3976,2131.0961,360.9228,2140.9,359.983" style="stroke: #A80036; stroke-width: 1.0;"/><text fill="#000000" font-family="sans-serif" font-size="13" lengthAdjust="spacingAndGlyphs" textLength="60" x="2037" y="323.0669">PartyRole</text><text fill="#000000" font-family="sans-serif" font-size="13" lengthAdjust="spacingAndGlyphs" textLength="7" x="2120.2328" y="349.0254">*</text><!--link ForeignExchangeTrade to ForeignExchangeSwap--><path d="M1570.88,384.133 C1554.64,390.319 1537.77,399.756 1527,414 C1517.81,426.15 1516.21,443.8 1516.51,456.628 " fill="none" id="ForeignExchangeTrade-ForeignExchangeSwap" style="stroke: #A80036; stroke-width: 1.0;"/><polygon fill="#A80036" points="1516.74,461.8,1520.3405,452.6329,1516.5202,456.8048,1512.3482,452.9845,1516.74,461.8" style="stroke: #A80036; stroke-width: 1.0;"/><text fill="#000000" font-family="sans-serif" font-size="13" lengthAdjust="spacingAndGlyphs" textLength="82" x="1528" y="427.0669">RelatedSwap</text><text fill="#000000" font-family="sans-serif" font-size="13" lengthAdjust="spacingAndGlyphs" textLength="24" x="1486.9336" y="451.0372">0..1</text><!--link ForeignExchangeTrade to CurrencyOption--><path d="M1616.35,384.238 C1616.13,396.741 1617.35,417.136 1626,432 C1632.43,443.04 1643.07,452.221 1653.06,459.077 " fill="none" id="ForeignExchangeTrade-CurrencyOption" style="stroke: #A80036; stroke-width: 1.0;"/><polygon fill="#A80036" points="1657.29,461.871,1651.9874,453.5714,1653.1188,459.114,1647.5762,460.2454,1657.29,461.871" style="stroke: #A80036; stroke-width: 1.0;"/><text fill="#000000" font-family="sans-serif" font-size="13" lengthAdjust="spacingAndGlyphs" textLength="90" x="1627" y="427.0669">RelatedOption</text><text fill="#000000" font-family="sans-serif" font-size="13" lengthAdjust="spacingAndGlyphs" textLength="24" x="1620.5303" y="450.8749">0..1</text><!--link Obligation to Obligation--><path d="M418.437,256.622 C436.569,255.104 453,258.23 453,266 C453,273.041 439.505,276.269 423.48,275.682 " fill="none" id="Obligation-Obligation" style="stroke: #A80036; stroke-width: 1.0;"/><polygon fill="#A80036" points="418.437,275.378,427.1794,279.9134,423.4279,275.6795,427.6618,271.9279,418.437,275.378" style="stroke: #A80036; stroke-width: 1.0;"/><text fill="#000000" font-family="sans-serif" font-size="13" lengthAdjust="spacingAndGlyphs" textLength="106" x="459" y="270.0669">ParentObligation</text><text fill="#000000" font-family="sans-serif" font-size="13" lengthAdjust="spacingAndGlyphs" textLength="8" x="426.7904" y="291.1549">1</text><!--link Negotiation to System--><path d="M265.676,119.238 C261.835,139.957 255.478,185.403 265,222 C267.496,231.593 272.653,241.316 277.55,249.084 " fill="none" id="Negotiation-System" style="stroke: #A80036; stroke-width: 1.0;"/><polygon fill="#A80036" points="280.539,253.65,278.9557,243.9292,277.8002,249.4668,272.2626,248.3113,280.539,253.65" style="stroke: #A80036; stroke-width: 1.0;"/><text fill="#000000" font-family="sans-serif" font-size="13" lengthAdjust="spacingAndGlyphs" textLength="96" x="266" y="217.0669">TradingSystem</text><text fill="#000000" font-family="sans-serif" font-size="13" lengthAdjust="spacingAndGlyphs" textLength="24" x="248.3472" y="242.8375">0..1</text><!--link System to Reconciliation--><path d="M307.621,278.13 C339.672,297.287 405.171,336.436 440.011,357.26 " fill="none" id="System-Reconciliation" style="stroke: #A80036; stroke-width: 1.0;"/><polygon fill="#A80036" points="444.513,359.95,438.8409,351.8985,440.2215,357.3842,434.7357,358.7648,444.513,359.95" style="stroke: #A80036; stroke-width: 1.0;"/><text fill="#000000" font-family="sans-serif" font-size="13" lengthAdjust="spacingAndGlyphs" textLength="87" x="388" y="323.0669">Reconciliation</text><text fill="#000000" font-family="sans-serif" font-size="13" lengthAdjust="spacingAndGlyphs" textLength="8" x="427.3534" y="348.981">1</text><!--link Asset to Leg--><path d="M425.495,1040.8971 C377.328,1039.4685 261,1028.6059 261,957 C261,679 261,679 261,679 C261,649.336 265.411,614.967 268.373,595.226 " fill="none" id="Asset-Leg" style="stroke: #A80036; stroke-width: 1.0;"/><polygon fill="#A80036" points="269.166,590.062,263.8467,598.3509,268.4073,595.0041,271.7541,599.5647,269.166,590.062" style="stroke: #A80036; stroke-width: 1.0;"/><text fill="#000000" font-family="sans-serif" font-size="13" lengthAdjust="spacingAndGlyphs" textLength="159" x="262" y="823.0669">LegAdditionalInformation</text><text fill="#000000" font-family="sans-serif" font-size="13" lengthAdjust="spacingAndGlyphs" textLength="7" x="258.347" y="610.2321">*</text></g></svg>