<?xml version="1.0" encoding="UTF-8" standalone="no"?><svg xmlns="http://www.w3.org/2000/svg" xmlns:xlink="http://www.w3.org/1999/xlink" contentScriptType="application/ecmascript" contentStyleType="text/css" height="500px" preserveAspectRatio="none" style="width:1174px;height:500px;" version="1.1" viewBox="0 0 1174 500" width="1174px" zoomAndPan="magnify"><defs><filter height="300%" id="fnihnv33cll4w" width="300%" x="-1" y="-1"><feGaussianBlur result="blurOut" stdDeviation="2.0"/><feColorMatrix in="blurOut" result="blurOut2" type="matrix" values="0 0 0 0 0 0 0 0 0 0 0 0 0 0 0 0 0 0 .4 0"/><feOffset dx="4.0" dy="4.0" in="blurOut2" result="blurOut3"/><feBlend in="SourceGraphic" in2="blurOut3" mode="normal"/></filter></defs><g><!--cluster ##4109--><!--cluster ##4118--><!--cluster ##4127--><!--cluster ##4132--><!--class Role--><a target="_top" xlink:actuate="onRequest" xlink:href="../Role.html" xlink:show="new" xlink:title="Role of a party in an activity." xlink:type="simple"><rect fill="#FEFEEE" filter="url(#fnihnv33cll4w)" height="44.7734" id="Role" style="stroke: #A80036; stroke-width: 1.5;" width="175" x="50.75" y="40.5"/><rect fill="#FEFEEE" height="23.9688" style="stroke: #A80036; stroke-width: 1.5;" width="175" x="50.75" y="40.5"/><text fill="#000000" font-family="sans-serif" font-size="12" lengthAdjust="spacingAndGlyphs" textLength="27" x="124.75" y="56.6387">Role</text><line style="stroke: #A80036; stroke-width: 1.5;" x1="51.75" x2="224.75" y1="64.4688" y2="64.4688"/><ellipse cx="61.75" cy="76.3711" fill="#84BE84" rx="3" ry="3" style="stroke: #038048; stroke-width: 1.0;"/><text fill="#000000" font-family="sans-serif" font-size="11" lengthAdjust="spacingAndGlyphs" textLength="53" x="70.75" y="78.6792">PartyRole</text><text fill="#000000" font-family="sans-serif" font-size="11" font-style="italic" lengthAdjust="spacingAndGlyphs" textLength="92" x="127.75" y="78.6792">(PartyRoleCode)</text></a><!--class SettlementPartyRole--><a target="_top" xlink:actuate="onRequest" xlink:href="../SettlementPartyRole.html" xlink:show="new" xlink:title="Role played by a party in a settlement process." xlink:type="simple"><rect fill="#FEFEEE" filter="url(#fnihnv33cll4w)" height="23.9688" id="SettlementPartyRole" style="stroke: #A80036; stroke-width: 1.5;" width="134" x="82" y="166"/><rect fill="#FEFEEE" height="23.9688" style="stroke: #A80036; stroke-width: 1.5;" width="134" x="82" y="166"/><text fill="#000000" font-family="sans-serif" font-size="12" lengthAdjust="spacingAndGlyphs" textLength="128" x="85" y="182.1387">SettlementPartyRole</text></a><!--class TreasurySettlementPartyRole--><a target="_top" xlink:actuate="onRequest" xlink:href="../TreasurySettlementPartyRole.html" xlink:show="new" xlink:title="Role played by a party in the context of the settlement of a treasury trade." xlink:type="simple"><rect fill="#FEFECE" filter="url(#fnihnv33cll4w)" height="23.9688" id="TreasurySettlementPartyRole" style="stroke: #A80036; stroke-width: 1.5;" width="188" x="38" y="270"/><rect fill="#FEFECE" height="23.9688" style="stroke: #A80036; stroke-width: 1.5;" width="188" x="38" y="270"/><text fill="#000000" font-family="sans-serif" font-size="12" lengthAdjust="spacingAndGlyphs" textLength="182" x="41" y="286.1387">TreasurySettlementPartyRole</text></a><!--class RolePlayer--><a target="_top" xlink:actuate="onRequest" xlink:href="../RolePlayer.html" xlink:show="new" xlink:title="Type of entity that plays a specific role in a specific context." xlink:type="simple"><rect fill="#EEEEEE" filter="url(#fnihnv33cll4w)" height="23.9688" id="RolePlayer" style="stroke: #A80036; stroke-width: 1.5;" width="71" x="749.75" y="466"/><rect fill="#EEEEEE" height="23.9688" style="stroke: #A80036; stroke-width: 1.5;" width="71" x="749.75" y="466"/><text fill="#000000" font-family="sans-serif" font-size="12" lengthAdjust="spacingAndGlyphs" textLength="65" x="752.75" y="482.1387">RolePlayer</text></a><!--class ContactPersonRole--><a target="_top" xlink:actuate="onRequest" xlink:href="../ContactPersonRole.html" xlink:show="new" xlink:title="Person to be contacted in a given organisation. In the corporate action domain (including meeting notifications) , it is the contact person at the party organising the meeting, at the issuer or at an intermediary." xlink:type="simple"><rect fill="#EEEEEE" filter="url(#fnihnv33cll4w)" height="23.9688" id="ContactPersonRole" style="stroke: #A80036; stroke-width: 1.5;" width="126" x="702" y="376"/><rect fill="#EEEEEE" height="23.9688" style="stroke: #A80036; stroke-width: 1.5;" width="126" x="702" y="376"/><text fill="#000000" font-family="sans-serif" font-size="12" lengthAdjust="spacingAndGlyphs" textLength="120" x="705" y="392.1387">ContactPersonRole</text></a><!--class CounterpartyRisk--><a target="_top" xlink:actuate="onRequest" xlink:href="../CounterpartyRisk.html" xlink:show="new" xlink:title="Calculation of the exposure amount that one party has vis-a-vis one counterparty or a central system, based on its credit risk." xlink:type="simple"><rect fill="#EEEEEE" filter="url(#fnihnv33cll4w)" height="23.9688" id="CounterpartyRisk" style="stroke: #A80036; stroke-width: 1.5;" width="113" x="714.75" y="270"/><rect fill="#EEEEEE" height="23.9688" style="stroke: #A80036; stroke-width: 1.5;" width="113" x="714.75" y="270"/><text fill="#000000" font-family="sans-serif" font-size="12" lengthAdjust="spacingAndGlyphs" textLength="107" x="717.75" y="286.1387">CounterpartyRisk</text></a><!--class Entry--><a target="_top" xlink:actuate="onRequest" xlink:href="../Entry.html" xlink:show="new" xlink:title="Posting to an account that results in an increase or decrease to a balance." xlink:type="simple"><rect fill="#EEEEEE" filter="url(#fnihnv33cll4w)" height="23.9688" id="Entry" style="stroke: #A80036; stroke-width: 1.5;" width="38" x="702" y="166"/><rect fill="#EEEEEE" height="23.9688" style="stroke: #A80036; stroke-width: 1.5;" width="38" x="702" y="166"/><text fill="#000000" font-family="sans-serif" font-size="12" lengthAdjust="spacingAndGlyphs" textLength="32" x="705" y="182.1387">Entry</text></a><!--class Account--><a target="_top" xlink:actuate="onRequest" xlink:href="../Account.html" xlink:show="new" xlink:title="Record of transactions in specific types of assets, maintained by a servicing party on behalf of one or more owning parties. Business relationship between an account servicer and one or more account owners." xlink:type="simple"><rect fill="#EEEEEE" filter="url(#fnihnv33cll4w)" height="23.9688" id="Account" style="stroke: #A80036; stroke-width: 1.5;" width="57" x="282.75" y="376"/><rect fill="#EEEEEE" height="23.9688" style="stroke: #A80036; stroke-width: 1.5;" width="57" x="282.75" y="376"/><text fill="#000000" font-family="sans-serif" font-size="12" lengthAdjust="spacingAndGlyphs" textLength="51" x="285.75" y="392.1387">Account</text></a><!--class Settlement--><a target="_top" xlink:actuate="onRequest" xlink:href="../Settlement.html" xlink:show="new" xlink:title="Process which consists in transferring the proceeds related to a trade from one party to the next one." xlink:type="simple"><rect fill="#EEEEEE" filter="url(#fnihnv33cll4w)" height="23.9688" id="Settlement" style="stroke: #A80036; stroke-width: 1.5;" width="75" x="281.75" y="270"/><rect fill="#EEEEEE" height="23.9688" style="stroke: #A80036; stroke-width: 1.5;" width="75" x="281.75" y="270"/><text fill="#000000" font-family="sans-serif" font-size="12" lengthAdjust="spacingAndGlyphs" textLength="69" x="284.75" y="286.1387">Settlement</text></a><!--class TreasuryTrade--><a target="_top" xlink:actuate="onRequest" xlink:href="../TreasuryTrade.html" xlink:show="new" xlink:title="Specifies trades linked to treasury operations such as the exchange of currencies, the lending of cash amounts and the related derivatives trades (options and non deliverable trades)." xlink:type="simple"><rect fill="#EEEEEE" filter="url(#fnihnv33cll4w)" height="23.9688" id="TreasuryTrade" style="stroke: #A80036; stroke-width: 1.5;" width="96" x="84" y="376"/><rect fill="#EEEEEE" height="23.9688" style="stroke: #A80036; stroke-width: 1.5;" width="96" x="84" y="376"/><text fill="#000000" font-family="sans-serif" font-size="12" lengthAdjust="spacingAndGlyphs" textLength="90" x="87" y="392.1387">TreasuryTrade</text></a><!--link Role to SettlementPartyRole--><path d="M142.046,105.559 C144.148,127.159 146.556,151.898 147.916,165.865 " fill="none" id="Role-SettlementPartyRole" style="stroke: #A80036; stroke-width: 1.0;"/><polygon fill="none" points="135.066,106.105,140.095,85.52,149,104.748,135.066,106.105" style="stroke: #A80036; stroke-width: 1.0;"/><!--link SettlementPartyRole to TreasurySettlementPartyRole--><path d="M143.789,210.267 C140.408,230.554 136.206,255.766 133.841,269.954 " fill="none" id="SettlementPartyRole-TreasurySettlementPartyRole" style="stroke: #A80036; stroke-width: 1.0;"/><polygon fill="none" points="136.923,208.883,147.116,190.306,150.732,211.184,136.923,208.883" style="stroke: #A80036; stroke-width: 1.0;"/><!--link ContactPersonRole to RolePlayer--><!--link CounterpartyRisk to ContactPersonRole--><!--link Entry to CounterpartyRisk--><!--link Settlement to Account--><!--link Role to RolePlayer--><path d="M225.323,64.943 C466.145,68.693 1122,87.153 1122,177 C1122,177 1122,177 1122,389 C1122,449.6217 915.27,469.2654 825.642,474.9332 " fill="none" id="Role-RolePlayer" style="stroke: #A80036; stroke-width: 1.0;"/><polygon fill="#A80036" points="820.428,475.2555,829.6577,478.6924,825.4185,474.9469,829.164,470.7077,820.428,475.2555" style="stroke: #A80036; stroke-width: 1.0;"/><text fill="#000000" font-family="sans-serif" font-size="13" lengthAdjust="spacingAndGlyphs" textLength="39" x="1123" y="286.0669">Player</text><text fill="#000000" font-family="sans-serif" font-size="13" lengthAdjust="spacingAndGlyphs" textLength="7" x="828.8888" y="468.8806">*</text><!--link Role to ContactPersonRole--><path d="M225.495,66.314 C416.249,72.287 856.002,91.45 899,142 C964.383,218.866 834.856,332.705 784.149,372.577 " fill="none" id="Role-ContactPersonRole" style="stroke: #A80036; stroke-width: 1.0;"/><polygon fill="#A80036" points="780.065,375.762,789.6211,373.3786,784.0068,372.686,784.6995,367.0717,780.065,375.762" style="stroke: #A80036; stroke-width: 1.0;"/><text fill="#000000" font-family="sans-serif" font-size="13" lengthAdjust="spacingAndGlyphs" textLength="121" x="912" y="233.0669">ContactPersonRole</text><text fill="#000000" font-family="sans-serif" font-size="13" lengthAdjust="spacingAndGlyphs" textLength="8" x="774.399" y="364.9866">1</text><!--link Role to CounterpartyRisk--><path d="M225.383,69.049 C387.216,79.252 720.509,104.587 757,142 C789.204,175.018 781.289,235.682 775.088,264.7 " fill="none" id="Role-CounterpartyRisk" style="stroke: #A80036; stroke-width: 1.0;"/><polygon fill="#A80036" points="773.96,269.737,779.8301,261.8287,775.0527,264.8579,772.0235,260.0804,773.96,269.737" style="stroke: #A80036; stroke-width: 1.0;"/><text fill="#000000" font-family="sans-serif" font-size="13" lengthAdjust="spacingAndGlyphs" textLength="109" x="780" y="182.0669">CounterpartyRisk</text><text fill="#000000" font-family="sans-serif" font-size="13" lengthAdjust="spacingAndGlyphs" textLength="24" x="745.5514" y="258.9533">0..1</text><!--link Role to Entry--><path d="M225.281,80.917 C361.423,107.305 616.999,156.842 696.657,172.282 " fill="none" id="Role-Entry" style="stroke: #A80036; stroke-width: 1.0;"/><polygon fill="#A80036" points="701.647,173.249,693.5726,167.6095,696.7384,172.2976,692.0503,175.4633,701.647,173.249" style="stroke: #A80036; stroke-width: 1.0;"/><text fill="#000000" font-family="sans-serif" font-size="13" lengthAdjust="spacingAndGlyphs" textLength="33" x="500" y="129.0669">Entry</text><text fill="#000000" font-family="sans-serif" font-size="13" lengthAdjust="spacingAndGlyphs" textLength="8" x="686.1021" y="165.7767">1</text><!--link SettlementPartyRole to Account--><path d="M216.156,188.878 C276.174,199.395 357.047,218.358 373,246 C388.996,273.715 384.452,288.12 373,318 C364.465,340.268 345.06,359.861 330.215,372.423 " fill="none" id="SettlementPartyRole-Account" style="stroke: #A80036; stroke-width: 1.0;"/><polygon fill="#A80036" points="326.162,375.777,335.6464,373.1226,330.0147,372.59,330.5472,366.9583,326.162,375.777" style="stroke: #A80036; stroke-width: 1.0;"/><text fill="#000000" font-family="sans-serif" font-size="13" lengthAdjust="spacingAndGlyphs" textLength="124" x="385" y="286.0669">SettlementAccount</text><text fill="#000000" font-family="sans-serif" font-size="13" lengthAdjust="spacingAndGlyphs" textLength="8" x="320.4453" y="365.0066">1</text><!--link SettlementPartyRole to Settlement--><path d="M167.517,190.11 C198.812,208.887 262.076,246.846 296.105,267.263 " fill="none" id="SettlementPartyRole-Settlement" style="stroke: #A80036; stroke-width: 1.0;"/><polygon fill="#A80036" points="300.506,269.904,294.8473,261.843,296.2188,267.3311,290.7307,268.7026,300.506,269.904" style="stroke: #A80036; stroke-width: 1.0;"/><text fill="#000000" font-family="sans-serif" font-size="13" lengthAdjust="spacingAndGlyphs" textLength="72" x="246" y="233.0669">Settlement</text><text fill="#000000" font-family="sans-serif" font-size="13" lengthAdjust="spacingAndGlyphs" textLength="8" x="283.344" y="258.9192">1</text><!--link TreasurySettlementPartyRole to TreasuryTrade--><path d="M132,294.13 C132,312.583 132,349.586 132,370.892 " fill="none" id="TreasurySettlementPartyRole-TreasuryTrade" style="stroke: #A80036; stroke-width: 1.0;"/><polygon fill="#A80036" points="132,375.95,136,366.95,132,370.95,128,366.95,132,375.95" style="stroke: #A80036; stroke-width: 1.0;"/><text fill="#000000" font-family="sans-serif" font-size="13" lengthAdjust="spacingAndGlyphs" textLength="91" x="133" y="339.0669">TreasuryTrade</text><text fill="#000000" font-family="sans-serif" font-size="13" lengthAdjust="spacingAndGlyphs" textLength="8" x="121.2813" y="364.981">1</text><!--link Entry to Account--><path d="M707.644,190.215 C676.447,215.939 595.614,279.898 519,318 C460.404,347.141 386.647,368.273 344.556,379.002 " fill="none" id="Entry-Account" style="stroke: #A80036; stroke-width: 1.0;"/><polygon fill="#A80036" points="339.583,380.259,349.2885,381.9332,344.4308,379.0346,347.3294,374.1768,339.583,380.259" style="stroke: #A80036; stroke-width: 1.0;"/><text fill="#000000" font-family="sans-serif" font-size="13" lengthAdjust="spacingAndGlyphs" textLength="52" x="637" y="286.0669">Account</text><text fill="#000000" font-family="sans-serif" font-size="13" lengthAdjust="spacingAndGlyphs" textLength="7" x="347.7402" y="372.1852">*</text><!--link Account to Account--><path d="M339.508,379.984 C357.181,378.051 374,380.723 374,388 C374,394.538 360.424,397.359 344.85,396.463 " fill="none" id="Account-Account" style="stroke: #A80036; stroke-width: 1.0;"/><polygon fill="#A80036" points="339.508,396.016,348.1443,400.7504,344.4907,396.4317,348.8094,392.7781,339.508,396.016" style="stroke: #A80036; stroke-width: 1.0;"/><text fill="#000000" font-family="sans-serif" font-size="13" lengthAdjust="spacingAndGlyphs" textLength="94" x="380" y="392.0669">ParentAccount</text><text fill="#000000" font-family="sans-serif" font-size="13" lengthAdjust="spacingAndGlyphs" textLength="8" x="347.7741" y="412.0799">1</text></g></svg>