<?xml version="1.0" encoding="UTF-8" standalone="no"?><svg xmlns="http://www.w3.org/2000/svg" xmlns:xlink="http://www.w3.org/1999/xlink" contentScriptType="application/ecmascript" contentStyleType="text/css" height="478px" preserveAspectRatio="none" style="width:814px;height:478px;" version="1.1" viewBox="0 0 814 478" width="814px" zoomAndPan="magnify"><defs><filter height="300%" id="ffb92ndza9h2k" width="300%" x="-1" y="-1"><feGaussianBlur result="blurOut" stdDeviation="2.0"/><feColorMatrix in="blurOut" result="blurOut2" type="matrix" values="0 0 0 0 0 0 0 0 0 0 0 0 0 0 0 0 0 0 .4 0"/><feOffset dx="4.0" dy="4.0" in="blurOut2" result="blurOut3"/><feBlend in="SourceGraphic" in2="blurOut3" mode="normal"/></filter></defs><g><!--cluster ##10990--><!--cluster ##10999--><!--cluster ##11008--><!--class Role--><a target="_top" xlink:actuate="onRequest" xlink:href="../Role.html" xlink:show="new" xlink:title="Role of a party in an activity." xlink:type="simple"><rect fill="#FEFEEE" filter="url(#ffb92ndza9h2k)" height="44.7734" id="Role" style="stroke: #A80036; stroke-width: 1.5;" width="175" x="54.75" y="40.5"/><rect fill="#FEFEEE" height="23.9688" style="stroke: #A80036; stroke-width: 1.5;" width="175" x="54.75" y="40.5"/><text fill="#000000" font-family="sans-serif" font-size="12" lengthAdjust="spacingAndGlyphs" textLength="27" x="128.75" y="56.6387">Role</text><line style="stroke: #A80036; stroke-width: 1.5;" x1="55.75" x2="228.75" y1="64.4688" y2="64.4688"/><ellipse cx="65.75" cy="76.3711" fill="#84BE84" rx="3" ry="3" style="stroke: #038048; stroke-width: 1.0;"/><text fill="#000000" font-family="sans-serif" font-size="11" lengthAdjust="spacingAndGlyphs" textLength="53" x="74.75" y="78.6792">PartyRole</text><text fill="#000000" font-family="sans-serif" font-size="11" font-style="italic" lengthAdjust="spacingAndGlyphs" textLength="92" x="131.75" y="78.6792">(PartyRoleCode)</text></a><!--class PaymentObligationPartyRole--><a target="_top" xlink:actuate="onRequest" xlink:href="../PaymentObligationPartyRole.html" xlink:show="new" xlink:title="Role played by a party in the context of a payment obligation." xlink:type="simple"><rect fill="#FEFEEE" filter="url(#ffb92ndza9h2k)" height="23.9688" id="PaymentObligationPartyRole" style="stroke: #A80036; stroke-width: 1.5;" width="182" x="48" y="166"/><rect fill="#FEFEEE" height="23.9688" style="stroke: #A80036; stroke-width: 1.5;" width="182" x="48" y="166"/><text fill="#000000" font-family="sans-serif" font-size="12" lengthAdjust="spacingAndGlyphs" textLength="176" x="51" y="182.1387">PaymentObligationPartyRole</text></a><!--class UltimateDebtorRole--><a target="_top" xlink:actuate="onRequest" xlink:href="../UltimateDebtorRole.html" xlink:show="new" xlink:title="Ultimate party that owes an amount of money to the (ultimate) creditor." xlink:type="simple"><rect fill="#FEFECE" filter="url(#ffb92ndza9h2k)" height="23.9688" id="UltimateDebtorRole" style="stroke: #A80036; stroke-width: 1.5;" width="128" x="75" y="270"/><rect fill="#FEFECE" height="23.9688" style="stroke: #A80036; stroke-width: 1.5;" width="128" x="75" y="270"/><text fill="#000000" font-family="sans-serif" font-size="12" lengthAdjust="spacingAndGlyphs" textLength="122" x="78" y="286.1387">UltimateDebtorRole</text></a><!--class RolePlayer--><a target="_top" xlink:actuate="onRequest" xlink:href="../RolePlayer.html" xlink:show="new" xlink:title="Type of entity that plays a specific role in a specific context." xlink:type="simple"><rect fill="#EEEEEE" filter="url(#ffb92ndza9h2k)" height="23.9688" id="RolePlayer" style="stroke: #A80036; stroke-width: 1.5;" width="71" x="623.75" y="444"/><rect fill="#EEEEEE" height="23.9688" style="stroke: #A80036; stroke-width: 1.5;" width="71" x="623.75" y="444"/><text fill="#000000" font-family="sans-serif" font-size="12" lengthAdjust="spacingAndGlyphs" textLength="65" x="626.75" y="460.1387">RolePlayer</text></a><!--class ContactPersonRole--><a target="_top" xlink:actuate="onRequest" xlink:href="../ContactPersonRole.html" xlink:show="new" xlink:title="Person to be contacted in a given organisation. In the corporate action domain (including meeting notifications) , it is the contact person at the party organising the meeting, at the issuer or at an intermediary." xlink:type="simple"><rect fill="#EEEEEE" filter="url(#ffb92ndza9h2k)" height="23.9688" id="ContactPersonRole" style="stroke: #A80036; stroke-width: 1.5;" width="126" x="616" y="358"/><rect fill="#EEEEEE" height="23.9688" style="stroke: #A80036; stroke-width: 1.5;" width="126" x="616" y="358"/><text fill="#000000" font-family="sans-serif" font-size="12" lengthAdjust="spacingAndGlyphs" textLength="120" x="619" y="374.1387">ContactPersonRole</text></a><!--class CounterpartyRisk--><a target="_top" xlink:actuate="onRequest" xlink:href="../CounterpartyRisk.html" xlink:show="new" xlink:title="Calculation of the exposure amount that one party has vis-a-vis one counterparty or a central system, based on its credit risk." xlink:type="simple"><rect fill="#EEEEEE" filter="url(#ffb92ndza9h2k)" height="23.9688" id="CounterpartyRisk" style="stroke: #A80036; stroke-width: 1.5;" width="113" x="628.75" y="270"/><rect fill="#EEEEEE" height="23.9688" style="stroke: #A80036; stroke-width: 1.5;" width="113" x="628.75" y="270"/><text fill="#000000" font-family="sans-serif" font-size="12" lengthAdjust="spacingAndGlyphs" textLength="107" x="631.75" y="286.1387">CounterpartyRisk</text></a><!--class Entry--><a target="_top" xlink:actuate="onRequest" xlink:href="../Entry.html" xlink:show="new" xlink:title="Posting to an account that results in an increase or decrease to a balance." xlink:type="simple"><rect fill="#EEEEEE" filter="url(#ffb92ndza9h2k)" height="23.9688" id="Entry" style="stroke: #A80036; stroke-width: 1.5;" width="38" x="616" y="166"/><rect fill="#EEEEEE" height="23.9688" style="stroke: #A80036; stroke-width: 1.5;" width="38" x="616" y="166"/><text fill="#000000" font-family="sans-serif" font-size="12" lengthAdjust="spacingAndGlyphs" textLength="32" x="619" y="182.1387">Entry</text></a><!--class PaymentObligation--><a target="_top" xlink:actuate="onRequest" xlink:href="../PaymentObligation.html" xlink:show="new" xlink:title="Obligation for the debtor to pay the creditor an amount of cash." xlink:type="simple"><rect fill="#EEEEEE" filter="url(#ffb92ndza9h2k)" height="23.9688" id="PaymentObligation" style="stroke: #A80036; stroke-width: 1.5;" width="123" x="286.75" y="270"/><rect fill="#EEEEEE" height="23.9688" style="stroke: #A80036; stroke-width: 1.5;" width="123" x="286.75" y="270"/><text fill="#000000" font-family="sans-serif" font-size="12" lengthAdjust="spacingAndGlyphs" textLength="117" x="289.75" y="286.1387">PaymentObligation</text></a><!--entity ##11011--><!--link Role to PaymentObligationPartyRole--><path d="M140.897,105.559 C140.323,127.159 139.666,151.898 139.296,165.865 " fill="none" id="Role-PaymentObligationPartyRole" style="stroke: #A80036; stroke-width: 1.0;"/><polygon fill="none" points="133.9,105.328,141.429,85.52,147.895,105.699,133.9,105.328" style="stroke: #A80036; stroke-width: 1.0;"/><!--link PaymentObligationPartyRole to UltimateDebtorRole--><path d="M139,210.595 C139,230.825 139,255.843 139,269.954 " fill="none" id="PaymentObligationPartyRole-UltimateDebtorRole" style="stroke: #A80036; stroke-width: 1.0;"/><polygon fill="none" points="132,210.306,139,190.306,146,210.305,132,210.306" style="stroke: #A80036; stroke-width: 1.0;"/><!--link ContactPersonRole to RolePlayer--><!--link CounterpartyRisk to ContactPersonRole--><!--link Entry to CounterpartyRisk--><!--link Role to RolePlayer--><path d="M229.483,75.674 C329.631,91.547 480,124.176 480,177 C480,177 480,177 480,371 C480,431.8572 565.842,448.7099 618.634,453.3199 " fill="none" id="Role-RolePlayer" style="stroke: #A80036; stroke-width: 1.0;"/><polygon fill="#A80036" points="623.635,453.7288,614.9919,449.0068,618.6517,453.3202,614.3382,456.98,623.635,453.7288" style="stroke: #A80036; stroke-width: 1.0;"/><text fill="#000000" font-family="sans-serif" font-size="13" lengthAdjust="spacingAndGlyphs" textLength="39" x="481" y="286.0669">Player</text><text fill="#000000" font-family="sans-serif" font-size="13" lengthAdjust="spacingAndGlyphs" textLength="7" x="608.7402" y="447.9585">*</text><!--link Role to ContactPersonRole--><path d="M229.413,66.667 C323.137,71.203 464.141,83.387 506,116 C552.226,152.015 528.131,186.452 556,238 C576.52,275.956 581.125,286.868 611,318 C624.704,332.281 642.714,345.597 656.757,355.039 " fill="none" id="Role-ContactPersonRole" style="stroke: #A80036; stroke-width: 1.0;"/><polygon fill="#A80036" points="660.978,357.842,655.6906,349.5328,656.8118,355.0774,651.2672,356.1987,660.978,357.842" style="stroke: #A80036; stroke-width: 1.0;"/><text fill="#000000" font-family="sans-serif" font-size="13" lengthAdjust="spacingAndGlyphs" textLength="121" x="557" y="233.0669">ContactPersonRole</text><text fill="#000000" font-family="sans-serif" font-size="13" lengthAdjust="spacingAndGlyphs" textLength="8" x="644.0642" y="346.8359">1</text><!--link Role to CounterpartyRisk--><path d="M229.328,64.431 C355.906,66.461 582.891,75.806 653,116 C683.995,133.77 698.713,218.295 699,220 C701.586,235.376 696.874,252.681 692.233,264.921 " fill="none" id="Role-CounterpartyRisk" style="stroke: #A80036; stroke-width: 1.0;"/><polygon fill="#A80036" points="690.27,269.837,697.322,262.9618,692.124,265.1934,689.8923,259.9954,690.27,269.837" style="stroke: #A80036; stroke-width: 1.0;"/><text fill="#000000" font-family="sans-serif" font-size="13" lengthAdjust="spacingAndGlyphs" textLength="109" x="693" y="182.0669">CounterpartyRisk</text><text fill="#000000" font-family="sans-serif" font-size="13" lengthAdjust="spacingAndGlyphs" textLength="24" x="662.5269" y="258.8292">0..1</text><!--link Role to Entry--><path d="M229.636,66.1 C342.045,70.162 529.598,81.969 589,116 C606.992,126.307 620.164,146.773 627.693,161.147 " fill="none" id="Role-Entry" style="stroke: #A80036; stroke-width: 1.0;"/><polygon fill="#A80036" points="630.029,165.765,629.5353,155.9285,627.7718,161.3035,622.3969,159.54,630.029,165.765" style="stroke: #A80036; stroke-width: 1.0;"/><text fill="#000000" font-family="sans-serif" font-size="13" lengthAdjust="spacingAndGlyphs" textLength="33" x="610" y="129.0669">Entry</text><text fill="#000000" font-family="sans-serif" font-size="13" lengthAdjust="spacingAndGlyphs" textLength="8" x="617.7261" y="154.9906">1</text><!--link PaymentObligationPartyRole to PaymentObligation--><path d="M161.765,190.11 C200.476,209.002 278.971,247.311 320.617,267.636 " fill="none" id="PaymentObligationPartyRole-PaymentObligation" style="stroke: #A80036; stroke-width: 1.0;"/><polygon fill="#A80036" points="325.264,269.904,318.9304,262.3617,320.7706,267.7109,315.4215,269.5511,325.264,269.904" style="stroke: #A80036; stroke-width: 1.0;"/><text fill="#000000" font-family="sans-serif" font-size="13" lengthAdjust="spacingAndGlyphs" textLength="121" x="258" y="233.0669">PaymentObligation</text><text fill="#000000" font-family="sans-serif" font-size="13" lengthAdjust="spacingAndGlyphs" textLength="7" x="307.8157" y="258.9192">*</text></g></svg>