<?xml version="1.0" encoding="UTF-8" standalone="no"?><svg xmlns="http://www.w3.org/2000/svg" xmlns:xlink="http://www.w3.org/1999/xlink" contentScriptType="application/ecmascript" contentStyleType="text/css" height="444px" preserveAspectRatio="none" style="width:525px;height:444px;" version="1.1" viewBox="0 0 525 444" width="525px" zoomAndPan="magnify"><defs><filter height="300%" id="fvwrh4prmt49t" width="300%" x="-1" y="-1"><feGaussianBlur result="blurOut" stdDeviation="2.0"/><feColorMatrix in="blurOut" result="blurOut2" type="matrix" values="0 0 0 0 0 0 0 0 0 0 0 0 0 0 0 0 0 0 .4 0"/><feOffset dx="4.0" dy="4.0" in="blurOut2" result="blurOut3"/><feBlend in="SourceGraphic" in2="blurOut3" mode="normal"/></filter></defs><g><!--cluster ##9487--><!--cluster ##9490--><!--class YieldCalculation--><a target="_top" xlink:actuate="onRequest" xlink:href="../YieldCalculation.html" xlink:show="new" xlink:title="Characteristics related to the yield." xlink:type="simple"><rect fill="#FEFECE" filter="url(#fvwrh4prmt49t)" height="83.1875" id="YieldCalculation" style="stroke: #A80036; stroke-width: 1.5;" width="246" x="108" y="40.5"/><rect fill="#FEFECE" height="23.9688" style="stroke: #A80036; stroke-width: 1.5;" width="246" x="108" y="40.5"/><text fill="#000000" font-family="sans-serif" font-size="12" lengthAdjust="spacingAndGlyphs" textLength="98" x="182" y="56.6387">YieldCalculation</text><line style="stroke: #A80036; stroke-width: 1.5;" x1="109" x2="353" y1="64.4688" y2="64.4688"/><ellipse cx="119" cy="76.3711" fill="#84BE84" rx="3" ry="3" style="stroke: #038048; stroke-width: 1.0;"/><text fill="#000000" font-family="sans-serif" font-size="11" lengthAdjust="spacingAndGlyphs" textLength="31" x="128" y="78.6792">Value</text><text fill="#000000" font-family="sans-serif" font-size="11" font-style="italic" lengthAdjust="spacingAndGlyphs" textLength="98" x="163" y="78.6792">(PercentageRate)</text><ellipse cx="119" cy="89.1758" fill="#84BE84" rx="3" ry="3" style="stroke: #038048; stroke-width: 1.0;"/><text fill="#000000" font-family="sans-serif" font-size="11" lengthAdjust="spacingAndGlyphs" textLength="89" x="128" y="91.4839">CalculationType</text><text fill="#000000" font-family="sans-serif" font-size="11" font-style="italic" lengthAdjust="spacingAndGlyphs" textLength="127" x="221" y="91.4839">(CalculationTypeCode)</text><ellipse cx="119" cy="101.9805" fill="#84BE84" rx="3" ry="3" style="stroke: #038048; stroke-width: 1.0;"/><text fill="#000000" font-family="sans-serif" font-size="11" lengthAdjust="spacingAndGlyphs" textLength="57" x="128" y="104.2886">ValueDate</text><text fill="#000000" font-family="sans-serif" font-size="11" font-style="italic" lengthAdjust="spacingAndGlyphs" textLength="81" x="189" y="104.2886">(ISODateTime)</text><ellipse cx="119" cy="114.7852" fill="#84BE84" rx="3" ry="3" style="stroke: #038048; stroke-width: 1.0;"/><text fill="#000000" font-family="sans-serif" font-size="11" lengthAdjust="spacingAndGlyphs" textLength="115" x="128" y="117.0933">YieldCalculationDate</text><text fill="#000000" font-family="sans-serif" font-size="11" font-style="italic" lengthAdjust="spacingAndGlyphs" textLength="81" x="247" y="117.0933">(ISODateTime)</text></a><!--class SecuritiesPricing--><a target="_top" xlink:actuate="onRequest" xlink:href="../SecuritiesPricing.html" xlink:show="new" xlink:title="Characteristics related to the price of the security." xlink:type="simple"><rect fill="#EEEEEE" filter="url(#fvwrh4prmt49t)" height="23.9688" id="SecuritiesPricing" style="stroke: #A80036; stroke-width: 1.5;" width="110" x="120" y="308"/><rect fill="#EEEEEE" height="23.9688" style="stroke: #A80036; stroke-width: 1.5;" width="110" x="120" y="308"/><text fill="#000000" font-family="sans-serif" font-size="12" lengthAdjust="spacingAndGlyphs" textLength="104" x="123" y="324.1387">SecuritiesPricing</text></a><!--class DateTimePeriod--><a target="_top" xlink:actuate="onRequest" xlink:href="../DateTimePeriod.html" xlink:show="new" xlink:title="Time span defined by a start date and time, and an end date and time." xlink:type="simple"><rect fill="#EEEEEE" filter="url(#fvwrh4prmt49t)" height="23.9688" id="DateTimePeriod" style="stroke: #A80036; stroke-width: 1.5;" width="105" x="266.75" y="410"/><rect fill="#EEEEEE" height="23.9688" style="stroke: #A80036; stroke-width: 1.5;" width="105" x="266.75" y="410"/><text fill="#000000" font-family="sans-serif" font-size="12" lengthAdjust="spacingAndGlyphs" textLength="99" x="269.75" y="426.1387">DateTimePeriod</text></a><!--class RateAndAmount--><a target="_top" xlink:actuate="onRequest" xlink:href="../RateAndAmount.html" xlink:show="new" xlink:title="Specifies the value expressed as a rate or an amount. For example, the value of a tax or a commission." xlink:type="simple"><rect fill="#EEEEEE" filter="url(#fvwrh4prmt49t)" height="23.9688" id="RateAndAmount" style="stroke: #A80036; stroke-width: 1.5;" width="107" x="265.75" y="308"/><rect fill="#EEEEEE" height="23.9688" style="stroke: #A80036; stroke-width: 1.5;" width="107" x="265.75" y="308"/><text fill="#000000" font-family="sans-serif" font-size="12" lengthAdjust="spacingAndGlyphs" textLength="101" x="268.75" y="324.1387">RateAndAmount</text></a><!--class VariableInterest--><a target="_top" xlink:actuate="onRequest" xlink:href="../VariableInterest.html" xlink:show="new" xlink:title="Specifies the estimated interest rate and the parameters used for determining its value." xlink:type="simple"><rect fill="#EEEEEE" filter="url(#fvwrh4prmt49t)" height="23.9688" id="VariableInterest" style="stroke: #A80036; stroke-width: 1.5;" width="106" x="38.5" y="206"/><rect fill="#EEEEEE" height="23.9688" style="stroke: #A80036; stroke-width: 1.5;" width="106" x="38.5" y="206"/><text fill="#000000" font-family="sans-serif" font-size="12" lengthAdjust="spacingAndGlyphs" textLength="100" x="41.5" y="222.1387">VariableInterest</text></a><!--link DateTimePeriod to SecuritiesPricing--><!--link SecuritiesPricing to DateTimePeriod--><path d="M120.376,332.013 C85.6807,341.466 50.6504,357.204 70,380 C94.0738,408.3619 195.786,417.1374 261.535,419.8316 " fill="none" id="SecuritiesPricing-DateTimePeriod" style="stroke: #A80036; stroke-width: 1.0;"/><polygon fill="#A80036" points="266.598,420.03,257.7615,415.6808,261.6018,419.8343,257.4483,423.6746,266.598,420.03" style="stroke: #A80036; stroke-width: 1.0;"/><text fill="#000000" font-family="sans-serif" font-size="13" lengthAdjust="spacingAndGlyphs" textLength="141" x="71" y="375.0669">PriceCalculationPeriod</text><text fill="#000000" font-family="sans-serif" font-size="13" lengthAdjust="spacingAndGlyphs" textLength="8" x="250.5717" y="414.8309">1</text><!--link SecuritiesPricing to DateTimePeriod--><path d="M188.149,332.203 C202.819,344.495 227.46,364.535 250,380 C264.246,389.7743 280.877,399.6979 294.242,407.3335 " fill="none" id="SecuritiesPricing-DateTimePeriod" style="stroke: #A80036; stroke-width: 1.0;"/><polygon fill="#A80036" points="298.641,409.8318,292.7914,401.9083,294.2936,407.362,288.8398,408.8642,298.641,409.8318" style="stroke: #A80036; stroke-width: 1.0;"/><text fill="#000000" font-family="sans-serif" font-size="13" lengthAdjust="spacingAndGlyphs" textLength="98" x="251" y="375.0669">PriceFactPeriod</text><text fill="#000000" font-family="sans-serif" font-size="13" lengthAdjust="spacingAndGlyphs" textLength="8" x="280.8379" y="398.8222">1</text><!--link RateAndAmount to DateTimePeriod--><!--link VariableInterest to RateAndAmount--><!--link YieldCalculation to SecuritiesPricing--><path d="M221.373,123.57 C208.855,176.327 187.563,266.054 178.87,302.69 " fill="none" id="YieldCalculation-SecuritiesPricing" style="stroke: #A80036; stroke-width: 1.0;"/><polygon fill="#A80036" points="177.682,307.699,183.6514,299.8653,178.8361,302.834,175.8674,298.0187,177.682,307.699" style="stroke: #A80036; stroke-width: 1.0;"/><text fill="#000000" font-family="sans-serif" font-size="13" lengthAdjust="spacingAndGlyphs" textLength="108" x="208" y="222.0669">RedemptionPrice</text><text fill="#000000" font-family="sans-serif" font-size="13" lengthAdjust="spacingAndGlyphs" textLength="24" x="149.2642" y="296.9027">0..1</text><!--link YieldCalculation to DateTimePeriod--><path d="M351.218,123.715 C376.564,138.079 400.115,157.088 415,182 C461.005,258.994 427.786,306.77 376,380 C368.109,391.1588 356.197,400.4075 345.299,407.2789 " fill="none" id="YieldCalculation-DateTimePeriod" style="stroke: #A80036; stroke-width: 1.0;"/><polygon fill="#A80036" points="341.025,409.8885,350.7911,408.6146,345.293,407.2839,346.6237,401.7857,341.025,409.8885" style="stroke: #A80036; stroke-width: 1.0;"/><text fill="#000000" font-family="sans-serif" font-size="13" lengthAdjust="spacingAndGlyphs" textLength="76" x="437" y="273.0669">ValuePeriod</text><text fill="#000000" font-family="sans-serif" font-size="13" lengthAdjust="spacingAndGlyphs" textLength="8" x="337.7914" y="398.8984">1</text><!--link YieldCalculation to RateAndAmount--><path d="M283.684,123.622 C300.507,139.76 317.067,159.789 326,182 C342.496,223.015 331.389,276.58 324.036,302.931 " fill="none" id="YieldCalculation-RateAndAmount" style="stroke: #A80036; stroke-width: 1.0;"/><polygon fill="#A80036" points="322.625,307.827,328.9605,300.2863,324.0094,303.0225,321.2732,298.0714,322.625,307.827" style="stroke: #A80036; stroke-width: 1.0;"/><text fill="#000000" font-family="sans-serif" font-size="13" lengthAdjust="spacingAndGlyphs" textLength="69" x="336" y="222.0669">YieldRange</text><text fill="#000000" font-family="sans-serif" font-size="13" lengthAdjust="spacingAndGlyphs" textLength="8" x="313.0664" y="296.8157">1</text><!--link YieldCalculation to VariableInterest--><path d="M115.304,123.695 C102.9202,132.514 91.9571,143.164 84,156 C75.67,169.437 79.3414,187.779 83.9041,200.832 " fill="none" id="YieldCalculation-VariableInterest" style="stroke: #A80036; stroke-width: 1.0;"/><polygon fill="#A80036" points="85.7423,205.727,86.3214,195.8952,83.9838,201.0464,78.8325,198.7088,85.7423,205.727" style="stroke: #A80036; stroke-width: 1.0;"/><text fill="#000000" font-family="sans-serif" font-size="13" lengthAdjust="spacingAndGlyphs" textLength="101" x="85" y="169.0669">VariableInterest</text><text fill="#000000" font-family="sans-serif" font-size="13" lengthAdjust="spacingAndGlyphs" textLength="7" x="74.3444" y="194.94">*</text></g></svg>